<?xml version="1.0"?>
<svg xmlns:xlink="http://www.w3.org/1999/xlink" width="6775.2" height="2858.4">
<image x="0" y="0" width="6775.2" height="2858.4" xlink:href="groundfilled-01.png"/>
<g style="stroke-linecap:round">
<line x1="1285.950406" y1="795.178109" x2="1311.346069" y2="795.178109" stroke="black" stroke-width="6.48"/>
<line x1="1311.346069" y1="795.178109" x2="1311.346069" y2="745.625592" stroke="black" stroke-width="6.48"/>
<line x1="1311.346069" y1="745.625592" x2="1285.950406" y2="745.625592" stroke="black" stroke-width="6.48"/>
<line x1="1285.950406" y1="745.625592" x2="1285.950406" y2="795.178109" stroke="black" stroke-width="6.48"/>
<line x1="1559.728062" y1="745.625592" x2="1559.728062" y2="498.48241" stroke="black" stroke-width="6.48"/>
<line x1="1560.347471" y1="796.416923" x2="1585.743134" y2="796.416923" stroke="black" stroke-width="6.48"/>
<line x1="1585.743134" y1="796.416923" x2="1585.743134" y2="746.864406" stroke="black" stroke-width="6.48"/>
<line x1="1585.743134" y1="746.864406" x2="1560.347471" y2="746.864406" stroke="black" stroke-width="6.48"/>
<line x1="1560.347471" y1="746.864406" x2="1560.347471" y2="796.416923" stroke="black" stroke-width="6.48"/>
<path d="m 1311.346069,747.483811 a 248.38199299999997,248.38199299999997 0 0 1 248.38199299999997,-248.38199299999997" fill="none" stroke="black" stroke-width="6.48"/>
<line x1="330.523178" y1="771.328966" x2="330.523178" y2="366.748985" stroke="black" stroke-width="6.48"/>
<line x1="330.523178" y1="366.748985" x2="258.15928" y2="366.748985" stroke="black" stroke-width="6.48"/>
<line x1="258.15928" y1="366.748985" x2="258.15928" y2="771.328966" stroke="black" stroke-width="6.48"/>
<line x1="258.15928" y1="771.328966" x2="330.523178" y2="771.328966" stroke="black" stroke-width="6.48"/>
<line x1="330.523178" y1="752.415674" x2="355.19269" y2="752.415674" stroke="black" stroke-width="6.48"/>
<line x1="355.19269" y1="752.415674" x2="355.19269" y2="386.484595" stroke="black" stroke-width="6.48"/>
<line x1="330.523178" y1="386.484595" x2="355.19269" y2="386.484595" stroke="black" stroke-width="6.48"/>
<line x1="3901.945176" y1="1169.331426" x2="3901.945176" y2="1428.837066" stroke="black" stroke-width="6.48"/>
<line x1="3901.945176" y1="1428.837066" x2="3941.9501" y2="1428.837066" stroke="black" stroke-width="6.48"/>
<line x1="3941.9501" y1="1428.837066" x2="3941.9501" y2="1169.331426" stroke="black" stroke-width="6.48"/>
<line x1="3941.9501" y1="1169.331426" x2="3901.945176" y2="1169.331426" stroke="black" stroke-width="6.48"/>
<line x1="3941.423719" y1="1193.544936" x2="3902.471557" y2="1193.544936" stroke="black" stroke-width="6.48"/>
<line x1="3941.423719" y1="1404.097178" x2="3900.892414" y2="1404.097178" stroke="black" stroke-width="6.48"/>
<line x1="3923.000399" y1="1193.018555" x2="3923.000399" y2="1403.570797" stroke="black" stroke-width="6.48"/>
<line x1="334.430687" y1="1882.943946" x2="334.430687" y2="1457.437414" stroke="black" stroke-width="6.48"/>
<line x1="334.430687" y1="1457.437414" x2="258.323828" y2="1457.437414" stroke="black" stroke-width="6.48"/>
<line x1="258.323828" y1="1457.437414" x2="258.323828" y2="1882.943946" stroke="black" stroke-width="6.48"/>
<line x1="258.323828" y1="1882.943946" x2="334.430687" y2="1882.943946" stroke="black" stroke-width="6.48"/>
<line x1="334.430687" y1="1863.05238" x2="360.376207" y2="1863.05238" stroke="black" stroke-width="6.48"/>
<line x1="360.376207" y1="1863.05238" x2="360.376207" y2="1478.193829" stroke="black" stroke-width="6.48"/>
<line x1="334.430687" y1="1478.193829" x2="360.376207" y2="1478.193829" stroke="black" stroke-width="6.48"/>
<line x1="2747.905531" y1="904.670665" x2="2721.68303" y2="904.670665" stroke="black" stroke-width="6.48"/>
<line x1="2721.68303" y1="904.670665" x2="2721.68303" y2="955.836522" stroke="black" stroke-width="6.48"/>
<line x1="2721.68303" y1="955.836522" x2="2747.905531" y2="955.836522" stroke="black" stroke-width="6.48"/>
<line x1="2747.905531" y1="955.836522" x2="2747.905531" y2="904.670665" stroke="black" stroke-width="6.48"/>
<line x1="2465.214181" y1="955.836522" x2="2465.214181" y2="1211.026223" stroke="black" stroke-width="6.48"/>
<line x1="2464.574609" y1="903.39152" x2="2438.352108" y2="903.39152" stroke="black" stroke-width="6.48"/>
<line x1="2438.352108" y1="903.39152" x2="2438.352108" y2="954.557374" stroke="black" stroke-width="6.48"/>
<line x1="2438.352108" y1="954.557374" x2="2464.574609" y2="954.557374" stroke="black" stroke-width="6.48"/>
<line x1="2464.574609" y1="954.557374" x2="2464.574609" y2="903.39152" stroke="black" stroke-width="6.48"/>
<path d="m 2721.68303,953.917801 a 256.4688490000001,256.4688490000001 0 0 1 -256.4688490000003,256.46884899999986" fill="none" stroke="black" stroke-width="6.48"/>
<line x1="2420.532389" y1="1427.858834" x2="2395.136725" y2="1427.858834" stroke="black" stroke-width="6.48"/>
<line x1="2395.136725" y1="1427.858834" x2="2395.136725" y2="1477.411351" stroke="black" stroke-width="6.48"/>
<line x1="2395.136725" y1="1477.411351" x2="2420.532389" y2="1477.411351" stroke="black" stroke-width="6.48"/>
<line x1="2420.532389" y1="1477.411351" x2="2420.532389" y2="1427.858834" stroke="black" stroke-width="6.48"/>
<line x1="2146.754732" y1="1477.411351" x2="2146.754732" y2="1724.554534" stroke="black" stroke-width="6.48"/>
<line x1="2146.135324" y1="1426.62002" x2="2120.73966" y2="1426.62002" stroke="black" stroke-width="6.48"/>
<line x1="2120.73966" y1="1426.62002" x2="2120.73966" y2="1476.172537" stroke="black" stroke-width="6.48"/>
<line x1="2120.73966" y1="1476.172537" x2="2146.135324" y2="1476.172537" stroke="black" stroke-width="6.48"/>
<line x1="2146.135324" y1="1476.172537" x2="2146.135324" y2="1426.62002" stroke="black" stroke-width="6.48"/>
<path d="m 2395.136725,1475.553132 a 248.38199299999997,248.38199299999997 0 0 1 -248.38199299999997,248.38199299999997" fill="none" stroke="black" stroke-width="6.48"/>
<line x1="862.211862" y1="541.339351" x2="1094.109462" y2="541.339351" stroke="black" stroke-width="6.48"/>
<line x1="1094.109462" y1="541.339351" x2="1094.109462" y2="773.712151" stroke="black" stroke-width="6.48"/>
<line x1="1094.109462" y1="773.712151" x2="862.211862" y2="773.712151" stroke="black" stroke-width="6.48"/>
<line x1="862.211862" y1="773.712151" x2="862.211862" y2="541.339351" stroke="black" stroke-width="6.48"/>
<line x1="861.736662" y1="540.864151" x2="1094.109462" y2="773.712151" stroke="black" stroke-width="6.48"/>
<line x1="862.211862" y1="773.236951" x2="1093.634262" y2="541.339351" stroke="black" stroke-width="6.48"/>
<line x1="2032.924367" y1="1854.950098" x2="2032.924367" y2="1824.062098" stroke="black" stroke-width="6.48"/>
<line x1="2032.924367" y1="1824.062098" x2="1823.361167" y2="1824.062098" stroke="black" stroke-width="6.48"/>
<line x1="1823.361167" y1="1824.062098" x2="1823.361167" y2="1854.950098" stroke="black" stroke-width="6.48"/>
<line x1="1823.361167" y1="1854.950098" x2="2032.924367" y2="1854.950098" stroke="black" stroke-width="6.48"/>
<line x1="2032.924367" y1="1651.089298" x2="2032.924367" y2="1620.201298" stroke="black" stroke-width="6.48"/>
<line x1="2032.924367" y1="1620.201298" x2="1823.361167" y2="1620.201298" stroke="black" stroke-width="6.48"/>
<line x1="1823.361167" y1="1620.201298" x2="1823.361167" y2="1651.089298" stroke="black" stroke-width="6.48"/>
<line x1="1823.361167" y1="1651.089298" x2="2032.924367" y2="1651.089298" stroke="black" stroke-width="6.48"/>
<line x1="2032.924367" y1="1824.537298" x2="2032.924367" y2="1651.089298" stroke="black" stroke-width="6.48"/>
<line x1="1824.311567" y1="1825.012498" x2="1798.175567" y2="1798.401298" stroke="black" stroke-width="6.48"/>
<line x1="1798.175567" y1="1677.225298" x2="1824.311567" y2="1650.614098" stroke="black" stroke-width="6.48"/>
<line x1="1798.175567" y1="1800.302098" x2="1798.175567" y2="1675.324498" stroke="black" stroke-width="6.48"/>
<line x1="1988.255567" y1="1824.062098" x2="1988.255567" y2="1650.614098" stroke="black" stroke-width="6.48"/>
<line x1="1485.415969" y1="209.267824" x2="1707.693134" y2="209.267824" stroke="black" stroke-width="6.48"/>
<line x1="1707.693134" y1="209.267824" x2="1707.693134" y2="432.000475" stroke="black" stroke-width="6.48"/>
<line x1="1707.693134" y1="432.000475" x2="1485.415969" y2="432.000475" stroke="black" stroke-width="6.48"/>
<line x1="1485.415969" y1="432.000475" x2="1485.415969" y2="209.267824" stroke="black" stroke-width="6.48"/>
<line x1="1484.960483" y1="208.812337" x2="1707.693134" y2="432.000475" stroke="black" stroke-width="6.48"/>
<line x1="1485.415969" y1="431.544989" x2="1707.237648" y2="209.267824" stroke="black" stroke-width="6.48"/>
<line x1="2761.020558" y1="2194.614338" x2="2761.020558" y2="1803.366338" stroke="black" stroke-width="6.48"/>
<line x1="2761.020558" y1="1803.366338" x2="2586.780558" y2="1803.366338" stroke="black" stroke-width="6.48"/>
<line x1="2586.780558" y1="1803.366338" x2="2586.780558" y2="2194.614338" stroke="black" stroke-width="6.48"/>
<line x1="2586.780558" y1="2194.614338" x2="2761.020558" y2="2194.614338" stroke="black" stroke-width="6.48"/>
<line x1="2613.708558" y1="1878.606338" x2="2613.708558" y2="2162.934338" stroke="black" stroke-width="6.48"/>
<line x1="2613.708558" y1="2162.934338" x2="2731.716558" y2="2162.934338" stroke="black" stroke-width="6.48"/>
<line x1="2731.716558" y1="2162.934338" x2="2731.716558" y2="1873.062338" stroke="black" stroke-width="6.48"/>
<path d="m 2613.453134,1879.416911 a 63.3599990854681,63.3599990854681 0 0 1 119.3743300000001,-4.293814000000111" fill="none" stroke="black" stroke-width="6.48"/>
<line x1="2081.381051" y1="1922.204977" x2="2056.829051" y2="1940.816977" stroke="black" stroke-width="6.48"/>
<line x1="2056.829051" y1="1940.816977" x2="2056.829051" y2="2088.128977" stroke="black" stroke-width="6.48"/>
<line x1="2056.829051" y1="2088.128977" x2="2084.945051" y2="2107.136977" stroke="black" stroke-width="6.48"/>
<line x1="2084.153051" y1="1943.984977" x2="2084.153051" y2="2086.940977" stroke="black" stroke-width="6.48"/>
<circle cx="2105.933051" cy="2013.284977" r="13.068000000000003" fill="none" stroke="black" stroke-width="6.48"/>
<path d="m 2083.485704,1945.53823 a 74.8440004285373,74.8440004285373 0 1 1 0.40204799999992247,139.6090039999999" fill="none" stroke="black" stroke-width="6.48"/>
<path d="m 2080.723687,1922.25128 a 95.43599931860237,95.43599931860237 0 1 1 3.0749579999996968,184.4669960000001" fill="none" stroke="black" stroke-width="6.48"/>
<line x1="740.408378" y1="209.561314" x2="1010.955578" y2="209.561314" stroke="black" stroke-width="6.48"/>
<line x1="1010.955578" y1="209.561314" x2="1010.955578" y2="341.508514" stroke="black" stroke-width="6.48"/>
<line x1="740.408378" y1="341.508514" x2="1010.955578" y2="341.508514" stroke="black" stroke-width="6.48"/>
<line x1="740.408378" y1="209.561314" x2="740.408378" y2="341.508514" stroke="black" stroke-width="6.48"/>
<line x1="747.061178" y1="216.214114" x2="885.106778" y2="216.214114" stroke="black" stroke-width="6.48"/>
<line x1="885.106778" y1="216.214114" x2="885.106778" y2="334.301314" stroke="black" stroke-width="6.48"/>
<line x1="747.061178" y1="334.301314" x2="885.106778" y2="334.301314" stroke="black" stroke-width="6.48"/>
<line x1="747.061178" y1="216.214114" x2="747.061178" y2="334.301314" stroke="black" stroke-width="6.48"/>
<line x1="899.521178" y1="223.975714" x2="996.541178" y2="223.975714" stroke="black" stroke-width="6.48"/>
<line x1="899.521178" y1="244.488514" x2="996.541178" y2="244.488514" stroke="black" stroke-width="6.48"/>
<line x1="900.075578" y1="265.555714" x2="997.095578" y2="265.555714" stroke="black" stroke-width="6.48"/>
<line x1="900.075578" y1="286.068514" x2="997.095578" y2="286.068514" stroke="black" stroke-width="6.48"/>
<line x1="899.521178" y1="306.581314" x2="996.541178" y2="306.581314" stroke="black" stroke-width="6.48"/>
<line x1="899.521178" y1="327.094114" x2="996.541178" y2="327.094114" stroke="black" stroke-width="6.48"/>
<line x1="799.729178" y1="334.301314" x2="799.729178" y2="320.441314" stroke="black" stroke-width="6.48"/>
<line x1="799.729178" y1="320.441314" x2="834.101978" y2="320.441314" stroke="black" stroke-width="6.48"/>
<line x1="834.101978" y1="320.441314" x2="834.101978" y2="333.746914" stroke="black" stroke-width="6.48"/>
<circle cx="869.583578" cy="231.182914" r="8.316000000000003" fill="none" stroke="black" stroke-width="6.48"/>
<line x1="896.394751" y1="1430.186382" x2="891.784336" y2="1298.16126" stroke="black" stroke-width="6.48"/>
<line x1="891.784336" y1="1298.16126" x2="906.031649" y2="1297.663733" stroke="black" stroke-width="6.48"/>
<line x1="910.642068" y1="1429.688858" x2="906.031649" y2="1297.663733" stroke="black" stroke-width="6.48"/>
<line x1="896.394751" y1="1430.186382" x2="910.642068" y2="1429.688858" stroke="black" stroke-width="6.48"/>
<line x1="910.177711" y1="1416.391358" x2="941.58814" y2="1417.196444" stroke="black" stroke-width="6.48"/>
<line x1="906.496006" y1="1310.961226" x2="938.723587" y2="1307.933852" stroke="black" stroke-width="6.48"/>
<line x1="1357.057962" y1="1414.099667" x2="1352.447539" y2="1282.074541" stroke="black" stroke-width="6.48"/>
<line x1="1352.447539" y1="1282.074541" x2="1339.150046" y2="1282.538905" stroke="black" stroke-width="6.48"/>
<line x1="1343.760462" y1="1414.564031" x2="1339.150046" y2="1282.538905" stroke="black" stroke-width="6.48"/>
<line x1="1357.057962" y1="1414.099667" x2="1343.760462" y2="1414.564031" stroke="black" stroke-width="6.48"/>
<line x1="1341.429631" y1="1402.282692" x2="1310.151877" y2="1405.276895" stroke="black" stroke-width="6.48"/>
<line x1="1337.747933" y1="1296.852556" x2="1305.35451" y2="1295.13082" stroke="black" stroke-width="6.48"/>
<line x1="1050.398395" y1="1129.053888" x2="1050.895922" y2="1143.301205" stroke="black" stroke-width="6.48"/>
<line x1="1050.895922" y1="1143.301205" x2="1182.921048" y2="1138.690786" stroke="black" stroke-width="6.48"/>
<line x1="1182.423521" y1="1124.443472" x2="1182.921048" y2="1138.690786" stroke="black" stroke-width="6.48"/>
<line x1="1050.398395" y1="1129.053888" x2="1182.423521" y2="1124.443472" stroke="black" stroke-width="6.48"/>
<line x1="1168.673731" y1="1139.188313" x2="1172.650925" y2="1171.382724" stroke="black" stroke-width="6.48"/>
<line x1="1064.193415" y1="1142.836848" x2="1063.421507" y2="1175.1971" stroke="black" stroke-width="6.48"/>
<line x1="1065.50212" y1="1588.800445" x2="1065.004596" y2="1574.553128" stroke="black" stroke-width="6.48"/>
<line x1="1065.004596" y1="1574.553128" x2="1197.029718" y2="1569.942709" stroke="black" stroke-width="6.48"/>
<line x1="1197.527245" y1="1584.190022" x2="1197.029718" y2="1569.942709" stroke="black" stroke-width="6.48"/>
<line x1="1065.50212" y1="1588.800445" x2="1197.527245" y2="1584.190022" stroke="black" stroke-width="6.48"/>
<line x1="1182.782405" y1="1570.440236" x2="1184.504137" y2="1538.046817" stroke="black" stroke-width="6.48"/>
<line x1="1078.302089" y1="1574.088768" x2="1075.274716" y2="1541.86119" stroke="black" stroke-width="6.48"/>
<circle cx="1123.962822" cy="1356.621959" r="191.98080000000002" fill="none" stroke="black" stroke-width="6.48"/>
<line x1="2044.889399" y1="955.822399" x2="2267.166564" y2="955.822399" stroke="black" stroke-width="6.48"/>
<line x1="2267.166564" y1="955.822399" x2="2267.166564" y2="1178.555051" stroke="black" stroke-width="6.48"/>
<line x1="2267.166564" y1="1178.555051" x2="2044.889399" y2="1178.555051" stroke="black" stroke-width="6.48"/>
<line x1="2044.889399" y1="1178.555051" x2="2044.889399" y2="955.822399" stroke="black" stroke-width="6.48"/>
<line x1="2044.433912" y1="955.366913" x2="2267.166564" y2="1178.555051" stroke="black" stroke-width="6.48"/>
<line x1="2044.889399" y1="1178.099564" x2="2266.711078" y2="955.822399" stroke="black" stroke-width="6.48"/>
<line x1="323.258818" y1="1375.374532" x2="323.258818" y2="949.841089" stroke="black" stroke-width="6.48"/>
<line x1="323.258818" y1="949.841089" x2="257.659344" y2="949.841089" stroke="black" stroke-width="6.48"/>
<line x1="257.659344" y1="949.841089" x2="257.659344" y2="1375.374532" stroke="black" stroke-width="6.48"/>
<line x1="257.659344" y1="1375.374532" x2="323.258818" y2="1375.374532" stroke="black" stroke-width="6.48"/>
<line x1="258.522494" y1="1335.669588" x2="322.395667" y2="1335.669588" stroke="black" stroke-width="6.48"/>
<line x1="258.522494" y1="990.409187" x2="324.985122" y2="990.409187" stroke="black" stroke-width="6.48"/>
<line x1="288.73278" y1="1336.532738" x2="288.73278" y2="991.272337" stroke="black" stroke-width="6.48"/>
<line x1="3874.406537" y1="1514.726719" x2="3874.406537" y2="1940.260162" stroke="black" stroke-width="6.48"/>
<line x1="3874.406537" y1="1940.260162" x2="3940.00601" y2="1940.260162" stroke="black" stroke-width="6.48"/>
<line x1="3940.00601" y1="1940.260162" x2="3940.00601" y2="1514.726719" stroke="black" stroke-width="6.48"/>
<line x1="3940.00601" y1="1514.726719" x2="3874.406537" y2="1514.726719" stroke="black" stroke-width="6.48"/>
<line x1="3939.14286" y1="1554.431663" x2="3875.269687" y2="1554.431663" stroke="black" stroke-width="6.48"/>
<line x1="3939.14286" y1="1899.692064" x2="3872.680232" y2="1899.692064" stroke="black" stroke-width="6.48"/>
<line x1="3908.932574" y1="1553.568512" x2="3908.932574" y2="1898.828914" stroke="black" stroke-width="6.48"/>
<line x1="5387.948615" y1="2114.134736" x2="5087.021843" y2="1861.627198" stroke="black" stroke-width="6.48"/>
<line x1="5087.021843" y1="1861.627198" x2="4968.404388" y2="2002.989974" stroke="black" stroke-width="6.48"/>
<line x1="4968.404388" y1="2002.989974" x2="5269.33116" y2="2255.497517" stroke="black" stroke-width="6.48"/>
<line x1="5269.33116" y1="2255.497517" x2="5387.948615" y2="2114.134736" stroke="black" stroke-width="6.48"/>
<line x1="5147.383014" y1="2153.170872" x2="5095.456056" y2="2215.055005" stroke="black" stroke-width="6.48"/>
<line x1="5095.456056" y1="2215.055005" x2="5155.520072" y2="2265.454699" stroke="black" stroke-width="6.48"/>
<line x1="5155.520072" y1="2265.454699" x2="5207.447027" y2="2203.570562" stroke="black" stroke-width="6.48"/>
<line x1="5166.113296" y1="2251.598051" x2="5106.655991" y2="2201.707447" stroke="black" stroke-width="6.48"/>
<line x1="5378.500523" y1="1999.716944" x2="5318.43651" y2="1949.317254" stroke="black" stroke-width="6.48"/>
<line x1="5318.43651" y1="1949.317254" x2="5266.000465" y2="2011.808095" stroke="black" stroke-width="6.48"/>
<line x1="5326.064482" y1="2062.207786" x2="5378.500523" y2="1999.716944" stroke="black" stroke-width="6.48"/>
<line x1="5366.693887" y1="2012.555416" x2="5307.236575" y2="1962.664812" stroke="black" stroke-width="6.48"/>
<line x1="5031.501937" y1="2055.935106" x2="4979.574986" y2="2117.819239" stroke="black" stroke-width="6.48"/>
<line x1="4979.574986" y1="2117.819239" x2="5039.638999" y2="2168.21893" stroke="black" stroke-width="6.48"/>
<line x1="5039.638999" y1="2168.21893" x2="5091.56595" y2="2106.334796" stroke="black" stroke-width="6.48"/>
<line x1="5050.838927" y1="2154.871372" x2="4990.774914" y2="2104.471681" stroke="black" stroke-width="6.48"/>
<line x1="5262.619446" y1="1902.481175" x2="5202.555433" y2="1852.081484" stroke="black" stroke-width="6.48"/>
<line x1="5202.555433" y1="1852.081484" x2="5150.119392" y2="1914.572329" stroke="black" stroke-width="6.48"/>
<line x1="5210.183405" y1="1964.97202" x2="5262.619446" y2="1902.481175" stroke="black" stroke-width="6.48"/>
<line x1="5251.419518" y1="1915.828736" x2="5191.355506" y2="1865.429046" stroke="black" stroke-width="6.48"/>
<line x1="3367.5624" y1="1075.185479" x2="3576.927604" y2="1075.185479" stroke="black" stroke-width="6.48"/>
<line x1="3576.927604" y1="1075.185479" x2="3576.927604" y2="743.971075" stroke="black" stroke-width="6.48"/>
<line x1="3576.927604" y1="743.971075" x2="3367.5624" y2="743.971075" stroke="black" stroke-width="6.48"/>
<line x1="3367.5624" y1="743.971075" x2="3367.5624" y2="1075.185479" stroke="black" stroke-width="6.48"/>
<line x1="3366.8892" y1="803.212675" x2="3577.6008" y2="803.212675" stroke="black" stroke-width="6.48"/>
<line x1="3577.6008" y1="803.212675" x2="3368.2356" y2="853.029479" stroke="black" stroke-width="6.48"/>
<line x1="3368.2356" y1="853.029479" x2="3399.876004" y2="899.480279" stroke="black" stroke-width="6.48"/>
<line x1="3399.876004" y1="899.480279" x2="3577.6008" y2="802.539479" stroke="black" stroke-width="6.48"/>
<line x1="3233.442395" y1="1203.848874" x2="3455.71956" y2="1203.848874" stroke="black" stroke-width="6.48"/>
<line x1="3455.71956" y1="1203.848874" x2="3455.71956" y2="1426.581526" stroke="black" stroke-width="6.48"/>
<line x1="3455.71956" y1="1426.581526" x2="3233.442395" y2="1426.581526" stroke="black" stroke-width="6.48"/>
<line x1="3233.442395" y1="1426.581526" x2="3233.442395" y2="1203.848874" stroke="black" stroke-width="6.48"/>
<line x1="3232.986908" y1="1203.393388" x2="3455.71956" y2="1426.581526" stroke="black" stroke-width="6.48"/>
<line x1="3233.442395" y1="1426.126039" x2="3455.264074" y2="1203.848874" stroke="black" stroke-width="6.48"/>
<line x1="2804.16708" y1="1127.69402" x2="2804.16708" y2="1153.148746" stroke="black" stroke-width="6.48"/>
<line x1="2804.16708" y1="1153.148746" x2="2853.834836" y2="1153.148746" stroke="black" stroke-width="6.48"/>
<line x1="2853.834836" y1="1153.148746" x2="2853.834836" y2="1127.69402" stroke="black" stroke-width="6.48"/>
<line x1="2853.834836" y1="1127.69402" x2="2804.16708" y2="1127.69402" stroke="black" stroke-width="6.48"/>
<line x1="2853.834836" y1="1402.108373" x2="3101.55277" y2="1402.108373" stroke="black" stroke-width="6.48"/>
<line x1="2802.925386" y1="1402.729218" x2="2802.925386" y2="1428.183943" stroke="black" stroke-width="6.48"/>
<line x1="2802.925386" y1="1428.183943" x2="2852.593142" y2="1428.183943" stroke="black" stroke-width="6.48"/>
<line x1="2852.593142" y1="1428.183943" x2="2852.593142" y2="1402.729218" stroke="black" stroke-width="6.48"/>
<line x1="2852.593142" y1="1402.729218" x2="2802.925386" y2="1402.729218" stroke="black" stroke-width="6.48"/>
<path d="m 2851.972294,1153.148746 a 248.95962699999984,248.95962699999984 0 0 1 248.95962699999973,248.95962699999995" fill="none" stroke="black" stroke-width="6.48"/>
<line x1="3404.811071" y1="1721.673259" x2="3627.725346" y2="1657.753618" stroke="black" stroke-width="6.48"/>
<line x1="3627.725346" y1="1657.753618" x2="3691.77597" y2="1881.12469" stroke="black" stroke-width="6.48"/>
<line x1="3691.77597" y1="1881.12469" x2="3468.861695" y2="1945.044328" stroke="black" stroke-width="6.48"/>
<line x1="3468.861695" y1="1945.044328" x2="3404.811071" y2="1721.673259" stroke="black" stroke-width="6.48"/>
<line x1="3404.223295" y1="1721.347448" x2="3691.77597" y2="1881.12469" stroke="black" stroke-width="6.48"/>
<line x1="3468.730709" y1="1944.587538" x2="3627.268556" y2="1657.8846" stroke="black" stroke-width="6.48"/>
<line x1="3089.601562" y1="1589.315879" x2="3074.626764" y2="1616.331136" stroke="black" stroke-width="6.48"/>
<line x1="3074.626764" y1="1616.331136" x2="3257.914867" y2="1717.929389" stroke="black" stroke-width="6.48"/>
<line x1="3257.914867" y1="1717.929389" x2="3272.889668" y2="1690.914139" stroke="black" stroke-width="6.48"/>
<line x1="3272.889668" y1="1690.914139" x2="3089.601562" y2="1589.315879" stroke="black" stroke-width="6.48"/>
<line x1="2990.767882" y1="1767.616553" x2="2975.793084" y2="1794.63181" stroke="black" stroke-width="6.48"/>
<line x1="2975.793084" y1="1794.63181" x2="3159.081187" y2="1896.230063" stroke="black" stroke-width="6.48"/>
<line x1="3159.081187" y1="1896.230063" x2="3174.055988" y2="1869.21481" stroke="black" stroke-width="6.48"/>
<line x1="3174.055988" y1="1869.21481" x2="2990.767882" y2="1767.616553" stroke="black" stroke-width="6.48"/>
<line x1="3074.857146" y1="1615.915516" x2="2990.767882" y2="1767.616553" stroke="black" stroke-width="6.48"/>
<line x1="3257.544391" y1="1716.637388" x2="3267.502088" y2="1752.583054" stroke="black" stroke-width="6.48"/>
<line x1="3208.754794" y1="1858.56597" x2="3172.99437" y2="1869.169666" stroke="black" stroke-width="6.48"/>
<line x1="3268.423613" y1="1750.920577" x2="3207.833273" y2="1860.22845" stroke="black" stroke-width="6.48"/>
<line x1="3113.694976" y1="1637.987" x2="3029.605718" y2="1789.688038" stroke="black" stroke-width="6.48"/>
<line x1="6283.5084" y1="1775.577769" x2="6104.891628" y2="1710.566582" stroke="black" stroke-width="6.48"/>
<line x1="6104.891628" y1="1710.566582" x2="5946.264328" y2="2146.391507" stroke="black" stroke-width="6.48"/>
<line x1="5946.264328" y1="2146.391507" x2="6124.881103" y2="2211.402694" stroke="black" stroke-width="6.48"/>
<line x1="6124.881103" y1="2211.402694" x2="6133.007502" y2="2189.075602" stroke="black" stroke-width="6.48"/>
<line x1="6133.007502" y1="2189.075602" x2="5975.824738" y2="2131.865755" stroke="black" stroke-width="6.48"/>
<line x1="5975.824738" y1="2131.865755" x2="6117.874186" y2="1741.588103" stroke="black" stroke-width="6.48"/>
<line x1="6117.874186" y1="1741.588103" x2="6275.056946" y2="1798.797946" stroke="black" stroke-width="6.48"/>
<line x1="6275.056946" y1="1798.797946" x2="6283.5084" y2="1775.577769" stroke="black" stroke-width="6.48"/>
<line x1="6269.698444" y1="1796.84761" x2="6127.648996" y2="2187.125266" stroke="black" stroke-width="6.48"/>
<line x1="6199.72933" y1="1991.864952" x2="6047.905072" y2="1936.605442" stroke="black" stroke-width="6.48"/>
<line x1="960.977092" y1="1893.299915" x2="1052.63519" y2="2081.226989" stroke="black" stroke-width="6.48"/>
<line x1="1052.63519" y1="2081.226989" x2="1261.0634" y2="1979.569822" stroke="black" stroke-width="6.48"/>
<line x1="1261.0634" y1="1979.569822" x2="1169.405302" y2="1791.642748" stroke="black" stroke-width="6.48"/>
<line x1="1169.405302" y1="1791.642748" x2="960.977092" y2="1893.299915" stroke="black" stroke-width="6.48"/>
<line x1="990.020369" y1="1879.134574" x2="1081.678468" y2="2067.061648" stroke="black" stroke-width="6.48"/>
<line x1="6302.578853" y1="2309.270504" x2="6374.091157" y2="2505.748954" stroke="black" stroke-width="6.48"/>
<line x1="6374.091157" y1="2505.748954" x2="6592.003621" y2="2426.435302" stroke="black" stroke-width="6.48"/>
<line x1="6592.003621" y1="2426.435302" x2="6520.491317" y2="2229.956852" stroke="black" stroke-width="6.48"/>
<line x1="6520.491317" y1="2229.956852" x2="6302.578853" y2="2309.270504" stroke="black" stroke-width="6.48"/>
<line x1="6332.943704" y1="2298.218602" x2="6404.456012" y2="2494.697054" stroke="black" stroke-width="6.48"/>
</g>
</svg>
