<?xml version="1.0"?>
<svg xmlns:xlink="http://www.w3.org/1999/xlink" width="6775.2" height="2858.4">
<image x="0" y="0" width="6775.2" height="2858.4" xlink:href="groundfilled-01.png"/>
<g style="stroke-linecap:round">
<line x1="1285.950406" y1="795.178109" x2="1311.346069" y2="795.178109" stroke="black" stroke-width="6.48"/>
<line x1="1311.346069" y1="795.178109" x2="1311.346069" y2="745.625592" stroke="black" stroke-width="6.48"/>
<line x1="1311.346069" y1="745.625592" x2="1285.950406" y2="745.625592" stroke="black" stroke-width="6.48"/>
<line x1="1285.950406" y1="745.625592" x2="1285.950406" y2="795.178109" stroke="black" stroke-width="6.48"/>
<line x1="1559.728062" y1="745.625592" x2="1559.728062" y2="498.48241" stroke="black" stroke-width="6.48"/>
<line x1="1560.347471" y1="796.416923" x2="1585.743134" y2="796.416923" stroke="black" stroke-width="6.48"/>
<line x1="1585.743134" y1="796.416923" x2="1585.743134" y2="746.864406" stroke="black" stroke-width="6.48"/>
<line x1="1585.743134" y1="746.864406" x2="1560.347471" y2="746.864406" stroke="black" stroke-width="6.48"/>
<line x1="1560.347471" y1="746.864406" x2="1560.347471" y2="796.416923" stroke="black" stroke-width="6.48"/>
<path d="m 1311.346069,747.483811 a 248.38199299999997,248.38199299999997 0 0 1 248.38199299999997,-248.38199299999997" fill="none" stroke="black" stroke-width="6.48"/>
<line x1="320.532556" y1="771.34176" x2="320.532556" y2="366.736194" stroke="black" stroke-width="6.48"/>
<line x1="320.532556" y1="366.736194" x2="258.159283" y2="366.736194" stroke="black" stroke-width="6.48"/>
<line x1="258.159283" y1="366.736194" x2="258.159283" y2="771.34176" stroke="black" stroke-width="6.48"/>
<line x1="258.159283" y1="771.34176" x2="320.532556" y2="771.34176" stroke="black" stroke-width="6.48"/>
<line x1="258.979986" y1="733.589518" x2="319.711856" y2="733.589518" stroke="black" stroke-width="6.48"/>
<line x1="258.979986" y1="405.309139" x2="322.173958" y2="405.309139" stroke="black" stroke-width="6.48"/>
<line x1="287.704519" y1="734.410217" x2="287.704519" y2="406.129838" stroke="black" stroke-width="6.48"/>
<line x1="3901.945176" y1="1169.331426" x2="3901.945176" y2="1428.837066" stroke="black" stroke-width="6.48"/>
<line x1="3901.945176" y1="1428.837066" x2="3941.9501" y2="1428.837066" stroke="black" stroke-width="6.48"/>
<line x1="3941.9501" y1="1428.837066" x2="3941.9501" y2="1169.331426" stroke="black" stroke-width="6.48"/>
<line x1="3941.9501" y1="1169.331426" x2="3901.945176" y2="1169.331426" stroke="black" stroke-width="6.48"/>
<line x1="3941.423719" y1="1193.544936" x2="3902.471557" y2="1193.544936" stroke="black" stroke-width="6.48"/>
<line x1="3941.423719" y1="1404.097178" x2="3900.892414" y2="1404.097178" stroke="black" stroke-width="6.48"/>
<line x1="3923.000399" y1="1193.018555" x2="3923.000399" y2="1403.570797" stroke="black" stroke-width="6.48"/>
<line x1="323.923298" y1="1882.957399" x2="323.923298" y2="1457.423957" stroke="black" stroke-width="6.48"/>
<line x1="323.923298" y1="1457.423957" x2="258.323825" y2="1457.423957" stroke="black" stroke-width="6.48"/>
<line x1="258.323825" y1="1457.423957" x2="258.323825" y2="1882.957399" stroke="black" stroke-width="6.48"/>
<line x1="258.323825" y1="1882.957399" x2="323.923298" y2="1882.957399" stroke="black" stroke-width="6.48"/>
<line x1="259.186975" y1="1843.252456" x2="323.060148" y2="1843.252456" stroke="black" stroke-width="6.48"/>
<line x1="259.186975" y1="1497.992054" x2="325.649603" y2="1497.992054" stroke="black" stroke-width="6.48"/>
<line x1="289.397261" y1="1844.115606" x2="289.397261" y2="1498.855205" stroke="black" stroke-width="6.48"/>
<line x1="2747.905531" y1="904.670665" x2="2721.68303" y2="904.670665" stroke="black" stroke-width="6.48"/>
<line x1="2721.68303" y1="904.670665" x2="2721.68303" y2="955.836522" stroke="black" stroke-width="6.48"/>
<line x1="2721.68303" y1="955.836522" x2="2747.905531" y2="955.836522" stroke="black" stroke-width="6.48"/>
<line x1="2747.905531" y1="955.836522" x2="2747.905531" y2="904.670665" stroke="black" stroke-width="6.48"/>
<line x1="2465.214181" y1="955.836522" x2="2465.214181" y2="1211.026223" stroke="black" stroke-width="6.48"/>
<line x1="2464.574609" y1="903.39152" x2="2438.352108" y2="903.39152" stroke="black" stroke-width="6.48"/>
<line x1="2438.352108" y1="903.39152" x2="2438.352108" y2="954.557374" stroke="black" stroke-width="6.48"/>
<line x1="2438.352108" y1="954.557374" x2="2464.574609" y2="954.557374" stroke="black" stroke-width="6.48"/>
<line x1="2464.574609" y1="954.557374" x2="2464.574609" y2="903.39152" stroke="black" stroke-width="6.48"/>
<path d="m 2721.68303,953.917801 a 256.4688490000001,256.4688490000001 0 0 1 -256.4688490000003,256.46884899999986" fill="none" stroke="black" stroke-width="6.48"/>
<line x1="2420.532389" y1="1427.858834" x2="2395.136725" y2="1427.858834" stroke="black" stroke-width="6.48"/>
<line x1="2395.136725" y1="1427.858834" x2="2395.136725" y2="1477.411351" stroke="black" stroke-width="6.48"/>
<line x1="2395.136725" y1="1477.411351" x2="2420.532389" y2="1477.411351" stroke="black" stroke-width="6.48"/>
<line x1="2420.532389" y1="1477.411351" x2="2420.532389" y2="1427.858834" stroke="black" stroke-width="6.48"/>
<line x1="2146.754732" y1="1477.411351" x2="2146.754732" y2="1724.554534" stroke="black" stroke-width="6.48"/>
<line x1="2146.135324" y1="1426.62002" x2="2120.73966" y2="1426.62002" stroke="black" stroke-width="6.48"/>
<line x1="2120.73966" y1="1426.62002" x2="2120.73966" y2="1476.172537" stroke="black" stroke-width="6.48"/>
<line x1="2120.73966" y1="1476.172537" x2="2146.135324" y2="1476.172537" stroke="black" stroke-width="6.48"/>
<line x1="2146.135324" y1="1476.172537" x2="2146.135324" y2="1426.62002" stroke="black" stroke-width="6.48"/>
<path d="m 2395.136725,1475.553132 a 248.38199299999997,248.38199299999997 0 0 1 -248.38199299999997,248.38199299999997" fill="none" stroke="black" stroke-width="6.48"/>
<line x1="673.265225" y1="541.339351" x2="905.162825" y2="541.339351" stroke="black" stroke-width="6.48"/>
<line x1="905.162825" y1="541.339351" x2="905.162825" y2="773.712151" stroke="black" stroke-width="6.48"/>
<line x1="905.162825" y1="773.712151" x2="673.265225" y2="773.712151" stroke="black" stroke-width="6.48"/>
<line x1="673.265225" y1="773.712151" x2="673.265225" y2="541.339351" stroke="black" stroke-width="6.48"/>
<line x1="672.790025" y1="540.864151" x2="905.162825" y2="773.712151" stroke="black" stroke-width="6.48"/>
<line x1="673.265225" y1="773.236951" x2="904.687625" y2="541.339351" stroke="black" stroke-width="6.48"/>
<line x1="2032.924367" y1="2009.161134" x2="2032.924367" y2="1978.273134" stroke="black" stroke-width="6.48"/>
<line x1="2032.924367" y1="1978.273134" x2="1823.361167" y2="1978.273134" stroke="black" stroke-width="6.48"/>
<line x1="1823.361167" y1="1978.273134" x2="1823.361167" y2="2009.161134" stroke="black" stroke-width="6.48"/>
<line x1="1823.361167" y1="2009.161134" x2="2032.924367" y2="2009.161134" stroke="black" stroke-width="6.48"/>
<line x1="2032.924367" y1="1805.300334" x2="2032.924367" y2="1774.412334" stroke="black" stroke-width="6.48"/>
<line x1="2032.924367" y1="1774.412334" x2="1823.361167" y2="1774.412334" stroke="black" stroke-width="6.48"/>
<line x1="1823.361167" y1="1774.412334" x2="1823.361167" y2="1805.300334" stroke="black" stroke-width="6.48"/>
<line x1="1823.361167" y1="1805.300334" x2="2032.924367" y2="1805.300334" stroke="black" stroke-width="6.48"/>
<line x1="2032.924367" y1="1978.748334" x2="2032.924367" y2="1805.300334" stroke="black" stroke-width="6.48"/>
<line x1="1824.311567" y1="1979.223534" x2="1798.175567" y2="1952.612334" stroke="black" stroke-width="6.48"/>
<line x1="1798.175567" y1="1831.436334" x2="1824.311567" y2="1804.825134" stroke="black" stroke-width="6.48"/>
<line x1="1798.175567" y1="1954.513134" x2="1798.175567" y2="1829.535534" stroke="black" stroke-width="6.48"/>
<line x1="1988.255567" y1="1978.273134" x2="1988.255567" y2="1804.825134" stroke="black" stroke-width="6.48"/>
<line x1="1485.415969" y1="209.267824" x2="1707.693134" y2="209.267824" stroke="black" stroke-width="6.48"/>
<line x1="1707.693134" y1="209.267824" x2="1707.693134" y2="432.000475" stroke="black" stroke-width="6.48"/>
<line x1="1707.693134" y1="432.000475" x2="1485.415969" y2="432.000475" stroke="black" stroke-width="6.48"/>
<line x1="1485.415969" y1="432.000475" x2="1485.415969" y2="209.267824" stroke="black" stroke-width="6.48"/>
<line x1="1484.960483" y1="208.812337" x2="1707.693134" y2="432.000475" stroke="black" stroke-width="6.48"/>
<line x1="1485.415969" y1="431.544989" x2="1707.237648" y2="209.267824" stroke="black" stroke-width="6.48"/>
<line x1="2586.780558" y1="1803.366338" x2="2586.780558" y2="2194.614338" stroke="black" stroke-width="6.48"/>
<line x1="2586.780558" y1="2194.614338" x2="2761.020558" y2="2194.614338" stroke="black" stroke-width="6.48"/>
<line x1="2761.020558" y1="2194.614338" x2="2761.020558" y2="1803.366338" stroke="black" stroke-width="6.48"/>
<line x1="2761.020558" y1="1803.366338" x2="2586.780558" y2="1803.366338" stroke="black" stroke-width="6.48"/>
<line x1="2734.092558" y1="2119.374338" x2="2734.092558" y2="1835.046338" stroke="black" stroke-width="6.48"/>
<line x1="2734.092558" y1="1835.046338" x2="2616.084558" y2="1835.046338" stroke="black" stroke-width="6.48"/>
<line x1="2616.084558" y1="1835.046338" x2="2616.084558" y2="2124.918338" stroke="black" stroke-width="6.48"/>
<path d="m 2734.347982,2118.563766 a 63.35999941905905,63.35999941905905 0 0 1 -119.37432999999965,4.2938139999996565" fill="none" stroke="black" stroke-width="6.48"/>
<line x1="2081.371982" y1="1921.062146" x2="2056.819982" y2="1939.674146" stroke="black" stroke-width="6.48"/>
<line x1="2056.819982" y1="1939.674146" x2="2056.819982" y2="2086.986146" stroke="black" stroke-width="6.48"/>
<line x1="2056.819982" y1="2086.986146" x2="2084.935982" y2="2105.994146" stroke="black" stroke-width="6.48"/>
<line x1="2084.143982" y1="1942.842146" x2="2084.143982" y2="2085.798146" stroke="black" stroke-width="6.48"/>
<circle cx="2105.923982" cy="2012.142146" r="13.068000000000003" fill="none" stroke="black" stroke-width="6.48"/>
<path d="m 2083.476636,1944.395399 a 74.84400006780956,74.84400006780956 0 1 1 0.40204799999992247,139.6090039999999" fill="none" stroke="black" stroke-width="6.48"/>
<path d="m 2080.714619,1921.10845 a 95.43599858117905,95.43599858117905 0 1 1 3.0749580000001515,184.466995" fill="none" stroke="black" stroke-width="6.48"/>
<line x1="971.629045" y1="211.281235" x2="1364.872918" y2="211.281235" stroke="black" stroke-width="6.48"/>
<line x1="1368.828324" y1="210.284953" x2="1368.828324" y2="346.353728" stroke="black" stroke-width="6.48"/>
<line x1="972.093434" y1="347.505235" x2="1369.133665" y2="347.505235" stroke="black" stroke-width="6.48"/>
<line x1="972.828324" y1="211.975985" x2="972.828324" y2="347.240041" stroke="black" stroke-width="6.48"/>
<line x1="983.124324" y1="222.369235" x2="1106.676324" y2="222.369235" stroke="black" stroke-width="6.48"/>
<line x1="1106.676324" y1="222.369235" x2="1106.676324" y2="336.417235" stroke="black" stroke-width="6.48"/>
<line x1="983.124324" y1="336.417235" x2="1106.676324" y2="336.417235" stroke="black" stroke-width="6.48"/>
<line x1="983.124324" y1="222.369235" x2="983.124324" y2="336.417235" stroke="black" stroke-width="6.48"/>
<line x1="1125.684324" y1="229.497235" x2="1212.804324" y2="229.497235" stroke="black" stroke-width="6.48"/>
<line x1="1125.684324" y1="249.297235" x2="1212.804324" y2="249.297235" stroke="black" stroke-width="6.48"/>
<line x1="1126.476324" y1="269.889235" x2="1212.804324" y2="269.889235" stroke="black" stroke-width="6.48"/>
<line x1="1126.476324" y1="289.689235" x2="1212.804324" y2="289.689235" stroke="black" stroke-width="6.48"/>
<line x1="1125.684324" y1="309.489235" x2="1212.804324" y2="309.489235" stroke="black" stroke-width="6.48"/>
<line x1="1125.684324" y1="329.289235" x2="1212.804324" y2="329.289235" stroke="black" stroke-width="6.48"/>
<line x1="1030.644324" y1="335.625235" x2="1030.644324" y2="322.161235" stroke="black" stroke-width="6.48"/>
<line x1="1030.644324" y1="322.161235" x2="1060.740324" y2="322.161235" stroke="black" stroke-width="6.48"/>
<line x1="1060.740324" y1="322.161235" x2="1060.740324" y2="334.833235" stroke="black" stroke-width="6.48"/>
<line x1="1233.396324" y1="222.369235" x2="1356.948324" y2="222.369235" stroke="black" stroke-width="6.48"/>
<line x1="1356.948324" y1="222.369235" x2="1356.948324" y2="336.417235" stroke="black" stroke-width="6.48"/>
<line x1="1233.396324" y1="336.417235" x2="1356.948324" y2="336.417235" stroke="black" stroke-width="6.48"/>
<line x1="1233.396324" y1="222.369235" x2="1233.396324" y2="336.417235" stroke="black" stroke-width="6.48"/>
<line x1="1280.916324" y1="336.417235" x2="1280.916324" y2="322.953235" stroke="black" stroke-width="6.48"/>
<line x1="1280.916324" y1="322.953235" x2="1311.012324" y2="322.953235" stroke="black" stroke-width="6.48"/>
<line x1="1311.012324" y1="322.953235" x2="1311.012324" y2="335.625235" stroke="black" stroke-width="6.48"/>
<circle cx="1092.420324" cy="236.625235" r="7.128000000000001" fill="none" stroke="black" stroke-width="6.48"/>
<circle cx="1342.692324" cy="237.417235" r="7.128000000000001" fill="none" stroke="black" stroke-width="6.48"/>
<line x1="1037.856442" y1="988.00286" x2="1095.767726" y2="1106.738586" stroke="black" stroke-width="6.48"/>
<line x1="1095.767726" y1="1106.738586" x2="1082.954516" y2="1112.988006" stroke="black" stroke-width="6.48"/>
<line x1="1025.043235" y1="994.25228" x2="1082.954516" y2="1112.988006" stroke="black" stroke-width="6.48"/>
<line x1="1037.856442" y1="988.00286" x2="1025.043235" y2="994.25228" stroke="black" stroke-width="6.48"/>
<line x1="1030.876027" y1="1006.211275" x2="1001.853713" y2="1018.251569" stroke="black" stroke-width="6.48"/>
<line x1="1077.121724" y1="1101.029011" x2="1048.91171" y2="1116.90279" stroke="black" stroke-width="6.48"/>
<line x1="623.562721" y1="1190.067412" x2="681.474002" y2="1308.803141" stroke="black" stroke-width="6.48"/>
<line x1="681.474002" y1="1308.803141" x2="693.432997" y2="1302.970345" stroke="black" stroke-width="6.48"/>
<line x1="635.521716" y1="1184.23462" x2="693.432997" y2="1302.970345" stroke="black" stroke-width="6.48"/>
<line x1="623.562721" y1="1190.067412" x2="635.521716" y2="1184.23462" stroke="black" stroke-width="6.48"/>
<line x1="642.646307" y1="1194.506143" x2="670.002106" y2="1179.048996" stroke="black" stroke-width="6.48"/>
<line x1="688.892004" y1="1289.323883" x2="719.185162" y2="1277.721173" stroke="black" stroke-width="6.48"/>
<line x1="1019.648732" y1="1325.740003" x2="1013.399312" y2="1312.926797" stroke="black" stroke-width="6.48"/>
<line x1="1013.399312" y1="1312.926797" x2="894.66359" y2="1370.838078" stroke="black" stroke-width="6.48"/>
<line x1="900.913007" y1="1383.651288" x2="894.66359" y2="1370.838078" stroke="black" stroke-width="6.48"/>
<line x1="1019.648732" y1="1325.740003" x2="900.913007" y2="1383.651288" stroke="black" stroke-width="6.48"/>
<line x1="907.476793" y1="1364.588662" x2="890.748803" y2="1336.795276" stroke="black" stroke-width="6.48"/>
<line x1="1001.440321" y1="1318.759589" x2="988.9834" y2="1288.883059" stroke="black" stroke-width="6.48"/>
<line x1="818.855024" y1="911.88387" x2="825.104441" y2="924.697073" stroke="black" stroke-width="6.48"/>
<line x1="825.104441" y1="924.697073" x2="706.368719" y2="982.608361" stroke="black" stroke-width="6.48"/>
<line x1="700.119299" y1="969.795151" x2="706.368719" y2="982.608361" stroke="black" stroke-width="6.48"/>
<line x1="818.855024" y1="911.88387" x2="700.119299" y2="969.795151" stroke="black" stroke-width="6.48"/>
<line x1="719.181925" y1="976.358941" x2="730.784632" y2="1006.652095" stroke="black" stroke-width="6.48"/>
<line x1="813.14545" y1="930.529865" x2="829.019228" y2="958.739882" stroke="black" stroke-width="6.48"/>
<circle cx="859.884012" cy="1147.767577" r="191.98080000000002" fill="none" stroke="black" stroke-width="6.48"/>
<line x1="2044.889399" y1="955.822399" x2="2267.166564" y2="955.822399" stroke="black" stroke-width="6.48"/>
<line x1="2267.166564" y1="955.822399" x2="2267.166564" y2="1178.555051" stroke="black" stroke-width="6.48"/>
<line x1="2267.166564" y1="1178.555051" x2="2044.889399" y2="1178.555051" stroke="black" stroke-width="6.48"/>
<line x1="2044.889399" y1="1178.555051" x2="2044.889399" y2="955.822399" stroke="black" stroke-width="6.48"/>
<line x1="2044.433912" y1="955.366913" x2="2267.166564" y2="1178.555051" stroke="black" stroke-width="6.48"/>
<line x1="2044.889399" y1="1178.099564" x2="2266.711078" y2="955.822399" stroke="black" stroke-width="6.48"/>
<line x1="323.258818" y1="1375.374532" x2="323.258818" y2="949.841089" stroke="black" stroke-width="6.48"/>
<line x1="323.258818" y1="949.841089" x2="257.659344" y2="949.841089" stroke="black" stroke-width="6.48"/>
<line x1="257.659344" y1="949.841089" x2="257.659344" y2="1375.374532" stroke="black" stroke-width="6.48"/>
<line x1="257.659344" y1="1375.374532" x2="323.258818" y2="1375.374532" stroke="black" stroke-width="6.48"/>
<line x1="258.522494" y1="1335.669588" x2="322.395667" y2="1335.669588" stroke="black" stroke-width="6.48"/>
<line x1="258.522494" y1="990.409187" x2="324.985122" y2="990.409187" stroke="black" stroke-width="6.48"/>
<line x1="288.73278" y1="1336.532738" x2="288.73278" y2="991.272337" stroke="black" stroke-width="6.48"/>
<line x1="3874.406537" y1="1514.726719" x2="3874.406537" y2="1940.260162" stroke="black" stroke-width="6.48"/>
<line x1="3874.406537" y1="1940.260162" x2="3940.00601" y2="1940.260162" stroke="black" stroke-width="6.48"/>
<line x1="3940.00601" y1="1940.260162" x2="3940.00601" y2="1514.726719" stroke="black" stroke-width="6.48"/>
<line x1="3940.00601" y1="1514.726719" x2="3874.406537" y2="1514.726719" stroke="black" stroke-width="6.48"/>
<line x1="3939.14286" y1="1554.431663" x2="3875.269687" y2="1554.431663" stroke="black" stroke-width="6.48"/>
<line x1="3939.14286" y1="1899.692064" x2="3872.680232" y2="1899.692064" stroke="black" stroke-width="6.48"/>
<line x1="3908.932574" y1="1553.568512" x2="3908.932574" y2="1898.828914" stroke="black" stroke-width="6.48"/>
<line x1="5031.635998" y1="1435.679528" x2="4678.560936" y2="1607.885744" stroke="black" stroke-width="6.48"/>
<line x1="4678.560936" y1="1607.885744" x2="4759.456194" y2="1773.7456" stroke="black" stroke-width="6.48"/>
<line x1="4759.456194" y1="1773.7456" x2="5112.531259" y2="1601.539391" stroke="black" stroke-width="6.48"/>
<line x1="5112.531259" y1="1601.539391" x2="5031.635998" y2="1435.679528" stroke="black" stroke-width="6.48"/>
<line x1="4969.450433" y1="1671.32457" x2="5004.863809" y2="1743.932743" stroke="black" stroke-width="6.48"/>
<line x1="5004.863809" y1="1743.932743" x2="5075.336452" y2="1709.560944" stroke="black" stroke-width="6.48"/>
<line x1="5075.336452" y1="1709.560944" x2="5039.923079" y2="1636.952764" stroke="black" stroke-width="6.48"/>
<line x1="5066.986432" y1="1694.247545" x2="4997.225628" y2="1728.27216" stroke="black" stroke-width="6.48"/>
<line x1="4923.267257" y1="1397.772882" x2="4852.794611" y2="1432.144688" stroke="black" stroke-width="6.48"/>
<line x1="4852.794611" y1="1432.144688" x2="4888.555175" y2="1505.464708" stroke="black" stroke-width="6.48"/>
<line x1="4959.027821" y1="1471.092905" x2="4923.267257" y2="1397.772882" stroke="black" stroke-width="6.48"/>
<line x1="4930.193588" y1="1413.78066" x2="4860.432792" y2="1447.805275" stroke="black" stroke-width="6.48"/>
<line x1="4833.488059" y1="1737.637848" x2="4868.901436" y2="1810.246025" stroke="black" stroke-width="6.48"/>
<line x1="4868.901436" y1="1810.246025" x2="4939.374082" y2="1775.874218" stroke="black" stroke-width="6.48"/>
<line x1="4939.374082" y1="1775.874218" x2="4903.960702" y2="1703.266045" stroke="black" stroke-width="6.48"/>
<line x1="4931.7359" y1="1760.213635" x2="4861.263258" y2="1794.585438" stroke="black" stroke-width="6.48"/>
<line x1="4787.30488" y1="1464.08616" x2="4716.832237" y2="1498.457966" stroke="black" stroke-width="6.48"/>
<line x1="4716.832237" y1="1498.457966" x2="4752.592805" y2="1571.777989" stroke="black" stroke-width="6.48"/>
<line x1="4823.065447" y1="1537.406183" x2="4787.30488" y2="1464.08616" stroke="black" stroke-width="6.48"/>
<line x1="4794.943061" y1="1479.74675" x2="4724.470415" y2="1514.118557" stroke="black" stroke-width="6.48"/>
<line x1="3504.979447" y1="1075.639" x2="3714.344651" y2="1075.639" stroke="black" stroke-width="6.48"/>
<line x1="3714.344651" y1="1075.639" x2="3714.344651" y2="744.424596" stroke="black" stroke-width="6.48"/>
<line x1="3714.344651" y1="744.424596" x2="3504.979447" y2="744.424596" stroke="black" stroke-width="6.48"/>
<line x1="3504.979447" y1="744.424596" x2="3504.979447" y2="1075.639" stroke="black" stroke-width="6.48"/>
<line x1="3504.306247" y1="803.666196" x2="3715.017847" y2="803.666196" stroke="black" stroke-width="6.48"/>
<line x1="3715.017847" y1="803.666196" x2="3505.652647" y2="853.483" stroke="black" stroke-width="6.48"/>
<line x1="3505.652647" y1="853.483" x2="3537.293051" y2="899.9338" stroke="black" stroke-width="6.48"/>
<line x1="3537.293051" y1="899.9338" x2="3715.017847" y2="802.993" stroke="black" stroke-width="6.48"/>
<line x1="3338.662302" y1="1203.422882" x2="3560.939467" y2="1203.422882" stroke="black" stroke-width="6.48"/>
<line x1="3560.939467" y1="1203.422882" x2="3560.939467" y2="1426.155534" stroke="black" stroke-width="6.48"/>
<line x1="3560.939467" y1="1426.155534" x2="3338.662302" y2="1426.155534" stroke="black" stroke-width="6.48"/>
<line x1="3338.662302" y1="1426.155534" x2="3338.662302" y2="1203.422882" stroke="black" stroke-width="6.48"/>
<line x1="3338.206816" y1="1202.967396" x2="3560.939467" y2="1426.155534" stroke="black" stroke-width="6.48"/>
<line x1="3338.662302" y1="1425.700048" x2="3560.483981" y2="1203.422882" stroke="black" stroke-width="6.48"/>
<line x1="2804.16708" y1="1127.69402" x2="2804.16708" y2="1153.148746" stroke="black" stroke-width="6.48"/>
<line x1="2804.16708" y1="1153.148746" x2="2853.834836" y2="1153.148746" stroke="black" stroke-width="6.48"/>
<line x1="2853.834836" y1="1153.148746" x2="2853.834836" y2="1127.69402" stroke="black" stroke-width="6.48"/>
<line x1="2853.834836" y1="1127.69402" x2="2804.16708" y2="1127.69402" stroke="black" stroke-width="6.48"/>
<line x1="2853.834836" y1="1402.108373" x2="3101.55277" y2="1402.108373" stroke="black" stroke-width="6.48"/>
<line x1="2802.925386" y1="1402.729218" x2="2802.925386" y2="1428.183943" stroke="black" stroke-width="6.48"/>
<line x1="2802.925386" y1="1428.183943" x2="2852.593142" y2="1428.183943" stroke="black" stroke-width="6.48"/>
<line x1="2852.593142" y1="1428.183943" x2="2852.593142" y2="1402.729218" stroke="black" stroke-width="6.48"/>
<line x1="2852.593142" y1="1402.729218" x2="2802.925386" y2="1402.729218" stroke="black" stroke-width="6.48"/>
<path d="m 2851.972294,1153.148746 a 248.95962699999984,248.95962699999984 0 0 1 248.95962699999973,248.95962699999995" fill="none" stroke="black" stroke-width="6.48"/>
<line x1="2987.645044" y1="2036.47248" x2="2916.439898" y2="2212.711618" stroke="black" stroke-width="6.48"/>
<line x1="2916.439898" y1="2212.711618" x2="3346.463394" y2="2386.452168" stroke="black" stroke-width="6.48"/>
<line x1="3346.463394" y1="2386.452168" x2="3417.668539" y2="2210.21303" stroke="black" stroke-width="6.48"/>
<line x1="3417.668539" y1="2210.21303" x2="3395.638649" y2="2201.312387" stroke="black" stroke-width="6.48"/>
<line x1="3395.638649" y1="2201.312387" x2="3332.978122" y2="2356.402831" stroke="black" stroke-width="6.48"/>
<line x1="3332.978122" y1="2356.402831" x2="2947.895604" y2="2200.81959" stroke="black" stroke-width="6.48"/>
<line x1="2947.895604" y1="2200.81959" x2="3010.556131" y2="2045.729149" stroke="black" stroke-width="6.48"/>
<line x1="3010.556131" y1="2045.729149" x2="2987.645044" y2="2036.47248" stroke="black" stroke-width="6.48"/>
<line x1="3008.419978" y1="2051.016322" x2="3393.502495" y2="2206.599563" stroke="black" stroke-width="6.48"/>
<line x1="3200.876662" y1="2127.748734" x2="3140.352292" y2="2277.552002" stroke="black" stroke-width="6.48"/>
<line x1="3499.847795" y1="1958.000566" x2="3390.978467" y2="1753.247138" stroke="black" stroke-width="6.48"/>
<line x1="3390.978467" y1="1753.247138" x2="3596.151474" y2="1644.154715" stroke="black" stroke-width="6.48"/>
<line x1="3596.151474" y1="1644.154715" x2="3705.020798" y2="1848.908142" stroke="black" stroke-width="6.48"/>
<line x1="3705.020798" y1="1848.908142" x2="3499.847795" y2="1958.000566" stroke="black" stroke-width="6.48"/>
<line x1="3499.65131" y1="1958.643234" x2="3596.151474" y2="1644.154715" stroke="black" stroke-width="6.48"/>
<line x1="3704.601226" y1="1849.131238" x2="3391.201559" y2="1753.666711" stroke="black" stroke-width="6.48"/>
<line x1="3054.501112" y1="1589.315882" x2="3045.470335" y2="1618.854221" stroke="black" stroke-width="6.48"/>
<line x1="3045.470335" y1="1618.854221" x2="3245.876618" y2="1680.124576" stroke="black" stroke-width="6.48"/>
<line x1="3245.876618" y1="1680.124576" x2="3254.907395" y2="1650.586234" stroke="black" stroke-width="6.48"/>
<line x1="3254.907395" y1="1650.586234" x2="3054.501112" y2="1589.315882" stroke="black" stroke-width="6.48"/>
<line x1="2994.897982" y1="1784.268936" x2="2985.867205" y2="1813.807274" stroke="black" stroke-width="6.48"/>
<line x1="2985.867205" y1="1813.807274" x2="3186.273488" y2="1875.077629" stroke="black" stroke-width="6.48"/>
<line x1="3186.273488" y1="1875.077629" x2="3195.304268" y2="1845.539287" stroke="black" stroke-width="6.48"/>
<line x1="3195.304268" y1="1845.539287" x2="2994.897982" y2="1784.268936" stroke="black" stroke-width="6.48"/>
<line x1="3045.60927" y1="1618.399789" x2="2994.897982" y2="1784.268936" stroke="black" stroke-width="6.48"/>
<line x1="3245.245618" y1="1678.937832" x2="3262.459234" y2="1712.027675" stroke="black" stroke-width="6.48"/>
<line x1="3227.030802" y1="1827.90886" x2="3194.25646" y2="1845.715849" stroke="black" stroke-width="6.48"/>
<line x1="3263.014976" y1="1710.209934" x2="3226.475063" y2="1829.726608" stroke="black" stroke-width="6.48"/>
<line x1="3088.187323" y1="1631.914117" x2="3037.476031" y2="1797.783268" stroke="black" stroke-width="6.48"/>
<line x1="558.497293" y1="209.116544" x2="829.044493" y2="209.116544" stroke="black" stroke-width="6.48"/>
<line x1="829.044493" y1="209.116544" x2="829.044493" y2="341.063744" stroke="black" stroke-width="6.48"/>
<line x1="558.497293" y1="341.063744" x2="829.044493" y2="341.063744" stroke="black" stroke-width="6.48"/>
<line x1="558.497293" y1="209.116544" x2="558.497293" y2="341.063744" stroke="black" stroke-width="6.48"/>
<line x1="565.150093" y1="215.769344" x2="703.195693" y2="215.769344" stroke="black" stroke-width="6.48"/>
<line x1="703.195693" y1="215.769344" x2="703.195693" y2="333.856544" stroke="black" stroke-width="6.48"/>
<line x1="565.150093" y1="333.856544" x2="703.195693" y2="333.856544" stroke="black" stroke-width="6.48"/>
<line x1="565.150093" y1="215.769344" x2="565.150093" y2="333.856544" stroke="black" stroke-width="6.48"/>
<line x1="717.610093" y1="223.530944" x2="814.630093" y2="223.530944" stroke="black" stroke-width="6.48"/>
<line x1="717.610093" y1="244.043744" x2="814.630093" y2="244.043744" stroke="black" stroke-width="6.48"/>
<line x1="718.164493" y1="265.110944" x2="815.184493" y2="265.110944" stroke="black" stroke-width="6.48"/>
<line x1="718.164493" y1="285.623744" x2="815.184493" y2="285.623744" stroke="black" stroke-width="6.48"/>
<line x1="717.610093" y1="306.136544" x2="814.630093" y2="306.136544" stroke="black" stroke-width="6.48"/>
<line x1="717.610093" y1="326.649344" x2="814.630093" y2="326.649344" stroke="black" stroke-width="6.48"/>
<line x1="617.818093" y1="333.856544" x2="617.818093" y2="319.996544" stroke="black" stroke-width="6.48"/>
<line x1="617.818093" y1="319.996544" x2="652.190893" y2="319.996544" stroke="black" stroke-width="6.48"/>
<line x1="652.190893" y1="319.996544" x2="652.190893" y2="333.302144" stroke="black" stroke-width="6.48"/>
<circle cx="687.672493" cy="230.738144" r="8.316000000000003" fill="none" stroke="black" stroke-width="6.48"/>
<line x1="6210.398938" y1="2074.576874" x2="6207.170263" y2="2105.295664" stroke="black" stroke-width="6.48"/>
<line x1="6207.170263" y1="2105.295664" x2="6415.585456" y2="2127.200983" stroke="black" stroke-width="6.48"/>
<line x1="6415.585456" y1="2127.200983" x2="6418.81413" y2="2096.48219" stroke="black" stroke-width="6.48"/>
<line x1="6418.81413" y1="2096.48219" x2="6210.398938" y2="2074.576874" stroke="black" stroke-width="6.48"/>
<line x1="6189.089684" y1="2277.3209" x2="6185.861006" y2="2308.03969" stroke="black" stroke-width="6.48"/>
<line x1="6185.861006" y1="2308.03969" x2="6394.276199" y2="2329.945013" stroke="black" stroke-width="6.48"/>
<line x1="6394.276199" y1="2329.945013" x2="6397.504877" y2="2299.22622" stroke="black" stroke-width="6.48"/>
<line x1="6397.504877" y1="2299.22622" x2="6189.089684" y2="2277.3209" stroke="black" stroke-width="6.48"/>
<line x1="6207.219936" y1="2104.823066" x2="6189.089684" y2="2277.3209" stroke="black" stroke-width="6.48"/>
<line x1="6414.739607" y1="2126.156447" x2="6437.950801" y2="2155.353822" stroke="black" stroke-width="6.48"/>
<line x1="6425.28446" y1="2275.866007" x2="6396.51001" y2="2299.599475" stroke="black" stroke-width="6.48"/>
<line x1="6438.149492" y1="2153.463437" x2="6425.085773" y2="2277.756396" stroke="black" stroke-width="6.48"/>
<line x1="6251.594364" y1="2109.964824" x2="6233.464112" y2="2282.462658" stroke="black" stroke-width="6.48"/>
<line x1="1471.679752" y1="2083.07291" x2="1662.691122" y2="2168.116715" stroke="black" stroke-width="6.48"/>
<line x1="1662.691122" y1="2168.116715" x2="1757.012425" y2="1956.267734" stroke="black" stroke-width="6.48"/>
<line x1="1757.012425" y1="1956.267734" x2="1566.001051" y2="1871.223937" stroke="black" stroke-width="6.48"/>
<line x1="1566.001051" y1="1871.223937" x2="1471.679752" y2="2083.07291" stroke="black" stroke-width="6.48"/>
<line x1="1484.822887" y1="2053.552975" x2="1675.834254" y2="2138.596776" stroke="black" stroke-width="6.48"/>
<line x1="5735.694697" y1="1588.205498" x2="5745.239618" y2="1617.581732" stroke="black" stroke-width="6.48"/>
<line x1="5745.239618" y1="1617.581732" x2="5944.546062" y2="1552.823143" stroke="black" stroke-width="6.48"/>
<line x1="5944.546062" y1="1552.823143" x2="5935.001148" y2="1523.446909" stroke="black" stroke-width="6.48"/>
<line x1="5935.001148" y1="1523.446909" x2="5735.694697" y2="1588.205498" stroke="black" stroke-width="6.48"/>
<line x1="5798.691151" y1="1782.088643" x2="5808.236065" y2="1811.464877" stroke="black" stroke-width="6.48"/>
<line x1="5808.236065" y1="1811.464877" x2="6007.542512" y2="1746.706284" stroke="black" stroke-width="6.48"/>
<line x1="6007.542512" y1="1746.706284" x2="5997.997598" y2="1717.33005" stroke="black" stroke-width="6.48"/>
<line x1="5997.997598" y1="1717.33005" x2="5798.691151" y2="1782.088643" stroke="black" stroke-width="6.48"/>
<line x1="5745.092771" y1="1617.129788" x2="5798.691151" y2="1782.088643" stroke="black" stroke-width="6.48"/>
<line x1="5943.34849" y1="1552.212947" x2="5976.428616" y2="1569.445236" stroke="black" stroke-width="6.48"/>
<line x1="6013.874059" y1="1684.690459" x2="5997.240558" y2="1718.075682" stroke="black" stroke-width="6.48"/>
<line x1="5975.841236" y1="1567.637467" x2="6014.461439" y2="1686.498228" stroke="black" stroke-width="6.48"/>
<line x1="5787.722171" y1="1603.778314" x2="5841.320548" y2="1768.737164" stroke="black" stroke-width="6.48"/>
</g>
</svg>
