<?xml version="1.0"?>
<svg xmlns:xlink="http://www.w3.org/1999/xlink" width="6775.2" height="2858.4">
<image x="0" y="0" width="6775.2" height="2858.4" xlink:href="groundfilled-01.png"/>
<g style="stroke-linecap:round">
<line x1="1285.950406" y1="795.178109" x2="1311.346069" y2="795.178109" stroke="black" stroke-width="6.48"/>
<line x1="1311.346069" y1="795.178109" x2="1311.346069" y2="745.625592" stroke="black" stroke-width="6.48"/>
<line x1="1311.346069" y1="745.625592" x2="1285.950406" y2="745.625592" stroke="black" stroke-width="6.48"/>
<line x1="1285.950406" y1="745.625592" x2="1285.950406" y2="795.178109" stroke="black" stroke-width="6.48"/>
<line x1="1559.728062" y1="745.625592" x2="1559.728062" y2="498.48241" stroke="black" stroke-width="6.48"/>
<line x1="1560.347471" y1="796.416923" x2="1585.743134" y2="796.416923" stroke="black" stroke-width="6.48"/>
<line x1="1585.743134" y1="796.416923" x2="1585.743134" y2="746.864406" stroke="black" stroke-width="6.48"/>
<line x1="1585.743134" y1="746.864406" x2="1560.347471" y2="746.864406" stroke="black" stroke-width="6.48"/>
<line x1="1560.347471" y1="746.864406" x2="1560.347471" y2="796.416923" stroke="black" stroke-width="6.48"/>
<path d="m 1311.346069,747.483811 a 248.38199299999997,248.38199299999997 0 0 1 248.38199299999997,-248.38199299999997" fill="none" stroke="black" stroke-width="6.48"/>
<line x1="330.523178" y1="771.328966" x2="330.523178" y2="366.748985" stroke="black" stroke-width="6.48"/>
<line x1="330.523178" y1="366.748985" x2="258.15928" y2="366.748985" stroke="black" stroke-width="6.48"/>
<line x1="258.15928" y1="366.748985" x2="258.15928" y2="771.328966" stroke="black" stroke-width="6.48"/>
<line x1="258.15928" y1="771.328966" x2="330.523178" y2="771.328966" stroke="black" stroke-width="6.48"/>
<line x1="330.523178" y1="752.415674" x2="355.19269" y2="752.415674" stroke="black" stroke-width="6.48"/>
<line x1="355.19269" y1="752.415674" x2="355.19269" y2="386.484595" stroke="black" stroke-width="6.48"/>
<line x1="330.523178" y1="386.484595" x2="355.19269" y2="386.484595" stroke="black" stroke-width="6.48"/>
<line x1="3901.945176" y1="1169.331426" x2="3901.945176" y2="1428.837066" stroke="black" stroke-width="6.48"/>
<line x1="3901.945176" y1="1428.837066" x2="3941.9501" y2="1428.837066" stroke="black" stroke-width="6.48"/>
<line x1="3941.9501" y1="1428.837066" x2="3941.9501" y2="1169.331426" stroke="black" stroke-width="6.48"/>
<line x1="3941.9501" y1="1169.331426" x2="3901.945176" y2="1169.331426" stroke="black" stroke-width="6.48"/>
<line x1="3941.423719" y1="1193.544936" x2="3902.471557" y2="1193.544936" stroke="black" stroke-width="6.48"/>
<line x1="3941.423719" y1="1404.097178" x2="3900.892414" y2="1404.097178" stroke="black" stroke-width="6.48"/>
<line x1="3923.000399" y1="1193.018555" x2="3923.000399" y2="1403.570797" stroke="black" stroke-width="6.48"/>
<line x1="323.923298" y1="1882.957399" x2="323.923298" y2="1457.423957" stroke="black" stroke-width="6.48"/>
<line x1="323.923298" y1="1457.423957" x2="258.323825" y2="1457.423957" stroke="black" stroke-width="6.48"/>
<line x1="258.323825" y1="1457.423957" x2="258.323825" y2="1882.957399" stroke="black" stroke-width="6.48"/>
<line x1="258.323825" y1="1882.957399" x2="323.923298" y2="1882.957399" stroke="black" stroke-width="6.48"/>
<line x1="259.186975" y1="1843.252456" x2="323.060148" y2="1843.252456" stroke="black" stroke-width="6.48"/>
<line x1="259.186975" y1="1497.992054" x2="325.649603" y2="1497.992054" stroke="black" stroke-width="6.48"/>
<line x1="289.397261" y1="1844.115606" x2="289.397261" y2="1498.855205" stroke="black" stroke-width="6.48"/>
<line x1="2747.905531" y1="904.670665" x2="2721.68303" y2="904.670665" stroke="black" stroke-width="6.48"/>
<line x1="2721.68303" y1="904.670665" x2="2721.68303" y2="955.836522" stroke="black" stroke-width="6.48"/>
<line x1="2721.68303" y1="955.836522" x2="2747.905531" y2="955.836522" stroke="black" stroke-width="6.48"/>
<line x1="2747.905531" y1="955.836522" x2="2747.905531" y2="904.670665" stroke="black" stroke-width="6.48"/>
<line x1="2465.214181" y1="955.836522" x2="2465.214181" y2="1211.026223" stroke="black" stroke-width="6.48"/>
<line x1="2464.574609" y1="903.39152" x2="2438.352108" y2="903.39152" stroke="black" stroke-width="6.48"/>
<line x1="2438.352108" y1="903.39152" x2="2438.352108" y2="954.557374" stroke="black" stroke-width="6.48"/>
<line x1="2438.352108" y1="954.557374" x2="2464.574609" y2="954.557374" stroke="black" stroke-width="6.48"/>
<line x1="2464.574609" y1="954.557374" x2="2464.574609" y2="903.39152" stroke="black" stroke-width="6.48"/>
<path d="m 2721.68303,953.917801 a 256.4688490000001,256.4688490000001 0 0 1 -256.4688490000003,256.46884899999986" fill="none" stroke="black" stroke-width="6.48"/>
<line x1="2420.532389" y1="1427.858834" x2="2395.136725" y2="1427.858834" stroke="black" stroke-width="6.48"/>
<line x1="2395.136725" y1="1427.858834" x2="2395.136725" y2="1477.411351" stroke="black" stroke-width="6.48"/>
<line x1="2395.136725" y1="1477.411351" x2="2420.532389" y2="1477.411351" stroke="black" stroke-width="6.48"/>
<line x1="2420.532389" y1="1477.411351" x2="2420.532389" y2="1427.858834" stroke="black" stroke-width="6.48"/>
<line x1="2146.754732" y1="1477.411351" x2="2146.754732" y2="1724.554534" stroke="black" stroke-width="6.48"/>
<line x1="2146.135324" y1="1426.62002" x2="2120.73966" y2="1426.62002" stroke="black" stroke-width="6.48"/>
<line x1="2120.73966" y1="1426.62002" x2="2120.73966" y2="1476.172537" stroke="black" stroke-width="6.48"/>
<line x1="2120.73966" y1="1476.172537" x2="2146.135324" y2="1476.172537" stroke="black" stroke-width="6.48"/>
<line x1="2146.135324" y1="1476.172537" x2="2146.135324" y2="1426.62002" stroke="black" stroke-width="6.48"/>
<path d="m 2395.136725,1475.553132 a 248.38199299999997,248.38199299999997 0 0 1 -248.38199299999997,248.38199299999997" fill="none" stroke="black" stroke-width="6.48"/>
<line x1="851.04319" y1="541.339351" x2="1082.94079" y2="541.339351" stroke="black" stroke-width="6.48"/>
<line x1="1082.94079" y1="541.339351" x2="1082.94079" y2="773.712151" stroke="black" stroke-width="6.48"/>
<line x1="1082.94079" y1="773.712151" x2="851.04319" y2="773.712151" stroke="black" stroke-width="6.48"/>
<line x1="851.04319" y1="773.712151" x2="851.04319" y2="541.339351" stroke="black" stroke-width="6.48"/>
<line x1="850.56799" y1="540.864151" x2="1082.94079" y2="773.712151" stroke="black" stroke-width="6.48"/>
<line x1="851.04319" y1="773.236951" x2="1082.46559" y2="541.339351" stroke="black" stroke-width="6.48"/>
<line x1="2032.924367" y1="2066.357484" x2="2032.924367" y2="2035.469484" stroke="black" stroke-width="6.48"/>
<line x1="2032.924367" y1="2035.469484" x2="1823.361167" y2="2035.469484" stroke="black" stroke-width="6.48"/>
<line x1="1823.361167" y1="2035.469484" x2="1823.361167" y2="2066.357484" stroke="black" stroke-width="6.48"/>
<line x1="1823.361167" y1="2066.357484" x2="2032.924367" y2="2066.357484" stroke="black" stroke-width="6.48"/>
<line x1="2032.924367" y1="1862.496684" x2="2032.924367" y2="1831.608684" stroke="black" stroke-width="6.48"/>
<line x1="2032.924367" y1="1831.608684" x2="1823.361167" y2="1831.608684" stroke="black" stroke-width="6.48"/>
<line x1="1823.361167" y1="1831.608684" x2="1823.361167" y2="1862.496684" stroke="black" stroke-width="6.48"/>
<line x1="1823.361167" y1="1862.496684" x2="2032.924367" y2="1862.496684" stroke="black" stroke-width="6.48"/>
<line x1="2032.924367" y1="2035.944684" x2="2032.924367" y2="1862.496684" stroke="black" stroke-width="6.48"/>
<line x1="1824.311567" y1="2036.419884" x2="1798.175567" y2="2009.808684" stroke="black" stroke-width="6.48"/>
<line x1="1798.175567" y1="1888.632684" x2="1824.311567" y2="1862.021484" stroke="black" stroke-width="6.48"/>
<line x1="1798.175567" y1="2011.709484" x2="1798.175567" y2="1886.731884" stroke="black" stroke-width="6.48"/>
<line x1="1988.255567" y1="2035.469484" x2="1988.255567" y2="1862.021484" stroke="black" stroke-width="6.48"/>
<line x1="1485.415969" y1="209.267824" x2="1707.693134" y2="209.267824" stroke="black" stroke-width="6.48"/>
<line x1="1707.693134" y1="209.267824" x2="1707.693134" y2="432.000475" stroke="black" stroke-width="6.48"/>
<line x1="1707.693134" y1="432.000475" x2="1485.415969" y2="432.000475" stroke="black" stroke-width="6.48"/>
<line x1="1485.415969" y1="432.000475" x2="1485.415969" y2="209.267824" stroke="black" stroke-width="6.48"/>
<line x1="1484.960483" y1="208.812337" x2="1707.693134" y2="432.000475" stroke="black" stroke-width="6.48"/>
<line x1="1485.415969" y1="431.544989" x2="1707.237648" y2="209.267824" stroke="black" stroke-width="6.48"/>
<line x1="2586.780558" y1="1803.366338" x2="2586.780558" y2="2194.614338" stroke="black" stroke-width="6.48"/>
<line x1="2586.780558" y1="2194.614338" x2="2761.020558" y2="2194.614338" stroke="black" stroke-width="6.48"/>
<line x1="2761.020558" y1="2194.614338" x2="2761.020558" y2="1803.366338" stroke="black" stroke-width="6.48"/>
<line x1="2761.020558" y1="1803.366338" x2="2586.780558" y2="1803.366338" stroke="black" stroke-width="6.48"/>
<line x1="2734.092558" y1="2119.374338" x2="2734.092558" y2="1835.046338" stroke="black" stroke-width="6.48"/>
<line x1="2734.092558" y1="1835.046338" x2="2616.084558" y2="1835.046338" stroke="black" stroke-width="6.48"/>
<line x1="2616.084558" y1="1835.046338" x2="2616.084558" y2="2124.918338" stroke="black" stroke-width="6.48"/>
<path d="m 2734.347982,2118.563766 a 63.35999941905905,63.35999941905905 0 0 1 -119.37432999999965,4.2938139999996565" fill="none" stroke="black" stroke-width="6.48"/>
<line x1="2080.766621" y1="1844.78692" x2="2056.214621" y2="1863.39892" stroke="black" stroke-width="6.48"/>
<line x1="2056.214621" y1="1863.39892" x2="2056.214621" y2="2010.71092" stroke="black" stroke-width="6.48"/>
<line x1="2056.214621" y1="2010.71092" x2="2084.330621" y2="2029.71892" stroke="black" stroke-width="6.48"/>
<line x1="2083.538621" y1="1866.56692" x2="2083.538621" y2="2009.52292" stroke="black" stroke-width="6.48"/>
<circle cx="2105.318621" cy="1935.86692" r="13.068000000000003" fill="none" stroke="black" stroke-width="6.48"/>
<path d="m 2082.871274,1868.120172 a 74.84400042853741,74.84400042853741 0 1 1 0.40204799999992247,139.60900400000014" fill="none" stroke="black" stroke-width="6.48"/>
<path d="m 2080.109257,1844.833223 a 95.43599883324401,95.43599883324401 0 1 1 3.0749580000001515,184.466995" fill="none" stroke="black" stroke-width="6.48"/>
<line x1="752.333371" y1="210.745058" x2="1145.577244" y2="210.745058" stroke="black" stroke-width="6.48"/>
<line x1="1149.53265" y1="209.748776" x2="1149.53265" y2="345.817552" stroke="black" stroke-width="6.48"/>
<line x1="752.79776" y1="346.969058" x2="1149.837991" y2="346.969058" stroke="black" stroke-width="6.48"/>
<line x1="753.53265" y1="211.439808" x2="753.53265" y2="346.703864" stroke="black" stroke-width="6.48"/>
<line x1="763.82865" y1="221.833058" x2="887.38065" y2="221.833058" stroke="black" stroke-width="6.48"/>
<line x1="887.38065" y1="221.833058" x2="887.38065" y2="335.881058" stroke="black" stroke-width="6.48"/>
<line x1="763.82865" y1="335.881058" x2="887.38065" y2="335.881058" stroke="black" stroke-width="6.48"/>
<line x1="763.82865" y1="221.833058" x2="763.82865" y2="335.881058" stroke="black" stroke-width="6.48"/>
<line x1="906.38865" y1="228.961058" x2="993.50865" y2="228.961058" stroke="black" stroke-width="6.48"/>
<line x1="906.38865" y1="248.761058" x2="993.50865" y2="248.761058" stroke="black" stroke-width="6.48"/>
<line x1="907.18065" y1="269.353058" x2="993.50865" y2="269.353058" stroke="black" stroke-width="6.48"/>
<line x1="907.18065" y1="289.153058" x2="993.50865" y2="289.153058" stroke="black" stroke-width="6.48"/>
<line x1="906.38865" y1="308.953058" x2="993.50865" y2="308.953058" stroke="black" stroke-width="6.48"/>
<line x1="906.38865" y1="328.753058" x2="993.50865" y2="328.753058" stroke="black" stroke-width="6.48"/>
<line x1="811.34865" y1="335.089058" x2="811.34865" y2="321.625058" stroke="black" stroke-width="6.48"/>
<line x1="811.34865" y1="321.625058" x2="841.44465" y2="321.625058" stroke="black" stroke-width="6.48"/>
<line x1="841.44465" y1="321.625058" x2="841.44465" y2="334.297058" stroke="black" stroke-width="6.48"/>
<line x1="1014.10065" y1="221.833058" x2="1137.65265" y2="221.833058" stroke="black" stroke-width="6.48"/>
<line x1="1137.65265" y1="221.833058" x2="1137.65265" y2="335.881058" stroke="black" stroke-width="6.48"/>
<line x1="1014.10065" y1="335.881058" x2="1137.65265" y2="335.881058" stroke="black" stroke-width="6.48"/>
<line x1="1014.10065" y1="221.833058" x2="1014.10065" y2="335.881058" stroke="black" stroke-width="6.48"/>
<line x1="1061.62065" y1="335.881058" x2="1061.62065" y2="322.417058" stroke="black" stroke-width="6.48"/>
<line x1="1061.62065" y1="322.417058" x2="1091.71665" y2="322.417058" stroke="black" stroke-width="6.48"/>
<line x1="1091.71665" y1="322.417058" x2="1091.71665" y2="335.089058" stroke="black" stroke-width="6.48"/>
<circle cx="873.12465" cy="236.089058" r="7.128000000000001" fill="none" stroke="black" stroke-width="6.48"/>
<circle cx="1123.39665" cy="236.881058" r="7.128000000000001" fill="none" stroke="black" stroke-width="6.48"/>
<line x1="2044.889399" y1="955.822399" x2="2267.166564" y2="955.822399" stroke="black" stroke-width="6.48"/>
<line x1="2267.166564" y1="955.822399" x2="2267.166564" y2="1178.555051" stroke="black" stroke-width="6.48"/>
<line x1="2267.166564" y1="1178.555051" x2="2044.889399" y2="1178.555051" stroke="black" stroke-width="6.48"/>
<line x1="2044.889399" y1="1178.555051" x2="2044.889399" y2="955.822399" stroke="black" stroke-width="6.48"/>
<line x1="2044.433912" y1="955.366913" x2="2267.166564" y2="1178.555051" stroke="black" stroke-width="6.48"/>
<line x1="2044.889399" y1="1178.099564" x2="2266.711078" y2="955.822399" stroke="black" stroke-width="6.48"/>
<line x1="333.766206" y1="1375.361078" x2="333.766206" y2="949.854546" stroke="black" stroke-width="6.48"/>
<line x1="333.766206" y1="949.854546" x2="257.659348" y2="949.854546" stroke="black" stroke-width="6.48"/>
<line x1="257.659348" y1="949.854546" x2="257.659348" y2="1375.361078" stroke="black" stroke-width="6.48"/>
<line x1="257.659348" y1="1375.361078" x2="333.766206" y2="1375.361078" stroke="black" stroke-width="6.48"/>
<line x1="333.766206" y1="1355.469512" x2="359.711726" y2="1355.469512" stroke="black" stroke-width="6.48"/>
<line x1="359.711726" y1="1355.469512" x2="359.711726" y2="970.610962" stroke="black" stroke-width="6.48"/>
<line x1="333.766206" y1="970.610962" x2="359.711726" y2="970.610962" stroke="black" stroke-width="6.48"/>
<line x1="3874.406537" y1="1514.726719" x2="3874.406537" y2="1940.260162" stroke="black" stroke-width="6.48"/>
<line x1="3874.406537" y1="1940.260162" x2="3940.00601" y2="1940.260162" stroke="black" stroke-width="6.48"/>
<line x1="3940.00601" y1="1940.260162" x2="3940.00601" y2="1514.726719" stroke="black" stroke-width="6.48"/>
<line x1="3940.00601" y1="1514.726719" x2="3874.406537" y2="1514.726719" stroke="black" stroke-width="6.48"/>
<line x1="3939.14286" y1="1554.431663" x2="3875.269687" y2="1554.431663" stroke="black" stroke-width="6.48"/>
<line x1="3939.14286" y1="1899.692064" x2="3872.680232" y2="1899.692064" stroke="black" stroke-width="6.48"/>
<line x1="3908.932574" y1="1553.568512" x2="3908.932574" y2="1898.828914" stroke="black" stroke-width="6.48"/>
<line x1="5140.115917" y1="1997.43161" x2="5013.127865" y2="2033.844847" stroke="black" stroke-width="6.48"/>
<line x1="5013.127865" y1="2033.844847" x2="5009.198378" y2="2020.141102" stroke="black" stroke-width="6.48"/>
<line x1="5136.186431" y1="1983.727865" x2="5009.198378" y2="2020.141102" stroke="black" stroke-width="6.48"/>
<line x1="5140.115917" y1="1997.43161" x2="5136.186431" y2="1983.727865" stroke="black" stroke-width="6.48"/>
<line x1="5123.396272" y1="1987.395383" x2="5116.578563" y2="1956.72321" stroke="black" stroke-width="6.48"/>
<line x1="5021.988541" y1="2016.47358" x2="5011.254544" y2="1985.935687" stroke="black" stroke-width="6.48"/>
<line x1="5013.062532" y1="1554.343798" x2="4886.07448" y2="1590.757034" stroke="black" stroke-width="6.48"/>
<line x1="4886.07448" y1="1590.757034" x2="4889.742001" y2="1603.547201" stroke="black" stroke-width="6.48"/>
<line x1="5016.730054" y1="1567.133964" x2="4889.742001" y2="1603.547201" stroke="black" stroke-width="6.48"/>
<line x1="5013.062532" y1="1554.343798" x2="5016.730054" y2="1567.133964" stroke="black" stroke-width="6.48"/>
<line x1="5005.377403" y1="1572.366683" x2="5015.84944" y2="1601.990993" stroke="black" stroke-width="6.48"/>
<line x1="4903.96968" y1="1601.44488" x2="4910.135764" y2="1633.2926" stroke="black" stroke-width="6.48"/>
<line x1="4810.671493" y1="1920.853073" x2="4824.375242" y2="1916.92359" stroke="black" stroke-width="6.48"/>
<line x1="4824.375242" y1="1916.92359" x2="4787.962002" y2="1789.935538" stroke="black" stroke-width="6.48"/>
<line x1="4774.258256" y1="1793.86502" x2="4787.962002" y2="1789.935538" stroke="black" stroke-width="6.48"/>
<line x1="4810.671493" y1="1920.853073" x2="4774.258256" y2="1793.86502" stroke="black" stroke-width="6.48"/>
<line x1="4791.891492" y1="1803.639283" x2="4822.167416" y2="1791.991699" stroke="black" stroke-width="6.48"/>
<line x1="4820.707721" y1="1904.133427" x2="4852.293476" y2="1897.053757" stroke="black" stroke-width="6.48"/>
<line x1="5253.107688" y1="1794.975239" x2="5239.403942" y2="1798.904725" stroke="black" stroke-width="6.48"/>
<line x1="5239.403942" y1="1798.904725" x2="5202.990706" y2="1671.916673" stroke="black" stroke-width="6.48"/>
<line x1="5216.694451" y1="1667.987186" x2="5202.990706" y2="1671.916673" stroke="black" stroke-width="6.48"/>
<line x1="5253.107688" y1="1794.975239" x2="5216.694451" y2="1667.987186" stroke="black" stroke-width="6.48"/>
<line x1="5206.920188" y1="1685.620418" x2="5175.072468" y2="1691.786506" stroke="black" stroke-width="6.48"/>
<line x1="5235.736421" y1="1786.114562" x2="5205.198528" y2="1796.848564" stroke="black" stroke-width="6.48"/>
<circle cx="5013.682974" cy="1794.42013" r="191.98080000000002" fill="none" stroke="black" stroke-width="6.48"/>
<line x1="3357.801331" y1="1075.153266" x2="3567.166535" y2="1075.153266" stroke="black" stroke-width="6.48"/>
<line x1="3567.166535" y1="1075.153266" x2="3567.166535" y2="743.938862" stroke="black" stroke-width="6.48"/>
<line x1="3567.166535" y1="743.938862" x2="3357.801331" y2="743.938862" stroke="black" stroke-width="6.48"/>
<line x1="3357.801331" y1="743.938862" x2="3357.801331" y2="1075.153266" stroke="black" stroke-width="6.48"/>
<line x1="3357.128131" y1="803.180462" x2="3567.839731" y2="803.180462" stroke="black" stroke-width="6.48"/>
<line x1="3567.839731" y1="803.180462" x2="3358.474531" y2="852.997266" stroke="black" stroke-width="6.48"/>
<line x1="3358.474531" y1="852.997266" x2="3390.114935" y2="899.448066" stroke="black" stroke-width="6.48"/>
<line x1="3390.114935" y1="899.448066" x2="3567.839731" y2="802.507266" stroke="black" stroke-width="6.48"/>
<line x1="3196.861668" y1="1203.996974" x2="3419.138833" y2="1203.996974" stroke="black" stroke-width="6.48"/>
<line x1="3419.138833" y1="1203.996974" x2="3419.138833" y2="1426.729626" stroke="black" stroke-width="6.48"/>
<line x1="3419.138833" y1="1426.729626" x2="3196.861668" y2="1426.729626" stroke="black" stroke-width="6.48"/>
<line x1="3196.861668" y1="1426.729626" x2="3196.861668" y2="1203.996974" stroke="black" stroke-width="6.48"/>
<line x1="3196.406182" y1="1203.541488" x2="3419.138833" y2="1426.729626" stroke="black" stroke-width="6.48"/>
<line x1="3196.861668" y1="1426.27414" x2="3418.683347" y2="1203.996974" stroke="black" stroke-width="6.48"/>
<line x1="2804.16708" y1="1127.69402" x2="2804.16708" y2="1153.148746" stroke="black" stroke-width="6.48"/>
<line x1="2804.16708" y1="1153.148746" x2="2853.834836" y2="1153.148746" stroke="black" stroke-width="6.48"/>
<line x1="2853.834836" y1="1153.148746" x2="2853.834836" y2="1127.69402" stroke="black" stroke-width="6.48"/>
<line x1="2853.834836" y1="1127.69402" x2="2804.16708" y2="1127.69402" stroke="black" stroke-width="6.48"/>
<line x1="2853.834836" y1="1402.108373" x2="3101.55277" y2="1402.108373" stroke="black" stroke-width="6.48"/>
<line x1="2802.925386" y1="1402.729218" x2="2802.925386" y2="1428.183943" stroke="black" stroke-width="6.48"/>
<line x1="2802.925386" y1="1428.183943" x2="2852.593142" y2="1428.183943" stroke="black" stroke-width="6.48"/>
<line x1="2852.593142" y1="1428.183943" x2="2852.593142" y2="1402.729218" stroke="black" stroke-width="6.48"/>
<line x1="2852.593142" y1="1402.729218" x2="2802.925386" y2="1402.729218" stroke="black" stroke-width="6.48"/>
<path d="m 2851.972294,1153.148746 a 248.95962699999984,248.95962699999984 0 0 1 248.95962699999973,248.95962699999995" fill="none" stroke="black" stroke-width="6.48"/>
<line x1="3528.16222" y1="1638.791147" x2="3710.900023" y2="1781.561567" stroke="black" stroke-width="6.48"/>
<line x1="3710.900023" y1="1781.561567" x2="3567.837038" y2="1964.673832" stroke="black" stroke-width="6.48"/>
<line x1="3567.837038" y1="1964.673832" x2="3385.099235" y2="1821.903412" stroke="black" stroke-width="6.48"/>
<line x1="3385.099235" y1="1821.903412" x2="3528.16222" y2="1638.791147" stroke="black" stroke-width="6.48"/>
<line x1="3528.08032" y1="1638.124121" x2="3567.837038" y2="1964.673832" stroke="black" stroke-width="6.48"/>
<line x1="3385.3918" y1="1821.52895" x2="3710.525558" y2="1781.269006" stroke="black" stroke-width="6.48"/>
<line x1="3031.233131" y1="1589.315879" x2="3026.401182" y2="1619.823596" stroke="black" stroke-width="6.48"/>
<line x1="3026.401182" y1="1619.823596" x2="3233.384312" y2="1652.606503" stroke="black" stroke-width="6.48"/>
<line x1="3233.384312" y1="1652.606503" x2="3238.216261" y2="1622.098786" stroke="black" stroke-width="6.48"/>
<line x1="3238.216261" y1="1622.098786" x2="3031.233131" y2="1589.315879" stroke="black" stroke-width="6.48"/>
<line x1="2999.342279" y1="1790.666816" x2="2994.51033" y2="1821.17453" stroke="black" stroke-width="6.48"/>
<line x1="2994.51033" y1="1821.17453" x2="3201.493457" y2="1853.957441" stroke="black" stroke-width="6.48"/>
<line x1="3201.493457" y1="1853.957441" x2="3206.325406" y2="1823.44972" stroke="black" stroke-width="6.48"/>
<line x1="3206.325406" y1="1823.44972" x2="2999.342279" y2="1790.666816" stroke="black" stroke-width="6.48"/>
<line x1="3026.475518" y1="1619.354243" x2="2999.342279" y2="1790.666816" stroke="black" stroke-width="6.48"/>
<line x1="3232.594289" y1="1651.519127" x2="3254.245603" y2="1681.891268" stroke="black" stroke-width="6.48"/>
<line x1="3235.289501" y1="1801.575396" x2="3205.312369" y2="1823.770393" stroke="black" stroke-width="6.48"/>
<line x1="3254.542952" y1="1680.013872" x2="3234.992148" y2="1803.452792" stroke="black" stroke-width="6.48"/>
<line x1="3070.520039" y1="1626.811337" x2="3043.386792" y2="1798.123903" stroke="black" stroke-width="6.48"/>
<line x1="2325.378589" y1="2047.907437" x2="2556.005825" y2="2072.147393" stroke="black" stroke-width="6.48"/>
<line x1="2556.005825" y1="2072.147393" x2="2531.716196" y2="2303.247226" stroke="black" stroke-width="6.48"/>
<line x1="2531.716196" y1="2303.247226" x2="2301.088961" y2="2279.007266" stroke="black" stroke-width="6.48"/>
<line x1="2301.088961" y1="2279.007266" x2="2325.378589" y2="2047.907437" stroke="black" stroke-width="6.48"/>
<line x1="2324.955665" y1="2047.385167" x2="2531.716196" y2="2303.247226" stroke="black" stroke-width="6.48"/>
<line x1="2301.138634" y1="2278.534669" x2="2555.533228" y2="2072.09772" stroke="black" stroke-width="6.48"/>
<line x1="5627.352089" y1="1390.529315" x2="5627.352089" y2="1421.417315" stroke="black" stroke-width="6.48"/>
<line x1="5627.352089" y1="1421.417315" x2="5836.915289" y2="1421.417315" stroke="black" stroke-width="6.48"/>
<line x1="5836.915289" y1="1421.417315" x2="5836.915289" y2="1390.529315" stroke="black" stroke-width="6.48"/>
<line x1="5836.915289" y1="1390.529315" x2="5627.352089" y2="1390.529315" stroke="black" stroke-width="6.48"/>
<line x1="5627.352089" y1="1594.390115" x2="5627.352089" y2="1625.278115" stroke="black" stroke-width="6.48"/>
<line x1="5627.352089" y1="1625.278115" x2="5836.915289" y2="1625.278115" stroke="black" stroke-width="6.48"/>
<line x1="5836.915289" y1="1625.278115" x2="5836.915289" y2="1594.390115" stroke="black" stroke-width="6.48"/>
<line x1="5836.915289" y1="1594.390115" x2="5627.352089" y2="1594.390115" stroke="black" stroke-width="6.48"/>
<line x1="5627.352089" y1="1420.942115" x2="5627.352089" y2="1594.390115" stroke="black" stroke-width="6.48"/>
<line x1="5835.964889" y1="1420.466915" x2="5862.100889" y2="1447.078115" stroke="black" stroke-width="6.48"/>
<line x1="5862.100889" y1="1568.254115" x2="5835.964889" y2="1594.865315" stroke="black" stroke-width="6.48"/>
<line x1="5862.100889" y1="1445.177315" x2="5862.100889" y2="1570.154915" stroke="black" stroke-width="6.48"/>
<line x1="5672.020889" y1="1421.417315" x2="5672.020889" y2="1594.865315" stroke="black" stroke-width="6.48"/>
<line x1="1219.265266" y1="1964.604377" x2="1353.664404" y2="2124.775109" stroke="black" stroke-width="6.48"/>
<line x1="1353.664404" y1="2124.775109" x2="1531.308312" y2="1975.714247" stroke="black" stroke-width="6.48"/>
<line x1="1531.308312" y1="1975.714247" x2="1396.90917" y2="1815.543515" stroke="black" stroke-width="6.48"/>
<line x1="1396.90917" y1="1815.543515" x2="1219.265266" y2="1964.604377" stroke="black" stroke-width="6.48"/>
<line x1="1244.018923" y1="1943.833597" x2="1378.418062" y2="2104.004333" stroke="black" stroke-width="6.48"/>
<line x1="6093.800644" y1="2019.633509" x2="6102.314528" y2="2049.324959" stroke="black" stroke-width="6.48"/>
<line x1="6102.314528" y1="2049.324959" x2="6303.759606" y2="1991.561512" stroke="black" stroke-width="6.48"/>
<line x1="6303.759606" y1="1991.561512" x2="6295.245721" y2="1961.870062" stroke="black" stroke-width="6.48"/>
<line x1="6295.245721" y1="1961.870062" x2="6093.800644" y2="2019.633509" stroke="black" stroke-width="6.48"/>
<line x1="6149.992295" y1="2215.597086" x2="6158.50618" y2="2245.288536" stroke="black" stroke-width="6.48"/>
<line x1="6158.50618" y1="2245.288536" x2="6359.951257" y2="2187.525089" stroke="black" stroke-width="6.48"/>
<line x1="6359.951257" y1="2187.525089" x2="6351.437372" y2="2157.833639" stroke="black" stroke-width="6.48"/>
<line x1="6351.437372" y1="2157.833639" x2="6149.992295" y2="2215.597086" stroke="black" stroke-width="6.48"/>
<line x1="6102.18355" y1="2048.868169" x2="6149.992295" y2="2215.597086" stroke="black" stroke-width="6.48"/>
<line x1="6302.584058" y1="1990.909894" x2="6335.042638" y2="2009.286162" stroke="black" stroke-width="6.48"/>
<line x1="6368.443268" y1="2125.76801" x2="6350.654776" y2="2158.552393" stroke="black" stroke-width="6.48"/>
<line x1="6334.518704" y1="2007.458996" x2="6368.967202" y2="2127.595176" stroke="black" stroke-width="6.48"/>
<line x1="6145.252938" y1="2037.01257" x2="6193.061683" y2="2203.741487" stroke="black" stroke-width="6.48"/>
<line x1="3819.610505" y1="1149.082661" x2="3822.30257" y2="1118.312197" stroke="black" stroke-width="6.48"/>
<line x1="3822.30257" y1="1118.312197" x2="3613.536821" y2="1100.047561" stroke="black" stroke-width="6.48"/>
<line x1="3613.536821" y1="1100.047561" x2="3610.844759" y2="1130.818025" stroke="black" stroke-width="6.48"/>
<line x1="3610.844759" y1="1130.818025" x2="3819.610505" y2="1149.082661" stroke="black" stroke-width="6.48"/>
<line x1="3837.378146" y1="945.99761" x2="3840.070212" y2="915.22715" stroke="black" stroke-width="6.48"/>
<line x1="3840.070212" y1="915.22715" x2="3631.304462" y2="896.962511" stroke="black" stroke-width="6.48"/>
<line x1="3631.304462" y1="896.962511" x2="3628.612393" y2="927.732974" stroke="black" stroke-width="6.48"/>
<line x1="3628.612393" y1="927.732974" x2="3837.378146" y2="945.99761" stroke="black" stroke-width="6.48"/>
<line x1="3822.261152" y1="1118.78559" x2="3837.378146" y2="945.99761" stroke="black" stroke-width="6.48"/>
<line x1="3614.400774" y1="1101.077176" x2="3590.683546" y2="1072.28934" stroke="black" stroke-width="6.48"/>
<line x1="3601.244732" y1="951.57445" x2="3629.600597" y2="927.342418" stroke="black" stroke-width="6.48"/>
<line x1="3590.517884" y1="1074.182908" x2="3601.410397" y2="949.680882" stroke="black" stroke-width="6.48"/>
<line x1="3777.803752" y1="1114.419053" x2="3792.920738" y2="941.63108" stroke="black" stroke-width="6.48"/>
<line x1="1431.219686" y1="1473.343913" x2="1365.166883" y2="1587.750714" stroke="black" stroke-width="6.48"/>
<line x1="1365.166883" y1="1587.750714" x2="1352.820823" y2="1580.622714" stroke="black" stroke-width="6.48"/>
<line x1="1418.873623" y1="1466.215913" x2="1352.820823" y2="1580.622714" stroke="black" stroke-width="6.48"/>
<line x1="1431.219686" y1="1473.343913" x2="1418.873623" y2="1466.215913" stroke="black" stroke-width="6.48"/>
<line x1="1412.220823" y1="1477.738897" x2="1386.009896" y2="1460.411158" stroke="black" stroke-width="6.48"/>
<line x1="1359.473623" y1="1569.09973" x2="1330.538828" y2="1554.589069" stroke="black" stroke-width="6.48"/>
<line x1="1032.030472" y1="1242.871913" x2="965.977672" y2="1357.278714" stroke="black" stroke-width="6.48"/>
<line x1="965.977672" y1="1357.278714" x2="977.500656" y2="1363.931514" stroke="black" stroke-width="6.48"/>
<line x1="1043.553456" y1="1249.524713" x2="977.500656" y2="1363.931514" stroke="black" stroke-width="6.48"/>
<line x1="1032.030472" y1="1242.871913" x2="1043.553456" y2="1249.524713" stroke="black" stroke-width="6.48"/>
<line x1="1039.021996" y1="1261.175029" x2="1067.133726" y2="1275.210486" stroke="black" stroke-width="6.48"/>
<line x1="986.274796" y1="1352.535858" x2="1012.833598" y2="1371.161869" stroke="black" stroke-width="6.48"/>
<line x1="1141.04128" y1="1647.109249" x2="1148.16928" y2="1634.763193" stroke="black" stroke-width="6.48"/>
<line x1="1148.16928" y1="1634.763193" x2="1033.762471" y2="1568.710393" stroke="black" stroke-width="6.48"/>
<line x1="1026.634471" y1="1581.056449" x2="1033.762471" y2="1568.710393" stroke="black" stroke-width="6.48"/>
<line x1="1141.04128" y1="1647.109249" x2="1026.634471" y2="1581.056449" stroke="black" stroke-width="6.48"/>
<line x1="1046.108531" y1="1575.838393" x2="1059.796123" y2="1546.428391" stroke="black" stroke-width="6.48"/>
<line x1="1136.646295" y1="1628.110393" x2="1154.449235" y2="1601.076391" stroke="black" stroke-width="6.48"/>
<line x1="1371.861151" y1="1249.218306" x2="1364.733151" y2="1261.564366" stroke="black" stroke-width="6.48"/>
<line x1="1364.733151" y1="1261.564366" x2="1250.326346" y2="1195.511566" stroke="black" stroke-width="6.48"/>
<line x1="1257.454346" y1="1183.165506" x2="1250.326346" y2="1195.511566" stroke="black" stroke-width="6.48"/>
<line x1="1371.861151" y1="1249.218306" x2="1257.454346" y2="1183.165506" stroke="black" stroke-width="6.48"/>
<line x1="1262.672402" y1="1202.639566" x2="1244.046391" y2="1229.198364" stroke="black" stroke-width="6.48"/>
<line x1="1353.210163" y1="1254.911566" x2="1338.699503" y2="1283.846364" stroke="black" stroke-width="6.48"/>
<circle cx="1199.247811" cy="1415.137381" r="191.98080000000002" fill="none" stroke="black" stroke-width="6.48"/>
</g>
</svg>
