<?xml version="1.0"?>
<svg xmlns:xlink="http://www.w3.org/1999/xlink" width="6775.2" height="2858.4">
<image x="0" y="0" width="6775.2" height="2858.4" xlink:href="groundfilled-01.png"/>
<g style="stroke-linecap:round">
<line x1="1285.950406" y1="795.178109" x2="1311.346069" y2="795.178109" stroke="black" stroke-width="6.48"/>
<line x1="1311.346069" y1="795.178109" x2="1311.346069" y2="745.625592" stroke="black" stroke-width="6.48"/>
<line x1="1311.346069" y1="745.625592" x2="1285.950406" y2="745.625592" stroke="black" stroke-width="6.48"/>
<line x1="1285.950406" y1="745.625592" x2="1285.950406" y2="795.178109" stroke="black" stroke-width="6.48"/>
<line x1="1559.728062" y1="745.625592" x2="1559.728062" y2="498.48241" stroke="black" stroke-width="6.48"/>
<line x1="1560.347471" y1="796.416923" x2="1585.743134" y2="796.416923" stroke="black" stroke-width="6.48"/>
<line x1="1585.743134" y1="796.416923" x2="1585.743134" y2="746.864406" stroke="black" stroke-width="6.48"/>
<line x1="1585.743134" y1="746.864406" x2="1560.347471" y2="746.864406" stroke="black" stroke-width="6.48"/>
<line x1="1560.347471" y1="746.864406" x2="1560.347471" y2="796.416923" stroke="black" stroke-width="6.48"/>
<path d="m 1311.346069,747.483811 a 248.38199299999997,248.38199299999997 0 0 1 248.38199299999997,-248.38199299999997" fill="none" stroke="black" stroke-width="6.48"/>
<line x1="320.532556" y1="771.34176" x2="320.532556" y2="366.736194" stroke="black" stroke-width="6.48"/>
<line x1="320.532556" y1="366.736194" x2="258.159283" y2="366.736194" stroke="black" stroke-width="6.48"/>
<line x1="258.159283" y1="366.736194" x2="258.159283" y2="771.34176" stroke="black" stroke-width="6.48"/>
<line x1="258.159283" y1="771.34176" x2="320.532556" y2="771.34176" stroke="black" stroke-width="6.48"/>
<line x1="258.979986" y1="733.589518" x2="319.711856" y2="733.589518" stroke="black" stroke-width="6.48"/>
<line x1="258.979986" y1="405.309139" x2="322.173958" y2="405.309139" stroke="black" stroke-width="6.48"/>
<line x1="287.704519" y1="734.410217" x2="287.704519" y2="406.129838" stroke="black" stroke-width="6.48"/>
<line x1="3901.945176" y1="1169.331426" x2="3901.945176" y2="1428.837066" stroke="black" stroke-width="6.48"/>
<line x1="3901.945176" y1="1428.837066" x2="3941.9501" y2="1428.837066" stroke="black" stroke-width="6.48"/>
<line x1="3941.9501" y1="1428.837066" x2="3941.9501" y2="1169.331426" stroke="black" stroke-width="6.48"/>
<line x1="3941.9501" y1="1169.331426" x2="3901.945176" y2="1169.331426" stroke="black" stroke-width="6.48"/>
<line x1="3941.423719" y1="1193.544936" x2="3902.471557" y2="1193.544936" stroke="black" stroke-width="6.48"/>
<line x1="3941.423719" y1="1404.097178" x2="3900.892414" y2="1404.097178" stroke="black" stroke-width="6.48"/>
<line x1="3923.000399" y1="1193.018555" x2="3923.000399" y2="1403.570797" stroke="black" stroke-width="6.48"/>
<line x1="334.430687" y1="1882.943946" x2="334.430687" y2="1457.437414" stroke="black" stroke-width="6.48"/>
<line x1="334.430687" y1="1457.437414" x2="258.323828" y2="1457.437414" stroke="black" stroke-width="6.48"/>
<line x1="258.323828" y1="1457.437414" x2="258.323828" y2="1882.943946" stroke="black" stroke-width="6.48"/>
<line x1="258.323828" y1="1882.943946" x2="334.430687" y2="1882.943946" stroke="black" stroke-width="6.48"/>
<line x1="334.430687" y1="1863.05238" x2="360.376207" y2="1863.05238" stroke="black" stroke-width="6.48"/>
<line x1="360.376207" y1="1863.05238" x2="360.376207" y2="1478.193829" stroke="black" stroke-width="6.48"/>
<line x1="334.430687" y1="1478.193829" x2="360.376207" y2="1478.193829" stroke="black" stroke-width="6.48"/>
<line x1="2747.905531" y1="904.670665" x2="2721.68303" y2="904.670665" stroke="black" stroke-width="6.48"/>
<line x1="2721.68303" y1="904.670665" x2="2721.68303" y2="955.836522" stroke="black" stroke-width="6.48"/>
<line x1="2721.68303" y1="955.836522" x2="2747.905531" y2="955.836522" stroke="black" stroke-width="6.48"/>
<line x1="2747.905531" y1="955.836522" x2="2747.905531" y2="904.670665" stroke="black" stroke-width="6.48"/>
<line x1="2465.214181" y1="955.836522" x2="2465.214181" y2="1211.026223" stroke="black" stroke-width="6.48"/>
<line x1="2464.574609" y1="903.39152" x2="2438.352108" y2="903.39152" stroke="black" stroke-width="6.48"/>
<line x1="2438.352108" y1="903.39152" x2="2438.352108" y2="954.557374" stroke="black" stroke-width="6.48"/>
<line x1="2438.352108" y1="954.557374" x2="2464.574609" y2="954.557374" stroke="black" stroke-width="6.48"/>
<line x1="2464.574609" y1="954.557374" x2="2464.574609" y2="903.39152" stroke="black" stroke-width="6.48"/>
<path d="m 2721.68303,953.917801 a 256.4688490000001,256.4688490000001 0 0 1 -256.4688490000003,256.46884899999986" fill="none" stroke="black" stroke-width="6.48"/>
<line x1="2420.532389" y1="1427.858834" x2="2395.136725" y2="1427.858834" stroke="black" stroke-width="6.48"/>
<line x1="2395.136725" y1="1427.858834" x2="2395.136725" y2="1477.411351" stroke="black" stroke-width="6.48"/>
<line x1="2395.136725" y1="1477.411351" x2="2420.532389" y2="1477.411351" stroke="black" stroke-width="6.48"/>
<line x1="2420.532389" y1="1477.411351" x2="2420.532389" y2="1427.858834" stroke="black" stroke-width="6.48"/>
<line x1="2146.754732" y1="1477.411351" x2="2146.754732" y2="1724.554534" stroke="black" stroke-width="6.48"/>
<line x1="2146.135324" y1="1426.62002" x2="2120.73966" y2="1426.62002" stroke="black" stroke-width="6.48"/>
<line x1="2120.73966" y1="1426.62002" x2="2120.73966" y2="1476.172537" stroke="black" stroke-width="6.48"/>
<line x1="2120.73966" y1="1476.172537" x2="2146.135324" y2="1476.172537" stroke="black" stroke-width="6.48"/>
<line x1="2146.135324" y1="1476.172537" x2="2146.135324" y2="1426.62002" stroke="black" stroke-width="6.48"/>
<path d="m 2395.136725,1475.553132 a 248.38199299999997,248.38199299999997 0 0 1 -248.38199299999997,248.38199299999997" fill="none" stroke="black" stroke-width="6.48"/>
<line x1="584.443688" y1="692.136151" x2="977.275688" y2="692.136151" stroke="black" stroke-width="6.48"/>
<line x1="977.275688" y1="692.136151" x2="977.275688" y2="507.600151" stroke="black" stroke-width="6.48"/>
<line x1="977.275688" y1="507.600151" x2="584.443688" y2="507.600151" stroke="black" stroke-width="6.48"/>
<line x1="584.443688" y1="507.600151" x2="584.443688" y2="692.136151" stroke="black" stroke-width="6.48"/>
<line x1="743.635688" y1="507.600151" x2="743.635688" y2="426.816151" stroke="black" stroke-width="6.48"/>
<line x1="743.635688" y1="426.816151" x2="665.227688" y2="426.816151" stroke="black" stroke-width="6.48"/>
<line x1="665.227688" y1="426.816151" x2="665.227688" y2="507.600151" stroke="black" stroke-width="6.48"/>
<line x1="666.019688" y1="444.240151" x2="743.635688" y2="444.240151" stroke="black" stroke-width="6.48"/>
<line x1="665.227688" y1="773.712151" x2="743.635688" y2="773.712151" stroke="black" stroke-width="6.48"/>
<line x1="743.635688" y1="773.712151" x2="743.635688" y2="692.136151" stroke="black" stroke-width="6.48"/>
<line x1="665.227688" y1="692.136151" x2="665.227688" y2="773.712151" stroke="black" stroke-width="6.48"/>
<line x1="666.019688" y1="756.288151" x2="743.635688" y2="756.288151" stroke="black" stroke-width="6.48"/>
<line x1="894.907688" y1="507.600151" x2="894.907688" y2="426.816151" stroke="black" stroke-width="6.48"/>
<line x1="894.907688" y1="426.816151" x2="816.499688" y2="426.816151" stroke="black" stroke-width="6.48"/>
<line x1="816.499688" y1="426.816151" x2="816.499688" y2="507.600151" stroke="black" stroke-width="6.48"/>
<line x1="816.499688" y1="444.240151" x2="894.907688" y2="444.240151" stroke="black" stroke-width="6.48"/>
<line x1="816.499688" y1="773.712151" x2="894.907688" y2="773.712151" stroke="black" stroke-width="6.48"/>
<line x1="894.907688" y1="773.712151" x2="894.907688" y2="692.136151" stroke="black" stroke-width="6.48"/>
<line x1="816.499688" y1="692.136151" x2="816.499688" y2="773.712151" stroke="black" stroke-width="6.48"/>
<line x1="816.499688" y1="756.288151" x2="894.907688" y2="756.288151" stroke="black" stroke-width="6.48"/>
<line x1="2032.924367" y1="1998.823536" x2="2032.924367" y2="1789.735536" stroke="black" stroke-width="6.48"/>
<line x1="2032.924367" y1="1789.735536" x2="1801.026767" y2="1789.735536" stroke="black" stroke-width="6.48"/>
<line x1="1801.026767" y1="1789.735536" x2="1801.026767" y2="1998.823536" stroke="black" stroke-width="6.48"/>
<line x1="1801.026767" y1="1998.823536" x2="2032.924367" y2="1998.823536" stroke="black" stroke-width="6.48"/>
<line x1="2000.610767" y1="1998.823536" x2="2000.610767" y2="1789.735536" stroke="black" stroke-width="6.48"/>
<line x1="1485.415969" y1="209.267824" x2="1707.693134" y2="209.267824" stroke="black" stroke-width="6.48"/>
<line x1="1707.693134" y1="209.267824" x2="1707.693134" y2="432.000475" stroke="black" stroke-width="6.48"/>
<line x1="1707.693134" y1="432.000475" x2="1485.415969" y2="432.000475" stroke="black" stroke-width="6.48"/>
<line x1="1485.415969" y1="432.000475" x2="1485.415969" y2="209.267824" stroke="black" stroke-width="6.48"/>
<line x1="1484.960483" y1="208.812337" x2="1707.693134" y2="432.000475" stroke="black" stroke-width="6.48"/>
<line x1="1485.415969" y1="431.544989" x2="1707.237648" y2="209.267824" stroke="black" stroke-width="6.48"/>
<line x1="2761.020558" y1="2194.614338" x2="2761.020558" y2="1803.366338" stroke="black" stroke-width="6.48"/>
<line x1="2761.020558" y1="1803.366338" x2="2586.780558" y2="1803.366338" stroke="black" stroke-width="6.48"/>
<line x1="2586.780558" y1="1803.366338" x2="2586.780558" y2="2194.614338" stroke="black" stroke-width="6.48"/>
<line x1="2586.780558" y1="2194.614338" x2="2761.020558" y2="2194.614338" stroke="black" stroke-width="6.48"/>
<line x1="2613.708558" y1="1878.606338" x2="2613.708558" y2="2162.934338" stroke="black" stroke-width="6.48"/>
<line x1="2613.708558" y1="2162.934338" x2="2731.716558" y2="2162.934338" stroke="black" stroke-width="6.48"/>
<line x1="2731.716558" y1="2162.934338" x2="2731.716558" y2="1873.062338" stroke="black" stroke-width="6.48"/>
<path d="m 2613.453134,1879.416911 a 63.3599990854681,63.3599990854681 0 0 1 119.3743300000001,-4.293814000000111" fill="none" stroke="black" stroke-width="6.48"/>
<line x1="2080.831259" y1="1852.93107" x2="2056.279259" y2="1871.54307" stroke="black" stroke-width="6.48"/>
<line x1="2056.279259" y1="1871.54307" x2="2056.279259" y2="2018.85507" stroke="black" stroke-width="6.48"/>
<line x1="2056.279259" y1="2018.85507" x2="2084.395259" y2="2037.86307" stroke="black" stroke-width="6.48"/>
<line x1="2083.603259" y1="1874.71107" x2="2083.603259" y2="2017.66707" stroke="black" stroke-width="6.48"/>
<circle cx="2105.383259" cy="1944.01107" r="13.068000000000003" fill="none" stroke="black" stroke-width="6.48"/>
<path d="m 2082.935912,1876.264322 a 74.84400089435142,74.84400089435142 0 1 1 0.40204799999992247,139.60900500000002" fill="none" stroke="black" stroke-width="6.48"/>
<path d="m 2080.173895,1852.977373 a 95.43599883324413,95.43599883324413 0 1 1 3.0749580000001515,184.466995" fill="none" stroke="black" stroke-width="6.48"/>
<line x1="727.455658" y1="209.529644" x2="998.002858" y2="209.529644" stroke="black" stroke-width="6.48"/>
<line x1="998.002858" y1="209.529644" x2="998.002858" y2="341.476844" stroke="black" stroke-width="6.48"/>
<line x1="727.455658" y1="341.476844" x2="998.002858" y2="341.476844" stroke="black" stroke-width="6.48"/>
<line x1="727.455658" y1="209.529644" x2="727.455658" y2="341.476844" stroke="black" stroke-width="6.48"/>
<line x1="734.108458" y1="216.182444" x2="872.154058" y2="216.182444" stroke="black" stroke-width="6.48"/>
<line x1="872.154058" y1="216.182444" x2="872.154058" y2="334.269644" stroke="black" stroke-width="6.48"/>
<line x1="734.108458" y1="334.269644" x2="872.154058" y2="334.269644" stroke="black" stroke-width="6.48"/>
<line x1="734.108458" y1="216.182444" x2="734.108458" y2="334.269644" stroke="black" stroke-width="6.48"/>
<line x1="886.568458" y1="223.944044" x2="983.588458" y2="223.944044" stroke="black" stroke-width="6.48"/>
<line x1="886.568458" y1="244.456844" x2="983.588458" y2="244.456844" stroke="black" stroke-width="6.48"/>
<line x1="887.122858" y1="265.524044" x2="984.142858" y2="265.524044" stroke="black" stroke-width="6.48"/>
<line x1="887.122858" y1="286.036844" x2="984.142858" y2="286.036844" stroke="black" stroke-width="6.48"/>
<line x1="886.568458" y1="306.549644" x2="983.588458" y2="306.549644" stroke="black" stroke-width="6.48"/>
<line x1="886.568458" y1="327.062444" x2="983.588458" y2="327.062444" stroke="black" stroke-width="6.48"/>
<line x1="786.776458" y1="334.269644" x2="786.776458" y2="320.409644" stroke="black" stroke-width="6.48"/>
<line x1="786.776458" y1="320.409644" x2="821.149258" y2="320.409644" stroke="black" stroke-width="6.48"/>
<line x1="821.149258" y1="320.409644" x2="821.149258" y2="333.715244" stroke="black" stroke-width="6.48"/>
<circle cx="856.630858" cy="231.151244" r="8.316000000000003" fill="none" stroke="black" stroke-width="6.48"/>
<line x1="711.939899" y1="1116.656651" x2="793.272229" y2="1012.556016" stroke="black" stroke-width="6.48"/>
<line x1="793.272229" y1="1012.556016" x2="804.506112" y2="1021.332884" stroke="black" stroke-width="6.48"/>
<line x1="723.173782" y1="1125.433519" x2="804.506112" y2="1021.332884" stroke="black" stroke-width="6.48"/>
<line x1="711.939899" y1="1116.656651" x2="723.173782" y2="1125.433519" stroke="black" stroke-width="6.48"/>
<line x1="731.365528" y1="1114.948562" x2="754.909816" y2="1135.755529" stroke="black" stroke-width="6.48"/>
<line x1="796.314362" y1="1031.817845" x2="822.94808" y2="1050.21423" stroke="black" stroke-width="6.48"/>
<line x1="1075.168728" y1="1400.442116" x2="1156.501058" y2="1296.341482" stroke="black" stroke-width="6.48"/>
<line x1="1156.501058" y1="1296.341482" x2="1146.016102" y2="1288.149732" stroke="black" stroke-width="6.48"/>
<line x1="1064.683775" y1="1392.250367" x2="1146.016102" y2="1288.149732" stroke="black" stroke-width="6.48"/>
<line x1="1075.168728" y1="1400.442116" x2="1064.683775" y2="1392.250367" stroke="black" stroke-width="6.48"/>
<line x1="1070.792543" y1="1381.344088" x2="1044.907754" y2="1363.532825" stroke="black" stroke-width="6.48"/>
<line x1="1135.741381" y1="1298.21337" x2="1112.033293" y2="1276.072351" stroke="black" stroke-width="6.48"/>
<line x1="1023.477768" y1="984.967412" x2="1014.7009" y2="996.201292" stroke="black" stroke-width="6.48"/>
<line x1="1014.7009" y1="996.201292" x2="1118.801534" y2="1077.533622" stroke="black" stroke-width="6.48"/>
<line x1="1127.578403" y1="1066.299743" x2="1118.801534" y2="1077.533622" stroke="black" stroke-width="6.48"/>
<line x1="1023.477768" y1="984.967412" x2="1127.578403" y2="1066.299743" stroke="black" stroke-width="6.48"/>
<line x1="1107.567652" y1="1068.756754" x2="1089.920189" y2="1095.97559" stroke="black" stroke-width="6.48"/>
<line x1="1025.185853" y1="1004.393038" x2="1003.793764" y2="1028.686252" stroke="black" stroke-width="6.48"/>
<line x1="739.528506" y1="1346.86219" x2="748.305374" y2="1335.628307" stroke="black" stroke-width="6.48"/>
<line x1="748.305374" y1="1335.628307" x2="852.406009" y2="1416.960637" stroke="black" stroke-width="6.48"/>
<line x1="843.629141" y1="1428.19452" x2="852.406009" y2="1416.960637" stroke="black" stroke-width="6.48"/>
<line x1="739.528506" y1="1346.86219" x2="843.629141" y2="1428.19452" stroke="black" stroke-width="6.48"/>
<line x1="841.172126" y1="1408.183769" x2="863.313142" y2="1384.475677" stroke="black" stroke-width="6.48"/>
<line x1="758.790331" y1="1343.820056" x2="777.18672" y2="1317.186342" stroke="black" stroke-width="6.48"/>
<circle cx="933.553454" cy="1206.580964" r="191.98080000000002" fill="none" stroke="black" stroke-width="6.48"/>
<line x1="2044.889399" y1="955.822399" x2="2267.166564" y2="955.822399" stroke="black" stroke-width="6.48"/>
<line x1="2267.166564" y1="955.822399" x2="2267.166564" y2="1178.555051" stroke="black" stroke-width="6.48"/>
<line x1="2267.166564" y1="1178.555051" x2="2044.889399" y2="1178.555051" stroke="black" stroke-width="6.48"/>
<line x1="2044.889399" y1="1178.555051" x2="2044.889399" y2="955.822399" stroke="black" stroke-width="6.48"/>
<line x1="2044.433912" y1="955.366913" x2="2267.166564" y2="1178.555051" stroke="black" stroke-width="6.48"/>
<line x1="2044.889399" y1="1178.099564" x2="2266.711078" y2="955.822399" stroke="black" stroke-width="6.48"/>
<line x1="333.766206" y1="1375.361078" x2="333.766206" y2="949.854546" stroke="black" stroke-width="6.48"/>
<line x1="333.766206" y1="949.854546" x2="257.659348" y2="949.854546" stroke="black" stroke-width="6.48"/>
<line x1="257.659348" y1="949.854546" x2="257.659348" y2="1375.361078" stroke="black" stroke-width="6.48"/>
<line x1="257.659348" y1="1375.361078" x2="333.766206" y2="1375.361078" stroke="black" stroke-width="6.48"/>
<line x1="333.766206" y1="1355.469512" x2="359.711726" y2="1355.469512" stroke="black" stroke-width="6.48"/>
<line x1="359.711726" y1="1355.469512" x2="359.711726" y2="970.610962" stroke="black" stroke-width="6.48"/>
<line x1="333.766206" y1="970.610962" x2="359.711726" y2="970.610962" stroke="black" stroke-width="6.48"/>
<line x1="3874.406537" y1="1514.726719" x2="3874.406537" y2="1940.260162" stroke="black" stroke-width="6.48"/>
<line x1="3874.406537" y1="1940.260162" x2="3940.00601" y2="1940.260162" stroke="black" stroke-width="6.48"/>
<line x1="3940.00601" y1="1940.260162" x2="3940.00601" y2="1514.726719" stroke="black" stroke-width="6.48"/>
<line x1="3940.00601" y1="1514.726719" x2="3874.406537" y2="1514.726719" stroke="black" stroke-width="6.48"/>
<line x1="3939.14286" y1="1554.431663" x2="3875.269687" y2="1554.431663" stroke="black" stroke-width="6.48"/>
<line x1="3939.14286" y1="1899.692064" x2="3872.680232" y2="1899.692064" stroke="black" stroke-width="6.48"/>
<line x1="3908.932574" y1="1553.568512" x2="3908.932574" y2="1898.828914" stroke="black" stroke-width="6.48"/>
<line x1="4910.557565" y1="1840.46585" x2="5152.409093" y2="2150.021693" stroke="black" stroke-width="6.48"/>
<line x1="5152.409093" y1="2150.021693" x2="5297.825448" y2="2036.409984" stroke="black" stroke-width="6.48"/>
<line x1="5297.825448" y1="2036.409984" x2="5055.973916" y2="1726.854145" stroke="black" stroke-width="6.48"/>
<line x1="5055.973916" y1="1726.854145" x2="4910.557565" y2="1840.46585" stroke="black" stroke-width="6.48"/>
<line x1="5153.9823" y1="1852.299151" x2="5217.64096" y2="1802.563553" stroke="black" stroke-width="6.48"/>
<line x1="5217.64096" y1="1802.563553" x2="5169.368178" y2="1740.777206" stroke="black" stroke-width="6.48"/>
<line x1="5169.368178" y1="1740.777206" x2="5105.709511" y2="1790.512808" stroke="black" stroke-width="6.48"/>
<line x1="5156.125481" y1="1752.128597" x2="5203.91066" y2="1813.29084" stroke="black" stroke-width="6.48"/>
<line x1="4896.010397" y1="1954.347714" x2="4944.283182" y2="2016.13406" stroke="black" stroke-width="6.48"/>
<line x1="4944.283182" y1="2016.13406" x2="5008.565945" y2="1965.910856" stroke="black" stroke-width="6.48"/>
<line x1="4960.29316" y1="1904.12451" x2="4896.010397" y2="1954.347714" stroke="black" stroke-width="6.48"/>
<line x1="4910.228298" y1="1944.24453" x2="4958.013481" y2="2005.406773" stroke="black" stroke-width="6.48"/>
<line x1="5247.114642" y1="1971.503114" x2="5310.773302" y2="1921.76752" stroke="black" stroke-width="6.48"/>
<line x1="5310.773302" y1="1921.76752" x2="5262.500516" y2="1859.98117" stroke="black" stroke-width="6.48"/>
<line x1="5262.500516" y1="1859.98117" x2="5198.841857" y2="1909.716768" stroke="black" stroke-width="6.48"/>
<line x1="5248.770221" y1="1870.708457" x2="5297.043002" y2="1932.494807" stroke="black" stroke-width="6.48"/>
<line x1="4989.142739" y1="2073.551674" x2="5037.415524" y2="2135.33802" stroke="black" stroke-width="6.48"/>
<line x1="5037.415524" y1="2135.33802" x2="5101.69829" y2="2085.11482" stroke="black" stroke-width="6.48"/>
<line x1="5053.425505" y1="2023.328473" x2="4989.142739" y2="2073.551674" stroke="black" stroke-width="6.48"/>
<line x1="5002.873038" y1="2062.82439" x2="5051.145827" y2="2124.610736" stroke="black" stroke-width="6.48"/>
<line x1="3197.714699" y1="1074.624926" x2="3407.079902" y2="1074.624926" stroke="black" stroke-width="6.48"/>
<line x1="3407.079902" y1="1074.624926" x2="3407.079902" y2="743.410523" stroke="black" stroke-width="6.48"/>
<line x1="3407.079902" y1="743.410523" x2="3197.714699" y2="743.410523" stroke="black" stroke-width="6.48"/>
<line x1="3197.714699" y1="743.410523" x2="3197.714699" y2="1074.624926" stroke="black" stroke-width="6.48"/>
<line x1="3197.041499" y1="802.652123" x2="3407.753099" y2="802.652123" stroke="black" stroke-width="6.48"/>
<line x1="3407.753099" y1="802.652123" x2="3198.387899" y2="852.468926" stroke="black" stroke-width="6.48"/>
<line x1="3198.387899" y1="852.468926" x2="3230.028302" y2="898.919726" stroke="black" stroke-width="6.48"/>
<line x1="3230.028302" y1="898.919726" x2="3407.753099" y2="801.978926" stroke="black" stroke-width="6.48"/>
<line x1="3452.217152" y1="1202.963148" x2="3674.494318" y2="1202.963148" stroke="black" stroke-width="6.48"/>
<line x1="3674.494318" y1="1202.963148" x2="3674.494318" y2="1425.6958" stroke="black" stroke-width="6.48"/>
<line x1="3674.494318" y1="1425.6958" x2="3452.217152" y2="1425.6958" stroke="black" stroke-width="6.48"/>
<line x1="3452.217152" y1="1425.6958" x2="3452.217152" y2="1202.963148" stroke="black" stroke-width="6.48"/>
<line x1="3451.761666" y1="1202.507662" x2="3674.494318" y2="1425.6958" stroke="black" stroke-width="6.48"/>
<line x1="3452.217152" y1="1425.240313" x2="3674.038831" y2="1202.963148" stroke="black" stroke-width="6.48"/>
<line x1="2804.16708" y1="1127.69402" x2="2804.16708" y2="1153.148746" stroke="black" stroke-width="6.48"/>
<line x1="2804.16708" y1="1153.148746" x2="2853.834836" y2="1153.148746" stroke="black" stroke-width="6.48"/>
<line x1="2853.834836" y1="1153.148746" x2="2853.834836" y2="1127.69402" stroke="black" stroke-width="6.48"/>
<line x1="2853.834836" y1="1127.69402" x2="2804.16708" y2="1127.69402" stroke="black" stroke-width="6.48"/>
<line x1="2853.834836" y1="1402.108373" x2="3101.55277" y2="1402.108373" stroke="black" stroke-width="6.48"/>
<line x1="2802.925386" y1="1402.729218" x2="2802.925386" y2="1428.183943" stroke="black" stroke-width="6.48"/>
<line x1="2802.925386" y1="1428.183943" x2="2852.593142" y2="1428.183943" stroke="black" stroke-width="6.48"/>
<line x1="2852.593142" y1="1428.183943" x2="2852.593142" y2="1402.729218" stroke="black" stroke-width="6.48"/>
<line x1="2852.593142" y1="1402.729218" x2="2802.925386" y2="1402.729218" stroke="black" stroke-width="6.48"/>
<path d="m 2851.972294,1153.148746 a 248.95962699999984,248.95962699999984 0 0 1 248.95962699999973,248.95962699999995" fill="none" stroke="black" stroke-width="6.48"/>
<line x1="2921.878116" y1="2004.736115" x2="2850.672971" y2="2180.975252" stroke="black" stroke-width="6.48"/>
<line x1="2850.672971" y1="2180.975252" x2="3280.696466" y2="2354.715803" stroke="black" stroke-width="6.48"/>
<line x1="3280.696466" y1="2354.715803" x2="3351.901612" y2="2178.476665" stroke="black" stroke-width="6.48"/>
<line x1="3351.901612" y1="2178.476665" x2="3329.871721" y2="2169.576022" stroke="black" stroke-width="6.48"/>
<line x1="3329.871721" y1="2169.576022" x2="3267.211194" y2="2324.666466" stroke="black" stroke-width="6.48"/>
<line x1="3267.211194" y1="2324.666466" x2="2882.128676" y2="2169.083225" stroke="black" stroke-width="6.48"/>
<line x1="2882.128676" y1="2169.083225" x2="2944.789204" y2="2013.992784" stroke="black" stroke-width="6.48"/>
<line x1="2944.789204" y1="2013.992784" x2="2921.878116" y2="2004.736115" stroke="black" stroke-width="6.48"/>
<line x1="2942.65305" y1="2019.279956" x2="3327.735568" y2="2174.863198" stroke="black" stroke-width="6.48"/>
<line x1="3135.109734" y1="2096.012369" x2="3074.585364" y2="2245.815637" stroke="black" stroke-width="6.48"/>
<line x1="3698.851669" y1="1737.417316" x2="3611.981297" y2="1952.429022" stroke="black" stroke-width="6.48"/>
<line x1="3611.981297" y1="1952.429022" x2="3396.52899" y2="1865.38064" stroke="black" stroke-width="6.48"/>
<line x1="3396.52899" y1="1865.38064" x2="3483.399359" y2="1650.36893" stroke="black" stroke-width="6.48"/>
<line x1="3483.399359" y1="1650.36893" x2="3698.851669" y2="1737.417316" stroke="black" stroke-width="6.48"/>
<line x1="3699.470275" y1="1737.154728" x2="3396.52899" y2="1865.38064" stroke="black" stroke-width="6.48"/>
<line x1="3483.839956" y1="1650.546943" x2="3612.15931" y2="1951.988425" stroke="black" stroke-width="6.48"/>
<line x1="3089.601562" y1="1589.315879" x2="3074.626764" y2="1616.331136" stroke="black" stroke-width="6.48"/>
<line x1="3074.626764" y1="1616.331136" x2="3257.914867" y2="1717.929389" stroke="black" stroke-width="6.48"/>
<line x1="3257.914867" y1="1717.929389" x2="3272.889668" y2="1690.914139" stroke="black" stroke-width="6.48"/>
<line x1="3272.889668" y1="1690.914139" x2="3089.601562" y2="1589.315879" stroke="black" stroke-width="6.48"/>
<line x1="2990.767882" y1="1767.616553" x2="2975.793084" y2="1794.63181" stroke="black" stroke-width="6.48"/>
<line x1="2975.793084" y1="1794.63181" x2="3159.081187" y2="1896.230063" stroke="black" stroke-width="6.48"/>
<line x1="3159.081187" y1="1896.230063" x2="3174.055988" y2="1869.21481" stroke="black" stroke-width="6.48"/>
<line x1="3174.055988" y1="1869.21481" x2="2990.767882" y2="1767.616553" stroke="black" stroke-width="6.48"/>
<line x1="3074.857146" y1="1615.915516" x2="2990.767882" y2="1767.616553" stroke="black" stroke-width="6.48"/>
<line x1="3257.544391" y1="1716.637388" x2="3267.502088" y2="1752.583054" stroke="black" stroke-width="6.48"/>
<line x1="3208.754794" y1="1858.56597" x2="3172.99437" y2="1869.169666" stroke="black" stroke-width="6.48"/>
<line x1="3268.423613" y1="1750.920577" x2="3207.833273" y2="1860.22845" stroke="black" stroke-width="6.48"/>
<line x1="3113.694976" y1="1637.987" x2="3029.605718" y2="1789.688038" stroke="black" stroke-width="6.48"/>
<line x1="1303.11383" y1="1682.739907" x2="1171.073131" y2="1819.47199" stroke="black" stroke-width="6.48"/>
<line x1="1171.073131" y1="1819.47199" x2="1504.699402" y2="2141.651286" stroke="black" stroke-width="6.48"/>
<line x1="1504.699402" y1="2141.651286" x2="1636.740097" y2="2004.919207" stroke="black" stroke-width="6.48"/>
<line x1="1636.740097" y1="2004.919207" x2="1619.64859" y2="1988.414122" stroke="black" stroke-width="6.48"/>
<line x1="1619.64859" y1="1988.414122" x2="1503.452776" y2="2108.738351" stroke="black" stroke-width="6.48"/>
<line x1="1503.452776" y1="2108.738351" x2="1204.693186" y2="1820.229426" stroke="black" stroke-width="6.48"/>
<line x1="1204.693186" y1="1820.229426" x2="1320.889" y2="1699.9052" stroke="black" stroke-width="6.48"/>
<line x1="1320.889" y1="1699.9052" x2="1303.11383" y2="1682.739907" stroke="black" stroke-width="6.48"/>
<line x1="1316.927783" y1="1704.007163" x2="1615.687362" y2="1992.516084" stroke="black" stroke-width="6.48"/>
<line x1="1466.625946" y1="1847.247862" x2="1354.391356" y2="1963.470125" stroke="black" stroke-width="6.48"/>
<line x1="6401.683688" y1="1985.443942" x2="6212.644967" y2="2005.312712" stroke="black" stroke-width="6.48"/>
<line x1="6212.644967" y1="2005.312712" x2="6261.124766" y2="2466.567194" stroke="black" stroke-width="6.48"/>
<line x1="6261.124766" y1="2466.567194" x2="6450.163492" y2="2446.698427" stroke="black" stroke-width="6.48"/>
<line x1="6450.163492" y1="2446.698427" x2="6447.679891" y2="2423.068585" stroke="black" stroke-width="6.48"/>
<line x1="6447.679891" y1="2423.068585" x2="6281.325817" y2="2440.553105" stroke="black" stroke-width="6.48"/>
<line x1="6281.325817" y1="2440.553105" x2="6237.912553" y2="2027.503494" stroke="black" stroke-width="6.48"/>
<line x1="6237.912553" y1="2027.503494" x2="6404.266631" y2="2010.018978" stroke="black" stroke-width="6.48"/>
<line x1="6404.266631" y1="2010.018978" x2="6401.683688" y2="1985.443942" stroke="black" stroke-width="6.48"/>
<line x1="6398.595468" y1="2010.615041" x2="6442.008728" y2="2423.664648" stroke="black" stroke-width="6.48"/>
<line x1="6421.197622" y1="2216.567905" x2="6260.514707" y2="2233.456358" stroke="black" stroke-width="6.48"/>
<line x1="2246.10781" y1="2035.662358" x2="2476.735045" y2="2059.902313" stroke="black" stroke-width="6.48"/>
<line x1="2476.735045" y1="2059.902313" x2="2452.445417" y2="2291.002146" stroke="black" stroke-width="6.48"/>
<line x1="2452.445417" y1="2291.002146" x2="2221.818181" y2="2266.762187" stroke="black" stroke-width="6.48"/>
<line x1="2221.818181" y1="2266.762187" x2="2246.10781" y2="2035.662358" stroke="black" stroke-width="6.48"/>
<line x1="2245.684885" y1="2035.140088" x2="2452.445417" y2="2291.002146" stroke="black" stroke-width="6.48"/>
<line x1="2221.867854" y1="2266.28959" x2="2476.262448" y2="2059.85264" stroke="black" stroke-width="6.48"/>
</g>
</svg>
