<?xml version="1.0"?>
<svg xmlns:xlink="http://www.w3.org/1999/xlink" width="6775.2" height="2858.4">
<image x="0" y="0" width="6775.2" height="2858.4" xlink:href="groundfilled-01.png"/>
<g style="stroke-linecap:round">
<line x1="1285.950406" y1="795.178109" x2="1311.346069" y2="795.178109" stroke="black" stroke-width="6.48"/>
<line x1="1311.346069" y1="795.178109" x2="1311.346069" y2="745.625592" stroke="black" stroke-width="6.48"/>
<line x1="1311.346069" y1="745.625592" x2="1285.950406" y2="745.625592" stroke="black" stroke-width="6.48"/>
<line x1="1285.950406" y1="745.625592" x2="1285.950406" y2="795.178109" stroke="black" stroke-width="6.48"/>
<line x1="1559.728062" y1="745.625592" x2="1559.728062" y2="498.48241" stroke="black" stroke-width="6.48"/>
<line x1="1560.347471" y1="796.416923" x2="1585.743134" y2="796.416923" stroke="black" stroke-width="6.48"/>
<line x1="1585.743134" y1="796.416923" x2="1585.743134" y2="746.864406" stroke="black" stroke-width="6.48"/>
<line x1="1585.743134" y1="746.864406" x2="1560.347471" y2="746.864406" stroke="black" stroke-width="6.48"/>
<line x1="1560.347471" y1="746.864406" x2="1560.347471" y2="796.416923" stroke="black" stroke-width="6.48"/>
<path d="m 1311.346069,747.483811 a 248.38199299999997,248.38199299999997 0 0 1 248.38199299999997,-248.38199299999997" fill="none" stroke="black" stroke-width="6.48"/>
<line x1="330.523178" y1="771.328966" x2="330.523178" y2="366.748985" stroke="black" stroke-width="6.48"/>
<line x1="330.523178" y1="366.748985" x2="258.15928" y2="366.748985" stroke="black" stroke-width="6.48"/>
<line x1="258.15928" y1="366.748985" x2="258.15928" y2="771.328966" stroke="black" stroke-width="6.48"/>
<line x1="258.15928" y1="771.328966" x2="330.523178" y2="771.328966" stroke="black" stroke-width="6.48"/>
<line x1="330.523178" y1="752.415674" x2="355.19269" y2="752.415674" stroke="black" stroke-width="6.48"/>
<line x1="355.19269" y1="752.415674" x2="355.19269" y2="386.484595" stroke="black" stroke-width="6.48"/>
<line x1="330.523178" y1="386.484595" x2="355.19269" y2="386.484595" stroke="black" stroke-width="6.48"/>
<line x1="3901.945176" y1="1169.331426" x2="3901.945176" y2="1428.837066" stroke="black" stroke-width="6.48"/>
<line x1="3901.945176" y1="1428.837066" x2="3941.9501" y2="1428.837066" stroke="black" stroke-width="6.48"/>
<line x1="3941.9501" y1="1428.837066" x2="3941.9501" y2="1169.331426" stroke="black" stroke-width="6.48"/>
<line x1="3941.9501" y1="1169.331426" x2="3901.945176" y2="1169.331426" stroke="black" stroke-width="6.48"/>
<line x1="3941.423719" y1="1193.544936" x2="3902.471557" y2="1193.544936" stroke="black" stroke-width="6.48"/>
<line x1="3941.423719" y1="1404.097178" x2="3900.892414" y2="1404.097178" stroke="black" stroke-width="6.48"/>
<line x1="3923.000399" y1="1193.018555" x2="3923.000399" y2="1403.570797" stroke="black" stroke-width="6.48"/>
<line x1="323.923298" y1="1882.957399" x2="323.923298" y2="1457.423957" stroke="black" stroke-width="6.48"/>
<line x1="323.923298" y1="1457.423957" x2="258.323825" y2="1457.423957" stroke="black" stroke-width="6.48"/>
<line x1="258.323825" y1="1457.423957" x2="258.323825" y2="1882.957399" stroke="black" stroke-width="6.48"/>
<line x1="258.323825" y1="1882.957399" x2="323.923298" y2="1882.957399" stroke="black" stroke-width="6.48"/>
<line x1="259.186975" y1="1843.252456" x2="323.060148" y2="1843.252456" stroke="black" stroke-width="6.48"/>
<line x1="259.186975" y1="1497.992054" x2="325.649603" y2="1497.992054" stroke="black" stroke-width="6.48"/>
<line x1="289.397261" y1="1844.115606" x2="289.397261" y2="1498.855205" stroke="black" stroke-width="6.48"/>
<line x1="2747.905531" y1="904.670665" x2="2721.68303" y2="904.670665" stroke="black" stroke-width="6.48"/>
<line x1="2721.68303" y1="904.670665" x2="2721.68303" y2="955.836522" stroke="black" stroke-width="6.48"/>
<line x1="2721.68303" y1="955.836522" x2="2747.905531" y2="955.836522" stroke="black" stroke-width="6.48"/>
<line x1="2747.905531" y1="955.836522" x2="2747.905531" y2="904.670665" stroke="black" stroke-width="6.48"/>
<line x1="2465.214181" y1="955.836522" x2="2465.214181" y2="1211.026223" stroke="black" stroke-width="6.48"/>
<line x1="2464.574609" y1="903.39152" x2="2438.352108" y2="903.39152" stroke="black" stroke-width="6.48"/>
<line x1="2438.352108" y1="903.39152" x2="2438.352108" y2="954.557374" stroke="black" stroke-width="6.48"/>
<line x1="2438.352108" y1="954.557374" x2="2464.574609" y2="954.557374" stroke="black" stroke-width="6.48"/>
<line x1="2464.574609" y1="954.557374" x2="2464.574609" y2="903.39152" stroke="black" stroke-width="6.48"/>
<path d="m 2721.68303,953.917801 a 256.4688490000001,256.4688490000001 0 0 1 -256.4688490000003,256.46884899999986" fill="none" stroke="black" stroke-width="6.48"/>
<line x1="2420.532389" y1="1427.858834" x2="2395.136725" y2="1427.858834" stroke="black" stroke-width="6.48"/>
<line x1="2395.136725" y1="1427.858834" x2="2395.136725" y2="1477.411351" stroke="black" stroke-width="6.48"/>
<line x1="2395.136725" y1="1477.411351" x2="2420.532389" y2="1477.411351" stroke="black" stroke-width="6.48"/>
<line x1="2420.532389" y1="1477.411351" x2="2420.532389" y2="1427.858834" stroke="black" stroke-width="6.48"/>
<line x1="2146.754732" y1="1477.411351" x2="2146.754732" y2="1724.554534" stroke="black" stroke-width="6.48"/>
<line x1="2146.135324" y1="1426.62002" x2="2120.73966" y2="1426.62002" stroke="black" stroke-width="6.48"/>
<line x1="2120.73966" y1="1426.62002" x2="2120.73966" y2="1476.172537" stroke="black" stroke-width="6.48"/>
<line x1="2120.73966" y1="1476.172537" x2="2146.135324" y2="1476.172537" stroke="black" stroke-width="6.48"/>
<line x1="2146.135324" y1="1476.172537" x2="2146.135324" y2="1426.62002" stroke="black" stroke-width="6.48"/>
<path d="m 2395.136725,1475.553132 a 248.38199299999997,248.38199299999997 0 0 1 -248.38199299999997,248.38199299999997" fill="none" stroke="black" stroke-width="6.48"/>
<line x1="600.126656" y1="541.339351" x2="832.024256" y2="541.339351" stroke="black" stroke-width="6.48"/>
<line x1="832.024256" y1="541.339351" x2="832.024256" y2="773.712151" stroke="black" stroke-width="6.48"/>
<line x1="832.024256" y1="773.712151" x2="600.126656" y2="773.712151" stroke="black" stroke-width="6.48"/>
<line x1="600.126656" y1="773.712151" x2="600.126656" y2="541.339351" stroke="black" stroke-width="6.48"/>
<line x1="599.651456" y1="540.864151" x2="832.024256" y2="773.712151" stroke="black" stroke-width="6.48"/>
<line x1="600.126656" y1="773.236951" x2="831.549056" y2="541.339351" stroke="black" stroke-width="6.48"/>
<line x1="1842.844367" y1="2069.686966" x2="2032.924367" y2="2069.686966" stroke="black" stroke-width="6.48"/>
<line x1="2032.924367" y1="2069.686966" x2="2032.924367" y2="1605.891766" stroke="black" stroke-width="6.48"/>
<line x1="2032.924367" y1="1605.891766" x2="1842.844367" y2="1605.891766" stroke="black" stroke-width="6.48"/>
<line x1="1842.844367" y1="1605.891766" x2="1842.844367" y2="1629.651766" stroke="black" stroke-width="6.48"/>
<line x1="1842.844367" y1="1629.651766" x2="2010.114767" y2="1629.651766" stroke="black" stroke-width="6.48"/>
<line x1="2010.114767" y1="1629.651766" x2="2010.114767" y2="2044.976566" stroke="black" stroke-width="6.48"/>
<line x1="2010.114767" y1="2044.976566" x2="1842.844367" y2="2044.976566" stroke="black" stroke-width="6.48"/>
<line x1="1842.844367" y1="2044.976566" x2="1842.844367" y2="2069.686966" stroke="black" stroke-width="6.48"/>
<line x1="1848.546767" y1="2044.976566" x2="1848.546767" y2="1629.651766" stroke="black" stroke-width="6.48"/>
<line x1="1847.596367" y1="1837.789366" x2="2009.164367" y2="1837.789366" stroke="black" stroke-width="6.48"/>
<line x1="1485.415969" y1="209.267824" x2="1707.693134" y2="209.267824" stroke="black" stroke-width="6.48"/>
<line x1="1707.693134" y1="209.267824" x2="1707.693134" y2="432.000475" stroke="black" stroke-width="6.48"/>
<line x1="1707.693134" y1="432.000475" x2="1485.415969" y2="432.000475" stroke="black" stroke-width="6.48"/>
<line x1="1485.415969" y1="432.000475" x2="1485.415969" y2="209.267824" stroke="black" stroke-width="6.48"/>
<line x1="1484.960483" y1="208.812337" x2="1707.693134" y2="432.000475" stroke="black" stroke-width="6.48"/>
<line x1="1485.415969" y1="431.544989" x2="1707.237648" y2="209.267824" stroke="black" stroke-width="6.48"/>
<line x1="2586.780558" y1="1803.366338" x2="2586.780558" y2="2194.614338" stroke="black" stroke-width="6.48"/>
<line x1="2586.780558" y1="2194.614338" x2="2761.020558" y2="2194.614338" stroke="black" stroke-width="6.48"/>
<line x1="2761.020558" y1="2194.614338" x2="2761.020558" y2="1803.366338" stroke="black" stroke-width="6.48"/>
<line x1="2761.020558" y1="1803.366338" x2="2586.780558" y2="1803.366338" stroke="black" stroke-width="6.48"/>
<line x1="2734.092558" y1="2119.374338" x2="2734.092558" y2="1835.046338" stroke="black" stroke-width="6.48"/>
<line x1="2734.092558" y1="1835.046338" x2="2616.084558" y2="1835.046338" stroke="black" stroke-width="6.48"/>
<line x1="2616.084558" y1="1835.046338" x2="2616.084558" y2="2124.918338" stroke="black" stroke-width="6.48"/>
<path d="m 2734.347982,2118.563766 a 63.35999941905905,63.35999941905905 0 0 1 -119.37432999999965,4.2938139999996565" fill="none" stroke="black" stroke-width="6.48"/>
<line x1="2081.283973" y1="1909.972991" x2="2056.731973" y2="1928.584991" stroke="black" stroke-width="6.48"/>
<line x1="2056.731973" y1="1928.584991" x2="2056.731973" y2="2075.896991" stroke="black" stroke-width="6.48"/>
<line x1="2056.731973" y1="2075.896991" x2="2084.847973" y2="2094.904991" stroke="black" stroke-width="6.48"/>
<line x1="2084.055973" y1="1931.752991" x2="2084.055973" y2="2074.708991" stroke="black" stroke-width="6.48"/>
<circle cx="2105.835973" cy="2001.052991" r="13.068000000000003" fill="none" stroke="black" stroke-width="6.48"/>
<path d="m 2083.388627,1933.306243 a 74.84400053466217,74.84400053466217 0 1 1 0.4020480000003772,139.6090049999998" fill="none" stroke="black" stroke-width="6.48"/>
<path d="m 2080.62661,1910.019294 a 95.43599857690604,95.43599857690604 0 1 1 3.0749580000001515,184.466995" fill="none" stroke="black" stroke-width="6.48"/>
<line x1="731.043536" y1="210.693006" x2="1124.287409" y2="210.693006" stroke="black" stroke-width="6.48"/>
<line x1="1128.242815" y1="209.696724" x2="1128.242815" y2="345.765499" stroke="black" stroke-width="6.48"/>
<line x1="731.507926" y1="346.917006" x2="1128.548156" y2="346.917006" stroke="black" stroke-width="6.48"/>
<line x1="732.242815" y1="211.387756" x2="732.242815" y2="346.651812" stroke="black" stroke-width="6.48"/>
<line x1="742.538815" y1="221.781006" x2="866.090815" y2="221.781006" stroke="black" stroke-width="6.48"/>
<line x1="866.090815" y1="221.781006" x2="866.090815" y2="335.829006" stroke="black" stroke-width="6.48"/>
<line x1="742.538815" y1="335.829006" x2="866.090815" y2="335.829006" stroke="black" stroke-width="6.48"/>
<line x1="742.538815" y1="221.781006" x2="742.538815" y2="335.829006" stroke="black" stroke-width="6.48"/>
<line x1="885.098815" y1="228.909006" x2="972.218815" y2="228.909006" stroke="black" stroke-width="6.48"/>
<line x1="885.098815" y1="248.709006" x2="972.218815" y2="248.709006" stroke="black" stroke-width="6.48"/>
<line x1="885.890815" y1="269.301006" x2="972.218815" y2="269.301006" stroke="black" stroke-width="6.48"/>
<line x1="885.890815" y1="289.101006" x2="972.218815" y2="289.101006" stroke="black" stroke-width="6.48"/>
<line x1="885.098815" y1="308.901006" x2="972.218815" y2="308.901006" stroke="black" stroke-width="6.48"/>
<line x1="885.098815" y1="328.701006" x2="972.218815" y2="328.701006" stroke="black" stroke-width="6.48"/>
<line x1="790.058815" y1="335.037006" x2="790.058815" y2="321.573006" stroke="black" stroke-width="6.48"/>
<line x1="790.058815" y1="321.573006" x2="820.154815" y2="321.573006" stroke="black" stroke-width="6.48"/>
<line x1="820.154815" y1="321.573006" x2="820.154815" y2="334.245006" stroke="black" stroke-width="6.48"/>
<line x1="992.810815" y1="221.781006" x2="1116.362815" y2="221.781006" stroke="black" stroke-width="6.48"/>
<line x1="1116.362815" y1="221.781006" x2="1116.362815" y2="335.829006" stroke="black" stroke-width="6.48"/>
<line x1="992.810815" y1="335.829006" x2="1116.362815" y2="335.829006" stroke="black" stroke-width="6.48"/>
<line x1="992.810815" y1="221.781006" x2="992.810815" y2="335.829006" stroke="black" stroke-width="6.48"/>
<line x1="1040.330815" y1="335.829006" x2="1040.330815" y2="322.365006" stroke="black" stroke-width="6.48"/>
<line x1="1040.330815" y1="322.365006" x2="1070.426815" y2="322.365006" stroke="black" stroke-width="6.48"/>
<line x1="1070.426815" y1="322.365006" x2="1070.426815" y2="335.037006" stroke="black" stroke-width="6.48"/>
<circle cx="851.834815" cy="236.037006" r="7.128000000000001" fill="none" stroke="black" stroke-width="6.48"/>
<circle cx="1102.106815" cy="236.829006" r="7.128000000000001" fill="none" stroke="black" stroke-width="6.48"/>
<line x1="703.410095" y1="1271.891628" x2="703.410095" y2="1139.786028" stroke="black" stroke-width="6.48"/>
<line x1="703.410095" y1="1139.786028" x2="717.666095" y2="1139.786028" stroke="black" stroke-width="6.48"/>
<line x1="717.666095" y1="1271.891628" x2="717.666095" y2="1139.786028" stroke="black" stroke-width="6.48"/>
<line x1="703.410095" y1="1271.891628" x2="717.666095" y2="1271.891628" stroke="black" stroke-width="6.48"/>
<line x1="717.666095" y1="1258.586028" x2="749.029295" y2="1260.486828" stroke="black" stroke-width="6.48"/>
<line x1="717.666095" y1="1153.091628" x2="749.979695" y2="1151.190828" stroke="black" stroke-width="6.48"/>
<line x1="1164.354095" y1="1271.891628" x2="1164.354095" y2="1139.786028" stroke="black" stroke-width="6.48"/>
<line x1="1164.354095" y1="1139.786028" x2="1151.048495" y2="1139.786028" stroke="black" stroke-width="6.48"/>
<line x1="1151.048495" y1="1271.891628" x2="1151.048495" y2="1139.786028" stroke="black" stroke-width="6.48"/>
<line x1="1164.354095" y1="1271.891628" x2="1151.048495" y2="1271.891628" stroke="black" stroke-width="6.48"/>
<line x1="1149.147695" y1="1259.536428" x2="1117.784495" y2="1261.437228" stroke="black" stroke-width="6.48"/>
<line x1="1149.147695" y1="1154.042028" x2="1116.834095" y2="1151.190828" stroke="black" stroke-width="6.48"/>
<line x1="867.829295" y1="976.317228" x2="867.829295" y2="990.573228" stroke="black" stroke-width="6.48"/>
<line x1="867.829295" y1="990.573228" x2="999.934895" y2="990.573228" stroke="black" stroke-width="6.48"/>
<line x1="999.934895" y1="976.317228" x2="999.934895" y2="990.573228" stroke="black" stroke-width="6.48"/>
<line x1="867.829295" y1="976.317228" x2="999.934895" y2="976.317228" stroke="black" stroke-width="6.48"/>
<line x1="985.678895" y1="990.573228" x2="988.530095" y2="1022.886828" stroke="black" stroke-width="6.48"/>
<line x1="881.134895" y1="990.573228" x2="879.234095" y2="1022.886828" stroke="black" stroke-width="6.48"/>
<line x1="866.878895" y1="1436.310828" x2="866.878895" y2="1422.054828" stroke="black" stroke-width="6.48"/>
<line x1="866.878895" y1="1422.054828" x2="998.984495" y2="1422.054828" stroke="black" stroke-width="6.48"/>
<line x1="998.984495" y1="1436.310828" x2="998.984495" y2="1422.054828" stroke="black" stroke-width="6.48"/>
<line x1="866.878895" y1="1436.310828" x2="998.984495" y2="1436.310828" stroke="black" stroke-width="6.48"/>
<line x1="984.728495" y1="1422.054828" x2="987.579695" y2="1389.741228" stroke="black" stroke-width="6.48"/>
<line x1="880.184495" y1="1422.054828" x2="878.283695" y2="1389.741228" stroke="black" stroke-width="6.48"/>
<circle cx="933.406895" cy="1206.314028" r="191.98080000000002" fill="none" stroke="black" stroke-width="6.48"/>
<line x1="2044.889399" y1="955.822399" x2="2267.166564" y2="955.822399" stroke="black" stroke-width="6.48"/>
<line x1="2267.166564" y1="955.822399" x2="2267.166564" y2="1178.555051" stroke="black" stroke-width="6.48"/>
<line x1="2267.166564" y1="1178.555051" x2="2044.889399" y2="1178.555051" stroke="black" stroke-width="6.48"/>
<line x1="2044.889399" y1="1178.555051" x2="2044.889399" y2="955.822399" stroke="black" stroke-width="6.48"/>
<line x1="2044.433912" y1="955.366913" x2="2267.166564" y2="1178.555051" stroke="black" stroke-width="6.48"/>
<line x1="2044.889399" y1="1178.099564" x2="2266.711078" y2="955.822399" stroke="black" stroke-width="6.48"/>
<line x1="323.258818" y1="1375.374532" x2="323.258818" y2="949.841089" stroke="black" stroke-width="6.48"/>
<line x1="323.258818" y1="949.841089" x2="257.659344" y2="949.841089" stroke="black" stroke-width="6.48"/>
<line x1="257.659344" y1="949.841089" x2="257.659344" y2="1375.374532" stroke="black" stroke-width="6.48"/>
<line x1="257.659344" y1="1375.374532" x2="323.258818" y2="1375.374532" stroke="black" stroke-width="6.48"/>
<line x1="258.522494" y1="1335.669588" x2="322.395667" y2="1335.669588" stroke="black" stroke-width="6.48"/>
<line x1="258.522494" y1="990.409187" x2="324.985122" y2="990.409187" stroke="black" stroke-width="6.48"/>
<line x1="288.73278" y1="1336.532738" x2="288.73278" y2="991.272337" stroke="black" stroke-width="6.48"/>
<line x1="3874.406537" y1="1514.726719" x2="3874.406537" y2="1940.260162" stroke="black" stroke-width="6.48"/>
<line x1="3874.406537" y1="1940.260162" x2="3940.00601" y2="1940.260162" stroke="black" stroke-width="6.48"/>
<line x1="3940.00601" y1="1940.260162" x2="3940.00601" y2="1514.726719" stroke="black" stroke-width="6.48"/>
<line x1="3940.00601" y1="1514.726719" x2="3874.406537" y2="1514.726719" stroke="black" stroke-width="6.48"/>
<line x1="3939.14286" y1="1554.431663" x2="3875.269687" y2="1554.431663" stroke="black" stroke-width="6.48"/>
<line x1="3939.14286" y1="1899.692064" x2="3872.680232" y2="1899.692064" stroke="black" stroke-width="6.48"/>
<line x1="3908.932574" y1="1553.568512" x2="3908.932574" y2="1898.828914" stroke="black" stroke-width="6.48"/>
<line x1="5232.056713" y1="1714.479142" x2="5305.929232" y2="1823.999648" stroke="black" stroke-width="6.48"/>
<line x1="5305.929232" y1="1823.999648" x2="5294.110468" y2="1831.971503" stroke="black" stroke-width="6.48"/>
<line x1="5220.237956" y1="1722.450996" x2="5294.110468" y2="1831.971503" stroke="black" stroke-width="6.48"/>
<line x1="5232.056713" y1="1714.479142" x2="5220.237956" y2="1722.450996" stroke="black" stroke-width="6.48"/>
<line x1="5227.678354" y1="1733.481839" x2="5200.614169" y2="1749.444084" stroke="black" stroke-width="6.48"/>
<line x1="5286.670074" y1="1820.94066" x2="5260.943797" y2="1840.586029" stroke="black" stroke-width="6.48"/>
<line x1="4849.916821" y1="1972.235754" x2="4923.789336" y2="2081.756264" stroke="black" stroke-width="6.48"/>
<line x1="4923.789336" y1="2081.756264" x2="4934.820175" y2="2074.315867" stroke="black" stroke-width="6.48"/>
<line x1="4860.947664" y1="1964.795357" x2="4934.820175" y2="2074.315867" stroke="black" stroke-width="6.48"/>
<line x1="4849.916821" y1="1972.235754" x2="4860.947664" y2="1964.795357" stroke="black" stroke-width="6.48"/>
<line x1="4869.432439" y1="1973.975371" x2="4894.370795" y2="1954.861456" stroke="black" stroke-width="6.48"/>
<line x1="4928.42416" y1="2061.434192" x2="4956.807719" y2="2045.728408" stroke="black" stroke-width="6.48"/>
<line x1="5261.030129" y1="2051.463474" x2="5253.058274" y2="2039.644717" stroke="black" stroke-width="6.48"/>
<line x1="5253.058274" y1="2039.644717" x2="5143.537768" y2="2113.517228" stroke="black" stroke-width="6.48"/>
<line x1="5151.509622" y1="2125.335989" x2="5143.537768" y2="2113.517228" stroke="black" stroke-width="6.48"/>
<line x1="5261.030129" y1="2051.463474" x2="5151.509622" y2="2125.335989" stroke="black" stroke-width="6.48"/>
<line x1="5155.356528" y1="2105.545378" x2="5134.923241" y2="2080.350558" stroke="black" stroke-width="6.48"/>
<line x1="5242.027432" y1="2047.085114" x2="5225.533733" y2="2019.233012" stroke="black" stroke-width="6.48"/>
<line x1="5004.592888" y1="1669.580039" x2="5012.564746" y2="1681.398803" stroke="black" stroke-width="6.48"/>
<line x1="5012.564746" y1="1681.398803" x2="4903.044235" y2="1755.271314" stroke="black" stroke-width="6.48"/>
<line x1="4895.072384" y1="1743.452557" x2="4903.044235" y2="1755.271314" stroke="black" stroke-width="6.48"/>
<line x1="5004.592888" y1="1669.580039" x2="4895.072384" y2="1743.452557" stroke="black" stroke-width="6.48"/>
<line x1="4914.862996" y1="1747.29946" x2="4930.56878" y2="1775.683019" stroke="black" stroke-width="6.48"/>
<line x1="5001.533899" y1="1688.839196" x2="5021.179268" y2="1714.565473" stroke="black" stroke-width="6.48"/>
<circle cx="5078.051258" cy="1897.458012" r="191.98080000000002" fill="none" stroke="black" stroke-width="6.48"/>
<line x1="3487.781614" y1="1075.582242" x2="3697.146817" y2="1075.582242" stroke="black" stroke-width="6.48"/>
<line x1="3697.146817" y1="1075.582242" x2="3697.146817" y2="744.367838" stroke="black" stroke-width="6.48"/>
<line x1="3697.146817" y1="744.367838" x2="3487.781614" y2="744.367838" stroke="black" stroke-width="6.48"/>
<line x1="3487.781614" y1="744.367838" x2="3487.781614" y2="1075.582242" stroke="black" stroke-width="6.48"/>
<line x1="3487.108414" y1="803.609438" x2="3697.820014" y2="803.609438" stroke="black" stroke-width="6.48"/>
<line x1="3697.820014" y1="803.609438" x2="3488.454814" y2="853.426242" stroke="black" stroke-width="6.48"/>
<line x1="3488.454814" y1="853.426242" x2="3520.095217" y2="899.877042" stroke="black" stroke-width="6.48"/>
<line x1="3520.095217" y1="899.877042" x2="3697.820014" y2="802.936242" stroke="black" stroke-width="6.48"/>
<line x1="3301.456356" y1="1203.573514" x2="3523.733521" y2="1203.573514" stroke="black" stroke-width="6.48"/>
<line x1="3523.733521" y1="1203.573514" x2="3523.733521" y2="1426.306165" stroke="black" stroke-width="6.48"/>
<line x1="3523.733521" y1="1426.306165" x2="3301.456356" y2="1426.306165" stroke="black" stroke-width="6.48"/>
<line x1="3301.456356" y1="1426.306165" x2="3301.456356" y2="1203.573514" stroke="black" stroke-width="6.48"/>
<line x1="3301.00087" y1="1203.118027" x2="3523.733521" y2="1426.306165" stroke="black" stroke-width="6.48"/>
<line x1="3301.456356" y1="1425.850679" x2="3523.278035" y2="1203.573514" stroke="black" stroke-width="6.48"/>
<line x1="2804.16708" y1="1127.69402" x2="2804.16708" y2="1153.148746" stroke="black" stroke-width="6.48"/>
<line x1="2804.16708" y1="1153.148746" x2="2853.834836" y2="1153.148746" stroke="black" stroke-width="6.48"/>
<line x1="2853.834836" y1="1153.148746" x2="2853.834836" y2="1127.69402" stroke="black" stroke-width="6.48"/>
<line x1="2853.834836" y1="1127.69402" x2="2804.16708" y2="1127.69402" stroke="black" stroke-width="6.48"/>
<line x1="2853.834836" y1="1402.108373" x2="3101.55277" y2="1402.108373" stroke="black" stroke-width="6.48"/>
<line x1="2802.925386" y1="1402.729218" x2="2802.925386" y2="1428.183943" stroke="black" stroke-width="6.48"/>
<line x1="2802.925386" y1="1428.183943" x2="2852.593142" y2="1428.183943" stroke="black" stroke-width="6.48"/>
<line x1="2852.593142" y1="1428.183943" x2="2852.593142" y2="1402.729218" stroke="black" stroke-width="6.48"/>
<line x1="2852.593142" y1="1402.729218" x2="2802.925386" y2="1402.729218" stroke="black" stroke-width="6.48"/>
<path d="m 2851.972294,1153.148746 a 248.95962699999984,248.95962699999984 0 0 1 248.95962699999973,248.95962699999995" fill="none" stroke="black" stroke-width="6.48"/>
<line x1="2951.277145" y1="2018.922854" x2="2880.072" y2="2195.161992" stroke="black" stroke-width="6.48"/>
<line x1="2880.072" y1="2195.161992" x2="3310.095496" y2="2368.902542" stroke="black" stroke-width="6.48"/>
<line x1="3310.095496" y1="2368.902542" x2="3381.300641" y2="2192.663405" stroke="black" stroke-width="6.48"/>
<line x1="3381.300641" y1="2192.663405" x2="3359.27075" y2="2183.762761" stroke="black" stroke-width="6.48"/>
<line x1="3359.27075" y1="2183.762761" x2="3296.610223" y2="2338.853206" stroke="black" stroke-width="6.48"/>
<line x1="3296.610223" y1="2338.853206" x2="2911.527706" y2="2183.269964" stroke="black" stroke-width="6.48"/>
<line x1="2911.527706" y1="2183.269964" x2="2974.188233" y2="2028.179524" stroke="black" stroke-width="6.48"/>
<line x1="2974.188233" y1="2028.179524" x2="2951.277145" y2="2018.922854" stroke="black" stroke-width="6.48"/>
<line x1="2972.052079" y1="2033.466696" x2="3357.134597" y2="2189.049937" stroke="black" stroke-width="6.48"/>
<line x1="3164.508763" y1="2110.199108" x2="3103.984393" y2="2260.002377" stroke="black" stroke-width="6.48"/>
<line x1="3417.075349" y1="1900.049346" x2="3449.349259" y2="1670.408557" stroke="black" stroke-width="6.48"/>
<line x1="3449.349259" y1="1670.408557" x2="3679.460622" y2="1702.748603" stroke="black" stroke-width="6.48"/>
<line x1="3679.460622" y1="1702.748603" x2="3647.186719" y2="1932.389392" stroke="black" stroke-width="6.48"/>
<line x1="3647.186719" y1="1932.389392" x2="3417.075349" y2="1900.049346" stroke="black" stroke-width="6.48"/>
<line x1="3416.53864" y1="1900.453788" x2="3679.460622" y2="1702.748603" stroke="black" stroke-width="6.48"/>
<line x1="3646.716138" y1="1932.323256" x2="3449.283124" y2="1670.879131" stroke="black" stroke-width="6.48"/>
<line x1="3111.239045" y1="1589.315879" x2="3092.650182" y2="1613.98413" stroke="black" stroke-width="6.48"/>
<line x1="3092.650182" y1="1613.98413" x2="3260.014798" y2="1740.102415" stroke="black" stroke-width="6.48"/>
<line x1="3260.014798" y1="1740.102415" x2="3278.60366" y2="1715.43416" stroke="black" stroke-width="6.48"/>
<line x1="3278.60366" y1="1715.43416" x2="3111.239045" y2="1589.315879" stroke="black" stroke-width="6.48"/>
<line x1="2988.552553" y1="1752.12635" x2="2969.96369" y2="1776.794605" stroke="black" stroke-width="6.48"/>
<line x1="2969.96369" y1="1776.794605" x2="3137.328302" y2="1902.912887" stroke="black" stroke-width="6.48"/>
<line x1="3137.328302" y1="1902.912887" x2="3155.917165" y2="1878.244636" stroke="black" stroke-width="6.48"/>
<line x1="3155.917165" y1="1878.244636" x2="2988.552553" y2="1752.12635" stroke="black" stroke-width="6.48"/>
<line x1="3092.936166" y1="1613.604622" x2="2988.552553" y2="1752.12635" stroke="black" stroke-width="6.48"/>
<line x1="3259.827742" y1="1738.771427" x2="3264.685855" y2="1775.753114" stroke="black" stroke-width="6.48"/>
<line x1="3191.760317" y1="1872.528566" x2="3154.872161" y2="1878.052183" stroke="black" stroke-width="6.48"/>
<line x1="3265.829784" y1="1774.235066" x2="3190.616388" y2="1874.046614" stroke="black" stroke-width="6.48"/>
<line x1="3128.324274" y1="1640.866489" x2="3023.940661" y2="1779.388218" stroke="black" stroke-width="6.48"/>
<line x1="1043.251978" y1="1759.063604" x2="965.939432" y2="1932.710303" stroke="black" stroke-width="6.48"/>
<line x1="965.939432" y1="1932.710303" x2="1389.637382" y2="2121.352913" stroke="black" stroke-width="6.48"/>
<line x1="1389.637382" y1="2121.352913" x2="1466.949928" y2="1947.706211" stroke="black" stroke-width="6.48"/>
<line x1="1466.949928" y1="1947.706211" x2="1445.244091" y2="1938.04214" stroke="black" stroke-width="6.48"/>
<line x1="1445.244091" y1="1938.04214" x2="1377.209052" y2="2090.85124" stroke="black" stroke-width="6.48"/>
<line x1="1377.209052" y1="2090.85124" x2="997.791012" y2="1921.923331" stroke="black" stroke-width="6.48"/>
<line x1="997.791012" y1="1921.923331" x2="1065.826048" y2="1769.114236" stroke="black" stroke-width="6.48"/>
<line x1="1065.826048" y1="1769.114236" x2="1043.251978" y2="1759.063604" stroke="black" stroke-width="6.48"/>
<line x1="1063.506672" y1="1774.323637" x2="1442.924719" y2="1943.251542" stroke="black" stroke-width="6.48"/>
<line x1="1253.16814" y1="1857.726076" x2="1187.45248" y2="2005.32577" stroke="black" stroke-width="6.48"/>
<line x1="6034.05216" y1="1609.899088" x2="5857.813051" y2="1681.104312" stroke="black" stroke-width="6.48"/>
<line x1="5857.813051" y1="1681.104312" x2="6031.553796" y2="2111.127732" stroke="black" stroke-width="6.48"/>
<line x1="6031.553796" y1="2111.127732" x2="6207.792901" y2="2039.922508" stroke="black" stroke-width="6.48"/>
<line x1="6207.792901" y1="2039.922508" x2="6198.892247" y2="2017.892621" stroke="black" stroke-width="6.48"/>
<line x1="6198.892247" y1="2017.892621" x2="6043.801835" y2="2080.553213" stroke="black" stroke-width="6.48"/>
<line x1="6043.801835" y1="2080.553213" x2="5888.218424" y2="1695.470767" stroke="black" stroke-width="6.48"/>
<line x1="5888.218424" y1="1695.470767" x2="6043.308836" y2="1632.810172" stroke="black" stroke-width="6.48"/>
<line x1="6043.308836" y1="1632.810172" x2="6034.05216" y2="1609.899088" stroke="black" stroke-width="6.48"/>
<line x1="6038.021668" y1="1634.946329" x2="6193.605074" y2="2020.028774" stroke="black" stroke-width="6.48"/>
<line x1="6116.516554" y1="1826.690926" x2="5966.713314" y2="1887.215368" stroke="black" stroke-width="6.48"/>
</g>
</svg>
