<?xml version="1.0"?>
<svg xmlns:xlink="http://www.w3.org/1999/xlink" width="6775.2" height="2858.4">
<image x="0" y="0" width="6775.2" height="2858.4" xlink:href="groundfilled-01.png"/>
<g style="stroke-linecap:round">
<line x1="1285.950406" y1="795.178109" x2="1311.346069" y2="795.178109" stroke="black" stroke-width="6.48"/>
<line x1="1311.346069" y1="795.178109" x2="1311.346069" y2="745.625592" stroke="black" stroke-width="6.48"/>
<line x1="1311.346069" y1="745.625592" x2="1285.950406" y2="745.625592" stroke="black" stroke-width="6.48"/>
<line x1="1285.950406" y1="745.625592" x2="1285.950406" y2="795.178109" stroke="black" stroke-width="6.48"/>
<line x1="1559.728062" y1="745.625592" x2="1559.728062" y2="498.48241" stroke="black" stroke-width="6.48"/>
<line x1="1560.347471" y1="796.416923" x2="1585.743134" y2="796.416923" stroke="black" stroke-width="6.48"/>
<line x1="1585.743134" y1="796.416923" x2="1585.743134" y2="746.864406" stroke="black" stroke-width="6.48"/>
<line x1="1585.743134" y1="746.864406" x2="1560.347471" y2="746.864406" stroke="black" stroke-width="6.48"/>
<line x1="1560.347471" y1="746.864406" x2="1560.347471" y2="796.416923" stroke="black" stroke-width="6.48"/>
<path d="m 1311.346069,747.483811 a 248.38199299999997,248.38199299999997 0 0 1 248.38199299999997,-248.38199299999997" fill="none" stroke="black" stroke-width="6.48"/>
<line x1="320.532556" y1="771.34176" x2="320.532556" y2="366.736194" stroke="black" stroke-width="6.48"/>
<line x1="320.532556" y1="366.736194" x2="258.159283" y2="366.736194" stroke="black" stroke-width="6.48"/>
<line x1="258.159283" y1="366.736194" x2="258.159283" y2="771.34176" stroke="black" stroke-width="6.48"/>
<line x1="258.159283" y1="771.34176" x2="320.532556" y2="771.34176" stroke="black" stroke-width="6.48"/>
<line x1="258.979986" y1="733.589518" x2="319.711856" y2="733.589518" stroke="black" stroke-width="6.48"/>
<line x1="258.979986" y1="405.309139" x2="322.173958" y2="405.309139" stroke="black" stroke-width="6.48"/>
<line x1="287.704519" y1="734.410217" x2="287.704519" y2="406.129838" stroke="black" stroke-width="6.48"/>
<line x1="3901.945176" y1="1169.331426" x2="3901.945176" y2="1428.837066" stroke="black" stroke-width="6.48"/>
<line x1="3901.945176" y1="1428.837066" x2="3941.9501" y2="1428.837066" stroke="black" stroke-width="6.48"/>
<line x1="3941.9501" y1="1428.837066" x2="3941.9501" y2="1169.331426" stroke="black" stroke-width="6.48"/>
<line x1="3941.9501" y1="1169.331426" x2="3901.945176" y2="1169.331426" stroke="black" stroke-width="6.48"/>
<line x1="3941.423719" y1="1193.544936" x2="3902.471557" y2="1193.544936" stroke="black" stroke-width="6.48"/>
<line x1="3941.423719" y1="1404.097178" x2="3900.892414" y2="1404.097178" stroke="black" stroke-width="6.48"/>
<line x1="3923.000399" y1="1193.018555" x2="3923.000399" y2="1403.570797" stroke="black" stroke-width="6.48"/>
<line x1="323.923298" y1="1882.957399" x2="323.923298" y2="1457.423957" stroke="black" stroke-width="6.48"/>
<line x1="323.923298" y1="1457.423957" x2="258.323825" y2="1457.423957" stroke="black" stroke-width="6.48"/>
<line x1="258.323825" y1="1457.423957" x2="258.323825" y2="1882.957399" stroke="black" stroke-width="6.48"/>
<line x1="258.323825" y1="1882.957399" x2="323.923298" y2="1882.957399" stroke="black" stroke-width="6.48"/>
<line x1="259.186975" y1="1843.252456" x2="323.060148" y2="1843.252456" stroke="black" stroke-width="6.48"/>
<line x1="259.186975" y1="1497.992054" x2="325.649603" y2="1497.992054" stroke="black" stroke-width="6.48"/>
<line x1="289.397261" y1="1844.115606" x2="289.397261" y2="1498.855205" stroke="black" stroke-width="6.48"/>
<line x1="2747.905531" y1="904.670665" x2="2721.68303" y2="904.670665" stroke="black" stroke-width="6.48"/>
<line x1="2721.68303" y1="904.670665" x2="2721.68303" y2="955.836522" stroke="black" stroke-width="6.48"/>
<line x1="2721.68303" y1="955.836522" x2="2747.905531" y2="955.836522" stroke="black" stroke-width="6.48"/>
<line x1="2747.905531" y1="955.836522" x2="2747.905531" y2="904.670665" stroke="black" stroke-width="6.48"/>
<line x1="2465.214181" y1="955.836522" x2="2465.214181" y2="1211.026223" stroke="black" stroke-width="6.48"/>
<line x1="2464.574609" y1="903.39152" x2="2438.352108" y2="903.39152" stroke="black" stroke-width="6.48"/>
<line x1="2438.352108" y1="903.39152" x2="2438.352108" y2="954.557374" stroke="black" stroke-width="6.48"/>
<line x1="2438.352108" y1="954.557374" x2="2464.574609" y2="954.557374" stroke="black" stroke-width="6.48"/>
<line x1="2464.574609" y1="954.557374" x2="2464.574609" y2="903.39152" stroke="black" stroke-width="6.48"/>
<path d="m 2721.68303,953.917801 a 256.4688490000001,256.4688490000001 0 0 1 -256.4688490000003,256.46884899999986" fill="none" stroke="black" stroke-width="6.48"/>
<line x1="2420.532389" y1="1427.858834" x2="2395.136725" y2="1427.858834" stroke="black" stroke-width="6.48"/>
<line x1="2395.136725" y1="1427.858834" x2="2395.136725" y2="1477.411351" stroke="black" stroke-width="6.48"/>
<line x1="2395.136725" y1="1477.411351" x2="2420.532389" y2="1477.411351" stroke="black" stroke-width="6.48"/>
<line x1="2420.532389" y1="1477.411351" x2="2420.532389" y2="1427.858834" stroke="black" stroke-width="6.48"/>
<line x1="2146.754732" y1="1477.411351" x2="2146.754732" y2="1724.554534" stroke="black" stroke-width="6.48"/>
<line x1="2146.135324" y1="1426.62002" x2="2120.73966" y2="1426.62002" stroke="black" stroke-width="6.48"/>
<line x1="2120.73966" y1="1426.62002" x2="2120.73966" y2="1476.172537" stroke="black" stroke-width="6.48"/>
<line x1="2120.73966" y1="1476.172537" x2="2146.135324" y2="1476.172537" stroke="black" stroke-width="6.48"/>
<line x1="2146.135324" y1="1476.172537" x2="2146.135324" y2="1426.62002" stroke="black" stroke-width="6.48"/>
<path d="m 2395.136725,1475.553132 a 248.38199299999997,248.38199299999997 0 0 1 -248.38199299999997,248.38199299999997" fill="none" stroke="black" stroke-width="6.48"/>
<line x1="593.265935" y1="692.136151" x2="986.097935" y2="692.136151" stroke="black" stroke-width="6.48"/>
<line x1="986.097935" y1="692.136151" x2="986.097935" y2="507.600151" stroke="black" stroke-width="6.48"/>
<line x1="986.097935" y1="507.600151" x2="593.265935" y2="507.600151" stroke="black" stroke-width="6.48"/>
<line x1="593.265935" y1="507.600151" x2="593.265935" y2="692.136151" stroke="black" stroke-width="6.48"/>
<line x1="752.457935" y1="507.600151" x2="752.457935" y2="426.816151" stroke="black" stroke-width="6.48"/>
<line x1="752.457935" y1="426.816151" x2="674.049935" y2="426.816151" stroke="black" stroke-width="6.48"/>
<line x1="674.049935" y1="426.816151" x2="674.049935" y2="507.600151" stroke="black" stroke-width="6.48"/>
<line x1="674.841935" y1="444.240151" x2="752.457935" y2="444.240151" stroke="black" stroke-width="6.48"/>
<line x1="674.049935" y1="773.712151" x2="752.457935" y2="773.712151" stroke="black" stroke-width="6.48"/>
<line x1="752.457935" y1="773.712151" x2="752.457935" y2="692.136151" stroke="black" stroke-width="6.48"/>
<line x1="674.049935" y1="692.136151" x2="674.049935" y2="773.712151" stroke="black" stroke-width="6.48"/>
<line x1="674.841935" y1="756.288151" x2="752.457935" y2="756.288151" stroke="black" stroke-width="6.48"/>
<line x1="903.729935" y1="507.600151" x2="903.729935" y2="426.816151" stroke="black" stroke-width="6.48"/>
<line x1="903.729935" y1="426.816151" x2="825.321935" y2="426.816151" stroke="black" stroke-width="6.48"/>
<line x1="825.321935" y1="426.816151" x2="825.321935" y2="507.600151" stroke="black" stroke-width="6.48"/>
<line x1="825.321935" y1="444.240151" x2="903.729935" y2="444.240151" stroke="black" stroke-width="6.48"/>
<line x1="825.321935" y1="773.712151" x2="903.729935" y2="773.712151" stroke="black" stroke-width="6.48"/>
<line x1="903.729935" y1="773.712151" x2="903.729935" y2="692.136151" stroke="black" stroke-width="6.48"/>
<line x1="825.321935" y1="692.136151" x2="825.321935" y2="773.712151" stroke="black" stroke-width="6.48"/>
<line x1="825.321935" y1="756.288151" x2="903.729935" y2="756.288151" stroke="black" stroke-width="6.48"/>
<line x1="1842.844367" y1="2009.434932" x2="2032.924367" y2="2009.434932" stroke="black" stroke-width="6.48"/>
<line x1="2032.924367" y1="2009.434932" x2="2032.924367" y2="1545.639732" stroke="black" stroke-width="6.48"/>
<line x1="2032.924367" y1="1545.639732" x2="1842.844367" y2="1545.639732" stroke="black" stroke-width="6.48"/>
<line x1="1842.844367" y1="1545.639732" x2="1842.844367" y2="1569.399732" stroke="black" stroke-width="6.48"/>
<line x1="1842.844367" y1="1569.399732" x2="2010.114767" y2="1569.399732" stroke="black" stroke-width="6.48"/>
<line x1="2010.114767" y1="1569.399732" x2="2010.114767" y2="1984.724532" stroke="black" stroke-width="6.48"/>
<line x1="2010.114767" y1="1984.724532" x2="1842.844367" y2="1984.724532" stroke="black" stroke-width="6.48"/>
<line x1="1842.844367" y1="1984.724532" x2="1842.844367" y2="2009.434932" stroke="black" stroke-width="6.48"/>
<line x1="1848.546767" y1="1984.724532" x2="1848.546767" y2="1569.399732" stroke="black" stroke-width="6.48"/>
<line x1="1847.596367" y1="1777.537332" x2="2009.164367" y2="1777.537332" stroke="black" stroke-width="6.48"/>
<line x1="1485.415969" y1="209.267824" x2="1707.693134" y2="209.267824" stroke="black" stroke-width="6.48"/>
<line x1="1707.693134" y1="209.267824" x2="1707.693134" y2="432.000475" stroke="black" stroke-width="6.48"/>
<line x1="1707.693134" y1="432.000475" x2="1485.415969" y2="432.000475" stroke="black" stroke-width="6.48"/>
<line x1="1485.415969" y1="432.000475" x2="1485.415969" y2="209.267824" stroke="black" stroke-width="6.48"/>
<line x1="1484.960483" y1="208.812337" x2="1707.693134" y2="432.000475" stroke="black" stroke-width="6.48"/>
<line x1="1485.415969" y1="431.544989" x2="1707.237648" y2="209.267824" stroke="black" stroke-width="6.48"/>
<line x1="2761.020558" y1="2194.614338" x2="2761.020558" y2="1803.366338" stroke="black" stroke-width="6.48"/>
<line x1="2761.020558" y1="1803.366338" x2="2586.780558" y2="1803.366338" stroke="black" stroke-width="6.48"/>
<line x1="2586.780558" y1="1803.366338" x2="2586.780558" y2="2194.614338" stroke="black" stroke-width="6.48"/>
<line x1="2586.780558" y1="2194.614338" x2="2761.020558" y2="2194.614338" stroke="black" stroke-width="6.48"/>
<line x1="2613.708558" y1="1878.606338" x2="2613.708558" y2="2162.934338" stroke="black" stroke-width="6.48"/>
<line x1="2613.708558" y1="2162.934338" x2="2731.716558" y2="2162.934338" stroke="black" stroke-width="6.48"/>
<line x1="2731.716558" y1="2162.934338" x2="2731.716558" y2="1873.062338" stroke="black" stroke-width="6.48"/>
<path d="m 2613.453134,1879.416911 a 63.3599990854681,63.3599990854681 0 0 1 119.3743300000001,-4.293814000000111" fill="none" stroke="black" stroke-width="6.48"/>
<line x1="2105.528033" y1="1871.172814" x2="2105.528033" y2="2054.916814" stroke="black" stroke-width="6.48"/>
<line x1="2105.528033" y1="2054.916814" x2="2056.424033" y2="2054.916814" stroke="black" stroke-width="6.48"/>
<line x1="2056.424033" y1="1871.172814" x2="2056.424033" y2="2054.916814" stroke="black" stroke-width="6.48"/>
<line x1="2105.528033" y1="1871.172814" x2="2056.424033" y2="1871.172814" stroke="black" stroke-width="6.48"/>
<line x1="2133.248033" y1="1912.752814" x2="2105.528033" y2="1912.752814" stroke="black" stroke-width="6.48"/>
<line x1="2105.528033" y1="2011.752814" x2="2134.832033" y2="2011.752814" stroke="black" stroke-width="6.48"/>
<circle cx="2178.392033" cy="1961.460814" r="66.52800000000002" fill="none" stroke="black" stroke-width="6.48"/>
<circle cx="2178.392033" cy="1961.460814" r="57.02400000000001" fill="none" stroke="black" stroke-width="6.48"/>
<line x1="684.687809" y1="209.425079" x2="955.235009" y2="209.425079" stroke="black" stroke-width="6.48"/>
<line x1="955.235009" y1="209.425079" x2="955.235009" y2="341.372279" stroke="black" stroke-width="6.48"/>
<line x1="684.687809" y1="341.372279" x2="955.235009" y2="341.372279" stroke="black" stroke-width="6.48"/>
<line x1="684.687809" y1="209.425079" x2="684.687809" y2="341.372279" stroke="black" stroke-width="6.48"/>
<line x1="691.340609" y1="216.077879" x2="829.386209" y2="216.077879" stroke="black" stroke-width="6.48"/>
<line x1="829.386209" y1="216.077879" x2="829.386209" y2="334.165079" stroke="black" stroke-width="6.48"/>
<line x1="691.340609" y1="334.165079" x2="829.386209" y2="334.165079" stroke="black" stroke-width="6.48"/>
<line x1="691.340609" y1="216.077879" x2="691.340609" y2="334.165079" stroke="black" stroke-width="6.48"/>
<line x1="843.800609" y1="223.839479" x2="940.820609" y2="223.839479" stroke="black" stroke-width="6.48"/>
<line x1="843.800609" y1="244.352279" x2="940.820609" y2="244.352279" stroke="black" stroke-width="6.48"/>
<line x1="844.355009" y1="265.419479" x2="941.375009" y2="265.419479" stroke="black" stroke-width="6.48"/>
<line x1="844.355009" y1="285.932279" x2="941.375009" y2="285.932279" stroke="black" stroke-width="6.48"/>
<line x1="843.800609" y1="306.445079" x2="940.820609" y2="306.445079" stroke="black" stroke-width="6.48"/>
<line x1="843.800609" y1="326.957879" x2="940.820609" y2="326.957879" stroke="black" stroke-width="6.48"/>
<line x1="744.008609" y1="334.165079" x2="744.008609" y2="320.305079" stroke="black" stroke-width="6.48"/>
<line x1="744.008609" y1="320.305079" x2="778.381409" y2="320.305079" stroke="black" stroke-width="6.48"/>
<line x1="778.381409" y1="320.305079" x2="778.381409" y2="333.610679" stroke="black" stroke-width="6.48"/>
<circle cx="813.863009" cy="231.046679" r="8.316000000000003" fill="none" stroke="black" stroke-width="6.48"/>
<line x1="730.039511" y1="1057.030283" x2="834.140142" y2="975.697952" stroke="black" stroke-width="6.48"/>
<line x1="834.140142" y1="975.697952" x2="842.917014" y2="986.931832" stroke="black" stroke-width="6.48"/>
<line x1="738.816379" y1="1068.264162" x2="842.917014" y2="986.931832" stroke="black" stroke-width="6.48"/>
<line x1="730.039511" y1="1057.030283" x2="738.816379" y2="1068.264162" stroke="black" stroke-width="6.48"/>
<line x1="749.301336" y1="1060.07242" x2="767.112599" y2="1085.957204" stroke="black" stroke-width="6.48"/>
<line x1="832.432057" y1="995.123581" x2="853.824146" y2="1019.416795" stroke="black" stroke-width="6.48"/>
<line x1="1013.824973" y1="1420.259108" x2="1117.925604" y2="1338.926782" stroke="black" stroke-width="6.48"/>
<line x1="1117.925604" y1="1338.926782" x2="1109.733862" y2="1328.441825" stroke="black" stroke-width="6.48"/>
<line x1="1005.633227" y1="1409.774155" x2="1109.733862" y2="1328.441825" stroke="black" stroke-width="6.48"/>
<line x1="1013.824973" y1="1420.259108" x2="1005.633227" y2="1409.774155" stroke="black" stroke-width="6.48"/>
<line x1="1014.199009" y1="1400.669683" x2="993.392042" y2="1377.125392" stroke="black" stroke-width="6.48"/>
<line x1="1097.32973" y1="1335.720845" x2="1079.682264" y2="1308.502004" stroke="black" stroke-width="6.48"/>
<line x1="1064.181884" y1="1004.620604" x2="1052.948002" y2="1013.39748" stroke="black" stroke-width="6.48"/>
<line x1="1052.948002" y1="1013.39748" x2="1134.280332" y2="1117.498115" stroke="black" stroke-width="6.48"/>
<line x1="1145.514211" y1="1108.721239" x2="1134.280332" y2="1117.498115" stroke="black" stroke-width="6.48"/>
<line x1="1064.181884" y1="1004.620604" x2="1145.514211" y2="1108.721239" stroke="black" stroke-width="6.48"/>
<line x1="1125.50346" y1="1106.264232" x2="1101.795368" y2="1128.405244" stroke="black" stroke-width="6.48"/>
<line x1="1061.139748" y1="1023.882433" x2="1034.50603" y2="1042.278818" stroke="black" stroke-width="6.48"/>
<line x1="701.116855" y1="1287.072022" x2="712.350738" y2="1278.295153" stroke="black" stroke-width="6.48"/>
<line x1="712.350738" y1="1278.295153" x2="793.683061" y2="1382.395784" stroke="black" stroke-width="6.48"/>
<line x1="782.449186" y1="1391.172656" x2="793.683061" y2="1382.395784" stroke="black" stroke-width="6.48"/>
<line x1="701.116855" y1="1287.072022" x2="782.449186" y2="1391.172656" stroke="black" stroke-width="6.48"/>
<line x1="784.906193" y1="1371.161905" x2="812.125033" y2="1353.514442" stroke="black" stroke-width="6.48"/>
<line x1="720.54248" y1="1288.78011" x2="744.835694" y2="1267.388017" stroke="black" stroke-width="6.48"/>
<circle cx="923.315533" cy="1197.89663" r="191.98080000000002" fill="none" stroke="black" stroke-width="6.48"/>
<line x1="2044.889399" y1="955.822399" x2="2267.166564" y2="955.822399" stroke="black" stroke-width="6.48"/>
<line x1="2267.166564" y1="955.822399" x2="2267.166564" y2="1178.555051" stroke="black" stroke-width="6.48"/>
<line x1="2267.166564" y1="1178.555051" x2="2044.889399" y2="1178.555051" stroke="black" stroke-width="6.48"/>
<line x1="2044.889399" y1="1178.555051" x2="2044.889399" y2="955.822399" stroke="black" stroke-width="6.48"/>
<line x1="2044.433912" y1="955.366913" x2="2267.166564" y2="1178.555051" stroke="black" stroke-width="6.48"/>
<line x1="2044.889399" y1="1178.099564" x2="2266.711078" y2="955.822399" stroke="black" stroke-width="6.48"/>
<line x1="333.766206" y1="1375.361078" x2="333.766206" y2="949.854546" stroke="black" stroke-width="6.48"/>
<line x1="333.766206" y1="949.854546" x2="257.659348" y2="949.854546" stroke="black" stroke-width="6.48"/>
<line x1="257.659348" y1="949.854546" x2="257.659348" y2="1375.361078" stroke="black" stroke-width="6.48"/>
<line x1="257.659348" y1="1375.361078" x2="333.766206" y2="1375.361078" stroke="black" stroke-width="6.48"/>
<line x1="333.766206" y1="1355.469512" x2="359.711726" y2="1355.469512" stroke="black" stroke-width="6.48"/>
<line x1="359.711726" y1="1355.469512" x2="359.711726" y2="970.610962" stroke="black" stroke-width="6.48"/>
<line x1="333.766206" y1="970.610962" x2="359.711726" y2="970.610962" stroke="black" stroke-width="6.48"/>
<line x1="3874.406537" y1="1514.726719" x2="3874.406537" y2="1940.260162" stroke="black" stroke-width="6.48"/>
<line x1="3874.406537" y1="1940.260162" x2="3940.00601" y2="1940.260162" stroke="black" stroke-width="6.48"/>
<line x1="3940.00601" y1="1940.260162" x2="3940.00601" y2="1514.726719" stroke="black" stroke-width="6.48"/>
<line x1="3940.00601" y1="1514.726719" x2="3874.406537" y2="1514.726719" stroke="black" stroke-width="6.48"/>
<line x1="3939.14286" y1="1554.431663" x2="3875.269687" y2="1554.431663" stroke="black" stroke-width="6.48"/>
<line x1="3939.14286" y1="1899.692064" x2="3872.680232" y2="1899.692064" stroke="black" stroke-width="6.48"/>
<line x1="3908.932574" y1="1553.568512" x2="3908.932574" y2="1898.828914" stroke="black" stroke-width="6.48"/>
<line x1="5022.719593" y1="1586.529522" x2="4850.513377" y2="1939.604584" stroke="black" stroke-width="6.48"/>
<line x1="4850.513377" y1="1939.604584" x2="5016.373232" y2="2020.499842" stroke="black" stroke-width="6.48"/>
<line x1="5016.373232" y1="2020.499842" x2="5188.579448" y2="1667.424776" stroke="black" stroke-width="6.48"/>
<line x1="5188.579448" y1="1667.424776" x2="5022.719593" y2="1586.529522" stroke="black" stroke-width="6.48"/>
<line x1="5118.794269" y1="1810.505603" x2="5191.40245" y2="1845.918976" stroke="black" stroke-width="6.48"/>
<line x1="5191.40245" y1="1845.918976" x2="5225.774252" y2="1775.44633" stroke="black" stroke-width="6.48"/>
<line x1="5225.774252" y1="1775.44633" x2="5153.166076" y2="1740.032957" stroke="black" stroke-width="6.48"/>
<line x1="5209.766474" y1="1768.519998" x2="5175.741863" y2="1838.280794" stroke="black" stroke-width="6.48"/>
<line x1="4913.986194" y1="1623.377135" x2="4879.614388" y2="1693.849777" stroke="black" stroke-width="6.48"/>
<line x1="4879.614388" y1="1693.849777" x2="4952.93441" y2="1729.610345" stroke="black" stroke-width="6.48"/>
<line x1="4987.306217" y1="1659.137702" x2="4913.986194" y2="1623.377135" stroke="black" stroke-width="6.48"/>
<line x1="4929.29959" y1="1631.727158" x2="4895.274978" y2="1701.487958" stroke="black" stroke-width="6.48"/>
<line x1="5052.480988" y1="1946.467976" x2="5125.089168" y2="1981.881349" stroke="black" stroke-width="6.48"/>
<line x1="5125.089168" y1="1981.881349" x2="5159.460971" y2="1911.408707" stroke="black" stroke-width="6.48"/>
<line x1="5159.460971" y1="1911.408707" x2="5086.852794" y2="1875.995334" stroke="black" stroke-width="6.48"/>
<line x1="5143.800388" y1="1903.770526" x2="5109.428581" y2="1974.243172" stroke="black" stroke-width="6.48"/>
<line x1="4847.672912" y1="1759.339505" x2="4813.301106" y2="1829.812154" stroke="black" stroke-width="6.48"/>
<line x1="4813.301106" y1="1829.812154" x2="4886.621132" y2="1865.572715" stroke="black" stroke-width="6.48"/>
<line x1="4920.992935" y1="1795.100072" x2="4847.672912" y2="1759.339505" stroke="black" stroke-width="6.48"/>
<line x1="4863.333503" y1="1766.977686" x2="4828.961696" y2="1837.450332" stroke="black" stroke-width="6.48"/>
<line x1="3213.962507" y1="1074.678548" x2="3423.32771" y2="1074.678548" stroke="black" stroke-width="6.48"/>
<line x1="3423.32771" y1="1074.678548" x2="3423.32771" y2="743.464145" stroke="black" stroke-width="6.48"/>
<line x1="3423.32771" y1="743.464145" x2="3213.962507" y2="743.464145" stroke="black" stroke-width="6.48"/>
<line x1="3213.962507" y1="743.464145" x2="3213.962507" y2="1074.678548" stroke="black" stroke-width="6.48"/>
<line x1="3213.289307" y1="802.705745" x2="3424.000907" y2="802.705745" stroke="black" stroke-width="6.48"/>
<line x1="3424.000907" y1="802.705745" x2="3214.635707" y2="852.522548" stroke="black" stroke-width="6.48"/>
<line x1="3214.635707" y1="852.522548" x2="3246.27611" y2="898.973348" stroke="black" stroke-width="6.48"/>
<line x1="3246.27611" y1="898.973348" x2="3424.000907" y2="802.032548" stroke="black" stroke-width="6.48"/>
<line x1="3437.677418" y1="1203.022012" x2="3659.954584" y2="1203.022012" stroke="black" stroke-width="6.48"/>
<line x1="3659.954584" y1="1203.022012" x2="3659.954584" y2="1425.754663" stroke="black" stroke-width="6.48"/>
<line x1="3659.954584" y1="1425.754663" x2="3437.677418" y2="1425.754663" stroke="black" stroke-width="6.48"/>
<line x1="3437.677418" y1="1425.754663" x2="3437.677418" y2="1203.022012" stroke="black" stroke-width="6.48"/>
<line x1="3437.221932" y1="1202.566525" x2="3659.954584" y2="1425.754663" stroke="black" stroke-width="6.48"/>
<line x1="3437.677418" y1="1425.299177" x2="3659.499097" y2="1203.022012" stroke="black" stroke-width="6.48"/>
<line x1="2804.16708" y1="1127.69402" x2="2804.16708" y2="1153.148746" stroke="black" stroke-width="6.48"/>
<line x1="2804.16708" y1="1153.148746" x2="2853.834836" y2="1153.148746" stroke="black" stroke-width="6.48"/>
<line x1="2853.834836" y1="1153.148746" x2="2853.834836" y2="1127.69402" stroke="black" stroke-width="6.48"/>
<line x1="2853.834836" y1="1127.69402" x2="2804.16708" y2="1127.69402" stroke="black" stroke-width="6.48"/>
<line x1="2853.834836" y1="1402.108373" x2="3101.55277" y2="1402.108373" stroke="black" stroke-width="6.48"/>
<line x1="2802.925386" y1="1402.729218" x2="2802.925386" y2="1428.183943" stroke="black" stroke-width="6.48"/>
<line x1="2802.925386" y1="1428.183943" x2="2852.593142" y2="1428.183943" stroke="black" stroke-width="6.48"/>
<line x1="2852.593142" y1="1428.183943" x2="2852.593142" y2="1402.729218" stroke="black" stroke-width="6.48"/>
<line x1="2852.593142" y1="1402.729218" x2="2802.925386" y2="1402.729218" stroke="black" stroke-width="6.48"/>
<path d="m 2851.972294,1153.148746 a 248.95962699999984,248.95962699999984 0 0 1 248.95962699999973,248.95962699999995" fill="none" stroke="black" stroke-width="6.48"/>
<line x1="2913.284326" y1="2000.589113" x2="2842.07918" y2="2176.82825" stroke="black" stroke-width="6.48"/>
<line x1="2842.07918" y1="2176.82825" x2="3272.102676" y2="2350.568801" stroke="black" stroke-width="6.48"/>
<line x1="3272.102676" y1="2350.568801" x2="3343.307821" y2="2174.329663" stroke="black" stroke-width="6.48"/>
<line x1="3343.307821" y1="2174.329663" x2="3321.277931" y2="2165.42902" stroke="black" stroke-width="6.48"/>
<line x1="3321.277931" y1="2165.42902" x2="3258.617404" y2="2320.519464" stroke="black" stroke-width="6.48"/>
<line x1="3258.617404" y1="2320.519464" x2="2873.534886" y2="2164.936223" stroke="black" stroke-width="6.48"/>
<line x1="2873.534886" y1="2164.936223" x2="2936.195413" y2="2009.845782" stroke="black" stroke-width="6.48"/>
<line x1="2936.195413" y1="2009.845782" x2="2913.284326" y2="2000.589113" stroke="black" stroke-width="6.48"/>
<line x1="2934.05926" y1="2015.132954" x2="3319.141777" y2="2170.716196" stroke="black" stroke-width="6.48"/>
<line x1="3126.515944" y1="2091.865367" x2="3065.991574" y2="2241.668635" stroke="black" stroke-width="6.48"/>
<line x1="3404.811071" y1="1721.673259" x2="3627.725346" y2="1657.753618" stroke="black" stroke-width="6.48"/>
<line x1="3627.725346" y1="1657.753618" x2="3691.77597" y2="1881.12469" stroke="black" stroke-width="6.48"/>
<line x1="3691.77597" y1="1881.12469" x2="3468.861695" y2="1945.044328" stroke="black" stroke-width="6.48"/>
<line x1="3468.861695" y1="1945.044328" x2="3404.811071" y2="1721.673259" stroke="black" stroke-width="6.48"/>
<line x1="3404.223295" y1="1721.347448" x2="3691.77597" y2="1881.12469" stroke="black" stroke-width="6.48"/>
<line x1="3468.730709" y1="1944.587538" x2="3627.268556" y2="1657.8846" stroke="black" stroke-width="6.48"/>
<line x1="3100.358268" y1="1589.315879" x2="3083.535454" y2="1615.220741" stroke="black" stroke-width="6.48"/>
<line x1="3083.535454" y1="1615.220741" x2="3259.289945" y2="1729.357034" stroke="black" stroke-width="6.48"/>
<line x1="3259.289945" y1="1729.357034" x2="3276.112752" y2="1703.45218" stroke="black" stroke-width="6.48"/>
<line x1="3276.112752" y1="1703.45218" x2="3100.358268" y2="1589.315879" stroke="black" stroke-width="6.48"/>
<line x1="2989.327716" y1="1760.287936" x2="2972.504909" y2="1786.19279" stroke="black" stroke-width="6.48"/>
<line x1="2972.504909" y1="1786.19279" x2="3148.259393" y2="1900.329088" stroke="black" stroke-width="6.48"/>
<line x1="3148.259393" y1="1900.329088" x2="3165.082207" y2="1874.424233" stroke="black" stroke-width="6.48"/>
<line x1="3165.082207" y1="1874.424233" x2="2989.327716" y2="1760.287936" stroke="black" stroke-width="6.48"/>
<line x1="3083.794268" y1="1614.822199" x2="2989.327716" y2="1760.287936" stroke="black" stroke-width="6.48"/>
<line x1="3259.010495" y1="1728.04234" x2="3266.436492" y2="1764.595055" stroke="black" stroke-width="6.48"/>
<line x1="3200.439312" y1="1866.221798" x2="3164.02632" y2="1874.305145" stroke="black" stroke-width="6.48"/>
<line x1="3267.47174" y1="1763.00091" x2="3199.40406" y2="1867.815943" stroke="black" stroke-width="6.48"/>
<line x1="3120.997864" y1="1639.549109" x2="3026.531315" y2="1785.014842" stroke="black" stroke-width="6.48"/>
<line x1="3755.94377" y1="1170.151394" x2="3767.01304" y2="1141.314962" stroke="black" stroke-width="6.48"/>
<line x1="3767.01304" y1="1141.314962" x2="3571.368937" y2="1066.214228" stroke="black" stroke-width="6.48"/>
<line x1="3571.368937" y1="1066.214228" x2="3560.299668" y2="1095.050664" stroke="black" stroke-width="6.48"/>
<line x1="3560.299668" y1="1095.050664" x2="3755.94377" y2="1170.151394" stroke="black" stroke-width="6.48"/>
<line x1="3829.000946" y1="979.830943" x2="3840.070216" y2="950.994511" stroke="black" stroke-width="6.48"/>
<line x1="3840.070216" y1="950.994511" x2="3644.426113" y2="875.893777" stroke="black" stroke-width="6.48"/>
<line x1="3644.426113" y1="875.893777" x2="3633.356844" y2="904.730206" stroke="black" stroke-width="6.48"/>
<line x1="3633.356844" y1="904.730206" x2="3829.000946" y2="979.830943" stroke="black" stroke-width="6.48"/>
<line x1="3766.842742" y1="1141.758601" x2="3829.000946" y2="979.830943" stroke="black" stroke-width="6.48"/>
<line x1="3571.915619" y1="1067.442098" x2="3557.052162" y2="1033.232098" stroke="black" stroke-width="6.48"/>
<line x1="3600.477756" y1="920.104553" x2="3634.414416" y2="904.627163" stroke="black" stroke-width="6.48"/>
<line x1="3556.370977" y1="1035.006642" x2="3601.158944" y2="918.330005" stroke="black" stroke-width="6.48"/>
<line x1="3725.311122" y1="1125.307098" x2="3787.469327" y2="963.37944" stroke="black" stroke-width="6.48"/>
<line x1="2342.527862" y1="2050.556512" x2="2573.155098" y2="2074.796467" stroke="black" stroke-width="6.48"/>
<line x1="2573.155098" y1="2074.796467" x2="2548.86547" y2="2305.8963" stroke="black" stroke-width="6.48"/>
<line x1="2548.86547" y1="2305.8963" x2="2318.238234" y2="2281.656341" stroke="black" stroke-width="6.48"/>
<line x1="2318.238234" y1="2281.656341" x2="2342.527862" y2="2050.556512" stroke="black" stroke-width="6.48"/>
<line x1="2342.104938" y1="2050.034242" x2="2548.86547" y2="2305.8963" stroke="black" stroke-width="6.48"/>
<line x1="2318.287907" y1="2281.183744" x2="2572.682501" y2="2074.746794" stroke="black" stroke-width="6.48"/>
<line x1="1264.229863" y1="1982.267024" x2="1409.47456" y2="2132.672375" stroke="black" stroke-width="6.48"/>
<line x1="1409.47456" y1="2132.672375" x2="1576.28777" y2="1971.582811" stroke="black" stroke-width="6.48"/>
<line x1="1576.28777" y1="1971.582811" x2="1431.043078" y2="1821.177454" stroke="black" stroke-width="6.48"/>
<line x1="1431.043078" y1="1821.177454" x2="1264.229863" y2="1982.267024" stroke="black" stroke-width="6.48"/>
<line x1="1287.474329" y1="1959.820114" x2="1432.719022" y2="2110.225471" stroke="black" stroke-width="6.48"/>
<line x1="1003.011361" y1="211.357962" x2="1396.255234" y2="211.357962" stroke="black" stroke-width="6.48"/>
<line x1="1400.21064" y1="210.36168" x2="1400.21064" y2="346.430455" stroke="black" stroke-width="6.48"/>
<line x1="1003.47575" y1="347.581962" x2="1400.515981" y2="347.581962" stroke="black" stroke-width="6.48"/>
<line x1="1004.21064" y1="212.052712" x2="1004.21064" y2="347.316768" stroke="black" stroke-width="6.48"/>
<line x1="1014.50664" y1="222.445962" x2="1138.05864" y2="222.445962" stroke="black" stroke-width="6.48"/>
<line x1="1138.05864" y1="222.445962" x2="1138.05864" y2="336.493962" stroke="black" stroke-width="6.48"/>
<line x1="1014.50664" y1="336.493962" x2="1138.05864" y2="336.493962" stroke="black" stroke-width="6.48"/>
<line x1="1014.50664" y1="222.445962" x2="1014.50664" y2="336.493962" stroke="black" stroke-width="6.48"/>
<line x1="1157.06664" y1="229.573962" x2="1244.18664" y2="229.573962" stroke="black" stroke-width="6.48"/>
<line x1="1157.06664" y1="249.373962" x2="1244.18664" y2="249.373962" stroke="black" stroke-width="6.48"/>
<line x1="1157.85864" y1="269.965962" x2="1244.18664" y2="269.965962" stroke="black" stroke-width="6.48"/>
<line x1="1157.85864" y1="289.765962" x2="1244.18664" y2="289.765962" stroke="black" stroke-width="6.48"/>
<line x1="1157.06664" y1="309.565962" x2="1244.18664" y2="309.565962" stroke="black" stroke-width="6.48"/>
<line x1="1157.06664" y1="329.365962" x2="1244.18664" y2="329.365962" stroke="black" stroke-width="6.48"/>
<line x1="1062.02664" y1="335.701962" x2="1062.02664" y2="322.237962" stroke="black" stroke-width="6.48"/>
<line x1="1062.02664" y1="322.237962" x2="1092.12264" y2="322.237962" stroke="black" stroke-width="6.48"/>
<line x1="1092.12264" y1="322.237962" x2="1092.12264" y2="334.909962" stroke="black" stroke-width="6.48"/>
<line x1="1264.77864" y1="222.445962" x2="1388.33064" y2="222.445962" stroke="black" stroke-width="6.48"/>
<line x1="1388.33064" y1="222.445962" x2="1388.33064" y2="336.493962" stroke="black" stroke-width="6.48"/>
<line x1="1264.77864" y1="336.493962" x2="1388.33064" y2="336.493962" stroke="black" stroke-width="6.48"/>
<line x1="1264.77864" y1="222.445962" x2="1264.77864" y2="336.493962" stroke="black" stroke-width="6.48"/>
<line x1="1312.29864" y1="336.493962" x2="1312.29864" y2="323.029962" stroke="black" stroke-width="6.48"/>
<line x1="1312.29864" y1="323.029962" x2="1342.39464" y2="323.029962" stroke="black" stroke-width="6.48"/>
<line x1="1342.39464" y1="323.029962" x2="1342.39464" y2="335.701962" stroke="black" stroke-width="6.48"/>
<circle cx="1123.80264" cy="236.701962" r="7.128000000000001" fill="none" stroke="black" stroke-width="6.48"/>
<circle cx="1374.07464" cy="237.493962" r="7.128000000000001" fill="none" stroke="black" stroke-width="6.48"/>
</g>
</svg>
