<?xml version="1.0"?>
<svg xmlns:xlink="http://www.w3.org/1999/xlink" width="6775.2" height="2858.4">
<image x="0" y="0" width="6775.2" height="2858.4" xlink:href="groundfilled-01.png"/>
<g style="stroke-linecap:round">
<line x1="1285.950406" y1="795.178109" x2="1311.346069" y2="795.178109" stroke="black" stroke-width="6.48"/>
<line x1="1311.346069" y1="795.178109" x2="1311.346069" y2="745.625592" stroke="black" stroke-width="6.48"/>
<line x1="1311.346069" y1="745.625592" x2="1285.950406" y2="745.625592" stroke="black" stroke-width="6.48"/>
<line x1="1285.950406" y1="745.625592" x2="1285.950406" y2="795.178109" stroke="black" stroke-width="6.48"/>
<line x1="1559.728062" y1="745.625592" x2="1559.728062" y2="498.48241" stroke="black" stroke-width="6.48"/>
<line x1="1560.347471" y1="796.416923" x2="1585.743134" y2="796.416923" stroke="black" stroke-width="6.48"/>
<line x1="1585.743134" y1="796.416923" x2="1585.743134" y2="746.864406" stroke="black" stroke-width="6.48"/>
<line x1="1585.743134" y1="746.864406" x2="1560.347471" y2="746.864406" stroke="black" stroke-width="6.48"/>
<line x1="1560.347471" y1="746.864406" x2="1560.347471" y2="796.416923" stroke="black" stroke-width="6.48"/>
<path d="m 1311.346069,747.483811 a 248.38199299999997,248.38199299999997 0 0 1 248.38199299999997,-248.38199299999997" fill="none" stroke="black" stroke-width="6.48"/>
<line x1="330.523178" y1="771.328966" x2="330.523178" y2="366.748985" stroke="black" stroke-width="6.48"/>
<line x1="330.523178" y1="366.748985" x2="258.15928" y2="366.748985" stroke="black" stroke-width="6.48"/>
<line x1="258.15928" y1="366.748985" x2="258.15928" y2="771.328966" stroke="black" stroke-width="6.48"/>
<line x1="258.15928" y1="771.328966" x2="330.523178" y2="771.328966" stroke="black" stroke-width="6.48"/>
<line x1="330.523178" y1="752.415674" x2="355.19269" y2="752.415674" stroke="black" stroke-width="6.48"/>
<line x1="355.19269" y1="752.415674" x2="355.19269" y2="386.484595" stroke="black" stroke-width="6.48"/>
<line x1="330.523178" y1="386.484595" x2="355.19269" y2="386.484595" stroke="black" stroke-width="6.48"/>
<line x1="3901.945176" y1="1169.331426" x2="3901.945176" y2="1428.837066" stroke="black" stroke-width="6.48"/>
<line x1="3901.945176" y1="1428.837066" x2="3941.9501" y2="1428.837066" stroke="black" stroke-width="6.48"/>
<line x1="3941.9501" y1="1428.837066" x2="3941.9501" y2="1169.331426" stroke="black" stroke-width="6.48"/>
<line x1="3941.9501" y1="1169.331426" x2="3901.945176" y2="1169.331426" stroke="black" stroke-width="6.48"/>
<line x1="3941.423719" y1="1193.544936" x2="3902.471557" y2="1193.544936" stroke="black" stroke-width="6.48"/>
<line x1="3941.423719" y1="1404.097178" x2="3900.892414" y2="1404.097178" stroke="black" stroke-width="6.48"/>
<line x1="3923.000399" y1="1193.018555" x2="3923.000399" y2="1403.570797" stroke="black" stroke-width="6.48"/>
<line x1="334.430687" y1="1882.943946" x2="334.430687" y2="1457.437414" stroke="black" stroke-width="6.48"/>
<line x1="334.430687" y1="1457.437414" x2="258.323828" y2="1457.437414" stroke="black" stroke-width="6.48"/>
<line x1="258.323828" y1="1457.437414" x2="258.323828" y2="1882.943946" stroke="black" stroke-width="6.48"/>
<line x1="258.323828" y1="1882.943946" x2="334.430687" y2="1882.943946" stroke="black" stroke-width="6.48"/>
<line x1="334.430687" y1="1863.05238" x2="360.376207" y2="1863.05238" stroke="black" stroke-width="6.48"/>
<line x1="360.376207" y1="1863.05238" x2="360.376207" y2="1478.193829" stroke="black" stroke-width="6.48"/>
<line x1="334.430687" y1="1478.193829" x2="360.376207" y2="1478.193829" stroke="black" stroke-width="6.48"/>
<line x1="2747.905531" y1="904.670665" x2="2721.68303" y2="904.670665" stroke="black" stroke-width="6.48"/>
<line x1="2721.68303" y1="904.670665" x2="2721.68303" y2="955.836522" stroke="black" stroke-width="6.48"/>
<line x1="2721.68303" y1="955.836522" x2="2747.905531" y2="955.836522" stroke="black" stroke-width="6.48"/>
<line x1="2747.905531" y1="955.836522" x2="2747.905531" y2="904.670665" stroke="black" stroke-width="6.48"/>
<line x1="2465.214181" y1="955.836522" x2="2465.214181" y2="1211.026223" stroke="black" stroke-width="6.48"/>
<line x1="2464.574609" y1="903.39152" x2="2438.352108" y2="903.39152" stroke="black" stroke-width="6.48"/>
<line x1="2438.352108" y1="903.39152" x2="2438.352108" y2="954.557374" stroke="black" stroke-width="6.48"/>
<line x1="2438.352108" y1="954.557374" x2="2464.574609" y2="954.557374" stroke="black" stroke-width="6.48"/>
<line x1="2464.574609" y1="954.557374" x2="2464.574609" y2="903.39152" stroke="black" stroke-width="6.48"/>
<path d="m 2721.68303,953.917801 a 256.4688490000001,256.4688490000001 0 0 1 -256.4688490000003,256.46884899999986" fill="none" stroke="black" stroke-width="6.48"/>
<line x1="2420.532389" y1="1427.858834" x2="2395.136725" y2="1427.858834" stroke="black" stroke-width="6.48"/>
<line x1="2395.136725" y1="1427.858834" x2="2395.136725" y2="1477.411351" stroke="black" stroke-width="6.48"/>
<line x1="2395.136725" y1="1477.411351" x2="2420.532389" y2="1477.411351" stroke="black" stroke-width="6.48"/>
<line x1="2420.532389" y1="1477.411351" x2="2420.532389" y2="1427.858834" stroke="black" stroke-width="6.48"/>
<line x1="2146.754732" y1="1477.411351" x2="2146.754732" y2="1724.554534" stroke="black" stroke-width="6.48"/>
<line x1="2146.135324" y1="1426.62002" x2="2120.73966" y2="1426.62002" stroke="black" stroke-width="6.48"/>
<line x1="2120.73966" y1="1426.62002" x2="2120.73966" y2="1476.172537" stroke="black" stroke-width="6.48"/>
<line x1="2120.73966" y1="1476.172537" x2="2146.135324" y2="1476.172537" stroke="black" stroke-width="6.48"/>
<line x1="2146.135324" y1="1476.172537" x2="2146.135324" y2="1426.62002" stroke="black" stroke-width="6.48"/>
<path d="m 2395.136725,1475.553132 a 248.38199299999997,248.38199299999997 0 0 1 -248.38199299999997,248.38199299999997" fill="none" stroke="black" stroke-width="6.48"/>
<line x1="418.472629" y1="692.136151" x2="811.304629" y2="692.136151" stroke="black" stroke-width="6.48"/>
<line x1="811.304629" y1="692.136151" x2="811.304629" y2="507.600151" stroke="black" stroke-width="6.48"/>
<line x1="811.304629" y1="507.600151" x2="418.472629" y2="507.600151" stroke="black" stroke-width="6.48"/>
<line x1="418.472629" y1="507.600151" x2="418.472629" y2="692.136151" stroke="black" stroke-width="6.48"/>
<line x1="577.664629" y1="507.600151" x2="577.664629" y2="426.816151" stroke="black" stroke-width="6.48"/>
<line x1="577.664629" y1="426.816151" x2="499.256629" y2="426.816151" stroke="black" stroke-width="6.48"/>
<line x1="499.256629" y1="426.816151" x2="499.256629" y2="507.600151" stroke="black" stroke-width="6.48"/>
<line x1="500.048629" y1="444.240151" x2="577.664629" y2="444.240151" stroke="black" stroke-width="6.48"/>
<line x1="499.256629" y1="773.712151" x2="577.664629" y2="773.712151" stroke="black" stroke-width="6.48"/>
<line x1="577.664629" y1="773.712151" x2="577.664629" y2="692.136151" stroke="black" stroke-width="6.48"/>
<line x1="499.256629" y1="692.136151" x2="499.256629" y2="773.712151" stroke="black" stroke-width="6.48"/>
<line x1="500.048629" y1="756.288151" x2="577.664629" y2="756.288151" stroke="black" stroke-width="6.48"/>
<line x1="728.936629" y1="507.600151" x2="728.936629" y2="426.816151" stroke="black" stroke-width="6.48"/>
<line x1="728.936629" y1="426.816151" x2="650.528629" y2="426.816151" stroke="black" stroke-width="6.48"/>
<line x1="650.528629" y1="426.816151" x2="650.528629" y2="507.600151" stroke="black" stroke-width="6.48"/>
<line x1="650.528629" y1="444.240151" x2="728.936629" y2="444.240151" stroke="black" stroke-width="6.48"/>
<line x1="650.528629" y1="773.712151" x2="728.936629" y2="773.712151" stroke="black" stroke-width="6.48"/>
<line x1="728.936629" y1="773.712151" x2="728.936629" y2="692.136151" stroke="black" stroke-width="6.48"/>
<line x1="650.528629" y1="692.136151" x2="650.528629" y2="773.712151" stroke="black" stroke-width="6.48"/>
<line x1="650.528629" y1="756.288151" x2="728.936629" y2="756.288151" stroke="black" stroke-width="6.48"/>
<line x1="2032.924367" y1="2107.766815" x2="2032.924367" y2="1898.678815" stroke="black" stroke-width="6.48"/>
<line x1="2032.924367" y1="1898.678815" x2="1801.026767" y2="1898.678815" stroke="black" stroke-width="6.48"/>
<line x1="1801.026767" y1="1898.678815" x2="1801.026767" y2="2107.766815" stroke="black" stroke-width="6.48"/>
<line x1="1801.026767" y1="2107.766815" x2="2032.924367" y2="2107.766815" stroke="black" stroke-width="6.48"/>
<line x1="2000.610767" y1="2107.766815" x2="2000.610767" y2="1898.678815" stroke="black" stroke-width="6.48"/>
<line x1="1485.415969" y1="209.267824" x2="1707.693134" y2="209.267824" stroke="black" stroke-width="6.48"/>
<line x1="1707.693134" y1="209.267824" x2="1707.693134" y2="432.000475" stroke="black" stroke-width="6.48"/>
<line x1="1707.693134" y1="432.000475" x2="1485.415969" y2="432.000475" stroke="black" stroke-width="6.48"/>
<line x1="1485.415969" y1="432.000475" x2="1485.415969" y2="209.267824" stroke="black" stroke-width="6.48"/>
<line x1="1484.960483" y1="208.812337" x2="1707.693134" y2="432.000475" stroke="black" stroke-width="6.48"/>
<line x1="1485.415969" y1="431.544989" x2="1707.237648" y2="209.267824" stroke="black" stroke-width="6.48"/>
<line x1="2586.780558" y1="1803.366338" x2="2586.780558" y2="2194.614338" stroke="black" stroke-width="6.48"/>
<line x1="2586.780558" y1="2194.614338" x2="2761.020558" y2="2194.614338" stroke="black" stroke-width="6.48"/>
<line x1="2761.020558" y1="2194.614338" x2="2761.020558" y2="1803.366338" stroke="black" stroke-width="6.48"/>
<line x1="2761.020558" y1="1803.366338" x2="2586.780558" y2="1803.366338" stroke="black" stroke-width="6.48"/>
<line x1="2734.092558" y1="2119.374338" x2="2734.092558" y2="1835.046338" stroke="black" stroke-width="6.48"/>
<line x1="2734.092558" y1="1835.046338" x2="2616.084558" y2="1835.046338" stroke="black" stroke-width="6.48"/>
<line x1="2616.084558" y1="1835.046338" x2="2616.084558" y2="2124.918338" stroke="black" stroke-width="6.48"/>
<path d="m 2734.347982,2118.563766 a 63.35999941905905,63.35999941905905 0 0 1 -119.37432999999965,4.2938139999996565" fill="none" stroke="black" stroke-width="6.48"/>
<line x1="2105.65165" y1="1886.748235" x2="2105.65165" y2="2070.492235" stroke="black" stroke-width="6.48"/>
<line x1="2105.65165" y1="2070.492235" x2="2056.54765" y2="2070.492235" stroke="black" stroke-width="6.48"/>
<line x1="2056.54765" y1="1886.748235" x2="2056.54765" y2="2070.492235" stroke="black" stroke-width="6.48"/>
<line x1="2105.65165" y1="1886.748235" x2="2056.54765" y2="1886.748235" stroke="black" stroke-width="6.48"/>
<line x1="2133.37165" y1="1928.328235" x2="2105.65165" y2="1928.328235" stroke="black" stroke-width="6.48"/>
<line x1="2105.65165" y1="2027.328235" x2="2134.95565" y2="2027.328235" stroke="black" stroke-width="6.48"/>
<circle cx="2178.51565" cy="1977.036235" r="66.52800000000002" fill="none" stroke="black" stroke-width="6.48"/>
<circle cx="2178.51565" cy="1977.036235" r="57.02400000000001" fill="none" stroke="black" stroke-width="6.48"/>
<line x1="683.019857" y1="210.575588" x2="1076.263729" y2="210.575588" stroke="black" stroke-width="6.48"/>
<line x1="1080.219136" y1="209.579306" x2="1080.219136" y2="345.648082" stroke="black" stroke-width="6.48"/>
<line x1="683.484246" y1="346.799588" x2="1080.524477" y2="346.799588" stroke="black" stroke-width="6.48"/>
<line x1="684.219136" y1="211.270338" x2="684.219136" y2="346.534394" stroke="black" stroke-width="6.48"/>
<line x1="694.515136" y1="221.663588" x2="818.067136" y2="221.663588" stroke="black" stroke-width="6.48"/>
<line x1="818.067136" y1="221.663588" x2="818.067136" y2="335.711588" stroke="black" stroke-width="6.48"/>
<line x1="694.515136" y1="335.711588" x2="818.067136" y2="335.711588" stroke="black" stroke-width="6.48"/>
<line x1="694.515136" y1="221.663588" x2="694.515136" y2="335.711588" stroke="black" stroke-width="6.48"/>
<line x1="837.075136" y1="228.791588" x2="924.195136" y2="228.791588" stroke="black" stroke-width="6.48"/>
<line x1="837.075136" y1="248.591588" x2="924.195136" y2="248.591588" stroke="black" stroke-width="6.48"/>
<line x1="837.867136" y1="269.183588" x2="924.195136" y2="269.183588" stroke="black" stroke-width="6.48"/>
<line x1="837.867136" y1="288.983588" x2="924.195136" y2="288.983588" stroke="black" stroke-width="6.48"/>
<line x1="837.075136" y1="308.783588" x2="924.195136" y2="308.783588" stroke="black" stroke-width="6.48"/>
<line x1="837.075136" y1="328.583588" x2="924.195136" y2="328.583588" stroke="black" stroke-width="6.48"/>
<line x1="742.035136" y1="334.919588" x2="742.035136" y2="321.455588" stroke="black" stroke-width="6.48"/>
<line x1="742.035136" y1="321.455588" x2="772.131136" y2="321.455588" stroke="black" stroke-width="6.48"/>
<line x1="772.131136" y1="321.455588" x2="772.131136" y2="334.127588" stroke="black" stroke-width="6.48"/>
<line x1="944.787136" y1="221.663588" x2="1068.339136" y2="221.663588" stroke="black" stroke-width="6.48"/>
<line x1="1068.339136" y1="221.663588" x2="1068.339136" y2="335.711588" stroke="black" stroke-width="6.48"/>
<line x1="944.787136" y1="335.711588" x2="1068.339136" y2="335.711588" stroke="black" stroke-width="6.48"/>
<line x1="944.787136" y1="221.663588" x2="944.787136" y2="335.711588" stroke="black" stroke-width="6.48"/>
<line x1="992.307136" y1="335.711588" x2="992.307136" y2="322.247588" stroke="black" stroke-width="6.48"/>
<line x1="992.307136" y1="322.247588" x2="1022.403136" y2="322.247588" stroke="black" stroke-width="6.48"/>
<line x1="1022.403136" y1="322.247588" x2="1022.403136" y2="334.919588" stroke="black" stroke-width="6.48"/>
<circle cx="803.811136" cy="235.919588" r="7.128000000000001" fill="none" stroke="black" stroke-width="6.48"/>
<circle cx="1054.083136" cy="236.711588" r="7.128000000000001" fill="none" stroke="black" stroke-width="6.48"/>
<line x1="1235.512231" y1="1141.068218" x2="1301.565031" y2="1255.47502" stroke="black" stroke-width="6.48"/>
<line x1="1301.565031" y1="1255.47502" x2="1289.218968" y2="1262.60302" stroke="black" stroke-width="6.48"/>
<line x1="1223.166168" y1="1148.196218" x2="1289.218968" y2="1262.60302" stroke="black" stroke-width="6.48"/>
<line x1="1235.512231" y1="1141.068218" x2="1223.166168" y2="1148.196218" stroke="black" stroke-width="6.48"/>
<line x1="1229.818968" y1="1159.719203" x2="1201.707241" y2="1173.754663" stroke="black" stroke-width="6.48"/>
<line x1="1282.566168" y1="1251.080035" x2="1255.532173" y2="1268.882975" stroke="black" stroke-width="6.48"/>
<line x1="836.323016" y1="1371.540218" x2="902.375816" y2="1485.94702" stroke="black" stroke-width="6.48"/>
<line x1="902.375816" y1="1485.94702" x2="913.898801" y2="1479.29422" stroke="black" stroke-width="6.48"/>
<line x1="847.846001" y1="1364.887418" x2="913.898801" y2="1479.29422" stroke="black" stroke-width="6.48"/>
<line x1="836.323016" y1="1371.540218" x2="847.846001" y2="1364.887418" stroke="black" stroke-width="6.48"/>
<line x1="855.66974" y1="1374.636935" x2="881.880671" y2="1357.309192" stroke="black" stroke-width="6.48"/>
<line x1="908.41694" y1="1465.997764" x2="937.826942" y2="1452.310175" stroke="black" stroke-width="6.48"/>
<line x1="1240.908224" y1="1479.252755" x2="1233.780224" y2="1466.906699" stroke="black" stroke-width="6.48"/>
<line x1="1233.780224" y1="1466.906699" x2="1119.373416" y2="1532.959499" stroke="black" stroke-width="6.48"/>
<line x1="1126.501416" y1="1545.305555" x2="1119.373416" y2="1532.959499" stroke="black" stroke-width="6.48"/>
<line x1="1240.908224" y1="1479.252755" x2="1126.501416" y2="1545.305555" stroke="black" stroke-width="6.48"/>
<line x1="1131.719476" y1="1525.831499" x2="1113.093468" y2="1499.272697" stroke="black" stroke-width="6.48"/>
<line x1="1222.25724" y1="1473.559499" x2="1207.74658" y2="1444.624697" stroke="black" stroke-width="6.48"/>
<line x1="1011.734496" y1="1080.411412" x2="1018.862496" y2="1092.757471" stroke="black" stroke-width="6.48"/>
<line x1="1018.862496" y1="1092.757471" x2="904.455691" y2="1158.810271" stroke="black" stroke-width="6.48"/>
<line x1="897.327691" y1="1146.464212" x2="904.455691" y2="1158.810271" stroke="black" stroke-width="6.48"/>
<line x1="1011.734496" y1="1080.411412" x2="897.327691" y2="1146.464212" stroke="black" stroke-width="6.48"/>
<line x1="916.801747" y1="1151.682271" x2="930.489336" y2="1181.09227" stroke="black" stroke-width="6.48"/>
<line x1="1007.339508" y1="1099.410271" x2="1025.142448" y2="1126.44427" stroke="black" stroke-width="6.48"/>
<circle cx="1069.117956" cy="1312.858487" r="191.98080000000002" fill="none" stroke="black" stroke-width="6.48"/>
<line x1="2044.889399" y1="955.822399" x2="2267.166564" y2="955.822399" stroke="black" stroke-width="6.48"/>
<line x1="2267.166564" y1="955.822399" x2="2267.166564" y2="1178.555051" stroke="black" stroke-width="6.48"/>
<line x1="2267.166564" y1="1178.555051" x2="2044.889399" y2="1178.555051" stroke="black" stroke-width="6.48"/>
<line x1="2044.889399" y1="1178.555051" x2="2044.889399" y2="955.822399" stroke="black" stroke-width="6.48"/>
<line x1="2044.433912" y1="955.366913" x2="2267.166564" y2="1178.555051" stroke="black" stroke-width="6.48"/>
<line x1="2044.889399" y1="1178.099564" x2="2266.711078" y2="955.822399" stroke="black" stroke-width="6.48"/>
<line x1="333.766206" y1="1375.361078" x2="333.766206" y2="949.854546" stroke="black" stroke-width="6.48"/>
<line x1="333.766206" y1="949.854546" x2="257.659348" y2="949.854546" stroke="black" stroke-width="6.48"/>
<line x1="257.659348" y1="949.854546" x2="257.659348" y2="1375.361078" stroke="black" stroke-width="6.48"/>
<line x1="257.659348" y1="1375.361078" x2="333.766206" y2="1375.361078" stroke="black" stroke-width="6.48"/>
<line x1="333.766206" y1="1355.469512" x2="359.711726" y2="1355.469512" stroke="black" stroke-width="6.48"/>
<line x1="359.711726" y1="1355.469512" x2="359.711726" y2="970.610962" stroke="black" stroke-width="6.48"/>
<line x1="333.766206" y1="970.610962" x2="359.711726" y2="970.610962" stroke="black" stroke-width="6.48"/>
<line x1="3874.406537" y1="1514.726719" x2="3874.406537" y2="1940.260162" stroke="black" stroke-width="6.48"/>
<line x1="3874.406537" y1="1940.260162" x2="3940.00601" y2="1940.260162" stroke="black" stroke-width="6.48"/>
<line x1="3940.00601" y1="1940.260162" x2="3940.00601" y2="1514.726719" stroke="black" stroke-width="6.48"/>
<line x1="3940.00601" y1="1514.726719" x2="3874.406537" y2="1514.726719" stroke="black" stroke-width="6.48"/>
<line x1="3939.14286" y1="1554.431663" x2="3875.269687" y2="1554.431663" stroke="black" stroke-width="6.48"/>
<line x1="3939.14286" y1="1899.692064" x2="3872.680232" y2="1899.692064" stroke="black" stroke-width="6.48"/>
<line x1="3908.932574" y1="1553.568512" x2="3908.932574" y2="1898.828914" stroke="black" stroke-width="6.48"/>
<line x1="4735.32133" y1="1739.046517" x2="4640.292511" y2="1647.278255" stroke="black" stroke-width="6.48"/>
<line x1="4640.292511" y1="1647.278255" x2="4650.19556" y2="1637.023345" stroke="black" stroke-width="6.48"/>
<line x1="4745.224379" y1="1728.791604" x2="4650.19556" y2="1637.023345" stroke="black" stroke-width="6.48"/>
<line x1="4735.32133" y1="1739.046517" x2="4745.224379" y2="1728.791604" stroke="black" stroke-width="6.48"/>
<line x1="4735.653131" y1="1719.548759" x2="4758.807164" y2="1698.30837" stroke="black" stroke-width="6.48"/>
<line x1="4659.766812" y1="1646.26619" x2="4680.846403" y2="1621.701328" stroke="black" stroke-width="6.48"/>
<line x1="5055.519938" y1="1407.471149" x2="4960.49112" y2="1315.70289" stroke="black" stroke-width="6.48"/>
<line x1="4960.49112" y1="1315.70289" x2="4951.248275" y2="1325.274138" stroke="black" stroke-width="6.48"/>
<line x1="5046.27709" y1="1417.042397" x2="4951.248275" y2="1325.274138" stroke="black" stroke-width="6.48"/>
<line x1="5055.519938" y1="1407.471149" x2="5046.27709" y2="1417.042397" stroke="black" stroke-width="6.48"/>
<line x1="5036.069099" y1="1409.827075" x2="5015.649712" y2="1433.70828" stroke="black" stroke-width="6.48"/>
<line x1="4960.182776" y1="1336.544507" x2="4935.684884" y2="1357.808353" stroke="black" stroke-width="6.48"/>
<line x1="4636.918073" y1="1415.450009" x2="4647.172982" y2="1425.353062" stroke="black" stroke-width="6.48"/>
<line x1="4647.172982" y1="1425.353062" x2="4738.941241" y2="1330.324243" stroke="black" stroke-width="6.48"/>
<line x1="4728.686335" y1="1320.421194" x2="4738.941241" y2="1330.324243" stroke="black" stroke-width="6.48"/>
<line x1="4636.918073" y1="1415.450009" x2="4728.686335" y2="1320.421194" stroke="black" stroke-width="6.48"/>
<line x1="4729.038192" y1="1340.579149" x2="4754.263262" y2="1360.975082" stroke="black" stroke-width="6.48"/>
<line x1="4656.415828" y1="1415.78181" x2="4678.339882" y2="1439.596044" stroke="black" stroke-width="6.48"/>
<line x1="4967.149576" y1="1735.672072" x2="4956.894666" y2="1725.769022" stroke="black" stroke-width="6.48"/>
<line x1="4956.894666" y1="1725.769022" x2="5048.662928" y2="1630.740208" stroke="black" stroke-width="6.48"/>
<line x1="5058.917834" y1="1640.64326" x2="5048.662928" y2="1630.740208" stroke="black" stroke-width="6.48"/>
<line x1="4967.149576" y1="1735.672072" x2="5058.917834" y2="1640.64326" stroke="black" stroke-width="6.48"/>
<line x1="5038.759879" y1="1640.995117" x2="5017.496029" y2="1616.497225" stroke="black" stroke-width="6.48"/>
<line x1="4966.137515" y1="1716.197774" x2="4941.572648" y2="1695.118183" stroke="black" stroke-width="6.48"/>
<circle cx="4847.917954" cy="1528.046636" r="191.98080000000002" fill="none" stroke="black" stroke-width="6.48"/>
<line x1="3503.915899" y1="1075.63549" x2="3713.281103" y2="1075.63549" stroke="black" stroke-width="6.48"/>
<line x1="3713.281103" y1="1075.63549" x2="3713.281103" y2="744.421086" stroke="black" stroke-width="6.48"/>
<line x1="3713.281103" y1="744.421086" x2="3503.915899" y2="744.421086" stroke="black" stroke-width="6.48"/>
<line x1="3503.915899" y1="744.421086" x2="3503.915899" y2="1075.63549" stroke="black" stroke-width="6.48"/>
<line x1="3503.242699" y1="803.662686" x2="3713.954299" y2="803.662686" stroke="black" stroke-width="6.48"/>
<line x1="3713.954299" y1="803.662686" x2="3504.589099" y2="853.47949" stroke="black" stroke-width="6.48"/>
<line x1="3504.589099" y1="853.47949" x2="3536.229503" y2="899.93029" stroke="black" stroke-width="6.48"/>
<line x1="3536.229503" y1="899.93029" x2="3713.954299" y2="802.98949" stroke="black" stroke-width="6.48"/>
<line x1="3198.24558" y1="1203.991373" x2="3420.522745" y2="1203.991373" stroke="black" stroke-width="6.48"/>
<line x1="3420.522745" y1="1203.991373" x2="3420.522745" y2="1426.724024" stroke="black" stroke-width="6.48"/>
<line x1="3420.522745" y1="1426.724024" x2="3198.24558" y2="1426.724024" stroke="black" stroke-width="6.48"/>
<line x1="3198.24558" y1="1426.724024" x2="3198.24558" y2="1203.991373" stroke="black" stroke-width="6.48"/>
<line x1="3197.790094" y1="1203.535886" x2="3420.522745" y2="1426.724024" stroke="black" stroke-width="6.48"/>
<line x1="3198.24558" y1="1426.268538" x2="3420.067259" y2="1203.991373" stroke="black" stroke-width="6.48"/>
<line x1="2804.16708" y1="1127.69402" x2="2804.16708" y2="1153.148746" stroke="black" stroke-width="6.48"/>
<line x1="2804.16708" y1="1153.148746" x2="2853.834836" y2="1153.148746" stroke="black" stroke-width="6.48"/>
<line x1="2853.834836" y1="1153.148746" x2="2853.834836" y2="1127.69402" stroke="black" stroke-width="6.48"/>
<line x1="2853.834836" y1="1127.69402" x2="2804.16708" y2="1127.69402" stroke="black" stroke-width="6.48"/>
<line x1="2853.834836" y1="1402.108373" x2="3101.55277" y2="1402.108373" stroke="black" stroke-width="6.48"/>
<line x1="2802.925386" y1="1402.729218" x2="2802.925386" y2="1428.183943" stroke="black" stroke-width="6.48"/>
<line x1="2802.925386" y1="1428.183943" x2="2852.593142" y2="1428.183943" stroke="black" stroke-width="6.48"/>
<line x1="2852.593142" y1="1428.183943" x2="2852.593142" y2="1402.729218" stroke="black" stroke-width="6.48"/>
<line x1="2852.593142" y1="1402.729218" x2="2802.925386" y2="1402.729218" stroke="black" stroke-width="6.48"/>
<path d="m 2851.972294,1153.148746 a 248.95962699999984,248.95962699999984 0 0 1 248.95962699999973,248.95962699999995" fill="none" stroke="black" stroke-width="6.48"/>
<line x1="3388.351874" y1="1838.159716" x2="3511.238879" y2="1641.499402" stroke="black" stroke-width="6.48"/>
<line x1="3511.238879" y1="1641.499402" x2="3708.302195" y2="1764.638222" stroke="black" stroke-width="6.48"/>
<line x1="3708.302195" y1="1764.638222" x2="3585.415183" y2="1961.298544" stroke="black" stroke-width="6.48"/>
<line x1="3585.415183" y1="1961.298544" x2="3388.351874" y2="1838.159716" stroke="black" stroke-width="6.48"/>
<line x1="3387.697067" y1="1838.310894" x2="3708.302195" y2="1764.638222" stroke="black" stroke-width="6.48"/>
<line x1="3585.012196" y1="1961.046727" x2="3510.987062" y2="1641.902393" stroke="black" stroke-width="6.48"/>
<line x1="3066.685171" y1="1589.315879" x2="3055.615902" y2="1618.152311" stroke="black" stroke-width="6.48"/>
<line x1="3055.615902" y1="1618.152311" x2="3251.260004" y2="1693.253045" stroke="black" stroke-width="6.48"/>
<line x1="3251.260004" y1="1693.253045" x2="3262.329274" y2="1664.416613" stroke="black" stroke-width="6.48"/>
<line x1="3262.329274" y1="1664.416613" x2="3066.685171" y2="1589.315879" stroke="black" stroke-width="6.48"/>
<line x1="2993.627995" y1="1779.63633" x2="2982.558726" y2="1808.472762" stroke="black" stroke-width="6.48"/>
<line x1="2982.558726" y1="1808.472762" x2="3178.202828" y2="1883.573496" stroke="black" stroke-width="6.48"/>
<line x1="3178.202828" y1="1883.573496" x2="3189.272098" y2="1854.737068" stroke="black" stroke-width="6.48"/>
<line x1="3189.272098" y1="1854.737068" x2="2993.627995" y2="1779.63633" stroke="black" stroke-width="6.48"/>
<line x1="3055.7862" y1="1617.708672" x2="2993.627995" y2="1779.63633" stroke="black" stroke-width="6.48"/>
<line x1="3250.713323" y1="1692.025175" x2="3265.57678" y2="1726.235176" stroke="black" stroke-width="6.48"/>
<line x1="3222.151186" y1="1839.362717" x2="3188.214526" y2="1854.84011" stroke="black" stroke-width="6.48"/>
<line x1="3266.257964" y1="1724.460631" x2="3221.469997" y2="1841.137268" stroke="black" stroke-width="6.48"/>
<line x1="3097.31782" y1="1634.160175" x2="3035.159615" y2="1796.087833" stroke="black" stroke-width="6.48"/>
<line x1="2310.272402" y1="2280.507505" x2="2340.991195" y2="2283.736187" stroke="black" stroke-width="6.48"/>
<line x1="2340.991195" y1="2283.736187" x2="2362.896565" y2="2075.321002" stroke="black" stroke-width="6.48"/>
<line x1="2362.896565" y1="2075.321002" x2="2332.177772" y2="2072.09232" stroke="black" stroke-width="6.48"/>
<line x1="2332.177772" y1="2072.09232" x2="2310.272402" y2="2280.507505" stroke="black" stroke-width="6.48"/>
<line x1="2513.016428" y1="2301.816812" x2="2543.735218" y2="2305.045494" stroke="black" stroke-width="6.48"/>
<line x1="2543.735218" y1="2305.045494" x2="2565.640588" y2="2096.630309" stroke="black" stroke-width="6.48"/>
<line x1="2565.640588" y1="2096.630309" x2="2534.921798" y2="2093.401627" stroke="black" stroke-width="6.48"/>
<line x1="2534.921798" y1="2093.401627" x2="2513.016428" y2="2301.816812" stroke="black" stroke-width="6.48"/>
<line x1="2340.518598" y1="2283.686514" x2="2513.016428" y2="2301.816812" stroke="black" stroke-width="6.48"/>
<line x1="2361.852029" y1="2076.16685" x2="2391.049411" y2="2052.955663" stroke="black" stroke-width="6.48"/>
<line x1="2511.561593" y1="2065.622033" x2="2535.29505" y2="2094.396491" stroke="black" stroke-width="6.48"/>
<line x1="2389.159022" y1="2052.756976" x2="2513.451978" y2="2065.82072" stroke="black" stroke-width="6.48"/>
<line x1="2345.660366" y1="2239.31209" x2="2518.158197" y2="2257.442384" stroke="black" stroke-width="6.48"/>
<line x1="1437.38023" y1="2084.843354" x2="1631.243228" y2="2163.169145" stroke="black" stroke-width="6.48"/>
<line x1="1631.243228" y1="2163.169145" x2="1718.113651" y2="1948.157453" stroke="black" stroke-width="6.48"/>
<line x1="1718.113651" y1="1948.157453" x2="1524.250649" y2="1869.831662" stroke="black" stroke-width="6.48"/>
<line x1="1524.250649" y1="1869.831662" x2="1437.38023" y2="2084.843354" stroke="black" stroke-width="6.48"/>
<line x1="1449.485122" y1="2054.882707" x2="1643.348124" y2="2133.208498" stroke="black" stroke-width="6.48"/>
<line x1="6228.740462" y1="1790.191937" x2="6041.548206" y2="1823.19898" stroke="black" stroke-width="6.48"/>
<line x1="6041.548206" y1="1823.19898" x2="6122.085397" y2="2279.94809" stroke="black" stroke-width="6.48"/>
<line x1="6122.085397" y1="2279.94809" x2="6309.277657" y2="2246.941048" stroke="black" stroke-width="6.48"/>
<line x1="6309.277657" y1="2246.941048" x2="6305.151776" y2="2223.542012" stroke="black" stroke-width="6.48"/>
<line x1="6305.151776" y1="2223.542012" x2="6140.422588" y2="2252.588213" stroke="black" stroke-width="6.48"/>
<line x1="6140.422588" y1="2252.588213" x2="6068.302193" y2="1843.573129" stroke="black" stroke-width="6.48"/>
<line x1="6068.302193" y1="1843.573129" x2="6233.031382" y2="1814.526929" stroke="black" stroke-width="6.48"/>
<line x1="6233.031382" y1="1814.526929" x2="6228.740462" y2="1790.191937" stroke="black" stroke-width="6.48"/>
<line x1="6227.415612" y1="1815.517145" x2="6299.536007" y2="2224.532225" stroke="black" stroke-width="6.48"/>
<line x1="6264.329252" y1="2019.391668" x2="6105.215833" y2="2047.447656" stroke="black" stroke-width="6.48"/>
</g>
</svg>
