<?xml version="1.0"?>
<svg xmlns:xlink="http://www.w3.org/1999/xlink" width="6775.2" height="2858.4">
<image x="0" y="0" width="6775.2" height="2858.4" xlink:href="groundfilled-01.png"/>
<g style="stroke-linecap:round">
<line x1="1285.950406" y1="795.178109" x2="1311.346069" y2="795.178109" stroke="black" stroke-width="6.48"/>
<line x1="1311.346069" y1="795.178109" x2="1311.346069" y2="745.625592" stroke="black" stroke-width="6.48"/>
<line x1="1311.346069" y1="745.625592" x2="1285.950406" y2="745.625592" stroke="black" stroke-width="6.48"/>
<line x1="1285.950406" y1="745.625592" x2="1285.950406" y2="795.178109" stroke="black" stroke-width="6.48"/>
<line x1="1559.728062" y1="745.625592" x2="1559.728062" y2="498.48241" stroke="black" stroke-width="6.48"/>
<line x1="1560.347471" y1="796.416923" x2="1585.743134" y2="796.416923" stroke="black" stroke-width="6.48"/>
<line x1="1585.743134" y1="796.416923" x2="1585.743134" y2="746.864406" stroke="black" stroke-width="6.48"/>
<line x1="1585.743134" y1="746.864406" x2="1560.347471" y2="746.864406" stroke="black" stroke-width="6.48"/>
<line x1="1560.347471" y1="746.864406" x2="1560.347471" y2="796.416923" stroke="black" stroke-width="6.48"/>
<path d="m 1311.346069,747.483811 a 248.38199299999997,248.38199299999997 0 0 1 248.38199299999997,-248.38199299999997" fill="none" stroke="black" stroke-width="6.48"/>
<line x1="330.523178" y1="771.328966" x2="330.523178" y2="366.748985" stroke="black" stroke-width="6.48"/>
<line x1="330.523178" y1="366.748985" x2="258.15928" y2="366.748985" stroke="black" stroke-width="6.48"/>
<line x1="258.15928" y1="366.748985" x2="258.15928" y2="771.328966" stroke="black" stroke-width="6.48"/>
<line x1="258.15928" y1="771.328966" x2="330.523178" y2="771.328966" stroke="black" stroke-width="6.48"/>
<line x1="330.523178" y1="752.415674" x2="355.19269" y2="752.415674" stroke="black" stroke-width="6.48"/>
<line x1="355.19269" y1="752.415674" x2="355.19269" y2="386.484595" stroke="black" stroke-width="6.48"/>
<line x1="330.523178" y1="386.484595" x2="355.19269" y2="386.484595" stroke="black" stroke-width="6.48"/>
<line x1="3901.945176" y1="1169.331426" x2="3901.945176" y2="1428.837066" stroke="black" stroke-width="6.48"/>
<line x1="3901.945176" y1="1428.837066" x2="3941.9501" y2="1428.837066" stroke="black" stroke-width="6.48"/>
<line x1="3941.9501" y1="1428.837066" x2="3941.9501" y2="1169.331426" stroke="black" stroke-width="6.48"/>
<line x1="3941.9501" y1="1169.331426" x2="3901.945176" y2="1169.331426" stroke="black" stroke-width="6.48"/>
<line x1="3941.423719" y1="1193.544936" x2="3902.471557" y2="1193.544936" stroke="black" stroke-width="6.48"/>
<line x1="3941.423719" y1="1404.097178" x2="3900.892414" y2="1404.097178" stroke="black" stroke-width="6.48"/>
<line x1="3923.000399" y1="1193.018555" x2="3923.000399" y2="1403.570797" stroke="black" stroke-width="6.48"/>
<line x1="323.923298" y1="1882.957399" x2="323.923298" y2="1457.423957" stroke="black" stroke-width="6.48"/>
<line x1="323.923298" y1="1457.423957" x2="258.323825" y2="1457.423957" stroke="black" stroke-width="6.48"/>
<line x1="258.323825" y1="1457.423957" x2="258.323825" y2="1882.957399" stroke="black" stroke-width="6.48"/>
<line x1="258.323825" y1="1882.957399" x2="323.923298" y2="1882.957399" stroke="black" stroke-width="6.48"/>
<line x1="259.186975" y1="1843.252456" x2="323.060148" y2="1843.252456" stroke="black" stroke-width="6.48"/>
<line x1="259.186975" y1="1497.992054" x2="325.649603" y2="1497.992054" stroke="black" stroke-width="6.48"/>
<line x1="289.397261" y1="1844.115606" x2="289.397261" y2="1498.855205" stroke="black" stroke-width="6.48"/>
<line x1="2747.905531" y1="904.670665" x2="2721.68303" y2="904.670665" stroke="black" stroke-width="6.48"/>
<line x1="2721.68303" y1="904.670665" x2="2721.68303" y2="955.836522" stroke="black" stroke-width="6.48"/>
<line x1="2721.68303" y1="955.836522" x2="2747.905531" y2="955.836522" stroke="black" stroke-width="6.48"/>
<line x1="2747.905531" y1="955.836522" x2="2747.905531" y2="904.670665" stroke="black" stroke-width="6.48"/>
<line x1="2465.214181" y1="955.836522" x2="2465.214181" y2="1211.026223" stroke="black" stroke-width="6.48"/>
<line x1="2464.574609" y1="903.39152" x2="2438.352108" y2="903.39152" stroke="black" stroke-width="6.48"/>
<line x1="2438.352108" y1="903.39152" x2="2438.352108" y2="954.557374" stroke="black" stroke-width="6.48"/>
<line x1="2438.352108" y1="954.557374" x2="2464.574609" y2="954.557374" stroke="black" stroke-width="6.48"/>
<line x1="2464.574609" y1="954.557374" x2="2464.574609" y2="903.39152" stroke="black" stroke-width="6.48"/>
<path d="m 2721.68303,953.917801 a 256.4688490000001,256.4688490000001 0 0 1 -256.4688490000003,256.46884899999986" fill="none" stroke="black" stroke-width="6.48"/>
<line x1="2420.532389" y1="1427.858834" x2="2395.136725" y2="1427.858834" stroke="black" stroke-width="6.48"/>
<line x1="2395.136725" y1="1427.858834" x2="2395.136725" y2="1477.411351" stroke="black" stroke-width="6.48"/>
<line x1="2395.136725" y1="1477.411351" x2="2420.532389" y2="1477.411351" stroke="black" stroke-width="6.48"/>
<line x1="2420.532389" y1="1477.411351" x2="2420.532389" y2="1427.858834" stroke="black" stroke-width="6.48"/>
<line x1="2146.754732" y1="1477.411351" x2="2146.754732" y2="1724.554534" stroke="black" stroke-width="6.48"/>
<line x1="2146.135324" y1="1426.62002" x2="2120.73966" y2="1426.62002" stroke="black" stroke-width="6.48"/>
<line x1="2120.73966" y1="1426.62002" x2="2120.73966" y2="1476.172537" stroke="black" stroke-width="6.48"/>
<line x1="2120.73966" y1="1476.172537" x2="2146.135324" y2="1476.172537" stroke="black" stroke-width="6.48"/>
<line x1="2146.135324" y1="1476.172537" x2="2146.135324" y2="1426.62002" stroke="black" stroke-width="6.48"/>
<path d="m 2395.136725,1475.553132 a 248.38199299999997,248.38199299999997 0 0 1 -248.38199299999997,248.38199299999997" fill="none" stroke="black" stroke-width="6.48"/>
<line x1="620.139132" y1="541.339351" x2="852.036732" y2="541.339351" stroke="black" stroke-width="6.48"/>
<line x1="852.036732" y1="541.339351" x2="852.036732" y2="773.712151" stroke="black" stroke-width="6.48"/>
<line x1="852.036732" y1="773.712151" x2="620.139132" y2="773.712151" stroke="black" stroke-width="6.48"/>
<line x1="620.139132" y1="773.712151" x2="620.139132" y2="541.339351" stroke="black" stroke-width="6.48"/>
<line x1="619.663932" y1="540.864151" x2="852.036732" y2="773.712151" stroke="black" stroke-width="6.48"/>
<line x1="620.139132" y1="773.236951" x2="851.561532" y2="541.339351" stroke="black" stroke-width="6.48"/>
<line x1="2032.924367" y1="1953.97457" x2="2032.924367" y2="1923.08657" stroke="black" stroke-width="6.48"/>
<line x1="2032.924367" y1="1923.08657" x2="1823.361167" y2="1923.08657" stroke="black" stroke-width="6.48"/>
<line x1="1823.361167" y1="1923.08657" x2="1823.361167" y2="1953.97457" stroke="black" stroke-width="6.48"/>
<line x1="1823.361167" y1="1953.97457" x2="2032.924367" y2="1953.97457" stroke="black" stroke-width="6.48"/>
<line x1="2032.924367" y1="1750.11377" x2="2032.924367" y2="1719.22577" stroke="black" stroke-width="6.48"/>
<line x1="2032.924367" y1="1719.22577" x2="1823.361167" y2="1719.22577" stroke="black" stroke-width="6.48"/>
<line x1="1823.361167" y1="1719.22577" x2="1823.361167" y2="1750.11377" stroke="black" stroke-width="6.48"/>
<line x1="1823.361167" y1="1750.11377" x2="2032.924367" y2="1750.11377" stroke="black" stroke-width="6.48"/>
<line x1="2032.924367" y1="1923.56177" x2="2032.924367" y2="1750.11377" stroke="black" stroke-width="6.48"/>
<line x1="1824.311567" y1="1924.03697" x2="1798.175567" y2="1897.42577" stroke="black" stroke-width="6.48"/>
<line x1="1798.175567" y1="1776.24977" x2="1824.311567" y2="1749.63857" stroke="black" stroke-width="6.48"/>
<line x1="1798.175567" y1="1899.32657" x2="1798.175567" y2="1774.34897" stroke="black" stroke-width="6.48"/>
<line x1="1988.255567" y1="1923.08657" x2="1988.255567" y2="1749.63857" stroke="black" stroke-width="6.48"/>
<line x1="1485.415969" y1="209.267824" x2="1707.693134" y2="209.267824" stroke="black" stroke-width="6.48"/>
<line x1="1707.693134" y1="209.267824" x2="1707.693134" y2="432.000475" stroke="black" stroke-width="6.48"/>
<line x1="1707.693134" y1="432.000475" x2="1485.415969" y2="432.000475" stroke="black" stroke-width="6.48"/>
<line x1="1485.415969" y1="432.000475" x2="1485.415969" y2="209.267824" stroke="black" stroke-width="6.48"/>
<line x1="1484.960483" y1="208.812337" x2="1707.693134" y2="432.000475" stroke="black" stroke-width="6.48"/>
<line x1="1485.415969" y1="431.544989" x2="1707.237648" y2="209.267824" stroke="black" stroke-width="6.48"/>
<line x1="2586.780558" y1="1803.366338" x2="2586.780558" y2="2194.614338" stroke="black" stroke-width="6.48"/>
<line x1="2586.780558" y1="2194.614338" x2="2761.020558" y2="2194.614338" stroke="black" stroke-width="6.48"/>
<line x1="2761.020558" y1="2194.614338" x2="2761.020558" y2="1803.366338" stroke="black" stroke-width="6.48"/>
<line x1="2761.020558" y1="1803.366338" x2="2586.780558" y2="1803.366338" stroke="black" stroke-width="6.48"/>
<line x1="2734.092558" y1="2119.374338" x2="2734.092558" y2="1835.046338" stroke="black" stroke-width="6.48"/>
<line x1="2734.092558" y1="1835.046338" x2="2616.084558" y2="1835.046338" stroke="black" stroke-width="6.48"/>
<line x1="2616.084558" y1="1835.046338" x2="2616.084558" y2="2124.918338" stroke="black" stroke-width="6.48"/>
<path d="m 2734.347982,2118.563766 a 63.35999941905905,63.35999941905905 0 0 1 -119.37432999999965,4.2938139999996565" fill="none" stroke="black" stroke-width="6.48"/>
<line x1="2080.805555" y1="1849.692388" x2="2056.253555" y2="1868.304388" stroke="black" stroke-width="6.48"/>
<line x1="2056.253555" y1="1868.304388" x2="2056.253555" y2="2015.616388" stroke="black" stroke-width="6.48"/>
<line x1="2056.253555" y1="2015.616388" x2="2084.369555" y2="2034.624388" stroke="black" stroke-width="6.48"/>
<line x1="2083.577555" y1="1871.472388" x2="2083.577555" y2="2014.428388" stroke="black" stroke-width="6.48"/>
<circle cx="2105.357555" cy="1940.772388" r="13.068000000000003" fill="none" stroke="black" stroke-width="6.48"/>
<path d="m 2082.910208,1873.02564 a 74.84400042853738,74.84400042853738 0 1 1 0.4020480000003772,139.6090039999999" fill="none" stroke="black" stroke-width="6.48"/>
<path d="m 2080.148191,1849.738691 a 95.43599883324407,95.43599883324407 0 1 1 3.0749579999996968,184.466995" fill="none" stroke="black" stroke-width="6.48"/>
<line x1="503.046223" y1="210.135553" x2="896.290096" y2="210.135553" stroke="black" stroke-width="6.48"/>
<line x1="900.245502" y1="209.139271" x2="900.245502" y2="345.208046" stroke="black" stroke-width="6.48"/>
<line x1="503.510612" y1="346.359553" x2="900.550843" y2="346.359553" stroke="black" stroke-width="6.48"/>
<line x1="504.245502" y1="210.830303" x2="504.245502" y2="346.094359" stroke="black" stroke-width="6.48"/>
<line x1="514.541502" y1="221.223553" x2="638.093502" y2="221.223553" stroke="black" stroke-width="6.48"/>
<line x1="638.093502" y1="221.223553" x2="638.093502" y2="335.271553" stroke="black" stroke-width="6.48"/>
<line x1="514.541502" y1="335.271553" x2="638.093502" y2="335.271553" stroke="black" stroke-width="6.48"/>
<line x1="514.541502" y1="221.223553" x2="514.541502" y2="335.271553" stroke="black" stroke-width="6.48"/>
<line x1="657.101502" y1="228.351553" x2="744.221502" y2="228.351553" stroke="black" stroke-width="6.48"/>
<line x1="657.101502" y1="248.151553" x2="744.221502" y2="248.151553" stroke="black" stroke-width="6.48"/>
<line x1="657.893502" y1="268.743553" x2="744.221502" y2="268.743553" stroke="black" stroke-width="6.48"/>
<line x1="657.893502" y1="288.543553" x2="744.221502" y2="288.543553" stroke="black" stroke-width="6.48"/>
<line x1="657.101502" y1="308.343553" x2="744.221502" y2="308.343553" stroke="black" stroke-width="6.48"/>
<line x1="657.101502" y1="328.143553" x2="744.221502" y2="328.143553" stroke="black" stroke-width="6.48"/>
<line x1="562.061502" y1="334.479553" x2="562.061502" y2="321.015553" stroke="black" stroke-width="6.48"/>
<line x1="562.061502" y1="321.015553" x2="592.157502" y2="321.015553" stroke="black" stroke-width="6.48"/>
<line x1="592.157502" y1="321.015553" x2="592.157502" y2="333.687553" stroke="black" stroke-width="6.48"/>
<line x1="764.813502" y1="221.223553" x2="888.365502" y2="221.223553" stroke="black" stroke-width="6.48"/>
<line x1="888.365502" y1="221.223553" x2="888.365502" y2="335.271553" stroke="black" stroke-width="6.48"/>
<line x1="764.813502" y1="335.271553" x2="888.365502" y2="335.271553" stroke="black" stroke-width="6.48"/>
<line x1="764.813502" y1="221.223553" x2="764.813502" y2="335.271553" stroke="black" stroke-width="6.48"/>
<line x1="812.333502" y1="335.271553" x2="812.333502" y2="321.807553" stroke="black" stroke-width="6.48"/>
<line x1="812.333502" y1="321.807553" x2="842.429502" y2="321.807553" stroke="black" stroke-width="6.48"/>
<line x1="842.429502" y1="321.807553" x2="842.429502" y2="334.479553" stroke="black" stroke-width="6.48"/>
<circle cx="623.837502" cy="235.479553" r="7.128000000000001" fill="none" stroke="black" stroke-width="6.48"/>
<circle cx="874.109502" cy="236.271553" r="7.128000000000001" fill="none" stroke="black" stroke-width="6.48"/>
<line x1="1014.031667" y1="1522.147457" x2="889.893007" y2="1476.964681" stroke="black" stroke-width="6.48"/>
<line x1="889.893007" y1="1476.964681" x2="894.768844" y2="1463.568422" stroke="black" stroke-width="6.48"/>
<line x1="1018.907503" y1="1508.751198" x2="894.768844" y2="1463.568422" stroke="black" stroke-width="6.48"/>
<line x1="1014.031667" y1="1522.147457" x2="1018.907503" y2="1508.751198" stroke="black" stroke-width="6.48"/>
<line x1="1006.404329" y1="1504.200413" x2="1018.917342" y2="1475.378762" stroke="black" stroke-width="6.48"/>
<line x1="907.272022" y1="1468.119204" x2="916.537752" y2="1437.104239" stroke="black" stroke-width="6.48"/>
<line x1="1171.683796" y1="1089.001778" x2="1047.54514" y2="1043.819003" stroke="black" stroke-width="6.48"/>
<line x1="1047.54514" y1="1043.819003" x2="1042.994358" y2="1056.322181" stroke="black" stroke-width="6.48"/>
<line x1="1167.133014" y1="1101.504956" x2="1042.994358" y2="1056.322181" stroke="black" stroke-width="6.48"/>
<line x1="1171.683796" y1="1089.001778" x2="1167.133014" y2="1101.504956" stroke="black" stroke-width="6.48"/>
<line x1="1154.872811" y1="1099.065395" x2="1145.932135" y2="1129.187272" stroke="black" stroke-width="6.48"/>
<line x1="1055.740504" y1="1062.984186" x2="1042.009351" y2="1092.37387" stroke="black" stroke-width="6.48"/>
<line x1="792.517262" y1="1266.551546" x2="805.913518" y2="1271.427386" stroke="black" stroke-width="6.48"/>
<line x1="805.913518" y1="1271.427386" x2="851.096293" y2="1147.28873" stroke="black" stroke-width="6.48"/>
<line x1="837.700038" y1="1142.41289" x2="851.096293" y2="1147.28873" stroke="black" stroke-width="6.48"/>
<line x1="792.517262" y1="1266.551546" x2="837.700038" y2="1142.41289" stroke="black" stroke-width="6.48"/>
<line x1="846.220457" y1="1160.684989" x2="877.560476" y2="1169.057639" stroke="black" stroke-width="6.48"/>
<line x1="810.464303" y1="1258.924216" x2="840.179041" y2="1271.762284" stroke="black" stroke-width="6.48"/>
<line x1="1224.444798" y1="1424.771708" x2="1211.048536" y2="1419.895868" stroke="black" stroke-width="6.48"/>
<line x1="1211.048536" y1="1419.895868" x2="1256.231315" y2="1295.757212" stroke="black" stroke-width="6.48"/>
<line x1="1269.627574" y1="1300.633052" x2="1256.231315" y2="1295.757212" stroke="black" stroke-width="6.48"/>
<line x1="1224.444798" y1="1424.771708" x2="1269.627574" y2="1300.633052" stroke="black" stroke-width="6.48"/>
<line x1="1251.355475" y1="1309.153471" x2="1221.965795" y2="1295.422319" stroke="black" stroke-width="6.48"/>
<line x1="1215.599321" y1="1407.392698" x2="1184.58436" y2="1398.126964" stroke="black" stroke-width="6.48"/>
<circle cx="1031.072418" cy="1283.592301" r="191.98080000000002" fill="none" stroke="black" stroke-width="6.48"/>
<line x1="2044.889399" y1="955.822399" x2="2267.166564" y2="955.822399" stroke="black" stroke-width="6.48"/>
<line x1="2267.166564" y1="955.822399" x2="2267.166564" y2="1178.555051" stroke="black" stroke-width="6.48"/>
<line x1="2267.166564" y1="1178.555051" x2="2044.889399" y2="1178.555051" stroke="black" stroke-width="6.48"/>
<line x1="2044.889399" y1="1178.555051" x2="2044.889399" y2="955.822399" stroke="black" stroke-width="6.48"/>
<line x1="2044.433912" y1="955.366913" x2="2267.166564" y2="1178.555051" stroke="black" stroke-width="6.48"/>
<line x1="2044.889399" y1="1178.099564" x2="2266.711078" y2="955.822399" stroke="black" stroke-width="6.48"/>
<line x1="333.766206" y1="1375.361078" x2="333.766206" y2="949.854546" stroke="black" stroke-width="6.48"/>
<line x1="333.766206" y1="949.854546" x2="257.659348" y2="949.854546" stroke="black" stroke-width="6.48"/>
<line x1="257.659348" y1="949.854546" x2="257.659348" y2="1375.361078" stroke="black" stroke-width="6.48"/>
<line x1="257.659348" y1="1375.361078" x2="333.766206" y2="1375.361078" stroke="black" stroke-width="6.48"/>
<line x1="333.766206" y1="1355.469512" x2="359.711726" y2="1355.469512" stroke="black" stroke-width="6.48"/>
<line x1="359.711726" y1="1355.469512" x2="359.711726" y2="970.610962" stroke="black" stroke-width="6.48"/>
<line x1="333.766206" y1="970.610962" x2="359.711726" y2="970.610962" stroke="black" stroke-width="6.48"/>
<line x1="3874.406537" y1="1514.726719" x2="3874.406537" y2="1940.260162" stroke="black" stroke-width="6.48"/>
<line x1="3874.406537" y1="1940.260162" x2="3940.00601" y2="1940.260162" stroke="black" stroke-width="6.48"/>
<line x1="3940.00601" y1="1940.260162" x2="3940.00601" y2="1514.726719" stroke="black" stroke-width="6.48"/>
<line x1="3940.00601" y1="1514.726719" x2="3874.406537" y2="1514.726719" stroke="black" stroke-width="6.48"/>
<line x1="3939.14286" y1="1554.431663" x2="3875.269687" y2="1554.431663" stroke="black" stroke-width="6.48"/>
<line x1="3939.14286" y1="1899.692064" x2="3872.680232" y2="1899.692064" stroke="black" stroke-width="6.48"/>
<line x1="3908.932574" y1="1553.568512" x2="3908.932574" y2="1898.828914" stroke="black" stroke-width="6.48"/>
<line x1="5157.732456" y1="1885.589759" x2="5048.211949" y2="1959.462277" stroke="black" stroke-width="6.48"/>
<line x1="5048.211949" y1="1959.462277" x2="5040.240095" y2="1947.643513" stroke="black" stroke-width="6.48"/>
<line x1="5149.760602" y1="1873.771002" x2="5040.240095" y2="1947.643513" stroke="black" stroke-width="6.48"/>
<line x1="5157.732456" y1="1885.589759" x2="5149.760602" y2="1873.771002" stroke="black" stroke-width="6.48"/>
<line x1="5138.729759" y1="1881.211399" x2="5122.767514" y2="1854.147215" stroke="black" stroke-width="6.48"/>
<line x1="5051.270938" y1="1940.20312" x2="5031.625568" y2="1914.476843" stroke="black" stroke-width="6.48"/>
<line x1="4899.975844" y1="1503.449867" x2="4790.455333" y2="1577.322382" stroke="black" stroke-width="6.48"/>
<line x1="4790.455333" y1="1577.322382" x2="4797.89573" y2="1588.353221" stroke="black" stroke-width="6.48"/>
<line x1="4907.416241" y1="1514.48071" x2="4797.89573" y2="1588.353221" stroke="black" stroke-width="6.48"/>
<line x1="4899.975844" y1="1503.449867" x2="4907.416241" y2="1514.48071" stroke="black" stroke-width="6.48"/>
<line x1="4898.236226" y1="1522.965485" x2="4917.350142" y2="1547.90384" stroke="black" stroke-width="6.48"/>
<line x1="4810.777405" y1="1581.957205" x2="4826.48319" y2="1610.340764" stroke="black" stroke-width="6.48"/>
<line x1="4820.748124" y1="1914.563174" x2="4832.56688" y2="1906.59132" stroke="black" stroke-width="6.48"/>
<line x1="4832.56688" y1="1906.59132" x2="4758.694369" y2="1797.070813" stroke="black" stroke-width="6.48"/>
<line x1="4746.875609" y1="1805.042668" x2="4758.694369" y2="1797.070813" stroke="black" stroke-width="6.48"/>
<line x1="4820.748124" y1="1914.563174" x2="4746.875609" y2="1805.042668" stroke="black" stroke-width="6.48"/>
<line x1="4766.66622" y1="1808.889574" x2="4791.86104" y2="1788.456287" stroke="black" stroke-width="6.48"/>
<line x1="4825.126487" y1="1895.560477" x2="4852.978585" y2="1879.066778" stroke="black" stroke-width="6.48"/>
<line x1="5202.631559" y1="1658.125933" x2="5190.812795" y2="1666.097791" stroke="black" stroke-width="6.48"/>
<line x1="5190.812795" y1="1666.097791" x2="5116.940284" y2="1556.577281" stroke="black" stroke-width="6.48"/>
<line x1="5128.75904" y1="1548.60543" x2="5116.940284" y2="1556.577281" stroke="black" stroke-width="6.48"/>
<line x1="5202.631559" y1="1658.125933" x2="5128.75904" y2="1548.60543" stroke="black" stroke-width="6.48"/>
<line x1="5124.912138" y1="1568.396041" x2="5096.528579" y2="1584.101826" stroke="black" stroke-width="6.48"/>
<line x1="5183.372398" y1="1655.066945" x2="5157.646124" y2="1674.712314" stroke="black" stroke-width="6.48"/>
<circle cx="4974.753586" cy="1731.584304" r="191.98080000000002" fill="none" stroke="black" stroke-width="6.48"/>
<line x1="3189.150461" y1="1074.596663" x2="3398.515664" y2="1074.596663" stroke="black" stroke-width="6.48"/>
<line x1="3398.515664" y1="1074.596663" x2="3398.515664" y2="743.382259" stroke="black" stroke-width="6.48"/>
<line x1="3398.515664" y1="743.382259" x2="3189.150461" y2="743.382259" stroke="black" stroke-width="6.48"/>
<line x1="3189.150461" y1="743.382259" x2="3189.150461" y2="1074.596663" stroke="black" stroke-width="6.48"/>
<line x1="3188.477261" y1="802.623859" x2="3399.188861" y2="802.623859" stroke="black" stroke-width="6.48"/>
<line x1="3399.188861" y1="802.623859" x2="3189.823661" y2="852.440663" stroke="black" stroke-width="6.48"/>
<line x1="3189.823661" y1="852.440663" x2="3221.464064" y2="898.891463" stroke="black" stroke-width="6.48"/>
<line x1="3221.464064" y1="898.891463" x2="3399.188861" y2="801.950663" stroke="black" stroke-width="6.48"/>
<line x1="3384.003748" y1="1203.239315" x2="3606.280913" y2="1203.239315" stroke="black" stroke-width="6.48"/>
<line x1="3606.280913" y1="1203.239315" x2="3606.280913" y2="1425.971966" stroke="black" stroke-width="6.48"/>
<line x1="3606.280913" y1="1425.971966" x2="3384.003748" y2="1425.971966" stroke="black" stroke-width="6.48"/>
<line x1="3384.003748" y1="1425.971966" x2="3384.003748" y2="1203.239315" stroke="black" stroke-width="6.48"/>
<line x1="3383.548261" y1="1202.783828" x2="3606.280913" y2="1425.971966" stroke="black" stroke-width="6.48"/>
<line x1="3384.003748" y1="1425.51648" x2="3605.825426" y2="1203.239315" stroke="black" stroke-width="6.48"/>
<line x1="2804.16708" y1="1127.69402" x2="2804.16708" y2="1153.148746" stroke="black" stroke-width="6.48"/>
<line x1="2804.16708" y1="1153.148746" x2="2853.834836" y2="1153.148746" stroke="black" stroke-width="6.48"/>
<line x1="2853.834836" y1="1153.148746" x2="2853.834836" y2="1127.69402" stroke="black" stroke-width="6.48"/>
<line x1="2853.834836" y1="1127.69402" x2="2804.16708" y2="1127.69402" stroke="black" stroke-width="6.48"/>
<line x1="2853.834836" y1="1402.108373" x2="3101.55277" y2="1402.108373" stroke="black" stroke-width="6.48"/>
<line x1="2802.925386" y1="1402.729218" x2="2802.925386" y2="1428.183943" stroke="black" stroke-width="6.48"/>
<line x1="2802.925386" y1="1428.183943" x2="2852.593142" y2="1428.183943" stroke="black" stroke-width="6.48"/>
<line x1="2852.593142" y1="1428.183943" x2="2852.593142" y2="1402.729218" stroke="black" stroke-width="6.48"/>
<line x1="2852.593142" y1="1402.729218" x2="2802.925386" y2="1402.729218" stroke="black" stroke-width="6.48"/>
<path d="m 2851.972294,1153.148746 a 248.95962699999984,248.95962699999984 0 0 1 248.95962699999973,248.95962699999995" fill="none" stroke="black" stroke-width="6.48"/>
<line x1="2902.355201" y1="1995.315174" x2="2831.150056" y2="2171.554312" stroke="black" stroke-width="6.48"/>
<line x1="2831.150056" y1="2171.554312" x2="3261.173551" y2="2345.294862" stroke="black" stroke-width="6.48"/>
<line x1="3261.173551" y1="2345.294862" x2="3332.378696" y2="2169.055724" stroke="black" stroke-width="6.48"/>
<line x1="3332.378696" y1="2169.055724" x2="3310.348806" y2="2160.155081" stroke="black" stroke-width="6.48"/>
<line x1="3310.348806" y1="2160.155081" x2="3247.688279" y2="2315.245525" stroke="black" stroke-width="6.48"/>
<line x1="3247.688279" y1="2315.245525" x2="2862.605761" y2="2159.662284" stroke="black" stroke-width="6.48"/>
<line x1="2862.605761" y1="2159.662284" x2="2925.266288" y2="2004.571843" stroke="black" stroke-width="6.48"/>
<line x1="2925.266288" y1="2004.571843" x2="2902.355201" y2="1995.315174" stroke="black" stroke-width="6.48"/>
<line x1="2923.130135" y1="2009.859016" x2="3308.212652" y2="2165.442257" stroke="black" stroke-width="6.48"/>
<line x1="3115.586819" y1="2086.591428" x2="3055.062449" y2="2236.394696" stroke="black" stroke-width="6.48"/>
<line x1="3691.188194" y1="1881.12469" x2="3468.273919" y2="1945.044331" stroke="black" stroke-width="6.48"/>
<line x1="3468.273919" y1="1945.044331" x2="3404.223295" y2="1721.673259" stroke="black" stroke-width="6.48"/>
<line x1="3404.223295" y1="1721.673259" x2="3627.13757" y2="1657.753621" stroke="black" stroke-width="6.48"/>
<line x1="3627.13757" y1="1657.753621" x2="3691.188194" y2="1881.12469" stroke="black" stroke-width="6.48"/>
<line x1="3691.77597" y1="1881.4505" x2="3404.223295" y2="1721.673259" stroke="black" stroke-width="6.48"/>
<line x1="3627.268556" y1="1658.210411" x2="3468.730709" y2="1944.913349" stroke="black" stroke-width="6.48"/>
<line x1="3020.26257" y1="1589.315879" x2="3017.570504" y2="1620.086342" stroke="black" stroke-width="6.48"/>
<line x1="3017.570504" y1="1620.086342" x2="3226.336254" y2="1638.350978" stroke="black" stroke-width="6.48"/>
<line x1="3226.336254" y1="1638.350978" x2="3229.028316" y2="1607.580515" stroke="black" stroke-width="6.48"/>
<line x1="3229.028316" y1="1607.580515" x2="3020.26257" y2="1589.315879" stroke="black" stroke-width="6.48"/>
<line x1="3002.494928" y1="1792.400929" x2="2999.802863" y2="1823.171389" stroke="black" stroke-width="6.48"/>
<line x1="2999.802863" y1="1823.171389" x2="3208.568612" y2="1841.436029" stroke="black" stroke-width="6.48"/>
<line x1="3208.568612" y1="1841.436029" x2="3211.260682" y2="1810.665565" stroke="black" stroke-width="6.48"/>
<line x1="3211.260682" y1="1810.665565" x2="3002.494928" y2="1792.400929" stroke="black" stroke-width="6.48"/>
<line x1="3017.611919" y1="1619.61295" x2="3002.494928" y2="1792.400929" stroke="black" stroke-width="6.48"/>
<line x1="3225.472301" y1="1637.321364" x2="3249.189529" y2="1666.109203" stroke="black" stroke-width="6.48"/>
<line x1="3238.628342" y1="1786.82409" x2="3210.272478" y2="1811.056122" stroke="black" stroke-width="6.48"/>
<line x1="3249.35519" y1="1664.215632" x2="3238.462678" y2="1788.717658" stroke="black" stroke-width="6.48"/>
<line x1="3062.069323" y1="1623.979487" x2="3046.952336" y2="1796.767463" stroke="black" stroke-width="6.48"/>
<line x1="902.80462" y1="1884.55815" x2="994.462718" y2="2072.485224" stroke="black" stroke-width="6.48"/>
<line x1="994.462718" y1="2072.485224" x2="1202.890928" y2="1970.828057" stroke="black" stroke-width="6.48"/>
<line x1="1202.890928" y1="1970.828057" x2="1111.23283" y2="1782.900983" stroke="black" stroke-width="6.48"/>
<line x1="1111.23283" y1="1782.900983" x2="902.80462" y2="1884.55815" stroke="black" stroke-width="6.48"/>
<line x1="931.847897" y1="1870.392809" x2="1023.505996" y2="2058.319883" stroke="black" stroke-width="6.48"/>
<line x1="5971.628653" y1="1512.795002" x2="5790.851827" y2="1571.532955" stroke="black" stroke-width="6.48"/>
<line x1="5790.851827" y1="1571.532955" x2="5934.172428" y2="2012.628402" stroke="black" stroke-width="6.48"/>
<line x1="5934.172428" y1="2012.628402" x2="6114.94925" y2="1953.890449" stroke="black" stroke-width="6.48"/>
<line x1="6114.94925" y1="1953.890449" x2="6107.607004" y2="1931.293346" stroke="black" stroke-width="6.48"/>
<line x1="6107.607004" y1="1931.293346" x2="5948.523403" y2="1982.982744" stroke="black" stroke-width="6.48"/>
<line x1="5948.523403" y1="1982.982744" x2="5820.180984" y2="1587.985387" stroke="black" stroke-width="6.48"/>
<line x1="5820.180984" y1="1587.985387" x2="5979.264584" y2="1536.295993" stroke="black" stroke-width="6.48"/>
<line x1="5979.264584" y1="1536.295993" x2="5971.628653" y2="1512.795002" stroke="black" stroke-width="6.48"/>
<line x1="5973.841282" y1="1538.058128" x2="6102.183701" y2="1933.055489" stroke="black" stroke-width="6.48"/>
<line x1="6038.769528" y1="1734.811175" x2="5885.109234" y2="1784.738437" stroke="black" stroke-width="6.48"/>
<line x1="3835.973282" y1="1142.207798" x2="3836.512354" y2="1111.324504" stroke="black" stroke-width="6.48"/>
<line x1="3836.512354" y1="1111.324504" x2="3626.981071" y2="1107.667123" stroke="black" stroke-width="6.48"/>
<line x1="3626.981071" y1="1107.667123" x2="3626.442" y2="1138.550418" stroke="black" stroke-width="6.48"/>
<line x1="3626.442" y1="1138.550418" x2="3835.973282" y2="1142.207798" stroke="black" stroke-width="6.48"/>
<line x1="3839.531144" y1="938.378048" x2="3840.070216" y2="907.494754" stroke="black" stroke-width="6.48"/>
<line x1="3840.070216" y1="907.494754" x2="3630.538933" y2="903.837373" stroke="black" stroke-width="6.48"/>
<line x1="3630.538933" y1="903.837373" x2="3629.999862" y2="934.720668" stroke="black" stroke-width="6.48"/>
<line x1="3629.999862" y1="934.720668" x2="3839.531144" y2="938.378048" stroke="black" stroke-width="6.48"/>
<line x1="3836.504059" y1="1111.799632" x2="3839.531144" y2="938.378048" stroke="black" stroke-width="6.48"/>
<line x1="3627.914738" y1="1108.633964" x2="3602.247149" y2="1081.570684" stroke="black" stroke-width="6.48"/>
<line x1="3604.361962" y1="960.413137" x2="3630.958412" y2="934.262129" stroke="black" stroke-width="6.48"/>
<line x1="3602.213975" y1="1083.471196" x2="3604.395136" y2="958.512625" stroke="black" stroke-width="6.48"/>
<line x1="3791.850358" y1="1110.544927" x2="3794.877439" y2="937.123344" stroke="black" stroke-width="6.48"/>
<line x1="1091.229664" y1="210.419068" x2="1361.776864" y2="210.419068" stroke="black" stroke-width="6.48"/>
<line x1="1361.776864" y1="210.419068" x2="1361.776864" y2="342.366268" stroke="black" stroke-width="6.48"/>
<line x1="1091.229664" y1="342.366268" x2="1361.776864" y2="342.366268" stroke="black" stroke-width="6.48"/>
<line x1="1091.229664" y1="210.419068" x2="1091.229664" y2="342.366268" stroke="black" stroke-width="6.48"/>
<line x1="1097.882464" y1="217.071868" x2="1235.928064" y2="217.071868" stroke="black" stroke-width="6.48"/>
<line x1="1235.928064" y1="217.071868" x2="1235.928064" y2="335.159068" stroke="black" stroke-width="6.48"/>
<line x1="1097.882464" y1="335.159068" x2="1235.928064" y2="335.159068" stroke="black" stroke-width="6.48"/>
<line x1="1097.882464" y1="217.071868" x2="1097.882464" y2="335.159068" stroke="black" stroke-width="6.48"/>
<line x1="1250.342464" y1="224.833468" x2="1347.362464" y2="224.833468" stroke="black" stroke-width="6.48"/>
<line x1="1250.342464" y1="245.346268" x2="1347.362464" y2="245.346268" stroke="black" stroke-width="6.48"/>
<line x1="1250.896864" y1="266.413468" x2="1347.916864" y2="266.413468" stroke="black" stroke-width="6.48"/>
<line x1="1250.896864" y1="286.926268" x2="1347.916864" y2="286.926268" stroke="black" stroke-width="6.48"/>
<line x1="1250.342464" y1="307.439068" x2="1347.362464" y2="307.439068" stroke="black" stroke-width="6.48"/>
<line x1="1250.342464" y1="327.951868" x2="1347.362464" y2="327.951868" stroke="black" stroke-width="6.48"/>
<line x1="1150.550464" y1="335.159068" x2="1150.550464" y2="321.299068" stroke="black" stroke-width="6.48"/>
<line x1="1150.550464" y1="321.299068" x2="1184.923264" y2="321.299068" stroke="black" stroke-width="6.48"/>
<line x1="1184.923264" y1="321.299068" x2="1184.923264" y2="334.604668" stroke="black" stroke-width="6.48"/>
<circle cx="1220.404864" cy="232.040668" r="8.316000000000003" fill="none" stroke="black" stroke-width="6.48"/>
<line x1="2278.827652" y1="2040.716642" x2="2509.454887" y2="2064.956598" stroke="black" stroke-width="6.48"/>
<line x1="2509.454887" y1="2064.956598" x2="2485.165259" y2="2296.056431" stroke="black" stroke-width="6.48"/>
<line x1="2485.165259" y1="2296.056431" x2="2254.538023" y2="2271.816472" stroke="black" stroke-width="6.48"/>
<line x1="2254.538023" y1="2271.816472" x2="2278.827652" y2="2040.716642" stroke="black" stroke-width="6.48"/>
<line x1="2278.404727" y1="2040.194372" x2="2485.165259" y2="2296.056431" stroke="black" stroke-width="6.48"/>
<line x1="2254.587696" y1="2271.343874" x2="2508.98229" y2="2064.906925" stroke="black" stroke-width="6.48"/>
</g>
</svg>
