<?xml version="1.0"?>
<svg xmlns:xlink="http://www.w3.org/1999/xlink" width="6775.2" height="2858.4">
<image x="0" y="0" width="6775.2" height="2858.4" xlink:href="groundfilled-01.png"/>
<g style="stroke-linecap:round">
<line x1="1285.950406" y1="795.178109" x2="1311.346069" y2="795.178109" stroke="black" stroke-width="6.48"/>
<line x1="1311.346069" y1="795.178109" x2="1311.346069" y2="745.625592" stroke="black" stroke-width="6.48"/>
<line x1="1311.346069" y1="745.625592" x2="1285.950406" y2="745.625592" stroke="black" stroke-width="6.48"/>
<line x1="1285.950406" y1="745.625592" x2="1285.950406" y2="795.178109" stroke="black" stroke-width="6.48"/>
<line x1="1559.728062" y1="745.625592" x2="1559.728062" y2="498.48241" stroke="black" stroke-width="6.48"/>
<line x1="1560.347471" y1="796.416923" x2="1585.743134" y2="796.416923" stroke="black" stroke-width="6.48"/>
<line x1="1585.743134" y1="796.416923" x2="1585.743134" y2="746.864406" stroke="black" stroke-width="6.48"/>
<line x1="1585.743134" y1="746.864406" x2="1560.347471" y2="746.864406" stroke="black" stroke-width="6.48"/>
<line x1="1560.347471" y1="746.864406" x2="1560.347471" y2="796.416923" stroke="black" stroke-width="6.48"/>
<path d="m 1311.346069,747.483811 a 248.38199299999997,248.38199299999997 0 0 1 248.38199299999997,-248.38199299999997" fill="none" stroke="black" stroke-width="6.48"/>
<line x1="330.523178" y1="771.328966" x2="330.523178" y2="366.748985" stroke="black" stroke-width="6.48"/>
<line x1="330.523178" y1="366.748985" x2="258.15928" y2="366.748985" stroke="black" stroke-width="6.48"/>
<line x1="258.15928" y1="366.748985" x2="258.15928" y2="771.328966" stroke="black" stroke-width="6.48"/>
<line x1="258.15928" y1="771.328966" x2="330.523178" y2="771.328966" stroke="black" stroke-width="6.48"/>
<line x1="330.523178" y1="752.415674" x2="355.19269" y2="752.415674" stroke="black" stroke-width="6.48"/>
<line x1="355.19269" y1="752.415674" x2="355.19269" y2="386.484595" stroke="black" stroke-width="6.48"/>
<line x1="330.523178" y1="386.484595" x2="355.19269" y2="386.484595" stroke="black" stroke-width="6.48"/>
<line x1="3901.945176" y1="1169.331426" x2="3901.945176" y2="1428.837066" stroke="black" stroke-width="6.48"/>
<line x1="3901.945176" y1="1428.837066" x2="3941.9501" y2="1428.837066" stroke="black" stroke-width="6.48"/>
<line x1="3941.9501" y1="1428.837066" x2="3941.9501" y2="1169.331426" stroke="black" stroke-width="6.48"/>
<line x1="3941.9501" y1="1169.331426" x2="3901.945176" y2="1169.331426" stroke="black" stroke-width="6.48"/>
<line x1="3941.423719" y1="1193.544936" x2="3902.471557" y2="1193.544936" stroke="black" stroke-width="6.48"/>
<line x1="3941.423719" y1="1404.097178" x2="3900.892414" y2="1404.097178" stroke="black" stroke-width="6.48"/>
<line x1="3923.000399" y1="1193.018555" x2="3923.000399" y2="1403.570797" stroke="black" stroke-width="6.48"/>
<line x1="334.430687" y1="1882.943946" x2="334.430687" y2="1457.437414" stroke="black" stroke-width="6.48"/>
<line x1="334.430687" y1="1457.437414" x2="258.323828" y2="1457.437414" stroke="black" stroke-width="6.48"/>
<line x1="258.323828" y1="1457.437414" x2="258.323828" y2="1882.943946" stroke="black" stroke-width="6.48"/>
<line x1="258.323828" y1="1882.943946" x2="334.430687" y2="1882.943946" stroke="black" stroke-width="6.48"/>
<line x1="334.430687" y1="1863.05238" x2="360.376207" y2="1863.05238" stroke="black" stroke-width="6.48"/>
<line x1="360.376207" y1="1863.05238" x2="360.376207" y2="1478.193829" stroke="black" stroke-width="6.48"/>
<line x1="334.430687" y1="1478.193829" x2="360.376207" y2="1478.193829" stroke="black" stroke-width="6.48"/>
<line x1="2747.905531" y1="904.670665" x2="2721.68303" y2="904.670665" stroke="black" stroke-width="6.48"/>
<line x1="2721.68303" y1="904.670665" x2="2721.68303" y2="955.836522" stroke="black" stroke-width="6.48"/>
<line x1="2721.68303" y1="955.836522" x2="2747.905531" y2="955.836522" stroke="black" stroke-width="6.48"/>
<line x1="2747.905531" y1="955.836522" x2="2747.905531" y2="904.670665" stroke="black" stroke-width="6.48"/>
<line x1="2465.214181" y1="955.836522" x2="2465.214181" y2="1211.026223" stroke="black" stroke-width="6.48"/>
<line x1="2464.574609" y1="903.39152" x2="2438.352108" y2="903.39152" stroke="black" stroke-width="6.48"/>
<line x1="2438.352108" y1="903.39152" x2="2438.352108" y2="954.557374" stroke="black" stroke-width="6.48"/>
<line x1="2438.352108" y1="954.557374" x2="2464.574609" y2="954.557374" stroke="black" stroke-width="6.48"/>
<line x1="2464.574609" y1="954.557374" x2="2464.574609" y2="903.39152" stroke="black" stroke-width="6.48"/>
<path d="m 2721.68303,953.917801 a 256.4688490000001,256.4688490000001 0 0 1 -256.4688490000003,256.46884899999986" fill="none" stroke="black" stroke-width="6.48"/>
<line x1="2420.532389" y1="1427.858834" x2="2395.136725" y2="1427.858834" stroke="black" stroke-width="6.48"/>
<line x1="2395.136725" y1="1427.858834" x2="2395.136725" y2="1477.411351" stroke="black" stroke-width="6.48"/>
<line x1="2395.136725" y1="1477.411351" x2="2420.532389" y2="1477.411351" stroke="black" stroke-width="6.48"/>
<line x1="2420.532389" y1="1477.411351" x2="2420.532389" y2="1427.858834" stroke="black" stroke-width="6.48"/>
<line x1="2146.754732" y1="1477.411351" x2="2146.754732" y2="1724.554534" stroke="black" stroke-width="6.48"/>
<line x1="2146.135324" y1="1426.62002" x2="2120.73966" y2="1426.62002" stroke="black" stroke-width="6.48"/>
<line x1="2120.73966" y1="1426.62002" x2="2120.73966" y2="1476.172537" stroke="black" stroke-width="6.48"/>
<line x1="2120.73966" y1="1476.172537" x2="2146.135324" y2="1476.172537" stroke="black" stroke-width="6.48"/>
<line x1="2146.135324" y1="1476.172537" x2="2146.135324" y2="1426.62002" stroke="black" stroke-width="6.48"/>
<path d="m 2395.136725,1475.553132 a 248.38199299999997,248.38199299999997 0 0 1 -248.38199299999997,248.38199299999997" fill="none" stroke="black" stroke-width="6.48"/>
<line x1="686.483989" y1="692.136151" x2="1079.315989" y2="692.136151" stroke="black" stroke-width="6.48"/>
<line x1="1079.315989" y1="692.136151" x2="1079.315989" y2="507.600151" stroke="black" stroke-width="6.48"/>
<line x1="1079.315989" y1="507.600151" x2="686.483989" y2="507.600151" stroke="black" stroke-width="6.48"/>
<line x1="686.483989" y1="507.600151" x2="686.483989" y2="692.136151" stroke="black" stroke-width="6.48"/>
<line x1="845.675989" y1="507.600151" x2="845.675989" y2="426.816151" stroke="black" stroke-width="6.48"/>
<line x1="845.675989" y1="426.816151" x2="767.267989" y2="426.816151" stroke="black" stroke-width="6.48"/>
<line x1="767.267989" y1="426.816151" x2="767.267989" y2="507.600151" stroke="black" stroke-width="6.48"/>
<line x1="768.059989" y1="444.240151" x2="845.675989" y2="444.240151" stroke="black" stroke-width="6.48"/>
<line x1="767.267989" y1="773.712151" x2="845.675989" y2="773.712151" stroke="black" stroke-width="6.48"/>
<line x1="845.675989" y1="773.712151" x2="845.675989" y2="692.136151" stroke="black" stroke-width="6.48"/>
<line x1="767.267989" y1="692.136151" x2="767.267989" y2="773.712151" stroke="black" stroke-width="6.48"/>
<line x1="768.059989" y1="756.288151" x2="845.675989" y2="756.288151" stroke="black" stroke-width="6.48"/>
<line x1="996.947989" y1="507.600151" x2="996.947989" y2="426.816151" stroke="black" stroke-width="6.48"/>
<line x1="996.947989" y1="426.816151" x2="918.539989" y2="426.816151" stroke="black" stroke-width="6.48"/>
<line x1="918.539989" y1="426.816151" x2="918.539989" y2="507.600151" stroke="black" stroke-width="6.48"/>
<line x1="918.539989" y1="444.240151" x2="996.947989" y2="444.240151" stroke="black" stroke-width="6.48"/>
<line x1="918.539989" y1="773.712151" x2="996.947989" y2="773.712151" stroke="black" stroke-width="6.48"/>
<line x1="996.947989" y1="773.712151" x2="996.947989" y2="692.136151" stroke="black" stroke-width="6.48"/>
<line x1="918.539989" y1="692.136151" x2="918.539989" y2="773.712151" stroke="black" stroke-width="6.48"/>
<line x1="918.539989" y1="756.288151" x2="996.947989" y2="756.288151" stroke="black" stroke-width="6.48"/>
<line x1="2032.924367" y1="1979.880289" x2="2032.924367" y2="1948.992289" stroke="black" stroke-width="6.48"/>
<line x1="2032.924367" y1="1948.992289" x2="1823.361167" y2="1948.992289" stroke="black" stroke-width="6.48"/>
<line x1="1823.361167" y1="1948.992289" x2="1823.361167" y2="1979.880289" stroke="black" stroke-width="6.48"/>
<line x1="1823.361167" y1="1979.880289" x2="2032.924367" y2="1979.880289" stroke="black" stroke-width="6.48"/>
<line x1="2032.924367" y1="1776.019489" x2="2032.924367" y2="1745.131489" stroke="black" stroke-width="6.48"/>
<line x1="2032.924367" y1="1745.131489" x2="1823.361167" y2="1745.131489" stroke="black" stroke-width="6.48"/>
<line x1="1823.361167" y1="1745.131489" x2="1823.361167" y2="1776.019489" stroke="black" stroke-width="6.48"/>
<line x1="1823.361167" y1="1776.019489" x2="2032.924367" y2="1776.019489" stroke="black" stroke-width="6.48"/>
<line x1="2032.924367" y1="1949.467489" x2="2032.924367" y2="1776.019489" stroke="black" stroke-width="6.48"/>
<line x1="1824.311567" y1="1949.942689" x2="1798.175567" y2="1923.331489" stroke="black" stroke-width="6.48"/>
<line x1="1798.175567" y1="1802.155489" x2="1824.311567" y2="1775.544289" stroke="black" stroke-width="6.48"/>
<line x1="1798.175567" y1="1925.232289" x2="1798.175567" y2="1800.254689" stroke="black" stroke-width="6.48"/>
<line x1="1988.255567" y1="1948.992289" x2="1988.255567" y2="1775.544289" stroke="black" stroke-width="6.48"/>
<line x1="1485.415969" y1="209.267824" x2="1707.693134" y2="209.267824" stroke="black" stroke-width="6.48"/>
<line x1="1707.693134" y1="209.267824" x2="1707.693134" y2="432.000475" stroke="black" stroke-width="6.48"/>
<line x1="1707.693134" y1="432.000475" x2="1485.415969" y2="432.000475" stroke="black" stroke-width="6.48"/>
<line x1="1485.415969" y1="432.000475" x2="1485.415969" y2="209.267824" stroke="black" stroke-width="6.48"/>
<line x1="1484.960483" y1="208.812337" x2="1707.693134" y2="432.000475" stroke="black" stroke-width="6.48"/>
<line x1="1485.415969" y1="431.544989" x2="1707.237648" y2="209.267824" stroke="black" stroke-width="6.48"/>
<line x1="2586.780558" y1="1803.366338" x2="2586.780558" y2="2194.614338" stroke="black" stroke-width="6.48"/>
<line x1="2586.780558" y1="2194.614338" x2="2761.020558" y2="2194.614338" stroke="black" stroke-width="6.48"/>
<line x1="2761.020558" y1="2194.614338" x2="2761.020558" y2="1803.366338" stroke="black" stroke-width="6.48"/>
<line x1="2761.020558" y1="1803.366338" x2="2586.780558" y2="1803.366338" stroke="black" stroke-width="6.48"/>
<line x1="2734.092558" y1="2119.374338" x2="2734.092558" y2="1835.046338" stroke="black" stroke-width="6.48"/>
<line x1="2734.092558" y1="1835.046338" x2="2616.084558" y2="1835.046338" stroke="black" stroke-width="6.48"/>
<line x1="2616.084558" y1="1835.046338" x2="2616.084558" y2="2124.918338" stroke="black" stroke-width="6.48"/>
<path d="m 2734.347982,2118.563766 a 63.35999941905905,63.35999941905905 0 0 1 -119.37432999999965,4.2938139999996565" fill="none" stroke="black" stroke-width="6.48"/>
<line x1="2081.118726" y1="1889.151966" x2="2056.566726" y2="1907.763966" stroke="black" stroke-width="6.48"/>
<line x1="2056.566726" y1="1907.763966" x2="2056.566726" y2="2055.075966" stroke="black" stroke-width="6.48"/>
<line x1="2056.566726" y1="2055.075966" x2="2084.682726" y2="2074.083966" stroke="black" stroke-width="6.48"/>
<line x1="2083.890726" y1="1910.931966" x2="2083.890726" y2="2053.887966" stroke="black" stroke-width="6.48"/>
<circle cx="2105.670726" cy="1980.231966" r="13.068000000000003" fill="none" stroke="black" stroke-width="6.48"/>
<path d="m 2083.22338,1912.485218 a 74.84400053362336,74.84400053362336 0 1 1 0.40204799999992247,139.60900500000002" fill="none" stroke="black" stroke-width="6.48"/>
<path d="m 2080.461362,1889.198269 a 95.43599883324424,95.43599883324424 0 1 1 3.0749580000001515,184.46699500000022" fill="none" stroke="black" stroke-width="6.48"/>
<line x1="1003.490989" y1="211.359136" x2="1396.734862" y2="211.359136" stroke="black" stroke-width="6.48"/>
<line x1="1400.690268" y1="210.362854" x2="1400.690268" y2="346.431629" stroke="black" stroke-width="6.48"/>
<line x1="1003.955378" y1="347.583136" x2="1400.995609" y2="347.583136" stroke="black" stroke-width="6.48"/>
<line x1="1004.690268" y1="212.053885" x2="1004.690268" y2="347.317942" stroke="black" stroke-width="6.48"/>
<line x1="1014.986268" y1="222.447136" x2="1138.538268" y2="222.447136" stroke="black" stroke-width="6.48"/>
<line x1="1138.538268" y1="222.447136" x2="1138.538268" y2="336.495136" stroke="black" stroke-width="6.48"/>
<line x1="1014.986268" y1="336.495136" x2="1138.538268" y2="336.495136" stroke="black" stroke-width="6.48"/>
<line x1="1014.986268" y1="222.447136" x2="1014.986268" y2="336.495136" stroke="black" stroke-width="6.48"/>
<line x1="1157.546268" y1="229.575136" x2="1244.666268" y2="229.575136" stroke="black" stroke-width="6.48"/>
<line x1="1157.546268" y1="249.375136" x2="1244.666268" y2="249.375136" stroke="black" stroke-width="6.48"/>
<line x1="1158.338268" y1="269.967136" x2="1244.666268" y2="269.967136" stroke="black" stroke-width="6.48"/>
<line x1="1158.338268" y1="289.767136" x2="1244.666268" y2="289.767136" stroke="black" stroke-width="6.48"/>
<line x1="1157.546268" y1="309.567136" x2="1244.666268" y2="309.567136" stroke="black" stroke-width="6.48"/>
<line x1="1157.546268" y1="329.367136" x2="1244.666268" y2="329.367136" stroke="black" stroke-width="6.48"/>
<line x1="1062.506268" y1="335.703136" x2="1062.506268" y2="322.239136" stroke="black" stroke-width="6.48"/>
<line x1="1062.506268" y1="322.239136" x2="1092.602268" y2="322.239136" stroke="black" stroke-width="6.48"/>
<line x1="1092.602268" y1="322.239136" x2="1092.602268" y2="334.911136" stroke="black" stroke-width="6.48"/>
<line x1="1265.258268" y1="222.447136" x2="1388.810268" y2="222.447136" stroke="black" stroke-width="6.48"/>
<line x1="1388.810268" y1="222.447136" x2="1388.810268" y2="336.495136" stroke="black" stroke-width="6.48"/>
<line x1="1265.258268" y1="336.495136" x2="1388.810268" y2="336.495136" stroke="black" stroke-width="6.48"/>
<line x1="1265.258268" y1="222.447136" x2="1265.258268" y2="336.495136" stroke="black" stroke-width="6.48"/>
<line x1="1312.778268" y1="336.495136" x2="1312.778268" y2="323.031136" stroke="black" stroke-width="6.48"/>
<line x1="1312.778268" y1="323.031136" x2="1342.874268" y2="323.031136" stroke="black" stroke-width="6.48"/>
<line x1="1342.874268" y1="323.031136" x2="1342.874268" y2="335.703136" stroke="black" stroke-width="6.48"/>
<circle cx="1124.282268" cy="236.703136" r="7.128000000000001" fill="none" stroke="black" stroke-width="6.48"/>
<circle cx="1374.554268" cy="237.495136" r="7.128000000000001" fill="none" stroke="black" stroke-width="6.48"/>
<line x1="952.955795" y1="1440.361364" x2="822.857173" y2="1417.42147" stroke="black" stroke-width="6.48"/>
<line x1="822.857173" y1="1417.42147" x2="825.332706" y2="1403.382049" stroke="black" stroke-width="6.48"/>
<line x1="955.43132" y1="1426.321948" x2="825.332706" y2="1403.382049" stroke="black" stroke-width="6.48"/>
<line x1="952.955795" y1="1440.361364" x2="955.43132" y2="1426.321948" stroke="black" stroke-width="6.48"/>
<line x1="942.327864" y1="1424.011453" x2="949.645948" y2="1393.454801" stroke="black" stroke-width="6.48"/>
<line x1="838.436162" y1="1405.692544" x2="842.175436" y2="1373.539792" stroke="black" stroke-width="6.48"/>
<line x1="1032.997882" y1="986.420142" x2="902.89926" y2="963.480244" stroke="black" stroke-width="6.48"/>
<line x1="902.89926" y1="963.480244" x2="900.588766" y2="976.583704" stroke="black" stroke-width="6.48"/>
<line x1="1030.687387" y1="999.523598" x2="900.588766" y2="976.583704" stroke="black" stroke-width="6.48"/>
<line x1="1032.997882" y1="986.420142" x2="1030.687387" y2="999.523598" stroke="black" stroke-width="6.48"/>
<line x1="1018.189822" y1="999.250063" x2="1014.61558" y2="1030.466858" stroke="black" stroke-width="6.48"/>
<line x1="914.298116" y1="980.931154" x2="905.879034" y2="1012.258732" stroke="black" stroke-width="6.48"/>
<line x1="690.422926" y1="1227.114108" x2="704.462346" y2="1229.589637" stroke="black" stroke-width="6.48"/>
<line x1="704.462346" y1="1229.589637" x2="727.402244" y2="1099.491016" stroke="black" stroke-width="6.48"/>
<line x1="713.362824" y1="1097.01549" x2="727.402244" y2="1099.491016" stroke="black" stroke-width="6.48"/>
<line x1="690.422926" y1="1227.114108" x2="713.362824" y2="1097.01549" stroke="black" stroke-width="6.48"/>
<line x1="724.926715" y1="1113.530436" x2="757.244506" y2="1116.333752" stroke="black" stroke-width="6.48"/>
<line x1="706.77284" y1="1216.486177" x2="738.265453" y2="1223.969299" stroke="black" stroke-width="6.48"/>
<line x1="1143.263153" y1="1307.92712" x2="1129.22374" y2="1305.451588" stroke="black" stroke-width="6.48"/>
<line x1="1129.22374" y1="1305.451588" x2="1152.163634" y2="1175.352973" stroke="black" stroke-width="6.48"/>
<line x1="1166.203055" y1="1177.828499" x2="1152.163634" y2="1175.352973" stroke="black" stroke-width="6.48"/>
<line x1="1143.263153" y1="1307.92712" x2="1166.203055" y2="1177.828499" stroke="black" stroke-width="6.48"/>
<line x1="1149.688102" y1="1189.392394" x2="1118.360527" y2="1180.973311" stroke="black" stroke-width="6.48"/>
<line x1="1131.534227" y1="1292.348131" x2="1099.381475" y2="1288.608858" stroke="black" stroke-width="6.48"/>
<circle cx="928.312992" cy="1202.471302" r="191.98080000000002" fill="none" stroke="black" stroke-width="6.48"/>
<line x1="2044.889399" y1="955.822399" x2="2267.166564" y2="955.822399" stroke="black" stroke-width="6.48"/>
<line x1="2267.166564" y1="955.822399" x2="2267.166564" y2="1178.555051" stroke="black" stroke-width="6.48"/>
<line x1="2267.166564" y1="1178.555051" x2="2044.889399" y2="1178.555051" stroke="black" stroke-width="6.48"/>
<line x1="2044.889399" y1="1178.555051" x2="2044.889399" y2="955.822399" stroke="black" stroke-width="6.48"/>
<line x1="2044.433912" y1="955.366913" x2="2267.166564" y2="1178.555051" stroke="black" stroke-width="6.48"/>
<line x1="2044.889399" y1="1178.099564" x2="2266.711078" y2="955.822399" stroke="black" stroke-width="6.48"/>
<line x1="333.766206" y1="1375.361078" x2="333.766206" y2="949.854546" stroke="black" stroke-width="6.48"/>
<line x1="333.766206" y1="949.854546" x2="257.659348" y2="949.854546" stroke="black" stroke-width="6.48"/>
<line x1="257.659348" y1="949.854546" x2="257.659348" y2="1375.361078" stroke="black" stroke-width="6.48"/>
<line x1="257.659348" y1="1375.361078" x2="333.766206" y2="1375.361078" stroke="black" stroke-width="6.48"/>
<line x1="333.766206" y1="1355.469512" x2="359.711726" y2="1355.469512" stroke="black" stroke-width="6.48"/>
<line x1="359.711726" y1="1355.469512" x2="359.711726" y2="970.610962" stroke="black" stroke-width="6.48"/>
<line x1="333.766206" y1="970.610962" x2="359.711726" y2="970.610962" stroke="black" stroke-width="6.48"/>
<line x1="3874.406537" y1="1514.726719" x2="3874.406537" y2="1940.260162" stroke="black" stroke-width="6.48"/>
<line x1="3874.406537" y1="1940.260162" x2="3940.00601" y2="1940.260162" stroke="black" stroke-width="6.48"/>
<line x1="3940.00601" y1="1940.260162" x2="3940.00601" y2="1514.726719" stroke="black" stroke-width="6.48"/>
<line x1="3940.00601" y1="1514.726719" x2="3874.406537" y2="1514.726719" stroke="black" stroke-width="6.48"/>
<line x1="3939.14286" y1="1554.431663" x2="3875.269687" y2="1554.431663" stroke="black" stroke-width="6.48"/>
<line x1="3939.14286" y1="1899.692064" x2="3872.680232" y2="1899.692064" stroke="black" stroke-width="6.48"/>
<line x1="3908.932574" y1="1553.568512" x2="3908.932574" y2="1898.828914" stroke="black" stroke-width="6.48"/>
<line x1="4925.290072" y1="1439.565559" x2="4683.438544" y2="1130.009717" stroke="black" stroke-width="6.48"/>
<line x1="4683.438544" y1="1130.009717" x2="4538.022188" y2="1243.621426" stroke="black" stroke-width="6.48"/>
<line x1="4538.022188" y1="1243.621426" x2="4779.87372" y2="1553.177264" stroke="black" stroke-width="6.48"/>
<line x1="4779.87372" y1="1553.177264" x2="4925.290072" y2="1439.565559" stroke="black" stroke-width="6.48"/>
<line x1="4681.865336" y1="1427.732258" x2="4618.206677" y2="1477.467857" stroke="black" stroke-width="6.48"/>
<line x1="4618.206677" y1="1477.467857" x2="4666.479458" y2="1539.254203" stroke="black" stroke-width="6.48"/>
<line x1="4666.479458" y1="1539.254203" x2="4730.138122" y2="1489.518601" stroke="black" stroke-width="6.48"/>
<line x1="4679.722156" y1="1527.902813" x2="4631.936976" y2="1466.740566" stroke="black" stroke-width="6.48"/>
<line x1="4939.83724" y1="1325.683696" x2="4891.564454" y2="1263.897349" stroke="black" stroke-width="6.48"/>
<line x1="4891.564454" y1="1263.897349" x2="4827.281692" y2="1314.120553" stroke="black" stroke-width="6.48"/>
<line x1="4875.554477" y1="1375.9069" x2="4939.83724" y2="1325.683696" stroke="black" stroke-width="6.48"/>
<line x1="4925.619338" y1="1335.78688" x2="4877.834155" y2="1274.624636" stroke="black" stroke-width="6.48"/>
<line x1="4588.732994" y1="1308.528295" x2="4525.074335" y2="1358.26389" stroke="black" stroke-width="6.48"/>
<line x1="4525.074335" y1="1358.26389" x2="4573.34712" y2="1420.05024" stroke="black" stroke-width="6.48"/>
<line x1="4573.34712" y1="1420.05024" x2="4637.00578" y2="1370.314642" stroke="black" stroke-width="6.48"/>
<line x1="4587.077416" y1="1409.322953" x2="4538.804634" y2="1347.536603" stroke="black" stroke-width="6.48"/>
<line x1="4846.704898" y1="1206.479736" x2="4798.432112" y2="1144.69339" stroke="black" stroke-width="6.48"/>
<line x1="4798.432112" y1="1144.69339" x2="4734.149346" y2="1194.91659" stroke="black" stroke-width="6.48"/>
<line x1="4782.422131" y1="1256.702936" x2="4846.704898" y2="1206.479736" stroke="black" stroke-width="6.48"/>
<line x1="4832.974598" y1="1217.20702" x2="4784.70181" y2="1155.420673" stroke="black" stroke-width="6.48"/>
<line x1="3137.834538" y1="1074.427301" x2="3347.199742" y2="1074.427301" stroke="black" stroke-width="6.48"/>
<line x1="3347.199742" y1="1074.427301" x2="3347.199742" y2="743.212897" stroke="black" stroke-width="6.48"/>
<line x1="3347.199742" y1="743.212897" x2="3137.834538" y2="743.212897" stroke="black" stroke-width="6.48"/>
<line x1="3137.834538" y1="743.212897" x2="3137.834538" y2="1074.427301" stroke="black" stroke-width="6.48"/>
<line x1="3137.161338" y1="802.454497" x2="3347.872938" y2="802.454497" stroke="black" stroke-width="6.48"/>
<line x1="3347.872938" y1="802.454497" x2="3138.507738" y2="852.271301" stroke="black" stroke-width="6.48"/>
<line x1="3138.507738" y1="852.271301" x2="3170.148142" y2="898.722101" stroke="black" stroke-width="6.48"/>
<line x1="3170.148142" y1="898.722101" x2="3347.872938" y2="801.781301" stroke="black" stroke-width="6.48"/>
<line x1="3191.714176" y1="1204.017815" x2="3413.991341" y2="1204.017815" stroke="black" stroke-width="6.48"/>
<line x1="3413.991341" y1="1204.017815" x2="3413.991341" y2="1426.750466" stroke="black" stroke-width="6.48"/>
<line x1="3413.991341" y1="1426.750466" x2="3191.714176" y2="1426.750466" stroke="black" stroke-width="6.48"/>
<line x1="3191.714176" y1="1426.750466" x2="3191.714176" y2="1204.017815" stroke="black" stroke-width="6.48"/>
<line x1="3191.258689" y1="1203.562328" x2="3413.991341" y2="1426.750466" stroke="black" stroke-width="6.48"/>
<line x1="3191.714176" y1="1426.29498" x2="3413.535854" y2="1204.017815" stroke="black" stroke-width="6.48"/>
<line x1="2804.16708" y1="1127.69402" x2="2804.16708" y2="1153.148746" stroke="black" stroke-width="6.48"/>
<line x1="2804.16708" y1="1153.148746" x2="2853.834836" y2="1153.148746" stroke="black" stroke-width="6.48"/>
<line x1="2853.834836" y1="1153.148746" x2="2853.834836" y2="1127.69402" stroke="black" stroke-width="6.48"/>
<line x1="2853.834836" y1="1127.69402" x2="2804.16708" y2="1127.69402" stroke="black" stroke-width="6.48"/>
<line x1="2853.834836" y1="1402.108373" x2="3101.55277" y2="1402.108373" stroke="black" stroke-width="6.48"/>
<line x1="2802.925386" y1="1402.729218" x2="2802.925386" y2="1428.183943" stroke="black" stroke-width="6.48"/>
<line x1="2802.925386" y1="1428.183943" x2="2852.593142" y2="1428.183943" stroke="black" stroke-width="6.48"/>
<line x1="2852.593142" y1="1428.183943" x2="2852.593142" y2="1402.729218" stroke="black" stroke-width="6.48"/>
<line x1="2852.593142" y1="1402.729218" x2="2802.925386" y2="1402.729218" stroke="black" stroke-width="6.48"/>
<path d="m 2851.972294,1153.148746 a 248.95962699999984,248.95962699999984 0 0 1 248.95962699999973,248.95962699999995" fill="none" stroke="black" stroke-width="6.48"/>
<line x1="3444.569662" y1="1928.596248" x2="3420.32976" y2="1697.969005" stroke="black" stroke-width="6.48"/>
<line x1="3420.32976" y1="1697.969005" x2="3651.4296" y2="1673.679434" stroke="black" stroke-width="6.48"/>
<line x1="3651.4296" y1="1673.679434" x2="3675.669502" y2="1904.306674" stroke="black" stroke-width="6.48"/>
<line x1="3675.669502" y1="1904.306674" x2="3444.569662" y2="1928.596248" stroke="black" stroke-width="6.48"/>
<line x1="3444.146737" y1="1929.118514" x2="3651.4296" y2="1673.679434" stroke="black" stroke-width="6.48"/>
<line x1="3675.196901" y1="1904.356346" x2="3420.379433" y2="1698.441606" stroke="black" stroke-width="6.48"/>
<line x1="3079.021345" y1="1589.315879" x2="3065.967511" y2="1617.309914" stroke="black" stroke-width="6.48"/>
<line x1="3065.967511" y1="1617.309914" x2="3255.896275" y2="1705.875149" stroke="black" stroke-width="6.48"/>
<line x1="3255.896275" y1="1705.875149" x2="3268.950106" y2="1677.881113" stroke="black" stroke-width="6.48"/>
<line x1="3268.950106" y1="1677.881113" x2="3079.021345" y2="1589.315879" stroke="black" stroke-width="6.48"/>
<line x1="2992.866048" y1="1774.076508" x2="2979.812214" y2="1802.07054" stroke="black" stroke-width="6.48"/>
<line x1="2979.812214" y1="1802.07054" x2="3169.740974" y2="1890.635778" stroke="black" stroke-width="6.48"/>
<line x1="3169.740974" y1="1890.635778" x2="3182.794808" y2="1862.641742" stroke="black" stroke-width="6.48"/>
<line x1="3182.794808" y1="1862.641742" x2="2992.866048" y2="1774.076508" stroke="black" stroke-width="6.48"/>
<line x1="3066.168341" y1="1616.879236" x2="2992.866048" y2="1774.076508" stroke="black" stroke-width="6.48"/>
<line x1="3255.436573" y1="1704.612139" x2="3267.877457" y2="1739.775629" stroke="black" stroke-width="6.48"/>
<line x1="3216.666265" y1="1849.598377" x2="3181.732628" y2="1862.670766" stroke="black" stroke-width="6.48"/>
<line x1="3268.680768" y1="1738.052917" x2="3215.86295" y2="1851.321089" stroke="black" stroke-width="6.48"/>
<line x1="3106.451192" y1="1636.187764" x2="3033.1489" y2="1793.38504" stroke="black" stroke-width="6.48"/>
<line x1="3840.070216" y1="1126.752433" x2="3836.305915" y2="1096.094668" stroke="black" stroke-width="6.48"/>
<line x1="3836.305915" y1="1096.094668" x2="3628.30477" y2="1121.633996" stroke="black" stroke-width="6.48"/>
<line x1="3628.30477" y1="1121.633996" x2="3632.06907" y2="1152.291762" stroke="black" stroke-width="6.48"/>
<line x1="3632.06907" y1="1152.291762" x2="3840.070216" y2="1126.752433" stroke="black" stroke-width="6.48"/>
<line x1="3815.225838" y1="924.411182" x2="3811.461538" y2="893.753417" stroke="black" stroke-width="6.48"/>
<line x1="3811.461538" y1="893.753417" x2="3603.460388" y2="919.292742" stroke="black" stroke-width="6.48"/>
<line x1="3603.460388" y1="919.292742" x2="3607.224689" y2="949.950508" stroke="black" stroke-width="6.48"/>
<line x1="3607.224689" y1="949.950508" x2="3815.225838" y2="924.411182" stroke="black" stroke-width="6.48"/>
<line x1="3836.363832" y1="1096.566325" x2="3815.225838" y2="924.411182" stroke="black" stroke-width="6.48"/>
<line x1="3629.363911" y1="1122.461489" x2="3600.179633" y2="1099.233821" stroke="black" stroke-width="6.48"/>
<line x1="3585.411994" y1="978.96105" x2="3608.110091" y2="949.363027" stroke="black" stroke-width="6.48"/>
<line x1="3600.411286" y1="1101.120451" x2="3585.180344" y2="977.074416" stroke="black" stroke-width="6.48"/>
<line x1="3791.970072" y1="1101.538426" x2="3770.832078" y2="929.383279" stroke="black" stroke-width="6.48"/>
<line x1="1331.791535" y1="2024.090788" x2="1357.986038" y2="2040.458936" stroke="black" stroke-width="6.48"/>
<line x1="1357.986038" y1="2040.458936" x2="1469.037658" y2="1862.739292" stroke="black" stroke-width="6.48"/>
<line x1="1469.037658" y1="1862.739292" x2="1442.843154" y2="1846.371143" stroke="black" stroke-width="6.48"/>
<line x1="1442.843154" y1="1846.371143" x2="1331.791535" y2="2024.090788" stroke="black" stroke-width="6.48"/>
<line x1="1504.675274" y1="2132.120596" x2="1530.869774" y2="2148.488748" stroke="black" stroke-width="6.48"/>
<line x1="1530.869774" y1="2148.488748" x2="1641.921394" y2="1970.769103" stroke="black" stroke-width="6.48"/>
<line x1="1641.921394" y1="1970.769103" x2="1615.726894" y2="1954.400951" stroke="black" stroke-width="6.48"/>
<line x1="1615.726894" y1="1954.400951" x2="1504.675274" y2="2132.120596" stroke="black" stroke-width="6.48"/>
<line x1="1357.583044" y1="2040.20712" x2="1504.675274" y2="2132.120596" stroke="black" stroke-width="6.48"/>
<line x1="1467.728039" y1="1863.041638" x2="1504.145588" y2="1854.978854" stroke="black" stroke-width="6.48"/>
<line x1="1606.90865" y1="1919.192378" x2="1615.626248" y2="1955.45875" stroke="black" stroke-width="6.48"/>
<line x1="1502.53362" y1="1853.971585" x2="1608.520622" y2="1920.199644" stroke="black" stroke-width="6.48"/>
<line x1="1381.656906" y1="2002.577656" x2="1528.74913" y2="2094.491124" stroke="black" stroke-width="6.48"/>
<line x1="6097.170262" y1="1942.369074" x2="6068.070835" y2="2149.422246" stroke="black" stroke-width="6.48"/>
<line x1="6068.070835" y1="2149.422246" x2="6297.711628" y2="2181.696152" stroke="black" stroke-width="6.48"/>
<line x1="6297.711628" y1="2181.696152" x2="6326.81105" y2="1974.642984" stroke="black" stroke-width="6.48"/>
<line x1="6326.81105" y1="1974.642984" x2="6097.170262" y2="1942.369074" stroke="black" stroke-width="6.48"/>
<line x1="6129.169391" y1="1946.866255" x2="6100.069964" y2="2153.919427" stroke="black" stroke-width="6.48"/>
</g>
</svg>
