<?xml version="1.0"?>
<svg xmlns:xlink="http://www.w3.org/1999/xlink" width="6775.2" height="2858.4">
<image x="0" y="0" width="6775.2" height="2858.4" xlink:href="groundfilled-01.png"/>
<g style="stroke-linecap:round">
<line x1="1285.950406" y1="795.178109" x2="1311.346069" y2="795.178109" stroke="black" stroke-width="6.48"/>
<line x1="1311.346069" y1="795.178109" x2="1311.346069" y2="745.625592" stroke="black" stroke-width="6.48"/>
<line x1="1311.346069" y1="745.625592" x2="1285.950406" y2="745.625592" stroke="black" stroke-width="6.48"/>
<line x1="1285.950406" y1="745.625592" x2="1285.950406" y2="795.178109" stroke="black" stroke-width="6.48"/>
<line x1="1559.728062" y1="745.625592" x2="1559.728062" y2="498.48241" stroke="black" stroke-width="6.48"/>
<line x1="1560.347471" y1="796.416923" x2="1585.743134" y2="796.416923" stroke="black" stroke-width="6.48"/>
<line x1="1585.743134" y1="796.416923" x2="1585.743134" y2="746.864406" stroke="black" stroke-width="6.48"/>
<line x1="1585.743134" y1="746.864406" x2="1560.347471" y2="746.864406" stroke="black" stroke-width="6.48"/>
<line x1="1560.347471" y1="746.864406" x2="1560.347471" y2="796.416923" stroke="black" stroke-width="6.48"/>
<path d="m 1311.346069,747.483811 a 248.38199299999997,248.38199299999997 0 0 1 248.38199299999997,-248.38199299999997" fill="none" stroke="black" stroke-width="6.48"/>
<line x1="320.532556" y1="771.34176" x2="320.532556" y2="366.736194" stroke="black" stroke-width="6.48"/>
<line x1="320.532556" y1="366.736194" x2="258.159283" y2="366.736194" stroke="black" stroke-width="6.48"/>
<line x1="258.159283" y1="366.736194" x2="258.159283" y2="771.34176" stroke="black" stroke-width="6.48"/>
<line x1="258.159283" y1="771.34176" x2="320.532556" y2="771.34176" stroke="black" stroke-width="6.48"/>
<line x1="258.979986" y1="733.589518" x2="319.711856" y2="733.589518" stroke="black" stroke-width="6.48"/>
<line x1="258.979986" y1="405.309139" x2="322.173958" y2="405.309139" stroke="black" stroke-width="6.48"/>
<line x1="287.704519" y1="734.410217" x2="287.704519" y2="406.129838" stroke="black" stroke-width="6.48"/>
<line x1="3901.945176" y1="1169.331426" x2="3901.945176" y2="1428.837066" stroke="black" stroke-width="6.48"/>
<line x1="3901.945176" y1="1428.837066" x2="3941.9501" y2="1428.837066" stroke="black" stroke-width="6.48"/>
<line x1="3941.9501" y1="1428.837066" x2="3941.9501" y2="1169.331426" stroke="black" stroke-width="6.48"/>
<line x1="3941.9501" y1="1169.331426" x2="3901.945176" y2="1169.331426" stroke="black" stroke-width="6.48"/>
<line x1="3941.423719" y1="1193.544936" x2="3902.471557" y2="1193.544936" stroke="black" stroke-width="6.48"/>
<line x1="3941.423719" y1="1404.097178" x2="3900.892414" y2="1404.097178" stroke="black" stroke-width="6.48"/>
<line x1="3923.000399" y1="1193.018555" x2="3923.000399" y2="1403.570797" stroke="black" stroke-width="6.48"/>
<line x1="323.923298" y1="1882.957399" x2="323.923298" y2="1457.423957" stroke="black" stroke-width="6.48"/>
<line x1="323.923298" y1="1457.423957" x2="258.323825" y2="1457.423957" stroke="black" stroke-width="6.48"/>
<line x1="258.323825" y1="1457.423957" x2="258.323825" y2="1882.957399" stroke="black" stroke-width="6.48"/>
<line x1="258.323825" y1="1882.957399" x2="323.923298" y2="1882.957399" stroke="black" stroke-width="6.48"/>
<line x1="259.186975" y1="1843.252456" x2="323.060148" y2="1843.252456" stroke="black" stroke-width="6.48"/>
<line x1="259.186975" y1="1497.992054" x2="325.649603" y2="1497.992054" stroke="black" stroke-width="6.48"/>
<line x1="289.397261" y1="1844.115606" x2="289.397261" y2="1498.855205" stroke="black" stroke-width="6.48"/>
<line x1="2747.905531" y1="904.670665" x2="2721.68303" y2="904.670665" stroke="black" stroke-width="6.48"/>
<line x1="2721.68303" y1="904.670665" x2="2721.68303" y2="955.836522" stroke="black" stroke-width="6.48"/>
<line x1="2721.68303" y1="955.836522" x2="2747.905531" y2="955.836522" stroke="black" stroke-width="6.48"/>
<line x1="2747.905531" y1="955.836522" x2="2747.905531" y2="904.670665" stroke="black" stroke-width="6.48"/>
<line x1="2465.214181" y1="955.836522" x2="2465.214181" y2="1211.026223" stroke="black" stroke-width="6.48"/>
<line x1="2464.574609" y1="903.39152" x2="2438.352108" y2="903.39152" stroke="black" stroke-width="6.48"/>
<line x1="2438.352108" y1="903.39152" x2="2438.352108" y2="954.557374" stroke="black" stroke-width="6.48"/>
<line x1="2438.352108" y1="954.557374" x2="2464.574609" y2="954.557374" stroke="black" stroke-width="6.48"/>
<line x1="2464.574609" y1="954.557374" x2="2464.574609" y2="903.39152" stroke="black" stroke-width="6.48"/>
<path d="m 2721.68303,953.917801 a 256.4688490000001,256.4688490000001 0 0 1 -256.4688490000003,256.46884899999986" fill="none" stroke="black" stroke-width="6.48"/>
<line x1="2420.532389" y1="1427.858834" x2="2395.136725" y2="1427.858834" stroke="black" stroke-width="6.48"/>
<line x1="2395.136725" y1="1427.858834" x2="2395.136725" y2="1477.411351" stroke="black" stroke-width="6.48"/>
<line x1="2395.136725" y1="1477.411351" x2="2420.532389" y2="1477.411351" stroke="black" stroke-width="6.48"/>
<line x1="2420.532389" y1="1477.411351" x2="2420.532389" y2="1427.858834" stroke="black" stroke-width="6.48"/>
<line x1="2146.754732" y1="1477.411351" x2="2146.754732" y2="1724.554534" stroke="black" stroke-width="6.48"/>
<line x1="2146.135324" y1="1426.62002" x2="2120.73966" y2="1426.62002" stroke="black" stroke-width="6.48"/>
<line x1="2120.73966" y1="1426.62002" x2="2120.73966" y2="1476.172537" stroke="black" stroke-width="6.48"/>
<line x1="2120.73966" y1="1476.172537" x2="2146.135324" y2="1476.172537" stroke="black" stroke-width="6.48"/>
<line x1="2146.135324" y1="1476.172537" x2="2146.135324" y2="1426.62002" stroke="black" stroke-width="6.48"/>
<path d="m 2395.136725,1475.553132 a 248.38199299999997,248.38199299999997 0 0 1 -248.38199299999997,248.38199299999997" fill="none" stroke="black" stroke-width="6.48"/>
<line x1="824.491487" y1="541.339351" x2="1056.389087" y2="541.339351" stroke="black" stroke-width="6.48"/>
<line x1="1056.389087" y1="541.339351" x2="1056.389087" y2="773.712151" stroke="black" stroke-width="6.48"/>
<line x1="1056.389087" y1="773.712151" x2="824.491487" y2="773.712151" stroke="black" stroke-width="6.48"/>
<line x1="824.491487" y1="773.712151" x2="824.491487" y2="541.339351" stroke="black" stroke-width="6.48"/>
<line x1="824.016287" y1="540.864151" x2="1056.389087" y2="773.712151" stroke="black" stroke-width="6.48"/>
<line x1="824.491487" y1="773.236951" x2="1055.913887" y2="541.339351" stroke="black" stroke-width="6.48"/>
<line x1="2032.924367" y1="2092.88916" x2="2032.924367" y2="1883.80116" stroke="black" stroke-width="6.48"/>
<line x1="2032.924367" y1="1883.80116" x2="1801.026767" y2="1883.80116" stroke="black" stroke-width="6.48"/>
<line x1="1801.026767" y1="1883.80116" x2="1801.026767" y2="2092.88916" stroke="black" stroke-width="6.48"/>
<line x1="1801.026767" y1="2092.88916" x2="2032.924367" y2="2092.88916" stroke="black" stroke-width="6.48"/>
<line x1="2000.610767" y1="2092.88916" x2="2000.610767" y2="1883.80116" stroke="black" stroke-width="6.48"/>
<line x1="1485.415969" y1="209.267824" x2="1707.693134" y2="209.267824" stroke="black" stroke-width="6.48"/>
<line x1="1707.693134" y1="209.267824" x2="1707.693134" y2="432.000475" stroke="black" stroke-width="6.48"/>
<line x1="1707.693134" y1="432.000475" x2="1485.415969" y2="432.000475" stroke="black" stroke-width="6.48"/>
<line x1="1485.415969" y1="432.000475" x2="1485.415969" y2="209.267824" stroke="black" stroke-width="6.48"/>
<line x1="1484.960483" y1="208.812337" x2="1707.693134" y2="432.000475" stroke="black" stroke-width="6.48"/>
<line x1="1485.415969" y1="431.544989" x2="1707.237648" y2="209.267824" stroke="black" stroke-width="6.48"/>
<line x1="2761.020558" y1="2194.614338" x2="2761.020558" y2="1803.366338" stroke="black" stroke-width="6.48"/>
<line x1="2761.020558" y1="1803.366338" x2="2586.780558" y2="1803.366338" stroke="black" stroke-width="6.48"/>
<line x1="2586.780558" y1="1803.366338" x2="2586.780558" y2="2194.614338" stroke="black" stroke-width="6.48"/>
<line x1="2586.780558" y1="2194.614338" x2="2761.020558" y2="2194.614338" stroke="black" stroke-width="6.48"/>
<line x1="2613.708558" y1="1878.606338" x2="2613.708558" y2="2162.934338" stroke="black" stroke-width="6.48"/>
<line x1="2613.708558" y1="2162.934338" x2="2731.716558" y2="2162.934338" stroke="black" stroke-width="6.48"/>
<line x1="2731.716558" y1="2162.934338" x2="2731.716558" y2="1873.062338" stroke="black" stroke-width="6.48"/>
<path d="m 2613.453134,1879.416911 a 63.3599990854681,63.3599990854681 0 0 1 119.3743300000001,-4.293814000000111" fill="none" stroke="black" stroke-width="6.48"/>
<line x1="2081.002802" y1="1874.545499" x2="2056.450802" y2="1893.157499" stroke="black" stroke-width="6.48"/>
<line x1="2056.450802" y1="1893.157499" x2="2056.450802" y2="2040.469499" stroke="black" stroke-width="6.48"/>
<line x1="2056.450802" y1="2040.469499" x2="2084.566802" y2="2059.477499" stroke="black" stroke-width="6.48"/>
<line x1="2083.774802" y1="1896.325499" x2="2083.774802" y2="2039.281499" stroke="black" stroke-width="6.48"/>
<circle cx="2105.554802" cy="1965.625499" r="13.068000000000003" fill="none" stroke="black" stroke-width="6.48"/>
<path d="m 2083.107456,1897.878751 a 74.84400053466219,74.84400053466219 0 1 1 0.40204799999992247,139.60900500000002" fill="none" stroke="black" stroke-width="6.48"/>
<path d="m 2080.345439,1874.591802 a 95.43599857690609,95.43599857690609 0 1 1 3.0749579999996968,184.46699500000022" fill="none" stroke="black" stroke-width="6.48"/>
<line x1="884.894951" y1="211.06917" x2="1278.138823" y2="211.06917" stroke="black" stroke-width="6.48"/>
<line x1="1282.09423" y1="210.072888" x2="1282.09423" y2="346.141663" stroke="black" stroke-width="6.48"/>
<line x1="885.35934" y1="347.29317" x2="1282.399571" y2="347.29317" stroke="black" stroke-width="6.48"/>
<line x1="886.09423" y1="211.76392" x2="886.09423" y2="347.027976" stroke="black" stroke-width="6.48"/>
<line x1="896.39023" y1="222.15717" x2="1019.94223" y2="222.15717" stroke="black" stroke-width="6.48"/>
<line x1="1019.94223" y1="222.15717" x2="1019.94223" y2="336.20517" stroke="black" stroke-width="6.48"/>
<line x1="896.39023" y1="336.20517" x2="1019.94223" y2="336.20517" stroke="black" stroke-width="6.48"/>
<line x1="896.39023" y1="222.15717" x2="896.39023" y2="336.20517" stroke="black" stroke-width="6.48"/>
<line x1="1038.95023" y1="229.28517" x2="1126.07023" y2="229.28517" stroke="black" stroke-width="6.48"/>
<line x1="1038.95023" y1="249.08517" x2="1126.07023" y2="249.08517" stroke="black" stroke-width="6.48"/>
<line x1="1039.74223" y1="269.67717" x2="1126.07023" y2="269.67717" stroke="black" stroke-width="6.48"/>
<line x1="1039.74223" y1="289.47717" x2="1126.07023" y2="289.47717" stroke="black" stroke-width="6.48"/>
<line x1="1038.95023" y1="309.27717" x2="1126.07023" y2="309.27717" stroke="black" stroke-width="6.48"/>
<line x1="1038.95023" y1="329.07717" x2="1126.07023" y2="329.07717" stroke="black" stroke-width="6.48"/>
<line x1="943.91023" y1="335.41317" x2="943.91023" y2="321.94917" stroke="black" stroke-width="6.48"/>
<line x1="943.91023" y1="321.94917" x2="974.00623" y2="321.94917" stroke="black" stroke-width="6.48"/>
<line x1="974.00623" y1="321.94917" x2="974.00623" y2="334.62117" stroke="black" stroke-width="6.48"/>
<line x1="1146.66223" y1="222.15717" x2="1270.21423" y2="222.15717" stroke="black" stroke-width="6.48"/>
<line x1="1270.21423" y1="222.15717" x2="1270.21423" y2="336.20517" stroke="black" stroke-width="6.48"/>
<line x1="1146.66223" y1="336.20517" x2="1270.21423" y2="336.20517" stroke="black" stroke-width="6.48"/>
<line x1="1146.66223" y1="222.15717" x2="1146.66223" y2="336.20517" stroke="black" stroke-width="6.48"/>
<line x1="1194.18223" y1="336.20517" x2="1194.18223" y2="322.74117" stroke="black" stroke-width="6.48"/>
<line x1="1194.18223" y1="322.74117" x2="1224.27823" y2="322.74117" stroke="black" stroke-width="6.48"/>
<line x1="1224.27823" y1="322.74117" x2="1224.27823" y2="335.41317" stroke="black" stroke-width="6.48"/>
<circle cx="1005.68623" cy="236.41317" r="7.128000000000001" fill="none" stroke="black" stroke-width="6.48"/>
<circle cx="1255.95823" cy="237.20517" r="7.128000000000001" fill="none" stroke="black" stroke-width="6.48"/>
<line x1="2044.889399" y1="955.822399" x2="2267.166564" y2="955.822399" stroke="black" stroke-width="6.48"/>
<line x1="2267.166564" y1="955.822399" x2="2267.166564" y2="1178.555051" stroke="black" stroke-width="6.48"/>
<line x1="2267.166564" y1="1178.555051" x2="2044.889399" y2="1178.555051" stroke="black" stroke-width="6.48"/>
<line x1="2044.889399" y1="1178.555051" x2="2044.889399" y2="955.822399" stroke="black" stroke-width="6.48"/>
<line x1="2044.433912" y1="955.366913" x2="2267.166564" y2="1178.555051" stroke="black" stroke-width="6.48"/>
<line x1="2044.889399" y1="1178.099564" x2="2266.711078" y2="955.822399" stroke="black" stroke-width="6.48"/>
<line x1="323.258818" y1="1375.374532" x2="323.258818" y2="949.841089" stroke="black" stroke-width="6.48"/>
<line x1="323.258818" y1="949.841089" x2="257.659344" y2="949.841089" stroke="black" stroke-width="6.48"/>
<line x1="257.659344" y1="949.841089" x2="257.659344" y2="1375.374532" stroke="black" stroke-width="6.48"/>
<line x1="257.659344" y1="1375.374532" x2="323.258818" y2="1375.374532" stroke="black" stroke-width="6.48"/>
<line x1="258.522494" y1="1335.669588" x2="322.395667" y2="1335.669588" stroke="black" stroke-width="6.48"/>
<line x1="258.522494" y1="990.409187" x2="324.985122" y2="990.409187" stroke="black" stroke-width="6.48"/>
<line x1="288.73278" y1="1336.532738" x2="288.73278" y2="991.272337" stroke="black" stroke-width="6.48"/>
<line x1="3874.406537" y1="1514.726719" x2="3874.406537" y2="1940.260162" stroke="black" stroke-width="6.48"/>
<line x1="3874.406537" y1="1940.260162" x2="3940.00601" y2="1940.260162" stroke="black" stroke-width="6.48"/>
<line x1="3940.00601" y1="1940.260162" x2="3940.00601" y2="1514.726719" stroke="black" stroke-width="6.48"/>
<line x1="3940.00601" y1="1514.726719" x2="3874.406537" y2="1514.726719" stroke="black" stroke-width="6.48"/>
<line x1="3939.14286" y1="1554.431663" x2="3875.269687" y2="1554.431663" stroke="black" stroke-width="6.48"/>
<line x1="3939.14286" y1="1899.692064" x2="3872.680232" y2="1899.692064" stroke="black" stroke-width="6.48"/>
<line x1="3908.932574" y1="1553.568512" x2="3908.932574" y2="1898.828914" stroke="black" stroke-width="6.48"/>
<line x1="4873.421048" y1="1708.693164" x2="4982.941555" y2="1634.820646" stroke="black" stroke-width="6.48"/>
<line x1="4982.941555" y1="1634.820646" x2="4990.91341" y2="1646.63941" stroke="black" stroke-width="6.48"/>
<line x1="4881.392903" y1="1720.511921" x2="4990.91341" y2="1646.63941" stroke="black" stroke-width="6.48"/>
<line x1="4873.421048" y1="1708.693164" x2="4881.392903" y2="1720.511921" stroke="black" stroke-width="6.48"/>
<line x1="4892.423746" y1="1713.071524" x2="4908.385991" y2="1740.135708" stroke="black" stroke-width="6.48"/>
<line x1="4979.882567" y1="1654.079803" x2="4999.527936" y2="1679.80608" stroke="black" stroke-width="6.48"/>
<line x1="5131.177661" y1="2090.833056" x2="5240.698171" y2="2016.960541" stroke="black" stroke-width="6.48"/>
<line x1="5240.698171" y1="2016.960541" x2="5233.257774" y2="2005.929702" stroke="black" stroke-width="6.48"/>
<line x1="5123.737264" y1="2079.802213" x2="5233.257774" y2="2005.929702" stroke="black" stroke-width="6.48"/>
<line x1="5131.177661" y1="2090.833056" x2="5123.737264" y2="2079.802213" stroke="black" stroke-width="6.48"/>
<line x1="5132.917278" y1="2071.317438" x2="5113.803362" y2="2046.379082" stroke="black" stroke-width="6.48"/>
<line x1="5220.376099" y1="2012.325718" x2="5204.670314" y2="1983.942158" stroke="black" stroke-width="6.48"/>
<line x1="5210.405381" y1="1679.719748" x2="5198.586624" y2="1687.691603" stroke="black" stroke-width="6.48"/>
<line x1="5198.586624" y1="1687.691603" x2="5272.459135" y2="1797.21211" stroke="black" stroke-width="6.48"/>
<line x1="5284.277896" y1="1789.240255" x2="5272.459135" y2="1797.21211" stroke="black" stroke-width="6.48"/>
<line x1="5210.405381" y1="1679.719748" x2="5284.277896" y2="1789.240255" stroke="black" stroke-width="6.48"/>
<line x1="5264.487284" y1="1785.393349" x2="5239.292465" y2="1805.826636" stroke="black" stroke-width="6.48"/>
<line x1="5206.027021" y1="1698.722446" x2="5178.174919" y2="1715.216144" stroke="black" stroke-width="6.48"/>
<line x1="4828.521946" y1="1936.15699" x2="4840.34071" y2="1928.185132" stroke="black" stroke-width="6.48"/>
<line x1="4840.34071" y1="1928.185132" x2="4914.213221" y2="2037.705642" stroke="black" stroke-width="6.48"/>
<line x1="4902.394464" y1="2045.677493" x2="4914.213221" y2="2037.705642" stroke="black" stroke-width="6.48"/>
<line x1="4828.521946" y1="1936.15699" x2="4902.394464" y2="2045.677493" stroke="black" stroke-width="6.48"/>
<line x1="4906.241366" y1="2025.886882" x2="4934.624926" y2="2010.181097" stroke="black" stroke-width="6.48"/>
<line x1="4847.781103" y1="1939.215978" x2="4873.50738" y2="1919.570609" stroke="black" stroke-width="6.48"/>
<circle cx="5056.399919" cy="1862.698619" r="191.98080000000002" fill="none" stroke="black" stroke-width="6.48"/>
<line x1="3253.041202" y1="1074.807522" x2="3462.406405" y2="1074.807522" stroke="black" stroke-width="6.48"/>
<line x1="3462.406405" y1="1074.807522" x2="3462.406405" y2="743.593118" stroke="black" stroke-width="6.48"/>
<line x1="3462.406405" y1="743.593118" x2="3253.041202" y2="743.593118" stroke="black" stroke-width="6.48"/>
<line x1="3253.041202" y1="743.593118" x2="3253.041202" y2="1074.807522" stroke="black" stroke-width="6.48"/>
<line x1="3252.368002" y1="802.834718" x2="3463.079602" y2="802.834718" stroke="black" stroke-width="6.48"/>
<line x1="3463.079602" y1="802.834718" x2="3253.714402" y2="852.651522" stroke="black" stroke-width="6.48"/>
<line x1="3253.714402" y1="852.651522" x2="3285.354805" y2="899.102322" stroke="black" stroke-width="6.48"/>
<line x1="3285.354805" y1="899.102322" x2="3463.079602" y2="802.161522" stroke="black" stroke-width="6.48"/>
<line x1="3226.151264" y1="1203.878394" x2="3448.42843" y2="1203.878394" stroke="black" stroke-width="6.48"/>
<line x1="3448.42843" y1="1203.878394" x2="3448.42843" y2="1426.611046" stroke="black" stroke-width="6.48"/>
<line x1="3448.42843" y1="1426.611046" x2="3226.151264" y2="1426.611046" stroke="black" stroke-width="6.48"/>
<line x1="3226.151264" y1="1426.611046" x2="3226.151264" y2="1203.878394" stroke="black" stroke-width="6.48"/>
<line x1="3225.695778" y1="1203.422908" x2="3448.42843" y2="1426.611046" stroke="black" stroke-width="6.48"/>
<line x1="3226.151264" y1="1426.155559" x2="3447.972943" y2="1203.878394" stroke="black" stroke-width="6.48"/>
<line x1="2804.16708" y1="1127.69402" x2="2804.16708" y2="1153.148746" stroke="black" stroke-width="6.48"/>
<line x1="2804.16708" y1="1153.148746" x2="2853.834836" y2="1153.148746" stroke="black" stroke-width="6.48"/>
<line x1="2853.834836" y1="1153.148746" x2="2853.834836" y2="1127.69402" stroke="black" stroke-width="6.48"/>
<line x1="2853.834836" y1="1127.69402" x2="2804.16708" y2="1127.69402" stroke="black" stroke-width="6.48"/>
<line x1="2853.834836" y1="1402.108373" x2="3101.55277" y2="1402.108373" stroke="black" stroke-width="6.48"/>
<line x1="2802.925386" y1="1402.729218" x2="2802.925386" y2="1428.183943" stroke="black" stroke-width="6.48"/>
<line x1="2802.925386" y1="1428.183943" x2="2852.593142" y2="1428.183943" stroke="black" stroke-width="6.48"/>
<line x1="2852.593142" y1="1428.183943" x2="2852.593142" y2="1402.729218" stroke="black" stroke-width="6.48"/>
<line x1="2852.593142" y1="1402.729218" x2="2802.925386" y2="1402.729218" stroke="black" stroke-width="6.48"/>
<path d="m 2851.972294,1153.148746 a 248.95962699999984,248.95962699999984 0 0 1 248.95962699999973,248.95962699999995" fill="none" stroke="black" stroke-width="6.48"/>
<line x1="2914.217165" y1="2001.03926" x2="2843.01202" y2="2177.278398" stroke="black" stroke-width="6.48"/>
<line x1="2843.01202" y1="2177.278398" x2="3273.035515" y2="2351.018948" stroke="black" stroke-width="6.48"/>
<line x1="3273.035515" y1="2351.018948" x2="3344.24066" y2="2174.779811" stroke="black" stroke-width="6.48"/>
<line x1="3344.24066" y1="2174.779811" x2="3322.21077" y2="2165.879167" stroke="black" stroke-width="6.48"/>
<line x1="3322.21077" y1="2165.879167" x2="3259.550243" y2="2320.969612" stroke="black" stroke-width="6.48"/>
<line x1="3259.550243" y1="2320.969612" x2="2874.467725" y2="2165.38637" stroke="black" stroke-width="6.48"/>
<line x1="2874.467725" y1="2165.38637" x2="2937.128252" y2="2010.29593" stroke="black" stroke-width="6.48"/>
<line x1="2937.128252" y1="2010.29593" x2="2914.217165" y2="2001.03926" stroke="black" stroke-width="6.48"/>
<line x1="2934.992099" y1="2015.583102" x2="3320.074616" y2="2171.166343" stroke="black" stroke-width="6.48"/>
<line x1="3127.448783" y1="2092.315514" x2="3066.924413" y2="2242.118783" stroke="black" stroke-width="6.48"/>
<line x1="3707.647387" y1="1764.638233" x2="3584.760383" y2="1961.298547" stroke="black" stroke-width="6.48"/>
<line x1="3584.760383" y1="1961.298547" x2="3387.697067" y2="1838.159726" stroke="black" stroke-width="6.48"/>
<line x1="3387.697067" y1="1838.159726" x2="3510.584078" y2="1641.499405" stroke="black" stroke-width="6.48"/>
<line x1="3510.584078" y1="1641.499405" x2="3707.647387" y2="1764.638233" stroke="black" stroke-width="6.48"/>
<line x1="3708.302195" y1="1764.487055" x2="3387.697067" y2="1838.159726" stroke="black" stroke-width="6.48"/>
<line x1="3510.987066" y1="1641.751222" x2="3585.012199" y2="1960.895556" stroke="black" stroke-width="6.48"/>
<line x1="3100.358268" y1="1589.315879" x2="3083.535454" y2="1615.220741" stroke="black" stroke-width="6.48"/>
<line x1="3083.535454" y1="1615.220741" x2="3259.289945" y2="1729.357034" stroke="black" stroke-width="6.48"/>
<line x1="3259.289945" y1="1729.357034" x2="3276.112752" y2="1703.45218" stroke="black" stroke-width="6.48"/>
<line x1="3276.112752" y1="1703.45218" x2="3100.358268" y2="1589.315879" stroke="black" stroke-width="6.48"/>
<line x1="2989.327716" y1="1760.287936" x2="2972.504909" y2="1786.19279" stroke="black" stroke-width="6.48"/>
<line x1="2972.504909" y1="1786.19279" x2="3148.259393" y2="1900.329088" stroke="black" stroke-width="6.48"/>
<line x1="3148.259393" y1="1900.329088" x2="3165.082207" y2="1874.424233" stroke="black" stroke-width="6.48"/>
<line x1="3165.082207" y1="1874.424233" x2="2989.327716" y2="1760.287936" stroke="black" stroke-width="6.48"/>
<line x1="3083.794268" y1="1614.822199" x2="2989.327716" y2="1760.287936" stroke="black" stroke-width="6.48"/>
<line x1="3259.010495" y1="1728.04234" x2="3266.436492" y2="1764.595055" stroke="black" stroke-width="6.48"/>
<line x1="3200.439312" y1="1866.221798" x2="3164.02632" y2="1874.305145" stroke="black" stroke-width="6.48"/>
<line x1="3267.47174" y1="1763.00091" x2="3199.40406" y2="1867.815943" stroke="black" stroke-width="6.48"/>
<line x1="3120.997864" y1="1639.549109" x2="3026.531315" y2="1785.014842" stroke="black" stroke-width="6.48"/>
<line x1="987.783538" y1="977.721066" x2="610.16918" y2="1086.000242" stroke="black" stroke-width="6.48"/>
<line x1="610.16918" y1="1086.000242" x2="661.034196" y2="1263.387629" stroke="black" stroke-width="6.48"/>
<line x1="661.034196" y1="1263.387629" x2="1038.64855" y2="1155.108456" stroke="black" stroke-width="6.48"/>
<line x1="1038.64855" y1="1155.108456" x2="987.783538" y2="977.721066" stroke="black" stroke-width="6.48"/>
<line x1="885.623378" y1="1198.987718" x2="907.890466" y2="1276.642282" stroke="black" stroke-width="6.48"/>
<line x1="907.890466" y1="1276.642282" x2="983.261074" y2="1255.03011" stroke="black" stroke-width="6.48"/>
<line x1="983.261074" y1="1255.03011" x2="960.993986" y2="1177.375543" stroke="black" stroke-width="6.48"/>
<line x1="977.69705" y1="1238.499389" x2="903.087763" y2="1259.89326" stroke="black" stroke-width="6.48"/>
<line x1="887.64358" y1="921.572269" x2="812.272972" y2="943.184444" stroke="black" stroke-width="6.48"/>
<line x1="812.272972" y1="943.184444" x2="834.758366" y2="1021.600328" stroke="black" stroke-width="6.48"/>
<line x1="910.128971" y1="999.988153" x2="887.64358" y2="921.572269" stroke="black" stroke-width="6.48"/>
<line x1="891.684965" y1="938.539598" x2="817.075674" y2="959.933466" stroke="black" stroke-width="6.48"/>
<line x1="740.211401" y1="1240.68393" x2="762.478488" y2="1318.338493" stroke="black" stroke-width="6.48"/>
<line x1="762.478488" y1="1318.338493" x2="837.849096" y2="1296.726322" stroke="black" stroke-width="6.48"/>
<line x1="837.849096" y1="1296.726322" x2="815.582005" y2="1219.071755" stroke="black" stroke-width="6.48"/>
<line x1="833.04639" y1="1279.977296" x2="757.675782" y2="1301.589472" stroke="black" stroke-width="6.48"/>
<line x1="742.231598" y1="963.268484" x2="666.86099" y2="984.88066" stroke="black" stroke-width="6.48"/>
<line x1="666.86099" y1="984.88066" x2="689.346385" y2="1063.296544" stroke="black" stroke-width="6.48"/>
<line x1="764.71699" y1="1041.684368" x2="742.231598" y2="963.268484" stroke="black" stroke-width="6.48"/>
<line x1="747.034304" y1="980.01751" x2="671.6637" y2="1001.629681" stroke="black" stroke-width="6.48"/>
<line x1="6189.482117" y1="2100.884083" x2="6192.710791" y2="2131.602876" stroke="black" stroke-width="6.48"/>
<line x1="6192.710791" y1="2131.602876" x2="6401.12598" y2="2109.697553" stroke="black" stroke-width="6.48"/>
<line x1="6401.12598" y1="2109.697553" x2="6397.897306" y2="2078.978764" stroke="black" stroke-width="6.48"/>
<line x1="6397.897306" y1="2078.978764" x2="6189.482117" y2="2100.884083" stroke="black" stroke-width="6.48"/>
<line x1="6210.79137" y1="2303.628109" x2="6214.020048" y2="2334.346902" stroke="black" stroke-width="6.48"/>
<line x1="6214.020048" y1="2334.346902" x2="6422.43524" y2="2312.441582" stroke="black" stroke-width="6.48"/>
<line x1="6422.43524" y1="2312.441582" x2="6419.206562" y2="2281.722793" stroke="black" stroke-width="6.48"/>
<line x1="6419.206562" y1="2281.722793" x2="6210.79137" y2="2303.628109" stroke="black" stroke-width="6.48"/>
<line x1="6192.661118" y1="2131.130275" x2="6210.79137" y2="2303.628109" stroke="black" stroke-width="6.48"/>
<line x1="6400.081444" y1="2108.851704" x2="6428.855894" y2="2132.585168" stroke="black" stroke-width="6.48"/>
<line x1="6441.522235" y1="2253.097354" x2="6418.311041" y2="2282.294732" stroke="black" stroke-width="6.48"/>
<line x1="6428.657207" y1="2130.694783" x2="6441.720926" y2="2254.987742" stroke="black" stroke-width="6.48"/>
<line x1="6237.134892" y1="2126.933716" x2="6255.26514" y2="2299.43155" stroke="black" stroke-width="6.48"/>
<line x1="2311.967999" y1="2280.769427" x2="2342.686792" y2="2283.998108" stroke="black" stroke-width="6.48"/>
<line x1="2342.686792" y1="2283.998108" x2="2364.592162" y2="2075.582923" stroke="black" stroke-width="6.48"/>
<line x1="2364.592162" y1="2075.582923" x2="2333.873369" y2="2072.354242" stroke="black" stroke-width="6.48"/>
<line x1="2333.873369" y1="2072.354242" x2="2311.967999" y2="2280.769427" stroke="black" stroke-width="6.48"/>
<line x1="2514.712025" y1="2302.078734" x2="2545.430814" y2="2305.307416" stroke="black" stroke-width="6.48"/>
<line x1="2545.430814" y1="2305.307416" x2="2567.336184" y2="2096.89223" stroke="black" stroke-width="6.48"/>
<line x1="2567.336184" y1="2096.89223" x2="2536.617395" y2="2093.663549" stroke="black" stroke-width="6.48"/>
<line x1="2536.617395" y1="2093.663549" x2="2514.712025" y2="2302.078734" stroke="black" stroke-width="6.48"/>
<line x1="2342.214194" y1="2283.948436" x2="2514.712025" y2="2302.078734" stroke="black" stroke-width="6.48"/>
<line x1="2363.547625" y1="2076.428772" x2="2392.745008" y2="2053.217585" stroke="black" stroke-width="6.48"/>
<line x1="2513.257189" y1="2065.883954" x2="2536.990646" y2="2094.658412" stroke="black" stroke-width="6.48"/>
<line x1="2390.854619" y1="2053.018897" x2="2515.147574" y2="2066.082642" stroke="black" stroke-width="6.48"/>
<line x1="2347.355963" y1="2239.574011" x2="2519.853793" y2="2257.704306" stroke="black" stroke-width="6.48"/>
<line x1="5746.167144" y1="1457.241408" x2="5737.653259" y2="1486.932858" stroke="black" stroke-width="6.48"/>
<line x1="5737.653259" y1="1486.932858" x2="5939.098337" y2="1544.696305" stroke="black" stroke-width="6.48"/>
<line x1="5939.098337" y1="1544.696305" x2="5947.612222" y2="1515.004855" stroke="black" stroke-width="6.48"/>
<line x1="5947.612222" y1="1515.004855" x2="5746.167144" y2="1457.241408" stroke="black" stroke-width="6.48"/>
<line x1="5689.975493" y1="1653.204985" x2="5681.461608" y2="1682.896439" stroke="black" stroke-width="6.48"/>
<line x1="5681.461608" y1="1682.896439" x2="5882.906686" y2="1740.659882" stroke="black" stroke-width="6.48"/>
<line x1="5882.906686" y1="1740.659882" x2="5891.42057" y2="1710.968432" stroke="black" stroke-width="6.48"/>
<line x1="5891.42057" y1="1710.968432" x2="5689.975493" y2="1653.204985" stroke="black" stroke-width="6.48"/>
<line x1="5737.784242" y1="1486.476068" x2="5689.975493" y2="1653.204985" stroke="black" stroke-width="6.48"/>
<line x1="5938.446719" y1="1543.520758" x2="5956.235212" y2="1576.305144" stroke="black" stroke-width="6.48"/>
<line x1="5922.834581" y1="1692.786992" x2="5890.376005" y2="1711.163261" stroke="black" stroke-width="6.48"/>
<line x1="5956.759145" y1="1574.477975" x2="5922.310651" y2="1694.614154" stroke="black" stroke-width="6.48"/>
<line x1="5780.591665" y1="1499.24525" x2="5732.78292" y2="1665.974167" stroke="black" stroke-width="6.48"/>
<line x1="1151.173778" y1="1596.904207" x2="980.330983" y2="1680.22975" stroke="black" stroke-width="6.48"/>
<line x1="980.330983" y1="1680.22975" x2="1183.645314" y2="2097.086162" stroke="black" stroke-width="6.48"/>
<line x1="1183.645314" y1="2097.086162" x2="1354.488109" y2="2013.760624" stroke="black" stroke-width="6.48"/>
<line x1="1354.488109" y1="2013.760624" x2="1344.072416" y2="1992.405272" stroke="black" stroke-width="6.48"/>
<line x1="1344.072416" y1="1992.405272" x2="1193.730757" y2="2065.731754" stroke="black" stroke-width="6.48"/>
<line x1="1193.730757" y1="2065.731754" x2="1011.664436" y2="1692.440251" stroke="black" stroke-width="6.48"/>
<line x1="1011.664436" y1="1692.440251" x2="1162.006096" y2="1619.11377" stroke="black" stroke-width="6.48"/>
<line x1="1162.006096" y1="1619.11377" x2="1151.173778" y2="1596.904207" stroke="black" stroke-width="6.48"/>
<line x1="1156.880812" y1="1621.613538" x2="1338.947132" y2="1994.905037" stroke="black" stroke-width="6.48"/>
<line x1="1248.559873" y1="1807.41555" x2="1103.343498" y2="1878.242267" stroke="black" stroke-width="6.48"/>
</g>
</svg>
