<?xml version="1.0"?>
<svg xmlns:xlink="http://www.w3.org/1999/xlink" width="6775.2" height="2858.4">
<image x="0" y="0" width="6775.2" height="2858.4" xlink:href="groundfilled-01.png"/>
<g style="stroke-linecap:round">
<line x1="1285.950406" y1="795.178109" x2="1311.346069" y2="795.178109" stroke="black" stroke-width="6.48"/>
<line x1="1311.346069" y1="795.178109" x2="1311.346069" y2="745.625592" stroke="black" stroke-width="6.48"/>
<line x1="1311.346069" y1="745.625592" x2="1285.950406" y2="745.625592" stroke="black" stroke-width="6.48"/>
<line x1="1285.950406" y1="745.625592" x2="1285.950406" y2="795.178109" stroke="black" stroke-width="6.48"/>
<line x1="1559.728062" y1="745.625592" x2="1559.728062" y2="498.48241" stroke="black" stroke-width="6.48"/>
<line x1="1560.347471" y1="796.416923" x2="1585.743134" y2="796.416923" stroke="black" stroke-width="6.48"/>
<line x1="1585.743134" y1="796.416923" x2="1585.743134" y2="746.864406" stroke="black" stroke-width="6.48"/>
<line x1="1585.743134" y1="746.864406" x2="1560.347471" y2="746.864406" stroke="black" stroke-width="6.48"/>
<line x1="1560.347471" y1="746.864406" x2="1560.347471" y2="796.416923" stroke="black" stroke-width="6.48"/>
<path d="m 1311.346069,747.483811 a 248.38199299999997,248.38199299999997 0 0 1 248.38199299999997,-248.38199299999997" fill="none" stroke="black" stroke-width="6.48"/>
<line x1="320.532556" y1="771.34176" x2="320.532556" y2="366.736194" stroke="black" stroke-width="6.48"/>
<line x1="320.532556" y1="366.736194" x2="258.159283" y2="366.736194" stroke="black" stroke-width="6.48"/>
<line x1="258.159283" y1="366.736194" x2="258.159283" y2="771.34176" stroke="black" stroke-width="6.48"/>
<line x1="258.159283" y1="771.34176" x2="320.532556" y2="771.34176" stroke="black" stroke-width="6.48"/>
<line x1="258.979986" y1="733.589518" x2="319.711856" y2="733.589518" stroke="black" stroke-width="6.48"/>
<line x1="258.979986" y1="405.309139" x2="322.173958" y2="405.309139" stroke="black" stroke-width="6.48"/>
<line x1="287.704519" y1="734.410217" x2="287.704519" y2="406.129838" stroke="black" stroke-width="6.48"/>
<line x1="3901.945176" y1="1169.331426" x2="3901.945176" y2="1428.837066" stroke="black" stroke-width="6.48"/>
<line x1="3901.945176" y1="1428.837066" x2="3941.9501" y2="1428.837066" stroke="black" stroke-width="6.48"/>
<line x1="3941.9501" y1="1428.837066" x2="3941.9501" y2="1169.331426" stroke="black" stroke-width="6.48"/>
<line x1="3941.9501" y1="1169.331426" x2="3901.945176" y2="1169.331426" stroke="black" stroke-width="6.48"/>
<line x1="3941.423719" y1="1193.544936" x2="3902.471557" y2="1193.544936" stroke="black" stroke-width="6.48"/>
<line x1="3941.423719" y1="1404.097178" x2="3900.892414" y2="1404.097178" stroke="black" stroke-width="6.48"/>
<line x1="3923.000399" y1="1193.018555" x2="3923.000399" y2="1403.570797" stroke="black" stroke-width="6.48"/>
<line x1="323.923298" y1="1882.957399" x2="323.923298" y2="1457.423957" stroke="black" stroke-width="6.48"/>
<line x1="323.923298" y1="1457.423957" x2="258.323825" y2="1457.423957" stroke="black" stroke-width="6.48"/>
<line x1="258.323825" y1="1457.423957" x2="258.323825" y2="1882.957399" stroke="black" stroke-width="6.48"/>
<line x1="258.323825" y1="1882.957399" x2="323.923298" y2="1882.957399" stroke="black" stroke-width="6.48"/>
<line x1="259.186975" y1="1843.252456" x2="323.060148" y2="1843.252456" stroke="black" stroke-width="6.48"/>
<line x1="259.186975" y1="1497.992054" x2="325.649603" y2="1497.992054" stroke="black" stroke-width="6.48"/>
<line x1="289.397261" y1="1844.115606" x2="289.397261" y2="1498.855205" stroke="black" stroke-width="6.48"/>
<line x1="2747.905531" y1="904.670665" x2="2721.68303" y2="904.670665" stroke="black" stroke-width="6.48"/>
<line x1="2721.68303" y1="904.670665" x2="2721.68303" y2="955.836522" stroke="black" stroke-width="6.48"/>
<line x1="2721.68303" y1="955.836522" x2="2747.905531" y2="955.836522" stroke="black" stroke-width="6.48"/>
<line x1="2747.905531" y1="955.836522" x2="2747.905531" y2="904.670665" stroke="black" stroke-width="6.48"/>
<line x1="2465.214181" y1="955.836522" x2="2465.214181" y2="1211.026223" stroke="black" stroke-width="6.48"/>
<line x1="2464.574609" y1="903.39152" x2="2438.352108" y2="903.39152" stroke="black" stroke-width="6.48"/>
<line x1="2438.352108" y1="903.39152" x2="2438.352108" y2="954.557374" stroke="black" stroke-width="6.48"/>
<line x1="2438.352108" y1="954.557374" x2="2464.574609" y2="954.557374" stroke="black" stroke-width="6.48"/>
<line x1="2464.574609" y1="954.557374" x2="2464.574609" y2="903.39152" stroke="black" stroke-width="6.48"/>
<path d="m 2721.68303,953.917801 a 256.4688490000001,256.4688490000001 0 0 1 -256.4688490000003,256.46884899999986" fill="none" stroke="black" stroke-width="6.48"/>
<line x1="2420.532389" y1="1427.858834" x2="2395.136725" y2="1427.858834" stroke="black" stroke-width="6.48"/>
<line x1="2395.136725" y1="1427.858834" x2="2395.136725" y2="1477.411351" stroke="black" stroke-width="6.48"/>
<line x1="2395.136725" y1="1477.411351" x2="2420.532389" y2="1477.411351" stroke="black" stroke-width="6.48"/>
<line x1="2420.532389" y1="1477.411351" x2="2420.532389" y2="1427.858834" stroke="black" stroke-width="6.48"/>
<line x1="2146.754732" y1="1477.411351" x2="2146.754732" y2="1724.554534" stroke="black" stroke-width="6.48"/>
<line x1="2146.135324" y1="1426.62002" x2="2120.73966" y2="1426.62002" stroke="black" stroke-width="6.48"/>
<line x1="2120.73966" y1="1426.62002" x2="2120.73966" y2="1476.172537" stroke="black" stroke-width="6.48"/>
<line x1="2120.73966" y1="1476.172537" x2="2146.135324" y2="1476.172537" stroke="black" stroke-width="6.48"/>
<line x1="2146.135324" y1="1476.172537" x2="2146.135324" y2="1426.62002" stroke="black" stroke-width="6.48"/>
<path d="m 2395.136725,1475.553132 a 248.38199299999997,248.38199299999997 0 0 1 -248.38199299999997,248.38199299999997" fill="none" stroke="black" stroke-width="6.48"/>
<line x1="608.754672" y1="692.136151" x2="1001.586672" y2="692.136151" stroke="black" stroke-width="6.48"/>
<line x1="1001.586672" y1="692.136151" x2="1001.586672" y2="507.600151" stroke="black" stroke-width="6.48"/>
<line x1="1001.586672" y1="507.600151" x2="608.754672" y2="507.600151" stroke="black" stroke-width="6.48"/>
<line x1="608.754672" y1="507.600151" x2="608.754672" y2="692.136151" stroke="black" stroke-width="6.48"/>
<line x1="767.946672" y1="507.600151" x2="767.946672" y2="426.816151" stroke="black" stroke-width="6.48"/>
<line x1="767.946672" y1="426.816151" x2="689.538672" y2="426.816151" stroke="black" stroke-width="6.48"/>
<line x1="689.538672" y1="426.816151" x2="689.538672" y2="507.600151" stroke="black" stroke-width="6.48"/>
<line x1="690.330672" y1="444.240151" x2="767.946672" y2="444.240151" stroke="black" stroke-width="6.48"/>
<line x1="689.538672" y1="773.712151" x2="767.946672" y2="773.712151" stroke="black" stroke-width="6.48"/>
<line x1="767.946672" y1="773.712151" x2="767.946672" y2="692.136151" stroke="black" stroke-width="6.48"/>
<line x1="689.538672" y1="692.136151" x2="689.538672" y2="773.712151" stroke="black" stroke-width="6.48"/>
<line x1="690.330672" y1="756.288151" x2="767.946672" y2="756.288151" stroke="black" stroke-width="6.48"/>
<line x1="919.218672" y1="507.600151" x2="919.218672" y2="426.816151" stroke="black" stroke-width="6.48"/>
<line x1="919.218672" y1="426.816151" x2="840.810672" y2="426.816151" stroke="black" stroke-width="6.48"/>
<line x1="840.810672" y1="426.816151" x2="840.810672" y2="507.600151" stroke="black" stroke-width="6.48"/>
<line x1="840.810672" y1="444.240151" x2="919.218672" y2="444.240151" stroke="black" stroke-width="6.48"/>
<line x1="840.810672" y1="773.712151" x2="919.218672" y2="773.712151" stroke="black" stroke-width="6.48"/>
<line x1="919.218672" y1="773.712151" x2="919.218672" y2="692.136151" stroke="black" stroke-width="6.48"/>
<line x1="840.810672" y1="692.136151" x2="840.810672" y2="773.712151" stroke="black" stroke-width="6.48"/>
<line x1="840.810672" y1="756.288151" x2="919.218672" y2="756.288151" stroke="black" stroke-width="6.48"/>
<line x1="2032.924367" y1="1945.61033" x2="2032.924367" y2="1914.72233" stroke="black" stroke-width="6.48"/>
<line x1="2032.924367" y1="1914.72233" x2="1823.361167" y2="1914.72233" stroke="black" stroke-width="6.48"/>
<line x1="1823.361167" y1="1914.72233" x2="1823.361167" y2="1945.61033" stroke="black" stroke-width="6.48"/>
<line x1="1823.361167" y1="1945.61033" x2="2032.924367" y2="1945.61033" stroke="black" stroke-width="6.48"/>
<line x1="2032.924367" y1="1741.74953" x2="2032.924367" y2="1710.86153" stroke="black" stroke-width="6.48"/>
<line x1="2032.924367" y1="1710.86153" x2="1823.361167" y2="1710.86153" stroke="black" stroke-width="6.48"/>
<line x1="1823.361167" y1="1710.86153" x2="1823.361167" y2="1741.74953" stroke="black" stroke-width="6.48"/>
<line x1="1823.361167" y1="1741.74953" x2="2032.924367" y2="1741.74953" stroke="black" stroke-width="6.48"/>
<line x1="2032.924367" y1="1915.19753" x2="2032.924367" y2="1741.74953" stroke="black" stroke-width="6.48"/>
<line x1="1824.311567" y1="1915.67273" x2="1798.175567" y2="1889.06153" stroke="black" stroke-width="6.48"/>
<line x1="1798.175567" y1="1767.88553" x2="1824.311567" y2="1741.27433" stroke="black" stroke-width="6.48"/>
<line x1="1798.175567" y1="1890.96233" x2="1798.175567" y2="1765.98473" stroke="black" stroke-width="6.48"/>
<line x1="1988.255567" y1="1914.72233" x2="1988.255567" y2="1741.27433" stroke="black" stroke-width="6.48"/>
<line x1="1485.415969" y1="209.267824" x2="1707.693134" y2="209.267824" stroke="black" stroke-width="6.48"/>
<line x1="1707.693134" y1="209.267824" x2="1707.693134" y2="432.000475" stroke="black" stroke-width="6.48"/>
<line x1="1707.693134" y1="432.000475" x2="1485.415969" y2="432.000475" stroke="black" stroke-width="6.48"/>
<line x1="1485.415969" y1="432.000475" x2="1485.415969" y2="209.267824" stroke="black" stroke-width="6.48"/>
<line x1="1484.960483" y1="208.812337" x2="1707.693134" y2="432.000475" stroke="black" stroke-width="6.48"/>
<line x1="1485.415969" y1="431.544989" x2="1707.237648" y2="209.267824" stroke="black" stroke-width="6.48"/>
<line x1="2586.780558" y1="1803.366338" x2="2586.780558" y2="2194.614338" stroke="black" stroke-width="6.48"/>
<line x1="2586.780558" y1="2194.614338" x2="2761.020558" y2="2194.614338" stroke="black" stroke-width="6.48"/>
<line x1="2761.020558" y1="2194.614338" x2="2761.020558" y2="1803.366338" stroke="black" stroke-width="6.48"/>
<line x1="2761.020558" y1="1803.366338" x2="2586.780558" y2="1803.366338" stroke="black" stroke-width="6.48"/>
<line x1="2734.092558" y1="2119.374338" x2="2734.092558" y2="1835.046338" stroke="black" stroke-width="6.48"/>
<line x1="2734.092558" y1="1835.046338" x2="2616.084558" y2="1835.046338" stroke="black" stroke-width="6.48"/>
<line x1="2616.084558" y1="1835.046338" x2="2616.084558" y2="2124.918338" stroke="black" stroke-width="6.48"/>
<path d="m 2734.347982,2118.563766 a 63.35999941905905,63.35999941905905 0 0 1 -119.37432999999965,4.2938139999996565" fill="none" stroke="black" stroke-width="6.48"/>
<line x1="2105.683913" y1="1890.81378" x2="2105.683913" y2="2074.55778" stroke="black" stroke-width="6.48"/>
<line x1="2105.683913" y1="2074.55778" x2="2056.579913" y2="2074.55778" stroke="black" stroke-width="6.48"/>
<line x1="2056.579913" y1="1890.81378" x2="2056.579913" y2="2074.55778" stroke="black" stroke-width="6.48"/>
<line x1="2105.683913" y1="1890.81378" x2="2056.579913" y2="1890.81378" stroke="black" stroke-width="6.48"/>
<line x1="2133.403913" y1="1932.39378" x2="2105.683913" y2="1932.39378" stroke="black" stroke-width="6.48"/>
<line x1="2105.683913" y1="2031.39378" x2="2134.987913" y2="2031.39378" stroke="black" stroke-width="6.48"/>
<circle cx="2178.547913" cy="1981.10178" r="66.52800000000002" fill="none" stroke="black" stroke-width="6.48"/>
<circle cx="2178.547913" cy="1981.10178" r="57.02400000000001" fill="none" stroke="black" stroke-width="6.48"/>
<line x1="850.40784" y1="210.984847" x2="1243.651712" y2="210.984847" stroke="black" stroke-width="6.48"/>
<line x1="1247.607119" y1="209.988565" x2="1247.607119" y2="346.05734" stroke="black" stroke-width="6.48"/>
<line x1="850.872229" y1="347.208847" x2="1247.91246" y2="347.208847" stroke="black" stroke-width="6.48"/>
<line x1="851.607119" y1="211.679597" x2="851.607119" y2="346.943653" stroke="black" stroke-width="6.48"/>
<line x1="861.903119" y1="222.072847" x2="985.455119" y2="222.072847" stroke="black" stroke-width="6.48"/>
<line x1="985.455119" y1="222.072847" x2="985.455119" y2="336.120847" stroke="black" stroke-width="6.48"/>
<line x1="861.903119" y1="336.120847" x2="985.455119" y2="336.120847" stroke="black" stroke-width="6.48"/>
<line x1="861.903119" y1="222.072847" x2="861.903119" y2="336.120847" stroke="black" stroke-width="6.48"/>
<line x1="1004.463119" y1="229.200847" x2="1091.583119" y2="229.200847" stroke="black" stroke-width="6.48"/>
<line x1="1004.463119" y1="249.000847" x2="1091.583119" y2="249.000847" stroke="black" stroke-width="6.48"/>
<line x1="1005.255119" y1="269.592847" x2="1091.583119" y2="269.592847" stroke="black" stroke-width="6.48"/>
<line x1="1005.255119" y1="289.392847" x2="1091.583119" y2="289.392847" stroke="black" stroke-width="6.48"/>
<line x1="1004.463119" y1="309.192847" x2="1091.583119" y2="309.192847" stroke="black" stroke-width="6.48"/>
<line x1="1004.463119" y1="328.992847" x2="1091.583119" y2="328.992847" stroke="black" stroke-width="6.48"/>
<line x1="909.423119" y1="335.328847" x2="909.423119" y2="321.864847" stroke="black" stroke-width="6.48"/>
<line x1="909.423119" y1="321.864847" x2="939.519119" y2="321.864847" stroke="black" stroke-width="6.48"/>
<line x1="939.519119" y1="321.864847" x2="939.519119" y2="334.536847" stroke="black" stroke-width="6.48"/>
<line x1="1112.175119" y1="222.072847" x2="1235.727119" y2="222.072847" stroke="black" stroke-width="6.48"/>
<line x1="1235.727119" y1="222.072847" x2="1235.727119" y2="336.120847" stroke="black" stroke-width="6.48"/>
<line x1="1112.175119" y1="336.120847" x2="1235.727119" y2="336.120847" stroke="black" stroke-width="6.48"/>
<line x1="1112.175119" y1="222.072847" x2="1112.175119" y2="336.120847" stroke="black" stroke-width="6.48"/>
<line x1="1159.695119" y1="336.120847" x2="1159.695119" y2="322.656847" stroke="black" stroke-width="6.48"/>
<line x1="1159.695119" y1="322.656847" x2="1189.791119" y2="322.656847" stroke="black" stroke-width="6.48"/>
<line x1="1189.791119" y1="322.656847" x2="1189.791119" y2="335.328847" stroke="black" stroke-width="6.48"/>
<circle cx="971.199119" cy="236.328847" r="7.128000000000001" fill="none" stroke="black" stroke-width="6.48"/>
<circle cx="1221.471119" cy="237.120847" r="7.128000000000001" fill="none" stroke="black" stroke-width="6.48"/>
<line x1="1087.210559" y1="1596.410482" x2="968.474833" y2="1538.4992" stroke="black" stroke-width="6.48"/>
<line x1="968.474833" y1="1538.4992" x2="974.724253" y2="1525.68599" stroke="black" stroke-width="6.48"/>
<line x1="1093.459975" y1="1583.597279" x2="974.724253" y2="1525.68599" stroke="black" stroke-width="6.48"/>
<line x1="1087.210559" y1="1596.410482" x2="1093.459975" y2="1583.597279" stroke="black" stroke-width="6.48"/>
<line x1="1081.500984" y1="1577.764487" x2="1096.958135" y2="1550.408684" stroke="black" stroke-width="6.48"/>
<line x1="986.683244" y1="1531.518782" x2="999.140166" y2="1501.642256" stroke="black" stroke-width="6.48"/>
<line x1="1289.27511" y1="1182.116761" x2="1170.539381" y2="1124.20548" stroke="black" stroke-width="6.48"/>
<line x1="1170.539381" y1="1124.20548" x2="1164.706589" y2="1136.164471" stroke="black" stroke-width="6.48"/>
<line x1="1283.442318" y1="1194.075752" x2="1164.706589" y2="1136.164471" stroke="black" stroke-width="6.48"/>
<line x1="1289.27511" y1="1182.116761" x2="1283.442318" y2="1194.075752" stroke="black" stroke-width="6.48"/>
<line x1="1271.504282" y1="1190.368019" x2="1259.463989" y2="1219.390333" stroke="black" stroke-width="6.48"/>
<line x1="1176.686543" y1="1144.122318" x2="1159.958549" y2="1171.915704" stroke="black" stroke-width="6.48"/>
<line x1="893.626682" y1="1319.060196" x2="906.439889" y2="1325.309616" stroke="black" stroke-width="6.48"/>
<line x1="906.439889" y1="1325.309616" x2="964.351174" y2="1206.57389" stroke="black" stroke-width="6.48"/>
<line x1="951.537964" y1="1200.32447" x2="964.351174" y2="1206.57389" stroke="black" stroke-width="6.48"/>
<line x1="893.626682" y1="1319.060196" x2="951.537964" y2="1200.32447" stroke="black" stroke-width="6.48"/>
<line x1="958.101757" y1="1219.387097" x2="988.394908" y2="1230.989803" stroke="black" stroke-width="6.48"/>
<line x1="912.272681" y1="1313.350621" x2="940.482698" y2="1329.2244" stroke="black" stroke-width="6.48"/>
<line x1="1306.649563" y1="1521.562334" x2="1293.836353" y2="1515.312914" stroke="black" stroke-width="6.48"/>
<line x1="1293.836353" y1="1515.312914" x2="1351.747638" y2="1396.577185" stroke="black" stroke-width="6.48"/>
<line x1="1364.560844" y1="1402.826609" x2="1351.747638" y2="1396.577185" stroke="black" stroke-width="6.48"/>
<line x1="1306.649563" y1="1521.562334" x2="1364.560844" y2="1402.826609" stroke="black" stroke-width="6.48"/>
<line x1="1345.498222" y1="1409.390395" x2="1317.704832" y2="1392.662405" stroke="black" stroke-width="6.48"/>
<line x1="1299.669149" y1="1503.35392" x2="1269.792619" y2="1490.896994" stroke="black" stroke-width="6.48"/>
<circle cx="1129.093765" cy="1360.943402" r="191.98080000000002" fill="none" stroke="black" stroke-width="6.48"/>
<line x1="2044.889399" y1="955.822399" x2="2267.166564" y2="955.822399" stroke="black" stroke-width="6.48"/>
<line x1="2267.166564" y1="955.822399" x2="2267.166564" y2="1178.555051" stroke="black" stroke-width="6.48"/>
<line x1="2267.166564" y1="1178.555051" x2="2044.889399" y2="1178.555051" stroke="black" stroke-width="6.48"/>
<line x1="2044.889399" y1="1178.555051" x2="2044.889399" y2="955.822399" stroke="black" stroke-width="6.48"/>
<line x1="2044.433912" y1="955.366913" x2="2267.166564" y2="1178.555051" stroke="black" stroke-width="6.48"/>
<line x1="2044.889399" y1="1178.099564" x2="2266.711078" y2="955.822399" stroke="black" stroke-width="6.48"/>
<line x1="323.258818" y1="1375.374532" x2="323.258818" y2="949.841089" stroke="black" stroke-width="6.48"/>
<line x1="323.258818" y1="949.841089" x2="257.659344" y2="949.841089" stroke="black" stroke-width="6.48"/>
<line x1="257.659344" y1="949.841089" x2="257.659344" y2="1375.374532" stroke="black" stroke-width="6.48"/>
<line x1="257.659344" y1="1375.374532" x2="323.258818" y2="1375.374532" stroke="black" stroke-width="6.48"/>
<line x1="258.522494" y1="1335.669588" x2="322.395667" y2="1335.669588" stroke="black" stroke-width="6.48"/>
<line x1="258.522494" y1="990.409187" x2="324.985122" y2="990.409187" stroke="black" stroke-width="6.48"/>
<line x1="288.73278" y1="1336.532738" x2="288.73278" y2="991.272337" stroke="black" stroke-width="6.48"/>
<line x1="3874.406537" y1="1514.726719" x2="3874.406537" y2="1940.260162" stroke="black" stroke-width="6.48"/>
<line x1="3874.406537" y1="1940.260162" x2="3940.00601" y2="1940.260162" stroke="black" stroke-width="6.48"/>
<line x1="3940.00601" y1="1940.260162" x2="3940.00601" y2="1514.726719" stroke="black" stroke-width="6.48"/>
<line x1="3940.00601" y1="1514.726719" x2="3874.406537" y2="1514.726719" stroke="black" stroke-width="6.48"/>
<line x1="3939.14286" y1="1554.431663" x2="3875.269687" y2="1554.431663" stroke="black" stroke-width="6.48"/>
<line x1="3939.14286" y1="1899.692064" x2="3872.680232" y2="1899.692064" stroke="black" stroke-width="6.48"/>
<line x1="3908.932574" y1="1553.568512" x2="3908.932574" y2="1898.828914" stroke="black" stroke-width="6.48"/>
<line x1="4700.242793" y1="1269.681613" x2="4727.64537" y2="1661.556694" stroke="black" stroke-width="6.48"/>
<line x1="4727.64537" y1="1661.556694" x2="4911.731849" y2="1648.684112" stroke="black" stroke-width="6.48"/>
<line x1="4911.731849" y1="1648.684112" x2="4884.329275" y2="1256.809032" stroke="black" stroke-width="6.48"/>
<line x1="4884.329275" y1="1256.809032" x2="4700.242793" y2="1269.681613" stroke="black" stroke-width="6.48"/>
<line x1="4895.433947" y1="1415.613247" x2="4976.021156" y2="1409.978041" stroke="black" stroke-width="6.48"/>
<line x1="4976.021156" y1="1409.978041" x2="4970.551694" y2="1331.761039" stroke="black" stroke-width="6.48"/>
<line x1="4970.551694" y1="1331.761039" x2="4889.964481" y2="1337.396245" stroke="black" stroke-width="6.48"/>
<line x1="4953.225388" y1="1333.766545" x2="4958.639604" y2="1411.19348" stroke="black" stroke-width="6.48"/>
<line x1="4624.500715" y1="1355.959282" x2="4629.970181" y2="1434.176284" stroke="black" stroke-width="6.48"/>
<line x1="4629.970181" y1="1434.176284" x2="4711.347464" y2="1428.485828" stroke="black" stroke-width="6.48"/>
<line x1="4705.878002" y1="1350.268826" x2="4624.500715" y2="1355.959282" stroke="black" stroke-width="6.48"/>
<line x1="4641.93752" y1="1355.533913" x2="4647.351737" y2="1432.960848" stroke="black" stroke-width="6.48"/>
<line x1="4905.986148" y1="1566.516758" x2="4986.573361" y2="1560.881552" stroke="black" stroke-width="6.48"/>
<line x1="4986.573361" y1="1560.881552" x2="4981.103899" y2="1482.66455" stroke="black" stroke-width="6.48"/>
<line x1="4981.103899" y1="1482.66455" x2="4900.516682" y2="1488.299756" stroke="black" stroke-width="6.48"/>
<line x1="4963.72234" y1="1483.879986" x2="4969.191805" y2="1562.096984" stroke="black" stroke-width="6.48"/>
<line x1="4635.052916" y1="1506.862789" x2="4640.522382" y2="1585.079791" stroke="black" stroke-width="6.48"/>
<line x1="4640.522382" y1="1585.079791" x2="4721.899666" y2="1579.38934" stroke="black" stroke-width="6.48"/>
<line x1="4716.4302" y1="1501.172338" x2="4635.052916" y2="1506.862789" stroke="black" stroke-width="6.48"/>
<line x1="4652.434476" y1="1505.647354" x2="4657.903938" y2="1583.864359" stroke="black" stroke-width="6.48"/>
<line x1="3377.646518" y1="1075.218761" x2="3587.011722" y2="1075.218761" stroke="black" stroke-width="6.48"/>
<line x1="3587.011722" y1="1075.218761" x2="3587.011722" y2="744.004357" stroke="black" stroke-width="6.48"/>
<line x1="3587.011722" y1="744.004357" x2="3377.646518" y2="744.004357" stroke="black" stroke-width="6.48"/>
<line x1="3377.646518" y1="744.004357" x2="3377.646518" y2="1075.218761" stroke="black" stroke-width="6.48"/>
<line x1="3376.973318" y1="803.245957" x2="3587.684918" y2="803.245957" stroke="black" stroke-width="6.48"/>
<line x1="3587.684918" y1="803.245957" x2="3378.319718" y2="853.062761" stroke="black" stroke-width="6.48"/>
<line x1="3378.319718" y1="853.062761" x2="3409.960122" y2="899.513561" stroke="black" stroke-width="6.48"/>
<line x1="3409.960122" y1="899.513561" x2="3587.684918" y2="802.572761" stroke="black" stroke-width="6.48"/>
<line x1="3306.068255" y1="1203.554844" x2="3528.34542" y2="1203.554844" stroke="black" stroke-width="6.48"/>
<line x1="3528.34542" y1="1203.554844" x2="3528.34542" y2="1426.287496" stroke="black" stroke-width="6.48"/>
<line x1="3528.34542" y1="1426.287496" x2="3306.068255" y2="1426.287496" stroke="black" stroke-width="6.48"/>
<line x1="3306.068255" y1="1426.287496" x2="3306.068255" y2="1203.554844" stroke="black" stroke-width="6.48"/>
<line x1="3305.612768" y1="1203.099358" x2="3528.34542" y2="1426.287496" stroke="black" stroke-width="6.48"/>
<line x1="3306.068255" y1="1425.832009" x2="3527.889934" y2="1203.554844" stroke="black" stroke-width="6.48"/>
<line x1="2804.16708" y1="1127.69402" x2="2804.16708" y2="1153.148746" stroke="black" stroke-width="6.48"/>
<line x1="2804.16708" y1="1153.148746" x2="2853.834836" y2="1153.148746" stroke="black" stroke-width="6.48"/>
<line x1="2853.834836" y1="1153.148746" x2="2853.834836" y2="1127.69402" stroke="black" stroke-width="6.48"/>
<line x1="2853.834836" y1="1127.69402" x2="2804.16708" y2="1127.69402" stroke="black" stroke-width="6.48"/>
<line x1="2853.834836" y1="1402.108373" x2="3101.55277" y2="1402.108373" stroke="black" stroke-width="6.48"/>
<line x1="2802.925386" y1="1402.729218" x2="2802.925386" y2="1428.183943" stroke="black" stroke-width="6.48"/>
<line x1="2802.925386" y1="1428.183943" x2="2852.593142" y2="1428.183943" stroke="black" stroke-width="6.48"/>
<line x1="2852.593142" y1="1428.183943" x2="2852.593142" y2="1402.729218" stroke="black" stroke-width="6.48"/>
<line x1="2852.593142" y1="1402.729218" x2="2802.925386" y2="1402.729218" stroke="black" stroke-width="6.48"/>
<path d="m 2851.972294,1153.148746 a 248.95962699999984,248.95962699999984 0 0 1 248.95962699999973,248.95962699999995" fill="none" stroke="black" stroke-width="6.48"/>
<line x1="2926.189415" y1="2006.816566" x2="2854.98427" y2="2183.055703" stroke="black" stroke-width="6.48"/>
<line x1="2854.98427" y1="2183.055703" x2="3285.007765" y2="2356.796254" stroke="black" stroke-width="6.48"/>
<line x1="3285.007765" y1="2356.796254" x2="3356.21291" y2="2180.557116" stroke="black" stroke-width="6.48"/>
<line x1="3356.21291" y1="2180.557116" x2="3334.18302" y2="2171.656472" stroke="black" stroke-width="6.48"/>
<line x1="3334.18302" y1="2171.656472" x2="3271.522493" y2="2326.746917" stroke="black" stroke-width="6.48"/>
<line x1="3271.522493" y1="2326.746917" x2="2886.439975" y2="2171.163676" stroke="black" stroke-width="6.48"/>
<line x1="2886.439975" y1="2171.163676" x2="2949.100502" y2="2016.073235" stroke="black" stroke-width="6.48"/>
<line x1="2949.100502" y1="2016.073235" x2="2926.189415" y2="2006.816566" stroke="black" stroke-width="6.48"/>
<line x1="2946.964349" y1="2021.360407" x2="3332.046866" y2="2176.943648" stroke="black" stroke-width="6.48"/>
<line x1="3139.421033" y1="2098.09282" x2="3078.896663" y2="2247.896088" stroke="black" stroke-width="6.48"/>
<line x1="3544.966933" y1="1965.179452" x2="3383.877326" y2="1798.366277" stroke="black" stroke-width="6.48"/>
<line x1="3383.877326" y1="1798.366277" x2="3551.032328" y2="1636.946564" stroke="black" stroke-width="6.48"/>
<line x1="3551.032328" y1="1636.946564" x2="3712.121935" y2="1803.759739" stroke="black" stroke-width="6.48"/>
<line x1="3712.121935" y1="1803.759739" x2="3544.966933" y2="1965.179452" stroke="black" stroke-width="6.48"/>
<line x1="3544.955204" y1="1965.851384" x2="3551.032328" y2="1636.946564" stroke="black" stroke-width="6.48"/>
<line x1="3711.780108" y1="1804.089841" x2="3384.207428" y2="1798.708108" stroke="black" stroke-width="6.48"/>
<line x1="3111.239045" y1="1589.315879" x2="3092.650182" y2="1613.98413" stroke="black" stroke-width="6.48"/>
<line x1="3092.650182" y1="1613.98413" x2="3260.014798" y2="1740.102415" stroke="black" stroke-width="6.48"/>
<line x1="3260.014798" y1="1740.102415" x2="3278.60366" y2="1715.43416" stroke="black" stroke-width="6.48"/>
<line x1="3278.60366" y1="1715.43416" x2="3111.239045" y2="1589.315879" stroke="black" stroke-width="6.48"/>
<line x1="2988.552553" y1="1752.12635" x2="2969.96369" y2="1776.794605" stroke="black" stroke-width="6.48"/>
<line x1="2969.96369" y1="1776.794605" x2="3137.328302" y2="1902.912887" stroke="black" stroke-width="6.48"/>
<line x1="3137.328302" y1="1902.912887" x2="3155.917165" y2="1878.244636" stroke="black" stroke-width="6.48"/>
<line x1="3155.917165" y1="1878.244636" x2="2988.552553" y2="1752.12635" stroke="black" stroke-width="6.48"/>
<line x1="3092.936166" y1="1613.604622" x2="2988.552553" y2="1752.12635" stroke="black" stroke-width="6.48"/>
<line x1="3259.827742" y1="1738.771427" x2="3264.685855" y2="1775.753114" stroke="black" stroke-width="6.48"/>
<line x1="3191.760317" y1="1872.528566" x2="3154.872161" y2="1878.052183" stroke="black" stroke-width="6.48"/>
<line x1="3265.829784" y1="1774.235066" x2="3190.616388" y2="1874.046614" stroke="black" stroke-width="6.48"/>
<line x1="3128.324274" y1="1640.866489" x2="3023.940661" y2="1779.388218" stroke="black" stroke-width="6.48"/>
<line x1="1134.0279" y1="1686.967294" x2="1017.00293" y2="1836.752346" stroke="black" stroke-width="6.48"/>
<line x1="1017.00293" y1="1836.752346" x2="1382.478469" y2="2122.293272" stroke="black" stroke-width="6.48"/>
<line x1="1382.478469" y1="2122.293272" x2="1499.503435" y2="1972.508216" stroke="black" stroke-width="6.48"/>
<line x1="1499.503435" y1="1972.508216" x2="1480.780303" y2="1957.880099" stroke="black" stroke-width="6.48"/>
<line x1="1480.780303" y1="1957.880099" x2="1377.798329" y2="2089.690945" stroke="black" stroke-width="6.48"/>
<line x1="1377.798329" y1="2089.690945" x2="1050.517984" y2="1833.991387" stroke="black" stroke-width="6.48"/>
<line x1="1050.517984" y1="1833.991387" x2="1153.499962" y2="1702.180537" stroke="black" stroke-width="6.48"/>
<line x1="1153.499962" y1="1702.180537" x2="1134.0279" y2="1686.967294" stroke="black" stroke-width="6.48"/>
<line x1="1149.989209" y1="1706.674086" x2="1477.269554" y2="1962.373651" stroke="black" stroke-width="6.48"/>
<line x1="1313.840045" y1="1833.482383" x2="1214.368823" y2="1960.799677" stroke="black" stroke-width="6.48"/>
<line x1="5858.15954" y1="1717.107822" x2="5864.581516" y2="1747.320844" stroke="black" stroke-width="6.48"/>
<line x1="5864.581516" y1="1747.320844" x2="6069.565256" y2="1703.750202" stroke="black" stroke-width="6.48"/>
<line x1="6069.565256" y1="1703.750202" x2="6063.143281" y2="1673.53718" stroke="black" stroke-width="6.48"/>
<line x1="6063.143281" y1="1673.53718" x2="5858.15954" y2="1717.107822" stroke="black" stroke-width="6.48"/>
<line x1="5900.544587" y1="1916.513773" x2="5906.966562" y2="1946.726798" stroke="black" stroke-width="6.48"/>
<line x1="5906.966562" y1="1946.726798" x2="6111.950303" y2="1903.156157" stroke="black" stroke-width="6.48"/>
<line x1="6111.950303" y1="1903.156157" x2="6105.528328" y2="1872.943135" stroke="black" stroke-width="6.48"/>
<line x1="6105.528328" y1="1872.943135" x2="5900.544587" y2="1916.513773" stroke="black" stroke-width="6.48"/>
<line x1="5864.482717" y1="1746.856026" x2="5900.544587" y2="1916.513773" stroke="black" stroke-width="6.48"/>
<line x1="6068.438028" y1="1703.018174" x2="6099.535674" y2="1723.613872" stroke="black" stroke-width="6.48"/>
<line x1="6124.729583" y1="1842.141888" x2="6104.697494" y2="1873.60555" stroke="black" stroke-width="6.48"/>
<line x1="6099.140473" y1="1721.754612" x2="6125.12478" y2="1844.001151" stroke="black" stroke-width="6.48"/>
<line x1="5908.274197" y1="1738.033679" x2="5944.336063" y2="1907.691422" stroke="black" stroke-width="6.48"/>
<line x1="3835.973282" y1="1142.207798" x2="3836.512354" y2="1111.324504" stroke="black" stroke-width="6.48"/>
<line x1="3836.512354" y1="1111.324504" x2="3626.981071" y2="1107.667123" stroke="black" stroke-width="6.48"/>
<line x1="3626.981071" y1="1107.667123" x2="3626.442" y2="1138.550418" stroke="black" stroke-width="6.48"/>
<line x1="3626.442" y1="1138.550418" x2="3835.973282" y2="1142.207798" stroke="black" stroke-width="6.48"/>
<line x1="3839.531144" y1="938.378048" x2="3840.070216" y2="907.494754" stroke="black" stroke-width="6.48"/>
<line x1="3840.070216" y1="907.494754" x2="3630.538933" y2="903.837373" stroke="black" stroke-width="6.48"/>
<line x1="3630.538933" y1="903.837373" x2="3629.999862" y2="934.720668" stroke="black" stroke-width="6.48"/>
<line x1="3629.999862" y1="934.720668" x2="3839.531144" y2="938.378048" stroke="black" stroke-width="6.48"/>
<line x1="3836.504059" y1="1111.799632" x2="3839.531144" y2="938.378048" stroke="black" stroke-width="6.48"/>
<line x1="3627.914738" y1="1108.633964" x2="3602.247149" y2="1081.570684" stroke="black" stroke-width="6.48"/>
<line x1="3604.361962" y1="960.413137" x2="3630.958412" y2="934.262129" stroke="black" stroke-width="6.48"/>
<line x1="3602.213975" y1="1083.471196" x2="3604.395136" y2="958.512625" stroke="black" stroke-width="6.48"/>
<line x1="3791.850358" y1="1110.544927" x2="3794.877439" y2="937.123344" stroke="black" stroke-width="6.48"/>
</g>
</svg>
