<?xml version="1.0"?>
<svg xmlns:xlink="http://www.w3.org/1999/xlink" width="6775.2" height="2858.4">
<image x="0" y="0" width="6775.2" height="2858.4" xlink:href="groundfilled-01.png"/>
<g style="stroke-linecap:round">
<line x1="1285.950406" y1="795.178109" x2="1311.346069" y2="795.178109" stroke="black" stroke-width="6.48"/>
<line x1="1311.346069" y1="795.178109" x2="1311.346069" y2="745.625592" stroke="black" stroke-width="6.48"/>
<line x1="1311.346069" y1="745.625592" x2="1285.950406" y2="745.625592" stroke="black" stroke-width="6.48"/>
<line x1="1285.950406" y1="745.625592" x2="1285.950406" y2="795.178109" stroke="black" stroke-width="6.48"/>
<line x1="1559.728062" y1="745.625592" x2="1559.728062" y2="498.48241" stroke="black" stroke-width="6.48"/>
<line x1="1560.347471" y1="796.416923" x2="1585.743134" y2="796.416923" stroke="black" stroke-width="6.48"/>
<line x1="1585.743134" y1="796.416923" x2="1585.743134" y2="746.864406" stroke="black" stroke-width="6.48"/>
<line x1="1585.743134" y1="746.864406" x2="1560.347471" y2="746.864406" stroke="black" stroke-width="6.48"/>
<line x1="1560.347471" y1="746.864406" x2="1560.347471" y2="796.416923" stroke="black" stroke-width="6.48"/>
<path d="m 1311.346069,747.483811 a 248.38199299999997,248.38199299999997 0 0 1 248.38199299999997,-248.38199299999997" fill="none" stroke="black" stroke-width="6.48"/>
<line x1="320.532556" y1="771.34176" x2="320.532556" y2="366.736194" stroke="black" stroke-width="6.48"/>
<line x1="320.532556" y1="366.736194" x2="258.159283" y2="366.736194" stroke="black" stroke-width="6.48"/>
<line x1="258.159283" y1="366.736194" x2="258.159283" y2="771.34176" stroke="black" stroke-width="6.48"/>
<line x1="258.159283" y1="771.34176" x2="320.532556" y2="771.34176" stroke="black" stroke-width="6.48"/>
<line x1="258.979986" y1="733.589518" x2="319.711856" y2="733.589518" stroke="black" stroke-width="6.48"/>
<line x1="258.979986" y1="405.309139" x2="322.173958" y2="405.309139" stroke="black" stroke-width="6.48"/>
<line x1="287.704519" y1="734.410217" x2="287.704519" y2="406.129838" stroke="black" stroke-width="6.48"/>
<line x1="3901.945176" y1="1169.331426" x2="3901.945176" y2="1428.837066" stroke="black" stroke-width="6.48"/>
<line x1="3901.945176" y1="1428.837066" x2="3941.9501" y2="1428.837066" stroke="black" stroke-width="6.48"/>
<line x1="3941.9501" y1="1428.837066" x2="3941.9501" y2="1169.331426" stroke="black" stroke-width="6.48"/>
<line x1="3941.9501" y1="1169.331426" x2="3901.945176" y2="1169.331426" stroke="black" stroke-width="6.48"/>
<line x1="3941.423719" y1="1193.544936" x2="3902.471557" y2="1193.544936" stroke="black" stroke-width="6.48"/>
<line x1="3941.423719" y1="1404.097178" x2="3900.892414" y2="1404.097178" stroke="black" stroke-width="6.48"/>
<line x1="3923.000399" y1="1193.018555" x2="3923.000399" y2="1403.570797" stroke="black" stroke-width="6.48"/>
<line x1="323.923298" y1="1882.957399" x2="323.923298" y2="1457.423957" stroke="black" stroke-width="6.48"/>
<line x1="323.923298" y1="1457.423957" x2="258.323825" y2="1457.423957" stroke="black" stroke-width="6.48"/>
<line x1="258.323825" y1="1457.423957" x2="258.323825" y2="1882.957399" stroke="black" stroke-width="6.48"/>
<line x1="258.323825" y1="1882.957399" x2="323.923298" y2="1882.957399" stroke="black" stroke-width="6.48"/>
<line x1="259.186975" y1="1843.252456" x2="323.060148" y2="1843.252456" stroke="black" stroke-width="6.48"/>
<line x1="259.186975" y1="1497.992054" x2="325.649603" y2="1497.992054" stroke="black" stroke-width="6.48"/>
<line x1="289.397261" y1="1844.115606" x2="289.397261" y2="1498.855205" stroke="black" stroke-width="6.48"/>
<line x1="2747.905531" y1="904.670665" x2="2721.68303" y2="904.670665" stroke="black" stroke-width="6.48"/>
<line x1="2721.68303" y1="904.670665" x2="2721.68303" y2="955.836522" stroke="black" stroke-width="6.48"/>
<line x1="2721.68303" y1="955.836522" x2="2747.905531" y2="955.836522" stroke="black" stroke-width="6.48"/>
<line x1="2747.905531" y1="955.836522" x2="2747.905531" y2="904.670665" stroke="black" stroke-width="6.48"/>
<line x1="2465.214181" y1="955.836522" x2="2465.214181" y2="1211.026223" stroke="black" stroke-width="6.48"/>
<line x1="2464.574609" y1="903.39152" x2="2438.352108" y2="903.39152" stroke="black" stroke-width="6.48"/>
<line x1="2438.352108" y1="903.39152" x2="2438.352108" y2="954.557374" stroke="black" stroke-width="6.48"/>
<line x1="2438.352108" y1="954.557374" x2="2464.574609" y2="954.557374" stroke="black" stroke-width="6.48"/>
<line x1="2464.574609" y1="954.557374" x2="2464.574609" y2="903.39152" stroke="black" stroke-width="6.48"/>
<path d="m 2721.68303,953.917801 a 256.4688490000001,256.4688490000001 0 0 1 -256.4688490000003,256.46884899999986" fill="none" stroke="black" stroke-width="6.48"/>
<line x1="2420.532389" y1="1427.858834" x2="2395.136725" y2="1427.858834" stroke="black" stroke-width="6.48"/>
<line x1="2395.136725" y1="1427.858834" x2="2395.136725" y2="1477.411351" stroke="black" stroke-width="6.48"/>
<line x1="2395.136725" y1="1477.411351" x2="2420.532389" y2="1477.411351" stroke="black" stroke-width="6.48"/>
<line x1="2420.532389" y1="1477.411351" x2="2420.532389" y2="1427.858834" stroke="black" stroke-width="6.48"/>
<line x1="2146.754732" y1="1477.411351" x2="2146.754732" y2="1724.554534" stroke="black" stroke-width="6.48"/>
<line x1="2146.135324" y1="1426.62002" x2="2120.73966" y2="1426.62002" stroke="black" stroke-width="6.48"/>
<line x1="2120.73966" y1="1426.62002" x2="2120.73966" y2="1476.172537" stroke="black" stroke-width="6.48"/>
<line x1="2120.73966" y1="1476.172537" x2="2146.135324" y2="1476.172537" stroke="black" stroke-width="6.48"/>
<line x1="2146.135324" y1="1476.172537" x2="2146.135324" y2="1426.62002" stroke="black" stroke-width="6.48"/>
<path d="m 2395.136725,1475.553132 a 248.38199299999997,248.38199299999997 0 0 1 -248.38199299999997,248.38199299999997" fill="none" stroke="black" stroke-width="6.48"/>
<line x1="691.597494" y1="541.339351" x2="923.495094" y2="541.339351" stroke="black" stroke-width="6.48"/>
<line x1="923.495094" y1="541.339351" x2="923.495094" y2="773.712151" stroke="black" stroke-width="6.48"/>
<line x1="923.495094" y1="773.712151" x2="691.597494" y2="773.712151" stroke="black" stroke-width="6.48"/>
<line x1="691.597494" y1="773.712151" x2="691.597494" y2="541.339351" stroke="black" stroke-width="6.48"/>
<line x1="691.122294" y1="540.864151" x2="923.495094" y2="773.712151" stroke="black" stroke-width="6.48"/>
<line x1="691.597494" y1="773.236951" x2="923.019894" y2="541.339351" stroke="black" stroke-width="6.48"/>
<line x1="2032.924367" y1="2038.0082" x2="2032.924367" y2="1828.9202" stroke="black" stroke-width="6.48"/>
<line x1="2032.924367" y1="1828.9202" x2="1801.026767" y2="1828.9202" stroke="black" stroke-width="6.48"/>
<line x1="1801.026767" y1="1828.9202" x2="1801.026767" y2="2038.0082" stroke="black" stroke-width="6.48"/>
<line x1="1801.026767" y1="2038.0082" x2="2032.924367" y2="2038.0082" stroke="black" stroke-width="6.48"/>
<line x1="2000.610767" y1="2038.0082" x2="2000.610767" y2="1828.9202" stroke="black" stroke-width="6.48"/>
<line x1="1485.415969" y1="209.267824" x2="1707.693134" y2="209.267824" stroke="black" stroke-width="6.48"/>
<line x1="1707.693134" y1="209.267824" x2="1707.693134" y2="432.000475" stroke="black" stroke-width="6.48"/>
<line x1="1707.693134" y1="432.000475" x2="1485.415969" y2="432.000475" stroke="black" stroke-width="6.48"/>
<line x1="1485.415969" y1="432.000475" x2="1485.415969" y2="209.267824" stroke="black" stroke-width="6.48"/>
<line x1="1484.960483" y1="208.812337" x2="1707.693134" y2="432.000475" stroke="black" stroke-width="6.48"/>
<line x1="1485.415969" y1="431.544989" x2="1707.237648" y2="209.267824" stroke="black" stroke-width="6.48"/>
<line x1="2586.780558" y1="1803.366338" x2="2586.780558" y2="2194.614338" stroke="black" stroke-width="6.48"/>
<line x1="2586.780558" y1="2194.614338" x2="2761.020558" y2="2194.614338" stroke="black" stroke-width="6.48"/>
<line x1="2761.020558" y1="2194.614338" x2="2761.020558" y2="1803.366338" stroke="black" stroke-width="6.48"/>
<line x1="2761.020558" y1="1803.366338" x2="2586.780558" y2="1803.366338" stroke="black" stroke-width="6.48"/>
<line x1="2734.092558" y1="2119.374338" x2="2734.092558" y2="1835.046338" stroke="black" stroke-width="6.48"/>
<line x1="2734.092558" y1="1835.046338" x2="2616.084558" y2="1835.046338" stroke="black" stroke-width="6.48"/>
<line x1="2616.084558" y1="1835.046338" x2="2616.084558" y2="2124.918338" stroke="black" stroke-width="6.48"/>
<path d="m 2734.347982,2118.563766 a 63.35999941905905,63.35999941905905 0 0 1 -119.37432999999965,4.2938139999996565" fill="none" stroke="black" stroke-width="6.48"/>
<line x1="2081.000588" y1="1874.266819" x2="2056.448588" y2="1892.878819" stroke="black" stroke-width="6.48"/>
<line x1="2056.448588" y1="1892.878819" x2="2056.448588" y2="2040.190819" stroke="black" stroke-width="6.48"/>
<line x1="2056.448588" y1="2040.190819" x2="2084.564588" y2="2059.198819" stroke="black" stroke-width="6.48"/>
<line x1="2083.772588" y1="1896.046819" x2="2083.772588" y2="2039.002819" stroke="black" stroke-width="6.48"/>
<circle cx="2105.552588" cy="1965.346819" r="13.068000000000003" fill="none" stroke="black" stroke-width="6.48"/>
<path d="m 2083.105242,1897.600072 a 74.8440000678095,74.8440000678095 0 1 1 0.40204799999992247,139.60900400000014" fill="none" stroke="black" stroke-width="6.48"/>
<path d="m 2080.343225,1874.313122 a 95.43599906226422,95.43599906226422 0 1 1 3.0749580000001515,184.4669960000001" fill="none" stroke="black" stroke-width="6.48"/>
<line x1="842.683799" y1="210.965965" x2="1235.927671" y2="210.965965" stroke="black" stroke-width="6.48"/>
<line x1="1239.883078" y1="209.969683" x2="1239.883078" y2="346.038458" stroke="black" stroke-width="6.48"/>
<line x1="843.148188" y1="347.189965" x2="1240.188419" y2="347.189965" stroke="black" stroke-width="6.48"/>
<line x1="843.883078" y1="211.660715" x2="843.883078" y2="346.924771" stroke="black" stroke-width="6.48"/>
<line x1="854.179078" y1="222.053965" x2="977.731078" y2="222.053965" stroke="black" stroke-width="6.48"/>
<line x1="977.731078" y1="222.053965" x2="977.731078" y2="336.101965" stroke="black" stroke-width="6.48"/>
<line x1="854.179078" y1="336.101965" x2="977.731078" y2="336.101965" stroke="black" stroke-width="6.48"/>
<line x1="854.179078" y1="222.053965" x2="854.179078" y2="336.101965" stroke="black" stroke-width="6.48"/>
<line x1="996.739078" y1="229.181965" x2="1083.859078" y2="229.181965" stroke="black" stroke-width="6.48"/>
<line x1="996.739078" y1="248.981965" x2="1083.859078" y2="248.981965" stroke="black" stroke-width="6.48"/>
<line x1="997.531078" y1="269.573965" x2="1083.859078" y2="269.573965" stroke="black" stroke-width="6.48"/>
<line x1="997.531078" y1="289.373965" x2="1083.859078" y2="289.373965" stroke="black" stroke-width="6.48"/>
<line x1="996.739078" y1="309.173965" x2="1083.859078" y2="309.173965" stroke="black" stroke-width="6.48"/>
<line x1="996.739078" y1="328.973965" x2="1083.859078" y2="328.973965" stroke="black" stroke-width="6.48"/>
<line x1="901.699078" y1="335.309965" x2="901.699078" y2="321.845965" stroke="black" stroke-width="6.48"/>
<line x1="901.699078" y1="321.845965" x2="931.795078" y2="321.845965" stroke="black" stroke-width="6.48"/>
<line x1="931.795078" y1="321.845965" x2="931.795078" y2="334.517965" stroke="black" stroke-width="6.48"/>
<line x1="1104.451078" y1="222.053965" x2="1228.003078" y2="222.053965" stroke="black" stroke-width="6.48"/>
<line x1="1228.003078" y1="222.053965" x2="1228.003078" y2="336.101965" stroke="black" stroke-width="6.48"/>
<line x1="1104.451078" y1="336.101965" x2="1228.003078" y2="336.101965" stroke="black" stroke-width="6.48"/>
<line x1="1104.451078" y1="222.053965" x2="1104.451078" y2="336.101965" stroke="black" stroke-width="6.48"/>
<line x1="1151.971078" y1="336.101965" x2="1151.971078" y2="322.637965" stroke="black" stroke-width="6.48"/>
<line x1="1151.971078" y1="322.637965" x2="1182.067078" y2="322.637965" stroke="black" stroke-width="6.48"/>
<line x1="1182.067078" y1="322.637965" x2="1182.067078" y2="335.309965" stroke="black" stroke-width="6.48"/>
<circle cx="963.475078" cy="236.309965" r="7.128000000000001" fill="none" stroke="black" stroke-width="6.48"/>
<circle cx="1213.747078" cy="237.101965" r="7.128000000000001" fill="none" stroke="black" stroke-width="6.48"/>
<line x1="709.060723" y1="1008.529812" x2="821.092626" y2="938.524507" stroke="black" stroke-width="6.48"/>
<line x1="821.092626" y1="938.524507" x2="828.647154" y2="950.614279" stroke="black" stroke-width="6.48"/>
<line x1="716.615251" y1="1020.619584" x2="828.647154" y2="950.614279" stroke="black" stroke-width="6.48"/>
<line x1="709.060723" y1="1008.529812" x2="716.615251" y2="1020.619584" stroke="black" stroke-width="6.48"/>
<line x1="727.899041" y1="1013.568689" x2="742.907034" y2="1041.17346" stroke="black" stroke-width="6.48"/>
<line x1="817.363364" y1="957.665174" x2="836.098934" y2="984.06139" stroke="black" stroke-width="6.48"/>
<line x1="953.323826" y1="1399.432489" x2="1065.355733" y2="1329.427192" stroke="black" stroke-width="6.48"/>
<line x1="1065.355733" y1="1329.427192" x2="1058.304838" y2="1318.143402" stroke="black" stroke-width="6.48"/>
<line x1="946.272931" y1="1388.148703" x2="1058.304838" y2="1318.143402" stroke="black" stroke-width="6.48"/>
<line x1="953.323826" y1="1399.432489" x2="946.272931" y2="1388.148703" stroke="black" stroke-width="6.48"/>
<line x1="955.743466" y1="1379.989472" x2="937.511536" y2="1354.399243" stroke="black" stroke-width="6.48"/>
<line x1="1045.207796" y1="1324.085958" x2="1030.502149" y2="1295.171568" stroke="black" stroke-width="6.48"/>
<line x1="1046.850934" y1="991.334632" x2="1034.761158" y2="998.88916" stroke="black" stroke-width="6.48"/>
<line x1="1034.761158" y1="998.88916" x2="1104.766459" y2="1110.921062" stroke="black" stroke-width="6.48"/>
<line x1="1116.856235" y1="1103.366531" x2="1104.766459" y2="1110.921062" stroke="black" stroke-width="6.48"/>
<line x1="1046.850934" y1="991.334632" x2="1116.856235" y2="1103.366531" stroke="black" stroke-width="6.48"/>
<line x1="1097.211931" y1="1098.83129" x2="1071.319349" y2="1118.372839" stroke="black" stroke-width="6.48"/>
<line x1="1041.81205" y1="1010.172949" x2="1013.401292" y2="1025.684579" stroke="black" stroke-width="6.48"/>
<line x1="656.250599" y1="1234.288116" x2="668.340371" y2="1226.733588" stroke="black" stroke-width="6.48"/>
<line x1="668.340371" y1="1226.733588" x2="738.345676" y2="1338.765487" stroke="black" stroke-width="6.48"/>
<line x1="726.255904" y1="1346.320019" x2="738.345676" y2="1338.765487" stroke="black" stroke-width="6.48"/>
<line x1="656.250599" y1="1234.288116" x2="726.255904" y2="1346.320019" stroke="black" stroke-width="6.48"/>
<line x1="730.791148" y1="1326.675715" x2="759.705541" y2="1311.970068" stroke="black" stroke-width="6.48"/>
<line x1="675.391266" y1="1238.017374" x2="701.787481" y2="1219.281808" stroke="black" stroke-width="6.48"/>
<circle cx="886.553417" cy="1168.827325" r="191.98080000000002" fill="none" stroke="black" stroke-width="6.48"/>
<line x1="2044.889399" y1="955.822399" x2="2267.166564" y2="955.822399" stroke="black" stroke-width="6.48"/>
<line x1="2267.166564" y1="955.822399" x2="2267.166564" y2="1178.555051" stroke="black" stroke-width="6.48"/>
<line x1="2267.166564" y1="1178.555051" x2="2044.889399" y2="1178.555051" stroke="black" stroke-width="6.48"/>
<line x1="2044.889399" y1="1178.555051" x2="2044.889399" y2="955.822399" stroke="black" stroke-width="6.48"/>
<line x1="2044.433912" y1="955.366913" x2="2267.166564" y2="1178.555051" stroke="black" stroke-width="6.48"/>
<line x1="2044.889399" y1="1178.099564" x2="2266.711078" y2="955.822399" stroke="black" stroke-width="6.48"/>
<line x1="323.258818" y1="1375.374532" x2="323.258818" y2="949.841089" stroke="black" stroke-width="6.48"/>
<line x1="323.258818" y1="949.841089" x2="257.659344" y2="949.841089" stroke="black" stroke-width="6.48"/>
<line x1="257.659344" y1="949.841089" x2="257.659344" y2="1375.374532" stroke="black" stroke-width="6.48"/>
<line x1="257.659344" y1="1375.374532" x2="323.258818" y2="1375.374532" stroke="black" stroke-width="6.48"/>
<line x1="258.522494" y1="1335.669588" x2="322.395667" y2="1335.669588" stroke="black" stroke-width="6.48"/>
<line x1="258.522494" y1="990.409187" x2="324.985122" y2="990.409187" stroke="black" stroke-width="6.48"/>
<line x1="288.73278" y1="1336.532738" x2="288.73278" y2="991.272337" stroke="black" stroke-width="6.48"/>
<line x1="3874.406537" y1="1514.726719" x2="3874.406537" y2="1940.260162" stroke="black" stroke-width="6.48"/>
<line x1="3874.406537" y1="1940.260162" x2="3940.00601" y2="1940.260162" stroke="black" stroke-width="6.48"/>
<line x1="3940.00601" y1="1940.260162" x2="3940.00601" y2="1514.726719" stroke="black" stroke-width="6.48"/>
<line x1="3940.00601" y1="1514.726719" x2="3874.406537" y2="1514.726719" stroke="black" stroke-width="6.48"/>
<line x1="3939.14286" y1="1554.431663" x2="3875.269687" y2="1554.431663" stroke="black" stroke-width="6.48"/>
<line x1="3939.14286" y1="1899.692064" x2="3872.680232" y2="1899.692064" stroke="black" stroke-width="6.48"/>
<line x1="3908.932574" y1="1553.568512" x2="3908.932574" y2="1898.828914" stroke="black" stroke-width="6.48"/>
<line x1="4640.506045" y1="1613.709205" x2="4559.173715" y2="1509.608574" stroke="black" stroke-width="6.48"/>
<line x1="4559.173715" y1="1509.608574" x2="4570.407594" y2="1500.831702" stroke="black" stroke-width="6.48"/>
<line x1="4651.739924" y1="1604.932337" x2="4570.407594" y2="1500.831702" stroke="black" stroke-width="6.48"/>
<line x1="4640.506045" y1="1613.709205" x2="4651.739924" y2="1604.932337" stroke="black" stroke-width="6.48"/>
<line x1="4643.548182" y1="1594.44738" x2="4669.432967" y2="1576.636117" stroke="black" stroke-width="6.48"/>
<line x1="4578.599344" y1="1511.316659" x2="4602.892558" y2="1489.92457" stroke="black" stroke-width="6.48"/>
<line x1="5003.734871" y1="1329.923743" x2="4922.402544" y2="1225.823112" stroke="black" stroke-width="6.48"/>
<line x1="4922.402544" y1="1225.823112" x2="4911.917587" y2="1234.014854" stroke="black" stroke-width="6.48"/>
<line x1="4993.249918" y1="1338.115489" x2="4911.917587" y2="1234.014854" stroke="black" stroke-width="6.48"/>
<line x1="5003.734871" y1="1329.923743" x2="4993.249918" y2="1338.115489" stroke="black" stroke-width="6.48"/>
<line x1="4984.145446" y1="1329.549707" x2="4960.601154" y2="1350.356674" stroke="black" stroke-width="6.48"/>
<line x1="4919.196607" y1="1246.418986" x2="4891.977767" y2="1264.066452" stroke="black" stroke-width="6.48"/>
<line x1="4588.096367" y1="1279.566832" x2="4596.873242" y2="1290.800714" stroke="black" stroke-width="6.48"/>
<line x1="4596.873242" y1="1290.800714" x2="4700.973877" y2="1209.468384" stroke="black" stroke-width="6.48"/>
<line x1="4692.197002" y1="1198.234505" x2="4700.973877" y2="1209.468384" stroke="black" stroke-width="6.48"/>
<line x1="4588.096367" y1="1279.566832" x2="4692.197002" y2="1198.234505" stroke="black" stroke-width="6.48"/>
<line x1="4689.739994" y1="1218.245256" x2="4711.881006" y2="1241.953348" stroke="black" stroke-width="6.48"/>
<line x1="4607.358196" y1="1282.608968" x2="4625.754581" y2="1309.242686" stroke="black" stroke-width="6.48"/>
<line x1="4870.547784" y1="1642.631861" x2="4861.770916" y2="1631.397978" stroke="black" stroke-width="6.48"/>
<line x1="4861.770916" y1="1631.397978" x2="4965.871547" y2="1550.065655" stroke="black" stroke-width="6.48"/>
<line x1="4974.648419" y1="1561.29953" x2="4965.871547" y2="1550.065655" stroke="black" stroke-width="6.48"/>
<line x1="4870.547784" y1="1642.631861" x2="4974.648419" y2="1561.29953" stroke="black" stroke-width="6.48"/>
<line x1="4954.637668" y1="1558.842523" x2="4936.990205" y2="1531.623683" stroke="black" stroke-width="6.48"/>
<line x1="4872.255872" y1="1623.206236" x2="4850.86378" y2="1598.913022" stroke="black" stroke-width="6.48"/>
<circle cx="4781.372393" cy="1420.433183" r="191.98080000000002" fill="none" stroke="black" stroke-width="6.48"/>
<line x1="3105.804658" y1="1074.321594" x2="3315.169861" y2="1074.321594" stroke="black" stroke-width="6.48"/>
<line x1="3315.169861" y1="1074.321594" x2="3315.169861" y2="743.10719" stroke="black" stroke-width="6.48"/>
<line x1="3315.169861" y1="743.10719" x2="3105.804658" y2="743.10719" stroke="black" stroke-width="6.48"/>
<line x1="3105.804658" y1="743.10719" x2="3105.804658" y2="1074.321594" stroke="black" stroke-width="6.48"/>
<line x1="3105.131458" y1="802.34879" x2="3315.843058" y2="802.34879" stroke="black" stroke-width="6.48"/>
<line x1="3315.843058" y1="802.34879" x2="3106.477858" y2="852.165594" stroke="black" stroke-width="6.48"/>
<line x1="3106.477858" y1="852.165594" x2="3138.118261" y2="898.616394" stroke="black" stroke-width="6.48"/>
<line x1="3138.118261" y1="898.616394" x2="3315.843058" y2="801.675594" stroke="black" stroke-width="6.48"/>
<line x1="3327.506374" y1="1203.468048" x2="3549.783539" y2="1203.468048" stroke="black" stroke-width="6.48"/>
<line x1="3549.783539" y1="1203.468048" x2="3549.783539" y2="1426.2007" stroke="black" stroke-width="6.48"/>
<line x1="3549.783539" y1="1426.2007" x2="3327.506374" y2="1426.2007" stroke="black" stroke-width="6.48"/>
<line x1="3327.506374" y1="1426.2007" x2="3327.506374" y2="1203.468048" stroke="black" stroke-width="6.48"/>
<line x1="3327.050887" y1="1203.012562" x2="3549.783539" y2="1426.2007" stroke="black" stroke-width="6.48"/>
<line x1="3327.506374" y1="1425.745213" x2="3549.328052" y2="1203.468048" stroke="black" stroke-width="6.48"/>
<line x1="2804.16708" y1="1127.69402" x2="2804.16708" y2="1153.148746" stroke="black" stroke-width="6.48"/>
<line x1="2804.16708" y1="1153.148746" x2="2853.834836" y2="1153.148746" stroke="black" stroke-width="6.48"/>
<line x1="2853.834836" y1="1153.148746" x2="2853.834836" y2="1127.69402" stroke="black" stroke-width="6.48"/>
<line x1="2853.834836" y1="1127.69402" x2="2804.16708" y2="1127.69402" stroke="black" stroke-width="6.48"/>
<line x1="2853.834836" y1="1402.108373" x2="3101.55277" y2="1402.108373" stroke="black" stroke-width="6.48"/>
<line x1="2802.925386" y1="1402.729218" x2="2802.925386" y2="1428.183943" stroke="black" stroke-width="6.48"/>
<line x1="2802.925386" y1="1428.183943" x2="2852.593142" y2="1428.183943" stroke="black" stroke-width="6.48"/>
<line x1="2852.593142" y1="1428.183943" x2="2852.593142" y2="1402.729218" stroke="black" stroke-width="6.48"/>
<line x1="2852.593142" y1="1402.729218" x2="2802.925386" y2="1402.729218" stroke="black" stroke-width="6.48"/>
<path d="m 2851.972294,1153.148746 a 248.95962699999984,248.95962699999984 0 0 1 248.95962699999973,248.95962699999995" fill="none" stroke="black" stroke-width="6.48"/>
<line x1="2976.367342" y1="2031.030335" x2="2905.162196" y2="2207.269472" stroke="black" stroke-width="6.48"/>
<line x1="2905.162196" y1="2207.269472" x2="3335.185692" y2="2381.010023" stroke="black" stroke-width="6.48"/>
<line x1="3335.185692" y1="2381.010023" x2="3406.390837" y2="2204.770885" stroke="black" stroke-width="6.48"/>
<line x1="3406.390837" y1="2204.770885" x2="3384.360947" y2="2195.870242" stroke="black" stroke-width="6.48"/>
<line x1="3384.360947" y1="2195.870242" x2="3321.70042" y2="2350.960686" stroke="black" stroke-width="6.48"/>
<line x1="3321.70042" y1="2350.960686" x2="2936.617902" y2="2195.377445" stroke="black" stroke-width="6.48"/>
<line x1="2936.617902" y1="2195.377445" x2="2999.278429" y2="2040.287004" stroke="black" stroke-width="6.48"/>
<line x1="2999.278429" y1="2040.287004" x2="2976.367342" y2="2031.030335" stroke="black" stroke-width="6.48"/>
<line x1="2997.142276" y1="2045.574176" x2="3382.224793" y2="2201.157418" stroke="black" stroke-width="6.48"/>
<line x1="3189.59896" y1="2122.306589" x2="3129.07459" y2="2272.109857" stroke="black" stroke-width="6.48"/>
<line x1="3700.867698" y1="1860.379909" x2="3489.0187" y2="1954.701158" stroke="black" stroke-width="6.48"/>
<line x1="3489.0187" y1="1954.701158" x2="3394.504166" y2="1742.418043" stroke="black" stroke-width="6.48"/>
<line x1="3394.504166" y1="1742.418043" x2="3606.353165" y2="1648.09679" stroke="black" stroke-width="6.48"/>
<line x1="3606.353165" y1="1648.09679" x2="3700.867698" y2="1860.379909" stroke="black" stroke-width="6.48"/>
<line x1="3701.495095" y1="1860.620746" x2="3394.504166" y2="1742.418043" stroke="black" stroke-width="6.48"/>
<line x1="3606.546449" y1="1648.530911" x2="3489.452816" y2="1954.507878" stroke="black" stroke-width="6.48"/>
<line x1="3089.601562" y1="1589.315879" x2="3074.626764" y2="1616.331136" stroke="black" stroke-width="6.48"/>
<line x1="3074.626764" y1="1616.331136" x2="3257.914867" y2="1717.929389" stroke="black" stroke-width="6.48"/>
<line x1="3257.914867" y1="1717.929389" x2="3272.889668" y2="1690.914139" stroke="black" stroke-width="6.48"/>
<line x1="3272.889668" y1="1690.914139" x2="3089.601562" y2="1589.315879" stroke="black" stroke-width="6.48"/>
<line x1="2990.767882" y1="1767.616553" x2="2975.793084" y2="1794.63181" stroke="black" stroke-width="6.48"/>
<line x1="2975.793084" y1="1794.63181" x2="3159.081187" y2="1896.230063" stroke="black" stroke-width="6.48"/>
<line x1="3159.081187" y1="1896.230063" x2="3174.055988" y2="1869.21481" stroke="black" stroke-width="6.48"/>
<line x1="3174.055988" y1="1869.21481" x2="2990.767882" y2="1767.616553" stroke="black" stroke-width="6.48"/>
<line x1="3074.857146" y1="1615.915516" x2="2990.767882" y2="1767.616553" stroke="black" stroke-width="6.48"/>
<line x1="3257.544391" y1="1716.637388" x2="3267.502088" y2="1752.583054" stroke="black" stroke-width="6.48"/>
<line x1="3208.754794" y1="1858.56597" x2="3172.99437" y2="1869.169666" stroke="black" stroke-width="6.48"/>
<line x1="3268.423613" y1="1750.920577" x2="3207.833273" y2="1860.22845" stroke="black" stroke-width="6.48"/>
<line x1="3113.694976" y1="1637.987" x2="3029.605718" y2="1789.688038" stroke="black" stroke-width="6.48"/>
<line x1="3803.347415" y1="1155.343367" x2="3808.179364" y2="1124.835649" stroke="black" stroke-width="6.48"/>
<line x1="3808.179364" y1="1124.835649" x2="3601.196233" y2="1092.052742" stroke="black" stroke-width="6.48"/>
<line x1="3601.196233" y1="1092.052742" x2="3596.364284" y2="1122.56046" stroke="black" stroke-width="6.48"/>
<line x1="3596.364284" y1="1122.56046" x2="3803.347415" y2="1155.343367" stroke="black" stroke-width="6.48"/>
<line x1="3835.238267" y1="953.992433" x2="3840.070216" y2="923.484715" stroke="black" stroke-width="6.48"/>
<line x1="3840.070216" y1="923.484715" x2="3633.087089" y2="890.701805" stroke="black" stroke-width="6.48"/>
<line x1="3633.087089" y1="890.701805" x2="3628.25514" y2="921.209526" stroke="black" stroke-width="6.48"/>
<line x1="3628.25514" y1="921.209526" x2="3835.238267" y2="953.992433" stroke="black" stroke-width="6.48"/>
<line x1="3808.105024" y1="1125.305003" x2="3835.238267" y2="953.992433" stroke="black" stroke-width="6.48"/>
<line x1="3601.986257" y1="1093.140119" x2="3580.334942" y2="1062.767977" stroke="black" stroke-width="6.48"/>
<line x1="3599.291045" y1="943.08385" x2="3629.268176" y2="920.888849" stroke="black" stroke-width="6.48"/>
<line x1="3580.037593" y1="1064.645374" x2="3599.588398" y2="941.206453" stroke="black" stroke-width="6.48"/>
<line x1="3764.060507" y1="1117.847909" x2="3791.193754" y2="946.535342" stroke="black" stroke-width="6.48"/>
<line x1="6210.078635" y1="2164.775666" x2="6253.550474" y2="2369.29459" stroke="black" stroke-width="6.48"/>
<line x1="6253.550474" y1="2369.29459" x2="6480.38056" y2="2321.080366" stroke="black" stroke-width="6.48"/>
<line x1="6480.38056" y1="2321.080366" x2="6436.90872" y2="2116.561442" stroke="black" stroke-width="6.48"/>
<line x1="6436.90872" y1="2116.561442" x2="6210.078635" y2="2164.775666" stroke="black" stroke-width="6.48"/>
<line x1="6241.686109" y1="2158.057289" x2="6285.157949" y2="2362.576216" stroke="black" stroke-width="6.48"/>
<line x1="973.871752" y1="1981.370938" x2="1151.188402" y2="2092.170737" stroke="black" stroke-width="6.48"/>
<line x1="1151.188402" y1="2092.170737" x2="1274.075456" y2="1895.510452" stroke="black" stroke-width="6.48"/>
<line x1="1274.075456" y1="1895.510452" x2="1096.758803" y2="1784.710649" stroke="black" stroke-width="6.48"/>
<line x1="1096.758803" y1="1784.710649" x2="973.871752" y2="1981.370938" stroke="black" stroke-width="6.48"/>
<line x1="990.995357" y1="1953.967453" x2="1168.312007" y2="2064.767252" stroke="black" stroke-width="6.48"/>
<line x1="5875.44592" y1="1786.453754" x2="5946.958224" y2="1982.932204" stroke="black" stroke-width="6.48"/>
<line x1="5946.958224" y1="1982.932204" x2="6164.870688" y2="1903.618552" stroke="black" stroke-width="6.48"/>
<line x1="6164.870688" y1="1903.618552" x2="6093.358384" y2="1707.140102" stroke="black" stroke-width="6.48"/>
<line x1="6093.358384" y1="1707.140102" x2="5875.44592" y2="1786.453754" stroke="black" stroke-width="6.48"/>
<line x1="5905.810771" y1="1775.401852" x2="5977.323079" y2="1971.880304" stroke="black" stroke-width="6.48"/>
<line x1="2340.469836" y1="2050.238606" x2="2571.097072" y2="2074.478562" stroke="black" stroke-width="6.48"/>
<line x1="2571.097072" y1="2074.478562" x2="2546.807443" y2="2305.578395" stroke="black" stroke-width="6.48"/>
<line x1="2546.807443" y1="2305.578395" x2="2316.180208" y2="2281.338436" stroke="black" stroke-width="6.48"/>
<line x1="2316.180208" y1="2281.338436" x2="2340.469836" y2="2050.238606" stroke="black" stroke-width="6.48"/>
<line x1="2340.046912" y1="2049.716336" x2="2546.807443" y2="2305.578395" stroke="black" stroke-width="6.48"/>
<line x1="2316.22988" y1="2280.865838" x2="2570.624474" y2="2074.428889" stroke="black" stroke-width="6.48"/>
</g>
</svg>
