<?xml version="1.0"?>
<svg xmlns:xlink="http://www.w3.org/1999/xlink" width="6775.2" height="2858.4">
<image x="0" y="0" width="6775.2" height="2858.4" xlink:href="groundfilled-01.png"/>
<g style="stroke-linecap:round">
<line x1="1285.950406" y1="795.178109" x2="1311.346069" y2="795.178109" stroke="black" stroke-width="6.48"/>
<line x1="1311.346069" y1="795.178109" x2="1311.346069" y2="745.625592" stroke="black" stroke-width="6.48"/>
<line x1="1311.346069" y1="745.625592" x2="1285.950406" y2="745.625592" stroke="black" stroke-width="6.48"/>
<line x1="1285.950406" y1="745.625592" x2="1285.950406" y2="795.178109" stroke="black" stroke-width="6.48"/>
<line x1="1559.728062" y1="745.625592" x2="1559.728062" y2="498.48241" stroke="black" stroke-width="6.48"/>
<line x1="1560.347471" y1="796.416923" x2="1585.743134" y2="796.416923" stroke="black" stroke-width="6.48"/>
<line x1="1585.743134" y1="796.416923" x2="1585.743134" y2="746.864406" stroke="black" stroke-width="6.48"/>
<line x1="1585.743134" y1="746.864406" x2="1560.347471" y2="746.864406" stroke="black" stroke-width="6.48"/>
<line x1="1560.347471" y1="746.864406" x2="1560.347471" y2="796.416923" stroke="black" stroke-width="6.48"/>
<path d="m 1311.346069,747.483811 a 248.38199299999997,248.38199299999997 0 0 1 248.38199299999997,-248.38199299999997" fill="none" stroke="black" stroke-width="6.48"/>
<line x1="320.532556" y1="771.34176" x2="320.532556" y2="366.736194" stroke="black" stroke-width="6.48"/>
<line x1="320.532556" y1="366.736194" x2="258.159283" y2="366.736194" stroke="black" stroke-width="6.48"/>
<line x1="258.159283" y1="366.736194" x2="258.159283" y2="771.34176" stroke="black" stroke-width="6.48"/>
<line x1="258.159283" y1="771.34176" x2="320.532556" y2="771.34176" stroke="black" stroke-width="6.48"/>
<line x1="258.979986" y1="733.589518" x2="319.711856" y2="733.589518" stroke="black" stroke-width="6.48"/>
<line x1="258.979986" y1="405.309139" x2="322.173958" y2="405.309139" stroke="black" stroke-width="6.48"/>
<line x1="287.704519" y1="734.410217" x2="287.704519" y2="406.129838" stroke="black" stroke-width="6.48"/>
<line x1="3901.945176" y1="1169.331426" x2="3901.945176" y2="1428.837066" stroke="black" stroke-width="6.48"/>
<line x1="3901.945176" y1="1428.837066" x2="3941.9501" y2="1428.837066" stroke="black" stroke-width="6.48"/>
<line x1="3941.9501" y1="1428.837066" x2="3941.9501" y2="1169.331426" stroke="black" stroke-width="6.48"/>
<line x1="3941.9501" y1="1169.331426" x2="3901.945176" y2="1169.331426" stroke="black" stroke-width="6.48"/>
<line x1="3941.423719" y1="1193.544936" x2="3902.471557" y2="1193.544936" stroke="black" stroke-width="6.48"/>
<line x1="3941.423719" y1="1404.097178" x2="3900.892414" y2="1404.097178" stroke="black" stroke-width="6.48"/>
<line x1="3923.000399" y1="1193.018555" x2="3923.000399" y2="1403.570797" stroke="black" stroke-width="6.48"/>
<line x1="334.430687" y1="1882.943946" x2="334.430687" y2="1457.437414" stroke="black" stroke-width="6.48"/>
<line x1="334.430687" y1="1457.437414" x2="258.323828" y2="1457.437414" stroke="black" stroke-width="6.48"/>
<line x1="258.323828" y1="1457.437414" x2="258.323828" y2="1882.943946" stroke="black" stroke-width="6.48"/>
<line x1="258.323828" y1="1882.943946" x2="334.430687" y2="1882.943946" stroke="black" stroke-width="6.48"/>
<line x1="334.430687" y1="1863.05238" x2="360.376207" y2="1863.05238" stroke="black" stroke-width="6.48"/>
<line x1="360.376207" y1="1863.05238" x2="360.376207" y2="1478.193829" stroke="black" stroke-width="6.48"/>
<line x1="334.430687" y1="1478.193829" x2="360.376207" y2="1478.193829" stroke="black" stroke-width="6.48"/>
<line x1="2747.905531" y1="904.670665" x2="2721.68303" y2="904.670665" stroke="black" stroke-width="6.48"/>
<line x1="2721.68303" y1="904.670665" x2="2721.68303" y2="955.836522" stroke="black" stroke-width="6.48"/>
<line x1="2721.68303" y1="955.836522" x2="2747.905531" y2="955.836522" stroke="black" stroke-width="6.48"/>
<line x1="2747.905531" y1="955.836522" x2="2747.905531" y2="904.670665" stroke="black" stroke-width="6.48"/>
<line x1="2465.214181" y1="955.836522" x2="2465.214181" y2="1211.026223" stroke="black" stroke-width="6.48"/>
<line x1="2464.574609" y1="903.39152" x2="2438.352108" y2="903.39152" stroke="black" stroke-width="6.48"/>
<line x1="2438.352108" y1="903.39152" x2="2438.352108" y2="954.557374" stroke="black" stroke-width="6.48"/>
<line x1="2438.352108" y1="954.557374" x2="2464.574609" y2="954.557374" stroke="black" stroke-width="6.48"/>
<line x1="2464.574609" y1="954.557374" x2="2464.574609" y2="903.39152" stroke="black" stroke-width="6.48"/>
<path d="m 2721.68303,953.917801 a 256.4688490000001,256.4688490000001 0 0 1 -256.4688490000003,256.46884899999986" fill="none" stroke="black" stroke-width="6.48"/>
<line x1="2420.532389" y1="1427.858834" x2="2395.136725" y2="1427.858834" stroke="black" stroke-width="6.48"/>
<line x1="2395.136725" y1="1427.858834" x2="2395.136725" y2="1477.411351" stroke="black" stroke-width="6.48"/>
<line x1="2395.136725" y1="1477.411351" x2="2420.532389" y2="1477.411351" stroke="black" stroke-width="6.48"/>
<line x1="2420.532389" y1="1477.411351" x2="2420.532389" y2="1427.858834" stroke="black" stroke-width="6.48"/>
<line x1="2146.754732" y1="1477.411351" x2="2146.754732" y2="1724.554534" stroke="black" stroke-width="6.48"/>
<line x1="2146.135324" y1="1426.62002" x2="2120.73966" y2="1426.62002" stroke="black" stroke-width="6.48"/>
<line x1="2120.73966" y1="1426.62002" x2="2120.73966" y2="1476.172537" stroke="black" stroke-width="6.48"/>
<line x1="2120.73966" y1="1476.172537" x2="2146.135324" y2="1476.172537" stroke="black" stroke-width="6.48"/>
<line x1="2146.135324" y1="1476.172537" x2="2146.135324" y2="1426.62002" stroke="black" stroke-width="6.48"/>
<path d="m 2395.136725,1475.553132 a 248.38199299999997,248.38199299999997 0 0 1 -248.38199299999997,248.38199299999997" fill="none" stroke="black" stroke-width="6.48"/>
<line x1="626.692619" y1="541.339351" x2="858.590219" y2="541.339351" stroke="black" stroke-width="6.48"/>
<line x1="858.590219" y1="541.339351" x2="858.590219" y2="773.712151" stroke="black" stroke-width="6.48"/>
<line x1="858.590219" y1="773.712151" x2="626.692619" y2="773.712151" stroke="black" stroke-width="6.48"/>
<line x1="626.692619" y1="773.712151" x2="626.692619" y2="541.339351" stroke="black" stroke-width="6.48"/>
<line x1="626.217419" y1="540.864151" x2="858.590219" y2="773.712151" stroke="black" stroke-width="6.48"/>
<line x1="626.692619" y1="773.236951" x2="858.115019" y2="541.339351" stroke="black" stroke-width="6.48"/>
<line x1="2032.924367" y1="1722.213011" x2="2032.924367" y2="1691.325011" stroke="black" stroke-width="6.48"/>
<line x1="2032.924367" y1="1691.325011" x2="1823.361167" y2="1691.325011" stroke="black" stroke-width="6.48"/>
<line x1="1823.361167" y1="1691.325011" x2="1823.361167" y2="1722.213011" stroke="black" stroke-width="6.48"/>
<line x1="1823.361167" y1="1722.213011" x2="2032.924367" y2="1722.213011" stroke="black" stroke-width="6.48"/>
<line x1="2032.924367" y1="1518.352211" x2="2032.924367" y2="1487.464211" stroke="black" stroke-width="6.48"/>
<line x1="2032.924367" y1="1487.464211" x2="1823.361167" y2="1487.464211" stroke="black" stroke-width="6.48"/>
<line x1="1823.361167" y1="1487.464211" x2="1823.361167" y2="1518.352211" stroke="black" stroke-width="6.48"/>
<line x1="1823.361167" y1="1518.352211" x2="2032.924367" y2="1518.352211" stroke="black" stroke-width="6.48"/>
<line x1="2032.924367" y1="1691.800211" x2="2032.924367" y2="1518.352211" stroke="black" stroke-width="6.48"/>
<line x1="1824.311567" y1="1692.275411" x2="1798.175567" y2="1665.664211" stroke="black" stroke-width="6.48"/>
<line x1="1798.175567" y1="1544.488211" x2="1824.311567" y2="1517.877011" stroke="black" stroke-width="6.48"/>
<line x1="1798.175567" y1="1667.565011" x2="1798.175567" y2="1542.587411" stroke="black" stroke-width="6.48"/>
<line x1="1988.255567" y1="1691.325011" x2="1988.255567" y2="1517.877011" stroke="black" stroke-width="6.48"/>
<line x1="1485.415969" y1="209.267824" x2="1707.693134" y2="209.267824" stroke="black" stroke-width="6.48"/>
<line x1="1707.693134" y1="209.267824" x2="1707.693134" y2="432.000475" stroke="black" stroke-width="6.48"/>
<line x1="1707.693134" y1="432.000475" x2="1485.415969" y2="432.000475" stroke="black" stroke-width="6.48"/>
<line x1="1485.415969" y1="432.000475" x2="1485.415969" y2="209.267824" stroke="black" stroke-width="6.48"/>
<line x1="1484.960483" y1="208.812337" x2="1707.693134" y2="432.000475" stroke="black" stroke-width="6.48"/>
<line x1="1485.415969" y1="431.544989" x2="1707.237648" y2="209.267824" stroke="black" stroke-width="6.48"/>
<line x1="2761.020558" y1="2194.614338" x2="2761.020558" y2="1803.366338" stroke="black" stroke-width="6.48"/>
<line x1="2761.020558" y1="1803.366338" x2="2586.780558" y2="1803.366338" stroke="black" stroke-width="6.48"/>
<line x1="2586.780558" y1="1803.366338" x2="2586.780558" y2="2194.614338" stroke="black" stroke-width="6.48"/>
<line x1="2586.780558" y1="2194.614338" x2="2761.020558" y2="2194.614338" stroke="black" stroke-width="6.48"/>
<line x1="2613.708558" y1="1878.606338" x2="2613.708558" y2="2162.934338" stroke="black" stroke-width="6.48"/>
<line x1="2613.708558" y1="2162.934338" x2="2731.716558" y2="2162.934338" stroke="black" stroke-width="6.48"/>
<line x1="2731.716558" y1="2162.934338" x2="2731.716558" y2="1873.062338" stroke="black" stroke-width="6.48"/>
<path d="m 2613.453134,1879.416911 a 63.3599990854681,63.3599990854681 0 0 1 119.3743300000001,-4.293814000000111" fill="none" stroke="black" stroke-width="6.48"/>
<line x1="2105.837654" y1="1910.184934" x2="2105.837654" y2="2093.928934" stroke="black" stroke-width="6.48"/>
<line x1="2105.837654" y1="2093.928934" x2="2056.733654" y2="2093.928934" stroke="black" stroke-width="6.48"/>
<line x1="2056.733654" y1="1910.184934" x2="2056.733654" y2="2093.928934" stroke="black" stroke-width="6.48"/>
<line x1="2105.837654" y1="1910.184934" x2="2056.733654" y2="1910.184934" stroke="black" stroke-width="6.48"/>
<line x1="2133.557654" y1="1951.764934" x2="2105.837654" y2="1951.764934" stroke="black" stroke-width="6.48"/>
<line x1="2105.837654" y1="2050.764934" x2="2135.141654" y2="2050.764934" stroke="black" stroke-width="6.48"/>
<circle cx="2178.701654" cy="2000.472934" r="66.52800000000002" fill="none" stroke="black" stroke-width="6.48"/>
<circle cx="2178.701654" cy="2000.472934" r="57.02400000000001" fill="none" stroke="black" stroke-width="6.48"/>
<line x1="871.959139" y1="209.882956" x2="1142.506339" y2="209.882956" stroke="black" stroke-width="6.48"/>
<line x1="1142.506339" y1="209.882956" x2="1142.506339" y2="341.830156" stroke="black" stroke-width="6.48"/>
<line x1="871.959139" y1="341.830156" x2="1142.506339" y2="341.830156" stroke="black" stroke-width="6.48"/>
<line x1="871.959139" y1="209.882956" x2="871.959139" y2="341.830156" stroke="black" stroke-width="6.48"/>
<line x1="878.611939" y1="216.535756" x2="1016.657539" y2="216.535756" stroke="black" stroke-width="6.48"/>
<line x1="1016.657539" y1="216.535756" x2="1016.657539" y2="334.622956" stroke="black" stroke-width="6.48"/>
<line x1="878.611939" y1="334.622956" x2="1016.657539" y2="334.622956" stroke="black" stroke-width="6.48"/>
<line x1="878.611939" y1="216.535756" x2="878.611939" y2="334.622956" stroke="black" stroke-width="6.48"/>
<line x1="1031.071939" y1="224.297356" x2="1128.091939" y2="224.297356" stroke="black" stroke-width="6.48"/>
<line x1="1031.071939" y1="244.810156" x2="1128.091939" y2="244.810156" stroke="black" stroke-width="6.48"/>
<line x1="1031.626339" y1="265.877356" x2="1128.646339" y2="265.877356" stroke="black" stroke-width="6.48"/>
<line x1="1031.626339" y1="286.390156" x2="1128.646339" y2="286.390156" stroke="black" stroke-width="6.48"/>
<line x1="1031.071939" y1="306.902956" x2="1128.091939" y2="306.902956" stroke="black" stroke-width="6.48"/>
<line x1="1031.071939" y1="327.415756" x2="1128.091939" y2="327.415756" stroke="black" stroke-width="6.48"/>
<line x1="931.279939" y1="334.622956" x2="931.279939" y2="320.762956" stroke="black" stroke-width="6.48"/>
<line x1="931.279939" y1="320.762956" x2="965.652739" y2="320.762956" stroke="black" stroke-width="6.48"/>
<line x1="965.652739" y1="320.762956" x2="965.652739" y2="334.068556" stroke="black" stroke-width="6.48"/>
<circle cx="1001.134339" cy="231.504556" r="8.316000000000003" fill="none" stroke="black" stroke-width="6.48"/>
<line x1="985.169236" y1="1321.935678" x2="1070.085078" y2="1220.736917" stroke="black" stroke-width="6.48"/>
<line x1="1070.085078" y1="1220.736917" x2="1081.005808" y2="1229.900497" stroke="black" stroke-width="6.48"/>
<line x1="996.089965" y1="1331.099258" x2="1081.005808" y2="1229.900497" stroke="black" stroke-width="6.48"/>
<line x1="985.169236" y1="1321.935678" x2="996.089965" y2="1331.099258" stroke="black" stroke-width="6.48"/>
<line x1="1004.64264" y1="1320.906578" x2="1027.446437" y2="1342.522552" stroke="black" stroke-width="6.48"/>
<line x1="1072.453136" y1="1240.093177" x2="1098.428598" y2="1259.407865" stroke="black" stroke-width="6.48"/>
<line x1="1338.272827" y1="1618.224772" x2="1423.18867" y2="1517.02601" stroke="black" stroke-width="6.48"/>
<line x1="1423.18867" y1="1517.02601" x2="1412.99599" y2="1508.473336" stroke="black" stroke-width="6.48"/>
<line x1="1328.080144" y1="1609.672093" x2="1412.99599" y2="1508.473336" stroke="black" stroke-width="6.48"/>
<line x1="1338.272827" y1="1618.224772" x2="1328.080144" y2="1609.672093" stroke="black" stroke-width="6.48"/>
<line x1="1334.565817" y1="1598.985655" x2="1309.318402" y2="1580.281873" stroke="black" stroke-width="6.48"/>
<line x1="1402.37631" y1="1518.172254" x2="1379.455373" y2="1495.217326" stroke="black" stroke-width="6.48"/>
<line x1="1301.113213" y1="1201.199173" x2="1291.949629" y2="1212.119903" stroke="black" stroke-width="6.48"/>
<line x1="1291.949629" y1="1212.119903" x2="1393.148394" y2="1297.035749" stroke="black" stroke-width="6.48"/>
<line x1="1402.311971" y1="1286.115019" x2="1393.148394" y2="1297.035749" stroke="black" stroke-width="6.48"/>
<line x1="1301.113213" y1="1201.199173" x2="1402.311971" y2="1286.115019" stroke="black" stroke-width="6.48"/>
<line x1="1382.227664" y1="1287.872168" x2="1363.641026" y2="1314.458536" stroke="black" stroke-width="6.48"/>
<line x1="1302.142313" y1="1220.672581" x2="1279.915438" y2="1244.204424" stroke="black" stroke-width="6.48"/>
<line x1="1004.706976" y1="1552.963813" x2="1013.87056" y2="1542.043084" stroke="black" stroke-width="6.48"/>
<line x1="1013.87056" y1="1542.043084" x2="1115.069317" y2="1626.958922" stroke="black" stroke-width="6.48"/>
<line x1="1105.905737" y1="1637.879652" x2="1115.069317" y2="1626.958922" stroke="black" stroke-width="6.48"/>
<line x1="1004.706976" y1="1552.963813" x2="1105.905737" y2="1637.879652" stroke="black" stroke-width="6.48"/>
<line x1="1104.148588" y1="1617.795346" x2="1127.103516" y2="1594.874405" stroke="black" stroke-width="6.48"/>
<line x1="1024.063236" y1="1550.595755" x2="1043.377924" y2="1524.62029" stroke="black" stroke-width="6.48"/>
<circle cx="1203.509473" cy="1419.539414" r="191.98080000000002" fill="none" stroke="black" stroke-width="6.48"/>
<line x1="2044.889399" y1="955.822399" x2="2267.166564" y2="955.822399" stroke="black" stroke-width="6.48"/>
<line x1="2267.166564" y1="955.822399" x2="2267.166564" y2="1178.555051" stroke="black" stroke-width="6.48"/>
<line x1="2267.166564" y1="1178.555051" x2="2044.889399" y2="1178.555051" stroke="black" stroke-width="6.48"/>
<line x1="2044.889399" y1="1178.555051" x2="2044.889399" y2="955.822399" stroke="black" stroke-width="6.48"/>
<line x1="2044.433912" y1="955.366913" x2="2267.166564" y2="1178.555051" stroke="black" stroke-width="6.48"/>
<line x1="2044.889399" y1="1178.099564" x2="2266.711078" y2="955.822399" stroke="black" stroke-width="6.48"/>
<line x1="333.766206" y1="1375.361078" x2="333.766206" y2="949.854546" stroke="black" stroke-width="6.48"/>
<line x1="333.766206" y1="949.854546" x2="257.659348" y2="949.854546" stroke="black" stroke-width="6.48"/>
<line x1="257.659348" y1="949.854546" x2="257.659348" y2="1375.361078" stroke="black" stroke-width="6.48"/>
<line x1="257.659348" y1="1375.361078" x2="333.766206" y2="1375.361078" stroke="black" stroke-width="6.48"/>
<line x1="333.766206" y1="1355.469512" x2="359.711726" y2="1355.469512" stroke="black" stroke-width="6.48"/>
<line x1="359.711726" y1="1355.469512" x2="359.711726" y2="970.610962" stroke="black" stroke-width="6.48"/>
<line x1="333.766206" y1="970.610962" x2="359.711726" y2="970.610962" stroke="black" stroke-width="6.48"/>
<line x1="3874.406537" y1="1514.726719" x2="3874.406537" y2="1940.260162" stroke="black" stroke-width="6.48"/>
<line x1="3874.406537" y1="1940.260162" x2="3940.00601" y2="1940.260162" stroke="black" stroke-width="6.48"/>
<line x1="3940.00601" y1="1940.260162" x2="3940.00601" y2="1514.726719" stroke="black" stroke-width="6.48"/>
<line x1="3940.00601" y1="1514.726719" x2="3874.406537" y2="1514.726719" stroke="black" stroke-width="6.48"/>
<line x1="3939.14286" y1="1554.431663" x2="3875.269687" y2="1554.431663" stroke="black" stroke-width="6.48"/>
<line x1="3939.14286" y1="1899.692064" x2="3872.680232" y2="1899.692064" stroke="black" stroke-width="6.48"/>
<line x1="3908.932574" y1="1553.568512" x2="3908.932574" y2="1898.828914" stroke="black" stroke-width="6.48"/>
<line x1="4738.571852" y1="1718.405201" x2="4634.471218" y2="1637.07287" stroke="black" stroke-width="6.48"/>
<line x1="4634.471218" y1="1637.07287" x2="4643.248086" y2="1625.838988" stroke="black" stroke-width="6.48"/>
<line x1="4747.348721" y1="1707.171318" x2="4643.248086" y2="1625.838988" stroke="black" stroke-width="6.48"/>
<line x1="4738.571852" y1="1718.405201" x2="4747.348721" y2="1707.171318" stroke="black" stroke-width="6.48"/>
<line x1="4736.863764" y1="1698.979572" x2="4757.670731" y2="1675.435284" stroke="black" stroke-width="6.48"/>
<line x1="4653.733046" y1="1634.030737" x2="4672.129432" y2="1607.397019" stroke="black" stroke-width="6.48"/>
<line x1="5022.357318" y1="1355.176372" x2="4918.256683" y2="1273.844041" stroke="black" stroke-width="6.48"/>
<line x1="4918.256683" y1="1273.844041" x2="4910.064934" y2="1284.328998" stroke="black" stroke-width="6.48"/>
<line x1="5014.165568" y1="1365.661325" x2="4910.064934" y2="1284.328998" stroke="black" stroke-width="6.48"/>
<line x1="5022.357318" y1="1355.176372" x2="5014.165568" y2="1365.661325" stroke="black" stroke-width="6.48"/>
<line x1="5003.259289" y1="1359.552557" x2="4985.448026" y2="1385.437345" stroke="black" stroke-width="6.48"/>
<line x1="4920.128572" y1="1294.603718" x2="4897.987553" y2="1318.311806" stroke="black" stroke-width="6.48"/>
<line x1="4606.882614" y1="1406.867332" x2="4618.116493" y2="1415.6442" stroke="black" stroke-width="6.48"/>
<line x1="4618.116493" y1="1415.6442" x2="4699.448824" y2="1311.543565" stroke="black" stroke-width="6.48"/>
<line x1="4688.214944" y1="1302.766697" x2="4699.448824" y2="1311.543565" stroke="black" stroke-width="6.48"/>
<line x1="4606.882614" y1="1406.867332" x2="4688.214944" y2="1302.766697" stroke="black" stroke-width="6.48"/>
<line x1="4690.671955" y1="1322.777448" x2="4717.890792" y2="1340.424911" stroke="black" stroke-width="6.48"/>
<line x1="4626.308239" y1="1405.159247" x2="4650.601453" y2="1426.551336" stroke="black" stroke-width="6.48"/>
<line x1="4968.777391" y1="1690.816594" x2="4957.543508" y2="1682.039725" stroke="black" stroke-width="6.48"/>
<line x1="4957.543508" y1="1682.039725" x2="5038.875839" y2="1577.93909" stroke="black" stroke-width="6.48"/>
<line x1="5050.109722" y1="1586.715959" x2="5038.875839" y2="1577.93909" stroke="black" stroke-width="6.48"/>
<line x1="4968.777391" y1="1690.816594" x2="5050.109722" y2="1586.715959" stroke="black" stroke-width="6.48"/>
<line x1="5030.09897" y1="1589.172973" x2="5006.390879" y2="1567.031958" stroke="black" stroke-width="6.48"/>
<line x1="4965.735258" y1="1671.554768" x2="4939.101544" y2="1653.15838" stroke="black" stroke-width="6.48"/>
<circle cx="4828.496166" cy="1496.791645" r="191.98080000000002" fill="none" stroke="black" stroke-width="6.48"/>
<line x1="3215.555658" y1="1074.683808" x2="3424.920862" y2="1074.683808" stroke="black" stroke-width="6.48"/>
<line x1="3424.920862" y1="1074.683808" x2="3424.920862" y2="743.469404" stroke="black" stroke-width="6.48"/>
<line x1="3424.920862" y1="743.469404" x2="3215.555658" y2="743.469404" stroke="black" stroke-width="6.48"/>
<line x1="3215.555658" y1="743.469404" x2="3215.555658" y2="1074.683808" stroke="black" stroke-width="6.48"/>
<line x1="3214.882458" y1="802.711004" x2="3425.594058" y2="802.711004" stroke="black" stroke-width="6.48"/>
<line x1="3425.594058" y1="802.711004" x2="3216.228858" y2="852.527808" stroke="black" stroke-width="6.48"/>
<line x1="3216.228858" y1="852.527808" x2="3247.869262" y2="898.978608" stroke="black" stroke-width="6.48"/>
<line x1="3247.869262" y1="898.978608" x2="3425.594058" y2="802.037808" stroke="black" stroke-width="6.48"/>
<line x1="3255.013519" y1="1203.761542" x2="3477.290684" y2="1203.761542" stroke="black" stroke-width="6.48"/>
<line x1="3477.290684" y1="1203.761542" x2="3477.290684" y2="1426.494193" stroke="black" stroke-width="6.48"/>
<line x1="3477.290684" y1="1426.494193" x2="3255.013519" y2="1426.494193" stroke="black" stroke-width="6.48"/>
<line x1="3255.013519" y1="1426.494193" x2="3255.013519" y2="1203.761542" stroke="black" stroke-width="6.48"/>
<line x1="3254.558033" y1="1203.306055" x2="3477.290684" y2="1426.494193" stroke="black" stroke-width="6.48"/>
<line x1="3255.013519" y1="1426.038707" x2="3476.835198" y2="1203.761542" stroke="black" stroke-width="6.48"/>
<line x1="2804.16708" y1="1127.69402" x2="2804.16708" y2="1153.148746" stroke="black" stroke-width="6.48"/>
<line x1="2804.16708" y1="1153.148746" x2="2853.834836" y2="1153.148746" stroke="black" stroke-width="6.48"/>
<line x1="2853.834836" y1="1153.148746" x2="2853.834836" y2="1127.69402" stroke="black" stroke-width="6.48"/>
<line x1="2853.834836" y1="1127.69402" x2="2804.16708" y2="1127.69402" stroke="black" stroke-width="6.48"/>
<line x1="2853.834836" y1="1402.108373" x2="3101.55277" y2="1402.108373" stroke="black" stroke-width="6.48"/>
<line x1="2802.925386" y1="1402.729218" x2="2802.925386" y2="1428.183943" stroke="black" stroke-width="6.48"/>
<line x1="2802.925386" y1="1428.183943" x2="2852.593142" y2="1428.183943" stroke="black" stroke-width="6.48"/>
<line x1="2852.593142" y1="1428.183943" x2="2852.593142" y2="1402.729218" stroke="black" stroke-width="6.48"/>
<line x1="2852.593142" y1="1402.729218" x2="2802.925386" y2="1402.729218" stroke="black" stroke-width="6.48"/>
<path d="m 2851.972294,1153.148746 a 248.95962699999984,248.95962699999984 0 0 1 248.95962699999973,248.95962699999995" fill="none" stroke="black" stroke-width="6.48"/>
<line x1="2948.711533" y1="2017.684796" x2="2877.506388" y2="2193.923934" stroke="black" stroke-width="6.48"/>
<line x1="2877.506388" y1="2193.923934" x2="3307.529884" y2="2367.664484" stroke="black" stroke-width="6.48"/>
<line x1="3307.529884" y1="2367.664484" x2="3378.735029" y2="2191.425347" stroke="black" stroke-width="6.48"/>
<line x1="3378.735029" y1="2191.425347" x2="3356.705138" y2="2182.524703" stroke="black" stroke-width="6.48"/>
<line x1="3356.705138" y1="2182.524703" x2="3294.044611" y2="2337.615148" stroke="black" stroke-width="6.48"/>
<line x1="3294.044611" y1="2337.615148" x2="2908.962094" y2="2182.031906" stroke="black" stroke-width="6.48"/>
<line x1="2908.962094" y1="2182.031906" x2="2971.622621" y2="2026.941466" stroke="black" stroke-width="6.48"/>
<line x1="2971.622621" y1="2026.941466" x2="2948.711533" y2="2017.684796" stroke="black" stroke-width="6.48"/>
<line x1="2969.486467" y1="2032.228638" x2="3354.568985" y2="2187.811879" stroke="black" stroke-width="6.48"/>
<line x1="3161.943151" y1="2108.96105" x2="3101.418781" y2="2258.764319" stroke="black" stroke-width="6.48"/>
<line x1="3556.75806" y1="1637.823902" x2="3711.927841" y2="1810.157404" stroke="black" stroke-width="6.48"/>
<line x1="3711.927841" y1="1810.157404" x2="3539.241198" y2="1965.645158" stroke="black" stroke-width="6.48"/>
<line x1="3539.241198" y1="1965.645158" x2="3384.071417" y2="1793.311657" stroke="black" stroke-width="6.48"/>
<line x1="3384.071417" y1="1793.311657" x2="3556.75806" y2="1637.823902" stroke="black" stroke-width="6.48"/>
<line x1="3556.793232" y1="1637.15279" x2="3539.241198" y2="1965.645158" stroke="black" stroke-width="6.48"/>
<line x1="3384.424559" y1="1792.993684" x2="3711.609871" y2="1809.804265" stroke="black" stroke-width="6.48"/>
<line x1="3031.233131" y1="1589.315879" x2="3026.401182" y2="1619.823596" stroke="black" stroke-width="6.48"/>
<line x1="3026.401182" y1="1619.823596" x2="3233.384312" y2="1652.606503" stroke="black" stroke-width="6.48"/>
<line x1="3233.384312" y1="1652.606503" x2="3238.216261" y2="1622.098786" stroke="black" stroke-width="6.48"/>
<line x1="3238.216261" y1="1622.098786" x2="3031.233131" y2="1589.315879" stroke="black" stroke-width="6.48"/>
<line x1="2999.342279" y1="1790.666816" x2="2994.51033" y2="1821.17453" stroke="black" stroke-width="6.48"/>
<line x1="2994.51033" y1="1821.17453" x2="3201.493457" y2="1853.957441" stroke="black" stroke-width="6.48"/>
<line x1="3201.493457" y1="1853.957441" x2="3206.325406" y2="1823.44972" stroke="black" stroke-width="6.48"/>
<line x1="3206.325406" y1="1823.44972" x2="2999.342279" y2="1790.666816" stroke="black" stroke-width="6.48"/>
<line x1="3026.475518" y1="1619.354243" x2="2999.342279" y2="1790.666816" stroke="black" stroke-width="6.48"/>
<line x1="3232.594289" y1="1651.519127" x2="3254.245603" y2="1681.891268" stroke="black" stroke-width="6.48"/>
<line x1="3235.289501" y1="1801.575396" x2="3205.312369" y2="1823.770393" stroke="black" stroke-width="6.48"/>
<line x1="3254.542952" y1="1680.013872" x2="3234.992148" y2="1803.452792" stroke="black" stroke-width="6.48"/>
<line x1="3070.520039" y1="1626.811337" x2="3043.386792" y2="1798.123903" stroke="black" stroke-width="6.48"/>
<line x1="1354.924976" y1="1941.615212" x2="1426.437238" y2="2138.093676" stroke="black" stroke-width="6.48"/>
<line x1="1426.437238" y1="2138.093676" x2="1644.34972" y2="2058.780082" stroke="black" stroke-width="6.48"/>
<line x1="1644.34972" y1="2058.780082" x2="1572.837458" y2="1862.301611" stroke="black" stroke-width="6.48"/>
<line x1="1572.837458" y1="1862.301611" x2="1354.924976" y2="1941.615212" stroke="black" stroke-width="6.48"/>
<line x1="1385.289835" y1="1930.563317" x2="1456.802089" y2="2127.04178" stroke="black" stroke-width="6.48"/>
<line x1="2261.469665" y1="2272.968871" x2="2292.188458" y2="2276.197553" stroke="black" stroke-width="6.48"/>
<line x1="2292.188458" y1="2276.197553" x2="2314.093828" y2="2067.782368" stroke="black" stroke-width="6.48"/>
<line x1="2314.093828" y1="2067.782368" x2="2283.375035" y2="2064.553686" stroke="black" stroke-width="6.48"/>
<line x1="2283.375035" y1="2064.553686" x2="2261.469665" y2="2272.968871" stroke="black" stroke-width="6.48"/>
<line x1="2464.213691" y1="2294.278178" x2="2494.93248" y2="2297.50686" stroke="black" stroke-width="6.48"/>
<line x1="2494.93248" y1="2297.50686" x2="2516.83785" y2="2089.091675" stroke="black" stroke-width="6.48"/>
<line x1="2516.83785" y1="2089.091675" x2="2486.119061" y2="2085.862993" stroke="black" stroke-width="6.48"/>
<line x1="2486.119061" y1="2085.862993" x2="2464.213691" y2="2294.278178" stroke="black" stroke-width="6.48"/>
<line x1="2291.71586" y1="2276.14788" x2="2464.213691" y2="2294.278178" stroke="black" stroke-width="6.48"/>
<line x1="2313.049291" y1="2068.628216" x2="2342.246674" y2="2045.417029" stroke="black" stroke-width="6.48"/>
<line x1="2462.758855" y1="2058.083399" x2="2486.492312" y2="2086.857857" stroke="black" stroke-width="6.48"/>
<line x1="2340.356285" y1="2045.218342" x2="2464.64924" y2="2058.282086" stroke="black" stroke-width="6.48"/>
<line x1="2296.857629" y1="2231.773456" x2="2469.355459" y2="2249.90375" stroke="black" stroke-width="6.48"/>
<line x1="6052.337402" y1="1870.273796" x2="6008.865563" y2="2074.79272" stroke="black" stroke-width="6.48"/>
<line x1="6008.865563" y1="2074.79272" x2="6235.695648" y2="2123.006944" stroke="black" stroke-width="6.48"/>
<line x1="6235.695648" y1="2123.006944" x2="6279.167488" y2="1918.48802" stroke="black" stroke-width="6.48"/>
<line x1="6279.167488" y1="1918.48802" x2="6052.337402" y2="1870.273796" stroke="black" stroke-width="6.48"/>
<line x1="6083.944877" y1="1876.99217" x2="6040.473037" y2="2081.511097" stroke="black" stroke-width="6.48"/>
<line x1="5721.109582" y1="1520.203442" x2="5723.264221" y2="1551.016199" stroke="black" stroke-width="6.48"/>
<line x1="5723.264221" y1="1551.016199" x2="5932.316934" y2="1536.397812" stroke="black" stroke-width="6.48"/>
<line x1="5932.316934" y1="1536.397812" x2="5930.162298" y2="1505.585052" stroke="black" stroke-width="6.48"/>
<line x1="5930.162298" y1="1505.585052" x2="5721.109582" y2="1520.203442" stroke="black" stroke-width="6.48"/>
<line x1="5735.330197" y1="1723.567648" x2="5737.484833" y2="1754.380408" stroke="black" stroke-width="6.48"/>
<line x1="5737.484833" y1="1754.380408" x2="5946.53755" y2="1739.762017" stroke="black" stroke-width="6.48"/>
<line x1="5946.53755" y1="1739.762017" x2="5944.38291" y2="1708.949257" stroke="black" stroke-width="6.48"/>
<line x1="5944.38291" y1="1708.949257" x2="5735.330197" y2="1723.567648" stroke="black" stroke-width="6.48"/>
<line x1="5723.231072" y1="1550.542162" x2="5735.330197" y2="1723.567648" stroke="black" stroke-width="6.48"/>
<line x1="5931.302558" y1="1535.516024" x2="5959.231193" y2="1560.239248" stroke="black" stroke-width="6.48"/>
<line x1="5967.684004" y1="1681.120069" x2="5943.467974" y2="1709.489599" stroke="black" stroke-width="6.48"/>
<line x1="5959.098601" y1="1558.343074" x2="5967.816595" y2="1683.016236" stroke="black" stroke-width="6.48"/>
<line x1="5767.824208" y1="1547.900262" x2="5779.923332" y2="1720.925755" stroke="black" stroke-width="6.48"/>
</g>
</svg>
