<?xml version="1.0"?>
<svg xmlns:xlink="http://www.w3.org/1999/xlink" width="6775.2" height="2858.4">
<image x="0" y="0" width="6775.2" height="2858.4" xlink:href="groundfilled-01.png"/>
<g style="stroke-linecap:round">
<line x1="1285.950406" y1="795.178109" x2="1311.346069" y2="795.178109" stroke="black" stroke-width="6.48"/>
<line x1="1311.346069" y1="795.178109" x2="1311.346069" y2="745.625592" stroke="black" stroke-width="6.48"/>
<line x1="1311.346069" y1="745.625592" x2="1285.950406" y2="745.625592" stroke="black" stroke-width="6.48"/>
<line x1="1285.950406" y1="745.625592" x2="1285.950406" y2="795.178109" stroke="black" stroke-width="6.48"/>
<line x1="1559.728062" y1="745.625592" x2="1559.728062" y2="498.48241" stroke="black" stroke-width="6.48"/>
<line x1="1560.347471" y1="796.416923" x2="1585.743134" y2="796.416923" stroke="black" stroke-width="6.48"/>
<line x1="1585.743134" y1="796.416923" x2="1585.743134" y2="746.864406" stroke="black" stroke-width="6.48"/>
<line x1="1585.743134" y1="746.864406" x2="1560.347471" y2="746.864406" stroke="black" stroke-width="6.48"/>
<line x1="1560.347471" y1="746.864406" x2="1560.347471" y2="796.416923" stroke="black" stroke-width="6.48"/>
<path d="m 1311.346069,747.483811 a 248.38199299999997,248.38199299999997 0 0 1 248.38199299999997,-248.38199299999997" fill="none" stroke="black" stroke-width="6.48"/>
<line x1="320.532556" y1="771.34176" x2="320.532556" y2="366.736194" stroke="black" stroke-width="6.48"/>
<line x1="320.532556" y1="366.736194" x2="258.159283" y2="366.736194" stroke="black" stroke-width="6.48"/>
<line x1="258.159283" y1="366.736194" x2="258.159283" y2="771.34176" stroke="black" stroke-width="6.48"/>
<line x1="258.159283" y1="771.34176" x2="320.532556" y2="771.34176" stroke="black" stroke-width="6.48"/>
<line x1="258.979986" y1="733.589518" x2="319.711856" y2="733.589518" stroke="black" stroke-width="6.48"/>
<line x1="258.979986" y1="405.309139" x2="322.173958" y2="405.309139" stroke="black" stroke-width="6.48"/>
<line x1="287.704519" y1="734.410217" x2="287.704519" y2="406.129838" stroke="black" stroke-width="6.48"/>
<line x1="3901.945176" y1="1169.331426" x2="3901.945176" y2="1428.837066" stroke="black" stroke-width="6.48"/>
<line x1="3901.945176" y1="1428.837066" x2="3941.9501" y2="1428.837066" stroke="black" stroke-width="6.48"/>
<line x1="3941.9501" y1="1428.837066" x2="3941.9501" y2="1169.331426" stroke="black" stroke-width="6.48"/>
<line x1="3941.9501" y1="1169.331426" x2="3901.945176" y2="1169.331426" stroke="black" stroke-width="6.48"/>
<line x1="3941.423719" y1="1193.544936" x2="3902.471557" y2="1193.544936" stroke="black" stroke-width="6.48"/>
<line x1="3941.423719" y1="1404.097178" x2="3900.892414" y2="1404.097178" stroke="black" stroke-width="6.48"/>
<line x1="3923.000399" y1="1193.018555" x2="3923.000399" y2="1403.570797" stroke="black" stroke-width="6.48"/>
<line x1="323.923298" y1="1882.957399" x2="323.923298" y2="1457.423957" stroke="black" stroke-width="6.48"/>
<line x1="323.923298" y1="1457.423957" x2="258.323825" y2="1457.423957" stroke="black" stroke-width="6.48"/>
<line x1="258.323825" y1="1457.423957" x2="258.323825" y2="1882.957399" stroke="black" stroke-width="6.48"/>
<line x1="258.323825" y1="1882.957399" x2="323.923298" y2="1882.957399" stroke="black" stroke-width="6.48"/>
<line x1="259.186975" y1="1843.252456" x2="323.060148" y2="1843.252456" stroke="black" stroke-width="6.48"/>
<line x1="259.186975" y1="1497.992054" x2="325.649603" y2="1497.992054" stroke="black" stroke-width="6.48"/>
<line x1="289.397261" y1="1844.115606" x2="289.397261" y2="1498.855205" stroke="black" stroke-width="6.48"/>
<line x1="2747.905531" y1="904.670665" x2="2721.68303" y2="904.670665" stroke="black" stroke-width="6.48"/>
<line x1="2721.68303" y1="904.670665" x2="2721.68303" y2="955.836522" stroke="black" stroke-width="6.48"/>
<line x1="2721.68303" y1="955.836522" x2="2747.905531" y2="955.836522" stroke="black" stroke-width="6.48"/>
<line x1="2747.905531" y1="955.836522" x2="2747.905531" y2="904.670665" stroke="black" stroke-width="6.48"/>
<line x1="2465.214181" y1="955.836522" x2="2465.214181" y2="1211.026223" stroke="black" stroke-width="6.48"/>
<line x1="2464.574609" y1="903.39152" x2="2438.352108" y2="903.39152" stroke="black" stroke-width="6.48"/>
<line x1="2438.352108" y1="903.39152" x2="2438.352108" y2="954.557374" stroke="black" stroke-width="6.48"/>
<line x1="2438.352108" y1="954.557374" x2="2464.574609" y2="954.557374" stroke="black" stroke-width="6.48"/>
<line x1="2464.574609" y1="954.557374" x2="2464.574609" y2="903.39152" stroke="black" stroke-width="6.48"/>
<path d="m 2721.68303,953.917801 a 256.4688490000001,256.4688490000001 0 0 1 -256.4688490000003,256.46884899999986" fill="none" stroke="black" stroke-width="6.48"/>
<line x1="2420.532389" y1="1427.858834" x2="2395.136725" y2="1427.858834" stroke="black" stroke-width="6.48"/>
<line x1="2395.136725" y1="1427.858834" x2="2395.136725" y2="1477.411351" stroke="black" stroke-width="6.48"/>
<line x1="2395.136725" y1="1477.411351" x2="2420.532389" y2="1477.411351" stroke="black" stroke-width="6.48"/>
<line x1="2420.532389" y1="1477.411351" x2="2420.532389" y2="1427.858834" stroke="black" stroke-width="6.48"/>
<line x1="2146.754732" y1="1477.411351" x2="2146.754732" y2="1724.554534" stroke="black" stroke-width="6.48"/>
<line x1="2146.135324" y1="1426.62002" x2="2120.73966" y2="1426.62002" stroke="black" stroke-width="6.48"/>
<line x1="2120.73966" y1="1426.62002" x2="2120.73966" y2="1476.172537" stroke="black" stroke-width="6.48"/>
<line x1="2120.73966" y1="1476.172537" x2="2146.135324" y2="1476.172537" stroke="black" stroke-width="6.48"/>
<line x1="2146.135324" y1="1476.172537" x2="2146.135324" y2="1426.62002" stroke="black" stroke-width="6.48"/>
<path d="m 2395.136725,1475.553132 a 248.38199299999997,248.38199299999997 0 0 1 -248.38199299999997,248.38199299999997" fill="none" stroke="black" stroke-width="6.48"/>
<line x1="491.573052" y1="541.339351" x2="723.470652" y2="541.339351" stroke="black" stroke-width="6.48"/>
<line x1="723.470652" y1="541.339351" x2="723.470652" y2="773.712151" stroke="black" stroke-width="6.48"/>
<line x1="723.470652" y1="773.712151" x2="491.573052" y2="773.712151" stroke="black" stroke-width="6.48"/>
<line x1="491.573052" y1="773.712151" x2="491.573052" y2="541.339351" stroke="black" stroke-width="6.48"/>
<line x1="491.097852" y1="540.864151" x2="723.470652" y2="773.712151" stroke="black" stroke-width="6.48"/>
<line x1="491.573052" y1="773.236951" x2="722.995452" y2="541.339351" stroke="black" stroke-width="6.48"/>
<line x1="2032.924367" y1="1810.520878" x2="2032.924367" y2="1779.632878" stroke="black" stroke-width="6.48"/>
<line x1="2032.924367" y1="1779.632878" x2="1823.361167" y2="1779.632878" stroke="black" stroke-width="6.48"/>
<line x1="1823.361167" y1="1779.632878" x2="1823.361167" y2="1810.520878" stroke="black" stroke-width="6.48"/>
<line x1="1823.361167" y1="1810.520878" x2="2032.924367" y2="1810.520878" stroke="black" stroke-width="6.48"/>
<line x1="2032.924367" y1="1606.660078" x2="2032.924367" y2="1575.772078" stroke="black" stroke-width="6.48"/>
<line x1="2032.924367" y1="1575.772078" x2="1823.361167" y2="1575.772078" stroke="black" stroke-width="6.48"/>
<line x1="1823.361167" y1="1575.772078" x2="1823.361167" y2="1606.660078" stroke="black" stroke-width="6.48"/>
<line x1="1823.361167" y1="1606.660078" x2="2032.924367" y2="1606.660078" stroke="black" stroke-width="6.48"/>
<line x1="2032.924367" y1="1780.108078" x2="2032.924367" y2="1606.660078" stroke="black" stroke-width="6.48"/>
<line x1="1824.311567" y1="1780.583278" x2="1798.175567" y2="1753.972078" stroke="black" stroke-width="6.48"/>
<line x1="1798.175567" y1="1632.796078" x2="1824.311567" y2="1606.184878" stroke="black" stroke-width="6.48"/>
<line x1="1798.175567" y1="1755.872878" x2="1798.175567" y2="1630.895278" stroke="black" stroke-width="6.48"/>
<line x1="1988.255567" y1="1779.632878" x2="1988.255567" y2="1606.184878" stroke="black" stroke-width="6.48"/>
<line x1="1485.415969" y1="209.267824" x2="1707.693134" y2="209.267824" stroke="black" stroke-width="6.48"/>
<line x1="1707.693134" y1="209.267824" x2="1707.693134" y2="432.000475" stroke="black" stroke-width="6.48"/>
<line x1="1707.693134" y1="432.000475" x2="1485.415969" y2="432.000475" stroke="black" stroke-width="6.48"/>
<line x1="1485.415969" y1="432.000475" x2="1485.415969" y2="209.267824" stroke="black" stroke-width="6.48"/>
<line x1="1484.960483" y1="208.812337" x2="1707.693134" y2="432.000475" stroke="black" stroke-width="6.48"/>
<line x1="1485.415969" y1="431.544989" x2="1707.237648" y2="209.267824" stroke="black" stroke-width="6.48"/>
<line x1="2586.780558" y1="1803.366338" x2="2586.780558" y2="2194.614338" stroke="black" stroke-width="6.48"/>
<line x1="2586.780558" y1="2194.614338" x2="2761.020558" y2="2194.614338" stroke="black" stroke-width="6.48"/>
<line x1="2761.020558" y1="2194.614338" x2="2761.020558" y2="1803.366338" stroke="black" stroke-width="6.48"/>
<line x1="2761.020558" y1="1803.366338" x2="2586.780558" y2="1803.366338" stroke="black" stroke-width="6.48"/>
<line x1="2734.092558" y1="2119.374338" x2="2734.092558" y2="1835.046338" stroke="black" stroke-width="6.48"/>
<line x1="2734.092558" y1="1835.046338" x2="2616.084558" y2="1835.046338" stroke="black" stroke-width="6.48"/>
<line x1="2616.084558" y1="1835.046338" x2="2616.084558" y2="2124.918338" stroke="black" stroke-width="6.48"/>
<path d="m 2734.347982,2118.563766 a 63.35999941905905,63.35999941905905 0 0 1 -119.37432999999965,4.2938139999996565" fill="none" stroke="black" stroke-width="6.48"/>
<line x1="2105.586263" y1="1878.509948" x2="2105.586263" y2="2062.253948" stroke="black" stroke-width="6.48"/>
<line x1="2105.586263" y1="2062.253948" x2="2056.482263" y2="2062.253948" stroke="black" stroke-width="6.48"/>
<line x1="2056.482263" y1="1878.509948" x2="2056.482263" y2="2062.253948" stroke="black" stroke-width="6.48"/>
<line x1="2105.586263" y1="1878.509948" x2="2056.482263" y2="1878.509948" stroke="black" stroke-width="6.48"/>
<line x1="2133.306263" y1="1920.089948" x2="2105.586263" y2="1920.089948" stroke="black" stroke-width="6.48"/>
<line x1="2105.586263" y1="2019.089948" x2="2134.890263" y2="2019.089948" stroke="black" stroke-width="6.48"/>
<circle cx="2178.450263" cy="1968.797948" r="66.52800000000002" fill="none" stroke="black" stroke-width="6.48"/>
<circle cx="2178.450263" cy="1968.797948" r="57.02400000000001" fill="none" stroke="black" stroke-width="6.48"/>
<line x1="1019.517044" y1="211.398318" x2="1412.760917" y2="211.398318" stroke="black" stroke-width="6.48"/>
<line x1="1416.716323" y1="210.402036" x2="1416.716323" y2="346.470811" stroke="black" stroke-width="6.48"/>
<line x1="1019.981434" y1="347.622318" x2="1417.021664" y2="347.622318" stroke="black" stroke-width="6.48"/>
<line x1="1020.716323" y1="212.093068" x2="1020.716323" y2="347.357124" stroke="black" stroke-width="6.48"/>
<line x1="1031.012323" y1="222.486318" x2="1154.564323" y2="222.486318" stroke="black" stroke-width="6.48"/>
<line x1="1154.564323" y1="222.486318" x2="1154.564323" y2="336.534318" stroke="black" stroke-width="6.48"/>
<line x1="1031.012323" y1="336.534318" x2="1154.564323" y2="336.534318" stroke="black" stroke-width="6.48"/>
<line x1="1031.012323" y1="222.486318" x2="1031.012323" y2="336.534318" stroke="black" stroke-width="6.48"/>
<line x1="1173.572323" y1="229.614318" x2="1260.692323" y2="229.614318" stroke="black" stroke-width="6.48"/>
<line x1="1173.572323" y1="249.414318" x2="1260.692323" y2="249.414318" stroke="black" stroke-width="6.48"/>
<line x1="1174.364323" y1="270.006318" x2="1260.692323" y2="270.006318" stroke="black" stroke-width="6.48"/>
<line x1="1174.364323" y1="289.806318" x2="1260.692323" y2="289.806318" stroke="black" stroke-width="6.48"/>
<line x1="1173.572323" y1="309.606318" x2="1260.692323" y2="309.606318" stroke="black" stroke-width="6.48"/>
<line x1="1173.572323" y1="329.406318" x2="1260.692323" y2="329.406318" stroke="black" stroke-width="6.48"/>
<line x1="1078.532323" y1="335.742318" x2="1078.532323" y2="322.278318" stroke="black" stroke-width="6.48"/>
<line x1="1078.532323" y1="322.278318" x2="1108.628323" y2="322.278318" stroke="black" stroke-width="6.48"/>
<line x1="1108.628323" y1="322.278318" x2="1108.628323" y2="334.950318" stroke="black" stroke-width="6.48"/>
<line x1="1281.284323" y1="222.486318" x2="1404.836323" y2="222.486318" stroke="black" stroke-width="6.48"/>
<line x1="1404.836323" y1="222.486318" x2="1404.836323" y2="336.534318" stroke="black" stroke-width="6.48"/>
<line x1="1281.284323" y1="336.534318" x2="1404.836323" y2="336.534318" stroke="black" stroke-width="6.48"/>
<line x1="1281.284323" y1="222.486318" x2="1281.284323" y2="336.534318" stroke="black" stroke-width="6.48"/>
<line x1="1328.804323" y1="336.534318" x2="1328.804323" y2="323.070318" stroke="black" stroke-width="6.48"/>
<line x1="1328.804323" y1="323.070318" x2="1358.900323" y2="323.070318" stroke="black" stroke-width="6.48"/>
<line x1="1358.900323" y1="323.070318" x2="1358.900323" y2="335.742318" stroke="black" stroke-width="6.48"/>
<circle cx="1140.308323" cy="236.742318" r="7.128000000000001" fill="none" stroke="black" stroke-width="6.48"/>
<circle cx="1390.580323" cy="237.534318" r="7.128000000000001" fill="none" stroke="black" stroke-width="6.48"/>
<line x1="2044.889399" y1="955.822399" x2="2267.166564" y2="955.822399" stroke="black" stroke-width="6.48"/>
<line x1="2267.166564" y1="955.822399" x2="2267.166564" y2="1178.555051" stroke="black" stroke-width="6.48"/>
<line x1="2267.166564" y1="1178.555051" x2="2044.889399" y2="1178.555051" stroke="black" stroke-width="6.48"/>
<line x1="2044.889399" y1="1178.555051" x2="2044.889399" y2="955.822399" stroke="black" stroke-width="6.48"/>
<line x1="2044.433912" y1="955.366913" x2="2267.166564" y2="1178.555051" stroke="black" stroke-width="6.48"/>
<line x1="2044.889399" y1="1178.099564" x2="2266.711078" y2="955.822399" stroke="black" stroke-width="6.48"/>
<line x1="323.258818" y1="1375.374532" x2="323.258818" y2="949.841089" stroke="black" stroke-width="6.48"/>
<line x1="323.258818" y1="949.841089" x2="257.659344" y2="949.841089" stroke="black" stroke-width="6.48"/>
<line x1="257.659344" y1="949.841089" x2="257.659344" y2="1375.374532" stroke="black" stroke-width="6.48"/>
<line x1="257.659344" y1="1375.374532" x2="323.258818" y2="1375.374532" stroke="black" stroke-width="6.48"/>
<line x1="258.522494" y1="1335.669588" x2="322.395667" y2="1335.669588" stroke="black" stroke-width="6.48"/>
<line x1="258.522494" y1="990.409187" x2="324.985122" y2="990.409187" stroke="black" stroke-width="6.48"/>
<line x1="288.73278" y1="1336.532738" x2="288.73278" y2="991.272337" stroke="black" stroke-width="6.48"/>
<line x1="3874.406537" y1="1514.726719" x2="3874.406537" y2="1940.260162" stroke="black" stroke-width="6.48"/>
<line x1="3874.406537" y1="1940.260162" x2="3940.00601" y2="1940.260162" stroke="black" stroke-width="6.48"/>
<line x1="3940.00601" y1="1940.260162" x2="3940.00601" y2="1514.726719" stroke="black" stroke-width="6.48"/>
<line x1="3940.00601" y1="1514.726719" x2="3874.406537" y2="1514.726719" stroke="black" stroke-width="6.48"/>
<line x1="3939.14286" y1="1554.431663" x2="3875.269687" y2="1554.431663" stroke="black" stroke-width="6.48"/>
<line x1="3939.14286" y1="1899.692064" x2="3872.680232" y2="1899.692064" stroke="black" stroke-width="6.48"/>
<line x1="3908.932574" y1="1553.568512" x2="3908.932574" y2="1898.828914" stroke="black" stroke-width="6.48"/>
<line x1="5228.14257" y1="2336.69488" x2="5375.300026" y2="1972.467389" stroke="black" stroke-width="6.48"/>
<line x1="5375.300026" y1="1972.467389" x2="5204.201224" y2="1903.338986" stroke="black" stroke-width="6.48"/>
<line x1="5204.201224" y1="1903.338986" x2="5057.043768" y2="2267.566477" stroke="black" stroke-width="6.48"/>
<line x1="5057.043768" y1="2267.566477" x2="5228.14257" y2="2336.69488" stroke="black" stroke-width="6.48"/>
<line x1="5116.678139" y1="2119.966225" x2="5041.776521" y2="2089.704006" stroke="black" stroke-width="6.48"/>
<line x1="5041.776521" y1="2089.704006" x2="5012.404366" y2="2162.402636" stroke="black" stroke-width="6.48"/>
<line x1="5012.404366" y1="2162.402636" x2="5087.305987" y2="2192.664856" stroke="black" stroke-width="6.48"/>
<line x1="5028.856304" y1="2168.195454" x2="5057.931769" y2="2096.231148" stroke="black" stroke-width="6.48"/>
<line x1="5334.040739" y1="2292.352164" x2="5363.41289" y2="2219.653534" stroke="black" stroke-width="6.48"/>
<line x1="5363.41289" y1="2219.653534" x2="5287.776941" y2="2189.094628" stroke="black" stroke-width="6.48"/>
<line x1="5258.404786" y1="2261.793258" x2="5334.040739" y2="2292.352164" stroke="black" stroke-width="6.48"/>
<line x1="5318.182174" y1="2285.09069" x2="5347.257638" y2="2213.126388" stroke="black" stroke-width="6.48"/>
<line x1="5173.345631" y1="1979.709268" x2="5098.444006" y2="1949.447048" stroke="black" stroke-width="6.48"/>
<line x1="5098.444006" y1="1949.447048" x2="5069.071854" y2="2022.145679" stroke="black" stroke-width="6.48"/>
<line x1="5069.071854" y1="2022.145679" x2="5143.973472" y2="2052.407902" stroke="black" stroke-width="6.48"/>
<line x1="5085.227106" y1="2028.672824" x2="5114.599258" y2="1955.974194" stroke="black" stroke-width="6.48"/>
<line x1="5390.708227" y1="2152.09521" x2="5420.080379" y2="2079.396576" stroke="black" stroke-width="6.48"/>
<line x1="5420.080379" y1="2079.396576" x2="5344.444429" y2="2048.837674" stroke="black" stroke-width="6.48"/>
<line x1="5315.072274" y1="2121.536304" x2="5390.708227" y2="2152.09521" stroke="black" stroke-width="6.48"/>
<line x1="5374.552975" y1="2145.568064" x2="5403.925127" y2="2072.86943" stroke="black" stroke-width="6.48"/>
<line x1="3473.47301" y1="1075.535021" x2="3682.838214" y2="1075.535021" stroke="black" stroke-width="6.48"/>
<line x1="3682.838214" y1="1075.535021" x2="3682.838214" y2="744.320617" stroke="black" stroke-width="6.48"/>
<line x1="3682.838214" y1="744.320617" x2="3473.47301" y2="744.320617" stroke="black" stroke-width="6.48"/>
<line x1="3473.47301" y1="744.320617" x2="3473.47301" y2="1075.535021" stroke="black" stroke-width="6.48"/>
<line x1="3472.79981" y1="803.562217" x2="3683.51141" y2="803.562217" stroke="black" stroke-width="6.48"/>
<line x1="3683.51141" y1="803.562217" x2="3474.14621" y2="853.379021" stroke="black" stroke-width="6.48"/>
<line x1="3474.14621" y1="853.379021" x2="3505.786614" y2="899.829821" stroke="black" stroke-width="6.48"/>
<line x1="3505.786614" y1="899.829821" x2="3683.51141" y2="802.889021" stroke="black" stroke-width="6.48"/>
<line x1="3401.370403" y1="1203.169003" x2="3623.647568" y2="1203.169003" stroke="black" stroke-width="6.48"/>
<line x1="3623.647568" y1="1203.169003" x2="3623.647568" y2="1425.901655" stroke="black" stroke-width="6.48"/>
<line x1="3623.647568" y1="1425.901655" x2="3401.370403" y2="1425.901655" stroke="black" stroke-width="6.48"/>
<line x1="3401.370403" y1="1425.901655" x2="3401.370403" y2="1203.169003" stroke="black" stroke-width="6.48"/>
<line x1="3400.914917" y1="1202.713517" x2="3623.647568" y2="1425.901655" stroke="black" stroke-width="6.48"/>
<line x1="3401.370403" y1="1425.446168" x2="3623.192082" y2="1203.169003" stroke="black" stroke-width="6.48"/>
<line x1="2804.16708" y1="1127.69402" x2="2804.16708" y2="1153.148746" stroke="black" stroke-width="6.48"/>
<line x1="2804.16708" y1="1153.148746" x2="2853.834836" y2="1153.148746" stroke="black" stroke-width="6.48"/>
<line x1="2853.834836" y1="1153.148746" x2="2853.834836" y2="1127.69402" stroke="black" stroke-width="6.48"/>
<line x1="2853.834836" y1="1127.69402" x2="2804.16708" y2="1127.69402" stroke="black" stroke-width="6.48"/>
<line x1="2853.834836" y1="1402.108373" x2="3101.55277" y2="1402.108373" stroke="black" stroke-width="6.48"/>
<line x1="2802.925386" y1="1402.729218" x2="2802.925386" y2="1428.183943" stroke="black" stroke-width="6.48"/>
<line x1="2802.925386" y1="1428.183943" x2="2852.593142" y2="1428.183943" stroke="black" stroke-width="6.48"/>
<line x1="2852.593142" y1="1428.183943" x2="2852.593142" y2="1402.729218" stroke="black" stroke-width="6.48"/>
<line x1="2852.593142" y1="1402.729218" x2="2802.925386" y2="1402.729218" stroke="black" stroke-width="6.48"/>
<path d="m 2851.972294,1153.148746 a 248.95962699999984,248.95962699999984 0 0 1 248.95962699999973,248.95962699999995" fill="none" stroke="black" stroke-width="6.48"/>
<line x1="3551.032328" y1="1637.618497" x2="3712.121935" y2="1804.431672" stroke="black" stroke-width="6.48"/>
<line x1="3712.121935" y1="1804.431672" x2="3544.966933" y2="1965.851384" stroke="black" stroke-width="6.48"/>
<line x1="3544.966933" y1="1965.851384" x2="3383.877326" y2="1799.03821" stroke="black" stroke-width="6.48"/>
<line x1="3383.877326" y1="1799.03821" x2="3551.032328" y2="1637.618497" stroke="black" stroke-width="6.48"/>
<line x1="3551.044057" y1="1636.946564" x2="3544.966933" y2="1965.851384" stroke="black" stroke-width="6.48"/>
<line x1="3384.219154" y1="1798.708108" x2="3711.791833" y2="1804.089841" stroke="black" stroke-width="6.48"/>
<line x1="3122.190896" y1="1589.315882" x2="3101.926547" y2="1612.627351" stroke="black" stroke-width="6.48"/>
<line x1="3101.926547" y1="1612.627351" x2="3260.085901" y2="1750.113184" stroke="black" stroke-width="6.48"/>
<line x1="3260.085901" y1="1750.113184" x2="3280.350251" y2="1726.801711" stroke="black" stroke-width="6.48"/>
<line x1="3280.350251" y1="1726.801711" x2="3122.190896" y2="1589.315882" stroke="black" stroke-width="6.48"/>
<line x1="2988.446177" y1="1743.171581" x2="2968.181827" y2="1766.48305" stroke="black" stroke-width="6.48"/>
<line x1="2968.181827" y1="1766.48305" x2="3126.341182" y2="1903.968882" stroke="black" stroke-width="6.48"/>
<line x1="3126.341182" y1="1903.968882" x2="3146.605531" y2="1880.65741" stroke="black" stroke-width="6.48"/>
<line x1="3146.605531" y1="1880.65741" x2="2988.446177" y2="1743.171581" stroke="black" stroke-width="6.48"/>
<line x1="3102.238307" y1="1612.268716" x2="2988.446177" y2="1743.171581" stroke="black" stroke-width="6.48"/>
<line x1="3259.992143" y1="1748.772385" x2="3262.258714" y2="1786.002872" stroke="black" stroke-width="6.48"/>
<line x1="3182.760104" y1="1877.455559" x2="3145.576496" y2="1880.392529" stroke="black" stroke-width="6.48"/>
<line x1="3263.50575" y1="1784.568323" x2="3181.513064" y2="1878.890116" stroke="black" stroke-width="6.48"/>
<line x1="3135.638516" y1="1641.932723" x2="3021.84639" y2="1772.835588" stroke="black" stroke-width="6.48"/>
<line x1="987.939418" y1="1943.96702" x2="1011.60099" y2="1963.821449" stroke="black" stroke-width="6.48"/>
<line x1="1011.60099" y1="1963.821449" x2="1146.305657" y2="1803.286753" stroke="black" stroke-width="6.48"/>
<line x1="1146.305657" y1="1803.286753" x2="1122.644081" y2="1783.432328" stroke="black" stroke-width="6.48"/>
<line x1="1122.644081" y1="1783.432328" x2="987.939418" y2="1943.96702" stroke="black" stroke-width="6.48"/>
<line x1="1144.105816" y1="2075.006257" x2="1167.767392" y2="2094.860682" stroke="black" stroke-width="6.48"/>
<line x1="1167.767392" y1="2094.860682" x2="1302.472058" y2="1934.32599" stroke="black" stroke-width="6.48"/>
<line x1="1302.472058" y1="1934.32599" x2="1278.810482" y2="1914.471562" stroke="black" stroke-width="6.48"/>
<line x1="1278.810482" y1="1914.471562" x2="1144.105816" y2="2075.006257" stroke="black" stroke-width="6.48"/>
<line x1="1011.236962" y1="1963.516" x2="1144.105816" y2="2075.006257" stroke="black" stroke-width="6.48"/>
<line x1="1144.966705" y1="1803.403897" x2="1182.151966" y2="1800.487919" stroke="black" stroke-width="6.48"/>
<line x1="1274.978146" y1="1878.378372" x2="1278.563605" y2="1915.505064" stroke="black" stroke-width="6.48"/>
<line x1="1180.69587" y1="1799.266111" x2="1276.434241" y2="1879.600187" stroke="black" stroke-width="6.48"/>
<line x1="1040.31355" y1="1929.603172" x2="1173.182396" y2="2041.093426" stroke="black" stroke-width="6.48"/>
<line x1="5611.546588" y1="1371.18316" x2="5611.546588" y2="1402.07116" stroke="black" stroke-width="6.48"/>
<line x1="5611.546588" y1="1402.07116" x2="5821.109788" y2="1402.07116" stroke="black" stroke-width="6.48"/>
<line x1="5821.109788" y1="1402.07116" x2="5821.109788" y2="1371.18316" stroke="black" stroke-width="6.48"/>
<line x1="5821.109788" y1="1371.18316" x2="5611.546588" y2="1371.18316" stroke="black" stroke-width="6.48"/>
<line x1="5611.546588" y1="1575.04396" x2="5611.546588" y2="1605.93196" stroke="black" stroke-width="6.48"/>
<line x1="5611.546588" y1="1605.93196" x2="5821.109788" y2="1605.93196" stroke="black" stroke-width="6.48"/>
<line x1="5821.109788" y1="1605.93196" x2="5821.109788" y2="1575.04396" stroke="black" stroke-width="6.48"/>
<line x1="5821.109788" y1="1575.04396" x2="5611.546588" y2="1575.04396" stroke="black" stroke-width="6.48"/>
<line x1="5611.546588" y1="1401.59596" x2="5611.546588" y2="1575.04396" stroke="black" stroke-width="6.48"/>
<line x1="5820.159388" y1="1401.12076" x2="5846.295388" y2="1427.73196" stroke="black" stroke-width="6.48"/>
<line x1="5846.295388" y1="1548.90796" x2="5820.159388" y2="1575.51916" stroke="black" stroke-width="6.48"/>
<line x1="5846.295388" y1="1425.83116" x2="5846.295388" y2="1550.80876" stroke="black" stroke-width="6.48"/>
<line x1="5656.215388" y1="1402.07116" x2="5656.215388" y2="1575.51916" stroke="black" stroke-width="6.48"/>
<line x1="624.609626" y1="1035.234551" x2="887.465538" y2="1327.165618" stroke="black" stroke-width="6.48"/>
<line x1="887.465538" y1="1327.165618" x2="1024.602512" y2="1203.686932" stroke="black" stroke-width="6.48"/>
<line x1="1024.602512" y1="1203.686932" x2="761.746597" y2="911.755865" stroke="black" stroke-width="6.48"/>
<line x1="761.746597" y1="911.755865" x2="624.609626" y2="1035.234551" stroke="black" stroke-width="6.48"/>
<line x1="868.266839" y1="1030.058575" x2="928.301047" y2="976.003528" stroke="black" stroke-width="6.48"/>
<line x1="928.301047" y1="976.003528" x2="875.835853" y2="917.735029" stroke="black" stroke-width="6.48"/>
<line x1="875.835853" y1="917.735029" x2="815.801645" y2="971.790077" stroke="black" stroke-width="6.48"/>
<line x1="863.41725" y1="929.982532" x2="915.352492" y2="987.662462" stroke="black" stroke-width="6.48"/>
<line x1="618.041891" y1="1149.853763" x2="670.507081" y2="1208.122261" stroke="black" stroke-width="6.48"/>
<line x1="670.507081" y1="1208.122261" x2="731.129864" y2="1153.537265" stroke="black" stroke-width="6.48"/>
<line x1="678.66467" y1="1095.268763" x2="618.041891" y2="1149.853763" stroke="black" stroke-width="6.48"/>
<line x1="631.520395" y1="1138.783399" x2="683.455637" y2="1196.463326" stroke="black" stroke-width="6.48"/>
<line x1="969.48756" y1="1142.475581" x2="1029.521776" y2="1088.420533" stroke="black" stroke-width="6.48"/>
<line x1="1029.521776" y1="1088.420533" x2="977.056582" y2="1030.152035" stroke="black" stroke-width="6.48"/>
<line x1="977.056582" y1="1030.152035" x2="917.02237" y2="1084.207079" stroke="black" stroke-width="6.48"/>
<line x1="964.108026" y1="1041.810962" x2="1016.573216" y2="1100.079464" stroke="black" stroke-width="6.48"/>
<line x1="719.262616" y1="1262.270765" x2="771.727806" y2="1320.539263" stroke="black" stroke-width="6.48"/>
<line x1="771.727806" y1="1320.539263" x2="832.350589" y2="1265.954267" stroke="black" stroke-width="6.48"/>
<line x1="779.885395" y1="1207.685765" x2="719.262616" y2="1262.270765" stroke="black" stroke-width="6.48"/>
<line x1="732.211168" y1="1250.611834" x2="784.676362" y2="1308.880332" stroke="black" stroke-width="6.48"/>
<line x1="2304.651938" y1="2279.639304" x2="2335.370731" y2="2282.867986" stroke="black" stroke-width="6.48"/>
<line x1="2335.370731" y1="2282.867986" x2="2357.276101" y2="2074.4528" stroke="black" stroke-width="6.48"/>
<line x1="2357.276101" y1="2074.4528" x2="2326.557308" y2="2071.224119" stroke="black" stroke-width="6.48"/>
<line x1="2326.557308" y1="2071.224119" x2="2304.651938" y2="2279.639304" stroke="black" stroke-width="6.48"/>
<line x1="2507.395964" y1="2300.948611" x2="2538.114754" y2="2304.177293" stroke="black" stroke-width="6.48"/>
<line x1="2538.114754" y1="2304.177293" x2="2560.020124" y2="2095.762108" stroke="black" stroke-width="6.48"/>
<line x1="2560.020124" y1="2095.762108" x2="2529.301334" y2="2092.533426" stroke="black" stroke-width="6.48"/>
<line x1="2529.301334" y1="2092.533426" x2="2507.395964" y2="2300.948611" stroke="black" stroke-width="6.48"/>
<line x1="2334.898134" y1="2282.818313" x2="2507.395964" y2="2300.948611" stroke="black" stroke-width="6.48"/>
<line x1="2356.231565" y1="2075.298649" x2="2385.428947" y2="2052.087462" stroke="black" stroke-width="6.48"/>
<line x1="2505.941129" y1="2064.753832" x2="2529.674586" y2="2093.52829" stroke="black" stroke-width="6.48"/>
<line x1="2383.538558" y1="2051.888774" x2="2507.831514" y2="2064.952519" stroke="black" stroke-width="6.48"/>
<line x1="2340.039902" y1="2238.443888" x2="2512.537733" y2="2256.574183" stroke="black" stroke-width="6.48"/>
</g>
</svg>
