<?xml version="1.0"?>
<svg xmlns:xlink="http://www.w3.org/1999/xlink" width="6775.2" height="2858.4">
<image x="0" y="0" width="6775.2" height="2858.4" xlink:href="groundfilled-01.png"/>
<g style="stroke-linecap:round">
<line x1="1285.950406" y1="795.178109" x2="1311.346069" y2="795.178109" stroke="black" stroke-width="6.48"/>
<line x1="1311.346069" y1="795.178109" x2="1311.346069" y2="745.625592" stroke="black" stroke-width="6.48"/>
<line x1="1311.346069" y1="745.625592" x2="1285.950406" y2="745.625592" stroke="black" stroke-width="6.48"/>
<line x1="1285.950406" y1="745.625592" x2="1285.950406" y2="795.178109" stroke="black" stroke-width="6.48"/>
<line x1="1559.728062" y1="745.625592" x2="1559.728062" y2="498.48241" stroke="black" stroke-width="6.48"/>
<line x1="1560.347471" y1="796.416923" x2="1585.743134" y2="796.416923" stroke="black" stroke-width="6.48"/>
<line x1="1585.743134" y1="796.416923" x2="1585.743134" y2="746.864406" stroke="black" stroke-width="6.48"/>
<line x1="1585.743134" y1="746.864406" x2="1560.347471" y2="746.864406" stroke="black" stroke-width="6.48"/>
<line x1="1560.347471" y1="746.864406" x2="1560.347471" y2="796.416923" stroke="black" stroke-width="6.48"/>
<path d="m 1311.346069,747.483811 a 248.38199299999997,248.38199299999997 0 0 1 248.38199299999997,-248.38199299999997" fill="none" stroke="black" stroke-width="6.48"/>
<line x1="320.532556" y1="771.34176" x2="320.532556" y2="366.736194" stroke="black" stroke-width="6.48"/>
<line x1="320.532556" y1="366.736194" x2="258.159283" y2="366.736194" stroke="black" stroke-width="6.48"/>
<line x1="258.159283" y1="366.736194" x2="258.159283" y2="771.34176" stroke="black" stroke-width="6.48"/>
<line x1="258.159283" y1="771.34176" x2="320.532556" y2="771.34176" stroke="black" stroke-width="6.48"/>
<line x1="258.979986" y1="733.589518" x2="319.711856" y2="733.589518" stroke="black" stroke-width="6.48"/>
<line x1="258.979986" y1="405.309139" x2="322.173958" y2="405.309139" stroke="black" stroke-width="6.48"/>
<line x1="287.704519" y1="734.410217" x2="287.704519" y2="406.129838" stroke="black" stroke-width="6.48"/>
<line x1="3901.945176" y1="1169.331426" x2="3901.945176" y2="1428.837066" stroke="black" stroke-width="6.48"/>
<line x1="3901.945176" y1="1428.837066" x2="3941.9501" y2="1428.837066" stroke="black" stroke-width="6.48"/>
<line x1="3941.9501" y1="1428.837066" x2="3941.9501" y2="1169.331426" stroke="black" stroke-width="6.48"/>
<line x1="3941.9501" y1="1169.331426" x2="3901.945176" y2="1169.331426" stroke="black" stroke-width="6.48"/>
<line x1="3941.423719" y1="1193.544936" x2="3902.471557" y2="1193.544936" stroke="black" stroke-width="6.48"/>
<line x1="3941.423719" y1="1404.097178" x2="3900.892414" y2="1404.097178" stroke="black" stroke-width="6.48"/>
<line x1="3923.000399" y1="1193.018555" x2="3923.000399" y2="1403.570797" stroke="black" stroke-width="6.48"/>
<line x1="334.430687" y1="1882.943946" x2="334.430687" y2="1457.437414" stroke="black" stroke-width="6.48"/>
<line x1="334.430687" y1="1457.437414" x2="258.323828" y2="1457.437414" stroke="black" stroke-width="6.48"/>
<line x1="258.323828" y1="1457.437414" x2="258.323828" y2="1882.943946" stroke="black" stroke-width="6.48"/>
<line x1="258.323828" y1="1882.943946" x2="334.430687" y2="1882.943946" stroke="black" stroke-width="6.48"/>
<line x1="334.430687" y1="1863.05238" x2="360.376207" y2="1863.05238" stroke="black" stroke-width="6.48"/>
<line x1="360.376207" y1="1863.05238" x2="360.376207" y2="1478.193829" stroke="black" stroke-width="6.48"/>
<line x1="334.430687" y1="1478.193829" x2="360.376207" y2="1478.193829" stroke="black" stroke-width="6.48"/>
<line x1="2747.905531" y1="904.670665" x2="2721.68303" y2="904.670665" stroke="black" stroke-width="6.48"/>
<line x1="2721.68303" y1="904.670665" x2="2721.68303" y2="955.836522" stroke="black" stroke-width="6.48"/>
<line x1="2721.68303" y1="955.836522" x2="2747.905531" y2="955.836522" stroke="black" stroke-width="6.48"/>
<line x1="2747.905531" y1="955.836522" x2="2747.905531" y2="904.670665" stroke="black" stroke-width="6.48"/>
<line x1="2465.214181" y1="955.836522" x2="2465.214181" y2="1211.026223" stroke="black" stroke-width="6.48"/>
<line x1="2464.574609" y1="903.39152" x2="2438.352108" y2="903.39152" stroke="black" stroke-width="6.48"/>
<line x1="2438.352108" y1="903.39152" x2="2438.352108" y2="954.557374" stroke="black" stroke-width="6.48"/>
<line x1="2438.352108" y1="954.557374" x2="2464.574609" y2="954.557374" stroke="black" stroke-width="6.48"/>
<line x1="2464.574609" y1="954.557374" x2="2464.574609" y2="903.39152" stroke="black" stroke-width="6.48"/>
<path d="m 2721.68303,953.917801 a 256.4688490000001,256.4688490000001 0 0 1 -256.4688490000003,256.46884899999986" fill="none" stroke="black" stroke-width="6.48"/>
<line x1="2420.532389" y1="1427.858834" x2="2395.136725" y2="1427.858834" stroke="black" stroke-width="6.48"/>
<line x1="2395.136725" y1="1427.858834" x2="2395.136725" y2="1477.411351" stroke="black" stroke-width="6.48"/>
<line x1="2395.136725" y1="1477.411351" x2="2420.532389" y2="1477.411351" stroke="black" stroke-width="6.48"/>
<line x1="2420.532389" y1="1477.411351" x2="2420.532389" y2="1427.858834" stroke="black" stroke-width="6.48"/>
<line x1="2146.754732" y1="1477.411351" x2="2146.754732" y2="1724.554534" stroke="black" stroke-width="6.48"/>
<line x1="2146.135324" y1="1426.62002" x2="2120.73966" y2="1426.62002" stroke="black" stroke-width="6.48"/>
<line x1="2120.73966" y1="1426.62002" x2="2120.73966" y2="1476.172537" stroke="black" stroke-width="6.48"/>
<line x1="2120.73966" y1="1476.172537" x2="2146.135324" y2="1476.172537" stroke="black" stroke-width="6.48"/>
<line x1="2146.135324" y1="1476.172537" x2="2146.135324" y2="1426.62002" stroke="black" stroke-width="6.48"/>
<path d="m 2395.136725,1475.553132 a 248.38199299999997,248.38199299999997 0 0 1 -248.38199299999997,248.38199299999997" fill="none" stroke="black" stroke-width="6.48"/>
<line x1="656.8893" y1="692.136151" x2="1049.7213" y2="692.136151" stroke="black" stroke-width="6.48"/>
<line x1="1049.7213" y1="692.136151" x2="1049.7213" y2="507.600151" stroke="black" stroke-width="6.48"/>
<line x1="1049.7213" y1="507.600151" x2="656.8893" y2="507.600151" stroke="black" stroke-width="6.48"/>
<line x1="656.8893" y1="507.600151" x2="656.8893" y2="692.136151" stroke="black" stroke-width="6.48"/>
<line x1="816.0813" y1="507.600151" x2="816.0813" y2="426.816151" stroke="black" stroke-width="6.48"/>
<line x1="816.0813" y1="426.816151" x2="737.6733" y2="426.816151" stroke="black" stroke-width="6.48"/>
<line x1="737.6733" y1="426.816151" x2="737.6733" y2="507.600151" stroke="black" stroke-width="6.48"/>
<line x1="738.4653" y1="444.240151" x2="816.0813" y2="444.240151" stroke="black" stroke-width="6.48"/>
<line x1="737.6733" y1="773.712151" x2="816.0813" y2="773.712151" stroke="black" stroke-width="6.48"/>
<line x1="816.0813" y1="773.712151" x2="816.0813" y2="692.136151" stroke="black" stroke-width="6.48"/>
<line x1="737.6733" y1="692.136151" x2="737.6733" y2="773.712151" stroke="black" stroke-width="6.48"/>
<line x1="738.4653" y1="756.288151" x2="816.0813" y2="756.288151" stroke="black" stroke-width="6.48"/>
<line x1="967.3533" y1="507.600151" x2="967.3533" y2="426.816151" stroke="black" stroke-width="6.48"/>
<line x1="967.3533" y1="426.816151" x2="888.9453" y2="426.816151" stroke="black" stroke-width="6.48"/>
<line x1="888.9453" y1="426.816151" x2="888.9453" y2="507.600151" stroke="black" stroke-width="6.48"/>
<line x1="888.9453" y1="444.240151" x2="967.3533" y2="444.240151" stroke="black" stroke-width="6.48"/>
<line x1="888.9453" y1="773.712151" x2="967.3533" y2="773.712151" stroke="black" stroke-width="6.48"/>
<line x1="967.3533" y1="773.712151" x2="967.3533" y2="692.136151" stroke="black" stroke-width="6.48"/>
<line x1="888.9453" y1="692.136151" x2="888.9453" y2="773.712151" stroke="black" stroke-width="6.48"/>
<line x1="888.9453" y1="756.288151" x2="967.3533" y2="756.288151" stroke="black" stroke-width="6.48"/>
<line x1="2032.924367" y1="2090.226902" x2="2032.924367" y2="1881.138902" stroke="black" stroke-width="6.48"/>
<line x1="2032.924367" y1="1881.138902" x2="1801.026767" y2="1881.138902" stroke="black" stroke-width="6.48"/>
<line x1="1801.026767" y1="1881.138902" x2="1801.026767" y2="2090.226902" stroke="black" stroke-width="6.48"/>
<line x1="1801.026767" y1="2090.226902" x2="2032.924367" y2="2090.226902" stroke="black" stroke-width="6.48"/>
<line x1="2000.610767" y1="2090.226902" x2="2000.610767" y2="1881.138902" stroke="black" stroke-width="6.48"/>
<line x1="1485.415969" y1="209.267824" x2="1707.693134" y2="209.267824" stroke="black" stroke-width="6.48"/>
<line x1="1707.693134" y1="209.267824" x2="1707.693134" y2="432.000475" stroke="black" stroke-width="6.48"/>
<line x1="1707.693134" y1="432.000475" x2="1485.415969" y2="432.000475" stroke="black" stroke-width="6.48"/>
<line x1="1485.415969" y1="432.000475" x2="1485.415969" y2="209.267824" stroke="black" stroke-width="6.48"/>
<line x1="1484.960483" y1="208.812337" x2="1707.693134" y2="432.000475" stroke="black" stroke-width="6.48"/>
<line x1="1485.415969" y1="431.544989" x2="1707.237648" y2="209.267824" stroke="black" stroke-width="6.48"/>
<line x1="2586.780558" y1="1803.366338" x2="2586.780558" y2="2194.614338" stroke="black" stroke-width="6.48"/>
<line x1="2586.780558" y1="2194.614338" x2="2761.020558" y2="2194.614338" stroke="black" stroke-width="6.48"/>
<line x1="2761.020558" y1="2194.614338" x2="2761.020558" y2="1803.366338" stroke="black" stroke-width="6.48"/>
<line x1="2761.020558" y1="1803.366338" x2="2586.780558" y2="1803.366338" stroke="black" stroke-width="6.48"/>
<line x1="2734.092558" y1="2119.374338" x2="2734.092558" y2="1835.046338" stroke="black" stroke-width="6.48"/>
<line x1="2734.092558" y1="1835.046338" x2="2616.084558" y2="1835.046338" stroke="black" stroke-width="6.48"/>
<line x1="2616.084558" y1="1835.046338" x2="2616.084558" y2="2124.918338" stroke="black" stroke-width="6.48"/>
<path d="m 2734.347982,2118.563766 a 63.35999941905905,63.35999941905905 0 0 1 -119.37432999999965,4.2938139999996565" fill="none" stroke="black" stroke-width="6.48"/>
<line x1="2081.1267" y1="1890.156956" x2="2056.5747" y2="1908.768956" stroke="black" stroke-width="6.48"/>
<line x1="2056.5747" y1="1908.768956" x2="2056.5747" y2="2056.080956" stroke="black" stroke-width="6.48"/>
<line x1="2056.5747" y1="2056.080956" x2="2084.6907" y2="2075.088956" stroke="black" stroke-width="6.48"/>
<line x1="2083.8987" y1="1911.936956" x2="2083.8987" y2="2054.892956" stroke="black" stroke-width="6.48"/>
<circle cx="2105.6787" cy="1981.236956" r="13.068000000000003" fill="none" stroke="black" stroke-width="6.48"/>
<path d="m 2083.231354,1913.490209 a 74.8440000678094,74.8440000678094 0 1 1 0.40204799999992247,139.6090039999999" fill="none" stroke="black" stroke-width="6.48"/>
<path d="m 2080.469336,1890.20326 a 95.43599883751708,95.43599883751708 0 1 1 3.0749579999996968,184.466995" fill="none" stroke="black" stroke-width="6.48"/>
<line x1="912.320863" y1="209.981639" x2="1182.868063" y2="209.981639" stroke="black" stroke-width="6.48"/>
<line x1="1182.868063" y1="209.981639" x2="1182.868063" y2="341.928839" stroke="black" stroke-width="6.48"/>
<line x1="912.320863" y1="341.928839" x2="1182.868063" y2="341.928839" stroke="black" stroke-width="6.48"/>
<line x1="912.320863" y1="209.981639" x2="912.320863" y2="341.928839" stroke="black" stroke-width="6.48"/>
<line x1="918.973663" y1="216.634439" x2="1057.019263" y2="216.634439" stroke="black" stroke-width="6.48"/>
<line x1="1057.019263" y1="216.634439" x2="1057.019263" y2="334.721639" stroke="black" stroke-width="6.48"/>
<line x1="918.973663" y1="334.721639" x2="1057.019263" y2="334.721639" stroke="black" stroke-width="6.48"/>
<line x1="918.973663" y1="216.634439" x2="918.973663" y2="334.721639" stroke="black" stroke-width="6.48"/>
<line x1="1071.433663" y1="224.396039" x2="1168.453663" y2="224.396039" stroke="black" stroke-width="6.48"/>
<line x1="1071.433663" y1="244.908839" x2="1168.453663" y2="244.908839" stroke="black" stroke-width="6.48"/>
<line x1="1071.988063" y1="265.976039" x2="1169.008063" y2="265.976039" stroke="black" stroke-width="6.48"/>
<line x1="1071.988063" y1="286.488839" x2="1169.008063" y2="286.488839" stroke="black" stroke-width="6.48"/>
<line x1="1071.433663" y1="307.001639" x2="1168.453663" y2="307.001639" stroke="black" stroke-width="6.48"/>
<line x1="1071.433663" y1="327.514439" x2="1168.453663" y2="327.514439" stroke="black" stroke-width="6.48"/>
<line x1="971.641663" y1="334.721639" x2="971.641663" y2="320.861639" stroke="black" stroke-width="6.48"/>
<line x1="971.641663" y1="320.861639" x2="1006.014463" y2="320.861639" stroke="black" stroke-width="6.48"/>
<line x1="1006.014463" y1="320.861639" x2="1006.014463" y2="334.167239" stroke="black" stroke-width="6.48"/>
<circle cx="1041.496063" cy="231.603239" r="8.316000000000003" fill="none" stroke="black" stroke-width="6.48"/>
<line x1="567.219092" y1="1044.545695" x2="885.026858" y2="1275.446552" stroke="black" stroke-width="6.48"/>
<line x1="885.026858" y1="1275.446552" x2="993.494398" y2="1126.153793" stroke="black" stroke-width="6.48"/>
<line x1="993.494398" y1="1126.153793" x2="675.686632" y2="895.252936" stroke="black" stroke-width="6.48"/>
<line x1="675.686632" y1="895.252936" x2="567.219092" y2="1044.545695" stroke="black" stroke-width="6.48"/>
<line x1="804.475667" y1="988.823646" x2="851.959307" y2="923.468018" stroke="black" stroke-width="6.48"/>
<line x1="851.959307" y1="923.468018" x2="788.525906" y2="877.380952" stroke="black" stroke-width="6.48"/>
<line x1="788.525906" y1="877.380952" x2="741.042263" y2="942.736579" stroke="black" stroke-width="6.48"/>
<line x1="778.925077" y1="891.942793" x2="841.717739" y2="937.564333" stroke="black" stroke-width="6.48"/>
<line x1="584.625553" y1="1158.025709" x2="648.058957" y2="1204.112776" stroke="black" stroke-width="6.48"/>
<line x1="648.058957" y1="1204.112776" x2="696.008128" y2="1138.116406" stroke="black" stroke-width="6.48"/>
<line x1="632.574724" y1="1092.029339" x2="584.625553" y2="1158.025709" stroke="black" stroke-width="6.48"/>
<line x1="595.507864" y1="1144.394928" x2="658.300525" y2="1190.016468" stroke="black" stroke-width="6.48"/>
<line x1="926.857285" y1="1077.739099" x2="974.340932" y2="1012.383468" stroke="black" stroke-width="6.48"/>
<line x1="974.340932" y1="1012.383468" x2="910.907525" y2="966.296401" stroke="black" stroke-width="6.48"/>
<line x1="910.907525" y1="966.296401" x2="863.423881" y2="1031.652032" stroke="black" stroke-width="6.48"/>
<line x1="900.665953" y1="980.392716" x2="964.099361" y2="1026.479779" stroke="black" stroke-width="6.48"/>
<line x1="707.007172" y1="1246.941162" x2="770.440579" y2="1293.028229" stroke="black" stroke-width="6.48"/>
<line x1="770.440579" y1="1293.028229" x2="818.389746" y2="1227.031859" stroke="black" stroke-width="6.48"/>
<line x1="754.956342" y1="1180.944792" x2="707.007172" y2="1246.941162" stroke="black" stroke-width="6.48"/>
<line x1="717.248743" y1="1232.844851" x2="780.682147" y2="1278.931914" stroke="black" stroke-width="6.48"/>
<line x1="2044.889399" y1="955.822399" x2="2267.166564" y2="955.822399" stroke="black" stroke-width="6.48"/>
<line x1="2267.166564" y1="955.822399" x2="2267.166564" y2="1178.555051" stroke="black" stroke-width="6.48"/>
<line x1="2267.166564" y1="1178.555051" x2="2044.889399" y2="1178.555051" stroke="black" stroke-width="6.48"/>
<line x1="2044.889399" y1="1178.555051" x2="2044.889399" y2="955.822399" stroke="black" stroke-width="6.48"/>
<line x1="2044.433912" y1="955.366913" x2="2267.166564" y2="1178.555051" stroke="black" stroke-width="6.48"/>
<line x1="2044.889399" y1="1178.099564" x2="2266.711078" y2="955.822399" stroke="black" stroke-width="6.48"/>
<line x1="333.766206" y1="1375.361078" x2="333.766206" y2="949.854546" stroke="black" stroke-width="6.48"/>
<line x1="333.766206" y1="949.854546" x2="257.659348" y2="949.854546" stroke="black" stroke-width="6.48"/>
<line x1="257.659348" y1="949.854546" x2="257.659348" y2="1375.361078" stroke="black" stroke-width="6.48"/>
<line x1="257.659348" y1="1375.361078" x2="333.766206" y2="1375.361078" stroke="black" stroke-width="6.48"/>
<line x1="333.766206" y1="1355.469512" x2="359.711726" y2="1355.469512" stroke="black" stroke-width="6.48"/>
<line x1="359.711726" y1="1355.469512" x2="359.711726" y2="970.610962" stroke="black" stroke-width="6.48"/>
<line x1="333.766206" y1="970.610962" x2="359.711726" y2="970.610962" stroke="black" stroke-width="6.48"/>
<line x1="3874.406537" y1="1514.726719" x2="3874.406537" y2="1940.260162" stroke="black" stroke-width="6.48"/>
<line x1="3874.406537" y1="1940.260162" x2="3940.00601" y2="1940.260162" stroke="black" stroke-width="6.48"/>
<line x1="3940.00601" y1="1940.260162" x2="3940.00601" y2="1514.726719" stroke="black" stroke-width="6.48"/>
<line x1="3940.00601" y1="1514.726719" x2="3874.406537" y2="1514.726719" stroke="black" stroke-width="6.48"/>
<line x1="3939.14286" y1="1554.431663" x2="3875.269687" y2="1554.431663" stroke="black" stroke-width="6.48"/>
<line x1="3939.14286" y1="1899.692064" x2="3872.680232" y2="1899.692064" stroke="black" stroke-width="6.48"/>
<line x1="3908.932574" y1="1553.568512" x2="3908.932574" y2="1898.828914" stroke="black" stroke-width="6.48"/>
<line x1="5154.528049" y1="2329.18519" x2="5417.383961" y2="2037.254119" stroke="black" stroke-width="6.48"/>
<line x1="5417.383961" y1="2037.254119" x2="5280.246994" y2="1913.775433" stroke="black" stroke-width="6.48"/>
<line x1="5280.246994" y1="1913.775433" x2="5017.391075" y2="2205.706504" stroke="black" stroke-width="6.48"/>
<line x1="5017.391075" y1="2205.706504" x2="5154.528049" y2="2329.18519" stroke="black" stroke-width="6.48"/>
<line x1="5123.911316" y1="2087.403793" x2="5063.877101" y2="2033.348742" stroke="black" stroke-width="6.48"/>
<line x1="5063.877101" y1="2033.348742" x2="5011.41191" y2="2091.617244" stroke="black" stroke-width="6.48"/>
<line x1="5011.41191" y1="2091.617244" x2="5071.446122" y2="2145.672292" stroke="black" stroke-width="6.48"/>
<line x1="5024.890418" y1="2102.687608" x2="5076.82566" y2="2045.007677" stroke="black" stroke-width="6.48"/>
<line x1="5269.205876" y1="2323.735974" x2="5321.67107" y2="2265.467472" stroke="black" stroke-width="6.48"/>
<line x1="5321.67107" y1="2265.467472" x2="5261.048291" y2="2210.882479" stroke="black" stroke-width="6.48"/>
<line x1="5208.583097" y1="2269.150974" x2="5269.205876" y2="2323.735974" stroke="black" stroke-width="6.48"/>
<line x1="5256.787273" y1="2311.488472" x2="5308.722515" y2="2253.808544" stroke="black" stroke-width="6.48"/>
<line x1="5225.132041" y1="1974.986788" x2="5165.097826" y2="1920.93174" stroke="black" stroke-width="6.48"/>
<line x1="5165.097826" y1="1920.93174" x2="5112.632635" y2="1979.200242" stroke="black" stroke-width="6.48"/>
<line x1="5112.632635" y1="1979.200242" x2="5172.666847" y2="2033.255286" stroke="black" stroke-width="6.48"/>
<line x1="5125.581191" y1="1990.85917" x2="5178.046385" y2="1932.590675" stroke="black" stroke-width="6.48"/>
<line x1="5370.426601" y1="2211.318972" x2="5422.891795" y2="2153.05047" stroke="black" stroke-width="6.48"/>
<line x1="5422.891795" y1="2153.05047" x2="5362.269016" y2="2098.465474" stroke="black" stroke-width="6.48"/>
<line x1="5309.803822" y1="2156.733972" x2="5370.426601" y2="2211.318972" stroke="black" stroke-width="6.48"/>
<line x1="5357.478049" y1="2199.660041" x2="5409.94324" y2="2141.391539" stroke="black" stroke-width="6.48"/>
<line x1="3282.887023" y1="1074.906022" x2="3492.252227" y2="1074.906022" stroke="black" stroke-width="6.48"/>
<line x1="3492.252227" y1="1074.906022" x2="3492.252227" y2="743.691618" stroke="black" stroke-width="6.48"/>
<line x1="3492.252227" y1="743.691618" x2="3282.887023" y2="743.691618" stroke="black" stroke-width="6.48"/>
<line x1="3282.887023" y1="743.691618" x2="3282.887023" y2="1074.906022" stroke="black" stroke-width="6.48"/>
<line x1="3282.213823" y1="802.933218" x2="3492.925423" y2="802.933218" stroke="black" stroke-width="6.48"/>
<line x1="3492.925423" y1="802.933218" x2="3283.560223" y2="852.750022" stroke="black" stroke-width="6.48"/>
<line x1="3283.560223" y1="852.750022" x2="3315.200627" y2="899.200822" stroke="black" stroke-width="6.48"/>
<line x1="3315.200627" y1="899.200822" x2="3492.925423" y2="802.260022" stroke="black" stroke-width="6.48"/>
<line x1="3516.353744" y1="1202.703484" x2="3738.63091" y2="1202.703484" stroke="black" stroke-width="6.48"/>
<line x1="3738.63091" y1="1202.703484" x2="3738.63091" y2="1425.436135" stroke="black" stroke-width="6.48"/>
<line x1="3738.63091" y1="1425.436135" x2="3516.353744" y2="1425.436135" stroke="black" stroke-width="6.48"/>
<line x1="3516.353744" y1="1425.436135" x2="3516.353744" y2="1202.703484" stroke="black" stroke-width="6.48"/>
<line x1="3515.898258" y1="1202.247997" x2="3738.63091" y2="1425.436135" stroke="black" stroke-width="6.48"/>
<line x1="3516.353744" y1="1424.980649" x2="3738.175423" y2="1202.703484" stroke="black" stroke-width="6.48"/>
<line x1="2804.16708" y1="1127.69402" x2="2804.16708" y2="1153.148746" stroke="black" stroke-width="6.48"/>
<line x1="2804.16708" y1="1153.148746" x2="2853.834836" y2="1153.148746" stroke="black" stroke-width="6.48"/>
<line x1="2853.834836" y1="1153.148746" x2="2853.834836" y2="1127.69402" stroke="black" stroke-width="6.48"/>
<line x1="2853.834836" y1="1127.69402" x2="2804.16708" y2="1127.69402" stroke="black" stroke-width="6.48"/>
<line x1="2853.834836" y1="1402.108373" x2="3101.55277" y2="1402.108373" stroke="black" stroke-width="6.48"/>
<line x1="2802.925386" y1="1402.729218" x2="2802.925386" y2="1428.183943" stroke="black" stroke-width="6.48"/>
<line x1="2802.925386" y1="1428.183943" x2="2852.593142" y2="1428.183943" stroke="black" stroke-width="6.48"/>
<line x1="2852.593142" y1="1428.183943" x2="2852.593142" y2="1402.729218" stroke="black" stroke-width="6.48"/>
<line x1="2852.593142" y1="1402.729218" x2="2802.925386" y2="1402.729218" stroke="black" stroke-width="6.48"/>
<path d="m 2851.972294,1153.148746 a 248.95962699999984,248.95962699999984 0 0 1 248.95962699999973,248.95962699999995" fill="none" stroke="black" stroke-width="6.48"/>
<line x1="3696.531426" y1="1732.180835" x2="3617.217774" y2="1950.093295" stroke="black" stroke-width="6.48"/>
<line x1="3617.217774" y1="1950.093295" x2="3398.858766" y2="1870.617118" stroke="black" stroke-width="6.48"/>
<line x1="3398.858766" y1="1870.617118" x2="3478.172418" y2="1652.704657" stroke="black" stroke-width="6.48"/>
<line x1="3478.172418" y1="1652.704657" x2="3696.531426" y2="1732.180835" stroke="black" stroke-width="6.48"/>
<line x1="3697.140496" y1="1731.89682" x2="3398.858766" y2="1870.617118" stroke="black" stroke-width="6.48"/>
<line x1="3478.618962" y1="1652.867186" x2="3617.380303" y2="1949.646755" stroke="black" stroke-width="6.48"/>
<line x1="3009.806302" y1="1589.315879" x2="3009.26723" y2="1620.199174" stroke="black" stroke-width="6.48"/>
<line x1="3009.26723" y1="1620.199174" x2="3218.798513" y2="1623.856554" stroke="black" stroke-width="6.48"/>
<line x1="3218.798513" y1="1623.856554" x2="3219.337584" y2="1592.973259" stroke="black" stroke-width="6.48"/>
<line x1="3219.337584" y1="1592.973259" x2="3009.806302" y2="1589.315879" stroke="black" stroke-width="6.48"/>
<line x1="3006.24844" y1="1793.145629" x2="3005.709368" y2="1824.028924" stroke="black" stroke-width="6.48"/>
<line x1="3005.709368" y1="1824.028924" x2="3215.240651" y2="1827.686304" stroke="black" stroke-width="6.48"/>
<line x1="3215.240651" y1="1827.686304" x2="3215.779722" y2="1796.803009" stroke="black" stroke-width="6.48"/>
<line x1="3215.779722" y1="1796.803009" x2="3006.24844" y2="1793.145629" stroke="black" stroke-width="6.48"/>
<line x1="3009.275525" y1="1619.724046" x2="3006.24844" y2="1793.145629" stroke="black" stroke-width="6.48"/>
<line x1="3217.864846" y1="1622.889713" x2="3243.532435" y2="1649.952994" stroke="black" stroke-width="6.48"/>
<line x1="3241.417622" y1="1771.11054" x2="3214.821172" y2="1797.261548" stroke="black" stroke-width="6.48"/>
<line x1="3243.565609" y1="1648.052482" x2="3241.384448" y2="1773.011052" stroke="black" stroke-width="6.48"/>
<line x1="3053.929226" y1="1620.97875" x2="3050.902145" y2="1794.400333" stroke="black" stroke-width="6.48"/>
<line x1="6019.293276" y1="1762.756747" x2="6007.72243" y2="1791.395604" stroke="black" stroke-width="6.48"/>
<line x1="6007.72243" y1="1791.395604" x2="6202.026043" y2="1869.89936" stroke="black" stroke-width="6.48"/>
<line x1="6202.026043" y1="1869.89936" x2="6213.596897" y2="1841.260504" stroke="black" stroke-width="6.48"/>
<line x1="6213.596897" y1="1841.260504" x2="6019.293276" y2="1762.756747" stroke="black" stroke-width="6.48"/>
<line x1="5942.92568" y1="1951.773192" x2="5931.35483" y2="1980.412045" stroke="black" stroke-width="6.48"/>
<line x1="5931.35483" y1="1980.412045" x2="6125.658448" y2="2058.915802" stroke="black" stroke-width="6.48"/>
<line x1="6125.658448" y1="2058.915802" x2="6137.229294" y2="2030.276948" stroke="black" stroke-width="6.48"/>
<line x1="6137.229294" y1="2030.276948" x2="5942.92568" y2="1951.773192" stroke="black" stroke-width="6.48"/>
<line x1="6007.900446" y1="1790.955007" x2="5942.92568" y2="1951.773192" stroke="black" stroke-width="6.48"/>
<line x1="6201.500879" y1="1868.662138" x2="6215.765022" y2="1903.126331" stroke="black" stroke-width="6.48"/>
<line x1="6170.371693" y1="2015.47876" x2="6136.170084" y2="2030.36152" stroke="black" stroke-width="6.48"/>
<line x1="6216.477073" y1="1901.36394" x2="6169.659642" y2="2017.24115" stroke="black" stroke-width="6.48"/>
<line x1="6049.138622" y1="1808.128829" x2="5984.163857" y2="1968.947014" stroke="black" stroke-width="6.48"/>
<line x1="3771.436309" y1="1165.903459" x2="3780.467086" y2="1136.365117" stroke="black" stroke-width="6.48"/>
<line x1="3780.467086" y1="1136.365117" x2="3580.060799" y2="1075.094766" stroke="black" stroke-width="6.48"/>
<line x1="3580.060799" y1="1075.094766" x2="3571.030026" y2="1104.633108" stroke="black" stroke-width="6.48"/>
<line x1="3571.030026" y1="1104.633108" x2="3771.436309" y2="1165.903459" stroke="black" stroke-width="6.48"/>
<line x1="3831.039439" y1="970.950406" x2="3840.070216" y2="941.412067" stroke="black" stroke-width="6.48"/>
<line x1="3840.070216" y1="941.412067" x2="3639.663932" y2="880.141712" stroke="black" stroke-width="6.48"/>
<line x1="3639.663932" y1="880.141712" x2="3630.633152" y2="909.680054" stroke="black" stroke-width="6.48"/>
<line x1="3630.633152" y1="909.680054" x2="3831.039439" y2="970.950406" stroke="black" stroke-width="6.48"/>
<line x1="3780.328151" y1="1136.819552" x2="3831.039439" y2="970.950406" stroke="black" stroke-width="6.48"/>
<line x1="3580.691803" y1="1076.28151" x2="3563.478187" y2="1043.191667" stroke="black" stroke-width="6.48"/>
<line x1="3598.906619" y1="927.310482" x2="3631.680961" y2="909.503489" stroke="black" stroke-width="6.48"/>
<line x1="3562.922444" y1="1045.009408" x2="3599.462358" y2="925.492734" stroke="black" stroke-width="6.48"/>
<line x1="3737.750098" y1="1123.305224" x2="3788.46139" y2="957.436074" stroke="black" stroke-width="6.48"/>
<line x1="1130.661691" y1="1676.073046" x2="1008.480586" y2="1821.682746" stroke="black" stroke-width="6.48"/>
<line x1="1008.480586" y1="1821.682746" x2="1363.76825" y2="2119.804643" stroke="black" stroke-width="6.48"/>
<line x1="1363.76825" y1="2119.804643" x2="1485.949356" y2="1974.194942" stroke="black" stroke-width="6.48"/>
<line x1="1485.949356" y1="1974.194942" x2="1467.748145" y2="1958.922306" stroke="black" stroke-width="6.48"/>
<line x1="1467.748145" y1="1958.922306" x2="1360.22877" y2="2087.058838" stroke="black" stroke-width="6.48"/>
<line x1="1360.22877" y1="2087.058838" x2="1042.071584" y2="1820.093126" stroke="black" stroke-width="6.48"/>
<line x1="1042.071584" y1="1820.093126" x2="1149.590956" y2="1691.956591" stroke="black" stroke-width="6.48"/>
<line x1="1149.590956" y1="1691.956591" x2="1130.661691" y2="1676.073046" stroke="black" stroke-width="6.48"/>
<line x1="1145.925518" y1="1696.324882" x2="1464.082711" y2="1963.290596" stroke="black" stroke-width="6.48"/>
<line x1="1305.250996" y1="1828.774238" x2="1201.397058" y2="1952.54248" stroke="black" stroke-width="6.48"/>
<line x1="461.29716" y1="210.033479" x2="854.541032" y2="210.033479" stroke="black" stroke-width="6.48"/>
<line x1="858.496439" y1="209.037197" x2="858.496439" y2="345.105972" stroke="black" stroke-width="6.48"/>
<line x1="461.761549" y1="346.257479" x2="858.80178" y2="346.257479" stroke="black" stroke-width="6.48"/>
<line x1="462.496439" y1="210.728228" x2="462.496439" y2="345.992285" stroke="black" stroke-width="6.48"/>
<line x1="472.792439" y1="221.121479" x2="596.344439" y2="221.121479" stroke="black" stroke-width="6.48"/>
<line x1="596.344439" y1="221.121479" x2="596.344439" y2="335.169479" stroke="black" stroke-width="6.48"/>
<line x1="472.792439" y1="335.169479" x2="596.344439" y2="335.169479" stroke="black" stroke-width="6.48"/>
<line x1="472.792439" y1="221.121479" x2="472.792439" y2="335.169479" stroke="black" stroke-width="6.48"/>
<line x1="615.352439" y1="228.249479" x2="702.472439" y2="228.249479" stroke="black" stroke-width="6.48"/>
<line x1="615.352439" y1="248.049479" x2="702.472439" y2="248.049479" stroke="black" stroke-width="6.48"/>
<line x1="616.144439" y1="268.641479" x2="702.472439" y2="268.641479" stroke="black" stroke-width="6.48"/>
<line x1="616.144439" y1="288.441479" x2="702.472439" y2="288.441479" stroke="black" stroke-width="6.48"/>
<line x1="615.352439" y1="308.241479" x2="702.472439" y2="308.241479" stroke="black" stroke-width="6.48"/>
<line x1="615.352439" y1="328.041479" x2="702.472439" y2="328.041479" stroke="black" stroke-width="6.48"/>
<line x1="520.312439" y1="334.377479" x2="520.312439" y2="320.913479" stroke="black" stroke-width="6.48"/>
<line x1="520.312439" y1="320.913479" x2="550.408439" y2="320.913479" stroke="black" stroke-width="6.48"/>
<line x1="550.408439" y1="320.913479" x2="550.408439" y2="333.585479" stroke="black" stroke-width="6.48"/>
<line x1="723.064439" y1="221.121479" x2="846.616439" y2="221.121479" stroke="black" stroke-width="6.48"/>
<line x1="846.616439" y1="221.121479" x2="846.616439" y2="335.169479" stroke="black" stroke-width="6.48"/>
<line x1="723.064439" y1="335.169479" x2="846.616439" y2="335.169479" stroke="black" stroke-width="6.48"/>
<line x1="723.064439" y1="221.121479" x2="723.064439" y2="335.169479" stroke="black" stroke-width="6.48"/>
<line x1="770.584439" y1="335.169479" x2="770.584439" y2="321.705479" stroke="black" stroke-width="6.48"/>
<line x1="770.584439" y1="321.705479" x2="800.680439" y2="321.705479" stroke="black" stroke-width="6.48"/>
<line x1="800.680439" y1="321.705479" x2="800.680439" y2="334.377479" stroke="black" stroke-width="6.48"/>
<circle cx="582.088439" cy="235.377479" r="7.128000000000001" fill="none" stroke="black" stroke-width="6.48"/>
<circle cx="832.360439" cy="236.169479" r="7.128000000000001" fill="none" stroke="black" stroke-width="6.48"/>
<line x1="6295.311608" y1="2279.971944" x2="6305.875924" y2="2308.997171" stroke="black" stroke-width="6.48"/>
<line x1="6305.875924" y1="2308.997171" x2="6502.800917" y2="2237.322334" stroke="black" stroke-width="6.48"/>
<line x1="6502.800917" y1="2237.322334" x2="6492.236598" y2="2208.29711" stroke="black" stroke-width="6.48"/>
<line x1="6492.236598" y1="2208.29711" x2="6295.311608" y2="2279.971944" stroke="black" stroke-width="6.48"/>
<line x1="6365.036106" y1="2471.538434" x2="6375.600425" y2="2500.563658" stroke="black" stroke-width="6.48"/>
<line x1="6375.600425" y1="2500.563658" x2="6572.525414" y2="2428.888824" stroke="black" stroke-width="6.48"/>
<line x1="6572.525414" y1="2428.888824" x2="6561.961099" y2="2399.863601" stroke="black" stroke-width="6.48"/>
<line x1="6561.961099" y1="2399.863601" x2="6365.036106" y2="2471.538434" stroke="black" stroke-width="6.48"/>
<line x1="6305.713398" y1="2308.550627" x2="6365.036106" y2="2471.538434" stroke="black" stroke-width="6.48"/>
<line x1="6501.582778" y1="2236.754308" x2="6535.244149" y2="2252.821615" stroke="black" stroke-width="6.48"/>
<line x1="6576.688782" y1="2366.689813" x2="6561.230544" y2="2400.635196" stroke="black" stroke-width="6.48"/>
<line x1="6534.594036" y1="2251.03545" x2="6577.338895" y2="2368.475978" stroke="black" stroke-width="6.48"/>
<line x1="6347.850869" y1="2293.719541" x2="6407.173577" y2="2456.707349" stroke="black" stroke-width="6.48"/>
<line x1="2222.881031" y1="2267.008024" x2="2253.599824" y2="2270.236705" stroke="black" stroke-width="6.48"/>
<line x1="2253.599824" y1="2270.236705" x2="2275.505194" y2="2061.82152" stroke="black" stroke-width="6.48"/>
<line x1="2275.505194" y1="2061.82152" x2="2244.786401" y2="2058.592838" stroke="black" stroke-width="6.48"/>
<line x1="2244.786401" y1="2058.592838" x2="2222.881031" y2="2267.008024" stroke="black" stroke-width="6.48"/>
<line x1="2425.625057" y1="2288.317331" x2="2456.343846" y2="2291.546012" stroke="black" stroke-width="6.48"/>
<line x1="2456.343846" y1="2291.546012" x2="2478.249216" y2="2083.130827" stroke="black" stroke-width="6.48"/>
<line x1="2478.249216" y1="2083.130827" x2="2447.530427" y2="2079.902146" stroke="black" stroke-width="6.48"/>
<line x1="2447.530427" y1="2079.902146" x2="2425.625057" y2="2288.317331" stroke="black" stroke-width="6.48"/>
<line x1="2253.127226" y1="2270.187032" x2="2425.625057" y2="2288.317331" stroke="black" stroke-width="6.48"/>
<line x1="2274.460657" y1="2062.667369" x2="2303.65804" y2="2039.456182" stroke="black" stroke-width="6.48"/>
<line x1="2424.170221" y1="2052.122551" x2="2447.903678" y2="2080.897009" stroke="black" stroke-width="6.48"/>
<line x1="2301.767651" y1="2039.257494" x2="2426.060606" y2="2052.321239" stroke="black" stroke-width="6.48"/>
<line x1="2258.268995" y1="2225.812608" x2="2430.766825" y2="2243.942903" stroke="black" stroke-width="6.48"/>
<line x1="2966.839693" y1="2026.432688" x2="2895.634548" y2="2202.671826" stroke="black" stroke-width="6.48"/>
<line x1="2895.634548" y1="2202.671826" x2="3325.658044" y2="2376.412376" stroke="black" stroke-width="6.48"/>
<line x1="3325.658044" y1="2376.412376" x2="3396.863189" y2="2200.173239" stroke="black" stroke-width="6.48"/>
<line x1="3396.863189" y1="2200.173239" x2="3374.833298" y2="2191.272595" stroke="black" stroke-width="6.48"/>
<line x1="3374.833298" y1="2191.272595" x2="3312.172771" y2="2346.36304" stroke="black" stroke-width="6.48"/>
<line x1="3312.172771" y1="2346.36304" x2="2927.090254" y2="2190.779798" stroke="black" stroke-width="6.48"/>
<line x1="2927.090254" y1="2190.779798" x2="2989.750781" y2="2035.689358" stroke="black" stroke-width="6.48"/>
<line x1="2989.750781" y1="2035.689358" x2="2966.839693" y2="2026.432688" stroke="black" stroke-width="6.48"/>
<line x1="2987.614627" y1="2040.97653" x2="3372.697145" y2="2196.559771" stroke="black" stroke-width="6.48"/>
<line x1="3180.071311" y1="2117.708942" x2="3119.546941" y2="2267.512211" stroke="black" stroke-width="6.48"/>
</g>
</svg>
