<?xml version="1.0"?>
<svg xmlns:xlink="http://www.w3.org/1999/xlink" width="6775.2" height="2858.4">
<image x="0" y="0" width="6775.2" height="2858.4" xlink:href="groundfilled-01.png"/>
<g style="stroke-linecap:round">
<line x1="1285.950406" y1="795.178109" x2="1311.346069" y2="795.178109" stroke="black" stroke-width="6.48"/>
<line x1="1311.346069" y1="795.178109" x2="1311.346069" y2="745.625592" stroke="black" stroke-width="6.48"/>
<line x1="1311.346069" y1="745.625592" x2="1285.950406" y2="745.625592" stroke="black" stroke-width="6.48"/>
<line x1="1285.950406" y1="745.625592" x2="1285.950406" y2="795.178109" stroke="black" stroke-width="6.48"/>
<line x1="1559.728062" y1="745.625592" x2="1559.728062" y2="498.48241" stroke="black" stroke-width="6.48"/>
<line x1="1560.347471" y1="796.416923" x2="1585.743134" y2="796.416923" stroke="black" stroke-width="6.48"/>
<line x1="1585.743134" y1="796.416923" x2="1585.743134" y2="746.864406" stroke="black" stroke-width="6.48"/>
<line x1="1585.743134" y1="746.864406" x2="1560.347471" y2="746.864406" stroke="black" stroke-width="6.48"/>
<line x1="1560.347471" y1="746.864406" x2="1560.347471" y2="796.416923" stroke="black" stroke-width="6.48"/>
<path d="m 1311.346069,747.483811 a 248.38199299999997,248.38199299999997 0 0 1 248.38199299999997,-248.38199299999997" fill="none" stroke="black" stroke-width="6.48"/>
<line x1="330.523178" y1="771.328966" x2="330.523178" y2="366.748985" stroke="black" stroke-width="6.48"/>
<line x1="330.523178" y1="366.748985" x2="258.15928" y2="366.748985" stroke="black" stroke-width="6.48"/>
<line x1="258.15928" y1="366.748985" x2="258.15928" y2="771.328966" stroke="black" stroke-width="6.48"/>
<line x1="258.15928" y1="771.328966" x2="330.523178" y2="771.328966" stroke="black" stroke-width="6.48"/>
<line x1="330.523178" y1="752.415674" x2="355.19269" y2="752.415674" stroke="black" stroke-width="6.48"/>
<line x1="355.19269" y1="752.415674" x2="355.19269" y2="386.484595" stroke="black" stroke-width="6.48"/>
<line x1="330.523178" y1="386.484595" x2="355.19269" y2="386.484595" stroke="black" stroke-width="6.48"/>
<line x1="3901.945176" y1="1169.331426" x2="3901.945176" y2="1428.837066" stroke="black" stroke-width="6.48"/>
<line x1="3901.945176" y1="1428.837066" x2="3941.9501" y2="1428.837066" stroke="black" stroke-width="6.48"/>
<line x1="3941.9501" y1="1428.837066" x2="3941.9501" y2="1169.331426" stroke="black" stroke-width="6.48"/>
<line x1="3941.9501" y1="1169.331426" x2="3901.945176" y2="1169.331426" stroke="black" stroke-width="6.48"/>
<line x1="3941.423719" y1="1193.544936" x2="3902.471557" y2="1193.544936" stroke="black" stroke-width="6.48"/>
<line x1="3941.423719" y1="1404.097178" x2="3900.892414" y2="1404.097178" stroke="black" stroke-width="6.48"/>
<line x1="3923.000399" y1="1193.018555" x2="3923.000399" y2="1403.570797" stroke="black" stroke-width="6.48"/>
<line x1="323.923298" y1="1882.957399" x2="323.923298" y2="1457.423957" stroke="black" stroke-width="6.48"/>
<line x1="323.923298" y1="1457.423957" x2="258.323825" y2="1457.423957" stroke="black" stroke-width="6.48"/>
<line x1="258.323825" y1="1457.423957" x2="258.323825" y2="1882.957399" stroke="black" stroke-width="6.48"/>
<line x1="258.323825" y1="1882.957399" x2="323.923298" y2="1882.957399" stroke="black" stroke-width="6.48"/>
<line x1="259.186975" y1="1843.252456" x2="323.060148" y2="1843.252456" stroke="black" stroke-width="6.48"/>
<line x1="259.186975" y1="1497.992054" x2="325.649603" y2="1497.992054" stroke="black" stroke-width="6.48"/>
<line x1="289.397261" y1="1844.115606" x2="289.397261" y2="1498.855205" stroke="black" stroke-width="6.48"/>
<line x1="2747.905531" y1="904.670665" x2="2721.68303" y2="904.670665" stroke="black" stroke-width="6.48"/>
<line x1="2721.68303" y1="904.670665" x2="2721.68303" y2="955.836522" stroke="black" stroke-width="6.48"/>
<line x1="2721.68303" y1="955.836522" x2="2747.905531" y2="955.836522" stroke="black" stroke-width="6.48"/>
<line x1="2747.905531" y1="955.836522" x2="2747.905531" y2="904.670665" stroke="black" stroke-width="6.48"/>
<line x1="2465.214181" y1="955.836522" x2="2465.214181" y2="1211.026223" stroke="black" stroke-width="6.48"/>
<line x1="2464.574609" y1="903.39152" x2="2438.352108" y2="903.39152" stroke="black" stroke-width="6.48"/>
<line x1="2438.352108" y1="903.39152" x2="2438.352108" y2="954.557374" stroke="black" stroke-width="6.48"/>
<line x1="2438.352108" y1="954.557374" x2="2464.574609" y2="954.557374" stroke="black" stroke-width="6.48"/>
<line x1="2464.574609" y1="954.557374" x2="2464.574609" y2="903.39152" stroke="black" stroke-width="6.48"/>
<path d="m 2721.68303,953.917801 a 256.4688490000001,256.4688490000001 0 0 1 -256.4688490000003,256.46884899999986" fill="none" stroke="black" stroke-width="6.48"/>
<line x1="2420.532389" y1="1427.858834" x2="2395.136725" y2="1427.858834" stroke="black" stroke-width="6.48"/>
<line x1="2395.136725" y1="1427.858834" x2="2395.136725" y2="1477.411351" stroke="black" stroke-width="6.48"/>
<line x1="2395.136725" y1="1477.411351" x2="2420.532389" y2="1477.411351" stroke="black" stroke-width="6.48"/>
<line x1="2420.532389" y1="1477.411351" x2="2420.532389" y2="1427.858834" stroke="black" stroke-width="6.48"/>
<line x1="2146.754732" y1="1477.411351" x2="2146.754732" y2="1724.554534" stroke="black" stroke-width="6.48"/>
<line x1="2146.135324" y1="1426.62002" x2="2120.73966" y2="1426.62002" stroke="black" stroke-width="6.48"/>
<line x1="2120.73966" y1="1426.62002" x2="2120.73966" y2="1476.172537" stroke="black" stroke-width="6.48"/>
<line x1="2120.73966" y1="1476.172537" x2="2146.135324" y2="1476.172537" stroke="black" stroke-width="6.48"/>
<line x1="2146.135324" y1="1476.172537" x2="2146.135324" y2="1426.62002" stroke="black" stroke-width="6.48"/>
<path d="m 2395.136725,1475.553132 a 248.38199299999997,248.38199299999997 0 0 1 -248.38199299999997,248.38199299999997" fill="none" stroke="black" stroke-width="6.48"/>
<line x1="870.218539" y1="541.339351" x2="1102.116139" y2="541.339351" stroke="black" stroke-width="6.48"/>
<line x1="1102.116139" y1="541.339351" x2="1102.116139" y2="773.712151" stroke="black" stroke-width="6.48"/>
<line x1="1102.116139" y1="773.712151" x2="870.218539" y2="773.712151" stroke="black" stroke-width="6.48"/>
<line x1="870.218539" y1="773.712151" x2="870.218539" y2="541.339351" stroke="black" stroke-width="6.48"/>
<line x1="869.743339" y1="540.864151" x2="1102.116139" y2="773.712151" stroke="black" stroke-width="6.48"/>
<line x1="870.218539" y1="773.236951" x2="1101.640939" y2="541.339351" stroke="black" stroke-width="6.48"/>
<line x1="2032.924367" y1="1710.609307" x2="2032.924367" y2="1501.521307" stroke="black" stroke-width="6.48"/>
<line x1="2032.924367" y1="1501.521307" x2="1801.026767" y2="1501.521307" stroke="black" stroke-width="6.48"/>
<line x1="1801.026767" y1="1501.521307" x2="1801.026767" y2="1710.609307" stroke="black" stroke-width="6.48"/>
<line x1="1801.026767" y1="1710.609307" x2="2032.924367" y2="1710.609307" stroke="black" stroke-width="6.48"/>
<line x1="2000.610767" y1="1710.609307" x2="2000.610767" y2="1501.521307" stroke="black" stroke-width="6.48"/>
<line x1="1485.415969" y1="209.267824" x2="1707.693134" y2="209.267824" stroke="black" stroke-width="6.48"/>
<line x1="1707.693134" y1="209.267824" x2="1707.693134" y2="432.000475" stroke="black" stroke-width="6.48"/>
<line x1="1707.693134" y1="432.000475" x2="1485.415969" y2="432.000475" stroke="black" stroke-width="6.48"/>
<line x1="1485.415969" y1="432.000475" x2="1485.415969" y2="209.267824" stroke="black" stroke-width="6.48"/>
<line x1="1484.960483" y1="208.812337" x2="1707.693134" y2="432.000475" stroke="black" stroke-width="6.48"/>
<line x1="1485.415969" y1="431.544989" x2="1707.237648" y2="209.267824" stroke="black" stroke-width="6.48"/>
<line x1="2761.020558" y1="2194.614338" x2="2761.020558" y2="1803.366338" stroke="black" stroke-width="6.48"/>
<line x1="2761.020558" y1="1803.366338" x2="2586.780558" y2="1803.366338" stroke="black" stroke-width="6.48"/>
<line x1="2586.780558" y1="1803.366338" x2="2586.780558" y2="2194.614338" stroke="black" stroke-width="6.48"/>
<line x1="2586.780558" y1="2194.614338" x2="2761.020558" y2="2194.614338" stroke="black" stroke-width="6.48"/>
<line x1="2613.708558" y1="1878.606338" x2="2613.708558" y2="2162.934338" stroke="black" stroke-width="6.48"/>
<line x1="2613.708558" y1="2162.934338" x2="2731.716558" y2="2162.934338" stroke="black" stroke-width="6.48"/>
<line x1="2731.716558" y1="2162.934338" x2="2731.716558" y2="1873.062338" stroke="black" stroke-width="6.48"/>
<path d="m 2613.453134,1879.416911 a 63.3599990854681,63.3599990854681 0 0 1 119.3743300000001,-4.293814000000111" fill="none" stroke="black" stroke-width="6.48"/>
<line x1="2105.446183" y1="1860.859872" x2="2105.446183" y2="2044.603872" stroke="black" stroke-width="6.48"/>
<line x1="2105.446183" y1="2044.603872" x2="2056.342183" y2="2044.603872" stroke="black" stroke-width="6.48"/>
<line x1="2056.342183" y1="1860.859872" x2="2056.342183" y2="2044.603872" stroke="black" stroke-width="6.48"/>
<line x1="2105.446183" y1="1860.859872" x2="2056.342183" y2="1860.859872" stroke="black" stroke-width="6.48"/>
<line x1="2133.166183" y1="1902.439872" x2="2105.446183" y2="1902.439872" stroke="black" stroke-width="6.48"/>
<line x1="2105.446183" y1="2001.439872" x2="2134.750183" y2="2001.439872" stroke="black" stroke-width="6.48"/>
<circle cx="2178.310183" cy="1951.147872" r="66.52800000000002" fill="none" stroke="black" stroke-width="6.48"/>
<circle cx="2178.310183" cy="1951.147872" r="57.02400000000001" fill="none" stroke="black" stroke-width="6.48"/>
<line x1="663.724343" y1="209.373822" x2="934.271543" y2="209.373822" stroke="black" stroke-width="6.48"/>
<line x1="934.271543" y1="209.373822" x2="934.271543" y2="341.321022" stroke="black" stroke-width="6.48"/>
<line x1="663.724343" y1="341.321022" x2="934.271543" y2="341.321022" stroke="black" stroke-width="6.48"/>
<line x1="663.724343" y1="209.373822" x2="663.724343" y2="341.321022" stroke="black" stroke-width="6.48"/>
<line x1="670.377143" y1="216.026622" x2="808.422743" y2="216.026622" stroke="black" stroke-width="6.48"/>
<line x1="808.422743" y1="216.026622" x2="808.422743" y2="334.113822" stroke="black" stroke-width="6.48"/>
<line x1="670.377143" y1="334.113822" x2="808.422743" y2="334.113822" stroke="black" stroke-width="6.48"/>
<line x1="670.377143" y1="216.026622" x2="670.377143" y2="334.113822" stroke="black" stroke-width="6.48"/>
<line x1="822.837143" y1="223.788222" x2="919.857143" y2="223.788222" stroke="black" stroke-width="6.48"/>
<line x1="822.837143" y1="244.301022" x2="919.857143" y2="244.301022" stroke="black" stroke-width="6.48"/>
<line x1="823.391543" y1="265.368222" x2="920.411543" y2="265.368222" stroke="black" stroke-width="6.48"/>
<line x1="823.391543" y1="285.881022" x2="920.411543" y2="285.881022" stroke="black" stroke-width="6.48"/>
<line x1="822.837143" y1="306.393822" x2="919.857143" y2="306.393822" stroke="black" stroke-width="6.48"/>
<line x1="822.837143" y1="326.906622" x2="919.857143" y2="326.906622" stroke="black" stroke-width="6.48"/>
<line x1="723.045143" y1="334.113822" x2="723.045143" y2="320.253822" stroke="black" stroke-width="6.48"/>
<line x1="723.045143" y1="320.253822" x2="757.417943" y2="320.253822" stroke="black" stroke-width="6.48"/>
<line x1="757.417943" y1="320.253822" x2="757.417943" y2="333.559422" stroke="black" stroke-width="6.48"/>
<circle cx="792.899543" cy="230.995422" r="8.316000000000003" fill="none" stroke="black" stroke-width="6.48"/>
<line x1="1176.801131" y1="1513.20316" x2="1163.091492" y2="1120.610462" stroke="black" stroke-width="6.48"/>
<line x1="1163.091492" y1="1120.610462" x2="978.667906" y2="1127.050679" stroke="black" stroke-width="6.48"/>
<line x1="978.667906" y1="1127.050679" x2="992.377544" y2="1519.643376" stroke="black" stroke-width="6.48"/>
<line x1="992.377544" y1="1519.643376" x2="1176.801131" y2="1513.20316" stroke="black" stroke-width="6.48"/>
<line x1="986.821826" y1="1360.548349" x2="906.087038" y2="1363.367671" stroke="black" stroke-width="6.48"/>
<line x1="906.087038" y1="1363.367671" x2="908.823438" y2="1441.72791" stroke="black" stroke-width="6.48"/>
<line x1="908.823438" y1="1441.72791" x2="989.558226" y2="1438.908588" stroke="black" stroke-width="6.48"/>
<line x1="926.209184" y1="1440.328302" x2="923.500422" y2="1362.759581" stroke="black" stroke-width="6.48"/>
<line x1="1255.508114" y1="1429.621412" x2="1252.771715" y2="1351.261174" stroke="black" stroke-width="6.48"/>
<line x1="1252.771715" y1="1351.261174" x2="1171.245409" y2="1354.108136" stroke="black" stroke-width="6.48"/>
<line x1="1173.981809" y1="1432.468372" x2="1255.508114" y2="1429.621412" stroke="black" stroke-width="6.48"/>
<line x1="1238.067094" y1="1429.437982" x2="1235.358331" y2="1351.869264" stroke="black" stroke-width="6.48"/>
<line x1="981.542509" y1="1209.368502" x2="900.807721" y2="1212.187824" stroke="black" stroke-width="6.48"/>
<line x1="900.807721" y1="1212.187824" x2="903.544121" y2="1290.548059" stroke="black" stroke-width="6.48"/>
<line x1="903.544121" y1="1290.548059" x2="984.278909" y2="1287.728737" stroke="black" stroke-width="6.48"/>
<line x1="920.957508" y1="1289.939969" x2="918.221108" y2="1211.579734" stroke="black" stroke-width="6.48"/>
<line x1="1250.228797" y1="1278.441562" x2="1247.492398" y2="1200.081326" stroke="black" stroke-width="6.48"/>
<line x1="1247.492398" y1="1200.081326" x2="1165.966092" y2="1202.928286" stroke="black" stroke-width="6.48"/>
<line x1="1168.702492" y1="1281.288524" x2="1250.228797" y2="1278.441562" stroke="black" stroke-width="6.48"/>
<line x1="1232.815414" y1="1279.049652" x2="1230.079014" y2="1200.689413" stroke="black" stroke-width="6.48"/>
<line x1="2044.889399" y1="955.822399" x2="2267.166564" y2="955.822399" stroke="black" stroke-width="6.48"/>
<line x1="2267.166564" y1="955.822399" x2="2267.166564" y2="1178.555051" stroke="black" stroke-width="6.48"/>
<line x1="2267.166564" y1="1178.555051" x2="2044.889399" y2="1178.555051" stroke="black" stroke-width="6.48"/>
<line x1="2044.889399" y1="1178.555051" x2="2044.889399" y2="955.822399" stroke="black" stroke-width="6.48"/>
<line x1="2044.433912" y1="955.366913" x2="2267.166564" y2="1178.555051" stroke="black" stroke-width="6.48"/>
<line x1="2044.889399" y1="1178.099564" x2="2266.711078" y2="955.822399" stroke="black" stroke-width="6.48"/>
<line x1="333.766206" y1="1375.361078" x2="333.766206" y2="949.854546" stroke="black" stroke-width="6.48"/>
<line x1="333.766206" y1="949.854546" x2="257.659348" y2="949.854546" stroke="black" stroke-width="6.48"/>
<line x1="257.659348" y1="949.854546" x2="257.659348" y2="1375.361078" stroke="black" stroke-width="6.48"/>
<line x1="257.659348" y1="1375.361078" x2="333.766206" y2="1375.361078" stroke="black" stroke-width="6.48"/>
<line x1="333.766206" y1="1355.469512" x2="359.711726" y2="1355.469512" stroke="black" stroke-width="6.48"/>
<line x1="359.711726" y1="1355.469512" x2="359.711726" y2="970.610962" stroke="black" stroke-width="6.48"/>
<line x1="333.766206" y1="970.610962" x2="359.711726" y2="970.610962" stroke="black" stroke-width="6.48"/>
<line x1="3874.406537" y1="1514.726719" x2="3874.406537" y2="1940.260162" stroke="black" stroke-width="6.48"/>
<line x1="3874.406537" y1="1940.260162" x2="3940.00601" y2="1940.260162" stroke="black" stroke-width="6.48"/>
<line x1="3940.00601" y1="1940.260162" x2="3940.00601" y2="1514.726719" stroke="black" stroke-width="6.48"/>
<line x1="3940.00601" y1="1514.726719" x2="3874.406537" y2="1514.726719" stroke="black" stroke-width="6.48"/>
<line x1="3939.14286" y1="1554.431663" x2="3875.269687" y2="1554.431663" stroke="black" stroke-width="6.48"/>
<line x1="3939.14286" y1="1899.692064" x2="3872.680232" y2="1899.692064" stroke="black" stroke-width="6.48"/>
<line x1="3908.932574" y1="1553.568512" x2="3908.932574" y2="1898.828914" stroke="black" stroke-width="6.48"/>
<line x1="5251.559681" y1="1751.059732" x2="5329.209406" y2="1857.935405" stroke="black" stroke-width="6.48"/>
<line x1="5329.209406" y1="1857.935405" x2="5317.67606" y2="1866.314873" stroke="black" stroke-width="6.48"/>
<line x1="5240.026336" y1="1759.439196" x2="5317.67606" y2="1866.314873" stroke="black" stroke-width="6.48"/>
<line x1="5251.559681" y1="1751.059732" x2="5240.026336" y2="1759.439196" stroke="black" stroke-width="6.48"/>
<line x1="5247.84717" y1="1770.203653" x2="5221.356545" y2="1787.1007" stroke="black" stroke-width="6.48"/>
<line x1="5309.855222" y1="1855.550416" x2="5284.830233" y2="1876.081651" stroke="black" stroke-width="6.48"/>
<line x1="4878.648155" y1="2021.995814" x2="4956.297876" y2="2128.871491" stroke="black" stroke-width="6.48"/>
<line x1="4956.297876" y1="2128.871491" x2="4967.062333" y2="2121.050657" stroke="black" stroke-width="6.48"/>
<line x1="4889.412608" y1="2014.17498" x2="4967.062333" y2="2121.050657" stroke="black" stroke-width="6.48"/>
<line x1="4878.648155" y1="2021.995814" x2="4889.412608" y2="2014.17498" stroke="black" stroke-width="6.48"/>
<line x1="4898.212592" y1="2023.053286" x2="4922.468694" y2="2003.08068" stroke="black" stroke-width="6.48"/>
<line x1="4960.220645" y1="2108.400048" x2="4988.038788" y2="2091.71326" stroke="black" stroke-width="6.48"/>
<line x1="5292.276026" y1="2086.827624" x2="5283.896558" y2="2075.294279" stroke="black" stroke-width="6.48"/>
<line x1="5283.896558" y1="2075.294279" x2="5177.020889" y2="2152.944004" stroke="black" stroke-width="6.48"/>
<line x1="5185.40035" y1="2164.477349" x2="5177.020889" y2="2152.944004" stroke="black" stroke-width="6.48"/>
<line x1="5292.276026" y1="2086.827624" x2="5185.40035" y2="2164.477349" stroke="black" stroke-width="6.48"/>
<line x1="5188.554234" y1="2144.564536" x2="5167.254107" y2="2120.09818" stroke="black" stroke-width="6.48"/>
<line x1="5273.132105" y1="2083.115113" x2="5255.676428" y2="2055.8556" stroke="black" stroke-width="6.48"/>
<line x1="5022.667465" y1="1714.126356" x2="5031.04693" y2="1725.659701" stroke="black" stroke-width="6.48"/>
<line x1="5031.04693" y1="1725.659701" x2="4924.171256" y2="1803.309422" stroke="black" stroke-width="6.48"/>
<line x1="4915.791788" y1="1791.776077" x2="4924.171256" y2="1803.309422" stroke="black" stroke-width="6.48"/>
<line x1="5022.667465" y1="1714.126356" x2="4915.791788" y2="1791.776077" stroke="black" stroke-width="6.48"/>
<line x1="4935.704602" y1="1794.929958" x2="4952.39139" y2="1822.748101" stroke="black" stroke-width="6.48"/>
<line x1="5020.282472" y1="1733.480536" x2="5040.813708" y2="1758.505525" stroke="black" stroke-width="6.48"/>
<circle cx="5104.033906" cy="1939.301852" r="191.98080000000002" fill="none" stroke="black" stroke-width="6.48"/>
<line x1="3271.617018" y1="1074.868826" x2="3480.982222" y2="1074.868826" stroke="black" stroke-width="6.48"/>
<line x1="3480.982222" y1="1074.868826" x2="3480.982222" y2="743.654423" stroke="black" stroke-width="6.48"/>
<line x1="3480.982222" y1="743.654423" x2="3271.617018" y2="743.654423" stroke="black" stroke-width="6.48"/>
<line x1="3271.617018" y1="743.654423" x2="3271.617018" y2="1074.868826" stroke="black" stroke-width="6.48"/>
<line x1="3270.943818" y1="802.896023" x2="3481.655418" y2="802.896023" stroke="black" stroke-width="6.48"/>
<line x1="3481.655418" y1="802.896023" x2="3272.290218" y2="852.712826" stroke="black" stroke-width="6.48"/>
<line x1="3272.290218" y1="852.712826" x2="3303.930622" y2="899.163626" stroke="black" stroke-width="6.48"/>
<line x1="3303.930622" y1="899.163626" x2="3481.655418" y2="802.222826" stroke="black" stroke-width="6.48"/>
<line x1="3455.585399" y1="1202.949511" x2="3677.862564" y2="1202.949511" stroke="black" stroke-width="6.48"/>
<line x1="3677.862564" y1="1202.949511" x2="3677.862564" y2="1425.682163" stroke="black" stroke-width="6.48"/>
<line x1="3677.862564" y1="1425.682163" x2="3455.585399" y2="1425.682163" stroke="black" stroke-width="6.48"/>
<line x1="3455.585399" y1="1425.682163" x2="3455.585399" y2="1202.949511" stroke="black" stroke-width="6.48"/>
<line x1="3455.129912" y1="1202.494025" x2="3677.862564" y2="1425.682163" stroke="black" stroke-width="6.48"/>
<line x1="3455.585399" y1="1425.226676" x2="3677.407078" y2="1202.949511" stroke="black" stroke-width="6.48"/>
<line x1="2804.16708" y1="1127.69402" x2="2804.16708" y2="1153.148746" stroke="black" stroke-width="6.48"/>
<line x1="2804.16708" y1="1153.148746" x2="2853.834836" y2="1153.148746" stroke="black" stroke-width="6.48"/>
<line x1="2853.834836" y1="1153.148746" x2="2853.834836" y2="1127.69402" stroke="black" stroke-width="6.48"/>
<line x1="2853.834836" y1="1127.69402" x2="2804.16708" y2="1127.69402" stroke="black" stroke-width="6.48"/>
<line x1="2853.834836" y1="1402.108373" x2="3101.55277" y2="1402.108373" stroke="black" stroke-width="6.48"/>
<line x1="2802.925386" y1="1402.729218" x2="2802.925386" y2="1428.183943" stroke="black" stroke-width="6.48"/>
<line x1="2802.925386" y1="1428.183943" x2="2852.593142" y2="1428.183943" stroke="black" stroke-width="6.48"/>
<line x1="2852.593142" y1="1428.183943" x2="2852.593142" y2="1402.729218" stroke="black" stroke-width="6.48"/>
<line x1="2852.593142" y1="1402.729218" x2="2802.925386" y2="1402.729218" stroke="black" stroke-width="6.48"/>
<path d="m 2851.972294,1153.148746 a 248.95962699999984,248.95962699999984 0 0 1 248.95962699999973,248.95962699999995" fill="none" stroke="black" stroke-width="6.48"/>
<line x1="2970.258764" y1="2028.08259" x2="2899.053619" y2="2204.321728" stroke="black" stroke-width="6.48"/>
<line x1="2899.053619" y1="2204.321728" x2="3329.077115" y2="2378.062278" stroke="black" stroke-width="6.48"/>
<line x1="3329.077115" y1="2378.062278" x2="3400.28226" y2="2201.82314" stroke="black" stroke-width="6.48"/>
<line x1="3400.28226" y1="2201.82314" x2="3378.25237" y2="2192.922497" stroke="black" stroke-width="6.48"/>
<line x1="3378.25237" y1="2192.922497" x2="3315.591842" y2="2348.012941" stroke="black" stroke-width="6.48"/>
<line x1="3315.591842" y1="2348.012941" x2="2930.509325" y2="2192.4297" stroke="black" stroke-width="6.48"/>
<line x1="2930.509325" y1="2192.4297" x2="2993.169852" y2="2037.339259" stroke="black" stroke-width="6.48"/>
<line x1="2993.169852" y1="2037.339259" x2="2970.258764" y2="2028.08259" stroke="black" stroke-width="6.48"/>
<line x1="2991.033698" y1="2042.626432" x2="3376.116216" y2="2198.209673" stroke="black" stroke-width="6.48"/>
<line x1="3183.490382" y1="2119.358844" x2="3122.966012" y2="2269.162112" stroke="black" stroke-width="6.48"/>
<line x1="3707.571798" y1="1838.487125" x2="3510.91148" y2="1961.374133" stroke="black" stroke-width="6.48"/>
<line x1="3510.91148" y1="1961.374133" x2="3387.772656" y2="1764.310817" stroke="black" stroke-width="6.48"/>
<line x1="3387.772656" y1="1764.310817" x2="3584.432977" y2="1641.423812" stroke="black" stroke-width="6.48"/>
<line x1="3584.432977" y1="1641.423812" x2="3707.571798" y2="1838.487125" stroke="black" stroke-width="6.48"/>
<line x1="3708.226609" y1="1838.6383" x2="3387.772656" y2="1764.310817" stroke="black" stroke-width="6.48"/>
<line x1="3584.684794" y1="1641.826807" x2="3511.314472" y2="1961.122309" stroke="black" stroke-width="6.48"/>
<line x1="3100.358268" y1="1589.315879" x2="3083.535454" y2="1615.220741" stroke="black" stroke-width="6.48"/>
<line x1="3083.535454" y1="1615.220741" x2="3259.289945" y2="1729.357034" stroke="black" stroke-width="6.48"/>
<line x1="3259.289945" y1="1729.357034" x2="3276.112752" y2="1703.45218" stroke="black" stroke-width="6.48"/>
<line x1="3276.112752" y1="1703.45218" x2="3100.358268" y2="1589.315879" stroke="black" stroke-width="6.48"/>
<line x1="2989.327716" y1="1760.287936" x2="2972.504909" y2="1786.19279" stroke="black" stroke-width="6.48"/>
<line x1="2972.504909" y1="1786.19279" x2="3148.259393" y2="1900.329088" stroke="black" stroke-width="6.48"/>
<line x1="3148.259393" y1="1900.329088" x2="3165.082207" y2="1874.424233" stroke="black" stroke-width="6.48"/>
<line x1="3165.082207" y1="1874.424233" x2="2989.327716" y2="1760.287936" stroke="black" stroke-width="6.48"/>
<line x1="3083.794268" y1="1614.822199" x2="2989.327716" y2="1760.287936" stroke="black" stroke-width="6.48"/>
<line x1="3259.010495" y1="1728.04234" x2="3266.436492" y2="1764.595055" stroke="black" stroke-width="6.48"/>
<line x1="3200.439312" y1="1866.221798" x2="3164.02632" y2="1874.305145" stroke="black" stroke-width="6.48"/>
<line x1="3267.47174" y1="1763.00091" x2="3199.40406" y2="1867.815943" stroke="black" stroke-width="6.48"/>
<line x1="3120.997864" y1="1639.549109" x2="3026.531315" y2="1785.014842" stroke="black" stroke-width="6.48"/>
<line x1="5672.777688" y1="1490.197817" x2="5679.199663" y2="1520.410838" stroke="black" stroke-width="6.48"/>
<line x1="5679.199663" y1="1520.410838" x2="5884.183404" y2="1476.840197" stroke="black" stroke-width="6.48"/>
<line x1="5884.183404" y1="1476.840197" x2="5877.761429" y2="1446.627175" stroke="black" stroke-width="6.48"/>
<line x1="5877.761429" y1="1446.627175" x2="5672.777688" y2="1490.197817" stroke="black" stroke-width="6.48"/>
<line x1="5715.162734" y1="1689.603768" x2="5721.58471" y2="1719.816793" stroke="black" stroke-width="6.48"/>
<line x1="5721.58471" y1="1719.816793" x2="5926.56845" y2="1676.246152" stroke="black" stroke-width="6.48"/>
<line x1="5926.56845" y1="1676.246152" x2="5920.146475" y2="1646.03313" stroke="black" stroke-width="6.48"/>
<line x1="5920.146475" y1="1646.03313" x2="5715.162734" y2="1689.603768" stroke="black" stroke-width="6.48"/>
<line x1="5679.100865" y1="1519.946021" x2="5715.162734" y2="1689.603768" stroke="black" stroke-width="6.48"/>
<line x1="5883.056176" y1="1476.108169" x2="5914.153822" y2="1496.703866" stroke="black" stroke-width="6.48"/>
<line x1="5939.34773" y1="1615.231883" x2="5919.315642" y2="1646.695544" stroke="black" stroke-width="6.48"/>
<line x1="5913.758621" y1="1494.844607" x2="5939.742928" y2="1617.091146" stroke="black" stroke-width="6.48"/>
<line x1="5722.892345" y1="1511.123674" x2="5758.954211" y2="1680.781417" stroke="black" stroke-width="6.48"/>
<line x1="6037.334431" y1="1892.353504" x2="6037.334431" y2="1923.241504" stroke="black" stroke-width="6.48"/>
<line x1="6037.334431" y1="1923.241504" x2="6246.897631" y2="1923.241504" stroke="black" stroke-width="6.48"/>
<line x1="6246.897631" y1="1923.241504" x2="6246.897631" y2="1892.353504" stroke="black" stroke-width="6.48"/>
<line x1="6246.897631" y1="1892.353504" x2="6037.334431" y2="1892.353504" stroke="black" stroke-width="6.48"/>
<line x1="6037.334431" y1="2096.214304" x2="6037.334431" y2="2127.102304" stroke="black" stroke-width="6.48"/>
<line x1="6037.334431" y1="2127.102304" x2="6246.897631" y2="2127.102304" stroke="black" stroke-width="6.48"/>
<line x1="6246.897631" y1="2127.102304" x2="6246.897631" y2="2096.214304" stroke="black" stroke-width="6.48"/>
<line x1="6246.897631" y1="2096.214304" x2="6037.334431" y2="2096.214304" stroke="black" stroke-width="6.48"/>
<line x1="6037.334431" y1="1922.766304" x2="6037.334431" y2="2096.214304" stroke="black" stroke-width="6.48"/>
<line x1="6245.947231" y1="1922.291104" x2="6272.083231" y2="1948.902304" stroke="black" stroke-width="6.48"/>
<line x1="6272.083231" y1="2070.078304" x2="6245.947231" y2="2096.689504" stroke="black" stroke-width="6.48"/>
<line x1="6272.083231" y1="1947.001504" x2="6272.083231" y2="2071.979104" stroke="black" stroke-width="6.48"/>
<line x1="6082.003231" y1="1923.241504" x2="6082.003231" y2="2096.689504" stroke="black" stroke-width="6.48"/>
<line x1="1282.48956" y1="1654.761344" x2="1136.879802" y2="1776.942374" stroke="black" stroke-width="6.48"/>
<line x1="1136.879802" y1="1776.942374" x2="1435.001522" y2="2132.230183" stroke="black" stroke-width="6.48"/>
<line x1="1435.001522" y1="2132.230183" x2="1580.611277" y2="2010.04915" stroke="black" stroke-width="6.48"/>
<line x1="1580.611277" y1="2010.04915" x2="1565.338655" y2="1991.847931" stroke="black" stroke-width="6.48"/>
<line x1="1565.338655" y1="1991.847931" x2="1437.202066" y2="2099.367241" stroke="black" stroke-width="6.48"/>
<line x1="1437.202066" y1="2099.367241" x2="1170.236509" y2="1781.209919" stroke="black" stroke-width="6.48"/>
<line x1="1170.236509" y1="1781.209919" x2="1298.373095" y2="1673.690612" stroke="black" stroke-width="6.48"/>
<line x1="1298.373095" y1="1673.690612" x2="1282.48956" y2="1654.761344" stroke="black" stroke-width="6.48"/>
<line x1="1294.004801" y1="1677.356042" x2="1560.970361" y2="1995.513361" stroke="black" stroke-width="6.48"/>
<line x1="1427.910178" y1="1835.459773" x2="1304.141879" y2="1939.31365" stroke="black" stroke-width="6.48"/>
</g>
</svg>
