<?xml version="1.0"?>
<svg xmlns:xlink="http://www.w3.org/1999/xlink" width="6775.2" height="2858.4">
<image x="0" y="0" width="6775.2" height="2858.4" xlink:href="groundfilled-01.png"/>
<g style="stroke-linecap:round">
<line x1="1285.950406" y1="795.178109" x2="1311.346069" y2="795.178109" stroke="black" stroke-width="6.48"/>
<line x1="1311.346069" y1="795.178109" x2="1311.346069" y2="745.625592" stroke="black" stroke-width="6.48"/>
<line x1="1311.346069" y1="745.625592" x2="1285.950406" y2="745.625592" stroke="black" stroke-width="6.48"/>
<line x1="1285.950406" y1="745.625592" x2="1285.950406" y2="795.178109" stroke="black" stroke-width="6.48"/>
<line x1="1559.728062" y1="745.625592" x2="1559.728062" y2="498.48241" stroke="black" stroke-width="6.48"/>
<line x1="1560.347471" y1="796.416923" x2="1585.743134" y2="796.416923" stroke="black" stroke-width="6.48"/>
<line x1="1585.743134" y1="796.416923" x2="1585.743134" y2="746.864406" stroke="black" stroke-width="6.48"/>
<line x1="1585.743134" y1="746.864406" x2="1560.347471" y2="746.864406" stroke="black" stroke-width="6.48"/>
<line x1="1560.347471" y1="746.864406" x2="1560.347471" y2="796.416923" stroke="black" stroke-width="6.48"/>
<path d="m 1311.346069,747.483811 a 248.38199299999997,248.38199299999997 0 0 1 248.38199299999997,-248.38199299999997" fill="none" stroke="black" stroke-width="6.48"/>
<line x1="320.532556" y1="771.34176" x2="320.532556" y2="366.736194" stroke="black" stroke-width="6.48"/>
<line x1="320.532556" y1="366.736194" x2="258.159283" y2="366.736194" stroke="black" stroke-width="6.48"/>
<line x1="258.159283" y1="366.736194" x2="258.159283" y2="771.34176" stroke="black" stroke-width="6.48"/>
<line x1="258.159283" y1="771.34176" x2="320.532556" y2="771.34176" stroke="black" stroke-width="6.48"/>
<line x1="258.979986" y1="733.589518" x2="319.711856" y2="733.589518" stroke="black" stroke-width="6.48"/>
<line x1="258.979986" y1="405.309139" x2="322.173958" y2="405.309139" stroke="black" stroke-width="6.48"/>
<line x1="287.704519" y1="734.410217" x2="287.704519" y2="406.129838" stroke="black" stroke-width="6.48"/>
<line x1="3901.945176" y1="1169.331426" x2="3901.945176" y2="1428.837066" stroke="black" stroke-width="6.48"/>
<line x1="3901.945176" y1="1428.837066" x2="3941.9501" y2="1428.837066" stroke="black" stroke-width="6.48"/>
<line x1="3941.9501" y1="1428.837066" x2="3941.9501" y2="1169.331426" stroke="black" stroke-width="6.48"/>
<line x1="3941.9501" y1="1169.331426" x2="3901.945176" y2="1169.331426" stroke="black" stroke-width="6.48"/>
<line x1="3941.423719" y1="1193.544936" x2="3902.471557" y2="1193.544936" stroke="black" stroke-width="6.48"/>
<line x1="3941.423719" y1="1404.097178" x2="3900.892414" y2="1404.097178" stroke="black" stroke-width="6.48"/>
<line x1="3923.000399" y1="1193.018555" x2="3923.000399" y2="1403.570797" stroke="black" stroke-width="6.48"/>
<line x1="323.923298" y1="1882.957399" x2="323.923298" y2="1457.423957" stroke="black" stroke-width="6.48"/>
<line x1="323.923298" y1="1457.423957" x2="258.323825" y2="1457.423957" stroke="black" stroke-width="6.48"/>
<line x1="258.323825" y1="1457.423957" x2="258.323825" y2="1882.957399" stroke="black" stroke-width="6.48"/>
<line x1="258.323825" y1="1882.957399" x2="323.923298" y2="1882.957399" stroke="black" stroke-width="6.48"/>
<line x1="259.186975" y1="1843.252456" x2="323.060148" y2="1843.252456" stroke="black" stroke-width="6.48"/>
<line x1="259.186975" y1="1497.992054" x2="325.649603" y2="1497.992054" stroke="black" stroke-width="6.48"/>
<line x1="289.397261" y1="1844.115606" x2="289.397261" y2="1498.855205" stroke="black" stroke-width="6.48"/>
<line x1="2747.905531" y1="904.670665" x2="2721.68303" y2="904.670665" stroke="black" stroke-width="6.48"/>
<line x1="2721.68303" y1="904.670665" x2="2721.68303" y2="955.836522" stroke="black" stroke-width="6.48"/>
<line x1="2721.68303" y1="955.836522" x2="2747.905531" y2="955.836522" stroke="black" stroke-width="6.48"/>
<line x1="2747.905531" y1="955.836522" x2="2747.905531" y2="904.670665" stroke="black" stroke-width="6.48"/>
<line x1="2465.214181" y1="955.836522" x2="2465.214181" y2="1211.026223" stroke="black" stroke-width="6.48"/>
<line x1="2464.574609" y1="903.39152" x2="2438.352108" y2="903.39152" stroke="black" stroke-width="6.48"/>
<line x1="2438.352108" y1="903.39152" x2="2438.352108" y2="954.557374" stroke="black" stroke-width="6.48"/>
<line x1="2438.352108" y1="954.557374" x2="2464.574609" y2="954.557374" stroke="black" stroke-width="6.48"/>
<line x1="2464.574609" y1="954.557374" x2="2464.574609" y2="903.39152" stroke="black" stroke-width="6.48"/>
<path d="m 2721.68303,953.917801 a 256.4688490000001,256.4688490000001 0 0 1 -256.4688490000003,256.46884899999986" fill="none" stroke="black" stroke-width="6.48"/>
<line x1="2420.532389" y1="1427.858834" x2="2395.136725" y2="1427.858834" stroke="black" stroke-width="6.48"/>
<line x1="2395.136725" y1="1427.858834" x2="2395.136725" y2="1477.411351" stroke="black" stroke-width="6.48"/>
<line x1="2395.136725" y1="1477.411351" x2="2420.532389" y2="1477.411351" stroke="black" stroke-width="6.48"/>
<line x1="2420.532389" y1="1477.411351" x2="2420.532389" y2="1427.858834" stroke="black" stroke-width="6.48"/>
<line x1="2146.754732" y1="1477.411351" x2="2146.754732" y2="1724.554534" stroke="black" stroke-width="6.48"/>
<line x1="2146.135324" y1="1426.62002" x2="2120.73966" y2="1426.62002" stroke="black" stroke-width="6.48"/>
<line x1="2120.73966" y1="1426.62002" x2="2120.73966" y2="1476.172537" stroke="black" stroke-width="6.48"/>
<line x1="2120.73966" y1="1476.172537" x2="2146.135324" y2="1476.172537" stroke="black" stroke-width="6.48"/>
<line x1="2146.135324" y1="1476.172537" x2="2146.135324" y2="1426.62002" stroke="black" stroke-width="6.48"/>
<path d="m 2395.136725,1475.553132 a 248.38199299999997,248.38199299999997 0 0 1 -248.38199299999997,248.38199299999997" fill="none" stroke="black" stroke-width="6.48"/>
<line x1="623.597252" y1="541.339351" x2="855.494852" y2="541.339351" stroke="black" stroke-width="6.48"/>
<line x1="855.494852" y1="541.339351" x2="855.494852" y2="773.712151" stroke="black" stroke-width="6.48"/>
<line x1="855.494852" y1="773.712151" x2="623.597252" y2="773.712151" stroke="black" stroke-width="6.48"/>
<line x1="623.597252" y1="773.712151" x2="623.597252" y2="541.339351" stroke="black" stroke-width="6.48"/>
<line x1="623.122052" y1="540.864151" x2="855.494852" y2="773.712151" stroke="black" stroke-width="6.48"/>
<line x1="623.597252" y1="773.236951" x2="855.019652" y2="541.339351" stroke="black" stroke-width="6.48"/>
<line x1="2032.924367" y1="1768.609534" x2="2032.924367" y2="1559.521534" stroke="black" stroke-width="6.48"/>
<line x1="2032.924367" y1="1559.521534" x2="1801.026767" y2="1559.521534" stroke="black" stroke-width="6.48"/>
<line x1="1801.026767" y1="1559.521534" x2="1801.026767" y2="1768.609534" stroke="black" stroke-width="6.48"/>
<line x1="1801.026767" y1="1768.609534" x2="2032.924367" y2="1768.609534" stroke="black" stroke-width="6.48"/>
<line x1="2000.610767" y1="1768.609534" x2="2000.610767" y2="1559.521534" stroke="black" stroke-width="6.48"/>
<line x1="1485.415969" y1="209.267824" x2="1707.693134" y2="209.267824" stroke="black" stroke-width="6.48"/>
<line x1="1707.693134" y1="209.267824" x2="1707.693134" y2="432.000475" stroke="black" stroke-width="6.48"/>
<line x1="1707.693134" y1="432.000475" x2="1485.415969" y2="432.000475" stroke="black" stroke-width="6.48"/>
<line x1="1485.415969" y1="432.000475" x2="1485.415969" y2="209.267824" stroke="black" stroke-width="6.48"/>
<line x1="1484.960483" y1="208.812337" x2="1707.693134" y2="432.000475" stroke="black" stroke-width="6.48"/>
<line x1="1485.415969" y1="431.544989" x2="1707.237648" y2="209.267824" stroke="black" stroke-width="6.48"/>
<line x1="2586.780558" y1="1803.366338" x2="2586.780558" y2="2194.614338" stroke="black" stroke-width="6.48"/>
<line x1="2586.780558" y1="2194.614338" x2="2761.020558" y2="2194.614338" stroke="black" stroke-width="6.48"/>
<line x1="2761.020558" y1="2194.614338" x2="2761.020558" y2="1803.366338" stroke="black" stroke-width="6.48"/>
<line x1="2761.020558" y1="1803.366338" x2="2586.780558" y2="1803.366338" stroke="black" stroke-width="6.48"/>
<line x1="2734.092558" y1="2119.374338" x2="2734.092558" y2="1835.046338" stroke="black" stroke-width="6.48"/>
<line x1="2734.092558" y1="1835.046338" x2="2616.084558" y2="1835.046338" stroke="black" stroke-width="6.48"/>
<line x1="2616.084558" y1="1835.046338" x2="2616.084558" y2="2124.918338" stroke="black" stroke-width="6.48"/>
<path d="m 2734.347982,2118.563766 a 63.35999941905905,63.35999941905905 0 0 1 -119.37432999999965,4.2938139999996565" fill="none" stroke="black" stroke-width="6.48"/>
<line x1="2105.424342" y1="1858.107506" x2="2105.424342" y2="2041.851506" stroke="black" stroke-width="6.48"/>
<line x1="2105.424342" y1="2041.851506" x2="2056.320342" y2="2041.851506" stroke="black" stroke-width="6.48"/>
<line x1="2056.320342" y1="1858.107506" x2="2056.320342" y2="2041.851506" stroke="black" stroke-width="6.48"/>
<line x1="2105.424342" y1="1858.107506" x2="2056.320342" y2="1858.107506" stroke="black" stroke-width="6.48"/>
<line x1="2133.144342" y1="1899.687506" x2="2105.424342" y2="1899.687506" stroke="black" stroke-width="6.48"/>
<line x1="2105.424342" y1="1998.687506" x2="2134.728342" y2="1998.687506" stroke="black" stroke-width="6.48"/>
<circle cx="2178.288342" cy="1948.395506" r="66.52800000000002" fill="none" stroke="black" stroke-width="6.48"/>
<circle cx="2178.288342" cy="1948.395506" r="57.02400000000001" fill="none" stroke="black" stroke-width="6.48"/>
<line x1="764.251873" y1="210.774197" x2="1157.495746" y2="210.774197" stroke="black" stroke-width="6.48"/>
<line x1="1161.451152" y1="209.777915" x2="1161.451152" y2="345.84669" stroke="black" stroke-width="6.48"/>
<line x1="764.716262" y1="346.998197" x2="1161.756493" y2="346.998197" stroke="black" stroke-width="6.48"/>
<line x1="765.451152" y1="211.468946" x2="765.451152" y2="346.733003" stroke="black" stroke-width="6.48"/>
<line x1="775.747152" y1="221.862197" x2="899.299152" y2="221.862197" stroke="black" stroke-width="6.48"/>
<line x1="899.299152" y1="221.862197" x2="899.299152" y2="335.910197" stroke="black" stroke-width="6.48"/>
<line x1="775.747152" y1="335.910197" x2="899.299152" y2="335.910197" stroke="black" stroke-width="6.48"/>
<line x1="775.747152" y1="221.862197" x2="775.747152" y2="335.910197" stroke="black" stroke-width="6.48"/>
<line x1="918.307152" y1="228.990197" x2="1005.427152" y2="228.990197" stroke="black" stroke-width="6.48"/>
<line x1="918.307152" y1="248.790197" x2="1005.427152" y2="248.790197" stroke="black" stroke-width="6.48"/>
<line x1="919.099152" y1="269.382197" x2="1005.427152" y2="269.382197" stroke="black" stroke-width="6.48"/>
<line x1="919.099152" y1="289.182197" x2="1005.427152" y2="289.182197" stroke="black" stroke-width="6.48"/>
<line x1="918.307152" y1="308.982197" x2="1005.427152" y2="308.982197" stroke="black" stroke-width="6.48"/>
<line x1="918.307152" y1="328.782197" x2="1005.427152" y2="328.782197" stroke="black" stroke-width="6.48"/>
<line x1="823.267152" y1="335.118197" x2="823.267152" y2="321.654197" stroke="black" stroke-width="6.48"/>
<line x1="823.267152" y1="321.654197" x2="853.363152" y2="321.654197" stroke="black" stroke-width="6.48"/>
<line x1="853.363152" y1="321.654197" x2="853.363152" y2="334.326197" stroke="black" stroke-width="6.48"/>
<line x1="1026.019152" y1="221.862197" x2="1149.571152" y2="221.862197" stroke="black" stroke-width="6.48"/>
<line x1="1149.571152" y1="221.862197" x2="1149.571152" y2="335.910197" stroke="black" stroke-width="6.48"/>
<line x1="1026.019152" y1="335.910197" x2="1149.571152" y2="335.910197" stroke="black" stroke-width="6.48"/>
<line x1="1026.019152" y1="221.862197" x2="1026.019152" y2="335.910197" stroke="black" stroke-width="6.48"/>
<line x1="1073.539152" y1="335.910197" x2="1073.539152" y2="322.446197" stroke="black" stroke-width="6.48"/>
<line x1="1073.539152" y1="322.446197" x2="1103.635152" y2="322.446197" stroke="black" stroke-width="6.48"/>
<line x1="1103.635152" y1="322.446197" x2="1103.635152" y2="335.118197" stroke="black" stroke-width="6.48"/>
<circle cx="885.043152" cy="236.118197" r="7.128000000000001" fill="none" stroke="black" stroke-width="6.48"/>
<circle cx="1135.315152" cy="236.910197" r="7.128000000000001" fill="none" stroke="black" stroke-width="6.48"/>
<line x1="2044.889399" y1="955.822399" x2="2267.166564" y2="955.822399" stroke="black" stroke-width="6.48"/>
<line x1="2267.166564" y1="955.822399" x2="2267.166564" y2="1178.555051" stroke="black" stroke-width="6.48"/>
<line x1="2267.166564" y1="1178.555051" x2="2044.889399" y2="1178.555051" stroke="black" stroke-width="6.48"/>
<line x1="2044.889399" y1="1178.555051" x2="2044.889399" y2="955.822399" stroke="black" stroke-width="6.48"/>
<line x1="2044.433912" y1="955.366913" x2="2267.166564" y2="1178.555051" stroke="black" stroke-width="6.48"/>
<line x1="2044.889399" y1="1178.099564" x2="2266.711078" y2="955.822399" stroke="black" stroke-width="6.48"/>
<line x1="323.258818" y1="1375.374532" x2="323.258818" y2="949.841089" stroke="black" stroke-width="6.48"/>
<line x1="323.258818" y1="949.841089" x2="257.659344" y2="949.841089" stroke="black" stroke-width="6.48"/>
<line x1="257.659344" y1="949.841089" x2="257.659344" y2="1375.374532" stroke="black" stroke-width="6.48"/>
<line x1="257.659344" y1="1375.374532" x2="323.258818" y2="1375.374532" stroke="black" stroke-width="6.48"/>
<line x1="258.522494" y1="1335.669588" x2="322.395667" y2="1335.669588" stroke="black" stroke-width="6.48"/>
<line x1="258.522494" y1="990.409187" x2="324.985122" y2="990.409187" stroke="black" stroke-width="6.48"/>
<line x1="288.73278" y1="1336.532738" x2="288.73278" y2="991.272337" stroke="black" stroke-width="6.48"/>
<line x1="3874.406537" y1="1514.726719" x2="3874.406537" y2="1940.260162" stroke="black" stroke-width="6.48"/>
<line x1="3874.406537" y1="1940.260162" x2="3940.00601" y2="1940.260162" stroke="black" stroke-width="6.48"/>
<line x1="3940.00601" y1="1940.260162" x2="3940.00601" y2="1514.726719" stroke="black" stroke-width="6.48"/>
<line x1="3940.00601" y1="1514.726719" x2="3874.406537" y2="1514.726719" stroke="black" stroke-width="6.48"/>
<line x1="3939.14286" y1="1554.431663" x2="3875.269687" y2="1554.431663" stroke="black" stroke-width="6.48"/>
<line x1="3939.14286" y1="1899.692064" x2="3872.680232" y2="1899.692064" stroke="black" stroke-width="6.48"/>
<line x1="3908.932574" y1="1553.568512" x2="3908.932574" y2="1898.828914" stroke="black" stroke-width="6.48"/>
<line x1="5187.824183" y1="1665.489823" x2="4803.576505" y2="1747.164186" stroke="black" stroke-width="6.48"/>
<line x1="4803.576505" y1="1747.164186" x2="4841.943696" y2="1927.667635" stroke="black" stroke-width="6.48"/>
<line x1="4841.943696" y1="1927.667635" x2="5226.191377" y2="1845.993265" stroke="black" stroke-width="6.48"/>
<line x1="5226.191377" y1="1845.993265" x2="5187.824183" y2="1665.489823" stroke="black" stroke-width="6.48"/>
<line x1="5070.4781" y1="1879.091147" x2="5087.274041" y2="1958.109822" stroke="black" stroke-width="6.48"/>
<line x1="5087.274041" y1="1958.109822" x2="5163.968635" y2="1941.807877" stroke="black" stroke-width="6.48"/>
<line x1="5163.968635" y1="1941.807877" x2="5147.172702" y2="1862.789202" stroke="black" stroke-width="6.48"/>
<line x1="5159.571289" y1="1924.929302" x2="5083.651386" y2="1941.066576" stroke="black" stroke-width="6.48"/>
<line x1="5091.844903" y1="1602.49239" x2="5015.150309" y2="1618.794331" stroke="black" stroke-width="6.48"/>
<line x1="5015.150309" y1="1618.794331" x2="5032.110913" y2="1698.587701" stroke="black" stroke-width="6.48"/>
<line x1="5108.805508" y1="1682.285756" x2="5091.844903" y2="1602.49239" stroke="black" stroke-width="6.48"/>
<line x1="5094.692863" y1="1619.7003" x2="5018.77296" y2="1635.83757" stroke="black" stroke-width="6.48"/>
<line x1="4922.511757" y1="1910.54236" x2="4939.307698" y2="1989.561035" stroke="black" stroke-width="6.48"/>
<line x1="4939.307698" y1="1989.561035" x2="5016.002296" y2="1973.259097" stroke="black" stroke-width="6.48"/>
<line x1="5016.002296" y1="1973.259097" x2="4999.206359" y2="1894.240422" stroke="black" stroke-width="6.48"/>
<line x1="5012.379641" y1="1956.215855" x2="4935.685043" y2="1972.517792" stroke="black" stroke-width="6.48"/>
<line x1="4943.87856" y1="1633.943606" x2="4867.183962" y2="1650.245548" stroke="black" stroke-width="6.48"/>
<line x1="4867.183962" y1="1650.245548" x2="4884.144566" y2="1730.038914" stroke="black" stroke-width="6.48"/>
<line x1="4960.839164" y1="1713.736976" x2="4943.87856" y2="1633.943606" stroke="black" stroke-width="6.48"/>
<line x1="4947.501211" y1="1650.986852" x2="4870.806617" y2="1667.28879" stroke="black" stroke-width="6.48"/>
<line x1="3146.948428" y1="1074.457382" x2="3356.313631" y2="1074.457382" stroke="black" stroke-width="6.48"/>
<line x1="3356.313631" y1="1074.457382" x2="3356.313631" y2="743.242979" stroke="black" stroke-width="6.48"/>
<line x1="3356.313631" y1="743.242979" x2="3146.948428" y2="743.242979" stroke="black" stroke-width="6.48"/>
<line x1="3146.948428" y1="743.242979" x2="3146.948428" y2="1074.457382" stroke="black" stroke-width="6.48"/>
<line x1="3146.275228" y1="802.484579" x2="3356.986828" y2="802.484579" stroke="black" stroke-width="6.48"/>
<line x1="3356.986828" y1="802.484579" x2="3147.621628" y2="852.301382" stroke="black" stroke-width="6.48"/>
<line x1="3147.621628" y1="852.301382" x2="3179.262031" y2="898.752182" stroke="black" stroke-width="6.48"/>
<line x1="3179.262031" y1="898.752182" x2="3356.986828" y2="801.811382" stroke="black" stroke-width="6.48"/>
<line x1="3261.894073" y1="1203.733685" x2="3484.171238" y2="1203.733685" stroke="black" stroke-width="6.48"/>
<line x1="3484.171238" y1="1203.733685" x2="3484.171238" y2="1426.466336" stroke="black" stroke-width="6.48"/>
<line x1="3484.171238" y1="1426.466336" x2="3261.894073" y2="1426.466336" stroke="black" stroke-width="6.48"/>
<line x1="3261.894073" y1="1426.466336" x2="3261.894073" y2="1203.733685" stroke="black" stroke-width="6.48"/>
<line x1="3261.438587" y1="1203.278198" x2="3484.171238" y2="1426.466336" stroke="black" stroke-width="6.48"/>
<line x1="3261.894073" y1="1426.01085" x2="3483.715752" y2="1203.733685" stroke="black" stroke-width="6.48"/>
<line x1="2804.16708" y1="1127.69402" x2="2804.16708" y2="1153.148746" stroke="black" stroke-width="6.48"/>
<line x1="2804.16708" y1="1153.148746" x2="2853.834836" y2="1153.148746" stroke="black" stroke-width="6.48"/>
<line x1="2853.834836" y1="1153.148746" x2="2853.834836" y2="1127.69402" stroke="black" stroke-width="6.48"/>
<line x1="2853.834836" y1="1127.69402" x2="2804.16708" y2="1127.69402" stroke="black" stroke-width="6.48"/>
<line x1="2853.834836" y1="1402.108373" x2="3101.55277" y2="1402.108373" stroke="black" stroke-width="6.48"/>
<line x1="2802.925386" y1="1402.729218" x2="2802.925386" y2="1428.183943" stroke="black" stroke-width="6.48"/>
<line x1="2802.925386" y1="1428.183943" x2="2852.593142" y2="1428.183943" stroke="black" stroke-width="6.48"/>
<line x1="2852.593142" y1="1428.183943" x2="2852.593142" y2="1402.729218" stroke="black" stroke-width="6.48"/>
<line x1="2852.593142" y1="1402.729218" x2="2802.925386" y2="1402.729218" stroke="black" stroke-width="6.48"/>
<path d="m 2851.972294,1153.148746 a 248.95962699999984,248.95962699999984 0 0 1 248.95962699999973,248.95962699999995" fill="none" stroke="black" stroke-width="6.48"/>
<line x1="2901.274348" y1="1994.793599" x2="2830.069202" y2="2171.032736" stroke="black" stroke-width="6.48"/>
<line x1="2830.069202" y1="2171.032736" x2="3260.092698" y2="2344.773287" stroke="black" stroke-width="6.48"/>
<line x1="3260.092698" y1="2344.773287" x2="3331.297843" y2="2168.534149" stroke="black" stroke-width="6.48"/>
<line x1="3331.297843" y1="2168.534149" x2="3309.267953" y2="2159.633506" stroke="black" stroke-width="6.48"/>
<line x1="3309.267953" y1="2159.633506" x2="3246.607426" y2="2314.72395" stroke="black" stroke-width="6.48"/>
<line x1="3246.607426" y1="2314.72395" x2="2861.524908" y2="2159.140709" stroke="black" stroke-width="6.48"/>
<line x1="2861.524908" y1="2159.140709" x2="2924.185435" y2="2004.050268" stroke="black" stroke-width="6.48"/>
<line x1="2924.185435" y1="2004.050268" x2="2901.274348" y2="1994.793599" stroke="black" stroke-width="6.48"/>
<line x1="2922.049282" y1="2009.33744" x2="3307.131799" y2="2164.920682" stroke="black" stroke-width="6.48"/>
<line x1="3114.505966" y1="2086.069853" x2="3053.981596" y2="2235.873121" stroke="black" stroke-width="6.48"/>
<line x1="3675.408368" y1="1698.230138" x2="3651.168467" y2="1928.857381" stroke="black" stroke-width="6.48"/>
<line x1="3651.168467" y1="1928.857381" x2="3420.068627" y2="1904.56781" stroke="black" stroke-width="6.48"/>
<line x1="3420.068627" y1="1904.56781" x2="3444.308528" y2="1673.940568" stroke="black" stroke-width="6.48"/>
<line x1="3444.308528" y1="1673.940568" x2="3675.408368" y2="1698.230138" stroke="black" stroke-width="6.48"/>
<line x1="3675.930635" y1="1697.807214" x2="3420.068627" y2="1904.56781" stroke="black" stroke-width="6.48"/>
<line x1="3444.781126" y1="1673.99024" x2="3651.218136" y2="1928.38478" stroke="black" stroke-width="6.48"/>
<line x1="3031.233131" y1="1589.315879" x2="3026.401182" y2="1619.823596" stroke="black" stroke-width="6.48"/>
<line x1="3026.401182" y1="1619.823596" x2="3233.384312" y2="1652.606503" stroke="black" stroke-width="6.48"/>
<line x1="3233.384312" y1="1652.606503" x2="3238.216261" y2="1622.098786" stroke="black" stroke-width="6.48"/>
<line x1="3238.216261" y1="1622.098786" x2="3031.233131" y2="1589.315879" stroke="black" stroke-width="6.48"/>
<line x1="2999.342279" y1="1790.666816" x2="2994.51033" y2="1821.17453" stroke="black" stroke-width="6.48"/>
<line x1="2994.51033" y1="1821.17453" x2="3201.493457" y2="1853.957441" stroke="black" stroke-width="6.48"/>
<line x1="3201.493457" y1="1853.957441" x2="3206.325406" y2="1823.44972" stroke="black" stroke-width="6.48"/>
<line x1="3206.325406" y1="1823.44972" x2="2999.342279" y2="1790.666816" stroke="black" stroke-width="6.48"/>
<line x1="3026.475518" y1="1619.354243" x2="2999.342279" y2="1790.666816" stroke="black" stroke-width="6.48"/>
<line x1="3232.594289" y1="1651.519127" x2="3254.245603" y2="1681.891268" stroke="black" stroke-width="6.48"/>
<line x1="3235.289501" y1="1801.575396" x2="3205.312369" y2="1823.770393" stroke="black" stroke-width="6.48"/>
<line x1="3254.542952" y1="1680.013872" x2="3234.992148" y2="1803.452792" stroke="black" stroke-width="6.48"/>
<line x1="3070.520039" y1="1626.811337" x2="3043.386792" y2="1798.123903" stroke="black" stroke-width="6.48"/>
<line x1="2334.609976" y1="2049.333422" x2="2565.237211" y2="2073.573378" stroke="black" stroke-width="6.48"/>
<line x1="2565.237211" y1="2073.573378" x2="2540.947583" y2="2304.673211" stroke="black" stroke-width="6.48"/>
<line x1="2540.947583" y1="2304.673211" x2="2310.320347" y2="2280.433252" stroke="black" stroke-width="6.48"/>
<line x1="2310.320347" y1="2280.433252" x2="2334.609976" y2="2049.333422" stroke="black" stroke-width="6.48"/>
<line x1="2334.187051" y1="2048.811152" x2="2540.947583" y2="2304.673211" stroke="black" stroke-width="6.48"/>
<line x1="2310.37002" y1="2279.960654" x2="2564.764614" y2="2073.523705" stroke="black" stroke-width="6.48"/>
<line x1="3819.610505" y1="1149.082661" x2="3822.30257" y2="1118.312197" stroke="black" stroke-width="6.48"/>
<line x1="3822.30257" y1="1118.312197" x2="3613.536821" y2="1100.047561" stroke="black" stroke-width="6.48"/>
<line x1="3613.536821" y1="1100.047561" x2="3610.844759" y2="1130.818025" stroke="black" stroke-width="6.48"/>
<line x1="3610.844759" y1="1130.818025" x2="3819.610505" y2="1149.082661" stroke="black" stroke-width="6.48"/>
<line x1="3837.378146" y1="945.99761" x2="3840.070212" y2="915.22715" stroke="black" stroke-width="6.48"/>
<line x1="3840.070212" y1="915.22715" x2="3631.304462" y2="896.962511" stroke="black" stroke-width="6.48"/>
<line x1="3631.304462" y1="896.962511" x2="3628.612393" y2="927.732974" stroke="black" stroke-width="6.48"/>
<line x1="3628.612393" y1="927.732974" x2="3837.378146" y2="945.99761" stroke="black" stroke-width="6.48"/>
<line x1="3822.261152" y1="1118.78559" x2="3837.378146" y2="945.99761" stroke="black" stroke-width="6.48"/>
<line x1="3614.400774" y1="1101.077176" x2="3590.683546" y2="1072.28934" stroke="black" stroke-width="6.48"/>
<line x1="3601.244732" y1="951.57445" x2="3629.600597" y2="927.342418" stroke="black" stroke-width="6.48"/>
<line x1="3590.517884" y1="1074.182908" x2="3601.410397" y2="949.680882" stroke="black" stroke-width="6.48"/>
<line x1="3777.803752" y1="1114.419053" x2="3792.920738" y2="941.63108" stroke="black" stroke-width="6.48"/>
<line x1="6352.122938" y1="2305.667934" x2="6366.708184" y2="2514.246606" stroke="black" stroke-width="6.48"/>
<line x1="6366.708184" y1="2514.246606" x2="6598.040893" y2="2498.070247" stroke="black" stroke-width="6.48"/>
<line x1="6598.040893" y1="2498.070247" x2="6583.455652" y2="2289.491575" stroke="black" stroke-width="6.48"/>
<line x1="6583.455652" y1="2289.491575" x2="6352.122938" y2="2305.667934" stroke="black" stroke-width="6.48"/>
<line x1="6384.357828" y1="2303.413848" x2="6398.94307" y2="2511.992524" stroke="black" stroke-width="6.48"/>
<line x1="5621.287777" y1="1444.087332" x2="5664.759617" y2="1648.606255" stroke="black" stroke-width="6.48"/>
<line x1="5664.759617" y1="1648.606255" x2="5891.589702" y2="1600.392031" stroke="black" stroke-width="6.48"/>
<line x1="5891.589702" y1="1600.392031" x2="5848.117862" y2="1395.873108" stroke="black" stroke-width="6.48"/>
<line x1="5848.117862" y1="1395.873108" x2="5621.287777" y2="1444.087332" stroke="black" stroke-width="6.48"/>
<line x1="5652.895252" y1="1437.368954" x2="5696.367091" y2="1641.887881" stroke="black" stroke-width="6.48"/>
<line x1="6028.662082" y1="1939.902991" x2="6037.175966" y2="1969.594441" stroke="black" stroke-width="6.48"/>
<line x1="6037.175966" y1="1969.594441" x2="6238.621044" y2="1911.830994" stroke="black" stroke-width="6.48"/>
<line x1="6238.621044" y1="1911.830994" x2="6230.107159" y2="1882.139544" stroke="black" stroke-width="6.48"/>
<line x1="6230.107159" y1="1882.139544" x2="6028.662082" y2="1939.902991" stroke="black" stroke-width="6.48"/>
<line x1="6084.853733" y1="2135.866568" x2="6093.367618" y2="2165.558018" stroke="black" stroke-width="6.48"/>
<line x1="6093.367618" y1="2165.558018" x2="6294.812695" y2="2107.794571" stroke="black" stroke-width="6.48"/>
<line x1="6294.812695" y1="2107.794571" x2="6286.29881" y2="2078.103121" stroke="black" stroke-width="6.48"/>
<line x1="6286.29881" y1="2078.103121" x2="6084.853733" y2="2135.866568" stroke="black" stroke-width="6.48"/>
<line x1="6037.044988" y1="1969.137652" x2="6084.853733" y2="2135.866568" stroke="black" stroke-width="6.48"/>
<line x1="6237.445496" y1="1911.179376" x2="6269.904076" y2="1929.555644" stroke="black" stroke-width="6.48"/>
<line x1="6303.304706" y1="2046.037493" x2="6285.516214" y2="2078.821876" stroke="black" stroke-width="6.48"/>
<line x1="6269.380142" y1="1927.728479" x2="6303.82864" y2="2047.864658" stroke="black" stroke-width="6.48"/>
<line x1="6080.114376" y1="1957.282052" x2="6127.923121" y2="2124.010969" stroke="black" stroke-width="6.48"/>
<line x1="1241.685659" y1="1973.344543" x2="1381.592804" y2="2128.727243" stroke="black" stroke-width="6.48"/>
<line x1="1381.592804" y1="2128.727243" x2="1553.926338" y2="1973.557501" stroke="black" stroke-width="6.48"/>
<line x1="1553.926338" y1="1973.557501" x2="1414.0192" y2="1818.174805" stroke="black" stroke-width="6.48"/>
<line x1="1414.0192" y1="1818.174805" x2="1241.685659" y2="1973.344543" stroke="black" stroke-width="6.48"/>
<line x1="1265.699351" y1="1951.722529" x2="1405.606493" y2="2107.105229" stroke="black" stroke-width="6.48"/>
<line x1="945.161615" y1="1312.699795" x2="904.099493" y2="922.019767" stroke="black" stroke-width="6.48"/>
<line x1="904.099493" y1="922.019767" x2="720.574398" y2="941.309035" stroke="black" stroke-width="6.48"/>
<line x1="720.574398" y1="941.309035" x2="761.636524" y2="1331.98906" stroke="black" stroke-width="6.48"/>
<line x1="761.636524" y1="1331.98906" x2="945.161615" y2="1312.699795" stroke="black" stroke-width="6.48"/>
<line x1="744.996431" y1="1173.669127" x2="664.654972" y2="1182.113356" stroke="black" stroke-width="6.48"/>
<line x1="664.654972" y1="1182.113356" x2="672.85084" y2="1260.091832" stroke="black" stroke-width="6.48"/>
<line x1="672.85084" y1="1260.091832" x2="753.192295" y2="1251.647604" stroke="black" stroke-width="6.48"/>
<line x1="690.0966" y1="1257.482866" x2="681.983521" y2="1180.292054" stroke="black" stroke-width="6.48"/>
<line x1="1017.846508" y1="1223.831322" x2="1009.65064" y2="1145.852852" stroke="black" stroke-width="6.48"/>
<line x1="1009.65064" y1="1145.852852" x2="928.521522" y2="1154.379866" stroke="black" stroke-width="6.48"/>
<line x1="936.71739" y1="1232.35834" x2="1017.846508" y2="1223.831322" stroke="black" stroke-width="6.48"/>
<line x1="1000.435172" y1="1224.864965" x2="992.32209" y2="1147.674154" stroke="black" stroke-width="6.48"/>
<line x1="729.184201" y1="1023.225815" x2="648.842742" y2="1031.670043" stroke="black" stroke-width="6.48"/>
<line x1="648.842742" y1="1031.670043" x2="657.03861" y2="1109.648513" stroke="black" stroke-width="6.48"/>
<line x1="657.03861" y1="1109.648513" x2="737.380066" y2="1101.204288" stroke="black" stroke-width="6.48"/>
<line x1="674.36716" y1="1107.827208" x2="666.171292" y2="1029.848735" stroke="black" stroke-width="6.48"/>
<line x1="1002.034274" y1="1073.38801" x2="993.83841" y2="995.409533" stroke="black" stroke-width="6.48"/>
<line x1="993.83841" y1="995.409533" x2="912.709292" y2="1003.93655" stroke="black" stroke-width="6.48"/>
<line x1="920.905157" y1="1081.91502" x2="1002.034274" y2="1073.38801" stroke="black" stroke-width="6.48"/>
<line x1="984.705728" y1="1075.209311" x2="976.509864" y2="997.230841" stroke="black" stroke-width="6.48"/>
</g>
</svg>
