<?xml version="1.0"?>
<svg xmlns:xlink="http://www.w3.org/1999/xlink" width="6775.2" height="2858.4">
<image x="0" y="0" width="6775.2" height="2858.4" xlink:href="groundfilled-01.png"/>
<g style="stroke-linecap:round">
<line x1="1285.950406" y1="795.178109" x2="1311.346069" y2="795.178109" stroke="black" stroke-width="6.48"/>
<line x1="1311.346069" y1="795.178109" x2="1311.346069" y2="745.625592" stroke="black" stroke-width="6.48"/>
<line x1="1311.346069" y1="745.625592" x2="1285.950406" y2="745.625592" stroke="black" stroke-width="6.48"/>
<line x1="1285.950406" y1="745.625592" x2="1285.950406" y2="795.178109" stroke="black" stroke-width="6.48"/>
<line x1="1559.728062" y1="745.625592" x2="1559.728062" y2="498.48241" stroke="black" stroke-width="6.48"/>
<line x1="1560.347471" y1="796.416923" x2="1585.743134" y2="796.416923" stroke="black" stroke-width="6.48"/>
<line x1="1585.743134" y1="796.416923" x2="1585.743134" y2="746.864406" stroke="black" stroke-width="6.48"/>
<line x1="1585.743134" y1="746.864406" x2="1560.347471" y2="746.864406" stroke="black" stroke-width="6.48"/>
<line x1="1560.347471" y1="746.864406" x2="1560.347471" y2="796.416923" stroke="black" stroke-width="6.48"/>
<path d="m 1311.346069,747.483811 a 248.38199299999997,248.38199299999997 0 0 1 248.38199299999997,-248.38199299999997" fill="none" stroke="black" stroke-width="6.48"/>
<line x1="320.532556" y1="771.34176" x2="320.532556" y2="366.736194" stroke="black" stroke-width="6.48"/>
<line x1="320.532556" y1="366.736194" x2="258.159283" y2="366.736194" stroke="black" stroke-width="6.48"/>
<line x1="258.159283" y1="366.736194" x2="258.159283" y2="771.34176" stroke="black" stroke-width="6.48"/>
<line x1="258.159283" y1="771.34176" x2="320.532556" y2="771.34176" stroke="black" stroke-width="6.48"/>
<line x1="258.979986" y1="733.589518" x2="319.711856" y2="733.589518" stroke="black" stroke-width="6.48"/>
<line x1="258.979986" y1="405.309139" x2="322.173958" y2="405.309139" stroke="black" stroke-width="6.48"/>
<line x1="287.704519" y1="734.410217" x2="287.704519" y2="406.129838" stroke="black" stroke-width="6.48"/>
<line x1="3901.945176" y1="1169.331426" x2="3901.945176" y2="1428.837066" stroke="black" stroke-width="6.48"/>
<line x1="3901.945176" y1="1428.837066" x2="3941.9501" y2="1428.837066" stroke="black" stroke-width="6.48"/>
<line x1="3941.9501" y1="1428.837066" x2="3941.9501" y2="1169.331426" stroke="black" stroke-width="6.48"/>
<line x1="3941.9501" y1="1169.331426" x2="3901.945176" y2="1169.331426" stroke="black" stroke-width="6.48"/>
<line x1="3941.423719" y1="1193.544936" x2="3902.471557" y2="1193.544936" stroke="black" stroke-width="6.48"/>
<line x1="3941.423719" y1="1404.097178" x2="3900.892414" y2="1404.097178" stroke="black" stroke-width="6.48"/>
<line x1="3923.000399" y1="1193.018555" x2="3923.000399" y2="1403.570797" stroke="black" stroke-width="6.48"/>
<line x1="334.430687" y1="1882.943946" x2="334.430687" y2="1457.437414" stroke="black" stroke-width="6.48"/>
<line x1="334.430687" y1="1457.437414" x2="258.323828" y2="1457.437414" stroke="black" stroke-width="6.48"/>
<line x1="258.323828" y1="1457.437414" x2="258.323828" y2="1882.943946" stroke="black" stroke-width="6.48"/>
<line x1="258.323828" y1="1882.943946" x2="334.430687" y2="1882.943946" stroke="black" stroke-width="6.48"/>
<line x1="334.430687" y1="1863.05238" x2="360.376207" y2="1863.05238" stroke="black" stroke-width="6.48"/>
<line x1="360.376207" y1="1863.05238" x2="360.376207" y2="1478.193829" stroke="black" stroke-width="6.48"/>
<line x1="334.430687" y1="1478.193829" x2="360.376207" y2="1478.193829" stroke="black" stroke-width="6.48"/>
<line x1="2747.905531" y1="904.670665" x2="2721.68303" y2="904.670665" stroke="black" stroke-width="6.48"/>
<line x1="2721.68303" y1="904.670665" x2="2721.68303" y2="955.836522" stroke="black" stroke-width="6.48"/>
<line x1="2721.68303" y1="955.836522" x2="2747.905531" y2="955.836522" stroke="black" stroke-width="6.48"/>
<line x1="2747.905531" y1="955.836522" x2="2747.905531" y2="904.670665" stroke="black" stroke-width="6.48"/>
<line x1="2465.214181" y1="955.836522" x2="2465.214181" y2="1211.026223" stroke="black" stroke-width="6.48"/>
<line x1="2464.574609" y1="903.39152" x2="2438.352108" y2="903.39152" stroke="black" stroke-width="6.48"/>
<line x1="2438.352108" y1="903.39152" x2="2438.352108" y2="954.557374" stroke="black" stroke-width="6.48"/>
<line x1="2438.352108" y1="954.557374" x2="2464.574609" y2="954.557374" stroke="black" stroke-width="6.48"/>
<line x1="2464.574609" y1="954.557374" x2="2464.574609" y2="903.39152" stroke="black" stroke-width="6.48"/>
<path d="m 2721.68303,953.917801 a 256.4688490000001,256.4688490000001 0 0 1 -256.4688490000003,256.46884899999986" fill="none" stroke="black" stroke-width="6.48"/>
<line x1="2420.532389" y1="1427.858834" x2="2395.136725" y2="1427.858834" stroke="black" stroke-width="6.48"/>
<line x1="2395.136725" y1="1427.858834" x2="2395.136725" y2="1477.411351" stroke="black" stroke-width="6.48"/>
<line x1="2395.136725" y1="1477.411351" x2="2420.532389" y2="1477.411351" stroke="black" stroke-width="6.48"/>
<line x1="2420.532389" y1="1477.411351" x2="2420.532389" y2="1427.858834" stroke="black" stroke-width="6.48"/>
<line x1="2146.754732" y1="1477.411351" x2="2146.754732" y2="1724.554534" stroke="black" stroke-width="6.48"/>
<line x1="2146.135324" y1="1426.62002" x2="2120.73966" y2="1426.62002" stroke="black" stroke-width="6.48"/>
<line x1="2120.73966" y1="1426.62002" x2="2120.73966" y2="1476.172537" stroke="black" stroke-width="6.48"/>
<line x1="2120.73966" y1="1476.172537" x2="2146.135324" y2="1476.172537" stroke="black" stroke-width="6.48"/>
<line x1="2146.135324" y1="1476.172537" x2="2146.135324" y2="1426.62002" stroke="black" stroke-width="6.48"/>
<path d="m 2395.136725,1475.553132 a 248.38199299999997,248.38199299999997 0 0 1 -248.38199299999997,248.38199299999997" fill="none" stroke="black" stroke-width="6.48"/>
<line x1="424.974712" y1="692.136151" x2="817.806712" y2="692.136151" stroke="black" stroke-width="6.48"/>
<line x1="817.806712" y1="692.136151" x2="817.806712" y2="507.600151" stroke="black" stroke-width="6.48"/>
<line x1="817.806712" y1="507.600151" x2="424.974712" y2="507.600151" stroke="black" stroke-width="6.48"/>
<line x1="424.974712" y1="507.600151" x2="424.974712" y2="692.136151" stroke="black" stroke-width="6.48"/>
<line x1="584.166712" y1="507.600151" x2="584.166712" y2="426.816151" stroke="black" stroke-width="6.48"/>
<line x1="584.166712" y1="426.816151" x2="505.758712" y2="426.816151" stroke="black" stroke-width="6.48"/>
<line x1="505.758712" y1="426.816151" x2="505.758712" y2="507.600151" stroke="black" stroke-width="6.48"/>
<line x1="506.550712" y1="444.240151" x2="584.166712" y2="444.240151" stroke="black" stroke-width="6.48"/>
<line x1="505.758712" y1="773.712151" x2="584.166712" y2="773.712151" stroke="black" stroke-width="6.48"/>
<line x1="584.166712" y1="773.712151" x2="584.166712" y2="692.136151" stroke="black" stroke-width="6.48"/>
<line x1="505.758712" y1="692.136151" x2="505.758712" y2="773.712151" stroke="black" stroke-width="6.48"/>
<line x1="506.550712" y1="756.288151" x2="584.166712" y2="756.288151" stroke="black" stroke-width="6.48"/>
<line x1="735.438712" y1="507.600151" x2="735.438712" y2="426.816151" stroke="black" stroke-width="6.48"/>
<line x1="735.438712" y1="426.816151" x2="657.030712" y2="426.816151" stroke="black" stroke-width="6.48"/>
<line x1="657.030712" y1="426.816151" x2="657.030712" y2="507.600151" stroke="black" stroke-width="6.48"/>
<line x1="657.030712" y1="444.240151" x2="735.438712" y2="444.240151" stroke="black" stroke-width="6.48"/>
<line x1="657.030712" y1="773.712151" x2="735.438712" y2="773.712151" stroke="black" stroke-width="6.48"/>
<line x1="735.438712" y1="773.712151" x2="735.438712" y2="692.136151" stroke="black" stroke-width="6.48"/>
<line x1="657.030712" y1="692.136151" x2="657.030712" y2="773.712151" stroke="black" stroke-width="6.48"/>
<line x1="657.030712" y1="756.288151" x2="735.438712" y2="756.288151" stroke="black" stroke-width="6.48"/>
<line x1="2032.924367" y1="2056.486133" x2="2032.924367" y2="2025.598133" stroke="black" stroke-width="6.48"/>
<line x1="2032.924367" y1="2025.598133" x2="1823.361167" y2="2025.598133" stroke="black" stroke-width="6.48"/>
<line x1="1823.361167" y1="2025.598133" x2="1823.361167" y2="2056.486133" stroke="black" stroke-width="6.48"/>
<line x1="1823.361167" y1="2056.486133" x2="2032.924367" y2="2056.486133" stroke="black" stroke-width="6.48"/>
<line x1="2032.924367" y1="1852.625333" x2="2032.924367" y2="1821.737333" stroke="black" stroke-width="6.48"/>
<line x1="2032.924367" y1="1821.737333" x2="1823.361167" y2="1821.737333" stroke="black" stroke-width="6.48"/>
<line x1="1823.361167" y1="1821.737333" x2="1823.361167" y2="1852.625333" stroke="black" stroke-width="6.48"/>
<line x1="1823.361167" y1="1852.625333" x2="2032.924367" y2="1852.625333" stroke="black" stroke-width="6.48"/>
<line x1="2032.924367" y1="2026.073333" x2="2032.924367" y2="1852.625333" stroke="black" stroke-width="6.48"/>
<line x1="1824.311567" y1="2026.548533" x2="1798.175567" y2="1999.937333" stroke="black" stroke-width="6.48"/>
<line x1="1798.175567" y1="1878.761333" x2="1824.311567" y2="1852.150133" stroke="black" stroke-width="6.48"/>
<line x1="1798.175567" y1="2001.838133" x2="1798.175567" y2="1876.860533" stroke="black" stroke-width="6.48"/>
<line x1="1988.255567" y1="2025.598133" x2="1988.255567" y2="1852.150133" stroke="black" stroke-width="6.48"/>
<line x1="1485.415969" y1="209.267824" x2="1707.693134" y2="209.267824" stroke="black" stroke-width="6.48"/>
<line x1="1707.693134" y1="209.267824" x2="1707.693134" y2="432.000475" stroke="black" stroke-width="6.48"/>
<line x1="1707.693134" y1="432.000475" x2="1485.415969" y2="432.000475" stroke="black" stroke-width="6.48"/>
<line x1="1485.415969" y1="432.000475" x2="1485.415969" y2="209.267824" stroke="black" stroke-width="6.48"/>
<line x1="1484.960483" y1="208.812337" x2="1707.693134" y2="432.000475" stroke="black" stroke-width="6.48"/>
<line x1="1485.415969" y1="431.544989" x2="1707.237648" y2="209.267824" stroke="black" stroke-width="6.48"/>
<line x1="2761.020558" y1="2194.614338" x2="2761.020558" y2="1803.366338" stroke="black" stroke-width="6.48"/>
<line x1="2761.020558" y1="1803.366338" x2="2586.780558" y2="1803.366338" stroke="black" stroke-width="6.48"/>
<line x1="2586.780558" y1="1803.366338" x2="2586.780558" y2="2194.614338" stroke="black" stroke-width="6.48"/>
<line x1="2586.780558" y1="2194.614338" x2="2761.020558" y2="2194.614338" stroke="black" stroke-width="6.48"/>
<line x1="2613.708558" y1="1878.606338" x2="2613.708558" y2="2162.934338" stroke="black" stroke-width="6.48"/>
<line x1="2613.708558" y1="2162.934338" x2="2731.716558" y2="2162.934338" stroke="black" stroke-width="6.48"/>
<line x1="2731.716558" y1="2162.934338" x2="2731.716558" y2="1873.062338" stroke="black" stroke-width="6.48"/>
<path d="m 2613.453134,1879.416911 a 63.3599990854681,63.3599990854681 0 0 1 119.3743300000001,-4.293814000000111" fill="none" stroke="black" stroke-width="6.48"/>
<line x1="2105.41761" y1="1857.259292" x2="2105.41761" y2="2041.003292" stroke="black" stroke-width="6.48"/>
<line x1="2105.41761" y1="2041.003292" x2="2056.31361" y2="2041.003292" stroke="black" stroke-width="6.48"/>
<line x1="2056.31361" y1="1857.259292" x2="2056.31361" y2="2041.003292" stroke="black" stroke-width="6.48"/>
<line x1="2105.41761" y1="1857.259292" x2="2056.31361" y2="1857.259292" stroke="black" stroke-width="6.48"/>
<line x1="2133.13761" y1="1898.839292" x2="2105.41761" y2="1898.839292" stroke="black" stroke-width="6.48"/>
<line x1="2105.41761" y1="1997.839292" x2="2134.72161" y2="1997.839292" stroke="black" stroke-width="6.48"/>
<circle cx="2178.28161" cy="1947.547292" r="66.52800000000002" fill="none" stroke="black" stroke-width="6.48"/>
<circle cx="2178.28161" cy="1947.547292" r="57.02400000000001" fill="none" stroke="black" stroke-width="6.48"/>
<line x1="540.671422" y1="209.072959" x2="811.218622" y2="209.072959" stroke="black" stroke-width="6.48"/>
<line x1="811.218622" y1="209.072959" x2="811.218622" y2="341.020159" stroke="black" stroke-width="6.48"/>
<line x1="540.671422" y1="341.020159" x2="811.218622" y2="341.020159" stroke="black" stroke-width="6.48"/>
<line x1="540.671422" y1="209.072959" x2="540.671422" y2="341.020159" stroke="black" stroke-width="6.48"/>
<line x1="547.324222" y1="215.725759" x2="685.369822" y2="215.725759" stroke="black" stroke-width="6.48"/>
<line x1="685.369822" y1="215.725759" x2="685.369822" y2="333.812959" stroke="black" stroke-width="6.48"/>
<line x1="547.324222" y1="333.812959" x2="685.369822" y2="333.812959" stroke="black" stroke-width="6.48"/>
<line x1="547.324222" y1="215.725759" x2="547.324222" y2="333.812959" stroke="black" stroke-width="6.48"/>
<line x1="699.784222" y1="223.487359" x2="796.804222" y2="223.487359" stroke="black" stroke-width="6.48"/>
<line x1="699.784222" y1="244.000159" x2="796.804222" y2="244.000159" stroke="black" stroke-width="6.48"/>
<line x1="700.338622" y1="265.067359" x2="797.358622" y2="265.067359" stroke="black" stroke-width="6.48"/>
<line x1="700.338622" y1="285.580159" x2="797.358622" y2="285.580159" stroke="black" stroke-width="6.48"/>
<line x1="699.784222" y1="306.092959" x2="796.804222" y2="306.092959" stroke="black" stroke-width="6.48"/>
<line x1="699.784222" y1="326.605759" x2="796.804222" y2="326.605759" stroke="black" stroke-width="6.48"/>
<line x1="599.992222" y1="333.812959" x2="599.992222" y2="319.952959" stroke="black" stroke-width="6.48"/>
<line x1="599.992222" y1="319.952959" x2="634.365022" y2="319.952959" stroke="black" stroke-width="6.48"/>
<line x1="634.365022" y1="319.952959" x2="634.365022" y2="333.258559" stroke="black" stroke-width="6.48"/>
<circle cx="669.846622" cy="230.694559" r="8.316000000000003" fill="none" stroke="black" stroke-width="6.48"/>
<line x1="682.425864" y1="1262.734693" x2="1074.300944" y2="1235.332116" stroke="black" stroke-width="6.48"/>
<line x1="1074.300944" y1="1235.332116" x2="1061.428363" y2="1051.245637" stroke="black" stroke-width="6.48"/>
<line x1="1061.428363" y1="1051.245637" x2="669.553283" y2="1078.648211" stroke="black" stroke-width="6.48"/>
<line x1="669.553283" y1="1078.648211" x2="682.425864" y2="1262.734693" stroke="black" stroke-width="6.48"/>
<line x1="828.357498" y1="1067.543539" x2="822.722292" y2="986.956326" stroke="black" stroke-width="6.48"/>
<line x1="822.722292" y1="986.956326" x2="744.50529" y2="992.425792" stroke="black" stroke-width="6.48"/>
<line x1="744.50529" y1="992.425792" x2="750.140496" y2="1073.013005" stroke="black" stroke-width="6.48"/>
<line x1="746.510796" y1="1009.752098" x2="823.937731" y2="1004.337882" stroke="black" stroke-width="6.48"/>
<line x1="768.703532" y1="1338.476771" x2="846.920534" y2="1333.007302" stroke="black" stroke-width="6.48"/>
<line x1="846.920534" y1="1333.007302" x2="841.230079" y2="1251.630022" stroke="black" stroke-width="6.48"/>
<line x1="763.013077" y1="1257.099484" x2="768.703532" y2="1338.476771" stroke="black" stroke-width="6.48"/>
<line x1="768.278164" y1="1321.039966" x2="845.705099" y2="1315.625749" stroke="black" stroke-width="6.48"/>
<line x1="979.261009" y1="1056.991338" x2="973.625803" y2="976.404125" stroke="black" stroke-width="6.48"/>
<line x1="973.625803" y1="976.404125" x2="895.408801" y2="981.873587" stroke="black" stroke-width="6.48"/>
<line x1="895.408801" y1="981.873587" x2="901.044007" y2="1062.460804" stroke="black" stroke-width="6.48"/>
<line x1="896.624237" y1="999.255146" x2="974.841235" y2="993.785681" stroke="black" stroke-width="6.48"/>
<line x1="919.607044" y1="1327.92457" x2="997.824042" y2="1322.455104" stroke="black" stroke-width="6.48"/>
<line x1="997.824042" y1="1322.455104" x2="992.13359" y2="1241.07782" stroke="black" stroke-width="6.48"/>
<line x1="913.916588" y1="1246.547286" x2="919.607044" y2="1327.92457" stroke="black" stroke-width="6.48"/>
<line x1="918.391604" y1="1310.54301" x2="996.60861" y2="1305.073548" stroke="black" stroke-width="6.48"/>
<line x1="2044.889399" y1="955.822399" x2="2267.166564" y2="955.822399" stroke="black" stroke-width="6.48"/>
<line x1="2267.166564" y1="955.822399" x2="2267.166564" y2="1178.555051" stroke="black" stroke-width="6.48"/>
<line x1="2267.166564" y1="1178.555051" x2="2044.889399" y2="1178.555051" stroke="black" stroke-width="6.48"/>
<line x1="2044.889399" y1="1178.555051" x2="2044.889399" y2="955.822399" stroke="black" stroke-width="6.48"/>
<line x1="2044.433912" y1="955.366913" x2="2267.166564" y2="1178.555051" stroke="black" stroke-width="6.48"/>
<line x1="2044.889399" y1="1178.099564" x2="2266.711078" y2="955.822399" stroke="black" stroke-width="6.48"/>
<line x1="323.258818" y1="1375.374532" x2="323.258818" y2="949.841089" stroke="black" stroke-width="6.48"/>
<line x1="323.258818" y1="949.841089" x2="257.659344" y2="949.841089" stroke="black" stroke-width="6.48"/>
<line x1="257.659344" y1="949.841089" x2="257.659344" y2="1375.374532" stroke="black" stroke-width="6.48"/>
<line x1="257.659344" y1="1375.374532" x2="323.258818" y2="1375.374532" stroke="black" stroke-width="6.48"/>
<line x1="258.522494" y1="1335.669588" x2="322.395667" y2="1335.669588" stroke="black" stroke-width="6.48"/>
<line x1="258.522494" y1="990.409187" x2="324.985122" y2="990.409187" stroke="black" stroke-width="6.48"/>
<line x1="288.73278" y1="1336.532738" x2="288.73278" y2="991.272337" stroke="black" stroke-width="6.48"/>
<line x1="3874.406537" y1="1514.726719" x2="3874.406537" y2="1940.260162" stroke="black" stroke-width="6.48"/>
<line x1="3874.406537" y1="1940.260162" x2="3940.00601" y2="1940.260162" stroke="black" stroke-width="6.48"/>
<line x1="3940.00601" y1="1940.260162" x2="3940.00601" y2="1514.726719" stroke="black" stroke-width="6.48"/>
<line x1="3940.00601" y1="1514.726719" x2="3874.406537" y2="1514.726719" stroke="black" stroke-width="6.48"/>
<line x1="3939.14286" y1="1554.431663" x2="3875.269687" y2="1554.431663" stroke="black" stroke-width="6.48"/>
<line x1="3939.14286" y1="1899.692064" x2="3872.680232" y2="1899.692064" stroke="black" stroke-width="6.48"/>
<line x1="3908.932574" y1="1553.568512" x2="3908.932574" y2="1898.828914" stroke="black" stroke-width="6.48"/>
<line x1="4728.425947" y1="1682.579531" x2="4618.90544" y2="1608.707012" stroke="black" stroke-width="6.48"/>
<line x1="4618.90544" y1="1608.707012" x2="4626.877295" y2="1596.888256" stroke="black" stroke-width="6.48"/>
<line x1="4736.397802" y1="1670.760767" x2="4626.877295" y2="1596.888256" stroke="black" stroke-width="6.48"/>
<line x1="4728.425947" y1="1682.579531" x2="4736.397802" y2="1670.760767" stroke="black" stroke-width="6.48"/>
<line x1="4725.366959" y1="1663.32037" x2="4744.480874" y2="1638.382014" stroke="black" stroke-width="6.48"/>
<line x1="4637.908138" y1="1604.328653" x2="4654.401836" y2="1576.476551" stroke="black" stroke-width="6.48"/>
<line x1="4986.18256" y1="1300.439632" x2="4876.662053" y2="1226.56712" stroke="black" stroke-width="6.48"/>
<line x1="4876.662053" y1="1226.56712" x2="4869.221656" y2="1237.59796" stroke="black" stroke-width="6.48"/>
<line x1="4978.742162" y1="1311.470474" x2="4869.221656" y2="1237.59796" stroke="black" stroke-width="6.48"/>
<line x1="4986.18256" y1="1300.439632" x2="4978.742162" y2="1311.470474" stroke="black" stroke-width="6.48"/>
<line x1="4967.436326" y1="1306.137373" x2="4951.474081" y2="1333.201558" stroke="black" stroke-width="6.48"/>
<line x1="4879.977505" y1="1247.145653" x2="4859.544215" y2="1272.340465" stroke="black" stroke-width="6.48"/>
<line x1="4575.325712" y1="1380.986726" x2="4587.144473" y2="1388.958581" stroke="black" stroke-width="6.48"/>
<line x1="4587.144473" y1="1388.958581" x2="4661.016988" y2="1279.438074" stroke="black" stroke-width="6.48"/>
<line x1="4649.198227" y1="1271.466223" x2="4661.016988" y2="1279.438074" stroke="black" stroke-width="6.48"/>
<line x1="4575.325712" y1="1380.986726" x2="4649.198227" y2="1271.466223" stroke="black" stroke-width="6.48"/>
<line x1="4653.045133" y1="1291.256838" x2="4681.428692" y2="1306.962619" stroke="black" stroke-width="6.48"/>
<line x1="4594.58487" y1="1377.927742" x2="4620.311143" y2="1397.573111" stroke="black" stroke-width="6.48"/>
<line x1="4956.146237" y1="1638.999803" x2="4944.327473" y2="1631.027948" stroke="black" stroke-width="6.48"/>
<line x1="4944.327473" y1="1631.027948" x2="5018.199991" y2="1521.507442" stroke="black" stroke-width="6.48"/>
<line x1="5030.018748" y1="1529.479296" x2="5018.199991" y2="1521.507442" stroke="black" stroke-width="6.48"/>
<line x1="4956.146237" y1="1638.999803" x2="5030.018748" y2="1529.479296" stroke="black" stroke-width="6.48"/>
<line x1="5010.228133" y1="1533.326198" x2="4985.033314" y2="1512.892912" stroke="black" stroke-width="6.48"/>
<line x1="4951.76787" y1="1619.997102" x2="4923.915768" y2="1603.503403" stroke="black" stroke-width="6.48"/>
<circle cx="4802.672228" cy="1455.233011" r="191.98080000000002" fill="none" stroke="black" stroke-width="6.48"/>
<line x1="3446.778431" y1="1075.446918" x2="3656.143634" y2="1075.446918" stroke="black" stroke-width="6.48"/>
<line x1="3656.143634" y1="1075.446918" x2="3656.143634" y2="744.232514" stroke="black" stroke-width="6.48"/>
<line x1="3656.143634" y1="744.232514" x2="3446.778431" y2="744.232514" stroke="black" stroke-width="6.48"/>
<line x1="3446.778431" y1="744.232514" x2="3446.778431" y2="1075.446918" stroke="black" stroke-width="6.48"/>
<line x1="3446.105231" y1="803.474114" x2="3656.816831" y2="803.474114" stroke="black" stroke-width="6.48"/>
<line x1="3656.816831" y1="803.474114" x2="3447.451631" y2="853.290918" stroke="black" stroke-width="6.48"/>
<line x1="3447.451631" y1="853.290918" x2="3479.092034" y2="899.741718" stroke="black" stroke-width="6.48"/>
<line x1="3479.092034" y1="899.741718" x2="3656.816831" y2="802.800918" stroke="black" stroke-width="6.48"/>
<line x1="3360.114785" y1="1203.336032" x2="3582.39195" y2="1203.336032" stroke="black" stroke-width="6.48"/>
<line x1="3582.39195" y1="1203.336032" x2="3582.39195" y2="1426.068684" stroke="black" stroke-width="6.48"/>
<line x1="3582.39195" y1="1426.068684" x2="3360.114785" y2="1426.068684" stroke="black" stroke-width="6.48"/>
<line x1="3360.114785" y1="1426.068684" x2="3360.114785" y2="1203.336032" stroke="black" stroke-width="6.48"/>
<line x1="3359.659298" y1="1202.880546" x2="3582.39195" y2="1426.068684" stroke="black" stroke-width="6.48"/>
<line x1="3360.114785" y1="1425.613198" x2="3581.936464" y2="1203.336032" stroke="black" stroke-width="6.48"/>
<line x1="2804.16708" y1="1127.69402" x2="2804.16708" y2="1153.148746" stroke="black" stroke-width="6.48"/>
<line x1="2804.16708" y1="1153.148746" x2="2853.834836" y2="1153.148746" stroke="black" stroke-width="6.48"/>
<line x1="2853.834836" y1="1153.148746" x2="2853.834836" y2="1127.69402" stroke="black" stroke-width="6.48"/>
<line x1="2853.834836" y1="1127.69402" x2="2804.16708" y2="1127.69402" stroke="black" stroke-width="6.48"/>
<line x1="2853.834836" y1="1402.108373" x2="3101.55277" y2="1402.108373" stroke="black" stroke-width="6.48"/>
<line x1="2802.925386" y1="1402.729218" x2="2802.925386" y2="1428.183943" stroke="black" stroke-width="6.48"/>
<line x1="2802.925386" y1="1428.183943" x2="2852.593142" y2="1428.183943" stroke="black" stroke-width="6.48"/>
<line x1="2852.593142" y1="1428.183943" x2="2852.593142" y2="1402.729218" stroke="black" stroke-width="6.48"/>
<line x1="2852.593142" y1="1402.729218" x2="2802.925386" y2="1402.729218" stroke="black" stroke-width="6.48"/>
<path d="m 2851.972294,1153.148746 a 248.95962699999984,248.95962699999984 0 0 1 248.95962699999973,248.95962699999995" fill="none" stroke="black" stroke-width="6.48"/>
<line x1="2987.101048" y1="2036.209972" x2="2915.895902" y2="2212.449109" stroke="black" stroke-width="6.48"/>
<line x1="2915.895902" y1="2212.449109" x2="3345.919398" y2="2386.18966" stroke="black" stroke-width="6.48"/>
<line x1="3345.919398" y1="2386.18966" x2="3417.124543" y2="2209.950522" stroke="black" stroke-width="6.48"/>
<line x1="3417.124543" y1="2209.950522" x2="3395.094653" y2="2201.049878" stroke="black" stroke-width="6.48"/>
<line x1="3395.094653" y1="2201.049878" x2="3332.434126" y2="2356.140323" stroke="black" stroke-width="6.48"/>
<line x1="3332.434126" y1="2356.140323" x2="2947.351608" y2="2200.557082" stroke="black" stroke-width="6.48"/>
<line x1="2947.351608" y1="2200.557082" x2="3010.012135" y2="2045.466641" stroke="black" stroke-width="6.48"/>
<line x1="3010.012135" y1="2045.466641" x2="2987.101048" y2="2036.209972" stroke="black" stroke-width="6.48"/>
<line x1="3007.875982" y1="2050.753813" x2="3392.958499" y2="2206.337054" stroke="black" stroke-width="6.48"/>
<line x1="3200.332666" y1="2127.486226" x2="3139.808296" y2="2277.289494" stroke="black" stroke-width="6.48"/>
<line x1="3449.349259" y1="1670.474693" x2="3678.990048" y2="1702.748603" stroke="black" stroke-width="6.48"/>
<line x1="3678.990048" y1="1702.748603" x2="3646.650002" y2="1932.859966" stroke="black" stroke-width="6.48"/>
<line x1="3646.650002" y1="1932.859966" x2="3417.009214" y2="1900.586063" stroke="black" stroke-width="6.48"/>
<line x1="3417.009214" y1="1900.586063" x2="3449.349259" y2="1670.474693" stroke="black" stroke-width="6.48"/>
<line x1="3448.944817" y1="1669.937983" x2="3646.650002" y2="1932.859966" stroke="black" stroke-width="6.48"/>
<line x1="3417.075349" y1="1900.115482" x2="3678.519474" y2="1702.682467" stroke="black" stroke-width="6.48"/>
<line x1="3066.685171" y1="1589.315879" x2="3055.615902" y2="1618.152311" stroke="black" stroke-width="6.48"/>
<line x1="3055.615902" y1="1618.152311" x2="3251.260004" y2="1693.253045" stroke="black" stroke-width="6.48"/>
<line x1="3251.260004" y1="1693.253045" x2="3262.329274" y2="1664.416613" stroke="black" stroke-width="6.48"/>
<line x1="3262.329274" y1="1664.416613" x2="3066.685171" y2="1589.315879" stroke="black" stroke-width="6.48"/>
<line x1="2993.627995" y1="1779.63633" x2="2982.558726" y2="1808.472762" stroke="black" stroke-width="6.48"/>
<line x1="2982.558726" y1="1808.472762" x2="3178.202828" y2="1883.573496" stroke="black" stroke-width="6.48"/>
<line x1="3178.202828" y1="1883.573496" x2="3189.272098" y2="1854.737068" stroke="black" stroke-width="6.48"/>
<line x1="3189.272098" y1="1854.737068" x2="2993.627995" y2="1779.63633" stroke="black" stroke-width="6.48"/>
<line x1="3055.7862" y1="1617.708672" x2="2993.627995" y2="1779.63633" stroke="black" stroke-width="6.48"/>
<line x1="3250.713323" y1="1692.025175" x2="3265.57678" y2="1726.235176" stroke="black" stroke-width="6.48"/>
<line x1="3222.151186" y1="1839.362717" x2="3188.214526" y2="1854.84011" stroke="black" stroke-width="6.48"/>
<line x1="3266.257964" y1="1724.460631" x2="3221.469997" y2="1841.137268" stroke="black" stroke-width="6.48"/>
<line x1="3097.31782" y1="1634.160175" x2="3035.159615" y2="1796.087833" stroke="black" stroke-width="6.48"/>
<line x1="1038.591752" y1="210.290368" x2="1309.138952" y2="210.290368" stroke="black" stroke-width="6.48"/>
<line x1="1309.138952" y1="210.290368" x2="1309.138952" y2="342.237568" stroke="black" stroke-width="6.48"/>
<line x1="1038.591752" y1="342.237568" x2="1309.138952" y2="342.237568" stroke="black" stroke-width="6.48"/>
<line x1="1038.591752" y1="210.290368" x2="1038.591752" y2="342.237568" stroke="black" stroke-width="6.48"/>
<line x1="1045.244552" y1="216.943168" x2="1183.290152" y2="216.943168" stroke="black" stroke-width="6.48"/>
<line x1="1183.290152" y1="216.943168" x2="1183.290152" y2="335.030368" stroke="black" stroke-width="6.48"/>
<line x1="1045.244552" y1="335.030368" x2="1183.290152" y2="335.030368" stroke="black" stroke-width="6.48"/>
<line x1="1045.244552" y1="216.943168" x2="1045.244552" y2="335.030368" stroke="black" stroke-width="6.48"/>
<line x1="1197.704552" y1="224.704768" x2="1294.724552" y2="224.704768" stroke="black" stroke-width="6.48"/>
<line x1="1197.704552" y1="245.217568" x2="1294.724552" y2="245.217568" stroke="black" stroke-width="6.48"/>
<line x1="1198.258952" y1="266.284768" x2="1295.278952" y2="266.284768" stroke="black" stroke-width="6.48"/>
<line x1="1198.258952" y1="286.797568" x2="1295.278952" y2="286.797568" stroke="black" stroke-width="6.48"/>
<line x1="1197.704552" y1="307.310368" x2="1294.724552" y2="307.310368" stroke="black" stroke-width="6.48"/>
<line x1="1197.704552" y1="327.823168" x2="1294.724552" y2="327.823168" stroke="black" stroke-width="6.48"/>
<line x1="1097.912552" y1="335.030368" x2="1097.912552" y2="321.170368" stroke="black" stroke-width="6.48"/>
<line x1="1097.912552" y1="321.170368" x2="1132.285352" y2="321.170368" stroke="black" stroke-width="6.48"/>
<line x1="1132.285352" y1="321.170368" x2="1132.285352" y2="334.475968" stroke="black" stroke-width="6.48"/>
<circle cx="1167.766952" cy="231.911968" r="8.316000000000003" fill="none" stroke="black" stroke-width="6.48"/>
<line x1="5855.605981" y1="1728.079873" x2="5864.119866" y2="1757.771323" stroke="black" stroke-width="6.48"/>
<line x1="5864.119866" y1="1757.771323" x2="6065.564944" y2="1700.007876" stroke="black" stroke-width="6.48"/>
<line x1="6065.564944" y1="1700.007876" x2="6057.051059" y2="1670.316426" stroke="black" stroke-width="6.48"/>
<line x1="6057.051059" y1="1670.316426" x2="5855.605981" y2="1728.079873" stroke="black" stroke-width="6.48"/>
<line x1="5911.797632" y1="1924.04345" x2="5920.311517" y2="1953.7349" stroke="black" stroke-width="6.48"/>
<line x1="5920.311517" y1="1953.7349" x2="6121.756595" y2="1895.971453" stroke="black" stroke-width="6.48"/>
<line x1="6121.756595" y1="1895.971453" x2="6113.24271" y2="1866.280003" stroke="black" stroke-width="6.48"/>
<line x1="6113.24271" y1="1866.280003" x2="5911.797632" y2="1924.04345" stroke="black" stroke-width="6.48"/>
<line x1="5863.988887" y1="1757.314534" x2="5911.797632" y2="1924.04345" stroke="black" stroke-width="6.48"/>
<line x1="6064.389396" y1="1699.356258" x2="6096.847975" y2="1717.732526" stroke="black" stroke-width="6.48"/>
<line x1="6130.248606" y1="1834.214375" x2="6112.460113" y2="1866.998758" stroke="black" stroke-width="6.48"/>
<line x1="6096.324042" y1="1715.905361" x2="6130.772539" y2="1836.04154" stroke="black" stroke-width="6.48"/>
<line x1="5907.058276" y1="1745.458934" x2="5954.867021" y2="1912.187851" stroke="black" stroke-width="6.48"/>
<line x1="1295.879522" y1="1964.235002" x2="1316.547623" y2="1987.189265" stroke="black" stroke-width="6.48"/>
<line x1="1316.547623" y1="1987.189265" x2="1472.283464" y2="1846.964153" stroke="black" stroke-width="6.48"/>
<line x1="1472.283464" y1="1846.964153" x2="1451.615364" y2="1824.00989" stroke="black" stroke-width="6.48"/>
<line x1="1451.615364" y1="1824.00989" x2="1295.879522" y2="1964.235002" stroke="black" stroke-width="6.48"/>
<line x1="1432.288984" y1="2115.733136" x2="1452.957084" y2="2138.687395" stroke="black" stroke-width="6.48"/>
<line x1="1452.957084" y1="2138.687395" x2="1608.692926" y2="1998.462287" stroke="black" stroke-width="6.48"/>
<line x1="1608.692926" y1="1998.462287" x2="1588.024829" y2="1975.508021" stroke="black" stroke-width="6.48"/>
<line x1="1588.024829" y1="1975.508021" x2="1432.288984" y2="2115.733136" stroke="black" stroke-width="6.48"/>
<line x1="1316.229649" y1="1986.836119" x2="1432.288984" y2="2115.733136" stroke="black" stroke-width="6.48"/>
<line x1="1470.941237" y1="1846.893809" x2="1508.170442" y2="1849.181396" stroke="black" stroke-width="6.48"/>
<line x1="1589.252987" y1="1939.232736" x2="1587.636511" y2="1976.497103" stroke="black" stroke-width="6.48"/>
<line x1="1506.898555" y1="1847.768825" x2="1590.52487" y2="1940.6453" stroke="black" stroke-width="6.48"/>
<line x1="1349.743018" y1="1957.300013" x2="1465.802348" y2="2086.197026" stroke="black" stroke-width="6.48"/>
</g>
</svg>
