<?xml version="1.0"?>
<svg xmlns:xlink="http://www.w3.org/1999/xlink" width="6775.2" height="2858.4">
<image x="0" y="0" width="6775.2" height="2858.4" xlink:href="groundfilled-01.png"/>
<g style="stroke-linecap:round">
<line x1="1285.950406" y1="795.178109" x2="1311.346069" y2="795.178109" stroke="black" stroke-width="6.48"/>
<line x1="1311.346069" y1="795.178109" x2="1311.346069" y2="745.625592" stroke="black" stroke-width="6.48"/>
<line x1="1311.346069" y1="745.625592" x2="1285.950406" y2="745.625592" stroke="black" stroke-width="6.48"/>
<line x1="1285.950406" y1="745.625592" x2="1285.950406" y2="795.178109" stroke="black" stroke-width="6.48"/>
<line x1="1559.728062" y1="745.625592" x2="1559.728062" y2="498.48241" stroke="black" stroke-width="6.48"/>
<line x1="1560.347471" y1="796.416923" x2="1585.743134" y2="796.416923" stroke="black" stroke-width="6.48"/>
<line x1="1585.743134" y1="796.416923" x2="1585.743134" y2="746.864406" stroke="black" stroke-width="6.48"/>
<line x1="1585.743134" y1="746.864406" x2="1560.347471" y2="746.864406" stroke="black" stroke-width="6.48"/>
<line x1="1560.347471" y1="746.864406" x2="1560.347471" y2="796.416923" stroke="black" stroke-width="6.48"/>
<path d="m 1311.346069,747.483811 a 248.38199299999997,248.38199299999997 0 0 1 248.38199299999997,-248.38199299999997" fill="none" stroke="black" stroke-width="6.48"/>
<line x1="320.532556" y1="771.34176" x2="320.532556" y2="366.736194" stroke="black" stroke-width="6.48"/>
<line x1="320.532556" y1="366.736194" x2="258.159283" y2="366.736194" stroke="black" stroke-width="6.48"/>
<line x1="258.159283" y1="366.736194" x2="258.159283" y2="771.34176" stroke="black" stroke-width="6.48"/>
<line x1="258.159283" y1="771.34176" x2="320.532556" y2="771.34176" stroke="black" stroke-width="6.48"/>
<line x1="258.979986" y1="733.589518" x2="319.711856" y2="733.589518" stroke="black" stroke-width="6.48"/>
<line x1="258.979986" y1="405.309139" x2="322.173958" y2="405.309139" stroke="black" stroke-width="6.48"/>
<line x1="287.704519" y1="734.410217" x2="287.704519" y2="406.129838" stroke="black" stroke-width="6.48"/>
<line x1="3901.945176" y1="1169.331426" x2="3901.945176" y2="1428.837066" stroke="black" stroke-width="6.48"/>
<line x1="3901.945176" y1="1428.837066" x2="3941.9501" y2="1428.837066" stroke="black" stroke-width="6.48"/>
<line x1="3941.9501" y1="1428.837066" x2="3941.9501" y2="1169.331426" stroke="black" stroke-width="6.48"/>
<line x1="3941.9501" y1="1169.331426" x2="3901.945176" y2="1169.331426" stroke="black" stroke-width="6.48"/>
<line x1="3941.423719" y1="1193.544936" x2="3902.471557" y2="1193.544936" stroke="black" stroke-width="6.48"/>
<line x1="3941.423719" y1="1404.097178" x2="3900.892414" y2="1404.097178" stroke="black" stroke-width="6.48"/>
<line x1="3923.000399" y1="1193.018555" x2="3923.000399" y2="1403.570797" stroke="black" stroke-width="6.48"/>
<line x1="334.430687" y1="1882.943946" x2="334.430687" y2="1457.437414" stroke="black" stroke-width="6.48"/>
<line x1="334.430687" y1="1457.437414" x2="258.323828" y2="1457.437414" stroke="black" stroke-width="6.48"/>
<line x1="258.323828" y1="1457.437414" x2="258.323828" y2="1882.943946" stroke="black" stroke-width="6.48"/>
<line x1="258.323828" y1="1882.943946" x2="334.430687" y2="1882.943946" stroke="black" stroke-width="6.48"/>
<line x1="334.430687" y1="1863.05238" x2="360.376207" y2="1863.05238" stroke="black" stroke-width="6.48"/>
<line x1="360.376207" y1="1863.05238" x2="360.376207" y2="1478.193829" stroke="black" stroke-width="6.48"/>
<line x1="334.430687" y1="1478.193829" x2="360.376207" y2="1478.193829" stroke="black" stroke-width="6.48"/>
<line x1="2747.905531" y1="904.670665" x2="2721.68303" y2="904.670665" stroke="black" stroke-width="6.48"/>
<line x1="2721.68303" y1="904.670665" x2="2721.68303" y2="955.836522" stroke="black" stroke-width="6.48"/>
<line x1="2721.68303" y1="955.836522" x2="2747.905531" y2="955.836522" stroke="black" stroke-width="6.48"/>
<line x1="2747.905531" y1="955.836522" x2="2747.905531" y2="904.670665" stroke="black" stroke-width="6.48"/>
<line x1="2465.214181" y1="955.836522" x2="2465.214181" y2="1211.026223" stroke="black" stroke-width="6.48"/>
<line x1="2464.574609" y1="903.39152" x2="2438.352108" y2="903.39152" stroke="black" stroke-width="6.48"/>
<line x1="2438.352108" y1="903.39152" x2="2438.352108" y2="954.557374" stroke="black" stroke-width="6.48"/>
<line x1="2438.352108" y1="954.557374" x2="2464.574609" y2="954.557374" stroke="black" stroke-width="6.48"/>
<line x1="2464.574609" y1="954.557374" x2="2464.574609" y2="903.39152" stroke="black" stroke-width="6.48"/>
<path d="m 2721.68303,953.917801 a 256.4688490000001,256.4688490000001 0 0 1 -256.4688490000003,256.46884899999986" fill="none" stroke="black" stroke-width="6.48"/>
<line x1="2420.532389" y1="1427.858834" x2="2395.136725" y2="1427.858834" stroke="black" stroke-width="6.48"/>
<line x1="2395.136725" y1="1427.858834" x2="2395.136725" y2="1477.411351" stroke="black" stroke-width="6.48"/>
<line x1="2395.136725" y1="1477.411351" x2="2420.532389" y2="1477.411351" stroke="black" stroke-width="6.48"/>
<line x1="2420.532389" y1="1477.411351" x2="2420.532389" y2="1427.858834" stroke="black" stroke-width="6.48"/>
<line x1="2146.754732" y1="1477.411351" x2="2146.754732" y2="1724.554534" stroke="black" stroke-width="6.48"/>
<line x1="2146.135324" y1="1426.62002" x2="2120.73966" y2="1426.62002" stroke="black" stroke-width="6.48"/>
<line x1="2120.73966" y1="1426.62002" x2="2120.73966" y2="1476.172537" stroke="black" stroke-width="6.48"/>
<line x1="2120.73966" y1="1476.172537" x2="2146.135324" y2="1476.172537" stroke="black" stroke-width="6.48"/>
<line x1="2146.135324" y1="1476.172537" x2="2146.135324" y2="1426.62002" stroke="black" stroke-width="6.48"/>
<path d="m 2395.136725,1475.553132 a 248.38199299999997,248.38199299999997 0 0 1 -248.38199299999997,248.38199299999997" fill="none" stroke="black" stroke-width="6.48"/>
<line x1="571.373194" y1="692.136151" x2="964.205194" y2="692.136151" stroke="black" stroke-width="6.48"/>
<line x1="964.205194" y1="692.136151" x2="964.205194" y2="507.600151" stroke="black" stroke-width="6.48"/>
<line x1="964.205194" y1="507.600151" x2="571.373194" y2="507.600151" stroke="black" stroke-width="6.48"/>
<line x1="571.373194" y1="507.600151" x2="571.373194" y2="692.136151" stroke="black" stroke-width="6.48"/>
<line x1="730.565194" y1="507.600151" x2="730.565194" y2="426.816151" stroke="black" stroke-width="6.48"/>
<line x1="730.565194" y1="426.816151" x2="652.157194" y2="426.816151" stroke="black" stroke-width="6.48"/>
<line x1="652.157194" y1="426.816151" x2="652.157194" y2="507.600151" stroke="black" stroke-width="6.48"/>
<line x1="652.949194" y1="444.240151" x2="730.565194" y2="444.240151" stroke="black" stroke-width="6.48"/>
<line x1="652.157194" y1="773.712151" x2="730.565194" y2="773.712151" stroke="black" stroke-width="6.48"/>
<line x1="730.565194" y1="773.712151" x2="730.565194" y2="692.136151" stroke="black" stroke-width="6.48"/>
<line x1="652.157194" y1="692.136151" x2="652.157194" y2="773.712151" stroke="black" stroke-width="6.48"/>
<line x1="652.949194" y1="756.288151" x2="730.565194" y2="756.288151" stroke="black" stroke-width="6.48"/>
<line x1="881.837194" y1="507.600151" x2="881.837194" y2="426.816151" stroke="black" stroke-width="6.48"/>
<line x1="881.837194" y1="426.816151" x2="803.429194" y2="426.816151" stroke="black" stroke-width="6.48"/>
<line x1="803.429194" y1="426.816151" x2="803.429194" y2="507.600151" stroke="black" stroke-width="6.48"/>
<line x1="803.429194" y1="444.240151" x2="881.837194" y2="444.240151" stroke="black" stroke-width="6.48"/>
<line x1="803.429194" y1="773.712151" x2="881.837194" y2="773.712151" stroke="black" stroke-width="6.48"/>
<line x1="881.837194" y1="773.712151" x2="881.837194" y2="692.136151" stroke="black" stroke-width="6.48"/>
<line x1="803.429194" y1="692.136151" x2="803.429194" y2="773.712151" stroke="black" stroke-width="6.48"/>
<line x1="803.429194" y1="756.288151" x2="881.837194" y2="756.288151" stroke="black" stroke-width="6.48"/>
<line x1="1842.844367" y1="1980.876035" x2="2032.924367" y2="1980.876035" stroke="black" stroke-width="6.48"/>
<line x1="2032.924367" y1="1980.876035" x2="2032.924367" y2="1517.080835" stroke="black" stroke-width="6.48"/>
<line x1="2032.924367" y1="1517.080835" x2="1842.844367" y2="1517.080835" stroke="black" stroke-width="6.48"/>
<line x1="1842.844367" y1="1517.080835" x2="1842.844367" y2="1540.840835" stroke="black" stroke-width="6.48"/>
<line x1="1842.844367" y1="1540.840835" x2="2010.114767" y2="1540.840835" stroke="black" stroke-width="6.48"/>
<line x1="2010.114767" y1="1540.840835" x2="2010.114767" y2="1956.165635" stroke="black" stroke-width="6.48"/>
<line x1="2010.114767" y1="1956.165635" x2="1842.844367" y2="1956.165635" stroke="black" stroke-width="6.48"/>
<line x1="1842.844367" y1="1956.165635" x2="1842.844367" y2="1980.876035" stroke="black" stroke-width="6.48"/>
<line x1="1848.546767" y1="1956.165635" x2="1848.546767" y2="1540.840835" stroke="black" stroke-width="6.48"/>
<line x1="1847.596367" y1="1748.978435" x2="2009.164367" y2="1748.978435" stroke="black" stroke-width="6.48"/>
<line x1="1485.415969" y1="209.267824" x2="1707.693134" y2="209.267824" stroke="black" stroke-width="6.48"/>
<line x1="1707.693134" y1="209.267824" x2="1707.693134" y2="432.000475" stroke="black" stroke-width="6.48"/>
<line x1="1707.693134" y1="432.000475" x2="1485.415969" y2="432.000475" stroke="black" stroke-width="6.48"/>
<line x1="1485.415969" y1="432.000475" x2="1485.415969" y2="209.267824" stroke="black" stroke-width="6.48"/>
<line x1="1484.960483" y1="208.812337" x2="1707.693134" y2="432.000475" stroke="black" stroke-width="6.48"/>
<line x1="1485.415969" y1="431.544989" x2="1707.237648" y2="209.267824" stroke="black" stroke-width="6.48"/>
<line x1="2761.020558" y1="2194.614338" x2="2761.020558" y2="1803.366338" stroke="black" stroke-width="6.48"/>
<line x1="2761.020558" y1="1803.366338" x2="2586.780558" y2="1803.366338" stroke="black" stroke-width="6.48"/>
<line x1="2586.780558" y1="1803.366338" x2="2586.780558" y2="2194.614338" stroke="black" stroke-width="6.48"/>
<line x1="2586.780558" y1="2194.614338" x2="2761.020558" y2="2194.614338" stroke="black" stroke-width="6.48"/>
<line x1="2613.708558" y1="1878.606338" x2="2613.708558" y2="2162.934338" stroke="black" stroke-width="6.48"/>
<line x1="2613.708558" y1="2162.934338" x2="2731.716558" y2="2162.934338" stroke="black" stroke-width="6.48"/>
<line x1="2731.716558" y1="2162.934338" x2="2731.716558" y2="1873.062338" stroke="black" stroke-width="6.48"/>
<path d="m 2613.453134,1879.416911 a 63.3599990854681,63.3599990854681 0 0 1 119.3743300000001,-4.293814000000111" fill="none" stroke="black" stroke-width="6.48"/>
<line x1="2105.480574" y1="1865.193138" x2="2105.480574" y2="2048.937138" stroke="black" stroke-width="6.48"/>
<line x1="2105.480574" y1="2048.937138" x2="2056.376574" y2="2048.937138" stroke="black" stroke-width="6.48"/>
<line x1="2056.376574" y1="1865.193138" x2="2056.376574" y2="2048.937138" stroke="black" stroke-width="6.48"/>
<line x1="2105.480574" y1="1865.193138" x2="2056.376574" y2="1865.193138" stroke="black" stroke-width="6.48"/>
<line x1="2133.200574" y1="1906.773138" x2="2105.480574" y2="1906.773138" stroke="black" stroke-width="6.48"/>
<line x1="2105.480574" y1="2005.773138" x2="2134.784574" y2="2005.773138" stroke="black" stroke-width="6.48"/>
<circle cx="2178.344574" cy="1955.481138" r="66.52800000000002" fill="none" stroke="black" stroke-width="6.48"/>
<circle cx="2178.344574" cy="1955.481138" r="57.02400000000001" fill="none" stroke="black" stroke-width="6.48"/>
<line x1="839.602246" y1="210.95843" x2="1232.846118" y2="210.95843" stroke="black" stroke-width="6.48"/>
<line x1="1236.801524" y1="209.962148" x2="1236.801524" y2="346.030924" stroke="black" stroke-width="6.48"/>
<line x1="840.066635" y1="347.18243" x2="1237.106866" y2="347.18243" stroke="black" stroke-width="6.48"/>
<line x1="840.801524" y1="211.65318" x2="840.801524" y2="346.917236" stroke="black" stroke-width="6.48"/>
<line x1="851.097524" y1="222.04643" x2="974.649524" y2="222.04643" stroke="black" stroke-width="6.48"/>
<line x1="974.649524" y1="222.04643" x2="974.649524" y2="336.09443" stroke="black" stroke-width="6.48"/>
<line x1="851.097524" y1="336.09443" x2="974.649524" y2="336.09443" stroke="black" stroke-width="6.48"/>
<line x1="851.097524" y1="222.04643" x2="851.097524" y2="336.09443" stroke="black" stroke-width="6.48"/>
<line x1="993.657524" y1="229.17443" x2="1080.777524" y2="229.17443" stroke="black" stroke-width="6.48"/>
<line x1="993.657524" y1="248.97443" x2="1080.777524" y2="248.97443" stroke="black" stroke-width="6.48"/>
<line x1="994.449524" y1="269.56643" x2="1080.777524" y2="269.56643" stroke="black" stroke-width="6.48"/>
<line x1="994.449524" y1="289.36643" x2="1080.777524" y2="289.36643" stroke="black" stroke-width="6.48"/>
<line x1="993.657524" y1="309.16643" x2="1080.777524" y2="309.16643" stroke="black" stroke-width="6.48"/>
<line x1="993.657524" y1="328.96643" x2="1080.777524" y2="328.96643" stroke="black" stroke-width="6.48"/>
<line x1="898.617524" y1="335.30243" x2="898.617524" y2="321.83843" stroke="black" stroke-width="6.48"/>
<line x1="898.617524" y1="321.83843" x2="928.713524" y2="321.83843" stroke="black" stroke-width="6.48"/>
<line x1="928.713524" y1="321.83843" x2="928.713524" y2="334.51043" stroke="black" stroke-width="6.48"/>
<line x1="1101.369524" y1="222.04643" x2="1224.921524" y2="222.04643" stroke="black" stroke-width="6.48"/>
<line x1="1224.921524" y1="222.04643" x2="1224.921524" y2="336.09443" stroke="black" stroke-width="6.48"/>
<line x1="1101.369524" y1="336.09443" x2="1224.921524" y2="336.09443" stroke="black" stroke-width="6.48"/>
<line x1="1101.369524" y1="222.04643" x2="1101.369524" y2="336.09443" stroke="black" stroke-width="6.48"/>
<line x1="1148.889524" y1="336.09443" x2="1148.889524" y2="322.63043" stroke="black" stroke-width="6.48"/>
<line x1="1148.889524" y1="322.63043" x2="1178.985524" y2="322.63043" stroke="black" stroke-width="6.48"/>
<line x1="1178.985524" y1="322.63043" x2="1178.985524" y2="335.30243" stroke="black" stroke-width="6.48"/>
<circle cx="960.393524" cy="236.30243" r="7.128000000000001" fill="none" stroke="black" stroke-width="6.48"/>
<circle cx="1210.665524" cy="237.09443" r="7.128000000000001" fill="none" stroke="black" stroke-width="6.48"/>
<line x1="785.91793" y1="957.119101" x2="772.208291" y2="1349.711798" stroke="black" stroke-width="6.48"/>
<line x1="772.208291" y1="1349.711798" x2="956.631877" y2="1356.152015" stroke="black" stroke-width="6.48"/>
<line x1="956.631877" y1="1356.152015" x2="970.341516" y2="963.559318" stroke="black" stroke-width="6.48"/>
<line x1="970.341516" y1="963.559318" x2="785.91793" y2="957.119101" stroke="black" stroke-width="6.48"/>
<line x1="964.785794" y1="1122.654341" x2="1045.520582" y2="1125.473663" stroke="black" stroke-width="6.48"/>
<line x1="1045.520582" y1="1125.473663" x2="1048.256982" y2="1047.113424" stroke="black" stroke-width="6.48"/>
<line x1="1048.256982" y1="1047.113424" x2="967.522194" y2="1044.294106" stroke="black" stroke-width="6.48"/>
<line x1="1030.815954" y1="1047.296855" x2="1028.107195" y2="1124.865572" stroke="black" stroke-width="6.48"/>
<line x1="701.572306" y1="1035.00693" x2="698.835902" y2="1113.367165" stroke="black" stroke-width="6.48"/>
<line x1="698.835902" y1="1113.367165" x2="780.362212" y2="1116.214128" stroke="black" stroke-width="6.48"/>
<line x1="783.098611" y1="1037.853889" x2="701.572306" y2="1035.00693" stroke="black" stroke-width="6.48"/>
<line x1="718.958048" y1="1036.406534" x2="716.24929" y2="1113.975256" stroke="black" stroke-width="6.48"/>
<line x1="959.506477" y1="1273.834192" x2="1040.241265" y2="1276.65351" stroke="black" stroke-width="6.48"/>
<line x1="1040.241265" y1="1276.65351" x2="1042.977665" y2="1198.293275" stroke="black" stroke-width="6.48"/>
<line x1="1042.977665" y1="1198.293275" x2="962.242877" y2="1195.473953" stroke="black" stroke-width="6.48"/>
<line x1="1025.564281" y1="1197.685184" x2="1022.827882" y2="1276.045423" stroke="black" stroke-width="6.48"/>
<line x1="696.292988" y1="1186.186777" x2="693.556589" y2="1264.547016" stroke="black" stroke-width="6.48"/>
<line x1="693.556589" y1="1264.547016" x2="775.082894" y2="1267.393975" stroke="black" stroke-width="6.48"/>
<line x1="777.819294" y1="1189.03374" x2="696.292988" y2="1186.186777" stroke="black" stroke-width="6.48"/>
<line x1="713.706368" y1="1186.794868" x2="710.969969" y2="1265.155103" stroke="black" stroke-width="6.48"/>
<line x1="2044.889399" y1="955.822399" x2="2267.166564" y2="955.822399" stroke="black" stroke-width="6.48"/>
<line x1="2267.166564" y1="955.822399" x2="2267.166564" y2="1178.555051" stroke="black" stroke-width="6.48"/>
<line x1="2267.166564" y1="1178.555051" x2="2044.889399" y2="1178.555051" stroke="black" stroke-width="6.48"/>
<line x1="2044.889399" y1="1178.555051" x2="2044.889399" y2="955.822399" stroke="black" stroke-width="6.48"/>
<line x1="2044.433912" y1="955.366913" x2="2267.166564" y2="1178.555051" stroke="black" stroke-width="6.48"/>
<line x1="2044.889399" y1="1178.099564" x2="2266.711078" y2="955.822399" stroke="black" stroke-width="6.48"/>
<line x1="323.258818" y1="1375.374532" x2="323.258818" y2="949.841089" stroke="black" stroke-width="6.48"/>
<line x1="323.258818" y1="949.841089" x2="257.659344" y2="949.841089" stroke="black" stroke-width="6.48"/>
<line x1="257.659344" y1="949.841089" x2="257.659344" y2="1375.374532" stroke="black" stroke-width="6.48"/>
<line x1="257.659344" y1="1375.374532" x2="323.258818" y2="1375.374532" stroke="black" stroke-width="6.48"/>
<line x1="258.522494" y1="1335.669588" x2="322.395667" y2="1335.669588" stroke="black" stroke-width="6.48"/>
<line x1="258.522494" y1="990.409187" x2="324.985122" y2="990.409187" stroke="black" stroke-width="6.48"/>
<line x1="288.73278" y1="1336.532738" x2="288.73278" y2="991.272337" stroke="black" stroke-width="6.48"/>
<line x1="3874.406537" y1="1514.726719" x2="3874.406537" y2="1940.260162" stroke="black" stroke-width="6.48"/>
<line x1="3874.406537" y1="1940.260162" x2="3940.00601" y2="1940.260162" stroke="black" stroke-width="6.48"/>
<line x1="3940.00601" y1="1940.260162" x2="3940.00601" y2="1514.726719" stroke="black" stroke-width="6.48"/>
<line x1="3940.00601" y1="1514.726719" x2="3874.406537" y2="1514.726719" stroke="black" stroke-width="6.48"/>
<line x1="3939.14286" y1="1554.431663" x2="3875.269687" y2="1554.431663" stroke="black" stroke-width="6.48"/>
<line x1="3939.14286" y1="1899.692064" x2="3872.680232" y2="1899.692064" stroke="black" stroke-width="6.48"/>
<line x1="3908.932574" y1="1553.568512" x2="3908.932574" y2="1898.828914" stroke="black" stroke-width="6.48"/>
<line x1="5242.015728" y1="2195.84394" x2="5228.306089" y2="1803.251243" stroke="black" stroke-width="6.48"/>
<line x1="5228.306089" y1="1803.251243" x2="5043.882503" y2="1809.691459" stroke="black" stroke-width="6.48"/>
<line x1="5043.882503" y1="1809.691459" x2="5057.592142" y2="2202.284156" stroke="black" stroke-width="6.48"/>
<line x1="5057.592142" y1="2202.284156" x2="5242.015728" y2="2195.84394" stroke="black" stroke-width="6.48"/>
<line x1="5052.036424" y1="2043.18913" x2="4971.301636" y2="2046.008452" stroke="black" stroke-width="6.48"/>
<line x1="4971.301636" y1="2046.008452" x2="4974.038035" y2="2124.36869" stroke="black" stroke-width="6.48"/>
<line x1="4974.038035" y1="2124.36869" x2="5054.772823" y2="2121.549368" stroke="black" stroke-width="6.48"/>
<line x1="4991.423782" y1="2122.969082" x2="4988.715019" y2="2045.400361" stroke="black" stroke-width="6.48"/>
<line x1="5320.722712" y1="2112.262193" x2="5317.986312" y2="2033.901954" stroke="black" stroke-width="6.48"/>
<line x1="5317.986312" y1="2033.901954" x2="5236.460006" y2="2036.748917" stroke="black" stroke-width="6.48"/>
<line x1="5239.196406" y1="2115.109152" x2="5320.722712" y2="2112.262193" stroke="black" stroke-width="6.48"/>
<line x1="5303.281691" y1="2112.078762" x2="5300.572928" y2="2034.510044" stroke="black" stroke-width="6.48"/>
<line x1="5046.757106" y1="1892.009282" x2="4966.022318" y2="1894.828604" stroke="black" stroke-width="6.48"/>
<line x1="4966.022318" y1="1894.828604" x2="4968.758718" y2="1973.18884" stroke="black" stroke-width="6.48"/>
<line x1="4968.758718" y1="1973.18884" x2="5049.493506" y2="1970.369518" stroke="black" stroke-width="6.48"/>
<line x1="4986.172105" y1="1972.580749" x2="4983.435706" y2="1894.220514" stroke="black" stroke-width="6.48"/>
<line x1="5315.443394" y1="1961.082342" x2="5312.706995" y2="1882.722107" stroke="black" stroke-width="6.48"/>
<line x1="5312.706995" y1="1882.722107" x2="5231.180689" y2="1885.569066" stroke="black" stroke-width="6.48"/>
<line x1="5233.917089" y1="1963.929305" x2="5315.443394" y2="1961.082342" stroke="black" stroke-width="6.48"/>
<line x1="5298.030011" y1="1961.690432" x2="5295.293611" y2="1883.330194" stroke="black" stroke-width="6.48"/>
<line x1="3174.258481" y1="1074.547512" x2="3383.623685" y2="1074.547512" stroke="black" stroke-width="6.48"/>
<line x1="3383.623685" y1="1074.547512" x2="3383.623685" y2="743.333108" stroke="black" stroke-width="6.48"/>
<line x1="3383.623685" y1="743.333108" x2="3174.258481" y2="743.333108" stroke="black" stroke-width="6.48"/>
<line x1="3174.258481" y1="743.333108" x2="3174.258481" y2="1074.547512" stroke="black" stroke-width="6.48"/>
<line x1="3173.585281" y1="802.574708" x2="3384.296881" y2="802.574708" stroke="black" stroke-width="6.48"/>
<line x1="3384.296881" y1="802.574708" x2="3174.931681" y2="852.391512" stroke="black" stroke-width="6.48"/>
<line x1="3174.931681" y1="852.391512" x2="3206.572085" y2="898.842312" stroke="black" stroke-width="6.48"/>
<line x1="3206.572085" y1="898.842312" x2="3384.296881" y2="801.901512" stroke="black" stroke-width="6.48"/>
<line x1="3536.586252" y1="1202.621573" x2="3758.863417" y2="1202.621573" stroke="black" stroke-width="6.48"/>
<line x1="3758.863417" y1="1202.621573" x2="3758.863417" y2="1425.354224" stroke="black" stroke-width="6.48"/>
<line x1="3758.863417" y1="1425.354224" x2="3536.586252" y2="1425.354224" stroke="black" stroke-width="6.48"/>
<line x1="3536.586252" y1="1425.354224" x2="3536.586252" y2="1202.621573" stroke="black" stroke-width="6.48"/>
<line x1="3536.130766" y1="1202.166086" x2="3758.863417" y2="1425.354224" stroke="black" stroke-width="6.48"/>
<line x1="3536.586252" y1="1424.898738" x2="3758.407931" y2="1202.621573" stroke="black" stroke-width="6.48"/>
<line x1="2804.16708" y1="1127.69402" x2="2804.16708" y2="1153.148746" stroke="black" stroke-width="6.48"/>
<line x1="2804.16708" y1="1153.148746" x2="2853.834836" y2="1153.148746" stroke="black" stroke-width="6.48"/>
<line x1="2853.834836" y1="1153.148746" x2="2853.834836" y2="1127.69402" stroke="black" stroke-width="6.48"/>
<line x1="2853.834836" y1="1127.69402" x2="2804.16708" y2="1127.69402" stroke="black" stroke-width="6.48"/>
<line x1="2853.834836" y1="1402.108373" x2="3101.55277" y2="1402.108373" stroke="black" stroke-width="6.48"/>
<line x1="2802.925386" y1="1402.729218" x2="2802.925386" y2="1428.183943" stroke="black" stroke-width="6.48"/>
<line x1="2802.925386" y1="1428.183943" x2="2852.593142" y2="1428.183943" stroke="black" stroke-width="6.48"/>
<line x1="2852.593142" y1="1428.183943" x2="2852.593142" y2="1402.729218" stroke="black" stroke-width="6.48"/>
<line x1="2852.593142" y1="1402.729218" x2="2802.925386" y2="1402.729218" stroke="black" stroke-width="6.48"/>
<path d="m 2851.972294,1153.148746 a 248.95962699999984,248.95962699999984 0 0 1 248.95962699999973,248.95962699999995" fill="none" stroke="black" stroke-width="6.48"/>
<line x1="3494.400595" y1="1956.22812" x2="3392.743378" y2="1747.799935" stroke="black" stroke-width="6.48"/>
<line x1="3392.743378" y1="1747.799935" x2="3601.59867" y2="1645.934407" stroke="black" stroke-width="6.48"/>
<line x1="3601.59867" y1="1645.934407" x2="3703.255884" y2="1854.362588" stroke="black" stroke-width="6.48"/>
<line x1="3703.255884" y1="1854.362588" x2="3494.400595" y2="1956.22812" stroke="black" stroke-width="6.48"/>
<line x1="3494.181805" y1="1956.863542" x2="3601.59867" y2="1645.934407" stroke="black" stroke-width="6.48"/>
<line x1="3702.82878" y1="1854.570899" x2="3392.951692" y2="1748.227043" stroke="black" stroke-width="6.48"/>
<line x1="3089.601562" y1="1589.315879" x2="3074.626764" y2="1616.331136" stroke="black" stroke-width="6.48"/>
<line x1="3074.626764" y1="1616.331136" x2="3257.914867" y2="1717.929389" stroke="black" stroke-width="6.48"/>
<line x1="3257.914867" y1="1717.929389" x2="3272.889668" y2="1690.914139" stroke="black" stroke-width="6.48"/>
<line x1="3272.889668" y1="1690.914139" x2="3089.601562" y2="1589.315879" stroke="black" stroke-width="6.48"/>
<line x1="2990.767882" y1="1767.616553" x2="2975.793084" y2="1794.63181" stroke="black" stroke-width="6.48"/>
<line x1="2975.793084" y1="1794.63181" x2="3159.081187" y2="1896.230063" stroke="black" stroke-width="6.48"/>
<line x1="3159.081187" y1="1896.230063" x2="3174.055988" y2="1869.21481" stroke="black" stroke-width="6.48"/>
<line x1="3174.055988" y1="1869.21481" x2="2990.767882" y2="1767.616553" stroke="black" stroke-width="6.48"/>
<line x1="3074.857146" y1="1615.915516" x2="2990.767882" y2="1767.616553" stroke="black" stroke-width="6.48"/>
<line x1="3257.544391" y1="1716.637388" x2="3267.502088" y2="1752.583054" stroke="black" stroke-width="6.48"/>
<line x1="3208.754794" y1="1858.56597" x2="3172.99437" y2="1869.169666" stroke="black" stroke-width="6.48"/>
<line x1="3268.423613" y1="1750.920577" x2="3207.833273" y2="1860.22845" stroke="black" stroke-width="6.48"/>
<line x1="3113.694976" y1="1637.987" x2="3029.605718" y2="1789.688038" stroke="black" stroke-width="6.48"/>
<line x1="2291.473764" y1="2042.670107" x2="2522.101" y2="2066.910062" stroke="black" stroke-width="6.48"/>
<line x1="2522.101" y1="2066.910062" x2="2497.811371" y2="2298.009895" stroke="black" stroke-width="6.48"/>
<line x1="2497.811371" y1="2298.009895" x2="2267.184136" y2="2273.769936" stroke="black" stroke-width="6.48"/>
<line x1="2267.184136" y1="2273.769936" x2="2291.473764" y2="2042.670107" stroke="black" stroke-width="6.48"/>
<line x1="2291.05084" y1="2042.147837" x2="2497.811371" y2="2298.009895" stroke="black" stroke-width="6.48"/>
<line x1="2267.233808" y1="2273.297339" x2="2521.628402" y2="2066.86039" stroke="black" stroke-width="6.48"/>
<line x1="6179.81809" y1="1679.911909" x2="5990.201114" y2="1666.652598" stroke="black" stroke-width="6.48"/>
<line x1="5990.201114" y1="1666.652598" x2="5957.848393" y2="2129.318017" stroke="black" stroke-width="6.48"/>
<line x1="5957.848393" y1="2129.318017" x2="6147.465372" y2="2142.577328" stroke="black" stroke-width="6.48"/>
<line x1="6147.465372" y1="2142.577328" x2="6149.122787" y2="2118.875206" stroke="black" stroke-width="6.48"/>
<line x1="6149.122787" y1="2118.875206" x2="5982.259846" y2="2107.207012" stroke="black" stroke-width="6.48"/>
<line x1="5982.259846" y1="2107.207012" x2="6011.23144" y2="1692.893923" stroke="black" stroke-width="6.48"/>
<line x1="6011.23144" y1="1692.893923" x2="6178.094381" y2="1704.562117" stroke="black" stroke-width="6.48"/>
<line x1="6178.094381" y1="1704.562117" x2="6179.81809" y2="1679.911909" stroke="black" stroke-width="6.48"/>
<line x1="6172.40587" y1="1704.164335" x2="6143.434276" y2="2118.477427" stroke="black" stroke-width="6.48"/>
<line x1="6158.901305" y1="1910.913134" x2="5997.726878" y2="1899.642722" stroke="black" stroke-width="6.48"/>
<line x1="1287.866581" y1="1934.725806" x2="1304.234719" y2="1960.920324" stroke="black" stroke-width="6.48"/>
<line x1="1304.234719" y1="1960.920324" x2="1481.954418" y2="1849.868791" stroke="black" stroke-width="6.48"/>
<line x1="1481.954418" y1="1849.868791" x2="1465.58628" y2="1823.674277" stroke="black" stroke-width="6.48"/>
<line x1="1465.58628" y1="1823.674277" x2="1287.866581" y2="1934.725806" stroke="black" stroke-width="6.48"/>
<line x1="1395.896299" y1="2107.6096" x2="1412.264441" y2="2133.804114" stroke="black" stroke-width="6.48"/>
<line x1="1412.264441" y1="2133.804114" x2="1589.984143" y2="2022.752581" stroke="black" stroke-width="6.48"/>
<line x1="1589.984143" y1="2022.752581" x2="1573.616002" y2="1996.558067" stroke="black" stroke-width="6.48"/>
<line x1="1573.616002" y1="1996.558067" x2="1395.896299" y2="2107.6096" stroke="black" stroke-width="6.48"/>
<line x1="1303.982903" y1="1960.517329" x2="1395.896299" y2="2107.6096" stroke="black" stroke-width="6.48"/>
<line x1="1480.644799" y1="1849.566442" x2="1516.91117" y2="1858.284058" stroke="black" stroke-width="6.48"/>
<line x1="1581.12464" y1="1961.047148" x2="1573.061836" y2="1997.464694" stroke="black" stroke-width="6.48"/>
<line x1="1515.903894" y1="1856.672089" x2="1582.131913" y2="1962.65912" stroke="black" stroke-width="6.48"/>
<line x1="1342.116014" y1="1937.249478" x2="1434.029414" y2="2084.341745" stroke="black" stroke-width="6.48"/>
<line x1="3840.070216" y1="1109.27808" x2="3832.075814" y2="1079.442565" stroke="black" stroke-width="6.48"/>
<line x1="3832.075814" y1="1079.442565" x2="3629.653304" y2="1133.681512" stroke="black" stroke-width="6.48"/>
<line x1="3629.653304" y1="1133.681512" x2="3637.647706" y2="1163.517026" stroke="black" stroke-width="6.48"/>
<line x1="3637.647706" y1="1163.517026" x2="3840.070216" y2="1109.27808" stroke="black" stroke-width="6.48"/>
<line x1="3787.307158" y1="912.363671" x2="3779.312753" y2="882.528149" stroke="black" stroke-width="6.48"/>
<line x1="3779.312753" y1="882.528149" x2="3576.890246" y2="936.767099" stroke="black" stroke-width="6.48"/>
<line x1="3576.890246" y1="936.767099" x2="3584.884651" y2="966.602617" stroke="black" stroke-width="6.48"/>
<line x1="3584.884651" y1="966.602617" x2="3787.307158" y2="912.363671" stroke="black" stroke-width="6.48"/>
<line x1="3832.198805" y1="1079.901572" x2="3787.307158" y2="912.363671" stroke="black" stroke-width="6.48"/>
<line x1="3630.817303" y1="1134.353542" x2="3598.68438" y2="1115.413596" stroke="black" stroke-width="6.48"/>
<line x1="3567.32172" y1="998.366566" x2="3585.679675" y2="965.897626" stroke="black" stroke-width="6.48"/>
<line x1="3599.176342" y1="1117.249625" x2="3566.829758" y2="996.530533" stroke="black" stroke-width="6.48"/>
<line x1="3788.929062" y1="1091.003699" x2="3744.037418" y2="923.465797" stroke="black" stroke-width="6.48"/>
<line x1="518.903892" y1="209.019737" x2="789.451092" y2="209.019737" stroke="black" stroke-width="6.48"/>
<line x1="789.451092" y1="209.019737" x2="789.451092" y2="340.966937" stroke="black" stroke-width="6.48"/>
<line x1="518.903892" y1="340.966937" x2="789.451092" y2="340.966937" stroke="black" stroke-width="6.48"/>
<line x1="518.903892" y1="209.019737" x2="518.903892" y2="340.966937" stroke="black" stroke-width="6.48"/>
<line x1="525.556692" y1="215.672537" x2="663.602292" y2="215.672537" stroke="black" stroke-width="6.48"/>
<line x1="663.602292" y1="215.672537" x2="663.602292" y2="333.759737" stroke="black" stroke-width="6.48"/>
<line x1="525.556692" y1="333.759737" x2="663.602292" y2="333.759737" stroke="black" stroke-width="6.48"/>
<line x1="525.556692" y1="215.672537" x2="525.556692" y2="333.759737" stroke="black" stroke-width="6.48"/>
<line x1="678.016692" y1="223.434137" x2="775.036692" y2="223.434137" stroke="black" stroke-width="6.48"/>
<line x1="678.016692" y1="243.946937" x2="775.036692" y2="243.946937" stroke="black" stroke-width="6.48"/>
<line x1="678.571092" y1="265.014137" x2="775.591092" y2="265.014137" stroke="black" stroke-width="6.48"/>
<line x1="678.571092" y1="285.526937" x2="775.591092" y2="285.526937" stroke="black" stroke-width="6.48"/>
<line x1="678.016692" y1="306.039737" x2="775.036692" y2="306.039737" stroke="black" stroke-width="6.48"/>
<line x1="678.016692" y1="326.552537" x2="775.036692" y2="326.552537" stroke="black" stroke-width="6.48"/>
<line x1="578.224692" y1="333.759737" x2="578.224692" y2="319.899737" stroke="black" stroke-width="6.48"/>
<line x1="578.224692" y1="319.899737" x2="612.597492" y2="319.899737" stroke="black" stroke-width="6.48"/>
<line x1="612.597492" y1="319.899737" x2="612.597492" y2="333.205337" stroke="black" stroke-width="6.48"/>
<circle cx="648.079092" cy="230.641337" r="8.316000000000003" fill="none" stroke="black" stroke-width="6.48"/>
<line x1="5708.666131" y1="1490.058857" x2="5708.666131" y2="1520.946857" stroke="black" stroke-width="6.48"/>
<line x1="5708.666131" y1="1520.946857" x2="5918.229331" y2="1520.946857" stroke="black" stroke-width="6.48"/>
<line x1="5918.229331" y1="1520.946857" x2="5918.229331" y2="1490.058857" stroke="black" stroke-width="6.48"/>
<line x1="5918.229331" y1="1490.058857" x2="5708.666131" y2="1490.058857" stroke="black" stroke-width="6.48"/>
<line x1="5708.666131" y1="1693.919657" x2="5708.666131" y2="1724.807657" stroke="black" stroke-width="6.48"/>
<line x1="5708.666131" y1="1724.807657" x2="5918.229331" y2="1724.807657" stroke="black" stroke-width="6.48"/>
<line x1="5918.229331" y1="1724.807657" x2="5918.229331" y2="1693.919657" stroke="black" stroke-width="6.48"/>
<line x1="5918.229331" y1="1693.919657" x2="5708.666131" y2="1693.919657" stroke="black" stroke-width="6.48"/>
<line x1="5708.666131" y1="1520.471657" x2="5708.666131" y2="1693.919657" stroke="black" stroke-width="6.48"/>
<line x1="5917.278931" y1="1519.996457" x2="5943.414931" y2="1546.607657" stroke="black" stroke-width="6.48"/>
<line x1="5943.414931" y1="1667.783657" x2="5917.278931" y2="1694.394857" stroke="black" stroke-width="6.48"/>
<line x1="5943.414931" y1="1544.706857" x2="5943.414931" y2="1669.684457" stroke="black" stroke-width="6.48"/>
<line x1="5753.334931" y1="1520.946857" x2="5753.334931" y2="1694.394857" stroke="black" stroke-width="6.48"/>
</g>
</svg>
