<?xml version="1.0"?>
<svg xmlns:xlink="http://www.w3.org/1999/xlink" width="6775.2" height="2858.4">
<image x="0" y="0" width="6775.2" height="2858.4" xlink:href="groundfilled-01.png"/>
<g style="stroke-linecap:round">
<line x1="1285.950406" y1="795.178109" x2="1311.346069" y2="795.178109" stroke="black" stroke-width="6.48"/>
<line x1="1311.346069" y1="795.178109" x2="1311.346069" y2="745.625592" stroke="black" stroke-width="6.48"/>
<line x1="1311.346069" y1="745.625592" x2="1285.950406" y2="745.625592" stroke="black" stroke-width="6.48"/>
<line x1="1285.950406" y1="745.625592" x2="1285.950406" y2="795.178109" stroke="black" stroke-width="6.48"/>
<line x1="1559.728062" y1="745.625592" x2="1559.728062" y2="498.48241" stroke="black" stroke-width="6.48"/>
<line x1="1560.347471" y1="796.416923" x2="1585.743134" y2="796.416923" stroke="black" stroke-width="6.48"/>
<line x1="1585.743134" y1="796.416923" x2="1585.743134" y2="746.864406" stroke="black" stroke-width="6.48"/>
<line x1="1585.743134" y1="746.864406" x2="1560.347471" y2="746.864406" stroke="black" stroke-width="6.48"/>
<line x1="1560.347471" y1="746.864406" x2="1560.347471" y2="796.416923" stroke="black" stroke-width="6.48"/>
<path d="m 1311.346069,747.483811 a 248.38199299999997,248.38199299999997 0 0 1 248.38199299999997,-248.38199299999997" fill="none" stroke="black" stroke-width="6.48"/>
<line x1="330.523178" y1="771.328966" x2="330.523178" y2="366.748985" stroke="black" stroke-width="6.48"/>
<line x1="330.523178" y1="366.748985" x2="258.15928" y2="366.748985" stroke="black" stroke-width="6.48"/>
<line x1="258.15928" y1="366.748985" x2="258.15928" y2="771.328966" stroke="black" stroke-width="6.48"/>
<line x1="258.15928" y1="771.328966" x2="330.523178" y2="771.328966" stroke="black" stroke-width="6.48"/>
<line x1="330.523178" y1="752.415674" x2="355.19269" y2="752.415674" stroke="black" stroke-width="6.48"/>
<line x1="355.19269" y1="752.415674" x2="355.19269" y2="386.484595" stroke="black" stroke-width="6.48"/>
<line x1="330.523178" y1="386.484595" x2="355.19269" y2="386.484595" stroke="black" stroke-width="6.48"/>
<line x1="3901.945176" y1="1169.331426" x2="3901.945176" y2="1428.837066" stroke="black" stroke-width="6.48"/>
<line x1="3901.945176" y1="1428.837066" x2="3941.9501" y2="1428.837066" stroke="black" stroke-width="6.48"/>
<line x1="3941.9501" y1="1428.837066" x2="3941.9501" y2="1169.331426" stroke="black" stroke-width="6.48"/>
<line x1="3941.9501" y1="1169.331426" x2="3901.945176" y2="1169.331426" stroke="black" stroke-width="6.48"/>
<line x1="3941.423719" y1="1193.544936" x2="3902.471557" y2="1193.544936" stroke="black" stroke-width="6.48"/>
<line x1="3941.423719" y1="1404.097178" x2="3900.892414" y2="1404.097178" stroke="black" stroke-width="6.48"/>
<line x1="3923.000399" y1="1193.018555" x2="3923.000399" y2="1403.570797" stroke="black" stroke-width="6.48"/>
<line x1="323.923298" y1="1882.957399" x2="323.923298" y2="1457.423957" stroke="black" stroke-width="6.48"/>
<line x1="323.923298" y1="1457.423957" x2="258.323825" y2="1457.423957" stroke="black" stroke-width="6.48"/>
<line x1="258.323825" y1="1457.423957" x2="258.323825" y2="1882.957399" stroke="black" stroke-width="6.48"/>
<line x1="258.323825" y1="1882.957399" x2="323.923298" y2="1882.957399" stroke="black" stroke-width="6.48"/>
<line x1="259.186975" y1="1843.252456" x2="323.060148" y2="1843.252456" stroke="black" stroke-width="6.48"/>
<line x1="259.186975" y1="1497.992054" x2="325.649603" y2="1497.992054" stroke="black" stroke-width="6.48"/>
<line x1="289.397261" y1="1844.115606" x2="289.397261" y2="1498.855205" stroke="black" stroke-width="6.48"/>
<line x1="2747.905531" y1="904.670665" x2="2721.68303" y2="904.670665" stroke="black" stroke-width="6.48"/>
<line x1="2721.68303" y1="904.670665" x2="2721.68303" y2="955.836522" stroke="black" stroke-width="6.48"/>
<line x1="2721.68303" y1="955.836522" x2="2747.905531" y2="955.836522" stroke="black" stroke-width="6.48"/>
<line x1="2747.905531" y1="955.836522" x2="2747.905531" y2="904.670665" stroke="black" stroke-width="6.48"/>
<line x1="2465.214181" y1="955.836522" x2="2465.214181" y2="1211.026223" stroke="black" stroke-width="6.48"/>
<line x1="2464.574609" y1="903.39152" x2="2438.352108" y2="903.39152" stroke="black" stroke-width="6.48"/>
<line x1="2438.352108" y1="903.39152" x2="2438.352108" y2="954.557374" stroke="black" stroke-width="6.48"/>
<line x1="2438.352108" y1="954.557374" x2="2464.574609" y2="954.557374" stroke="black" stroke-width="6.48"/>
<line x1="2464.574609" y1="954.557374" x2="2464.574609" y2="903.39152" stroke="black" stroke-width="6.48"/>
<path d="m 2721.68303,953.917801 a 256.4688490000001,256.4688490000001 0 0 1 -256.4688490000003,256.46884899999986" fill="none" stroke="black" stroke-width="6.48"/>
<line x1="2420.532389" y1="1427.858834" x2="2395.136725" y2="1427.858834" stroke="black" stroke-width="6.48"/>
<line x1="2395.136725" y1="1427.858834" x2="2395.136725" y2="1477.411351" stroke="black" stroke-width="6.48"/>
<line x1="2395.136725" y1="1477.411351" x2="2420.532389" y2="1477.411351" stroke="black" stroke-width="6.48"/>
<line x1="2420.532389" y1="1477.411351" x2="2420.532389" y2="1427.858834" stroke="black" stroke-width="6.48"/>
<line x1="2146.754732" y1="1477.411351" x2="2146.754732" y2="1724.554534" stroke="black" stroke-width="6.48"/>
<line x1="2146.135324" y1="1426.62002" x2="2120.73966" y2="1426.62002" stroke="black" stroke-width="6.48"/>
<line x1="2120.73966" y1="1426.62002" x2="2120.73966" y2="1476.172537" stroke="black" stroke-width="6.48"/>
<line x1="2120.73966" y1="1476.172537" x2="2146.135324" y2="1476.172537" stroke="black" stroke-width="6.48"/>
<line x1="2146.135324" y1="1476.172537" x2="2146.135324" y2="1426.62002" stroke="black" stroke-width="6.48"/>
<path d="m 2395.136725,1475.553132 a 248.38199299999997,248.38199299999997 0 0 1 -248.38199299999997,248.38199299999997" fill="none" stroke="black" stroke-width="6.48"/>
<line x1="587.940397" y1="692.136151" x2="980.772397" y2="692.136151" stroke="black" stroke-width="6.48"/>
<line x1="980.772397" y1="692.136151" x2="980.772397" y2="507.600151" stroke="black" stroke-width="6.48"/>
<line x1="980.772397" y1="507.600151" x2="587.940397" y2="507.600151" stroke="black" stroke-width="6.48"/>
<line x1="587.940397" y1="507.600151" x2="587.940397" y2="692.136151" stroke="black" stroke-width="6.48"/>
<line x1="747.132397" y1="507.600151" x2="747.132397" y2="426.816151" stroke="black" stroke-width="6.48"/>
<line x1="747.132397" y1="426.816151" x2="668.724397" y2="426.816151" stroke="black" stroke-width="6.48"/>
<line x1="668.724397" y1="426.816151" x2="668.724397" y2="507.600151" stroke="black" stroke-width="6.48"/>
<line x1="669.516397" y1="444.240151" x2="747.132397" y2="444.240151" stroke="black" stroke-width="6.48"/>
<line x1="668.724397" y1="773.712151" x2="747.132397" y2="773.712151" stroke="black" stroke-width="6.48"/>
<line x1="747.132397" y1="773.712151" x2="747.132397" y2="692.136151" stroke="black" stroke-width="6.48"/>
<line x1="668.724397" y1="692.136151" x2="668.724397" y2="773.712151" stroke="black" stroke-width="6.48"/>
<line x1="669.516397" y1="756.288151" x2="747.132397" y2="756.288151" stroke="black" stroke-width="6.48"/>
<line x1="898.404397" y1="507.600151" x2="898.404397" y2="426.816151" stroke="black" stroke-width="6.48"/>
<line x1="898.404397" y1="426.816151" x2="819.996397" y2="426.816151" stroke="black" stroke-width="6.48"/>
<line x1="819.996397" y1="426.816151" x2="819.996397" y2="507.600151" stroke="black" stroke-width="6.48"/>
<line x1="819.996397" y1="444.240151" x2="898.404397" y2="444.240151" stroke="black" stroke-width="6.48"/>
<line x1="819.996397" y1="773.712151" x2="898.404397" y2="773.712151" stroke="black" stroke-width="6.48"/>
<line x1="898.404397" y1="773.712151" x2="898.404397" y2="692.136151" stroke="black" stroke-width="6.48"/>
<line x1="819.996397" y1="692.136151" x2="819.996397" y2="773.712151" stroke="black" stroke-width="6.48"/>
<line x1="819.996397" y1="756.288151" x2="898.404397" y2="756.288151" stroke="black" stroke-width="6.48"/>
<line x1="2032.924367" y1="1852.550323" x2="2032.924367" y2="1643.462323" stroke="black" stroke-width="6.48"/>
<line x1="2032.924367" y1="1643.462323" x2="1801.026767" y2="1643.462323" stroke="black" stroke-width="6.48"/>
<line x1="1801.026767" y1="1643.462323" x2="1801.026767" y2="1852.550323" stroke="black" stroke-width="6.48"/>
<line x1="1801.026767" y1="1852.550323" x2="2032.924367" y2="1852.550323" stroke="black" stroke-width="6.48"/>
<line x1="2000.610767" y1="1852.550323" x2="2000.610767" y2="1643.462323" stroke="black" stroke-width="6.48"/>
<line x1="1485.415969" y1="209.267824" x2="1707.693134" y2="209.267824" stroke="black" stroke-width="6.48"/>
<line x1="1707.693134" y1="209.267824" x2="1707.693134" y2="432.000475" stroke="black" stroke-width="6.48"/>
<line x1="1707.693134" y1="432.000475" x2="1485.415969" y2="432.000475" stroke="black" stroke-width="6.48"/>
<line x1="1485.415969" y1="432.000475" x2="1485.415969" y2="209.267824" stroke="black" stroke-width="6.48"/>
<line x1="1484.960483" y1="208.812337" x2="1707.693134" y2="432.000475" stroke="black" stroke-width="6.48"/>
<line x1="1485.415969" y1="431.544989" x2="1707.237648" y2="209.267824" stroke="black" stroke-width="6.48"/>
<line x1="2586.780558" y1="1803.366338" x2="2586.780558" y2="2194.614338" stroke="black" stroke-width="6.48"/>
<line x1="2586.780558" y1="2194.614338" x2="2761.020558" y2="2194.614338" stroke="black" stroke-width="6.48"/>
<line x1="2761.020558" y1="2194.614338" x2="2761.020558" y2="1803.366338" stroke="black" stroke-width="6.48"/>
<line x1="2761.020558" y1="1803.366338" x2="2586.780558" y2="1803.366338" stroke="black" stroke-width="6.48"/>
<line x1="2734.092558" y1="2119.374338" x2="2734.092558" y2="1835.046338" stroke="black" stroke-width="6.48"/>
<line x1="2734.092558" y1="1835.046338" x2="2616.084558" y2="1835.046338" stroke="black" stroke-width="6.48"/>
<line x1="2616.084558" y1="1835.046338" x2="2616.084558" y2="2124.918338" stroke="black" stroke-width="6.48"/>
<path d="m 2734.347982,2118.563766 a 63.35999941905905,63.35999941905905 0 0 1 -119.37432999999965,4.2938139999996565" fill="none" stroke="black" stroke-width="6.48"/>
<line x1="2081.329542" y1="1915.714807" x2="2056.777542" y2="1934.326807" stroke="black" stroke-width="6.48"/>
<line x1="2056.777542" y1="1934.326807" x2="2056.777542" y2="2081.638807" stroke="black" stroke-width="6.48"/>
<line x1="2056.777542" y1="2081.638807" x2="2084.893542" y2="2100.646807" stroke="black" stroke-width="6.48"/>
<line x1="2084.101542" y1="1937.494807" x2="2084.101542" y2="2080.450807" stroke="black" stroke-width="6.48"/>
<circle cx="2105.881542" cy="2006.794807" r="13.068000000000003" fill="none" stroke="black" stroke-width="6.48"/>
<path d="m 2083.434196,1939.04806 a 74.8440000678094,74.8440000678094 0 1 1 0.40204799999992247,139.6090039999999" fill="none" stroke="black" stroke-width="6.48"/>
<path d="m 2080.672178,1915.76111 a 95.43599931860243,95.43599931860243 0 1 1 3.0749580000001515,184.4669960000001" fill="none" stroke="black" stroke-width="6.48"/>
<line x1="897.439338" y1="209.945254" x2="1167.986538" y2="209.945254" stroke="black" stroke-width="6.48"/>
<line x1="1167.986538" y1="209.945254" x2="1167.986538" y2="341.892454" stroke="black" stroke-width="6.48"/>
<line x1="897.439338" y1="341.892454" x2="1167.986538" y2="341.892454" stroke="black" stroke-width="6.48"/>
<line x1="897.439338" y1="209.945254" x2="897.439338" y2="341.892454" stroke="black" stroke-width="6.48"/>
<line x1="904.092138" y1="216.598054" x2="1042.137738" y2="216.598054" stroke="black" stroke-width="6.48"/>
<line x1="1042.137738" y1="216.598054" x2="1042.137738" y2="334.685254" stroke="black" stroke-width="6.48"/>
<line x1="904.092138" y1="334.685254" x2="1042.137738" y2="334.685254" stroke="black" stroke-width="6.48"/>
<line x1="904.092138" y1="216.598054" x2="904.092138" y2="334.685254" stroke="black" stroke-width="6.48"/>
<line x1="1056.552138" y1="224.359654" x2="1153.572138" y2="224.359654" stroke="black" stroke-width="6.48"/>
<line x1="1056.552138" y1="244.872454" x2="1153.572138" y2="244.872454" stroke="black" stroke-width="6.48"/>
<line x1="1057.106538" y1="265.939654" x2="1154.126538" y2="265.939654" stroke="black" stroke-width="6.48"/>
<line x1="1057.106538" y1="286.452454" x2="1154.126538" y2="286.452454" stroke="black" stroke-width="6.48"/>
<line x1="1056.552138" y1="306.965254" x2="1153.572138" y2="306.965254" stroke="black" stroke-width="6.48"/>
<line x1="1056.552138" y1="327.478054" x2="1153.572138" y2="327.478054" stroke="black" stroke-width="6.48"/>
<line x1="956.760138" y1="334.685254" x2="956.760138" y2="320.825254" stroke="black" stroke-width="6.48"/>
<line x1="956.760138" y1="320.825254" x2="991.132938" y2="320.825254" stroke="black" stroke-width="6.48"/>
<line x1="991.132938" y1="320.825254" x2="991.132938" y2="334.130854" stroke="black" stroke-width="6.48"/>
<circle cx="1026.614538" cy="231.566854" r="8.316000000000003" fill="none" stroke="black" stroke-width="6.48"/>
<line x1="1071.615539" y1="1142.463798" x2="989.941172" y2="1526.711479" stroke="black" stroke-width="6.48"/>
<line x1="989.941172" y1="1526.711479" x2="1170.444618" y2="1565.07867" stroke="black" stroke-width="6.48"/>
<line x1="1170.444618" y1="1565.07867" x2="1252.118984" y2="1180.830992" stroke="black" stroke-width="6.48"/>
<line x1="1252.118984" y1="1180.830992" x2="1071.615539" y2="1142.463798" stroke="black" stroke-width="6.48"/>
<line x1="1219.021106" y1="1336.544266" x2="1298.039782" y2="1353.340202" stroke="black" stroke-width="6.48"/>
<line x1="1298.039782" y1="1353.340202" x2="1314.341723" y2="1276.645608" stroke="black" stroke-width="6.48"/>
<line x1="1314.341723" y1="1276.645608" x2="1235.323048" y2="1259.849668" stroke="black" stroke-width="6.48"/>
<line x1="1297.133813" y1="1273.797648" x2="1280.996539" y2="1349.717551" stroke="black" stroke-width="6.48"/>
<line x1="975.026232" y1="1204.521872" x2="958.724291" y2="1281.21647" stroke="black" stroke-width="6.48"/>
<line x1="958.724291" y1="1281.21647" x2="1038.517661" y2="1298.177075" stroke="black" stroke-width="6.48"/>
<line x1="1054.819598" y1="1221.482477" x2="975.026232" y2="1204.521872" stroke="black" stroke-width="6.48"/>
<line x1="991.90481" y1="1208.919218" x2="975.767537" y2="1284.839125" stroke="black" stroke-width="6.48"/>
<line x1="1187.569894" y1="1484.510609" x2="1266.588569" y2="1501.306549" stroke="black" stroke-width="6.48"/>
<line x1="1266.588569" y1="1501.306549" x2="1282.890506" y2="1424.611951" stroke="black" stroke-width="6.48"/>
<line x1="1282.890506" y1="1424.611951" x2="1203.871831" y2="1407.816014" stroke="black" stroke-width="6.48"/>
<line x1="1265.847264" y1="1420.989296" x2="1249.545323" y2="1497.683894" stroke="black" stroke-width="6.48"/>
<line x1="943.575016" y1="1352.488216" x2="927.273078" y2="1429.182817" stroke="black" stroke-width="6.48"/>
<line x1="927.273078" y1="1429.182817" x2="1007.066444" y2="1446.143418" stroke="black" stroke-width="6.48"/>
<line x1="1023.368386" y1="1369.44882" x2="943.575016" y2="1352.488216" stroke="black" stroke-width="6.48"/>
<line x1="960.618262" y1="1356.110867" x2="944.31632" y2="1432.805468" stroke="black" stroke-width="6.48"/>
<line x1="2044.889399" y1="955.822399" x2="2267.166564" y2="955.822399" stroke="black" stroke-width="6.48"/>
<line x1="2267.166564" y1="955.822399" x2="2267.166564" y2="1178.555051" stroke="black" stroke-width="6.48"/>
<line x1="2267.166564" y1="1178.555051" x2="2044.889399" y2="1178.555051" stroke="black" stroke-width="6.48"/>
<line x1="2044.889399" y1="1178.555051" x2="2044.889399" y2="955.822399" stroke="black" stroke-width="6.48"/>
<line x1="2044.433912" y1="955.366913" x2="2267.166564" y2="1178.555051" stroke="black" stroke-width="6.48"/>
<line x1="2044.889399" y1="1178.099564" x2="2266.711078" y2="955.822399" stroke="black" stroke-width="6.48"/>
<line x1="333.766206" y1="1375.361078" x2="333.766206" y2="949.854546" stroke="black" stroke-width="6.48"/>
<line x1="333.766206" y1="949.854546" x2="257.659348" y2="949.854546" stroke="black" stroke-width="6.48"/>
<line x1="257.659348" y1="949.854546" x2="257.659348" y2="1375.361078" stroke="black" stroke-width="6.48"/>
<line x1="257.659348" y1="1375.361078" x2="333.766206" y2="1375.361078" stroke="black" stroke-width="6.48"/>
<line x1="333.766206" y1="1355.469512" x2="359.711726" y2="1355.469512" stroke="black" stroke-width="6.48"/>
<line x1="359.711726" y1="1355.469512" x2="359.711726" y2="970.610962" stroke="black" stroke-width="6.48"/>
<line x1="333.766206" y1="970.610962" x2="359.711726" y2="970.610962" stroke="black" stroke-width="6.48"/>
<line x1="3874.406537" y1="1514.726719" x2="3874.406537" y2="1940.260162" stroke="black" stroke-width="6.48"/>
<line x1="3874.406537" y1="1940.260162" x2="3940.00601" y2="1940.260162" stroke="black" stroke-width="6.48"/>
<line x1="3940.00601" y1="1940.260162" x2="3940.00601" y2="1514.726719" stroke="black" stroke-width="6.48"/>
<line x1="3940.00601" y1="1514.726719" x2="3874.406537" y2="1514.726719" stroke="black" stroke-width="6.48"/>
<line x1="3939.14286" y1="1554.431663" x2="3875.269687" y2="1554.431663" stroke="black" stroke-width="6.48"/>
<line x1="3939.14286" y1="1899.692064" x2="3872.680232" y2="1899.692064" stroke="black" stroke-width="6.48"/>
<line x1="3908.932574" y1="1553.568512" x2="3908.932574" y2="1898.828914" stroke="black" stroke-width="6.48"/>
<line x1="4927.47597" y1="1334.450686" x2="4594.335541" y2="1126.281442" stroke="black" stroke-width="6.48"/>
<line x1="4594.335541" y1="1126.281442" x2="4496.546358" y2="1282.776844" stroke="black" stroke-width="6.48"/>
<line x1="4496.546358" y1="1282.776844" x2="4829.686787" y2="1490.946088" stroke="black" stroke-width="6.48"/>
<line x1="4829.686787" y1="1490.946088" x2="4927.47597" y2="1334.450686" stroke="black" stroke-width="6.48"/>
<line x1="4694.684317" y1="1406.587183" x2="4651.87532" y2="1475.0959" stroke="black" stroke-width="6.48"/>
<line x1="4651.87532" y1="1475.0959" x2="4718.369074" y2="1516.645807" stroke="black" stroke-width="6.48"/>
<line x1="4718.369074" y1="1516.645807" x2="4761.17807" y2="1448.137091" stroke="black" stroke-width="6.48"/>
<line x1="4726.93073" y1="1501.449721" x2="4661.108633" y2="1460.319509" stroke="black" stroke-width="6.48"/>
<line x1="4902.195949" y1="1222.461317" x2="4835.702192" y2="1180.911409" stroke="black" stroke-width="6.48"/>
<line x1="4835.702192" y1="1180.911409" x2="4792.4735" y2="1250.091774" stroke="black" stroke-width="6.48"/>
<line x1="4858.967254" y1="1291.641689" x2="4902.195949" y2="1222.461317" stroke="black" stroke-width="6.48"/>
<line x1="4892.290978" y1="1236.818009" x2="4826.46888" y2="1195.687796" stroke="black" stroke-width="6.48"/>
<line x1="4566.398386" y1="1326.425234" x2="4523.589389" y2="1394.933951" stroke="black" stroke-width="6.48"/>
<line x1="4523.589389" y1="1394.933951" x2="4590.083142" y2="1436.483858" stroke="black" stroke-width="6.48"/>
<line x1="4590.083142" y1="1436.483858" x2="4632.892142" y2="1367.975142" stroke="black" stroke-width="6.48"/>
<line x1="4599.316458" y1="1421.707471" x2="4532.822698" y2="1380.15756" stroke="black" stroke-width="6.48"/>
<line x1="4773.910014" y1="1142.299368" x2="4707.416261" y2="1100.74946" stroke="black" stroke-width="6.48"/>
<line x1="4707.416261" y1="1100.74946" x2="4664.187565" y2="1169.929832" stroke="black" stroke-width="6.48"/>
<line x1="4730.681322" y1="1211.47974" x2="4773.910014" y2="1142.299368" stroke="black" stroke-width="6.48"/>
<line x1="4764.676705" y1="1157.075759" x2="4698.182945" y2="1115.525848" stroke="black" stroke-width="6.48"/>
<line x1="3064.279619" y1="1074.184546" x2="3273.644822" y2="1074.184546" stroke="black" stroke-width="6.48"/>
<line x1="3273.644822" y1="1074.184546" x2="3273.644822" y2="742.970142" stroke="black" stroke-width="6.48"/>
<line x1="3273.644822" y1="742.970142" x2="3064.279619" y2="742.970142" stroke="black" stroke-width="6.48"/>
<line x1="3064.279619" y1="742.970142" x2="3064.279619" y2="1074.184546" stroke="black" stroke-width="6.48"/>
<line x1="3063.606419" y1="802.211742" x2="3274.318019" y2="802.211742" stroke="black" stroke-width="6.48"/>
<line x1="3274.318019" y1="802.211742" x2="3064.952819" y2="852.028546" stroke="black" stroke-width="6.48"/>
<line x1="3064.952819" y1="852.028546" x2="3096.593222" y2="898.479346" stroke="black" stroke-width="6.48"/>
<line x1="3096.593222" y1="898.479346" x2="3274.318019" y2="801.538546" stroke="black" stroke-width="6.48"/>
<line x1="3325.485539" y1="1203.476231" x2="3547.762704" y2="1203.476231" stroke="black" stroke-width="6.48"/>
<line x1="3547.762704" y1="1203.476231" x2="3547.762704" y2="1426.208882" stroke="black" stroke-width="6.48"/>
<line x1="3547.762704" y1="1426.208882" x2="3325.485539" y2="1426.208882" stroke="black" stroke-width="6.48"/>
<line x1="3325.485539" y1="1426.208882" x2="3325.485539" y2="1203.476231" stroke="black" stroke-width="6.48"/>
<line x1="3325.030052" y1="1203.020744" x2="3547.762704" y2="1426.208882" stroke="black" stroke-width="6.48"/>
<line x1="3325.485539" y1="1425.753396" x2="3547.307218" y2="1203.476231" stroke="black" stroke-width="6.48"/>
<line x1="2804.16708" y1="1127.69402" x2="2804.16708" y2="1153.148746" stroke="black" stroke-width="6.48"/>
<line x1="2804.16708" y1="1153.148746" x2="2853.834836" y2="1153.148746" stroke="black" stroke-width="6.48"/>
<line x1="2853.834836" y1="1153.148746" x2="2853.834836" y2="1127.69402" stroke="black" stroke-width="6.48"/>
<line x1="2853.834836" y1="1127.69402" x2="2804.16708" y2="1127.69402" stroke="black" stroke-width="6.48"/>
<line x1="2853.834836" y1="1402.108373" x2="3101.55277" y2="1402.108373" stroke="black" stroke-width="6.48"/>
<line x1="2802.925386" y1="1402.729218" x2="2802.925386" y2="1428.183943" stroke="black" stroke-width="6.48"/>
<line x1="2802.925386" y1="1428.183943" x2="2852.593142" y2="1428.183943" stroke="black" stroke-width="6.48"/>
<line x1="2852.593142" y1="1428.183943" x2="2852.593142" y2="1402.729218" stroke="black" stroke-width="6.48"/>
<line x1="2852.593142" y1="1402.729218" x2="2802.925386" y2="1402.729218" stroke="black" stroke-width="6.48"/>
<path d="m 2851.972294,1153.148746 a 248.95962699999984,248.95962699999984 0 0 1 248.95962699999973,248.95962699999995" fill="none" stroke="black" stroke-width="6.48"/>
<line x1="3708.830426" y1="1770.243674" x2="3579.154934" y2="1962.495497" stroke="black" stroke-width="6.48"/>
<line x1="3579.154934" y1="1962.495497" x2="3386.50915" y2="1832.554274" stroke="black" stroke-width="6.48"/>
<line x1="3386.50915" y1="1832.554274" x2="3516.184642" y2="1640.302452" stroke="black" stroke-width="6.48"/>
<line x1="3516.184642" y1="1640.302452" x2="3708.830426" y2="1770.243674" stroke="black" stroke-width="6.48"/>
<line x1="3709.490112" y1="1770.115439" x2="3386.50915" y2="1832.554274" stroke="black" stroke-width="6.48"/>
<line x1="3516.578604" y1="1640.568179" x2="3579.420661" y2="1962.101534" stroke="black" stroke-width="6.48"/>
<line x1="3054.501112" y1="1589.315882" x2="3045.470335" y2="1618.854221" stroke="black" stroke-width="6.48"/>
<line x1="3045.470335" y1="1618.854221" x2="3245.876618" y2="1680.124576" stroke="black" stroke-width="6.48"/>
<line x1="3245.876618" y1="1680.124576" x2="3254.907395" y2="1650.586234" stroke="black" stroke-width="6.48"/>
<line x1="3254.907395" y1="1650.586234" x2="3054.501112" y2="1589.315882" stroke="black" stroke-width="6.48"/>
<line x1="2994.897982" y1="1784.268936" x2="2985.867205" y2="1813.807274" stroke="black" stroke-width="6.48"/>
<line x1="2985.867205" y1="1813.807274" x2="3186.273488" y2="1875.077629" stroke="black" stroke-width="6.48"/>
<line x1="3186.273488" y1="1875.077629" x2="3195.304268" y2="1845.539287" stroke="black" stroke-width="6.48"/>
<line x1="3195.304268" y1="1845.539287" x2="2994.897982" y2="1784.268936" stroke="black" stroke-width="6.48"/>
<line x1="3045.60927" y1="1618.399789" x2="2994.897982" y2="1784.268936" stroke="black" stroke-width="6.48"/>
<line x1="3245.245618" y1="1678.937832" x2="3262.459234" y2="1712.027675" stroke="black" stroke-width="6.48"/>
<line x1="3227.030802" y1="1827.90886" x2="3194.25646" y2="1845.715849" stroke="black" stroke-width="6.48"/>
<line x1="3263.014976" y1="1710.209934" x2="3226.475063" y2="1829.726608" stroke="black" stroke-width="6.48"/>
<line x1="3088.187323" y1="1631.914117" x2="3037.476031" y2="1797.783268" stroke="black" stroke-width="6.48"/>
<line x1="994.705171" y1="1925.220564" x2="1016.161776" y2="1947.439534" stroke="black" stroke-width="6.48"/>
<line x1="1016.161776" y1="1947.439534" x2="1166.908961" y2="1801.864742" stroke="black" stroke-width="6.48"/>
<line x1="1166.908961" y1="1801.864742" x2="1145.452356" y2="1779.645769" stroke="black" stroke-width="6.48"/>
<line x1="1145.452356" y1="1779.645769" x2="994.705171" y2="1925.220564" stroke="black" stroke-width="6.48"/>
<line x1="1136.318746" y1="2071.865786" x2="1157.77535" y2="2094.084756" stroke="black" stroke-width="6.48"/>
<line x1="1157.77535" y1="2094.084756" x2="1308.522535" y2="1948.509965" stroke="black" stroke-width="6.48"/>
<line x1="1308.522535" y1="1948.509965" x2="1287.06593" y2="1926.290988" stroke="black" stroke-width="6.48"/>
<line x1="1287.06593" y1="1926.290988" x2="1136.318746" y2="2071.865786" stroke="black" stroke-width="6.48"/>
<line x1="1015.831667" y1="1947.097706" x2="1136.318746" y2="2071.865786" stroke="black" stroke-width="6.48"/>
<line x1="1165.565095" y1="1801.841285" x2="1202.851454" y2="1802.828196" stroke="black" stroke-width="6.48"/>
<line x1="1287.027353" y1="1889.994935" x2="1286.712374" y2="1927.293023" stroke="black" stroke-width="6.48"/>
<line x1="1201.531046" y1="1801.460873" x2="1288.347764" y2="1891.362258" stroke="black" stroke-width="6.48"/>
<line x1="1048.293824" y1="1916.409989" x2="1168.780903" y2="2041.178069" stroke="black" stroke-width="6.48"/>
<line x1="2241.192589" y1="2034.903096" x2="2471.819825" y2="2059.143052" stroke="black" stroke-width="6.48"/>
<line x1="2471.819825" y1="2059.143052" x2="2447.530196" y2="2290.242884" stroke="black" stroke-width="6.48"/>
<line x1="2447.530196" y1="2290.242884" x2="2216.902961" y2="2266.002925" stroke="black" stroke-width="6.48"/>
<line x1="2216.902961" y1="2266.002925" x2="2241.192589" y2="2034.903096" stroke="black" stroke-width="6.48"/>
<line x1="2240.769665" y1="2034.380826" x2="2447.530196" y2="2290.242884" stroke="black" stroke-width="6.48"/>
<line x1="2216.952634" y1="2265.530328" x2="2471.347228" y2="2059.093379" stroke="black" stroke-width="6.48"/>
<line x1="5889.778639" y1="1613.743844" x2="5879.21432" y2="1642.769068" stroke="black" stroke-width="6.48"/>
<line x1="5879.21432" y1="1642.769068" x2="6076.139314" y2="1714.443905" stroke="black" stroke-width="6.48"/>
<line x1="6076.139314" y1="1714.443905" x2="6086.703629" y2="1685.418678" stroke="black" stroke-width="6.48"/>
<line x1="6086.703629" y1="1685.418678" x2="5889.778639" y2="1613.743844" stroke="black" stroke-width="6.48"/>
<line x1="5820.054138" y1="1805.310335" x2="5809.489823" y2="1834.335558" stroke="black" stroke-width="6.48"/>
<line x1="5809.489823" y1="1834.335558" x2="6006.414812" y2="1906.010392" stroke="black" stroke-width="6.48"/>
<line x1="6006.414812" y1="1906.010392" x2="6016.979131" y2="1876.985168" stroke="black" stroke-width="6.48"/>
<line x1="6016.979131" y1="1876.985168" x2="5820.054138" y2="1805.310335" stroke="black" stroke-width="6.48"/>
<line x1="5879.376846" y1="1642.322527" x2="5820.054138" y2="1805.310335" stroke="black" stroke-width="6.48"/>
<line x1="6075.571288" y1="1713.225766" x2="6091.029526" y2="1747.171148" stroke="black" stroke-width="6.48"/>
<line x1="6049.584889" y1="1861.039343" x2="6015.923521" y2="1877.106654" stroke="black" stroke-width="6.48"/>
<line x1="6091.679635" y1="1745.384983" x2="6048.93478" y2="1862.825512" stroke="black" stroke-width="6.48"/>
<line x1="5921.189258" y1="1658.046697" x2="5861.86655" y2="1821.034501" stroke="black" stroke-width="6.48"/>
<line x1="3803.347415" y1="1155.343367" x2="3808.179364" y2="1124.835649" stroke="black" stroke-width="6.48"/>
<line x1="3808.179364" y1="1124.835649" x2="3601.196233" y2="1092.052742" stroke="black" stroke-width="6.48"/>
<line x1="3601.196233" y1="1092.052742" x2="3596.364284" y2="1122.56046" stroke="black" stroke-width="6.48"/>
<line x1="3596.364284" y1="1122.56046" x2="3803.347415" y2="1155.343367" stroke="black" stroke-width="6.48"/>
<line x1="3835.238267" y1="953.992433" x2="3840.070216" y2="923.484715" stroke="black" stroke-width="6.48"/>
<line x1="3840.070216" y1="923.484715" x2="3633.087089" y2="890.701805" stroke="black" stroke-width="6.48"/>
<line x1="3633.087089" y1="890.701805" x2="3628.25514" y2="921.209526" stroke="black" stroke-width="6.48"/>
<line x1="3628.25514" y1="921.209526" x2="3835.238267" y2="953.992433" stroke="black" stroke-width="6.48"/>
<line x1="3808.105024" y1="1125.305003" x2="3835.238267" y2="953.992433" stroke="black" stroke-width="6.48"/>
<line x1="3601.986257" y1="1093.140119" x2="3580.334942" y2="1062.767977" stroke="black" stroke-width="6.48"/>
<line x1="3599.291045" y1="943.08385" x2="3629.268176" y2="920.888849" stroke="black" stroke-width="6.48"/>
<line x1="3580.037593" y1="1064.645374" x2="3599.588398" y2="941.206453" stroke="black" stroke-width="6.48"/>
<line x1="3764.060507" y1="1117.847909" x2="3791.193754" y2="946.535342" stroke="black" stroke-width="6.48"/>
<line x1="2928.340156" y1="2007.854424" x2="2857.13501" y2="2184.093562" stroke="black" stroke-width="6.48"/>
<line x1="2857.13501" y1="2184.093562" x2="3287.158506" y2="2357.834112" stroke="black" stroke-width="6.48"/>
<line x1="3287.158506" y1="2357.834112" x2="3358.363651" y2="2181.594974" stroke="black" stroke-width="6.48"/>
<line x1="3358.363651" y1="2181.594974" x2="3336.333761" y2="2172.694331" stroke="black" stroke-width="6.48"/>
<line x1="3336.333761" y1="2172.694331" x2="3273.673234" y2="2327.784775" stroke="black" stroke-width="6.48"/>
<line x1="3273.673234" y1="2327.784775" x2="2888.590716" y2="2172.201534" stroke="black" stroke-width="6.48"/>
<line x1="2888.590716" y1="2172.201534" x2="2951.251243" y2="2017.111093" stroke="black" stroke-width="6.48"/>
<line x1="2951.251243" y1="2017.111093" x2="2928.340156" y2="2007.854424" stroke="black" stroke-width="6.48"/>
<line x1="2949.11509" y1="2022.398266" x2="3334.197607" y2="2177.981507" stroke="black" stroke-width="6.48"/>
<line x1="3141.571774" y1="2099.130678" x2="3081.047404" y2="2248.933946" stroke="black" stroke-width="6.48"/>
</g>
</svg>
