<?xml version="1.0"?>
<svg xmlns:xlink="http://www.w3.org/1999/xlink" width="6775.2" height="2858.4">
<image x="0" y="0" width="6775.2" height="2858.4" xlink:href="groundfilled-01.png"/>
<g style="stroke-linecap:round">
<line x1="1285.950406" y1="795.178109" x2="1311.346069" y2="795.178109" stroke="black" stroke-width="6.48"/>
<line x1="1311.346069" y1="795.178109" x2="1311.346069" y2="745.625592" stroke="black" stroke-width="6.48"/>
<line x1="1311.346069" y1="745.625592" x2="1285.950406" y2="745.625592" stroke="black" stroke-width="6.48"/>
<line x1="1285.950406" y1="745.625592" x2="1285.950406" y2="795.178109" stroke="black" stroke-width="6.48"/>
<line x1="1559.728062" y1="745.625592" x2="1559.728062" y2="498.48241" stroke="black" stroke-width="6.48"/>
<line x1="1560.347471" y1="796.416923" x2="1585.743134" y2="796.416923" stroke="black" stroke-width="6.48"/>
<line x1="1585.743134" y1="796.416923" x2="1585.743134" y2="746.864406" stroke="black" stroke-width="6.48"/>
<line x1="1585.743134" y1="746.864406" x2="1560.347471" y2="746.864406" stroke="black" stroke-width="6.48"/>
<line x1="1560.347471" y1="746.864406" x2="1560.347471" y2="796.416923" stroke="black" stroke-width="6.48"/>
<path d="m 1311.346069,747.483811 a 248.38199299999997,248.38199299999997 0 0 1 248.38199299999997,-248.38199299999997" fill="none" stroke="black" stroke-width="6.48"/>
<line x1="320.532556" y1="771.34176" x2="320.532556" y2="366.736194" stroke="black" stroke-width="6.48"/>
<line x1="320.532556" y1="366.736194" x2="258.159283" y2="366.736194" stroke="black" stroke-width="6.48"/>
<line x1="258.159283" y1="366.736194" x2="258.159283" y2="771.34176" stroke="black" stroke-width="6.48"/>
<line x1="258.159283" y1="771.34176" x2="320.532556" y2="771.34176" stroke="black" stroke-width="6.48"/>
<line x1="258.979986" y1="733.589518" x2="319.711856" y2="733.589518" stroke="black" stroke-width="6.48"/>
<line x1="258.979986" y1="405.309139" x2="322.173958" y2="405.309139" stroke="black" stroke-width="6.48"/>
<line x1="287.704519" y1="734.410217" x2="287.704519" y2="406.129838" stroke="black" stroke-width="6.48"/>
<line x1="3901.945176" y1="1169.331426" x2="3901.945176" y2="1428.837066" stroke="black" stroke-width="6.48"/>
<line x1="3901.945176" y1="1428.837066" x2="3941.9501" y2="1428.837066" stroke="black" stroke-width="6.48"/>
<line x1="3941.9501" y1="1428.837066" x2="3941.9501" y2="1169.331426" stroke="black" stroke-width="6.48"/>
<line x1="3941.9501" y1="1169.331426" x2="3901.945176" y2="1169.331426" stroke="black" stroke-width="6.48"/>
<line x1="3941.423719" y1="1193.544936" x2="3902.471557" y2="1193.544936" stroke="black" stroke-width="6.48"/>
<line x1="3941.423719" y1="1404.097178" x2="3900.892414" y2="1404.097178" stroke="black" stroke-width="6.48"/>
<line x1="3923.000399" y1="1193.018555" x2="3923.000399" y2="1403.570797" stroke="black" stroke-width="6.48"/>
<line x1="323.923298" y1="1882.957399" x2="323.923298" y2="1457.423957" stroke="black" stroke-width="6.48"/>
<line x1="323.923298" y1="1457.423957" x2="258.323825" y2="1457.423957" stroke="black" stroke-width="6.48"/>
<line x1="258.323825" y1="1457.423957" x2="258.323825" y2="1882.957399" stroke="black" stroke-width="6.48"/>
<line x1="258.323825" y1="1882.957399" x2="323.923298" y2="1882.957399" stroke="black" stroke-width="6.48"/>
<line x1="259.186975" y1="1843.252456" x2="323.060148" y2="1843.252456" stroke="black" stroke-width="6.48"/>
<line x1="259.186975" y1="1497.992054" x2="325.649603" y2="1497.992054" stroke="black" stroke-width="6.48"/>
<line x1="289.397261" y1="1844.115606" x2="289.397261" y2="1498.855205" stroke="black" stroke-width="6.48"/>
<line x1="2747.905531" y1="904.670665" x2="2721.68303" y2="904.670665" stroke="black" stroke-width="6.48"/>
<line x1="2721.68303" y1="904.670665" x2="2721.68303" y2="955.836522" stroke="black" stroke-width="6.48"/>
<line x1="2721.68303" y1="955.836522" x2="2747.905531" y2="955.836522" stroke="black" stroke-width="6.48"/>
<line x1="2747.905531" y1="955.836522" x2="2747.905531" y2="904.670665" stroke="black" stroke-width="6.48"/>
<line x1="2465.214181" y1="955.836522" x2="2465.214181" y2="1211.026223" stroke="black" stroke-width="6.48"/>
<line x1="2464.574609" y1="903.39152" x2="2438.352108" y2="903.39152" stroke="black" stroke-width="6.48"/>
<line x1="2438.352108" y1="903.39152" x2="2438.352108" y2="954.557374" stroke="black" stroke-width="6.48"/>
<line x1="2438.352108" y1="954.557374" x2="2464.574609" y2="954.557374" stroke="black" stroke-width="6.48"/>
<line x1="2464.574609" y1="954.557374" x2="2464.574609" y2="903.39152" stroke="black" stroke-width="6.48"/>
<path d="m 2721.68303,953.917801 a 256.4688490000001,256.4688490000001 0 0 1 -256.4688490000003,256.46884899999986" fill="none" stroke="black" stroke-width="6.48"/>
<line x1="2420.532389" y1="1427.858834" x2="2395.136725" y2="1427.858834" stroke="black" stroke-width="6.48"/>
<line x1="2395.136725" y1="1427.858834" x2="2395.136725" y2="1477.411351" stroke="black" stroke-width="6.48"/>
<line x1="2395.136725" y1="1477.411351" x2="2420.532389" y2="1477.411351" stroke="black" stroke-width="6.48"/>
<line x1="2420.532389" y1="1477.411351" x2="2420.532389" y2="1427.858834" stroke="black" stroke-width="6.48"/>
<line x1="2146.754732" y1="1477.411351" x2="2146.754732" y2="1724.554534" stroke="black" stroke-width="6.48"/>
<line x1="2146.135324" y1="1426.62002" x2="2120.73966" y2="1426.62002" stroke="black" stroke-width="6.48"/>
<line x1="2120.73966" y1="1426.62002" x2="2120.73966" y2="1476.172537" stroke="black" stroke-width="6.48"/>
<line x1="2120.73966" y1="1476.172537" x2="2146.135324" y2="1476.172537" stroke="black" stroke-width="6.48"/>
<line x1="2146.135324" y1="1476.172537" x2="2146.135324" y2="1426.62002" stroke="black" stroke-width="6.48"/>
<path d="m 2395.136725,1475.553132 a 248.38199299999997,248.38199299999997 0 0 1 -248.38199299999997,248.38199299999997" fill="none" stroke="black" stroke-width="6.48"/>
<line x1="713.836728" y1="692.136151" x2="1106.668728" y2="692.136151" stroke="black" stroke-width="6.48"/>
<line x1="1106.668728" y1="692.136151" x2="1106.668728" y2="507.600151" stroke="black" stroke-width="6.48"/>
<line x1="1106.668728" y1="507.600151" x2="713.836728" y2="507.600151" stroke="black" stroke-width="6.48"/>
<line x1="713.836728" y1="507.600151" x2="713.836728" y2="692.136151" stroke="black" stroke-width="6.48"/>
<line x1="873.028728" y1="507.600151" x2="873.028728" y2="426.816151" stroke="black" stroke-width="6.48"/>
<line x1="873.028728" y1="426.816151" x2="794.620728" y2="426.816151" stroke="black" stroke-width="6.48"/>
<line x1="794.620728" y1="426.816151" x2="794.620728" y2="507.600151" stroke="black" stroke-width="6.48"/>
<line x1="795.412728" y1="444.240151" x2="873.028728" y2="444.240151" stroke="black" stroke-width="6.48"/>
<line x1="794.620728" y1="773.712151" x2="873.028728" y2="773.712151" stroke="black" stroke-width="6.48"/>
<line x1="873.028728" y1="773.712151" x2="873.028728" y2="692.136151" stroke="black" stroke-width="6.48"/>
<line x1="794.620728" y1="692.136151" x2="794.620728" y2="773.712151" stroke="black" stroke-width="6.48"/>
<line x1="795.412728" y1="756.288151" x2="873.028728" y2="756.288151" stroke="black" stroke-width="6.48"/>
<line x1="1024.300728" y1="507.600151" x2="1024.300728" y2="426.816151" stroke="black" stroke-width="6.48"/>
<line x1="1024.300728" y1="426.816151" x2="945.892728" y2="426.816151" stroke="black" stroke-width="6.48"/>
<line x1="945.892728" y1="426.816151" x2="945.892728" y2="507.600151" stroke="black" stroke-width="6.48"/>
<line x1="945.892728" y1="444.240151" x2="1024.300728" y2="444.240151" stroke="black" stroke-width="6.48"/>
<line x1="945.892728" y1="773.712151" x2="1024.300728" y2="773.712151" stroke="black" stroke-width="6.48"/>
<line x1="1024.300728" y1="773.712151" x2="1024.300728" y2="692.136151" stroke="black" stroke-width="6.48"/>
<line x1="945.892728" y1="692.136151" x2="945.892728" y2="773.712151" stroke="black" stroke-width="6.48"/>
<line x1="945.892728" y1="756.288151" x2="1024.300728" y2="756.288151" stroke="black" stroke-width="6.48"/>
<line x1="1842.844367" y1="1964.723609" x2="2032.924367" y2="1964.723609" stroke="black" stroke-width="6.48"/>
<line x1="2032.924367" y1="1964.723609" x2="2032.924367" y2="1500.928409" stroke="black" stroke-width="6.48"/>
<line x1="2032.924367" y1="1500.928409" x2="1842.844367" y2="1500.928409" stroke="black" stroke-width="6.48"/>
<line x1="1842.844367" y1="1500.928409" x2="1842.844367" y2="1524.688409" stroke="black" stroke-width="6.48"/>
<line x1="1842.844367" y1="1524.688409" x2="2010.114767" y2="1524.688409" stroke="black" stroke-width="6.48"/>
<line x1="2010.114767" y1="1524.688409" x2="2010.114767" y2="1940.013209" stroke="black" stroke-width="6.48"/>
<line x1="2010.114767" y1="1940.013209" x2="1842.844367" y2="1940.013209" stroke="black" stroke-width="6.48"/>
<line x1="1842.844367" y1="1940.013209" x2="1842.844367" y2="1964.723609" stroke="black" stroke-width="6.48"/>
<line x1="1848.546767" y1="1940.013209" x2="1848.546767" y2="1524.688409" stroke="black" stroke-width="6.48"/>
<line x1="1847.596367" y1="1732.826009" x2="2009.164367" y2="1732.826009" stroke="black" stroke-width="6.48"/>
<line x1="1485.415969" y1="209.267824" x2="1707.693134" y2="209.267824" stroke="black" stroke-width="6.48"/>
<line x1="1707.693134" y1="209.267824" x2="1707.693134" y2="432.000475" stroke="black" stroke-width="6.48"/>
<line x1="1707.693134" y1="432.000475" x2="1485.415969" y2="432.000475" stroke="black" stroke-width="6.48"/>
<line x1="1485.415969" y1="432.000475" x2="1485.415969" y2="209.267824" stroke="black" stroke-width="6.48"/>
<line x1="1484.960483" y1="208.812337" x2="1707.693134" y2="432.000475" stroke="black" stroke-width="6.48"/>
<line x1="1485.415969" y1="431.544989" x2="1707.237648" y2="209.267824" stroke="black" stroke-width="6.48"/>
<line x1="2586.780558" y1="1803.366338" x2="2586.780558" y2="2194.614338" stroke="black" stroke-width="6.48"/>
<line x1="2586.780558" y1="2194.614338" x2="2761.020558" y2="2194.614338" stroke="black" stroke-width="6.48"/>
<line x1="2761.020558" y1="2194.614338" x2="2761.020558" y2="1803.366338" stroke="black" stroke-width="6.48"/>
<line x1="2761.020558" y1="1803.366338" x2="2586.780558" y2="1803.366338" stroke="black" stroke-width="6.48"/>
<line x1="2734.092558" y1="2119.374338" x2="2734.092558" y2="1835.046338" stroke="black" stroke-width="6.48"/>
<line x1="2734.092558" y1="1835.046338" x2="2616.084558" y2="1835.046338" stroke="black" stroke-width="6.48"/>
<line x1="2616.084558" y1="1835.046338" x2="2616.084558" y2="2124.918338" stroke="black" stroke-width="6.48"/>
<path d="m 2734.347982,2118.563766 a 63.35999941905905,63.35999941905905 0 0 1 -119.37432999999965,4.2938139999996565" fill="none" stroke="black" stroke-width="6.48"/>
<line x1="2080.763363" y1="1844.376394" x2="2056.211363" y2="1862.988394" stroke="black" stroke-width="6.48"/>
<line x1="2056.211363" y1="1862.988394" x2="2056.211363" y2="2010.300394" stroke="black" stroke-width="6.48"/>
<line x1="2056.211363" y1="2010.300394" x2="2084.327363" y2="2029.308394" stroke="black" stroke-width="6.48"/>
<line x1="2083.535363" y1="1866.156394" x2="2083.535363" y2="2009.112394" stroke="black" stroke-width="6.48"/>
<circle cx="2105.315363" cy="1935.456394" r="13.068000000000003" fill="none" stroke="black" stroke-width="6.48"/>
<path d="m 2082.868016,1867.709646 a 74.84400042853747,74.84400042853747 0 1 1 0.40204799999992247,139.6090039999999" fill="none" stroke="black" stroke-width="6.48"/>
<path d="m 2080.105999,1844.422697 a 95.43599883324413,95.43599883324413 0 1 1 3.0749580000001515,184.466995" fill="none" stroke="black" stroke-width="6.48"/>
<line x1="494.543707" y1="208.960178" x2="765.090907" y2="208.960178" stroke="black" stroke-width="6.48"/>
<line x1="765.090907" y1="208.960178" x2="765.090907" y2="340.907378" stroke="black" stroke-width="6.48"/>
<line x1="494.543707" y1="340.907378" x2="765.090907" y2="340.907378" stroke="black" stroke-width="6.48"/>
<line x1="494.543707" y1="208.960178" x2="494.543707" y2="340.907378" stroke="black" stroke-width="6.48"/>
<line x1="501.196507" y1="215.612978" x2="639.242107" y2="215.612978" stroke="black" stroke-width="6.48"/>
<line x1="639.242107" y1="215.612978" x2="639.242107" y2="333.700178" stroke="black" stroke-width="6.48"/>
<line x1="501.196507" y1="333.700178" x2="639.242107" y2="333.700178" stroke="black" stroke-width="6.48"/>
<line x1="501.196507" y1="215.612978" x2="501.196507" y2="333.700178" stroke="black" stroke-width="6.48"/>
<line x1="653.656507" y1="223.374578" x2="750.676507" y2="223.374578" stroke="black" stroke-width="6.48"/>
<line x1="653.656507" y1="243.887378" x2="750.676507" y2="243.887378" stroke="black" stroke-width="6.48"/>
<line x1="654.210907" y1="264.954578" x2="751.230907" y2="264.954578" stroke="black" stroke-width="6.48"/>
<line x1="654.210907" y1="285.467378" x2="751.230907" y2="285.467378" stroke="black" stroke-width="6.48"/>
<line x1="653.656507" y1="305.980178" x2="750.676507" y2="305.980178" stroke="black" stroke-width="6.48"/>
<line x1="653.656507" y1="326.492978" x2="750.676507" y2="326.492978" stroke="black" stroke-width="6.48"/>
<line x1="553.864507" y1="333.700178" x2="553.864507" y2="319.840178" stroke="black" stroke-width="6.48"/>
<line x1="553.864507" y1="319.840178" x2="588.237307" y2="319.840178" stroke="black" stroke-width="6.48"/>
<line x1="588.237307" y1="319.840178" x2="588.237307" y2="333.145778" stroke="black" stroke-width="6.48"/>
<circle cx="623.718907" cy="230.581778" r="8.316000000000003" fill="none" stroke="black" stroke-width="6.48"/>
<line x1="2044.889399" y1="955.822399" x2="2267.166564" y2="955.822399" stroke="black" stroke-width="6.48"/>
<line x1="2267.166564" y1="955.822399" x2="2267.166564" y2="1178.555051" stroke="black" stroke-width="6.48"/>
<line x1="2267.166564" y1="1178.555051" x2="2044.889399" y2="1178.555051" stroke="black" stroke-width="6.48"/>
<line x1="2044.889399" y1="1178.555051" x2="2044.889399" y2="955.822399" stroke="black" stroke-width="6.48"/>
<line x1="2044.433912" y1="955.366913" x2="2267.166564" y2="1178.555051" stroke="black" stroke-width="6.48"/>
<line x1="2044.889399" y1="1178.099564" x2="2266.711078" y2="955.822399" stroke="black" stroke-width="6.48"/>
<line x1="333.766206" y1="1375.361078" x2="333.766206" y2="949.854546" stroke="black" stroke-width="6.48"/>
<line x1="333.766206" y1="949.854546" x2="257.659348" y2="949.854546" stroke="black" stroke-width="6.48"/>
<line x1="257.659348" y1="949.854546" x2="257.659348" y2="1375.361078" stroke="black" stroke-width="6.48"/>
<line x1="257.659348" y1="1375.361078" x2="333.766206" y2="1375.361078" stroke="black" stroke-width="6.48"/>
<line x1="333.766206" y1="1355.469512" x2="359.711726" y2="1355.469512" stroke="black" stroke-width="6.48"/>
<line x1="359.711726" y1="1355.469512" x2="359.711726" y2="970.610962" stroke="black" stroke-width="6.48"/>
<line x1="333.766206" y1="970.610962" x2="359.711726" y2="970.610962" stroke="black" stroke-width="6.48"/>
<line x1="3874.406537" y1="1514.726719" x2="3874.406537" y2="1940.260162" stroke="black" stroke-width="6.48"/>
<line x1="3874.406537" y1="1940.260162" x2="3940.00601" y2="1940.260162" stroke="black" stroke-width="6.48"/>
<line x1="3940.00601" y1="1940.260162" x2="3940.00601" y2="1514.726719" stroke="black" stroke-width="6.48"/>
<line x1="3940.00601" y1="1514.726719" x2="3874.406537" y2="1514.726719" stroke="black" stroke-width="6.48"/>
<line x1="3939.14286" y1="1554.431663" x2="3875.269687" y2="1554.431663" stroke="black" stroke-width="6.48"/>
<line x1="3939.14286" y1="1899.692064" x2="3872.680232" y2="1899.692064" stroke="black" stroke-width="6.48"/>
<line x1="3908.932574" y1="1553.568512" x2="3908.932574" y2="1898.828914" stroke="black" stroke-width="6.48"/>
<line x1="4835.987449" y1="1865.616476" x2="4729.111772" y2="1787.966752" stroke="black" stroke-width="6.48"/>
<line x1="4729.111772" y1="1787.966752" x2="4737.49124" y2="1776.433406" stroke="black" stroke-width="6.48"/>
<line x1="4844.366917" y1="1854.083128" x2="4737.49124" y2="1776.433406" stroke="black" stroke-width="6.48"/>
<line x1="4835.987449" y1="1865.616476" x2="4844.366917" y2="1854.083128" stroke="black" stroke-width="6.48"/>
<line x1="4833.60246" y1="1846.262293" x2="4853.575066" y2="1822.006195" stroke="black" stroke-width="6.48"/>
<line x1="4748.255698" y1="1784.254241" x2="4765.711374" y2="1756.994728" stroke="black" stroke-width="6.48"/>
<line x1="5106.923532" y1="1492.704947" x2="5000.047859" y2="1415.055222" stroke="black" stroke-width="6.48"/>
<line x1="5000.047859" y1="1415.055222" x2="4992.227024" y2="1425.819679" stroke="black" stroke-width="6.48"/>
<line x1="5099.102701" y1="1503.4694" x2="4992.227024" y2="1425.819679" stroke="black" stroke-width="6.48"/>
<line x1="5106.923532" y1="1492.704947" x2="5099.102701" y2="1503.4694" stroke="black" stroke-width="6.48"/>
<line x1="5087.989872" y1="1497.744976" x2="5071.092822" y2="1524.235604" stroke="black" stroke-width="6.48"/>
<line x1="5002.643106" y1="1435.736923" x2="4981.342979" y2="1460.203283" stroke="black" stroke-width="6.48"/>
<line x1="4693.505915" y1="1558.864274" x2="4705.039264" y2="1567.243742" stroke="black" stroke-width="6.48"/>
<line x1="4705.039264" y1="1567.243742" x2="4782.688985" y2="1460.368066" stroke="black" stroke-width="6.48"/>
<line x1="4771.15564" y1="1451.988598" x2="4782.688985" y2="1460.368066" stroke="black" stroke-width="6.48"/>
<line x1="4693.505915" y1="1558.864274" x2="4771.15564" y2="1451.988598" stroke="black" stroke-width="6.48"/>
<line x1="4774.309517" y1="1471.901411" x2="4802.127664" y2="1488.588203" stroke="black" stroke-width="6.48"/>
<line x1="4712.860098" y1="1556.479285" x2="4737.885088" y2="1577.010524" stroke="black" stroke-width="6.48"/>
<line x1="5065.089926" y1="1830.010619" x2="5053.556578" y2="1821.631151" stroke="black" stroke-width="6.48"/>
<line x1="5053.556578" y1="1821.631151" x2="5131.206302" y2="1714.755474" stroke="black" stroke-width="6.48"/>
<line x1="5142.739651" y1="1723.134942" x2="5131.206302" y2="1714.755474" stroke="black" stroke-width="6.48"/>
<line x1="5065.089926" y1="1830.010619" x2="5142.739651" y2="1723.134942" stroke="black" stroke-width="6.48"/>
<line x1="5122.826838" y1="1726.288823" x2="5098.360478" y2="1704.988699" stroke="black" stroke-width="6.48"/>
<line x1="5061.377416" y1="1810.866694" x2="5034.117899" y2="1793.411017" stroke="black" stroke-width="6.48"/>
<circle cx="4918.122785" cy="1640.99961" r="191.98080000000002" fill="none" stroke="black" stroke-width="6.48"/>
<line x1="3453.704359" y1="1075.469778" x2="3663.069563" y2="1075.469778" stroke="black" stroke-width="6.48"/>
<line x1="3663.069563" y1="1075.469778" x2="3663.069563" y2="744.255374" stroke="black" stroke-width="6.48"/>
<line x1="3663.069563" y1="744.255374" x2="3453.704359" y2="744.255374" stroke="black" stroke-width="6.48"/>
<line x1="3453.704359" y1="744.255374" x2="3453.704359" y2="1075.469778" stroke="black" stroke-width="6.48"/>
<line x1="3453.031159" y1="803.496974" x2="3663.742759" y2="803.496974" stroke="black" stroke-width="6.48"/>
<line x1="3663.742759" y1="803.496974" x2="3454.377559" y2="853.313778" stroke="black" stroke-width="6.48"/>
<line x1="3454.377559" y1="853.313778" x2="3486.017963" y2="899.764578" stroke="black" stroke-width="6.48"/>
<line x1="3486.017963" y1="899.764578" x2="3663.742759" y2="802.823778" stroke="black" stroke-width="6.48"/>
<line x1="3483.95859" y1="1202.834639" x2="3706.235755" y2="1202.834639" stroke="black" stroke-width="6.48"/>
<line x1="3706.235755" y1="1202.834639" x2="3706.235755" y2="1425.56729" stroke="black" stroke-width="6.48"/>
<line x1="3706.235755" y1="1425.56729" x2="3483.95859" y2="1425.56729" stroke="black" stroke-width="6.48"/>
<line x1="3483.95859" y1="1425.56729" x2="3483.95859" y2="1202.834639" stroke="black" stroke-width="6.48"/>
<line x1="3483.503104" y1="1202.379152" x2="3706.235755" y2="1425.56729" stroke="black" stroke-width="6.48"/>
<line x1="3483.95859" y1="1425.111804" x2="3705.780269" y2="1202.834639" stroke="black" stroke-width="6.48"/>
<line x1="2804.16708" y1="1127.69402" x2="2804.16708" y2="1153.148746" stroke="black" stroke-width="6.48"/>
<line x1="2804.16708" y1="1153.148746" x2="2853.834836" y2="1153.148746" stroke="black" stroke-width="6.48"/>
<line x1="2853.834836" y1="1153.148746" x2="2853.834836" y2="1127.69402" stroke="black" stroke-width="6.48"/>
<line x1="2853.834836" y1="1127.69402" x2="2804.16708" y2="1127.69402" stroke="black" stroke-width="6.48"/>
<line x1="2853.834836" y1="1402.108373" x2="3101.55277" y2="1402.108373" stroke="black" stroke-width="6.48"/>
<line x1="2802.925386" y1="1402.729218" x2="2802.925386" y2="1428.183943" stroke="black" stroke-width="6.48"/>
<line x1="2802.925386" y1="1428.183943" x2="2852.593142" y2="1428.183943" stroke="black" stroke-width="6.48"/>
<line x1="2852.593142" y1="1428.183943" x2="2852.593142" y2="1402.729218" stroke="black" stroke-width="6.48"/>
<line x1="2852.593142" y1="1402.729218" x2="2802.925386" y2="1402.729218" stroke="black" stroke-width="6.48"/>
<path d="m 2851.972294,1153.148746 a 248.95962699999984,248.95962699999984 0 0 1 248.95962699999973,248.95962699999995" fill="none" stroke="black" stroke-width="6.48"/>
<line x1="3606.980566" y1="1648.530907" x2="3701.301815" y2="1860.379906" stroke="black" stroke-width="6.48"/>
<line x1="3701.301815" y1="1860.379906" x2="3489.0187" y2="1954.894439" stroke="black" stroke-width="6.48"/>
<line x1="3489.0187" y1="1954.894439" x2="3394.697447" y2="1743.04544" stroke="black" stroke-width="6.48"/>
<line x1="3394.697447" y1="1743.04544" x2="3606.980566" y2="1648.530907" stroke="black" stroke-width="6.48"/>
<line x1="3607.221402" y1="1647.90351" x2="3489.0187" y2="1954.894439" stroke="black" stroke-width="6.48"/>
<line x1="3395.131567" y1="1742.852156" x2="3701.108534" y2="1859.945789" stroke="black" stroke-width="6.48"/>
<line x1="3009.806302" y1="1589.315879" x2="3009.26723" y2="1620.199174" stroke="black" stroke-width="6.48"/>
<line x1="3009.26723" y1="1620.199174" x2="3218.798513" y2="1623.856554" stroke="black" stroke-width="6.48"/>
<line x1="3218.798513" y1="1623.856554" x2="3219.337584" y2="1592.973259" stroke="black" stroke-width="6.48"/>
<line x1="3219.337584" y1="1592.973259" x2="3009.806302" y2="1589.315879" stroke="black" stroke-width="6.48"/>
<line x1="3006.24844" y1="1793.145629" x2="3005.709368" y2="1824.028924" stroke="black" stroke-width="6.48"/>
<line x1="3005.709368" y1="1824.028924" x2="3215.240651" y2="1827.686304" stroke="black" stroke-width="6.48"/>
<line x1="3215.240651" y1="1827.686304" x2="3215.779722" y2="1796.803009" stroke="black" stroke-width="6.48"/>
<line x1="3215.779722" y1="1796.803009" x2="3006.24844" y2="1793.145629" stroke="black" stroke-width="6.48"/>
<line x1="3009.275525" y1="1619.724046" x2="3006.24844" y2="1793.145629" stroke="black" stroke-width="6.48"/>
<line x1="3217.864846" y1="1622.889713" x2="3243.532435" y2="1649.952994" stroke="black" stroke-width="6.48"/>
<line x1="3241.417622" y1="1771.11054" x2="3214.821172" y2="1797.261548" stroke="black" stroke-width="6.48"/>
<line x1="3243.565609" y1="1648.052482" x2="3241.384448" y2="1773.011052" stroke="black" stroke-width="6.48"/>
<line x1="3053.929226" y1="1620.97875" x2="3050.902145" y2="1794.400333" stroke="black" stroke-width="6.48"/>
<line x1="1181.339953" y1="1994.169308" x2="1206.947264" y2="2011.441666" stroke="black" stroke-width="6.48"/>
<line x1="1206.947264" y1="2011.441666" x2="1324.133557" y2="1837.705928" stroke="black" stroke-width="6.48"/>
<line x1="1324.133557" y1="1837.705928" x2="1298.52625" y2="1820.433568" stroke="black" stroke-width="6.48"/>
<line x1="1298.52625" y1="1820.433568" x2="1181.339953" y2="1994.169308" stroke="black" stroke-width="6.48"/>
<line x1="1350.348188" y1="2108.166865" x2="1375.9555" y2="2125.439222" stroke="black" stroke-width="6.48"/>
<line x1="1375.9555" y1="2125.439222" x2="1493.141796" y2="1951.703485" stroke="black" stroke-width="6.48"/>
<line x1="1493.141796" y1="1951.703485" x2="1467.534481" y2="1934.431124" stroke="black" stroke-width="6.48"/>
<line x1="1467.534481" y1="1934.431124" x2="1350.348188" y2="2108.166865" stroke="black" stroke-width="6.48"/>
<line x1="1206.553302" y1="2011.175939" x2="1350.348188" y2="2108.166865" stroke="black" stroke-width="6.48"/>
<line x1="1322.814182" y1="1837.962389" x2="1359.490936" y2="1831.175467" stroke="black" stroke-width="6.48"/>
<line x1="1459.950379" y1="1898.936248" x2="1467.396986" y2="1935.484769" stroke="black" stroke-width="6.48"/>
<line x1="1357.9151" y1="1830.112549" x2="1461.526207" y2="1899.999166" stroke="black" stroke-width="6.48"/>
<line x1="1231.925749" y1="1974.409556" x2="1375.720628" y2="2071.400486" stroke="black" stroke-width="6.48"/>
<line x1="805.233845" y1="210.874399" x2="1198.477717" y2="210.874399" stroke="black" stroke-width="6.48"/>
<line x1="1202.433124" y1="209.878117" x2="1202.433124" y2="345.946892" stroke="black" stroke-width="6.48"/>
<line x1="805.698234" y1="347.098399" x2="1202.738465" y2="347.098399" stroke="black" stroke-width="6.48"/>
<line x1="806.433124" y1="211.569149" x2="806.433124" y2="346.833205" stroke="black" stroke-width="6.48"/>
<line x1="816.729124" y1="221.962399" x2="940.281124" y2="221.962399" stroke="black" stroke-width="6.48"/>
<line x1="940.281124" y1="221.962399" x2="940.281124" y2="336.010399" stroke="black" stroke-width="6.48"/>
<line x1="816.729124" y1="336.010399" x2="940.281124" y2="336.010399" stroke="black" stroke-width="6.48"/>
<line x1="816.729124" y1="221.962399" x2="816.729124" y2="336.010399" stroke="black" stroke-width="6.48"/>
<line x1="959.289124" y1="229.090399" x2="1046.409124" y2="229.090399" stroke="black" stroke-width="6.48"/>
<line x1="959.289124" y1="248.890399" x2="1046.409124" y2="248.890399" stroke="black" stroke-width="6.48"/>
<line x1="960.081124" y1="269.482399" x2="1046.409124" y2="269.482399" stroke="black" stroke-width="6.48"/>
<line x1="960.081124" y1="289.282399" x2="1046.409124" y2="289.282399" stroke="black" stroke-width="6.48"/>
<line x1="959.289124" y1="309.082399" x2="1046.409124" y2="309.082399" stroke="black" stroke-width="6.48"/>
<line x1="959.289124" y1="328.882399" x2="1046.409124" y2="328.882399" stroke="black" stroke-width="6.48"/>
<line x1="864.249124" y1="335.218399" x2="864.249124" y2="321.754399" stroke="black" stroke-width="6.48"/>
<line x1="864.249124" y1="321.754399" x2="894.345124" y2="321.754399" stroke="black" stroke-width="6.48"/>
<line x1="894.345124" y1="321.754399" x2="894.345124" y2="334.426399" stroke="black" stroke-width="6.48"/>
<line x1="1067.001124" y1="221.962399" x2="1190.553124" y2="221.962399" stroke="black" stroke-width="6.48"/>
<line x1="1190.553124" y1="221.962399" x2="1190.553124" y2="336.010399" stroke="black" stroke-width="6.48"/>
<line x1="1067.001124" y1="336.010399" x2="1190.553124" y2="336.010399" stroke="black" stroke-width="6.48"/>
<line x1="1067.001124" y1="221.962399" x2="1067.001124" y2="336.010399" stroke="black" stroke-width="6.48"/>
<line x1="1114.521124" y1="336.010399" x2="1114.521124" y2="322.546399" stroke="black" stroke-width="6.48"/>
<line x1="1114.521124" y1="322.546399" x2="1144.617124" y2="322.546399" stroke="black" stroke-width="6.48"/>
<line x1="1144.617124" y1="322.546399" x2="1144.617124" y2="335.218399" stroke="black" stroke-width="6.48"/>
<circle cx="926.025124" cy="236.218399" r="7.128000000000001" fill="none" stroke="black" stroke-width="6.48"/>
<circle cx="1176.297124" cy="237.010399" r="7.128000000000001" fill="none" stroke="black" stroke-width="6.48"/>
<line x1="5800.227941" y1="1494.617681" x2="5788.657094" y2="1523.256538" stroke="black" stroke-width="6.48"/>
<line x1="5788.657094" y1="1523.256538" x2="5982.960708" y2="1601.760294" stroke="black" stroke-width="6.48"/>
<line x1="5982.960708" y1="1601.760294" x2="5994.531562" y2="1573.121437" stroke="black" stroke-width="6.48"/>
<line x1="5994.531562" y1="1573.121437" x2="5800.227941" y2="1494.617681" stroke="black" stroke-width="6.48"/>
<line x1="5723.860345" y1="1683.634126" x2="5712.289495" y2="1712.272979" stroke="black" stroke-width="6.48"/>
<line x1="5712.289495" y1="1712.272979" x2="5906.593112" y2="1790.776735" stroke="black" stroke-width="6.48"/>
<line x1="5906.593112" y1="1790.776735" x2="5918.163959" y2="1762.137882" stroke="black" stroke-width="6.48"/>
<line x1="5918.163959" y1="1762.137882" x2="5723.860345" y2="1683.634126" stroke="black" stroke-width="6.48"/>
<line x1="5788.835111" y1="1522.815941" x2="5723.860345" y2="1683.634126" stroke="black" stroke-width="6.48"/>
<line x1="5982.435544" y1="1600.523071" x2="5996.699687" y2="1634.987264" stroke="black" stroke-width="6.48"/>
<line x1="5951.306358" y1="1747.339693" x2="5917.104749" y2="1762.222453" stroke="black" stroke-width="6.48"/>
<line x1="5997.411738" y1="1633.224874" x2="5950.594307" y2="1749.102084" stroke="black" stroke-width="6.48"/>
<line x1="5830.073287" y1="1539.989762" x2="5765.098522" y2="1700.807947" stroke="black" stroke-width="6.48"/>
<line x1="758.433715" y1="1090.068872" x2="859.632473" y2="1005.153026" stroke="black" stroke-width="6.48"/>
<line x1="859.632473" y1="1005.153026" x2="868.796057" y2="1016.073756" stroke="black" stroke-width="6.48"/>
<line x1="767.597296" y1="1100.989602" x2="868.796057" y2="1016.073756" stroke="black" stroke-width="6.48"/>
<line x1="758.433715" y1="1090.068872" x2="767.597296" y2="1100.989602" stroke="black" stroke-width="6.48"/>
<line x1="777.789976" y1="1092.436924" x2="796.493754" y2="1117.684343" stroke="black" stroke-width="6.48"/>
<line x1="858.603373" y1="1024.626434" x2="880.830256" y2="1048.158277" stroke="black" stroke-width="6.48"/>
<line x1="1054.722805" y1="1443.17246" x2="1155.921566" y2="1358.256618" stroke="black" stroke-width="6.48"/>
<line x1="1155.921566" y1="1358.256618" x2="1147.368895" y2="1348.063938" stroke="black" stroke-width="6.48"/>
<line x1="1046.17013" y1="1432.97978" x2="1147.368895" y2="1348.063938" stroke="black" stroke-width="6.48"/>
<line x1="1054.722805" y1="1443.17246" x2="1046.17013" y2="1432.97978" stroke="black" stroke-width="6.48"/>
<line x1="1054.412957" y1="1423.581916" x2="1032.796984" y2="1400.778119" stroke="black" stroke-width="6.48"/>
<line x1="1135.226354" y1="1355.771419" x2="1116.639716" y2="1329.185048" stroke="black" stroke-width="6.48"/>
<line x1="1090.543468" y1="1026.029725" x2="1079.622738" y2="1035.193302" stroke="black" stroke-width="6.48"/>
<line x1="1079.622738" y1="1035.193302" x2="1164.53858" y2="1136.392067" stroke="black" stroke-width="6.48"/>
<line x1="1175.45931" y1="1127.228486" x2="1164.53858" y2="1136.392067" stroke="black" stroke-width="6.48"/>
<line x1="1090.543468" y1="1026.029725" x2="1175.45931" y2="1127.228486" stroke="black" stroke-width="6.48"/>
<line x1="1155.375" y1="1125.471337" x2="1132.454059" y2="1148.426266" stroke="black" stroke-width="6.48"/>
<line x1="1088.175413" y1="1045.385986" x2="1062.199948" y2="1064.70067" stroke="black" stroke-width="6.48"/>
<line x1="737.55702" y1="1320.979864" x2="748.47775" y2="1311.816283" stroke="black" stroke-width="6.48"/>
<line x1="748.47775" y1="1311.816283" x2="833.393592" y2="1413.015041" stroke="black" stroke-width="6.48"/>
<line x1="822.472862" y1="1422.178625" x2="833.393592" y2="1413.015041" stroke="black" stroke-width="6.48"/>
<line x1="737.55702" y1="1320.979864" x2="822.472862" y2="1422.178625" stroke="black" stroke-width="6.48"/>
<line x1="824.230012" y1="1402.094311" x2="850.816382" y2="1383.507677" stroke="black" stroke-width="6.48"/>
<line x1="757.030424" y1="1322.008963" x2="780.562267" y2="1299.782084" stroke="black" stroke-width="6.48"/>
<circle cx="956.508163" cy="1224.104173" r="191.98080000000002" fill="none" stroke="black" stroke-width="6.48"/>
</g>
</svg>
