<?xml version="1.0"?>
<svg xmlns:xlink="http://www.w3.org/1999/xlink" width="6775.2" height="2858.4">
<image x="0" y="0" width="6775.2" height="2858.4" xlink:href="groundfilled-01.png"/>
<g style="stroke-linecap:round">
<line x1="1285.950406" y1="795.178109" x2="1311.346069" y2="795.178109" stroke="black" stroke-width="6.48"/>
<line x1="1311.346069" y1="795.178109" x2="1311.346069" y2="745.625592" stroke="black" stroke-width="6.48"/>
<line x1="1311.346069" y1="745.625592" x2="1285.950406" y2="745.625592" stroke="black" stroke-width="6.48"/>
<line x1="1285.950406" y1="745.625592" x2="1285.950406" y2="795.178109" stroke="black" stroke-width="6.48"/>
<line x1="1559.728062" y1="745.625592" x2="1559.728062" y2="498.48241" stroke="black" stroke-width="6.48"/>
<line x1="1560.347471" y1="796.416923" x2="1585.743134" y2="796.416923" stroke="black" stroke-width="6.48"/>
<line x1="1585.743134" y1="796.416923" x2="1585.743134" y2="746.864406" stroke="black" stroke-width="6.48"/>
<line x1="1585.743134" y1="746.864406" x2="1560.347471" y2="746.864406" stroke="black" stroke-width="6.48"/>
<line x1="1560.347471" y1="746.864406" x2="1560.347471" y2="796.416923" stroke="black" stroke-width="6.48"/>
<path d="m 1311.346069,747.483811 a 248.38199299999997,248.38199299999997 0 0 1 248.38199299999997,-248.38199299999997" fill="none" stroke="black" stroke-width="6.48"/>
<line x1="320.532556" y1="771.34176" x2="320.532556" y2="366.736194" stroke="black" stroke-width="6.48"/>
<line x1="320.532556" y1="366.736194" x2="258.159283" y2="366.736194" stroke="black" stroke-width="6.48"/>
<line x1="258.159283" y1="366.736194" x2="258.159283" y2="771.34176" stroke="black" stroke-width="6.48"/>
<line x1="258.159283" y1="771.34176" x2="320.532556" y2="771.34176" stroke="black" stroke-width="6.48"/>
<line x1="258.979986" y1="733.589518" x2="319.711856" y2="733.589518" stroke="black" stroke-width="6.48"/>
<line x1="258.979986" y1="405.309139" x2="322.173958" y2="405.309139" stroke="black" stroke-width="6.48"/>
<line x1="287.704519" y1="734.410217" x2="287.704519" y2="406.129838" stroke="black" stroke-width="6.48"/>
<line x1="3901.945176" y1="1169.331426" x2="3901.945176" y2="1428.837066" stroke="black" stroke-width="6.48"/>
<line x1="3901.945176" y1="1428.837066" x2="3941.9501" y2="1428.837066" stroke="black" stroke-width="6.48"/>
<line x1="3941.9501" y1="1428.837066" x2="3941.9501" y2="1169.331426" stroke="black" stroke-width="6.48"/>
<line x1="3941.9501" y1="1169.331426" x2="3901.945176" y2="1169.331426" stroke="black" stroke-width="6.48"/>
<line x1="3941.423719" y1="1193.544936" x2="3902.471557" y2="1193.544936" stroke="black" stroke-width="6.48"/>
<line x1="3941.423719" y1="1404.097178" x2="3900.892414" y2="1404.097178" stroke="black" stroke-width="6.48"/>
<line x1="3923.000399" y1="1193.018555" x2="3923.000399" y2="1403.570797" stroke="black" stroke-width="6.48"/>
<line x1="334.430687" y1="1882.943946" x2="334.430687" y2="1457.437414" stroke="black" stroke-width="6.48"/>
<line x1="334.430687" y1="1457.437414" x2="258.323828" y2="1457.437414" stroke="black" stroke-width="6.48"/>
<line x1="258.323828" y1="1457.437414" x2="258.323828" y2="1882.943946" stroke="black" stroke-width="6.48"/>
<line x1="258.323828" y1="1882.943946" x2="334.430687" y2="1882.943946" stroke="black" stroke-width="6.48"/>
<line x1="334.430687" y1="1863.05238" x2="360.376207" y2="1863.05238" stroke="black" stroke-width="6.48"/>
<line x1="360.376207" y1="1863.05238" x2="360.376207" y2="1478.193829" stroke="black" stroke-width="6.48"/>
<line x1="334.430687" y1="1478.193829" x2="360.376207" y2="1478.193829" stroke="black" stroke-width="6.48"/>
<line x1="2747.905531" y1="904.670665" x2="2721.68303" y2="904.670665" stroke="black" stroke-width="6.48"/>
<line x1="2721.68303" y1="904.670665" x2="2721.68303" y2="955.836522" stroke="black" stroke-width="6.48"/>
<line x1="2721.68303" y1="955.836522" x2="2747.905531" y2="955.836522" stroke="black" stroke-width="6.48"/>
<line x1="2747.905531" y1="955.836522" x2="2747.905531" y2="904.670665" stroke="black" stroke-width="6.48"/>
<line x1="2465.214181" y1="955.836522" x2="2465.214181" y2="1211.026223" stroke="black" stroke-width="6.48"/>
<line x1="2464.574609" y1="903.39152" x2="2438.352108" y2="903.39152" stroke="black" stroke-width="6.48"/>
<line x1="2438.352108" y1="903.39152" x2="2438.352108" y2="954.557374" stroke="black" stroke-width="6.48"/>
<line x1="2438.352108" y1="954.557374" x2="2464.574609" y2="954.557374" stroke="black" stroke-width="6.48"/>
<line x1="2464.574609" y1="954.557374" x2="2464.574609" y2="903.39152" stroke="black" stroke-width="6.48"/>
<path d="m 2721.68303,953.917801 a 256.4688490000001,256.4688490000001 0 0 1 -256.4688490000003,256.46884899999986" fill="none" stroke="black" stroke-width="6.48"/>
<line x1="2420.532389" y1="1427.858834" x2="2395.136725" y2="1427.858834" stroke="black" stroke-width="6.48"/>
<line x1="2395.136725" y1="1427.858834" x2="2395.136725" y2="1477.411351" stroke="black" stroke-width="6.48"/>
<line x1="2395.136725" y1="1477.411351" x2="2420.532389" y2="1477.411351" stroke="black" stroke-width="6.48"/>
<line x1="2420.532389" y1="1477.411351" x2="2420.532389" y2="1427.858834" stroke="black" stroke-width="6.48"/>
<line x1="2146.754732" y1="1477.411351" x2="2146.754732" y2="1724.554534" stroke="black" stroke-width="6.48"/>
<line x1="2146.135324" y1="1426.62002" x2="2120.73966" y2="1426.62002" stroke="black" stroke-width="6.48"/>
<line x1="2120.73966" y1="1426.62002" x2="2120.73966" y2="1476.172537" stroke="black" stroke-width="6.48"/>
<line x1="2120.73966" y1="1476.172537" x2="2146.135324" y2="1476.172537" stroke="black" stroke-width="6.48"/>
<line x1="2146.135324" y1="1476.172537" x2="2146.135324" y2="1426.62002" stroke="black" stroke-width="6.48"/>
<path d="m 2395.136725,1475.553132 a 248.38199299999997,248.38199299999997 0 0 1 -248.38199299999997,248.38199299999997" fill="none" stroke="black" stroke-width="6.48"/>
<line x1="893.039681" y1="541.339351" x2="1124.937281" y2="541.339351" stroke="black" stroke-width="6.48"/>
<line x1="1124.937281" y1="541.339351" x2="1124.937281" y2="773.712151" stroke="black" stroke-width="6.48"/>
<line x1="1124.937281" y1="773.712151" x2="893.039681" y2="773.712151" stroke="black" stroke-width="6.48"/>
<line x1="893.039681" y1="773.712151" x2="893.039681" y2="541.339351" stroke="black" stroke-width="6.48"/>
<line x1="892.564481" y1="540.864151" x2="1124.937281" y2="773.712151" stroke="black" stroke-width="6.48"/>
<line x1="893.039681" y1="773.236951" x2="1124.462081" y2="541.339351" stroke="black" stroke-width="6.48"/>
<line x1="2032.924367" y1="1801.431986" x2="2032.924367" y2="1592.343986" stroke="black" stroke-width="6.48"/>
<line x1="2032.924367" y1="1592.343986" x2="1801.026767" y2="1592.343986" stroke="black" stroke-width="6.48"/>
<line x1="1801.026767" y1="1592.343986" x2="1801.026767" y2="1801.431986" stroke="black" stroke-width="6.48"/>
<line x1="1801.026767" y1="1801.431986" x2="2032.924367" y2="1801.431986" stroke="black" stroke-width="6.48"/>
<line x1="2000.610767" y1="1801.431986" x2="2000.610767" y2="1592.343986" stroke="black" stroke-width="6.48"/>
<line x1="1485.415969" y1="209.267824" x2="1707.693134" y2="209.267824" stroke="black" stroke-width="6.48"/>
<line x1="1707.693134" y1="209.267824" x2="1707.693134" y2="432.000475" stroke="black" stroke-width="6.48"/>
<line x1="1707.693134" y1="432.000475" x2="1485.415969" y2="432.000475" stroke="black" stroke-width="6.48"/>
<line x1="1485.415969" y1="432.000475" x2="1485.415969" y2="209.267824" stroke="black" stroke-width="6.48"/>
<line x1="1484.960483" y1="208.812337" x2="1707.693134" y2="432.000475" stroke="black" stroke-width="6.48"/>
<line x1="1485.415969" y1="431.544989" x2="1707.237648" y2="209.267824" stroke="black" stroke-width="6.48"/>
<line x1="2586.780558" y1="1803.366338" x2="2586.780558" y2="2194.614338" stroke="black" stroke-width="6.48"/>
<line x1="2586.780558" y1="2194.614338" x2="2761.020558" y2="2194.614338" stroke="black" stroke-width="6.48"/>
<line x1="2761.020558" y1="2194.614338" x2="2761.020558" y2="1803.366338" stroke="black" stroke-width="6.48"/>
<line x1="2761.020558" y1="1803.366338" x2="2586.780558" y2="1803.366338" stroke="black" stroke-width="6.48"/>
<line x1="2734.092558" y1="2119.374338" x2="2734.092558" y2="1835.046338" stroke="black" stroke-width="6.48"/>
<line x1="2734.092558" y1="1835.046338" x2="2616.084558" y2="1835.046338" stroke="black" stroke-width="6.48"/>
<line x1="2616.084558" y1="1835.046338" x2="2616.084558" y2="2124.918338" stroke="black" stroke-width="6.48"/>
<path d="m 2734.347982,2118.563766 a 63.35999941905905,63.35999941905905 0 0 1 -119.37432999999965,4.2938139999996565" fill="none" stroke="black" stroke-width="6.48"/>
<line x1="2105.849977" y1="1911.737592" x2="2105.849977" y2="2095.481592" stroke="black" stroke-width="6.48"/>
<line x1="2105.849977" y1="2095.481592" x2="2056.745977" y2="2095.481592" stroke="black" stroke-width="6.48"/>
<line x1="2056.745977" y1="1911.737592" x2="2056.745977" y2="2095.481592" stroke="black" stroke-width="6.48"/>
<line x1="2105.849977" y1="1911.737592" x2="2056.745977" y2="1911.737592" stroke="black" stroke-width="6.48"/>
<line x1="2133.569977" y1="1953.317592" x2="2105.849977" y2="1953.317592" stroke="black" stroke-width="6.48"/>
<line x1="2105.849977" y1="2052.317592" x2="2135.153977" y2="2052.317592" stroke="black" stroke-width="6.48"/>
<circle cx="2178.713977" cy="2002.025592" r="66.52800000000002" fill="none" stroke="black" stroke-width="6.48"/>
<circle cx="2178.713977" cy="2002.025592" r="57.02400000000001" fill="none" stroke="black" stroke-width="6.48"/>
<line x1="639.248184" y1="210.468564" x2="1032.492056" y2="210.468564" stroke="black" stroke-width="6.48"/>
<line x1="1036.447463" y1="209.472282" x2="1036.447463" y2="345.541057" stroke="black" stroke-width="6.48"/>
<line x1="639.712573" y1="346.692564" x2="1036.752804" y2="346.692564" stroke="black" stroke-width="6.48"/>
<line x1="640.447463" y1="211.163314" x2="640.447463" y2="346.42737" stroke="black" stroke-width="6.48"/>
<line x1="650.743463" y1="221.556564" x2="774.295463" y2="221.556564" stroke="black" stroke-width="6.48"/>
<line x1="774.295463" y1="221.556564" x2="774.295463" y2="335.604564" stroke="black" stroke-width="6.48"/>
<line x1="650.743463" y1="335.604564" x2="774.295463" y2="335.604564" stroke="black" stroke-width="6.48"/>
<line x1="650.743463" y1="221.556564" x2="650.743463" y2="335.604564" stroke="black" stroke-width="6.48"/>
<line x1="793.303463" y1="228.684564" x2="880.423463" y2="228.684564" stroke="black" stroke-width="6.48"/>
<line x1="793.303463" y1="248.484564" x2="880.423463" y2="248.484564" stroke="black" stroke-width="6.48"/>
<line x1="794.095463" y1="269.076564" x2="880.423463" y2="269.076564" stroke="black" stroke-width="6.48"/>
<line x1="794.095463" y1="288.876564" x2="880.423463" y2="288.876564" stroke="black" stroke-width="6.48"/>
<line x1="793.303463" y1="308.676564" x2="880.423463" y2="308.676564" stroke="black" stroke-width="6.48"/>
<line x1="793.303463" y1="328.476564" x2="880.423463" y2="328.476564" stroke="black" stroke-width="6.48"/>
<line x1="698.263463" y1="334.812564" x2="698.263463" y2="321.348564" stroke="black" stroke-width="6.48"/>
<line x1="698.263463" y1="321.348564" x2="728.359463" y2="321.348564" stroke="black" stroke-width="6.48"/>
<line x1="728.359463" y1="321.348564" x2="728.359463" y2="334.020564" stroke="black" stroke-width="6.48"/>
<line x1="901.015463" y1="221.556564" x2="1024.567463" y2="221.556564" stroke="black" stroke-width="6.48"/>
<line x1="1024.567463" y1="221.556564" x2="1024.567463" y2="335.604564" stroke="black" stroke-width="6.48"/>
<line x1="901.015463" y1="335.604564" x2="1024.567463" y2="335.604564" stroke="black" stroke-width="6.48"/>
<line x1="901.015463" y1="221.556564" x2="901.015463" y2="335.604564" stroke="black" stroke-width="6.48"/>
<line x1="948.535463" y1="335.604564" x2="948.535463" y2="322.140564" stroke="black" stroke-width="6.48"/>
<line x1="948.535463" y1="322.140564" x2="978.631463" y2="322.140564" stroke="black" stroke-width="6.48"/>
<line x1="978.631463" y1="322.140564" x2="978.631463" y2="334.812564" stroke="black" stroke-width="6.48"/>
<circle cx="760.039463" cy="235.812564" r="7.128000000000001" fill="none" stroke="black" stroke-width="6.48"/>
<circle cx="1010.311463" cy="236.604564" r="7.128000000000001" fill="none" stroke="black" stroke-width="6.48"/>
<line x1="937.516921" y1="1421.919526" x2="960.456816" y2="1291.820904" stroke="black" stroke-width="6.48"/>
<line x1="960.456816" y1="1291.820904" x2="974.496236" y2="1294.296437" stroke="black" stroke-width="6.48"/>
<line x1="951.556338" y1="1424.395051" x2="974.496236" y2="1294.296437" stroke="black" stroke-width="6.48"/>
<line x1="937.516921" y1="1421.919526" x2="951.556338" y2="1424.395051" stroke="black" stroke-width="6.48"/>
<line x1="953.866829" y1="1411.291595" x2="984.423485" y2="1418.609678" stroke="black" stroke-width="6.48"/>
<line x1="972.185742" y1="1307.399893" x2="1004.338494" y2="1311.139166" stroke="black" stroke-width="6.48"/>
<line x1="1391.458144" y1="1501.961612" x2="1414.398042" y2="1371.862991" stroke="black" stroke-width="6.48"/>
<line x1="1414.398042" y1="1371.862991" x2="1401.294582" y2="1369.552496" stroke="black" stroke-width="6.48"/>
<line x1="1378.354687" y1="1499.651118" x2="1401.294582" y2="1369.552496" stroke="black" stroke-width="6.48"/>
<line x1="1391.458144" y1="1501.961612" x2="1378.354687" y2="1499.651118" stroke="black" stroke-width="6.48"/>
<line x1="1378.628222" y1="1487.153552" x2="1347.411427" y2="1483.57931" stroke="black" stroke-width="6.48"/>
<line x1="1396.947132" y1="1383.261847" x2="1365.619554" y2="1374.842765" stroke="black" stroke-width="6.48"/>
<line x1="1150.764178" y1="1159.386656" x2="1148.288648" y2="1173.426077" stroke="black" stroke-width="6.48"/>
<line x1="1148.288648" y1="1173.426077" x2="1278.38727" y2="1196.365975" stroke="black" stroke-width="6.48"/>
<line x1="1280.862796" y1="1182.326555" x2="1278.38727" y2="1196.365975" stroke="black" stroke-width="6.48"/>
<line x1="1150.764178" y1="1159.386656" x2="1280.862796" y2="1182.326555" stroke="black" stroke-width="6.48"/>
<line x1="1264.34785" y1="1193.890446" x2="1261.544533" y2="1226.208236" stroke="black" stroke-width="6.48"/>
<line x1="1161.392108" y1="1175.736571" x2="1153.908986" y2="1207.229184" stroke="black" stroke-width="6.48"/>
<line x1="1069.951165" y1="1612.226884" x2="1072.426698" y2="1598.18747" stroke="black" stroke-width="6.48"/>
<line x1="1072.426698" y1="1598.18747" x2="1202.525312" y2="1621.127365" stroke="black" stroke-width="6.48"/>
<line x1="1200.049787" y1="1635.166786" x2="1202.525312" y2="1621.127365" stroke="black" stroke-width="6.48"/>
<line x1="1069.951165" y1="1612.226884" x2="1200.049787" y2="1635.166786" stroke="black" stroke-width="6.48"/>
<line x1="1188.485892" y1="1618.651836" x2="1196.904974" y2="1587.324258" stroke="black" stroke-width="6.48"/>
<line x1="1085.530154" y1="1600.497958" x2="1089.269428" y2="1568.345206" stroke="black" stroke-width="6.48"/>
<circle cx="1175.406984" cy="1397.276723" r="191.98080000000002" fill="none" stroke="black" stroke-width="6.48"/>
<line x1="2044.889399" y1="955.822399" x2="2267.166564" y2="955.822399" stroke="black" stroke-width="6.48"/>
<line x1="2267.166564" y1="955.822399" x2="2267.166564" y2="1178.555051" stroke="black" stroke-width="6.48"/>
<line x1="2267.166564" y1="1178.555051" x2="2044.889399" y2="1178.555051" stroke="black" stroke-width="6.48"/>
<line x1="2044.889399" y1="1178.555051" x2="2044.889399" y2="955.822399" stroke="black" stroke-width="6.48"/>
<line x1="2044.433912" y1="955.366913" x2="2267.166564" y2="1178.555051" stroke="black" stroke-width="6.48"/>
<line x1="2044.889399" y1="1178.099564" x2="2266.711078" y2="955.822399" stroke="black" stroke-width="6.48"/>
<line x1="323.258818" y1="1375.374532" x2="323.258818" y2="949.841089" stroke="black" stroke-width="6.48"/>
<line x1="323.258818" y1="949.841089" x2="257.659344" y2="949.841089" stroke="black" stroke-width="6.48"/>
<line x1="257.659344" y1="949.841089" x2="257.659344" y2="1375.374532" stroke="black" stroke-width="6.48"/>
<line x1="257.659344" y1="1375.374532" x2="323.258818" y2="1375.374532" stroke="black" stroke-width="6.48"/>
<line x1="258.522494" y1="1335.669588" x2="322.395667" y2="1335.669588" stroke="black" stroke-width="6.48"/>
<line x1="258.522494" y1="990.409187" x2="324.985122" y2="990.409187" stroke="black" stroke-width="6.48"/>
<line x1="288.73278" y1="1336.532738" x2="288.73278" y2="991.272337" stroke="black" stroke-width="6.48"/>
<line x1="3874.406537" y1="1514.726719" x2="3874.406537" y2="1940.260162" stroke="black" stroke-width="6.48"/>
<line x1="3874.406537" y1="1940.260162" x2="3940.00601" y2="1940.260162" stroke="black" stroke-width="6.48"/>
<line x1="3940.00601" y1="1940.260162" x2="3940.00601" y2="1514.726719" stroke="black" stroke-width="6.48"/>
<line x1="3940.00601" y1="1514.726719" x2="3874.406537" y2="1514.726719" stroke="black" stroke-width="6.48"/>
<line x1="3939.14286" y1="1554.431663" x2="3875.269687" y2="1554.431663" stroke="black" stroke-width="6.48"/>
<line x1="3939.14286" y1="1899.692064" x2="3872.680232" y2="1899.692064" stroke="black" stroke-width="6.48"/>
<line x1="3908.932574" y1="1553.568512" x2="3908.932574" y2="1898.828914" stroke="black" stroke-width="6.48"/>
<line x1="4563.040277" y1="1176.42317" x2="4710.197736" y2="1540.650654" stroke="black" stroke-width="6.48"/>
<line x1="4710.197736" y1="1540.650654" x2="4881.296534" y2="1471.522255" stroke="black" stroke-width="6.48"/>
<line x1="4881.296534" y1="1471.522255" x2="4734.139079" y2="1107.294764" stroke="black" stroke-width="6.48"/>
<line x1="4734.139079" y1="1107.294764" x2="4563.040277" y2="1176.42317" stroke="black" stroke-width="6.48"/>
<line x1="4793.77345" y1="1254.895016" x2="4868.675068" y2="1224.632801" stroke="black" stroke-width="6.48"/>
<line x1="4868.675068" y1="1224.632801" x2="4839.302916" y2="1151.934163" stroke="black" stroke-width="6.48"/>
<line x1="4839.302916" y1="1151.934163" x2="4764.401294" y2="1182.196386" stroke="black" stroke-width="6.48"/>
<line x1="4823.444354" y1="1159.19564" x2="4852.519823" y2="1231.159943" stroke="black" stroke-width="6.48"/>
<line x1="4517.666546" y1="1281.883694" x2="4547.038702" y2="1354.582325" stroke="black" stroke-width="6.48"/>
<line x1="4547.038702" y1="1354.582325" x2="4622.674651" y2="1324.023422" stroke="black" stroke-width="6.48"/>
<line x1="4593.3025" y1="1251.324788" x2="4517.666546" y2="1281.883694" stroke="black" stroke-width="6.48"/>
<line x1="4534.118489" y1="1276.09088" x2="4563.193954" y2="1348.055179" stroke="black" stroke-width="6.48"/>
<line x1="4850.440942" y1="1395.151974" x2="4925.34256" y2="1364.889755" stroke="black" stroke-width="6.48"/>
<line x1="4925.34256" y1="1364.889755" x2="4895.970408" y2="1292.191124" stroke="black" stroke-width="6.48"/>
<line x1="4895.970408" y1="1292.191124" x2="4821.068786" y2="1322.45334" stroke="black" stroke-width="6.48"/>
<line x1="4879.815156" y1="1298.71827" x2="4909.187308" y2="1371.4169" stroke="black" stroke-width="6.48"/>
<line x1="4574.334035" y1="1422.140652" x2="4603.70619" y2="1494.839286" stroke="black" stroke-width="6.48"/>
<line x1="4603.70619" y1="1494.839286" x2="4679.34214" y2="1464.280376" stroke="black" stroke-width="6.48"/>
<line x1="4649.969988" y1="1391.581746" x2="4574.334035" y2="1422.140652" stroke="black" stroke-width="6.48"/>
<line x1="4590.489287" y1="1415.613506" x2="4619.861442" y2="1488.31214" stroke="black" stroke-width="6.48"/>
<line x1="3394.702782" y1="1075.27505" x2="3604.067986" y2="1075.27505" stroke="black" stroke-width="6.48"/>
<line x1="3604.067986" y1="1075.27505" x2="3604.067986" y2="744.060647" stroke="black" stroke-width="6.48"/>
<line x1="3604.067986" y1="744.060647" x2="3394.702782" y2="744.060647" stroke="black" stroke-width="6.48"/>
<line x1="3394.702782" y1="744.060647" x2="3394.702782" y2="1075.27505" stroke="black" stroke-width="6.48"/>
<line x1="3394.029582" y1="803.302247" x2="3604.741182" y2="803.302247" stroke="black" stroke-width="6.48"/>
<line x1="3604.741182" y1="803.302247" x2="3395.375982" y2="853.11905" stroke="black" stroke-width="6.48"/>
<line x1="3395.375982" y1="853.11905" x2="3427.016386" y2="899.56985" stroke="black" stroke-width="6.48"/>
<line x1="3427.016386" y1="899.56985" x2="3604.741182" y2="802.62905" stroke="black" stroke-width="6.48"/>
<line x1="3176.59279" y1="1204.079036" x2="3398.869955" y2="1204.079036" stroke="black" stroke-width="6.48"/>
<line x1="3398.869955" y1="1204.079036" x2="3398.869955" y2="1426.811688" stroke="black" stroke-width="6.48"/>
<line x1="3398.869955" y1="1426.811688" x2="3176.59279" y2="1426.811688" stroke="black" stroke-width="6.48"/>
<line x1="3176.59279" y1="1426.811688" x2="3176.59279" y2="1204.079036" stroke="black" stroke-width="6.48"/>
<line x1="3176.137303" y1="1203.62355" x2="3398.869955" y2="1426.811688" stroke="black" stroke-width="6.48"/>
<line x1="3176.59279" y1="1426.356202" x2="3398.414468" y2="1204.079036" stroke="black" stroke-width="6.48"/>
<line x1="2804.16708" y1="1127.69402" x2="2804.16708" y2="1153.148746" stroke="black" stroke-width="6.48"/>
<line x1="2804.16708" y1="1153.148746" x2="2853.834836" y2="1153.148746" stroke="black" stroke-width="6.48"/>
<line x1="2853.834836" y1="1153.148746" x2="2853.834836" y2="1127.69402" stroke="black" stroke-width="6.48"/>
<line x1="2853.834836" y1="1127.69402" x2="2804.16708" y2="1127.69402" stroke="black" stroke-width="6.48"/>
<line x1="2853.834836" y1="1402.108373" x2="3101.55277" y2="1402.108373" stroke="black" stroke-width="6.48"/>
<line x1="2802.925386" y1="1402.729218" x2="2802.925386" y2="1428.183943" stroke="black" stroke-width="6.48"/>
<line x1="2802.925386" y1="1428.183943" x2="2852.593142" y2="1428.183943" stroke="black" stroke-width="6.48"/>
<line x1="2852.593142" y1="1428.183943" x2="2852.593142" y2="1402.729218" stroke="black" stroke-width="6.48"/>
<line x1="2852.593142" y1="1402.729218" x2="2802.925386" y2="1402.729218" stroke="black" stroke-width="6.48"/>
<path d="m 2851.972294,1153.148746 a 248.95962699999984,248.95962699999984 0 0 1 248.95962699999973,248.95962699999995" fill="none" stroke="black" stroke-width="6.48"/>
<line x1="2957.944536" y1="2022.140261" x2="2886.739391" y2="2198.379398" stroke="black" stroke-width="6.48"/>
<line x1="2886.739391" y1="2198.379398" x2="3316.762886" y2="2372.119949" stroke="black" stroke-width="6.48"/>
<line x1="3316.762886" y1="2372.119949" x2="3387.968032" y2="2195.880811" stroke="black" stroke-width="6.48"/>
<line x1="3387.968032" y1="2195.880811" x2="3365.938141" y2="2186.980168" stroke="black" stroke-width="6.48"/>
<line x1="3365.938141" y1="2186.980168" x2="3303.277614" y2="2342.070612" stroke="black" stroke-width="6.48"/>
<line x1="3303.277614" y1="2342.070612" x2="2918.195096" y2="2186.487371" stroke="black" stroke-width="6.48"/>
<line x1="2918.195096" y1="2186.487371" x2="2980.855624" y2="2031.39693" stroke="black" stroke-width="6.48"/>
<line x1="2980.855624" y1="2031.39693" x2="2957.944536" y2="2022.140261" stroke="black" stroke-width="6.48"/>
<line x1="2978.71947" y1="2036.684102" x2="3363.801988" y2="2192.267344" stroke="black" stroke-width="6.48"/>
<line x1="3171.176154" y1="2113.416515" x2="3110.651784" y2="2263.219783" stroke="black" stroke-width="6.48"/>
<line x1="3702.828776" y1="1854.99801" x2="3494.400592" y2="1956.655228" stroke="black" stroke-width="6.48"/>
<line x1="3494.400592" y1="1956.655228" x2="3392.535064" y2="1747.799935" stroke="black" stroke-width="6.48"/>
<line x1="3392.535064" y1="1747.799935" x2="3600.963245" y2="1646.142721" stroke="black" stroke-width="6.48"/>
<line x1="3600.963245" y1="1646.142721" x2="3702.828776" y2="1854.99801" stroke="black" stroke-width="6.48"/>
<line x1="3703.464198" y1="1855.2168" x2="3392.535064" y2="1747.799935" stroke="black" stroke-width="6.48"/>
<line x1="3601.171555" y1="1646.569825" x2="3494.827699" y2="1956.446914" stroke="black" stroke-width="6.48"/>
<line x1="3054.501112" y1="1589.315882" x2="3045.470335" y2="1618.854221" stroke="black" stroke-width="6.48"/>
<line x1="3045.470335" y1="1618.854221" x2="3245.876618" y2="1680.124576" stroke="black" stroke-width="6.48"/>
<line x1="3245.876618" y1="1680.124576" x2="3254.907395" y2="1650.586234" stroke="black" stroke-width="6.48"/>
<line x1="3254.907395" y1="1650.586234" x2="3054.501112" y2="1589.315882" stroke="black" stroke-width="6.48"/>
<line x1="2994.897982" y1="1784.268936" x2="2985.867205" y2="1813.807274" stroke="black" stroke-width="6.48"/>
<line x1="2985.867205" y1="1813.807274" x2="3186.273488" y2="1875.077629" stroke="black" stroke-width="6.48"/>
<line x1="3186.273488" y1="1875.077629" x2="3195.304268" y2="1845.539287" stroke="black" stroke-width="6.48"/>
<line x1="3195.304268" y1="1845.539287" x2="2994.897982" y2="1784.268936" stroke="black" stroke-width="6.48"/>
<line x1="3045.60927" y1="1618.399789" x2="2994.897982" y2="1784.268936" stroke="black" stroke-width="6.48"/>
<line x1="3245.245618" y1="1678.937832" x2="3262.459234" y2="1712.027675" stroke="black" stroke-width="6.48"/>
<line x1="3227.030802" y1="1827.90886" x2="3194.25646" y2="1845.715849" stroke="black" stroke-width="6.48"/>
<line x1="3263.014976" y1="1710.209934" x2="3226.475063" y2="1829.726608" stroke="black" stroke-width="6.48"/>
<line x1="3088.187323" y1="1631.914117" x2="3037.476031" y2="1797.783268" stroke="black" stroke-width="6.48"/>
<line x1="1029.914561" y1="1936.932696" x2="1052.133523" y2="1958.389312" stroke="black" stroke-width="6.48"/>
<line x1="1052.133523" y1="1958.389312" x2="1197.70839" y2="1807.642195" stroke="black" stroke-width="6.48"/>
<line x1="1197.70839" y1="1807.642195" x2="1175.489428" y2="1786.18558" stroke="black" stroke-width="6.48"/>
<line x1="1175.489428" y1="1786.18558" x2="1029.914561" y2="1936.932696" stroke="black" stroke-width="6.48"/>
<line x1="1176.559708" y1="2078.546342" x2="1198.778674" y2="2100.002954" stroke="black" stroke-width="6.48"/>
<line x1="1198.778674" y1="2100.002954" x2="1344.35354" y2="1949.255838" stroke="black" stroke-width="6.48"/>
<line x1="1344.35354" y1="1949.255838" x2="1322.134582" y2="1927.79923" stroke="black" stroke-width="6.48"/>
<line x1="1322.134582" y1="1927.79923" x2="1176.559708" y2="2078.546342" stroke="black" stroke-width="6.48"/>
<line x1="1051.791689" y1="1958.059206" x2="1176.559708" y2="2078.546342" stroke="black" stroke-width="6.48"/>
<line x1="1196.364528" y1="1807.665649" x2="1233.662616" y2="1807.350689" stroke="black" stroke-width="6.48"/>
<line x1="1320.829315" y1="1891.526634" x2="1321.816205" y2="1928.812993" stroke="black" stroke-width="6.48"/>
<line x1="1232.295289" y1="1806.030281" x2="1322.196631" y2="1892.847038" stroke="black" stroke-width="6.48"/>
<line x1="1083.163086" y1="1926.25727" x2="1207.931105" y2="2046.744407" stroke="black" stroke-width="6.48"/>
<line x1="6002.816832" y1="1878.112318" x2="6017.402077" y2="2086.69099" stroke="black" stroke-width="6.48"/>
<line x1="6017.402077" y1="2086.69099" x2="6248.734787" y2="2070.514631" stroke="black" stroke-width="6.48"/>
<line x1="6248.734787" y1="2070.514631" x2="6234.149545" y2="1861.935959" stroke="black" stroke-width="6.48"/>
<line x1="6234.149545" y1="1861.935959" x2="6002.816832" y2="1878.112318" stroke="black" stroke-width="6.48"/>
<line x1="6035.051722" y1="1875.858232" x2="6049.636963" y2="2084.436907" stroke="black" stroke-width="6.48"/>
</g>
</svg>
