<?xml version="1.0"?>
<svg xmlns:xlink="http://www.w3.org/1999/xlink" width="6775.2" height="2858.4">
<image x="0" y="0" width="6775.2" height="2858.4" xlink:href="groundfilled-01.png"/>
<g style="stroke-linecap:round">
<line x1="1285.950406" y1="795.178109" x2="1311.346069" y2="795.178109" stroke="black" stroke-width="6.48"/>
<line x1="1311.346069" y1="795.178109" x2="1311.346069" y2="745.625592" stroke="black" stroke-width="6.48"/>
<line x1="1311.346069" y1="745.625592" x2="1285.950406" y2="745.625592" stroke="black" stroke-width="6.48"/>
<line x1="1285.950406" y1="745.625592" x2="1285.950406" y2="795.178109" stroke="black" stroke-width="6.48"/>
<line x1="1559.728062" y1="745.625592" x2="1559.728062" y2="498.48241" stroke="black" stroke-width="6.48"/>
<line x1="1560.347471" y1="796.416923" x2="1585.743134" y2="796.416923" stroke="black" stroke-width="6.48"/>
<line x1="1585.743134" y1="796.416923" x2="1585.743134" y2="746.864406" stroke="black" stroke-width="6.48"/>
<line x1="1585.743134" y1="746.864406" x2="1560.347471" y2="746.864406" stroke="black" stroke-width="6.48"/>
<line x1="1560.347471" y1="746.864406" x2="1560.347471" y2="796.416923" stroke="black" stroke-width="6.48"/>
<path d="m 1311.346069,747.483811 a 248.38199299999997,248.38199299999997 0 0 1 248.38199299999997,-248.38199299999997" fill="none" stroke="black" stroke-width="6.48"/>
<line x1="330.523178" y1="771.328966" x2="330.523178" y2="366.748985" stroke="black" stroke-width="6.48"/>
<line x1="330.523178" y1="366.748985" x2="258.15928" y2="366.748985" stroke="black" stroke-width="6.48"/>
<line x1="258.15928" y1="366.748985" x2="258.15928" y2="771.328966" stroke="black" stroke-width="6.48"/>
<line x1="258.15928" y1="771.328966" x2="330.523178" y2="771.328966" stroke="black" stroke-width="6.48"/>
<line x1="330.523178" y1="752.415674" x2="355.19269" y2="752.415674" stroke="black" stroke-width="6.48"/>
<line x1="355.19269" y1="752.415674" x2="355.19269" y2="386.484595" stroke="black" stroke-width="6.48"/>
<line x1="330.523178" y1="386.484595" x2="355.19269" y2="386.484595" stroke="black" stroke-width="6.48"/>
<line x1="3901.945176" y1="1169.331426" x2="3901.945176" y2="1428.837066" stroke="black" stroke-width="6.48"/>
<line x1="3901.945176" y1="1428.837066" x2="3941.9501" y2="1428.837066" stroke="black" stroke-width="6.48"/>
<line x1="3941.9501" y1="1428.837066" x2="3941.9501" y2="1169.331426" stroke="black" stroke-width="6.48"/>
<line x1="3941.9501" y1="1169.331426" x2="3901.945176" y2="1169.331426" stroke="black" stroke-width="6.48"/>
<line x1="3941.423719" y1="1193.544936" x2="3902.471557" y2="1193.544936" stroke="black" stroke-width="6.48"/>
<line x1="3941.423719" y1="1404.097178" x2="3900.892414" y2="1404.097178" stroke="black" stroke-width="6.48"/>
<line x1="3923.000399" y1="1193.018555" x2="3923.000399" y2="1403.570797" stroke="black" stroke-width="6.48"/>
<line x1="334.430687" y1="1882.943946" x2="334.430687" y2="1457.437414" stroke="black" stroke-width="6.48"/>
<line x1="334.430687" y1="1457.437414" x2="258.323828" y2="1457.437414" stroke="black" stroke-width="6.48"/>
<line x1="258.323828" y1="1457.437414" x2="258.323828" y2="1882.943946" stroke="black" stroke-width="6.48"/>
<line x1="258.323828" y1="1882.943946" x2="334.430687" y2="1882.943946" stroke="black" stroke-width="6.48"/>
<line x1="334.430687" y1="1863.05238" x2="360.376207" y2="1863.05238" stroke="black" stroke-width="6.48"/>
<line x1="360.376207" y1="1863.05238" x2="360.376207" y2="1478.193829" stroke="black" stroke-width="6.48"/>
<line x1="334.430687" y1="1478.193829" x2="360.376207" y2="1478.193829" stroke="black" stroke-width="6.48"/>
<line x1="2747.905531" y1="904.670665" x2="2721.68303" y2="904.670665" stroke="black" stroke-width="6.48"/>
<line x1="2721.68303" y1="904.670665" x2="2721.68303" y2="955.836522" stroke="black" stroke-width="6.48"/>
<line x1="2721.68303" y1="955.836522" x2="2747.905531" y2="955.836522" stroke="black" stroke-width="6.48"/>
<line x1="2747.905531" y1="955.836522" x2="2747.905531" y2="904.670665" stroke="black" stroke-width="6.48"/>
<line x1="2465.214181" y1="955.836522" x2="2465.214181" y2="1211.026223" stroke="black" stroke-width="6.48"/>
<line x1="2464.574609" y1="903.39152" x2="2438.352108" y2="903.39152" stroke="black" stroke-width="6.48"/>
<line x1="2438.352108" y1="903.39152" x2="2438.352108" y2="954.557374" stroke="black" stroke-width="6.48"/>
<line x1="2438.352108" y1="954.557374" x2="2464.574609" y2="954.557374" stroke="black" stroke-width="6.48"/>
<line x1="2464.574609" y1="954.557374" x2="2464.574609" y2="903.39152" stroke="black" stroke-width="6.48"/>
<path d="m 2721.68303,953.917801 a 256.4688490000001,256.4688490000001 0 0 1 -256.4688490000003,256.46884899999986" fill="none" stroke="black" stroke-width="6.48"/>
<line x1="2420.532389" y1="1427.858834" x2="2395.136725" y2="1427.858834" stroke="black" stroke-width="6.48"/>
<line x1="2395.136725" y1="1427.858834" x2="2395.136725" y2="1477.411351" stroke="black" stroke-width="6.48"/>
<line x1="2395.136725" y1="1477.411351" x2="2420.532389" y2="1477.411351" stroke="black" stroke-width="6.48"/>
<line x1="2420.532389" y1="1477.411351" x2="2420.532389" y2="1427.858834" stroke="black" stroke-width="6.48"/>
<line x1="2146.754732" y1="1477.411351" x2="2146.754732" y2="1724.554534" stroke="black" stroke-width="6.48"/>
<line x1="2146.135324" y1="1426.62002" x2="2120.73966" y2="1426.62002" stroke="black" stroke-width="6.48"/>
<line x1="2120.73966" y1="1426.62002" x2="2120.73966" y2="1476.172537" stroke="black" stroke-width="6.48"/>
<line x1="2120.73966" y1="1476.172537" x2="2146.135324" y2="1476.172537" stroke="black" stroke-width="6.48"/>
<line x1="2146.135324" y1="1476.172537" x2="2146.135324" y2="1426.62002" stroke="black" stroke-width="6.48"/>
<path d="m 2395.136725,1475.553132 a 248.38199299999997,248.38199299999997 0 0 1 -248.38199299999997,248.38199299999997" fill="none" stroke="black" stroke-width="6.48"/>
<line x1="560.045218" y1="692.136151" x2="952.877218" y2="692.136151" stroke="black" stroke-width="6.48"/>
<line x1="952.877218" y1="692.136151" x2="952.877218" y2="507.600151" stroke="black" stroke-width="6.48"/>
<line x1="952.877218" y1="507.600151" x2="560.045218" y2="507.600151" stroke="black" stroke-width="6.48"/>
<line x1="560.045218" y1="507.600151" x2="560.045218" y2="692.136151" stroke="black" stroke-width="6.48"/>
<line x1="719.237218" y1="507.600151" x2="719.237218" y2="426.816151" stroke="black" stroke-width="6.48"/>
<line x1="719.237218" y1="426.816151" x2="640.829218" y2="426.816151" stroke="black" stroke-width="6.48"/>
<line x1="640.829218" y1="426.816151" x2="640.829218" y2="507.600151" stroke="black" stroke-width="6.48"/>
<line x1="641.621218" y1="444.240151" x2="719.237218" y2="444.240151" stroke="black" stroke-width="6.48"/>
<line x1="640.829218" y1="773.712151" x2="719.237218" y2="773.712151" stroke="black" stroke-width="6.48"/>
<line x1="719.237218" y1="773.712151" x2="719.237218" y2="692.136151" stroke="black" stroke-width="6.48"/>
<line x1="640.829218" y1="692.136151" x2="640.829218" y2="773.712151" stroke="black" stroke-width="6.48"/>
<line x1="641.621218" y1="756.288151" x2="719.237218" y2="756.288151" stroke="black" stroke-width="6.48"/>
<line x1="870.509218" y1="507.600151" x2="870.509218" y2="426.816151" stroke="black" stroke-width="6.48"/>
<line x1="870.509218" y1="426.816151" x2="792.101218" y2="426.816151" stroke="black" stroke-width="6.48"/>
<line x1="792.101218" y1="426.816151" x2="792.101218" y2="507.600151" stroke="black" stroke-width="6.48"/>
<line x1="792.101218" y1="444.240151" x2="870.509218" y2="444.240151" stroke="black" stroke-width="6.48"/>
<line x1="792.101218" y1="773.712151" x2="870.509218" y2="773.712151" stroke="black" stroke-width="6.48"/>
<line x1="870.509218" y1="773.712151" x2="870.509218" y2="692.136151" stroke="black" stroke-width="6.48"/>
<line x1="792.101218" y1="692.136151" x2="792.101218" y2="773.712151" stroke="black" stroke-width="6.48"/>
<line x1="792.101218" y1="756.288151" x2="870.509218" y2="756.288151" stroke="black" stroke-width="6.48"/>
<line x1="2032.924367" y1="2089.838322" x2="2032.924367" y2="1880.750322" stroke="black" stroke-width="6.48"/>
<line x1="2032.924367" y1="1880.750322" x2="1801.026767" y2="1880.750322" stroke="black" stroke-width="6.48"/>
<line x1="1801.026767" y1="1880.750322" x2="1801.026767" y2="2089.838322" stroke="black" stroke-width="6.48"/>
<line x1="1801.026767" y1="2089.838322" x2="2032.924367" y2="2089.838322" stroke="black" stroke-width="6.48"/>
<line x1="2000.610767" y1="2089.838322" x2="2000.610767" y2="1880.750322" stroke="black" stroke-width="6.48"/>
<line x1="1485.415969" y1="209.267824" x2="1707.693134" y2="209.267824" stroke="black" stroke-width="6.48"/>
<line x1="1707.693134" y1="209.267824" x2="1707.693134" y2="432.000475" stroke="black" stroke-width="6.48"/>
<line x1="1707.693134" y1="432.000475" x2="1485.415969" y2="432.000475" stroke="black" stroke-width="6.48"/>
<line x1="1485.415969" y1="432.000475" x2="1485.415969" y2="209.267824" stroke="black" stroke-width="6.48"/>
<line x1="1484.960483" y1="208.812337" x2="1707.693134" y2="432.000475" stroke="black" stroke-width="6.48"/>
<line x1="1485.415969" y1="431.544989" x2="1707.237648" y2="209.267824" stroke="black" stroke-width="6.48"/>
<line x1="2761.020558" y1="2194.614338" x2="2761.020558" y2="1803.366338" stroke="black" stroke-width="6.48"/>
<line x1="2761.020558" y1="1803.366338" x2="2586.780558" y2="1803.366338" stroke="black" stroke-width="6.48"/>
<line x1="2586.780558" y1="1803.366338" x2="2586.780558" y2="2194.614338" stroke="black" stroke-width="6.48"/>
<line x1="2586.780558" y1="2194.614338" x2="2761.020558" y2="2194.614338" stroke="black" stroke-width="6.48"/>
<line x1="2613.708558" y1="1878.606338" x2="2613.708558" y2="2162.934338" stroke="black" stroke-width="6.48"/>
<line x1="2613.708558" y1="2162.934338" x2="2731.716558" y2="2162.934338" stroke="black" stroke-width="6.48"/>
<line x1="2731.716558" y1="2162.934338" x2="2731.716558" y2="1873.062338" stroke="black" stroke-width="6.48"/>
<path d="m 2613.453134,1879.416911 a 63.3599990854681,63.3599990854681 0 0 1 119.3743300000001,-4.293814000000111" fill="none" stroke="black" stroke-width="6.48"/>
<line x1="2105.842072" y1="1910.741616" x2="2105.842072" y2="2094.485616" stroke="black" stroke-width="6.48"/>
<line x1="2105.842072" y1="2094.485616" x2="2056.738072" y2="2094.485616" stroke="black" stroke-width="6.48"/>
<line x1="2056.738072" y1="1910.741616" x2="2056.738072" y2="2094.485616" stroke="black" stroke-width="6.48"/>
<line x1="2105.842072" y1="1910.741616" x2="2056.738072" y2="1910.741616" stroke="black" stroke-width="6.48"/>
<line x1="2133.562072" y1="1952.321616" x2="2105.842072" y2="1952.321616" stroke="black" stroke-width="6.48"/>
<line x1="2105.842072" y1="2051.321616" x2="2135.146072" y2="2051.321616" stroke="black" stroke-width="6.48"/>
<circle cx="2178.706072" cy="2001.029616" r="66.52800000000002" fill="none" stroke="black" stroke-width="6.48"/>
<circle cx="2178.706072" cy="2001.029616" r="57.02400000000001" fill="none" stroke="black" stroke-width="6.48"/>
<line x1="693.90148" y1="210.602192" x2="1087.145352" y2="210.602192" stroke="black" stroke-width="6.48"/>
<line x1="1091.100758" y1="209.60591" x2="1091.100758" y2="345.674686" stroke="black" stroke-width="6.48"/>
<line x1="694.365869" y1="346.826192" x2="1091.4061" y2="346.826192" stroke="black" stroke-width="6.48"/>
<line x1="695.100758" y1="211.296942" x2="695.100758" y2="346.560998" stroke="black" stroke-width="6.48"/>
<line x1="705.396758" y1="221.690192" x2="828.948758" y2="221.690192" stroke="black" stroke-width="6.48"/>
<line x1="828.948758" y1="221.690192" x2="828.948758" y2="335.738192" stroke="black" stroke-width="6.48"/>
<line x1="705.396758" y1="335.738192" x2="828.948758" y2="335.738192" stroke="black" stroke-width="6.48"/>
<line x1="705.396758" y1="221.690192" x2="705.396758" y2="335.738192" stroke="black" stroke-width="6.48"/>
<line x1="847.956758" y1="228.818192" x2="935.076758" y2="228.818192" stroke="black" stroke-width="6.48"/>
<line x1="847.956758" y1="248.618192" x2="935.076758" y2="248.618192" stroke="black" stroke-width="6.48"/>
<line x1="848.748758" y1="269.210192" x2="935.076758" y2="269.210192" stroke="black" stroke-width="6.48"/>
<line x1="848.748758" y1="289.010192" x2="935.076758" y2="289.010192" stroke="black" stroke-width="6.48"/>
<line x1="847.956758" y1="308.810192" x2="935.076758" y2="308.810192" stroke="black" stroke-width="6.48"/>
<line x1="847.956758" y1="328.610192" x2="935.076758" y2="328.610192" stroke="black" stroke-width="6.48"/>
<line x1="752.916758" y1="334.946192" x2="752.916758" y2="321.482192" stroke="black" stroke-width="6.48"/>
<line x1="752.916758" y1="321.482192" x2="783.012758" y2="321.482192" stroke="black" stroke-width="6.48"/>
<line x1="783.012758" y1="321.482192" x2="783.012758" y2="334.154192" stroke="black" stroke-width="6.48"/>
<line x1="955.668758" y1="221.690192" x2="1079.220758" y2="221.690192" stroke="black" stroke-width="6.48"/>
<line x1="1079.220758" y1="221.690192" x2="1079.220758" y2="335.738192" stroke="black" stroke-width="6.48"/>
<line x1="955.668758" y1="335.738192" x2="1079.220758" y2="335.738192" stroke="black" stroke-width="6.48"/>
<line x1="955.668758" y1="221.690192" x2="955.668758" y2="335.738192" stroke="black" stroke-width="6.48"/>
<line x1="1003.188758" y1="335.738192" x2="1003.188758" y2="322.274192" stroke="black" stroke-width="6.48"/>
<line x1="1003.188758" y1="322.274192" x2="1033.284758" y2="322.274192" stroke="black" stroke-width="6.48"/>
<line x1="1033.284758" y1="322.274192" x2="1033.284758" y2="334.946192" stroke="black" stroke-width="6.48"/>
<circle cx="814.692758" cy="235.946192" r="7.128000000000001" fill="none" stroke="black" stroke-width="6.48"/>
<circle cx="1064.964758" cy="236.738192" r="7.128000000000001" fill="none" stroke="black" stroke-width="6.48"/>
<line x1="925.79607" y1="1504.399252" x2="844.46374" y2="1400.29862" stroke="black" stroke-width="6.48"/>
<line x1="844.46374" y1="1400.29862" x2="855.697619" y2="1391.521748" stroke="black" stroke-width="6.48"/>
<line x1="937.029949" y1="1495.622383" x2="855.697619" y2="1391.521748" stroke="black" stroke-width="6.48"/>
<line x1="925.79607" y1="1504.399252" x2="937.029949" y2="1495.622383" stroke="black" stroke-width="6.48"/>
<line x1="928.838207" y1="1485.137426" x2="954.722992" y2="1467.326164" stroke="black" stroke-width="6.48"/>
<line x1="863.889368" y1="1402.006705" x2="888.182582" y2="1380.614616" stroke="black" stroke-width="6.48"/>
<line x1="1289.024896" y1="1220.61379" x2="1207.692569" y2="1116.513158" stroke="black" stroke-width="6.48"/>
<line x1="1207.692569" y1="1116.513158" x2="1197.207612" y2="1124.704901" stroke="black" stroke-width="6.48"/>
<line x1="1278.539942" y1="1228.805536" x2="1197.207612" y2="1124.704901" stroke="black" stroke-width="6.48"/>
<line x1="1289.024896" y1="1220.61379" x2="1278.539942" y2="1228.805536" stroke="black" stroke-width="6.48"/>
<line x1="1269.43547" y1="1220.239753" x2="1245.891179" y2="1241.04672" stroke="black" stroke-width="6.48"/>
<line x1="1204.486632" y1="1137.109032" x2="1177.267792" y2="1154.756498" stroke="black" stroke-width="6.48"/>
<line x1="873.386392" y1="1170.256878" x2="882.163267" y2="1181.490761" stroke="black" stroke-width="6.48"/>
<line x1="882.163267" y1="1181.490761" x2="986.263902" y2="1100.15843" stroke="black" stroke-width="6.48"/>
<line x1="977.487026" y1="1088.924551" x2="986.263902" y2="1100.15843" stroke="black" stroke-width="6.48"/>
<line x1="873.386392" y1="1170.256878" x2="977.487026" y2="1088.924551" stroke="black" stroke-width="6.48"/>
<line x1="975.030019" y1="1108.935302" x2="997.171031" y2="1132.643394" stroke="black" stroke-width="6.48"/>
<line x1="892.64822" y1="1173.299015" x2="911.044606" y2="1199.932733" stroke="black" stroke-width="6.48"/>
<line x1="1155.837809" y1="1533.321907" x2="1147.06094" y2="1522.088024" stroke="black" stroke-width="6.48"/>
<line x1="1147.06094" y1="1522.088024" x2="1251.161572" y2="1440.755701" stroke="black" stroke-width="6.48"/>
<line x1="1259.938444" y1="1451.989577" x2="1251.161572" y2="1440.755701" stroke="black" stroke-width="6.48"/>
<line x1="1155.837809" y1="1533.321907" x2="1259.938444" y2="1451.989577" stroke="black" stroke-width="6.48"/>
<line x1="1239.927692" y1="1449.53257" x2="1222.28023" y2="1422.313729" stroke="black" stroke-width="6.48"/>
<line x1="1157.545897" y1="1513.896282" x2="1136.153804" y2="1489.603068" stroke="black" stroke-width="6.48"/>
<circle cx="1066.662418" cy="1311.123229" r="191.98080000000002" fill="none" stroke="black" stroke-width="6.48"/>
<line x1="2044.889399" y1="955.822399" x2="2267.166564" y2="955.822399" stroke="black" stroke-width="6.48"/>
<line x1="2267.166564" y1="955.822399" x2="2267.166564" y2="1178.555051" stroke="black" stroke-width="6.48"/>
<line x1="2267.166564" y1="1178.555051" x2="2044.889399" y2="1178.555051" stroke="black" stroke-width="6.48"/>
<line x1="2044.889399" y1="1178.555051" x2="2044.889399" y2="955.822399" stroke="black" stroke-width="6.48"/>
<line x1="2044.433912" y1="955.366913" x2="2267.166564" y2="1178.555051" stroke="black" stroke-width="6.48"/>
<line x1="2044.889399" y1="1178.099564" x2="2266.711078" y2="955.822399" stroke="black" stroke-width="6.48"/>
<line x1="333.766206" y1="1375.361078" x2="333.766206" y2="949.854546" stroke="black" stroke-width="6.48"/>
<line x1="333.766206" y1="949.854546" x2="257.659348" y2="949.854546" stroke="black" stroke-width="6.48"/>
<line x1="257.659348" y1="949.854546" x2="257.659348" y2="1375.361078" stroke="black" stroke-width="6.48"/>
<line x1="257.659348" y1="1375.361078" x2="333.766206" y2="1375.361078" stroke="black" stroke-width="6.48"/>
<line x1="333.766206" y1="1355.469512" x2="359.711726" y2="1355.469512" stroke="black" stroke-width="6.48"/>
<line x1="359.711726" y1="1355.469512" x2="359.711726" y2="970.610962" stroke="black" stroke-width="6.48"/>
<line x1="333.766206" y1="970.610962" x2="359.711726" y2="970.610962" stroke="black" stroke-width="6.48"/>
<line x1="3874.406537" y1="1514.726719" x2="3874.406537" y2="1940.260162" stroke="black" stroke-width="6.48"/>
<line x1="3874.406537" y1="1940.260162" x2="3940.00601" y2="1940.260162" stroke="black" stroke-width="6.48"/>
<line x1="3940.00601" y1="1940.260162" x2="3940.00601" y2="1514.726719" stroke="black" stroke-width="6.48"/>
<line x1="3940.00601" y1="1514.726719" x2="3874.406537" y2="1514.726719" stroke="black" stroke-width="6.48"/>
<line x1="3939.14286" y1="1554.431663" x2="3875.269687" y2="1554.431663" stroke="black" stroke-width="6.48"/>
<line x1="3939.14286" y1="1899.692064" x2="3872.680232" y2="1899.692064" stroke="black" stroke-width="6.48"/>
<line x1="3908.932574" y1="1553.568512" x2="3908.932574" y2="1898.828914" stroke="black" stroke-width="6.48"/>
<line x1="5222.447384" y1="1677.403314" x2="5249.913685" y2="1806.622088" stroke="black" stroke-width="6.48"/>
<line x1="5249.913685" y1="1806.622088" x2="5235.969215" y2="1809.586076" stroke="black" stroke-width="6.48"/>
<line x1="5208.502914" y1="1680.367302" x2="5235.969215" y2="1809.586076" stroke="black" stroke-width="6.48"/>
<line x1="5222.447384" y1="1677.403314" x2="5208.502914" y2="1680.367302" stroke="black" stroke-width="6.48"/>
<line x1="5211.269305" y1="1693.382144" x2="5180.196269" y2="1698.043658" stroke="black" stroke-width="6.48"/>
<line x1="5233.202824" y1="1796.571238" x2="5201.990554" y2="1805.148875" stroke="black" stroke-width="6.48"/>
<line x1="4771.57612" y1="1773.238961" x2="4799.04242" y2="1902.457735" stroke="black" stroke-width="6.48"/>
<line x1="4799.04242" y1="1902.457735" x2="4812.057259" y2="1899.691344" stroke="black" stroke-width="6.48"/>
<line x1="4784.590962" y1="1770.472573" x2="4812.057259" y2="1899.691344" stroke="black" stroke-width="6.48"/>
<line x1="4771.57612" y1="1773.238961" x2="4784.590962" y2="1770.472573" stroke="black" stroke-width="6.48"/>
<line x1="4789.019012" y1="1782.16258" x2="4819.301654" y2="1773.782543" stroke="black" stroke-width="6.48"/>
<line x1="4810.952531" y1="1885.351676" x2="4843.152799" y2="1881.422194" stroke="black" stroke-width="6.48"/>
<line x1="5123.074518" y1="2000.703377" x2="5120.110523" y2="1986.758906" stroke="black" stroke-width="6.48"/>
<line x1="5120.110523" y1="1986.758906" x2="4990.891752" y2="2014.225204" stroke="black" stroke-width="6.48"/>
<line x1="4993.85574" y1="2028.169674" x2="4990.891752" y2="2014.225204" stroke="black" stroke-width="6.48"/>
<line x1="5123.074518" y1="2000.703377" x2="4993.85574" y2="2028.169674" stroke="black" stroke-width="6.48"/>
<line x1="5004.836222" y1="2011.261216" x2="4995.32895" y2="1980.246542" stroke="black" stroke-width="6.48"/>
<line x1="5107.095688" y1="1989.525294" x2="5102.236573" y2="1957.522626" stroke="black" stroke-width="6.48"/>
<line x1="5028.3661" y1="1550.56414" x2="5031.330088" y2="1564.508617" stroke="black" stroke-width="6.48"/>
<line x1="5031.330088" y1="1564.508617" x2="4902.111313" y2="1591.974914" stroke="black" stroke-width="6.48"/>
<line x1="4899.147322" y1="1578.03044" x2="4902.111313" y2="1591.974914" stroke="black" stroke-width="6.48"/>
<line x1="5028.3661" y1="1550.56414" x2="4899.147322" y2="1578.03044" stroke="black" stroke-width="6.48"/>
<line x1="4916.055784" y1="1589.010923" x2="4919.985266" y2="1621.211191" stroke="black" stroke-width="6.48"/>
<line x1="5018.315245" y1="1567.275005" x2="5026.892882" y2="1598.487278" stroke="black" stroke-width="6.48"/>
<circle cx="5011.110918" cy="1789.366907" r="191.98080000000002" fill="none" stroke="black" stroke-width="6.48"/>
<line x1="3475.084471" y1="1075.540338" x2="3684.449675" y2="1075.540338" stroke="black" stroke-width="6.48"/>
<line x1="3684.449675" y1="1075.540338" x2="3684.449675" y2="744.325934" stroke="black" stroke-width="6.48"/>
<line x1="3684.449675" y1="744.325934" x2="3475.084471" y2="744.325934" stroke="black" stroke-width="6.48"/>
<line x1="3475.084471" y1="744.325934" x2="3475.084471" y2="1075.540338" stroke="black" stroke-width="6.48"/>
<line x1="3474.411271" y1="803.567534" x2="3685.122871" y2="803.567534" stroke="black" stroke-width="6.48"/>
<line x1="3685.122871" y1="803.567534" x2="3475.757671" y2="853.384338" stroke="black" stroke-width="6.48"/>
<line x1="3475.757671" y1="853.384338" x2="3507.398075" y2="899.835138" stroke="black" stroke-width="6.48"/>
<line x1="3507.398075" y1="899.835138" x2="3685.122871" y2="802.894338" stroke="black" stroke-width="6.48"/>
<line x1="3408.522552" y1="1203.140048" x2="3630.799717" y2="1203.140048" stroke="black" stroke-width="6.48"/>
<line x1="3630.799717" y1="1203.140048" x2="3630.799717" y2="1425.8727" stroke="black" stroke-width="6.48"/>
<line x1="3630.799717" y1="1425.8727" x2="3408.522552" y2="1425.8727" stroke="black" stroke-width="6.48"/>
<line x1="3408.522552" y1="1425.8727" x2="3408.522552" y2="1203.140048" stroke="black" stroke-width="6.48"/>
<line x1="3408.067066" y1="1202.684562" x2="3630.799717" y2="1425.8727" stroke="black" stroke-width="6.48"/>
<line x1="3408.522552" y1="1425.417214" x2="3630.344231" y2="1203.140048" stroke="black" stroke-width="6.48"/>
<line x1="2804.16708" y1="1127.69402" x2="2804.16708" y2="1153.148746" stroke="black" stroke-width="6.48"/>
<line x1="2804.16708" y1="1153.148746" x2="2853.834836" y2="1153.148746" stroke="black" stroke-width="6.48"/>
<line x1="2853.834836" y1="1153.148746" x2="2853.834836" y2="1127.69402" stroke="black" stroke-width="6.48"/>
<line x1="2853.834836" y1="1127.69402" x2="2804.16708" y2="1127.69402" stroke="black" stroke-width="6.48"/>
<line x1="2853.834836" y1="1402.108373" x2="3101.55277" y2="1402.108373" stroke="black" stroke-width="6.48"/>
<line x1="2802.925386" y1="1402.729218" x2="2802.925386" y2="1428.183943" stroke="black" stroke-width="6.48"/>
<line x1="2802.925386" y1="1428.183943" x2="2852.593142" y2="1428.183943" stroke="black" stroke-width="6.48"/>
<line x1="2852.593142" y1="1428.183943" x2="2852.593142" y2="1402.729218" stroke="black" stroke-width="6.48"/>
<line x1="2852.593142" y1="1402.729218" x2="2802.925386" y2="1402.729218" stroke="black" stroke-width="6.48"/>
<path d="m 2851.972294,1153.148746 a 248.95962699999984,248.95962699999984 0 0 1 248.95962699999973,248.95962699999995" fill="none" stroke="black" stroke-width="6.48"/>
<line x1="2958.875698" y1="2022.589598" x2="2887.670552" y2="2198.828736" stroke="black" stroke-width="6.48"/>
<line x1="2887.670552" y1="2198.828736" x2="3317.694048" y2="2372.569286" stroke="black" stroke-width="6.48"/>
<line x1="3317.694048" y1="2372.569286" x2="3388.899193" y2="2196.330149" stroke="black" stroke-width="6.48"/>
<line x1="3388.899193" y1="2196.330149" x2="3366.869303" y2="2187.429505" stroke="black" stroke-width="6.48"/>
<line x1="3366.869303" y1="2187.429505" x2="3304.208776" y2="2342.51995" stroke="black" stroke-width="6.48"/>
<line x1="3304.208776" y1="2342.51995" x2="2919.126258" y2="2186.936708" stroke="black" stroke-width="6.48"/>
<line x1="2919.126258" y1="2186.936708" x2="2981.786785" y2="2031.846268" stroke="black" stroke-width="6.48"/>
<line x1="2981.786785" y1="2031.846268" x2="2958.875698" y2="2022.589598" stroke="black" stroke-width="6.48"/>
<line x1="2979.650632" y1="2037.13344" x2="3364.733149" y2="2192.716681" stroke="black" stroke-width="6.48"/>
<line x1="3172.107316" y1="2113.865852" x2="3111.582946" y2="2263.669121" stroke="black" stroke-width="6.48"/>
<line x1="3463.603042" y1="1660.901281" x2="3688.612294" y2="1717.002385" stroke="black" stroke-width="6.48"/>
<line x1="3688.612294" y1="1717.002385" x2="3632.396224" y2="1942.472718" stroke="black" stroke-width="6.48"/>
<line x1="3632.396224" y1="1942.472718" x2="3407.386972" y2="1886.371614" stroke="black" stroke-width="6.48"/>
<line x1="3407.386972" y1="1886.371614" x2="3463.603042" y2="1660.901281" stroke="black" stroke-width="6.48"/>
<line x1="3463.256916" y1="1660.325234" x2="3632.396224" y2="1942.472718" stroke="black" stroke-width="6.48"/>
<line x1="3407.501934" y1="1885.910526" x2="3688.151206" y2="1716.887423" stroke="black" stroke-width="6.48"/>
<line x1="3042.664542" y1="1589.315882" x2="3035.716254" y2="1619.412228" stroke="black" stroke-width="6.48"/>
<line x1="3035.716254" y1="1619.412228" x2="3239.908362" y2="1666.553692" stroke="black" stroke-width="6.48"/>
<line x1="3239.908362" y1="1666.553692" x2="3246.85665" y2="1636.457346" stroke="black" stroke-width="6.48"/>
<line x1="3246.85665" y1="1636.457346" x2="3042.664542" y2="1589.315882" stroke="black" stroke-width="6.48"/>
<line x1="2996.805841" y1="1787.951743" x2="2989.857553" y2="1818.048089" stroke="black" stroke-width="6.48"/>
<line x1="2989.857553" y1="1818.048089" x2="3194.049658" y2="1865.189552" stroke="black" stroke-width="6.48"/>
<line x1="3194.049658" y1="1865.189552" x2="3200.997949" y2="1835.09321" stroke="black" stroke-width="6.48"/>
<line x1="3200.997949" y1="1835.09321" x2="2996.805841" y2="1787.951743" stroke="black" stroke-width="6.48"/>
<line x1="3035.823149" y1="1618.949207" x2="2996.805841" y2="1787.951743" stroke="black" stroke-width="6.48"/>
<line x1="3239.196113" y1="1665.413852" x2="3258.67603" y2="1697.222333" stroke="black" stroke-width="6.48"/>
<line x1="3231.417362" y1="1815.292598" x2="3199.965012" y2="1835.342435" stroke="black" stroke-width="6.48"/>
<line x1="3259.10362" y1="1695.370252" x2="3230.989776" y2="1817.144683" stroke="black" stroke-width="6.48"/>
<line x1="3079.240193" y1="1629.460523" x2="3040.222885" y2="1798.463063" stroke="black" stroke-width="6.48"/>
<line x1="6095.294528" y1="1874.90039" x2="6085.749611" y2="1904.276624" stroke="black" stroke-width="6.48"/>
<line x1="6085.749611" y1="1904.276624" x2="6285.056054" y2="1969.035214" stroke="black" stroke-width="6.48"/>
<line x1="6285.056054" y1="1969.035214" x2="6294.600976" y2="1939.65898" stroke="black" stroke-width="6.48"/>
<line x1="6294.600976" y1="1939.65898" x2="6095.294528" y2="1874.90039" stroke="black" stroke-width="6.48"/>
<line x1="6032.298074" y1="2068.783535" x2="6022.75316" y2="2098.159765" stroke="black" stroke-width="6.48"/>
<line x1="6022.75316" y1="2098.159765" x2="6222.059608" y2="2162.918358" stroke="black" stroke-width="6.48"/>
<line x1="6222.059608" y1="2162.918358" x2="6231.604522" y2="2133.542124" stroke="black" stroke-width="6.48"/>
<line x1="6231.604522" y1="2133.542124" x2="6032.298074" y2="2068.783535" stroke="black" stroke-width="6.48"/>
<line x1="6085.896455" y1="1903.82468" x2="6032.298074" y2="2068.783535" stroke="black" stroke-width="6.48"/>
<line x1="6284.445862" y1="1967.837641" x2="6301.079363" y2="2001.222864" stroke="black" stroke-width="6.48"/>
<line x1="6263.63392" y1="2116.468087" x2="6230.553793" y2="2133.700376" stroke="black" stroke-width="6.48"/>
<line x1="6301.666742" y1="1999.415092" x2="6263.046544" y2="2118.275856" stroke="black" stroke-width="6.48"/>
<line x1="6128.232163" y1="1918.080043" x2="6074.633786" y2="2083.038894" stroke="black" stroke-width="6.48"/>
<line x1="1128.77474" y1="210.510864" x2="1399.32194" y2="210.510864" stroke="black" stroke-width="6.48"/>
<line x1="1399.32194" y1="210.510864" x2="1399.32194" y2="342.458064" stroke="black" stroke-width="6.48"/>
<line x1="1128.77474" y1="342.458064" x2="1399.32194" y2="342.458064" stroke="black" stroke-width="6.48"/>
<line x1="1128.77474" y1="210.510864" x2="1128.77474" y2="342.458064" stroke="black" stroke-width="6.48"/>
<line x1="1135.42754" y1="217.163664" x2="1273.47314" y2="217.163664" stroke="black" stroke-width="6.48"/>
<line x1="1273.47314" y1="217.163664" x2="1273.47314" y2="335.250864" stroke="black" stroke-width="6.48"/>
<line x1="1135.42754" y1="335.250864" x2="1273.47314" y2="335.250864" stroke="black" stroke-width="6.48"/>
<line x1="1135.42754" y1="217.163664" x2="1135.42754" y2="335.250864" stroke="black" stroke-width="6.48"/>
<line x1="1287.88754" y1="224.925264" x2="1384.90754" y2="224.925264" stroke="black" stroke-width="6.48"/>
<line x1="1287.88754" y1="245.438064" x2="1384.90754" y2="245.438064" stroke="black" stroke-width="6.48"/>
<line x1="1288.44194" y1="266.505264" x2="1385.46194" y2="266.505264" stroke="black" stroke-width="6.48"/>
<line x1="1288.44194" y1="287.018064" x2="1385.46194" y2="287.018064" stroke="black" stroke-width="6.48"/>
<line x1="1287.88754" y1="307.530864" x2="1384.90754" y2="307.530864" stroke="black" stroke-width="6.48"/>
<line x1="1287.88754" y1="328.043664" x2="1384.90754" y2="328.043664" stroke="black" stroke-width="6.48"/>
<line x1="1188.09554" y1="335.250864" x2="1188.09554" y2="321.390864" stroke="black" stroke-width="6.48"/>
<line x1="1188.09554" y1="321.390864" x2="1222.46834" y2="321.390864" stroke="black" stroke-width="6.48"/>
<line x1="1222.46834" y1="321.390864" x2="1222.46834" y2="334.696464" stroke="black" stroke-width="6.48"/>
<circle cx="1257.94994" cy="232.132464" r="8.316000000000003" fill="none" stroke="black" stroke-width="6.48"/>
<line x1="1113.507983" y1="1983.975977" x2="1139.115294" y2="2001.248334" stroke="black" stroke-width="6.48"/>
<line x1="1139.115294" y1="2001.248334" x2="1256.301587" y2="1827.512597" stroke="black" stroke-width="6.48"/>
<line x1="1256.301587" y1="1827.512597" x2="1230.694279" y2="1810.240236" stroke="black" stroke-width="6.48"/>
<line x1="1230.694279" y1="1810.240236" x2="1113.507983" y2="1983.975977" stroke="black" stroke-width="6.48"/>
<line x1="1282.516218" y1="2097.973534" x2="1308.123529" y2="2115.245891" stroke="black" stroke-width="6.48"/>
<line x1="1308.123529" y1="2115.245891" x2="1425.309826" y2="1941.510154" stroke="black" stroke-width="6.48"/>
<line x1="1425.309826" y1="1941.510154" x2="1399.702511" y2="1924.237793" stroke="black" stroke-width="6.48"/>
<line x1="1399.702511" y1="1924.237793" x2="1282.516218" y2="2097.973534" stroke="black" stroke-width="6.48"/>
<line x1="1138.721332" y1="2000.982607" x2="1282.516218" y2="2097.973534" stroke="black" stroke-width="6.48"/>
<line x1="1254.982212" y1="1827.769057" x2="1291.658965" y2="1820.982136" stroke="black" stroke-width="6.48"/>
<line x1="1392.118409" y1="1888.742916" x2="1399.565016" y2="1925.291437" stroke="black" stroke-width="6.48"/>
<line x1="1290.08313" y1="1819.919218" x2="1393.694237" y2="1889.805834" stroke="black" stroke-width="6.48"/>
<line x1="1164.093779" y1="1964.216225" x2="1307.888658" y2="2061.207155" stroke="black" stroke-width="6.48"/>
</g>
</svg>
