<?xml version="1.0"?>
<svg xmlns:xlink="http://www.w3.org/1999/xlink" width="6775.2" height="2858.4">
<image x="0" y="0" width="6775.2" height="2858.4" xlink:href="groundfilled-01.png"/>
<g style="stroke-linecap:round">
<line x1="1285.950406" y1="795.178109" x2="1311.346069" y2="795.178109" stroke="black" stroke-width="6.48"/>
<line x1="1311.346069" y1="795.178109" x2="1311.346069" y2="745.625592" stroke="black" stroke-width="6.48"/>
<line x1="1311.346069" y1="745.625592" x2="1285.950406" y2="745.625592" stroke="black" stroke-width="6.48"/>
<line x1="1285.950406" y1="745.625592" x2="1285.950406" y2="795.178109" stroke="black" stroke-width="6.48"/>
<line x1="1559.728062" y1="745.625592" x2="1559.728062" y2="498.48241" stroke="black" stroke-width="6.48"/>
<line x1="1560.347471" y1="796.416923" x2="1585.743134" y2="796.416923" stroke="black" stroke-width="6.48"/>
<line x1="1585.743134" y1="796.416923" x2="1585.743134" y2="746.864406" stroke="black" stroke-width="6.48"/>
<line x1="1585.743134" y1="746.864406" x2="1560.347471" y2="746.864406" stroke="black" stroke-width="6.48"/>
<line x1="1560.347471" y1="746.864406" x2="1560.347471" y2="796.416923" stroke="black" stroke-width="6.48"/>
<path d="m 1311.346069,747.483811 a 248.38199299999997,248.38199299999997 0 0 1 248.38199299999997,-248.38199299999997" fill="none" stroke="black" stroke-width="6.48"/>
<line x1="330.523178" y1="771.328966" x2="330.523178" y2="366.748985" stroke="black" stroke-width="6.48"/>
<line x1="330.523178" y1="366.748985" x2="258.15928" y2="366.748985" stroke="black" stroke-width="6.48"/>
<line x1="258.15928" y1="366.748985" x2="258.15928" y2="771.328966" stroke="black" stroke-width="6.48"/>
<line x1="258.15928" y1="771.328966" x2="330.523178" y2="771.328966" stroke="black" stroke-width="6.48"/>
<line x1="330.523178" y1="752.415674" x2="355.19269" y2="752.415674" stroke="black" stroke-width="6.48"/>
<line x1="355.19269" y1="752.415674" x2="355.19269" y2="386.484595" stroke="black" stroke-width="6.48"/>
<line x1="330.523178" y1="386.484595" x2="355.19269" y2="386.484595" stroke="black" stroke-width="6.48"/>
<line x1="3901.945176" y1="1169.331426" x2="3901.945176" y2="1428.837066" stroke="black" stroke-width="6.48"/>
<line x1="3901.945176" y1="1428.837066" x2="3941.9501" y2="1428.837066" stroke="black" stroke-width="6.48"/>
<line x1="3941.9501" y1="1428.837066" x2="3941.9501" y2="1169.331426" stroke="black" stroke-width="6.48"/>
<line x1="3941.9501" y1="1169.331426" x2="3901.945176" y2="1169.331426" stroke="black" stroke-width="6.48"/>
<line x1="3941.423719" y1="1193.544936" x2="3902.471557" y2="1193.544936" stroke="black" stroke-width="6.48"/>
<line x1="3941.423719" y1="1404.097178" x2="3900.892414" y2="1404.097178" stroke="black" stroke-width="6.48"/>
<line x1="3923.000399" y1="1193.018555" x2="3923.000399" y2="1403.570797" stroke="black" stroke-width="6.48"/>
<line x1="334.430687" y1="1882.943946" x2="334.430687" y2="1457.437414" stroke="black" stroke-width="6.48"/>
<line x1="334.430687" y1="1457.437414" x2="258.323828" y2="1457.437414" stroke="black" stroke-width="6.48"/>
<line x1="258.323828" y1="1457.437414" x2="258.323828" y2="1882.943946" stroke="black" stroke-width="6.48"/>
<line x1="258.323828" y1="1882.943946" x2="334.430687" y2="1882.943946" stroke="black" stroke-width="6.48"/>
<line x1="334.430687" y1="1863.05238" x2="360.376207" y2="1863.05238" stroke="black" stroke-width="6.48"/>
<line x1="360.376207" y1="1863.05238" x2="360.376207" y2="1478.193829" stroke="black" stroke-width="6.48"/>
<line x1="334.430687" y1="1478.193829" x2="360.376207" y2="1478.193829" stroke="black" stroke-width="6.48"/>
<line x1="2747.905531" y1="904.670665" x2="2721.68303" y2="904.670665" stroke="black" stroke-width="6.48"/>
<line x1="2721.68303" y1="904.670665" x2="2721.68303" y2="955.836522" stroke="black" stroke-width="6.48"/>
<line x1="2721.68303" y1="955.836522" x2="2747.905531" y2="955.836522" stroke="black" stroke-width="6.48"/>
<line x1="2747.905531" y1="955.836522" x2="2747.905531" y2="904.670665" stroke="black" stroke-width="6.48"/>
<line x1="2465.214181" y1="955.836522" x2="2465.214181" y2="1211.026223" stroke="black" stroke-width="6.48"/>
<line x1="2464.574609" y1="903.39152" x2="2438.352108" y2="903.39152" stroke="black" stroke-width="6.48"/>
<line x1="2438.352108" y1="903.39152" x2="2438.352108" y2="954.557374" stroke="black" stroke-width="6.48"/>
<line x1="2438.352108" y1="954.557374" x2="2464.574609" y2="954.557374" stroke="black" stroke-width="6.48"/>
<line x1="2464.574609" y1="954.557374" x2="2464.574609" y2="903.39152" stroke="black" stroke-width="6.48"/>
<path d="m 2721.68303,953.917801 a 256.4688490000001,256.4688490000001 0 0 1 -256.4688490000003,256.46884899999986" fill="none" stroke="black" stroke-width="6.48"/>
<line x1="2420.532389" y1="1427.858834" x2="2395.136725" y2="1427.858834" stroke="black" stroke-width="6.48"/>
<line x1="2395.136725" y1="1427.858834" x2="2395.136725" y2="1477.411351" stroke="black" stroke-width="6.48"/>
<line x1="2395.136725" y1="1477.411351" x2="2420.532389" y2="1477.411351" stroke="black" stroke-width="6.48"/>
<line x1="2420.532389" y1="1477.411351" x2="2420.532389" y2="1427.858834" stroke="black" stroke-width="6.48"/>
<line x1="2146.754732" y1="1477.411351" x2="2146.754732" y2="1724.554534" stroke="black" stroke-width="6.48"/>
<line x1="2146.135324" y1="1426.62002" x2="2120.73966" y2="1426.62002" stroke="black" stroke-width="6.48"/>
<line x1="2120.73966" y1="1426.62002" x2="2120.73966" y2="1476.172537" stroke="black" stroke-width="6.48"/>
<line x1="2120.73966" y1="1476.172537" x2="2146.135324" y2="1476.172537" stroke="black" stroke-width="6.48"/>
<line x1="2146.135324" y1="1476.172537" x2="2146.135324" y2="1426.62002" stroke="black" stroke-width="6.48"/>
<path d="m 2395.136725,1475.553132 a 248.38199299999997,248.38199299999997 0 0 1 -248.38199299999997,248.38199299999997" fill="none" stroke="black" stroke-width="6.48"/>
<line x1="580.023389" y1="692.136151" x2="972.855389" y2="692.136151" stroke="black" stroke-width="6.48"/>
<line x1="972.855389" y1="692.136151" x2="972.855389" y2="507.600151" stroke="black" stroke-width="6.48"/>
<line x1="972.855389" y1="507.600151" x2="580.023389" y2="507.600151" stroke="black" stroke-width="6.48"/>
<line x1="580.023389" y1="507.600151" x2="580.023389" y2="692.136151" stroke="black" stroke-width="6.48"/>
<line x1="739.215389" y1="507.600151" x2="739.215389" y2="426.816151" stroke="black" stroke-width="6.48"/>
<line x1="739.215389" y1="426.816151" x2="660.807389" y2="426.816151" stroke="black" stroke-width="6.48"/>
<line x1="660.807389" y1="426.816151" x2="660.807389" y2="507.600151" stroke="black" stroke-width="6.48"/>
<line x1="661.599389" y1="444.240151" x2="739.215389" y2="444.240151" stroke="black" stroke-width="6.48"/>
<line x1="660.807389" y1="773.712151" x2="739.215389" y2="773.712151" stroke="black" stroke-width="6.48"/>
<line x1="739.215389" y1="773.712151" x2="739.215389" y2="692.136151" stroke="black" stroke-width="6.48"/>
<line x1="660.807389" y1="692.136151" x2="660.807389" y2="773.712151" stroke="black" stroke-width="6.48"/>
<line x1="661.599389" y1="756.288151" x2="739.215389" y2="756.288151" stroke="black" stroke-width="6.48"/>
<line x1="890.487389" y1="507.600151" x2="890.487389" y2="426.816151" stroke="black" stroke-width="6.48"/>
<line x1="890.487389" y1="426.816151" x2="812.079389" y2="426.816151" stroke="black" stroke-width="6.48"/>
<line x1="812.079389" y1="426.816151" x2="812.079389" y2="507.600151" stroke="black" stroke-width="6.48"/>
<line x1="812.079389" y1="444.240151" x2="890.487389" y2="444.240151" stroke="black" stroke-width="6.48"/>
<line x1="812.079389" y1="773.712151" x2="890.487389" y2="773.712151" stroke="black" stroke-width="6.48"/>
<line x1="890.487389" y1="773.712151" x2="890.487389" y2="692.136151" stroke="black" stroke-width="6.48"/>
<line x1="812.079389" y1="692.136151" x2="812.079389" y2="773.712151" stroke="black" stroke-width="6.48"/>
<line x1="812.079389" y1="756.288151" x2="890.487389" y2="756.288151" stroke="black" stroke-width="6.48"/>
<line x1="2032.924367" y1="1779.566958" x2="2032.924367" y2="1748.678958" stroke="black" stroke-width="6.48"/>
<line x1="2032.924367" y1="1748.678958" x2="1823.361167" y2="1748.678958" stroke="black" stroke-width="6.48"/>
<line x1="1823.361167" y1="1748.678958" x2="1823.361167" y2="1779.566958" stroke="black" stroke-width="6.48"/>
<line x1="1823.361167" y1="1779.566958" x2="2032.924367" y2="1779.566958" stroke="black" stroke-width="6.48"/>
<line x1="2032.924367" y1="1575.706158" x2="2032.924367" y2="1544.818158" stroke="black" stroke-width="6.48"/>
<line x1="2032.924367" y1="1544.818158" x2="1823.361167" y2="1544.818158" stroke="black" stroke-width="6.48"/>
<line x1="1823.361167" y1="1544.818158" x2="1823.361167" y2="1575.706158" stroke="black" stroke-width="6.48"/>
<line x1="1823.361167" y1="1575.706158" x2="2032.924367" y2="1575.706158" stroke="black" stroke-width="6.48"/>
<line x1="2032.924367" y1="1749.154158" x2="2032.924367" y2="1575.706158" stroke="black" stroke-width="6.48"/>
<line x1="1824.311567" y1="1749.629358" x2="1798.175567" y2="1723.018158" stroke="black" stroke-width="6.48"/>
<line x1="1798.175567" y1="1601.842158" x2="1824.311567" y2="1575.230958" stroke="black" stroke-width="6.48"/>
<line x1="1798.175567" y1="1724.918958" x2="1798.175567" y2="1599.941358" stroke="black" stroke-width="6.48"/>
<line x1="1988.255567" y1="1748.678958" x2="1988.255567" y2="1575.230958" stroke="black" stroke-width="6.48"/>
<line x1="1485.415969" y1="209.267824" x2="1707.693134" y2="209.267824" stroke="black" stroke-width="6.48"/>
<line x1="1707.693134" y1="209.267824" x2="1707.693134" y2="432.000475" stroke="black" stroke-width="6.48"/>
<line x1="1707.693134" y1="432.000475" x2="1485.415969" y2="432.000475" stroke="black" stroke-width="6.48"/>
<line x1="1485.415969" y1="432.000475" x2="1485.415969" y2="209.267824" stroke="black" stroke-width="6.48"/>
<line x1="1484.960483" y1="208.812337" x2="1707.693134" y2="432.000475" stroke="black" stroke-width="6.48"/>
<line x1="1485.415969" y1="431.544989" x2="1707.237648" y2="209.267824" stroke="black" stroke-width="6.48"/>
<line x1="2586.780558" y1="1803.366338" x2="2586.780558" y2="2194.614338" stroke="black" stroke-width="6.48"/>
<line x1="2586.780558" y1="2194.614338" x2="2761.020558" y2="2194.614338" stroke="black" stroke-width="6.48"/>
<line x1="2761.020558" y1="2194.614338" x2="2761.020558" y2="1803.366338" stroke="black" stroke-width="6.48"/>
<line x1="2761.020558" y1="1803.366338" x2="2586.780558" y2="1803.366338" stroke="black" stroke-width="6.48"/>
<line x1="2734.092558" y1="2119.374338" x2="2734.092558" y2="1835.046338" stroke="black" stroke-width="6.48"/>
<line x1="2734.092558" y1="1835.046338" x2="2616.084558" y2="1835.046338" stroke="black" stroke-width="6.48"/>
<line x1="2616.084558" y1="1835.046338" x2="2616.084558" y2="2124.918338" stroke="black" stroke-width="6.48"/>
<path d="m 2734.347982,2118.563766 a 63.35999941905905,63.35999941905905 0 0 1 -119.37432999999965,4.2938139999996565" fill="none" stroke="black" stroke-width="6.48"/>
<line x1="2081.003998" y1="1874.696411" x2="2056.451998" y2="1893.308411" stroke="black" stroke-width="6.48"/>
<line x1="2056.451998" y1="1893.308411" x2="2056.451998" y2="2040.620411" stroke="black" stroke-width="6.48"/>
<line x1="2056.451998" y1="2040.620411" x2="2084.567998" y2="2059.628411" stroke="black" stroke-width="6.48"/>
<line x1="2083.775998" y1="1896.476411" x2="2083.775998" y2="2039.432411" stroke="black" stroke-width="6.48"/>
<circle cx="2105.555998" cy="1965.776411" r="13.068000000000003" fill="none" stroke="black" stroke-width="6.48"/>
<path d="m 2083.108651,1898.029663 a 74.84400089539025,74.84400089539025 0 1 1 0.40204799999992247,139.60900500000002" fill="none" stroke="black" stroke-width="6.48"/>
<path d="m 2080.346634,1874.742714 a 95.43599883324424,95.43599883324424 0 1 1 3.0749580000001515,184.46699500000022" fill="none" stroke="black" stroke-width="6.48"/>
<line x1="648.026298" y1="209.335439" x2="918.573498" y2="209.335439" stroke="black" stroke-width="6.48"/>
<line x1="918.573498" y1="209.335439" x2="918.573498" y2="341.282639" stroke="black" stroke-width="6.48"/>
<line x1="648.026298" y1="341.282639" x2="918.573498" y2="341.282639" stroke="black" stroke-width="6.48"/>
<line x1="648.026298" y1="209.335439" x2="648.026298" y2="341.282639" stroke="black" stroke-width="6.48"/>
<line x1="654.679098" y1="215.988239" x2="792.724698" y2="215.988239" stroke="black" stroke-width="6.48"/>
<line x1="792.724698" y1="215.988239" x2="792.724698" y2="334.075439" stroke="black" stroke-width="6.48"/>
<line x1="654.679098" y1="334.075439" x2="792.724698" y2="334.075439" stroke="black" stroke-width="6.48"/>
<line x1="654.679098" y1="215.988239" x2="654.679098" y2="334.075439" stroke="black" stroke-width="6.48"/>
<line x1="807.139098" y1="223.749839" x2="904.159098" y2="223.749839" stroke="black" stroke-width="6.48"/>
<line x1="807.139098" y1="244.262639" x2="904.159098" y2="244.262639" stroke="black" stroke-width="6.48"/>
<line x1="807.693498" y1="265.329839" x2="904.713498" y2="265.329839" stroke="black" stroke-width="6.48"/>
<line x1="807.693498" y1="285.842639" x2="904.713498" y2="285.842639" stroke="black" stroke-width="6.48"/>
<line x1="807.139098" y1="306.355439" x2="904.159098" y2="306.355439" stroke="black" stroke-width="6.48"/>
<line x1="807.139098" y1="326.868239" x2="904.159098" y2="326.868239" stroke="black" stroke-width="6.48"/>
<line x1="707.347098" y1="334.075439" x2="707.347098" y2="320.215439" stroke="black" stroke-width="6.48"/>
<line x1="707.347098" y1="320.215439" x2="741.719898" y2="320.215439" stroke="black" stroke-width="6.48"/>
<line x1="741.719898" y1="320.215439" x2="741.719898" y2="333.521039" stroke="black" stroke-width="6.48"/>
<circle cx="777.201498" cy="230.957039" r="8.316000000000003" fill="none" stroke="black" stroke-width="6.48"/>
<line x1="1395.412618" y1="1435.480225" x2="1333.392797" y2="1552.122544" stroke="black" stroke-width="6.48"/>
<line x1="1333.392797" y1="1552.122544" x2="1320.805494" y2="1545.429758" stroke="black" stroke-width="6.48"/>
<line x1="1382.825318" y1="1428.787436" x2="1320.805494" y2="1545.429758" stroke="black" stroke-width="6.48"/>
<line x1="1395.412618" y1="1435.480225" x2="1382.825318" y2="1428.787436" stroke="black" stroke-width="6.48"/>
<line x1="1376.578714" y1="1440.535583" x2="1349.779025" y2="1424.133144" stroke="black" stroke-width="6.48"/>
<line x1="1327.052095" y1="1533.681612" x2="1297.628507" y2="1520.189604" stroke="black" stroke-width="6.48"/>
<line x1="988.423222" y1="1219.080125" x2="926.403401" y2="1335.722443" stroke="black" stroke-width="6.48"/>
<line x1="926.403401" y1="1335.722443" x2="938.151547" y2="1341.969044" stroke="black" stroke-width="6.48"/>
<line x1="1000.171368" y1="1225.326722" x2="938.151547" y2="1341.969044" stroke="black" stroke-width="6.48"/>
<line x1="988.423222" y1="1219.080125" x2="1000.171368" y2="1225.326722" stroke="black" stroke-width="6.48"/>
<line x1="996.049264" y1="1237.128088" x2="1024.633696" y2="1250.173912" stroke="black" stroke-width="6.48"/>
<line x1="946.522638" y1="1330.274117" x2="973.715299" y2="1347.961892" stroke="black" stroke-width="6.48"/>
<line x1="1111.475304" y1="1619.266792" x2="1118.168089" y2="1606.679489" stroke="black" stroke-width="6.48"/>
<line x1="1118.168089" y1="1606.679489" x2="1001.525767" y2="1544.659664" stroke="black" stroke-width="6.48"/>
<line x1="994.832982" y1="1557.246964" x2="1001.525767" y2="1544.659664" stroke="black" stroke-width="6.48"/>
<line x1="1111.475304" y1="1619.266792" x2="994.832982" y2="1557.246964" stroke="black" stroke-width="6.48"/>
<line x1="1014.11307" y1="1551.352453" x2="1026.765925" y2="1521.482681" stroke="black" stroke-width="6.48"/>
<line x1="1106.419943" y1="1600.432888" x2="1123.268566" y2="1572.794046" stroke="black" stroke-width="6.48"/>
<line x1="1328.268373" y1="1213.562732" x2="1321.575584" y2="1226.150035" stroke="black" stroke-width="6.48"/>
<line x1="1321.575584" y1="1226.150035" x2="1204.933262" y2="1164.130211" stroke="black" stroke-width="6.48"/>
<line x1="1211.626051" y1="1151.542912" x2="1204.933262" y2="1164.130211" stroke="black" stroke-width="6.48"/>
<line x1="1328.268373" y1="1213.562732" x2="1211.626051" y2="1151.542912" stroke="black" stroke-width="6.48"/>
<line x1="1217.520565" y1="1170.822996" x2="1199.832786" y2="1198.015657" stroke="black" stroke-width="6.48"/>
<line x1="1309.827438" y1="1219.90343" x2="1296.33543" y2="1249.327019" stroke="black" stroke-width="6.48"/>
<circle cx="1161.550678" cy="1385.404848" r="191.98080000000002" fill="none" stroke="black" stroke-width="6.48"/>
<line x1="2044.889399" y1="955.822399" x2="2267.166564" y2="955.822399" stroke="black" stroke-width="6.48"/>
<line x1="2267.166564" y1="955.822399" x2="2267.166564" y2="1178.555051" stroke="black" stroke-width="6.48"/>
<line x1="2267.166564" y1="1178.555051" x2="2044.889399" y2="1178.555051" stroke="black" stroke-width="6.48"/>
<line x1="2044.889399" y1="1178.555051" x2="2044.889399" y2="955.822399" stroke="black" stroke-width="6.48"/>
<line x1="2044.433912" y1="955.366913" x2="2267.166564" y2="1178.555051" stroke="black" stroke-width="6.48"/>
<line x1="2044.889399" y1="1178.099564" x2="2266.711078" y2="955.822399" stroke="black" stroke-width="6.48"/>
<line x1="333.766206" y1="1375.361078" x2="333.766206" y2="949.854546" stroke="black" stroke-width="6.48"/>
<line x1="333.766206" y1="949.854546" x2="257.659348" y2="949.854546" stroke="black" stroke-width="6.48"/>
<line x1="257.659348" y1="949.854546" x2="257.659348" y2="1375.361078" stroke="black" stroke-width="6.48"/>
<line x1="257.659348" y1="1375.361078" x2="333.766206" y2="1375.361078" stroke="black" stroke-width="6.48"/>
<line x1="333.766206" y1="1355.469512" x2="359.711726" y2="1355.469512" stroke="black" stroke-width="6.48"/>
<line x1="359.711726" y1="1355.469512" x2="359.711726" y2="970.610962" stroke="black" stroke-width="6.48"/>
<line x1="333.766206" y1="970.610962" x2="359.711726" y2="970.610962" stroke="black" stroke-width="6.48"/>
<line x1="3874.406537" y1="1514.726719" x2="3874.406537" y2="1940.260162" stroke="black" stroke-width="6.48"/>
<line x1="3874.406537" y1="1940.260162" x2="3940.00601" y2="1940.260162" stroke="black" stroke-width="6.48"/>
<line x1="3940.00601" y1="1940.260162" x2="3940.00601" y2="1514.726719" stroke="black" stroke-width="6.48"/>
<line x1="3940.00601" y1="1514.726719" x2="3874.406537" y2="1514.726719" stroke="black" stroke-width="6.48"/>
<line x1="3939.14286" y1="1554.431663" x2="3875.269687" y2="1554.431663" stroke="black" stroke-width="6.48"/>
<line x1="3939.14286" y1="1899.692064" x2="3872.680232" y2="1899.692064" stroke="black" stroke-width="6.48"/>
<line x1="3908.932574" y1="1553.568512" x2="3908.932574" y2="1898.828914" stroke="black" stroke-width="6.48"/>
<line x1="4806.141228" y1="1460.251166" x2="4933.12928" y2="1423.83793" stroke="black" stroke-width="6.48"/>
<line x1="4933.12928" y1="1423.83793" x2="4937.058767" y2="1437.541675" stroke="black" stroke-width="6.48"/>
<line x1="4810.070714" y1="1473.954912" x2="4937.058767" y2="1437.541675" stroke="black" stroke-width="6.48"/>
<line x1="4806.141228" y1="1460.251166" x2="4810.070714" y2="1473.954912" stroke="black" stroke-width="6.48"/>
<line x1="4822.860877" y1="1470.287394" x2="4829.678582" y2="1500.959567" stroke="black" stroke-width="6.48"/>
<line x1="4924.268604" y1="1441.209197" x2="4935.002602" y2="1471.74709" stroke="black" stroke-width="6.48"/>
<line x1="4933.194613" y1="1903.338979" x2="5060.182666" y2="1866.925742" stroke="black" stroke-width="6.48"/>
<line x1="5060.182666" y1="1866.925742" x2="5056.515144" y2="1854.135576" stroke="black" stroke-width="6.48"/>
<line x1="4929.527092" y1="1890.548813" x2="5056.515144" y2="1854.135576" stroke="black" stroke-width="6.48"/>
<line x1="4933.194613" y1="1903.338979" x2="4929.527092" y2="1890.548813" stroke="black" stroke-width="6.48"/>
<line x1="4940.879742" y1="1885.316094" x2="4930.407706" y2="1855.691784" stroke="black" stroke-width="6.48"/>
<line x1="5042.287465" y1="1856.237897" x2="5036.121382" y2="1824.390176" stroke="black" stroke-width="6.48"/>
<line x1="5135.585652" y1="1536.829704" x2="5121.881903" y2="1540.759187" stroke="black" stroke-width="6.48"/>
<line x1="5121.881903" y1="1540.759187" x2="5158.295143" y2="1667.747239" stroke="black" stroke-width="6.48"/>
<line x1="5171.998889" y1="1663.817756" x2="5158.295143" y2="1667.747239" stroke="black" stroke-width="6.48"/>
<line x1="5135.585652" y1="1536.829704" x2="5171.998889" y2="1663.817756" stroke="black" stroke-width="6.48"/>
<line x1="5154.365653" y1="1654.043494" x2="5124.089729" y2="1665.691078" stroke="black" stroke-width="6.48"/>
<line x1="5125.549424" y1="1553.54935" x2="5093.963669" y2="1560.62902" stroke="black" stroke-width="6.48"/>
<line x1="4693.149457" y1="1662.707538" x2="4706.853203" y2="1658.778052" stroke="black" stroke-width="6.48"/>
<line x1="4706.853203" y1="1658.778052" x2="4743.26644" y2="1785.766104" stroke="black" stroke-width="6.48"/>
<line x1="4729.562694" y1="1789.69559" x2="4743.26644" y2="1785.766104" stroke="black" stroke-width="6.48"/>
<line x1="4693.149457" y1="1662.707538" x2="4729.562694" y2="1789.69559" stroke="black" stroke-width="6.48"/>
<line x1="4739.336957" y1="1772.062358" x2="4771.184677" y2="1765.896271" stroke="black" stroke-width="6.48"/>
<line x1="4710.520724" y1="1671.568214" x2="4741.058617" y2="1660.834213" stroke="black" stroke-width="6.48"/>
<circle cx="4932.574171" cy="1663.262647" r="191.98080000000002" fill="none" stroke="black" stroke-width="6.48"/>
<line x1="3042.735152" y1="1074.113442" x2="3252.100356" y2="1074.113442" stroke="black" stroke-width="6.48"/>
<line x1="3252.100356" y1="1074.113442" x2="3252.100356" y2="742.899038" stroke="black" stroke-width="6.48"/>
<line x1="3252.100356" y1="742.899038" x2="3042.735152" y2="742.899038" stroke="black" stroke-width="6.48"/>
<line x1="3042.735152" y1="742.899038" x2="3042.735152" y2="1074.113442" stroke="black" stroke-width="6.48"/>
<line x1="3042.061952" y1="802.140638" x2="3252.773552" y2="802.140638" stroke="black" stroke-width="6.48"/>
<line x1="3252.773552" y1="802.140638" x2="3043.408352" y2="851.957442" stroke="black" stroke-width="6.48"/>
<line x1="3043.408352" y1="851.957442" x2="3075.048756" y2="898.408242" stroke="black" stroke-width="6.48"/>
<line x1="3075.048756" y1="898.408242" x2="3252.773552" y2="801.467442" stroke="black" stroke-width="6.48"/>
<line x1="3340.771841" y1="1203.414343" x2="3563.049006" y2="1203.414343" stroke="black" stroke-width="6.48"/>
<line x1="3563.049006" y1="1203.414343" x2="3563.049006" y2="1426.146995" stroke="black" stroke-width="6.48"/>
<line x1="3563.049006" y1="1426.146995" x2="3340.771841" y2="1426.146995" stroke="black" stroke-width="6.48"/>
<line x1="3340.771841" y1="1426.146995" x2="3340.771841" y2="1203.414343" stroke="black" stroke-width="6.48"/>
<line x1="3340.316354" y1="1202.958857" x2="3563.049006" y2="1426.146995" stroke="black" stroke-width="6.48"/>
<line x1="3340.771841" y1="1425.691508" x2="3562.59352" y2="1203.414343" stroke="black" stroke-width="6.48"/>
<line x1="2804.16708" y1="1127.69402" x2="2804.16708" y2="1153.148746" stroke="black" stroke-width="6.48"/>
<line x1="2804.16708" y1="1153.148746" x2="2853.834836" y2="1153.148746" stroke="black" stroke-width="6.48"/>
<line x1="2853.834836" y1="1153.148746" x2="2853.834836" y2="1127.69402" stroke="black" stroke-width="6.48"/>
<line x1="2853.834836" y1="1127.69402" x2="2804.16708" y2="1127.69402" stroke="black" stroke-width="6.48"/>
<line x1="2853.834836" y1="1402.108373" x2="3101.55277" y2="1402.108373" stroke="black" stroke-width="6.48"/>
<line x1="2802.925386" y1="1402.729218" x2="2802.925386" y2="1428.183943" stroke="black" stroke-width="6.48"/>
<line x1="2802.925386" y1="1428.183943" x2="2852.593142" y2="1428.183943" stroke="black" stroke-width="6.48"/>
<line x1="2852.593142" y1="1428.183943" x2="2852.593142" y2="1402.729218" stroke="black" stroke-width="6.48"/>
<line x1="2852.593142" y1="1402.729218" x2="2802.925386" y2="1402.729218" stroke="black" stroke-width="6.48"/>
<path d="m 2851.972294,1153.148746 a 248.95962699999984,248.95962699999984 0 0 1 248.95962699999973,248.95962699999995" fill="none" stroke="black" stroke-width="6.48"/>
<line x1="2962.345514" y1="2024.263987" x2="2891.140369" y2="2200.503125" stroke="black" stroke-width="6.48"/>
<line x1="2891.140369" y1="2200.503125" x2="3321.163865" y2="2374.243675" stroke="black" stroke-width="6.48"/>
<line x1="3321.163865" y1="2374.243675" x2="3392.36901" y2="2198.004538" stroke="black" stroke-width="6.48"/>
<line x1="3392.36901" y1="2198.004538" x2="3370.33912" y2="2189.103894" stroke="black" stroke-width="6.48"/>
<line x1="3370.33912" y1="2189.103894" x2="3307.678592" y2="2344.194338" stroke="black" stroke-width="6.48"/>
<line x1="3307.678592" y1="2344.194338" x2="2922.596075" y2="2188.611097" stroke="black" stroke-width="6.48"/>
<line x1="2922.596075" y1="2188.611097" x2="2985.256602" y2="2033.520656" stroke="black" stroke-width="6.48"/>
<line x1="2985.256602" y1="2033.520656" x2="2962.345514" y2="2024.263987" stroke="black" stroke-width="6.48"/>
<line x1="2983.120448" y1="2038.807829" x2="3368.202966" y2="2194.39107" stroke="black" stroke-width="6.48"/>
<line x1="3175.577132" y1="2115.540241" x2="3115.052762" y2="2265.34351" stroke="black" stroke-width="6.48"/>
<line x1="3516.844331" y1="1640.568182" x2="3709.096153" y2="1770.243674" stroke="black" stroke-width="6.48"/>
<line x1="3709.096153" y1="1770.243674" x2="3579.154931" y2="1962.889456" stroke="black" stroke-width="6.48"/>
<line x1="3579.154931" y1="1962.889456" x2="3386.903108" y2="1833.213967" stroke="black" stroke-width="6.48"/>
<line x1="3386.903108" y1="1833.213967" x2="3516.844331" y2="1640.568182" stroke="black" stroke-width="6.48"/>
<line x1="3516.716095" y1="1639.908497" x2="3579.154931" y2="1962.889456" stroke="black" stroke-width="6.48"/>
<line x1="3387.168835" y1="1832.820005" x2="3708.702191" y2="1769.977948" stroke="black" stroke-width="6.48"/>
<line x1="3100.358268" y1="1589.315879" x2="3083.535454" y2="1615.220741" stroke="black" stroke-width="6.48"/>
<line x1="3083.535454" y1="1615.220741" x2="3259.289945" y2="1729.357034" stroke="black" stroke-width="6.48"/>
<line x1="3259.289945" y1="1729.357034" x2="3276.112752" y2="1703.45218" stroke="black" stroke-width="6.48"/>
<line x1="3276.112752" y1="1703.45218" x2="3100.358268" y2="1589.315879" stroke="black" stroke-width="6.48"/>
<line x1="2989.327716" y1="1760.287936" x2="2972.504909" y2="1786.19279" stroke="black" stroke-width="6.48"/>
<line x1="2972.504909" y1="1786.19279" x2="3148.259393" y2="1900.329088" stroke="black" stroke-width="6.48"/>
<line x1="3148.259393" y1="1900.329088" x2="3165.082207" y2="1874.424233" stroke="black" stroke-width="6.48"/>
<line x1="3165.082207" y1="1874.424233" x2="2989.327716" y2="1760.287936" stroke="black" stroke-width="6.48"/>
<line x1="3083.794268" y1="1614.822199" x2="2989.327716" y2="1760.287936" stroke="black" stroke-width="6.48"/>
<line x1="3259.010495" y1="1728.04234" x2="3266.436492" y2="1764.595055" stroke="black" stroke-width="6.48"/>
<line x1="3200.439312" y1="1866.221798" x2="3164.02632" y2="1874.305145" stroke="black" stroke-width="6.48"/>
<line x1="3267.47174" y1="1763.00091" x2="3199.40406" y2="1867.815943" stroke="black" stroke-width="6.48"/>
<line x1="3120.997864" y1="1639.549109" x2="3026.531315" y2="1785.014842" stroke="black" stroke-width="6.48"/>
<line x1="3840.070216" y1="1134.752281" x2="3838.453664" y2="1103.906614" stroke="black" stroke-width="6.48"/>
<line x1="3838.453664" y1="1103.906614" x2="3629.177665" y2="1114.874305" stroke="black" stroke-width="6.48"/>
<line x1="3629.177665" y1="1114.874305" x2="3630.794216" y2="1145.719973" stroke="black" stroke-width="6.48"/>
<line x1="3630.794216" y1="1145.719973" x2="3840.070216" y2="1134.752281" stroke="black" stroke-width="6.48"/>
<line x1="3829.400968" y1="931.17087" x2="3827.784416" y2="900.325199" stroke="black" stroke-width="6.48"/>
<line x1="3827.784416" y1="900.325199" x2="3618.508414" y2="911.292887" stroke="black" stroke-width="6.48"/>
<line x1="3618.508414" y1="911.292887" x2="3620.124965" y2="942.138562" stroke="black" stroke-width="6.48"/>
<line x1="3620.124965" y1="942.138562" x2="3829.400968" y2="931.17087" stroke="black" stroke-width="6.48"/>
<line x1="3838.478533" y1="1104.381162" x2="3829.400968" y2="931.17087" stroke="black" stroke-width="6.48"/>
<line x1="3630.176503" y1="1115.773661" x2="3602.683598" y2="1090.566785" stroke="black" stroke-width="6.48"/>
<line x1="3596.341738" y1="969.556853" x2="3621.049193" y2="941.614268" stroke="black" stroke-width="6.48"/>
<line x1="3602.783077" y1="1092.464978" x2="3596.242259" y2="967.658656" stroke="black" stroke-width="6.48"/>
<line x1="3793.846082" y1="1106.244396" x2="3784.768517" y2="933.034104" stroke="black" stroke-width="6.48"/>
<line x1="1114.68604" y1="210.476419" x2="1385.23324" y2="210.476419" stroke="black" stroke-width="6.48"/>
<line x1="1385.23324" y1="210.476419" x2="1385.23324" y2="342.423619" stroke="black" stroke-width="6.48"/>
<line x1="1114.68604" y1="342.423619" x2="1385.23324" y2="342.423619" stroke="black" stroke-width="6.48"/>
<line x1="1114.68604" y1="210.476419" x2="1114.68604" y2="342.423619" stroke="black" stroke-width="6.48"/>
<line x1="1121.33884" y1="217.129219" x2="1259.38444" y2="217.129219" stroke="black" stroke-width="6.48"/>
<line x1="1259.38444" y1="217.129219" x2="1259.38444" y2="335.216419" stroke="black" stroke-width="6.48"/>
<line x1="1121.33884" y1="335.216419" x2="1259.38444" y2="335.216419" stroke="black" stroke-width="6.48"/>
<line x1="1121.33884" y1="217.129219" x2="1121.33884" y2="335.216419" stroke="black" stroke-width="6.48"/>
<line x1="1273.79884" y1="224.890819" x2="1370.81884" y2="224.890819" stroke="black" stroke-width="6.48"/>
<line x1="1273.79884" y1="245.403619" x2="1370.81884" y2="245.403619" stroke="black" stroke-width="6.48"/>
<line x1="1274.35324" y1="266.470819" x2="1371.37324" y2="266.470819" stroke="black" stroke-width="6.48"/>
<line x1="1274.35324" y1="286.983619" x2="1371.37324" y2="286.983619" stroke="black" stroke-width="6.48"/>
<line x1="1273.79884" y1="307.496419" x2="1370.81884" y2="307.496419" stroke="black" stroke-width="6.48"/>
<line x1="1273.79884" y1="328.009219" x2="1370.81884" y2="328.009219" stroke="black" stroke-width="6.48"/>
<line x1="1174.00684" y1="335.216419" x2="1174.00684" y2="321.356419" stroke="black" stroke-width="6.48"/>
<line x1="1174.00684" y1="321.356419" x2="1208.37964" y2="321.356419" stroke="black" stroke-width="6.48"/>
<line x1="1208.37964" y1="321.356419" x2="1208.37964" y2="334.662019" stroke="black" stroke-width="6.48"/>
<circle cx="1243.86124" cy="232.098019" r="8.316000000000003" fill="none" stroke="black" stroke-width="6.48"/>
<line x1="921.598657" y1="1947.951788" x2="946.587571" y2="1966.107305" stroke="black" stroke-width="6.48"/>
<line x1="946.587571" y1="1966.107305" x2="1069.765769" y2="1796.567144" stroke="black" stroke-width="6.48"/>
<line x1="1069.765769" y1="1796.567144" x2="1044.776858" y2="1778.411628" stroke="black" stroke-width="6.48"/>
<line x1="1044.776858" y1="1778.411628" x2="921.598657" y2="1947.951788" stroke="black" stroke-width="6.48"/>
<line x1="1086.525479" y1="2067.778199" x2="1111.514389" y2="2085.933719" stroke="black" stroke-width="6.48"/>
<line x1="1111.514389" y1="2085.933719" x2="1234.69259" y2="1916.393558" stroke="black" stroke-width="6.48"/>
<line x1="1234.69259" y1="1916.393558" x2="1209.703676" y2="1898.238038" stroke="black" stroke-width="6.48"/>
<line x1="1209.703676" y1="1898.238038" x2="1086.525479" y2="2067.778199" stroke="black" stroke-width="6.48"/>
<line x1="946.203124" y1="1965.827988" x2="1086.525479" y2="2067.778199" stroke="black" stroke-width="6.48"/>
<line x1="1068.438247" y1="1796.777402" x2="1105.329514" y2="1791.274615" stroke="black" stroke-width="6.48"/>
<line x1="1203.362946" y1="1862.500104" x2="1209.52949" y2="1899.286247" stroke="black" stroke-width="6.48"/>
<line x1="1103.791738" y1="1790.157352" x2="1204.900722" y2="1863.617368" stroke="black" stroke-width="6.48"/>
<line x1="972.843242" y1="1929.96949" x2="1113.165594" y2="2031.9197" stroke="black" stroke-width="6.48"/>
<line x1="2303.744119" y1="2279.49907" x2="2334.462912" y2="2282.727751" stroke="black" stroke-width="6.48"/>
<line x1="2334.462912" y1="2282.727751" x2="2356.368282" y2="2074.312566" stroke="black" stroke-width="6.48"/>
<line x1="2356.368282" y1="2074.312566" x2="2325.649489" y2="2071.083884" stroke="black" stroke-width="6.48"/>
<line x1="2325.649489" y1="2071.083884" x2="2303.744119" y2="2279.49907" stroke="black" stroke-width="6.48"/>
<line x1="2506.488145" y1="2300.808377" x2="2537.206934" y2="2304.037058" stroke="black" stroke-width="6.48"/>
<line x1="2537.206934" y1="2304.037058" x2="2559.112304" y2="2095.621873" stroke="black" stroke-width="6.48"/>
<line x1="2559.112304" y1="2095.621873" x2="2528.393515" y2="2092.393192" stroke="black" stroke-width="6.48"/>
<line x1="2528.393515" y1="2092.393192" x2="2506.488145" y2="2300.808377" stroke="black" stroke-width="6.48"/>
<line x1="2333.990315" y1="2282.678078" x2="2506.488145" y2="2300.808377" stroke="black" stroke-width="6.48"/>
<line x1="2355.323746" y1="2075.158415" x2="2384.521128" y2="2051.947228" stroke="black" stroke-width="6.48"/>
<line x1="2505.03331" y1="2064.613597" x2="2528.766767" y2="2093.388055" stroke="black" stroke-width="6.48"/>
<line x1="2382.630739" y1="2051.74854" x2="2506.923695" y2="2064.812285" stroke="black" stroke-width="6.48"/>
<line x1="2339.132083" y1="2238.303654" x2="2511.629914" y2="2256.433949" stroke="black" stroke-width="6.48"/>
<line x1="5656.976683" y1="1394.952919" x2="5620.66893" y2="1600.864402" stroke="black" stroke-width="6.48"/>
<line x1="5620.66893" y1="1600.864402" x2="5849.043487" y2="1641.132994" stroke="black" stroke-width="6.48"/>
<line x1="5849.043487" y1="1641.132994" x2="5885.351237" y2="1435.221511" stroke="black" stroke-width="6.48"/>
<line x1="5885.351237" y1="1435.221511" x2="5656.976683" y2="1394.952919" stroke="black" stroke-width="6.48"/>
<line x1="5688.799366" y1="1400.564117" x2="5652.491616" y2="1606.475599" stroke="black" stroke-width="6.48"/>
</g>
</svg>
