<?xml version="1.0"?>
<svg xmlns:xlink="http://www.w3.org/1999/xlink" width="6775.2" height="2858.4">
<image x="0" y="0" width="6775.2" height="2858.4" xlink:href="groundfilled-01.png"/>
<g style="stroke-linecap:round">
<line x1="1285.950406" y1="795.178109" x2="1311.346069" y2="795.178109" stroke="black" stroke-width="6.48"/>
<line x1="1311.346069" y1="795.178109" x2="1311.346069" y2="745.625592" stroke="black" stroke-width="6.48"/>
<line x1="1311.346069" y1="745.625592" x2="1285.950406" y2="745.625592" stroke="black" stroke-width="6.48"/>
<line x1="1285.950406" y1="745.625592" x2="1285.950406" y2="795.178109" stroke="black" stroke-width="6.48"/>
<line x1="1559.728062" y1="745.625592" x2="1559.728062" y2="498.48241" stroke="black" stroke-width="6.48"/>
<line x1="1560.347471" y1="796.416923" x2="1585.743134" y2="796.416923" stroke="black" stroke-width="6.48"/>
<line x1="1585.743134" y1="796.416923" x2="1585.743134" y2="746.864406" stroke="black" stroke-width="6.48"/>
<line x1="1585.743134" y1="746.864406" x2="1560.347471" y2="746.864406" stroke="black" stroke-width="6.48"/>
<line x1="1560.347471" y1="746.864406" x2="1560.347471" y2="796.416923" stroke="black" stroke-width="6.48"/>
<path d="m 1311.346069,747.483811 a 248.38199299999997,248.38199299999997 0 0 1 248.38199299999997,-248.38199299999997" fill="none" stroke="black" stroke-width="6.48"/>
<line x1="330.523178" y1="771.328966" x2="330.523178" y2="366.748985" stroke="black" stroke-width="6.48"/>
<line x1="330.523178" y1="366.748985" x2="258.15928" y2="366.748985" stroke="black" stroke-width="6.48"/>
<line x1="258.15928" y1="366.748985" x2="258.15928" y2="771.328966" stroke="black" stroke-width="6.48"/>
<line x1="258.15928" y1="771.328966" x2="330.523178" y2="771.328966" stroke="black" stroke-width="6.48"/>
<line x1="330.523178" y1="752.415674" x2="355.19269" y2="752.415674" stroke="black" stroke-width="6.48"/>
<line x1="355.19269" y1="752.415674" x2="355.19269" y2="386.484595" stroke="black" stroke-width="6.48"/>
<line x1="330.523178" y1="386.484595" x2="355.19269" y2="386.484595" stroke="black" stroke-width="6.48"/>
<line x1="3901.945176" y1="1169.331426" x2="3901.945176" y2="1428.837066" stroke="black" stroke-width="6.48"/>
<line x1="3901.945176" y1="1428.837066" x2="3941.9501" y2="1428.837066" stroke="black" stroke-width="6.48"/>
<line x1="3941.9501" y1="1428.837066" x2="3941.9501" y2="1169.331426" stroke="black" stroke-width="6.48"/>
<line x1="3941.9501" y1="1169.331426" x2="3901.945176" y2="1169.331426" stroke="black" stroke-width="6.48"/>
<line x1="3941.423719" y1="1193.544936" x2="3902.471557" y2="1193.544936" stroke="black" stroke-width="6.48"/>
<line x1="3941.423719" y1="1404.097178" x2="3900.892414" y2="1404.097178" stroke="black" stroke-width="6.48"/>
<line x1="3923.000399" y1="1193.018555" x2="3923.000399" y2="1403.570797" stroke="black" stroke-width="6.48"/>
<line x1="334.430687" y1="1882.943946" x2="334.430687" y2="1457.437414" stroke="black" stroke-width="6.48"/>
<line x1="334.430687" y1="1457.437414" x2="258.323828" y2="1457.437414" stroke="black" stroke-width="6.48"/>
<line x1="258.323828" y1="1457.437414" x2="258.323828" y2="1882.943946" stroke="black" stroke-width="6.48"/>
<line x1="258.323828" y1="1882.943946" x2="334.430687" y2="1882.943946" stroke="black" stroke-width="6.48"/>
<line x1="334.430687" y1="1863.05238" x2="360.376207" y2="1863.05238" stroke="black" stroke-width="6.48"/>
<line x1="360.376207" y1="1863.05238" x2="360.376207" y2="1478.193829" stroke="black" stroke-width="6.48"/>
<line x1="334.430687" y1="1478.193829" x2="360.376207" y2="1478.193829" stroke="black" stroke-width="6.48"/>
<line x1="2747.905531" y1="904.670665" x2="2721.68303" y2="904.670665" stroke="black" stroke-width="6.48"/>
<line x1="2721.68303" y1="904.670665" x2="2721.68303" y2="955.836522" stroke="black" stroke-width="6.48"/>
<line x1="2721.68303" y1="955.836522" x2="2747.905531" y2="955.836522" stroke="black" stroke-width="6.48"/>
<line x1="2747.905531" y1="955.836522" x2="2747.905531" y2="904.670665" stroke="black" stroke-width="6.48"/>
<line x1="2465.214181" y1="955.836522" x2="2465.214181" y2="1211.026223" stroke="black" stroke-width="6.48"/>
<line x1="2464.574609" y1="903.39152" x2="2438.352108" y2="903.39152" stroke="black" stroke-width="6.48"/>
<line x1="2438.352108" y1="903.39152" x2="2438.352108" y2="954.557374" stroke="black" stroke-width="6.48"/>
<line x1="2438.352108" y1="954.557374" x2="2464.574609" y2="954.557374" stroke="black" stroke-width="6.48"/>
<line x1="2464.574609" y1="954.557374" x2="2464.574609" y2="903.39152" stroke="black" stroke-width="6.48"/>
<path d="m 2721.68303,953.917801 a 256.4688490000001,256.4688490000001 0 0 1 -256.4688490000003,256.46884899999986" fill="none" stroke="black" stroke-width="6.48"/>
<line x1="2420.532389" y1="1427.858834" x2="2395.136725" y2="1427.858834" stroke="black" stroke-width="6.48"/>
<line x1="2395.136725" y1="1427.858834" x2="2395.136725" y2="1477.411351" stroke="black" stroke-width="6.48"/>
<line x1="2395.136725" y1="1477.411351" x2="2420.532389" y2="1477.411351" stroke="black" stroke-width="6.48"/>
<line x1="2420.532389" y1="1477.411351" x2="2420.532389" y2="1427.858834" stroke="black" stroke-width="6.48"/>
<line x1="2146.754732" y1="1477.411351" x2="2146.754732" y2="1724.554534" stroke="black" stroke-width="6.48"/>
<line x1="2146.135324" y1="1426.62002" x2="2120.73966" y2="1426.62002" stroke="black" stroke-width="6.48"/>
<line x1="2120.73966" y1="1426.62002" x2="2120.73966" y2="1476.172537" stroke="black" stroke-width="6.48"/>
<line x1="2120.73966" y1="1476.172537" x2="2146.135324" y2="1476.172537" stroke="black" stroke-width="6.48"/>
<line x1="2146.135324" y1="1476.172537" x2="2146.135324" y2="1426.62002" stroke="black" stroke-width="6.48"/>
<path d="m 2395.136725,1475.553132 a 248.38199299999997,248.38199299999997 0 0 1 -248.38199299999997,248.38199299999997" fill="none" stroke="black" stroke-width="6.48"/>
<line x1="498.699094" y1="541.339351" x2="730.596694" y2="541.339351" stroke="black" stroke-width="6.48"/>
<line x1="730.596694" y1="541.339351" x2="730.596694" y2="773.712151" stroke="black" stroke-width="6.48"/>
<line x1="730.596694" y1="773.712151" x2="498.699094" y2="773.712151" stroke="black" stroke-width="6.48"/>
<line x1="498.699094" y1="773.712151" x2="498.699094" y2="541.339351" stroke="black" stroke-width="6.48"/>
<line x1="498.223894" y1="540.864151" x2="730.596694" y2="773.712151" stroke="black" stroke-width="6.48"/>
<line x1="498.699094" y1="773.236951" x2="730.121494" y2="541.339351" stroke="black" stroke-width="6.48"/>
<line x1="2032.924367" y1="1913.957824" x2="2032.924367" y2="1704.869824" stroke="black" stroke-width="6.48"/>
<line x1="2032.924367" y1="1704.869824" x2="1801.026767" y2="1704.869824" stroke="black" stroke-width="6.48"/>
<line x1="1801.026767" y1="1704.869824" x2="1801.026767" y2="1913.957824" stroke="black" stroke-width="6.48"/>
<line x1="1801.026767" y1="1913.957824" x2="2032.924367" y2="1913.957824" stroke="black" stroke-width="6.48"/>
<line x1="2000.610767" y1="1913.957824" x2="2000.610767" y2="1704.869824" stroke="black" stroke-width="6.48"/>
<line x1="1485.415969" y1="209.267824" x2="1707.693134" y2="209.267824" stroke="black" stroke-width="6.48"/>
<line x1="1707.693134" y1="209.267824" x2="1707.693134" y2="432.000475" stroke="black" stroke-width="6.48"/>
<line x1="1707.693134" y1="432.000475" x2="1485.415969" y2="432.000475" stroke="black" stroke-width="6.48"/>
<line x1="1485.415969" y1="432.000475" x2="1485.415969" y2="209.267824" stroke="black" stroke-width="6.48"/>
<line x1="1484.960483" y1="208.812337" x2="1707.693134" y2="432.000475" stroke="black" stroke-width="6.48"/>
<line x1="1485.415969" y1="431.544989" x2="1707.237648" y2="209.267824" stroke="black" stroke-width="6.48"/>
<line x1="2586.780558" y1="1803.366338" x2="2586.780558" y2="2194.614338" stroke="black" stroke-width="6.48"/>
<line x1="2586.780558" y1="2194.614338" x2="2761.020558" y2="2194.614338" stroke="black" stroke-width="6.48"/>
<line x1="2761.020558" y1="2194.614338" x2="2761.020558" y2="1803.366338" stroke="black" stroke-width="6.48"/>
<line x1="2761.020558" y1="1803.366338" x2="2586.780558" y2="1803.366338" stroke="black" stroke-width="6.48"/>
<line x1="2734.092558" y1="2119.374338" x2="2734.092558" y2="1835.046338" stroke="black" stroke-width="6.48"/>
<line x1="2734.092558" y1="1835.046338" x2="2616.084558" y2="1835.046338" stroke="black" stroke-width="6.48"/>
<line x1="2616.084558" y1="1835.046338" x2="2616.084558" y2="2124.918338" stroke="black" stroke-width="6.48"/>
<path d="m 2734.347982,2118.563766 a 63.35999941905905,63.35999941905905 0 0 1 -119.37432999999965,4.2938139999996565" fill="none" stroke="black" stroke-width="6.48"/>
<line x1="2081.22885" y1="1903.027874" x2="2056.67685" y2="1921.639874" stroke="black" stroke-width="6.48"/>
<line x1="2056.67685" y1="1921.639874" x2="2056.67685" y2="2068.951874" stroke="black" stroke-width="6.48"/>
<line x1="2056.67685" y1="2068.951874" x2="2084.79285" y2="2087.959874" stroke="black" stroke-width="6.48"/>
<line x1="2084.00085" y1="1924.807874" x2="2084.00085" y2="2067.763874" stroke="black" stroke-width="6.48"/>
<circle cx="2105.78085" cy="1994.107874" r="13.068000000000003" fill="none" stroke="black" stroke-width="6.48"/>
<path d="m 2083.333504,1926.361127 a 74.8440000678095,74.8440000678095 0 1 1 0.40204799999992247,139.60900400000014" fill="none" stroke="black" stroke-width="6.48"/>
<path d="m 2080.571486,1903.074178 a 95.43599883751715,95.43599883751715 0 1 1 3.0749580000001515,184.466995" fill="none" stroke="black" stroke-width="6.48"/>
<line x1="838.259467" y1="209.800559" x2="1108.806667" y2="209.800559" stroke="black" stroke-width="6.48"/>
<line x1="1108.806667" y1="209.800559" x2="1108.806667" y2="341.747759" stroke="black" stroke-width="6.48"/>
<line x1="838.259467" y1="341.747759" x2="1108.806667" y2="341.747759" stroke="black" stroke-width="6.48"/>
<line x1="838.259467" y1="209.800559" x2="838.259467" y2="341.747759" stroke="black" stroke-width="6.48"/>
<line x1="844.912267" y1="216.453359" x2="982.957867" y2="216.453359" stroke="black" stroke-width="6.48"/>
<line x1="982.957867" y1="216.453359" x2="982.957867" y2="334.540559" stroke="black" stroke-width="6.48"/>
<line x1="844.912267" y1="334.540559" x2="982.957867" y2="334.540559" stroke="black" stroke-width="6.48"/>
<line x1="844.912267" y1="216.453359" x2="844.912267" y2="334.540559" stroke="black" stroke-width="6.48"/>
<line x1="997.372267" y1="224.214959" x2="1094.392267" y2="224.214959" stroke="black" stroke-width="6.48"/>
<line x1="997.372267" y1="244.727759" x2="1094.392267" y2="244.727759" stroke="black" stroke-width="6.48"/>
<line x1="997.926667" y1="265.794959" x2="1094.946667" y2="265.794959" stroke="black" stroke-width="6.48"/>
<line x1="997.926667" y1="286.307759" x2="1094.946667" y2="286.307759" stroke="black" stroke-width="6.48"/>
<line x1="997.372267" y1="306.820559" x2="1094.392267" y2="306.820559" stroke="black" stroke-width="6.48"/>
<line x1="997.372267" y1="327.333359" x2="1094.392267" y2="327.333359" stroke="black" stroke-width="6.48"/>
<line x1="897.580267" y1="334.540559" x2="897.580267" y2="320.680559" stroke="black" stroke-width="6.48"/>
<line x1="897.580267" y1="320.680559" x2="931.953067" y2="320.680559" stroke="black" stroke-width="6.48"/>
<line x1="931.953067" y1="320.680559" x2="931.953067" y2="333.986159" stroke="black" stroke-width="6.48"/>
<circle cx="967.434667" cy="231.422159" r="8.316000000000003" fill="none" stroke="black" stroke-width="6.48"/>
<line x1="2044.889399" y1="955.822399" x2="2267.166564" y2="955.822399" stroke="black" stroke-width="6.48"/>
<line x1="2267.166564" y1="955.822399" x2="2267.166564" y2="1178.555051" stroke="black" stroke-width="6.48"/>
<line x1="2267.166564" y1="1178.555051" x2="2044.889399" y2="1178.555051" stroke="black" stroke-width="6.48"/>
<line x1="2044.889399" y1="1178.555051" x2="2044.889399" y2="955.822399" stroke="black" stroke-width="6.48"/>
<line x1="2044.433912" y1="955.366913" x2="2267.166564" y2="1178.555051" stroke="black" stroke-width="6.48"/>
<line x1="2044.889399" y1="1178.099564" x2="2266.711078" y2="955.822399" stroke="black" stroke-width="6.48"/>
<line x1="323.258818" y1="1375.374532" x2="323.258818" y2="949.841089" stroke="black" stroke-width="6.48"/>
<line x1="323.258818" y1="949.841089" x2="257.659344" y2="949.841089" stroke="black" stroke-width="6.48"/>
<line x1="257.659344" y1="949.841089" x2="257.659344" y2="1375.374532" stroke="black" stroke-width="6.48"/>
<line x1="257.659344" y1="1375.374532" x2="323.258818" y2="1375.374532" stroke="black" stroke-width="6.48"/>
<line x1="258.522494" y1="1335.669588" x2="322.395667" y2="1335.669588" stroke="black" stroke-width="6.48"/>
<line x1="258.522494" y1="990.409187" x2="324.985122" y2="990.409187" stroke="black" stroke-width="6.48"/>
<line x1="288.73278" y1="1336.532738" x2="288.73278" y2="991.272337" stroke="black" stroke-width="6.48"/>
<line x1="3874.406537" y1="1514.726719" x2="3874.406537" y2="1940.260162" stroke="black" stroke-width="6.48"/>
<line x1="3874.406537" y1="1940.260162" x2="3940.00601" y2="1940.260162" stroke="black" stroke-width="6.48"/>
<line x1="3940.00601" y1="1940.260162" x2="3940.00601" y2="1514.726719" stroke="black" stroke-width="6.48"/>
<line x1="3940.00601" y1="1514.726719" x2="3874.406537" y2="1514.726719" stroke="black" stroke-width="6.48"/>
<line x1="3939.14286" y1="1554.431663" x2="3875.269687" y2="1554.431663" stroke="black" stroke-width="6.48"/>
<line x1="3939.14286" y1="1899.692064" x2="3872.680232" y2="1899.692064" stroke="black" stroke-width="6.48"/>
<line x1="3908.932574" y1="1553.568512" x2="3908.932574" y2="1898.828914" stroke="black" stroke-width="6.48"/>
<line x1="5293.779059" y1="1792.177578" x2="5321.24536" y2="1921.396352" stroke="black" stroke-width="6.48"/>
<line x1="5321.24536" y1="1921.396352" x2="5307.300889" y2="1924.36034" stroke="black" stroke-width="6.48"/>
<line x1="5279.834588" y1="1795.141566" x2="5307.300889" y2="1924.36034" stroke="black" stroke-width="6.48"/>
<line x1="5293.779059" y1="1792.177578" x2="5279.834588" y2="1795.141566" stroke="black" stroke-width="6.48"/>
<line x1="5282.60098" y1="1808.156408" x2="5251.527943" y2="1812.817922" stroke="black" stroke-width="6.48"/>
<line x1="5304.534498" y1="1911.345502" x2="5273.322228" y2="1919.923139" stroke="black" stroke-width="6.48"/>
<line x1="4842.907794" y1="1888.013225" x2="4870.374095" y2="2017.231999" stroke="black" stroke-width="6.48"/>
<line x1="4870.374095" y1="2017.231999" x2="4883.388934" y2="2014.465608" stroke="black" stroke-width="6.48"/>
<line x1="4855.922636" y1="1885.246837" x2="4883.388934" y2="2014.465608" stroke="black" stroke-width="6.48"/>
<line x1="4842.907794" y1="1888.013225" x2="4855.922636" y2="1885.246837" stroke="black" stroke-width="6.48"/>
<line x1="4860.350687" y1="1896.936844" x2="4890.633329" y2="1888.556807" stroke="black" stroke-width="6.48"/>
<line x1="4882.284205" y1="2000.12594" x2="4914.484474" y2="1996.196458" stroke="black" stroke-width="6.48"/>
<line x1="5194.406192" y1="2115.477641" x2="5191.442197" y2="2101.53317" stroke="black" stroke-width="6.48"/>
<line x1="5191.442197" y1="2101.53317" x2="5062.223426" y2="2128.999468" stroke="black" stroke-width="6.48"/>
<line x1="5065.187414" y1="2142.943938" x2="5062.223426" y2="2128.999468" stroke="black" stroke-width="6.48"/>
<line x1="5194.406192" y1="2115.477641" x2="5065.187414" y2="2142.943938" stroke="black" stroke-width="6.48"/>
<line x1="5076.167897" y1="2126.03548" x2="5066.660624" y2="2095.020806" stroke="black" stroke-width="6.48"/>
<line x1="5178.427362" y1="2104.299558" x2="5173.568248" y2="2072.29689" stroke="black" stroke-width="6.48"/>
<line x1="5099.697774" y1="1665.338404" x2="5102.661762" y2="1679.282881" stroke="black" stroke-width="6.48"/>
<line x1="5102.661762" y1="1679.282881" x2="4973.442988" y2="1706.749178" stroke="black" stroke-width="6.48"/>
<line x1="4970.478996" y1="1692.804704" x2="4973.442988" y2="1706.749178" stroke="black" stroke-width="6.48"/>
<line x1="5099.697774" y1="1665.338404" x2="4970.478996" y2="1692.804704" stroke="black" stroke-width="6.48"/>
<line x1="4987.387458" y1="1703.785187" x2="4991.316941" y2="1735.985455" stroke="black" stroke-width="6.48"/>
<line x1="5089.64692" y1="1682.049269" x2="5098.224557" y2="1713.261542" stroke="black" stroke-width="6.48"/>
<circle cx="5082.442592" cy="1904.141171" r="191.98080000000002" fill="none" stroke="black" stroke-width="6.48"/>
<line x1="3149.704688" y1="1074.466476" x2="3359.069892" y2="1074.466476" stroke="black" stroke-width="6.48"/>
<line x1="3359.069892" y1="1074.466476" x2="3359.069892" y2="743.252072" stroke="black" stroke-width="6.48"/>
<line x1="3359.069892" y1="743.252072" x2="3149.704688" y2="743.252072" stroke="black" stroke-width="6.48"/>
<line x1="3149.704688" y1="743.252072" x2="3149.704688" y2="1074.466476" stroke="black" stroke-width="6.48"/>
<line x1="3149.031488" y1="802.493672" x2="3359.743088" y2="802.493672" stroke="black" stroke-width="6.48"/>
<line x1="3359.743088" y1="802.493672" x2="3150.377888" y2="852.310476" stroke="black" stroke-width="6.48"/>
<line x1="3150.377888" y1="852.310476" x2="3182.018292" y2="898.761276" stroke="black" stroke-width="6.48"/>
<line x1="3182.018292" y1="898.761276" x2="3359.743088" y2="801.820476" stroke="black" stroke-width="6.48"/>
<line x1="3202.933716" y1="1203.97239" x2="3425.210881" y2="1203.97239" stroke="black" stroke-width="6.48"/>
<line x1="3425.210881" y1="1203.97239" x2="3425.210881" y2="1426.705042" stroke="black" stroke-width="6.48"/>
<line x1="3425.210881" y1="1426.705042" x2="3202.933716" y2="1426.705042" stroke="black" stroke-width="6.48"/>
<line x1="3202.933716" y1="1426.705042" x2="3202.933716" y2="1203.97239" stroke="black" stroke-width="6.48"/>
<line x1="3202.47823" y1="1203.516904" x2="3425.210881" y2="1426.705042" stroke="black" stroke-width="6.48"/>
<line x1="3202.933716" y1="1426.249555" x2="3424.755395" y2="1203.97239" stroke="black" stroke-width="6.48"/>
<line x1="2804.16708" y1="1127.69402" x2="2804.16708" y2="1153.148746" stroke="black" stroke-width="6.48"/>
<line x1="2804.16708" y1="1153.148746" x2="2853.834836" y2="1153.148746" stroke="black" stroke-width="6.48"/>
<line x1="2853.834836" y1="1153.148746" x2="2853.834836" y2="1127.69402" stroke="black" stroke-width="6.48"/>
<line x1="2853.834836" y1="1127.69402" x2="2804.16708" y2="1127.69402" stroke="black" stroke-width="6.48"/>
<line x1="2853.834836" y1="1402.108373" x2="3101.55277" y2="1402.108373" stroke="black" stroke-width="6.48"/>
<line x1="2802.925386" y1="1402.729218" x2="2802.925386" y2="1428.183943" stroke="black" stroke-width="6.48"/>
<line x1="2802.925386" y1="1428.183943" x2="2852.593142" y2="1428.183943" stroke="black" stroke-width="6.48"/>
<line x1="2852.593142" y1="1428.183943" x2="2852.593142" y2="1402.729218" stroke="black" stroke-width="6.48"/>
<line x1="2852.593142" y1="1402.729218" x2="2802.925386" y2="1402.729218" stroke="black" stroke-width="6.48"/>
<path d="m 2851.972294,1153.148746 a 248.95962699999984,248.95962699999984 0 0 1 248.95962699999973,248.95962699999995" fill="none" stroke="black" stroke-width="6.48"/>
<line x1="3579.484774" y1="1640.632295" x2="3709.160266" y2="1832.884121" stroke="black" stroke-width="6.48"/>
<line x1="3709.160266" y1="1832.884121" x2="3516.514484" y2="1962.825343" stroke="black" stroke-width="6.48"/>
<line x1="3516.514484" y1="1962.825343" x2="3386.838992" y2="1770.573514" stroke="black" stroke-width="6.48"/>
<line x1="3386.838992" y1="1770.573514" x2="3579.484774" y2="1640.632295" stroke="black" stroke-width="6.48"/>
<line x1="3579.613006" y1="1639.972609" x2="3516.514484" y2="1962.825343" stroke="black" stroke-width="6.48"/>
<line x1="3387.232951" y1="1770.307787" x2="3708.894539" y2="1832.490158" stroke="black" stroke-width="6.48"/>
<line x1="3042.664542" y1="1589.315882" x2="3035.716254" y2="1619.412228" stroke="black" stroke-width="6.48"/>
<line x1="3035.716254" y1="1619.412228" x2="3239.908362" y2="1666.553692" stroke="black" stroke-width="6.48"/>
<line x1="3239.908362" y1="1666.553692" x2="3246.85665" y2="1636.457346" stroke="black" stroke-width="6.48"/>
<line x1="3246.85665" y1="1636.457346" x2="3042.664542" y2="1589.315882" stroke="black" stroke-width="6.48"/>
<line x1="2996.805841" y1="1787.951743" x2="2989.857553" y2="1818.048089" stroke="black" stroke-width="6.48"/>
<line x1="2989.857553" y1="1818.048089" x2="3194.049658" y2="1865.189552" stroke="black" stroke-width="6.48"/>
<line x1="3194.049658" y1="1865.189552" x2="3200.997949" y2="1835.09321" stroke="black" stroke-width="6.48"/>
<line x1="3200.997949" y1="1835.09321" x2="2996.805841" y2="1787.951743" stroke="black" stroke-width="6.48"/>
<line x1="3035.823149" y1="1618.949207" x2="2996.805841" y2="1787.951743" stroke="black" stroke-width="6.48"/>
<line x1="3239.196113" y1="1665.413852" x2="3258.67603" y2="1697.222333" stroke="black" stroke-width="6.48"/>
<line x1="3231.417362" y1="1815.292598" x2="3199.965012" y2="1835.342435" stroke="black" stroke-width="6.48"/>
<line x1="3259.10362" y1="1695.370252" x2="3230.989776" y2="1817.144683" stroke="black" stroke-width="6.48"/>
<line x1="3079.240193" y1="1629.460523" x2="3040.222885" y2="1798.463063" stroke="black" stroke-width="6.48"/>
<line x1="1215.969703" y1="1644.765192" x2="1070.359945" y2="1766.946222" stroke="black" stroke-width="6.48"/>
<line x1="1070.359945" y1="1766.946222" x2="1368.481666" y2="2122.234031" stroke="black" stroke-width="6.48"/>
<line x1="1368.481666" y1="2122.234031" x2="1514.09142" y2="2000.052997" stroke="black" stroke-width="6.48"/>
<line x1="1514.09142" y1="2000.052997" x2="1498.818798" y2="1981.851779" stroke="black" stroke-width="6.48"/>
<line x1="1498.818798" y1="1981.851779" x2="1370.682209" y2="2089.371089" stroke="black" stroke-width="6.48"/>
<line x1="1370.682209" y1="2089.371089" x2="1103.716652" y2="1771.213766" stroke="black" stroke-width="6.48"/>
<line x1="1103.716652" y1="1771.213766" x2="1231.853238" y2="1663.69446" stroke="black" stroke-width="6.48"/>
<line x1="1231.853238" y1="1663.69446" x2="1215.969703" y2="1644.765192" stroke="black" stroke-width="6.48"/>
<line x1="1227.484944" y1="1667.35989" x2="1494.450504" y2="1985.517209" stroke="black" stroke-width="6.48"/>
<line x1="1361.390321" y1="1825.463621" x2="1237.622022" y2="1929.317497" stroke="black" stroke-width="6.48"/>
<line x1="6195.849534" y1="2097.463676" x2="6195.849534" y2="2306.551676" stroke="black" stroke-width="6.48"/>
<line x1="6195.849534" y1="2306.551676" x2="6427.747134" y2="2306.551676" stroke="black" stroke-width="6.48"/>
<line x1="6427.747134" y1="2306.551676" x2="6427.747134" y2="2097.463676" stroke="black" stroke-width="6.48"/>
<line x1="6427.747134" y1="2097.463676" x2="6195.849534" y2="2097.463676" stroke="black" stroke-width="6.48"/>
<line x1="6228.163134" y1="2097.463676" x2="6228.163134" y2="2306.551676" stroke="black" stroke-width="6.48"/>
<line x1="5693.157" y1="1493.375119" x2="5696.385674" y2="1524.093912" stroke="black" stroke-width="6.48"/>
<line x1="5696.385674" y1="1524.093912" x2="5904.800863" y2="1502.188589" stroke="black" stroke-width="6.48"/>
<line x1="5904.800863" y1="1502.188589" x2="5901.572189" y2="1471.4698" stroke="black" stroke-width="6.48"/>
<line x1="5901.572189" y1="1471.4698" x2="5693.157" y2="1493.375119" stroke="black" stroke-width="6.48"/>
<line x1="5714.466253" y1="1696.119145" x2="5717.694931" y2="1726.837938" stroke="black" stroke-width="6.48"/>
<line x1="5717.694931" y1="1726.837938" x2="5926.110124" y2="1704.932618" stroke="black" stroke-width="6.48"/>
<line x1="5926.110124" y1="1704.932618" x2="5922.881446" y2="1674.213829" stroke="black" stroke-width="6.48"/>
<line x1="5922.881446" y1="1674.213829" x2="5714.466253" y2="1696.119145" stroke="black" stroke-width="6.48"/>
<line x1="5696.336002" y1="1523.621311" x2="5714.466253" y2="1696.119145" stroke="black" stroke-width="6.48"/>
<line x1="5903.756327" y1="1501.34274" x2="5932.530778" y2="1525.076204" stroke="black" stroke-width="6.48"/>
<line x1="5945.197118" y1="1645.58839" x2="5921.985924" y2="1674.785768" stroke="black" stroke-width="6.48"/>
<line x1="5932.33209" y1="1523.185819" x2="5945.39581" y2="1647.478778" stroke="black" stroke-width="6.48"/>
<line x1="5740.809775" y1="1519.424752" x2="5758.940023" y2="1691.922586" stroke="black" stroke-width="6.48"/>
<line x1="1142.891863" y1="1444.207846" x2="1020.405686" y2="1493.695476" stroke="black" stroke-width="6.48"/>
<line x1="1020.405686" y1="1493.695476" x2="1015.065292" y2="1480.477543" stroke="black" stroke-width="6.48"/>
<line x1="1137.551472" y1="1430.989913" x2="1015.065292" y2="1480.477543" stroke="black" stroke-width="6.48"/>
<line x1="1142.891863" y1="1444.207846" x2="1137.551472" y2="1430.989913" stroke="black" stroke-width="6.48"/>
<line x1="1125.214736" y1="1435.974278" x2="1115.228264" y2="1406.182774" stroke="black" stroke-width="6.48"/>
<line x1="1027.402031" y1="1475.493178" x2="1013.534752" y2="1446.244582" stroke="black" stroke-width="6.48"/>
<line x1="970.219202" y1="1016.82801" x2="847.733022" y2="1066.31564" stroke="black" stroke-width="6.48"/>
<line x1="847.733022" y1="1066.31564" x2="852.717388" y2="1078.65238" stroke="black" stroke-width="6.48"/>
<line x1="975.203568" y1="1029.164749" x2="852.717388" y2="1078.65238" stroke="black" stroke-width="6.48"/>
<line x1="970.219202" y1="1016.82801" x2="975.203568" y2="1029.164749" stroke="black" stroke-width="6.48"/>
<line x1="964.460077" y1="1035.55548" x2="977.971331" y2="1063.922882" stroke="black" stroke-width="6.48"/>
<line x1="866.647372" y1="1075.074376" x2="876.108676" y2="1106.103103" stroke="black" stroke-width="6.48"/>
<line x1="807.247534" y1="1402.485138" x2="820.465466" y2="1397.144747" stroke="black" stroke-width="6.48"/>
<line x1="820.465466" y1="1397.144747" x2="770.97784" y2="1274.658566" stroke="black" stroke-width="6.48"/>
<line x1="757.759907" y1="1279.998958" x2="770.97784" y2="1274.658566" stroke="black" stroke-width="6.48"/>
<line x1="807.247534" y1="1402.485138" x2="757.759907" y2="1279.998958" stroke="black" stroke-width="6.48"/>
<line x1="776.318231" y1="1287.876499" x2="805.210805" y2="1273.128026" stroke="black" stroke-width="6.48"/>
<line x1="815.481104" y1="1384.808011" x2="846.153806" y2="1374.46551" stroke="black" stroke-width="6.48"/>
<line x1="1234.102205" y1="1231.0497" x2="1220.884268" y2="1236.390088" stroke="black" stroke-width="6.48"/>
<line x1="1220.884268" y1="1236.390088" x2="1171.396642" y2="1113.903911" stroke="black" stroke-width="6.48"/>
<line x1="1184.614574" y1="1108.56352" x2="1171.396642" y2="1113.903911" stroke="black" stroke-width="6.48"/>
<line x1="1234.102205" y1="1231.0497" x2="1184.614574" y2="1108.56352" stroke="black" stroke-width="6.48"/>
<line x1="1176.737029" y1="1127.121844" x2="1145.708302" y2="1136.583144" stroke="black" stroke-width="6.48"/>
<line x1="1215.899899" y1="1224.053356" x2="1186.651303" y2="1237.920631" stroke="black" stroke-width="6.48"/>
<circle cx="995.93105" cy="1255.524329" r="191.98080000000002" fill="none" stroke="black" stroke-width="6.48"/>
<line x1="3771.436309" y1="1165.903459" x2="3780.467086" y2="1136.365117" stroke="black" stroke-width="6.48"/>
<line x1="3780.467086" y1="1136.365117" x2="3580.060799" y2="1075.094766" stroke="black" stroke-width="6.48"/>
<line x1="3580.060799" y1="1075.094766" x2="3571.030026" y2="1104.633108" stroke="black" stroke-width="6.48"/>
<line x1="3571.030026" y1="1104.633108" x2="3771.436309" y2="1165.903459" stroke="black" stroke-width="6.48"/>
<line x1="3831.039439" y1="970.950406" x2="3840.070216" y2="941.412067" stroke="black" stroke-width="6.48"/>
<line x1="3840.070216" y1="941.412067" x2="3639.663932" y2="880.141712" stroke="black" stroke-width="6.48"/>
<line x1="3639.663932" y1="880.141712" x2="3630.633152" y2="909.680054" stroke="black" stroke-width="6.48"/>
<line x1="3630.633152" y1="909.680054" x2="3831.039439" y2="970.950406" stroke="black" stroke-width="6.48"/>
<line x1="3780.328151" y1="1136.819552" x2="3831.039439" y2="970.950406" stroke="black" stroke-width="6.48"/>
<line x1="3580.691803" y1="1076.28151" x2="3563.478187" y2="1043.191667" stroke="black" stroke-width="6.48"/>
<line x1="3598.906619" y1="927.310482" x2="3631.680961" y2="909.503489" stroke="black" stroke-width="6.48"/>
<line x1="3562.922444" y1="1045.009408" x2="3599.462358" y2="925.492734" stroke="black" stroke-width="6.48"/>
<line x1="3737.750098" y1="1123.305224" x2="3788.46139" y2="957.436074" stroke="black" stroke-width="6.48"/>
</g>
</svg>
