<?xml version="1.0"?>
<svg xmlns:xlink="http://www.w3.org/1999/xlink" width="6775.2" height="2858.4">
<image x="0" y="0" width="6775.2" height="2858.4" xlink:href="groundfilled-01.png"/>
<g style="stroke-linecap:round">
<line x1="1285.950406" y1="795.178109" x2="1311.346069" y2="795.178109" stroke="black" stroke-width="6.48"/>
<line x1="1311.346069" y1="795.178109" x2="1311.346069" y2="745.625592" stroke="black" stroke-width="6.48"/>
<line x1="1311.346069" y1="745.625592" x2="1285.950406" y2="745.625592" stroke="black" stroke-width="6.48"/>
<line x1="1285.950406" y1="745.625592" x2="1285.950406" y2="795.178109" stroke="black" stroke-width="6.48"/>
<line x1="1559.728062" y1="745.625592" x2="1559.728062" y2="498.48241" stroke="black" stroke-width="6.48"/>
<line x1="1560.347471" y1="796.416923" x2="1585.743134" y2="796.416923" stroke="black" stroke-width="6.48"/>
<line x1="1585.743134" y1="796.416923" x2="1585.743134" y2="746.864406" stroke="black" stroke-width="6.48"/>
<line x1="1585.743134" y1="746.864406" x2="1560.347471" y2="746.864406" stroke="black" stroke-width="6.48"/>
<line x1="1560.347471" y1="746.864406" x2="1560.347471" y2="796.416923" stroke="black" stroke-width="6.48"/>
<path d="m 1311.346069,747.483811 a 248.38199299999997,248.38199299999997 0 0 1 248.38199299999997,-248.38199299999997" fill="none" stroke="black" stroke-width="6.48"/>
<line x1="320.532556" y1="771.34176" x2="320.532556" y2="366.736194" stroke="black" stroke-width="6.48"/>
<line x1="320.532556" y1="366.736194" x2="258.159283" y2="366.736194" stroke="black" stroke-width="6.48"/>
<line x1="258.159283" y1="366.736194" x2="258.159283" y2="771.34176" stroke="black" stroke-width="6.48"/>
<line x1="258.159283" y1="771.34176" x2="320.532556" y2="771.34176" stroke="black" stroke-width="6.48"/>
<line x1="258.979986" y1="733.589518" x2="319.711856" y2="733.589518" stroke="black" stroke-width="6.48"/>
<line x1="258.979986" y1="405.309139" x2="322.173958" y2="405.309139" stroke="black" stroke-width="6.48"/>
<line x1="287.704519" y1="734.410217" x2="287.704519" y2="406.129838" stroke="black" stroke-width="6.48"/>
<line x1="3901.945176" y1="1169.331426" x2="3901.945176" y2="1428.837066" stroke="black" stroke-width="6.48"/>
<line x1="3901.945176" y1="1428.837066" x2="3941.9501" y2="1428.837066" stroke="black" stroke-width="6.48"/>
<line x1="3941.9501" y1="1428.837066" x2="3941.9501" y2="1169.331426" stroke="black" stroke-width="6.48"/>
<line x1="3941.9501" y1="1169.331426" x2="3901.945176" y2="1169.331426" stroke="black" stroke-width="6.48"/>
<line x1="3941.423719" y1="1193.544936" x2="3902.471557" y2="1193.544936" stroke="black" stroke-width="6.48"/>
<line x1="3941.423719" y1="1404.097178" x2="3900.892414" y2="1404.097178" stroke="black" stroke-width="6.48"/>
<line x1="3923.000399" y1="1193.018555" x2="3923.000399" y2="1403.570797" stroke="black" stroke-width="6.48"/>
<line x1="334.430687" y1="1882.943946" x2="334.430687" y2="1457.437414" stroke="black" stroke-width="6.48"/>
<line x1="334.430687" y1="1457.437414" x2="258.323828" y2="1457.437414" stroke="black" stroke-width="6.48"/>
<line x1="258.323828" y1="1457.437414" x2="258.323828" y2="1882.943946" stroke="black" stroke-width="6.48"/>
<line x1="258.323828" y1="1882.943946" x2="334.430687" y2="1882.943946" stroke="black" stroke-width="6.48"/>
<line x1="334.430687" y1="1863.05238" x2="360.376207" y2="1863.05238" stroke="black" stroke-width="6.48"/>
<line x1="360.376207" y1="1863.05238" x2="360.376207" y2="1478.193829" stroke="black" stroke-width="6.48"/>
<line x1="334.430687" y1="1478.193829" x2="360.376207" y2="1478.193829" stroke="black" stroke-width="6.48"/>
<line x1="2747.905531" y1="904.670665" x2="2721.68303" y2="904.670665" stroke="black" stroke-width="6.48"/>
<line x1="2721.68303" y1="904.670665" x2="2721.68303" y2="955.836522" stroke="black" stroke-width="6.48"/>
<line x1="2721.68303" y1="955.836522" x2="2747.905531" y2="955.836522" stroke="black" stroke-width="6.48"/>
<line x1="2747.905531" y1="955.836522" x2="2747.905531" y2="904.670665" stroke="black" stroke-width="6.48"/>
<line x1="2465.214181" y1="955.836522" x2="2465.214181" y2="1211.026223" stroke="black" stroke-width="6.48"/>
<line x1="2464.574609" y1="903.39152" x2="2438.352108" y2="903.39152" stroke="black" stroke-width="6.48"/>
<line x1="2438.352108" y1="903.39152" x2="2438.352108" y2="954.557374" stroke="black" stroke-width="6.48"/>
<line x1="2438.352108" y1="954.557374" x2="2464.574609" y2="954.557374" stroke="black" stroke-width="6.48"/>
<line x1="2464.574609" y1="954.557374" x2="2464.574609" y2="903.39152" stroke="black" stroke-width="6.48"/>
<path d="m 2721.68303,953.917801 a 256.4688490000001,256.4688490000001 0 0 1 -256.4688490000003,256.46884899999986" fill="none" stroke="black" stroke-width="6.48"/>
<line x1="2420.532389" y1="1427.858834" x2="2395.136725" y2="1427.858834" stroke="black" stroke-width="6.48"/>
<line x1="2395.136725" y1="1427.858834" x2="2395.136725" y2="1477.411351" stroke="black" stroke-width="6.48"/>
<line x1="2395.136725" y1="1477.411351" x2="2420.532389" y2="1477.411351" stroke="black" stroke-width="6.48"/>
<line x1="2420.532389" y1="1477.411351" x2="2420.532389" y2="1427.858834" stroke="black" stroke-width="6.48"/>
<line x1="2146.754732" y1="1477.411351" x2="2146.754732" y2="1724.554534" stroke="black" stroke-width="6.48"/>
<line x1="2146.135324" y1="1426.62002" x2="2120.73966" y2="1426.62002" stroke="black" stroke-width="6.48"/>
<line x1="2120.73966" y1="1426.62002" x2="2120.73966" y2="1476.172537" stroke="black" stroke-width="6.48"/>
<line x1="2120.73966" y1="1476.172537" x2="2146.135324" y2="1476.172537" stroke="black" stroke-width="6.48"/>
<line x1="2146.135324" y1="1476.172537" x2="2146.135324" y2="1426.62002" stroke="black" stroke-width="6.48"/>
<path d="m 2395.136725,1475.553132 a 248.38199299999997,248.38199299999997 0 0 1 -248.38199299999997,248.38199299999997" fill="none" stroke="black" stroke-width="6.48"/>
<line x1="839.451769" y1="541.339351" x2="1071.349369" y2="541.339351" stroke="black" stroke-width="6.48"/>
<line x1="1071.349369" y1="541.339351" x2="1071.349369" y2="773.712151" stroke="black" stroke-width="6.48"/>
<line x1="1071.349369" y1="773.712151" x2="839.451769" y2="773.712151" stroke="black" stroke-width="6.48"/>
<line x1="839.451769" y1="773.712151" x2="839.451769" y2="541.339351" stroke="black" stroke-width="6.48"/>
<line x1="838.976569" y1="540.864151" x2="1071.349369" y2="773.712151" stroke="black" stroke-width="6.48"/>
<line x1="839.451769" y1="773.236951" x2="1070.874169" y2="541.339351" stroke="black" stroke-width="6.48"/>
<line x1="2032.924367" y1="1748.530944" x2="2032.924367" y2="1717.642944" stroke="black" stroke-width="6.48"/>
<line x1="2032.924367" y1="1717.642944" x2="1823.361167" y2="1717.642944" stroke="black" stroke-width="6.48"/>
<line x1="1823.361167" y1="1717.642944" x2="1823.361167" y2="1748.530944" stroke="black" stroke-width="6.48"/>
<line x1="1823.361167" y1="1748.530944" x2="2032.924367" y2="1748.530944" stroke="black" stroke-width="6.48"/>
<line x1="2032.924367" y1="1544.670144" x2="2032.924367" y2="1513.782144" stroke="black" stroke-width="6.48"/>
<line x1="2032.924367" y1="1513.782144" x2="1823.361167" y2="1513.782144" stroke="black" stroke-width="6.48"/>
<line x1="1823.361167" y1="1513.782144" x2="1823.361167" y2="1544.670144" stroke="black" stroke-width="6.48"/>
<line x1="1823.361167" y1="1544.670144" x2="2032.924367" y2="1544.670144" stroke="black" stroke-width="6.48"/>
<line x1="2032.924367" y1="1718.118144" x2="2032.924367" y2="1544.670144" stroke="black" stroke-width="6.48"/>
<line x1="1824.311567" y1="1718.593344" x2="1798.175567" y2="1691.982144" stroke="black" stroke-width="6.48"/>
<line x1="1798.175567" y1="1570.806144" x2="1824.311567" y2="1544.194944" stroke="black" stroke-width="6.48"/>
<line x1="1798.175567" y1="1693.882944" x2="1798.175567" y2="1568.905344" stroke="black" stroke-width="6.48"/>
<line x1="1988.255567" y1="1717.642944" x2="1988.255567" y2="1544.194944" stroke="black" stroke-width="6.48"/>
<line x1="1485.415969" y1="209.267824" x2="1707.693134" y2="209.267824" stroke="black" stroke-width="6.48"/>
<line x1="1707.693134" y1="209.267824" x2="1707.693134" y2="432.000475" stroke="black" stroke-width="6.48"/>
<line x1="1707.693134" y1="432.000475" x2="1485.415969" y2="432.000475" stroke="black" stroke-width="6.48"/>
<line x1="1485.415969" y1="432.000475" x2="1485.415969" y2="209.267824" stroke="black" stroke-width="6.48"/>
<line x1="1484.960483" y1="208.812337" x2="1707.693134" y2="432.000475" stroke="black" stroke-width="6.48"/>
<line x1="1485.415969" y1="431.544989" x2="1707.237648" y2="209.267824" stroke="black" stroke-width="6.48"/>
<line x1="2586.780558" y1="1803.366338" x2="2586.780558" y2="2194.614338" stroke="black" stroke-width="6.48"/>
<line x1="2586.780558" y1="2194.614338" x2="2761.020558" y2="2194.614338" stroke="black" stroke-width="6.48"/>
<line x1="2761.020558" y1="2194.614338" x2="2761.020558" y2="1803.366338" stroke="black" stroke-width="6.48"/>
<line x1="2761.020558" y1="1803.366338" x2="2586.780558" y2="1803.366338" stroke="black" stroke-width="6.48"/>
<line x1="2734.092558" y1="2119.374338" x2="2734.092558" y2="1835.046338" stroke="black" stroke-width="6.48"/>
<line x1="2734.092558" y1="1835.046338" x2="2616.084558" y2="1835.046338" stroke="black" stroke-width="6.48"/>
<line x1="2616.084558" y1="1835.046338" x2="2616.084558" y2="2124.918338" stroke="black" stroke-width="6.48"/>
<path d="m 2734.347982,2118.563766 a 63.35999941905905,63.35999941905905 0 0 1 -119.37432999999965,4.2938139999996565" fill="none" stroke="black" stroke-width="6.48"/>
<line x1="2081.101907" y1="1887.032923" x2="2056.549907" y2="1905.644923" stroke="black" stroke-width="6.48"/>
<line x1="2056.549907" y1="1905.644923" x2="2056.549907" y2="2052.956923" stroke="black" stroke-width="6.48"/>
<line x1="2056.549907" y1="2052.956923" x2="2084.665907" y2="2071.964923" stroke="black" stroke-width="6.48"/>
<line x1="2083.873907" y1="1908.812923" x2="2083.873907" y2="2051.768923" stroke="black" stroke-width="6.48"/>
<circle cx="2105.653907" cy="1978.112923" r="13.068000000000003" fill="none" stroke="black" stroke-width="6.48"/>
<path d="m 2083.20656,1910.366176 a 74.8440004285373,74.8440004285373 0 1 1 0.40204799999992247,139.6090039999999" fill="none" stroke="black" stroke-width="6.48"/>
<path d="m 2080.444543,1887.079226 a 95.4359993186022,95.4359993186022 0 1 1 3.0749580000001515,184.46699599999988" fill="none" stroke="black" stroke-width="6.48"/>
<line x1="867.113032" y1="211.025693" x2="1260.356904" y2="211.025693" stroke="black" stroke-width="6.48"/>
<line x1="1264.31231" y1="210.029411" x2="1264.31231" y2="346.098186" stroke="black" stroke-width="6.48"/>
<line x1="867.577421" y1="347.249693" x2="1264.617652" y2="347.249693" stroke="black" stroke-width="6.48"/>
<line x1="868.31231" y1="211.720442" x2="868.31231" y2="346.984499" stroke="black" stroke-width="6.48"/>
<line x1="878.60831" y1="222.113693" x2="1002.16031" y2="222.113693" stroke="black" stroke-width="6.48"/>
<line x1="1002.16031" y1="222.113693" x2="1002.16031" y2="336.161693" stroke="black" stroke-width="6.48"/>
<line x1="878.60831" y1="336.161693" x2="1002.16031" y2="336.161693" stroke="black" stroke-width="6.48"/>
<line x1="878.60831" y1="222.113693" x2="878.60831" y2="336.161693" stroke="black" stroke-width="6.48"/>
<line x1="1021.16831" y1="229.241693" x2="1108.28831" y2="229.241693" stroke="black" stroke-width="6.48"/>
<line x1="1021.16831" y1="249.041693" x2="1108.28831" y2="249.041693" stroke="black" stroke-width="6.48"/>
<line x1="1021.96031" y1="269.633693" x2="1108.28831" y2="269.633693" stroke="black" stroke-width="6.48"/>
<line x1="1021.96031" y1="289.433693" x2="1108.28831" y2="289.433693" stroke="black" stroke-width="6.48"/>
<line x1="1021.16831" y1="309.233693" x2="1108.28831" y2="309.233693" stroke="black" stroke-width="6.48"/>
<line x1="1021.16831" y1="329.033693" x2="1108.28831" y2="329.033693" stroke="black" stroke-width="6.48"/>
<line x1="926.12831" y1="335.369693" x2="926.12831" y2="321.905693" stroke="black" stroke-width="6.48"/>
<line x1="926.12831" y1="321.905693" x2="956.22431" y2="321.905693" stroke="black" stroke-width="6.48"/>
<line x1="956.22431" y1="321.905693" x2="956.22431" y2="334.577693" stroke="black" stroke-width="6.48"/>
<line x1="1128.88031" y1="222.113693" x2="1252.43231" y2="222.113693" stroke="black" stroke-width="6.48"/>
<line x1="1252.43231" y1="222.113693" x2="1252.43231" y2="336.161693" stroke="black" stroke-width="6.48"/>
<line x1="1128.88031" y1="336.161693" x2="1252.43231" y2="336.161693" stroke="black" stroke-width="6.48"/>
<line x1="1128.88031" y1="222.113693" x2="1128.88031" y2="336.161693" stroke="black" stroke-width="6.48"/>
<line x1="1176.40031" y1="336.161693" x2="1176.40031" y2="322.697693" stroke="black" stroke-width="6.48"/>
<line x1="1176.40031" y1="322.697693" x2="1206.49631" y2="322.697693" stroke="black" stroke-width="6.48"/>
<line x1="1206.49631" y1="322.697693" x2="1206.49631" y2="335.369693" stroke="black" stroke-width="6.48"/>
<circle cx="987.90431" cy="236.369693" r="7.128000000000001" fill="none" stroke="black" stroke-width="6.48"/>
<circle cx="1238.17631" cy="237.161693" r="7.128000000000001" fill="none" stroke="black" stroke-width="6.48"/>
<line x1="1216.809047" y1="1209.280986" x2="1198.423501" y2="1340.100947" stroke="black" stroke-width="6.48"/>
<line x1="1198.423501" y1="1340.100947" x2="1184.306238" y2="1338.116893" stroke="black" stroke-width="6.48"/>
<line x1="1202.691787" y1="1207.296936" x2="1184.306238" y2="1338.116893" stroke="black" stroke-width="6.48"/>
<line x1="1216.809047" y1="1209.280986" x2="1202.691787" y2="1207.296936" stroke="black" stroke-width="6.48"/>
<line x1="1200.840001" y1="1220.473048" x2="1170.046566" y2="1214.225831" stroke="black" stroke-width="6.48"/>
<line x1="1186.15802" y1="1324.940782" x2="1153.894356" y2="1322.3259" stroke="black" stroke-width="6.48"/>
<line x1="760.350924" y1="1145.129983" x2="741.965375" y2="1275.94994" stroke="black" stroke-width="6.48"/>
<line x1="741.965375" y1="1275.94994" x2="755.141486" y2="1277.801723" stroke="black" stroke-width="6.48"/>
<line x1="773.527036" y1="1146.981766" x2="755.141486" y2="1277.801723" stroke="black" stroke-width="6.48"/>
<line x1="760.350924" y1="1145.129983" x2="773.527036" y2="1146.981766" stroke="black" stroke-width="6.48"/>
<line x1="773.689824" y1="1159.481264" x2="805.012337" y2="1161.963878" stroke="black" stroke-width="6.48"/>
<line x1="759.007843" y1="1263.949002" x2="790.610159" y2="1271.269634" stroke="black" stroke-width="6.48"/>
<line x1="1012.853959" y1="1479.096151" x2="1014.838009" y2="1464.978888" stroke="black" stroke-width="6.48"/>
<line x1="1014.838009" y1="1464.978888" x2="884.018052" y2="1446.593342" stroke="black" stroke-width="6.48"/>
<line x1="882.034002" y1="1460.710602" x2="884.018052" y2="1446.593342" stroke="black" stroke-width="6.48"/>
<line x1="1012.853959" y1="1479.096151" x2="882.034002" y2="1460.710602" stroke="black" stroke-width="6.48"/>
<line x1="898.135315" y1="1448.577392" x2="899.809049" y2="1416.181457" stroke="black" stroke-width="6.48"/>
<line x1="1001.661898" y1="1463.127106" x2="1008.041382" y2="1431.392522" stroke="black" stroke-width="6.48"/>
<line x1="1077.813842" y1="1023.711444" x2="1075.829792" y2="1037.828704" stroke="black" stroke-width="6.48"/>
<line x1="1075.829792" y1="1037.828704" x2="945.009835" y2="1019.443162" stroke="black" stroke-width="6.48"/>
<line x1="946.993889" y1="1005.325902" x2="945.009835" y2="1019.443162" stroke="black" stroke-width="6.48"/>
<line x1="1077.813842" y1="1023.711444" x2="946.993889" y2="1005.325902" stroke="black" stroke-width="6.48"/>
<line x1="959.127098" y1="1021.427212" x2="951.806462" y2="1053.029531" stroke="black" stroke-width="6.48"/>
<line x1="1062.653684" y1="1035.976925" x2="1060.038799" y2="1068.240589" stroke="black" stroke-width="6.48"/>
<circle cx="979.923924" cy="1242.211025" r="191.98080000000002" fill="none" stroke="black" stroke-width="6.48"/>
<line x1="2044.889399" y1="955.822399" x2="2267.166564" y2="955.822399" stroke="black" stroke-width="6.48"/>
<line x1="2267.166564" y1="955.822399" x2="2267.166564" y2="1178.555051" stroke="black" stroke-width="6.48"/>
<line x1="2267.166564" y1="1178.555051" x2="2044.889399" y2="1178.555051" stroke="black" stroke-width="6.48"/>
<line x1="2044.889399" y1="1178.555051" x2="2044.889399" y2="955.822399" stroke="black" stroke-width="6.48"/>
<line x1="2044.433912" y1="955.366913" x2="2267.166564" y2="1178.555051" stroke="black" stroke-width="6.48"/>
<line x1="2044.889399" y1="1178.099564" x2="2266.711078" y2="955.822399" stroke="black" stroke-width="6.48"/>
<line x1="323.258818" y1="1375.374532" x2="323.258818" y2="949.841089" stroke="black" stroke-width="6.48"/>
<line x1="323.258818" y1="949.841089" x2="257.659344" y2="949.841089" stroke="black" stroke-width="6.48"/>
<line x1="257.659344" y1="949.841089" x2="257.659344" y2="1375.374532" stroke="black" stroke-width="6.48"/>
<line x1="257.659344" y1="1375.374532" x2="323.258818" y2="1375.374532" stroke="black" stroke-width="6.48"/>
<line x1="258.522494" y1="1335.669588" x2="322.395667" y2="1335.669588" stroke="black" stroke-width="6.48"/>
<line x1="258.522494" y1="990.409187" x2="324.985122" y2="990.409187" stroke="black" stroke-width="6.48"/>
<line x1="288.73278" y1="1336.532738" x2="288.73278" y2="991.272337" stroke="black" stroke-width="6.48"/>
<line x1="3874.406537" y1="1514.726719" x2="3874.406537" y2="1940.260162" stroke="black" stroke-width="6.48"/>
<line x1="3874.406537" y1="1940.260162" x2="3940.00601" y2="1940.260162" stroke="black" stroke-width="6.48"/>
<line x1="3940.00601" y1="1940.260162" x2="3940.00601" y2="1514.726719" stroke="black" stroke-width="6.48"/>
<line x1="3940.00601" y1="1514.726719" x2="3874.406537" y2="1514.726719" stroke="black" stroke-width="6.48"/>
<line x1="3939.14286" y1="1554.431663" x2="3875.269687" y2="1554.431663" stroke="black" stroke-width="6.48"/>
<line x1="3939.14286" y1="1899.692064" x2="3872.680232" y2="1899.692064" stroke="black" stroke-width="6.48"/>
<line x1="3908.932574" y1="1553.568512" x2="3908.932574" y2="1898.828914" stroke="black" stroke-width="6.48"/>
<line x1="4912.570559" y1="1249.09771" x2="4565.720491" y2="1433.521163" stroke="black" stroke-width="6.48"/>
<line x1="4565.720491" y1="1433.521163" x2="4652.354894" y2="1596.456781" stroke="black" stroke-width="6.48"/>
<line x1="4652.354894" y1="1596.456781" x2="4999.204962" y2="1412.033328" stroke="black" stroke-width="6.48"/>
<line x1="4999.204962" y1="1412.033328" x2="4912.570559" y2="1249.09771" stroke="black" stroke-width="6.48"/>
<line x1="4858.646771" y1="1486.769443" x2="4896.572562" y2="1558.097482" stroke="black" stroke-width="6.48"/>
<line x1="4896.572562" y1="1558.097482" x2="4965.802715" y2="1521.287158" stroke="black" stroke-width="6.48"/>
<line x1="4965.802715" y1="1521.287158" x2="4927.876924" y2="1449.959119" stroke="black" stroke-width="6.48"/>
<line x1="4956.923351" y1="1506.274499" x2="4888.392491" y2="1542.713004" stroke="black" stroke-width="6.48"/>
<line x1="4802.944907" y1="1214.99617" x2="4733.714754" y2="1251.806497" stroke="black" stroke-width="6.48"/>
<line x1="4733.714754" y1="1251.806497" x2="4772.012368" y2="1323.833828" stroke="black" stroke-width="6.48"/>
<line x1="4841.24252" y1="1287.023501" x2="4802.944907" y2="1214.99617" stroke="black" stroke-width="6.48"/>
<line x1="4810.425689" y1="1230.752466" x2="4741.894829" y2="1267.190971" stroke="black" stroke-width="6.48"/>
<line x1="4725.081522" y1="1557.787349" x2="4763.007313" y2="1629.115384" stroke="black" stroke-width="6.48"/>
<line x1="4763.007313" y1="1629.115384" x2="4832.23747" y2="1592.305056" stroke="black" stroke-width="6.48"/>
<line x1="4832.23747" y1="1592.305056" x2="4794.311678" y2="1520.977021" stroke="black" stroke-width="6.48"/>
<line x1="4824.057395" y1="1576.920578" x2="4754.827242" y2="1613.730906" stroke="black" stroke-width="6.48"/>
<line x1="4669.379662" y1="1286.014068" x2="4600.149505" y2="1322.824396" stroke="black" stroke-width="6.48"/>
<line x1="4600.149505" y1="1322.824396" x2="4638.447119" y2="1394.85173" stroke="black" stroke-width="6.48"/>
<line x1="4707.677272" y1="1358.041403" x2="4669.379662" y2="1286.014068" stroke="black" stroke-width="6.48"/>
<line x1="4677.559733" y1="1301.398549" x2="4608.32958" y2="1338.208877" stroke="black" stroke-width="6.48"/>
<line x1="3399.595585" y1="1075.2912" x2="3608.960789" y2="1075.2912" stroke="black" stroke-width="6.48"/>
<line x1="3608.960789" y1="1075.2912" x2="3608.960789" y2="744.076796" stroke="black" stroke-width="6.48"/>
<line x1="3608.960789" y1="744.076796" x2="3399.595585" y2="744.076796" stroke="black" stroke-width="6.48"/>
<line x1="3399.595585" y1="744.076796" x2="3399.595585" y2="1075.2912" stroke="black" stroke-width="6.48"/>
<line x1="3398.922385" y1="803.318396" x2="3609.633985" y2="803.318396" stroke="black" stroke-width="6.48"/>
<line x1="3609.633985" y1="803.318396" x2="3400.268785" y2="853.1352" stroke="black" stroke-width="6.48"/>
<line x1="3400.268785" y1="853.1352" x2="3431.909189" y2="899.586" stroke="black" stroke-width="6.48"/>
<line x1="3431.909189" y1="899.586" x2="3609.633985" y2="802.6452" stroke="black" stroke-width="6.48"/>
<line x1="3479.77004" y1="1202.851598" x2="3702.047206" y2="1202.851598" stroke="black" stroke-width="6.48"/>
<line x1="3702.047206" y1="1202.851598" x2="3702.047206" y2="1425.58425" stroke="black" stroke-width="6.48"/>
<line x1="3702.047206" y1="1425.58425" x2="3479.77004" y2="1425.58425" stroke="black" stroke-width="6.48"/>
<line x1="3479.77004" y1="1425.58425" x2="3479.77004" y2="1202.851598" stroke="black" stroke-width="6.48"/>
<line x1="3479.314554" y1="1202.396112" x2="3702.047206" y2="1425.58425" stroke="black" stroke-width="6.48"/>
<line x1="3479.77004" y1="1425.128764" x2="3701.591719" y2="1202.851598" stroke="black" stroke-width="6.48"/>
<line x1="2804.16708" y1="1127.69402" x2="2804.16708" y2="1153.148746" stroke="black" stroke-width="6.48"/>
<line x1="2804.16708" y1="1153.148746" x2="2853.834836" y2="1153.148746" stroke="black" stroke-width="6.48"/>
<line x1="2853.834836" y1="1153.148746" x2="2853.834836" y2="1127.69402" stroke="black" stroke-width="6.48"/>
<line x1="2853.834836" y1="1127.69402" x2="2804.16708" y2="1127.69402" stroke="black" stroke-width="6.48"/>
<line x1="2853.834836" y1="1402.108373" x2="3101.55277" y2="1402.108373" stroke="black" stroke-width="6.48"/>
<line x1="2802.925386" y1="1402.729218" x2="2802.925386" y2="1428.183943" stroke="black" stroke-width="6.48"/>
<line x1="2802.925386" y1="1428.183943" x2="2852.593142" y2="1428.183943" stroke="black" stroke-width="6.48"/>
<line x1="2852.593142" y1="1428.183943" x2="2852.593142" y2="1402.729218" stroke="black" stroke-width="6.48"/>
<line x1="2852.593142" y1="1402.729218" x2="2802.925386" y2="1402.729218" stroke="black" stroke-width="6.48"/>
<path d="m 2851.972294,1153.148746 a 248.95962699999984,248.95962699999984 0 0 1 248.95962699999973,248.95962699999995" fill="none" stroke="black" stroke-width="6.48"/>
<line x1="3458.459293" y1="1938.688718" x2="3410.245073" y2="1711.858637" stroke="black" stroke-width="6.48"/>
<line x1="3410.245073" y1="1711.858637" x2="3637.539968" y2="1663.545614" stroke="black" stroke-width="6.48"/>
<line x1="3637.539968" y1="1663.545614" x2="3685.754192" y2="1890.375696" stroke="black" stroke-width="6.48"/>
<line x1="3685.754192" y1="1890.375696" x2="3458.459293" y2="1938.688718" stroke="black" stroke-width="6.48"/>
<line x1="3458.093278" y1="1939.252334" x2="3637.539968" y2="1663.545614" stroke="black" stroke-width="6.48"/>
<line x1="3685.289375" y1="1890.474494" x2="3410.343871" y2="1712.323451" stroke="black" stroke-width="6.48"/>
<line x1="3079.021345" y1="1589.315879" x2="3065.967511" y2="1617.309914" stroke="black" stroke-width="6.48"/>
<line x1="3065.967511" y1="1617.309914" x2="3255.896275" y2="1705.875149" stroke="black" stroke-width="6.48"/>
<line x1="3255.896275" y1="1705.875149" x2="3268.950106" y2="1677.881113" stroke="black" stroke-width="6.48"/>
<line x1="3268.950106" y1="1677.881113" x2="3079.021345" y2="1589.315879" stroke="black" stroke-width="6.48"/>
<line x1="2992.866048" y1="1774.076508" x2="2979.812214" y2="1802.07054" stroke="black" stroke-width="6.48"/>
<line x1="2979.812214" y1="1802.07054" x2="3169.740974" y2="1890.635778" stroke="black" stroke-width="6.48"/>
<line x1="3169.740974" y1="1890.635778" x2="3182.794808" y2="1862.641742" stroke="black" stroke-width="6.48"/>
<line x1="3182.794808" y1="1862.641742" x2="2992.866048" y2="1774.076508" stroke="black" stroke-width="6.48"/>
<line x1="3066.168341" y1="1616.879236" x2="2992.866048" y2="1774.076508" stroke="black" stroke-width="6.48"/>
<line x1="3255.436573" y1="1704.612139" x2="3267.877457" y2="1739.775629" stroke="black" stroke-width="6.48"/>
<line x1="3216.666265" y1="1849.598377" x2="3181.732628" y2="1862.670766" stroke="black" stroke-width="6.48"/>
<line x1="3268.680768" y1="1738.052917" x2="3215.86295" y2="1851.321089" stroke="black" stroke-width="6.48"/>
<line x1="3106.451192" y1="1636.187764" x2="3033.1489" y2="1793.38504" stroke="black" stroke-width="6.48"/>
<line x1="2282.118188" y1="2041.224937" x2="2512.745424" y2="2065.464893" stroke="black" stroke-width="6.48"/>
<line x1="2512.745424" y1="2065.464893" x2="2488.455796" y2="2296.564726" stroke="black" stroke-width="6.48"/>
<line x1="2488.455796" y1="2296.564726" x2="2257.82856" y2="2272.324766" stroke="black" stroke-width="6.48"/>
<line x1="2257.82856" y1="2272.324766" x2="2282.118188" y2="2041.224937" stroke="black" stroke-width="6.48"/>
<line x1="2281.695264" y1="2040.702667" x2="2488.455796" y2="2296.564726" stroke="black" stroke-width="6.48"/>
<line x1="2257.878233" y1="2271.852169" x2="2512.272827" y2="2065.41522" stroke="black" stroke-width="6.48"/>
<line x1="1162.813388" y1="1622.970738" x2="1009.03541" y2="1734.696922" stroke="black" stroke-width="6.48"/>
<line x1="1009.03541" y1="1734.696922" x2="1281.647293" y2="2109.915184" stroke="black" stroke-width="6.48"/>
<line x1="1281.647293" y1="2109.915184" x2="1435.425271" y2="1998.189004" stroke="black" stroke-width="6.48"/>
<line x1="1435.425271" y1="1998.189004" x2="1421.4595" y2="1978.966757" stroke="black" stroke-width="6.48"/>
<line x1="1421.4595" y1="1978.966757" x2="1286.13488" y2="2077.285795" stroke="black" stroke-width="6.48"/>
<line x1="1286.13488" y1="2077.285795" x2="1042.013171" y2="1741.280915" stroke="black" stroke-width="6.48"/>
<line x1="1042.013171" y1="1741.280915" x2="1177.33779" y2="1642.961876" stroke="black" stroke-width="6.48"/>
<line x1="1177.33779" y1="1642.961876" x2="1162.813388" y2="1622.970738" stroke="black" stroke-width="6.48"/>
<line x1="1172.724451" y1="1646.313664" x2="1416.846161" y2="1982.318544" stroke="black" stroke-width="6.48"/>
<line x1="1295.274881" y1="1813.373024" x2="1164.5636" y2="1908.340283" stroke="black" stroke-width="6.48"/>
<line x1="6037.549628" y1="1556.171654" x2="5850.357372" y2="1589.178697" stroke="black" stroke-width="6.48"/>
<line x1="5850.357372" y1="1589.178697" x2="5930.894563" y2="2045.927808" stroke="black" stroke-width="6.48"/>
<line x1="5930.894563" y1="2045.927808" x2="6118.086823" y2="2012.920765" stroke="black" stroke-width="6.48"/>
<line x1="6118.086823" y1="2012.920765" x2="6113.960942" y2="1989.52173" stroke="black" stroke-width="6.48"/>
<line x1="6113.960942" y1="1989.52173" x2="5949.231754" y2="2018.56793" stroke="black" stroke-width="6.48"/>
<line x1="5949.231754" y1="2018.56793" x2="5877.111359" y2="1609.552847" stroke="black" stroke-width="6.48"/>
<line x1="5877.111359" y1="1609.552847" x2="6041.840548" y2="1580.506646" stroke="black" stroke-width="6.48"/>
<line x1="6041.840548" y1="1580.506646" x2="6037.549628" y2="1556.171654" stroke="black" stroke-width="6.48"/>
<line x1="6036.224778" y1="1581.496862" x2="6108.345173" y2="1990.511942" stroke="black" stroke-width="6.48"/>
<line x1="6073.138418" y1="1785.371386" x2="5914.024999" y2="1813.427374" stroke="black" stroke-width="6.48"/>
<line x1="2915.400532" y1="2001.610303" x2="2844.195386" y2="2177.849441" stroke="black" stroke-width="6.48"/>
<line x1="2844.195386" y1="2177.849441" x2="3274.218882" y2="2351.589991" stroke="black" stroke-width="6.48"/>
<line x1="3274.218882" y1="2351.589991" x2="3345.424027" y2="2175.350854" stroke="black" stroke-width="6.48"/>
<line x1="3345.424027" y1="2175.350854" x2="3323.394137" y2="2166.45021" stroke="black" stroke-width="6.48"/>
<line x1="3323.394137" y1="2166.45021" x2="3260.73361" y2="2321.540654" stroke="black" stroke-width="6.48"/>
<line x1="3260.73361" y1="2321.540654" x2="2875.651092" y2="2165.957413" stroke="black" stroke-width="6.48"/>
<line x1="2875.651092" y1="2165.957413" x2="2938.311619" y2="2010.866972" stroke="black" stroke-width="6.48"/>
<line x1="2938.311619" y1="2010.866972" x2="2915.400532" y2="2001.610303" stroke="black" stroke-width="6.48"/>
<line x1="2936.175466" y1="2016.154145" x2="3321.257983" y2="2171.737386" stroke="black" stroke-width="6.48"/>
<line x1="3128.63215" y1="2092.886557" x2="3068.10778" y2="2242.689826" stroke="black" stroke-width="6.48"/>
<line x1="6239.521386" y1="2208.816014" x2="6290.104352" y2="2411.693204" stroke="black" stroke-width="6.48"/>
<line x1="6290.104352" y1="2411.693204" x2="6515.113604" y2="2355.5921" stroke="black" stroke-width="6.48"/>
<line x1="6515.113604" y1="2355.5921" x2="6464.530638" y2="2152.714907" stroke="black" stroke-width="6.48"/>
<line x1="6464.530638" y1="2152.714907" x2="6239.521386" y2="2208.816014" stroke="black" stroke-width="6.48"/>
<line x1="6270.875132" y1="2200.998643" x2="6321.458099" y2="2403.87584" stroke="black" stroke-width="6.48"/>
</g>
</svg>
