<?xml version="1.0"?>
<svg xmlns:xlink="http://www.w3.org/1999/xlink" width="6775.2" height="2858.4">
<image x="0" y="0" width="6775.2" height="2858.4" xlink:href="groundfilled-01.png"/>
<g style="stroke-linecap:round">
<line x1="1285.950406" y1="795.178109" x2="1311.346069" y2="795.178109" stroke="black" stroke-width="6.48"/>
<line x1="1311.346069" y1="795.178109" x2="1311.346069" y2="745.625592" stroke="black" stroke-width="6.48"/>
<line x1="1311.346069" y1="745.625592" x2="1285.950406" y2="745.625592" stroke="black" stroke-width="6.48"/>
<line x1="1285.950406" y1="745.625592" x2="1285.950406" y2="795.178109" stroke="black" stroke-width="6.48"/>
<line x1="1559.728062" y1="745.625592" x2="1559.728062" y2="498.48241" stroke="black" stroke-width="6.48"/>
<line x1="1560.347471" y1="796.416923" x2="1585.743134" y2="796.416923" stroke="black" stroke-width="6.48"/>
<line x1="1585.743134" y1="796.416923" x2="1585.743134" y2="746.864406" stroke="black" stroke-width="6.48"/>
<line x1="1585.743134" y1="746.864406" x2="1560.347471" y2="746.864406" stroke="black" stroke-width="6.48"/>
<line x1="1560.347471" y1="746.864406" x2="1560.347471" y2="796.416923" stroke="black" stroke-width="6.48"/>
<path d="m 1311.346069,747.483811 a 248.38199299999997,248.38199299999997 0 0 1 248.38199299999997,-248.38199299999997" fill="none" stroke="black" stroke-width="6.48"/>
<line x1="330.523178" y1="771.328966" x2="330.523178" y2="366.748985" stroke="black" stroke-width="6.48"/>
<line x1="330.523178" y1="366.748985" x2="258.15928" y2="366.748985" stroke="black" stroke-width="6.48"/>
<line x1="258.15928" y1="366.748985" x2="258.15928" y2="771.328966" stroke="black" stroke-width="6.48"/>
<line x1="258.15928" y1="771.328966" x2="330.523178" y2="771.328966" stroke="black" stroke-width="6.48"/>
<line x1="330.523178" y1="752.415674" x2="355.19269" y2="752.415674" stroke="black" stroke-width="6.48"/>
<line x1="355.19269" y1="752.415674" x2="355.19269" y2="386.484595" stroke="black" stroke-width="6.48"/>
<line x1="330.523178" y1="386.484595" x2="355.19269" y2="386.484595" stroke="black" stroke-width="6.48"/>
<line x1="3901.945176" y1="1169.331426" x2="3901.945176" y2="1428.837066" stroke="black" stroke-width="6.48"/>
<line x1="3901.945176" y1="1428.837066" x2="3941.9501" y2="1428.837066" stroke="black" stroke-width="6.48"/>
<line x1="3941.9501" y1="1428.837066" x2="3941.9501" y2="1169.331426" stroke="black" stroke-width="6.48"/>
<line x1="3941.9501" y1="1169.331426" x2="3901.945176" y2="1169.331426" stroke="black" stroke-width="6.48"/>
<line x1="3941.423719" y1="1193.544936" x2="3902.471557" y2="1193.544936" stroke="black" stroke-width="6.48"/>
<line x1="3941.423719" y1="1404.097178" x2="3900.892414" y2="1404.097178" stroke="black" stroke-width="6.48"/>
<line x1="3923.000399" y1="1193.018555" x2="3923.000399" y2="1403.570797" stroke="black" stroke-width="6.48"/>
<line x1="323.923298" y1="1882.957399" x2="323.923298" y2="1457.423957" stroke="black" stroke-width="6.48"/>
<line x1="323.923298" y1="1457.423957" x2="258.323825" y2="1457.423957" stroke="black" stroke-width="6.48"/>
<line x1="258.323825" y1="1457.423957" x2="258.323825" y2="1882.957399" stroke="black" stroke-width="6.48"/>
<line x1="258.323825" y1="1882.957399" x2="323.923298" y2="1882.957399" stroke="black" stroke-width="6.48"/>
<line x1="259.186975" y1="1843.252456" x2="323.060148" y2="1843.252456" stroke="black" stroke-width="6.48"/>
<line x1="259.186975" y1="1497.992054" x2="325.649603" y2="1497.992054" stroke="black" stroke-width="6.48"/>
<line x1="289.397261" y1="1844.115606" x2="289.397261" y2="1498.855205" stroke="black" stroke-width="6.48"/>
<line x1="2747.905531" y1="904.670665" x2="2721.68303" y2="904.670665" stroke="black" stroke-width="6.48"/>
<line x1="2721.68303" y1="904.670665" x2="2721.68303" y2="955.836522" stroke="black" stroke-width="6.48"/>
<line x1="2721.68303" y1="955.836522" x2="2747.905531" y2="955.836522" stroke="black" stroke-width="6.48"/>
<line x1="2747.905531" y1="955.836522" x2="2747.905531" y2="904.670665" stroke="black" stroke-width="6.48"/>
<line x1="2465.214181" y1="955.836522" x2="2465.214181" y2="1211.026223" stroke="black" stroke-width="6.48"/>
<line x1="2464.574609" y1="903.39152" x2="2438.352108" y2="903.39152" stroke="black" stroke-width="6.48"/>
<line x1="2438.352108" y1="903.39152" x2="2438.352108" y2="954.557374" stroke="black" stroke-width="6.48"/>
<line x1="2438.352108" y1="954.557374" x2="2464.574609" y2="954.557374" stroke="black" stroke-width="6.48"/>
<line x1="2464.574609" y1="954.557374" x2="2464.574609" y2="903.39152" stroke="black" stroke-width="6.48"/>
<path d="m 2721.68303,953.917801 a 256.4688490000001,256.4688490000001 0 0 1 -256.4688490000003,256.46884899999986" fill="none" stroke="black" stroke-width="6.48"/>
<line x1="2420.532389" y1="1427.858834" x2="2395.136725" y2="1427.858834" stroke="black" stroke-width="6.48"/>
<line x1="2395.136725" y1="1427.858834" x2="2395.136725" y2="1477.411351" stroke="black" stroke-width="6.48"/>
<line x1="2395.136725" y1="1477.411351" x2="2420.532389" y2="1477.411351" stroke="black" stroke-width="6.48"/>
<line x1="2420.532389" y1="1477.411351" x2="2420.532389" y2="1427.858834" stroke="black" stroke-width="6.48"/>
<line x1="2146.754732" y1="1477.411351" x2="2146.754732" y2="1724.554534" stroke="black" stroke-width="6.48"/>
<line x1="2146.135324" y1="1426.62002" x2="2120.73966" y2="1426.62002" stroke="black" stroke-width="6.48"/>
<line x1="2120.73966" y1="1426.62002" x2="2120.73966" y2="1476.172537" stroke="black" stroke-width="6.48"/>
<line x1="2120.73966" y1="1476.172537" x2="2146.135324" y2="1476.172537" stroke="black" stroke-width="6.48"/>
<line x1="2146.135324" y1="1476.172537" x2="2146.135324" y2="1426.62002" stroke="black" stroke-width="6.48"/>
<path d="m 2395.136725,1475.553132 a 248.38199299999997,248.38199299999997 0 0 1 -248.38199299999997,248.38199299999997" fill="none" stroke="black" stroke-width="6.48"/>
<line x1="773.70588" y1="692.136151" x2="1166.53788" y2="692.136151" stroke="black" stroke-width="6.48"/>
<line x1="1166.53788" y1="692.136151" x2="1166.53788" y2="507.600151" stroke="black" stroke-width="6.48"/>
<line x1="1166.53788" y1="507.600151" x2="773.70588" y2="507.600151" stroke="black" stroke-width="6.48"/>
<line x1="773.70588" y1="507.600151" x2="773.70588" y2="692.136151" stroke="black" stroke-width="6.48"/>
<line x1="932.89788" y1="507.600151" x2="932.89788" y2="426.816151" stroke="black" stroke-width="6.48"/>
<line x1="932.89788" y1="426.816151" x2="854.48988" y2="426.816151" stroke="black" stroke-width="6.48"/>
<line x1="854.48988" y1="426.816151" x2="854.48988" y2="507.600151" stroke="black" stroke-width="6.48"/>
<line x1="855.28188" y1="444.240151" x2="932.89788" y2="444.240151" stroke="black" stroke-width="6.48"/>
<line x1="854.48988" y1="773.712151" x2="932.89788" y2="773.712151" stroke="black" stroke-width="6.48"/>
<line x1="932.89788" y1="773.712151" x2="932.89788" y2="692.136151" stroke="black" stroke-width="6.48"/>
<line x1="854.48988" y1="692.136151" x2="854.48988" y2="773.712151" stroke="black" stroke-width="6.48"/>
<line x1="855.28188" y1="756.288151" x2="932.89788" y2="756.288151" stroke="black" stroke-width="6.48"/>
<line x1="1084.16988" y1="507.600151" x2="1084.16988" y2="426.816151" stroke="black" stroke-width="6.48"/>
<line x1="1084.16988" y1="426.816151" x2="1005.76188" y2="426.816151" stroke="black" stroke-width="6.48"/>
<line x1="1005.76188" y1="426.816151" x2="1005.76188" y2="507.600151" stroke="black" stroke-width="6.48"/>
<line x1="1005.76188" y1="444.240151" x2="1084.16988" y2="444.240151" stroke="black" stroke-width="6.48"/>
<line x1="1005.76188" y1="773.712151" x2="1084.16988" y2="773.712151" stroke="black" stroke-width="6.48"/>
<line x1="1084.16988" y1="773.712151" x2="1084.16988" y2="692.136151" stroke="black" stroke-width="6.48"/>
<line x1="1005.76188" y1="692.136151" x2="1005.76188" y2="773.712151" stroke="black" stroke-width="6.48"/>
<line x1="1005.76188" y1="756.288151" x2="1084.16988" y2="756.288151" stroke="black" stroke-width="6.48"/>
<line x1="2032.924367" y1="1853.593967" x2="2032.924367" y2="1822.705967" stroke="black" stroke-width="6.48"/>
<line x1="2032.924367" y1="1822.705967" x2="1823.361167" y2="1822.705967" stroke="black" stroke-width="6.48"/>
<line x1="1823.361167" y1="1822.705967" x2="1823.361167" y2="1853.593967" stroke="black" stroke-width="6.48"/>
<line x1="1823.361167" y1="1853.593967" x2="2032.924367" y2="1853.593967" stroke="black" stroke-width="6.48"/>
<line x1="2032.924367" y1="1649.733167" x2="2032.924367" y2="1618.845167" stroke="black" stroke-width="6.48"/>
<line x1="2032.924367" y1="1618.845167" x2="1823.361167" y2="1618.845167" stroke="black" stroke-width="6.48"/>
<line x1="1823.361167" y1="1618.845167" x2="1823.361167" y2="1649.733167" stroke="black" stroke-width="6.48"/>
<line x1="1823.361167" y1="1649.733167" x2="2032.924367" y2="1649.733167" stroke="black" stroke-width="6.48"/>
<line x1="2032.924367" y1="1823.181167" x2="2032.924367" y2="1649.733167" stroke="black" stroke-width="6.48"/>
<line x1="1824.311567" y1="1823.656367" x2="1798.175567" y2="1797.045167" stroke="black" stroke-width="6.48"/>
<line x1="1798.175567" y1="1675.869167" x2="1824.311567" y2="1649.257967" stroke="black" stroke-width="6.48"/>
<line x1="1798.175567" y1="1798.945967" x2="1798.175567" y2="1673.968367" stroke="black" stroke-width="6.48"/>
<line x1="1988.255567" y1="1822.705967" x2="1988.255567" y2="1649.257967" stroke="black" stroke-width="6.48"/>
<line x1="1485.415969" y1="209.267824" x2="1707.693134" y2="209.267824" stroke="black" stroke-width="6.48"/>
<line x1="1707.693134" y1="209.267824" x2="1707.693134" y2="432.000475" stroke="black" stroke-width="6.48"/>
<line x1="1707.693134" y1="432.000475" x2="1485.415969" y2="432.000475" stroke="black" stroke-width="6.48"/>
<line x1="1485.415969" y1="432.000475" x2="1485.415969" y2="209.267824" stroke="black" stroke-width="6.48"/>
<line x1="1484.960483" y1="208.812337" x2="1707.693134" y2="432.000475" stroke="black" stroke-width="6.48"/>
<line x1="1485.415969" y1="431.544989" x2="1707.237648" y2="209.267824" stroke="black" stroke-width="6.48"/>
<line x1="2586.780558" y1="1803.366338" x2="2586.780558" y2="2194.614338" stroke="black" stroke-width="6.48"/>
<line x1="2586.780558" y1="2194.614338" x2="2761.020558" y2="2194.614338" stroke="black" stroke-width="6.48"/>
<line x1="2761.020558" y1="2194.614338" x2="2761.020558" y2="1803.366338" stroke="black" stroke-width="6.48"/>
<line x1="2761.020558" y1="1803.366338" x2="2586.780558" y2="1803.366338" stroke="black" stroke-width="6.48"/>
<line x1="2734.092558" y1="2119.374338" x2="2734.092558" y2="1835.046338" stroke="black" stroke-width="6.48"/>
<line x1="2734.092558" y1="1835.046338" x2="2616.084558" y2="1835.046338" stroke="black" stroke-width="6.48"/>
<line x1="2616.084558" y1="1835.046338" x2="2616.084558" y2="2124.918338" stroke="black" stroke-width="6.48"/>
<path d="m 2734.347982,2118.563766 a 63.35999941905905,63.35999941905905 0 0 1 -119.37432999999965,4.2938139999996565" fill="none" stroke="black" stroke-width="6.48"/>
<line x1="2081.339039" y1="1916.911544" x2="2056.787039" y2="1935.523544" stroke="black" stroke-width="6.48"/>
<line x1="2056.787039" y1="1935.523544" x2="2056.787039" y2="2082.835544" stroke="black" stroke-width="6.48"/>
<line x1="2056.787039" y1="2082.835544" x2="2084.903039" y2="2101.843544" stroke="black" stroke-width="6.48"/>
<line x1="2084.111039" y1="1938.691544" x2="2084.111039" y2="2081.647544" stroke="black" stroke-width="6.48"/>
<circle cx="2105.891039" cy="2007.991544" r="13.068000000000003" fill="none" stroke="black" stroke-width="6.48"/>
<path d="m 2083.443692,1940.244797 a 74.8440004285375,74.8440004285375 0 1 1 0.4020480000003772,139.60900400000014" fill="none" stroke="black" stroke-width="6.48"/>
<path d="m 2080.681675,1916.957848 a 95.43599883751705,95.43599883751705 0 1 1 3.0749580000001515,184.46699499999977" fill="none" stroke="black" stroke-width="6.48"/>
<line x1="887.391238" y1="211.075272" x2="1280.63511" y2="211.075272" stroke="black" stroke-width="6.48"/>
<line x1="1284.590516" y1="210.07899" x2="1284.590516" y2="346.147765" stroke="black" stroke-width="6.48"/>
<line x1="887.855627" y1="347.299272" x2="1284.895858" y2="347.299272" stroke="black" stroke-width="6.48"/>
<line x1="888.590516" y1="211.770022" x2="888.590516" y2="347.034078" stroke="black" stroke-width="6.48"/>
<line x1="898.886516" y1="222.163272" x2="1022.438516" y2="222.163272" stroke="black" stroke-width="6.48"/>
<line x1="1022.438516" y1="222.163272" x2="1022.438516" y2="336.211272" stroke="black" stroke-width="6.48"/>
<line x1="898.886516" y1="336.211272" x2="1022.438516" y2="336.211272" stroke="black" stroke-width="6.48"/>
<line x1="898.886516" y1="222.163272" x2="898.886516" y2="336.211272" stroke="black" stroke-width="6.48"/>
<line x1="1041.446516" y1="229.291272" x2="1128.566516" y2="229.291272" stroke="black" stroke-width="6.48"/>
<line x1="1041.446516" y1="249.091272" x2="1128.566516" y2="249.091272" stroke="black" stroke-width="6.48"/>
<line x1="1042.238516" y1="269.683272" x2="1128.566516" y2="269.683272" stroke="black" stroke-width="6.48"/>
<line x1="1042.238516" y1="289.483272" x2="1128.566516" y2="289.483272" stroke="black" stroke-width="6.48"/>
<line x1="1041.446516" y1="309.283272" x2="1128.566516" y2="309.283272" stroke="black" stroke-width="6.48"/>
<line x1="1041.446516" y1="329.083272" x2="1128.566516" y2="329.083272" stroke="black" stroke-width="6.48"/>
<line x1="946.406516" y1="335.419272" x2="946.406516" y2="321.955272" stroke="black" stroke-width="6.48"/>
<line x1="946.406516" y1="321.955272" x2="976.502516" y2="321.955272" stroke="black" stroke-width="6.48"/>
<line x1="976.502516" y1="321.955272" x2="976.502516" y2="334.627272" stroke="black" stroke-width="6.48"/>
<line x1="1149.158516" y1="222.163272" x2="1272.710516" y2="222.163272" stroke="black" stroke-width="6.48"/>
<line x1="1272.710516" y1="222.163272" x2="1272.710516" y2="336.211272" stroke="black" stroke-width="6.48"/>
<line x1="1149.158516" y1="336.211272" x2="1272.710516" y2="336.211272" stroke="black" stroke-width="6.48"/>
<line x1="1149.158516" y1="222.163272" x2="1149.158516" y2="336.211272" stroke="black" stroke-width="6.48"/>
<line x1="1196.678516" y1="336.211272" x2="1196.678516" y2="322.747272" stroke="black" stroke-width="6.48"/>
<line x1="1196.678516" y1="322.747272" x2="1226.774516" y2="322.747272" stroke="black" stroke-width="6.48"/>
<line x1="1226.774516" y1="322.747272" x2="1226.774516" y2="335.419272" stroke="black" stroke-width="6.48"/>
<circle cx="1008.182516" cy="236.419272" r="7.128000000000001" fill="none" stroke="black" stroke-width="6.48"/>
<circle cx="1258.454516" cy="237.211272" r="7.128000000000001" fill="none" stroke="black" stroke-width="6.48"/>
<line x1="771.250054" y1="1008.055321" x2="852.924416" y2="1392.302999" stroke="black" stroke-width="6.48"/>
<line x1="852.924416" y1="1392.302999" x2="1033.427866" y2="1353.935808" stroke="black" stroke-width="6.48"/>
<line x1="1033.427866" y1="1353.935808" x2="951.753496" y2="969.688127" stroke="black" stroke-width="6.48"/>
<line x1="951.753496" y1="969.688127" x2="771.250054" y2="1008.055321" stroke="black" stroke-width="6.48"/>
<line x1="984.851377" y1="1125.401404" x2="1063.870052" y2="1108.605463" stroke="black" stroke-width="6.48"/>
<line x1="1063.870052" y1="1108.605463" x2="1047.568108" y2="1031.910869" stroke="black" stroke-width="6.48"/>
<line x1="1047.568108" y1="1031.910869" x2="968.549432" y2="1048.706802" stroke="black" stroke-width="6.48"/>
<line x1="1030.689533" y1="1036.308215" x2="1046.826806" y2="1112.228118" stroke="black" stroke-width="6.48"/>
<line x1="708.25262" y1="1104.034601" x2="724.554562" y2="1180.729195" stroke="black" stroke-width="6.48"/>
<line x1="724.554562" y1="1180.729195" x2="804.347932" y2="1163.768591" stroke="black" stroke-width="6.48"/>
<line x1="788.045987" y1="1087.073996" x2="708.25262" y2="1104.034601" stroke="black" stroke-width="6.48"/>
<line x1="725.46053" y1="1101.186641" x2="741.597804" y2="1177.106544" stroke="black" stroke-width="6.48"/>
<line x1="1016.30259" y1="1273.367747" x2="1095.321265" y2="1256.571806" stroke="black" stroke-width="6.48"/>
<line x1="1095.321265" y1="1256.571806" x2="1079.019328" y2="1179.877208" stroke="black" stroke-width="6.48"/>
<line x1="1079.019328" y1="1179.877208" x2="1000.000652" y2="1196.673145" stroke="black" stroke-width="6.48"/>
<line x1="1061.976085" y1="1183.499863" x2="1078.278023" y2="1260.194461" stroke="black" stroke-width="6.48"/>
<line x1="739.703837" y1="1252.000944" x2="756.005778" y2="1328.695542" stroke="black" stroke-width="6.48"/>
<line x1="756.005778" y1="1328.695542" x2="835.799144" y2="1311.734938" stroke="black" stroke-width="6.48"/>
<line x1="819.497207" y1="1235.04034" x2="739.703837" y2="1252.000944" stroke="black" stroke-width="6.48"/>
<line x1="756.747083" y1="1248.378293" x2="773.04902" y2="1325.072887" stroke="black" stroke-width="6.48"/>
<line x1="2044.889399" y1="955.822399" x2="2267.166564" y2="955.822399" stroke="black" stroke-width="6.48"/>
<line x1="2267.166564" y1="955.822399" x2="2267.166564" y2="1178.555051" stroke="black" stroke-width="6.48"/>
<line x1="2267.166564" y1="1178.555051" x2="2044.889399" y2="1178.555051" stroke="black" stroke-width="6.48"/>
<line x1="2044.889399" y1="1178.555051" x2="2044.889399" y2="955.822399" stroke="black" stroke-width="6.48"/>
<line x1="2044.433912" y1="955.366913" x2="2267.166564" y2="1178.555051" stroke="black" stroke-width="6.48"/>
<line x1="2044.889399" y1="1178.099564" x2="2266.711078" y2="955.822399" stroke="black" stroke-width="6.48"/>
<line x1="333.766206" y1="1375.361078" x2="333.766206" y2="949.854546" stroke="black" stroke-width="6.48"/>
<line x1="333.766206" y1="949.854546" x2="257.659348" y2="949.854546" stroke="black" stroke-width="6.48"/>
<line x1="257.659348" y1="949.854546" x2="257.659348" y2="1375.361078" stroke="black" stroke-width="6.48"/>
<line x1="257.659348" y1="1375.361078" x2="333.766206" y2="1375.361078" stroke="black" stroke-width="6.48"/>
<line x1="333.766206" y1="1355.469512" x2="359.711726" y2="1355.469512" stroke="black" stroke-width="6.48"/>
<line x1="359.711726" y1="1355.469512" x2="359.711726" y2="970.610962" stroke="black" stroke-width="6.48"/>
<line x1="333.766206" y1="970.610962" x2="359.711726" y2="970.610962" stroke="black" stroke-width="6.48"/>
<line x1="3874.406537" y1="1514.726719" x2="3874.406537" y2="1940.260162" stroke="black" stroke-width="6.48"/>
<line x1="3874.406537" y1="1940.260162" x2="3940.00601" y2="1940.260162" stroke="black" stroke-width="6.48"/>
<line x1="3940.00601" y1="1940.260162" x2="3940.00601" y2="1514.726719" stroke="black" stroke-width="6.48"/>
<line x1="3940.00601" y1="1514.726719" x2="3874.406537" y2="1514.726719" stroke="black" stroke-width="6.48"/>
<line x1="3939.14286" y1="1554.431663" x2="3875.269687" y2="1554.431663" stroke="black" stroke-width="6.48"/>
<line x1="3939.14286" y1="1899.692064" x2="3872.680232" y2="1899.692064" stroke="black" stroke-width="6.48"/>
<line x1="3908.932574" y1="1553.568512" x2="3908.932574" y2="1898.828914" stroke="black" stroke-width="6.48"/>
<line x1="5101.672129" y1="1539.796068" x2="4737.444646" y2="1686.953524" stroke="black" stroke-width="6.48"/>
<line x1="4737.444646" y1="1686.953524" x2="4806.573044" y2="1858.052326" stroke="black" stroke-width="6.48"/>
<line x1="4806.573044" y1="1858.052326" x2="5170.800535" y2="1710.89487" stroke="black" stroke-width="6.48"/>
<line x1="5170.800535" y1="1710.89487" x2="5101.672129" y2="1539.796068" stroke="black" stroke-width="6.48"/>
<line x1="5023.200283" y1="1770.529241" x2="5053.462502" y2="1845.430859" stroke="black" stroke-width="6.48"/>
<line x1="5053.462502" y1="1845.430859" x2="5126.161136" y2="1816.058707" stroke="black" stroke-width="6.48"/>
<line x1="5126.161136" y1="1816.058707" x2="5095.898914" y2="1741.157086" stroke="black" stroke-width="6.48"/>
<line x1="5118.899659" y1="1800.200146" x2="5046.935357" y2="1829.275614" stroke="black" stroke-width="6.48"/>
<line x1="4996.211605" y1="1494.422338" x2="4923.512975" y2="1523.794493" stroke="black" stroke-width="6.48"/>
<line x1="4923.512975" y1="1523.794493" x2="4954.071877" y2="1599.430442" stroke="black" stroke-width="6.48"/>
<line x1="5026.770511" y1="1570.058291" x2="4996.211605" y2="1494.422338" stroke="black" stroke-width="6.48"/>
<line x1="5002.004419" y1="1510.87428" x2="4930.04012" y2="1539.949745" stroke="black" stroke-width="6.48"/>
<line x1="4882.943326" y1="1827.196733" x2="4913.205545" y2="1902.098351" stroke="black" stroke-width="6.48"/>
<line x1="4913.205545" y1="1902.098351" x2="4985.904175" y2="1872.726199" stroke="black" stroke-width="6.48"/>
<line x1="4985.904175" y1="1872.726199" x2="4955.64196" y2="1797.824578" stroke="black" stroke-width="6.48"/>
<line x1="4979.37703" y1="1856.570947" x2="4906.678399" y2="1885.943099" stroke="black" stroke-width="6.48"/>
<line x1="4855.954648" y1="1551.089826" x2="4783.256014" y2="1580.461981" stroke="black" stroke-width="6.48"/>
<line x1="4783.256014" y1="1580.461981" x2="4813.814923" y2="1656.097931" stroke="black" stroke-width="6.48"/>
<line x1="4886.513554" y1="1626.725779" x2="4855.954648" y2="1551.089826" stroke="black" stroke-width="6.48"/>
<line x1="4862.481793" y1="1567.245078" x2="4789.783159" y2="1596.617233" stroke="black" stroke-width="6.48"/>
<line x1="3127.277819" y1="1074.39246" x2="3336.643022" y2="1074.39246" stroke="black" stroke-width="6.48"/>
<line x1="3336.643022" y1="1074.39246" x2="3336.643022" y2="743.178056" stroke="black" stroke-width="6.48"/>
<line x1="3336.643022" y1="743.178056" x2="3127.277819" y2="743.178056" stroke="black" stroke-width="6.48"/>
<line x1="3127.277819" y1="743.178056" x2="3127.277819" y2="1074.39246" stroke="black" stroke-width="6.48"/>
<line x1="3126.604619" y1="802.419656" x2="3337.316219" y2="802.419656" stroke="black" stroke-width="6.48"/>
<line x1="3337.316219" y1="802.419656" x2="3127.951019" y2="852.23646" stroke="black" stroke-width="6.48"/>
<line x1="3127.951019" y1="852.23646" x2="3159.591422" y2="898.68726" stroke="black" stroke-width="6.48"/>
<line x1="3159.591422" y1="898.68726" x2="3337.316219" y2="801.74646" stroke="black" stroke-width="6.48"/>
<line x1="3531.901475" y1="1202.640538" x2="3754.17864" y2="1202.640538" stroke="black" stroke-width="6.48"/>
<line x1="3754.17864" y1="1202.640538" x2="3754.17864" y2="1425.373189" stroke="black" stroke-width="6.48"/>
<line x1="3754.17864" y1="1425.373189" x2="3531.901475" y2="1425.373189" stroke="black" stroke-width="6.48"/>
<line x1="3531.901475" y1="1425.373189" x2="3531.901475" y2="1202.640538" stroke="black" stroke-width="6.48"/>
<line x1="3531.445988" y1="1202.185051" x2="3754.17864" y2="1425.373189" stroke="black" stroke-width="6.48"/>
<line x1="3531.901475" y1="1424.917703" x2="3753.723154" y2="1202.640538" stroke="black" stroke-width="6.48"/>
<line x1="2804.16708" y1="1127.69402" x2="2804.16708" y2="1153.148746" stroke="black" stroke-width="6.48"/>
<line x1="2804.16708" y1="1153.148746" x2="2853.834836" y2="1153.148746" stroke="black" stroke-width="6.48"/>
<line x1="2853.834836" y1="1153.148746" x2="2853.834836" y2="1127.69402" stroke="black" stroke-width="6.48"/>
<line x1="2853.834836" y1="1127.69402" x2="2804.16708" y2="1127.69402" stroke="black" stroke-width="6.48"/>
<line x1="2853.834836" y1="1402.108373" x2="3101.55277" y2="1402.108373" stroke="black" stroke-width="6.48"/>
<line x1="2802.925386" y1="1402.729218" x2="2802.925386" y2="1428.183943" stroke="black" stroke-width="6.48"/>
<line x1="2802.925386" y1="1428.183943" x2="2852.593142" y2="1428.183943" stroke="black" stroke-width="6.48"/>
<line x1="2852.593142" y1="1428.183943" x2="2852.593142" y2="1402.729218" stroke="black" stroke-width="6.48"/>
<line x1="2852.593142" y1="1402.729218" x2="2802.925386" y2="1402.729218" stroke="black" stroke-width="6.48"/>
<path d="m 2851.972294,1153.148746 a 248.95962699999984,248.95962699999984 0 0 1 248.95962699999973,248.95962699999995" fill="none" stroke="black" stroke-width="6.48"/>
<line x1="2939.471665" y1="2013.226024" x2="2868.26652" y2="2189.465161" stroke="black" stroke-width="6.48"/>
<line x1="2868.26652" y1="2189.465161" x2="3298.290016" y2="2363.205712" stroke="black" stroke-width="6.48"/>
<line x1="3298.290016" y1="2363.205712" x2="3369.495161" y2="2186.966574" stroke="black" stroke-width="6.48"/>
<line x1="3369.495161" y1="2186.966574" x2="3347.46527" y2="2178.06593" stroke="black" stroke-width="6.48"/>
<line x1="3347.46527" y1="2178.06593" x2="3284.804743" y2="2333.156375" stroke="black" stroke-width="6.48"/>
<line x1="3284.804743" y1="2333.156375" x2="2899.722226" y2="2177.573134" stroke="black" stroke-width="6.48"/>
<line x1="2899.722226" y1="2177.573134" x2="2962.382753" y2="2022.482693" stroke="black" stroke-width="6.48"/>
<line x1="2962.382753" y1="2022.482693" x2="2939.471665" y2="2013.226024" stroke="black" stroke-width="6.48"/>
<line x1="2960.246599" y1="2027.769865" x2="3345.329117" y2="2183.353106" stroke="black" stroke-width="6.48"/>
<line x1="3152.703283" y1="2104.502278" x2="3092.178913" y2="2254.305546" stroke="black" stroke-width="6.48"/>
<line x1="3399.467836" y1="1870.61711" x2="3478.781488" y2="1652.704654" stroke="black" stroke-width="6.48"/>
<line x1="3478.781488" y1="1652.704654" x2="3697.140496" y2="1732.180831" stroke="black" stroke-width="6.48"/>
<line x1="3697.140496" y1="1732.180831" x2="3617.826844" y2="1950.093292" stroke="black" stroke-width="6.48"/>
<line x1="3617.826844" y1="1950.093292" x2="3399.467836" y2="1870.61711" stroke="black" stroke-width="6.48"/>
<line x1="3398.858766" y1="1870.901129" x2="3697.140496" y2="1732.180831" stroke="black" stroke-width="6.48"/>
<line x1="3617.3803" y1="1949.930762" x2="3478.618958" y2="1653.151194" stroke="black" stroke-width="6.48"/>
<line x1="3079.021345" y1="1589.315879" x2="3065.967511" y2="1617.309914" stroke="black" stroke-width="6.48"/>
<line x1="3065.967511" y1="1617.309914" x2="3255.896275" y2="1705.875149" stroke="black" stroke-width="6.48"/>
<line x1="3255.896275" y1="1705.875149" x2="3268.950106" y2="1677.881113" stroke="black" stroke-width="6.48"/>
<line x1="3268.950106" y1="1677.881113" x2="3079.021345" y2="1589.315879" stroke="black" stroke-width="6.48"/>
<line x1="2992.866048" y1="1774.076508" x2="2979.812214" y2="1802.07054" stroke="black" stroke-width="6.48"/>
<line x1="2979.812214" y1="1802.07054" x2="3169.740974" y2="1890.635778" stroke="black" stroke-width="6.48"/>
<line x1="3169.740974" y1="1890.635778" x2="3182.794808" y2="1862.641742" stroke="black" stroke-width="6.48"/>
<line x1="3182.794808" y1="1862.641742" x2="2992.866048" y2="1774.076508" stroke="black" stroke-width="6.48"/>
<line x1="3066.168341" y1="1616.879236" x2="2992.866048" y2="1774.076508" stroke="black" stroke-width="6.48"/>
<line x1="3255.436573" y1="1704.612139" x2="3267.877457" y2="1739.775629" stroke="black" stroke-width="6.48"/>
<line x1="3216.666265" y1="1849.598377" x2="3181.732628" y2="1862.670766" stroke="black" stroke-width="6.48"/>
<line x1="3268.680768" y1="1738.052917" x2="3215.86295" y2="1851.321089" stroke="black" stroke-width="6.48"/>
<line x1="3106.451192" y1="1636.187764" x2="3033.1489" y2="1793.38504" stroke="black" stroke-width="6.48"/>
<line x1="6242.939413" y1="1855.07163" x2="6064.322645" y2="1920.082817" stroke="black" stroke-width="6.48"/>
<line x1="6064.322645" y1="1920.082817" x2="6222.949945" y2="2355.907745" stroke="black" stroke-width="6.48"/>
<line x1="6222.949945" y1="2355.907745" x2="6401.566717" y2="2290.896554" stroke="black" stroke-width="6.48"/>
<line x1="6401.566717" y1="2290.896554" x2="6393.440318" y2="2268.569462" stroke="black" stroke-width="6.48"/>
<line x1="6393.440318" y1="2268.569462" x2="6236.257558" y2="2325.779305" stroke="black" stroke-width="6.48"/>
<line x1="6236.257558" y1="2325.779305" x2="6094.20811" y2="1935.501656" stroke="black" stroke-width="6.48"/>
<line x1="6094.20811" y1="1935.501656" x2="6251.39087" y2="1878.291814" stroke="black" stroke-width="6.48"/>
<line x1="6251.39087" y1="1878.291814" x2="6242.939413" y2="1855.07163" stroke="black" stroke-width="6.48"/>
<line x1="6246.032368" y1="1880.24215" x2="6388.081812" y2="2270.519798" stroke="black" stroke-width="6.48"/>
<line x1="6317.787647" y1="2074.609375" x2="6165.963389" y2="2129.868886" stroke="black" stroke-width="6.48"/>
<line x1="3840.070216" y1="1134.752281" x2="3838.453664" y2="1103.906614" stroke="black" stroke-width="6.48"/>
<line x1="3838.453664" y1="1103.906614" x2="3629.177665" y2="1114.874305" stroke="black" stroke-width="6.48"/>
<line x1="3629.177665" y1="1114.874305" x2="3630.794216" y2="1145.719973" stroke="black" stroke-width="6.48"/>
<line x1="3630.794216" y1="1145.719973" x2="3840.070216" y2="1134.752281" stroke="black" stroke-width="6.48"/>
<line x1="3829.400968" y1="931.17087" x2="3827.784416" y2="900.325199" stroke="black" stroke-width="6.48"/>
<line x1="3827.784416" y1="900.325199" x2="3618.508414" y2="911.292887" stroke="black" stroke-width="6.48"/>
<line x1="3618.508414" y1="911.292887" x2="3620.124965" y2="942.138562" stroke="black" stroke-width="6.48"/>
<line x1="3620.124965" y1="942.138562" x2="3829.400968" y2="931.17087" stroke="black" stroke-width="6.48"/>
<line x1="3838.478533" y1="1104.381162" x2="3829.400968" y2="931.17087" stroke="black" stroke-width="6.48"/>
<line x1="3630.176503" y1="1115.773661" x2="3602.683598" y2="1090.566785" stroke="black" stroke-width="6.48"/>
<line x1="3596.341738" y1="969.556853" x2="3621.049193" y2="941.614268" stroke="black" stroke-width="6.48"/>
<line x1="3602.783077" y1="1092.464978" x2="3596.242259" y2="967.658656" stroke="black" stroke-width="6.48"/>
<line x1="3793.846082" y1="1106.244396" x2="3784.768517" y2="933.034104" stroke="black" stroke-width="6.48"/>
<line x1="2211.625678" y1="2265.269393" x2="2242.34447" y2="2268.498074" stroke="black" stroke-width="6.48"/>
<line x1="2242.34447" y1="2268.498074" x2="2264.24984" y2="2060.082889" stroke="black" stroke-width="6.48"/>
<line x1="2264.24984" y1="2060.082889" x2="2233.531048" y2="2056.854208" stroke="black" stroke-width="6.48"/>
<line x1="2233.531048" y1="2056.854208" x2="2211.625678" y2="2265.269393" stroke="black" stroke-width="6.48"/>
<line x1="2414.369704" y1="2286.5787" x2="2445.088493" y2="2289.807382" stroke="black" stroke-width="6.48"/>
<line x1="2445.088493" y1="2289.807382" x2="2466.993863" y2="2081.392196" stroke="black" stroke-width="6.48"/>
<line x1="2466.993863" y1="2081.392196" x2="2436.275074" y2="2078.163515" stroke="black" stroke-width="6.48"/>
<line x1="2436.275074" y1="2078.163515" x2="2414.369704" y2="2286.5787" stroke="black" stroke-width="6.48"/>
<line x1="2241.871873" y1="2268.448402" x2="2414.369704" y2="2286.5787" stroke="black" stroke-width="6.48"/>
<line x1="2263.205304" y1="2060.928738" x2="2292.402686" y2="2037.717551" stroke="black" stroke-width="6.48"/>
<line x1="2412.914868" y1="2050.38392" x2="2436.648325" y2="2079.158378" stroke="black" stroke-width="6.48"/>
<line x1="2290.512298" y1="2037.518863" x2="2414.805253" y2="2050.582608" stroke="black" stroke-width="6.48"/>
<line x1="2247.013642" y1="2224.073977" x2="2419.511472" y2="2242.204272" stroke="black" stroke-width="6.48"/>
<line x1="1015.316032" y1="1887.393445" x2="1079.927723" y2="2086.247966" stroke="black" stroke-width="6.48"/>
<line x1="1079.927723" y1="2086.247966" x2="1300.475462" y2="2014.587727" stroke="black" stroke-width="6.48"/>
<line x1="1300.475462" y1="2014.587727" x2="1235.863771" y2="1815.733199" stroke="black" stroke-width="6.48"/>
<line x1="1235.863771" y1="1815.733199" x2="1015.316032" y2="1887.393445" stroke="black" stroke-width="6.48"/>
<line x1="1046.04809" y1="1877.408003" x2="1110.659785" y2="2076.262524" stroke="black" stroke-width="6.48"/>
</g>
</svg>
