<?xml version="1.0"?>
<svg xmlns:xlink="http://www.w3.org/1999/xlink" width="6775.2" height="2858.4">
<image x="0" y="0" width="6775.2" height="2858.4" xlink:href="groundfilled-01.png"/>
<g style="stroke-linecap:round">
<line x1="1285.950406" y1="795.178109" x2="1311.346069" y2="795.178109" stroke="black" stroke-width="6.48"/>
<line x1="1311.346069" y1="795.178109" x2="1311.346069" y2="745.625592" stroke="black" stroke-width="6.48"/>
<line x1="1311.346069" y1="745.625592" x2="1285.950406" y2="745.625592" stroke="black" stroke-width="6.48"/>
<line x1="1285.950406" y1="745.625592" x2="1285.950406" y2="795.178109" stroke="black" stroke-width="6.48"/>
<line x1="1559.728062" y1="745.625592" x2="1559.728062" y2="498.48241" stroke="black" stroke-width="6.48"/>
<line x1="1560.347471" y1="796.416923" x2="1585.743134" y2="796.416923" stroke="black" stroke-width="6.48"/>
<line x1="1585.743134" y1="796.416923" x2="1585.743134" y2="746.864406" stroke="black" stroke-width="6.48"/>
<line x1="1585.743134" y1="746.864406" x2="1560.347471" y2="746.864406" stroke="black" stroke-width="6.48"/>
<line x1="1560.347471" y1="746.864406" x2="1560.347471" y2="796.416923" stroke="black" stroke-width="6.48"/>
<path d="m 1311.346069,747.483811 a 248.38199299999997,248.38199299999997 0 0 1 248.38199299999997,-248.38199299999997" fill="none" stroke="black" stroke-width="6.48"/>
<line x1="330.523178" y1="771.328966" x2="330.523178" y2="366.748985" stroke="black" stroke-width="6.48"/>
<line x1="330.523178" y1="366.748985" x2="258.15928" y2="366.748985" stroke="black" stroke-width="6.48"/>
<line x1="258.15928" y1="366.748985" x2="258.15928" y2="771.328966" stroke="black" stroke-width="6.48"/>
<line x1="258.15928" y1="771.328966" x2="330.523178" y2="771.328966" stroke="black" stroke-width="6.48"/>
<line x1="330.523178" y1="752.415674" x2="355.19269" y2="752.415674" stroke="black" stroke-width="6.48"/>
<line x1="355.19269" y1="752.415674" x2="355.19269" y2="386.484595" stroke="black" stroke-width="6.48"/>
<line x1="330.523178" y1="386.484595" x2="355.19269" y2="386.484595" stroke="black" stroke-width="6.48"/>
<line x1="3901.945176" y1="1169.331426" x2="3901.945176" y2="1428.837066" stroke="black" stroke-width="6.48"/>
<line x1="3901.945176" y1="1428.837066" x2="3941.9501" y2="1428.837066" stroke="black" stroke-width="6.48"/>
<line x1="3941.9501" y1="1428.837066" x2="3941.9501" y2="1169.331426" stroke="black" stroke-width="6.48"/>
<line x1="3941.9501" y1="1169.331426" x2="3901.945176" y2="1169.331426" stroke="black" stroke-width="6.48"/>
<line x1="3941.423719" y1="1193.544936" x2="3902.471557" y2="1193.544936" stroke="black" stroke-width="6.48"/>
<line x1="3941.423719" y1="1404.097178" x2="3900.892414" y2="1404.097178" stroke="black" stroke-width="6.48"/>
<line x1="3923.000399" y1="1193.018555" x2="3923.000399" y2="1403.570797" stroke="black" stroke-width="6.48"/>
<line x1="323.923298" y1="1882.957399" x2="323.923298" y2="1457.423957" stroke="black" stroke-width="6.48"/>
<line x1="323.923298" y1="1457.423957" x2="258.323825" y2="1457.423957" stroke="black" stroke-width="6.48"/>
<line x1="258.323825" y1="1457.423957" x2="258.323825" y2="1882.957399" stroke="black" stroke-width="6.48"/>
<line x1="258.323825" y1="1882.957399" x2="323.923298" y2="1882.957399" stroke="black" stroke-width="6.48"/>
<line x1="259.186975" y1="1843.252456" x2="323.060148" y2="1843.252456" stroke="black" stroke-width="6.48"/>
<line x1="259.186975" y1="1497.992054" x2="325.649603" y2="1497.992054" stroke="black" stroke-width="6.48"/>
<line x1="289.397261" y1="1844.115606" x2="289.397261" y2="1498.855205" stroke="black" stroke-width="6.48"/>
<line x1="2747.905531" y1="904.670665" x2="2721.68303" y2="904.670665" stroke="black" stroke-width="6.48"/>
<line x1="2721.68303" y1="904.670665" x2="2721.68303" y2="955.836522" stroke="black" stroke-width="6.48"/>
<line x1="2721.68303" y1="955.836522" x2="2747.905531" y2="955.836522" stroke="black" stroke-width="6.48"/>
<line x1="2747.905531" y1="955.836522" x2="2747.905531" y2="904.670665" stroke="black" stroke-width="6.48"/>
<line x1="2465.214181" y1="955.836522" x2="2465.214181" y2="1211.026223" stroke="black" stroke-width="6.48"/>
<line x1="2464.574609" y1="903.39152" x2="2438.352108" y2="903.39152" stroke="black" stroke-width="6.48"/>
<line x1="2438.352108" y1="903.39152" x2="2438.352108" y2="954.557374" stroke="black" stroke-width="6.48"/>
<line x1="2438.352108" y1="954.557374" x2="2464.574609" y2="954.557374" stroke="black" stroke-width="6.48"/>
<line x1="2464.574609" y1="954.557374" x2="2464.574609" y2="903.39152" stroke="black" stroke-width="6.48"/>
<path d="m 2721.68303,953.917801 a 256.4688490000001,256.4688490000001 0 0 1 -256.4688490000003,256.46884899999986" fill="none" stroke="black" stroke-width="6.48"/>
<line x1="2420.532389" y1="1427.858834" x2="2395.136725" y2="1427.858834" stroke="black" stroke-width="6.48"/>
<line x1="2395.136725" y1="1427.858834" x2="2395.136725" y2="1477.411351" stroke="black" stroke-width="6.48"/>
<line x1="2395.136725" y1="1477.411351" x2="2420.532389" y2="1477.411351" stroke="black" stroke-width="6.48"/>
<line x1="2420.532389" y1="1477.411351" x2="2420.532389" y2="1427.858834" stroke="black" stroke-width="6.48"/>
<line x1="2146.754732" y1="1477.411351" x2="2146.754732" y2="1724.554534" stroke="black" stroke-width="6.48"/>
<line x1="2146.135324" y1="1426.62002" x2="2120.73966" y2="1426.62002" stroke="black" stroke-width="6.48"/>
<line x1="2120.73966" y1="1426.62002" x2="2120.73966" y2="1476.172537" stroke="black" stroke-width="6.48"/>
<line x1="2120.73966" y1="1476.172537" x2="2146.135324" y2="1476.172537" stroke="black" stroke-width="6.48"/>
<line x1="2146.135324" y1="1476.172537" x2="2146.135324" y2="1426.62002" stroke="black" stroke-width="6.48"/>
<path d="m 2395.136725,1475.553132 a 248.38199299999997,248.38199299999997 0 0 1 -248.38199299999997,248.38199299999997" fill="none" stroke="black" stroke-width="6.48"/>
<line x1="772.528234" y1="541.339351" x2="1004.425834" y2="541.339351" stroke="black" stroke-width="6.48"/>
<line x1="1004.425834" y1="541.339351" x2="1004.425834" y2="773.712151" stroke="black" stroke-width="6.48"/>
<line x1="1004.425834" y1="773.712151" x2="772.528234" y2="773.712151" stroke="black" stroke-width="6.48"/>
<line x1="772.528234" y1="773.712151" x2="772.528234" y2="541.339351" stroke="black" stroke-width="6.48"/>
<line x1="772.053034" y1="540.864151" x2="1004.425834" y2="773.712151" stroke="black" stroke-width="6.48"/>
<line x1="772.528234" y1="773.236951" x2="1003.950634" y2="541.339351" stroke="black" stroke-width="6.48"/>
<line x1="1842.844367" y1="2020.064404" x2="2032.924367" y2="2020.064404" stroke="black" stroke-width="6.48"/>
<line x1="2032.924367" y1="2020.064404" x2="2032.924367" y2="1556.269204" stroke="black" stroke-width="6.48"/>
<line x1="2032.924367" y1="1556.269204" x2="1842.844367" y2="1556.269204" stroke="black" stroke-width="6.48"/>
<line x1="1842.844367" y1="1556.269204" x2="1842.844367" y2="1580.029204" stroke="black" stroke-width="6.48"/>
<line x1="1842.844367" y1="1580.029204" x2="2010.114767" y2="1580.029204" stroke="black" stroke-width="6.48"/>
<line x1="2010.114767" y1="1580.029204" x2="2010.114767" y2="1995.354004" stroke="black" stroke-width="6.48"/>
<line x1="2010.114767" y1="1995.354004" x2="1842.844367" y2="1995.354004" stroke="black" stroke-width="6.48"/>
<line x1="1842.844367" y1="1995.354004" x2="1842.844367" y2="2020.064404" stroke="black" stroke-width="6.48"/>
<line x1="1848.546767" y1="1995.354004" x2="1848.546767" y2="1580.029204" stroke="black" stroke-width="6.48"/>
<line x1="1847.596367" y1="1788.166804" x2="2009.164367" y2="1788.166804" stroke="black" stroke-width="6.48"/>
<line x1="1485.415969" y1="209.267824" x2="1707.693134" y2="209.267824" stroke="black" stroke-width="6.48"/>
<line x1="1707.693134" y1="209.267824" x2="1707.693134" y2="432.000475" stroke="black" stroke-width="6.48"/>
<line x1="1707.693134" y1="432.000475" x2="1485.415969" y2="432.000475" stroke="black" stroke-width="6.48"/>
<line x1="1485.415969" y1="432.000475" x2="1485.415969" y2="209.267824" stroke="black" stroke-width="6.48"/>
<line x1="1484.960483" y1="208.812337" x2="1707.693134" y2="432.000475" stroke="black" stroke-width="6.48"/>
<line x1="1485.415969" y1="431.544989" x2="1707.237648" y2="209.267824" stroke="black" stroke-width="6.48"/>
<line x1="2586.780558" y1="1803.366338" x2="2586.780558" y2="2194.614338" stroke="black" stroke-width="6.48"/>
<line x1="2586.780558" y1="2194.614338" x2="2761.020558" y2="2194.614338" stroke="black" stroke-width="6.48"/>
<line x1="2761.020558" y1="2194.614338" x2="2761.020558" y2="1803.366338" stroke="black" stroke-width="6.48"/>
<line x1="2761.020558" y1="1803.366338" x2="2586.780558" y2="1803.366338" stroke="black" stroke-width="6.48"/>
<line x1="2734.092558" y1="2119.374338" x2="2734.092558" y2="1835.046338" stroke="black" stroke-width="6.48"/>
<line x1="2734.092558" y1="1835.046338" x2="2616.084558" y2="1835.046338" stroke="black" stroke-width="6.48"/>
<line x1="2616.084558" y1="1835.046338" x2="2616.084558" y2="2124.918338" stroke="black" stroke-width="6.48"/>
<path d="m 2734.347982,2118.563766 a 63.35999941905905,63.35999941905905 0 0 1 -119.37432999999965,4.2938139999996565" fill="none" stroke="black" stroke-width="6.48"/>
<line x1="2105.638441" y1="1885.084081" x2="2105.638441" y2="2068.828081" stroke="black" stroke-width="6.48"/>
<line x1="2105.638441" y1="2068.828081" x2="2056.534441" y2="2068.828081" stroke="black" stroke-width="6.48"/>
<line x1="2056.534441" y1="1885.084081" x2="2056.534441" y2="2068.828081" stroke="black" stroke-width="6.48"/>
<line x1="2105.638441" y1="1885.084081" x2="2056.534441" y2="1885.084081" stroke="black" stroke-width="6.48"/>
<line x1="2133.358441" y1="1926.664081" x2="2105.638441" y2="1926.664081" stroke="black" stroke-width="6.48"/>
<line x1="2105.638441" y1="2025.664081" x2="2134.942441" y2="2025.664081" stroke="black" stroke-width="6.48"/>
<circle cx="2178.502441" cy="1975.372081" r="66.52800000000002" fill="none" stroke="black" stroke-width="6.48"/>
<circle cx="2178.502441" cy="1975.372081" r="57.02400000000001" fill="none" stroke="black" stroke-width="6.48"/>
<line x1="709.477366" y1="209.485688" x2="980.024566" y2="209.485688" stroke="black" stroke-width="6.48"/>
<line x1="980.024566" y1="209.485688" x2="980.024566" y2="341.432888" stroke="black" stroke-width="6.48"/>
<line x1="709.477366" y1="341.432888" x2="980.024566" y2="341.432888" stroke="black" stroke-width="6.48"/>
<line x1="709.477366" y1="209.485688" x2="709.477366" y2="341.432888" stroke="black" stroke-width="6.48"/>
<line x1="716.130166" y1="216.138488" x2="854.175766" y2="216.138488" stroke="black" stroke-width="6.48"/>
<line x1="854.175766" y1="216.138488" x2="854.175766" y2="334.225688" stroke="black" stroke-width="6.48"/>
<line x1="716.130166" y1="334.225688" x2="854.175766" y2="334.225688" stroke="black" stroke-width="6.48"/>
<line x1="716.130166" y1="216.138488" x2="716.130166" y2="334.225688" stroke="black" stroke-width="6.48"/>
<line x1="868.590166" y1="223.900088" x2="965.610166" y2="223.900088" stroke="black" stroke-width="6.48"/>
<line x1="868.590166" y1="244.412888" x2="965.610166" y2="244.412888" stroke="black" stroke-width="6.48"/>
<line x1="869.144566" y1="265.480088" x2="966.164566" y2="265.480088" stroke="black" stroke-width="6.48"/>
<line x1="869.144566" y1="285.992888" x2="966.164566" y2="285.992888" stroke="black" stroke-width="6.48"/>
<line x1="868.590166" y1="306.505688" x2="965.610166" y2="306.505688" stroke="black" stroke-width="6.48"/>
<line x1="868.590166" y1="327.018488" x2="965.610166" y2="327.018488" stroke="black" stroke-width="6.48"/>
<line x1="768.798166" y1="334.225688" x2="768.798166" y2="320.365688" stroke="black" stroke-width="6.48"/>
<line x1="768.798166" y1="320.365688" x2="803.170966" y2="320.365688" stroke="black" stroke-width="6.48"/>
<line x1="803.170966" y1="320.365688" x2="803.170966" y2="333.671288" stroke="black" stroke-width="6.48"/>
<circle cx="838.652566" cy="231.107288" r="8.316000000000003" fill="none" stroke="black" stroke-width="6.48"/>
<line x1="993.743471" y1="1020.912185" x2="603.063446" y2="979.850059" stroke="black" stroke-width="6.48"/>
<line x1="603.063446" y1="979.850059" x2="583.774182" y2="1163.37515" stroke="black" stroke-width="6.48"/>
<line x1="583.774182" y1="1163.37515" x2="974.454206" y2="1204.437276" stroke="black" stroke-width="6.48"/>
<line x1="974.454206" y1="1204.437276" x2="993.743471" y2="1020.912185" stroke="black" stroke-width="6.48"/>
<line x1="816.134278" y1="1187.797183" x2="807.690049" y2="1268.138639" stroke="black" stroke-width="6.48"/>
<line x1="807.690049" y1="1268.138639" x2="885.668526" y2="1276.334507" stroke="black" stroke-width="6.48"/>
<line x1="885.668526" y1="1276.334507" x2="894.112751" y2="1195.993048" stroke="black" stroke-width="6.48"/>
<line x1="886.702165" y1="1258.923172" x2="809.511354" y2="1250.810089" stroke="black" stroke-width="6.48"/>
<line x1="921.929029" y1="931.338839" x2="843.950552" y2="923.142971" stroke="black" stroke-width="6.48"/>
<line x1="843.950552" y1="923.142971" x2="835.423542" y2="1004.272088" stroke="black" stroke-width="6.48"/>
<line x1="913.402015" y1="1012.467956" x2="921.929029" y2="931.338839" stroke="black" stroke-width="6.48"/>
<line x1="919.320062" y1="948.584603" x2="842.129251" y2="940.47152" stroke="black" stroke-width="6.48"/>
<line x1="665.690962" y1="1171.98495" x2="657.246737" y2="1252.326409" stroke="black" stroke-width="6.48"/>
<line x1="657.246737" y1="1252.326409" x2="735.225206" y2="1260.522277" stroke="black" stroke-width="6.48"/>
<line x1="735.225206" y1="1260.522277" x2="743.669435" y2="1180.180822" stroke="black" stroke-width="6.48"/>
<line x1="737.046508" y1="1243.193728" x2="659.068038" y2="1234.99786" stroke="black" stroke-width="6.48"/>
<line x1="771.48571" y1="915.526609" x2="693.50724" y2="907.330741" stroke="black" stroke-width="6.48"/>
<line x1="693.50724" y1="907.330741" x2="684.980226" y2="988.459859" stroke="black" stroke-width="6.48"/>
<line x1="762.958699" y1="996.65573" x2="771.48571" y2="915.526609" stroke="black" stroke-width="6.48"/>
<line x1="769.664408" y1="932.855159" x2="691.685935" y2="924.659291" stroke="black" stroke-width="6.48"/>
<line x1="2044.889399" y1="955.822399" x2="2267.166564" y2="955.822399" stroke="black" stroke-width="6.48"/>
<line x1="2267.166564" y1="955.822399" x2="2267.166564" y2="1178.555051" stroke="black" stroke-width="6.48"/>
<line x1="2267.166564" y1="1178.555051" x2="2044.889399" y2="1178.555051" stroke="black" stroke-width="6.48"/>
<line x1="2044.889399" y1="1178.555051" x2="2044.889399" y2="955.822399" stroke="black" stroke-width="6.48"/>
<line x1="2044.433912" y1="955.366913" x2="2267.166564" y2="1178.555051" stroke="black" stroke-width="6.48"/>
<line x1="2044.889399" y1="1178.099564" x2="2266.711078" y2="955.822399" stroke="black" stroke-width="6.48"/>
<line x1="323.258818" y1="1375.374532" x2="323.258818" y2="949.841089" stroke="black" stroke-width="6.48"/>
<line x1="323.258818" y1="949.841089" x2="257.659344" y2="949.841089" stroke="black" stroke-width="6.48"/>
<line x1="257.659344" y1="949.841089" x2="257.659344" y2="1375.374532" stroke="black" stroke-width="6.48"/>
<line x1="257.659344" y1="1375.374532" x2="323.258818" y2="1375.374532" stroke="black" stroke-width="6.48"/>
<line x1="258.522494" y1="1335.669588" x2="322.395667" y2="1335.669588" stroke="black" stroke-width="6.48"/>
<line x1="258.522494" y1="990.409187" x2="324.985122" y2="990.409187" stroke="black" stroke-width="6.48"/>
<line x1="288.73278" y1="1336.532738" x2="288.73278" y2="991.272337" stroke="black" stroke-width="6.48"/>
<line x1="3874.406537" y1="1514.726719" x2="3874.406537" y2="1940.260162" stroke="black" stroke-width="6.48"/>
<line x1="3874.406537" y1="1940.260162" x2="3940.00601" y2="1940.260162" stroke="black" stroke-width="6.48"/>
<line x1="3940.00601" y1="1940.260162" x2="3940.00601" y2="1514.726719" stroke="black" stroke-width="6.48"/>
<line x1="3940.00601" y1="1514.726719" x2="3874.406537" y2="1514.726719" stroke="black" stroke-width="6.48"/>
<line x1="3939.14286" y1="1554.431663" x2="3875.269687" y2="1554.431663" stroke="black" stroke-width="6.48"/>
<line x1="3939.14286" y1="1899.692064" x2="3872.680232" y2="1899.692064" stroke="black" stroke-width="6.48"/>
<line x1="3908.932574" y1="1553.568512" x2="3908.932574" y2="1898.828914" stroke="black" stroke-width="6.48"/>
<line x1="4882.983484" y1="2019.454146" x2="4812.978179" y2="1907.422247" stroke="black" stroke-width="6.48"/>
<line x1="4812.978179" y1="1907.422247" x2="4825.067951" y2="1899.867715" stroke="black" stroke-width="6.48"/>
<line x1="4895.073256" y1="2011.899618" x2="4825.067951" y2="1899.867715" stroke="black" stroke-width="6.48"/>
<line x1="4882.983484" y1="2019.454146" x2="4895.073256" y2="2011.899618" stroke="black" stroke-width="6.48"/>
<line x1="4888.02236" y1="2000.615828" x2="4915.627132" y2="1985.607835" stroke="black" stroke-width="6.48"/>
<line x1="4832.118846" y1="1911.151505" x2="4858.515061" y2="1892.415935" stroke="black" stroke-width="6.48"/>
<line x1="5273.886161" y1="1775.191043" x2="5203.880863" y2="1663.159136" stroke="black" stroke-width="6.48"/>
<line x1="5203.880863" y1="1663.159136" x2="5192.597074" y2="1670.210032" stroke="black" stroke-width="6.48"/>
<line x1="5262.602375" y1="1782.241938" x2="5192.597074" y2="1670.210032" stroke="black" stroke-width="6.48"/>
<line x1="5273.886161" y1="1775.191043" x2="5262.602375" y2="1782.241938" stroke="black" stroke-width="6.48"/>
<line x1="5254.443144" y1="1772.771404" x2="5228.852915" y2="1791.003334" stroke="black" stroke-width="6.48"/>
<line x1="5198.53963" y1="1683.307073" x2="5169.62524" y2="1698.01272" stroke="black" stroke-width="6.48"/>
<line x1="4865.788303" y1="1681.663936" x2="4873.342831" y2="1693.753711" stroke="black" stroke-width="6.48"/>
<line x1="4873.342831" y1="1693.753711" x2="4985.374734" y2="1623.74841" stroke="black" stroke-width="6.48"/>
<line x1="4977.820202" y1="1611.658634" x2="4985.374734" y2="1623.74841" stroke="black" stroke-width="6.48"/>
<line x1="4865.788303" y1="1681.663936" x2="4977.820202" y2="1611.658634" stroke="black" stroke-width="6.48"/>
<line x1="4973.284962" y1="1631.302938" x2="4992.826511" y2="1657.19552" stroke="black" stroke-width="6.48"/>
<line x1="4884.626621" y1="1686.70282" x2="4900.13825" y2="1715.113577" stroke="black" stroke-width="6.48"/>
<line x1="5108.741788" y1="2072.26427" x2="5101.18726" y2="2060.174498" stroke="black" stroke-width="6.48"/>
<line x1="5101.18726" y1="2060.174498" x2="5213.219159" y2="1990.169194" stroke="black" stroke-width="6.48"/>
<line x1="5220.77369" y1="2002.258966" x2="5213.219159" y2="1990.169194" stroke="black" stroke-width="6.48"/>
<line x1="5108.741788" y1="2072.26427" x2="5220.77369" y2="2002.258966" stroke="black" stroke-width="6.48"/>
<line x1="5201.129387" y1="1997.723722" x2="5186.42374" y2="1968.809328" stroke="black" stroke-width="6.48"/>
<line x1="5112.471046" y1="2053.123603" x2="5093.735479" y2="2026.727388" stroke="black" stroke-width="6.48"/>
<circle cx="5043.280997" cy="1841.961452" r="191.98080000000002" fill="none" stroke="black" stroke-width="6.48"/>
<line x1="3209.899813" y1="1074.665142" x2="3419.265017" y2="1074.665142" stroke="black" stroke-width="6.48"/>
<line x1="3419.265017" y1="1074.665142" x2="3419.265017" y2="743.450738" stroke="black" stroke-width="6.48"/>
<line x1="3419.265017" y1="743.450738" x2="3209.899813" y2="743.450738" stroke="black" stroke-width="6.48"/>
<line x1="3209.899813" y1="743.450738" x2="3209.899813" y2="1074.665142" stroke="black" stroke-width="6.48"/>
<line x1="3209.226613" y1="802.692338" x2="3419.938213" y2="802.692338" stroke="black" stroke-width="6.48"/>
<line x1="3419.938213" y1="802.692338" x2="3210.573013" y2="852.509142" stroke="black" stroke-width="6.48"/>
<line x1="3210.573013" y1="852.509142" x2="3242.213417" y2="898.959942" stroke="black" stroke-width="6.48"/>
<line x1="3242.213417" y1="898.959942" x2="3419.938213" y2="802.019142" stroke="black" stroke-width="6.48"/>
<line x1="3339.223412" y1="1203.420611" x2="3561.500578" y2="1203.420611" stroke="black" stroke-width="6.48"/>
<line x1="3561.500578" y1="1203.420611" x2="3561.500578" y2="1426.153262" stroke="black" stroke-width="6.48"/>
<line x1="3561.500578" y1="1426.153262" x2="3339.223412" y2="1426.153262" stroke="black" stroke-width="6.48"/>
<line x1="3339.223412" y1="1426.153262" x2="3339.223412" y2="1203.420611" stroke="black" stroke-width="6.48"/>
<line x1="3338.767926" y1="1202.965124" x2="3561.500578" y2="1426.153262" stroke="black" stroke-width="6.48"/>
<line x1="3339.223412" y1="1425.697776" x2="3561.045091" y2="1203.420611" stroke="black" stroke-width="6.48"/>
<line x1="2804.16708" y1="1127.69402" x2="2804.16708" y2="1153.148746" stroke="black" stroke-width="6.48"/>
<line x1="2804.16708" y1="1153.148746" x2="2853.834836" y2="1153.148746" stroke="black" stroke-width="6.48"/>
<line x1="2853.834836" y1="1153.148746" x2="2853.834836" y2="1127.69402" stroke="black" stroke-width="6.48"/>
<line x1="2853.834836" y1="1127.69402" x2="2804.16708" y2="1127.69402" stroke="black" stroke-width="6.48"/>
<line x1="2853.834836" y1="1402.108373" x2="3101.55277" y2="1402.108373" stroke="black" stroke-width="6.48"/>
<line x1="2802.925386" y1="1402.729218" x2="2802.925386" y2="1428.183943" stroke="black" stroke-width="6.48"/>
<line x1="2802.925386" y1="1428.183943" x2="2852.593142" y2="1428.183943" stroke="black" stroke-width="6.48"/>
<line x1="2852.593142" y1="1428.183943" x2="2852.593142" y2="1402.729218" stroke="black" stroke-width="6.48"/>
<line x1="2852.593142" y1="1402.729218" x2="2802.925386" y2="1402.729218" stroke="black" stroke-width="6.48"/>
<path d="m 2851.972294,1153.148746 a 248.95962699999984,248.95962699999984 0 0 1 248.95962699999973,248.95962699999995" fill="none" stroke="black" stroke-width="6.48"/>
<line x1="2909.839194" y1="1998.926633" x2="2838.634049" y2="2175.16577" stroke="black" stroke-width="6.48"/>
<line x1="2838.634049" y1="2175.16577" x2="3268.657544" y2="2348.906321" stroke="black" stroke-width="6.48"/>
<line x1="3268.657544" y1="2348.906321" x2="3339.86269" y2="2172.667183" stroke="black" stroke-width="6.48"/>
<line x1="3339.86269" y1="2172.667183" x2="3317.832799" y2="2163.76654" stroke="black" stroke-width="6.48"/>
<line x1="3317.832799" y1="2163.76654" x2="3255.172272" y2="2318.856984" stroke="black" stroke-width="6.48"/>
<line x1="3255.172272" y1="2318.856984" x2="2870.089754" y2="2163.273743" stroke="black" stroke-width="6.48"/>
<line x1="2870.089754" y1="2163.273743" x2="2932.750282" y2="2008.183302" stroke="black" stroke-width="6.48"/>
<line x1="2932.750282" y1="2008.183302" x2="2909.839194" y2="1998.926633" stroke="black" stroke-width="6.48"/>
<line x1="2930.614128" y1="2013.470474" x2="3315.696646" y2="2169.053716" stroke="black" stroke-width="6.48"/>
<line x1="3123.070812" y1="2090.202887" x2="3062.546442" y2="2240.006155" stroke="black" stroke-width="6.48"/>
<line x1="3424.482119" y1="1693.583777" x2="3655.814828" y2="1677.407418" stroke="black" stroke-width="6.48"/>
<line x1="3655.814828" y1="1677.407418" x2="3672.024336" y2="1909.214172" stroke="black" stroke-width="6.48"/>
<line x1="3672.024336" y1="1909.214172" x2="3440.691626" y2="1925.390527" stroke="black" stroke-width="6.48"/>
<line x1="3440.691626" y1="1925.390527" x2="3424.482119" y2="1693.583777" stroke="black" stroke-width="6.48"/>
<line x1="3423.974929" y1="1693.142885" x2="3672.024336" y2="1909.214172" stroke="black" stroke-width="6.48"/>
<line x1="3440.658474" y1="1924.916486" x2="3655.340784" y2="1677.440567" stroke="black" stroke-width="6.48"/>
<line x1="3111.239045" y1="1589.315879" x2="3092.650182" y2="1613.98413" stroke="black" stroke-width="6.48"/>
<line x1="3092.650182" y1="1613.98413" x2="3260.014798" y2="1740.102415" stroke="black" stroke-width="6.48"/>
<line x1="3260.014798" y1="1740.102415" x2="3278.60366" y2="1715.43416" stroke="black" stroke-width="6.48"/>
<line x1="3278.60366" y1="1715.43416" x2="3111.239045" y2="1589.315879" stroke="black" stroke-width="6.48"/>
<line x1="2988.552553" y1="1752.12635" x2="2969.96369" y2="1776.794605" stroke="black" stroke-width="6.48"/>
<line x1="2969.96369" y1="1776.794605" x2="3137.328302" y2="1902.912887" stroke="black" stroke-width="6.48"/>
<line x1="3137.328302" y1="1902.912887" x2="3155.917165" y2="1878.244636" stroke="black" stroke-width="6.48"/>
<line x1="3155.917165" y1="1878.244636" x2="2988.552553" y2="1752.12635" stroke="black" stroke-width="6.48"/>
<line x1="3092.936166" y1="1613.604622" x2="2988.552553" y2="1752.12635" stroke="black" stroke-width="6.48"/>
<line x1="3259.827742" y1="1738.771427" x2="3264.685855" y2="1775.753114" stroke="black" stroke-width="6.48"/>
<line x1="3191.760317" y1="1872.528566" x2="3154.872161" y2="1878.052183" stroke="black" stroke-width="6.48"/>
<line x1="3265.829784" y1="1774.235066" x2="3190.616388" y2="1874.046614" stroke="black" stroke-width="6.48"/>
<line x1="3128.324274" y1="1640.866489" x2="3023.940661" y2="1779.388218" stroke="black" stroke-width="6.48"/>
<line x1="6409.541884" y1="2029.439408" x2="6225.10807" y2="2075.423922" stroke="black" stroke-width="6.48"/>
<line x1="6225.10807" y1="2075.423922" x2="6337.310285" y2="2525.442426" stroke="black" stroke-width="6.48"/>
<line x1="6337.310285" y1="2525.442426" x2="6521.744099" y2="2479.457912" stroke="black" stroke-width="6.48"/>
<line x1="6521.744099" y1="2479.457912" x2="6515.996033" y2="2456.403682" stroke="black" stroke-width="6.48"/>
<line x1="6515.996033" y1="2456.403682" x2="6353.694281" y2="2496.870054" stroke="black" stroke-width="6.48"/>
<line x1="6353.694281" y1="2496.870054" x2="6253.218115" y2="2093.882177" stroke="black" stroke-width="6.48"/>
<line x1="6253.218115" y1="2093.882177" x2="6415.519871" y2="2053.415801" stroke="black" stroke-width="6.48"/>
<line x1="6415.519871" y1="2053.415801" x2="6409.541884" y2="2029.439408" stroke="black" stroke-width="6.48"/>
<line x1="6409.986854" y1="2054.795339" x2="6510.463016" y2="2457.78322" stroke="black" stroke-width="6.48"/>
<line x1="6461.032144" y1="2255.59827" x2="6304.263404" y2="2294.685108" stroke="black" stroke-width="6.48"/>
<line x1="5936.910916" y1="1729.945678" x2="5932.612138" y2="1760.533078" stroke="black" stroke-width="6.48"/>
<line x1="5932.612138" y1="1760.533078" x2="6140.135884" y2="1789.698636" stroke="black" stroke-width="6.48"/>
<line x1="6140.135884" y1="1789.698636" x2="6144.434662" y2="1759.11124" stroke="black" stroke-width="6.48"/>
<line x1="6144.434662" y1="1759.11124" x2="5936.910916" y2="1729.945678" stroke="black" stroke-width="6.48"/>
<line x1="5908.538977" y1="1931.822518" x2="5904.240196" y2="1962.409918" stroke="black" stroke-width="6.48"/>
<line x1="5904.240196" y1="1962.409918" x2="6111.763942" y2="1991.57548" stroke="black" stroke-width="6.48"/>
<line x1="6111.763942" y1="1991.57548" x2="6116.06272" y2="1960.98808" stroke="black" stroke-width="6.48"/>
<line x1="6116.06272" y1="1960.98808" x2="5908.538977" y2="1931.822518" stroke="black" stroke-width="6.48"/>
<line x1="5932.67827" y1="1760.062504" x2="5908.538977" y2="1931.822518" stroke="black" stroke-width="6.48"/>
<line x1="6139.327" y1="1788.62522" x2="6161.505084" y2="1818.614866" stroke="black" stroke-width="6.48"/>
<line x1="6144.640643" y1="1938.611588" x2="6115.055436" y2="1961.326382" stroke="black" stroke-width="6.48"/>
<line x1="6161.769623" y1="1816.732566" x2="6144.376104" y2="1940.493892" stroke="black" stroke-width="6.48"/>
<line x1="5976.84622" y1="1766.749774" x2="5952.706927" y2="1938.509788" stroke="black" stroke-width="6.48"/>
<line x1="1001.892175" y1="1903.502347" x2="1100.052997" y2="2088.116122" stroke="black" stroke-width="6.48"/>
<line x1="1100.052997" y1="2088.116122" x2="1304.806453" y2="1979.24684" stroke="black" stroke-width="6.48"/>
<line x1="1304.806453" y1="1979.24684" x2="1206.645628" y2="1794.633073" stroke="black" stroke-width="6.48"/>
<line x1="1206.645628" y1="1794.633073" x2="1001.892175" y2="1903.502347" stroke="black" stroke-width="6.48"/>
<line x1="1030.423396" y1="1888.332041" x2="1128.584218" y2="2072.945808" stroke="black" stroke-width="6.48"/>
<line x1="3840.070216" y1="1109.27808" x2="3832.075814" y2="1079.442565" stroke="black" stroke-width="6.48"/>
<line x1="3832.075814" y1="1079.442565" x2="3629.653304" y2="1133.681512" stroke="black" stroke-width="6.48"/>
<line x1="3629.653304" y1="1133.681512" x2="3637.647706" y2="1163.517026" stroke="black" stroke-width="6.48"/>
<line x1="3637.647706" y1="1163.517026" x2="3840.070216" y2="1109.27808" stroke="black" stroke-width="6.48"/>
<line x1="3787.307158" y1="912.363671" x2="3779.312753" y2="882.528149" stroke="black" stroke-width="6.48"/>
<line x1="3779.312753" y1="882.528149" x2="3576.890246" y2="936.767099" stroke="black" stroke-width="6.48"/>
<line x1="3576.890246" y1="936.767099" x2="3584.884651" y2="966.602617" stroke="black" stroke-width="6.48"/>
<line x1="3584.884651" y1="966.602617" x2="3787.307158" y2="912.363671" stroke="black" stroke-width="6.48"/>
<line x1="3832.198805" y1="1079.901572" x2="3787.307158" y2="912.363671" stroke="black" stroke-width="6.48"/>
<line x1="3630.817303" y1="1134.353542" x2="3598.68438" y2="1115.413596" stroke="black" stroke-width="6.48"/>
<line x1="3567.32172" y1="998.366566" x2="3585.679675" y2="965.897626" stroke="black" stroke-width="6.48"/>
<line x1="3599.176342" y1="1117.249625" x2="3566.829758" y2="996.530533" stroke="black" stroke-width="6.48"/>
<line x1="3788.929062" y1="1091.003699" x2="3744.037418" y2="923.465797" stroke="black" stroke-width="6.48"/>
</g>
</svg>
