<?xml version="1.0"?>
<svg xmlns:xlink="http://www.w3.org/1999/xlink" width="6775.2" height="2858.4">
<image x="0" y="0" width="6775.2" height="2858.4" xlink:href="groundfilled-01.png"/>
<g style="stroke-linecap:round">
<line x1="1285.950406" y1="795.178109" x2="1311.346069" y2="795.178109" stroke="black" stroke-width="6.48"/>
<line x1="1311.346069" y1="795.178109" x2="1311.346069" y2="745.625592" stroke="black" stroke-width="6.48"/>
<line x1="1311.346069" y1="745.625592" x2="1285.950406" y2="745.625592" stroke="black" stroke-width="6.48"/>
<line x1="1285.950406" y1="745.625592" x2="1285.950406" y2="795.178109" stroke="black" stroke-width="6.48"/>
<line x1="1559.728062" y1="745.625592" x2="1559.728062" y2="498.48241" stroke="black" stroke-width="6.48"/>
<line x1="1560.347471" y1="796.416923" x2="1585.743134" y2="796.416923" stroke="black" stroke-width="6.48"/>
<line x1="1585.743134" y1="796.416923" x2="1585.743134" y2="746.864406" stroke="black" stroke-width="6.48"/>
<line x1="1585.743134" y1="746.864406" x2="1560.347471" y2="746.864406" stroke="black" stroke-width="6.48"/>
<line x1="1560.347471" y1="746.864406" x2="1560.347471" y2="796.416923" stroke="black" stroke-width="6.48"/>
<path d="m 1311.346069,747.483811 a 248.38199299999997,248.38199299999997 0 0 1 248.38199299999997,-248.38199299999997" fill="none" stroke="black" stroke-width="6.48"/>
<line x1="320.532556" y1="771.34176" x2="320.532556" y2="366.736194" stroke="black" stroke-width="6.48"/>
<line x1="320.532556" y1="366.736194" x2="258.159283" y2="366.736194" stroke="black" stroke-width="6.48"/>
<line x1="258.159283" y1="366.736194" x2="258.159283" y2="771.34176" stroke="black" stroke-width="6.48"/>
<line x1="258.159283" y1="771.34176" x2="320.532556" y2="771.34176" stroke="black" stroke-width="6.48"/>
<line x1="258.979986" y1="733.589518" x2="319.711856" y2="733.589518" stroke="black" stroke-width="6.48"/>
<line x1="258.979986" y1="405.309139" x2="322.173958" y2="405.309139" stroke="black" stroke-width="6.48"/>
<line x1="287.704519" y1="734.410217" x2="287.704519" y2="406.129838" stroke="black" stroke-width="6.48"/>
<line x1="3901.945176" y1="1169.331426" x2="3901.945176" y2="1428.837066" stroke="black" stroke-width="6.48"/>
<line x1="3901.945176" y1="1428.837066" x2="3941.9501" y2="1428.837066" stroke="black" stroke-width="6.48"/>
<line x1="3941.9501" y1="1428.837066" x2="3941.9501" y2="1169.331426" stroke="black" stroke-width="6.48"/>
<line x1="3941.9501" y1="1169.331426" x2="3901.945176" y2="1169.331426" stroke="black" stroke-width="6.48"/>
<line x1="3941.423719" y1="1193.544936" x2="3902.471557" y2="1193.544936" stroke="black" stroke-width="6.48"/>
<line x1="3941.423719" y1="1404.097178" x2="3900.892414" y2="1404.097178" stroke="black" stroke-width="6.48"/>
<line x1="3923.000399" y1="1193.018555" x2="3923.000399" y2="1403.570797" stroke="black" stroke-width="6.48"/>
<line x1="334.430687" y1="1882.943946" x2="334.430687" y2="1457.437414" stroke="black" stroke-width="6.48"/>
<line x1="334.430687" y1="1457.437414" x2="258.323828" y2="1457.437414" stroke="black" stroke-width="6.48"/>
<line x1="258.323828" y1="1457.437414" x2="258.323828" y2="1882.943946" stroke="black" stroke-width="6.48"/>
<line x1="258.323828" y1="1882.943946" x2="334.430687" y2="1882.943946" stroke="black" stroke-width="6.48"/>
<line x1="334.430687" y1="1863.05238" x2="360.376207" y2="1863.05238" stroke="black" stroke-width="6.48"/>
<line x1="360.376207" y1="1863.05238" x2="360.376207" y2="1478.193829" stroke="black" stroke-width="6.48"/>
<line x1="334.430687" y1="1478.193829" x2="360.376207" y2="1478.193829" stroke="black" stroke-width="6.48"/>
<line x1="2747.905531" y1="904.670665" x2="2721.68303" y2="904.670665" stroke="black" stroke-width="6.48"/>
<line x1="2721.68303" y1="904.670665" x2="2721.68303" y2="955.836522" stroke="black" stroke-width="6.48"/>
<line x1="2721.68303" y1="955.836522" x2="2747.905531" y2="955.836522" stroke="black" stroke-width="6.48"/>
<line x1="2747.905531" y1="955.836522" x2="2747.905531" y2="904.670665" stroke="black" stroke-width="6.48"/>
<line x1="2465.214181" y1="955.836522" x2="2465.214181" y2="1211.026223" stroke="black" stroke-width="6.48"/>
<line x1="2464.574609" y1="903.39152" x2="2438.352108" y2="903.39152" stroke="black" stroke-width="6.48"/>
<line x1="2438.352108" y1="903.39152" x2="2438.352108" y2="954.557374" stroke="black" stroke-width="6.48"/>
<line x1="2438.352108" y1="954.557374" x2="2464.574609" y2="954.557374" stroke="black" stroke-width="6.48"/>
<line x1="2464.574609" y1="954.557374" x2="2464.574609" y2="903.39152" stroke="black" stroke-width="6.48"/>
<path d="m 2721.68303,953.917801 a 256.4688490000001,256.4688490000001 0 0 1 -256.4688490000003,256.46884899999986" fill="none" stroke="black" stroke-width="6.48"/>
<line x1="2420.532389" y1="1427.858834" x2="2395.136725" y2="1427.858834" stroke="black" stroke-width="6.48"/>
<line x1="2395.136725" y1="1427.858834" x2="2395.136725" y2="1477.411351" stroke="black" stroke-width="6.48"/>
<line x1="2395.136725" y1="1477.411351" x2="2420.532389" y2="1477.411351" stroke="black" stroke-width="6.48"/>
<line x1="2420.532389" y1="1477.411351" x2="2420.532389" y2="1427.858834" stroke="black" stroke-width="6.48"/>
<line x1="2146.754732" y1="1477.411351" x2="2146.754732" y2="1724.554534" stroke="black" stroke-width="6.48"/>
<line x1="2146.135324" y1="1426.62002" x2="2120.73966" y2="1426.62002" stroke="black" stroke-width="6.48"/>
<line x1="2120.73966" y1="1426.62002" x2="2120.73966" y2="1476.172537" stroke="black" stroke-width="6.48"/>
<line x1="2120.73966" y1="1476.172537" x2="2146.135324" y2="1476.172537" stroke="black" stroke-width="6.48"/>
<line x1="2146.135324" y1="1476.172537" x2="2146.135324" y2="1426.62002" stroke="black" stroke-width="6.48"/>
<path d="m 2395.136725,1475.553132 a 248.38199299999997,248.38199299999997 0 0 1 -248.38199299999997,248.38199299999997" fill="none" stroke="black" stroke-width="6.48"/>
<line x1="800.480675" y1="692.136151" x2="1193.312675" y2="692.136151" stroke="black" stroke-width="6.48"/>
<line x1="1193.312675" y1="692.136151" x2="1193.312675" y2="507.600151" stroke="black" stroke-width="6.48"/>
<line x1="1193.312675" y1="507.600151" x2="800.480675" y2="507.600151" stroke="black" stroke-width="6.48"/>
<line x1="800.480675" y1="507.600151" x2="800.480675" y2="692.136151" stroke="black" stroke-width="6.48"/>
<line x1="959.672675" y1="507.600151" x2="959.672675" y2="426.816151" stroke="black" stroke-width="6.48"/>
<line x1="959.672675" y1="426.816151" x2="881.264675" y2="426.816151" stroke="black" stroke-width="6.48"/>
<line x1="881.264675" y1="426.816151" x2="881.264675" y2="507.600151" stroke="black" stroke-width="6.48"/>
<line x1="882.056675" y1="444.240151" x2="959.672675" y2="444.240151" stroke="black" stroke-width="6.48"/>
<line x1="881.264675" y1="773.712151" x2="959.672675" y2="773.712151" stroke="black" stroke-width="6.48"/>
<line x1="959.672675" y1="773.712151" x2="959.672675" y2="692.136151" stroke="black" stroke-width="6.48"/>
<line x1="881.264675" y1="692.136151" x2="881.264675" y2="773.712151" stroke="black" stroke-width="6.48"/>
<line x1="882.056675" y1="756.288151" x2="959.672675" y2="756.288151" stroke="black" stroke-width="6.48"/>
<line x1="1110.944675" y1="507.600151" x2="1110.944675" y2="426.816151" stroke="black" stroke-width="6.48"/>
<line x1="1110.944675" y1="426.816151" x2="1032.536675" y2="426.816151" stroke="black" stroke-width="6.48"/>
<line x1="1032.536675" y1="426.816151" x2="1032.536675" y2="507.600151" stroke="black" stroke-width="6.48"/>
<line x1="1032.536675" y1="444.240151" x2="1110.944675" y2="444.240151" stroke="black" stroke-width="6.48"/>
<line x1="1032.536675" y1="773.712151" x2="1110.944675" y2="773.712151" stroke="black" stroke-width="6.48"/>
<line x1="1110.944675" y1="773.712151" x2="1110.944675" y2="692.136151" stroke="black" stroke-width="6.48"/>
<line x1="1032.536675" y1="692.136151" x2="1032.536675" y2="773.712151" stroke="black" stroke-width="6.48"/>
<line x1="1032.536675" y1="756.288151" x2="1110.944675" y2="756.288151" stroke="black" stroke-width="6.48"/>
<line x1="2032.924367" y1="1887.756422" x2="2032.924367" y2="1856.868422" stroke="black" stroke-width="6.48"/>
<line x1="2032.924367" y1="1856.868422" x2="1823.361167" y2="1856.868422" stroke="black" stroke-width="6.48"/>
<line x1="1823.361167" y1="1856.868422" x2="1823.361167" y2="1887.756422" stroke="black" stroke-width="6.48"/>
<line x1="1823.361167" y1="1887.756422" x2="2032.924367" y2="1887.756422" stroke="black" stroke-width="6.48"/>
<line x1="2032.924367" y1="1683.895622" x2="2032.924367" y2="1653.007622" stroke="black" stroke-width="6.48"/>
<line x1="2032.924367" y1="1653.007622" x2="1823.361167" y2="1653.007622" stroke="black" stroke-width="6.48"/>
<line x1="1823.361167" y1="1653.007622" x2="1823.361167" y2="1683.895622" stroke="black" stroke-width="6.48"/>
<line x1="1823.361167" y1="1683.895622" x2="2032.924367" y2="1683.895622" stroke="black" stroke-width="6.48"/>
<line x1="2032.924367" y1="1857.343622" x2="2032.924367" y2="1683.895622" stroke="black" stroke-width="6.48"/>
<line x1="1824.311567" y1="1857.818822" x2="1798.175567" y2="1831.207622" stroke="black" stroke-width="6.48"/>
<line x1="1798.175567" y1="1710.031622" x2="1824.311567" y2="1683.420422" stroke="black" stroke-width="6.48"/>
<line x1="1798.175567" y1="1833.108422" x2="1798.175567" y2="1708.130822" stroke="black" stroke-width="6.48"/>
<line x1="1988.255567" y1="1856.868422" x2="1988.255567" y2="1683.420422" stroke="black" stroke-width="6.48"/>
<line x1="1485.415969" y1="209.267824" x2="1707.693134" y2="209.267824" stroke="black" stroke-width="6.48"/>
<line x1="1707.693134" y1="209.267824" x2="1707.693134" y2="432.000475" stroke="black" stroke-width="6.48"/>
<line x1="1707.693134" y1="432.000475" x2="1485.415969" y2="432.000475" stroke="black" stroke-width="6.48"/>
<line x1="1485.415969" y1="432.000475" x2="1485.415969" y2="209.267824" stroke="black" stroke-width="6.48"/>
<line x1="1484.960483" y1="208.812337" x2="1707.693134" y2="432.000475" stroke="black" stroke-width="6.48"/>
<line x1="1485.415969" y1="431.544989" x2="1707.237648" y2="209.267824" stroke="black" stroke-width="6.48"/>
<line x1="2761.020558" y1="2194.614338" x2="2761.020558" y2="1803.366338" stroke="black" stroke-width="6.48"/>
<line x1="2761.020558" y1="1803.366338" x2="2586.780558" y2="1803.366338" stroke="black" stroke-width="6.48"/>
<line x1="2586.780558" y1="1803.366338" x2="2586.780558" y2="2194.614338" stroke="black" stroke-width="6.48"/>
<line x1="2586.780558" y1="2194.614338" x2="2761.020558" y2="2194.614338" stroke="black" stroke-width="6.48"/>
<line x1="2613.708558" y1="1878.606338" x2="2613.708558" y2="2162.934338" stroke="black" stroke-width="6.48"/>
<line x1="2613.708558" y1="2162.934338" x2="2731.716558" y2="2162.934338" stroke="black" stroke-width="6.48"/>
<line x1="2731.716558" y1="2162.934338" x2="2731.716558" y2="1873.062338" stroke="black" stroke-width="6.48"/>
<path d="m 2613.453134,1879.416911 a 63.3599990854681,63.3599990854681 0 0 1 119.3743300000001,-4.293814000000111" fill="none" stroke="black" stroke-width="6.48"/>
<line x1="2105.726447" y1="1896.172974" x2="2105.726447" y2="2079.916974" stroke="black" stroke-width="6.48"/>
<line x1="2105.726447" y1="2079.916974" x2="2056.622447" y2="2079.916974" stroke="black" stroke-width="6.48"/>
<line x1="2056.622447" y1="1896.172974" x2="2056.622447" y2="2079.916974" stroke="black" stroke-width="6.48"/>
<line x1="2105.726447" y1="1896.172974" x2="2056.622447" y2="1896.172974" stroke="black" stroke-width="6.48"/>
<line x1="2133.446447" y1="1937.752974" x2="2105.726447" y2="1937.752974" stroke="black" stroke-width="6.48"/>
<line x1="2105.726447" y1="2036.752974" x2="2135.030447" y2="2036.752974" stroke="black" stroke-width="6.48"/>
<circle cx="2178.590447" cy="1986.460974" r="66.52800000000002" fill="none" stroke="black" stroke-width="6.48"/>
<circle cx="2178.590447" cy="1986.460974" r="57.02400000000001" fill="none" stroke="black" stroke-width="6.48"/>
<line x1="939.53767" y1="210.048181" x2="1210.08487" y2="210.048181" stroke="black" stroke-width="6.48"/>
<line x1="1210.08487" y1="210.048181" x2="1210.08487" y2="341.995381" stroke="black" stroke-width="6.48"/>
<line x1="939.53767" y1="341.995381" x2="1210.08487" y2="341.995381" stroke="black" stroke-width="6.48"/>
<line x1="939.53767" y1="210.048181" x2="939.53767" y2="341.995381" stroke="black" stroke-width="6.48"/>
<line x1="946.19047" y1="216.700981" x2="1084.23607" y2="216.700981" stroke="black" stroke-width="6.48"/>
<line x1="1084.23607" y1="216.700981" x2="1084.23607" y2="334.788181" stroke="black" stroke-width="6.48"/>
<line x1="946.19047" y1="334.788181" x2="1084.23607" y2="334.788181" stroke="black" stroke-width="6.48"/>
<line x1="946.19047" y1="216.700981" x2="946.19047" y2="334.788181" stroke="black" stroke-width="6.48"/>
<line x1="1098.65047" y1="224.462581" x2="1195.67047" y2="224.462581" stroke="black" stroke-width="6.48"/>
<line x1="1098.65047" y1="244.975381" x2="1195.67047" y2="244.975381" stroke="black" stroke-width="6.48"/>
<line x1="1099.20487" y1="266.042581" x2="1196.22487" y2="266.042581" stroke="black" stroke-width="6.48"/>
<line x1="1099.20487" y1="286.555381" x2="1196.22487" y2="286.555381" stroke="black" stroke-width="6.48"/>
<line x1="1098.65047" y1="307.068181" x2="1195.67047" y2="307.068181" stroke="black" stroke-width="6.48"/>
<line x1="1098.65047" y1="327.580981" x2="1195.67047" y2="327.580981" stroke="black" stroke-width="6.48"/>
<line x1="998.85847" y1="334.788181" x2="998.85847" y2="320.928181" stroke="black" stroke-width="6.48"/>
<line x1="998.85847" y1="320.928181" x2="1033.23127" y2="320.928181" stroke="black" stroke-width="6.48"/>
<line x1="1033.23127" y1="320.928181" x2="1033.23127" y2="334.233781" stroke="black" stroke-width="6.48"/>
<circle cx="1068.71287" cy="231.669781" r="8.316000000000003" fill="none" stroke="black" stroke-width="6.48"/>
<line x1="1124.956462" y1="1398.720636" x2="1003.564699" y2="1025.115199" stroke="black" stroke-width="6.48"/>
<line x1="1003.564699" y1="1025.115199" x2="828.06053" y2="1082.139959" stroke="black" stroke-width="6.48"/>
<line x1="828.06053" y1="1082.139959" x2="949.452296" y2="1455.745396" stroke="black" stroke-width="6.48"/>
<line x1="949.452296" y1="1455.745396" x2="1124.956462" y2="1398.720636" stroke="black" stroke-width="6.48"/>
<line x1="900.259265" y1="1304.344807" x2="823.429112" y2="1329.308435" stroke="black" stroke-width="6.48"/>
<line x1="823.429112" y1="1329.308435" x2="847.65852" y2="1403.878871" stroke="black" stroke-width="6.48"/>
<line x1="847.65852" y1="1403.878871" x2="924.488665" y2="1378.915247" stroke="black" stroke-width="6.48"/>
<line x1="863.984988" y1="1397.741324" x2="840.000323" y2="1323.924124" stroke="black" stroke-width="6.48"/>
<line x1="1177.576218" y1="1296.682117" x2="1153.346818" y2="1222.111678" stroke="black" stroke-width="6.48"/>
<line x1="1153.346818" y1="1222.111678" x2="1075.76343" y2="1247.320048" stroke="black" stroke-width="6.48"/>
<line x1="1099.992834" y1="1321.890487" x2="1177.576218" y2="1296.682117" stroke="black" stroke-width="6.48"/>
<line x1="1160.760269" y1="1301.31319" x2="1136.775607" y2="1227.495989" stroke="black" stroke-width="6.48"/>
<line x1="853.513646" y1="1160.476585" x2="776.683494" y2="1185.440216" stroke="black" stroke-width="6.48"/>
<line x1="776.683494" y1="1185.440216" x2="800.912898" y2="1260.010656" stroke="black" stroke-width="6.48"/>
<line x1="800.912898" y1="1260.010656" x2="877.743047" y2="1235.047025" stroke="black" stroke-width="6.48"/>
<line x1="817.484108" y1="1254.626341" x2="793.254704" y2="1180.055902" stroke="black" stroke-width="6.48"/>
<line x1="1130.8306" y1="1152.813895" x2="1106.601199" y2="1078.243456" stroke="black" stroke-width="6.48"/>
<line x1="1106.601199" y1="1078.243456" x2="1029.017808" y2="1103.451826" stroke="black" stroke-width="6.48"/>
<line x1="1053.247216" y1="1178.022265" x2="1130.8306" y2="1152.813895" stroke="black" stroke-width="6.48"/>
<line x1="1114.259393" y1="1158.198206" x2="1090.029989" y2="1083.627767" stroke="black" stroke-width="6.48"/>
<line x1="2044.889399" y1="955.822399" x2="2267.166564" y2="955.822399" stroke="black" stroke-width="6.48"/>
<line x1="2267.166564" y1="955.822399" x2="2267.166564" y2="1178.555051" stroke="black" stroke-width="6.48"/>
<line x1="2267.166564" y1="1178.555051" x2="2044.889399" y2="1178.555051" stroke="black" stroke-width="6.48"/>
<line x1="2044.889399" y1="1178.555051" x2="2044.889399" y2="955.822399" stroke="black" stroke-width="6.48"/>
<line x1="2044.433912" y1="955.366913" x2="2267.166564" y2="1178.555051" stroke="black" stroke-width="6.48"/>
<line x1="2044.889399" y1="1178.099564" x2="2266.711078" y2="955.822399" stroke="black" stroke-width="6.48"/>
<line x1="333.766206" y1="1375.361078" x2="333.766206" y2="949.854546" stroke="black" stroke-width="6.48"/>
<line x1="333.766206" y1="949.854546" x2="257.659348" y2="949.854546" stroke="black" stroke-width="6.48"/>
<line x1="257.659348" y1="949.854546" x2="257.659348" y2="1375.361078" stroke="black" stroke-width="6.48"/>
<line x1="257.659348" y1="1375.361078" x2="333.766206" y2="1375.361078" stroke="black" stroke-width="6.48"/>
<line x1="333.766206" y1="1355.469512" x2="359.711726" y2="1355.469512" stroke="black" stroke-width="6.48"/>
<line x1="359.711726" y1="1355.469512" x2="359.711726" y2="970.610962" stroke="black" stroke-width="6.48"/>
<line x1="333.766206" y1="970.610962" x2="359.711726" y2="970.610962" stroke="black" stroke-width="6.48"/>
<line x1="3874.406537" y1="1514.726719" x2="3874.406537" y2="1940.260162" stroke="black" stroke-width="6.48"/>
<line x1="3874.406537" y1="1940.260162" x2="3940.00601" y2="1940.260162" stroke="black" stroke-width="6.48"/>
<line x1="3940.00601" y1="1940.260162" x2="3940.00601" y2="1514.726719" stroke="black" stroke-width="6.48"/>
<line x1="3940.00601" y1="1514.726719" x2="3874.406537" y2="1514.726719" stroke="black" stroke-width="6.48"/>
<line x1="3939.14286" y1="1554.431663" x2="3875.269687" y2="1554.431663" stroke="black" stroke-width="6.48"/>
<line x1="3939.14286" y1="1899.692064" x2="3872.680232" y2="1899.692064" stroke="black" stroke-width="6.48"/>
<line x1="3908.932574" y1="1553.568512" x2="3908.932574" y2="1898.828914" stroke="black" stroke-width="6.48"/>
<line x1="4838.022212" y1="1491.37178" x2="4865.42479" y2="1883.246861" stroke="black" stroke-width="6.48"/>
<line x1="4865.42479" y1="1883.246861" x2="5049.511268" y2="1870.37428" stroke="black" stroke-width="6.48"/>
<line x1="5049.511268" y1="1870.37428" x2="5022.108695" y2="1478.499199" stroke="black" stroke-width="6.48"/>
<line x1="5022.108695" y1="1478.499199" x2="4838.022212" y2="1491.37178" stroke="black" stroke-width="6.48"/>
<line x1="5033.213366" y1="1637.303414" x2="5113.800576" y2="1631.668208" stroke="black" stroke-width="6.48"/>
<line x1="5113.800576" y1="1631.668208" x2="5108.331114" y2="1553.451206" stroke="black" stroke-width="6.48"/>
<line x1="5108.331114" y1="1553.451206" x2="5027.743901" y2="1559.086412" stroke="black" stroke-width="6.48"/>
<line x1="5091.004807" y1="1555.456712" x2="5096.419024" y2="1632.883648" stroke="black" stroke-width="6.48"/>
<line x1="4762.280135" y1="1577.649449" x2="4767.7496" y2="1655.866451" stroke="black" stroke-width="6.48"/>
<line x1="4767.7496" y1="1655.866451" x2="4849.126884" y2="1650.175996" stroke="black" stroke-width="6.48"/>
<line x1="4843.657422" y1="1571.958994" x2="4762.280135" y2="1577.649449" stroke="black" stroke-width="6.48"/>
<line x1="4779.71694" y1="1577.22408" x2="4785.131156" y2="1654.651015" stroke="black" stroke-width="6.48"/>
<line x1="5043.765568" y1="1788.206926" x2="5124.352781" y2="1782.57172" stroke="black" stroke-width="6.48"/>
<line x1="5124.352781" y1="1782.57172" x2="5118.883319" y2="1704.354718" stroke="black" stroke-width="6.48"/>
<line x1="5118.883319" y1="1704.354718" x2="5038.296102" y2="1709.989924" stroke="black" stroke-width="6.48"/>
<line x1="5101.501759" y1="1705.570153" x2="5106.971225" y2="1783.787152" stroke="black" stroke-width="6.48"/>
<line x1="4772.832336" y1="1728.552956" x2="4778.301802" y2="1806.769958" stroke="black" stroke-width="6.48"/>
<line x1="4778.301802" y1="1806.769958" x2="4859.679085" y2="1801.079507" stroke="black" stroke-width="6.48"/>
<line x1="4854.20962" y1="1722.862505" x2="4772.832336" y2="1728.552956" stroke="black" stroke-width="6.48"/>
<line x1="4790.213896" y1="1727.337521" x2="4795.683358" y2="1805.554526" stroke="black" stroke-width="6.48"/>
<line x1="3316.884678" y1="1075.018226" x2="3526.249882" y2="1075.018226" stroke="black" stroke-width="6.48"/>
<line x1="3526.249882" y1="1075.018226" x2="3526.249882" y2="743.803823" stroke="black" stroke-width="6.48"/>
<line x1="3526.249882" y1="743.803823" x2="3316.884678" y2="743.803823" stroke="black" stroke-width="6.48"/>
<line x1="3316.884678" y1="743.803823" x2="3316.884678" y2="1075.018226" stroke="black" stroke-width="6.48"/>
<line x1="3316.211478" y1="803.045423" x2="3526.923078" y2="803.045423" stroke="black" stroke-width="6.48"/>
<line x1="3526.923078" y1="803.045423" x2="3317.557878" y2="852.862226" stroke="black" stroke-width="6.48"/>
<line x1="3317.557878" y1="852.862226" x2="3349.198282" y2="899.313026" stroke="black" stroke-width="6.48"/>
<line x1="3349.198282" y1="899.313026" x2="3526.923078" y2="802.372226" stroke="black" stroke-width="6.48"/>
<line x1="3497.360702" y1="1202.78038" x2="3719.637868" y2="1202.78038" stroke="black" stroke-width="6.48"/>
<line x1="3719.637868" y1="1202.78038" x2="3719.637868" y2="1425.513031" stroke="black" stroke-width="6.48"/>
<line x1="3719.637868" y1="1425.513031" x2="3497.360702" y2="1425.513031" stroke="black" stroke-width="6.48"/>
<line x1="3497.360702" y1="1425.513031" x2="3497.360702" y2="1202.78038" stroke="black" stroke-width="6.48"/>
<line x1="3496.905216" y1="1202.324893" x2="3719.637868" y2="1425.513031" stroke="black" stroke-width="6.48"/>
<line x1="3497.360702" y1="1425.057545" x2="3719.182381" y2="1202.78038" stroke="black" stroke-width="6.48"/>
<line x1="2804.16708" y1="1127.69402" x2="2804.16708" y2="1153.148746" stroke="black" stroke-width="6.48"/>
<line x1="2804.16708" y1="1153.148746" x2="2853.834836" y2="1153.148746" stroke="black" stroke-width="6.48"/>
<line x1="2853.834836" y1="1153.148746" x2="2853.834836" y2="1127.69402" stroke="black" stroke-width="6.48"/>
<line x1="2853.834836" y1="1127.69402" x2="2804.16708" y2="1127.69402" stroke="black" stroke-width="6.48"/>
<line x1="2853.834836" y1="1402.108373" x2="3101.55277" y2="1402.108373" stroke="black" stroke-width="6.48"/>
<line x1="2802.925386" y1="1402.729218" x2="2802.925386" y2="1428.183943" stroke="black" stroke-width="6.48"/>
<line x1="2802.925386" y1="1428.183943" x2="2852.593142" y2="1428.183943" stroke="black" stroke-width="6.48"/>
<line x1="2852.593142" y1="1428.183943" x2="2852.593142" y2="1402.729218" stroke="black" stroke-width="6.48"/>
<line x1="2852.593142" y1="1402.729218" x2="2802.925386" y2="1402.729218" stroke="black" stroke-width="6.48"/>
<path d="m 2851.972294,1153.148746 a 248.95962699999984,248.95962699999984 0 0 1 248.95962699999973,248.95962699999995" fill="none" stroke="black" stroke-width="6.48"/>
<line x1="2942.971981" y1="2014.915133" x2="2871.766836" y2="2191.15427" stroke="black" stroke-width="6.48"/>
<line x1="2871.766836" y1="2191.15427" x2="3301.790332" y2="2364.894821" stroke="black" stroke-width="6.48"/>
<line x1="3301.790332" y1="2364.894821" x2="3372.995477" y2="2188.655683" stroke="black" stroke-width="6.48"/>
<line x1="3372.995477" y1="2188.655683" x2="3350.965586" y2="2179.75504" stroke="black" stroke-width="6.48"/>
<line x1="3350.965586" y1="2179.75504" x2="3288.305059" y2="2334.845484" stroke="black" stroke-width="6.48"/>
<line x1="3288.305059" y1="2334.845484" x2="2903.222542" y2="2179.262243" stroke="black" stroke-width="6.48"/>
<line x1="2903.222542" y1="2179.262243" x2="2965.883069" y2="2024.171802" stroke="black" stroke-width="6.48"/>
<line x1="2965.883069" y1="2024.171802" x2="2942.971981" y2="2014.915133" stroke="black" stroke-width="6.48"/>
<line x1="2963.746915" y1="2029.458974" x2="3348.829433" y2="2185.042216" stroke="black" stroke-width="6.48"/>
<line x1="3156.203599" y1="2106.191387" x2="3095.679229" y2="2255.994655" stroke="black" stroke-width="6.48"/>
<line x1="3693.877672" y1="1876.068659" x2="3473.329946" y2="1947.728959" stroke="black" stroke-width="6.48"/>
<line x1="3473.329946" y1="1947.728959" x2="3401.522802" y2="1726.729294" stroke="black" stroke-width="6.48"/>
<line x1="3401.522802" y1="1726.729294" x2="3622.070527" y2="1655.06899" stroke="black" stroke-width="6.48"/>
<line x1="3622.070527" y1="1655.06899" x2="3693.877672" y2="1876.068659" stroke="black" stroke-width="6.48"/>
<line x1="3694.47646" y1="1876.373755" x2="3401.522802" y2="1726.729294" stroke="black" stroke-width="6.48"/>
<line x1="3622.217375" y1="1655.520934" x2="3473.78189" y2="1947.582112" stroke="black" stroke-width="6.48"/>
<line x1="3100.358268" y1="1589.315879" x2="3083.535454" y2="1615.220741" stroke="black" stroke-width="6.48"/>
<line x1="3083.535454" y1="1615.220741" x2="3259.289945" y2="1729.357034" stroke="black" stroke-width="6.48"/>
<line x1="3259.289945" y1="1729.357034" x2="3276.112752" y2="1703.45218" stroke="black" stroke-width="6.48"/>
<line x1="3276.112752" y1="1703.45218" x2="3100.358268" y2="1589.315879" stroke="black" stroke-width="6.48"/>
<line x1="2989.327716" y1="1760.287936" x2="2972.504909" y2="1786.19279" stroke="black" stroke-width="6.48"/>
<line x1="2972.504909" y1="1786.19279" x2="3148.259393" y2="1900.329088" stroke="black" stroke-width="6.48"/>
<line x1="3148.259393" y1="1900.329088" x2="3165.082207" y2="1874.424233" stroke="black" stroke-width="6.48"/>
<line x1="3165.082207" y1="1874.424233" x2="2989.327716" y2="1760.287936" stroke="black" stroke-width="6.48"/>
<line x1="3083.794268" y1="1614.822199" x2="2989.327716" y2="1760.287936" stroke="black" stroke-width="6.48"/>
<line x1="3259.010495" y1="1728.04234" x2="3266.436492" y2="1764.595055" stroke="black" stroke-width="6.48"/>
<line x1="3200.439312" y1="1866.221798" x2="3164.02632" y2="1874.305145" stroke="black" stroke-width="6.48"/>
<line x1="3267.47174" y1="1763.00091" x2="3199.40406" y2="1867.815943" stroke="black" stroke-width="6.48"/>
<line x1="3120.997864" y1="1639.549109" x2="3026.531315" y2="1785.014842" stroke="black" stroke-width="6.48"/>
<line x1="1113.893244" y1="1976.848517" x2="1138.882158" y2="1995.004033" stroke="black" stroke-width="6.48"/>
<line x1="1138.882158" y1="1995.004033" x2="1262.060356" y2="1825.463873" stroke="black" stroke-width="6.48"/>
<line x1="1262.060356" y1="1825.463873" x2="1237.071445" y2="1807.308356" stroke="black" stroke-width="6.48"/>
<line x1="1237.071445" y1="1807.308356" x2="1113.893244" y2="1976.848517" stroke="black" stroke-width="6.48"/>
<line x1="1278.820066" y1="2096.674927" x2="1303.808976" y2="2114.830447" stroke="black" stroke-width="6.48"/>
<line x1="1303.808976" y1="2114.830447" x2="1426.987177" y2="1945.290287" stroke="black" stroke-width="6.48"/>
<line x1="1426.987177" y1="1945.290287" x2="1401.998263" y2="1927.134767" stroke="black" stroke-width="6.48"/>
<line x1="1401.998263" y1="1927.134767" x2="1278.820066" y2="2096.674927" stroke="black" stroke-width="6.48"/>
<line x1="1138.49771" y1="1994.724716" x2="1278.820066" y2="2096.674927" stroke="black" stroke-width="6.48"/>
<line x1="1260.732834" y1="1825.674131" x2="1297.6241" y2="1820.171344" stroke="black" stroke-width="6.48"/>
<line x1="1395.657533" y1="1891.396832" x2="1401.824077" y2="1928.182975" stroke="black" stroke-width="6.48"/>
<line x1="1296.086324" y1="1819.05408" x2="1397.195309" y2="1892.514096" stroke="black" stroke-width="6.48"/>
<line x1="1165.137829" y1="1958.866218" x2="1305.460181" y2="2060.816429" stroke="black" stroke-width="6.48"/>
<line x1="5835.30394" y1="1547.066041" x2="5824.739621" y2="1576.091264" stroke="black" stroke-width="6.48"/>
<line x1="5824.739621" y1="1576.091264" x2="6021.664614" y2="1647.766102" stroke="black" stroke-width="6.48"/>
<line x1="6021.664614" y1="1647.766102" x2="6032.228929" y2="1618.740875" stroke="black" stroke-width="6.48"/>
<line x1="6032.228929" y1="1618.740875" x2="5835.30394" y2="1547.066041" stroke="black" stroke-width="6.48"/>
<line x1="5765.579438" y1="1738.632532" x2="5755.015123" y2="1767.657755" stroke="black" stroke-width="6.48"/>
<line x1="5755.015123" y1="1767.657755" x2="5951.940113" y2="1839.332588" stroke="black" stroke-width="6.48"/>
<line x1="5951.940113" y1="1839.332588" x2="5962.504432" y2="1810.307365" stroke="black" stroke-width="6.48"/>
<line x1="5962.504432" y1="1810.307365" x2="5765.579438" y2="1738.632532" stroke="black" stroke-width="6.48"/>
<line x1="5824.902146" y1="1575.644724" x2="5765.579438" y2="1738.632532" stroke="black" stroke-width="6.48"/>
<line x1="6021.096588" y1="1646.547962" x2="6036.554826" y2="1680.493345" stroke="black" stroke-width="6.48"/>
<line x1="5995.11019" y1="1794.36154" x2="5961.448822" y2="1810.428851" stroke="black" stroke-width="6.48"/>
<line x1="6037.204936" y1="1678.70718" x2="5994.46008" y2="1796.147708" stroke="black" stroke-width="6.48"/>
<line x1="5866.714559" y1="1591.368894" x2="5807.391851" y2="1754.356698" stroke="black" stroke-width="6.48"/>
</g>
</svg>
