<?xml version="1.0"?>
<svg xmlns:xlink="http://www.w3.org/1999/xlink" width="6775.2" height="2858.4">
<image x="0" y="0" width="6775.2" height="2858.4" xlink:href="groundfilled-01.png"/>
<g style="stroke-linecap:round">
<line x1="1285.950406" y1="795.178109" x2="1311.346069" y2="795.178109" stroke="black" stroke-width="6.48"/>
<line x1="1311.346069" y1="795.178109" x2="1311.346069" y2="745.625592" stroke="black" stroke-width="6.48"/>
<line x1="1311.346069" y1="745.625592" x2="1285.950406" y2="745.625592" stroke="black" stroke-width="6.48"/>
<line x1="1285.950406" y1="745.625592" x2="1285.950406" y2="795.178109" stroke="black" stroke-width="6.48"/>
<line x1="1559.728062" y1="745.625592" x2="1559.728062" y2="498.48241" stroke="black" stroke-width="6.48"/>
<line x1="1560.347471" y1="796.416923" x2="1585.743134" y2="796.416923" stroke="black" stroke-width="6.48"/>
<line x1="1585.743134" y1="796.416923" x2="1585.743134" y2="746.864406" stroke="black" stroke-width="6.48"/>
<line x1="1585.743134" y1="746.864406" x2="1560.347471" y2="746.864406" stroke="black" stroke-width="6.48"/>
<line x1="1560.347471" y1="746.864406" x2="1560.347471" y2="796.416923" stroke="black" stroke-width="6.48"/>
<path d="m 1311.346069,747.483811 a 248.38199299999997,248.38199299999997 0 0 1 248.38199299999997,-248.38199299999997" fill="none" stroke="black" stroke-width="6.48"/>
<line x1="330.523178" y1="771.328966" x2="330.523178" y2="366.748985" stroke="black" stroke-width="6.48"/>
<line x1="330.523178" y1="366.748985" x2="258.15928" y2="366.748985" stroke="black" stroke-width="6.48"/>
<line x1="258.15928" y1="366.748985" x2="258.15928" y2="771.328966" stroke="black" stroke-width="6.48"/>
<line x1="258.15928" y1="771.328966" x2="330.523178" y2="771.328966" stroke="black" stroke-width="6.48"/>
<line x1="330.523178" y1="752.415674" x2="355.19269" y2="752.415674" stroke="black" stroke-width="6.48"/>
<line x1="355.19269" y1="752.415674" x2="355.19269" y2="386.484595" stroke="black" stroke-width="6.48"/>
<line x1="330.523178" y1="386.484595" x2="355.19269" y2="386.484595" stroke="black" stroke-width="6.48"/>
<line x1="3901.945176" y1="1169.331426" x2="3901.945176" y2="1428.837066" stroke="black" stroke-width="6.48"/>
<line x1="3901.945176" y1="1428.837066" x2="3941.9501" y2="1428.837066" stroke="black" stroke-width="6.48"/>
<line x1="3941.9501" y1="1428.837066" x2="3941.9501" y2="1169.331426" stroke="black" stroke-width="6.48"/>
<line x1="3941.9501" y1="1169.331426" x2="3901.945176" y2="1169.331426" stroke="black" stroke-width="6.48"/>
<line x1="3941.423719" y1="1193.544936" x2="3902.471557" y2="1193.544936" stroke="black" stroke-width="6.48"/>
<line x1="3941.423719" y1="1404.097178" x2="3900.892414" y2="1404.097178" stroke="black" stroke-width="6.48"/>
<line x1="3923.000399" y1="1193.018555" x2="3923.000399" y2="1403.570797" stroke="black" stroke-width="6.48"/>
<line x1="323.923298" y1="1882.957399" x2="323.923298" y2="1457.423957" stroke="black" stroke-width="6.48"/>
<line x1="323.923298" y1="1457.423957" x2="258.323825" y2="1457.423957" stroke="black" stroke-width="6.48"/>
<line x1="258.323825" y1="1457.423957" x2="258.323825" y2="1882.957399" stroke="black" stroke-width="6.48"/>
<line x1="258.323825" y1="1882.957399" x2="323.923298" y2="1882.957399" stroke="black" stroke-width="6.48"/>
<line x1="259.186975" y1="1843.252456" x2="323.060148" y2="1843.252456" stroke="black" stroke-width="6.48"/>
<line x1="259.186975" y1="1497.992054" x2="325.649603" y2="1497.992054" stroke="black" stroke-width="6.48"/>
<line x1="289.397261" y1="1844.115606" x2="289.397261" y2="1498.855205" stroke="black" stroke-width="6.48"/>
<line x1="2747.905531" y1="904.670665" x2="2721.68303" y2="904.670665" stroke="black" stroke-width="6.48"/>
<line x1="2721.68303" y1="904.670665" x2="2721.68303" y2="955.836522" stroke="black" stroke-width="6.48"/>
<line x1="2721.68303" y1="955.836522" x2="2747.905531" y2="955.836522" stroke="black" stroke-width="6.48"/>
<line x1="2747.905531" y1="955.836522" x2="2747.905531" y2="904.670665" stroke="black" stroke-width="6.48"/>
<line x1="2465.214181" y1="955.836522" x2="2465.214181" y2="1211.026223" stroke="black" stroke-width="6.48"/>
<line x1="2464.574609" y1="903.39152" x2="2438.352108" y2="903.39152" stroke="black" stroke-width="6.48"/>
<line x1="2438.352108" y1="903.39152" x2="2438.352108" y2="954.557374" stroke="black" stroke-width="6.48"/>
<line x1="2438.352108" y1="954.557374" x2="2464.574609" y2="954.557374" stroke="black" stroke-width="6.48"/>
<line x1="2464.574609" y1="954.557374" x2="2464.574609" y2="903.39152" stroke="black" stroke-width="6.48"/>
<path d="m 2721.68303,953.917801 a 256.4688490000001,256.4688490000001 0 0 1 -256.4688490000003,256.46884899999986" fill="none" stroke="black" stroke-width="6.48"/>
<line x1="2420.532389" y1="1427.858834" x2="2395.136725" y2="1427.858834" stroke="black" stroke-width="6.48"/>
<line x1="2395.136725" y1="1427.858834" x2="2395.136725" y2="1477.411351" stroke="black" stroke-width="6.48"/>
<line x1="2395.136725" y1="1477.411351" x2="2420.532389" y2="1477.411351" stroke="black" stroke-width="6.48"/>
<line x1="2420.532389" y1="1477.411351" x2="2420.532389" y2="1427.858834" stroke="black" stroke-width="6.48"/>
<line x1="2146.754732" y1="1477.411351" x2="2146.754732" y2="1724.554534" stroke="black" stroke-width="6.48"/>
<line x1="2146.135324" y1="1426.62002" x2="2120.73966" y2="1426.62002" stroke="black" stroke-width="6.48"/>
<line x1="2120.73966" y1="1426.62002" x2="2120.73966" y2="1476.172537" stroke="black" stroke-width="6.48"/>
<line x1="2120.73966" y1="1476.172537" x2="2146.135324" y2="1476.172537" stroke="black" stroke-width="6.48"/>
<line x1="2146.135324" y1="1476.172537" x2="2146.135324" y2="1426.62002" stroke="black" stroke-width="6.48"/>
<path d="m 2395.136725,1475.553132 a 248.38199299999997,248.38199299999997 0 0 1 -248.38199299999997,248.38199299999997" fill="none" stroke="black" stroke-width="6.48"/>
<line x1="592.429849" y1="541.339351" x2="824.327449" y2="541.339351" stroke="black" stroke-width="6.48"/>
<line x1="824.327449" y1="541.339351" x2="824.327449" y2="773.712151" stroke="black" stroke-width="6.48"/>
<line x1="824.327449" y1="773.712151" x2="592.429849" y2="773.712151" stroke="black" stroke-width="6.48"/>
<line x1="592.429849" y1="773.712151" x2="592.429849" y2="541.339351" stroke="black" stroke-width="6.48"/>
<line x1="591.954649" y1="540.864151" x2="824.327449" y2="773.712151" stroke="black" stroke-width="6.48"/>
<line x1="592.429849" y1="773.236951" x2="823.852249" y2="541.339351" stroke="black" stroke-width="6.48"/>
<line x1="2032.924367" y1="1998.356533" x2="2032.924367" y2="1789.268533" stroke="black" stroke-width="6.48"/>
<line x1="2032.924367" y1="1789.268533" x2="1801.026767" y2="1789.268533" stroke="black" stroke-width="6.48"/>
<line x1="1801.026767" y1="1789.268533" x2="1801.026767" y2="1998.356533" stroke="black" stroke-width="6.48"/>
<line x1="1801.026767" y1="1998.356533" x2="2032.924367" y2="1998.356533" stroke="black" stroke-width="6.48"/>
<line x1="2000.610767" y1="1998.356533" x2="2000.610767" y2="1789.268533" stroke="black" stroke-width="6.48"/>
<line x1="1485.415969" y1="209.267824" x2="1707.693134" y2="209.267824" stroke="black" stroke-width="6.48"/>
<line x1="1707.693134" y1="209.267824" x2="1707.693134" y2="432.000475" stroke="black" stroke-width="6.48"/>
<line x1="1707.693134" y1="432.000475" x2="1485.415969" y2="432.000475" stroke="black" stroke-width="6.48"/>
<line x1="1485.415969" y1="432.000475" x2="1485.415969" y2="209.267824" stroke="black" stroke-width="6.48"/>
<line x1="1484.960483" y1="208.812337" x2="1707.693134" y2="432.000475" stroke="black" stroke-width="6.48"/>
<line x1="1485.415969" y1="431.544989" x2="1707.237648" y2="209.267824" stroke="black" stroke-width="6.48"/>
<line x1="2761.020558" y1="2194.614338" x2="2761.020558" y2="1803.366338" stroke="black" stroke-width="6.48"/>
<line x1="2761.020558" y1="1803.366338" x2="2586.780558" y2="1803.366338" stroke="black" stroke-width="6.48"/>
<line x1="2586.780558" y1="1803.366338" x2="2586.780558" y2="2194.614338" stroke="black" stroke-width="6.48"/>
<line x1="2586.780558" y1="2194.614338" x2="2761.020558" y2="2194.614338" stroke="black" stroke-width="6.48"/>
<line x1="2613.708558" y1="1878.606338" x2="2613.708558" y2="2162.934338" stroke="black" stroke-width="6.48"/>
<line x1="2613.708558" y1="2162.934338" x2="2731.716558" y2="2162.934338" stroke="black" stroke-width="6.48"/>
<line x1="2731.716558" y1="2162.934338" x2="2731.716558" y2="1873.062338" stroke="black" stroke-width="6.48"/>
<path d="m 2613.453134,1879.416911 a 63.3599990854681,63.3599990854681 0 0 1 119.3743300000001,-4.293814000000111" fill="none" stroke="black" stroke-width="6.48"/>
<line x1="2105.762195" y1="1900.677276" x2="2105.762195" y2="2084.421276" stroke="black" stroke-width="6.48"/>
<line x1="2105.762195" y1="2084.421276" x2="2056.658195" y2="2084.421276" stroke="black" stroke-width="6.48"/>
<line x1="2056.658195" y1="1900.677276" x2="2056.658195" y2="2084.421276" stroke="black" stroke-width="6.48"/>
<line x1="2105.762195" y1="1900.677276" x2="2056.658195" y2="1900.677276" stroke="black" stroke-width="6.48"/>
<line x1="2133.482195" y1="1942.257276" x2="2105.762195" y2="1942.257276" stroke="black" stroke-width="6.48"/>
<line x1="2105.762195" y1="2041.257276" x2="2135.066195" y2="2041.257276" stroke="black" stroke-width="6.48"/>
<circle cx="2178.626195" cy="1990.965276" r="66.52800000000002" fill="none" stroke="black" stroke-width="6.48"/>
<circle cx="2178.626195" cy="1990.965276" r="57.02400000000001" fill="none" stroke="black" stroke-width="6.48"/>
<line x1="575.053034" y1="210.311608" x2="968.296907" y2="210.311608" stroke="black" stroke-width="6.48"/>
<line x1="972.252313" y1="209.315326" x2="972.252313" y2="345.384101" stroke="black" stroke-width="6.48"/>
<line x1="575.517424" y1="346.535608" x2="972.557654" y2="346.535608" stroke="black" stroke-width="6.48"/>
<line x1="576.252313" y1="211.006357" x2="576.252313" y2="346.270414" stroke="black" stroke-width="6.48"/>
<line x1="586.548313" y1="221.399608" x2="710.100313" y2="221.399608" stroke="black" stroke-width="6.48"/>
<line x1="710.100313" y1="221.399608" x2="710.100313" y2="335.447608" stroke="black" stroke-width="6.48"/>
<line x1="586.548313" y1="335.447608" x2="710.100313" y2="335.447608" stroke="black" stroke-width="6.48"/>
<line x1="586.548313" y1="221.399608" x2="586.548313" y2="335.447608" stroke="black" stroke-width="6.48"/>
<line x1="729.108313" y1="228.527608" x2="816.228313" y2="228.527608" stroke="black" stroke-width="6.48"/>
<line x1="729.108313" y1="248.327608" x2="816.228313" y2="248.327608" stroke="black" stroke-width="6.48"/>
<line x1="729.900313" y1="268.919608" x2="816.228313" y2="268.919608" stroke="black" stroke-width="6.48"/>
<line x1="729.900313" y1="288.719608" x2="816.228313" y2="288.719608" stroke="black" stroke-width="6.48"/>
<line x1="729.108313" y1="308.519608" x2="816.228313" y2="308.519608" stroke="black" stroke-width="6.48"/>
<line x1="729.108313" y1="328.319608" x2="816.228313" y2="328.319608" stroke="black" stroke-width="6.48"/>
<line x1="634.068313" y1="334.655608" x2="634.068313" y2="321.191608" stroke="black" stroke-width="6.48"/>
<line x1="634.068313" y1="321.191608" x2="664.164313" y2="321.191608" stroke="black" stroke-width="6.48"/>
<line x1="664.164313" y1="321.191608" x2="664.164313" y2="333.863608" stroke="black" stroke-width="6.48"/>
<line x1="836.820313" y1="221.399608" x2="960.372313" y2="221.399608" stroke="black" stroke-width="6.48"/>
<line x1="960.372313" y1="221.399608" x2="960.372313" y2="335.447608" stroke="black" stroke-width="6.48"/>
<line x1="836.820313" y1="335.447608" x2="960.372313" y2="335.447608" stroke="black" stroke-width="6.48"/>
<line x1="836.820313" y1="221.399608" x2="836.820313" y2="335.447608" stroke="black" stroke-width="6.48"/>
<line x1="884.340313" y1="335.447608" x2="884.340313" y2="321.983608" stroke="black" stroke-width="6.48"/>
<line x1="884.340313" y1="321.983608" x2="914.436313" y2="321.983608" stroke="black" stroke-width="6.48"/>
<line x1="914.436313" y1="321.983608" x2="914.436313" y2="334.655608" stroke="black" stroke-width="6.48"/>
<circle cx="695.844313" cy="235.655608" r="7.128000000000001" fill="none" stroke="black" stroke-width="6.48"/>
<circle cx="946.116313" cy="236.447608" r="7.128000000000001" fill="none" stroke="black" stroke-width="6.48"/>
<line x1="2044.889399" y1="955.822399" x2="2267.166564" y2="955.822399" stroke="black" stroke-width="6.48"/>
<line x1="2267.166564" y1="955.822399" x2="2267.166564" y2="1178.555051" stroke="black" stroke-width="6.48"/>
<line x1="2267.166564" y1="1178.555051" x2="2044.889399" y2="1178.555051" stroke="black" stroke-width="6.48"/>
<line x1="2044.889399" y1="1178.555051" x2="2044.889399" y2="955.822399" stroke="black" stroke-width="6.48"/>
<line x1="2044.433912" y1="955.366913" x2="2267.166564" y2="1178.555051" stroke="black" stroke-width="6.48"/>
<line x1="2044.889399" y1="1178.099564" x2="2266.711078" y2="955.822399" stroke="black" stroke-width="6.48"/>
<line x1="333.766206" y1="1375.361078" x2="333.766206" y2="949.854546" stroke="black" stroke-width="6.48"/>
<line x1="333.766206" y1="949.854546" x2="257.659348" y2="949.854546" stroke="black" stroke-width="6.48"/>
<line x1="257.659348" y1="949.854546" x2="257.659348" y2="1375.361078" stroke="black" stroke-width="6.48"/>
<line x1="257.659348" y1="1375.361078" x2="333.766206" y2="1375.361078" stroke="black" stroke-width="6.48"/>
<line x1="333.766206" y1="1355.469512" x2="359.711726" y2="1355.469512" stroke="black" stroke-width="6.48"/>
<line x1="359.711726" y1="1355.469512" x2="359.711726" y2="970.610962" stroke="black" stroke-width="6.48"/>
<line x1="333.766206" y1="970.610962" x2="359.711726" y2="970.610962" stroke="black" stroke-width="6.48"/>
<line x1="3874.406537" y1="1514.726719" x2="3874.406537" y2="1940.260162" stroke="black" stroke-width="6.48"/>
<line x1="3874.406537" y1="1940.260162" x2="3940.00601" y2="1940.260162" stroke="black" stroke-width="6.48"/>
<line x1="3940.00601" y1="1940.260162" x2="3940.00601" y2="1514.726719" stroke="black" stroke-width="6.48"/>
<line x1="3940.00601" y1="1514.726719" x2="3874.406537" y2="1514.726719" stroke="black" stroke-width="6.48"/>
<line x1="3939.14286" y1="1554.431663" x2="3875.269687" y2="1554.431663" stroke="black" stroke-width="6.48"/>
<line x1="3939.14286" y1="1899.692064" x2="3872.680232" y2="1899.692064" stroke="black" stroke-width="6.48"/>
<line x1="3908.932574" y1="1553.568512" x2="3908.932574" y2="1898.828914" stroke="black" stroke-width="6.48"/>
<line x1="4625.648824" y1="1515.690767" x2="4978.723885" y2="1687.896983" stroke="black" stroke-width="6.48"/>
<line x1="4978.723885" y1="1687.896983" x2="5059.619143" y2="1522.037128" stroke="black" stroke-width="6.48"/>
<line x1="5059.619143" y1="1522.037128" x2="4706.544078" y2="1349.830912" stroke="black" stroke-width="6.48"/>
<line x1="4706.544078" y1="1349.830912" x2="4625.648824" y2="1515.690767" stroke="black" stroke-width="6.48"/>
<line x1="4849.624904" y1="1419.616091" x2="4885.038277" y2="1347.00791" stroke="black" stroke-width="6.48"/>
<line x1="4885.038277" y1="1347.00791" x2="4814.565631" y2="1312.636108" stroke="black" stroke-width="6.48"/>
<line x1="4814.565631" y1="1312.636108" x2="4779.152258" y2="1385.244284" stroke="black" stroke-width="6.48"/>
<line x1="4807.6393" y1="1328.643886" x2="4877.400096" y2="1362.668497" stroke="black" stroke-width="6.48"/>
<line x1="4662.496436" y1="1624.424166" x2="4732.969079" y2="1658.795972" stroke="black" stroke-width="6.48"/>
<line x1="4732.969079" y1="1658.795972" x2="4768.729646" y2="1585.47595" stroke="black" stroke-width="6.48"/>
<line x1="4698.257004" y1="1551.104143" x2="4662.496436" y2="1624.424166" stroke="black" stroke-width="6.48"/>
<line x1="4670.84646" y1="1609.11077" x2="4740.60726" y2="1643.135382" stroke="black" stroke-width="6.48"/>
<line x1="4985.587278" y1="1485.929372" x2="5021.000651" y2="1413.321192" stroke="black" stroke-width="6.48"/>
<line x1="5021.000651" y1="1413.321192" x2="4950.528008" y2="1378.949389" stroke="black" stroke-width="6.48"/>
<line x1="4950.528008" y1="1378.949389" x2="4915.114636" y2="1451.557566" stroke="black" stroke-width="6.48"/>
<line x1="4942.889827" y1="1394.609972" x2="5013.362473" y2="1428.981779" stroke="black" stroke-width="6.48"/>
<line x1="4798.458806" y1="1690.737448" x2="4868.931456" y2="1725.109254" stroke="black" stroke-width="6.48"/>
<line x1="4868.931456" y1="1725.109254" x2="4904.692016" y2="1651.789228" stroke="black" stroke-width="6.48"/>
<line x1="4834.219374" y1="1617.417425" x2="4798.458806" y2="1690.737448" stroke="black" stroke-width="6.48"/>
<line x1="4806.096988" y1="1675.076857" x2="4876.569634" y2="1709.448664" stroke="black" stroke-width="6.48"/>
<line x1="3448.328983" y1="1075.452037" x2="3657.694187" y2="1075.452037" stroke="black" stroke-width="6.48"/>
<line x1="3657.694187" y1="1075.452037" x2="3657.694187" y2="744.237634" stroke="black" stroke-width="6.48"/>
<line x1="3657.694187" y1="744.237634" x2="3448.328983" y2="744.237634" stroke="black" stroke-width="6.48"/>
<line x1="3448.328983" y1="744.237634" x2="3448.328983" y2="1075.452037" stroke="black" stroke-width="6.48"/>
<line x1="3447.655783" y1="803.479234" x2="3658.367383" y2="803.479234" stroke="black" stroke-width="6.48"/>
<line x1="3658.367383" y1="803.479234" x2="3449.002183" y2="853.296037" stroke="black" stroke-width="6.48"/>
<line x1="3449.002183" y1="853.296037" x2="3480.642587" y2="899.746837" stroke="black" stroke-width="6.48"/>
<line x1="3480.642587" y1="899.746837" x2="3658.367383" y2="802.806037" stroke="black" stroke-width="6.48"/>
<line x1="3367.876979" y1="1203.304604" x2="3590.154144" y2="1203.304604" stroke="black" stroke-width="6.48"/>
<line x1="3590.154144" y1="1203.304604" x2="3590.154144" y2="1426.037256" stroke="black" stroke-width="6.48"/>
<line x1="3590.154144" y1="1426.037256" x2="3367.876979" y2="1426.037256" stroke="black" stroke-width="6.48"/>
<line x1="3367.876979" y1="1426.037256" x2="3367.876979" y2="1203.304604" stroke="black" stroke-width="6.48"/>
<line x1="3367.421492" y1="1202.849118" x2="3590.154144" y2="1426.037256" stroke="black" stroke-width="6.48"/>
<line x1="3367.876979" y1="1425.58177" x2="3589.698658" y2="1203.304604" stroke="black" stroke-width="6.48"/>
<line x1="2804.16708" y1="1127.69402" x2="2804.16708" y2="1153.148746" stroke="black" stroke-width="6.48"/>
<line x1="2804.16708" y1="1153.148746" x2="2853.834836" y2="1153.148746" stroke="black" stroke-width="6.48"/>
<line x1="2853.834836" y1="1153.148746" x2="2853.834836" y2="1127.69402" stroke="black" stroke-width="6.48"/>
<line x1="2853.834836" y1="1127.69402" x2="2804.16708" y2="1127.69402" stroke="black" stroke-width="6.48"/>
<line x1="2853.834836" y1="1402.108373" x2="3101.55277" y2="1402.108373" stroke="black" stroke-width="6.48"/>
<line x1="2802.925386" y1="1402.729218" x2="2802.925386" y2="1428.183943" stroke="black" stroke-width="6.48"/>
<line x1="2802.925386" y1="1428.183943" x2="2852.593142" y2="1428.183943" stroke="black" stroke-width="6.48"/>
<line x1="2852.593142" y1="1428.183943" x2="2852.593142" y2="1402.729218" stroke="black" stroke-width="6.48"/>
<line x1="2852.593142" y1="1402.729218" x2="2802.925386" y2="1402.729218" stroke="black" stroke-width="6.48"/>
<path d="m 2851.972294,1153.148746 a 248.95962699999984,248.95962699999984 0 0 1 248.95962699999973,248.95962699999995" fill="none" stroke="black" stroke-width="6.48"/>
<line x1="3499.847795" y1="1958.000566" x2="3390.978467" y2="1753.247138" stroke="black" stroke-width="6.48"/>
<line x1="3390.978467" y1="1753.247138" x2="3596.151474" y2="1644.154715" stroke="black" stroke-width="6.48"/>
<line x1="3596.151474" y1="1644.154715" x2="3705.020798" y2="1848.908142" stroke="black" stroke-width="6.48"/>
<line x1="3705.020798" y1="1848.908142" x2="3499.847795" y2="1958.000566" stroke="black" stroke-width="6.48"/>
<line x1="3499.65131" y1="1958.643234" x2="3596.151474" y2="1644.154715" stroke="black" stroke-width="6.48"/>
<line x1="3704.601226" y1="1849.131238" x2="3391.201559" y2="1753.666711" stroke="black" stroke-width="6.48"/>
<line x1="3020.26257" y1="1589.315879" x2="3017.570504" y2="1620.086342" stroke="black" stroke-width="6.48"/>
<line x1="3017.570504" y1="1620.086342" x2="3226.336254" y2="1638.350978" stroke="black" stroke-width="6.48"/>
<line x1="3226.336254" y1="1638.350978" x2="3229.028316" y2="1607.580515" stroke="black" stroke-width="6.48"/>
<line x1="3229.028316" y1="1607.580515" x2="3020.26257" y2="1589.315879" stroke="black" stroke-width="6.48"/>
<line x1="3002.494928" y1="1792.400929" x2="2999.802863" y2="1823.171389" stroke="black" stroke-width="6.48"/>
<line x1="2999.802863" y1="1823.171389" x2="3208.568612" y2="1841.436029" stroke="black" stroke-width="6.48"/>
<line x1="3208.568612" y1="1841.436029" x2="3211.260682" y2="1810.665565" stroke="black" stroke-width="6.48"/>
<line x1="3211.260682" y1="1810.665565" x2="3002.494928" y2="1792.400929" stroke="black" stroke-width="6.48"/>
<line x1="3017.611919" y1="1619.61295" x2="3002.494928" y2="1792.400929" stroke="black" stroke-width="6.48"/>
<line x1="3225.472301" y1="1637.321364" x2="3249.189529" y2="1666.109203" stroke="black" stroke-width="6.48"/>
<line x1="3238.628342" y1="1786.82409" x2="3210.272478" y2="1811.056122" stroke="black" stroke-width="6.48"/>
<line x1="3249.35519" y1="1664.215632" x2="3238.462678" y2="1788.717658" stroke="black" stroke-width="6.48"/>
<line x1="3062.069323" y1="1623.979487" x2="3046.952336" y2="1796.767463" stroke="black" stroke-width="6.48"/>
<line x1="5617.399885" y1="1406.356528" x2="5631.98513" y2="1614.9352" stroke="black" stroke-width="6.48"/>
<line x1="5631.98513" y1="1614.9352" x2="5863.31784" y2="1598.758841" stroke="black" stroke-width="6.48"/>
<line x1="5863.31784" y1="1598.758841" x2="5848.732598" y2="1390.180169" stroke="black" stroke-width="6.48"/>
<line x1="5848.732598" y1="1390.180169" x2="5617.399885" y2="1406.356528" stroke="black" stroke-width="6.48"/>
<line x1="5649.634775" y1="1404.102442" x2="5664.220016" y2="1612.681117" stroke="black" stroke-width="6.48"/>
<line x1="1345.825073" y1="1620.632034" x2="1169.585946" y2="1691.837208" stroke="black" stroke-width="6.48"/>
<line x1="1169.585946" y1="1691.837208" x2="1343.326579" y2="2121.860671" stroke="black" stroke-width="6.48"/>
<line x1="1343.326579" y1="2121.860671" x2="1519.56571" y2="2050.655497" stroke="black" stroke-width="6.48"/>
<line x1="1519.56571" y1="2050.655497" x2="1510.665059" y2="2028.625603" stroke="black" stroke-width="6.48"/>
<line x1="1510.665059" y1="2028.625603" x2="1355.574629" y2="2091.286159" stroke="black" stroke-width="6.48"/>
<line x1="1355.574629" y1="2091.286159" x2="1199.991316" y2="1706.203674" stroke="black" stroke-width="6.48"/>
<line x1="1199.991316" y1="1706.203674" x2="1355.081746" y2="1643.543118" stroke="black" stroke-width="6.48"/>
<line x1="1355.081746" y1="1643.543118" x2="1345.825073" y2="1620.632034" stroke="black" stroke-width="6.48"/>
<line x1="1349.79457" y1="1645.679272" x2="1505.377886" y2="2030.761757" stroke="black" stroke-width="6.48"/>
<line x1="1428.289409" y1="1837.42389" x2="1278.486155" y2="1897.948292" stroke="black" stroke-width="6.48"/>
<line x1="6067.44491" y1="1854.617515" x2="5995.932606" y2="2051.095964" stroke="black" stroke-width="6.48"/>
<line x1="5995.932606" y1="2051.095964" x2="6213.84507" y2="2130.409616" stroke="black" stroke-width="6.48"/>
<line x1="6213.84507" y1="2130.409616" x2="6285.357374" y2="1933.931167" stroke="black" stroke-width="6.48"/>
<line x1="6285.357374" y1="1933.931167" x2="6067.44491" y2="1854.617515" stroke="black" stroke-width="6.48"/>
<line x1="6097.809766" y1="1865.669414" x2="6026.297458" y2="2062.147867" stroke="black" stroke-width="6.48"/>
<line x1="2935.10236" y1="2011.117579" x2="2863.897214" y2="2187.356717" stroke="black" stroke-width="6.48"/>
<line x1="2863.897214" y1="2187.356717" x2="3293.92071" y2="2361.097267" stroke="black" stroke-width="6.48"/>
<line x1="3293.92071" y1="2361.097267" x2="3365.125855" y2="2184.85813" stroke="black" stroke-width="6.48"/>
<line x1="3365.125855" y1="2184.85813" x2="3343.095965" y2="2175.957486" stroke="black" stroke-width="6.48"/>
<line x1="3343.095965" y1="2175.957486" x2="3280.435438" y2="2331.04793" stroke="black" stroke-width="6.48"/>
<line x1="3280.435438" y1="2331.04793" x2="2895.35292" y2="2175.464689" stroke="black" stroke-width="6.48"/>
<line x1="2895.35292" y1="2175.464689" x2="2958.013447" y2="2020.374248" stroke="black" stroke-width="6.48"/>
<line x1="2958.013447" y1="2020.374248" x2="2935.10236" y2="2011.117579" stroke="black" stroke-width="6.48"/>
<line x1="2955.877294" y1="2025.661421" x2="3340.959811" y2="2181.244662" stroke="black" stroke-width="6.48"/>
<line x1="3148.333978" y1="2102.393833" x2="3087.809608" y2="2252.197102" stroke="black" stroke-width="6.48"/>
<line x1="1014.345893" y1="210.231086" x2="1284.893093" y2="210.231086" stroke="black" stroke-width="6.48"/>
<line x1="1284.893093" y1="210.231086" x2="1284.893093" y2="342.178286" stroke="black" stroke-width="6.48"/>
<line x1="1014.345893" y1="342.178286" x2="1284.893093" y2="342.178286" stroke="black" stroke-width="6.48"/>
<line x1="1014.345893" y1="210.231086" x2="1014.345893" y2="342.178286" stroke="black" stroke-width="6.48"/>
<line x1="1020.998693" y1="216.883886" x2="1159.044293" y2="216.883886" stroke="black" stroke-width="6.48"/>
<line x1="1159.044293" y1="216.883886" x2="1159.044293" y2="334.971086" stroke="black" stroke-width="6.48"/>
<line x1="1020.998693" y1="334.971086" x2="1159.044293" y2="334.971086" stroke="black" stroke-width="6.48"/>
<line x1="1020.998693" y1="216.883886" x2="1020.998693" y2="334.971086" stroke="black" stroke-width="6.48"/>
<line x1="1173.458693" y1="224.645486" x2="1270.478693" y2="224.645486" stroke="black" stroke-width="6.48"/>
<line x1="1173.458693" y1="245.158286" x2="1270.478693" y2="245.158286" stroke="black" stroke-width="6.48"/>
<line x1="1174.013093" y1="266.225486" x2="1271.033093" y2="266.225486" stroke="black" stroke-width="6.48"/>
<line x1="1174.013093" y1="286.738286" x2="1271.033093" y2="286.738286" stroke="black" stroke-width="6.48"/>
<line x1="1173.458693" y1="307.251086" x2="1270.478693" y2="307.251086" stroke="black" stroke-width="6.48"/>
<line x1="1173.458693" y1="327.763886" x2="1270.478693" y2="327.763886" stroke="black" stroke-width="6.48"/>
<line x1="1073.666693" y1="334.971086" x2="1073.666693" y2="321.111086" stroke="black" stroke-width="6.48"/>
<line x1="1073.666693" y1="321.111086" x2="1108.039493" y2="321.111086" stroke="black" stroke-width="6.48"/>
<line x1="1108.039493" y1="321.111086" x2="1108.039493" y2="334.416686" stroke="black" stroke-width="6.48"/>
<circle cx="1143.521093" cy="231.852686" r="8.316000000000003" fill="none" stroke="black" stroke-width="6.48"/>
<line x1="1172.456507" y1="1175.019721" x2="1000.250291" y2="1528.094783" stroke="black" stroke-width="6.48"/>
<line x1="1000.250291" y1="1528.094783" x2="1166.110146" y2="1608.990041" stroke="black" stroke-width="6.48"/>
<line x1="1166.110146" y1="1608.990041" x2="1338.316362" y2="1255.914976" stroke="black" stroke-width="6.48"/>
<line x1="1338.316362" y1="1255.914976" x2="1172.456507" y2="1175.019721" stroke="black" stroke-width="6.48"/>
<line x1="1268.531183" y1="1398.995802" x2="1341.139363" y2="1434.409175" stroke="black" stroke-width="6.48"/>
<line x1="1341.139363" y1="1434.409175" x2="1375.511166" y2="1363.936529" stroke="black" stroke-width="6.48"/>
<line x1="1375.511166" y1="1363.936529" x2="1302.902989" y2="1328.523156" stroke="black" stroke-width="6.48"/>
<line x1="1359.503388" y1="1357.010197" x2="1325.478776" y2="1426.770994" stroke="black" stroke-width="6.48"/>
<line x1="1063.723108" y1="1211.867334" x2="1029.351301" y2="1282.339976" stroke="black" stroke-width="6.48"/>
<line x1="1029.351301" y1="1282.339976" x2="1102.671324" y2="1318.100544" stroke="black" stroke-width="6.48"/>
<line x1="1137.04313" y1="1247.627902" x2="1063.723108" y2="1211.867334" stroke="black" stroke-width="6.48"/>
<line x1="1079.036503" y1="1220.217358" x2="1045.011892" y2="1289.978158" stroke="black" stroke-width="6.48"/>
<line x1="1202.217901" y1="1534.958176" x2="1274.826082" y2="1570.371548" stroke="black" stroke-width="6.48"/>
<line x1="1274.826082" y1="1570.371548" x2="1309.197884" y2="1499.898906" stroke="black" stroke-width="6.48"/>
<line x1="1309.197884" y1="1499.898906" x2="1236.589708" y2="1464.485533" stroke="black" stroke-width="6.48"/>
<line x1="1293.537301" y1="1492.260725" x2="1259.165495" y2="1562.733371" stroke="black" stroke-width="6.48"/>
<line x1="997.409826" y1="1347.829704" x2="963.03802" y2="1418.302354" stroke="black" stroke-width="6.48"/>
<line x1="963.03802" y1="1418.302354" x2="1036.358046" y2="1454.062914" stroke="black" stroke-width="6.48"/>
<line x1="1070.729849" y1="1383.590272" x2="997.409826" y2="1347.829704" stroke="black" stroke-width="6.48"/>
<line x1="1013.070416" y1="1355.467885" x2="978.69861" y2="1425.940531" stroke="black" stroke-width="6.48"/>
</g>
</svg>
