<?xml version="1.0"?>
<svg xmlns:xlink="http://www.w3.org/1999/xlink" width="6775.2" height="2858.4">
<image x="0" y="0" width="6775.2" height="2858.4" xlink:href="groundfilled-01.png"/>
<g style="stroke-linecap:round">
<line x1="1285.950406" y1="795.178109" x2="1311.346069" y2="795.178109" stroke="black" stroke-width="6.48"/>
<line x1="1311.346069" y1="795.178109" x2="1311.346069" y2="745.625592" stroke="black" stroke-width="6.48"/>
<line x1="1311.346069" y1="745.625592" x2="1285.950406" y2="745.625592" stroke="black" stroke-width="6.48"/>
<line x1="1285.950406" y1="745.625592" x2="1285.950406" y2="795.178109" stroke="black" stroke-width="6.48"/>
<line x1="1559.728062" y1="745.625592" x2="1559.728062" y2="498.48241" stroke="black" stroke-width="6.48"/>
<line x1="1560.347471" y1="796.416923" x2="1585.743134" y2="796.416923" stroke="black" stroke-width="6.48"/>
<line x1="1585.743134" y1="796.416923" x2="1585.743134" y2="746.864406" stroke="black" stroke-width="6.48"/>
<line x1="1585.743134" y1="746.864406" x2="1560.347471" y2="746.864406" stroke="black" stroke-width="6.48"/>
<line x1="1560.347471" y1="746.864406" x2="1560.347471" y2="796.416923" stroke="black" stroke-width="6.48"/>
<path d="m 1311.346069,747.483811 a 248.38199299999997,248.38199299999997 0 0 1 248.38199299999997,-248.38199299999997" fill="none" stroke="black" stroke-width="6.48"/>
<line x1="320.532556" y1="771.34176" x2="320.532556" y2="366.736194" stroke="black" stroke-width="6.48"/>
<line x1="320.532556" y1="366.736194" x2="258.159283" y2="366.736194" stroke="black" stroke-width="6.48"/>
<line x1="258.159283" y1="366.736194" x2="258.159283" y2="771.34176" stroke="black" stroke-width="6.48"/>
<line x1="258.159283" y1="771.34176" x2="320.532556" y2="771.34176" stroke="black" stroke-width="6.48"/>
<line x1="258.979986" y1="733.589518" x2="319.711856" y2="733.589518" stroke="black" stroke-width="6.48"/>
<line x1="258.979986" y1="405.309139" x2="322.173958" y2="405.309139" stroke="black" stroke-width="6.48"/>
<line x1="287.704519" y1="734.410217" x2="287.704519" y2="406.129838" stroke="black" stroke-width="6.48"/>
<line x1="3901.945176" y1="1169.331426" x2="3901.945176" y2="1428.837066" stroke="black" stroke-width="6.48"/>
<line x1="3901.945176" y1="1428.837066" x2="3941.9501" y2="1428.837066" stroke="black" stroke-width="6.48"/>
<line x1="3941.9501" y1="1428.837066" x2="3941.9501" y2="1169.331426" stroke="black" stroke-width="6.48"/>
<line x1="3941.9501" y1="1169.331426" x2="3901.945176" y2="1169.331426" stroke="black" stroke-width="6.48"/>
<line x1="3941.423719" y1="1193.544936" x2="3902.471557" y2="1193.544936" stroke="black" stroke-width="6.48"/>
<line x1="3941.423719" y1="1404.097178" x2="3900.892414" y2="1404.097178" stroke="black" stroke-width="6.48"/>
<line x1="3923.000399" y1="1193.018555" x2="3923.000399" y2="1403.570797" stroke="black" stroke-width="6.48"/>
<line x1="334.430687" y1="1882.943946" x2="334.430687" y2="1457.437414" stroke="black" stroke-width="6.48"/>
<line x1="334.430687" y1="1457.437414" x2="258.323828" y2="1457.437414" stroke="black" stroke-width="6.48"/>
<line x1="258.323828" y1="1457.437414" x2="258.323828" y2="1882.943946" stroke="black" stroke-width="6.48"/>
<line x1="258.323828" y1="1882.943946" x2="334.430687" y2="1882.943946" stroke="black" stroke-width="6.48"/>
<line x1="334.430687" y1="1863.05238" x2="360.376207" y2="1863.05238" stroke="black" stroke-width="6.48"/>
<line x1="360.376207" y1="1863.05238" x2="360.376207" y2="1478.193829" stroke="black" stroke-width="6.48"/>
<line x1="334.430687" y1="1478.193829" x2="360.376207" y2="1478.193829" stroke="black" stroke-width="6.48"/>
<line x1="2747.905531" y1="904.670665" x2="2721.68303" y2="904.670665" stroke="black" stroke-width="6.48"/>
<line x1="2721.68303" y1="904.670665" x2="2721.68303" y2="955.836522" stroke="black" stroke-width="6.48"/>
<line x1="2721.68303" y1="955.836522" x2="2747.905531" y2="955.836522" stroke="black" stroke-width="6.48"/>
<line x1="2747.905531" y1="955.836522" x2="2747.905531" y2="904.670665" stroke="black" stroke-width="6.48"/>
<line x1="2465.214181" y1="955.836522" x2="2465.214181" y2="1211.026223" stroke="black" stroke-width="6.48"/>
<line x1="2464.574609" y1="903.39152" x2="2438.352108" y2="903.39152" stroke="black" stroke-width="6.48"/>
<line x1="2438.352108" y1="903.39152" x2="2438.352108" y2="954.557374" stroke="black" stroke-width="6.48"/>
<line x1="2438.352108" y1="954.557374" x2="2464.574609" y2="954.557374" stroke="black" stroke-width="6.48"/>
<line x1="2464.574609" y1="954.557374" x2="2464.574609" y2="903.39152" stroke="black" stroke-width="6.48"/>
<path d="m 2721.68303,953.917801 a 256.4688490000001,256.4688490000001 0 0 1 -256.4688490000003,256.46884899999986" fill="none" stroke="black" stroke-width="6.48"/>
<line x1="2420.532389" y1="1427.858834" x2="2395.136725" y2="1427.858834" stroke="black" stroke-width="6.48"/>
<line x1="2395.136725" y1="1427.858834" x2="2395.136725" y2="1477.411351" stroke="black" stroke-width="6.48"/>
<line x1="2395.136725" y1="1477.411351" x2="2420.532389" y2="1477.411351" stroke="black" stroke-width="6.48"/>
<line x1="2420.532389" y1="1477.411351" x2="2420.532389" y2="1427.858834" stroke="black" stroke-width="6.48"/>
<line x1="2146.754732" y1="1477.411351" x2="2146.754732" y2="1724.554534" stroke="black" stroke-width="6.48"/>
<line x1="2146.135324" y1="1426.62002" x2="2120.73966" y2="1426.62002" stroke="black" stroke-width="6.48"/>
<line x1="2120.73966" y1="1426.62002" x2="2120.73966" y2="1476.172537" stroke="black" stroke-width="6.48"/>
<line x1="2120.73966" y1="1476.172537" x2="2146.135324" y2="1476.172537" stroke="black" stroke-width="6.48"/>
<line x1="2146.135324" y1="1476.172537" x2="2146.135324" y2="1426.62002" stroke="black" stroke-width="6.48"/>
<path d="m 2395.136725,1475.553132 a 248.38199299999997,248.38199299999997 0 0 1 -248.38199299999997,248.38199299999997" fill="none" stroke="black" stroke-width="6.48"/>
<line x1="846.660672" y1="541.339351" x2="1078.558272" y2="541.339351" stroke="black" stroke-width="6.48"/>
<line x1="1078.558272" y1="541.339351" x2="1078.558272" y2="773.712151" stroke="black" stroke-width="6.48"/>
<line x1="1078.558272" y1="773.712151" x2="846.660672" y2="773.712151" stroke="black" stroke-width="6.48"/>
<line x1="846.660672" y1="773.712151" x2="846.660672" y2="541.339351" stroke="black" stroke-width="6.48"/>
<line x1="846.185472" y1="540.864151" x2="1078.558272" y2="773.712151" stroke="black" stroke-width="6.48"/>
<line x1="846.660672" y1="773.236951" x2="1078.083072" y2="541.339351" stroke="black" stroke-width="6.48"/>
<line x1="2032.924367" y1="1752.846552" x2="2032.924367" y2="1721.958552" stroke="black" stroke-width="6.48"/>
<line x1="2032.924367" y1="1721.958552" x2="1823.361167" y2="1721.958552" stroke="black" stroke-width="6.48"/>
<line x1="1823.361167" y1="1721.958552" x2="1823.361167" y2="1752.846552" stroke="black" stroke-width="6.48"/>
<line x1="1823.361167" y1="1752.846552" x2="2032.924367" y2="1752.846552" stroke="black" stroke-width="6.48"/>
<line x1="2032.924367" y1="1548.985752" x2="2032.924367" y2="1518.097752" stroke="black" stroke-width="6.48"/>
<line x1="2032.924367" y1="1518.097752" x2="1823.361167" y2="1518.097752" stroke="black" stroke-width="6.48"/>
<line x1="1823.361167" y1="1518.097752" x2="1823.361167" y2="1548.985752" stroke="black" stroke-width="6.48"/>
<line x1="1823.361167" y1="1548.985752" x2="2032.924367" y2="1548.985752" stroke="black" stroke-width="6.48"/>
<line x1="2032.924367" y1="1722.433752" x2="2032.924367" y2="1548.985752" stroke="black" stroke-width="6.48"/>
<line x1="1824.311567" y1="1722.908952" x2="1798.175567" y2="1696.297752" stroke="black" stroke-width="6.48"/>
<line x1="1798.175567" y1="1575.121752" x2="1824.311567" y2="1548.510552" stroke="black" stroke-width="6.48"/>
<line x1="1798.175567" y1="1698.198552" x2="1798.175567" y2="1573.220952" stroke="black" stroke-width="6.48"/>
<line x1="1988.255567" y1="1721.958552" x2="1988.255567" y2="1548.510552" stroke="black" stroke-width="6.48"/>
<line x1="1485.415969" y1="209.267824" x2="1707.693134" y2="209.267824" stroke="black" stroke-width="6.48"/>
<line x1="1707.693134" y1="209.267824" x2="1707.693134" y2="432.000475" stroke="black" stroke-width="6.48"/>
<line x1="1707.693134" y1="432.000475" x2="1485.415969" y2="432.000475" stroke="black" stroke-width="6.48"/>
<line x1="1485.415969" y1="432.000475" x2="1485.415969" y2="209.267824" stroke="black" stroke-width="6.48"/>
<line x1="1484.960483" y1="208.812337" x2="1707.693134" y2="432.000475" stroke="black" stroke-width="6.48"/>
<line x1="1485.415969" y1="431.544989" x2="1707.237648" y2="209.267824" stroke="black" stroke-width="6.48"/>
<line x1="2761.020558" y1="2194.614338" x2="2761.020558" y2="1803.366338" stroke="black" stroke-width="6.48"/>
<line x1="2761.020558" y1="1803.366338" x2="2586.780558" y2="1803.366338" stroke="black" stroke-width="6.48"/>
<line x1="2586.780558" y1="1803.366338" x2="2586.780558" y2="2194.614338" stroke="black" stroke-width="6.48"/>
<line x1="2586.780558" y1="2194.614338" x2="2761.020558" y2="2194.614338" stroke="black" stroke-width="6.48"/>
<line x1="2613.708558" y1="1878.606338" x2="2613.708558" y2="2162.934338" stroke="black" stroke-width="6.48"/>
<line x1="2613.708558" y1="2162.934338" x2="2731.716558" y2="2162.934338" stroke="black" stroke-width="6.48"/>
<line x1="2731.716558" y1="2162.934338" x2="2731.716558" y2="1873.062338" stroke="black" stroke-width="6.48"/>
<path d="m 2613.453134,1879.416911 a 63.3599990854681,63.3599990854681 0 0 1 119.3743300000001,-4.293814000000111" fill="none" stroke="black" stroke-width="6.48"/>
<line x1="2105.39506" y1="1854.417953" x2="2105.39506" y2="2038.161953" stroke="black" stroke-width="6.48"/>
<line x1="2105.39506" y1="2038.161953" x2="2056.29106" y2="2038.161953" stroke="black" stroke-width="6.48"/>
<line x1="2056.29106" y1="1854.417953" x2="2056.29106" y2="2038.161953" stroke="black" stroke-width="6.48"/>
<line x1="2105.39506" y1="1854.417953" x2="2056.29106" y2="1854.417953" stroke="black" stroke-width="6.48"/>
<line x1="2133.11506" y1="1895.997953" x2="2105.39506" y2="1895.997953" stroke="black" stroke-width="6.48"/>
<line x1="2105.39506" y1="1994.997953" x2="2134.69906" y2="1994.997953" stroke="black" stroke-width="6.48"/>
<circle cx="2178.25906" cy="1944.705953" r="66.52800000000002" fill="none" stroke="black" stroke-width="6.48"/>
<circle cx="2178.25906" cy="1944.705953" r="57.02400000000001" fill="none" stroke="black" stroke-width="6.48"/>
<line x1="635.275303" y1="209.304263" x2="905.822503" y2="209.304263" stroke="black" stroke-width="6.48"/>
<line x1="905.822503" y1="209.304263" x2="905.822503" y2="341.251463" stroke="black" stroke-width="6.48"/>
<line x1="635.275303" y1="341.251463" x2="905.822503" y2="341.251463" stroke="black" stroke-width="6.48"/>
<line x1="635.275303" y1="209.304263" x2="635.275303" y2="341.251463" stroke="black" stroke-width="6.48"/>
<line x1="641.928103" y1="215.957063" x2="779.973703" y2="215.957063" stroke="black" stroke-width="6.48"/>
<line x1="779.973703" y1="215.957063" x2="779.973703" y2="334.044263" stroke="black" stroke-width="6.48"/>
<line x1="641.928103" y1="334.044263" x2="779.973703" y2="334.044263" stroke="black" stroke-width="6.48"/>
<line x1="641.928103" y1="215.957063" x2="641.928103" y2="334.044263" stroke="black" stroke-width="6.48"/>
<line x1="794.388103" y1="223.718663" x2="891.408103" y2="223.718663" stroke="black" stroke-width="6.48"/>
<line x1="794.388103" y1="244.231463" x2="891.408103" y2="244.231463" stroke="black" stroke-width="6.48"/>
<line x1="794.942503" y1="265.298663" x2="891.962503" y2="265.298663" stroke="black" stroke-width="6.48"/>
<line x1="794.942503" y1="285.811463" x2="891.962503" y2="285.811463" stroke="black" stroke-width="6.48"/>
<line x1="794.388103" y1="306.324263" x2="891.408103" y2="306.324263" stroke="black" stroke-width="6.48"/>
<line x1="794.388103" y1="326.837063" x2="891.408103" y2="326.837063" stroke="black" stroke-width="6.48"/>
<line x1="694.596103" y1="334.044263" x2="694.596103" y2="320.184263" stroke="black" stroke-width="6.48"/>
<line x1="694.596103" y1="320.184263" x2="728.968903" y2="320.184263" stroke="black" stroke-width="6.48"/>
<line x1="728.968903" y1="320.184263" x2="728.968903" y2="333.489863" stroke="black" stroke-width="6.48"/>
<circle cx="764.450503" cy="230.925863" r="8.316000000000003" fill="none" stroke="black" stroke-width="6.48"/>
<line x1="2044.889399" y1="955.822399" x2="2267.166564" y2="955.822399" stroke="black" stroke-width="6.48"/>
<line x1="2267.166564" y1="955.822399" x2="2267.166564" y2="1178.555051" stroke="black" stroke-width="6.48"/>
<line x1="2267.166564" y1="1178.555051" x2="2044.889399" y2="1178.555051" stroke="black" stroke-width="6.48"/>
<line x1="2044.889399" y1="1178.555051" x2="2044.889399" y2="955.822399" stroke="black" stroke-width="6.48"/>
<line x1="2044.433912" y1="955.366913" x2="2267.166564" y2="1178.555051" stroke="black" stroke-width="6.48"/>
<line x1="2044.889399" y1="1178.099564" x2="2266.711078" y2="955.822399" stroke="black" stroke-width="6.48"/>
<line x1="323.258818" y1="1375.374532" x2="323.258818" y2="949.841089" stroke="black" stroke-width="6.48"/>
<line x1="323.258818" y1="949.841089" x2="257.659344" y2="949.841089" stroke="black" stroke-width="6.48"/>
<line x1="257.659344" y1="949.841089" x2="257.659344" y2="1375.374532" stroke="black" stroke-width="6.48"/>
<line x1="257.659344" y1="1375.374532" x2="323.258818" y2="1375.374532" stroke="black" stroke-width="6.48"/>
<line x1="258.522494" y1="1335.669588" x2="322.395667" y2="1335.669588" stroke="black" stroke-width="6.48"/>
<line x1="258.522494" y1="990.409187" x2="324.985122" y2="990.409187" stroke="black" stroke-width="6.48"/>
<line x1="288.73278" y1="1336.532738" x2="288.73278" y2="991.272337" stroke="black" stroke-width="6.48"/>
<line x1="3874.406537" y1="1514.726719" x2="3874.406537" y2="1940.260162" stroke="black" stroke-width="6.48"/>
<line x1="3874.406537" y1="1940.260162" x2="3940.00601" y2="1940.260162" stroke="black" stroke-width="6.48"/>
<line x1="3940.00601" y1="1940.260162" x2="3940.00601" y2="1514.726719" stroke="black" stroke-width="6.48"/>
<line x1="3940.00601" y1="1514.726719" x2="3874.406537" y2="1514.726719" stroke="black" stroke-width="6.48"/>
<line x1="3939.14286" y1="1554.431663" x2="3875.269687" y2="1554.431663" stroke="black" stroke-width="6.48"/>
<line x1="3939.14286" y1="1899.692064" x2="3872.680232" y2="1899.692064" stroke="black" stroke-width="6.48"/>
<line x1="3908.932574" y1="1553.568512" x2="3908.932574" y2="1898.828914" stroke="black" stroke-width="6.48"/>
<line x1="4796.039624" y1="1801.628777" x2="5113.84739" y2="1570.72792" stroke="black" stroke-width="6.48"/>
<line x1="5113.84739" y1="1570.72792" x2="5005.379848" y2="1421.43516" stroke="black" stroke-width="6.48"/>
<line x1="5005.379848" y1="1421.43516" x2="4687.572085" y2="1652.336014" stroke="black" stroke-width="6.48"/>
<line x1="4687.572085" y1="1652.336014" x2="4796.039624" y2="1801.628777" stroke="black" stroke-width="6.48"/>
<line x1="4816.361117" y1="1558.765307" x2="4768.877473" y2="1493.409676" stroke="black" stroke-width="6.48"/>
<line x1="4768.877473" y1="1493.409676" x2="4705.444069" y2="1539.496742" stroke="black" stroke-width="6.48"/>
<line x1="4705.444069" y1="1539.496742" x2="4752.927713" y2="1604.852374" stroke="black" stroke-width="6.48"/>
<line x1="4716.32638" y1="1553.12753" x2="4779.119045" y2="1507.505987" stroke="black" stroke-width="6.48"/>
<line x1="4909.344422" y1="1820.141503" x2="4972.777826" y2="1774.054436" stroke="black" stroke-width="6.48"/>
<line x1="4972.777826" y1="1774.054436" x2="4924.828656" y2="1708.058066" stroke="black" stroke-width="6.48"/>
<line x1="4861.395256" y1="1754.145133" x2="4909.344422" y2="1820.141503" stroke="black" stroke-width="6.48"/>
<line x1="4899.743593" y1="1805.579662" x2="4962.536255" y2="1759.958122" stroke="black" stroke-width="6.48"/>
<line x1="4938.742735" y1="1469.849854" x2="4891.259092" y2="1404.494222" stroke="black" stroke-width="6.48"/>
<line x1="4891.259092" y1="1404.494222" x2="4827.825688" y2="1450.581289" stroke="black" stroke-width="6.48"/>
<line x1="4827.825688" y1="1450.581289" x2="4875.309331" y2="1515.93692" stroke="black" stroke-width="6.48"/>
<line x1="4838.067259" y1="1464.677604" x2="4901.50066" y2="1418.590537" stroke="black" stroke-width="6.48"/>
<line x1="5031.726041" y1="1731.22605" x2="5095.159445" y2="1685.138983" stroke="black" stroke-width="6.48"/>
<line x1="5095.159445" y1="1685.138983" x2="5047.210274" y2="1619.142613" stroke="black" stroke-width="6.48"/>
<line x1="4983.776874" y1="1665.22968" x2="5031.726041" y2="1731.22605" stroke="black" stroke-width="6.48"/>
<line x1="5021.484473" y1="1717.129735" x2="5084.917873" y2="1671.042672" stroke="black" stroke-width="6.48"/>
<line x1="3077.661218" y1="1074.22871" x2="3287.026422" y2="1074.22871" stroke="black" stroke-width="6.48"/>
<line x1="3287.026422" y1="1074.22871" x2="3287.026422" y2="743.014307" stroke="black" stroke-width="6.48"/>
<line x1="3287.026422" y1="743.014307" x2="3077.661218" y2="743.014307" stroke="black" stroke-width="6.48"/>
<line x1="3077.661218" y1="743.014307" x2="3077.661218" y2="1074.22871" stroke="black" stroke-width="6.48"/>
<line x1="3076.988018" y1="802.255907" x2="3287.699618" y2="802.255907" stroke="black" stroke-width="6.48"/>
<line x1="3287.699618" y1="802.255907" x2="3078.334418" y2="852.07271" stroke="black" stroke-width="6.48"/>
<line x1="3078.334418" y1="852.07271" x2="3109.974822" y2="898.52351" stroke="black" stroke-width="6.48"/>
<line x1="3109.974822" y1="898.52351" x2="3287.699618" y2="801.58271" stroke="black" stroke-width="6.48"/>
<line x1="3197.905153" y1="1203.992752" x2="3420.182318" y2="1203.992752" stroke="black" stroke-width="6.48"/>
<line x1="3420.182318" y1="1203.992752" x2="3420.182318" y2="1426.725403" stroke="black" stroke-width="6.48"/>
<line x1="3420.182318" y1="1426.725403" x2="3197.905153" y2="1426.725403" stroke="black" stroke-width="6.48"/>
<line x1="3197.905153" y1="1426.725403" x2="3197.905153" y2="1203.992752" stroke="black" stroke-width="6.48"/>
<line x1="3197.449667" y1="1203.537265" x2="3420.182318" y2="1426.725403" stroke="black" stroke-width="6.48"/>
<line x1="3197.905153" y1="1426.269917" x2="3419.726832" y2="1203.992752" stroke="black" stroke-width="6.48"/>
<line x1="2804.16708" y1="1127.69402" x2="2804.16708" y2="1153.148746" stroke="black" stroke-width="6.48"/>
<line x1="2804.16708" y1="1153.148746" x2="2853.834836" y2="1153.148746" stroke="black" stroke-width="6.48"/>
<line x1="2853.834836" y1="1153.148746" x2="2853.834836" y2="1127.69402" stroke="black" stroke-width="6.48"/>
<line x1="2853.834836" y1="1127.69402" x2="2804.16708" y2="1127.69402" stroke="black" stroke-width="6.48"/>
<line x1="2853.834836" y1="1402.108373" x2="3101.55277" y2="1402.108373" stroke="black" stroke-width="6.48"/>
<line x1="2802.925386" y1="1402.729218" x2="2802.925386" y2="1428.183943" stroke="black" stroke-width="6.48"/>
<line x1="2802.925386" y1="1428.183943" x2="2852.593142" y2="1428.183943" stroke="black" stroke-width="6.48"/>
<line x1="2852.593142" y1="1428.183943" x2="2852.593142" y2="1402.729218" stroke="black" stroke-width="6.48"/>
<line x1="2852.593142" y1="1402.729218" x2="2802.925386" y2="1402.729218" stroke="black" stroke-width="6.48"/>
<path d="m 2851.972294,1153.148746 a 248.95962699999984,248.95962699999984 0 0 1 248.95962699999973,248.95962699999995" fill="none" stroke="black" stroke-width="6.48"/>
<line x1="2997.259664" y1="2041.112095" x2="2926.054519" y2="2217.351233" stroke="black" stroke-width="6.48"/>
<line x1="2926.054519" y1="2217.351233" x2="3356.078015" y2="2391.091783" stroke="black" stroke-width="6.48"/>
<line x1="3356.078015" y1="2391.091783" x2="3427.28316" y2="2214.852646" stroke="black" stroke-width="6.48"/>
<line x1="3427.28316" y1="2214.852646" x2="3405.25327" y2="2205.952002" stroke="black" stroke-width="6.48"/>
<line x1="3405.25327" y1="2205.952002" x2="3342.592742" y2="2361.042446" stroke="black" stroke-width="6.48"/>
<line x1="3342.592742" y1="2361.042446" x2="2957.510225" y2="2205.459205" stroke="black" stroke-width="6.48"/>
<line x1="2957.510225" y1="2205.459205" x2="3020.170752" y2="2050.368764" stroke="black" stroke-width="6.48"/>
<line x1="3020.170752" y1="2050.368764" x2="2997.259664" y2="2041.112095" stroke="black" stroke-width="6.48"/>
<line x1="3018.034598" y1="2055.655937" x2="3403.117116" y2="2211.239178" stroke="black" stroke-width="6.48"/>
<line x1="3210.491282" y1="2132.388349" x2="3149.966912" y2="2282.191618" stroke="black" stroke-width="6.48"/>
<line x1="3539.576758" y1="1637.806316" x2="3711.910259" y2="1792.976098" stroke="black" stroke-width="6.48"/>
<line x1="3711.910259" y1="1792.976098" x2="3556.422508" y2="1965.662744" stroke="black" stroke-width="6.48"/>
<line x1="3556.422508" y1="1965.662744" x2="3384.089006" y2="1810.492963" stroke="black" stroke-width="6.48"/>
<line x1="3384.089006" y1="1810.492963" x2="3539.576758" y2="1637.806316" stroke="black" stroke-width="6.48"/>
<line x1="3539.541586" y1="1637.135204" x2="3556.422508" y2="1965.662744" stroke="black" stroke-width="6.48"/>
<line x1="3384.406973" y1="1810.139818" x2="3711.557113" y2="1792.658131" stroke="black" stroke-width="6.48"/>
<line x1="3066.685171" y1="1589.315879" x2="3055.615902" y2="1618.152311" stroke="black" stroke-width="6.48"/>
<line x1="3055.615902" y1="1618.152311" x2="3251.260004" y2="1693.253045" stroke="black" stroke-width="6.48"/>
<line x1="3251.260004" y1="1693.253045" x2="3262.329274" y2="1664.416613" stroke="black" stroke-width="6.48"/>
<line x1="3262.329274" y1="1664.416613" x2="3066.685171" y2="1589.315879" stroke="black" stroke-width="6.48"/>
<line x1="2993.627995" y1="1779.63633" x2="2982.558726" y2="1808.472762" stroke="black" stroke-width="6.48"/>
<line x1="2982.558726" y1="1808.472762" x2="3178.202828" y2="1883.573496" stroke="black" stroke-width="6.48"/>
<line x1="3178.202828" y1="1883.573496" x2="3189.272098" y2="1854.737068" stroke="black" stroke-width="6.48"/>
<line x1="3189.272098" y1="1854.737068" x2="2993.627995" y2="1779.63633" stroke="black" stroke-width="6.48"/>
<line x1="3055.7862" y1="1617.708672" x2="2993.627995" y2="1779.63633" stroke="black" stroke-width="6.48"/>
<line x1="3250.713323" y1="1692.025175" x2="3265.57678" y2="1726.235176" stroke="black" stroke-width="6.48"/>
<line x1="3222.151186" y1="1839.362717" x2="3188.214526" y2="1854.84011" stroke="black" stroke-width="6.48"/>
<line x1="3266.257964" y1="1724.460631" x2="3221.469997" y2="1841.137268" stroke="black" stroke-width="6.48"/>
<line x1="3097.31782" y1="1634.160175" x2="3035.159615" y2="1796.087833" stroke="black" stroke-width="6.48"/>
<line x1="1080.441493" y1="210.39269" x2="1350.988693" y2="210.39269" stroke="black" stroke-width="6.48"/>
<line x1="1350.988693" y1="210.39269" x2="1350.988693" y2="342.33989" stroke="black" stroke-width="6.48"/>
<line x1="1080.441493" y1="342.33989" x2="1350.988693" y2="342.33989" stroke="black" stroke-width="6.48"/>
<line x1="1080.441493" y1="210.39269" x2="1080.441493" y2="342.33989" stroke="black" stroke-width="6.48"/>
<line x1="1087.094293" y1="217.04549" x2="1225.139893" y2="217.04549" stroke="black" stroke-width="6.48"/>
<line x1="1225.139893" y1="217.04549" x2="1225.139893" y2="335.13269" stroke="black" stroke-width="6.48"/>
<line x1="1087.094293" y1="335.13269" x2="1225.139893" y2="335.13269" stroke="black" stroke-width="6.48"/>
<line x1="1087.094293" y1="217.04549" x2="1087.094293" y2="335.13269" stroke="black" stroke-width="6.48"/>
<line x1="1239.554293" y1="224.80709" x2="1336.574293" y2="224.80709" stroke="black" stroke-width="6.48"/>
<line x1="1239.554293" y1="245.31989" x2="1336.574293" y2="245.31989" stroke="black" stroke-width="6.48"/>
<line x1="1240.108693" y1="266.38709" x2="1337.128693" y2="266.38709" stroke="black" stroke-width="6.48"/>
<line x1="1240.108693" y1="286.89989" x2="1337.128693" y2="286.89989" stroke="black" stroke-width="6.48"/>
<line x1="1239.554293" y1="307.41269" x2="1336.574293" y2="307.41269" stroke="black" stroke-width="6.48"/>
<line x1="1239.554293" y1="327.92549" x2="1336.574293" y2="327.92549" stroke="black" stroke-width="6.48"/>
<line x1="1139.762293" y1="335.13269" x2="1139.762293" y2="321.27269" stroke="black" stroke-width="6.48"/>
<line x1="1139.762293" y1="321.27269" x2="1174.135093" y2="321.27269" stroke="black" stroke-width="6.48"/>
<line x1="1174.135093" y1="321.27269" x2="1174.135093" y2="334.57829" stroke="black" stroke-width="6.48"/>
<circle cx="1209.616693" cy="232.01429" r="8.316000000000003" fill="none" stroke="black" stroke-width="6.48"/>
<line x1="6178.099518" y1="2143.170547" x2="6189.670364" y2="2171.809404" stroke="black" stroke-width="6.48"/>
<line x1="6189.670364" y1="2171.809404" x2="6383.973982" y2="2093.305648" stroke="black" stroke-width="6.48"/>
<line x1="6383.973982" y1="2093.305648" x2="6372.403135" y2="2064.666791" stroke="black" stroke-width="6.48"/>
<line x1="6372.403135" y1="2064.666791" x2="6178.099518" y2="2143.170547" stroke="black" stroke-width="6.48"/>
<line x1="6254.467117" y1="2332.186992" x2="6266.037967" y2="2360.825845" stroke="black" stroke-width="6.48"/>
<line x1="6266.037967" y1="2360.825845" x2="6460.341581" y2="2282.322089" stroke="black" stroke-width="6.48"/>
<line x1="6460.341581" y1="2282.322089" x2="6448.770734" y2="2253.683236" stroke="black" stroke-width="6.48"/>
<line x1="6448.770734" y1="2253.683236" x2="6254.467117" y2="2332.186992" stroke="black" stroke-width="6.48"/>
<line x1="6189.492355" y1="2171.368804" x2="6254.467117" y2="2332.186992" stroke="black" stroke-width="6.48"/>
<line x1="6382.736759" y1="2092.78048" x2="6416.938368" y2="2107.663236" stroke="black" stroke-width="6.48"/>
<line x1="6462.331697" y1="2220.015661" x2="6448.067554" y2="2254.479854" stroke="black" stroke-width="6.48"/>
<line x1="6416.226317" y1="2105.900842" x2="6463.043748" y2="2221.778056" stroke="black" stroke-width="6.48"/>
<line x1="6231.086554" y1="2155.076176" x2="6296.061319" y2="2315.89436" stroke="black" stroke-width="6.48"/>
<line x1="3840.070216" y1="1118.247217" x2="3834.176508" y2="1087.926718" stroke="black" stroke-width="6.48"/>
<line x1="3834.176508" y1="1087.926718" x2="3628.463576" y2="1127.91326" stroke="black" stroke-width="6.48"/>
<line x1="3628.463576" y1="1127.91326" x2="3634.357284" y2="1158.23376" stroke="black" stroke-width="6.48"/>
<line x1="3634.357284" y1="1158.23376" x2="3840.070216" y2="1118.247217" stroke="black" stroke-width="6.48"/>
<line x1="3801.171744" y1="918.131915" x2="3795.278036" y2="887.811415" stroke="black" stroke-width="6.48"/>
<line x1="3795.278036" y1="887.811415" x2="3589.565105" y2="927.797958" stroke="black" stroke-width="6.48"/>
<line x1="3589.565105" y1="927.797958" x2="3595.458812" y2="958.118461" stroke="black" stroke-width="6.48"/>
<line x1="3595.458812" y1="958.118461" x2="3801.171744" y2="918.131915" stroke="black" stroke-width="6.48"/>
<line x1="3834.267181" y1="1088.393184" x2="3801.171744" y2="918.131915" stroke="black" stroke-width="6.48"/>
<line x1="3629.577859" y1="1128.664858" x2="3598.844393" y2="1107.52956" stroke="black" stroke-width="6.48"/>
<line x1="3575.722925" y1="988.579908" x2="3596.301076" y2="957.470645" stroke="black" stroke-width="6.48"/>
<line x1="3599.207086" y1="1109.395436" x2="3575.360236" y2="986.714028" stroke="black" stroke-width="6.48"/>
<line x1="3790.328404" y1="1096.44993" x2="3757.232963" y2="926.188654" stroke="black" stroke-width="6.48"/>
<line x1="5821.860776" y1="1628.6107" x2="5821.860776" y2="1659.4987" stroke="black" stroke-width="6.48"/>
<line x1="5821.860776" y1="1659.4987" x2="6031.423976" y2="1659.4987" stroke="black" stroke-width="6.48"/>
<line x1="6031.423976" y1="1659.4987" x2="6031.423976" y2="1628.6107" stroke="black" stroke-width="6.48"/>
<line x1="6031.423976" y1="1628.6107" x2="5821.860776" y2="1628.6107" stroke="black" stroke-width="6.48"/>
<line x1="5821.860776" y1="1832.4715" x2="5821.860776" y2="1863.3595" stroke="black" stroke-width="6.48"/>
<line x1="5821.860776" y1="1863.3595" x2="6031.423976" y2="1863.3595" stroke="black" stroke-width="6.48"/>
<line x1="6031.423976" y1="1863.3595" x2="6031.423976" y2="1832.4715" stroke="black" stroke-width="6.48"/>
<line x1="6031.423976" y1="1832.4715" x2="5821.860776" y2="1832.4715" stroke="black" stroke-width="6.48"/>
<line x1="5821.860776" y1="1659.0235" x2="5821.860776" y2="1832.4715" stroke="black" stroke-width="6.48"/>
<line x1="6030.473576" y1="1658.5483" x2="6056.609576" y2="1685.1595" stroke="black" stroke-width="6.48"/>
<line x1="6056.609576" y1="1806.3355" x2="6030.473576" y2="1832.9467" stroke="black" stroke-width="6.48"/>
<line x1="6056.609576" y1="1683.2587" x2="6056.609576" y2="1808.2363" stroke="black" stroke-width="6.48"/>
<line x1="5866.529576" y1="1659.4987" x2="5866.529576" y2="1832.9467" stroke="black" stroke-width="6.48"/>
<line x1="1253.021497" y1="1162.06412" x2="1354.220258" y2="1246.979963" stroke="black" stroke-width="6.48"/>
<line x1="1354.220258" y1="1246.979963" x2="1345.056678" y2="1257.900692" stroke="black" stroke-width="6.48"/>
<line x1="1243.857917" y1="1172.98485" x2="1345.056678" y2="1257.900692" stroke="black" stroke-width="6.48"/>
<line x1="1253.021497" y1="1162.06412" x2="1243.857917" y2="1172.98485" stroke="black" stroke-width="6.48"/>
<line x1="1254.050597" y1="1181.537525" x2="1232.434624" y2="1204.341322" stroke="black" stroke-width="6.48"/>
<line x1="1334.863998" y1="1249.348021" x2="1315.54931" y2="1275.323483" stroke="black" stroke-width="6.48"/>
<line x1="956.732404" y1="1515.167712" x2="1057.931165" y2="1600.083554" stroke="black" stroke-width="6.48"/>
<line x1="1057.931165" y1="1600.083554" x2="1066.48384" y2="1589.890874" stroke="black" stroke-width="6.48"/>
<line x1="965.285082" y1="1504.975028" x2="1066.48384" y2="1589.890874" stroke="black" stroke-width="6.48"/>
<line x1="956.732404" y1="1515.167712" x2="965.285082" y2="1504.975028" stroke="black" stroke-width="6.48"/>
<line x1="975.97152" y1="1511.460702" x2="994.675302" y2="1486.213286" stroke="black" stroke-width="6.48"/>
<line x1="1056.784921" y1="1579.271195" x2="1079.73985" y2="1556.350258" stroke="black" stroke-width="6.48"/>
<line x1="1373.758002" y1="1478.008098" x2="1362.837272" y2="1468.844514" stroke="black" stroke-width="6.48"/>
<line x1="1362.837272" y1="1468.844514" x2="1277.921426" y2="1570.043279" stroke="black" stroke-width="6.48"/>
<line x1="1288.842156" y1="1579.206856" x2="1277.921426" y2="1570.043279" stroke="black" stroke-width="6.48"/>
<line x1="1373.758002" y1="1478.008098" x2="1288.842156" y2="1579.206856" stroke="black" stroke-width="6.48"/>
<line x1="1287.085007" y1="1559.122549" x2="1260.49864" y2="1540.535911" stroke="black" stroke-width="6.48"/>
<line x1="1354.284594" y1="1479.037198" x2="1330.752751" y2="1456.810322" stroke="black" stroke-width="6.48"/>
<line x1="1021.993362" y1="1181.60186" x2="1032.914092" y2="1190.765444" stroke="black" stroke-width="6.48"/>
<line x1="1032.914092" y1="1190.765444" x2="947.998253" y2="1291.964202" stroke="black" stroke-width="6.48"/>
<line x1="937.077523" y1="1282.800622" x2="947.998253" y2="1291.964202" stroke="black" stroke-width="6.48"/>
<line x1="1021.993362" y1="1181.60186" x2="937.077523" y2="1282.800622" stroke="black" stroke-width="6.48"/>
<line x1="957.16183" y1="1281.043472" x2="980.08277" y2="1303.998401" stroke="black" stroke-width="6.48"/>
<line x1="1024.36142" y1="1200.958121" x2="1050.336886" y2="1220.272808" stroke="black" stroke-width="6.48"/>
<circle cx="1155.417761" cy="1380.404358" r="191.98080000000002" fill="none" stroke="black" stroke-width="6.48"/>
</g>
</svg>
