<?xml version="1.0"?>
<svg xmlns:xlink="http://www.w3.org/1999/xlink" width="6775.2" height="2858.4">
<image x="0" y="0" width="6775.2" height="2858.4" xlink:href="groundfilled-01.png"/>
<g style="stroke-linecap:round">
<line x1="1285.950406" y1="795.178109" x2="1311.346069" y2="795.178109" stroke="black" stroke-width="6.48"/>
<line x1="1311.346069" y1="795.178109" x2="1311.346069" y2="745.625592" stroke="black" stroke-width="6.48"/>
<line x1="1311.346069" y1="745.625592" x2="1285.950406" y2="745.625592" stroke="black" stroke-width="6.48"/>
<line x1="1285.950406" y1="745.625592" x2="1285.950406" y2="795.178109" stroke="black" stroke-width="6.48"/>
<line x1="1559.728062" y1="745.625592" x2="1559.728062" y2="498.48241" stroke="black" stroke-width="6.48"/>
<line x1="1560.347471" y1="796.416923" x2="1585.743134" y2="796.416923" stroke="black" stroke-width="6.48"/>
<line x1="1585.743134" y1="796.416923" x2="1585.743134" y2="746.864406" stroke="black" stroke-width="6.48"/>
<line x1="1585.743134" y1="746.864406" x2="1560.347471" y2="746.864406" stroke="black" stroke-width="6.48"/>
<line x1="1560.347471" y1="746.864406" x2="1560.347471" y2="796.416923" stroke="black" stroke-width="6.48"/>
<path d="m 1311.346069,747.483811 a 248.38199299999997,248.38199299999997 0 0 1 248.38199299999997,-248.38199299999997" fill="none" stroke="black" stroke-width="6.48"/>
<line x1="330.523178" y1="771.328966" x2="330.523178" y2="366.748985" stroke="black" stroke-width="6.48"/>
<line x1="330.523178" y1="366.748985" x2="258.15928" y2="366.748985" stroke="black" stroke-width="6.48"/>
<line x1="258.15928" y1="366.748985" x2="258.15928" y2="771.328966" stroke="black" stroke-width="6.48"/>
<line x1="258.15928" y1="771.328966" x2="330.523178" y2="771.328966" stroke="black" stroke-width="6.48"/>
<line x1="330.523178" y1="752.415674" x2="355.19269" y2="752.415674" stroke="black" stroke-width="6.48"/>
<line x1="355.19269" y1="752.415674" x2="355.19269" y2="386.484595" stroke="black" stroke-width="6.48"/>
<line x1="330.523178" y1="386.484595" x2="355.19269" y2="386.484595" stroke="black" stroke-width="6.48"/>
<line x1="3901.945176" y1="1169.331426" x2="3901.945176" y2="1428.837066" stroke="black" stroke-width="6.48"/>
<line x1="3901.945176" y1="1428.837066" x2="3941.9501" y2="1428.837066" stroke="black" stroke-width="6.48"/>
<line x1="3941.9501" y1="1428.837066" x2="3941.9501" y2="1169.331426" stroke="black" stroke-width="6.48"/>
<line x1="3941.9501" y1="1169.331426" x2="3901.945176" y2="1169.331426" stroke="black" stroke-width="6.48"/>
<line x1="3941.423719" y1="1193.544936" x2="3902.471557" y2="1193.544936" stroke="black" stroke-width="6.48"/>
<line x1="3941.423719" y1="1404.097178" x2="3900.892414" y2="1404.097178" stroke="black" stroke-width="6.48"/>
<line x1="3923.000399" y1="1193.018555" x2="3923.000399" y2="1403.570797" stroke="black" stroke-width="6.48"/>
<line x1="334.430687" y1="1882.943946" x2="334.430687" y2="1457.437414" stroke="black" stroke-width="6.48"/>
<line x1="334.430687" y1="1457.437414" x2="258.323828" y2="1457.437414" stroke="black" stroke-width="6.48"/>
<line x1="258.323828" y1="1457.437414" x2="258.323828" y2="1882.943946" stroke="black" stroke-width="6.48"/>
<line x1="258.323828" y1="1882.943946" x2="334.430687" y2="1882.943946" stroke="black" stroke-width="6.48"/>
<line x1="334.430687" y1="1863.05238" x2="360.376207" y2="1863.05238" stroke="black" stroke-width="6.48"/>
<line x1="360.376207" y1="1863.05238" x2="360.376207" y2="1478.193829" stroke="black" stroke-width="6.48"/>
<line x1="334.430687" y1="1478.193829" x2="360.376207" y2="1478.193829" stroke="black" stroke-width="6.48"/>
<line x1="2747.905531" y1="904.670665" x2="2721.68303" y2="904.670665" stroke="black" stroke-width="6.48"/>
<line x1="2721.68303" y1="904.670665" x2="2721.68303" y2="955.836522" stroke="black" stroke-width="6.48"/>
<line x1="2721.68303" y1="955.836522" x2="2747.905531" y2="955.836522" stroke="black" stroke-width="6.48"/>
<line x1="2747.905531" y1="955.836522" x2="2747.905531" y2="904.670665" stroke="black" stroke-width="6.48"/>
<line x1="2465.214181" y1="955.836522" x2="2465.214181" y2="1211.026223" stroke="black" stroke-width="6.48"/>
<line x1="2464.574609" y1="903.39152" x2="2438.352108" y2="903.39152" stroke="black" stroke-width="6.48"/>
<line x1="2438.352108" y1="903.39152" x2="2438.352108" y2="954.557374" stroke="black" stroke-width="6.48"/>
<line x1="2438.352108" y1="954.557374" x2="2464.574609" y2="954.557374" stroke="black" stroke-width="6.48"/>
<line x1="2464.574609" y1="954.557374" x2="2464.574609" y2="903.39152" stroke="black" stroke-width="6.48"/>
<path d="m 2721.68303,953.917801 a 256.4688490000001,256.4688490000001 0 0 1 -256.4688490000003,256.46884899999986" fill="none" stroke="black" stroke-width="6.48"/>
<line x1="2420.532389" y1="1427.858834" x2="2395.136725" y2="1427.858834" stroke="black" stroke-width="6.48"/>
<line x1="2395.136725" y1="1427.858834" x2="2395.136725" y2="1477.411351" stroke="black" stroke-width="6.48"/>
<line x1="2395.136725" y1="1477.411351" x2="2420.532389" y2="1477.411351" stroke="black" stroke-width="6.48"/>
<line x1="2420.532389" y1="1477.411351" x2="2420.532389" y2="1427.858834" stroke="black" stroke-width="6.48"/>
<line x1="2146.754732" y1="1477.411351" x2="2146.754732" y2="1724.554534" stroke="black" stroke-width="6.48"/>
<line x1="2146.135324" y1="1426.62002" x2="2120.73966" y2="1426.62002" stroke="black" stroke-width="6.48"/>
<line x1="2120.73966" y1="1426.62002" x2="2120.73966" y2="1476.172537" stroke="black" stroke-width="6.48"/>
<line x1="2120.73966" y1="1476.172537" x2="2146.135324" y2="1476.172537" stroke="black" stroke-width="6.48"/>
<line x1="2146.135324" y1="1476.172537" x2="2146.135324" y2="1426.62002" stroke="black" stroke-width="6.48"/>
<path d="m 2395.136725,1475.553132 a 248.38199299999997,248.38199299999997 0 0 1 -248.38199299999997,248.38199299999997" fill="none" stroke="black" stroke-width="6.48"/>
<line x1="401.746558" y1="692.136151" x2="794.578558" y2="692.136151" stroke="black" stroke-width="6.48"/>
<line x1="794.578558" y1="692.136151" x2="794.578558" y2="507.600151" stroke="black" stroke-width="6.48"/>
<line x1="794.578558" y1="507.600151" x2="401.746558" y2="507.600151" stroke="black" stroke-width="6.48"/>
<line x1="401.746558" y1="507.600151" x2="401.746558" y2="692.136151" stroke="black" stroke-width="6.48"/>
<line x1="560.938558" y1="507.600151" x2="560.938558" y2="426.816151" stroke="black" stroke-width="6.48"/>
<line x1="560.938558" y1="426.816151" x2="482.530558" y2="426.816151" stroke="black" stroke-width="6.48"/>
<line x1="482.530558" y1="426.816151" x2="482.530558" y2="507.600151" stroke="black" stroke-width="6.48"/>
<line x1="483.322558" y1="444.240151" x2="560.938558" y2="444.240151" stroke="black" stroke-width="6.48"/>
<line x1="482.530558" y1="773.712151" x2="560.938558" y2="773.712151" stroke="black" stroke-width="6.48"/>
<line x1="560.938558" y1="773.712151" x2="560.938558" y2="692.136151" stroke="black" stroke-width="6.48"/>
<line x1="482.530558" y1="692.136151" x2="482.530558" y2="773.712151" stroke="black" stroke-width="6.48"/>
<line x1="483.322558" y1="756.288151" x2="560.938558" y2="756.288151" stroke="black" stroke-width="6.48"/>
<line x1="712.210558" y1="507.600151" x2="712.210558" y2="426.816151" stroke="black" stroke-width="6.48"/>
<line x1="712.210558" y1="426.816151" x2="633.802558" y2="426.816151" stroke="black" stroke-width="6.48"/>
<line x1="633.802558" y1="426.816151" x2="633.802558" y2="507.600151" stroke="black" stroke-width="6.48"/>
<line x1="633.802558" y1="444.240151" x2="712.210558" y2="444.240151" stroke="black" stroke-width="6.48"/>
<line x1="633.802558" y1="773.712151" x2="712.210558" y2="773.712151" stroke="black" stroke-width="6.48"/>
<line x1="712.210558" y1="773.712151" x2="712.210558" y2="692.136151" stroke="black" stroke-width="6.48"/>
<line x1="633.802558" y1="692.136151" x2="633.802558" y2="773.712151" stroke="black" stroke-width="6.48"/>
<line x1="633.802558" y1="756.288151" x2="712.210558" y2="756.288151" stroke="black" stroke-width="6.48"/>
<line x1="1842.844367" y1="1992.322742" x2="2032.924367" y2="1992.322742" stroke="black" stroke-width="6.48"/>
<line x1="2032.924367" y1="1992.322742" x2="2032.924367" y2="1528.527542" stroke="black" stroke-width="6.48"/>
<line x1="2032.924367" y1="1528.527542" x2="1842.844367" y2="1528.527542" stroke="black" stroke-width="6.48"/>
<line x1="1842.844367" y1="1528.527542" x2="1842.844367" y2="1552.287542" stroke="black" stroke-width="6.48"/>
<line x1="1842.844367" y1="1552.287542" x2="2010.114767" y2="1552.287542" stroke="black" stroke-width="6.48"/>
<line x1="2010.114767" y1="1552.287542" x2="2010.114767" y2="1967.612342" stroke="black" stroke-width="6.48"/>
<line x1="2010.114767" y1="1967.612342" x2="1842.844367" y2="1967.612342" stroke="black" stroke-width="6.48"/>
<line x1="1842.844367" y1="1967.612342" x2="1842.844367" y2="1992.322742" stroke="black" stroke-width="6.48"/>
<line x1="1848.546767" y1="1967.612342" x2="1848.546767" y2="1552.287542" stroke="black" stroke-width="6.48"/>
<line x1="1847.596367" y1="1760.425142" x2="2009.164367" y2="1760.425142" stroke="black" stroke-width="6.48"/>
<line x1="1485.415969" y1="209.267824" x2="1707.693134" y2="209.267824" stroke="black" stroke-width="6.48"/>
<line x1="1707.693134" y1="209.267824" x2="1707.693134" y2="432.000475" stroke="black" stroke-width="6.48"/>
<line x1="1707.693134" y1="432.000475" x2="1485.415969" y2="432.000475" stroke="black" stroke-width="6.48"/>
<line x1="1485.415969" y1="432.000475" x2="1485.415969" y2="209.267824" stroke="black" stroke-width="6.48"/>
<line x1="1484.960483" y1="208.812337" x2="1707.693134" y2="432.000475" stroke="black" stroke-width="6.48"/>
<line x1="1485.415969" y1="431.544989" x2="1707.237648" y2="209.267824" stroke="black" stroke-width="6.48"/>
<line x1="2586.780558" y1="1803.366338" x2="2586.780558" y2="2194.614338" stroke="black" stroke-width="6.48"/>
<line x1="2586.780558" y1="2194.614338" x2="2761.020558" y2="2194.614338" stroke="black" stroke-width="6.48"/>
<line x1="2761.020558" y1="2194.614338" x2="2761.020558" y2="1803.366338" stroke="black" stroke-width="6.48"/>
<line x1="2761.020558" y1="1803.366338" x2="2586.780558" y2="1803.366338" stroke="black" stroke-width="6.48"/>
<line x1="2734.092558" y1="2119.374338" x2="2734.092558" y2="1835.046338" stroke="black" stroke-width="6.48"/>
<line x1="2734.092558" y1="1835.046338" x2="2616.084558" y2="1835.046338" stroke="black" stroke-width="6.48"/>
<line x1="2616.084558" y1="1835.046338" x2="2616.084558" y2="2124.918338" stroke="black" stroke-width="6.48"/>
<path d="m 2734.347982,2118.563766 a 63.35999941905905,63.35999941905905 0 0 1 -119.37432999999965,4.2938139999996565" fill="none" stroke="black" stroke-width="6.48"/>
<line x1="2081.331724" y1="1915.989631" x2="2056.779724" y2="1934.601631" stroke="black" stroke-width="6.48"/>
<line x1="2056.779724" y1="1934.601631" x2="2056.779724" y2="2081.913631" stroke="black" stroke-width="6.48"/>
<line x1="2056.779724" y1="2081.913631" x2="2084.895724" y2="2100.921631" stroke="black" stroke-width="6.48"/>
<line x1="2084.103724" y1="1937.769631" x2="2084.103724" y2="2080.725631" stroke="black" stroke-width="6.48"/>
<circle cx="2105.883724" cy="2007.069631" r="13.068000000000003" fill="none" stroke="black" stroke-width="6.48"/>
<path d="m 2083.436377,1939.322884 a 74.84400042853758,74.84400042853758 0 1 1 0.40204799999992247,139.60900400000014" fill="none" stroke="black" stroke-width="6.48"/>
<path d="m 2080.67436,1916.035934 a 95.43599931860243,95.43599931860243 0 1 1 3.0749580000001515,184.4669960000001" fill="none" stroke="black" stroke-width="6.48"/>
<line x1="553.008964" y1="209.103124" x2="823.556164" y2="209.103124" stroke="black" stroke-width="6.48"/>
<line x1="823.556164" y1="209.103124" x2="823.556164" y2="341.050324" stroke="black" stroke-width="6.48"/>
<line x1="553.008964" y1="341.050324" x2="823.556164" y2="341.050324" stroke="black" stroke-width="6.48"/>
<line x1="553.008964" y1="209.103124" x2="553.008964" y2="341.050324" stroke="black" stroke-width="6.48"/>
<line x1="559.661764" y1="215.755924" x2="697.707364" y2="215.755924" stroke="black" stroke-width="6.48"/>
<line x1="697.707364" y1="215.755924" x2="697.707364" y2="333.843124" stroke="black" stroke-width="6.48"/>
<line x1="559.661764" y1="333.843124" x2="697.707364" y2="333.843124" stroke="black" stroke-width="6.48"/>
<line x1="559.661764" y1="215.755924" x2="559.661764" y2="333.843124" stroke="black" stroke-width="6.48"/>
<line x1="712.121764" y1="223.517524" x2="809.141764" y2="223.517524" stroke="black" stroke-width="6.48"/>
<line x1="712.121764" y1="244.030324" x2="809.141764" y2="244.030324" stroke="black" stroke-width="6.48"/>
<line x1="712.676164" y1="265.097524" x2="809.696164" y2="265.097524" stroke="black" stroke-width="6.48"/>
<line x1="712.676164" y1="285.610324" x2="809.696164" y2="285.610324" stroke="black" stroke-width="6.48"/>
<line x1="712.121764" y1="306.123124" x2="809.141764" y2="306.123124" stroke="black" stroke-width="6.48"/>
<line x1="712.121764" y1="326.635924" x2="809.141764" y2="326.635924" stroke="black" stroke-width="6.48"/>
<line x1="612.329764" y1="333.843124" x2="612.329764" y2="319.983124" stroke="black" stroke-width="6.48"/>
<line x1="612.329764" y1="319.983124" x2="646.702564" y2="319.983124" stroke="black" stroke-width="6.48"/>
<line x1="646.702564" y1="319.983124" x2="646.702564" y2="333.288724" stroke="black" stroke-width="6.48"/>
<circle cx="682.184164" cy="230.724724" r="8.316000000000003" fill="none" stroke="black" stroke-width="6.48"/>
<line x1="1086.095498" y1="1483.442838" x2="1140.767147" y2="1094.433851" stroke="black" stroke-width="6.48"/>
<line x1="1140.767147" y1="1094.433851" x2="958.027039" y2="1068.751404" stroke="black" stroke-width="6.48"/>
<line x1="958.027039" y1="1068.751404" x2="903.355391" y2="1457.760388" stroke="black" stroke-width="6.48"/>
<line x1="903.355391" y1="1457.760388" x2="1086.095498" y2="1483.442838" stroke="black" stroke-width="6.48"/>
<line x1="925.510637" y1="1300.117637" x2="845.512819" y2="1288.874675" stroke="black" stroke-width="6.48"/>
<line x1="845.512819" y1="1288.874675" x2="834.600535" y2="1366.519612" stroke="black" stroke-width="6.48"/>
<line x1="834.600535" y1="1366.519612" x2="914.598349" y2="1377.762574" stroke="black" stroke-width="6.48"/>
<line x1="851.965189" y1="1368.160276" x2="862.767252" y2="1291.299628" stroke="black" stroke-width="6.48"/>
<line x1="1178.120567" y1="1414.798207" x2="1189.032851" y2="1337.153267" stroke="black" stroke-width="6.48"/>
<line x1="1189.032851" y1="1337.153267" x2="1108.250744" y2="1325.800084" stroke="black" stroke-width="6.48"/>
<line x1="1097.338457" y1="1403.44502" x2="1178.120567" y2="1414.798207" stroke="black" stroke-width="6.48"/>
<line x1="1160.976362" y1="1411.588962" x2="1171.778418" y2="1334.728318" stroke="black" stroke-width="6.48"/>
<line x1="946.563628" y1="1150.317806" x2="866.565814" y2="1139.074844" stroke="black" stroke-width="6.48"/>
<line x1="866.565814" y1="1139.074844" x2="855.653526" y2="1216.719781" stroke="black" stroke-width="6.48"/>
<line x1="855.653526" y1="1216.719781" x2="935.651344" y2="1227.962743" stroke="black" stroke-width="6.48"/>
<line x1="872.907959" y1="1219.144734" x2="883.820243" y2="1141.499797" stroke="black" stroke-width="6.48"/>
<line x1="1199.173561" y1="1264.998377" x2="1210.085842" y2="1187.353436" stroke="black" stroke-width="6.48"/>
<line x1="1210.085842" y1="1187.353436" x2="1129.303735" y2="1176.00025" stroke="black" stroke-width="6.48"/>
<line x1="1118.391451" y1="1253.64519" x2="1199.173561" y2="1264.998377" stroke="black" stroke-width="6.48"/>
<line x1="1181.919132" y1="1262.57342" x2="1192.831412" y2="1184.928487" stroke="black" stroke-width="6.48"/>
<line x1="2044.889399" y1="955.822399" x2="2267.166564" y2="955.822399" stroke="black" stroke-width="6.48"/>
<line x1="2267.166564" y1="955.822399" x2="2267.166564" y2="1178.555051" stroke="black" stroke-width="6.48"/>
<line x1="2267.166564" y1="1178.555051" x2="2044.889399" y2="1178.555051" stroke="black" stroke-width="6.48"/>
<line x1="2044.889399" y1="1178.555051" x2="2044.889399" y2="955.822399" stroke="black" stroke-width="6.48"/>
<line x1="2044.433912" y1="955.366913" x2="2267.166564" y2="1178.555051" stroke="black" stroke-width="6.48"/>
<line x1="2044.889399" y1="1178.099564" x2="2266.711078" y2="955.822399" stroke="black" stroke-width="6.48"/>
<line x1="333.766206" y1="1375.361078" x2="333.766206" y2="949.854546" stroke="black" stroke-width="6.48"/>
<line x1="333.766206" y1="949.854546" x2="257.659348" y2="949.854546" stroke="black" stroke-width="6.48"/>
<line x1="257.659348" y1="949.854546" x2="257.659348" y2="1375.361078" stroke="black" stroke-width="6.48"/>
<line x1="257.659348" y1="1375.361078" x2="333.766206" y2="1375.361078" stroke="black" stroke-width="6.48"/>
<line x1="333.766206" y1="1355.469512" x2="359.711726" y2="1355.469512" stroke="black" stroke-width="6.48"/>
<line x1="359.711726" y1="1355.469512" x2="359.711726" y2="970.610962" stroke="black" stroke-width="6.48"/>
<line x1="333.766206" y1="970.610962" x2="359.711726" y2="970.610962" stroke="black" stroke-width="6.48"/>
<line x1="3874.406537" y1="1514.726719" x2="3874.406537" y2="1940.260162" stroke="black" stroke-width="6.48"/>
<line x1="3874.406537" y1="1940.260162" x2="3940.00601" y2="1940.260162" stroke="black" stroke-width="6.48"/>
<line x1="3940.00601" y1="1940.260162" x2="3940.00601" y2="1514.726719" stroke="black" stroke-width="6.48"/>
<line x1="3940.00601" y1="1514.726719" x2="3874.406537" y2="1514.726719" stroke="black" stroke-width="6.48"/>
<line x1="3939.14286" y1="1554.431663" x2="3875.269687" y2="1554.431663" stroke="black" stroke-width="6.48"/>
<line x1="3939.14286" y1="1899.692064" x2="3872.680232" y2="1899.692064" stroke="black" stroke-width="6.48"/>
<line x1="3908.932574" y1="1553.568512" x2="3908.932574" y2="1898.828914" stroke="black" stroke-width="6.48"/>
<line x1="5393.825194" y1="2016.561416" x2="5009.577512" y2="1934.88705" stroke="black" stroke-width="6.48"/>
<line x1="5009.577512" y1="1934.88705" x2="4971.210322" y2="2115.390496" stroke="black" stroke-width="6.48"/>
<line x1="4971.210322" y1="2115.390496" x2="5355.457999" y2="2197.064862" stroke="black" stroke-width="6.48"/>
<line x1="5355.457999" y1="2197.064862" x2="5393.825194" y2="2016.561416" stroke="black" stroke-width="6.48"/>
<line x1="5199.744726" y1="2163.966984" x2="5182.948789" y2="2242.985659" stroke="black" stroke-width="6.48"/>
<line x1="5182.948789" y1="2242.985659" x2="5259.643384" y2="2259.2876" stroke="black" stroke-width="6.48"/>
<line x1="5259.643384" y1="2259.2876" x2="5276.439324" y2="2180.268925" stroke="black" stroke-width="6.48"/>
<line x1="5262.491344" y1="2242.07969" x2="5186.57144" y2="2225.942417" stroke="black" stroke-width="6.48"/>
<line x1="5331.767119" y1="1919.97211" x2="5255.072521" y2="1903.670168" stroke="black" stroke-width="6.48"/>
<line x1="5255.072521" y1="1903.670168" x2="5238.111917" y2="1983.463538" stroke="black" stroke-width="6.48"/>
<line x1="5314.806511" y1="1999.765476" x2="5331.767119" y2="1919.97211" stroke="black" stroke-width="6.48"/>
<line x1="5327.36977" y1="1936.850688" x2="5251.449866" y2="1920.713414" stroke="black" stroke-width="6.48"/>
<line x1="5051.778383" y1="2132.515771" x2="5034.982442" y2="2211.534446" stroke="black" stroke-width="6.48"/>
<line x1="5034.982442" y1="2211.534446" x2="5111.67704" y2="2227.836384" stroke="black" stroke-width="6.48"/>
<line x1="5111.67704" y1="2227.836384" x2="5128.472977" y2="2148.817709" stroke="black" stroke-width="6.48"/>
<line x1="5115.299692" y1="2210.793142" x2="5038.605097" y2="2194.4912" stroke="black" stroke-width="6.48"/>
<line x1="5183.800776" y1="1888.520893" x2="5107.106174" y2="1872.218956" stroke="black" stroke-width="6.48"/>
<line x1="5107.106174" y1="1872.218956" x2="5090.145574" y2="1952.012322" stroke="black" stroke-width="6.48"/>
<line x1="5166.840172" y1="1968.314263" x2="5183.800776" y2="1888.520893" stroke="black" stroke-width="6.48"/>
<line x1="5180.178125" y1="1905.564139" x2="5103.483523" y2="1889.262194" stroke="black" stroke-width="6.48"/>
<line x1="3433.870764" y1="1075.404319" x2="3643.235968" y2="1075.404319" stroke="black" stroke-width="6.48"/>
<line x1="3643.235968" y1="1075.404319" x2="3643.235968" y2="744.189916" stroke="black" stroke-width="6.48"/>
<line x1="3643.235968" y1="744.189916" x2="3433.870764" y2="744.189916" stroke="black" stroke-width="6.48"/>
<line x1="3433.870764" y1="744.189916" x2="3433.870764" y2="1075.404319" stroke="black" stroke-width="6.48"/>
<line x1="3433.197564" y1="803.431516" x2="3643.909164" y2="803.431516" stroke="black" stroke-width="6.48"/>
<line x1="3643.909164" y1="803.431516" x2="3434.543964" y2="853.248319" stroke="black" stroke-width="6.48"/>
<line x1="3434.543964" y1="853.248319" x2="3466.184368" y2="899.699119" stroke="black" stroke-width="6.48"/>
<line x1="3466.184368" y1="899.699119" x2="3643.909164" y2="802.758319" stroke="black" stroke-width="6.48"/>
<line x1="3370.101199" y1="1203.295601" x2="3592.378364" y2="1203.295601" stroke="black" stroke-width="6.48"/>
<line x1="3592.378364" y1="1203.295601" x2="3592.378364" y2="1426.028252" stroke="black" stroke-width="6.48"/>
<line x1="3592.378364" y1="1426.028252" x2="3370.101199" y2="1426.028252" stroke="black" stroke-width="6.48"/>
<line x1="3370.101199" y1="1426.028252" x2="3370.101199" y2="1203.295601" stroke="black" stroke-width="6.48"/>
<line x1="3369.645713" y1="1202.840114" x2="3592.378364" y2="1426.028252" stroke="black" stroke-width="6.48"/>
<line x1="3370.101199" y1="1425.572766" x2="3591.922878" y2="1203.295601" stroke="black" stroke-width="6.48"/>
<line x1="2804.16708" y1="1127.69402" x2="2804.16708" y2="1153.148746" stroke="black" stroke-width="6.48"/>
<line x1="2804.16708" y1="1153.148746" x2="2853.834836" y2="1153.148746" stroke="black" stroke-width="6.48"/>
<line x1="2853.834836" y1="1153.148746" x2="2853.834836" y2="1127.69402" stroke="black" stroke-width="6.48"/>
<line x1="2853.834836" y1="1127.69402" x2="2804.16708" y2="1127.69402" stroke="black" stroke-width="6.48"/>
<line x1="2853.834836" y1="1402.108373" x2="3101.55277" y2="1402.108373" stroke="black" stroke-width="6.48"/>
<line x1="2802.925386" y1="1402.729218" x2="2802.925386" y2="1428.183943" stroke="black" stroke-width="6.48"/>
<line x1="2802.925386" y1="1428.183943" x2="2852.593142" y2="1428.183943" stroke="black" stroke-width="6.48"/>
<line x1="2852.593142" y1="1428.183943" x2="2852.593142" y2="1402.729218" stroke="black" stroke-width="6.48"/>
<line x1="2852.593142" y1="1402.729218" x2="2802.925386" y2="1402.729218" stroke="black" stroke-width="6.48"/>
<path d="m 2851.972294,1153.148746 a 248.95962699999984,248.95962699999984 0 0 1 248.95962699999973,248.95962699999995" fill="none" stroke="black" stroke-width="6.48"/>
<line x1="3468.567802" y1="1658.047504" x2="3691.482084" y2="1721.967145" stroke="black" stroke-width="6.48"/>
<line x1="3691.482084" y1="1721.967145" x2="3627.431456" y2="1945.338217" stroke="black" stroke-width="6.48"/>
<line x1="3627.431456" y1="1945.338217" x2="3404.517178" y2="1881.418572" stroke="black" stroke-width="6.48"/>
<line x1="3404.517178" y1="1881.418572" x2="3468.567802" y2="1658.047504" stroke="black" stroke-width="6.48"/>
<line x1="3468.241991" y1="1657.459728" x2="3627.431456" y2="1945.338217" stroke="black" stroke-width="6.48"/>
<line x1="3404.64816" y1="1880.961782" x2="3691.025291" y2="1721.836159" stroke="black" stroke-width="6.48"/>
<line x1="3066.685171" y1="1589.315879" x2="3055.615902" y2="1618.152311" stroke="black" stroke-width="6.48"/>
<line x1="3055.615902" y1="1618.152311" x2="3251.260004" y2="1693.253045" stroke="black" stroke-width="6.48"/>
<line x1="3251.260004" y1="1693.253045" x2="3262.329274" y2="1664.416613" stroke="black" stroke-width="6.48"/>
<line x1="3262.329274" y1="1664.416613" x2="3066.685171" y2="1589.315879" stroke="black" stroke-width="6.48"/>
<line x1="2993.627995" y1="1779.63633" x2="2982.558726" y2="1808.472762" stroke="black" stroke-width="6.48"/>
<line x1="2982.558726" y1="1808.472762" x2="3178.202828" y2="1883.573496" stroke="black" stroke-width="6.48"/>
<line x1="3178.202828" y1="1883.573496" x2="3189.272098" y2="1854.737068" stroke="black" stroke-width="6.48"/>
<line x1="3189.272098" y1="1854.737068" x2="2993.627995" y2="1779.63633" stroke="black" stroke-width="6.48"/>
<line x1="3055.7862" y1="1617.708672" x2="2993.627995" y2="1779.63633" stroke="black" stroke-width="6.48"/>
<line x1="3250.713323" y1="1692.025175" x2="3265.57678" y2="1726.235176" stroke="black" stroke-width="6.48"/>
<line x1="3222.151186" y1="1839.362717" x2="3188.214526" y2="1854.84011" stroke="black" stroke-width="6.48"/>
<line x1="3266.257964" y1="1724.460631" x2="3221.469997" y2="1841.137268" stroke="black" stroke-width="6.48"/>
<line x1="3097.31782" y1="1634.160175" x2="3035.159615" y2="1796.087833" stroke="black" stroke-width="6.48"/>
<line x1="5701.829857" y1="1432.341241" x2="5696.466214" y2="1462.759981" stroke="black" stroke-width="6.48"/>
<line x1="5696.466214" y1="1462.759981" x2="5902.845678" y2="1499.15025" stroke="black" stroke-width="6.48"/>
<line x1="5902.845678" y1="1499.15025" x2="5908.209322" y2="1468.731506" stroke="black" stroke-width="6.48"/>
<line x1="5908.209322" y1="1468.731506" x2="5701.829857" y2="1432.341241" stroke="black" stroke-width="6.48"/>
<line x1="5666.429801" y1="1633.104936" x2="5661.066154" y2="1663.523676" stroke="black" stroke-width="6.48"/>
<line x1="5661.066154" y1="1663.523676" x2="5867.445622" y2="1699.913945" stroke="black" stroke-width="6.48"/>
<line x1="5867.445622" y1="1699.913945" x2="5872.809262" y2="1669.495201" stroke="black" stroke-width="6.48"/>
<line x1="5872.809262" y1="1669.495201" x2="5666.429801" y2="1633.104936" stroke="black" stroke-width="6.48"/>
<line x1="5696.548729" y1="1462.291999" x2="5666.429801" y2="1633.104936" stroke="black" stroke-width="6.48"/>
<line x1="5902.074752" y1="1498.049251" x2="5923.192698" y2="1528.794634" stroke="black" stroke-width="6.48"/>
<line x1="5902.150709" y1="1648.129702" x2="5871.790786" y2="1669.798148" stroke="black" stroke-width="6.48"/>
<line x1="5923.522768" y1="1526.922716" x2="5901.820639" y2="1650.001622" stroke="black" stroke-width="6.48"/>
<line x1="5740.456392" y1="1470.516638" x2="5710.337464" y2="1641.329572" stroke="black" stroke-width="6.48"/>
<line x1="1372.632653" y1="1693.186726" x2="1240.591954" y2="1829.918808" stroke="black" stroke-width="6.48"/>
<line x1="1240.591954" y1="1829.918808" x2="1574.218224" y2="2152.098104" stroke="black" stroke-width="6.48"/>
<line x1="1574.218224" y1="2152.098104" x2="1706.25892" y2="2015.366026" stroke="black" stroke-width="6.48"/>
<line x1="1706.25892" y1="2015.366026" x2="1689.167412" y2="1998.86094" stroke="black" stroke-width="6.48"/>
<line x1="1689.167412" y1="1998.86094" x2="1572.971598" y2="2119.185169" stroke="black" stroke-width="6.48"/>
<line x1="1572.971598" y1="2119.185169" x2="1274.212008" y2="1830.676244" stroke="black" stroke-width="6.48"/>
<line x1="1274.212008" y1="1830.676244" x2="1390.407822" y2="1710.352019" stroke="black" stroke-width="6.48"/>
<line x1="1390.407822" y1="1710.352019" x2="1372.632653" y2="1693.186726" stroke="black" stroke-width="6.48"/>
<line x1="1386.446605" y1="1714.453981" x2="1685.206184" y2="2002.962902" stroke="black" stroke-width="6.48"/>
<line x1="1536.144768" y1="1857.69468" x2="1423.910178" y2="1973.916943" stroke="black" stroke-width="6.48"/>
<line x1="2306.672896" y1="2045.01794" x2="2537.300131" y2="2069.257896" stroke="black" stroke-width="6.48"/>
<line x1="2537.300131" y1="2069.257896" x2="2513.010503" y2="2300.357729" stroke="black" stroke-width="6.48"/>
<line x1="2513.010503" y1="2300.357729" x2="2282.383267" y2="2276.11777" stroke="black" stroke-width="6.48"/>
<line x1="2282.383267" y1="2276.11777" x2="2306.672896" y2="2045.01794" stroke="black" stroke-width="6.48"/>
<line x1="2306.249971" y1="2044.49567" x2="2513.010503" y2="2300.357729" stroke="black" stroke-width="6.48"/>
<line x1="2282.43294" y1="2275.645172" x2="2536.827534" y2="2069.208223" stroke="black" stroke-width="6.48"/>
<line x1="5995.435118" y1="1783.474301" x2="5937.802657" y2="1984.462585" stroke="black" stroke-width="6.48"/>
<line x1="5937.802657" y1="1984.462585" x2="6160.71694" y2="2048.382227" stroke="black" stroke-width="6.48"/>
<line x1="6160.71694" y1="2048.382227" x2="6218.349401" y2="1847.393939" stroke="black" stroke-width="6.48"/>
<line x1="6218.349401" y1="1847.393939" x2="5995.435118" y2="1783.474301" stroke="black" stroke-width="6.48"/>
<line x1="6026.496948" y1="1792.381133" x2="5968.864483" y2="1993.369421" stroke="black" stroke-width="6.48"/>
<line x1="925.941118" y1="211.169527" x2="1319.18499" y2="211.169527" stroke="black" stroke-width="6.48"/>
<line x1="1323.140396" y1="210.173245" x2="1323.140396" y2="346.24202" stroke="black" stroke-width="6.48"/>
<line x1="926.405507" y1="347.393527" x2="1323.445738" y2="347.393527" stroke="black" stroke-width="6.48"/>
<line x1="927.140396" y1="211.864277" x2="927.140396" y2="347.128333" stroke="black" stroke-width="6.48"/>
<line x1="937.436396" y1="222.257527" x2="1060.988396" y2="222.257527" stroke="black" stroke-width="6.48"/>
<line x1="1060.988396" y1="222.257527" x2="1060.988396" y2="336.305527" stroke="black" stroke-width="6.48"/>
<line x1="937.436396" y1="336.305527" x2="1060.988396" y2="336.305527" stroke="black" stroke-width="6.48"/>
<line x1="937.436396" y1="222.257527" x2="937.436396" y2="336.305527" stroke="black" stroke-width="6.48"/>
<line x1="1079.996396" y1="229.385527" x2="1167.116396" y2="229.385527" stroke="black" stroke-width="6.48"/>
<line x1="1079.996396" y1="249.185527" x2="1167.116396" y2="249.185527" stroke="black" stroke-width="6.48"/>
<line x1="1080.788396" y1="269.777527" x2="1167.116396" y2="269.777527" stroke="black" stroke-width="6.48"/>
<line x1="1080.788396" y1="289.577527" x2="1167.116396" y2="289.577527" stroke="black" stroke-width="6.48"/>
<line x1="1079.996396" y1="309.377527" x2="1167.116396" y2="309.377527" stroke="black" stroke-width="6.48"/>
<line x1="1079.996396" y1="329.177527" x2="1167.116396" y2="329.177527" stroke="black" stroke-width="6.48"/>
<line x1="984.956396" y1="335.513527" x2="984.956396" y2="322.049527" stroke="black" stroke-width="6.48"/>
<line x1="984.956396" y1="322.049527" x2="1015.052396" y2="322.049527" stroke="black" stroke-width="6.48"/>
<line x1="1015.052396" y1="322.049527" x2="1015.052396" y2="334.721527" stroke="black" stroke-width="6.48"/>
<line x1="1187.708396" y1="222.257527" x2="1311.260396" y2="222.257527" stroke="black" stroke-width="6.48"/>
<line x1="1311.260396" y1="222.257527" x2="1311.260396" y2="336.305527" stroke="black" stroke-width="6.48"/>
<line x1="1187.708396" y1="336.305527" x2="1311.260396" y2="336.305527" stroke="black" stroke-width="6.48"/>
<line x1="1187.708396" y1="222.257527" x2="1187.708396" y2="336.305527" stroke="black" stroke-width="6.48"/>
<line x1="1235.228396" y1="336.305527" x2="1235.228396" y2="322.841527" stroke="black" stroke-width="6.48"/>
<line x1="1235.228396" y1="322.841527" x2="1265.324396" y2="322.841527" stroke="black" stroke-width="6.48"/>
<line x1="1265.324396" y1="322.841527" x2="1265.324396" y2="335.513527" stroke="black" stroke-width="6.48"/>
<circle cx="1046.732396" cy="236.513527" r="7.128000000000001" fill="none" stroke="black" stroke-width="6.48"/>
<circle cx="1297.004396" cy="237.305527" r="7.128000000000001" fill="none" stroke="black" stroke-width="6.48"/>
</g>
</svg>
