<?xml version="1.0"?>
<svg xmlns:xlink="http://www.w3.org/1999/xlink" width="6775.2" height="2858.4">
<image x="0" y="0" width="6775.2" height="2858.4" xlink:href="groundfilled-01.png"/>
<g style="stroke-linecap:round">
<line x1="1285.950406" y1="795.178109" x2="1311.346069" y2="795.178109" stroke="black" stroke-width="6.48"/>
<line x1="1311.346069" y1="795.178109" x2="1311.346069" y2="745.625592" stroke="black" stroke-width="6.48"/>
<line x1="1311.346069" y1="745.625592" x2="1285.950406" y2="745.625592" stroke="black" stroke-width="6.48"/>
<line x1="1285.950406" y1="745.625592" x2="1285.950406" y2="795.178109" stroke="black" stroke-width="6.48"/>
<line x1="1559.728062" y1="745.625592" x2="1559.728062" y2="498.48241" stroke="black" stroke-width="6.48"/>
<line x1="1560.347471" y1="796.416923" x2="1585.743134" y2="796.416923" stroke="black" stroke-width="6.48"/>
<line x1="1585.743134" y1="796.416923" x2="1585.743134" y2="746.864406" stroke="black" stroke-width="6.48"/>
<line x1="1585.743134" y1="746.864406" x2="1560.347471" y2="746.864406" stroke="black" stroke-width="6.48"/>
<line x1="1560.347471" y1="746.864406" x2="1560.347471" y2="796.416923" stroke="black" stroke-width="6.48"/>
<path d="m 1311.346069,747.483811 a 248.38199299999997,248.38199299999997 0 0 1 248.38199299999997,-248.38199299999997" fill="none" stroke="black" stroke-width="6.48"/>
<line x1="330.523178" y1="771.328966" x2="330.523178" y2="366.748985" stroke="black" stroke-width="6.48"/>
<line x1="330.523178" y1="366.748985" x2="258.15928" y2="366.748985" stroke="black" stroke-width="6.48"/>
<line x1="258.15928" y1="366.748985" x2="258.15928" y2="771.328966" stroke="black" stroke-width="6.48"/>
<line x1="258.15928" y1="771.328966" x2="330.523178" y2="771.328966" stroke="black" stroke-width="6.48"/>
<line x1="330.523178" y1="752.415674" x2="355.19269" y2="752.415674" stroke="black" stroke-width="6.48"/>
<line x1="355.19269" y1="752.415674" x2="355.19269" y2="386.484595" stroke="black" stroke-width="6.48"/>
<line x1="330.523178" y1="386.484595" x2="355.19269" y2="386.484595" stroke="black" stroke-width="6.48"/>
<line x1="3901.945176" y1="1169.331426" x2="3901.945176" y2="1428.837066" stroke="black" stroke-width="6.48"/>
<line x1="3901.945176" y1="1428.837066" x2="3941.9501" y2="1428.837066" stroke="black" stroke-width="6.48"/>
<line x1="3941.9501" y1="1428.837066" x2="3941.9501" y2="1169.331426" stroke="black" stroke-width="6.48"/>
<line x1="3941.9501" y1="1169.331426" x2="3901.945176" y2="1169.331426" stroke="black" stroke-width="6.48"/>
<line x1="3941.423719" y1="1193.544936" x2="3902.471557" y2="1193.544936" stroke="black" stroke-width="6.48"/>
<line x1="3941.423719" y1="1404.097178" x2="3900.892414" y2="1404.097178" stroke="black" stroke-width="6.48"/>
<line x1="3923.000399" y1="1193.018555" x2="3923.000399" y2="1403.570797" stroke="black" stroke-width="6.48"/>
<line x1="323.923298" y1="1882.957399" x2="323.923298" y2="1457.423957" stroke="black" stroke-width="6.48"/>
<line x1="323.923298" y1="1457.423957" x2="258.323825" y2="1457.423957" stroke="black" stroke-width="6.48"/>
<line x1="258.323825" y1="1457.423957" x2="258.323825" y2="1882.957399" stroke="black" stroke-width="6.48"/>
<line x1="258.323825" y1="1882.957399" x2="323.923298" y2="1882.957399" stroke="black" stroke-width="6.48"/>
<line x1="259.186975" y1="1843.252456" x2="323.060148" y2="1843.252456" stroke="black" stroke-width="6.48"/>
<line x1="259.186975" y1="1497.992054" x2="325.649603" y2="1497.992054" stroke="black" stroke-width="6.48"/>
<line x1="289.397261" y1="1844.115606" x2="289.397261" y2="1498.855205" stroke="black" stroke-width="6.48"/>
<line x1="2747.905531" y1="904.670665" x2="2721.68303" y2="904.670665" stroke="black" stroke-width="6.48"/>
<line x1="2721.68303" y1="904.670665" x2="2721.68303" y2="955.836522" stroke="black" stroke-width="6.48"/>
<line x1="2721.68303" y1="955.836522" x2="2747.905531" y2="955.836522" stroke="black" stroke-width="6.48"/>
<line x1="2747.905531" y1="955.836522" x2="2747.905531" y2="904.670665" stroke="black" stroke-width="6.48"/>
<line x1="2465.214181" y1="955.836522" x2="2465.214181" y2="1211.026223" stroke="black" stroke-width="6.48"/>
<line x1="2464.574609" y1="903.39152" x2="2438.352108" y2="903.39152" stroke="black" stroke-width="6.48"/>
<line x1="2438.352108" y1="903.39152" x2="2438.352108" y2="954.557374" stroke="black" stroke-width="6.48"/>
<line x1="2438.352108" y1="954.557374" x2="2464.574609" y2="954.557374" stroke="black" stroke-width="6.48"/>
<line x1="2464.574609" y1="954.557374" x2="2464.574609" y2="903.39152" stroke="black" stroke-width="6.48"/>
<path d="m 2721.68303,953.917801 a 256.4688490000001,256.4688490000001 0 0 1 -256.4688490000003,256.46884899999986" fill="none" stroke="black" stroke-width="6.48"/>
<line x1="2420.532389" y1="1427.858834" x2="2395.136725" y2="1427.858834" stroke="black" stroke-width="6.48"/>
<line x1="2395.136725" y1="1427.858834" x2="2395.136725" y2="1477.411351" stroke="black" stroke-width="6.48"/>
<line x1="2395.136725" y1="1477.411351" x2="2420.532389" y2="1477.411351" stroke="black" stroke-width="6.48"/>
<line x1="2420.532389" y1="1477.411351" x2="2420.532389" y2="1427.858834" stroke="black" stroke-width="6.48"/>
<line x1="2146.754732" y1="1477.411351" x2="2146.754732" y2="1724.554534" stroke="black" stroke-width="6.48"/>
<line x1="2146.135324" y1="1426.62002" x2="2120.73966" y2="1426.62002" stroke="black" stroke-width="6.48"/>
<line x1="2120.73966" y1="1426.62002" x2="2120.73966" y2="1476.172537" stroke="black" stroke-width="6.48"/>
<line x1="2120.73966" y1="1476.172537" x2="2146.135324" y2="1476.172537" stroke="black" stroke-width="6.48"/>
<line x1="2146.135324" y1="1476.172537" x2="2146.135324" y2="1426.62002" stroke="black" stroke-width="6.48"/>
<path d="m 2395.136725,1475.553132 a 248.38199299999997,248.38199299999997 0 0 1 -248.38199299999997,248.38199299999997" fill="none" stroke="black" stroke-width="6.48"/>
<line x1="501.373566" y1="692.136151" x2="894.205566" y2="692.136151" stroke="black" stroke-width="6.48"/>
<line x1="894.205566" y1="692.136151" x2="894.205566" y2="507.600151" stroke="black" stroke-width="6.48"/>
<line x1="894.205566" y1="507.600151" x2="501.373566" y2="507.600151" stroke="black" stroke-width="6.48"/>
<line x1="501.373566" y1="507.600151" x2="501.373566" y2="692.136151" stroke="black" stroke-width="6.48"/>
<line x1="660.565566" y1="507.600151" x2="660.565566" y2="426.816151" stroke="black" stroke-width="6.48"/>
<line x1="660.565566" y1="426.816151" x2="582.157566" y2="426.816151" stroke="black" stroke-width="6.48"/>
<line x1="582.157566" y1="426.816151" x2="582.157566" y2="507.600151" stroke="black" stroke-width="6.48"/>
<line x1="582.949566" y1="444.240151" x2="660.565566" y2="444.240151" stroke="black" stroke-width="6.48"/>
<line x1="582.157566" y1="773.712151" x2="660.565566" y2="773.712151" stroke="black" stroke-width="6.48"/>
<line x1="660.565566" y1="773.712151" x2="660.565566" y2="692.136151" stroke="black" stroke-width="6.48"/>
<line x1="582.157566" y1="692.136151" x2="582.157566" y2="773.712151" stroke="black" stroke-width="6.48"/>
<line x1="582.949566" y1="756.288151" x2="660.565566" y2="756.288151" stroke="black" stroke-width="6.48"/>
<line x1="811.837566" y1="507.600151" x2="811.837566" y2="426.816151" stroke="black" stroke-width="6.48"/>
<line x1="811.837566" y1="426.816151" x2="733.429566" y2="426.816151" stroke="black" stroke-width="6.48"/>
<line x1="733.429566" y1="426.816151" x2="733.429566" y2="507.600151" stroke="black" stroke-width="6.48"/>
<line x1="733.429566" y1="444.240151" x2="811.837566" y2="444.240151" stroke="black" stroke-width="6.48"/>
<line x1="733.429566" y1="773.712151" x2="811.837566" y2="773.712151" stroke="black" stroke-width="6.48"/>
<line x1="811.837566" y1="773.712151" x2="811.837566" y2="692.136151" stroke="black" stroke-width="6.48"/>
<line x1="733.429566" y1="692.136151" x2="733.429566" y2="773.712151" stroke="black" stroke-width="6.48"/>
<line x1="733.429566" y1="756.288151" x2="811.837566" y2="756.288151" stroke="black" stroke-width="6.48"/>
<line x1="1842.844367" y1="2096.793742" x2="2032.924367" y2="2096.793742" stroke="black" stroke-width="6.48"/>
<line x1="2032.924367" y1="2096.793742" x2="2032.924367" y2="1632.998542" stroke="black" stroke-width="6.48"/>
<line x1="2032.924367" y1="1632.998542" x2="1842.844367" y2="1632.998542" stroke="black" stroke-width="6.48"/>
<line x1="1842.844367" y1="1632.998542" x2="1842.844367" y2="1656.758542" stroke="black" stroke-width="6.48"/>
<line x1="1842.844367" y1="1656.758542" x2="2010.114767" y2="1656.758542" stroke="black" stroke-width="6.48"/>
<line x1="2010.114767" y1="1656.758542" x2="2010.114767" y2="2072.083342" stroke="black" stroke-width="6.48"/>
<line x1="2010.114767" y1="2072.083342" x2="1842.844367" y2="2072.083342" stroke="black" stroke-width="6.48"/>
<line x1="1842.844367" y1="2072.083342" x2="1842.844367" y2="2096.793742" stroke="black" stroke-width="6.48"/>
<line x1="1848.546767" y1="2072.083342" x2="1848.546767" y2="1656.758542" stroke="black" stroke-width="6.48"/>
<line x1="1847.596367" y1="1864.896142" x2="2009.164367" y2="1864.896142" stroke="black" stroke-width="6.48"/>
<line x1="1485.415969" y1="209.267824" x2="1707.693134" y2="209.267824" stroke="black" stroke-width="6.48"/>
<line x1="1707.693134" y1="209.267824" x2="1707.693134" y2="432.000475" stroke="black" stroke-width="6.48"/>
<line x1="1707.693134" y1="432.000475" x2="1485.415969" y2="432.000475" stroke="black" stroke-width="6.48"/>
<line x1="1485.415969" y1="432.000475" x2="1485.415969" y2="209.267824" stroke="black" stroke-width="6.48"/>
<line x1="1484.960483" y1="208.812337" x2="1707.693134" y2="432.000475" stroke="black" stroke-width="6.48"/>
<line x1="1485.415969" y1="431.544989" x2="1707.237648" y2="209.267824" stroke="black" stroke-width="6.48"/>
<line x1="2761.020558" y1="2194.614338" x2="2761.020558" y2="1803.366338" stroke="black" stroke-width="6.48"/>
<line x1="2761.020558" y1="1803.366338" x2="2586.780558" y2="1803.366338" stroke="black" stroke-width="6.48"/>
<line x1="2586.780558" y1="1803.366338" x2="2586.780558" y2="2194.614338" stroke="black" stroke-width="6.48"/>
<line x1="2586.780558" y1="2194.614338" x2="2761.020558" y2="2194.614338" stroke="black" stroke-width="6.48"/>
<line x1="2613.708558" y1="1878.606338" x2="2613.708558" y2="2162.934338" stroke="black" stroke-width="6.48"/>
<line x1="2613.708558" y1="2162.934338" x2="2731.716558" y2="2162.934338" stroke="black" stroke-width="6.48"/>
<line x1="2731.716558" y1="2162.934338" x2="2731.716558" y2="1873.062338" stroke="black" stroke-width="6.48"/>
<path d="m 2613.453134,1879.416911 a 63.3599990854681,63.3599990854681 0 0 1 119.3743300000001,-4.293814000000111" fill="none" stroke="black" stroke-width="6.48"/>
<line x1="2080.847768" y1="1855.01147" x2="2056.295768" y2="1873.62347" stroke="black" stroke-width="6.48"/>
<line x1="2056.295768" y1="1873.62347" x2="2056.295768" y2="2020.93547" stroke="black" stroke-width="6.48"/>
<line x1="2056.295768" y1="2020.93547" x2="2084.411768" y2="2039.94347" stroke="black" stroke-width="6.48"/>
<line x1="2083.619768" y1="1876.79147" x2="2083.619768" y2="2019.74747" stroke="black" stroke-width="6.48"/>
<circle cx="2105.399768" cy="1946.09147" r="13.068000000000003" fill="none" stroke="black" stroke-width="6.48"/>
<path d="m 2082.952422,1878.344723 a 74.84400006780959,74.84400006780959 0 1 1 0.4020480000003772,139.60900400000014" fill="none" stroke="black" stroke-width="6.48"/>
<path d="m 2080.190405,1855.057774 a 95.43599858117906,95.43599858117906 0 1 1 3.0749580000001515,184.466995" fill="none" stroke="black" stroke-width="6.48"/>
<line x1="925.101533" y1="210.012887" x2="1195.648733" y2="210.012887" stroke="black" stroke-width="6.48"/>
<line x1="1195.648733" y1="210.012887" x2="1195.648733" y2="341.960087" stroke="black" stroke-width="6.48"/>
<line x1="925.101533" y1="341.960087" x2="1195.648733" y2="341.960087" stroke="black" stroke-width="6.48"/>
<line x1="925.101533" y1="210.012887" x2="925.101533" y2="341.960087" stroke="black" stroke-width="6.48"/>
<line x1="931.754333" y1="216.665687" x2="1069.799933" y2="216.665687" stroke="black" stroke-width="6.48"/>
<line x1="1069.799933" y1="216.665687" x2="1069.799933" y2="334.752887" stroke="black" stroke-width="6.48"/>
<line x1="931.754333" y1="334.752887" x2="1069.799933" y2="334.752887" stroke="black" stroke-width="6.48"/>
<line x1="931.754333" y1="216.665687" x2="931.754333" y2="334.752887" stroke="black" stroke-width="6.48"/>
<line x1="1084.214333" y1="224.427287" x2="1181.234333" y2="224.427287" stroke="black" stroke-width="6.48"/>
<line x1="1084.214333" y1="244.940087" x2="1181.234333" y2="244.940087" stroke="black" stroke-width="6.48"/>
<line x1="1084.768733" y1="266.007287" x2="1181.788733" y2="266.007287" stroke="black" stroke-width="6.48"/>
<line x1="1084.768733" y1="286.520087" x2="1181.788733" y2="286.520087" stroke="black" stroke-width="6.48"/>
<line x1="1084.214333" y1="307.032887" x2="1181.234333" y2="307.032887" stroke="black" stroke-width="6.48"/>
<line x1="1084.214333" y1="327.545687" x2="1181.234333" y2="327.545687" stroke="black" stroke-width="6.48"/>
<line x1="984.422333" y1="334.752887" x2="984.422333" y2="320.892887" stroke="black" stroke-width="6.48"/>
<line x1="984.422333" y1="320.892887" x2="1018.795133" y2="320.892887" stroke="black" stroke-width="6.48"/>
<line x1="1018.795133" y1="320.892887" x2="1018.795133" y2="334.198487" stroke="black" stroke-width="6.48"/>
<circle cx="1054.276733" cy="231.634487" r="8.316000000000003" fill="none" stroke="black" stroke-width="6.48"/>
<line x1="1251.628135" y1="1618.01145" x2="1119.844336" y2="1627.226672" stroke="black" stroke-width="6.48"/>
<line x1="1119.844336" y1="1627.226672" x2="1118.84989" y2="1613.005402" stroke="black" stroke-width="6.48"/>
<line x1="1250.633686" y1="1603.790179" x2="1118.84989" y2="1613.005402" stroke="black" stroke-width="6.48"/>
<line x1="1251.628135" y1="1618.01145" x2="1250.633686" y2="1603.790179" stroke="black" stroke-width="6.48"/>
<line x1="1237.360496" y1="1604.718331" x2="1237.068882" y2="1573.298935" stroke="black" stroke-width="6.48"/>
<line x1="1132.123075" y1="1612.07725" x2="1127.972822" y2="1579.974959" stroke="black" stroke-width="6.48"/>
<line x1="1219.474307" y1="1158.19029" x2="1087.690507" y2="1167.405509" stroke="black" stroke-width="6.48"/>
<line x1="1087.690507" y1="1167.405509" x2="1088.618659" y2="1180.678698" stroke="black" stroke-width="6.48"/>
<line x1="1220.402459" y1="1171.463476" x2="1088.618659" y2="1180.678698" stroke="black" stroke-width="6.48"/>
<line x1="1219.474307" y1="1158.19029" x2="1220.402459" y2="1171.463476" stroke="black" stroke-width="6.48"/>
<line x1="1208.209946" y1="1174.2215" x2="1212.293902" y2="1205.37571" stroke="black" stroke-width="6.48"/>
<line x1="1102.972529" y1="1181.580422" x2="1102.382356" y2="1214.014194" stroke="black" stroke-width="6.48"/>
<line x1="945.304434" y1="1474.610998" x2="959.525708" y2="1473.616548" stroke="black" stroke-width="6.48"/>
<line x1="959.525708" y1="1473.616548" x2="950.310486" y2="1341.832752" stroke="black" stroke-width="6.48"/>
<line x1="936.089212" y1="1342.827202" x2="950.310486" y2="1341.832752" stroke="black" stroke-width="6.48"/>
<line x1="945.304434" y1="1474.610998" x2="936.089212" y2="1342.827202" stroke="black" stroke-width="6.48"/>
<line x1="951.304936" y1="1356.054026" x2="983.340932" y2="1350.955688" stroke="black" stroke-width="6.48"/>
<line x1="958.597556" y1="1460.343362" x2="990.965038" y2="1459.98545" stroke="black" stroke-width="6.48"/>
<line x1="1404.24381" y1="1443.471552" x2="1390.022536" y2="1444.465998" stroke="black" stroke-width="6.48"/>
<line x1="1390.022536" y1="1444.465998" x2="1380.807317" y2="1312.682202" stroke="black" stroke-width="6.48"/>
<line x1="1395.028591" y1="1311.687752" x2="1380.807317" y2="1312.682202" stroke="black" stroke-width="6.48"/>
<line x1="1404.24381" y1="1443.471552" x2="1395.028591" y2="1311.687752" stroke="black" stroke-width="6.48"/>
<line x1="1381.801766" y1="1326.903476" x2="1349.367988" y2="1326.313303" stroke="black" stroke-width="6.48"/>
<line x1="1389.094387" y1="1431.192812" x2="1356.992093" y2="1435.343062" stroke="black" stroke-width="6.48"/>
<circle cx="1170.166511" cy="1393.149377" r="191.98080000000002" fill="none" stroke="black" stroke-width="6.48"/>
<line x1="2044.889399" y1="955.822399" x2="2267.166564" y2="955.822399" stroke="black" stroke-width="6.48"/>
<line x1="2267.166564" y1="955.822399" x2="2267.166564" y2="1178.555051" stroke="black" stroke-width="6.48"/>
<line x1="2267.166564" y1="1178.555051" x2="2044.889399" y2="1178.555051" stroke="black" stroke-width="6.48"/>
<line x1="2044.889399" y1="1178.555051" x2="2044.889399" y2="955.822399" stroke="black" stroke-width="6.48"/>
<line x1="2044.433912" y1="955.366913" x2="2267.166564" y2="1178.555051" stroke="black" stroke-width="6.48"/>
<line x1="2044.889399" y1="1178.099564" x2="2266.711078" y2="955.822399" stroke="black" stroke-width="6.48"/>
<line x1="323.258818" y1="1375.374532" x2="323.258818" y2="949.841089" stroke="black" stroke-width="6.48"/>
<line x1="323.258818" y1="949.841089" x2="257.659344" y2="949.841089" stroke="black" stroke-width="6.48"/>
<line x1="257.659344" y1="949.841089" x2="257.659344" y2="1375.374532" stroke="black" stroke-width="6.48"/>
<line x1="257.659344" y1="1375.374532" x2="323.258818" y2="1375.374532" stroke="black" stroke-width="6.48"/>
<line x1="258.522494" y1="1335.669588" x2="322.395667" y2="1335.669588" stroke="black" stroke-width="6.48"/>
<line x1="258.522494" y1="990.409187" x2="324.985122" y2="990.409187" stroke="black" stroke-width="6.48"/>
<line x1="288.73278" y1="1336.532738" x2="288.73278" y2="991.272337" stroke="black" stroke-width="6.48"/>
<line x1="3874.406537" y1="1514.726719" x2="3874.406537" y2="1940.260162" stroke="black" stroke-width="6.48"/>
<line x1="3874.406537" y1="1940.260162" x2="3940.00601" y2="1940.260162" stroke="black" stroke-width="6.48"/>
<line x1="3940.00601" y1="1940.260162" x2="3940.00601" y2="1514.726719" stroke="black" stroke-width="6.48"/>
<line x1="3940.00601" y1="1514.726719" x2="3874.406537" y2="1514.726719" stroke="black" stroke-width="6.48"/>
<line x1="3939.14286" y1="1554.431663" x2="3875.269687" y2="1554.431663" stroke="black" stroke-width="6.48"/>
<line x1="3939.14286" y1="1899.692064" x2="3872.680232" y2="1899.692064" stroke="black" stroke-width="6.48"/>
<line x1="3908.932574" y1="1553.568512" x2="3908.932574" y2="1898.828914" stroke="black" stroke-width="6.48"/>
<line x1="4700.301883" y1="1399.703321" x2="4814.708684" y2="1333.650521" stroke="black" stroke-width="6.48"/>
<line x1="4814.708684" y1="1333.650521" x2="4821.836684" y2="1345.996584" stroke="black" stroke-width="6.48"/>
<line x1="4707.429883" y1="1412.049384" x2="4821.836684" y2="1345.996584" stroke="black" stroke-width="6.48"/>
<line x1="4700.301883" y1="1399.703321" x2="4707.429883" y2="1412.049384" stroke="black" stroke-width="6.48"/>
<line x1="4718.952868" y1="1405.396584" x2="4732.988328" y2="1433.508311" stroke="black" stroke-width="6.48"/>
<line x1="4810.3137" y1="1352.649384" x2="4828.11664" y2="1379.683379" stroke="black" stroke-width="6.48"/>
<line x1="4930.773883" y1="1798.892536" x2="5045.180684" y2="1732.839736" stroke="black" stroke-width="6.48"/>
<line x1="5045.180684" y1="1732.839736" x2="5038.527884" y2="1721.316751" stroke="black" stroke-width="6.48"/>
<line x1="4924.121083" y1="1787.369551" x2="5038.527884" y2="1721.316751" stroke="black" stroke-width="6.48"/>
<line x1="4930.773883" y1="1798.892536" x2="4924.121083" y2="1787.369551" stroke="black" stroke-width="6.48"/>
<line x1="4933.8706" y1="1779.545808" x2="4916.542856" y2="1753.334881" stroke="black" stroke-width="6.48"/>
<line x1="5025.231428" y1="1726.798608" x2="5011.54384" y2="1697.38861" stroke="black" stroke-width="6.48"/>
<line x1="5038.48642" y1="1394.307328" x2="5026.140364" y2="1401.435328" stroke="black" stroke-width="6.48"/>
<line x1="5026.140364" y1="1401.435328" x2="5092.193164" y2="1515.842136" stroke="black" stroke-width="6.48"/>
<line x1="5104.53922" y1="1508.714136" x2="5092.193164" y2="1515.842136" stroke="black" stroke-width="6.48"/>
<line x1="5038.48642" y1="1394.307328" x2="5104.53922" y2="1508.714136" stroke="black" stroke-width="6.48"/>
<line x1="5085.065164" y1="1503.496076" x2="5058.506362" y2="1522.122084" stroke="black" stroke-width="6.48"/>
<line x1="5032.793164" y1="1412.958312" x2="5003.858362" y2="1427.468972" stroke="black" stroke-width="6.48"/>
<line x1="4639.645076" y1="1623.481056" x2="4651.991136" y2="1616.353056" stroke="black" stroke-width="6.48"/>
<line x1="4651.991136" y1="1616.353056" x2="4718.043936" y2="1730.759861" stroke="black" stroke-width="6.48"/>
<line x1="4705.697876" y1="1737.887861" x2="4718.043936" y2="1730.759861" stroke="black" stroke-width="6.48"/>
<line x1="4639.645076" y1="1623.481056" x2="4705.697876" y2="1737.887861" stroke="black" stroke-width="6.48"/>
<line x1="4710.915936" y1="1718.413805" x2="4740.325934" y2="1704.726216" stroke="black" stroke-width="6.48"/>
<line x1="4658.643936" y1="1627.876044" x2="4685.677934" y2="1610.073104" stroke="black" stroke-width="6.48"/>
<circle cx="4872.092152" cy="1566.097596" r="191.98080000000002" fill="none" stroke="black" stroke-width="6.48"/>
<line x1="3433.759484" y1="1075.403952" x2="3643.124688" y2="1075.403952" stroke="black" stroke-width="6.48"/>
<line x1="3643.124688" y1="1075.403952" x2="3643.124688" y2="744.189548" stroke="black" stroke-width="6.48"/>
<line x1="3643.124688" y1="744.189548" x2="3433.759484" y2="744.189548" stroke="black" stroke-width="6.48"/>
<line x1="3433.759484" y1="744.189548" x2="3433.759484" y2="1075.403952" stroke="black" stroke-width="6.48"/>
<line x1="3433.086284" y1="803.431148" x2="3643.797884" y2="803.431148" stroke="black" stroke-width="6.48"/>
<line x1="3643.797884" y1="803.431148" x2="3434.432684" y2="853.247952" stroke="black" stroke-width="6.48"/>
<line x1="3434.432684" y1="853.247952" x2="3466.073088" y2="899.698752" stroke="black" stroke-width="6.48"/>
<line x1="3466.073088" y1="899.698752" x2="3643.797884" y2="802.757952" stroke="black" stroke-width="6.48"/>
<line x1="3380.091516" y1="1203.255155" x2="3602.368681" y2="1203.255155" stroke="black" stroke-width="6.48"/>
<line x1="3602.368681" y1="1203.255155" x2="3602.368681" y2="1425.987806" stroke="black" stroke-width="6.48"/>
<line x1="3602.368681" y1="1425.987806" x2="3380.091516" y2="1425.987806" stroke="black" stroke-width="6.48"/>
<line x1="3380.091516" y1="1425.987806" x2="3380.091516" y2="1203.255155" stroke="black" stroke-width="6.48"/>
<line x1="3379.63603" y1="1202.799668" x2="3602.368681" y2="1425.987806" stroke="black" stroke-width="6.48"/>
<line x1="3380.091516" y1="1425.53232" x2="3601.913195" y2="1203.255155" stroke="black" stroke-width="6.48"/>
<line x1="2804.16708" y1="1127.69402" x2="2804.16708" y2="1153.148746" stroke="black" stroke-width="6.48"/>
<line x1="2804.16708" y1="1153.148746" x2="2853.834836" y2="1153.148746" stroke="black" stroke-width="6.48"/>
<line x1="2853.834836" y1="1153.148746" x2="2853.834836" y2="1127.69402" stroke="black" stroke-width="6.48"/>
<line x1="2853.834836" y1="1127.69402" x2="2804.16708" y2="1127.69402" stroke="black" stroke-width="6.48"/>
<line x1="2853.834836" y1="1402.108373" x2="3101.55277" y2="1402.108373" stroke="black" stroke-width="6.48"/>
<line x1="2802.925386" y1="1402.729218" x2="2802.925386" y2="1428.183943" stroke="black" stroke-width="6.48"/>
<line x1="2802.925386" y1="1428.183943" x2="2852.593142" y2="1428.183943" stroke="black" stroke-width="6.48"/>
<line x1="2852.593142" y1="1428.183943" x2="2852.593142" y2="1402.729218" stroke="black" stroke-width="6.48"/>
<line x1="2852.593142" y1="1402.729218" x2="2802.925386" y2="1402.729218" stroke="black" stroke-width="6.48"/>
<path d="m 2851.972294,1153.148746 a 248.95962699999984,248.95962699999984 0 0 1 248.95962699999973,248.95962699999995" fill="none" stroke="black" stroke-width="6.48"/>
<line x1="2906.547786" y1="1997.338338" x2="2835.342641" y2="2173.577476" stroke="black" stroke-width="6.48"/>
<line x1="2835.342641" y1="2173.577476" x2="3265.366136" y2="2347.318026" stroke="black" stroke-width="6.48"/>
<line x1="3265.366136" y1="2347.318026" x2="3336.571282" y2="2171.078888" stroke="black" stroke-width="6.48"/>
<line x1="3336.571282" y1="2171.078888" x2="3314.541391" y2="2162.178245" stroke="black" stroke-width="6.48"/>
<line x1="3314.541391" y1="2162.178245" x2="3251.880864" y2="2317.268689" stroke="black" stroke-width="6.48"/>
<line x1="3251.880864" y1="2317.268689" x2="2866.798346" y2="2161.685448" stroke="black" stroke-width="6.48"/>
<line x1="2866.798346" y1="2161.685448" x2="2929.458874" y2="2006.595007" stroke="black" stroke-width="6.48"/>
<line x1="2929.458874" y1="2006.595007" x2="2906.547786" y2="1997.338338" stroke="black" stroke-width="6.48"/>
<line x1="2927.32272" y1="2011.88218" x2="3312.405238" y2="2167.465421" stroke="black" stroke-width="6.48"/>
<line x1="3119.779404" y1="2088.614592" x2="3059.255034" y2="2238.41786" stroke="black" stroke-width="6.48"/>
<line x1="3573.843408" y1="1639.633651" x2="3710.149398" y2="1827.242748" stroke="black" stroke-width="6.48"/>
<line x1="3710.149398" y1="1827.242748" x2="3522.155854" y2="1963.828055" stroke="black" stroke-width="6.48"/>
<line x1="3522.155854" y1="1963.828055" x2="3385.849864" y2="1776.218958" stroke="black" stroke-width="6.48"/>
<line x1="3385.849864" y1="1776.218958" x2="3573.843408" y2="1639.633651" stroke="black" stroke-width="6.48"/>
<line x1="3573.948539" y1="1638.96989" x2="3522.155854" y2="1963.828055" stroke="black" stroke-width="6.48"/>
<line x1="3386.234311" y1="1775.939641" x2="3709.870081" y2="1826.858304" stroke="black" stroke-width="6.48"/>
<line x1="3111.239045" y1="1589.315879" x2="3092.650182" y2="1613.98413" stroke="black" stroke-width="6.48"/>
<line x1="3092.650182" y1="1613.98413" x2="3260.014798" y2="1740.102415" stroke="black" stroke-width="6.48"/>
<line x1="3260.014798" y1="1740.102415" x2="3278.60366" y2="1715.43416" stroke="black" stroke-width="6.48"/>
<line x1="3278.60366" y1="1715.43416" x2="3111.239045" y2="1589.315879" stroke="black" stroke-width="6.48"/>
<line x1="2988.552553" y1="1752.12635" x2="2969.96369" y2="1776.794605" stroke="black" stroke-width="6.48"/>
<line x1="2969.96369" y1="1776.794605" x2="3137.328302" y2="1902.912887" stroke="black" stroke-width="6.48"/>
<line x1="3137.328302" y1="1902.912887" x2="3155.917165" y2="1878.244636" stroke="black" stroke-width="6.48"/>
<line x1="3155.917165" y1="1878.244636" x2="2988.552553" y2="1752.12635" stroke="black" stroke-width="6.48"/>
<line x1="3092.936166" y1="1613.604622" x2="2988.552553" y2="1752.12635" stroke="black" stroke-width="6.48"/>
<line x1="3259.827742" y1="1738.771427" x2="3264.685855" y2="1775.753114" stroke="black" stroke-width="6.48"/>
<line x1="3191.760317" y1="1872.528566" x2="3154.872161" y2="1878.052183" stroke="black" stroke-width="6.48"/>
<line x1="3265.829784" y1="1774.235066" x2="3190.616388" y2="1874.046614" stroke="black" stroke-width="6.48"/>
<line x1="3128.324274" y1="1640.866489" x2="3023.940661" y2="1779.388218" stroke="black" stroke-width="6.48"/>
<line x1="6390.350471" y1="2226.450841" x2="6379.786152" y2="2255.476064" stroke="black" stroke-width="6.48"/>
<line x1="6379.786152" y1="2255.476064" x2="6576.711145" y2="2327.150902" stroke="black" stroke-width="6.48"/>
<line x1="6576.711145" y1="2327.150902" x2="6587.27546" y2="2298.125675" stroke="black" stroke-width="6.48"/>
<line x1="6587.27546" y1="2298.125675" x2="6390.350471" y2="2226.450841" stroke="black" stroke-width="6.48"/>
<line x1="6320.62597" y1="2418.017332" x2="6310.061654" y2="2447.042555" stroke="black" stroke-width="6.48"/>
<line x1="6310.061654" y1="2447.042555" x2="6506.986644" y2="2518.717388" stroke="black" stroke-width="6.48"/>
<line x1="6506.986644" y1="2518.717388" x2="6517.550963" y2="2489.692165" stroke="black" stroke-width="6.48"/>
<line x1="6517.550963" y1="2489.692165" x2="6320.62597" y2="2418.017332" stroke="black" stroke-width="6.48"/>
<line x1="6379.948678" y1="2255.029524" x2="6320.62597" y2="2418.017332" stroke="black" stroke-width="6.48"/>
<line x1="6576.143119" y1="2325.932762" x2="6591.601357" y2="2359.878145" stroke="black" stroke-width="6.48"/>
<line x1="6550.156721" y1="2473.74634" x2="6516.495353" y2="2489.813651" stroke="black" stroke-width="6.48"/>
<line x1="6592.251467" y1="2358.09198" x2="6549.506611" y2="2475.532508" stroke="black" stroke-width="6.48"/>
<line x1="6421.76109" y1="2270.753694" x2="6362.438382" y2="2433.741498" stroke="black" stroke-width="6.48"/>
<line x1="5750.381563" y1="1563.418793" x2="5753.610238" y2="1594.137586" stroke="black" stroke-width="6.48"/>
<line x1="5753.610238" y1="1594.137586" x2="5962.025426" y2="1572.232262" stroke="black" stroke-width="6.48"/>
<line x1="5962.025426" y1="1572.232262" x2="5958.796752" y2="1541.513473" stroke="black" stroke-width="6.48"/>
<line x1="5958.796752" y1="1541.513473" x2="5750.381563" y2="1563.418793" stroke="black" stroke-width="6.48"/>
<line x1="5771.690816" y1="1766.162819" x2="5774.919494" y2="1796.881612" stroke="black" stroke-width="6.48"/>
<line x1="5774.919494" y1="1796.881612" x2="5983.334687" y2="1774.976292" stroke="black" stroke-width="6.48"/>
<line x1="5983.334687" y1="1774.976292" x2="5980.106009" y2="1744.257503" stroke="black" stroke-width="6.48"/>
<line x1="5980.106009" y1="1744.257503" x2="5771.690816" y2="1766.162819" stroke="black" stroke-width="6.48"/>
<line x1="5753.560565" y1="1593.664985" x2="5771.690816" y2="1766.162819" stroke="black" stroke-width="6.48"/>
<line x1="5960.98089" y1="1571.386414" x2="5989.755341" y2="1595.119878" stroke="black" stroke-width="6.48"/>
<line x1="6002.421682" y1="1715.632063" x2="5979.210487" y2="1744.829442" stroke="black" stroke-width="6.48"/>
<line x1="5989.556653" y1="1593.229493" x2="6002.620373" y2="1717.522452" stroke="black" stroke-width="6.48"/>
<line x1="5798.034338" y1="1589.468425" x2="5816.164586" y2="1761.966259" stroke="black" stroke-width="6.48"/>
<line x1="1314.252263" y1="1703.661793" x2="1192.071157" y2="1849.271494" stroke="black" stroke-width="6.48"/>
<line x1="1192.071157" y1="1849.271494" x2="1547.358822" y2="2147.39339" stroke="black" stroke-width="6.48"/>
<line x1="1547.358822" y1="2147.39339" x2="1669.539928" y2="2001.78369" stroke="black" stroke-width="6.48"/>
<line x1="1669.539928" y1="2001.78369" x2="1651.338716" y2="1986.511054" stroke="black" stroke-width="6.48"/>
<line x1="1651.338716" y1="1986.511054" x2="1543.819342" y2="2114.647585" stroke="black" stroke-width="6.48"/>
<line x1="1543.819342" y1="2114.647585" x2="1225.662156" y2="1847.681874" stroke="black" stroke-width="6.48"/>
<line x1="1225.662156" y1="1847.681874" x2="1333.181527" y2="1719.545339" stroke="black" stroke-width="6.48"/>
<line x1="1333.181527" y1="1719.545339" x2="1314.252263" y2="1703.661793" stroke="black" stroke-width="6.48"/>
<line x1="1329.51609" y1="1723.913629" x2="1647.673283" y2="1990.879344" stroke="black" stroke-width="6.48"/>
<line x1="1488.841567" y1="1856.362986" x2="1384.98763" y2="1980.131227" stroke="black" stroke-width="6.48"/>
<line x1="2341.024081" y1="2050.324222" x2="2571.651317" y2="2074.564177" stroke="black" stroke-width="6.48"/>
<line x1="2571.651317" y1="2074.564177" x2="2547.361688" y2="2305.66401" stroke="black" stroke-width="6.48"/>
<line x1="2547.361688" y1="2305.66401" x2="2316.734453" y2="2281.424051" stroke="black" stroke-width="6.48"/>
<line x1="2316.734453" y1="2281.424051" x2="2341.024081" y2="2050.324222" stroke="black" stroke-width="6.48"/>
<line x1="2340.601157" y1="2049.801952" x2="2547.361688" y2="2305.66401" stroke="black" stroke-width="6.48"/>
<line x1="2316.784126" y1="2280.951454" x2="2571.17872" y2="2074.514504" stroke="black" stroke-width="6.48"/>
</g>
</svg>
