<?xml version="1.0"?>
<svg xmlns:xlink="http://www.w3.org/1999/xlink" width="6775.2" height="2858.4">
<image x="0" y="0" width="6775.2" height="2858.4" xlink:href="groundfilled-01.png"/>
<g style="stroke-linecap:round">
<line x1="1285.950406" y1="795.178109" x2="1311.346069" y2="795.178109" stroke="black" stroke-width="6.48"/>
<line x1="1311.346069" y1="795.178109" x2="1311.346069" y2="745.625592" stroke="black" stroke-width="6.48"/>
<line x1="1311.346069" y1="745.625592" x2="1285.950406" y2="745.625592" stroke="black" stroke-width="6.48"/>
<line x1="1285.950406" y1="745.625592" x2="1285.950406" y2="795.178109" stroke="black" stroke-width="6.48"/>
<line x1="1559.728062" y1="745.625592" x2="1559.728062" y2="498.48241" stroke="black" stroke-width="6.48"/>
<line x1="1560.347471" y1="796.416923" x2="1585.743134" y2="796.416923" stroke="black" stroke-width="6.48"/>
<line x1="1585.743134" y1="796.416923" x2="1585.743134" y2="746.864406" stroke="black" stroke-width="6.48"/>
<line x1="1585.743134" y1="746.864406" x2="1560.347471" y2="746.864406" stroke="black" stroke-width="6.48"/>
<line x1="1560.347471" y1="746.864406" x2="1560.347471" y2="796.416923" stroke="black" stroke-width="6.48"/>
<path d="m 1311.346069,747.483811 a 248.38199299999997,248.38199299999997 0 0 1 248.38199299999997,-248.38199299999997" fill="none" stroke="black" stroke-width="6.48"/>
<line x1="320.532556" y1="771.34176" x2="320.532556" y2="366.736194" stroke="black" stroke-width="6.48"/>
<line x1="320.532556" y1="366.736194" x2="258.159283" y2="366.736194" stroke="black" stroke-width="6.48"/>
<line x1="258.159283" y1="366.736194" x2="258.159283" y2="771.34176" stroke="black" stroke-width="6.48"/>
<line x1="258.159283" y1="771.34176" x2="320.532556" y2="771.34176" stroke="black" stroke-width="6.48"/>
<line x1="258.979986" y1="733.589518" x2="319.711856" y2="733.589518" stroke="black" stroke-width="6.48"/>
<line x1="258.979986" y1="405.309139" x2="322.173958" y2="405.309139" stroke="black" stroke-width="6.48"/>
<line x1="287.704519" y1="734.410217" x2="287.704519" y2="406.129838" stroke="black" stroke-width="6.48"/>
<line x1="3901.945176" y1="1169.331426" x2="3901.945176" y2="1428.837066" stroke="black" stroke-width="6.48"/>
<line x1="3901.945176" y1="1428.837066" x2="3941.9501" y2="1428.837066" stroke="black" stroke-width="6.48"/>
<line x1="3941.9501" y1="1428.837066" x2="3941.9501" y2="1169.331426" stroke="black" stroke-width="6.48"/>
<line x1="3941.9501" y1="1169.331426" x2="3901.945176" y2="1169.331426" stroke="black" stroke-width="6.48"/>
<line x1="3941.423719" y1="1193.544936" x2="3902.471557" y2="1193.544936" stroke="black" stroke-width="6.48"/>
<line x1="3941.423719" y1="1404.097178" x2="3900.892414" y2="1404.097178" stroke="black" stroke-width="6.48"/>
<line x1="3923.000399" y1="1193.018555" x2="3923.000399" y2="1403.570797" stroke="black" stroke-width="6.48"/>
<line x1="323.923298" y1="1882.957399" x2="323.923298" y2="1457.423957" stroke="black" stroke-width="6.48"/>
<line x1="323.923298" y1="1457.423957" x2="258.323825" y2="1457.423957" stroke="black" stroke-width="6.48"/>
<line x1="258.323825" y1="1457.423957" x2="258.323825" y2="1882.957399" stroke="black" stroke-width="6.48"/>
<line x1="258.323825" y1="1882.957399" x2="323.923298" y2="1882.957399" stroke="black" stroke-width="6.48"/>
<line x1="259.186975" y1="1843.252456" x2="323.060148" y2="1843.252456" stroke="black" stroke-width="6.48"/>
<line x1="259.186975" y1="1497.992054" x2="325.649603" y2="1497.992054" stroke="black" stroke-width="6.48"/>
<line x1="289.397261" y1="1844.115606" x2="289.397261" y2="1498.855205" stroke="black" stroke-width="6.48"/>
<line x1="2747.905531" y1="904.670665" x2="2721.68303" y2="904.670665" stroke="black" stroke-width="6.48"/>
<line x1="2721.68303" y1="904.670665" x2="2721.68303" y2="955.836522" stroke="black" stroke-width="6.48"/>
<line x1="2721.68303" y1="955.836522" x2="2747.905531" y2="955.836522" stroke="black" stroke-width="6.48"/>
<line x1="2747.905531" y1="955.836522" x2="2747.905531" y2="904.670665" stroke="black" stroke-width="6.48"/>
<line x1="2465.214181" y1="955.836522" x2="2465.214181" y2="1211.026223" stroke="black" stroke-width="6.48"/>
<line x1="2464.574609" y1="903.39152" x2="2438.352108" y2="903.39152" stroke="black" stroke-width="6.48"/>
<line x1="2438.352108" y1="903.39152" x2="2438.352108" y2="954.557374" stroke="black" stroke-width="6.48"/>
<line x1="2438.352108" y1="954.557374" x2="2464.574609" y2="954.557374" stroke="black" stroke-width="6.48"/>
<line x1="2464.574609" y1="954.557374" x2="2464.574609" y2="903.39152" stroke="black" stroke-width="6.48"/>
<path d="m 2721.68303,953.917801 a 256.4688490000001,256.4688490000001 0 0 1 -256.4688490000003,256.46884899999986" fill="none" stroke="black" stroke-width="6.48"/>
<line x1="2420.532389" y1="1427.858834" x2="2395.136725" y2="1427.858834" stroke="black" stroke-width="6.48"/>
<line x1="2395.136725" y1="1427.858834" x2="2395.136725" y2="1477.411351" stroke="black" stroke-width="6.48"/>
<line x1="2395.136725" y1="1477.411351" x2="2420.532389" y2="1477.411351" stroke="black" stroke-width="6.48"/>
<line x1="2420.532389" y1="1477.411351" x2="2420.532389" y2="1427.858834" stroke="black" stroke-width="6.48"/>
<line x1="2146.754732" y1="1477.411351" x2="2146.754732" y2="1724.554534" stroke="black" stroke-width="6.48"/>
<line x1="2146.135324" y1="1426.62002" x2="2120.73966" y2="1426.62002" stroke="black" stroke-width="6.48"/>
<line x1="2120.73966" y1="1426.62002" x2="2120.73966" y2="1476.172537" stroke="black" stroke-width="6.48"/>
<line x1="2120.73966" y1="1476.172537" x2="2146.135324" y2="1476.172537" stroke="black" stroke-width="6.48"/>
<line x1="2146.135324" y1="1476.172537" x2="2146.135324" y2="1426.62002" stroke="black" stroke-width="6.48"/>
<path d="m 2395.136725,1475.553132 a 248.38199299999997,248.38199299999997 0 0 1 -248.38199299999997,248.38199299999997" fill="none" stroke="black" stroke-width="6.48"/>
<line x1="872.617514" y1="541.339351" x2="1104.515114" y2="541.339351" stroke="black" stroke-width="6.48"/>
<line x1="1104.515114" y1="541.339351" x2="1104.515114" y2="773.712151" stroke="black" stroke-width="6.48"/>
<line x1="1104.515114" y1="773.712151" x2="872.617514" y2="773.712151" stroke="black" stroke-width="6.48"/>
<line x1="872.617514" y1="773.712151" x2="872.617514" y2="541.339351" stroke="black" stroke-width="6.48"/>
<line x1="872.142314" y1="540.864151" x2="1104.515114" y2="773.712151" stroke="black" stroke-width="6.48"/>
<line x1="872.617514" y1="773.236951" x2="1104.039914" y2="541.339351" stroke="black" stroke-width="6.48"/>
<line x1="2032.924367" y1="1982.181575" x2="2032.924367" y2="1951.293575" stroke="black" stroke-width="6.48"/>
<line x1="2032.924367" y1="1951.293575" x2="1823.361167" y2="1951.293575" stroke="black" stroke-width="6.48"/>
<line x1="1823.361167" y1="1951.293575" x2="1823.361167" y2="1982.181575" stroke="black" stroke-width="6.48"/>
<line x1="1823.361167" y1="1982.181575" x2="2032.924367" y2="1982.181575" stroke="black" stroke-width="6.48"/>
<line x1="2032.924367" y1="1778.320775" x2="2032.924367" y2="1747.432775" stroke="black" stroke-width="6.48"/>
<line x1="2032.924367" y1="1747.432775" x2="1823.361167" y2="1747.432775" stroke="black" stroke-width="6.48"/>
<line x1="1823.361167" y1="1747.432775" x2="1823.361167" y2="1778.320775" stroke="black" stroke-width="6.48"/>
<line x1="1823.361167" y1="1778.320775" x2="2032.924367" y2="1778.320775" stroke="black" stroke-width="6.48"/>
<line x1="2032.924367" y1="1951.768775" x2="2032.924367" y2="1778.320775" stroke="black" stroke-width="6.48"/>
<line x1="1824.311567" y1="1952.243975" x2="1798.175567" y2="1925.632775" stroke="black" stroke-width="6.48"/>
<line x1="1798.175567" y1="1804.456775" x2="1824.311567" y2="1777.845575" stroke="black" stroke-width="6.48"/>
<line x1="1798.175567" y1="1927.533575" x2="1798.175567" y2="1802.555975" stroke="black" stroke-width="6.48"/>
<line x1="1988.255567" y1="1951.293575" x2="1988.255567" y2="1777.845575" stroke="black" stroke-width="6.48"/>
<line x1="1485.415969" y1="209.267824" x2="1707.693134" y2="209.267824" stroke="black" stroke-width="6.48"/>
<line x1="1707.693134" y1="209.267824" x2="1707.693134" y2="432.000475" stroke="black" stroke-width="6.48"/>
<line x1="1707.693134" y1="432.000475" x2="1485.415969" y2="432.000475" stroke="black" stroke-width="6.48"/>
<line x1="1485.415969" y1="432.000475" x2="1485.415969" y2="209.267824" stroke="black" stroke-width="6.48"/>
<line x1="1484.960483" y1="208.812337" x2="1707.693134" y2="432.000475" stroke="black" stroke-width="6.48"/>
<line x1="1485.415969" y1="431.544989" x2="1707.237648" y2="209.267824" stroke="black" stroke-width="6.48"/>
<line x1="2586.780558" y1="1803.366338" x2="2586.780558" y2="2194.614338" stroke="black" stroke-width="6.48"/>
<line x1="2586.780558" y1="2194.614338" x2="2761.020558" y2="2194.614338" stroke="black" stroke-width="6.48"/>
<line x1="2761.020558" y1="2194.614338" x2="2761.020558" y2="1803.366338" stroke="black" stroke-width="6.48"/>
<line x1="2761.020558" y1="1803.366338" x2="2586.780558" y2="1803.366338" stroke="black" stroke-width="6.48"/>
<line x1="2734.092558" y1="2119.374338" x2="2734.092558" y2="1835.046338" stroke="black" stroke-width="6.48"/>
<line x1="2734.092558" y1="1835.046338" x2="2616.084558" y2="1835.046338" stroke="black" stroke-width="6.48"/>
<line x1="2616.084558" y1="1835.046338" x2="2616.084558" y2="2124.918338" stroke="black" stroke-width="6.48"/>
<path d="m 2734.347982,2118.563766 a 63.35999941905905,63.35999941905905 0 0 1 -119.37432999999965,4.2938139999996565" fill="none" stroke="black" stroke-width="6.48"/>
<line x1="2080.907438" y1="1862.529894" x2="2056.355438" y2="1881.141894" stroke="black" stroke-width="6.48"/>
<line x1="2056.355438" y1="1881.141894" x2="2056.355438" y2="2028.453894" stroke="black" stroke-width="6.48"/>
<line x1="2056.355438" y1="2028.453894" x2="2084.471438" y2="2047.461894" stroke="black" stroke-width="6.48"/>
<line x1="2083.679438" y1="1884.309894" x2="2083.679438" y2="2027.265894" stroke="black" stroke-width="6.48"/>
<circle cx="2105.459438" cy="1953.609894" r="13.068000000000003" fill="none" stroke="black" stroke-width="6.48"/>
<path d="m 2083.012092,1885.863146 a 74.84400053362336,74.84400053362336 0 1 1 0.40204799999992247,139.60900500000002" fill="none" stroke="black" stroke-width="6.48"/>
<path d="m 2080.250075,1862.576197 a 95.43599857690593,95.43599857690593 0 1 1 3.0749580000001515,184.466995" fill="none" stroke="black" stroke-width="6.48"/>
<line x1="447.99561" y1="208.846368" x2="718.54281" y2="208.846368" stroke="black" stroke-width="6.48"/>
<line x1="718.54281" y1="208.846368" x2="718.54281" y2="340.793568" stroke="black" stroke-width="6.48"/>
<line x1="447.99561" y1="340.793568" x2="718.54281" y2="340.793568" stroke="black" stroke-width="6.48"/>
<line x1="447.99561" y1="208.846368" x2="447.99561" y2="340.793568" stroke="black" stroke-width="6.48"/>
<line x1="454.64841" y1="215.499168" x2="592.69401" y2="215.499168" stroke="black" stroke-width="6.48"/>
<line x1="592.69401" y1="215.499168" x2="592.69401" y2="333.586368" stroke="black" stroke-width="6.48"/>
<line x1="454.64841" y1="333.586368" x2="592.69401" y2="333.586368" stroke="black" stroke-width="6.48"/>
<line x1="454.64841" y1="215.499168" x2="454.64841" y2="333.586368" stroke="black" stroke-width="6.48"/>
<line x1="607.10841" y1="223.260768" x2="704.12841" y2="223.260768" stroke="black" stroke-width="6.48"/>
<line x1="607.10841" y1="243.773568" x2="704.12841" y2="243.773568" stroke="black" stroke-width="6.48"/>
<line x1="607.66281" y1="264.840768" x2="704.68281" y2="264.840768" stroke="black" stroke-width="6.48"/>
<line x1="607.66281" y1="285.353568" x2="704.68281" y2="285.353568" stroke="black" stroke-width="6.48"/>
<line x1="607.10841" y1="305.866368" x2="704.12841" y2="305.866368" stroke="black" stroke-width="6.48"/>
<line x1="607.10841" y1="326.379168" x2="704.12841" y2="326.379168" stroke="black" stroke-width="6.48"/>
<line x1="507.31641" y1="333.586368" x2="507.31641" y2="319.726368" stroke="black" stroke-width="6.48"/>
<line x1="507.31641" y1="319.726368" x2="541.68921" y2="319.726368" stroke="black" stroke-width="6.48"/>
<line x1="541.68921" y1="319.726368" x2="541.68921" y2="333.031968" stroke="black" stroke-width="6.48"/>
<circle cx="577.17081" cy="230.467968" r="8.316000000000003" fill="none" stroke="black" stroke-width="6.48"/>
<line x1="1031.726002" y1="1189.984064" x2="1157.36589" y2="1149.161188" stroke="black" stroke-width="6.48"/>
<line x1="1157.36589" y1="1149.161188" x2="1161.771239" y2="1162.719446" stroke="black" stroke-width="6.48"/>
<line x1="1036.131347" y1="1203.542323" x2="1161.771239" y2="1162.719446" stroke="black" stroke-width="6.48"/>
<line x1="1031.726002" y1="1189.984064" x2="1036.131347" y2="1203.542323" stroke="black" stroke-width="6.48"/>
<line x1="1048.785725" y1="1199.430666" x2="1056.669718" y2="1229.846224" stroke="black" stroke-width="6.48"/>
<line x1="1149.116857" y1="1166.831104" x2="1160.910079" y2="1196.975783" stroke="black" stroke-width="6.48"/>
<line x1="1174.165531" y1="1628.367858" x2="1299.80542" y2="1587.544981" stroke="black" stroke-width="6.48"/>
<line x1="1299.80542" y1="1587.544981" x2="1295.693766" y2="1574.890603" stroke="black" stroke-width="6.48"/>
<line x1="1170.053874" y1="1615.71348" x2="1295.693766" y2="1574.890603" stroke="black" stroke-width="6.48"/>
<line x1="1174.165531" y1="1628.367858" x2="1170.053874" y2="1615.71348" stroke="black" stroke-width="6.48"/>
<line x1="1181.216988" y1="1610.087746" x2="1169.717458" y2="1580.846951" stroke="black" stroke-width="6.48"/>
<line x1="1281.54812" y1="1577.488183" x2="1274.27432" y2="1545.875053" stroke="black" stroke-width="6.48"/>
<line x1="1363.642286" y1="1255.018504" x2="1350.084024" y2="1259.423849" stroke="black" stroke-width="6.48"/>
<line x1="1350.084024" y1="1259.423849" x2="1390.906901" y2="1385.063737" stroke="black" stroke-width="6.48"/>
<line x1="1404.465163" y1="1380.658392" x2="1390.906901" y2="1385.063737" stroke="black" stroke-width="6.48"/>
<line x1="1363.642286" y1="1255.018504" x2="1404.465163" y2="1380.658392" stroke="black" stroke-width="6.48"/>
<line x1="1386.501556" y1="1371.505478" x2="1356.650564" y2="1384.202581" stroke="black" stroke-width="6.48"/>
<line x1="1354.195681" y1="1272.078227" x2="1322.876243" y2="1280.255908" stroke="black" stroke-width="6.48"/>
<line x1="925.868686" y1="1396.260457" x2="939.426948" y2="1391.855108" stroke="black" stroke-width="6.48"/>
<line x1="939.426948" y1="1391.855108" x2="980.249821" y2="1517.495004" stroke="black" stroke-width="6.48"/>
<line x1="966.691562" y1="1521.900349" x2="980.249821" y2="1517.495004" stroke="black" stroke-width="6.48"/>
<line x1="925.868686" y1="1396.260457" x2="966.691562" y2="1521.900349" stroke="black" stroke-width="6.48"/>
<line x1="975.844476" y1="1503.936742" x2="1007.457606" y2="1496.662942" stroke="black" stroke-width="6.48"/>
<line x1="943.538602" y1="1404.50949" x2="973.683284" y2="1392.716268" stroke="black" stroke-width="6.48"/>
<circle cx="1165.166924" cy="1388.459426" r="191.98080000000002" fill="none" stroke="black" stroke-width="6.48"/>
<line x1="2044.889399" y1="955.822399" x2="2267.166564" y2="955.822399" stroke="black" stroke-width="6.48"/>
<line x1="2267.166564" y1="955.822399" x2="2267.166564" y2="1178.555051" stroke="black" stroke-width="6.48"/>
<line x1="2267.166564" y1="1178.555051" x2="2044.889399" y2="1178.555051" stroke="black" stroke-width="6.48"/>
<line x1="2044.889399" y1="1178.555051" x2="2044.889399" y2="955.822399" stroke="black" stroke-width="6.48"/>
<line x1="2044.433912" y1="955.366913" x2="2267.166564" y2="1178.555051" stroke="black" stroke-width="6.48"/>
<line x1="2044.889399" y1="1178.099564" x2="2266.711078" y2="955.822399" stroke="black" stroke-width="6.48"/>
<line x1="333.766206" y1="1375.361078" x2="333.766206" y2="949.854546" stroke="black" stroke-width="6.48"/>
<line x1="333.766206" y1="949.854546" x2="257.659348" y2="949.854546" stroke="black" stroke-width="6.48"/>
<line x1="257.659348" y1="949.854546" x2="257.659348" y2="1375.361078" stroke="black" stroke-width="6.48"/>
<line x1="257.659348" y1="1375.361078" x2="333.766206" y2="1375.361078" stroke="black" stroke-width="6.48"/>
<line x1="333.766206" y1="1355.469512" x2="359.711726" y2="1355.469512" stroke="black" stroke-width="6.48"/>
<line x1="359.711726" y1="1355.469512" x2="359.711726" y2="970.610962" stroke="black" stroke-width="6.48"/>
<line x1="333.766206" y1="970.610962" x2="359.711726" y2="970.610962" stroke="black" stroke-width="6.48"/>
<line x1="3874.406537" y1="1514.726719" x2="3874.406537" y2="1940.260162" stroke="black" stroke-width="6.48"/>
<line x1="3874.406537" y1="1940.260162" x2="3940.00601" y2="1940.260162" stroke="black" stroke-width="6.48"/>
<line x1="3940.00601" y1="1940.260162" x2="3940.00601" y2="1514.726719" stroke="black" stroke-width="6.48"/>
<line x1="3940.00601" y1="1514.726719" x2="3874.406537" y2="1514.726719" stroke="black" stroke-width="6.48"/>
<line x1="3939.14286" y1="1554.431663" x2="3875.269687" y2="1554.431663" stroke="black" stroke-width="6.48"/>
<line x1="3939.14286" y1="1899.692064" x2="3872.680232" y2="1899.692064" stroke="black" stroke-width="6.48"/>
<line x1="3908.932574" y1="1553.568512" x2="3908.932574" y2="1898.828914" stroke="black" stroke-width="6.48"/>
<line x1="4925.976203" y1="1731.656585" x2="4794.594293" y2="1745.465378" stroke="black" stroke-width="6.48"/>
<line x1="4794.594293" y1="1745.465378" x2="4793.104134" y2="1731.287473" stroke="black" stroke-width="6.48"/>
<line x1="4924.486044" y1="1717.47868" x2="4793.104134" y2="1731.287473" stroke="black" stroke-width="6.48"/>
<line x1="4925.976203" y1="1731.656585" x2="4924.486044" y2="1717.47868" stroke="black" stroke-width="6.48"/>
<line x1="4911.253333" y1="1718.869496" x2="4909.865375" y2="1687.479415" stroke="black" stroke-width="6.48"/>
<line x1="4806.336845" y1="1729.896664" x2="4801.068763" y2="1697.958767" stroke="black" stroke-width="6.48"/>
<line x1="4877.794433" y1="1273.237682" x2="4746.412523" y2="1287.04648" stroke="black" stroke-width="6.48"/>
<line x1="4746.412523" y1="1287.04648" x2="4747.80334" y2="1300.27919" stroke="black" stroke-width="6.48"/>
<line x1="4879.18525" y1="1286.470397" x2="4747.80334" y2="1300.27919" stroke="black" stroke-width="6.48"/>
<line x1="4877.794433" y1="1273.237682" x2="4879.18525" y2="1286.470397" stroke="black" stroke-width="6.48"/>
<line x1="4867.096417" y1="1289.652253" x2="4872.265153" y2="1320.644956" stroke="black" stroke-width="6.48"/>
<line x1="4762.179929" y1="1300.679417" x2="4762.722042" y2="1333.114031" stroke="black" stroke-width="6.48"/>
<line x1="4614.834503" y1="1599.034028" x2="4629.012408" y2="1597.54387" stroke="black" stroke-width="6.48"/>
<line x1="4629.012408" y1="1597.54387" x2="4615.203614" y2="1466.161956" stroke="black" stroke-width="6.48"/>
<line x1="4601.025709" y1="1467.652118" x2="4615.203614" y2="1466.161956" stroke="black" stroke-width="6.48"/>
<line x1="4614.834503" y1="1599.034028" x2="4601.025709" y2="1467.652118" stroke="black" stroke-width="6.48"/>
<line x1="4616.69377" y1="1480.339861" x2="4648.532321" y2="1474.126589" stroke="black" stroke-width="6.48"/>
<line x1="4627.621595" y1="1584.311159" x2="4659.956867" y2="1582.823855" stroke="black" stroke-width="6.48"/>
<line x1="5072.407556" y1="1551.896798" x2="5058.229651" y2="1553.386957" stroke="black" stroke-width="6.48"/>
<line x1="5058.229651" y1="1553.386957" x2="5044.420854" y2="1422.005044" stroke="black" stroke-width="6.48"/>
<line x1="5058.598759" y1="1420.514888" x2="5044.420854" y2="1422.005044" stroke="black" stroke-width="6.48"/>
<line x1="5072.407556" y1="1551.896798" x2="5058.598759" y2="1420.514888" stroke="black" stroke-width="6.48"/>
<line x1="5045.911016" y1="1436.182949" x2="5013.476402" y2="1436.725055" stroke="black" stroke-width="6.48"/>
<line x1="5056.838838" y1="1540.154246" x2="5024.900941" y2="1545.422324" stroke="black" stroke-width="6.48"/>
<circle cx="4836.716633" cy="1509.774455" r="191.98080000000002" fill="none" stroke="black" stroke-width="6.48"/>
<line x1="3239.653248" y1="1074.763336" x2="3449.018452" y2="1074.763336" stroke="black" stroke-width="6.48"/>
<line x1="3449.018452" y1="1074.763336" x2="3449.018452" y2="743.548932" stroke="black" stroke-width="6.48"/>
<line x1="3449.018452" y1="743.548932" x2="3239.653248" y2="743.548932" stroke="black" stroke-width="6.48"/>
<line x1="3239.653248" y1="743.548932" x2="3239.653248" y2="1074.763336" stroke="black" stroke-width="6.48"/>
<line x1="3238.980048" y1="802.790532" x2="3449.691648" y2="802.790532" stroke="black" stroke-width="6.48"/>
<line x1="3449.691648" y1="802.790532" x2="3240.326448" y2="852.607336" stroke="black" stroke-width="6.48"/>
<line x1="3240.326448" y1="852.607336" x2="3271.966852" y2="899.058136" stroke="black" stroke-width="6.48"/>
<line x1="3271.966852" y1="899.058136" x2="3449.691648" y2="802.117336" stroke="black" stroke-width="6.48"/>
<line x1="3325.778665" y1="1203.475043" x2="3548.05583" y2="1203.475043" stroke="black" stroke-width="6.48"/>
<line x1="3548.05583" y1="1203.475043" x2="3548.05583" y2="1426.207694" stroke="black" stroke-width="6.48"/>
<line x1="3548.05583" y1="1426.207694" x2="3325.778665" y2="1426.207694" stroke="black" stroke-width="6.48"/>
<line x1="3325.778665" y1="1426.207694" x2="3325.778665" y2="1203.475043" stroke="black" stroke-width="6.48"/>
<line x1="3325.323179" y1="1203.019556" x2="3548.05583" y2="1426.207694" stroke="black" stroke-width="6.48"/>
<line x1="3325.778665" y1="1425.752208" x2="3547.600344" y2="1203.475043" stroke="black" stroke-width="6.48"/>
<line x1="2804.16708" y1="1127.69402" x2="2804.16708" y2="1153.148746" stroke="black" stroke-width="6.48"/>
<line x1="2804.16708" y1="1153.148746" x2="2853.834836" y2="1153.148746" stroke="black" stroke-width="6.48"/>
<line x1="2853.834836" y1="1153.148746" x2="2853.834836" y2="1127.69402" stroke="black" stroke-width="6.48"/>
<line x1="2853.834836" y1="1127.69402" x2="2804.16708" y2="1127.69402" stroke="black" stroke-width="6.48"/>
<line x1="2853.834836" y1="1402.108373" x2="3101.55277" y2="1402.108373" stroke="black" stroke-width="6.48"/>
<line x1="2802.925386" y1="1402.729218" x2="2802.925386" y2="1428.183943" stroke="black" stroke-width="6.48"/>
<line x1="2802.925386" y1="1428.183943" x2="2852.593142" y2="1428.183943" stroke="black" stroke-width="6.48"/>
<line x1="2852.593142" y1="1428.183943" x2="2852.593142" y2="1402.729218" stroke="black" stroke-width="6.48"/>
<line x1="2852.593142" y1="1402.729218" x2="2802.925386" y2="1402.729218" stroke="black" stroke-width="6.48"/>
<path d="m 2851.972294,1153.148746 a 248.95962699999984,248.95962699999984 0 0 1 248.95962699999973,248.95962699999995" fill="none" stroke="black" stroke-width="6.48"/>
<line x1="2989.15897" y1="2037.203039" x2="2917.953824" y2="2213.442176" stroke="black" stroke-width="6.48"/>
<line x1="2917.953824" y1="2213.442176" x2="3347.97732" y2="2387.182727" stroke="black" stroke-width="6.48"/>
<line x1="3347.97732" y1="2387.182727" x2="3419.182465" y2="2210.943589" stroke="black" stroke-width="6.48"/>
<line x1="3419.182465" y1="2210.943589" x2="3397.152575" y2="2202.042946" stroke="black" stroke-width="6.48"/>
<line x1="3397.152575" y1="2202.042946" x2="3334.492048" y2="2357.13339" stroke="black" stroke-width="6.48"/>
<line x1="3334.492048" y1="2357.13339" x2="2949.40953" y2="2201.550149" stroke="black" stroke-width="6.48"/>
<line x1="2949.40953" y1="2201.550149" x2="3012.070057" y2="2046.459708" stroke="black" stroke-width="6.48"/>
<line x1="3012.070057" y1="2046.459708" x2="2989.15897" y2="2037.203039" stroke="black" stroke-width="6.48"/>
<line x1="3009.933904" y1="2051.74688" x2="3395.016421" y2="2207.330122" stroke="black" stroke-width="6.48"/>
<line x1="3202.390588" y1="2128.479293" x2="3141.866218" y2="2278.282561" stroke="black" stroke-width="6.48"/>
<line x1="3601.598666" y1="1646.569829" x2="3703.255884" y2="1854.998014" stroke="black" stroke-width="6.48"/>
<line x1="3703.255884" y1="1854.998014" x2="3494.400592" y2="1956.863542" stroke="black" stroke-width="6.48"/>
<line x1="3494.400592" y1="1956.863542" x2="3392.743378" y2="1748.43536" stroke="black" stroke-width="6.48"/>
<line x1="3392.743378" y1="1748.43536" x2="3601.598666" y2="1646.569829" stroke="black" stroke-width="6.48"/>
<line x1="3601.817456" y1="1645.934407" x2="3494.400592" y2="1956.863542" stroke="black" stroke-width="6.48"/>
<line x1="3393.170482" y1="1748.22705" x2="3703.04757" y2="1854.570906" stroke="black" stroke-width="6.48"/>
<line x1="3009.806302" y1="1589.315879" x2="3009.26723" y2="1620.199174" stroke="black" stroke-width="6.48"/>
<line x1="3009.26723" y1="1620.199174" x2="3218.798513" y2="1623.856554" stroke="black" stroke-width="6.48"/>
<line x1="3218.798513" y1="1623.856554" x2="3219.337584" y2="1592.973259" stroke="black" stroke-width="6.48"/>
<line x1="3219.337584" y1="1592.973259" x2="3009.806302" y2="1589.315879" stroke="black" stroke-width="6.48"/>
<line x1="3006.24844" y1="1793.145629" x2="3005.709368" y2="1824.028924" stroke="black" stroke-width="6.48"/>
<line x1="3005.709368" y1="1824.028924" x2="3215.240651" y2="1827.686304" stroke="black" stroke-width="6.48"/>
<line x1="3215.240651" y1="1827.686304" x2="3215.779722" y2="1796.803009" stroke="black" stroke-width="6.48"/>
<line x1="3215.779722" y1="1796.803009" x2="3006.24844" y2="1793.145629" stroke="black" stroke-width="6.48"/>
<line x1="3009.275525" y1="1619.724046" x2="3006.24844" y2="1793.145629" stroke="black" stroke-width="6.48"/>
<line x1="3217.864846" y1="1622.889713" x2="3243.532435" y2="1649.952994" stroke="black" stroke-width="6.48"/>
<line x1="3241.417622" y1="1771.11054" x2="3214.821172" y2="1797.261548" stroke="black" stroke-width="6.48"/>
<line x1="3243.565609" y1="1648.052482" x2="3241.384448" y2="1773.011052" stroke="black" stroke-width="6.48"/>
<line x1="3053.929226" y1="1620.97875" x2="3050.902145" y2="1794.400333" stroke="black" stroke-width="6.48"/>
<line x1="1054.640801" y1="210.329608" x2="1325.188001" y2="210.329608" stroke="black" stroke-width="6.48"/>
<line x1="1325.188001" y1="210.329608" x2="1325.188001" y2="342.276808" stroke="black" stroke-width="6.48"/>
<line x1="1054.640801" y1="342.276808" x2="1325.188001" y2="342.276808" stroke="black" stroke-width="6.48"/>
<line x1="1054.640801" y1="210.329608" x2="1054.640801" y2="342.276808" stroke="black" stroke-width="6.48"/>
<line x1="1061.293601" y1="216.982408" x2="1199.339201" y2="216.982408" stroke="black" stroke-width="6.48"/>
<line x1="1199.339201" y1="216.982408" x2="1199.339201" y2="335.069608" stroke="black" stroke-width="6.48"/>
<line x1="1061.293601" y1="335.069608" x2="1199.339201" y2="335.069608" stroke="black" stroke-width="6.48"/>
<line x1="1061.293601" y1="216.982408" x2="1061.293601" y2="335.069608" stroke="black" stroke-width="6.48"/>
<line x1="1213.753601" y1="224.744008" x2="1310.773601" y2="224.744008" stroke="black" stroke-width="6.48"/>
<line x1="1213.753601" y1="245.256808" x2="1310.773601" y2="245.256808" stroke="black" stroke-width="6.48"/>
<line x1="1214.308001" y1="266.324008" x2="1311.328001" y2="266.324008" stroke="black" stroke-width="6.48"/>
<line x1="1214.308001" y1="286.836808" x2="1311.328001" y2="286.836808" stroke="black" stroke-width="6.48"/>
<line x1="1213.753601" y1="307.349608" x2="1310.773601" y2="307.349608" stroke="black" stroke-width="6.48"/>
<line x1="1213.753601" y1="327.862408" x2="1310.773601" y2="327.862408" stroke="black" stroke-width="6.48"/>
<line x1="1113.961601" y1="335.069608" x2="1113.961601" y2="321.209608" stroke="black" stroke-width="6.48"/>
<line x1="1113.961601" y1="321.209608" x2="1148.334401" y2="321.209608" stroke="black" stroke-width="6.48"/>
<line x1="1148.334401" y1="321.209608" x2="1148.334401" y2="334.515208" stroke="black" stroke-width="6.48"/>
<circle cx="1183.816001" cy="231.951208" r="8.316000000000003" fill="none" stroke="black" stroke-width="6.48"/>
<line x1="5990.715011" y1="1490.434873" x2="5802.484853" y2="1516.888897" stroke="black" stroke-width="6.48"/>
<line x1="5802.484853" y1="1516.888897" x2="5867.032669" y2="1976.170475" stroke="black" stroke-width="6.48"/>
<line x1="5867.032669" y1="1976.170475" x2="6055.262824" y2="1949.716451" stroke="black" stroke-width="6.48"/>
<line x1="6055.262824" y1="1949.716451" x2="6051.956072" y2="1926.187682" stroke="black" stroke-width="6.48"/>
<line x1="6051.956072" y1="1926.187682" x2="5886.313535" y2="1949.467219" stroke="black" stroke-width="6.48"/>
<line x1="5886.313535" y1="1949.467219" x2="5828.511496" y2="1538.184334" stroke="black" stroke-width="6.48"/>
<line x1="5828.511496" y1="1538.184334" x2="5994.154033" y2="1514.904797" stroke="black" stroke-width="6.48"/>
<line x1="5994.154033" y1="1514.904797" x2="5990.715011" y2="1490.434873" stroke="black" stroke-width="6.48"/>
<line x1="5988.507127" y1="1515.698417" x2="6046.30917" y2="1926.981302" stroke="black" stroke-width="6.48"/>
<line x1="6018.283163" y1="1720.737014" x2="5858.287531" y2="1743.222931" stroke="black" stroke-width="6.48"/>
<line x1="3803.347415" y1="1155.343367" x2="3808.179364" y2="1124.835649" stroke="black" stroke-width="6.48"/>
<line x1="3808.179364" y1="1124.835649" x2="3601.196233" y2="1092.052742" stroke="black" stroke-width="6.48"/>
<line x1="3601.196233" y1="1092.052742" x2="3596.364284" y2="1122.56046" stroke="black" stroke-width="6.48"/>
<line x1="3596.364284" y1="1122.56046" x2="3803.347415" y2="1155.343367" stroke="black" stroke-width="6.48"/>
<line x1="3835.238267" y1="953.992433" x2="3840.070216" y2="923.484715" stroke="black" stroke-width="6.48"/>
<line x1="3840.070216" y1="923.484715" x2="3633.087089" y2="890.701805" stroke="black" stroke-width="6.48"/>
<line x1="3633.087089" y1="890.701805" x2="3628.25514" y2="921.209526" stroke="black" stroke-width="6.48"/>
<line x1="3628.25514" y1="921.209526" x2="3835.238267" y2="953.992433" stroke="black" stroke-width="6.48"/>
<line x1="3808.105024" y1="1125.305003" x2="3835.238267" y2="953.992433" stroke="black" stroke-width="6.48"/>
<line x1="3601.986257" y1="1093.140119" x2="3580.334942" y2="1062.767977" stroke="black" stroke-width="6.48"/>
<line x1="3599.291045" y1="943.08385" x2="3629.268176" y2="920.888849" stroke="black" stroke-width="6.48"/>
<line x1="3580.037593" y1="1064.645374" x2="3599.588398" y2="941.206453" stroke="black" stroke-width="6.48"/>
<line x1="3764.060507" y1="1117.847909" x2="3791.193754" y2="946.535342" stroke="black" stroke-width="6.48"/>
<line x1="6322.344718" y1="2277.586566" x2="6344.200364" y2="2485.529158" stroke="black" stroke-width="6.48"/>
<line x1="6344.200364" y1="2485.529158" x2="6574.827604" y2="2461.28926" stroke="black" stroke-width="6.48"/>
<line x1="6574.827604" y1="2461.28926" x2="6552.971957" y2="2253.346664" stroke="black" stroke-width="6.48"/>
<line x1="6552.971957" y1="2253.346664" x2="6322.344718" y2="2277.586566" stroke="black" stroke-width="6.48"/>
<line x1="6354.481302" y1="2274.208873" x2="6376.336945" y2="2482.151468" stroke="black" stroke-width="6.48"/>
<line x1="1308.706535" y1="1683.580342" x2="1176.665836" y2="1820.312424" stroke="black" stroke-width="6.48"/>
<line x1="1176.665836" y1="1820.312424" x2="1510.292106" y2="2142.49172" stroke="black" stroke-width="6.48"/>
<line x1="1510.292106" y1="2142.49172" x2="1642.332802" y2="2005.759642" stroke="black" stroke-width="6.48"/>
<line x1="1642.332802" y1="2005.759642" x2="1625.241294" y2="1989.254556" stroke="black" stroke-width="6.48"/>
<line x1="1625.241294" y1="1989.254556" x2="1509.04548" y2="2109.578785" stroke="black" stroke-width="6.48"/>
<line x1="1509.04548" y1="2109.578785" x2="1210.28589" y2="1821.06986" stroke="black" stroke-width="6.48"/>
<line x1="1210.28589" y1="1821.06986" x2="1326.481704" y2="1700.745635" stroke="black" stroke-width="6.48"/>
<line x1="1326.481704" y1="1700.745635" x2="1308.706535" y2="1683.580342" stroke="black" stroke-width="6.48"/>
<line x1="1322.520487" y1="1704.847597" x2="1621.280066" y2="1993.356518" stroke="black" stroke-width="6.48"/>
<line x1="1472.21865" y1="1848.088296" x2="1359.98406" y2="1964.310559" stroke="black" stroke-width="6.48"/>
</g>
</svg>
