<?xml version="1.0"?>
<svg xmlns:xlink="http://www.w3.org/1999/xlink" width="6775.2" height="2858.4">
<image x="0" y="0" width="6775.2" height="2858.4" xlink:href="groundfilled-01.png"/>
<g style="stroke-linecap:round">
<line x1="1285.950406" y1="795.178109" x2="1311.346069" y2="795.178109" stroke="black" stroke-width="6.48"/>
<line x1="1311.346069" y1="795.178109" x2="1311.346069" y2="745.625592" stroke="black" stroke-width="6.48"/>
<line x1="1311.346069" y1="745.625592" x2="1285.950406" y2="745.625592" stroke="black" stroke-width="6.48"/>
<line x1="1285.950406" y1="745.625592" x2="1285.950406" y2="795.178109" stroke="black" stroke-width="6.48"/>
<line x1="1559.728062" y1="745.625592" x2="1559.728062" y2="498.48241" stroke="black" stroke-width="6.48"/>
<line x1="1560.347471" y1="796.416923" x2="1585.743134" y2="796.416923" stroke="black" stroke-width="6.48"/>
<line x1="1585.743134" y1="796.416923" x2="1585.743134" y2="746.864406" stroke="black" stroke-width="6.48"/>
<line x1="1585.743134" y1="746.864406" x2="1560.347471" y2="746.864406" stroke="black" stroke-width="6.48"/>
<line x1="1560.347471" y1="746.864406" x2="1560.347471" y2="796.416923" stroke="black" stroke-width="6.48"/>
<path d="m 1311.346069,747.483811 a 248.38199299999997,248.38199299999997 0 0 1 248.38199299999997,-248.38199299999997" fill="none" stroke="black" stroke-width="6.48"/>
<line x1="320.532556" y1="771.34176" x2="320.532556" y2="366.736194" stroke="black" stroke-width="6.48"/>
<line x1="320.532556" y1="366.736194" x2="258.159283" y2="366.736194" stroke="black" stroke-width="6.48"/>
<line x1="258.159283" y1="366.736194" x2="258.159283" y2="771.34176" stroke="black" stroke-width="6.48"/>
<line x1="258.159283" y1="771.34176" x2="320.532556" y2="771.34176" stroke="black" stroke-width="6.48"/>
<line x1="258.979986" y1="733.589518" x2="319.711856" y2="733.589518" stroke="black" stroke-width="6.48"/>
<line x1="258.979986" y1="405.309139" x2="322.173958" y2="405.309139" stroke="black" stroke-width="6.48"/>
<line x1="287.704519" y1="734.410217" x2="287.704519" y2="406.129838" stroke="black" stroke-width="6.48"/>
<line x1="3901.945176" y1="1169.331426" x2="3901.945176" y2="1428.837066" stroke="black" stroke-width="6.48"/>
<line x1="3901.945176" y1="1428.837066" x2="3941.9501" y2="1428.837066" stroke="black" stroke-width="6.48"/>
<line x1="3941.9501" y1="1428.837066" x2="3941.9501" y2="1169.331426" stroke="black" stroke-width="6.48"/>
<line x1="3941.9501" y1="1169.331426" x2="3901.945176" y2="1169.331426" stroke="black" stroke-width="6.48"/>
<line x1="3941.423719" y1="1193.544936" x2="3902.471557" y2="1193.544936" stroke="black" stroke-width="6.48"/>
<line x1="3941.423719" y1="1404.097178" x2="3900.892414" y2="1404.097178" stroke="black" stroke-width="6.48"/>
<line x1="3923.000399" y1="1193.018555" x2="3923.000399" y2="1403.570797" stroke="black" stroke-width="6.48"/>
<line x1="323.923298" y1="1882.957399" x2="323.923298" y2="1457.423957" stroke="black" stroke-width="6.48"/>
<line x1="323.923298" y1="1457.423957" x2="258.323825" y2="1457.423957" stroke="black" stroke-width="6.48"/>
<line x1="258.323825" y1="1457.423957" x2="258.323825" y2="1882.957399" stroke="black" stroke-width="6.48"/>
<line x1="258.323825" y1="1882.957399" x2="323.923298" y2="1882.957399" stroke="black" stroke-width="6.48"/>
<line x1="259.186975" y1="1843.252456" x2="323.060148" y2="1843.252456" stroke="black" stroke-width="6.48"/>
<line x1="259.186975" y1="1497.992054" x2="325.649603" y2="1497.992054" stroke="black" stroke-width="6.48"/>
<line x1="289.397261" y1="1844.115606" x2="289.397261" y2="1498.855205" stroke="black" stroke-width="6.48"/>
<line x1="2747.905531" y1="904.670665" x2="2721.68303" y2="904.670665" stroke="black" stroke-width="6.48"/>
<line x1="2721.68303" y1="904.670665" x2="2721.68303" y2="955.836522" stroke="black" stroke-width="6.48"/>
<line x1="2721.68303" y1="955.836522" x2="2747.905531" y2="955.836522" stroke="black" stroke-width="6.48"/>
<line x1="2747.905531" y1="955.836522" x2="2747.905531" y2="904.670665" stroke="black" stroke-width="6.48"/>
<line x1="2465.214181" y1="955.836522" x2="2465.214181" y2="1211.026223" stroke="black" stroke-width="6.48"/>
<line x1="2464.574609" y1="903.39152" x2="2438.352108" y2="903.39152" stroke="black" stroke-width="6.48"/>
<line x1="2438.352108" y1="903.39152" x2="2438.352108" y2="954.557374" stroke="black" stroke-width="6.48"/>
<line x1="2438.352108" y1="954.557374" x2="2464.574609" y2="954.557374" stroke="black" stroke-width="6.48"/>
<line x1="2464.574609" y1="954.557374" x2="2464.574609" y2="903.39152" stroke="black" stroke-width="6.48"/>
<path d="m 2721.68303,953.917801 a 256.4688490000001,256.4688490000001 0 0 1 -256.4688490000003,256.46884899999986" fill="none" stroke="black" stroke-width="6.48"/>
<line x1="2420.532389" y1="1427.858834" x2="2395.136725" y2="1427.858834" stroke="black" stroke-width="6.48"/>
<line x1="2395.136725" y1="1427.858834" x2="2395.136725" y2="1477.411351" stroke="black" stroke-width="6.48"/>
<line x1="2395.136725" y1="1477.411351" x2="2420.532389" y2="1477.411351" stroke="black" stroke-width="6.48"/>
<line x1="2420.532389" y1="1477.411351" x2="2420.532389" y2="1427.858834" stroke="black" stroke-width="6.48"/>
<line x1="2146.754732" y1="1477.411351" x2="2146.754732" y2="1724.554534" stroke="black" stroke-width="6.48"/>
<line x1="2146.135324" y1="1426.62002" x2="2120.73966" y2="1426.62002" stroke="black" stroke-width="6.48"/>
<line x1="2120.73966" y1="1426.62002" x2="2120.73966" y2="1476.172537" stroke="black" stroke-width="6.48"/>
<line x1="2120.73966" y1="1476.172537" x2="2146.135324" y2="1476.172537" stroke="black" stroke-width="6.48"/>
<line x1="2146.135324" y1="1476.172537" x2="2146.135324" y2="1426.62002" stroke="black" stroke-width="6.48"/>
<path d="m 2395.136725,1475.553132 a 248.38199299999997,248.38199299999997 0 0 1 -248.38199299999997,248.38199299999997" fill="none" stroke="black" stroke-width="6.48"/>
<line x1="652.117356" y1="541.339351" x2="884.014956" y2="541.339351" stroke="black" stroke-width="6.48"/>
<line x1="884.014956" y1="541.339351" x2="884.014956" y2="773.712151" stroke="black" stroke-width="6.48"/>
<line x1="884.014956" y1="773.712151" x2="652.117356" y2="773.712151" stroke="black" stroke-width="6.48"/>
<line x1="652.117356" y1="773.712151" x2="652.117356" y2="541.339351" stroke="black" stroke-width="6.48"/>
<line x1="651.642156" y1="540.864151" x2="884.014956" y2="773.712151" stroke="black" stroke-width="6.48"/>
<line x1="652.117356" y1="773.236951" x2="883.539756" y2="541.339351" stroke="black" stroke-width="6.48"/>
<line x1="1842.844367" y1="2142.610884" x2="2032.924367" y2="2142.610884" stroke="black" stroke-width="6.48"/>
<line x1="2032.924367" y1="2142.610884" x2="2032.924367" y2="1678.815684" stroke="black" stroke-width="6.48"/>
<line x1="2032.924367" y1="1678.815684" x2="1842.844367" y2="1678.815684" stroke="black" stroke-width="6.48"/>
<line x1="1842.844367" y1="1678.815684" x2="1842.844367" y2="1702.575684" stroke="black" stroke-width="6.48"/>
<line x1="1842.844367" y1="1702.575684" x2="2010.114767" y2="1702.575684" stroke="black" stroke-width="6.48"/>
<line x1="2010.114767" y1="1702.575684" x2="2010.114767" y2="2117.900484" stroke="black" stroke-width="6.48"/>
<line x1="2010.114767" y1="2117.900484" x2="1842.844367" y2="2117.900484" stroke="black" stroke-width="6.48"/>
<line x1="1842.844367" y1="2117.900484" x2="1842.844367" y2="2142.610884" stroke="black" stroke-width="6.48"/>
<line x1="1848.546767" y1="2117.900484" x2="1848.546767" y2="1702.575684" stroke="black" stroke-width="6.48"/>
<line x1="1847.596367" y1="1910.713284" x2="2009.164367" y2="1910.713284" stroke="black" stroke-width="6.48"/>
<line x1="1485.415969" y1="209.267824" x2="1707.693134" y2="209.267824" stroke="black" stroke-width="6.48"/>
<line x1="1707.693134" y1="209.267824" x2="1707.693134" y2="432.000475" stroke="black" stroke-width="6.48"/>
<line x1="1707.693134" y1="432.000475" x2="1485.415969" y2="432.000475" stroke="black" stroke-width="6.48"/>
<line x1="1485.415969" y1="432.000475" x2="1485.415969" y2="209.267824" stroke="black" stroke-width="6.48"/>
<line x1="1484.960483" y1="208.812337" x2="1707.693134" y2="432.000475" stroke="black" stroke-width="6.48"/>
<line x1="1485.415969" y1="431.544989" x2="1707.237648" y2="209.267824" stroke="black" stroke-width="6.48"/>
<line x1="2761.020558" y1="2194.614338" x2="2761.020558" y2="1803.366338" stroke="black" stroke-width="6.48"/>
<line x1="2761.020558" y1="1803.366338" x2="2586.780558" y2="1803.366338" stroke="black" stroke-width="6.48"/>
<line x1="2586.780558" y1="1803.366338" x2="2586.780558" y2="2194.614338" stroke="black" stroke-width="6.48"/>
<line x1="2586.780558" y1="2194.614338" x2="2761.020558" y2="2194.614338" stroke="black" stroke-width="6.48"/>
<line x1="2613.708558" y1="1878.606338" x2="2613.708558" y2="2162.934338" stroke="black" stroke-width="6.48"/>
<line x1="2613.708558" y1="2162.934338" x2="2731.716558" y2="2162.934338" stroke="black" stroke-width="6.48"/>
<line x1="2731.716558" y1="2162.934338" x2="2731.716558" y2="1873.062338" stroke="black" stroke-width="6.48"/>
<path d="m 2613.453134,1879.416911 a 63.3599990854681,63.3599990854681 0 0 1 119.3743300000001,-4.293814000000111" fill="none" stroke="black" stroke-width="6.48"/>
<line x1="2081.016454" y1="1876.265831" x2="2056.464454" y2="1894.877831" stroke="black" stroke-width="6.48"/>
<line x1="2056.464454" y1="1894.877831" x2="2056.464454" y2="2042.189831" stroke="black" stroke-width="6.48"/>
<line x1="2056.464454" y1="2042.189831" x2="2084.580454" y2="2061.197831" stroke="black" stroke-width="6.48"/>
<line x1="2083.788454" y1="1898.045831" x2="2083.788454" y2="2041.001831" stroke="black" stroke-width="6.48"/>
<circle cx="2105.568454" cy="1967.345831" r="13.068000000000003" fill="none" stroke="black" stroke-width="6.48"/>
<path d="m 2083.121107,1899.599083 a 74.84400089539025,74.84400089539025 0 1 1 0.40204799999992247,139.60900500000002" fill="none" stroke="black" stroke-width="6.48"/>
<path d="m 2080.35909,1876.312134 a 95.43599883324413,95.43599883324413 0 1 1 3.0749580000001515,184.466995" fill="none" stroke="black" stroke-width="6.48"/>
<line x1="780.18827" y1="209.658575" x2="1050.73547" y2="209.658575" stroke="black" stroke-width="6.48"/>
<line x1="1050.73547" y1="209.658575" x2="1050.73547" y2="341.605775" stroke="black" stroke-width="6.48"/>
<line x1="780.18827" y1="341.605775" x2="1050.73547" y2="341.605775" stroke="black" stroke-width="6.48"/>
<line x1="780.18827" y1="209.658575" x2="780.18827" y2="341.605775" stroke="black" stroke-width="6.48"/>
<line x1="786.84107" y1="216.311375" x2="924.88667" y2="216.311375" stroke="black" stroke-width="6.48"/>
<line x1="924.88667" y1="216.311375" x2="924.88667" y2="334.398575" stroke="black" stroke-width="6.48"/>
<line x1="786.84107" y1="334.398575" x2="924.88667" y2="334.398575" stroke="black" stroke-width="6.48"/>
<line x1="786.84107" y1="216.311375" x2="786.84107" y2="334.398575" stroke="black" stroke-width="6.48"/>
<line x1="939.30107" y1="224.072975" x2="1036.32107" y2="224.072975" stroke="black" stroke-width="6.48"/>
<line x1="939.30107" y1="244.585775" x2="1036.32107" y2="244.585775" stroke="black" stroke-width="6.48"/>
<line x1="939.85547" y1="265.652975" x2="1036.87547" y2="265.652975" stroke="black" stroke-width="6.48"/>
<line x1="939.85547" y1="286.165775" x2="1036.87547" y2="286.165775" stroke="black" stroke-width="6.48"/>
<line x1="939.30107" y1="306.678575" x2="1036.32107" y2="306.678575" stroke="black" stroke-width="6.48"/>
<line x1="939.30107" y1="327.191375" x2="1036.32107" y2="327.191375" stroke="black" stroke-width="6.48"/>
<line x1="839.50907" y1="334.398575" x2="839.50907" y2="320.538575" stroke="black" stroke-width="6.48"/>
<line x1="839.50907" y1="320.538575" x2="873.88187" y2="320.538575" stroke="black" stroke-width="6.48"/>
<line x1="873.88187" y1="320.538575" x2="873.88187" y2="333.844175" stroke="black" stroke-width="6.48"/>
<circle cx="909.36347" cy="231.280175" r="8.316000000000003" fill="none" stroke="black" stroke-width="6.48"/>
<line x1="996.75684" y1="1316.518902" x2="901.722179" y2="935.35569" stroke="black" stroke-width="6.48"/>
<line x1="901.722179" y1="935.35569" x2="722.66769" y2="979.998988" stroke="black" stroke-width="6.48"/>
<line x1="722.66769" y1="979.998988" x2="817.702351" y2="1361.1622" stroke="black" stroke-width="6.48"/>
<line x1="817.702351" y1="1361.1622" x2="996.75684" y2="1316.518902" stroke="black" stroke-width="6.48"/>
<line x1="779.190318" y1="1206.698882" x2="700.805952" y2="1226.242303" stroke="black" stroke-width="6.48"/>
<line x1="700.805952" y1="1226.242303" x2="719.774561" y2="1302.321247" stroke="black" stroke-width="6.48"/>
<line x1="719.774561" y1="1302.321247" x2="798.15893" y2="1282.77783" stroke="black" stroke-width="6.48"/>
<line x1="736.489393" y1="1297.33753" x2="717.712384" y2="1222.027052" stroke="black" stroke-width="6.48"/>
<line x1="1056.36627" y1="1218.399509" x2="1037.397654" y2="1142.320565" stroke="black" stroke-width="6.48"/>
<line x1="1037.397654" y1="1142.320565" x2="958.24481" y2="1162.055585" stroke="black" stroke-width="6.48"/>
<line x1="977.213423" y1="1238.134532" x2="1056.36627" y2="1218.399509" stroke="black" stroke-width="6.48"/>
<line x1="1039.268232" y1="1221.846282" x2="1020.491222" y2="1146.535812" stroke="black" stroke-width="6.48"/>
<line x1="742.594309" y1="1059.920305" x2="664.20994" y2="1079.463726" stroke="black" stroke-width="6.48"/>
<line x1="664.20994" y1="1079.463726" x2="683.178552" y2="1155.542674" stroke="black" stroke-width="6.48"/>
<line x1="683.178552" y1="1155.542674" x2="761.562922" y2="1135.999256" stroke="black" stroke-width="6.48"/>
<line x1="700.084984" y1="1151.327426" x2="681.116371" y2="1075.248479" stroke="black" stroke-width="6.48"/>
<line x1="1019.770258" y1="1071.620935" x2="1000.801649" y2="995.541988" stroke="black" stroke-width="6.48"/>
<line x1="1000.801649" y1="995.541988" x2="921.648802" y2="1015.277008" stroke="black" stroke-width="6.48"/>
<line x1="940.617414" y1="1091.355955" x2="1019.770258" y2="1071.620935" stroke="black" stroke-width="6.48"/>
<line x1="1002.863826" y1="1075.836182" x2="983.895214" y2="999.757235" stroke="black" stroke-width="6.48"/>
<line x1="2044.889399" y1="955.822399" x2="2267.166564" y2="955.822399" stroke="black" stroke-width="6.48"/>
<line x1="2267.166564" y1="955.822399" x2="2267.166564" y2="1178.555051" stroke="black" stroke-width="6.48"/>
<line x1="2267.166564" y1="1178.555051" x2="2044.889399" y2="1178.555051" stroke="black" stroke-width="6.48"/>
<line x1="2044.889399" y1="1178.555051" x2="2044.889399" y2="955.822399" stroke="black" stroke-width="6.48"/>
<line x1="2044.433912" y1="955.366913" x2="2267.166564" y2="1178.555051" stroke="black" stroke-width="6.48"/>
<line x1="2044.889399" y1="1178.099564" x2="2266.711078" y2="955.822399" stroke="black" stroke-width="6.48"/>
<line x1="323.258818" y1="1375.374532" x2="323.258818" y2="949.841089" stroke="black" stroke-width="6.48"/>
<line x1="323.258818" y1="949.841089" x2="257.659344" y2="949.841089" stroke="black" stroke-width="6.48"/>
<line x1="257.659344" y1="949.841089" x2="257.659344" y2="1375.374532" stroke="black" stroke-width="6.48"/>
<line x1="257.659344" y1="1375.374532" x2="323.258818" y2="1375.374532" stroke="black" stroke-width="6.48"/>
<line x1="258.522494" y1="1335.669588" x2="322.395667" y2="1335.669588" stroke="black" stroke-width="6.48"/>
<line x1="258.522494" y1="990.409187" x2="324.985122" y2="990.409187" stroke="black" stroke-width="6.48"/>
<line x1="288.73278" y1="1336.532738" x2="288.73278" y2="991.272337" stroke="black" stroke-width="6.48"/>
<line x1="3874.406537" y1="1514.726719" x2="3874.406537" y2="1940.260162" stroke="black" stroke-width="6.48"/>
<line x1="3874.406537" y1="1940.260162" x2="3940.00601" y2="1940.260162" stroke="black" stroke-width="6.48"/>
<line x1="3940.00601" y1="1940.260162" x2="3940.00601" y2="1514.726719" stroke="black" stroke-width="6.48"/>
<line x1="3940.00601" y1="1514.726719" x2="3874.406537" y2="1514.726719" stroke="black" stroke-width="6.48"/>
<line x1="3939.14286" y1="1554.431663" x2="3875.269687" y2="1554.431663" stroke="black" stroke-width="6.48"/>
<line x1="3939.14286" y1="1899.692064" x2="3872.680232" y2="1899.692064" stroke="black" stroke-width="6.48"/>
<line x1="3908.932574" y1="1553.568512" x2="3908.932574" y2="1898.828914" stroke="black" stroke-width="6.48"/>
<line x1="5050.656335" y1="2264.089064" x2="5439.665318" y2="2209.417416" stroke="black" stroke-width="6.48"/>
<line x1="5439.665318" y1="2209.417416" x2="5413.982872" y2="2026.677308" stroke="black" stroke-width="6.48"/>
<line x1="5413.982872" y1="2026.677308" x2="5024.973884" y2="2081.348957" stroke="black" stroke-width="6.48"/>
<line x1="5024.973884" y1="2081.348957" x2="5050.656335" y2="2264.089064" stroke="black" stroke-width="6.48"/>
<line x1="5182.616642" y1="2059.193711" x2="5171.37368" y2="1979.195893" stroke="black" stroke-width="6.48"/>
<line x1="5171.37368" y1="1979.195893" x2="5093.728744" y2="1990.108181" stroke="black" stroke-width="6.48"/>
<line x1="5093.728744" y1="1990.108181" x2="5104.971702" y2="2070.105995" stroke="black" stroke-width="6.48"/>
<line x1="5096.937985" y1="2007.252385" x2="5173.798633" y2="1996.450326" stroke="black" stroke-width="6.48"/>
<line x1="5142.007332" y1="2333.628212" x2="5219.652272" y2="2322.715925" stroke="black" stroke-width="6.48"/>
<line x1="5219.652272" y1="2322.715925" x2="5208.299086" y2="2241.933818" stroke="black" stroke-width="6.48"/>
<line x1="5130.654145" y1="2252.846106" x2="5142.007332" y2="2333.628212" stroke="black" stroke-width="6.48"/>
<line x1="5140.366672" y1="2316.263558" x2="5217.22732" y2="2305.461496" stroke="black" stroke-width="6.48"/>
<line x1="5332.416473" y1="2038.14072" x2="5321.173514" y2="1958.142902" stroke="black" stroke-width="6.48"/>
<line x1="5321.173514" y1="1958.142902" x2="5243.528574" y2="1969.055183" stroke="black" stroke-width="6.48"/>
<line x1="5243.528574" y1="1969.055183" x2="5254.771532" y2="2049.053" stroke="black" stroke-width="6.48"/>
<line x1="5245.953527" y1="1986.309616" x2="5323.598464" y2="1975.397335" stroke="black" stroke-width="6.48"/>
<line x1="5291.807166" y1="2312.575218" x2="5369.452103" y2="2301.662934" stroke="black" stroke-width="6.48"/>
<line x1="5369.452103" y1="2301.662934" x2="5358.098916" y2="2220.880828" stroke="black" stroke-width="6.48"/>
<line x1="5280.453983" y1="2231.793112" x2="5291.807166" y2="2312.575218" stroke="black" stroke-width="6.48"/>
<line x1="5289.382213" y1="2295.320789" x2="5367.027154" y2="2284.408501" stroke="black" stroke-width="6.48"/>
<line x1="3381.218413" y1="1075.230547" x2="3590.583617" y2="1075.230547" stroke="black" stroke-width="6.48"/>
<line x1="3590.583617" y1="1075.230547" x2="3590.583617" y2="744.016144" stroke="black" stroke-width="6.48"/>
<line x1="3590.583617" y1="744.016144" x2="3381.218413" y2="744.016144" stroke="black" stroke-width="6.48"/>
<line x1="3381.218413" y1="744.016144" x2="3381.218413" y2="1075.230547" stroke="black" stroke-width="6.48"/>
<line x1="3380.545213" y1="803.257744" x2="3591.256813" y2="803.257744" stroke="black" stroke-width="6.48"/>
<line x1="3591.256813" y1="803.257744" x2="3381.891613" y2="853.074547" stroke="black" stroke-width="6.48"/>
<line x1="3381.891613" y1="853.074547" x2="3413.532017" y2="899.525347" stroke="black" stroke-width="6.48"/>
<line x1="3413.532017" y1="899.525347" x2="3591.256813" y2="802.584547" stroke="black" stroke-width="6.48"/>
<line x1="3276.060858" y1="1203.67633" x2="3498.338023" y2="1203.67633" stroke="black" stroke-width="6.48"/>
<line x1="3498.338023" y1="1203.67633" x2="3498.338023" y2="1426.408981" stroke="black" stroke-width="6.48"/>
<line x1="3498.338023" y1="1426.408981" x2="3276.060858" y2="1426.408981" stroke="black" stroke-width="6.48"/>
<line x1="3276.060858" y1="1426.408981" x2="3276.060858" y2="1203.67633" stroke="black" stroke-width="6.48"/>
<line x1="3275.605372" y1="1203.220843" x2="3498.338023" y2="1426.408981" stroke="black" stroke-width="6.48"/>
<line x1="3276.060858" y1="1425.953495" x2="3497.882537" y2="1203.67633" stroke="black" stroke-width="6.48"/>
<line x1="2804.16708" y1="1127.69402" x2="2804.16708" y2="1153.148746" stroke="black" stroke-width="6.48"/>
<line x1="2804.16708" y1="1153.148746" x2="2853.834836" y2="1153.148746" stroke="black" stroke-width="6.48"/>
<line x1="2853.834836" y1="1153.148746" x2="2853.834836" y2="1127.69402" stroke="black" stroke-width="6.48"/>
<line x1="2853.834836" y1="1127.69402" x2="2804.16708" y2="1127.69402" stroke="black" stroke-width="6.48"/>
<line x1="2853.834836" y1="1402.108373" x2="3101.55277" y2="1402.108373" stroke="black" stroke-width="6.48"/>
<line x1="2802.925386" y1="1402.729218" x2="2802.925386" y2="1428.183943" stroke="black" stroke-width="6.48"/>
<line x1="2802.925386" y1="1428.183943" x2="2852.593142" y2="1428.183943" stroke="black" stroke-width="6.48"/>
<line x1="2852.593142" y1="1428.183943" x2="2852.593142" y2="1402.729218" stroke="black" stroke-width="6.48"/>
<line x1="2852.593142" y1="1402.729218" x2="2802.925386" y2="1402.729218" stroke="black" stroke-width="6.48"/>
<path d="m 2851.972294,1153.148746 a 248.95962699999984,248.95962699999984 0 0 1 248.95962699999973,248.95962699999995" fill="none" stroke="black" stroke-width="6.48"/>
<line x1="3391.39804" y1="1753.247138" x2="3596.151467" y2="1644.37781" stroke="black" stroke-width="6.48"/>
<line x1="3596.151467" y1="1644.37781" x2="3705.24389" y2="1849.550818" stroke="black" stroke-width="6.48"/>
<line x1="3705.24389" y1="1849.550818" x2="3500.490463" y2="1958.420142" stroke="black" stroke-width="6.48"/>
<line x1="3500.490463" y1="1958.420142" x2="3391.39804" y2="1753.247138" stroke="black" stroke-width="6.48"/>
<line x1="3390.755371" y1="1753.050654" x2="3705.24389" y2="1849.550818" stroke="black" stroke-width="6.48"/>
<line x1="3500.267368" y1="1958.000569" x2="3595.731894" y2="1644.600902" stroke="black" stroke-width="6.48"/>
<line x1="3066.685171" y1="1589.315879" x2="3055.615902" y2="1618.152311" stroke="black" stroke-width="6.48"/>
<line x1="3055.615902" y1="1618.152311" x2="3251.260004" y2="1693.253045" stroke="black" stroke-width="6.48"/>
<line x1="3251.260004" y1="1693.253045" x2="3262.329274" y2="1664.416613" stroke="black" stroke-width="6.48"/>
<line x1="3262.329274" y1="1664.416613" x2="3066.685171" y2="1589.315879" stroke="black" stroke-width="6.48"/>
<line x1="2993.627995" y1="1779.63633" x2="2982.558726" y2="1808.472762" stroke="black" stroke-width="6.48"/>
<line x1="2982.558726" y1="1808.472762" x2="3178.202828" y2="1883.573496" stroke="black" stroke-width="6.48"/>
<line x1="3178.202828" y1="1883.573496" x2="3189.272098" y2="1854.737068" stroke="black" stroke-width="6.48"/>
<line x1="3189.272098" y1="1854.737068" x2="2993.627995" y2="1779.63633" stroke="black" stroke-width="6.48"/>
<line x1="3055.7862" y1="1617.708672" x2="2993.627995" y2="1779.63633" stroke="black" stroke-width="6.48"/>
<line x1="3250.713323" y1="1692.025175" x2="3265.57678" y2="1726.235176" stroke="black" stroke-width="6.48"/>
<line x1="3222.151186" y1="1839.362717" x2="3188.214526" y2="1854.84011" stroke="black" stroke-width="6.48"/>
<line x1="3266.257964" y1="1724.460631" x2="3221.469997" y2="1841.137268" stroke="black" stroke-width="6.48"/>
<line x1="3097.31782" y1="1634.160175" x2="3035.159615" y2="1796.087833" stroke="black" stroke-width="6.48"/>
<line x1="2922.037834" y1="2004.813187" x2="2850.832688" y2="2181.052325" stroke="black" stroke-width="6.48"/>
<line x1="2850.832688" y1="2181.052325" x2="3280.856184" y2="2354.792875" stroke="black" stroke-width="6.48"/>
<line x1="3280.856184" y1="2354.792875" x2="3352.061329" y2="2178.553738" stroke="black" stroke-width="6.48"/>
<line x1="3352.061329" y1="2178.553738" x2="3330.031439" y2="2169.653094" stroke="black" stroke-width="6.48"/>
<line x1="3330.031439" y1="2169.653094" x2="3267.370912" y2="2324.743538" stroke="black" stroke-width="6.48"/>
<line x1="3267.370912" y1="2324.743538" x2="2882.288394" y2="2169.160297" stroke="black" stroke-width="6.48"/>
<line x1="2882.288394" y1="2169.160297" x2="2944.948921" y2="2014.069856" stroke="black" stroke-width="6.48"/>
<line x1="2944.948921" y1="2014.069856" x2="2922.037834" y2="2004.813187" stroke="black" stroke-width="6.48"/>
<line x1="2942.812768" y1="2019.357029" x2="3327.895285" y2="2174.94027" stroke="black" stroke-width="6.48"/>
<line x1="3135.269452" y1="2096.089441" x2="3074.745082" y2="2245.89271" stroke="black" stroke-width="6.48"/>
<line x1="2257.910644" y1="2272.419104" x2="2288.629436" y2="2275.647786" stroke="black" stroke-width="6.48"/>
<line x1="2288.629436" y1="2275.647786" x2="2310.534806" y2="2067.232601" stroke="black" stroke-width="6.48"/>
<line x1="2310.534806" y1="2067.232601" x2="2279.816014" y2="2064.003919" stroke="black" stroke-width="6.48"/>
<line x1="2279.816014" y1="2064.003919" x2="2257.910644" y2="2272.419104" stroke="black" stroke-width="6.48"/>
<line x1="2460.65467" y1="2293.728412" x2="2491.373459" y2="2296.957093" stroke="black" stroke-width="6.48"/>
<line x1="2491.373459" y1="2296.957093" x2="2513.278829" y2="2088.541908" stroke="black" stroke-width="6.48"/>
<line x1="2513.278829" y1="2088.541908" x2="2482.56004" y2="2085.313226" stroke="black" stroke-width="6.48"/>
<line x1="2482.56004" y1="2085.313226" x2="2460.65467" y2="2293.728412" stroke="black" stroke-width="6.48"/>
<line x1="2288.156839" y1="2275.598113" x2="2460.65467" y2="2293.728412" stroke="black" stroke-width="6.48"/>
<line x1="2309.49027" y1="2068.07845" x2="2338.687652" y2="2044.867262" stroke="black" stroke-width="6.48"/>
<line x1="2459.199834" y1="2057.533632" x2="2482.933291" y2="2086.30809" stroke="black" stroke-width="6.48"/>
<line x1="2336.797264" y1="2044.668575" x2="2461.090219" y2="2057.73232" stroke="black" stroke-width="6.48"/>
<line x1="2293.298608" y1="2231.223689" x2="2465.796438" y2="2249.353984" stroke="black" stroke-width="6.48"/>
<line x1="3835.973282" y1="1142.207798" x2="3836.512354" y2="1111.324504" stroke="black" stroke-width="6.48"/>
<line x1="3836.512354" y1="1111.324504" x2="3626.981071" y2="1107.667123" stroke="black" stroke-width="6.48"/>
<line x1="3626.981071" y1="1107.667123" x2="3626.442" y2="1138.550418" stroke="black" stroke-width="6.48"/>
<line x1="3626.442" y1="1138.550418" x2="3835.973282" y2="1142.207798" stroke="black" stroke-width="6.48"/>
<line x1="3839.531144" y1="938.378048" x2="3840.070216" y2="907.494754" stroke="black" stroke-width="6.48"/>
<line x1="3840.070216" y1="907.494754" x2="3630.538933" y2="903.837373" stroke="black" stroke-width="6.48"/>
<line x1="3630.538933" y1="903.837373" x2="3629.999862" y2="934.720668" stroke="black" stroke-width="6.48"/>
<line x1="3629.999862" y1="934.720668" x2="3839.531144" y2="938.378048" stroke="black" stroke-width="6.48"/>
<line x1="3836.504059" y1="1111.799632" x2="3839.531144" y2="938.378048" stroke="black" stroke-width="6.48"/>
<line x1="3627.914738" y1="1108.633964" x2="3602.247149" y2="1081.570684" stroke="black" stroke-width="6.48"/>
<line x1="3604.361962" y1="960.413137" x2="3630.958412" y2="934.262129" stroke="black" stroke-width="6.48"/>
<line x1="3602.213975" y1="1083.471196" x2="3604.395136" y2="958.512625" stroke="black" stroke-width="6.48"/>
<line x1="3791.850358" y1="1110.544927" x2="3794.877439" y2="937.123344" stroke="black" stroke-width="6.48"/>
<line x1="5927.288526" y1="1718.167738" x2="5922.989748" y2="1748.755138" stroke="black" stroke-width="6.48"/>
<line x1="5922.989748" y1="1748.755138" x2="6130.513494" y2="1777.920696" stroke="black" stroke-width="6.48"/>
<line x1="6130.513494" y1="1777.920696" x2="6134.812272" y2="1747.3333" stroke="black" stroke-width="6.48"/>
<line x1="6134.812272" y1="1747.3333" x2="5927.288526" y2="1718.167738" stroke="black" stroke-width="6.48"/>
<line x1="5898.916588" y1="1920.044578" x2="5894.617806" y2="1950.631978" stroke="black" stroke-width="6.48"/>
<line x1="5894.617806" y1="1950.631978" x2="6102.141552" y2="1979.79754" stroke="black" stroke-width="6.48"/>
<line x1="6102.141552" y1="1979.79754" x2="6106.44033" y2="1949.21014" stroke="black" stroke-width="6.48"/>
<line x1="6106.44033" y1="1949.21014" x2="5898.916588" y2="1920.044578" stroke="black" stroke-width="6.48"/>
<line x1="5923.05588" y1="1748.284564" x2="5898.916588" y2="1920.044578" stroke="black" stroke-width="6.48"/>
<line x1="6129.70461" y1="1776.84728" x2="6151.882694" y2="1806.836926" stroke="black" stroke-width="6.48"/>
<line x1="6135.018253" y1="1926.833648" x2="6105.433046" y2="1949.548442" stroke="black" stroke-width="6.48"/>
<line x1="6152.147233" y1="1804.954626" x2="6134.753714" y2="1928.715952" stroke="black" stroke-width="6.48"/>
<line x1="5967.22383" y1="1754.971834" x2="5943.084538" y2="1926.731848" stroke="black" stroke-width="6.48"/>
<line x1="1219.38637" y1="1946.680862" x2="1239.240784" y2="1970.342449" stroke="black" stroke-width="6.48"/>
<line x1="1239.240784" y1="1970.342449" x2="1399.775544" y2="1835.637854" stroke="black" stroke-width="6.48"/>
<line x1="1399.775544" y1="1835.637854" x2="1379.921126" y2="1811.976275" stroke="black" stroke-width="6.48"/>
<line x1="1379.921126" y1="1811.976275" x2="1219.38637" y2="1946.680862" stroke="black" stroke-width="6.48"/>
<line x1="1350.425527" y1="2102.847325" x2="1370.279941" y2="2126.508912" stroke="black" stroke-width="6.48"/>
<line x1="1370.279941" y1="2126.508912" x2="1530.814698" y2="1991.804324" stroke="black" stroke-width="6.48"/>
<line x1="1530.814698" y1="1991.804324" x2="1510.960284" y2="1968.142738" stroke="black" stroke-width="6.48"/>
<line x1="1510.960284" y1="1968.142738" x2="1350.425527" y2="2102.847325" stroke="black" stroke-width="6.48"/>
<line x1="1238.935334" y1="1969.978424" x2="1350.425527" y2="2102.847325" stroke="black" stroke-width="6.48"/>
<line x1="1398.436589" y1="1835.520718" x2="1435.563277" y2="1839.106188" stroke="black" stroke-width="6.48"/>
<line x1="1513.453684" y1="1931.932408" x2="1510.537691" y2="1969.117668" stroke="black" stroke-width="6.48"/>
<line x1="1434.341466" y1="1837.650089" x2="1514.675495" y2="1933.388507" stroke="black" stroke-width="6.48"/>
<line x1="1273.459082" y1="1941.629904" x2="1384.949272" y2="2074.498808" stroke="black" stroke-width="6.48"/>
<line x1="5621.280055" y1="1435.969534" x2="5657.587808" y2="1641.881016" stroke="black" stroke-width="6.48"/>
<line x1="5657.587808" y1="1641.881016" x2="5885.962362" y2="1601.612424" stroke="black" stroke-width="6.48"/>
<line x1="5885.962362" y1="1601.612424" x2="5849.654612" y2="1395.700942" stroke="black" stroke-width="6.48"/>
<line x1="5849.654612" y1="1395.700942" x2="5621.280055" y2="1435.969534" stroke="black" stroke-width="6.48"/>
<line x1="5653.102741" y1="1430.358336" x2="5689.410491" y2="1636.269818" stroke="black" stroke-width="6.48"/>
<line x1="1077.453526" y1="210.385386" x2="1348.000726" y2="210.385386" stroke="black" stroke-width="6.48"/>
<line x1="1348.000726" y1="210.385386" x2="1348.000726" y2="342.332586" stroke="black" stroke-width="6.48"/>
<line x1="1077.453526" y1="342.332586" x2="1348.000726" y2="342.332586" stroke="black" stroke-width="6.48"/>
<line x1="1077.453526" y1="210.385386" x2="1077.453526" y2="342.332586" stroke="black" stroke-width="6.48"/>
<line x1="1084.106326" y1="217.038186" x2="1222.151926" y2="217.038186" stroke="black" stroke-width="6.48"/>
<line x1="1222.151926" y1="217.038186" x2="1222.151926" y2="335.125386" stroke="black" stroke-width="6.48"/>
<line x1="1084.106326" y1="335.125386" x2="1222.151926" y2="335.125386" stroke="black" stroke-width="6.48"/>
<line x1="1084.106326" y1="217.038186" x2="1084.106326" y2="335.125386" stroke="black" stroke-width="6.48"/>
<line x1="1236.566326" y1="224.799786" x2="1333.586326" y2="224.799786" stroke="black" stroke-width="6.48"/>
<line x1="1236.566326" y1="245.312586" x2="1333.586326" y2="245.312586" stroke="black" stroke-width="6.48"/>
<line x1="1237.120726" y1="266.379786" x2="1334.140726" y2="266.379786" stroke="black" stroke-width="6.48"/>
<line x1="1237.120726" y1="286.892586" x2="1334.140726" y2="286.892586" stroke="black" stroke-width="6.48"/>
<line x1="1236.566326" y1="307.405386" x2="1333.586326" y2="307.405386" stroke="black" stroke-width="6.48"/>
<line x1="1236.566326" y1="327.918186" x2="1333.586326" y2="327.918186" stroke="black" stroke-width="6.48"/>
<line x1="1136.774326" y1="335.125386" x2="1136.774326" y2="321.265386" stroke="black" stroke-width="6.48"/>
<line x1="1136.774326" y1="321.265386" x2="1171.147126" y2="321.265386" stroke="black" stroke-width="6.48"/>
<line x1="1171.147126" y1="321.265386" x2="1171.147126" y2="334.570986" stroke="black" stroke-width="6.48"/>
<circle cx="1206.628726" cy="232.006986" r="8.316000000000003" fill="none" stroke="black" stroke-width="6.48"/>
</g>
</svg>
