<?xml version="1.0"?>
<svg xmlns:xlink="http://www.w3.org/1999/xlink" width="6775.2" height="2858.4">
<image x="0" y="0" width="6775.2" height="2858.4" xlink:href="groundfilled-01.png"/>
<g style="stroke-linecap:round">
<line x1="1285.950406" y1="795.178109" x2="1311.346069" y2="795.178109" stroke="black" stroke-width="6.48"/>
<line x1="1311.346069" y1="795.178109" x2="1311.346069" y2="745.625592" stroke="black" stroke-width="6.48"/>
<line x1="1311.346069" y1="745.625592" x2="1285.950406" y2="745.625592" stroke="black" stroke-width="6.48"/>
<line x1="1285.950406" y1="745.625592" x2="1285.950406" y2="795.178109" stroke="black" stroke-width="6.48"/>
<line x1="1559.728062" y1="745.625592" x2="1559.728062" y2="498.48241" stroke="black" stroke-width="6.48"/>
<line x1="1560.347471" y1="796.416923" x2="1585.743134" y2="796.416923" stroke="black" stroke-width="6.48"/>
<line x1="1585.743134" y1="796.416923" x2="1585.743134" y2="746.864406" stroke="black" stroke-width="6.48"/>
<line x1="1585.743134" y1="746.864406" x2="1560.347471" y2="746.864406" stroke="black" stroke-width="6.48"/>
<line x1="1560.347471" y1="746.864406" x2="1560.347471" y2="796.416923" stroke="black" stroke-width="6.48"/>
<path d="m 1311.346069,747.483811 a 248.38199299999997,248.38199299999997 0 0 1 248.38199299999997,-248.38199299999997" fill="none" stroke="black" stroke-width="6.48"/>
<line x1="320.532556" y1="771.34176" x2="320.532556" y2="366.736194" stroke="black" stroke-width="6.48"/>
<line x1="320.532556" y1="366.736194" x2="258.159283" y2="366.736194" stroke="black" stroke-width="6.48"/>
<line x1="258.159283" y1="366.736194" x2="258.159283" y2="771.34176" stroke="black" stroke-width="6.48"/>
<line x1="258.159283" y1="771.34176" x2="320.532556" y2="771.34176" stroke="black" stroke-width="6.48"/>
<line x1="258.979986" y1="733.589518" x2="319.711856" y2="733.589518" stroke="black" stroke-width="6.48"/>
<line x1="258.979986" y1="405.309139" x2="322.173958" y2="405.309139" stroke="black" stroke-width="6.48"/>
<line x1="287.704519" y1="734.410217" x2="287.704519" y2="406.129838" stroke="black" stroke-width="6.48"/>
<line x1="3901.945176" y1="1169.331426" x2="3901.945176" y2="1428.837066" stroke="black" stroke-width="6.48"/>
<line x1="3901.945176" y1="1428.837066" x2="3941.9501" y2="1428.837066" stroke="black" stroke-width="6.48"/>
<line x1="3941.9501" y1="1428.837066" x2="3941.9501" y2="1169.331426" stroke="black" stroke-width="6.48"/>
<line x1="3941.9501" y1="1169.331426" x2="3901.945176" y2="1169.331426" stroke="black" stroke-width="6.48"/>
<line x1="3941.423719" y1="1193.544936" x2="3902.471557" y2="1193.544936" stroke="black" stroke-width="6.48"/>
<line x1="3941.423719" y1="1404.097178" x2="3900.892414" y2="1404.097178" stroke="black" stroke-width="6.48"/>
<line x1="3923.000399" y1="1193.018555" x2="3923.000399" y2="1403.570797" stroke="black" stroke-width="6.48"/>
<line x1="334.430687" y1="1882.943946" x2="334.430687" y2="1457.437414" stroke="black" stroke-width="6.48"/>
<line x1="334.430687" y1="1457.437414" x2="258.323828" y2="1457.437414" stroke="black" stroke-width="6.48"/>
<line x1="258.323828" y1="1457.437414" x2="258.323828" y2="1882.943946" stroke="black" stroke-width="6.48"/>
<line x1="258.323828" y1="1882.943946" x2="334.430687" y2="1882.943946" stroke="black" stroke-width="6.48"/>
<line x1="334.430687" y1="1863.05238" x2="360.376207" y2="1863.05238" stroke="black" stroke-width="6.48"/>
<line x1="360.376207" y1="1863.05238" x2="360.376207" y2="1478.193829" stroke="black" stroke-width="6.48"/>
<line x1="334.430687" y1="1478.193829" x2="360.376207" y2="1478.193829" stroke="black" stroke-width="6.48"/>
<line x1="2747.905531" y1="904.670665" x2="2721.68303" y2="904.670665" stroke="black" stroke-width="6.48"/>
<line x1="2721.68303" y1="904.670665" x2="2721.68303" y2="955.836522" stroke="black" stroke-width="6.48"/>
<line x1="2721.68303" y1="955.836522" x2="2747.905531" y2="955.836522" stroke="black" stroke-width="6.48"/>
<line x1="2747.905531" y1="955.836522" x2="2747.905531" y2="904.670665" stroke="black" stroke-width="6.48"/>
<line x1="2465.214181" y1="955.836522" x2="2465.214181" y2="1211.026223" stroke="black" stroke-width="6.48"/>
<line x1="2464.574609" y1="903.39152" x2="2438.352108" y2="903.39152" stroke="black" stroke-width="6.48"/>
<line x1="2438.352108" y1="903.39152" x2="2438.352108" y2="954.557374" stroke="black" stroke-width="6.48"/>
<line x1="2438.352108" y1="954.557374" x2="2464.574609" y2="954.557374" stroke="black" stroke-width="6.48"/>
<line x1="2464.574609" y1="954.557374" x2="2464.574609" y2="903.39152" stroke="black" stroke-width="6.48"/>
<path d="m 2721.68303,953.917801 a 256.4688490000001,256.4688490000001 0 0 1 -256.4688490000003,256.46884899999986" fill="none" stroke="black" stroke-width="6.48"/>
<line x1="2420.532389" y1="1427.858834" x2="2395.136725" y2="1427.858834" stroke="black" stroke-width="6.48"/>
<line x1="2395.136725" y1="1427.858834" x2="2395.136725" y2="1477.411351" stroke="black" stroke-width="6.48"/>
<line x1="2395.136725" y1="1477.411351" x2="2420.532389" y2="1477.411351" stroke="black" stroke-width="6.48"/>
<line x1="2420.532389" y1="1477.411351" x2="2420.532389" y2="1427.858834" stroke="black" stroke-width="6.48"/>
<line x1="2146.754732" y1="1477.411351" x2="2146.754732" y2="1724.554534" stroke="black" stroke-width="6.48"/>
<line x1="2146.135324" y1="1426.62002" x2="2120.73966" y2="1426.62002" stroke="black" stroke-width="6.48"/>
<line x1="2120.73966" y1="1426.62002" x2="2120.73966" y2="1476.172537" stroke="black" stroke-width="6.48"/>
<line x1="2120.73966" y1="1476.172537" x2="2146.135324" y2="1476.172537" stroke="black" stroke-width="6.48"/>
<line x1="2146.135324" y1="1476.172537" x2="2146.135324" y2="1426.62002" stroke="black" stroke-width="6.48"/>
<path d="m 2395.136725,1475.553132 a 248.38199299999997,248.38199299999997 0 0 1 -248.38199299999997,248.38199299999997" fill="none" stroke="black" stroke-width="6.48"/>
<line x1="781.958455" y1="541.339351" x2="1013.856055" y2="541.339351" stroke="black" stroke-width="6.48"/>
<line x1="1013.856055" y1="541.339351" x2="1013.856055" y2="773.712151" stroke="black" stroke-width="6.48"/>
<line x1="1013.856055" y1="773.712151" x2="781.958455" y2="773.712151" stroke="black" stroke-width="6.48"/>
<line x1="781.958455" y1="773.712151" x2="781.958455" y2="541.339351" stroke="black" stroke-width="6.48"/>
<line x1="781.483255" y1="540.864151" x2="1013.856055" y2="773.712151" stroke="black" stroke-width="6.48"/>
<line x1="781.958455" y1="773.236951" x2="1013.380855" y2="541.339351" stroke="black" stroke-width="6.48"/>
<line x1="2032.924367" y1="2050.509553" x2="2032.924367" y2="1841.421553" stroke="black" stroke-width="6.48"/>
<line x1="2032.924367" y1="1841.421553" x2="1801.026767" y2="1841.421553" stroke="black" stroke-width="6.48"/>
<line x1="1801.026767" y1="1841.421553" x2="1801.026767" y2="2050.509553" stroke="black" stroke-width="6.48"/>
<line x1="1801.026767" y1="2050.509553" x2="2032.924367" y2="2050.509553" stroke="black" stroke-width="6.48"/>
<line x1="2000.610767" y1="2050.509553" x2="2000.610767" y2="1841.421553" stroke="black" stroke-width="6.48"/>
<line x1="1485.415969" y1="209.267824" x2="1707.693134" y2="209.267824" stroke="black" stroke-width="6.48"/>
<line x1="1707.693134" y1="209.267824" x2="1707.693134" y2="432.000475" stroke="black" stroke-width="6.48"/>
<line x1="1707.693134" y1="432.000475" x2="1485.415969" y2="432.000475" stroke="black" stroke-width="6.48"/>
<line x1="1485.415969" y1="432.000475" x2="1485.415969" y2="209.267824" stroke="black" stroke-width="6.48"/>
<line x1="1484.960483" y1="208.812337" x2="1707.693134" y2="432.000475" stroke="black" stroke-width="6.48"/>
<line x1="1485.415969" y1="431.544989" x2="1707.237648" y2="209.267824" stroke="black" stroke-width="6.48"/>
<line x1="2761.020558" y1="2194.614338" x2="2761.020558" y2="1803.366338" stroke="black" stroke-width="6.48"/>
<line x1="2761.020558" y1="1803.366338" x2="2586.780558" y2="1803.366338" stroke="black" stroke-width="6.48"/>
<line x1="2586.780558" y1="1803.366338" x2="2586.780558" y2="2194.614338" stroke="black" stroke-width="6.48"/>
<line x1="2586.780558" y1="2194.614338" x2="2761.020558" y2="2194.614338" stroke="black" stroke-width="6.48"/>
<line x1="2613.708558" y1="1878.606338" x2="2613.708558" y2="2162.934338" stroke="black" stroke-width="6.48"/>
<line x1="2613.708558" y1="2162.934338" x2="2731.716558" y2="2162.934338" stroke="black" stroke-width="6.48"/>
<line x1="2731.716558" y1="2162.934338" x2="2731.716558" y2="1873.062338" stroke="black" stroke-width="6.48"/>
<path d="m 2613.453134,1879.416911 a 63.3599990854681,63.3599990854681 0 0 1 119.3743300000001,-4.293814000000111" fill="none" stroke="black" stroke-width="6.48"/>
<line x1="2105.510749" y1="1868.995019" x2="2105.510749" y2="2052.739019" stroke="black" stroke-width="6.48"/>
<line x1="2105.510749" y1="2052.739019" x2="2056.406749" y2="2052.739019" stroke="black" stroke-width="6.48"/>
<line x1="2056.406749" y1="1868.995019" x2="2056.406749" y2="2052.739019" stroke="black" stroke-width="6.48"/>
<line x1="2105.510749" y1="1868.995019" x2="2056.406749" y2="1868.995019" stroke="black" stroke-width="6.48"/>
<line x1="2133.230749" y1="1910.575019" x2="2105.510749" y2="1910.575019" stroke="black" stroke-width="6.48"/>
<line x1="2105.510749" y1="2009.575019" x2="2134.814749" y2="2009.575019" stroke="black" stroke-width="6.48"/>
<circle cx="2178.374749" cy="1959.283019" r="66.52800000000002" fill="none" stroke="black" stroke-width="6.48"/>
<circle cx="2178.374749" cy="1959.283019" r="57.02400000000001" fill="none" stroke="black" stroke-width="6.48"/>
<line x1="806.970035" y1="209.724055" x2="1077.517235" y2="209.724055" stroke="black" stroke-width="6.48"/>
<line x1="1077.517235" y1="209.724055" x2="1077.517235" y2="341.671255" stroke="black" stroke-width="6.48"/>
<line x1="806.970035" y1="341.671255" x2="1077.517235" y2="341.671255" stroke="black" stroke-width="6.48"/>
<line x1="806.970035" y1="209.724055" x2="806.970035" y2="341.671255" stroke="black" stroke-width="6.48"/>
<line x1="813.622835" y1="216.376855" x2="951.668435" y2="216.376855" stroke="black" stroke-width="6.48"/>
<line x1="951.668435" y1="216.376855" x2="951.668435" y2="334.464055" stroke="black" stroke-width="6.48"/>
<line x1="813.622835" y1="334.464055" x2="951.668435" y2="334.464055" stroke="black" stroke-width="6.48"/>
<line x1="813.622835" y1="216.376855" x2="813.622835" y2="334.464055" stroke="black" stroke-width="6.48"/>
<line x1="966.082835" y1="224.138455" x2="1063.102835" y2="224.138455" stroke="black" stroke-width="6.48"/>
<line x1="966.082835" y1="244.651255" x2="1063.102835" y2="244.651255" stroke="black" stroke-width="6.48"/>
<line x1="966.637235" y1="265.718455" x2="1063.657235" y2="265.718455" stroke="black" stroke-width="6.48"/>
<line x1="966.637235" y1="286.231255" x2="1063.657235" y2="286.231255" stroke="black" stroke-width="6.48"/>
<line x1="966.082835" y1="306.744055" x2="1063.102835" y2="306.744055" stroke="black" stroke-width="6.48"/>
<line x1="966.082835" y1="327.256855" x2="1063.102835" y2="327.256855" stroke="black" stroke-width="6.48"/>
<line x1="866.290835" y1="334.464055" x2="866.290835" y2="320.604055" stroke="black" stroke-width="6.48"/>
<line x1="866.290835" y1="320.604055" x2="900.663635" y2="320.604055" stroke="black" stroke-width="6.48"/>
<line x1="900.663635" y1="320.604055" x2="900.663635" y2="333.909655" stroke="black" stroke-width="6.48"/>
<circle cx="936.145235" cy="231.345655" r="8.316000000000003" fill="none" stroke="black" stroke-width="6.48"/>
<line x1="1287.843206" y1="1244.510586" x2="1283.232791" y2="1376.535712" stroke="black" stroke-width="6.48"/>
<line x1="1283.232791" y1="1376.535712" x2="1268.985474" y2="1376.038184" stroke="black" stroke-width="6.48"/>
<line x1="1273.595893" y1="1244.013059" x2="1268.985474" y2="1376.038184" stroke="black" stroke-width="6.48"/>
<line x1="1287.843206" y1="1244.510586" x2="1273.595893" y2="1244.013059" stroke="black" stroke-width="6.48"/>
<line x1="1273.131533" y1="1257.310555" x2="1241.853775" y2="1254.316356" stroke="black" stroke-width="6.48"/>
<line x1="1269.449831" y1="1362.740692" x2="1237.089582" y2="1363.512604" stroke="black" stroke-width="6.48"/>
<line x1="827.180003" y1="1228.423874" x2="822.569584" y2="1360.449" stroke="black" stroke-width="6.48"/>
<line x1="822.569584" y1="1360.449" x2="835.86708" y2="1360.913357" stroke="black" stroke-width="6.48"/>
<line x1="840.477496" y1="1228.888231" x2="835.86708" y2="1360.913357" stroke="black" stroke-width="6.48"/>
<line x1="827.180003" y1="1228.423874" x2="840.477496" y2="1228.888231" stroke="black" stroke-width="6.48"/>
<line x1="841.945946" y1="1241.302241" x2="873.356382" y2="1240.497162" stroke="black" stroke-width="6.48"/>
<line x1="838.264248" y1="1346.732381" x2="870.458656" y2="1350.709571" stroke="black" stroke-width="6.48"/>
<line x1="1113.208772" y1="1534.166784" x2="1113.7063" y2="1519.919467" stroke="black" stroke-width="6.48"/>
<line x1="1113.7063" y1="1519.919467" x2="981.681174" y2="1515.309048" stroke="black" stroke-width="6.48"/>
<line x1="981.183647" y1="1529.556365" x2="981.681174" y2="1515.309048" stroke="black" stroke-width="6.48"/>
<line x1="1113.208772" y1="1534.166784" x2="981.183647" y2="1529.556365" stroke="black" stroke-width="6.48"/>
<line x1="995.928487" y1="1515.806575" x2="994.206751" y2="1483.413156" stroke="black" stroke-width="6.48"/>
<line x1="1100.408803" y1="1519.45511" x2="1103.436173" y2="1487.227532" stroke="black" stroke-width="6.48"/>
<line x1="1130.212138" y1="1074.486568" x2="1129.71461" y2="1088.733884" stroke="black" stroke-width="6.48"/>
<line x1="1129.71461" y1="1088.733884" x2="997.689485" y2="1084.123465" stroke="black" stroke-width="6.48"/>
<line x1="998.187012" y1="1069.876152" x2="997.689485" y2="1084.123465" stroke="black" stroke-width="6.48"/>
<line x1="1130.212138" y1="1074.486568" x2="998.187012" y2="1069.876152" stroke="black" stroke-width="6.48"/>
<line x1="1011.936802" y1="1084.620992" x2="1007.959612" y2="1116.8154" stroke="black" stroke-width="6.48"/>
<line x1="1116.417118" y1="1088.269524" x2="1117.189026" y2="1120.629776" stroke="black" stroke-width="6.48"/>
<circle cx="1055.69789" cy="1302.021464" r="191.98080000000002" fill="none" stroke="black" stroke-width="6.48"/>
<line x1="2044.889399" y1="955.822399" x2="2267.166564" y2="955.822399" stroke="black" stroke-width="6.48"/>
<line x1="2267.166564" y1="955.822399" x2="2267.166564" y2="1178.555051" stroke="black" stroke-width="6.48"/>
<line x1="2267.166564" y1="1178.555051" x2="2044.889399" y2="1178.555051" stroke="black" stroke-width="6.48"/>
<line x1="2044.889399" y1="1178.555051" x2="2044.889399" y2="955.822399" stroke="black" stroke-width="6.48"/>
<line x1="2044.433912" y1="955.366913" x2="2267.166564" y2="1178.555051" stroke="black" stroke-width="6.48"/>
<line x1="2044.889399" y1="1178.099564" x2="2266.711078" y2="955.822399" stroke="black" stroke-width="6.48"/>
<line x1="323.258818" y1="1375.374532" x2="323.258818" y2="949.841089" stroke="black" stroke-width="6.48"/>
<line x1="323.258818" y1="949.841089" x2="257.659344" y2="949.841089" stroke="black" stroke-width="6.48"/>
<line x1="257.659344" y1="949.841089" x2="257.659344" y2="1375.374532" stroke="black" stroke-width="6.48"/>
<line x1="257.659344" y1="1375.374532" x2="323.258818" y2="1375.374532" stroke="black" stroke-width="6.48"/>
<line x1="258.522494" y1="1335.669588" x2="322.395667" y2="1335.669588" stroke="black" stroke-width="6.48"/>
<line x1="258.522494" y1="990.409187" x2="324.985122" y2="990.409187" stroke="black" stroke-width="6.48"/>
<line x1="288.73278" y1="1336.532738" x2="288.73278" y2="991.272337" stroke="black" stroke-width="6.48"/>
<line x1="3874.406537" y1="1514.726719" x2="3874.406537" y2="1940.260162" stroke="black" stroke-width="6.48"/>
<line x1="3874.406537" y1="1940.260162" x2="3940.00601" y2="1940.260162" stroke="black" stroke-width="6.48"/>
<line x1="3940.00601" y1="1940.260162" x2="3940.00601" y2="1514.726719" stroke="black" stroke-width="6.48"/>
<line x1="3940.00601" y1="1514.726719" x2="3874.406537" y2="1514.726719" stroke="black" stroke-width="6.48"/>
<line x1="3939.14286" y1="1554.431663" x2="3875.269687" y2="1554.431663" stroke="black" stroke-width="6.48"/>
<line x1="3939.14286" y1="1899.692064" x2="3872.680232" y2="1899.692064" stroke="black" stroke-width="6.48"/>
<line x1="3908.932574" y1="1553.568512" x2="3908.932574" y2="1898.828914" stroke="black" stroke-width="6.48"/>
<line x1="5152.60575" y1="2257.951511" x2="5025.617698" y2="2221.538274" stroke="black" stroke-width="6.48"/>
<line x1="5025.617698" y1="2221.538274" x2="5029.547184" y2="2207.834528" stroke="black" stroke-width="6.48"/>
<line x1="5156.535236" y1="2244.247765" x2="5029.547184" y2="2207.834528" stroke="black" stroke-width="6.48"/>
<line x1="5152.60575" y1="2257.951511" x2="5156.535236" y2="2244.247765" stroke="black" stroke-width="6.48"/>
<line x1="5143.745074" y1="2240.580244" x2="5154.21711" y2="2210.955934" stroke="black" stroke-width="6.48"/>
<line x1="5042.33735" y1="2211.502046" x2="5049.417017" y2="2179.916291" stroke="black" stroke-width="6.48"/>
<line x1="5279.659135" y1="1814.863702" x2="5152.671083" y2="1778.450461" stroke="black" stroke-width="6.48"/>
<line x1="5152.671083" y1="1778.450461" x2="5149.003561" y2="1791.240628" stroke="black" stroke-width="6.48"/>
<line x1="5275.991617" y1="1827.653864" x2="5149.003561" y2="1791.240628" stroke="black" stroke-width="6.48"/>
<line x1="5279.659135" y1="1814.863702" x2="5275.991617" y2="1827.653864" stroke="black" stroke-width="6.48"/>
<line x1="5263.591104" y1="1826.075477" x2="5256.773399" y2="1856.747653" stroke="black" stroke-width="6.48"/>
<line x1="5162.183377" y1="1796.99728" x2="5150.53579" y2="1827.273204" stroke="black" stroke-width="6.48"/>
<line x1="4913.801474" y1="2018.430284" x2="4927.50522" y2="2022.359774" stroke="black" stroke-width="6.48"/>
<line x1="4927.50522" y1="2022.359774" x2="4963.91846" y2="1895.371718" stroke="black" stroke-width="6.48"/>
<line x1="4950.214711" y1="1891.442232" x2="4963.91846" y2="1895.371718" stroke="black" stroke-width="6.48"/>
<line x1="4913.801474" y1="2018.430284" x2="4950.214711" y2="1891.442232" stroke="black" stroke-width="6.48"/>
<line x1="4959.988974" y1="1909.075468" x2="4991.836698" y2="1915.241551" stroke="black" stroke-width="6.48"/>
<line x1="4931.172745" y1="2009.569608" x2="4961.710634" y2="2020.303613" stroke="black" stroke-width="6.48"/>
<line x1="5355.71374" y1="2146.135288" x2="5342.009994" y2="2142.205805" stroke="black" stroke-width="6.48"/>
<line x1="5342.009994" y1="2142.205805" x2="5378.423231" y2="2015.217752" stroke="black" stroke-width="6.48"/>
<line x1="5392.126976" y1="2019.147235" x2="5378.423231" y2="2015.217752" stroke="black" stroke-width="6.48"/>
<line x1="5355.71374" y1="2146.135288" x2="5392.126976" y2="2019.147235" stroke="black" stroke-width="6.48"/>
<line x1="5374.493741" y1="2028.921498" x2="5344.217816" y2="2017.27391" stroke="black" stroke-width="6.48"/>
<line x1="5345.677512" y1="2129.415638" x2="5314.091756" y2="2122.335968" stroke="black" stroke-width="6.48"/>
<circle cx="5152.964227" cy="2018.788762" r="191.98080000000002" fill="none" stroke="black" stroke-width="6.48"/>
<line x1="3453.448295" y1="1075.468932" x2="3662.813498" y2="1075.468932" stroke="black" stroke-width="6.48"/>
<line x1="3662.813498" y1="1075.468932" x2="3662.813498" y2="744.254528" stroke="black" stroke-width="6.48"/>
<line x1="3662.813498" y1="744.254528" x2="3453.448295" y2="744.254528" stroke="black" stroke-width="6.48"/>
<line x1="3453.448295" y1="744.254528" x2="3453.448295" y2="1075.468932" stroke="black" stroke-width="6.48"/>
<line x1="3452.775095" y1="803.496128" x2="3663.486695" y2="803.496128" stroke="black" stroke-width="6.48"/>
<line x1="3663.486695" y1="803.496128" x2="3454.121495" y2="853.312932" stroke="black" stroke-width="6.48"/>
<line x1="3454.121495" y1="853.312932" x2="3485.761898" y2="899.763732" stroke="black" stroke-width="6.48"/>
<line x1="3485.761898" y1="899.763732" x2="3663.486695" y2="802.822932" stroke="black" stroke-width="6.48"/>
<line x1="3324.684024" y1="1203.479474" x2="3546.961189" y2="1203.479474" stroke="black" stroke-width="6.48"/>
<line x1="3546.961189" y1="1203.479474" x2="3546.961189" y2="1426.212126" stroke="black" stroke-width="6.48"/>
<line x1="3546.961189" y1="1426.212126" x2="3324.684024" y2="1426.212126" stroke="black" stroke-width="6.48"/>
<line x1="3324.684024" y1="1426.212126" x2="3324.684024" y2="1203.479474" stroke="black" stroke-width="6.48"/>
<line x1="3324.228538" y1="1203.023988" x2="3546.961189" y2="1426.212126" stroke="black" stroke-width="6.48"/>
<line x1="3324.684024" y1="1425.75664" x2="3546.505703" y2="1203.479474" stroke="black" stroke-width="6.48"/>
<line x1="2804.16708" y1="1127.69402" x2="2804.16708" y2="1153.148746" stroke="black" stroke-width="6.48"/>
<line x1="2804.16708" y1="1153.148746" x2="2853.834836" y2="1153.148746" stroke="black" stroke-width="6.48"/>
<line x1="2853.834836" y1="1153.148746" x2="2853.834836" y2="1127.69402" stroke="black" stroke-width="6.48"/>
<line x1="2853.834836" y1="1127.69402" x2="2804.16708" y2="1127.69402" stroke="black" stroke-width="6.48"/>
<line x1="2853.834836" y1="1402.108373" x2="3101.55277" y2="1402.108373" stroke="black" stroke-width="6.48"/>
<line x1="2802.925386" y1="1402.729218" x2="2802.925386" y2="1428.183943" stroke="black" stroke-width="6.48"/>
<line x1="2802.925386" y1="1428.183943" x2="2852.593142" y2="1428.183943" stroke="black" stroke-width="6.48"/>
<line x1="2852.593142" y1="1428.183943" x2="2852.593142" y2="1402.729218" stroke="black" stroke-width="6.48"/>
<line x1="2852.593142" y1="1402.729218" x2="2802.925386" y2="1402.729218" stroke="black" stroke-width="6.48"/>
<path d="m 2851.972294,1153.148746 a 248.95962699999984,248.95962699999984 0 0 1 248.95962699999973,248.95962699999995" fill="none" stroke="black" stroke-width="6.48"/>
<line x1="3413.719314" y1="1895.410692" x2="3453.98791" y2="1667.036138" stroke="black" stroke-width="6.48"/>
<line x1="3453.98791" y1="1667.036138" x2="3682.830445" y2="1707.38725" stroke="black" stroke-width="6.48"/>
<line x1="3682.830445" y1="1707.38725" x2="3642.56185" y2="1935.761807" stroke="black" stroke-width="6.48"/>
<line x1="3642.56185" y1="1935.761807" x2="3413.719314" y2="1895.410692" stroke="black" stroke-width="6.48"/>
<line x1="3413.168816" y1="1895.796155" x2="3682.830445" y2="1707.38725" stroke="black" stroke-width="6.48"/>
<line x1="3642.093868" y1="1935.679291" x2="3453.905394" y2="1667.504117" stroke="black" stroke-width="6.48"/>
<line x1="3002.693659" y1="1600.28357" x2="3004.31021" y2="1631.129238" stroke="black" stroke-width="6.48"/>
<line x1="3004.31021" y1="1631.129238" x2="3213.58621" y2="1620.16155" stroke="black" stroke-width="6.48"/>
<line x1="3213.58621" y1="1620.16155" x2="3211.969658" y2="1589.315882" stroke="black" stroke-width="6.48"/>
<line x1="3211.969658" y1="1589.315882" x2="3002.693659" y2="1600.28357" stroke="black" stroke-width="6.48"/>
<line x1="3013.362907" y1="1803.864985" x2="3014.979458" y2="1834.710656" stroke="black" stroke-width="6.48"/>
<line x1="3014.979458" y1="1834.710656" x2="3224.255461" y2="1823.742968" stroke="black" stroke-width="6.48"/>
<line x1="3224.255461" y1="1823.742968" x2="3222.63891" y2="1792.897294" stroke="black" stroke-width="6.48"/>
<line x1="3222.63891" y1="1792.897294" x2="3013.362907" y2="1803.864985" stroke="black" stroke-width="6.48"/>
<line x1="3004.285342" y1="1630.654693" x2="3013.362907" y2="1803.864985" stroke="black" stroke-width="6.48"/>
<line x1="3212.587372" y1="1619.262194" x2="3240.080276" y2="1644.46907" stroke="black" stroke-width="6.48"/>
<line x1="3246.422137" y1="1765.479002" x2="3221.714682" y2="1793.421587" stroke="black" stroke-width="6.48"/>
<line x1="3239.980798" y1="1642.570877" x2="3246.521616" y2="1767.3772" stroke="black" stroke-width="6.48"/>
<line x1="3048.917792" y1="1628.791459" x2="3057.995358" y2="1802.001751" stroke="black" stroke-width="6.48"/>
<line x1="2302.64671" y1="2044.396008" x2="2533.273945" y2="2068.635964" stroke="black" stroke-width="6.48"/>
<line x1="2533.273945" y1="2068.635964" x2="2508.984317" y2="2299.735796" stroke="black" stroke-width="6.48"/>
<line x1="2508.984317" y1="2299.735796" x2="2278.357081" y2="2275.495837" stroke="black" stroke-width="6.48"/>
<line x1="2278.357081" y1="2275.495837" x2="2302.64671" y2="2044.396008" stroke="black" stroke-width="6.48"/>
<line x1="2302.223785" y1="2043.873738" x2="2508.984317" y2="2299.735796" stroke="black" stroke-width="6.48"/>
<line x1="2278.406754" y1="2275.02324" x2="2532.801348" y2="2068.586291" stroke="black" stroke-width="6.48"/>
<line x1="967.715467" y1="1902.994297" x2="986.73201" y2="1927.334376" stroke="black" stroke-width="6.48"/>
<line x1="986.73201" y1="1927.334376" x2="1151.870101" y2="1798.31443" stroke="black" stroke-width="6.48"/>
<line x1="1151.870101" y1="1798.31443" x2="1132.853551" y2="1773.974347" stroke="black" stroke-width="6.48"/>
<line x1="1132.853551" y1="1773.974347" x2="967.715467" y2="1902.994297" stroke="black" stroke-width="6.48"/>
<line x1="1093.224668" y1="2063.638825" x2="1112.241215" y2="2087.978908" stroke="black" stroke-width="6.48"/>
<line x1="1112.241215" y1="2087.978908" x2="1277.379299" y2="1958.958961" stroke="black" stroke-width="6.48"/>
<line x1="1277.379299" y1="1958.958961" x2="1258.362752" y2="1934.618882" stroke="black" stroke-width="6.48"/>
<line x1="1258.362752" y1="1934.618882" x2="1093.224668" y2="2063.638825" stroke="black" stroke-width="6.48"/>
<line x1="986.439445" y1="1926.959911" x2="1093.224668" y2="2063.638825" stroke="black" stroke-width="6.48"/>
<line x1="1150.536049" y1="1798.150622" x2="1187.514986" y2="1803.02962" stroke="black" stroke-width="6.48"/>
<line x1="1262.118359" y1="1898.517629" x2="1257.906391" y2="1935.578466" stroke="black" stroke-width="6.48"/>
<line x1="1186.344738" y1="1801.531768" x2="1263.288607" y2="1900.015481" stroke="black" stroke-width="6.48"/>
<line x1="1021.931514" y1="1899.833526" x2="1128.71673" y2="2036.512444" stroke="black" stroke-width="6.48"/>
<line x1="6183.72783" y1="1753.039811" x2="5999.294016" y2="1799.024324" stroke="black" stroke-width="6.48"/>
<line x1="5999.294016" y1="1799.024324" x2="6111.496231" y2="2249.042828" stroke="black" stroke-width="6.48"/>
<line x1="6111.496231" y1="2249.042828" x2="6295.930045" y2="2203.058315" stroke="black" stroke-width="6.48"/>
<line x1="6295.930045" y1="2203.058315" x2="6290.181979" y2="2180.004084" stroke="black" stroke-width="6.48"/>
<line x1="6290.181979" y1="2180.004084" x2="6127.880227" y2="2220.470456" stroke="black" stroke-width="6.48"/>
<line x1="6127.880227" y1="2220.470456" x2="6027.404062" y2="1817.482579" stroke="black" stroke-width="6.48"/>
<line x1="6027.404062" y1="1817.482579" x2="6189.705817" y2="1777.016203" stroke="black" stroke-width="6.48"/>
<line x1="6189.705817" y1="1777.016203" x2="6183.72783" y2="1753.039811" stroke="black" stroke-width="6.48"/>
<line x1="6184.172801" y1="1778.395741" x2="6284.648963" y2="2181.383622" stroke="black" stroke-width="6.48"/>
<line x1="6235.21809" y1="1979.198672" x2="6078.449351" y2="2018.28551" stroke="black" stroke-width="6.48"/>
</g>
</svg>
