<?xml version="1.0"?>
<svg xmlns:xlink="http://www.w3.org/1999/xlink" width="6775.2" height="2858.4">
<image x="0" y="0" width="6775.2" height="2858.4" xlink:href="groundfilled-01.png"/>
<g style="stroke-linecap:round">
<line x1="1285.950406" y1="795.178109" x2="1311.346069" y2="795.178109" stroke="black" stroke-width="6.48"/>
<line x1="1311.346069" y1="795.178109" x2="1311.346069" y2="745.625592" stroke="black" stroke-width="6.48"/>
<line x1="1311.346069" y1="745.625592" x2="1285.950406" y2="745.625592" stroke="black" stroke-width="6.48"/>
<line x1="1285.950406" y1="745.625592" x2="1285.950406" y2="795.178109" stroke="black" stroke-width="6.48"/>
<line x1="1559.728062" y1="745.625592" x2="1559.728062" y2="498.48241" stroke="black" stroke-width="6.48"/>
<line x1="1560.347471" y1="796.416923" x2="1585.743134" y2="796.416923" stroke="black" stroke-width="6.48"/>
<line x1="1585.743134" y1="796.416923" x2="1585.743134" y2="746.864406" stroke="black" stroke-width="6.48"/>
<line x1="1585.743134" y1="746.864406" x2="1560.347471" y2="746.864406" stroke="black" stroke-width="6.48"/>
<line x1="1560.347471" y1="746.864406" x2="1560.347471" y2="796.416923" stroke="black" stroke-width="6.48"/>
<path d="m 1311.346069,747.483811 a 248.38199299999997,248.38199299999997 0 0 1 248.38199299999997,-248.38199299999997" fill="none" stroke="black" stroke-width="6.48"/>
<line x1="330.523178" y1="771.328966" x2="330.523178" y2="366.748985" stroke="black" stroke-width="6.48"/>
<line x1="330.523178" y1="366.748985" x2="258.15928" y2="366.748985" stroke="black" stroke-width="6.48"/>
<line x1="258.15928" y1="366.748985" x2="258.15928" y2="771.328966" stroke="black" stroke-width="6.48"/>
<line x1="258.15928" y1="771.328966" x2="330.523178" y2="771.328966" stroke="black" stroke-width="6.48"/>
<line x1="330.523178" y1="752.415674" x2="355.19269" y2="752.415674" stroke="black" stroke-width="6.48"/>
<line x1="355.19269" y1="752.415674" x2="355.19269" y2="386.484595" stroke="black" stroke-width="6.48"/>
<line x1="330.523178" y1="386.484595" x2="355.19269" y2="386.484595" stroke="black" stroke-width="6.48"/>
<line x1="3901.945176" y1="1169.331426" x2="3901.945176" y2="1428.837066" stroke="black" stroke-width="6.48"/>
<line x1="3901.945176" y1="1428.837066" x2="3941.9501" y2="1428.837066" stroke="black" stroke-width="6.48"/>
<line x1="3941.9501" y1="1428.837066" x2="3941.9501" y2="1169.331426" stroke="black" stroke-width="6.48"/>
<line x1="3941.9501" y1="1169.331426" x2="3901.945176" y2="1169.331426" stroke="black" stroke-width="6.48"/>
<line x1="3941.423719" y1="1193.544936" x2="3902.471557" y2="1193.544936" stroke="black" stroke-width="6.48"/>
<line x1="3941.423719" y1="1404.097178" x2="3900.892414" y2="1404.097178" stroke="black" stroke-width="6.48"/>
<line x1="3923.000399" y1="1193.018555" x2="3923.000399" y2="1403.570797" stroke="black" stroke-width="6.48"/>
<line x1="323.923298" y1="1882.957399" x2="323.923298" y2="1457.423957" stroke="black" stroke-width="6.48"/>
<line x1="323.923298" y1="1457.423957" x2="258.323825" y2="1457.423957" stroke="black" stroke-width="6.48"/>
<line x1="258.323825" y1="1457.423957" x2="258.323825" y2="1882.957399" stroke="black" stroke-width="6.48"/>
<line x1="258.323825" y1="1882.957399" x2="323.923298" y2="1882.957399" stroke="black" stroke-width="6.48"/>
<line x1="259.186975" y1="1843.252456" x2="323.060148" y2="1843.252456" stroke="black" stroke-width="6.48"/>
<line x1="259.186975" y1="1497.992054" x2="325.649603" y2="1497.992054" stroke="black" stroke-width="6.48"/>
<line x1="289.397261" y1="1844.115606" x2="289.397261" y2="1498.855205" stroke="black" stroke-width="6.48"/>
<line x1="2747.905531" y1="904.670665" x2="2721.68303" y2="904.670665" stroke="black" stroke-width="6.48"/>
<line x1="2721.68303" y1="904.670665" x2="2721.68303" y2="955.836522" stroke="black" stroke-width="6.48"/>
<line x1="2721.68303" y1="955.836522" x2="2747.905531" y2="955.836522" stroke="black" stroke-width="6.48"/>
<line x1="2747.905531" y1="955.836522" x2="2747.905531" y2="904.670665" stroke="black" stroke-width="6.48"/>
<line x1="2465.214181" y1="955.836522" x2="2465.214181" y2="1211.026223" stroke="black" stroke-width="6.48"/>
<line x1="2464.574609" y1="903.39152" x2="2438.352108" y2="903.39152" stroke="black" stroke-width="6.48"/>
<line x1="2438.352108" y1="903.39152" x2="2438.352108" y2="954.557374" stroke="black" stroke-width="6.48"/>
<line x1="2438.352108" y1="954.557374" x2="2464.574609" y2="954.557374" stroke="black" stroke-width="6.48"/>
<line x1="2464.574609" y1="954.557374" x2="2464.574609" y2="903.39152" stroke="black" stroke-width="6.48"/>
<path d="m 2721.68303,953.917801 a 256.4688490000001,256.4688490000001 0 0 1 -256.4688490000003,256.46884899999986" fill="none" stroke="black" stroke-width="6.48"/>
<line x1="2420.532389" y1="1427.858834" x2="2395.136725" y2="1427.858834" stroke="black" stroke-width="6.48"/>
<line x1="2395.136725" y1="1427.858834" x2="2395.136725" y2="1477.411351" stroke="black" stroke-width="6.48"/>
<line x1="2395.136725" y1="1477.411351" x2="2420.532389" y2="1477.411351" stroke="black" stroke-width="6.48"/>
<line x1="2420.532389" y1="1477.411351" x2="2420.532389" y2="1427.858834" stroke="black" stroke-width="6.48"/>
<line x1="2146.754732" y1="1477.411351" x2="2146.754732" y2="1724.554534" stroke="black" stroke-width="6.48"/>
<line x1="2146.135324" y1="1426.62002" x2="2120.73966" y2="1426.62002" stroke="black" stroke-width="6.48"/>
<line x1="2120.73966" y1="1426.62002" x2="2120.73966" y2="1476.172537" stroke="black" stroke-width="6.48"/>
<line x1="2120.73966" y1="1476.172537" x2="2146.135324" y2="1476.172537" stroke="black" stroke-width="6.48"/>
<line x1="2146.135324" y1="1476.172537" x2="2146.135324" y2="1426.62002" stroke="black" stroke-width="6.48"/>
<path d="m 2395.136725,1475.553132 a 248.38199299999997,248.38199299999997 0 0 1 -248.38199299999997,248.38199299999997" fill="none" stroke="black" stroke-width="6.48"/>
<line x1="902.136593" y1="541.339351" x2="1134.034193" y2="541.339351" stroke="black" stroke-width="6.48"/>
<line x1="1134.034193" y1="541.339351" x2="1134.034193" y2="773.712151" stroke="black" stroke-width="6.48"/>
<line x1="1134.034193" y1="773.712151" x2="902.136593" y2="773.712151" stroke="black" stroke-width="6.48"/>
<line x1="902.136593" y1="773.712151" x2="902.136593" y2="541.339351" stroke="black" stroke-width="6.48"/>
<line x1="901.661393" y1="540.864151" x2="1134.034193" y2="773.712151" stroke="black" stroke-width="6.48"/>
<line x1="902.136593" y1="773.236951" x2="1133.558993" y2="541.339351" stroke="black" stroke-width="6.48"/>
<line x1="1842.844367" y1="2042.710502" x2="2032.924367" y2="2042.710502" stroke="black" stroke-width="6.48"/>
<line x1="2032.924367" y1="2042.710502" x2="2032.924367" y2="1578.915302" stroke="black" stroke-width="6.48"/>
<line x1="2032.924367" y1="1578.915302" x2="1842.844367" y2="1578.915302" stroke="black" stroke-width="6.48"/>
<line x1="1842.844367" y1="1578.915302" x2="1842.844367" y2="1602.675302" stroke="black" stroke-width="6.48"/>
<line x1="1842.844367" y1="1602.675302" x2="2010.114767" y2="1602.675302" stroke="black" stroke-width="6.48"/>
<line x1="2010.114767" y1="1602.675302" x2="2010.114767" y2="2018.000102" stroke="black" stroke-width="6.48"/>
<line x1="2010.114767" y1="2018.000102" x2="1842.844367" y2="2018.000102" stroke="black" stroke-width="6.48"/>
<line x1="1842.844367" y1="2018.000102" x2="1842.844367" y2="2042.710502" stroke="black" stroke-width="6.48"/>
<line x1="1848.546767" y1="2018.000102" x2="1848.546767" y2="1602.675302" stroke="black" stroke-width="6.48"/>
<line x1="1847.596367" y1="1810.812902" x2="2009.164367" y2="1810.812902" stroke="black" stroke-width="6.48"/>
<line x1="1485.415969" y1="209.267824" x2="1707.693134" y2="209.267824" stroke="black" stroke-width="6.48"/>
<line x1="1707.693134" y1="209.267824" x2="1707.693134" y2="432.000475" stroke="black" stroke-width="6.48"/>
<line x1="1707.693134" y1="432.000475" x2="1485.415969" y2="432.000475" stroke="black" stroke-width="6.48"/>
<line x1="1485.415969" y1="432.000475" x2="1485.415969" y2="209.267824" stroke="black" stroke-width="6.48"/>
<line x1="1484.960483" y1="208.812337" x2="1707.693134" y2="432.000475" stroke="black" stroke-width="6.48"/>
<line x1="1485.415969" y1="431.544989" x2="1707.237648" y2="209.267824" stroke="black" stroke-width="6.48"/>
<line x1="2761.020558" y1="2194.614338" x2="2761.020558" y2="1803.366338" stroke="black" stroke-width="6.48"/>
<line x1="2761.020558" y1="1803.366338" x2="2586.780558" y2="1803.366338" stroke="black" stroke-width="6.48"/>
<line x1="2586.780558" y1="1803.366338" x2="2586.780558" y2="2194.614338" stroke="black" stroke-width="6.48"/>
<line x1="2586.780558" y1="2194.614338" x2="2761.020558" y2="2194.614338" stroke="black" stroke-width="6.48"/>
<line x1="2613.708558" y1="1878.606338" x2="2613.708558" y2="2162.934338" stroke="black" stroke-width="6.48"/>
<line x1="2613.708558" y1="2162.934338" x2="2731.716558" y2="2162.934338" stroke="black" stroke-width="6.48"/>
<line x1="2731.716558" y1="2162.934338" x2="2731.716558" y2="1873.062338" stroke="black" stroke-width="6.48"/>
<path d="m 2613.453134,1879.416911 a 63.3599990854681,63.3599990854681 0 0 1 119.3743300000001,-4.293814000000111" fill="none" stroke="black" stroke-width="6.48"/>
<line x1="2105.793428" y1="1904.612526" x2="2105.793428" y2="2088.356526" stroke="black" stroke-width="6.48"/>
<line x1="2105.793428" y1="2088.356526" x2="2056.689428" y2="2088.356526" stroke="black" stroke-width="6.48"/>
<line x1="2056.689428" y1="1904.612526" x2="2056.689428" y2="2088.356526" stroke="black" stroke-width="6.48"/>
<line x1="2105.793428" y1="1904.612526" x2="2056.689428" y2="1904.612526" stroke="black" stroke-width="6.48"/>
<line x1="2133.513428" y1="1946.192526" x2="2105.793428" y2="1946.192526" stroke="black" stroke-width="6.48"/>
<line x1="2105.793428" y1="2045.192526" x2="2135.097428" y2="2045.192526" stroke="black" stroke-width="6.48"/>
<circle cx="2178.657428" cy="1994.900526" r="66.52800000000002" fill="none" stroke="black" stroke-width="6.48"/>
<circle cx="2178.657428" cy="1994.900526" r="57.02400000000001" fill="none" stroke="black" stroke-width="6.48"/>
<line x1="938.020435" y1="211.199062" x2="1331.264308" y2="211.199062" stroke="black" stroke-width="6.48"/>
<line x1="1335.219714" y1="210.20278" x2="1335.219714" y2="346.271555" stroke="black" stroke-width="6.48"/>
<line x1="938.484824" y1="347.423062" x2="1335.525055" y2="347.423062" stroke="black" stroke-width="6.48"/>
<line x1="939.219714" y1="211.893811" x2="939.219714" y2="347.157868" stroke="black" stroke-width="6.48"/>
<line x1="949.515714" y1="222.287062" x2="1073.067714" y2="222.287062" stroke="black" stroke-width="6.48"/>
<line x1="1073.067714" y1="222.287062" x2="1073.067714" y2="336.335062" stroke="black" stroke-width="6.48"/>
<line x1="949.515714" y1="336.335062" x2="1073.067714" y2="336.335062" stroke="black" stroke-width="6.48"/>
<line x1="949.515714" y1="222.287062" x2="949.515714" y2="336.335062" stroke="black" stroke-width="6.48"/>
<line x1="1092.075714" y1="229.415062" x2="1179.195714" y2="229.415062" stroke="black" stroke-width="6.48"/>
<line x1="1092.075714" y1="249.215062" x2="1179.195714" y2="249.215062" stroke="black" stroke-width="6.48"/>
<line x1="1092.867714" y1="269.807062" x2="1179.195714" y2="269.807062" stroke="black" stroke-width="6.48"/>
<line x1="1092.867714" y1="289.607062" x2="1179.195714" y2="289.607062" stroke="black" stroke-width="6.48"/>
<line x1="1092.075714" y1="309.407062" x2="1179.195714" y2="309.407062" stroke="black" stroke-width="6.48"/>
<line x1="1092.075714" y1="329.207062" x2="1179.195714" y2="329.207062" stroke="black" stroke-width="6.48"/>
<line x1="997.035714" y1="335.543062" x2="997.035714" y2="322.079062" stroke="black" stroke-width="6.48"/>
<line x1="997.035714" y1="322.079062" x2="1027.131714" y2="322.079062" stroke="black" stroke-width="6.48"/>
<line x1="1027.131714" y1="322.079062" x2="1027.131714" y2="334.751062" stroke="black" stroke-width="6.48"/>
<line x1="1199.787714" y1="222.287062" x2="1323.339714" y2="222.287062" stroke="black" stroke-width="6.48"/>
<line x1="1323.339714" y1="222.287062" x2="1323.339714" y2="336.335062" stroke="black" stroke-width="6.48"/>
<line x1="1199.787714" y1="336.335062" x2="1323.339714" y2="336.335062" stroke="black" stroke-width="6.48"/>
<line x1="1199.787714" y1="222.287062" x2="1199.787714" y2="336.335062" stroke="black" stroke-width="6.48"/>
<line x1="1247.307714" y1="336.335062" x2="1247.307714" y2="322.871062" stroke="black" stroke-width="6.48"/>
<line x1="1247.307714" y1="322.871062" x2="1277.403714" y2="322.871062" stroke="black" stroke-width="6.48"/>
<line x1="1277.403714" y1="322.871062" x2="1277.403714" y2="335.543062" stroke="black" stroke-width="6.48"/>
<circle cx="1058.811714" cy="236.543062" r="7.128000000000001" fill="none" stroke="black" stroke-width="6.48"/>
<circle cx="1309.083714" cy="237.335062" r="7.128000000000001" fill="none" stroke="black" stroke-width="6.48"/>
<line x1="2044.889399" y1="955.822399" x2="2267.166564" y2="955.822399" stroke="black" stroke-width="6.48"/>
<line x1="2267.166564" y1="955.822399" x2="2267.166564" y2="1178.555051" stroke="black" stroke-width="6.48"/>
<line x1="2267.166564" y1="1178.555051" x2="2044.889399" y2="1178.555051" stroke="black" stroke-width="6.48"/>
<line x1="2044.889399" y1="1178.555051" x2="2044.889399" y2="955.822399" stroke="black" stroke-width="6.48"/>
<line x1="2044.433912" y1="955.366913" x2="2267.166564" y2="1178.555051" stroke="black" stroke-width="6.48"/>
<line x1="2044.889399" y1="1178.099564" x2="2266.711078" y2="955.822399" stroke="black" stroke-width="6.48"/>
<line x1="323.258818" y1="1375.374532" x2="323.258818" y2="949.841089" stroke="black" stroke-width="6.48"/>
<line x1="323.258818" y1="949.841089" x2="257.659344" y2="949.841089" stroke="black" stroke-width="6.48"/>
<line x1="257.659344" y1="949.841089" x2="257.659344" y2="1375.374532" stroke="black" stroke-width="6.48"/>
<line x1="257.659344" y1="1375.374532" x2="323.258818" y2="1375.374532" stroke="black" stroke-width="6.48"/>
<line x1="258.522494" y1="1335.669588" x2="322.395667" y2="1335.669588" stroke="black" stroke-width="6.48"/>
<line x1="258.522494" y1="990.409187" x2="324.985122" y2="990.409187" stroke="black" stroke-width="6.48"/>
<line x1="288.73278" y1="1336.532738" x2="288.73278" y2="991.272337" stroke="black" stroke-width="6.48"/>
<line x1="3874.406537" y1="1514.726719" x2="3874.406537" y2="1940.260162" stroke="black" stroke-width="6.48"/>
<line x1="3874.406537" y1="1940.260162" x2="3940.00601" y2="1940.260162" stroke="black" stroke-width="6.48"/>
<line x1="3940.00601" y1="1940.260162" x2="3940.00601" y2="1514.726719" stroke="black" stroke-width="6.48"/>
<line x1="3940.00601" y1="1514.726719" x2="3874.406537" y2="1514.726719" stroke="black" stroke-width="6.48"/>
<line x1="3939.14286" y1="1554.431663" x2="3875.269687" y2="1554.431663" stroke="black" stroke-width="6.48"/>
<line x1="3939.14286" y1="1899.692064" x2="3872.680232" y2="1899.692064" stroke="black" stroke-width="6.48"/>
<line x1="3908.932574" y1="1553.568512" x2="3908.932574" y2="1898.828914" stroke="black" stroke-width="6.48"/>
<line x1="4916.728811" y1="1745.515937" x2="5063.88627" y2="2109.74342" stroke="black" stroke-width="6.48"/>
<line x1="5063.88627" y1="2109.74342" x2="5234.985068" y2="2040.615022" stroke="black" stroke-width="6.48"/>
<line x1="5234.985068" y1="2040.615022" x2="5087.827613" y2="1676.387531" stroke="black" stroke-width="6.48"/>
<line x1="5087.827613" y1="1676.387531" x2="4916.728811" y2="1745.515937" stroke="black" stroke-width="6.48"/>
<line x1="5147.461984" y1="1823.987783" x2="5222.363602" y2="1793.725567" stroke="black" stroke-width="6.48"/>
<line x1="5222.363602" y1="1793.725567" x2="5192.99145" y2="1721.02693" stroke="black" stroke-width="6.48"/>
<line x1="5192.99145" y1="1721.02693" x2="5118.089828" y2="1751.289152" stroke="black" stroke-width="6.48"/>
<line x1="5177.132888" y1="1728.288407" x2="5206.208357" y2="1800.252709" stroke="black" stroke-width="6.48"/>
<line x1="4871.35508" y1="1850.976461" x2="4900.727236" y2="1923.675091" stroke="black" stroke-width="6.48"/>
<line x1="4900.727236" y1="1923.675091" x2="4976.363185" y2="1893.116189" stroke="black" stroke-width="6.48"/>
<line x1="4946.991034" y1="1820.417555" x2="4871.35508" y2="1850.976461" stroke="black" stroke-width="6.48"/>
<line x1="4887.807023" y1="1845.183647" x2="4916.882488" y2="1917.147946" stroke="black" stroke-width="6.48"/>
<line x1="5204.129476" y1="1964.24474" x2="5279.031094" y2="1933.982521" stroke="black" stroke-width="6.48"/>
<line x1="5279.031094" y1="1933.982521" x2="5249.658942" y2="1861.283891" stroke="black" stroke-width="6.48"/>
<line x1="5249.658942" y1="1861.283891" x2="5174.75732" y2="1891.546106" stroke="black" stroke-width="6.48"/>
<line x1="5233.50369" y1="1867.811036" x2="5262.875842" y2="1940.509667" stroke="black" stroke-width="6.48"/>
<line x1="4928.022569" y1="1991.233418" x2="4957.394724" y2="2063.932052" stroke="black" stroke-width="6.48"/>
<line x1="4957.394724" y1="2063.932052" x2="5033.030674" y2="2033.373143" stroke="black" stroke-width="6.48"/>
<line x1="5003.658522" y1="1960.674512" x2="4928.022569" y2="1991.233418" stroke="black" stroke-width="6.48"/>
<line x1="4944.177821" y1="1984.706273" x2="4973.549976" y2="2057.404907" stroke="black" stroke-width="6.48"/>
<line x1="3408.795904" y1="1075.321562" x2="3618.161107" y2="1075.321562" stroke="black" stroke-width="6.48"/>
<line x1="3618.161107" y1="1075.321562" x2="3618.161107" y2="744.107159" stroke="black" stroke-width="6.48"/>
<line x1="3618.161107" y1="744.107159" x2="3408.795904" y2="744.107159" stroke="black" stroke-width="6.48"/>
<line x1="3408.795904" y1="744.107159" x2="3408.795904" y2="1075.321562" stroke="black" stroke-width="6.48"/>
<line x1="3408.122704" y1="803.348759" x2="3618.834304" y2="803.348759" stroke="black" stroke-width="6.48"/>
<line x1="3618.834304" y1="803.348759" x2="3409.469104" y2="853.165562" stroke="black" stroke-width="6.48"/>
<line x1="3409.469104" y1="853.165562" x2="3441.109507" y2="899.616362" stroke="black" stroke-width="6.48"/>
<line x1="3441.109507" y1="899.616362" x2="3618.834304" y2="802.675562" stroke="black" stroke-width="6.48"/>
<line x1="3460.357472" y1="1202.93019" x2="3682.634638" y2="1202.93019" stroke="black" stroke-width="6.48"/>
<line x1="3682.634638" y1="1202.93019" x2="3682.634638" y2="1425.662842" stroke="black" stroke-width="6.48"/>
<line x1="3682.634638" y1="1425.662842" x2="3460.357472" y2="1425.662842" stroke="black" stroke-width="6.48"/>
<line x1="3460.357472" y1="1425.662842" x2="3460.357472" y2="1202.93019" stroke="black" stroke-width="6.48"/>
<line x1="3459.901986" y1="1202.474704" x2="3682.634638" y2="1425.662842" stroke="black" stroke-width="6.48"/>
<line x1="3460.357472" y1="1425.207355" x2="3682.179151" y2="1202.93019" stroke="black" stroke-width="6.48"/>
<line x1="2804.16708" y1="1127.69402" x2="2804.16708" y2="1153.148746" stroke="black" stroke-width="6.48"/>
<line x1="2804.16708" y1="1153.148746" x2="2853.834836" y2="1153.148746" stroke="black" stroke-width="6.48"/>
<line x1="2853.834836" y1="1153.148746" x2="2853.834836" y2="1127.69402" stroke="black" stroke-width="6.48"/>
<line x1="2853.834836" y1="1127.69402" x2="2804.16708" y2="1127.69402" stroke="black" stroke-width="6.48"/>
<line x1="2853.834836" y1="1402.108373" x2="3101.55277" y2="1402.108373" stroke="black" stroke-width="6.48"/>
<line x1="2802.925386" y1="1402.729218" x2="2802.925386" y2="1428.183943" stroke="black" stroke-width="6.48"/>
<line x1="2802.925386" y1="1428.183943" x2="2852.593142" y2="1428.183943" stroke="black" stroke-width="6.48"/>
<line x1="2852.593142" y1="1428.183943" x2="2852.593142" y2="1402.729218" stroke="black" stroke-width="6.48"/>
<line x1="2852.593142" y1="1402.729218" x2="2802.925386" y2="1402.729218" stroke="black" stroke-width="6.48"/>
<path d="m 2851.972294,1153.148746 a 248.95962699999984,248.95962699999984 0 0 1 248.95962699999973,248.95962699999995" fill="none" stroke="black" stroke-width="6.48"/>
<line x1="3500.169127" y1="1644.699143" x2="3704.922554" y2="1753.568467" stroke="black" stroke-width="6.48"/>
<line x1="3704.922554" y1="1753.568467" x2="3595.830131" y2="1958.741474" stroke="black" stroke-width="6.48"/>
<line x1="3595.830131" y1="1958.741474" x2="3391.076704" y2="1849.872143" stroke="black" stroke-width="6.48"/>
<line x1="3391.076704" y1="1849.872143" x2="3500.169127" y2="1644.699143" stroke="black" stroke-width="6.48"/>
<line x1="3499.972643" y1="1644.056471" x2="3595.830131" y2="1958.741474" stroke="black" stroke-width="6.48"/>
<line x1="3391.299799" y1="1849.45257" x2="3704.502978" y2="1753.345379" stroke="black" stroke-width="6.48"/>
<line x1="3042.664542" y1="1589.315882" x2="3035.716254" y2="1619.412228" stroke="black" stroke-width="6.48"/>
<line x1="3035.716254" y1="1619.412228" x2="3239.908362" y2="1666.553692" stroke="black" stroke-width="6.48"/>
<line x1="3239.908362" y1="1666.553692" x2="3246.85665" y2="1636.457346" stroke="black" stroke-width="6.48"/>
<line x1="3246.85665" y1="1636.457346" x2="3042.664542" y2="1589.315882" stroke="black" stroke-width="6.48"/>
<line x1="2996.805841" y1="1787.951743" x2="2989.857553" y2="1818.048089" stroke="black" stroke-width="6.48"/>
<line x1="2989.857553" y1="1818.048089" x2="3194.049658" y2="1865.189552" stroke="black" stroke-width="6.48"/>
<line x1="3194.049658" y1="1865.189552" x2="3200.997949" y2="1835.09321" stroke="black" stroke-width="6.48"/>
<line x1="3200.997949" y1="1835.09321" x2="2996.805841" y2="1787.951743" stroke="black" stroke-width="6.48"/>
<line x1="3035.823149" y1="1618.949207" x2="2996.805841" y2="1787.951743" stroke="black" stroke-width="6.48"/>
<line x1="3239.196113" y1="1665.413852" x2="3258.67603" y2="1697.222333" stroke="black" stroke-width="6.48"/>
<line x1="3231.417362" y1="1815.292598" x2="3199.965012" y2="1835.342435" stroke="black" stroke-width="6.48"/>
<line x1="3259.10362" y1="1695.370252" x2="3230.989776" y2="1817.144683" stroke="black" stroke-width="6.48"/>
<line x1="3079.240193" y1="1629.460523" x2="3040.222885" y2="1798.463063" stroke="black" stroke-width="6.48"/>
<line x1="2976.354965" y1="2031.024362" x2="2905.14982" y2="2207.2635" stroke="black" stroke-width="6.48"/>
<line x1="2905.14982" y1="2207.2635" x2="3335.173315" y2="2381.00405" stroke="black" stroke-width="6.48"/>
<line x1="3335.173315" y1="2381.00405" x2="3406.37846" y2="2204.764913" stroke="black" stroke-width="6.48"/>
<line x1="3406.37846" y1="2204.764913" x2="3384.34857" y2="2195.864269" stroke="black" stroke-width="6.48"/>
<line x1="3384.34857" y1="2195.864269" x2="3321.688043" y2="2350.954714" stroke="black" stroke-width="6.48"/>
<line x1="3321.688043" y1="2350.954714" x2="2936.605525" y2="2195.371472" stroke="black" stroke-width="6.48"/>
<line x1="2936.605525" y1="2195.371472" x2="2999.266052" y2="2040.281032" stroke="black" stroke-width="6.48"/>
<line x1="2999.266052" y1="2040.281032" x2="2976.354965" y2="2031.024362" stroke="black" stroke-width="6.48"/>
<line x1="2997.129899" y1="2045.568204" x2="3382.212416" y2="2201.151445" stroke="black" stroke-width="6.48"/>
<line x1="3189.586583" y1="2122.300616" x2="3129.062213" y2="2272.103885" stroke="black" stroke-width="6.48"/>
<line x1="1050.933474" y1="1557.08658" x2="928.447294" y2="1507.59895" stroke="black" stroke-width="6.48"/>
<line x1="928.447294" y1="1507.59895" x2="933.787685" y2="1494.381017" stroke="black" stroke-width="6.48"/>
<line x1="1056.273865" y1="1543.868647" x2="933.787685" y2="1494.381017" stroke="black" stroke-width="6.48"/>
<line x1="1050.933474" y1="1557.08658" x2="1056.273865" y2="1543.868647" stroke="black" stroke-width="6.48"/>
<line x1="1043.937126" y1="1538.884282" x2="1057.44838" y2="1510.516883" stroke="black" stroke-width="6.48"/>
<line x1="946.12442" y1="1499.365386" x2="956.466922" y2="1468.692684" stroke="black" stroke-width="6.48"/>
<line x1="1223.606131" y1="1129.706748" x2="1101.119954" y2="1080.219118" stroke="black" stroke-width="6.48"/>
<line x1="1101.119954" y1="1080.219118" x2="1096.135589" y2="1092.555853" stroke="black" stroke-width="6.48"/>
<line x1="1218.621769" y1="1142.043484" x2="1096.135589" y2="1092.555853" stroke="black" stroke-width="6.48"/>
<line x1="1223.606131" y1="1129.706748" x2="1218.621769" y2="1142.043484" stroke="black" stroke-width="6.48"/>
<line x1="1206.454172" y1="1139.177534" x2="1196.4677" y2="1168.969039" stroke="black" stroke-width="6.48"/>
<line x1="1108.64147" y1="1099.658635" x2="1093.892994" y2="1128.551209" stroke="black" stroke-width="6.48"/>
<line x1="838.474178" y1="1293.915636" x2="851.692111" y2="1299.256027" stroke="black" stroke-width="6.48"/>
<line x1="851.692111" y1="1299.256027" x2="901.179742" y2="1176.769847" stroke="black" stroke-width="6.48"/>
<line x1="887.961809" y1="1171.429456" x2="901.179742" y2="1176.769847" stroke="black" stroke-width="6.48"/>
<line x1="838.474178" y1="1293.915636" x2="887.961809" y2="1171.429456" stroke="black" stroke-width="6.48"/>
<line x1="895.839347" y1="1189.98778" x2="926.868074" y2="1199.44908" stroke="black" stroke-width="6.48"/>
<line x1="856.676477" y1="1286.919292" x2="885.925073" y2="1300.786571" stroke="black" stroke-width="6.48"/>
<line x1="1264.616791" y1="1467.113468" x2="1251.398858" y2="1461.773074" stroke="black" stroke-width="6.48"/>
<line x1="1251.398858" y1="1461.773074" x2="1300.886485" y2="1339.286893" stroke="black" stroke-width="6.48"/>
<line x1="1314.104422" y1="1344.627284" x2="1300.886485" y2="1339.286893" stroke="black" stroke-width="6.48"/>
<line x1="1264.616791" y1="1467.113468" x2="1314.104422" y2="1344.627284" stroke="black" stroke-width="6.48"/>
<line x1="1295.546094" y1="1352.504826" x2="1266.653527" y2="1337.756353" stroke="black" stroke-width="6.48"/>
<line x1="1256.383224" y1="1449.436338" x2="1225.710526" y2="1439.093837" stroke="black" stroke-width="6.48"/>
<circle cx="1076.289296" cy="1319.271462" r="191.98080000000002" fill="none" stroke="black" stroke-width="6.48"/>
<line x1="1380.444329" y1="2055.737902" x2="1565.058053" y2="2153.898817" stroke="black" stroke-width="6.48"/>
<line x1="1565.058053" y1="2153.898817" x2="1673.927431" y2="1949.145415" stroke="black" stroke-width="6.48"/>
<line x1="1673.927431" y1="1949.145415" x2="1489.313714" y2="1850.9845" stroke="black" stroke-width="6.48"/>
<line x1="1489.313714" y1="1850.9845" x2="1380.444329" y2="2055.737902" stroke="black" stroke-width="6.48"/>
<line x1="1395.614653" y1="2027.206685" x2="1580.228377" y2="2125.3676" stroke="black" stroke-width="6.48"/>
<line x1="5784.897766" y1="1675.62153" x2="5856.41007" y2="1872.099979" stroke="black" stroke-width="6.48"/>
<line x1="5856.41007" y1="1872.099979" x2="6074.322534" y2="1792.786327" stroke="black" stroke-width="6.48"/>
<line x1="6074.322534" y1="1792.786327" x2="6002.81023" y2="1596.307878" stroke="black" stroke-width="6.48"/>
<line x1="6002.81023" y1="1596.307878" x2="5784.897766" y2="1675.62153" stroke="black" stroke-width="6.48"/>
<line x1="5815.262617" y1="1664.569627" x2="5886.774925" y2="1861.04808" stroke="black" stroke-width="6.48"/>
<line x1="6186.052649" y1="2119.054385" x2="6215.152075" y2="2326.107557" stroke="black" stroke-width="6.48"/>
<line x1="6215.152075" y1="2326.107557" x2="6444.792864" y2="2293.833647" stroke="black" stroke-width="6.48"/>
<line x1="6444.792864" y1="2293.833647" x2="6415.693441" y2="2086.780478" stroke="black" stroke-width="6.48"/>
<line x1="6415.693441" y1="2086.780478" x2="6186.052649" y2="2119.054385" stroke="black" stroke-width="6.48"/>
<line x1="6218.051778" y1="2114.557204" x2="6247.151204" y2="2321.610376" stroke="black" stroke-width="6.48"/>
</g>
</svg>
