<?xml version="1.0"?>
<svg xmlns:xlink="http://www.w3.org/1999/xlink" width="6775.2" height="2858.4">
<image x="0" y="0" width="6775.2" height="2858.4" xlink:href="groundfilled-01.png"/>
<g style="stroke-linecap:round">
<line x1="1285.950406" y1="795.178109" x2="1311.346069" y2="795.178109" stroke="black" stroke-width="6.48"/>
<line x1="1311.346069" y1="795.178109" x2="1311.346069" y2="745.625592" stroke="black" stroke-width="6.48"/>
<line x1="1311.346069" y1="745.625592" x2="1285.950406" y2="745.625592" stroke="black" stroke-width="6.48"/>
<line x1="1285.950406" y1="745.625592" x2="1285.950406" y2="795.178109" stroke="black" stroke-width="6.48"/>
<line x1="1559.728062" y1="745.625592" x2="1559.728062" y2="498.48241" stroke="black" stroke-width="6.48"/>
<line x1="1560.347471" y1="796.416923" x2="1585.743134" y2="796.416923" stroke="black" stroke-width="6.48"/>
<line x1="1585.743134" y1="796.416923" x2="1585.743134" y2="746.864406" stroke="black" stroke-width="6.48"/>
<line x1="1585.743134" y1="746.864406" x2="1560.347471" y2="746.864406" stroke="black" stroke-width="6.48"/>
<line x1="1560.347471" y1="746.864406" x2="1560.347471" y2="796.416923" stroke="black" stroke-width="6.48"/>
<path d="m 1311.346069,747.483811 a 248.38199299999997,248.38199299999997 0 0 1 248.38199299999997,-248.38199299999997" fill="none" stroke="black" stroke-width="6.48"/>
<line x1="330.523178" y1="771.328966" x2="330.523178" y2="366.748985" stroke="black" stroke-width="6.48"/>
<line x1="330.523178" y1="366.748985" x2="258.15928" y2="366.748985" stroke="black" stroke-width="6.48"/>
<line x1="258.15928" y1="366.748985" x2="258.15928" y2="771.328966" stroke="black" stroke-width="6.48"/>
<line x1="258.15928" y1="771.328966" x2="330.523178" y2="771.328966" stroke="black" stroke-width="6.48"/>
<line x1="330.523178" y1="752.415674" x2="355.19269" y2="752.415674" stroke="black" stroke-width="6.48"/>
<line x1="355.19269" y1="752.415674" x2="355.19269" y2="386.484595" stroke="black" stroke-width="6.48"/>
<line x1="330.523178" y1="386.484595" x2="355.19269" y2="386.484595" stroke="black" stroke-width="6.48"/>
<line x1="3901.945176" y1="1169.331426" x2="3901.945176" y2="1428.837066" stroke="black" stroke-width="6.48"/>
<line x1="3901.945176" y1="1428.837066" x2="3941.9501" y2="1428.837066" stroke="black" stroke-width="6.48"/>
<line x1="3941.9501" y1="1428.837066" x2="3941.9501" y2="1169.331426" stroke="black" stroke-width="6.48"/>
<line x1="3941.9501" y1="1169.331426" x2="3901.945176" y2="1169.331426" stroke="black" stroke-width="6.48"/>
<line x1="3941.423719" y1="1193.544936" x2="3902.471557" y2="1193.544936" stroke="black" stroke-width="6.48"/>
<line x1="3941.423719" y1="1404.097178" x2="3900.892414" y2="1404.097178" stroke="black" stroke-width="6.48"/>
<line x1="3923.000399" y1="1193.018555" x2="3923.000399" y2="1403.570797" stroke="black" stroke-width="6.48"/>
<line x1="323.923298" y1="1882.957399" x2="323.923298" y2="1457.423957" stroke="black" stroke-width="6.48"/>
<line x1="323.923298" y1="1457.423957" x2="258.323825" y2="1457.423957" stroke="black" stroke-width="6.48"/>
<line x1="258.323825" y1="1457.423957" x2="258.323825" y2="1882.957399" stroke="black" stroke-width="6.48"/>
<line x1="258.323825" y1="1882.957399" x2="323.923298" y2="1882.957399" stroke="black" stroke-width="6.48"/>
<line x1="259.186975" y1="1843.252456" x2="323.060148" y2="1843.252456" stroke="black" stroke-width="6.48"/>
<line x1="259.186975" y1="1497.992054" x2="325.649603" y2="1497.992054" stroke="black" stroke-width="6.48"/>
<line x1="289.397261" y1="1844.115606" x2="289.397261" y2="1498.855205" stroke="black" stroke-width="6.48"/>
<line x1="2747.905531" y1="904.670665" x2="2721.68303" y2="904.670665" stroke="black" stroke-width="6.48"/>
<line x1="2721.68303" y1="904.670665" x2="2721.68303" y2="955.836522" stroke="black" stroke-width="6.48"/>
<line x1="2721.68303" y1="955.836522" x2="2747.905531" y2="955.836522" stroke="black" stroke-width="6.48"/>
<line x1="2747.905531" y1="955.836522" x2="2747.905531" y2="904.670665" stroke="black" stroke-width="6.48"/>
<line x1="2465.214181" y1="955.836522" x2="2465.214181" y2="1211.026223" stroke="black" stroke-width="6.48"/>
<line x1="2464.574609" y1="903.39152" x2="2438.352108" y2="903.39152" stroke="black" stroke-width="6.48"/>
<line x1="2438.352108" y1="903.39152" x2="2438.352108" y2="954.557374" stroke="black" stroke-width="6.48"/>
<line x1="2438.352108" y1="954.557374" x2="2464.574609" y2="954.557374" stroke="black" stroke-width="6.48"/>
<line x1="2464.574609" y1="954.557374" x2="2464.574609" y2="903.39152" stroke="black" stroke-width="6.48"/>
<path d="m 2721.68303,953.917801 a 256.4688490000001,256.4688490000001 0 0 1 -256.4688490000003,256.46884899999986" fill="none" stroke="black" stroke-width="6.48"/>
<line x1="2420.532389" y1="1427.858834" x2="2395.136725" y2="1427.858834" stroke="black" stroke-width="6.48"/>
<line x1="2395.136725" y1="1427.858834" x2="2395.136725" y2="1477.411351" stroke="black" stroke-width="6.48"/>
<line x1="2395.136725" y1="1477.411351" x2="2420.532389" y2="1477.411351" stroke="black" stroke-width="6.48"/>
<line x1="2420.532389" y1="1477.411351" x2="2420.532389" y2="1427.858834" stroke="black" stroke-width="6.48"/>
<line x1="2146.754732" y1="1477.411351" x2="2146.754732" y2="1724.554534" stroke="black" stroke-width="6.48"/>
<line x1="2146.135324" y1="1426.62002" x2="2120.73966" y2="1426.62002" stroke="black" stroke-width="6.48"/>
<line x1="2120.73966" y1="1426.62002" x2="2120.73966" y2="1476.172537" stroke="black" stroke-width="6.48"/>
<line x1="2120.73966" y1="1476.172537" x2="2146.135324" y2="1476.172537" stroke="black" stroke-width="6.48"/>
<line x1="2146.135324" y1="1476.172537" x2="2146.135324" y2="1426.62002" stroke="black" stroke-width="6.48"/>
<path d="m 2395.136725,1475.553132 a 248.38199299999997,248.38199299999997 0 0 1 -248.38199299999997,248.38199299999997" fill="none" stroke="black" stroke-width="6.48"/>
<line x1="784.247422" y1="692.136151" x2="1177.079422" y2="692.136151" stroke="black" stroke-width="6.48"/>
<line x1="1177.079422" y1="692.136151" x2="1177.079422" y2="507.600151" stroke="black" stroke-width="6.48"/>
<line x1="1177.079422" y1="507.600151" x2="784.247422" y2="507.600151" stroke="black" stroke-width="6.48"/>
<line x1="784.247422" y1="507.600151" x2="784.247422" y2="692.136151" stroke="black" stroke-width="6.48"/>
<line x1="943.439422" y1="507.600151" x2="943.439422" y2="426.816151" stroke="black" stroke-width="6.48"/>
<line x1="943.439422" y1="426.816151" x2="865.031422" y2="426.816151" stroke="black" stroke-width="6.48"/>
<line x1="865.031422" y1="426.816151" x2="865.031422" y2="507.600151" stroke="black" stroke-width="6.48"/>
<line x1="865.823422" y1="444.240151" x2="943.439422" y2="444.240151" stroke="black" stroke-width="6.48"/>
<line x1="865.031422" y1="773.712151" x2="943.439422" y2="773.712151" stroke="black" stroke-width="6.48"/>
<line x1="943.439422" y1="773.712151" x2="943.439422" y2="692.136151" stroke="black" stroke-width="6.48"/>
<line x1="865.031422" y1="692.136151" x2="865.031422" y2="773.712151" stroke="black" stroke-width="6.48"/>
<line x1="865.823422" y1="756.288151" x2="943.439422" y2="756.288151" stroke="black" stroke-width="6.48"/>
<line x1="1094.711422" y1="507.600151" x2="1094.711422" y2="426.816151" stroke="black" stroke-width="6.48"/>
<line x1="1094.711422" y1="426.816151" x2="1016.303422" y2="426.816151" stroke="black" stroke-width="6.48"/>
<line x1="1016.303422" y1="426.816151" x2="1016.303422" y2="507.600151" stroke="black" stroke-width="6.48"/>
<line x1="1016.303422" y1="444.240151" x2="1094.711422" y2="444.240151" stroke="black" stroke-width="6.48"/>
<line x1="1016.303422" y1="773.712151" x2="1094.711422" y2="773.712151" stroke="black" stroke-width="6.48"/>
<line x1="1094.711422" y1="773.712151" x2="1094.711422" y2="692.136151" stroke="black" stroke-width="6.48"/>
<line x1="1016.303422" y1="692.136151" x2="1016.303422" y2="773.712151" stroke="black" stroke-width="6.48"/>
<line x1="1016.303422" y1="756.288151" x2="1094.711422" y2="756.288151" stroke="black" stroke-width="6.48"/>
<line x1="2032.924367" y1="1925.320648" x2="2032.924367" y2="1716.232648" stroke="black" stroke-width="6.48"/>
<line x1="2032.924367" y1="1716.232648" x2="1801.026767" y2="1716.232648" stroke="black" stroke-width="6.48"/>
<line x1="1801.026767" y1="1716.232648" x2="1801.026767" y2="1925.320648" stroke="black" stroke-width="6.48"/>
<line x1="1801.026767" y1="1925.320648" x2="2032.924367" y2="1925.320648" stroke="black" stroke-width="6.48"/>
<line x1="2000.610767" y1="1925.320648" x2="2000.610767" y2="1716.232648" stroke="black" stroke-width="6.48"/>
<line x1="1485.415969" y1="209.267824" x2="1707.693134" y2="209.267824" stroke="black" stroke-width="6.48"/>
<line x1="1707.693134" y1="209.267824" x2="1707.693134" y2="432.000475" stroke="black" stroke-width="6.48"/>
<line x1="1707.693134" y1="432.000475" x2="1485.415969" y2="432.000475" stroke="black" stroke-width="6.48"/>
<line x1="1485.415969" y1="432.000475" x2="1485.415969" y2="209.267824" stroke="black" stroke-width="6.48"/>
<line x1="1484.960483" y1="208.812337" x2="1707.693134" y2="432.000475" stroke="black" stroke-width="6.48"/>
<line x1="1485.415969" y1="431.544989" x2="1707.237648" y2="209.267824" stroke="black" stroke-width="6.48"/>
<line x1="2761.020558" y1="2194.614338" x2="2761.020558" y2="1803.366338" stroke="black" stroke-width="6.48"/>
<line x1="2761.020558" y1="1803.366338" x2="2586.780558" y2="1803.366338" stroke="black" stroke-width="6.48"/>
<line x1="2586.780558" y1="1803.366338" x2="2586.780558" y2="2194.614338" stroke="black" stroke-width="6.48"/>
<line x1="2586.780558" y1="2194.614338" x2="2761.020558" y2="2194.614338" stroke="black" stroke-width="6.48"/>
<line x1="2613.708558" y1="1878.606338" x2="2613.708558" y2="2162.934338" stroke="black" stroke-width="6.48"/>
<line x1="2613.708558" y1="2162.934338" x2="2731.716558" y2="2162.934338" stroke="black" stroke-width="6.48"/>
<line x1="2731.716558" y1="2162.934338" x2="2731.716558" y2="1873.062338" stroke="black" stroke-width="6.48"/>
<path d="m 2613.453134,1879.416911 a 63.3599990854681,63.3599990854681 0 0 1 119.3743300000001,-4.293814000000111" fill="none" stroke="black" stroke-width="6.48"/>
<line x1="2081.190809" y1="1898.23433" x2="2056.638809" y2="1916.84633" stroke="black" stroke-width="6.48"/>
<line x1="2056.638809" y1="1916.84633" x2="2056.638809" y2="2064.15833" stroke="black" stroke-width="6.48"/>
<line x1="2056.638809" y1="2064.15833" x2="2084.754809" y2="2083.16633" stroke="black" stroke-width="6.48"/>
<line x1="2083.962809" y1="1920.01433" x2="2083.962809" y2="2062.97033" stroke="black" stroke-width="6.48"/>
<circle cx="2105.742809" cy="1989.31433" r="13.068000000000003" fill="none" stroke="black" stroke-width="6.48"/>
<path d="m 2083.295462,1921.567583 a 74.8440004285373,74.8440004285373 0 1 1 0.40204799999992247,139.6090039999999" fill="none" stroke="black" stroke-width="6.48"/>
<path d="m 2080.533445,1898.280634 a 95.43599883751716,95.43599883751716 0 1 1 3.0749580000001515,184.466995" fill="none" stroke="black" stroke-width="6.48"/>
<line x1="962.75398" y1="210.104946" x2="1233.30118" y2="210.104946" stroke="black" stroke-width="6.48"/>
<line x1="1233.30118" y1="210.104946" x2="1233.30118" y2="342.052146" stroke="black" stroke-width="6.48"/>
<line x1="962.75398" y1="342.052146" x2="1233.30118" y2="342.052146" stroke="black" stroke-width="6.48"/>
<line x1="962.75398" y1="210.104946" x2="962.75398" y2="342.052146" stroke="black" stroke-width="6.48"/>
<line x1="969.40678" y1="216.757746" x2="1107.45238" y2="216.757746" stroke="black" stroke-width="6.48"/>
<line x1="1107.45238" y1="216.757746" x2="1107.45238" y2="334.844946" stroke="black" stroke-width="6.48"/>
<line x1="969.40678" y1="334.844946" x2="1107.45238" y2="334.844946" stroke="black" stroke-width="6.48"/>
<line x1="969.40678" y1="216.757746" x2="969.40678" y2="334.844946" stroke="black" stroke-width="6.48"/>
<line x1="1121.86678" y1="224.519346" x2="1218.88678" y2="224.519346" stroke="black" stroke-width="6.48"/>
<line x1="1121.86678" y1="245.032146" x2="1218.88678" y2="245.032146" stroke="black" stroke-width="6.48"/>
<line x1="1122.42118" y1="266.099346" x2="1219.44118" y2="266.099346" stroke="black" stroke-width="6.48"/>
<line x1="1122.42118" y1="286.612146" x2="1219.44118" y2="286.612146" stroke="black" stroke-width="6.48"/>
<line x1="1121.86678" y1="307.124946" x2="1218.88678" y2="307.124946" stroke="black" stroke-width="6.48"/>
<line x1="1121.86678" y1="327.637746" x2="1218.88678" y2="327.637746" stroke="black" stroke-width="6.48"/>
<line x1="1022.07478" y1="334.844946" x2="1022.07478" y2="320.984946" stroke="black" stroke-width="6.48"/>
<line x1="1022.07478" y1="320.984946" x2="1056.44758" y2="320.984946" stroke="black" stroke-width="6.48"/>
<line x1="1056.44758" y1="320.984946" x2="1056.44758" y2="334.290546" stroke="black" stroke-width="6.48"/>
<circle cx="1091.92918" cy="231.726546" r="8.316000000000003" fill="none" stroke="black" stroke-width="6.48"/>
<line x1="2044.889399" y1="955.822399" x2="2267.166564" y2="955.822399" stroke="black" stroke-width="6.48"/>
<line x1="2267.166564" y1="955.822399" x2="2267.166564" y2="1178.555051" stroke="black" stroke-width="6.48"/>
<line x1="2267.166564" y1="1178.555051" x2="2044.889399" y2="1178.555051" stroke="black" stroke-width="6.48"/>
<line x1="2044.889399" y1="1178.555051" x2="2044.889399" y2="955.822399" stroke="black" stroke-width="6.48"/>
<line x1="2044.433912" y1="955.366913" x2="2267.166564" y2="1178.555051" stroke="black" stroke-width="6.48"/>
<line x1="2044.889399" y1="1178.099564" x2="2266.711078" y2="955.822399" stroke="black" stroke-width="6.48"/>
<line x1="333.766206" y1="1375.361078" x2="333.766206" y2="949.854546" stroke="black" stroke-width="6.48"/>
<line x1="333.766206" y1="949.854546" x2="257.659348" y2="949.854546" stroke="black" stroke-width="6.48"/>
<line x1="257.659348" y1="949.854546" x2="257.659348" y2="1375.361078" stroke="black" stroke-width="6.48"/>
<line x1="257.659348" y1="1375.361078" x2="333.766206" y2="1375.361078" stroke="black" stroke-width="6.48"/>
<line x1="333.766206" y1="1355.469512" x2="359.711726" y2="1355.469512" stroke="black" stroke-width="6.48"/>
<line x1="359.711726" y1="1355.469512" x2="359.711726" y2="970.610962" stroke="black" stroke-width="6.48"/>
<line x1="333.766206" y1="970.610962" x2="359.711726" y2="970.610962" stroke="black" stroke-width="6.48"/>
<line x1="3874.406537" y1="1514.726719" x2="3874.406537" y2="1940.260162" stroke="black" stroke-width="6.48"/>
<line x1="3874.406537" y1="1940.260162" x2="3940.00601" y2="1940.260162" stroke="black" stroke-width="6.48"/>
<line x1="3940.00601" y1="1940.260162" x2="3940.00601" y2="1514.726719" stroke="black" stroke-width="6.48"/>
<line x1="3940.00601" y1="1514.726719" x2="3874.406537" y2="1514.726719" stroke="black" stroke-width="6.48"/>
<line x1="3939.14286" y1="1554.431663" x2="3875.269687" y2="1554.431663" stroke="black" stroke-width="6.48"/>
<line x1="3939.14286" y1="1899.692064" x2="3872.680232" y2="1899.692064" stroke="black" stroke-width="6.48"/>
<line x1="3908.932574" y1="1553.568512" x2="3908.932574" y2="1898.828914" stroke="black" stroke-width="6.48"/>
<line x1="4599.381953" y1="1535.384455" x2="4992.213953" y2="1535.384455" stroke="black" stroke-width="6.48"/>
<line x1="4992.213953" y1="1535.384455" x2="4992.213953" y2="1350.848455" stroke="black" stroke-width="6.48"/>
<line x1="4992.213953" y1="1350.848455" x2="4599.381953" y2="1350.848455" stroke="black" stroke-width="6.48"/>
<line x1="4599.381953" y1="1350.848455" x2="4599.381953" y2="1535.384455" stroke="black" stroke-width="6.48"/>
<line x1="4758.573953" y1="1350.848455" x2="4758.573953" y2="1270.064455" stroke="black" stroke-width="6.48"/>
<line x1="4758.573953" y1="1270.064455" x2="4680.165953" y2="1270.064455" stroke="black" stroke-width="6.48"/>
<line x1="4680.165953" y1="1270.064455" x2="4680.165953" y2="1350.848455" stroke="black" stroke-width="6.48"/>
<line x1="4680.957953" y1="1287.488455" x2="4758.573953" y2="1287.488455" stroke="black" stroke-width="6.48"/>
<line x1="4680.165953" y1="1616.960455" x2="4758.573953" y2="1616.960455" stroke="black" stroke-width="6.48"/>
<line x1="4758.573953" y1="1616.960455" x2="4758.573953" y2="1535.384455" stroke="black" stroke-width="6.48"/>
<line x1="4680.165953" y1="1535.384455" x2="4680.165953" y2="1616.960455" stroke="black" stroke-width="6.48"/>
<line x1="4680.957953" y1="1599.536455" x2="4758.573953" y2="1599.536455" stroke="black" stroke-width="6.48"/>
<line x1="4909.845953" y1="1350.848455" x2="4909.845953" y2="1270.064455" stroke="black" stroke-width="6.48"/>
<line x1="4909.845953" y1="1270.064455" x2="4831.437953" y2="1270.064455" stroke="black" stroke-width="6.48"/>
<line x1="4831.437953" y1="1270.064455" x2="4831.437953" y2="1350.848455" stroke="black" stroke-width="6.48"/>
<line x1="4831.437953" y1="1287.488455" x2="4909.845953" y2="1287.488455" stroke="black" stroke-width="6.48"/>
<line x1="4831.437953" y1="1616.960455" x2="4909.845953" y2="1616.960455" stroke="black" stroke-width="6.48"/>
<line x1="4909.845953" y1="1616.960455" x2="4909.845953" y2="1535.384455" stroke="black" stroke-width="6.48"/>
<line x1="4831.437953" y1="1535.384455" x2="4831.437953" y2="1616.960455" stroke="black" stroke-width="6.48"/>
<line x1="4831.437953" y1="1599.536455" x2="4909.845953" y2="1599.536455" stroke="black" stroke-width="6.48"/>
<line x1="3451.557431" y1="1075.46269" x2="3660.922634" y2="1075.46269" stroke="black" stroke-width="6.48"/>
<line x1="3660.922634" y1="1075.46269" x2="3660.922634" y2="744.248286" stroke="black" stroke-width="6.48"/>
<line x1="3660.922634" y1="744.248286" x2="3451.557431" y2="744.248286" stroke="black" stroke-width="6.48"/>
<line x1="3451.557431" y1="744.248286" x2="3451.557431" y2="1075.46269" stroke="black" stroke-width="6.48"/>
<line x1="3450.884231" y1="803.489886" x2="3661.595831" y2="803.489886" stroke="black" stroke-width="6.48"/>
<line x1="3661.595831" y1="803.489886" x2="3452.230631" y2="853.30669" stroke="black" stroke-width="6.48"/>
<line x1="3452.230631" y1="853.30669" x2="3483.871034" y2="899.75749" stroke="black" stroke-width="6.48"/>
<line x1="3483.871034" y1="899.75749" x2="3661.595831" y2="802.81669" stroke="black" stroke-width="6.48"/>
<line x1="3231.411242" y1="1203.857096" x2="3453.688408" y2="1203.857096" stroke="black" stroke-width="6.48"/>
<line x1="3453.688408" y1="1203.857096" x2="3453.688408" y2="1426.589748" stroke="black" stroke-width="6.48"/>
<line x1="3453.688408" y1="1426.589748" x2="3231.411242" y2="1426.589748" stroke="black" stroke-width="6.48"/>
<line x1="3231.411242" y1="1426.589748" x2="3231.411242" y2="1203.857096" stroke="black" stroke-width="6.48"/>
<line x1="3230.955756" y1="1203.40161" x2="3453.688408" y2="1426.589748" stroke="black" stroke-width="6.48"/>
<line x1="3231.411242" y1="1426.134262" x2="3453.232921" y2="1203.857096" stroke="black" stroke-width="6.48"/>
<line x1="2804.16708" y1="1127.69402" x2="2804.16708" y2="1153.148746" stroke="black" stroke-width="6.48"/>
<line x1="2804.16708" y1="1153.148746" x2="2853.834836" y2="1153.148746" stroke="black" stroke-width="6.48"/>
<line x1="2853.834836" y1="1153.148746" x2="2853.834836" y2="1127.69402" stroke="black" stroke-width="6.48"/>
<line x1="2853.834836" y1="1127.69402" x2="2804.16708" y2="1127.69402" stroke="black" stroke-width="6.48"/>
<line x1="2853.834836" y1="1402.108373" x2="3101.55277" y2="1402.108373" stroke="black" stroke-width="6.48"/>
<line x1="2802.925386" y1="1402.729218" x2="2802.925386" y2="1428.183943" stroke="black" stroke-width="6.48"/>
<line x1="2802.925386" y1="1428.183943" x2="2852.593142" y2="1428.183943" stroke="black" stroke-width="6.48"/>
<line x1="2852.593142" y1="1428.183943" x2="2852.593142" y2="1402.729218" stroke="black" stroke-width="6.48"/>
<line x1="2852.593142" y1="1402.729218" x2="2802.925386" y2="1402.729218" stroke="black" stroke-width="6.48"/>
<path d="m 2851.972294,1153.148746 a 248.95962699999984,248.95962699999984 0 0 1 248.95962699999973,248.95962699999995" fill="none" stroke="black" stroke-width="6.48"/>
<line x1="3424.482119" y1="1693.583777" x2="3655.814828" y2="1677.407418" stroke="black" stroke-width="6.48"/>
<line x1="3655.814828" y1="1677.407418" x2="3672.024336" y2="1909.214172" stroke="black" stroke-width="6.48"/>
<line x1="3672.024336" y1="1909.214172" x2="3440.691626" y2="1925.390527" stroke="black" stroke-width="6.48"/>
<line x1="3440.691626" y1="1925.390527" x2="3424.482119" y2="1693.583777" stroke="black" stroke-width="6.48"/>
<line x1="3423.974929" y1="1693.142885" x2="3672.024336" y2="1909.214172" stroke="black" stroke-width="6.48"/>
<line x1="3440.658474" y1="1924.916486" x2="3655.340784" y2="1677.440567" stroke="black" stroke-width="6.48"/>
<line x1="3054.501112" y1="1589.315882" x2="3045.470335" y2="1618.854221" stroke="black" stroke-width="6.48"/>
<line x1="3045.470335" y1="1618.854221" x2="3245.876618" y2="1680.124576" stroke="black" stroke-width="6.48"/>
<line x1="3245.876618" y1="1680.124576" x2="3254.907395" y2="1650.586234" stroke="black" stroke-width="6.48"/>
<line x1="3254.907395" y1="1650.586234" x2="3054.501112" y2="1589.315882" stroke="black" stroke-width="6.48"/>
<line x1="2994.897982" y1="1784.268936" x2="2985.867205" y2="1813.807274" stroke="black" stroke-width="6.48"/>
<line x1="2985.867205" y1="1813.807274" x2="3186.273488" y2="1875.077629" stroke="black" stroke-width="6.48"/>
<line x1="3186.273488" y1="1875.077629" x2="3195.304268" y2="1845.539287" stroke="black" stroke-width="6.48"/>
<line x1="3195.304268" y1="1845.539287" x2="2994.897982" y2="1784.268936" stroke="black" stroke-width="6.48"/>
<line x1="3045.60927" y1="1618.399789" x2="2994.897982" y2="1784.268936" stroke="black" stroke-width="6.48"/>
<line x1="3245.245618" y1="1678.937832" x2="3262.459234" y2="1712.027675" stroke="black" stroke-width="6.48"/>
<line x1="3227.030802" y1="1827.90886" x2="3194.25646" y2="1845.715849" stroke="black" stroke-width="6.48"/>
<line x1="3263.014976" y1="1710.209934" x2="3226.475063" y2="1829.726608" stroke="black" stroke-width="6.48"/>
<line x1="3088.187323" y1="1631.914117" x2="3037.476031" y2="1797.783268" stroke="black" stroke-width="6.48"/>
<line x1="2306.033564" y1="2279.852726" x2="2336.752357" y2="2283.081408" stroke="black" stroke-width="6.48"/>
<line x1="2336.752357" y1="2283.081408" x2="2358.657727" y2="2074.666223" stroke="black" stroke-width="6.48"/>
<line x1="2358.657727" y1="2074.666223" x2="2327.938934" y2="2071.437541" stroke="black" stroke-width="6.48"/>
<line x1="2327.938934" y1="2071.437541" x2="2306.033564" y2="2279.852726" stroke="black" stroke-width="6.48"/>
<line x1="2508.77759" y1="2301.162034" x2="2539.49638" y2="2304.390715" stroke="black" stroke-width="6.48"/>
<line x1="2539.49638" y1="2304.390715" x2="2561.40175" y2="2095.97553" stroke="black" stroke-width="6.48"/>
<line x1="2561.40175" y1="2095.97553" x2="2530.68296" y2="2092.746848" stroke="black" stroke-width="6.48"/>
<line x1="2530.68296" y1="2092.746848" x2="2508.77759" y2="2301.162034" stroke="black" stroke-width="6.48"/>
<line x1="2336.27976" y1="2283.031735" x2="2508.77759" y2="2301.162034" stroke="black" stroke-width="6.48"/>
<line x1="2357.613191" y1="2075.512072" x2="2386.810573" y2="2052.300884" stroke="black" stroke-width="6.48"/>
<line x1="2507.322755" y1="2064.967254" x2="2531.056212" y2="2093.741712" stroke="black" stroke-width="6.48"/>
<line x1="2384.920184" y1="2052.102197" x2="2509.21314" y2="2065.165942" stroke="black" stroke-width="6.48"/>
<line x1="2341.421528" y1="2238.657311" x2="2513.919359" y2="2256.787606" stroke="black" stroke-width="6.48"/>
<line x1="6189.342718" y1="2072.393741" x2="6174.757472" y2="2280.972413" stroke="black" stroke-width="6.48"/>
<line x1="6174.757472" y1="2280.972413" x2="6406.090186" y2="2297.148772" stroke="black" stroke-width="6.48"/>
<line x1="6406.090186" y1="2297.148772" x2="6420.675427" y2="2088.5701" stroke="black" stroke-width="6.48"/>
<line x1="6420.675427" y1="2088.5701" x2="6189.342718" y2="2072.393741" stroke="black" stroke-width="6.48"/>
<line x1="6221.577604" y1="2074.647823" x2="6206.992362" y2="2283.226499" stroke="black" stroke-width="6.48"/>
<line x1="6079.996073" y1="1531.498309" x2="5897.279448" y2="1479.105162" stroke="black" stroke-width="6.48"/>
<line x1="5897.279448" y1="1479.105162" x2="5769.440165" y2="1924.933723" stroke="black" stroke-width="6.48"/>
<line x1="5769.440165" y1="1924.933723" x2="5952.15679" y2="1977.32687" stroke="black" stroke-width="6.48"/>
<line x1="5952.15679" y1="1977.32687" x2="5958.705935" y2="1954.487293" stroke="black" stroke-width="6.48"/>
<line x1="5958.705935" y1="1954.487293" x2="5797.915304" y2="1908.381323" stroke="black" stroke-width="6.48"/>
<line x1="5797.915304" y1="1908.381323" x2="5912.394336" y2="1509.145499" stroke="black" stroke-width="6.48"/>
<line x1="5912.394336" y1="1509.145499" x2="6073.184963" y2="1555.251469" stroke="black" stroke-width="6.48"/>
<line x1="6073.184963" y1="1555.251469" x2="6079.996073" y2="1531.498309" stroke="black" stroke-width="6.48"/>
<line x1="6067.703466" y1="1553.679677" x2="5953.224434" y2="1952.915497" stroke="black" stroke-width="6.48"/>
<line x1="6011.508514" y1="1753.10276" x2="5856.199384" y2="1708.568586" stroke="black" stroke-width="6.48"/>
<line x1="1144.6744" y1="1678.178779" x2="1022.493294" y2="1823.78848" stroke="black" stroke-width="6.48"/>
<line x1="1022.493294" y1="1823.78848" x2="1377.780959" y2="2121.910376" stroke="black" stroke-width="6.48"/>
<line x1="1377.780959" y1="2121.910376" x2="1499.962064" y2="1976.300676" stroke="black" stroke-width="6.48"/>
<line x1="1499.962064" y1="1976.300676" x2="1481.760853" y2="1961.02804" stroke="black" stroke-width="6.48"/>
<line x1="1481.760853" y1="1961.02804" x2="1374.241478" y2="2089.164571" stroke="black" stroke-width="6.48"/>
<line x1="1374.241478" y1="2089.164571" x2="1056.084293" y2="1822.19886" stroke="black" stroke-width="6.48"/>
<line x1="1056.084293" y1="1822.19886" x2="1163.603664" y2="1694.062325" stroke="black" stroke-width="6.48"/>
<line x1="1163.603664" y1="1694.062325" x2="1144.6744" y2="1678.178779" stroke="black" stroke-width="6.48"/>
<line x1="1159.938227" y1="1698.430615" x2="1478.09542" y2="1965.39633" stroke="black" stroke-width="6.48"/>
<line x1="1319.263704" y1="1830.879972" x2="1215.409766" y2="1954.648213" stroke="black" stroke-width="6.48"/>
<line x1="1110.876376" y1="1142.541004" x2="733.262022" y2="1034.261831" stroke="black" stroke-width="6.48"/>
<line x1="733.262022" y1="1034.261831" x2="682.397006" y2="1211.649217" stroke="black" stroke-width="6.48"/>
<line x1="682.397006" y1="1211.649217" x2="1060.01136" y2="1319.92839" stroke="black" stroke-width="6.48"/>
<line x1="1060.01136" y1="1319.92839" x2="1110.876376" y2="1142.541004" stroke="black" stroke-width="6.48"/>
<line x1="906.986189" y1="1276.049131" x2="884.719102" y2="1353.703694" stroke="black" stroke-width="6.48"/>
<line x1="884.719102" y1="1353.703694" x2="960.08971" y2="1375.31587" stroke="black" stroke-width="6.48"/>
<line x1="960.08971" y1="1375.31587" x2="982.356797" y2="1297.661303" stroke="black" stroke-width="6.48"/>
<line x1="964.131095" y1="1358.34854" x2="889.521804" y2="1336.954673" stroke="black" stroke-width="6.48"/>
<line x1="1055.707204" y1="1041.858029" x2="980.336596" y2="1020.245857" stroke="black" stroke-width="6.48"/>
<line x1="980.336596" y1="1020.245857" x2="957.851204" y2="1098.661741" stroke="black" stroke-width="6.48"/>
<line x1="1033.221809" y1="1120.273913" x2="1055.707204" y2="1041.858029" stroke="black" stroke-width="6.48"/>
<line x1="1050.14318" y1="1058.38875" x2="975.533893" y2="1036.994879" stroke="black" stroke-width="6.48"/>
<line x1="761.574208" y1="1234.352916" x2="739.30712" y2="1312.007479" stroke="black" stroke-width="6.48"/>
<line x1="739.30712" y1="1312.007479" x2="814.677728" y2="1333.619654" stroke="black" stroke-width="6.48"/>
<line x1="814.677728" y1="1333.619654" x2="836.944819" y2="1255.965088" stroke="black" stroke-width="6.48"/>
<line x1="819.480434" y1="1316.870633" x2="744.10983" y2="1295.258458" stroke="black" stroke-width="6.48"/>
<line x1="910.295226" y1="1000.161814" x2="834.924622" y2="978.549646" stroke="black" stroke-width="6.48"/>
<line x1="834.924622" y1="978.549646" x2="812.439227" y2="1056.96553" stroke="black" stroke-width="6.48"/>
<line x1="887.809835" y1="1078.577701" x2="910.295226" y2="1000.161814" stroke="black" stroke-width="6.48"/>
<line x1="905.49252" y1="1016.910842" x2="830.121912" y2="995.298667" stroke="black" stroke-width="6.48"/>
</g>
</svg>
