<?xml version="1.0"?>
<svg xmlns:xlink="http://www.w3.org/1999/xlink" width="6775.2" height="2858.4">
<image x="0" y="0" width="6775.2" height="2858.4" xlink:href="groundfilled-01.png"/>
<g style="stroke-linecap:round">
<line x1="1285.950406" y1="795.178109" x2="1311.346069" y2="795.178109" stroke="black" stroke-width="6.48"/>
<line x1="1311.346069" y1="795.178109" x2="1311.346069" y2="745.625592" stroke="black" stroke-width="6.48"/>
<line x1="1311.346069" y1="745.625592" x2="1285.950406" y2="745.625592" stroke="black" stroke-width="6.48"/>
<line x1="1285.950406" y1="745.625592" x2="1285.950406" y2="795.178109" stroke="black" stroke-width="6.48"/>
<line x1="1559.728062" y1="745.625592" x2="1559.728062" y2="498.48241" stroke="black" stroke-width="6.48"/>
<line x1="1560.347471" y1="796.416923" x2="1585.743134" y2="796.416923" stroke="black" stroke-width="6.48"/>
<line x1="1585.743134" y1="796.416923" x2="1585.743134" y2="746.864406" stroke="black" stroke-width="6.48"/>
<line x1="1585.743134" y1="746.864406" x2="1560.347471" y2="746.864406" stroke="black" stroke-width="6.48"/>
<line x1="1560.347471" y1="746.864406" x2="1560.347471" y2="796.416923" stroke="black" stroke-width="6.48"/>
<path d="m 1311.346069,747.483811 a 248.38199299999997,248.38199299999997 0 0 1 248.38199299999997,-248.38199299999997" fill="none" stroke="black" stroke-width="6.48"/>
<line x1="320.532556" y1="771.34176" x2="320.532556" y2="366.736194" stroke="black" stroke-width="6.48"/>
<line x1="320.532556" y1="366.736194" x2="258.159283" y2="366.736194" stroke="black" stroke-width="6.48"/>
<line x1="258.159283" y1="366.736194" x2="258.159283" y2="771.34176" stroke="black" stroke-width="6.48"/>
<line x1="258.159283" y1="771.34176" x2="320.532556" y2="771.34176" stroke="black" stroke-width="6.48"/>
<line x1="258.979986" y1="733.589518" x2="319.711856" y2="733.589518" stroke="black" stroke-width="6.48"/>
<line x1="258.979986" y1="405.309139" x2="322.173958" y2="405.309139" stroke="black" stroke-width="6.48"/>
<line x1="287.704519" y1="734.410217" x2="287.704519" y2="406.129838" stroke="black" stroke-width="6.48"/>
<line x1="3901.945176" y1="1169.331426" x2="3901.945176" y2="1428.837066" stroke="black" stroke-width="6.48"/>
<line x1="3901.945176" y1="1428.837066" x2="3941.9501" y2="1428.837066" stroke="black" stroke-width="6.48"/>
<line x1="3941.9501" y1="1428.837066" x2="3941.9501" y2="1169.331426" stroke="black" stroke-width="6.48"/>
<line x1="3941.9501" y1="1169.331426" x2="3901.945176" y2="1169.331426" stroke="black" stroke-width="6.48"/>
<line x1="3941.423719" y1="1193.544936" x2="3902.471557" y2="1193.544936" stroke="black" stroke-width="6.48"/>
<line x1="3941.423719" y1="1404.097178" x2="3900.892414" y2="1404.097178" stroke="black" stroke-width="6.48"/>
<line x1="3923.000399" y1="1193.018555" x2="3923.000399" y2="1403.570797" stroke="black" stroke-width="6.48"/>
<line x1="334.430687" y1="1882.943946" x2="334.430687" y2="1457.437414" stroke="black" stroke-width="6.48"/>
<line x1="334.430687" y1="1457.437414" x2="258.323828" y2="1457.437414" stroke="black" stroke-width="6.48"/>
<line x1="258.323828" y1="1457.437414" x2="258.323828" y2="1882.943946" stroke="black" stroke-width="6.48"/>
<line x1="258.323828" y1="1882.943946" x2="334.430687" y2="1882.943946" stroke="black" stroke-width="6.48"/>
<line x1="334.430687" y1="1863.05238" x2="360.376207" y2="1863.05238" stroke="black" stroke-width="6.48"/>
<line x1="360.376207" y1="1863.05238" x2="360.376207" y2="1478.193829" stroke="black" stroke-width="6.48"/>
<line x1="334.430687" y1="1478.193829" x2="360.376207" y2="1478.193829" stroke="black" stroke-width="6.48"/>
<line x1="2747.905531" y1="904.670665" x2="2721.68303" y2="904.670665" stroke="black" stroke-width="6.48"/>
<line x1="2721.68303" y1="904.670665" x2="2721.68303" y2="955.836522" stroke="black" stroke-width="6.48"/>
<line x1="2721.68303" y1="955.836522" x2="2747.905531" y2="955.836522" stroke="black" stroke-width="6.48"/>
<line x1="2747.905531" y1="955.836522" x2="2747.905531" y2="904.670665" stroke="black" stroke-width="6.48"/>
<line x1="2465.214181" y1="955.836522" x2="2465.214181" y2="1211.026223" stroke="black" stroke-width="6.48"/>
<line x1="2464.574609" y1="903.39152" x2="2438.352108" y2="903.39152" stroke="black" stroke-width="6.48"/>
<line x1="2438.352108" y1="903.39152" x2="2438.352108" y2="954.557374" stroke="black" stroke-width="6.48"/>
<line x1="2438.352108" y1="954.557374" x2="2464.574609" y2="954.557374" stroke="black" stroke-width="6.48"/>
<line x1="2464.574609" y1="954.557374" x2="2464.574609" y2="903.39152" stroke="black" stroke-width="6.48"/>
<path d="m 2721.68303,953.917801 a 256.4688490000001,256.4688490000001 0 0 1 -256.4688490000003,256.46884899999986" fill="none" stroke="black" stroke-width="6.48"/>
<line x1="2420.532389" y1="1427.858834" x2="2395.136725" y2="1427.858834" stroke="black" stroke-width="6.48"/>
<line x1="2395.136725" y1="1427.858834" x2="2395.136725" y2="1477.411351" stroke="black" stroke-width="6.48"/>
<line x1="2395.136725" y1="1477.411351" x2="2420.532389" y2="1477.411351" stroke="black" stroke-width="6.48"/>
<line x1="2420.532389" y1="1477.411351" x2="2420.532389" y2="1427.858834" stroke="black" stroke-width="6.48"/>
<line x1="2146.754732" y1="1477.411351" x2="2146.754732" y2="1724.554534" stroke="black" stroke-width="6.48"/>
<line x1="2146.135324" y1="1426.62002" x2="2120.73966" y2="1426.62002" stroke="black" stroke-width="6.48"/>
<line x1="2120.73966" y1="1426.62002" x2="2120.73966" y2="1476.172537" stroke="black" stroke-width="6.48"/>
<line x1="2120.73966" y1="1476.172537" x2="2146.135324" y2="1476.172537" stroke="black" stroke-width="6.48"/>
<line x1="2146.135324" y1="1476.172537" x2="2146.135324" y2="1426.62002" stroke="black" stroke-width="6.48"/>
<path d="m 2395.136725,1475.553132 a 248.38199299999997,248.38199299999997 0 0 1 -248.38199299999997,248.38199299999997" fill="none" stroke="black" stroke-width="6.48"/>
<line x1="666.754268" y1="692.136151" x2="1059.586268" y2="692.136151" stroke="black" stroke-width="6.48"/>
<line x1="1059.586268" y1="692.136151" x2="1059.586268" y2="507.600151" stroke="black" stroke-width="6.48"/>
<line x1="1059.586268" y1="507.600151" x2="666.754268" y2="507.600151" stroke="black" stroke-width="6.48"/>
<line x1="666.754268" y1="507.600151" x2="666.754268" y2="692.136151" stroke="black" stroke-width="6.48"/>
<line x1="825.946268" y1="507.600151" x2="825.946268" y2="426.816151" stroke="black" stroke-width="6.48"/>
<line x1="825.946268" y1="426.816151" x2="747.538268" y2="426.816151" stroke="black" stroke-width="6.48"/>
<line x1="747.538268" y1="426.816151" x2="747.538268" y2="507.600151" stroke="black" stroke-width="6.48"/>
<line x1="748.330268" y1="444.240151" x2="825.946268" y2="444.240151" stroke="black" stroke-width="6.48"/>
<line x1="747.538268" y1="773.712151" x2="825.946268" y2="773.712151" stroke="black" stroke-width="6.48"/>
<line x1="825.946268" y1="773.712151" x2="825.946268" y2="692.136151" stroke="black" stroke-width="6.48"/>
<line x1="747.538268" y1="692.136151" x2="747.538268" y2="773.712151" stroke="black" stroke-width="6.48"/>
<line x1="748.330268" y1="756.288151" x2="825.946268" y2="756.288151" stroke="black" stroke-width="6.48"/>
<line x1="977.218268" y1="507.600151" x2="977.218268" y2="426.816151" stroke="black" stroke-width="6.48"/>
<line x1="977.218268" y1="426.816151" x2="898.810268" y2="426.816151" stroke="black" stroke-width="6.48"/>
<line x1="898.810268" y1="426.816151" x2="898.810268" y2="507.600151" stroke="black" stroke-width="6.48"/>
<line x1="898.810268" y1="444.240151" x2="977.218268" y2="444.240151" stroke="black" stroke-width="6.48"/>
<line x1="898.810268" y1="773.712151" x2="977.218268" y2="773.712151" stroke="black" stroke-width="6.48"/>
<line x1="977.218268" y1="773.712151" x2="977.218268" y2="692.136151" stroke="black" stroke-width="6.48"/>
<line x1="898.810268" y1="692.136151" x2="898.810268" y2="773.712151" stroke="black" stroke-width="6.48"/>
<line x1="898.810268" y1="756.288151" x2="977.218268" y2="756.288151" stroke="black" stroke-width="6.48"/>
<line x1="2032.924367" y1="2055.095593" x2="2032.924367" y2="2024.207593" stroke="black" stroke-width="6.48"/>
<line x1="2032.924367" y1="2024.207593" x2="1823.361167" y2="2024.207593" stroke="black" stroke-width="6.48"/>
<line x1="1823.361167" y1="2024.207593" x2="1823.361167" y2="2055.095593" stroke="black" stroke-width="6.48"/>
<line x1="1823.361167" y1="2055.095593" x2="2032.924367" y2="2055.095593" stroke="black" stroke-width="6.48"/>
<line x1="2032.924367" y1="1851.234793" x2="2032.924367" y2="1820.346793" stroke="black" stroke-width="6.48"/>
<line x1="2032.924367" y1="1820.346793" x2="1823.361167" y2="1820.346793" stroke="black" stroke-width="6.48"/>
<line x1="1823.361167" y1="1820.346793" x2="1823.361167" y2="1851.234793" stroke="black" stroke-width="6.48"/>
<line x1="1823.361167" y1="1851.234793" x2="2032.924367" y2="1851.234793" stroke="black" stroke-width="6.48"/>
<line x1="2032.924367" y1="2024.682793" x2="2032.924367" y2="1851.234793" stroke="black" stroke-width="6.48"/>
<line x1="1824.311567" y1="2025.157993" x2="1798.175567" y2="1998.546793" stroke="black" stroke-width="6.48"/>
<line x1="1798.175567" y1="1877.370793" x2="1824.311567" y2="1850.759593" stroke="black" stroke-width="6.48"/>
<line x1="1798.175567" y1="2000.447593" x2="1798.175567" y2="1875.469993" stroke="black" stroke-width="6.48"/>
<line x1="1988.255567" y1="2024.207593" x2="1988.255567" y2="1850.759593" stroke="black" stroke-width="6.48"/>
<line x1="1485.415969" y1="209.267824" x2="1707.693134" y2="209.267824" stroke="black" stroke-width="6.48"/>
<line x1="1707.693134" y1="209.267824" x2="1707.693134" y2="432.000475" stroke="black" stroke-width="6.48"/>
<line x1="1707.693134" y1="432.000475" x2="1485.415969" y2="432.000475" stroke="black" stroke-width="6.48"/>
<line x1="1485.415969" y1="432.000475" x2="1485.415969" y2="209.267824" stroke="black" stroke-width="6.48"/>
<line x1="1484.960483" y1="208.812337" x2="1707.693134" y2="432.000475" stroke="black" stroke-width="6.48"/>
<line x1="1485.415969" y1="431.544989" x2="1707.237648" y2="209.267824" stroke="black" stroke-width="6.48"/>
<line x1="2761.020558" y1="2194.614338" x2="2761.020558" y2="1803.366338" stroke="black" stroke-width="6.48"/>
<line x1="2761.020558" y1="1803.366338" x2="2586.780558" y2="1803.366338" stroke="black" stroke-width="6.48"/>
<line x1="2586.780558" y1="1803.366338" x2="2586.780558" y2="2194.614338" stroke="black" stroke-width="6.48"/>
<line x1="2586.780558" y1="2194.614338" x2="2761.020558" y2="2194.614338" stroke="black" stroke-width="6.48"/>
<line x1="2613.708558" y1="1878.606338" x2="2613.708558" y2="2162.934338" stroke="black" stroke-width="6.48"/>
<line x1="2613.708558" y1="2162.934338" x2="2731.716558" y2="2162.934338" stroke="black" stroke-width="6.48"/>
<line x1="2731.716558" y1="2162.934338" x2="2731.716558" y2="1873.062338" stroke="black" stroke-width="6.48"/>
<path d="m 2613.453134,1879.416911 a 63.3599990854681,63.3599990854681 0 0 1 119.3743300000001,-4.293814000000111" fill="none" stroke="black" stroke-width="6.48"/>
<line x1="2105.610959" y1="1881.621522" x2="2105.610959" y2="2065.365522" stroke="black" stroke-width="6.48"/>
<line x1="2105.610959" y1="2065.365522" x2="2056.506959" y2="2065.365522" stroke="black" stroke-width="6.48"/>
<line x1="2056.506959" y1="1881.621522" x2="2056.506959" y2="2065.365522" stroke="black" stroke-width="6.48"/>
<line x1="2105.610959" y1="1881.621522" x2="2056.506959" y2="1881.621522" stroke="black" stroke-width="6.48"/>
<line x1="2133.330959" y1="1923.201522" x2="2105.610959" y2="1923.201522" stroke="black" stroke-width="6.48"/>
<line x1="2105.610959" y1="2022.201522" x2="2134.914959" y2="2022.201522" stroke="black" stroke-width="6.48"/>
<circle cx="2178.474959" cy="1971.909522" r="66.52800000000002" fill="none" stroke="black" stroke-width="6.48"/>
<circle cx="2178.474959" cy="1971.909522" r="57.02400000000001" fill="none" stroke="black" stroke-width="6.48"/>
<line x1="1000.190153" y1="211.351064" x2="1393.434025" y2="211.351064" stroke="black" stroke-width="6.48"/>
<line x1="1397.389432" y1="210.354782" x2="1397.389432" y2="346.423558" stroke="black" stroke-width="6.48"/>
<line x1="1000.654542" y1="347.575064" x2="1397.694773" y2="347.575064" stroke="black" stroke-width="6.48"/>
<line x1="1001.389432" y1="212.045814" x2="1001.389432" y2="347.30987" stroke="black" stroke-width="6.48"/>
<line x1="1011.685432" y1="222.439064" x2="1135.237432" y2="222.439064" stroke="black" stroke-width="6.48"/>
<line x1="1135.237432" y1="222.439064" x2="1135.237432" y2="336.487064" stroke="black" stroke-width="6.48"/>
<line x1="1011.685432" y1="336.487064" x2="1135.237432" y2="336.487064" stroke="black" stroke-width="6.48"/>
<line x1="1011.685432" y1="222.439064" x2="1011.685432" y2="336.487064" stroke="black" stroke-width="6.48"/>
<line x1="1154.245432" y1="229.567064" x2="1241.365432" y2="229.567064" stroke="black" stroke-width="6.48"/>
<line x1="1154.245432" y1="249.367064" x2="1241.365432" y2="249.367064" stroke="black" stroke-width="6.48"/>
<line x1="1155.037432" y1="269.959064" x2="1241.365432" y2="269.959064" stroke="black" stroke-width="6.48"/>
<line x1="1155.037432" y1="289.759064" x2="1241.365432" y2="289.759064" stroke="black" stroke-width="6.48"/>
<line x1="1154.245432" y1="309.559064" x2="1241.365432" y2="309.559064" stroke="black" stroke-width="6.48"/>
<line x1="1154.245432" y1="329.359064" x2="1241.365432" y2="329.359064" stroke="black" stroke-width="6.48"/>
<line x1="1059.205432" y1="335.695064" x2="1059.205432" y2="322.231064" stroke="black" stroke-width="6.48"/>
<line x1="1059.205432" y1="322.231064" x2="1089.301432" y2="322.231064" stroke="black" stroke-width="6.48"/>
<line x1="1089.301432" y1="322.231064" x2="1089.301432" y2="334.903064" stroke="black" stroke-width="6.48"/>
<line x1="1261.957432" y1="222.439064" x2="1385.509432" y2="222.439064" stroke="black" stroke-width="6.48"/>
<line x1="1385.509432" y1="222.439064" x2="1385.509432" y2="336.487064" stroke="black" stroke-width="6.48"/>
<line x1="1261.957432" y1="336.487064" x2="1385.509432" y2="336.487064" stroke="black" stroke-width="6.48"/>
<line x1="1261.957432" y1="222.439064" x2="1261.957432" y2="336.487064" stroke="black" stroke-width="6.48"/>
<line x1="1309.477432" y1="336.487064" x2="1309.477432" y2="323.023064" stroke="black" stroke-width="6.48"/>
<line x1="1309.477432" y1="323.023064" x2="1339.573432" y2="323.023064" stroke="black" stroke-width="6.48"/>
<line x1="1339.573432" y1="323.023064" x2="1339.573432" y2="335.695064" stroke="black" stroke-width="6.48"/>
<circle cx="1120.981432" cy="236.695064" r="7.128000000000001" fill="none" stroke="black" stroke-width="6.48"/>
<circle cx="1371.253432" cy="237.487064" r="7.128000000000001" fill="none" stroke="black" stroke-width="6.48"/>
<line x1="2044.889399" y1="955.822399" x2="2267.166564" y2="955.822399" stroke="black" stroke-width="6.48"/>
<line x1="2267.166564" y1="955.822399" x2="2267.166564" y2="1178.555051" stroke="black" stroke-width="6.48"/>
<line x1="2267.166564" y1="1178.555051" x2="2044.889399" y2="1178.555051" stroke="black" stroke-width="6.48"/>
<line x1="2044.889399" y1="1178.555051" x2="2044.889399" y2="955.822399" stroke="black" stroke-width="6.48"/>
<line x1="2044.433912" y1="955.366913" x2="2267.166564" y2="1178.555051" stroke="black" stroke-width="6.48"/>
<line x1="2044.889399" y1="1178.099564" x2="2266.711078" y2="955.822399" stroke="black" stroke-width="6.48"/>
<line x1="323.258818" y1="1375.374532" x2="323.258818" y2="949.841089" stroke="black" stroke-width="6.48"/>
<line x1="323.258818" y1="949.841089" x2="257.659344" y2="949.841089" stroke="black" stroke-width="6.48"/>
<line x1="257.659344" y1="949.841089" x2="257.659344" y2="1375.374532" stroke="black" stroke-width="6.48"/>
<line x1="257.659344" y1="1375.374532" x2="323.258818" y2="1375.374532" stroke="black" stroke-width="6.48"/>
<line x1="258.522494" y1="1335.669588" x2="322.395667" y2="1335.669588" stroke="black" stroke-width="6.48"/>
<line x1="258.522494" y1="990.409187" x2="324.985122" y2="990.409187" stroke="black" stroke-width="6.48"/>
<line x1="288.73278" y1="1336.532738" x2="288.73278" y2="991.272337" stroke="black" stroke-width="6.48"/>
<line x1="3874.406537" y1="1514.726719" x2="3874.406537" y2="1940.260162" stroke="black" stroke-width="6.48"/>
<line x1="3874.406537" y1="1940.260162" x2="3940.00601" y2="1940.260162" stroke="black" stroke-width="6.48"/>
<line x1="3940.00601" y1="1940.260162" x2="3940.00601" y2="1514.726719" stroke="black" stroke-width="6.48"/>
<line x1="3940.00601" y1="1514.726719" x2="3874.406537" y2="1514.726719" stroke="black" stroke-width="6.48"/>
<line x1="3939.14286" y1="1554.431663" x2="3875.269687" y2="1554.431663" stroke="black" stroke-width="6.48"/>
<line x1="3939.14286" y1="1899.692064" x2="3872.680232" y2="1899.692064" stroke="black" stroke-width="6.48"/>
<line x1="3908.932574" y1="1553.568512" x2="3908.932574" y2="1898.828914" stroke="black" stroke-width="6.48"/>
<line x1="4783.738543" y1="1291.951966" x2="4702.064177" y2="1676.199647" stroke="black" stroke-width="6.48"/>
<line x1="4702.064177" y1="1676.199647" x2="4882.567622" y2="1714.566838" stroke="black" stroke-width="6.48"/>
<line x1="4882.567622" y1="1714.566838" x2="4964.241989" y2="1330.31916" stroke="black" stroke-width="6.48"/>
<line x1="4964.241989" y1="1330.31916" x2="4783.738543" y2="1291.951966" stroke="black" stroke-width="6.48"/>
<line x1="4931.144111" y1="1486.032433" x2="5010.162786" y2="1502.82837" stroke="black" stroke-width="6.48"/>
<line x1="5010.162786" y1="1502.82837" x2="5026.464727" y2="1426.133776" stroke="black" stroke-width="6.48"/>
<line x1="5026.464727" y1="1426.133776" x2="4947.446052" y2="1409.337835" stroke="black" stroke-width="6.48"/>
<line x1="5009.256817" y1="1423.285816" x2="4993.119544" y2="1499.205719" stroke="black" stroke-width="6.48"/>
<line x1="4687.149236" y1="1354.01004" x2="4670.847295" y2="1430.704638" stroke="black" stroke-width="6.48"/>
<line x1="4670.847295" y1="1430.704638" x2="4750.640665" y2="1447.665242" stroke="black" stroke-width="6.48"/>
<line x1="4766.942603" y1="1370.970644" x2="4687.149236" y2="1354.01004" stroke="black" stroke-width="6.48"/>
<line x1="4704.027815" y1="1358.407386" x2="4687.890541" y2="1434.327293" stroke="black" stroke-width="6.48"/>
<line x1="4899.692898" y1="1633.998776" x2="4978.711573" y2="1650.794717" stroke="black" stroke-width="6.48"/>
<line x1="4978.711573" y1="1650.794717" x2="4995.013511" y2="1574.100119" stroke="black" stroke-width="6.48"/>
<line x1="4995.013511" y1="1574.100119" x2="4915.994836" y2="1557.304182" stroke="black" stroke-width="6.48"/>
<line x1="4977.970268" y1="1570.477464" x2="4961.668327" y2="1647.172062" stroke="black" stroke-width="6.48"/>
<line x1="4655.69802" y1="1501.976383" x2="4639.396082" y2="1578.670985" stroke="black" stroke-width="6.48"/>
<line x1="4639.396082" y1="1578.670985" x2="4719.189449" y2="1595.631586" stroke="black" stroke-width="6.48"/>
<line x1="4735.49139" y1="1518.936988" x2="4655.69802" y2="1501.976383" stroke="black" stroke-width="6.48"/>
<line x1="4672.741266" y1="1505.599034" x2="4656.439325" y2="1582.293636" stroke="black" stroke-width="6.48"/>
<line x1="3126.260232" y1="1074.389101" x2="3335.625436" y2="1074.389101" stroke="black" stroke-width="6.48"/>
<line x1="3335.625436" y1="1074.389101" x2="3335.625436" y2="743.174698" stroke="black" stroke-width="6.48"/>
<line x1="3335.625436" y1="743.174698" x2="3126.260232" y2="743.174698" stroke="black" stroke-width="6.48"/>
<line x1="3126.260232" y1="743.174698" x2="3126.260232" y2="1074.389101" stroke="black" stroke-width="6.48"/>
<line x1="3125.587032" y1="802.416298" x2="3336.298632" y2="802.416298" stroke="black" stroke-width="6.48"/>
<line x1="3336.298632" y1="802.416298" x2="3126.933432" y2="852.233101" stroke="black" stroke-width="6.48"/>
<line x1="3126.933432" y1="852.233101" x2="3158.573836" y2="898.683901" stroke="black" stroke-width="6.48"/>
<line x1="3158.573836" y1="898.683901" x2="3336.298632" y2="801.743101" stroke="black" stroke-width="6.48"/>
<line x1="3261.212687" y1="1203.736446" x2="3483.489852" y2="1203.736446" stroke="black" stroke-width="6.48"/>
<line x1="3483.489852" y1="1203.736446" x2="3483.489852" y2="1426.469098" stroke="black" stroke-width="6.48"/>
<line x1="3483.489852" y1="1426.469098" x2="3261.212687" y2="1426.469098" stroke="black" stroke-width="6.48"/>
<line x1="3261.212687" y1="1426.469098" x2="3261.212687" y2="1203.736446" stroke="black" stroke-width="6.48"/>
<line x1="3260.7572" y1="1203.28096" x2="3483.489852" y2="1426.469098" stroke="black" stroke-width="6.48"/>
<line x1="3261.212687" y1="1426.013611" x2="3483.034366" y2="1203.736446" stroke="black" stroke-width="6.48"/>
<line x1="2804.16708" y1="1127.69402" x2="2804.16708" y2="1153.148746" stroke="black" stroke-width="6.48"/>
<line x1="2804.16708" y1="1153.148746" x2="2853.834836" y2="1153.148746" stroke="black" stroke-width="6.48"/>
<line x1="2853.834836" y1="1153.148746" x2="2853.834836" y2="1127.69402" stroke="black" stroke-width="6.48"/>
<line x1="2853.834836" y1="1127.69402" x2="2804.16708" y2="1127.69402" stroke="black" stroke-width="6.48"/>
<line x1="2853.834836" y1="1402.108373" x2="3101.55277" y2="1402.108373" stroke="black" stroke-width="6.48"/>
<line x1="2802.925386" y1="1402.729218" x2="2802.925386" y2="1428.183943" stroke="black" stroke-width="6.48"/>
<line x1="2802.925386" y1="1428.183943" x2="2852.593142" y2="1428.183943" stroke="black" stroke-width="6.48"/>
<line x1="2852.593142" y1="1428.183943" x2="2852.593142" y2="1402.729218" stroke="black" stroke-width="6.48"/>
<line x1="2852.593142" y1="1402.729218" x2="2802.925386" y2="1402.729218" stroke="black" stroke-width="6.48"/>
<path d="m 2851.972294,1153.148746 a 248.95962699999984,248.95962699999984 0 0 1 248.95962699999973,248.95962699999995" fill="none" stroke="black" stroke-width="6.48"/>
<line x1="2901.200904" y1="1994.758157" x2="2829.995759" y2="2170.997294" stroke="black" stroke-width="6.48"/>
<line x1="2829.995759" y1="2170.997294" x2="3260.019254" y2="2344.737845" stroke="black" stroke-width="6.48"/>
<line x1="3260.019254" y1="2344.737845" x2="3331.2244" y2="2168.498707" stroke="black" stroke-width="6.48"/>
<line x1="3331.2244" y1="2168.498707" x2="3309.194509" y2="2159.598064" stroke="black" stroke-width="6.48"/>
<line x1="3309.194509" y1="2159.598064" x2="3246.533982" y2="2314.688508" stroke="black" stroke-width="6.48"/>
<line x1="3246.533982" y1="2314.688508" x2="2861.451464" y2="2159.105267" stroke="black" stroke-width="6.48"/>
<line x1="2861.451464" y1="2159.105267" x2="2924.111992" y2="2004.014826" stroke="black" stroke-width="6.48"/>
<line x1="2924.111992" y1="2004.014826" x2="2901.200904" y2="1994.758157" stroke="black" stroke-width="6.48"/>
<line x1="2921.975838" y1="2009.301998" x2="3307.058356" y2="2164.88524" stroke="black" stroke-width="6.48"/>
<line x1="3114.432522" y1="2086.034411" x2="3053.908152" y2="2235.837679" stroke="black" stroke-width="6.48"/>
<line x1="3389.729422" y1="1843.720376" x2="3505.678222" y2="1642.891169" stroke="black" stroke-width="6.48"/>
<line x1="3505.678222" y1="1642.891169" x2="3706.918974" y2="1759.077569" stroke="black" stroke-width="6.48"/>
<line x1="3706.918974" y1="1759.077569" x2="3590.970174" y2="1959.906776" stroke="black" stroke-width="6.48"/>
<line x1="3590.970174" y1="1959.906776" x2="3389.729422" y2="1843.720376" stroke="black" stroke-width="6.48"/>
<line x1="3389.080288" y1="1843.894314" x2="3706.918974" y2="1759.077569" stroke="black" stroke-width="6.48"/>
<line x1="3590.558636" y1="1959.669176" x2="3505.440622" y2="1643.302703" stroke="black" stroke-width="6.48"/>
<line x1="3009.806302" y1="1589.315879" x2="3009.26723" y2="1620.199174" stroke="black" stroke-width="6.48"/>
<line x1="3009.26723" y1="1620.199174" x2="3218.798513" y2="1623.856554" stroke="black" stroke-width="6.48"/>
<line x1="3218.798513" y1="1623.856554" x2="3219.337584" y2="1592.973259" stroke="black" stroke-width="6.48"/>
<line x1="3219.337584" y1="1592.973259" x2="3009.806302" y2="1589.315879" stroke="black" stroke-width="6.48"/>
<line x1="3006.24844" y1="1793.145629" x2="3005.709368" y2="1824.028924" stroke="black" stroke-width="6.48"/>
<line x1="3005.709368" y1="1824.028924" x2="3215.240651" y2="1827.686304" stroke="black" stroke-width="6.48"/>
<line x1="3215.240651" y1="1827.686304" x2="3215.779722" y2="1796.803009" stroke="black" stroke-width="6.48"/>
<line x1="3215.779722" y1="1796.803009" x2="3006.24844" y2="1793.145629" stroke="black" stroke-width="6.48"/>
<line x1="3009.275525" y1="1619.724046" x2="3006.24844" y2="1793.145629" stroke="black" stroke-width="6.48"/>
<line x1="3217.864846" y1="1622.889713" x2="3243.532435" y2="1649.952994" stroke="black" stroke-width="6.48"/>
<line x1="3241.417622" y1="1771.11054" x2="3214.821172" y2="1797.261548" stroke="black" stroke-width="6.48"/>
<line x1="3243.565609" y1="1648.052482" x2="3241.384448" y2="1773.011052" stroke="black" stroke-width="6.48"/>
<line x1="3053.929226" y1="1620.97875" x2="3050.902145" y2="1794.400333" stroke="black" stroke-width="6.48"/>
<line x1="6295.920394" y1="1841.146308" x2="6105.956184" y2="1847.780006" stroke="black" stroke-width="6.48"/>
<line x1="6105.956184" y1="1847.780006" x2="6122.142403" y2="2311.292678" stroke="black" stroke-width="6.48"/>
<line x1="6122.142403" y1="2311.292678" x2="6312.106613" y2="2304.65898" stroke="black" stroke-width="6.48"/>
<line x1="6312.106613" y1="2304.65898" x2="6311.277403" y2="2280.913452" stroke="black" stroke-width="6.48"/>
<line x1="6311.277403" y1="2280.913452" x2="6144.108898" y2="2286.751108" stroke="black" stroke-width="6.48"/>
<line x1="6144.108898" y1="2286.751108" x2="6129.614272" y2="1871.679312" stroke="black" stroke-width="6.48"/>
<line x1="6129.614272" y1="1871.679312" x2="6296.782774" y2="1865.841656" stroke="black" stroke-width="6.48"/>
<line x1="6296.782774" y1="1865.841656" x2="6295.920394" y2="1841.146308" stroke="black" stroke-width="6.48"/>
<line x1="6291.083848" y1="1866.040668" x2="6305.578474" y2="2281.112464" stroke="black" stroke-width="6.48"/>
<line x1="6299.264398" y1="2073.068485" x2="6137.794818" y2="2078.707129" stroke="black" stroke-width="6.48"/>
<line x1="1034.686908" y1="1904.376528" x2="1126.345007" y2="2092.303602" stroke="black" stroke-width="6.48"/>
<line x1="1126.345007" y1="2092.303602" x2="1334.773217" y2="1990.646435" stroke="black" stroke-width="6.48"/>
<line x1="1334.773217" y1="1990.646435" x2="1243.115118" y2="1802.719361" stroke="black" stroke-width="6.48"/>
<line x1="1243.115118" y1="1802.719361" x2="1034.686908" y2="1904.376528" stroke="black" stroke-width="6.48"/>
<line x1="1063.730185" y1="1890.211187" x2="1155.388284" y2="2078.138261" stroke="black" stroke-width="6.48"/>
<line x1="3787.263227" y1="1160.959424" x2="3794.211515" y2="1130.863079" stroke="black" stroke-width="6.48"/>
<line x1="3794.211515" y1="1130.863079" x2="3590.019407" y2="1083.721615" stroke="black" stroke-width="6.48"/>
<line x1="3590.019407" y1="1083.721615" x2="3583.071119" y2="1113.817961" stroke="black" stroke-width="6.48"/>
<line x1="3583.071119" y1="1113.817961" x2="3787.263227" y2="1160.959424" stroke="black" stroke-width="6.48"/>
<line x1="3833.121928" y1="962.32356" x2="3840.070216" y2="932.227218" stroke="black" stroke-width="6.48"/>
<line x1="3840.070216" y1="932.227218" x2="3635.878111" y2="885.085754" stroke="black" stroke-width="6.48"/>
<line x1="3635.878111" y1="885.085754" x2="3628.92982" y2="915.182096" stroke="black" stroke-width="6.48"/>
<line x1="3628.92982" y1="915.182096" x2="3833.121928" y2="962.32356" stroke="black" stroke-width="6.48"/>
<line x1="3794.10462" y1="1131.3261" x2="3833.121928" y2="962.32356" stroke="black" stroke-width="6.48"/>
<line x1="3590.731656" y1="1084.861454" x2="3571.251739" y2="1053.052974" stroke="black" stroke-width="6.48"/>
<line x1="3598.510406" y1="934.982708" x2="3629.962757" y2="914.932872" stroke="black" stroke-width="6.48"/>
<line x1="3570.824149" y1="1054.905055" x2="3598.937993" y2="933.130624" stroke="black" stroke-width="6.48"/>
<line x1="3750.687576" y1="1120.814784" x2="3789.704884" y2="951.812244" stroke="black" stroke-width="6.48"/>
<line x1="700.317007" y1="1057.201826" x2="919.985872" y2="1382.874314" stroke="black" stroke-width="6.48"/>
<line x1="919.985872" y1="1382.874314" x2="1072.973149" y2="1279.683094" stroke="black" stroke-width="6.48"/>
<line x1="1072.973149" y1="1279.683094" x2="853.304285" y2="954.010609" stroke="black" stroke-width="6.48"/>
<line x1="853.304285" y1="954.010609" x2="700.317007" y2="1057.201826" stroke="black" stroke-width="6.48"/>
<line x1="942.323317" y1="1085.986757" x2="1009.296292" y2="1040.812916" stroke="black" stroke-width="6.48"/>
<line x1="1009.296292" y1="1040.812916" x2="965.451092" y2="975.80974" stroke="black" stroke-width="6.48"/>
<line x1="965.451092" y1="975.80974" x2="898.478122" y2="1020.983576" stroke="black" stroke-width="6.48"/>
<line x1="951.448824" y1="986.209711" x2="994.851137" y2="1050.556295" stroke="black" stroke-width="6.48"/>
<line x1="677.861276" y1="1169.791517" x2="721.706472" y2="1234.794697" stroke="black" stroke-width="6.48"/>
<line x1="721.706472" y1="1234.794697" x2="789.33604" y2="1189.177981" stroke="black" stroke-width="6.48"/>
<line x1="745.490844" y1="1124.174801" x2="677.861276" y2="1169.791517" stroke="black" stroke-width="6.48"/>
<line x1="692.749307" y1="1160.704739" x2="736.151623" y2="1225.051322" stroke="black" stroke-width="6.48"/>
<line x1="1026.913547" y1="1211.396929" x2="1093.886521" y2="1166.223089" stroke="black" stroke-width="6.48"/>
<line x1="1093.886521" y1="1166.223089" x2="1050.041322" y2="1101.219908" stroke="black" stroke-width="6.48"/>
<line x1="1050.041322" y1="1101.219908" x2="983.068351" y2="1146.393752" stroke="black" stroke-width="6.48"/>
<line x1="1035.596171" y1="1110.963287" x2="1079.441366" y2="1175.966467" stroke="black" stroke-width="6.48"/>
<line x1="762.451506" y1="1295.201693" x2="806.296702" y2="1360.204873" stroke="black" stroke-width="6.48"/>
<line x1="806.296702" y1="1360.204873" x2="873.926269" y2="1314.58815" stroke="black" stroke-width="6.48"/>
<line x1="830.081074" y1="1249.584973" x2="762.451506" y2="1295.201693" stroke="black" stroke-width="6.48"/>
<line x1="776.896654" y1="1285.458314" x2="820.741853" y2="1350.461495" stroke="black" stroke-width="6.48"/>
</g>
</svg>
