<?xml version="1.0"?>
<svg xmlns:xlink="http://www.w3.org/1999/xlink" width="6775.2" height="2858.4">
<image x="0" y="0" width="6775.2" height="2858.4" xlink:href="groundfilled-01.png"/>
<g style="stroke-linecap:round">
<line x1="1285.950406" y1="795.178109" x2="1311.346069" y2="795.178109" stroke="black" stroke-width="6.48"/>
<line x1="1311.346069" y1="795.178109" x2="1311.346069" y2="745.625592" stroke="black" stroke-width="6.48"/>
<line x1="1311.346069" y1="745.625592" x2="1285.950406" y2="745.625592" stroke="black" stroke-width="6.48"/>
<line x1="1285.950406" y1="745.625592" x2="1285.950406" y2="795.178109" stroke="black" stroke-width="6.48"/>
<line x1="1559.728062" y1="745.625592" x2="1559.728062" y2="498.48241" stroke="black" stroke-width="6.48"/>
<line x1="1560.347471" y1="796.416923" x2="1585.743134" y2="796.416923" stroke="black" stroke-width="6.48"/>
<line x1="1585.743134" y1="796.416923" x2="1585.743134" y2="746.864406" stroke="black" stroke-width="6.48"/>
<line x1="1585.743134" y1="746.864406" x2="1560.347471" y2="746.864406" stroke="black" stroke-width="6.48"/>
<line x1="1560.347471" y1="746.864406" x2="1560.347471" y2="796.416923" stroke="black" stroke-width="6.48"/>
<path d="m 1311.346069,747.483811 a 248.38199299999997,248.38199299999997 0 0 1 248.38199299999997,-248.38199299999997" fill="none" stroke="black" stroke-width="6.48"/>
<line x1="330.523178" y1="771.328966" x2="330.523178" y2="366.748985" stroke="black" stroke-width="6.48"/>
<line x1="330.523178" y1="366.748985" x2="258.15928" y2="366.748985" stroke="black" stroke-width="6.48"/>
<line x1="258.15928" y1="366.748985" x2="258.15928" y2="771.328966" stroke="black" stroke-width="6.48"/>
<line x1="258.15928" y1="771.328966" x2="330.523178" y2="771.328966" stroke="black" stroke-width="6.48"/>
<line x1="330.523178" y1="752.415674" x2="355.19269" y2="752.415674" stroke="black" stroke-width="6.48"/>
<line x1="355.19269" y1="752.415674" x2="355.19269" y2="386.484595" stroke="black" stroke-width="6.48"/>
<line x1="330.523178" y1="386.484595" x2="355.19269" y2="386.484595" stroke="black" stroke-width="6.48"/>
<line x1="3901.945176" y1="1169.331426" x2="3901.945176" y2="1428.837066" stroke="black" stroke-width="6.48"/>
<line x1="3901.945176" y1="1428.837066" x2="3941.9501" y2="1428.837066" stroke="black" stroke-width="6.48"/>
<line x1="3941.9501" y1="1428.837066" x2="3941.9501" y2="1169.331426" stroke="black" stroke-width="6.48"/>
<line x1="3941.9501" y1="1169.331426" x2="3901.945176" y2="1169.331426" stroke="black" stroke-width="6.48"/>
<line x1="3941.423719" y1="1193.544936" x2="3902.471557" y2="1193.544936" stroke="black" stroke-width="6.48"/>
<line x1="3941.423719" y1="1404.097178" x2="3900.892414" y2="1404.097178" stroke="black" stroke-width="6.48"/>
<line x1="3923.000399" y1="1193.018555" x2="3923.000399" y2="1403.570797" stroke="black" stroke-width="6.48"/>
<line x1="323.923298" y1="1882.957399" x2="323.923298" y2="1457.423957" stroke="black" stroke-width="6.48"/>
<line x1="323.923298" y1="1457.423957" x2="258.323825" y2="1457.423957" stroke="black" stroke-width="6.48"/>
<line x1="258.323825" y1="1457.423957" x2="258.323825" y2="1882.957399" stroke="black" stroke-width="6.48"/>
<line x1="258.323825" y1="1882.957399" x2="323.923298" y2="1882.957399" stroke="black" stroke-width="6.48"/>
<line x1="259.186975" y1="1843.252456" x2="323.060148" y2="1843.252456" stroke="black" stroke-width="6.48"/>
<line x1="259.186975" y1="1497.992054" x2="325.649603" y2="1497.992054" stroke="black" stroke-width="6.48"/>
<line x1="289.397261" y1="1844.115606" x2="289.397261" y2="1498.855205" stroke="black" stroke-width="6.48"/>
<line x1="2747.905531" y1="904.670665" x2="2721.68303" y2="904.670665" stroke="black" stroke-width="6.48"/>
<line x1="2721.68303" y1="904.670665" x2="2721.68303" y2="955.836522" stroke="black" stroke-width="6.48"/>
<line x1="2721.68303" y1="955.836522" x2="2747.905531" y2="955.836522" stroke="black" stroke-width="6.48"/>
<line x1="2747.905531" y1="955.836522" x2="2747.905531" y2="904.670665" stroke="black" stroke-width="6.48"/>
<line x1="2465.214181" y1="955.836522" x2="2465.214181" y2="1211.026223" stroke="black" stroke-width="6.48"/>
<line x1="2464.574609" y1="903.39152" x2="2438.352108" y2="903.39152" stroke="black" stroke-width="6.48"/>
<line x1="2438.352108" y1="903.39152" x2="2438.352108" y2="954.557374" stroke="black" stroke-width="6.48"/>
<line x1="2438.352108" y1="954.557374" x2="2464.574609" y2="954.557374" stroke="black" stroke-width="6.48"/>
<line x1="2464.574609" y1="954.557374" x2="2464.574609" y2="903.39152" stroke="black" stroke-width="6.48"/>
<path d="m 2721.68303,953.917801 a 256.4688490000001,256.4688490000001 0 0 1 -256.4688490000003,256.46884899999986" fill="none" stroke="black" stroke-width="6.48"/>
<line x1="2420.532389" y1="1427.858834" x2="2395.136725" y2="1427.858834" stroke="black" stroke-width="6.48"/>
<line x1="2395.136725" y1="1427.858834" x2="2395.136725" y2="1477.411351" stroke="black" stroke-width="6.48"/>
<line x1="2395.136725" y1="1477.411351" x2="2420.532389" y2="1477.411351" stroke="black" stroke-width="6.48"/>
<line x1="2420.532389" y1="1477.411351" x2="2420.532389" y2="1427.858834" stroke="black" stroke-width="6.48"/>
<line x1="2146.754732" y1="1477.411351" x2="2146.754732" y2="1724.554534" stroke="black" stroke-width="6.48"/>
<line x1="2146.135324" y1="1426.62002" x2="2120.73966" y2="1426.62002" stroke="black" stroke-width="6.48"/>
<line x1="2120.73966" y1="1426.62002" x2="2120.73966" y2="1476.172537" stroke="black" stroke-width="6.48"/>
<line x1="2120.73966" y1="1476.172537" x2="2146.135324" y2="1476.172537" stroke="black" stroke-width="6.48"/>
<line x1="2146.135324" y1="1476.172537" x2="2146.135324" y2="1426.62002" stroke="black" stroke-width="6.48"/>
<path d="m 2395.136725,1475.553132 a 248.38199299999997,248.38199299999997 0 0 1 -248.38199299999997,248.38199299999997" fill="none" stroke="black" stroke-width="6.48"/>
<line x1="767.563016" y1="541.339351" x2="999.460616" y2="541.339351" stroke="black" stroke-width="6.48"/>
<line x1="999.460616" y1="541.339351" x2="999.460616" y2="773.712151" stroke="black" stroke-width="6.48"/>
<line x1="999.460616" y1="773.712151" x2="767.563016" y2="773.712151" stroke="black" stroke-width="6.48"/>
<line x1="767.563016" y1="773.712151" x2="767.563016" y2="541.339351" stroke="black" stroke-width="6.48"/>
<line x1="767.087816" y1="540.864151" x2="999.460616" y2="773.712151" stroke="black" stroke-width="6.48"/>
<line x1="767.563016" y1="773.236951" x2="998.985416" y2="541.339351" stroke="black" stroke-width="6.48"/>
<line x1="2032.924367" y1="1994.559458" x2="2032.924367" y2="1785.471458" stroke="black" stroke-width="6.48"/>
<line x1="2032.924367" y1="1785.471458" x2="1801.026767" y2="1785.471458" stroke="black" stroke-width="6.48"/>
<line x1="1801.026767" y1="1785.471458" x2="1801.026767" y2="1994.559458" stroke="black" stroke-width="6.48"/>
<line x1="1801.026767" y1="1994.559458" x2="2032.924367" y2="1994.559458" stroke="black" stroke-width="6.48"/>
<line x1="2000.610767" y1="1994.559458" x2="2000.610767" y2="1785.471458" stroke="black" stroke-width="6.48"/>
<line x1="1485.415969" y1="209.267824" x2="1707.693134" y2="209.267824" stroke="black" stroke-width="6.48"/>
<line x1="1707.693134" y1="209.267824" x2="1707.693134" y2="432.000475" stroke="black" stroke-width="6.48"/>
<line x1="1707.693134" y1="432.000475" x2="1485.415969" y2="432.000475" stroke="black" stroke-width="6.48"/>
<line x1="1485.415969" y1="432.000475" x2="1485.415969" y2="209.267824" stroke="black" stroke-width="6.48"/>
<line x1="1484.960483" y1="208.812337" x2="1707.693134" y2="432.000475" stroke="black" stroke-width="6.48"/>
<line x1="1485.415969" y1="431.544989" x2="1707.237648" y2="209.267824" stroke="black" stroke-width="6.48"/>
<line x1="2586.780558" y1="1803.366338" x2="2586.780558" y2="2194.614338" stroke="black" stroke-width="6.48"/>
<line x1="2586.780558" y1="2194.614338" x2="2761.020558" y2="2194.614338" stroke="black" stroke-width="6.48"/>
<line x1="2761.020558" y1="2194.614338" x2="2761.020558" y2="1803.366338" stroke="black" stroke-width="6.48"/>
<line x1="2761.020558" y1="1803.366338" x2="2586.780558" y2="1803.366338" stroke="black" stroke-width="6.48"/>
<line x1="2734.092558" y1="2119.374338" x2="2734.092558" y2="1835.046338" stroke="black" stroke-width="6.48"/>
<line x1="2734.092558" y1="1835.046338" x2="2616.084558" y2="1835.046338" stroke="black" stroke-width="6.48"/>
<line x1="2616.084558" y1="1835.046338" x2="2616.084558" y2="2124.918338" stroke="black" stroke-width="6.48"/>
<path d="m 2734.347982,2118.563766 a 63.35999941905905,63.35999941905905 0 0 1 -119.37432999999965,4.2938139999996565" fill="none" stroke="black" stroke-width="6.48"/>
<line x1="2080.929924" y1="1865.363123" x2="2056.377924" y2="1883.975123" stroke="black" stroke-width="6.48"/>
<line x1="2056.377924" y1="1883.975123" x2="2056.377924" y2="2031.287123" stroke="black" stroke-width="6.48"/>
<line x1="2056.377924" y1="2031.287123" x2="2084.493924" y2="2050.295123" stroke="black" stroke-width="6.48"/>
<line x1="2083.701924" y1="1887.143123" x2="2083.701924" y2="2030.099123" stroke="black" stroke-width="6.48"/>
<circle cx="2105.481924" cy="1956.443123" r="13.068000000000003" fill="none" stroke="black" stroke-width="6.48"/>
<path d="m 2083.034578,1888.696375 a 74.84400053466227,74.84400053466227 0 1 1 0.4020480000003772,139.60900500000002" fill="none" stroke="black" stroke-width="6.48"/>
<path d="m 2080.27256,1865.409426 a 95.43599883324413,95.43599883324413 0 1 1 3.0749580000001515,184.466995" fill="none" stroke="black" stroke-width="6.48"/>
<line x1="774.507038" y1="210.799271" x2="1167.750911" y2="210.799271" stroke="black" stroke-width="6.48"/>
<line x1="1171.706317" y1="209.802989" x2="1171.706317" y2="345.871764" stroke="black" stroke-width="6.48"/>
<line x1="774.971428" y1="347.023271" x2="1172.011658" y2="347.023271" stroke="black" stroke-width="6.48"/>
<line x1="775.706317" y1="211.49402" x2="775.706317" y2="346.758077" stroke="black" stroke-width="6.48"/>
<line x1="786.002317" y1="221.887271" x2="909.554317" y2="221.887271" stroke="black" stroke-width="6.48"/>
<line x1="909.554317" y1="221.887271" x2="909.554317" y2="335.935271" stroke="black" stroke-width="6.48"/>
<line x1="786.002317" y1="335.935271" x2="909.554317" y2="335.935271" stroke="black" stroke-width="6.48"/>
<line x1="786.002317" y1="221.887271" x2="786.002317" y2="335.935271" stroke="black" stroke-width="6.48"/>
<line x1="928.562317" y1="229.015271" x2="1015.682317" y2="229.015271" stroke="black" stroke-width="6.48"/>
<line x1="928.562317" y1="248.815271" x2="1015.682317" y2="248.815271" stroke="black" stroke-width="6.48"/>
<line x1="929.354317" y1="269.407271" x2="1015.682317" y2="269.407271" stroke="black" stroke-width="6.48"/>
<line x1="929.354317" y1="289.207271" x2="1015.682317" y2="289.207271" stroke="black" stroke-width="6.48"/>
<line x1="928.562317" y1="309.007271" x2="1015.682317" y2="309.007271" stroke="black" stroke-width="6.48"/>
<line x1="928.562317" y1="328.807271" x2="1015.682317" y2="328.807271" stroke="black" stroke-width="6.48"/>
<line x1="833.522317" y1="335.143271" x2="833.522317" y2="321.679271" stroke="black" stroke-width="6.48"/>
<line x1="833.522317" y1="321.679271" x2="863.618317" y2="321.679271" stroke="black" stroke-width="6.48"/>
<line x1="863.618317" y1="321.679271" x2="863.618317" y2="334.351271" stroke="black" stroke-width="6.48"/>
<line x1="1036.274317" y1="221.887271" x2="1159.826317" y2="221.887271" stroke="black" stroke-width="6.48"/>
<line x1="1159.826317" y1="221.887271" x2="1159.826317" y2="335.935271" stroke="black" stroke-width="6.48"/>
<line x1="1036.274317" y1="335.935271" x2="1159.826317" y2="335.935271" stroke="black" stroke-width="6.48"/>
<line x1="1036.274317" y1="221.887271" x2="1036.274317" y2="335.935271" stroke="black" stroke-width="6.48"/>
<line x1="1083.794317" y1="335.935271" x2="1083.794317" y2="322.471271" stroke="black" stroke-width="6.48"/>
<line x1="1083.794317" y1="322.471271" x2="1113.890317" y2="322.471271" stroke="black" stroke-width="6.48"/>
<line x1="1113.890317" y1="322.471271" x2="1113.890317" y2="335.143271" stroke="black" stroke-width="6.48"/>
<circle cx="895.298317" cy="236.143271" r="7.128000000000001" fill="none" stroke="black" stroke-width="6.48"/>
<circle cx="1145.570317" cy="236.935271" r="7.128000000000001" fill="none" stroke="black" stroke-width="6.48"/>
<line x1="2044.889399" y1="955.822399" x2="2267.166564" y2="955.822399" stroke="black" stroke-width="6.48"/>
<line x1="2267.166564" y1="955.822399" x2="2267.166564" y2="1178.555051" stroke="black" stroke-width="6.48"/>
<line x1="2267.166564" y1="1178.555051" x2="2044.889399" y2="1178.555051" stroke="black" stroke-width="6.48"/>
<line x1="2044.889399" y1="1178.555051" x2="2044.889399" y2="955.822399" stroke="black" stroke-width="6.48"/>
<line x1="2044.433912" y1="955.366913" x2="2267.166564" y2="1178.555051" stroke="black" stroke-width="6.48"/>
<line x1="2044.889399" y1="1178.099564" x2="2266.711078" y2="955.822399" stroke="black" stroke-width="6.48"/>
<line x1="333.766206" y1="1375.361078" x2="333.766206" y2="949.854546" stroke="black" stroke-width="6.48"/>
<line x1="333.766206" y1="949.854546" x2="257.659348" y2="949.854546" stroke="black" stroke-width="6.48"/>
<line x1="257.659348" y1="949.854546" x2="257.659348" y2="1375.361078" stroke="black" stroke-width="6.48"/>
<line x1="257.659348" y1="1375.361078" x2="333.766206" y2="1375.361078" stroke="black" stroke-width="6.48"/>
<line x1="333.766206" y1="1355.469512" x2="359.711726" y2="1355.469512" stroke="black" stroke-width="6.48"/>
<line x1="359.711726" y1="1355.469512" x2="359.711726" y2="970.610962" stroke="black" stroke-width="6.48"/>
<line x1="333.766206" y1="970.610962" x2="359.711726" y2="970.610962" stroke="black" stroke-width="6.48"/>
<line x1="3874.406537" y1="1514.726719" x2="3874.406537" y2="1940.260162" stroke="black" stroke-width="6.48"/>
<line x1="3874.406537" y1="1940.260162" x2="3940.00601" y2="1940.260162" stroke="black" stroke-width="6.48"/>
<line x1="3940.00601" y1="1940.260162" x2="3940.00601" y2="1514.726719" stroke="black" stroke-width="6.48"/>
<line x1="3940.00601" y1="1514.726719" x2="3874.406537" y2="1514.726719" stroke="black" stroke-width="6.48"/>
<line x1="3939.14286" y1="1554.431663" x2="3875.269687" y2="1554.431663" stroke="black" stroke-width="6.48"/>
<line x1="3939.14286" y1="1899.692064" x2="3872.680232" y2="1899.692064" stroke="black" stroke-width="6.48"/>
<line x1="3908.932574" y1="1553.568512" x2="3908.932574" y2="1898.828914" stroke="black" stroke-width="6.48"/>
<line x1="4789.182773" y1="1115.166629" x2="4516.298737" y2="1397.746325" stroke="black" stroke-width="6.48"/>
<line x1="4516.298737" y1="1397.746325" x2="4649.042826" y2="1525.935798" stroke="black" stroke-width="6.48"/>
<line x1="4649.042826" y1="1525.935798" x2="4921.926862" y2="1243.356106" stroke="black" stroke-width="6.48"/>
<line x1="4921.926862" y1="1243.356106" x2="4789.182773" y2="1115.166629" stroke="black" stroke-width="6.48"/>
<line x1="4811.34281" y1="1357.869247" x2="4869.453956" y2="1413.98653" stroke="black" stroke-width="6.48"/>
<line x1="4869.453956" y1="1413.98653" x2="4923.920725" y2="1357.584534" stroke="black" stroke-width="6.48"/>
<line x1="4923.920725" y1="1357.584534" x2="4865.809579" y2="1301.467252" stroke="black" stroke-width="6.48"/>
<line x1="4910.836784" y1="1346.050523" x2="4856.920175" y2="1401.8828" stroke="black" stroke-width="6.48"/>
<line x1="4674.38463" y1="1116.610326" x2="4619.917854" y2="1173.012318" stroke="black" stroke-width="6.48"/>
<line x1="4619.917854" y1="1173.012318" x2="4678.598718" y2="1229.67977" stroke="black" stroke-width="6.48"/>
<line x1="4733.065494" y1="1173.277775" x2="4674.38463" y2="1116.610326" stroke="black" stroke-width="6.48"/>
<line x1="4686.368234" y1="1129.28377" x2="4632.451632" y2="1185.116047" stroke="black" stroke-width="6.48"/>
<line x1="4706.260448" y1="1466.68522" x2="4764.371594" y2="1522.802502" stroke="black" stroke-width="6.48"/>
<line x1="4764.371594" y1="1522.802502" x2="4818.83837" y2="1466.400503" stroke="black" stroke-width="6.48"/>
<line x1="4818.83837" y1="1466.400503" x2="4760.727221" y2="1410.283224" stroke="black" stroke-width="6.48"/>
<line x1="4806.304589" y1="1454.296777" x2="4751.837816" y2="1510.698773" stroke="black" stroke-width="6.48"/>
<line x1="4569.302268" y1="1225.426295" x2="4514.835492" y2="1281.828287" stroke="black" stroke-width="6.48"/>
<line x1="4514.835492" y1="1281.828287" x2="4573.516356" y2="1338.495743" stroke="black" stroke-width="6.48"/>
<line x1="4627.983132" y1="1282.093747" x2="4569.302268" y2="1225.426295" stroke="black" stroke-width="6.48"/>
<line x1="4581.836042" y1="1237.53002" x2="4527.36927" y2="1293.932016" stroke="black" stroke-width="6.48"/>
<line x1="3384.556013" y1="1075.241563" x2="3593.921216" y2="1075.241563" stroke="black" stroke-width="6.48"/>
<line x1="3593.921216" y1="1075.241563" x2="3593.921216" y2="744.02716" stroke="black" stroke-width="6.48"/>
<line x1="3593.921216" y1="744.02716" x2="3384.556013" y2="744.02716" stroke="black" stroke-width="6.48"/>
<line x1="3384.556013" y1="744.02716" x2="3384.556013" y2="1075.241563" stroke="black" stroke-width="6.48"/>
<line x1="3383.882813" y1="803.26876" x2="3594.594413" y2="803.26876" stroke="black" stroke-width="6.48"/>
<line x1="3594.594413" y1="803.26876" x2="3385.229213" y2="853.085563" stroke="black" stroke-width="6.48"/>
<line x1="3385.229213" y1="853.085563" x2="3416.869616" y2="899.536363" stroke="black" stroke-width="6.48"/>
<line x1="3416.869616" y1="899.536363" x2="3594.594413" y2="802.595563" stroke="black" stroke-width="6.48"/>
<line x1="3280.763081" y1="1203.657293" x2="3503.040246" y2="1203.657293" stroke="black" stroke-width="6.48"/>
<line x1="3503.040246" y1="1203.657293" x2="3503.040246" y2="1426.389944" stroke="black" stroke-width="6.48"/>
<line x1="3503.040246" y1="1426.389944" x2="3280.763081" y2="1426.389944" stroke="black" stroke-width="6.48"/>
<line x1="3280.763081" y1="1426.389944" x2="3280.763081" y2="1203.657293" stroke="black" stroke-width="6.48"/>
<line x1="3280.307594" y1="1203.201806" x2="3503.040246" y2="1426.389944" stroke="black" stroke-width="6.48"/>
<line x1="3280.763081" y1="1425.934458" x2="3502.58476" y2="1203.657293" stroke="black" stroke-width="6.48"/>
<line x1="2804.16708" y1="1127.69402" x2="2804.16708" y2="1153.148746" stroke="black" stroke-width="6.48"/>
<line x1="2804.16708" y1="1153.148746" x2="2853.834836" y2="1153.148746" stroke="black" stroke-width="6.48"/>
<line x1="2853.834836" y1="1153.148746" x2="2853.834836" y2="1127.69402" stroke="black" stroke-width="6.48"/>
<line x1="2853.834836" y1="1127.69402" x2="2804.16708" y2="1127.69402" stroke="black" stroke-width="6.48"/>
<line x1="2853.834836" y1="1402.108373" x2="3101.55277" y2="1402.108373" stroke="black" stroke-width="6.48"/>
<line x1="2802.925386" y1="1402.729218" x2="2802.925386" y2="1428.183943" stroke="black" stroke-width="6.48"/>
<line x1="2802.925386" y1="1428.183943" x2="2852.593142" y2="1428.183943" stroke="black" stroke-width="6.48"/>
<line x1="2852.593142" y1="1428.183943" x2="2852.593142" y2="1402.729218" stroke="black" stroke-width="6.48"/>
<line x1="2852.593142" y1="1402.729218" x2="2802.925386" y2="1402.729218" stroke="black" stroke-width="6.48"/>
<path d="m 2851.972294,1153.148746 a 248.95962699999984,248.95962699999984 0 0 1 248.95962699999973,248.95962699999995" fill="none" stroke="black" stroke-width="6.48"/>
<line x1="3484.017972" y1="1650.54694" x2="3699.029678" y2="1737.417312" stroke="black" stroke-width="6.48"/>
<line x1="3699.029678" y1="1737.417312" x2="3611.981297" y2="1952.869619" stroke="black" stroke-width="6.48"/>
<line x1="3611.981297" y1="1952.869619" x2="3396.969587" y2="1865.99925" stroke="black" stroke-width="6.48"/>
<line x1="3396.969587" y1="1865.99925" x2="3484.017972" y2="1650.54694" stroke="black" stroke-width="6.48"/>
<line x1="3483.755384" y1="1649.928334" x2="3611.981297" y2="1952.869619" stroke="black" stroke-width="6.48"/>
<line x1="3397.1476" y1="1865.558653" x2="3698.589082" y2="1737.239299" stroke="black" stroke-width="6.48"/>
<line x1="3079.021345" y1="1589.315879" x2="3065.967511" y2="1617.309914" stroke="black" stroke-width="6.48"/>
<line x1="3065.967511" y1="1617.309914" x2="3255.896275" y2="1705.875149" stroke="black" stroke-width="6.48"/>
<line x1="3255.896275" y1="1705.875149" x2="3268.950106" y2="1677.881113" stroke="black" stroke-width="6.48"/>
<line x1="3268.950106" y1="1677.881113" x2="3079.021345" y2="1589.315879" stroke="black" stroke-width="6.48"/>
<line x1="2992.866048" y1="1774.076508" x2="2979.812214" y2="1802.07054" stroke="black" stroke-width="6.48"/>
<line x1="2979.812214" y1="1802.07054" x2="3169.740974" y2="1890.635778" stroke="black" stroke-width="6.48"/>
<line x1="3169.740974" y1="1890.635778" x2="3182.794808" y2="1862.641742" stroke="black" stroke-width="6.48"/>
<line x1="3182.794808" y1="1862.641742" x2="2992.866048" y2="1774.076508" stroke="black" stroke-width="6.48"/>
<line x1="3066.168341" y1="1616.879236" x2="2992.866048" y2="1774.076508" stroke="black" stroke-width="6.48"/>
<line x1="3255.436573" y1="1704.612139" x2="3267.877457" y2="1739.775629" stroke="black" stroke-width="6.48"/>
<line x1="3216.666265" y1="1849.598377" x2="3181.732628" y2="1862.670766" stroke="black" stroke-width="6.48"/>
<line x1="3268.680768" y1="1738.052917" x2="3215.86295" y2="1851.321089" stroke="black" stroke-width="6.48"/>
<line x1="3106.451192" y1="1636.187764" x2="3033.1489" y2="1793.38504" stroke="black" stroke-width="6.48"/>
<line x1="6133.644126" y1="1665.382133" x2="5945.413968" y2="1691.836157" stroke="black" stroke-width="6.48"/>
<line x1="5945.413968" y1="1691.836157" x2="6009.961784" y2="2151.117734" stroke="black" stroke-width="6.48"/>
<line x1="6009.961784" y1="2151.117734" x2="6198.191939" y2="2124.66371" stroke="black" stroke-width="6.48"/>
<line x1="6198.191939" y1="2124.66371" x2="6194.885188" y2="2101.134942" stroke="black" stroke-width="6.48"/>
<line x1="6194.885188" y1="2101.134942" x2="6029.24265" y2="2124.414479" stroke="black" stroke-width="6.48"/>
<line x1="6029.24265" y1="2124.414479" x2="5971.440611" y2="1713.131593" stroke="black" stroke-width="6.48"/>
<line x1="5971.440611" y1="1713.131593" x2="6137.083148" y2="1689.852056" stroke="black" stroke-width="6.48"/>
<line x1="6137.083148" y1="1689.852056" x2="6133.644126" y2="1665.382133" stroke="black" stroke-width="6.48"/>
<line x1="6131.436242" y1="1690.645676" x2="6189.238285" y2="2101.928562" stroke="black" stroke-width="6.48"/>
<line x1="6161.212278" y1="1895.684274" x2="6001.216646" y2="1918.170191" stroke="black" stroke-width="6.48"/>
<line x1="968.766613" y1="1512.799333" x2="941.300312" y2="1383.580559" stroke="black" stroke-width="6.48"/>
<line x1="941.300312" y1="1383.580559" x2="955.244783" y2="1380.616571" stroke="black" stroke-width="6.48"/>
<line x1="982.711084" y1="1509.835345" x2="955.244783" y2="1380.616571" stroke="black" stroke-width="6.48"/>
<line x1="968.766613" y1="1512.799333" x2="982.711084" y2="1509.835345" stroke="black" stroke-width="6.48"/>
<line x1="979.944692" y1="1496.820503" x2="1011.017729" y2="1492.158989" stroke="black" stroke-width="6.48"/>
<line x1="958.011174" y1="1393.63141" x2="989.223444" y2="1385.053772" stroke="black" stroke-width="6.48"/>
<line x1="1419.637878" y1="1416.963686" x2="1392.171577" y2="1287.744912" stroke="black" stroke-width="6.48"/>
<line x1="1392.171577" y1="1287.744912" x2="1379.156738" y2="1290.511303" stroke="black" stroke-width="6.48"/>
<line x1="1406.623036" y1="1419.730074" x2="1379.156738" y2="1290.511303" stroke="black" stroke-width="6.48"/>
<line x1="1419.637878" y1="1416.963686" x2="1406.623036" y2="1419.730074" stroke="black" stroke-width="6.48"/>
<line x1="1402.194985" y1="1408.040068" x2="1371.912343" y2="1416.420104" stroke="black" stroke-width="6.48"/>
<line x1="1380.261467" y1="1304.850971" x2="1348.061198" y2="1308.780454" stroke="black" stroke-width="6.48"/>
<line x1="1068.13948" y1="1189.49927" x2="1071.103475" y2="1203.443741" stroke="black" stroke-width="6.48"/>
<line x1="1071.103475" y1="1203.443741" x2="1200.322246" y2="1175.977444" stroke="black" stroke-width="6.48"/>
<line x1="1197.358258" y1="1162.032973" x2="1200.322246" y2="1175.977444" stroke="black" stroke-width="6.48"/>
<line x1="1068.13948" y1="1189.49927" x2="1197.358258" y2="1162.032973" stroke="black" stroke-width="6.48"/>
<line x1="1186.377775" y1="1178.941432" x2="1195.885048" y2="1209.956105" stroke="black" stroke-width="6.48"/>
<line x1="1084.11831" y1="1200.677353" x2="1088.977424" y2="1232.680021" stroke="black" stroke-width="6.48"/>
<line x1="1162.847898" y1="1639.638508" x2="1159.88391" y2="1625.69403" stroke="black" stroke-width="6.48"/>
<line x1="1159.88391" y1="1625.69403" x2="1289.102684" y2="1598.227733" stroke="black" stroke-width="6.48"/>
<line x1="1292.066676" y1="1612.172207" x2="1289.102684" y2="1598.227733" stroke="black" stroke-width="6.48"/>
<line x1="1162.847898" y1="1639.638508" x2="1292.066676" y2="1612.172207" stroke="black" stroke-width="6.48"/>
<line x1="1275.158214" y1="1601.191724" x2="1271.228731" y2="1568.991456" stroke="black" stroke-width="6.48"/>
<line x1="1172.898752" y1="1622.927642" x2="1164.321115" y2="1591.715369" stroke="black" stroke-width="6.48"/>
<circle cx="1180.10308" cy="1400.83574" r="191.98080000000002" fill="none" stroke="black" stroke-width="6.48"/>
<line x1="1225.447783" y1="1929.198614" x2="1310.491487" y2="2120.210032" stroke="black" stroke-width="6.48"/>
<line x1="1310.491487" y1="2120.210032" x2="1522.340507" y2="2025.888829" stroke="black" stroke-width="6.48"/>
<line x1="1522.340507" y1="2025.888829" x2="1437.296807" y2="1834.877416" stroke="black" stroke-width="6.48"/>
<line x1="1437.296807" y1="1834.877416" x2="1225.447783" y2="1929.198614" stroke="black" stroke-width="6.48"/>
<line x1="1254.967729" y1="1916.055497" x2="1340.011433" y2="2107.066914" stroke="black" stroke-width="6.48"/>
<line x1="6271.151519" y1="2158.82091" x2="6268.996879" y2="2189.633666" stroke="black" stroke-width="6.48"/>
<line x1="6268.996879" y1="2189.633666" x2="6478.049596" y2="2204.252057" stroke="black" stroke-width="6.48"/>
<line x1="6478.049596" y1="2204.252057" x2="6480.204232" y2="2173.439297" stroke="black" stroke-width="6.48"/>
<line x1="6480.204232" y1="2173.439297" x2="6271.151519" y2="2158.82091" stroke="black" stroke-width="6.48"/>
<line x1="6256.930907" y1="2362.185115" x2="6254.776271" y2="2392.997875" stroke="black" stroke-width="6.48"/>
<line x1="6254.776271" y1="2392.997875" x2="6463.828984" y2="2407.616262" stroke="black" stroke-width="6.48"/>
<line x1="6463.828984" y1="2407.616262" x2="6465.983623" y2="2376.803506" stroke="black" stroke-width="6.48"/>
<line x1="6465.983623" y1="2376.803506" x2="6256.930907" y2="2362.185115" stroke="black" stroke-width="6.48"/>
<line x1="6269.030028" y1="2189.159626" x2="6256.930907" y2="2362.185115" stroke="black" stroke-width="6.48"/>
<line x1="6477.167808" y1="2203.237678" x2="6501.383838" y2="2231.607208" stroke="black" stroke-width="6.48"/>
<line x1="6492.931027" y1="2352.488029" x2="6465.002393" y2="2377.211252" stroke="black" stroke-width="6.48"/>
<line x1="6501.51643" y1="2229.711041" x2="6492.798436" y2="2354.3842" stroke="black" stroke-width="6.48"/>
<line x1="6313.556873" y1="2192.74961" x2="6301.457748" y2="2365.775096" stroke="black" stroke-width="6.48"/>
<line x1="2905.392388" y1="1996.780792" x2="2834.187242" y2="2173.019929" stroke="black" stroke-width="6.48"/>
<line x1="2834.187242" y1="2173.019929" x2="3264.210738" y2="2346.76048" stroke="black" stroke-width="6.48"/>
<line x1="3264.210738" y1="2346.76048" x2="3335.415883" y2="2170.521342" stroke="black" stroke-width="6.48"/>
<line x1="3335.415883" y1="2170.521342" x2="3313.385993" y2="2161.620698" stroke="black" stroke-width="6.48"/>
<line x1="3313.385993" y1="2161.620698" x2="3250.725466" y2="2316.711143" stroke="black" stroke-width="6.48"/>
<line x1="3250.725466" y1="2316.711143" x2="2865.642948" y2="2161.127902" stroke="black" stroke-width="6.48"/>
<line x1="2865.642948" y1="2161.127902" x2="2928.303475" y2="2006.037461" stroke="black" stroke-width="6.48"/>
<line x1="2928.303475" y1="2006.037461" x2="2905.392388" y2="1996.780792" stroke="black" stroke-width="6.48"/>
<line x1="2926.167322" y1="2011.324633" x2="3311.249839" y2="2166.907874" stroke="black" stroke-width="6.48"/>
<line x1="3118.624006" y1="2088.057046" x2="3058.099636" y2="2237.860314" stroke="black" stroke-width="6.48"/>
</g>
</svg>
