<?xml version="1.0"?>
<svg xmlns:xlink="http://www.w3.org/1999/xlink" width="6775.2" height="2858.4">
<image x="0" y="0" width="6775.2" height="2858.4" xlink:href="groundfilled-01.png"/>
<g style="stroke-linecap:round">
<line x1="1285.950406" y1="795.178109" x2="1311.346069" y2="795.178109" stroke="black" stroke-width="6.48"/>
<line x1="1311.346069" y1="795.178109" x2="1311.346069" y2="745.625592" stroke="black" stroke-width="6.48"/>
<line x1="1311.346069" y1="745.625592" x2="1285.950406" y2="745.625592" stroke="black" stroke-width="6.48"/>
<line x1="1285.950406" y1="745.625592" x2="1285.950406" y2="795.178109" stroke="black" stroke-width="6.48"/>
<line x1="1559.728062" y1="745.625592" x2="1559.728062" y2="498.48241" stroke="black" stroke-width="6.48"/>
<line x1="1560.347471" y1="796.416923" x2="1585.743134" y2="796.416923" stroke="black" stroke-width="6.48"/>
<line x1="1585.743134" y1="796.416923" x2="1585.743134" y2="746.864406" stroke="black" stroke-width="6.48"/>
<line x1="1585.743134" y1="746.864406" x2="1560.347471" y2="746.864406" stroke="black" stroke-width="6.48"/>
<line x1="1560.347471" y1="746.864406" x2="1560.347471" y2="796.416923" stroke="black" stroke-width="6.48"/>
<path d="m 1311.346069,747.483811 a 248.38199299999997,248.38199299999997 0 0 1 248.38199299999997,-248.38199299999997" fill="none" stroke="black" stroke-width="6.48"/>
<line x1="330.523178" y1="771.328966" x2="330.523178" y2="366.748985" stroke="black" stroke-width="6.48"/>
<line x1="330.523178" y1="366.748985" x2="258.15928" y2="366.748985" stroke="black" stroke-width="6.48"/>
<line x1="258.15928" y1="366.748985" x2="258.15928" y2="771.328966" stroke="black" stroke-width="6.48"/>
<line x1="258.15928" y1="771.328966" x2="330.523178" y2="771.328966" stroke="black" stroke-width="6.48"/>
<line x1="330.523178" y1="752.415674" x2="355.19269" y2="752.415674" stroke="black" stroke-width="6.48"/>
<line x1="355.19269" y1="752.415674" x2="355.19269" y2="386.484595" stroke="black" stroke-width="6.48"/>
<line x1="330.523178" y1="386.484595" x2="355.19269" y2="386.484595" stroke="black" stroke-width="6.48"/>
<line x1="3901.945176" y1="1169.331426" x2="3901.945176" y2="1428.837066" stroke="black" stroke-width="6.48"/>
<line x1="3901.945176" y1="1428.837066" x2="3941.9501" y2="1428.837066" stroke="black" stroke-width="6.48"/>
<line x1="3941.9501" y1="1428.837066" x2="3941.9501" y2="1169.331426" stroke="black" stroke-width="6.48"/>
<line x1="3941.9501" y1="1169.331426" x2="3901.945176" y2="1169.331426" stroke="black" stroke-width="6.48"/>
<line x1="3941.423719" y1="1193.544936" x2="3902.471557" y2="1193.544936" stroke="black" stroke-width="6.48"/>
<line x1="3941.423719" y1="1404.097178" x2="3900.892414" y2="1404.097178" stroke="black" stroke-width="6.48"/>
<line x1="3923.000399" y1="1193.018555" x2="3923.000399" y2="1403.570797" stroke="black" stroke-width="6.48"/>
<line x1="334.430687" y1="1882.943946" x2="334.430687" y2="1457.437414" stroke="black" stroke-width="6.48"/>
<line x1="334.430687" y1="1457.437414" x2="258.323828" y2="1457.437414" stroke="black" stroke-width="6.48"/>
<line x1="258.323828" y1="1457.437414" x2="258.323828" y2="1882.943946" stroke="black" stroke-width="6.48"/>
<line x1="258.323828" y1="1882.943946" x2="334.430687" y2="1882.943946" stroke="black" stroke-width="6.48"/>
<line x1="334.430687" y1="1863.05238" x2="360.376207" y2="1863.05238" stroke="black" stroke-width="6.48"/>
<line x1="360.376207" y1="1863.05238" x2="360.376207" y2="1478.193829" stroke="black" stroke-width="6.48"/>
<line x1="334.430687" y1="1478.193829" x2="360.376207" y2="1478.193829" stroke="black" stroke-width="6.48"/>
<line x1="2747.905531" y1="904.670665" x2="2721.68303" y2="904.670665" stroke="black" stroke-width="6.48"/>
<line x1="2721.68303" y1="904.670665" x2="2721.68303" y2="955.836522" stroke="black" stroke-width="6.48"/>
<line x1="2721.68303" y1="955.836522" x2="2747.905531" y2="955.836522" stroke="black" stroke-width="6.48"/>
<line x1="2747.905531" y1="955.836522" x2="2747.905531" y2="904.670665" stroke="black" stroke-width="6.48"/>
<line x1="2465.214181" y1="955.836522" x2="2465.214181" y2="1211.026223" stroke="black" stroke-width="6.48"/>
<line x1="2464.574609" y1="903.39152" x2="2438.352108" y2="903.39152" stroke="black" stroke-width="6.48"/>
<line x1="2438.352108" y1="903.39152" x2="2438.352108" y2="954.557374" stroke="black" stroke-width="6.48"/>
<line x1="2438.352108" y1="954.557374" x2="2464.574609" y2="954.557374" stroke="black" stroke-width="6.48"/>
<line x1="2464.574609" y1="954.557374" x2="2464.574609" y2="903.39152" stroke="black" stroke-width="6.48"/>
<path d="m 2721.68303,953.917801 a 256.4688490000001,256.4688490000001 0 0 1 -256.4688490000003,256.46884899999986" fill="none" stroke="black" stroke-width="6.48"/>
<line x1="2420.532389" y1="1427.858834" x2="2395.136725" y2="1427.858834" stroke="black" stroke-width="6.48"/>
<line x1="2395.136725" y1="1427.858834" x2="2395.136725" y2="1477.411351" stroke="black" stroke-width="6.48"/>
<line x1="2395.136725" y1="1477.411351" x2="2420.532389" y2="1477.411351" stroke="black" stroke-width="6.48"/>
<line x1="2420.532389" y1="1477.411351" x2="2420.532389" y2="1427.858834" stroke="black" stroke-width="6.48"/>
<line x1="2146.754732" y1="1477.411351" x2="2146.754732" y2="1724.554534" stroke="black" stroke-width="6.48"/>
<line x1="2146.135324" y1="1426.62002" x2="2120.73966" y2="1426.62002" stroke="black" stroke-width="6.48"/>
<line x1="2120.73966" y1="1426.62002" x2="2120.73966" y2="1476.172537" stroke="black" stroke-width="6.48"/>
<line x1="2120.73966" y1="1476.172537" x2="2146.135324" y2="1476.172537" stroke="black" stroke-width="6.48"/>
<line x1="2146.135324" y1="1476.172537" x2="2146.135324" y2="1426.62002" stroke="black" stroke-width="6.48"/>
<path d="m 2395.136725,1475.553132 a 248.38199299999997,248.38199299999997 0 0 1 -248.38199299999997,248.38199299999997" fill="none" stroke="black" stroke-width="6.48"/>
<line x1="457.871249" y1="692.136151" x2="850.703249" y2="692.136151" stroke="black" stroke-width="6.48"/>
<line x1="850.703249" y1="692.136151" x2="850.703249" y2="507.600151" stroke="black" stroke-width="6.48"/>
<line x1="850.703249" y1="507.600151" x2="457.871249" y2="507.600151" stroke="black" stroke-width="6.48"/>
<line x1="457.871249" y1="507.600151" x2="457.871249" y2="692.136151" stroke="black" stroke-width="6.48"/>
<line x1="617.063249" y1="507.600151" x2="617.063249" y2="426.816151" stroke="black" stroke-width="6.48"/>
<line x1="617.063249" y1="426.816151" x2="538.655249" y2="426.816151" stroke="black" stroke-width="6.48"/>
<line x1="538.655249" y1="426.816151" x2="538.655249" y2="507.600151" stroke="black" stroke-width="6.48"/>
<line x1="539.447249" y1="444.240151" x2="617.063249" y2="444.240151" stroke="black" stroke-width="6.48"/>
<line x1="538.655249" y1="773.712151" x2="617.063249" y2="773.712151" stroke="black" stroke-width="6.48"/>
<line x1="617.063249" y1="773.712151" x2="617.063249" y2="692.136151" stroke="black" stroke-width="6.48"/>
<line x1="538.655249" y1="692.136151" x2="538.655249" y2="773.712151" stroke="black" stroke-width="6.48"/>
<line x1="539.447249" y1="756.288151" x2="617.063249" y2="756.288151" stroke="black" stroke-width="6.48"/>
<line x1="768.335249" y1="507.600151" x2="768.335249" y2="426.816151" stroke="black" stroke-width="6.48"/>
<line x1="768.335249" y1="426.816151" x2="689.927249" y2="426.816151" stroke="black" stroke-width="6.48"/>
<line x1="689.927249" y1="426.816151" x2="689.927249" y2="507.600151" stroke="black" stroke-width="6.48"/>
<line x1="689.927249" y1="444.240151" x2="768.335249" y2="444.240151" stroke="black" stroke-width="6.48"/>
<line x1="689.927249" y1="773.712151" x2="768.335249" y2="773.712151" stroke="black" stroke-width="6.48"/>
<line x1="768.335249" y1="773.712151" x2="768.335249" y2="692.136151" stroke="black" stroke-width="6.48"/>
<line x1="689.927249" y1="692.136151" x2="689.927249" y2="773.712151" stroke="black" stroke-width="6.48"/>
<line x1="689.927249" y1="756.288151" x2="768.335249" y2="756.288151" stroke="black" stroke-width="6.48"/>
<line x1="2032.924367" y1="1987.972355" x2="2032.924367" y2="1957.084355" stroke="black" stroke-width="6.48"/>
<line x1="2032.924367" y1="1957.084355" x2="1823.361167" y2="1957.084355" stroke="black" stroke-width="6.48"/>
<line x1="1823.361167" y1="1957.084355" x2="1823.361167" y2="1987.972355" stroke="black" stroke-width="6.48"/>
<line x1="1823.361167" y1="1987.972355" x2="2032.924367" y2="1987.972355" stroke="black" stroke-width="6.48"/>
<line x1="2032.924367" y1="1784.111555" x2="2032.924367" y2="1753.223555" stroke="black" stroke-width="6.48"/>
<line x1="2032.924367" y1="1753.223555" x2="1823.361167" y2="1753.223555" stroke="black" stroke-width="6.48"/>
<line x1="1823.361167" y1="1753.223555" x2="1823.361167" y2="1784.111555" stroke="black" stroke-width="6.48"/>
<line x1="1823.361167" y1="1784.111555" x2="2032.924367" y2="1784.111555" stroke="black" stroke-width="6.48"/>
<line x1="2032.924367" y1="1957.559555" x2="2032.924367" y2="1784.111555" stroke="black" stroke-width="6.48"/>
<line x1="1824.311567" y1="1958.034755" x2="1798.175567" y2="1931.423555" stroke="black" stroke-width="6.48"/>
<line x1="1798.175567" y1="1810.247555" x2="1824.311567" y2="1783.636355" stroke="black" stroke-width="6.48"/>
<line x1="1798.175567" y1="1933.324355" x2="1798.175567" y2="1808.346755" stroke="black" stroke-width="6.48"/>
<line x1="1988.255567" y1="1957.084355" x2="1988.255567" y2="1783.636355" stroke="black" stroke-width="6.48"/>
<line x1="1485.415969" y1="209.267824" x2="1707.693134" y2="209.267824" stroke="black" stroke-width="6.48"/>
<line x1="1707.693134" y1="209.267824" x2="1707.693134" y2="432.000475" stroke="black" stroke-width="6.48"/>
<line x1="1707.693134" y1="432.000475" x2="1485.415969" y2="432.000475" stroke="black" stroke-width="6.48"/>
<line x1="1485.415969" y1="432.000475" x2="1485.415969" y2="209.267824" stroke="black" stroke-width="6.48"/>
<line x1="1484.960483" y1="208.812337" x2="1707.693134" y2="432.000475" stroke="black" stroke-width="6.48"/>
<line x1="1485.415969" y1="431.544989" x2="1707.237648" y2="209.267824" stroke="black" stroke-width="6.48"/>
<line x1="2586.780558" y1="1803.366338" x2="2586.780558" y2="2194.614338" stroke="black" stroke-width="6.48"/>
<line x1="2586.780558" y1="2194.614338" x2="2761.020558" y2="2194.614338" stroke="black" stroke-width="6.48"/>
<line x1="2761.020558" y1="2194.614338" x2="2761.020558" y2="1803.366338" stroke="black" stroke-width="6.48"/>
<line x1="2761.020558" y1="1803.366338" x2="2586.780558" y2="1803.366338" stroke="black" stroke-width="6.48"/>
<line x1="2734.092558" y1="2119.374338" x2="2734.092558" y2="1835.046338" stroke="black" stroke-width="6.48"/>
<line x1="2734.092558" y1="1835.046338" x2="2616.084558" y2="1835.046338" stroke="black" stroke-width="6.48"/>
<line x1="2616.084558" y1="1835.046338" x2="2616.084558" y2="2124.918338" stroke="black" stroke-width="6.48"/>
<path d="m 2734.347982,2118.563766 a 63.35999941905905,63.35999941905905 0 0 1 -119.37432999999965,4.2938139999996565" fill="none" stroke="black" stroke-width="6.48"/>
<line x1="2081.191669" y1="1898.342986" x2="2056.639669" y2="1916.954986" stroke="black" stroke-width="6.48"/>
<line x1="2056.639669" y1="1916.954986" x2="2056.639669" y2="2064.266986" stroke="black" stroke-width="6.48"/>
<line x1="2056.639669" y1="2064.266986" x2="2084.755669" y2="2083.274986" stroke="black" stroke-width="6.48"/>
<line x1="2083.963669" y1="1920.122986" x2="2083.963669" y2="2063.078986" stroke="black" stroke-width="6.48"/>
<circle cx="2105.743669" cy="1989.422986" r="13.068000000000003" fill="none" stroke="black" stroke-width="6.48"/>
<path d="m 2083.296323,1921.676238 a 74.8440000678094,74.8440000678094 0 1 1 0.40204799999992247,139.6090039999999" fill="none" stroke="black" stroke-width="6.48"/>
<path d="m 2080.534306,1898.389289 a 95.43599857690593,95.43599857690593 0 1 1 3.0749580000001515,184.466995" fill="none" stroke="black" stroke-width="6.48"/>
<line x1="508.154868" y1="210.148045" x2="901.39874" y2="210.148045" stroke="black" stroke-width="6.48"/>
<line x1="905.354147" y1="209.151763" x2="905.354147" y2="345.220538" stroke="black" stroke-width="6.48"/>
<line x1="508.619257" y1="346.372045" x2="905.659488" y2="346.372045" stroke="black" stroke-width="6.48"/>
<line x1="509.354147" y1="210.842795" x2="509.354147" y2="346.106851" stroke="black" stroke-width="6.48"/>
<line x1="519.650147" y1="221.236045" x2="643.202147" y2="221.236045" stroke="black" stroke-width="6.48"/>
<line x1="643.202147" y1="221.236045" x2="643.202147" y2="335.284045" stroke="black" stroke-width="6.48"/>
<line x1="519.650147" y1="335.284045" x2="643.202147" y2="335.284045" stroke="black" stroke-width="6.48"/>
<line x1="519.650147" y1="221.236045" x2="519.650147" y2="335.284045" stroke="black" stroke-width="6.48"/>
<line x1="662.210147" y1="228.364045" x2="749.330147" y2="228.364045" stroke="black" stroke-width="6.48"/>
<line x1="662.210147" y1="248.164045" x2="749.330147" y2="248.164045" stroke="black" stroke-width="6.48"/>
<line x1="663.002147" y1="268.756045" x2="749.330147" y2="268.756045" stroke="black" stroke-width="6.48"/>
<line x1="663.002147" y1="288.556045" x2="749.330147" y2="288.556045" stroke="black" stroke-width="6.48"/>
<line x1="662.210147" y1="308.356045" x2="749.330147" y2="308.356045" stroke="black" stroke-width="6.48"/>
<line x1="662.210147" y1="328.156045" x2="749.330147" y2="328.156045" stroke="black" stroke-width="6.48"/>
<line x1="567.170147" y1="334.492045" x2="567.170147" y2="321.028045" stroke="black" stroke-width="6.48"/>
<line x1="567.170147" y1="321.028045" x2="597.266147" y2="321.028045" stroke="black" stroke-width="6.48"/>
<line x1="597.266147" y1="321.028045" x2="597.266147" y2="333.700045" stroke="black" stroke-width="6.48"/>
<line x1="769.922147" y1="221.236045" x2="893.474147" y2="221.236045" stroke="black" stroke-width="6.48"/>
<line x1="893.474147" y1="221.236045" x2="893.474147" y2="335.284045" stroke="black" stroke-width="6.48"/>
<line x1="769.922147" y1="335.284045" x2="893.474147" y2="335.284045" stroke="black" stroke-width="6.48"/>
<line x1="769.922147" y1="221.236045" x2="769.922147" y2="335.284045" stroke="black" stroke-width="6.48"/>
<line x1="817.442147" y1="335.284045" x2="817.442147" y2="321.820045" stroke="black" stroke-width="6.48"/>
<line x1="817.442147" y1="321.820045" x2="847.538147" y2="321.820045" stroke="black" stroke-width="6.48"/>
<line x1="847.538147" y1="321.820045" x2="847.538147" y2="334.492045" stroke="black" stroke-width="6.48"/>
<circle cx="628.946147" cy="235.492045" r="7.128000000000001" fill="none" stroke="black" stroke-width="6.48"/>
<circle cx="879.218147" cy="236.284045" r="7.128000000000001" fill="none" stroke="black" stroke-width="6.48"/>
<line x1="802.562882" y1="1375.416976" x2="1176.168319" y2="1254.025213" stroke="black" stroke-width="6.48"/>
<line x1="1176.168319" y1="1254.025213" x2="1119.14356" y2="1078.521044" stroke="black" stroke-width="6.48"/>
<line x1="1119.14356" y1="1078.521044" x2="745.538123" y2="1199.91281" stroke="black" stroke-width="6.48"/>
<line x1="745.538123" y1="1199.91281" x2="802.562882" y2="1375.416976" stroke="black" stroke-width="6.48"/>
<line x1="896.938711" y1="1150.719779" x2="871.975084" y2="1073.889626" stroke="black" stroke-width="6.48"/>
<line x1="871.975084" y1="1073.889626" x2="797.404644" y2="1098.119034" stroke="black" stroke-width="6.48"/>
<line x1="797.404644" y1="1098.119034" x2="822.368272" y2="1174.949179" stroke="black" stroke-width="6.48"/>
<line x1="803.542194" y1="1114.445502" x2="877.359395" y2="1090.460837" stroke="black" stroke-width="6.48"/>
<line x1="904.601401" y1="1428.036732" x2="979.171841" y2="1403.807332" stroke="black" stroke-width="6.48"/>
<line x1="979.171841" y1="1403.807332" x2="953.963471" y2="1326.223944" stroke="black" stroke-width="6.48"/>
<line x1="879.393031" y1="1350.453348" x2="904.601401" y2="1428.036732" stroke="black" stroke-width="6.48"/>
<line x1="899.970329" y1="1411.220783" x2="973.78753" y2="1387.236121" stroke="black" stroke-width="6.48"/>
<line x1="1040.806933" y1="1103.97416" x2="1015.843302" y2="1027.144008" stroke="black" stroke-width="6.48"/>
<line x1="1015.843302" y1="1027.144008" x2="941.272862" y2="1051.373412" stroke="black" stroke-width="6.48"/>
<line x1="941.272862" y1="1051.373412" x2="966.236494" y2="1128.203561" stroke="black" stroke-width="6.48"/>
<line x1="946.657177" y1="1067.944622" x2="1021.227617" y2="1043.715218" stroke="black" stroke-width="6.48"/>
<line x1="1048.469623" y1="1381.291114" x2="1123.040063" y2="1357.061713" stroke="black" stroke-width="6.48"/>
<line x1="1123.040063" y1="1357.061713" x2="1097.831693" y2="1279.478322" stroke="black" stroke-width="6.48"/>
<line x1="1023.261253" y1="1303.70773" x2="1048.469623" y2="1381.291114" stroke="black" stroke-width="6.48"/>
<line x1="1043.085312" y1="1364.719907" x2="1117.655752" y2="1340.490503" stroke="black" stroke-width="6.48"/>
<line x1="2044.889399" y1="955.822399" x2="2267.166564" y2="955.822399" stroke="black" stroke-width="6.48"/>
<line x1="2267.166564" y1="955.822399" x2="2267.166564" y2="1178.555051" stroke="black" stroke-width="6.48"/>
<line x1="2267.166564" y1="1178.555051" x2="2044.889399" y2="1178.555051" stroke="black" stroke-width="6.48"/>
<line x1="2044.889399" y1="1178.555051" x2="2044.889399" y2="955.822399" stroke="black" stroke-width="6.48"/>
<line x1="2044.433912" y1="955.366913" x2="2267.166564" y2="1178.555051" stroke="black" stroke-width="6.48"/>
<line x1="2044.889399" y1="1178.099564" x2="2266.711078" y2="955.822399" stroke="black" stroke-width="6.48"/>
<line x1="323.258818" y1="1375.374532" x2="323.258818" y2="949.841089" stroke="black" stroke-width="6.48"/>
<line x1="323.258818" y1="949.841089" x2="257.659344" y2="949.841089" stroke="black" stroke-width="6.48"/>
<line x1="257.659344" y1="949.841089" x2="257.659344" y2="1375.374532" stroke="black" stroke-width="6.48"/>
<line x1="257.659344" y1="1375.374532" x2="323.258818" y2="1375.374532" stroke="black" stroke-width="6.48"/>
<line x1="258.522494" y1="1335.669588" x2="322.395667" y2="1335.669588" stroke="black" stroke-width="6.48"/>
<line x1="258.522494" y1="990.409187" x2="324.985122" y2="990.409187" stroke="black" stroke-width="6.48"/>
<line x1="288.73278" y1="1336.532738" x2="288.73278" y2="991.272337" stroke="black" stroke-width="6.48"/>
<line x1="3874.406537" y1="1514.726719" x2="3874.406537" y2="1940.260162" stroke="black" stroke-width="6.48"/>
<line x1="3874.406537" y1="1940.260162" x2="3940.00601" y2="1940.260162" stroke="black" stroke-width="6.48"/>
<line x1="3940.00601" y1="1940.260162" x2="3940.00601" y2="1514.726719" stroke="black" stroke-width="6.48"/>
<line x1="3940.00601" y1="1514.726719" x2="3874.406537" y2="1514.726719" stroke="black" stroke-width="6.48"/>
<line x1="3939.14286" y1="1554.431663" x2="3875.269687" y2="1554.431663" stroke="black" stroke-width="6.48"/>
<line x1="3939.14286" y1="1899.692064" x2="3872.680232" y2="1899.692064" stroke="black" stroke-width="6.48"/>
<line x1="3908.932574" y1="1553.568512" x2="3908.932574" y2="1898.828914" stroke="black" stroke-width="6.48"/>
<line x1="4910.851908" y1="2014.042324" x2="4947.265145" y2="1887.054271" stroke="black" stroke-width="6.48"/>
<line x1="4947.265145" y1="1887.054271" x2="4960.96889" y2="1890.983758" stroke="black" stroke-width="6.48"/>
<line x1="4924.555654" y1="2017.97181" x2="4960.96889" y2="1890.983758" stroke="black" stroke-width="6.48"/>
<line x1="4910.851908" y1="2014.042324" x2="4924.555654" y2="2017.97181" stroke="black" stroke-width="6.48"/>
<line x1="4928.223175" y1="2005.181647" x2="4957.847485" y2="2015.653684" stroke="black" stroke-width="6.48"/>
<line x1="4957.301372" y1="1903.773924" x2="4988.887128" y2="1910.85359" stroke="black" stroke-width="6.48"/>
<line x1="5353.939717" y1="2141.095709" x2="5390.352958" y2="2014.107656" stroke="black" stroke-width="6.48"/>
<line x1="5390.352958" y1="2014.107656" x2="5377.562791" y2="2010.440135" stroke="black" stroke-width="6.48"/>
<line x1="5341.149554" y1="2137.428191" x2="5377.562791" y2="2010.440135" stroke="black" stroke-width="6.48"/>
<line x1="5353.939717" y1="2141.095709" x2="5341.149554" y2="2137.428191" stroke="black" stroke-width="6.48"/>
<line x1="5342.727942" y1="2125.027678" x2="5312.055766" y2="2118.209972" stroke="black" stroke-width="6.48"/>
<line x1="5371.806139" y1="2023.619954" x2="5341.530215" y2="2011.972363" stroke="black" stroke-width="6.48"/>
<line x1="5150.373134" y1="1775.238048" x2="5146.443644" y2="1788.941794" stroke="black" stroke-width="6.48"/>
<line x1="5146.443644" y1="1788.941794" x2="5273.4317" y2="1825.355034" stroke="black" stroke-width="6.48"/>
<line x1="5277.361187" y1="1811.651285" x2="5273.4317" y2="1825.355034" stroke="black" stroke-width="6.48"/>
<line x1="5150.373134" y1="1775.238048" x2="5277.361187" y2="1811.651285" stroke="black" stroke-width="6.48"/>
<line x1="5259.727951" y1="1821.425548" x2="5253.561868" y2="1853.273272" stroke="black" stroke-width="6.48"/>
<line x1="5159.233811" y1="1792.609319" x2="5148.499806" y2="1823.147208" stroke="black" stroke-width="6.48"/>
<line x1="5022.668131" y1="2217.150313" x2="5026.597614" y2="2203.446568" stroke="black" stroke-width="6.48"/>
<line x1="5026.597614" y1="2203.446568" x2="5153.585666" y2="2239.859804" stroke="black" stroke-width="6.48"/>
<line x1="5149.656184" y1="2253.56355" x2="5153.585666" y2="2239.859804" stroke="black" stroke-width="6.48"/>
<line x1="5022.668131" y1="2217.150313" x2="5149.656184" y2="2253.56355" stroke="black" stroke-width="6.48"/>
<line x1="5139.881921" y1="2235.930314" x2="5151.529508" y2="2205.65439" stroke="black" stroke-width="6.48"/>
<line x1="5039.38778" y1="2207.114086" x2="5046.46745" y2="2175.52833" stroke="black" stroke-width="6.48"/>
<circle cx="5150.014657" cy="2014.400801" r="191.98080000000002" fill="none" stroke="black" stroke-width="6.48"/>
<line x1="3050.303623" y1="1074.138422" x2="3259.668827" y2="1074.138422" stroke="black" stroke-width="6.48"/>
<line x1="3259.668827" y1="1074.138422" x2="3259.668827" y2="742.924019" stroke="black" stroke-width="6.48"/>
<line x1="3259.668827" y1="742.924019" x2="3050.303623" y2="742.924019" stroke="black" stroke-width="6.48"/>
<line x1="3050.303623" y1="742.924019" x2="3050.303623" y2="1074.138422" stroke="black" stroke-width="6.48"/>
<line x1="3049.630423" y1="802.165619" x2="3260.342023" y2="802.165619" stroke="black" stroke-width="6.48"/>
<line x1="3260.342023" y1="802.165619" x2="3050.976823" y2="851.982422" stroke="black" stroke-width="6.48"/>
<line x1="3050.976823" y1="851.982422" x2="3082.617227" y2="898.433222" stroke="black" stroke-width="6.48"/>
<line x1="3082.617227" y1="898.433222" x2="3260.342023" y2="801.492422" stroke="black" stroke-width="6.48"/>
<line x1="3489.487834" y1="1202.812254" x2="3711.764999" y2="1202.812254" stroke="black" stroke-width="6.48"/>
<line x1="3711.764999" y1="1202.812254" x2="3711.764999" y2="1425.544906" stroke="black" stroke-width="6.48"/>
<line x1="3711.764999" y1="1425.544906" x2="3489.487834" y2="1425.544906" stroke="black" stroke-width="6.48"/>
<line x1="3489.487834" y1="1425.544906" x2="3489.487834" y2="1202.812254" stroke="black" stroke-width="6.48"/>
<line x1="3489.032347" y1="1202.356768" x2="3711.764999" y2="1425.544906" stroke="black" stroke-width="6.48"/>
<line x1="3489.487834" y1="1425.089419" x2="3711.309512" y2="1202.812254" stroke="black" stroke-width="6.48"/>
<line x1="2804.16708" y1="1127.69402" x2="2804.16708" y2="1153.148746" stroke="black" stroke-width="6.48"/>
<line x1="2804.16708" y1="1153.148746" x2="2853.834836" y2="1153.148746" stroke="black" stroke-width="6.48"/>
<line x1="2853.834836" y1="1153.148746" x2="2853.834836" y2="1127.69402" stroke="black" stroke-width="6.48"/>
<line x1="2853.834836" y1="1127.69402" x2="2804.16708" y2="1127.69402" stroke="black" stroke-width="6.48"/>
<line x1="2853.834836" y1="1402.108373" x2="3101.55277" y2="1402.108373" stroke="black" stroke-width="6.48"/>
<line x1="2802.925386" y1="1402.729218" x2="2802.925386" y2="1428.183943" stroke="black" stroke-width="6.48"/>
<line x1="2802.925386" y1="1428.183943" x2="2852.593142" y2="1428.183943" stroke="black" stroke-width="6.48"/>
<line x1="2852.593142" y1="1428.183943" x2="2852.593142" y2="1402.729218" stroke="black" stroke-width="6.48"/>
<line x1="2852.593142" y1="1402.729218" x2="2802.925386" y2="1402.729218" stroke="black" stroke-width="6.48"/>
<path d="m 2851.972294,1153.148746 a 248.95962699999984,248.95962699999984 0 0 1 248.95962699999973,248.95962699999995" fill="none" stroke="black" stroke-width="6.48"/>
<line x1="3399.609841" y1="1731.876296" x2="3617.522305" y2="1652.562644" stroke="black" stroke-width="6.48"/>
<line x1="3617.522305" y1="1652.562644" x2="3696.998486" y2="1870.921652" stroke="black" stroke-width="6.48"/>
<line x1="3696.998486" y1="1870.921652" x2="3479.086022" y2="1950.235304" stroke="black" stroke-width="6.48"/>
<line x1="3479.086022" y1="1950.235304" x2="3399.609841" y2="1731.876296" stroke="black" stroke-width="6.48"/>
<line x1="3399.000775" y1="1731.592282" x2="3696.998486" y2="1870.921652" stroke="black" stroke-width="6.48"/>
<line x1="3478.923493" y1="1949.78876" x2="3617.075765" y2="1652.725174" stroke="black" stroke-width="6.48"/>
<line x1="3122.190896" y1="1589.315882" x2="3101.926547" y2="1612.627351" stroke="black" stroke-width="6.48"/>
<line x1="3101.926547" y1="1612.627351" x2="3260.085901" y2="1750.113184" stroke="black" stroke-width="6.48"/>
<line x1="3260.085901" y1="1750.113184" x2="3280.350251" y2="1726.801711" stroke="black" stroke-width="6.48"/>
<line x1="3280.350251" y1="1726.801711" x2="3122.190896" y2="1589.315882" stroke="black" stroke-width="6.48"/>
<line x1="2988.446177" y1="1743.171581" x2="2968.181827" y2="1766.48305" stroke="black" stroke-width="6.48"/>
<line x1="2968.181827" y1="1766.48305" x2="3126.341182" y2="1903.968882" stroke="black" stroke-width="6.48"/>
<line x1="3126.341182" y1="1903.968882" x2="3146.605531" y2="1880.65741" stroke="black" stroke-width="6.48"/>
<line x1="3146.605531" y1="1880.65741" x2="2988.446177" y2="1743.171581" stroke="black" stroke-width="6.48"/>
<line x1="3102.238307" y1="1612.268716" x2="2988.446177" y2="1743.171581" stroke="black" stroke-width="6.48"/>
<line x1="3259.992143" y1="1748.772385" x2="3262.258714" y2="1786.002872" stroke="black" stroke-width="6.48"/>
<line x1="3182.760104" y1="1877.455559" x2="3145.576496" y2="1880.392529" stroke="black" stroke-width="6.48"/>
<line x1="3263.50575" y1="1784.568323" x2="3181.513064" y2="1878.890116" stroke="black" stroke-width="6.48"/>
<line x1="3135.638516" y1="1641.932723" x2="3021.84639" y2="1772.835588" stroke="black" stroke-width="6.48"/>
<line x1="1291.169102" y1="1989.534326" x2="1314.830675" y2="2009.388755" stroke="black" stroke-width="6.48"/>
<line x1="1314.830675" y1="2009.388755" x2="1449.535342" y2="1848.854059" stroke="black" stroke-width="6.48"/>
<line x1="1449.535342" y1="1848.854059" x2="1425.873766" y2="1828.999634" stroke="black" stroke-width="6.48"/>
<line x1="1425.873766" y1="1828.999634" x2="1291.169102" y2="1989.534326" stroke="black" stroke-width="6.48"/>
<line x1="1447.3355" y1="2120.573563" x2="1470.997076" y2="2140.427988" stroke="black" stroke-width="6.48"/>
<line x1="1470.997076" y1="2140.427988" x2="1605.701743" y2="1979.893296" stroke="black" stroke-width="6.48"/>
<line x1="1605.701743" y1="1979.893296" x2="1582.040167" y2="1960.038868" stroke="black" stroke-width="6.48"/>
<line x1="1582.040167" y1="1960.038868" x2="1447.3355" y2="2120.573563" stroke="black" stroke-width="6.48"/>
<line x1="1314.466646" y1="2009.083306" x2="1447.3355" y2="2120.573563" stroke="black" stroke-width="6.48"/>
<line x1="1448.19639" y1="1848.971203" x2="1485.38165" y2="1846.055225" stroke="black" stroke-width="6.48"/>
<line x1="1578.20783" y1="1923.945678" x2="1581.79329" y2="1961.07237" stroke="black" stroke-width="6.48"/>
<line x1="1483.925555" y1="1844.833417" x2="1579.663926" y2="1925.167493" stroke="black" stroke-width="6.48"/>
<line x1="1343.543234" y1="1975.170478" x2="1476.412081" y2="2086.660732" stroke="black" stroke-width="6.48"/>
<line x1="1058.172494" y1="210.338244" x2="1328.719694" y2="210.338244" stroke="black" stroke-width="6.48"/>
<line x1="1328.719694" y1="210.338244" x2="1328.719694" y2="342.285444" stroke="black" stroke-width="6.48"/>
<line x1="1058.172494" y1="342.285444" x2="1328.719694" y2="342.285444" stroke="black" stroke-width="6.48"/>
<line x1="1058.172494" y1="210.338244" x2="1058.172494" y2="342.285444" stroke="black" stroke-width="6.48"/>
<line x1="1064.825294" y1="216.991044" x2="1202.870894" y2="216.991044" stroke="black" stroke-width="6.48"/>
<line x1="1202.870894" y1="216.991044" x2="1202.870894" y2="335.078244" stroke="black" stroke-width="6.48"/>
<line x1="1064.825294" y1="335.078244" x2="1202.870894" y2="335.078244" stroke="black" stroke-width="6.48"/>
<line x1="1064.825294" y1="216.991044" x2="1064.825294" y2="335.078244" stroke="black" stroke-width="6.48"/>
<line x1="1217.285294" y1="224.752644" x2="1314.305294" y2="224.752644" stroke="black" stroke-width="6.48"/>
<line x1="1217.285294" y1="245.265444" x2="1314.305294" y2="245.265444" stroke="black" stroke-width="6.48"/>
<line x1="1217.839694" y1="266.332644" x2="1314.859694" y2="266.332644" stroke="black" stroke-width="6.48"/>
<line x1="1217.839694" y1="286.845444" x2="1314.859694" y2="286.845444" stroke="black" stroke-width="6.48"/>
<line x1="1217.285294" y1="307.358244" x2="1314.305294" y2="307.358244" stroke="black" stroke-width="6.48"/>
<line x1="1217.285294" y1="327.871044" x2="1314.305294" y2="327.871044" stroke="black" stroke-width="6.48"/>
<line x1="1117.493294" y1="335.078244" x2="1117.493294" y2="321.218244" stroke="black" stroke-width="6.48"/>
<line x1="1117.493294" y1="321.218244" x2="1151.866094" y2="321.218244" stroke="black" stroke-width="6.48"/>
<line x1="1151.866094" y1="321.218244" x2="1151.866094" y2="334.523844" stroke="black" stroke-width="6.48"/>
<circle cx="1187.347694" cy="231.959844" r="8.316000000000003" fill="none" stroke="black" stroke-width="6.48"/>
<line x1="5609.317954" y1="1388.030368" x2="5616.615017" y2="1596.991" stroke="black" stroke-width="6.48"/>
<line x1="5616.615017" y1="1596.991" x2="5848.371353" y2="1588.89789" stroke="black" stroke-width="6.48"/>
<line x1="5848.371353" y1="1588.89789" x2="5841.074286" y2="1379.937258" stroke="black" stroke-width="6.48"/>
<line x1="5841.074286" y1="1379.937258" x2="5609.317954" y2="1388.030368" stroke="black" stroke-width="6.48"/>
<line x1="5641.611869" y1="1386.902639" x2="5648.908932" y2="1595.863271" stroke="black" stroke-width="6.48"/>
<line x1="3819.610505" y1="1149.082661" x2="3822.30257" y2="1118.312197" stroke="black" stroke-width="6.48"/>
<line x1="3822.30257" y1="1118.312197" x2="3613.536821" y2="1100.047561" stroke="black" stroke-width="6.48"/>
<line x1="3613.536821" y1="1100.047561" x2="3610.844759" y2="1130.818025" stroke="black" stroke-width="6.48"/>
<line x1="3610.844759" y1="1130.818025" x2="3819.610505" y2="1149.082661" stroke="black" stroke-width="6.48"/>
<line x1="3837.378146" y1="945.99761" x2="3840.070212" y2="915.22715" stroke="black" stroke-width="6.48"/>
<line x1="3840.070212" y1="915.22715" x2="3631.304462" y2="896.962511" stroke="black" stroke-width="6.48"/>
<line x1="3631.304462" y1="896.962511" x2="3628.612393" y2="927.732974" stroke="black" stroke-width="6.48"/>
<line x1="3628.612393" y1="927.732974" x2="3837.378146" y2="945.99761" stroke="black" stroke-width="6.48"/>
<line x1="3822.261152" y1="1118.78559" x2="3837.378146" y2="945.99761" stroke="black" stroke-width="6.48"/>
<line x1="3614.400774" y1="1101.077176" x2="3590.683546" y2="1072.28934" stroke="black" stroke-width="6.48"/>
<line x1="3601.244732" y1="951.57445" x2="3629.600597" y2="927.342418" stroke="black" stroke-width="6.48"/>
<line x1="3590.517884" y1="1074.182908" x2="3601.410397" y2="949.680882" stroke="black" stroke-width="6.48"/>
<line x1="3777.803752" y1="1114.419053" x2="3792.920738" y2="941.63108" stroke="black" stroke-width="6.48"/>
<line x1="6438.900985" y1="2039.020848" x2="6250.670827" y2="2065.474872" stroke="black" stroke-width="6.48"/>
<line x1="6250.670827" y1="2065.474872" x2="6315.218644" y2="2524.75645" stroke="black" stroke-width="6.48"/>
<line x1="6315.218644" y1="2524.75645" x2="6503.448798" y2="2498.302426" stroke="black" stroke-width="6.48"/>
<line x1="6503.448798" y1="2498.302426" x2="6500.142047" y2="2474.773657" stroke="black" stroke-width="6.48"/>
<line x1="6500.142047" y1="2474.773657" x2="6334.499509" y2="2498.053194" stroke="black" stroke-width="6.48"/>
<line x1="6334.499509" y1="2498.053194" x2="6276.69747" y2="2086.770308" stroke="black" stroke-width="6.48"/>
<line x1="6276.69747" y1="2086.770308" x2="6442.340008" y2="2063.490772" stroke="black" stroke-width="6.48"/>
<line x1="6442.340008" y1="2063.490772" x2="6438.900985" y2="2039.020848" stroke="black" stroke-width="6.48"/>
<line x1="6436.693102" y1="2064.284392" x2="6494.495144" y2="2475.567277" stroke="black" stroke-width="6.48"/>
<line x1="6466.469137" y1="2269.322989" x2="6306.473506" y2="2291.808906" stroke="black" stroke-width="6.48"/>
</g>
</svg>
