<?xml version="1.0"?>
<svg xmlns:xlink="http://www.w3.org/1999/xlink" width="6775.2" height="2858.4">
<image x="0" y="0" width="6775.2" height="2858.4" xlink:href="groundfilled-01.png"/>
<g style="stroke-linecap:round">
<line x1="1285.950406" y1="795.178109" x2="1311.346069" y2="795.178109" stroke="black" stroke-width="6.48"/>
<line x1="1311.346069" y1="795.178109" x2="1311.346069" y2="745.625592" stroke="black" stroke-width="6.48"/>
<line x1="1311.346069" y1="745.625592" x2="1285.950406" y2="745.625592" stroke="black" stroke-width="6.48"/>
<line x1="1285.950406" y1="745.625592" x2="1285.950406" y2="795.178109" stroke="black" stroke-width="6.48"/>
<line x1="1559.728062" y1="745.625592" x2="1559.728062" y2="498.48241" stroke="black" stroke-width="6.48"/>
<line x1="1560.347471" y1="796.416923" x2="1585.743134" y2="796.416923" stroke="black" stroke-width="6.48"/>
<line x1="1585.743134" y1="796.416923" x2="1585.743134" y2="746.864406" stroke="black" stroke-width="6.48"/>
<line x1="1585.743134" y1="746.864406" x2="1560.347471" y2="746.864406" stroke="black" stroke-width="6.48"/>
<line x1="1560.347471" y1="746.864406" x2="1560.347471" y2="796.416923" stroke="black" stroke-width="6.48"/>
<path d="m 1311.346069,747.483811 a 248.38199299999997,248.38199299999997 0 0 1 248.38199299999997,-248.38199299999997" fill="none" stroke="black" stroke-width="6.48"/>
<line x1="330.523178" y1="771.328966" x2="330.523178" y2="366.748985" stroke="black" stroke-width="6.48"/>
<line x1="330.523178" y1="366.748985" x2="258.15928" y2="366.748985" stroke="black" stroke-width="6.48"/>
<line x1="258.15928" y1="366.748985" x2="258.15928" y2="771.328966" stroke="black" stroke-width="6.48"/>
<line x1="258.15928" y1="771.328966" x2="330.523178" y2="771.328966" stroke="black" stroke-width="6.48"/>
<line x1="330.523178" y1="752.415674" x2="355.19269" y2="752.415674" stroke="black" stroke-width="6.48"/>
<line x1="355.19269" y1="752.415674" x2="355.19269" y2="386.484595" stroke="black" stroke-width="6.48"/>
<line x1="330.523178" y1="386.484595" x2="355.19269" y2="386.484595" stroke="black" stroke-width="6.48"/>
<line x1="3901.945176" y1="1169.331426" x2="3901.945176" y2="1428.837066" stroke="black" stroke-width="6.48"/>
<line x1="3901.945176" y1="1428.837066" x2="3941.9501" y2="1428.837066" stroke="black" stroke-width="6.48"/>
<line x1="3941.9501" y1="1428.837066" x2="3941.9501" y2="1169.331426" stroke="black" stroke-width="6.48"/>
<line x1="3941.9501" y1="1169.331426" x2="3901.945176" y2="1169.331426" stroke="black" stroke-width="6.48"/>
<line x1="3941.423719" y1="1193.544936" x2="3902.471557" y2="1193.544936" stroke="black" stroke-width="6.48"/>
<line x1="3941.423719" y1="1404.097178" x2="3900.892414" y2="1404.097178" stroke="black" stroke-width="6.48"/>
<line x1="3923.000399" y1="1193.018555" x2="3923.000399" y2="1403.570797" stroke="black" stroke-width="6.48"/>
<line x1="334.430687" y1="1882.943946" x2="334.430687" y2="1457.437414" stroke="black" stroke-width="6.48"/>
<line x1="334.430687" y1="1457.437414" x2="258.323828" y2="1457.437414" stroke="black" stroke-width="6.48"/>
<line x1="258.323828" y1="1457.437414" x2="258.323828" y2="1882.943946" stroke="black" stroke-width="6.48"/>
<line x1="258.323828" y1="1882.943946" x2="334.430687" y2="1882.943946" stroke="black" stroke-width="6.48"/>
<line x1="334.430687" y1="1863.05238" x2="360.376207" y2="1863.05238" stroke="black" stroke-width="6.48"/>
<line x1="360.376207" y1="1863.05238" x2="360.376207" y2="1478.193829" stroke="black" stroke-width="6.48"/>
<line x1="334.430687" y1="1478.193829" x2="360.376207" y2="1478.193829" stroke="black" stroke-width="6.48"/>
<line x1="2747.905531" y1="904.670665" x2="2721.68303" y2="904.670665" stroke="black" stroke-width="6.48"/>
<line x1="2721.68303" y1="904.670665" x2="2721.68303" y2="955.836522" stroke="black" stroke-width="6.48"/>
<line x1="2721.68303" y1="955.836522" x2="2747.905531" y2="955.836522" stroke="black" stroke-width="6.48"/>
<line x1="2747.905531" y1="955.836522" x2="2747.905531" y2="904.670665" stroke="black" stroke-width="6.48"/>
<line x1="2465.214181" y1="955.836522" x2="2465.214181" y2="1211.026223" stroke="black" stroke-width="6.48"/>
<line x1="2464.574609" y1="903.39152" x2="2438.352108" y2="903.39152" stroke="black" stroke-width="6.48"/>
<line x1="2438.352108" y1="903.39152" x2="2438.352108" y2="954.557374" stroke="black" stroke-width="6.48"/>
<line x1="2438.352108" y1="954.557374" x2="2464.574609" y2="954.557374" stroke="black" stroke-width="6.48"/>
<line x1="2464.574609" y1="954.557374" x2="2464.574609" y2="903.39152" stroke="black" stroke-width="6.48"/>
<path d="m 2721.68303,953.917801 a 256.4688490000001,256.4688490000001 0 0 1 -256.4688490000003,256.46884899999986" fill="none" stroke="black" stroke-width="6.48"/>
<line x1="2420.532389" y1="1427.858834" x2="2395.136725" y2="1427.858834" stroke="black" stroke-width="6.48"/>
<line x1="2395.136725" y1="1427.858834" x2="2395.136725" y2="1477.411351" stroke="black" stroke-width="6.48"/>
<line x1="2395.136725" y1="1477.411351" x2="2420.532389" y2="1477.411351" stroke="black" stroke-width="6.48"/>
<line x1="2420.532389" y1="1477.411351" x2="2420.532389" y2="1427.858834" stroke="black" stroke-width="6.48"/>
<line x1="2146.754732" y1="1477.411351" x2="2146.754732" y2="1724.554534" stroke="black" stroke-width="6.48"/>
<line x1="2146.135324" y1="1426.62002" x2="2120.73966" y2="1426.62002" stroke="black" stroke-width="6.48"/>
<line x1="2120.73966" y1="1426.62002" x2="2120.73966" y2="1476.172537" stroke="black" stroke-width="6.48"/>
<line x1="2120.73966" y1="1476.172537" x2="2146.135324" y2="1476.172537" stroke="black" stroke-width="6.48"/>
<line x1="2146.135324" y1="1476.172537" x2="2146.135324" y2="1426.62002" stroke="black" stroke-width="6.48"/>
<path d="m 2395.136725,1475.553132 a 248.38199299999997,248.38199299999997 0 0 1 -248.38199299999997,248.38199299999997" fill="none" stroke="black" stroke-width="6.48"/>
<line x1="691.166549" y1="692.136151" x2="1083.998549" y2="692.136151" stroke="black" stroke-width="6.48"/>
<line x1="1083.998549" y1="692.136151" x2="1083.998549" y2="507.600151" stroke="black" stroke-width="6.48"/>
<line x1="1083.998549" y1="507.600151" x2="691.166549" y2="507.600151" stroke="black" stroke-width="6.48"/>
<line x1="691.166549" y1="507.600151" x2="691.166549" y2="692.136151" stroke="black" stroke-width="6.48"/>
<line x1="850.358549" y1="507.600151" x2="850.358549" y2="426.816151" stroke="black" stroke-width="6.48"/>
<line x1="850.358549" y1="426.816151" x2="771.950549" y2="426.816151" stroke="black" stroke-width="6.48"/>
<line x1="771.950549" y1="426.816151" x2="771.950549" y2="507.600151" stroke="black" stroke-width="6.48"/>
<line x1="772.742549" y1="444.240151" x2="850.358549" y2="444.240151" stroke="black" stroke-width="6.48"/>
<line x1="771.950549" y1="773.712151" x2="850.358549" y2="773.712151" stroke="black" stroke-width="6.48"/>
<line x1="850.358549" y1="773.712151" x2="850.358549" y2="692.136151" stroke="black" stroke-width="6.48"/>
<line x1="771.950549" y1="692.136151" x2="771.950549" y2="773.712151" stroke="black" stroke-width="6.48"/>
<line x1="772.742549" y1="756.288151" x2="850.358549" y2="756.288151" stroke="black" stroke-width="6.48"/>
<line x1="1001.630549" y1="507.600151" x2="1001.630549" y2="426.816151" stroke="black" stroke-width="6.48"/>
<line x1="1001.630549" y1="426.816151" x2="923.222549" y2="426.816151" stroke="black" stroke-width="6.48"/>
<line x1="923.222549" y1="426.816151" x2="923.222549" y2="507.600151" stroke="black" stroke-width="6.48"/>
<line x1="923.222549" y1="444.240151" x2="1001.630549" y2="444.240151" stroke="black" stroke-width="6.48"/>
<line x1="923.222549" y1="773.712151" x2="1001.630549" y2="773.712151" stroke="black" stroke-width="6.48"/>
<line x1="1001.630549" y1="773.712151" x2="1001.630549" y2="692.136151" stroke="black" stroke-width="6.48"/>
<line x1="923.222549" y1="692.136151" x2="923.222549" y2="773.712151" stroke="black" stroke-width="6.48"/>
<line x1="923.222549" y1="756.288151" x2="1001.630549" y2="756.288151" stroke="black" stroke-width="6.48"/>
<line x1="1842.844367" y1="2022.941516" x2="2032.924367" y2="2022.941516" stroke="black" stroke-width="6.48"/>
<line x1="2032.924367" y1="2022.941516" x2="2032.924367" y2="1559.146316" stroke="black" stroke-width="6.48"/>
<line x1="2032.924367" y1="1559.146316" x2="1842.844367" y2="1559.146316" stroke="black" stroke-width="6.48"/>
<line x1="1842.844367" y1="1559.146316" x2="1842.844367" y2="1582.906316" stroke="black" stroke-width="6.48"/>
<line x1="1842.844367" y1="1582.906316" x2="2010.114767" y2="1582.906316" stroke="black" stroke-width="6.48"/>
<line x1="2010.114767" y1="1582.906316" x2="2010.114767" y2="1998.231116" stroke="black" stroke-width="6.48"/>
<line x1="2010.114767" y1="1998.231116" x2="1842.844367" y2="1998.231116" stroke="black" stroke-width="6.48"/>
<line x1="1842.844367" y1="1998.231116" x2="1842.844367" y2="2022.941516" stroke="black" stroke-width="6.48"/>
<line x1="1848.546767" y1="1998.231116" x2="1848.546767" y2="1582.906316" stroke="black" stroke-width="6.48"/>
<line x1="1847.596367" y1="1791.043916" x2="2009.164367" y2="1791.043916" stroke="black" stroke-width="6.48"/>
<line x1="1485.415969" y1="209.267824" x2="1707.693134" y2="209.267824" stroke="black" stroke-width="6.48"/>
<line x1="1707.693134" y1="209.267824" x2="1707.693134" y2="432.000475" stroke="black" stroke-width="6.48"/>
<line x1="1707.693134" y1="432.000475" x2="1485.415969" y2="432.000475" stroke="black" stroke-width="6.48"/>
<line x1="1485.415969" y1="432.000475" x2="1485.415969" y2="209.267824" stroke="black" stroke-width="6.48"/>
<line x1="1484.960483" y1="208.812337" x2="1707.693134" y2="432.000475" stroke="black" stroke-width="6.48"/>
<line x1="1485.415969" y1="431.544989" x2="1707.237648" y2="209.267824" stroke="black" stroke-width="6.48"/>
<line x1="2761.020558" y1="2194.614338" x2="2761.020558" y2="1803.366338" stroke="black" stroke-width="6.48"/>
<line x1="2761.020558" y1="1803.366338" x2="2586.780558" y2="1803.366338" stroke="black" stroke-width="6.48"/>
<line x1="2586.780558" y1="1803.366338" x2="2586.780558" y2="2194.614338" stroke="black" stroke-width="6.48"/>
<line x1="2586.780558" y1="2194.614338" x2="2761.020558" y2="2194.614338" stroke="black" stroke-width="6.48"/>
<line x1="2613.708558" y1="1878.606338" x2="2613.708558" y2="2162.934338" stroke="black" stroke-width="6.48"/>
<line x1="2613.708558" y1="2162.934338" x2="2731.716558" y2="2162.934338" stroke="black" stroke-width="6.48"/>
<line x1="2731.716558" y1="2162.934338" x2="2731.716558" y2="1873.062338" stroke="black" stroke-width="6.48"/>
<path d="m 2613.453134,1879.416911 a 63.3599990854681,63.3599990854681 0 0 1 119.3743300000001,-4.293814000000111" fill="none" stroke="black" stroke-width="6.48"/>
<line x1="2080.789139" y1="1847.624267" x2="2056.237139" y2="1866.236267" stroke="black" stroke-width="6.48"/>
<line x1="2056.237139" y1="1866.236267" x2="2056.237139" y2="2013.548267" stroke="black" stroke-width="6.48"/>
<line x1="2056.237139" y1="2013.548267" x2="2084.353139" y2="2032.556267" stroke="black" stroke-width="6.48"/>
<line x1="2083.561139" y1="1869.404267" x2="2083.561139" y2="2012.360267" stroke="black" stroke-width="6.48"/>
<circle cx="2105.341139" cy="1938.704267" r="13.068000000000003" fill="none" stroke="black" stroke-width="6.48"/>
<path d="m 2082.893792,1870.957519 a 74.84400089539017,74.84400089539017 0 1 1 0.4020480000003772,139.60900500000002" fill="none" stroke="black" stroke-width="6.48"/>
<path d="m 2080.131775,1847.67057 a 95.43599883324413,95.43599883324413 0 1 1 3.0749580000001515,184.466995" fill="none" stroke="black" stroke-width="6.48"/>
<line x1="1045.125544" y1="210.306344" x2="1315.672744" y2="210.306344" stroke="black" stroke-width="6.48"/>
<line x1="1315.672744" y1="210.306344" x2="1315.672744" y2="342.253544" stroke="black" stroke-width="6.48"/>
<line x1="1045.125544" y1="342.253544" x2="1315.672744" y2="342.253544" stroke="black" stroke-width="6.48"/>
<line x1="1045.125544" y1="210.306344" x2="1045.125544" y2="342.253544" stroke="black" stroke-width="6.48"/>
<line x1="1051.778344" y1="216.959144" x2="1189.823944" y2="216.959144" stroke="black" stroke-width="6.48"/>
<line x1="1189.823944" y1="216.959144" x2="1189.823944" y2="335.046344" stroke="black" stroke-width="6.48"/>
<line x1="1051.778344" y1="335.046344" x2="1189.823944" y2="335.046344" stroke="black" stroke-width="6.48"/>
<line x1="1051.778344" y1="216.959144" x2="1051.778344" y2="335.046344" stroke="black" stroke-width="6.48"/>
<line x1="1204.238344" y1="224.720744" x2="1301.258344" y2="224.720744" stroke="black" stroke-width="6.48"/>
<line x1="1204.238344" y1="245.233544" x2="1301.258344" y2="245.233544" stroke="black" stroke-width="6.48"/>
<line x1="1204.792744" y1="266.300744" x2="1301.812744" y2="266.300744" stroke="black" stroke-width="6.48"/>
<line x1="1204.792744" y1="286.813544" x2="1301.812744" y2="286.813544" stroke="black" stroke-width="6.48"/>
<line x1="1204.238344" y1="307.326344" x2="1301.258344" y2="307.326344" stroke="black" stroke-width="6.48"/>
<line x1="1204.238344" y1="327.839144" x2="1301.258344" y2="327.839144" stroke="black" stroke-width="6.48"/>
<line x1="1104.446344" y1="335.046344" x2="1104.446344" y2="321.186344" stroke="black" stroke-width="6.48"/>
<line x1="1104.446344" y1="321.186344" x2="1138.819144" y2="321.186344" stroke="black" stroke-width="6.48"/>
<line x1="1138.819144" y1="321.186344" x2="1138.819144" y2="334.491944" stroke="black" stroke-width="6.48"/>
<circle cx="1174.300744" cy="231.927944" r="8.316000000000003" fill="none" stroke="black" stroke-width="6.48"/>
<line x1="880.82663" y1="1405.103454" x2="1100.495498" y2="1079.430966" stroke="black" stroke-width="6.48"/>
<line x1="1100.495498" y1="1079.430966" x2="947.508221" y2="976.239745" stroke="black" stroke-width="6.48"/>
<line x1="947.508221" y1="976.239745" x2="727.839353" y2="1301.912233" stroke="black" stroke-width="6.48"/>
<line x1="727.839353" y1="1301.912233" x2="880.82663" y2="1405.103454" stroke="black" stroke-width="6.48"/>
<line x1="816.858392" y1="1169.936082" x2="749.885418" y2="1124.762245" stroke="black" stroke-width="6.48"/>
<line x1="749.885418" y1="1124.762245" x2="706.040222" y2="1189.765422" stroke="black" stroke-width="6.48"/>
<line x1="706.040222" y1="1189.765422" x2="773.013193" y2="1234.939259" stroke="black" stroke-width="6.48"/>
<line x1="720.928256" y1="1198.8522" x2="764.330573" y2="1134.50562" stroke="black" stroke-width="6.48"/>
<line x1="993.630038" y1="1383.747203" x2="1037.475238" y2="1318.744022" stroke="black" stroke-width="6.48"/>
<line x1="1037.475238" y1="1318.744022" x2="969.84567" y2="1273.127306" stroke="black" stroke-width="6.48"/>
<line x1="926.000471" y1="1338.130487" x2="993.630038" y2="1383.747203" stroke="black" stroke-width="6.48"/>
<line x1="979.627774" y1="1373.347228" x2="1023.03009" y2="1309.000651" stroke="black" stroke-width="6.48"/>
<line x1="901.448622" y1="1044.525913" x2="834.475648" y2="999.352073" stroke="black" stroke-width="6.48"/>
<line x1="834.475648" y1="999.352073" x2="790.630452" y2="1064.35525" stroke="black" stroke-width="6.48"/>
<line x1="790.630452" y1="1064.35525" x2="857.603423" y2="1109.52909" stroke="black" stroke-width="6.48"/>
<line x1="805.075603" y1="1074.098628" x2="848.920802" y2="1009.095451" stroke="black" stroke-width="6.48"/>
<line x1="1078.220268" y1="1258.33703" x2="1122.065467" y2="1193.333854" stroke="black" stroke-width="6.48"/>
<line x1="1122.065467" y1="1193.333854" x2="1054.4359" y2="1147.717134" stroke="black" stroke-width="6.48"/>
<line x1="1010.5907" y1="1212.720311" x2="1078.220268" y2="1258.33703" stroke="black" stroke-width="6.48"/>
<line x1="1063.77512" y1="1248.593652" x2="1107.620316" y2="1183.590475" stroke="black" stroke-width="6.48"/>
<line x1="2044.889399" y1="955.822399" x2="2267.166564" y2="955.822399" stroke="black" stroke-width="6.48"/>
<line x1="2267.166564" y1="955.822399" x2="2267.166564" y2="1178.555051" stroke="black" stroke-width="6.48"/>
<line x1="2267.166564" y1="1178.555051" x2="2044.889399" y2="1178.555051" stroke="black" stroke-width="6.48"/>
<line x1="2044.889399" y1="1178.555051" x2="2044.889399" y2="955.822399" stroke="black" stroke-width="6.48"/>
<line x1="2044.433912" y1="955.366913" x2="2267.166564" y2="1178.555051" stroke="black" stroke-width="6.48"/>
<line x1="2044.889399" y1="1178.099564" x2="2266.711078" y2="955.822399" stroke="black" stroke-width="6.48"/>
<line x1="333.766206" y1="1375.361078" x2="333.766206" y2="949.854546" stroke="black" stroke-width="6.48"/>
<line x1="333.766206" y1="949.854546" x2="257.659348" y2="949.854546" stroke="black" stroke-width="6.48"/>
<line x1="257.659348" y1="949.854546" x2="257.659348" y2="1375.361078" stroke="black" stroke-width="6.48"/>
<line x1="257.659348" y1="1375.361078" x2="333.766206" y2="1375.361078" stroke="black" stroke-width="6.48"/>
<line x1="333.766206" y1="1355.469512" x2="359.711726" y2="1355.469512" stroke="black" stroke-width="6.48"/>
<line x1="359.711726" y1="1355.469512" x2="359.711726" y2="970.610962" stroke="black" stroke-width="6.48"/>
<line x1="333.766206" y1="970.610962" x2="359.711726" y2="970.610962" stroke="black" stroke-width="6.48"/>
<line x1="3874.406537" y1="1514.726719" x2="3874.406537" y2="1940.260162" stroke="black" stroke-width="6.48"/>
<line x1="3874.406537" y1="1940.260162" x2="3940.00601" y2="1940.260162" stroke="black" stroke-width="6.48"/>
<line x1="3940.00601" y1="1940.260162" x2="3940.00601" y2="1514.726719" stroke="black" stroke-width="6.48"/>
<line x1="3940.00601" y1="1514.726719" x2="3874.406537" y2="1514.726719" stroke="black" stroke-width="6.48"/>
<line x1="3939.14286" y1="1554.431663" x2="3875.269687" y2="1554.431663" stroke="black" stroke-width="6.48"/>
<line x1="3939.14286" y1="1899.692064" x2="3872.680232" y2="1899.692064" stroke="black" stroke-width="6.48"/>
<line x1="3908.932574" y1="1553.568512" x2="3908.932574" y2="1898.828914" stroke="black" stroke-width="6.48"/>
<line x1="5024.694092" y1="1585.059372" x2="5152.875592" y2="1617.018613" stroke="black" stroke-width="6.48"/>
<line x1="5152.875592" y1="1617.018613" x2="5149.426756" y2="1630.851145" stroke="black" stroke-width="6.48"/>
<line x1="5021.245253" y1="1598.891911" x2="5149.426756" y2="1630.851145" stroke="black" stroke-width="6.48"/>
<line x1="5024.694092" y1="1585.059372" x2="5021.245253" y2="1598.891911" stroke="black" stroke-width="6.48"/>
<line x1="5034.155623" y1="1602.110826" x2="5024.723836" y2="1632.082558" stroke="black" stroke-width="6.48"/>
<line x1="5136.516389" y1="1627.63223" x2="5130.543355" y2="1659.445826" stroke="black" stroke-width="6.48"/>
<line x1="4913.181644" y1="2032.31137" x2="5041.363147" y2="2064.270604" stroke="black" stroke-width="6.48"/>
<line x1="5041.363147" y1="2064.270604" x2="5044.582062" y2="2051.36024" stroke="black" stroke-width="6.48"/>
<line x1="4916.400563" y1="2019.400999" x2="5044.582062" y2="2051.36024" stroke="black" stroke-width="6.48"/>
<line x1="4913.181644" y1="2032.31137" x2="4916.400563" y2="2019.400999" stroke="black" stroke-width="6.48"/>
<line x1="4928.848607" y1="2020.545659" x2="4934.591716" y2="1989.654232" stroke="black" stroke-width="6.48"/>
<line x1="5031.209369" y1="2046.06706" x2="5041.793246" y2="2015.403084" stroke="black" stroke-width="6.48"/>
<line x1="5271.712067" y1="1816.100539" x2="5257.879528" y2="1812.6517" stroke="black" stroke-width="6.48"/>
<line x1="5257.879528" y1="1812.6517" x2="5225.920294" y2="1940.833202" stroke="black" stroke-width="6.48"/>
<line x1="5239.752826" y1="1944.282042" x2="5225.920294" y2="1940.833202" stroke="black" stroke-width="6.48"/>
<line x1="5271.712067" y1="1816.100539" x2="5239.752826" y2="1944.282042" stroke="black" stroke-width="6.48"/>
<line x1="5229.369133" y1="1927.000663" x2="5197.325616" y2="1921.949802" stroke="black" stroke-width="6.48"/>
<line x1="5254.660616" y1="1825.56207" x2="5223.766712" y2="1815.900361" stroke="black" stroke-width="6.48"/>
<line x1="4825.612166" y1="1703.895847" x2="4839.444698" y2="1707.344687" stroke="black" stroke-width="6.48"/>
<line x1="4839.444698" y1="1707.344687" x2="4807.485464" y2="1835.526186" stroke="black" stroke-width="6.48"/>
<line x1="4793.652925" y1="1832.077346" x2="4807.485464" y2="1835.526186" stroke="black" stroke-width="6.48"/>
<line x1="4825.612166" y1="1703.895847" x2="4793.652925" y2="1832.077346" stroke="black" stroke-width="6.48"/>
<line x1="4810.934304" y1="1821.69365" x2="4841.598283" y2="1832.277524" stroke="black" stroke-width="6.48"/>
<line x1="4836.225784" y1="1720.25505" x2="4868.039376" y2="1726.228084" stroke="black" stroke-width="6.48"/>
<circle cx="5032.682492" cy="1824.088943" r="191.98080000000002" fill="none" stroke="black" stroke-width="6.48"/>
<line x1="3175.787995" y1="1074.552559" x2="3385.153199" y2="1074.552559" stroke="black" stroke-width="6.48"/>
<line x1="3385.153199" y1="1074.552559" x2="3385.153199" y2="743.338156" stroke="black" stroke-width="6.48"/>
<line x1="3385.153199" y1="743.338156" x2="3175.787995" y2="743.338156" stroke="black" stroke-width="6.48"/>
<line x1="3175.787995" y1="743.338156" x2="3175.787995" y2="1074.552559" stroke="black" stroke-width="6.48"/>
<line x1="3175.114795" y1="802.579756" x2="3385.826395" y2="802.579756" stroke="black" stroke-width="6.48"/>
<line x1="3385.826395" y1="802.579756" x2="3176.461195" y2="852.396559" stroke="black" stroke-width="6.48"/>
<line x1="3176.461195" y1="852.396559" x2="3208.101599" y2="898.847359" stroke="black" stroke-width="6.48"/>
<line x1="3208.101599" y1="898.847359" x2="3385.826395" y2="801.906559" stroke="black" stroke-width="6.48"/>
<line x1="3225.243524" y1="1203.88207" x2="3447.52069" y2="1203.88207" stroke="black" stroke-width="6.48"/>
<line x1="3447.52069" y1="1203.88207" x2="3447.52069" y2="1426.614721" stroke="black" stroke-width="6.48"/>
<line x1="3447.52069" y1="1426.614721" x2="3225.243524" y2="1426.614721" stroke="black" stroke-width="6.48"/>
<line x1="3225.243524" y1="1426.614721" x2="3225.243524" y2="1203.88207" stroke="black" stroke-width="6.48"/>
<line x1="3224.788038" y1="1203.426583" x2="3447.52069" y2="1426.614721" stroke="black" stroke-width="6.48"/>
<line x1="3225.243524" y1="1426.159235" x2="3447.065203" y2="1203.88207" stroke="black" stroke-width="6.48"/>
<line x1="2804.16708" y1="1127.69402" x2="2804.16708" y2="1153.148746" stroke="black" stroke-width="6.48"/>
<line x1="2804.16708" y1="1153.148746" x2="2853.834836" y2="1153.148746" stroke="black" stroke-width="6.48"/>
<line x1="2853.834836" y1="1153.148746" x2="2853.834836" y2="1127.69402" stroke="black" stroke-width="6.48"/>
<line x1="2853.834836" y1="1127.69402" x2="2804.16708" y2="1127.69402" stroke="black" stroke-width="6.48"/>
<line x1="2853.834836" y1="1402.108373" x2="3101.55277" y2="1402.108373" stroke="black" stroke-width="6.48"/>
<line x1="2802.925386" y1="1402.729218" x2="2802.925386" y2="1428.183943" stroke="black" stroke-width="6.48"/>
<line x1="2802.925386" y1="1428.183943" x2="2852.593142" y2="1428.183943" stroke="black" stroke-width="6.48"/>
<line x1="2852.593142" y1="1428.183943" x2="2852.593142" y2="1402.729218" stroke="black" stroke-width="6.48"/>
<line x1="2852.593142" y1="1402.729218" x2="2802.925386" y2="1402.729218" stroke="black" stroke-width="6.48"/>
<path d="m 2851.972294,1153.148746 a 248.95962699999984,248.95962699999984 0 0 1 248.95962699999973,248.95962699999995" fill="none" stroke="black" stroke-width="6.48"/>
<line x1="2946.403282" y1="2016.570935" x2="2875.198136" y2="2192.810072" stroke="black" stroke-width="6.48"/>
<line x1="2875.198136" y1="2192.810072" x2="3305.221632" y2="2366.550623" stroke="black" stroke-width="6.48"/>
<line x1="3305.221632" y1="2366.550623" x2="3376.426777" y2="2190.311485" stroke="black" stroke-width="6.48"/>
<line x1="3376.426777" y1="2190.311485" x2="3354.396887" y2="2181.410842" stroke="black" stroke-width="6.48"/>
<line x1="3354.396887" y1="2181.410842" x2="3291.73636" y2="2336.501286" stroke="black" stroke-width="6.48"/>
<line x1="3291.73636" y1="2336.501286" x2="2906.653842" y2="2180.918045" stroke="black" stroke-width="6.48"/>
<line x1="2906.653842" y1="2180.918045" x2="2969.314369" y2="2025.827604" stroke="black" stroke-width="6.48"/>
<line x1="2969.314369" y1="2025.827604" x2="2946.403282" y2="2016.570935" stroke="black" stroke-width="6.48"/>
<line x1="2967.178216" y1="2031.114776" x2="3352.260733" y2="2186.698018" stroke="black" stroke-width="6.48"/>
<line x1="3159.6349" y1="2107.847189" x2="3099.11053" y2="2257.650457" stroke="black" stroke-width="6.48"/>
<line x1="3444.830795" y1="1673.990237" x2="3675.458038" y2="1698.230138" stroke="black" stroke-width="6.48"/>
<line x1="3675.458038" y1="1698.230138" x2="3651.168467" y2="1929.329978" stroke="black" stroke-width="6.48"/>
<line x1="3651.168467" y1="1929.329978" x2="3420.541224" y2="1905.090077" stroke="black" stroke-width="6.48"/>
<line x1="3420.541224" y1="1905.090077" x2="3444.830795" y2="1673.990237" stroke="black" stroke-width="6.48"/>
<line x1="3444.40787" y1="1673.46797" x2="3651.168467" y2="1929.329978" stroke="black" stroke-width="6.48"/>
<line x1="3420.590897" y1="1904.61748" x2="3674.985437" y2="1698.180469" stroke="black" stroke-width="6.48"/>
<line x1="3042.664542" y1="1589.315882" x2="3035.716254" y2="1619.412228" stroke="black" stroke-width="6.48"/>
<line x1="3035.716254" y1="1619.412228" x2="3239.908362" y2="1666.553692" stroke="black" stroke-width="6.48"/>
<line x1="3239.908362" y1="1666.553692" x2="3246.85665" y2="1636.457346" stroke="black" stroke-width="6.48"/>
<line x1="3246.85665" y1="1636.457346" x2="3042.664542" y2="1589.315882" stroke="black" stroke-width="6.48"/>
<line x1="2996.805841" y1="1787.951743" x2="2989.857553" y2="1818.048089" stroke="black" stroke-width="6.48"/>
<line x1="2989.857553" y1="1818.048089" x2="3194.049658" y2="1865.189552" stroke="black" stroke-width="6.48"/>
<line x1="3194.049658" y1="1865.189552" x2="3200.997949" y2="1835.09321" stroke="black" stroke-width="6.48"/>
<line x1="3200.997949" y1="1835.09321" x2="2996.805841" y2="1787.951743" stroke="black" stroke-width="6.48"/>
<line x1="3035.823149" y1="1618.949207" x2="2996.805841" y2="1787.951743" stroke="black" stroke-width="6.48"/>
<line x1="3239.196113" y1="1665.413852" x2="3258.67603" y2="1697.222333" stroke="black" stroke-width="6.48"/>
<line x1="3231.417362" y1="1815.292598" x2="3199.965012" y2="1835.342435" stroke="black" stroke-width="6.48"/>
<line x1="3259.10362" y1="1695.370252" x2="3230.989776" y2="1817.144683" stroke="black" stroke-width="6.48"/>
<line x1="3079.240193" y1="1629.460523" x2="3040.222885" y2="1798.463063" stroke="black" stroke-width="6.48"/>
<line x1="1062.776848" y1="2028.550496" x2="1256.639846" y2="2106.876287" stroke="black" stroke-width="6.48"/>
<line x1="1256.639846" y1="2106.876287" x2="1343.510269" y2="1891.864595" stroke="black" stroke-width="6.48"/>
<line x1="1343.510269" y1="1891.864595" x2="1149.647267" y2="1813.538804" stroke="black" stroke-width="6.48"/>
<line x1="1149.647267" y1="1813.538804" x2="1062.776848" y2="2028.550496" stroke="black" stroke-width="6.48"/>
<line x1="1074.88174" y1="1998.589849" x2="1268.744742" y2="2076.91564" stroke="black" stroke-width="6.48"/>
<line x1="6155.066693" y1="1758.022589" x2="5978.827584" y2="1829.227813" stroke="black" stroke-width="6.48"/>
<line x1="5978.827584" y1="1829.227813" x2="6152.568329" y2="2259.251233" stroke="black" stroke-width="6.48"/>
<line x1="6152.568329" y1="2259.251233" x2="6328.807434" y2="2188.046009" stroke="black" stroke-width="6.48"/>
<line x1="6328.807434" y1="2188.046009" x2="6319.90678" y2="2166.016122" stroke="black" stroke-width="6.48"/>
<line x1="6319.90678" y1="2166.016122" x2="6164.816368" y2="2228.676714" stroke="black" stroke-width="6.48"/>
<line x1="6164.816368" y1="2228.676714" x2="6009.232957" y2="1843.594268" stroke="black" stroke-width="6.48"/>
<line x1="6009.232957" y1="1843.594268" x2="6164.323369" y2="1780.933673" stroke="black" stroke-width="6.48"/>
<line x1="6164.323369" y1="1780.933673" x2="6155.066693" y2="1758.022589" stroke="black" stroke-width="6.48"/>
<line x1="6159.0362" y1="1783.06983" x2="6314.619607" y2="2168.152276" stroke="black" stroke-width="6.48"/>
<line x1="6237.531086" y1="1974.814427" x2="6087.727847" y2="2035.338869" stroke="black" stroke-width="6.48"/>
<line x1="5683.684082" y1="1390.502995" x2="5676.211602" y2="1420.473492" stroke="black" stroke-width="6.48"/>
<line x1="5676.211602" y1="1420.473492" x2="5879.549876" y2="1471.171417" stroke="black" stroke-width="6.48"/>
<line x1="5879.549876" y1="1471.171417" x2="5887.02236" y2="1441.200924" stroke="black" stroke-width="6.48"/>
<line x1="5887.02236" y1="1441.200924" x2="5683.684082" y2="1390.502995" stroke="black" stroke-width="6.48"/>
<line x1="5634.365692" y1="1588.30826" x2="5626.893208" y2="1618.278754" stroke="black" stroke-width="6.48"/>
<line x1="5626.893208" y1="1618.278754" x2="5830.231486" y2="1668.976679" stroke="black" stroke-width="6.48"/>
<line x1="5830.231486" y1="1668.976679" x2="5837.70397" y2="1639.006186" stroke="black" stroke-width="6.48"/>
<line x1="5837.70397" y1="1639.006186" x2="5634.365692" y2="1588.30826" stroke="black" stroke-width="6.48"/>
<line x1="5676.326561" y1="1420.012404" x2="5634.365692" y2="1588.30826" stroke="black" stroke-width="6.48"/>
<line x1="5878.857632" y1="1470.019324" x2="5897.779448" y2="1502.162932" stroke="black" stroke-width="6.48"/>
<line x1="5868.464321" y1="1619.739486" x2="5836.666838" y2="1639.237349" stroke="black" stroke-width="6.48"/>
<line x1="5898.239294" y1="1500.31859" x2="5868.004478" y2="1621.583824" stroke="black" stroke-width="6.48"/>
<line x1="5719.553546" y1="1431.279853" x2="5677.592677" y2="1599.575706" stroke="black" stroke-width="6.48"/>
<line x1="3819.610505" y1="1149.082661" x2="3822.30257" y2="1118.312197" stroke="black" stroke-width="6.48"/>
<line x1="3822.30257" y1="1118.312197" x2="3613.536821" y2="1100.047561" stroke="black" stroke-width="6.48"/>
<line x1="3613.536821" y1="1100.047561" x2="3610.844759" y2="1130.818025" stroke="black" stroke-width="6.48"/>
<line x1="3610.844759" y1="1130.818025" x2="3819.610505" y2="1149.082661" stroke="black" stroke-width="6.48"/>
<line x1="3837.378146" y1="945.99761" x2="3840.070212" y2="915.22715" stroke="black" stroke-width="6.48"/>
<line x1="3840.070212" y1="915.22715" x2="3631.304462" y2="896.962511" stroke="black" stroke-width="6.48"/>
<line x1="3631.304462" y1="896.962511" x2="3628.612393" y2="927.732974" stroke="black" stroke-width="6.48"/>
<line x1="3628.612393" y1="927.732974" x2="3837.378146" y2="945.99761" stroke="black" stroke-width="6.48"/>
<line x1="3822.261152" y1="1118.78559" x2="3837.378146" y2="945.99761" stroke="black" stroke-width="6.48"/>
<line x1="3614.400774" y1="1101.077176" x2="3590.683546" y2="1072.28934" stroke="black" stroke-width="6.48"/>
<line x1="3601.244732" y1="951.57445" x2="3629.600597" y2="927.342418" stroke="black" stroke-width="6.48"/>
<line x1="3590.517884" y1="1074.182908" x2="3601.410397" y2="949.680882" stroke="black" stroke-width="6.48"/>
<line x1="3777.803752" y1="1114.419053" x2="3792.920738" y2="941.63108" stroke="black" stroke-width="6.48"/>
<line x1="2254.601185" y1="2271.907886" x2="2285.319978" y2="2275.136568" stroke="black" stroke-width="6.48"/>
<line x1="2285.319978" y1="2275.136568" x2="2307.225348" y2="2066.721383" stroke="black" stroke-width="6.48"/>
<line x1="2307.225348" y1="2066.721383" x2="2276.506555" y2="2063.492701" stroke="black" stroke-width="6.48"/>
<line x1="2276.506555" y1="2063.492701" x2="2254.601185" y2="2271.907886" stroke="black" stroke-width="6.48"/>
<line x1="2457.345211" y1="2293.217194" x2="2488.064" y2="2296.445875" stroke="black" stroke-width="6.48"/>
<line x1="2488.064" y1="2296.445875" x2="2509.96937" y2="2088.03069" stroke="black" stroke-width="6.48"/>
<line x1="2509.96937" y1="2088.03069" x2="2479.250581" y2="2084.802008" stroke="black" stroke-width="6.48"/>
<line x1="2479.250581" y1="2084.802008" x2="2457.345211" y2="2293.217194" stroke="black" stroke-width="6.48"/>
<line x1="2284.847381" y1="2275.086895" x2="2457.345211" y2="2293.217194" stroke="black" stroke-width="6.48"/>
<line x1="2306.180812" y1="2067.567232" x2="2335.378194" y2="2044.356044" stroke="black" stroke-width="6.48"/>
<line x1="2455.890376" y1="2057.022414" x2="2479.623833" y2="2085.796872" stroke="black" stroke-width="6.48"/>
<line x1="2333.487805" y1="2044.157357" x2="2457.780761" y2="2057.221102" stroke="black" stroke-width="6.48"/>
<line x1="2289.989149" y1="2230.712471" x2="2462.48698" y2="2248.842766" stroke="black" stroke-width="6.48"/>
</g>
</svg>
