<?xml version="1.0"?>
<svg xmlns:xlink="http://www.w3.org/1999/xlink" width="6775.2" height="2858.4">
<image x="0" y="0" width="6775.2" height="2858.4" xlink:href="groundfilled-01.png"/>
<g style="stroke-linecap:round">
<line x1="1285.950406" y1="795.178109" x2="1311.346069" y2="795.178109" stroke="black" stroke-width="6.48"/>
<line x1="1311.346069" y1="795.178109" x2="1311.346069" y2="745.625592" stroke="black" stroke-width="6.48"/>
<line x1="1311.346069" y1="745.625592" x2="1285.950406" y2="745.625592" stroke="black" stroke-width="6.48"/>
<line x1="1285.950406" y1="745.625592" x2="1285.950406" y2="795.178109" stroke="black" stroke-width="6.48"/>
<line x1="1559.728062" y1="745.625592" x2="1559.728062" y2="498.48241" stroke="black" stroke-width="6.48"/>
<line x1="1560.347471" y1="796.416923" x2="1585.743134" y2="796.416923" stroke="black" stroke-width="6.48"/>
<line x1="1585.743134" y1="796.416923" x2="1585.743134" y2="746.864406" stroke="black" stroke-width="6.48"/>
<line x1="1585.743134" y1="746.864406" x2="1560.347471" y2="746.864406" stroke="black" stroke-width="6.48"/>
<line x1="1560.347471" y1="746.864406" x2="1560.347471" y2="796.416923" stroke="black" stroke-width="6.48"/>
<path d="m 1311.346069,747.483811 a 248.38199299999997,248.38199299999997 0 0 1 248.38199299999997,-248.38199299999997" fill="none" stroke="black" stroke-width="6.48"/>
<line x1="330.523178" y1="771.328966" x2="330.523178" y2="366.748985" stroke="black" stroke-width="6.48"/>
<line x1="330.523178" y1="366.748985" x2="258.15928" y2="366.748985" stroke="black" stroke-width="6.48"/>
<line x1="258.15928" y1="366.748985" x2="258.15928" y2="771.328966" stroke="black" stroke-width="6.48"/>
<line x1="258.15928" y1="771.328966" x2="330.523178" y2="771.328966" stroke="black" stroke-width="6.48"/>
<line x1="330.523178" y1="752.415674" x2="355.19269" y2="752.415674" stroke="black" stroke-width="6.48"/>
<line x1="355.19269" y1="752.415674" x2="355.19269" y2="386.484595" stroke="black" stroke-width="6.48"/>
<line x1="330.523178" y1="386.484595" x2="355.19269" y2="386.484595" stroke="black" stroke-width="6.48"/>
<line x1="3901.945176" y1="1169.331426" x2="3901.945176" y2="1428.837066" stroke="black" stroke-width="6.48"/>
<line x1="3901.945176" y1="1428.837066" x2="3941.9501" y2="1428.837066" stroke="black" stroke-width="6.48"/>
<line x1="3941.9501" y1="1428.837066" x2="3941.9501" y2="1169.331426" stroke="black" stroke-width="6.48"/>
<line x1="3941.9501" y1="1169.331426" x2="3901.945176" y2="1169.331426" stroke="black" stroke-width="6.48"/>
<line x1="3941.423719" y1="1193.544936" x2="3902.471557" y2="1193.544936" stroke="black" stroke-width="6.48"/>
<line x1="3941.423719" y1="1404.097178" x2="3900.892414" y2="1404.097178" stroke="black" stroke-width="6.48"/>
<line x1="3923.000399" y1="1193.018555" x2="3923.000399" y2="1403.570797" stroke="black" stroke-width="6.48"/>
<line x1="334.430687" y1="1882.943946" x2="334.430687" y2="1457.437414" stroke="black" stroke-width="6.48"/>
<line x1="334.430687" y1="1457.437414" x2="258.323828" y2="1457.437414" stroke="black" stroke-width="6.48"/>
<line x1="258.323828" y1="1457.437414" x2="258.323828" y2="1882.943946" stroke="black" stroke-width="6.48"/>
<line x1="258.323828" y1="1882.943946" x2="334.430687" y2="1882.943946" stroke="black" stroke-width="6.48"/>
<line x1="334.430687" y1="1863.05238" x2="360.376207" y2="1863.05238" stroke="black" stroke-width="6.48"/>
<line x1="360.376207" y1="1863.05238" x2="360.376207" y2="1478.193829" stroke="black" stroke-width="6.48"/>
<line x1="334.430687" y1="1478.193829" x2="360.376207" y2="1478.193829" stroke="black" stroke-width="6.48"/>
<line x1="2747.905531" y1="904.670665" x2="2721.68303" y2="904.670665" stroke="black" stroke-width="6.48"/>
<line x1="2721.68303" y1="904.670665" x2="2721.68303" y2="955.836522" stroke="black" stroke-width="6.48"/>
<line x1="2721.68303" y1="955.836522" x2="2747.905531" y2="955.836522" stroke="black" stroke-width="6.48"/>
<line x1="2747.905531" y1="955.836522" x2="2747.905531" y2="904.670665" stroke="black" stroke-width="6.48"/>
<line x1="2465.214181" y1="955.836522" x2="2465.214181" y2="1211.026223" stroke="black" stroke-width="6.48"/>
<line x1="2464.574609" y1="903.39152" x2="2438.352108" y2="903.39152" stroke="black" stroke-width="6.48"/>
<line x1="2438.352108" y1="903.39152" x2="2438.352108" y2="954.557374" stroke="black" stroke-width="6.48"/>
<line x1="2438.352108" y1="954.557374" x2="2464.574609" y2="954.557374" stroke="black" stroke-width="6.48"/>
<line x1="2464.574609" y1="954.557374" x2="2464.574609" y2="903.39152" stroke="black" stroke-width="6.48"/>
<path d="m 2721.68303,953.917801 a 256.4688490000001,256.4688490000001 0 0 1 -256.4688490000003,256.46884899999986" fill="none" stroke="black" stroke-width="6.48"/>
<line x1="2420.532389" y1="1427.858834" x2="2395.136725" y2="1427.858834" stroke="black" stroke-width="6.48"/>
<line x1="2395.136725" y1="1427.858834" x2="2395.136725" y2="1477.411351" stroke="black" stroke-width="6.48"/>
<line x1="2395.136725" y1="1477.411351" x2="2420.532389" y2="1477.411351" stroke="black" stroke-width="6.48"/>
<line x1="2420.532389" y1="1477.411351" x2="2420.532389" y2="1427.858834" stroke="black" stroke-width="6.48"/>
<line x1="2146.754732" y1="1477.411351" x2="2146.754732" y2="1724.554534" stroke="black" stroke-width="6.48"/>
<line x1="2146.135324" y1="1426.62002" x2="2120.73966" y2="1426.62002" stroke="black" stroke-width="6.48"/>
<line x1="2120.73966" y1="1426.62002" x2="2120.73966" y2="1476.172537" stroke="black" stroke-width="6.48"/>
<line x1="2120.73966" y1="1476.172537" x2="2146.135324" y2="1476.172537" stroke="black" stroke-width="6.48"/>
<line x1="2146.135324" y1="1476.172537" x2="2146.135324" y2="1426.62002" stroke="black" stroke-width="6.48"/>
<path d="m 2395.136725,1475.553132 a 248.38199299999997,248.38199299999997 0 0 1 -248.38199299999997,248.38199299999997" fill="none" stroke="black" stroke-width="6.48"/>
<line x1="754.879885" y1="692.136151" x2="1147.711885" y2="692.136151" stroke="black" stroke-width="6.48"/>
<line x1="1147.711885" y1="692.136151" x2="1147.711885" y2="507.600151" stroke="black" stroke-width="6.48"/>
<line x1="1147.711885" y1="507.600151" x2="754.879885" y2="507.600151" stroke="black" stroke-width="6.48"/>
<line x1="754.879885" y1="507.600151" x2="754.879885" y2="692.136151" stroke="black" stroke-width="6.48"/>
<line x1="914.071885" y1="507.600151" x2="914.071885" y2="426.816151" stroke="black" stroke-width="6.48"/>
<line x1="914.071885" y1="426.816151" x2="835.663885" y2="426.816151" stroke="black" stroke-width="6.48"/>
<line x1="835.663885" y1="426.816151" x2="835.663885" y2="507.600151" stroke="black" stroke-width="6.48"/>
<line x1="836.455885" y1="444.240151" x2="914.071885" y2="444.240151" stroke="black" stroke-width="6.48"/>
<line x1="835.663885" y1="773.712151" x2="914.071885" y2="773.712151" stroke="black" stroke-width="6.48"/>
<line x1="914.071885" y1="773.712151" x2="914.071885" y2="692.136151" stroke="black" stroke-width="6.48"/>
<line x1="835.663885" y1="692.136151" x2="835.663885" y2="773.712151" stroke="black" stroke-width="6.48"/>
<line x1="836.455885" y1="756.288151" x2="914.071885" y2="756.288151" stroke="black" stroke-width="6.48"/>
<line x1="1065.343885" y1="507.600151" x2="1065.343885" y2="426.816151" stroke="black" stroke-width="6.48"/>
<line x1="1065.343885" y1="426.816151" x2="986.935885" y2="426.816151" stroke="black" stroke-width="6.48"/>
<line x1="986.935885" y1="426.816151" x2="986.935885" y2="507.600151" stroke="black" stroke-width="6.48"/>
<line x1="986.935885" y1="444.240151" x2="1065.343885" y2="444.240151" stroke="black" stroke-width="6.48"/>
<line x1="986.935885" y1="773.712151" x2="1065.343885" y2="773.712151" stroke="black" stroke-width="6.48"/>
<line x1="1065.343885" y1="773.712151" x2="1065.343885" y2="692.136151" stroke="black" stroke-width="6.48"/>
<line x1="986.935885" y1="692.136151" x2="986.935885" y2="773.712151" stroke="black" stroke-width="6.48"/>
<line x1="986.935885" y1="756.288151" x2="1065.343885" y2="756.288151" stroke="black" stroke-width="6.48"/>
<line x1="2032.924367" y1="1956.584797" x2="2032.924367" y2="1925.696797" stroke="black" stroke-width="6.48"/>
<line x1="2032.924367" y1="1925.696797" x2="1823.361167" y2="1925.696797" stroke="black" stroke-width="6.48"/>
<line x1="1823.361167" y1="1925.696797" x2="1823.361167" y2="1956.584797" stroke="black" stroke-width="6.48"/>
<line x1="1823.361167" y1="1956.584797" x2="2032.924367" y2="1956.584797" stroke="black" stroke-width="6.48"/>
<line x1="2032.924367" y1="1752.723997" x2="2032.924367" y2="1721.835997" stroke="black" stroke-width="6.48"/>
<line x1="2032.924367" y1="1721.835997" x2="1823.361167" y2="1721.835997" stroke="black" stroke-width="6.48"/>
<line x1="1823.361167" y1="1721.835997" x2="1823.361167" y2="1752.723997" stroke="black" stroke-width="6.48"/>
<line x1="1823.361167" y1="1752.723997" x2="2032.924367" y2="1752.723997" stroke="black" stroke-width="6.48"/>
<line x1="2032.924367" y1="1926.171997" x2="2032.924367" y2="1752.723997" stroke="black" stroke-width="6.48"/>
<line x1="1824.311567" y1="1926.647197" x2="1798.175567" y2="1900.035997" stroke="black" stroke-width="6.48"/>
<line x1="1798.175567" y1="1778.859997" x2="1824.311567" y2="1752.248797" stroke="black" stroke-width="6.48"/>
<line x1="1798.175567" y1="1901.936797" x2="1798.175567" y2="1776.959197" stroke="black" stroke-width="6.48"/>
<line x1="1988.255567" y1="1925.696797" x2="1988.255567" y2="1752.248797" stroke="black" stroke-width="6.48"/>
<line x1="1485.415969" y1="209.267824" x2="1707.693134" y2="209.267824" stroke="black" stroke-width="6.48"/>
<line x1="1707.693134" y1="209.267824" x2="1707.693134" y2="432.000475" stroke="black" stroke-width="6.48"/>
<line x1="1707.693134" y1="432.000475" x2="1485.415969" y2="432.000475" stroke="black" stroke-width="6.48"/>
<line x1="1485.415969" y1="432.000475" x2="1485.415969" y2="209.267824" stroke="black" stroke-width="6.48"/>
<line x1="1484.960483" y1="208.812337" x2="1707.693134" y2="432.000475" stroke="black" stroke-width="6.48"/>
<line x1="1485.415969" y1="431.544989" x2="1707.237648" y2="209.267824" stroke="black" stroke-width="6.48"/>
<line x1="2586.780558" y1="1803.366338" x2="2586.780558" y2="2194.614338" stroke="black" stroke-width="6.48"/>
<line x1="2586.780558" y1="2194.614338" x2="2761.020558" y2="2194.614338" stroke="black" stroke-width="6.48"/>
<line x1="2761.020558" y1="2194.614338" x2="2761.020558" y2="1803.366338" stroke="black" stroke-width="6.48"/>
<line x1="2761.020558" y1="1803.366338" x2="2586.780558" y2="1803.366338" stroke="black" stroke-width="6.48"/>
<line x1="2734.092558" y1="2119.374338" x2="2734.092558" y2="1835.046338" stroke="black" stroke-width="6.48"/>
<line x1="2734.092558" y1="1835.046338" x2="2616.084558" y2="1835.046338" stroke="black" stroke-width="6.48"/>
<line x1="2616.084558" y1="1835.046338" x2="2616.084558" y2="2124.918338" stroke="black" stroke-width="6.48"/>
<path d="m 2734.347982,2118.563766 a 63.35999941905905,63.35999941905905 0 0 1 -119.37432999999965,4.2938139999996565" fill="none" stroke="black" stroke-width="6.48"/>
<line x1="2081.387203" y1="1922.980223" x2="2056.835203" y2="1941.592223" stroke="black" stroke-width="6.48"/>
<line x1="2056.835203" y1="1941.592223" x2="2056.835203" y2="2088.904223" stroke="black" stroke-width="6.48"/>
<line x1="2056.835203" y1="2088.904223" x2="2084.951203" y2="2107.912223" stroke="black" stroke-width="6.48"/>
<line x1="2084.159203" y1="1944.760223" x2="2084.159203" y2="2087.716223" stroke="black" stroke-width="6.48"/>
<circle cx="2105.939203" cy="2014.060223" r="13.068000000000003" fill="none" stroke="black" stroke-width="6.48"/>
<path d="m 2083.491857,1946.313475 a 74.84400053466229,74.84400053466229 0 1 1 0.40204799999992247,139.60900500000025" fill="none" stroke="black" stroke-width="6.48"/>
<path d="m 2080.72984,1923.026526 a 95.43599857690582,95.43599857690582 0 1 1 3.0749580000001515,184.46699499999977" fill="none" stroke="black" stroke-width="6.48"/>
<line x1="565.246249" y1="209.133043" x2="835.793449" y2="209.133043" stroke="black" stroke-width="6.48"/>
<line x1="835.793449" y1="209.133043" x2="835.793449" y2="341.080243" stroke="black" stroke-width="6.48"/>
<line x1="565.246249" y1="341.080243" x2="835.793449" y2="341.080243" stroke="black" stroke-width="6.48"/>
<line x1="565.246249" y1="209.133043" x2="565.246249" y2="341.080243" stroke="black" stroke-width="6.48"/>
<line x1="571.899049" y1="215.785843" x2="709.944649" y2="215.785843" stroke="black" stroke-width="6.48"/>
<line x1="709.944649" y1="215.785843" x2="709.944649" y2="333.873043" stroke="black" stroke-width="6.48"/>
<line x1="571.899049" y1="333.873043" x2="709.944649" y2="333.873043" stroke="black" stroke-width="6.48"/>
<line x1="571.899049" y1="215.785843" x2="571.899049" y2="333.873043" stroke="black" stroke-width="6.48"/>
<line x1="724.359049" y1="223.547443" x2="821.379049" y2="223.547443" stroke="black" stroke-width="6.48"/>
<line x1="724.359049" y1="244.060243" x2="821.379049" y2="244.060243" stroke="black" stroke-width="6.48"/>
<line x1="724.913449" y1="265.127443" x2="821.933449" y2="265.127443" stroke="black" stroke-width="6.48"/>
<line x1="724.913449" y1="285.640243" x2="821.933449" y2="285.640243" stroke="black" stroke-width="6.48"/>
<line x1="724.359049" y1="306.153043" x2="821.379049" y2="306.153043" stroke="black" stroke-width="6.48"/>
<line x1="724.359049" y1="326.665843" x2="821.379049" y2="326.665843" stroke="black" stroke-width="6.48"/>
<line x1="624.567049" y1="333.873043" x2="624.567049" y2="320.013043" stroke="black" stroke-width="6.48"/>
<line x1="624.567049" y1="320.013043" x2="658.939849" y2="320.013043" stroke="black" stroke-width="6.48"/>
<line x1="658.939849" y1="320.013043" x2="658.939849" y2="333.318643" stroke="black" stroke-width="6.48"/>
<circle cx="694.421449" cy="230.754643" r="8.316000000000003" fill="none" stroke="black" stroke-width="6.48"/>
<line x1="1021.026643" y1="1300.620931" x2="1229.195891" y2="1633.76136" stroke="black" stroke-width="6.48"/>
<line x1="1229.195891" y1="1633.76136" x2="1385.691293" y2="1535.97218" stroke="black" stroke-width="6.48"/>
<line x1="1385.691293" y1="1535.97218" x2="1177.522049" y2="1202.831752" stroke="black" stroke-width="6.48"/>
<line x1="1177.522049" y1="1202.831752" x2="1021.026643" y2="1300.620931" stroke="black" stroke-width="6.48"/>
<line x1="1261.880953" y1="1337.834221" x2="1330.38967" y2="1295.025224" stroke="black" stroke-width="6.48"/>
<line x1="1330.38967" y1="1295.025224" x2="1288.839762" y2="1228.531471" stroke="black" stroke-width="6.48"/>
<line x1="1288.839762" y1="1228.531471" x2="1220.331046" y2="1271.340468" stroke="black" stroke-width="6.48"/>
<line x1="1274.483066" y1="1238.436436" x2="1315.613282" y2="1304.258537" stroke="black" stroke-width="6.48"/>
<line x1="994.655272" y1="1412.35834" x2="1036.205179" y2="1478.8521" stroke="black" stroke-width="6.48"/>
<line x1="1036.205179" y1="1478.8521" x2="1105.385551" y2="1435.623404" stroke="black" stroke-width="6.48"/>
<line x1="1063.835644" y1="1369.129651" x2="994.655272" y2="1412.35834" stroke="black" stroke-width="6.48"/>
<line x1="1009.851354" y1="1403.796683" x2="1050.98157" y2="1469.618784" stroke="black" stroke-width="6.48"/>
<line x1="1342.042902" y1="1466.120153" x2="1410.551618" y2="1423.311156" stroke="black" stroke-width="6.48"/>
<line x1="1410.551618" y1="1423.311156" x2="1369.001711" y2="1356.817399" stroke="black" stroke-width="6.48"/>
<line x1="1369.001711" y1="1356.817399" x2="1300.492994" y2="1399.6264" stroke="black" stroke-width="6.48"/>
<line x1="1354.225316" y1="1366.050715" x2="1395.775231" y2="1432.544468" stroke="black" stroke-width="6.48"/>
<line x1="1074.817217" y1="1540.644275" x2="1116.367124" y2="1607.138028" stroke="black" stroke-width="6.48"/>
<line x1="1116.367124" y1="1607.138028" x2="1185.5475" y2="1563.909336" stroke="black" stroke-width="6.48"/>
<line x1="1143.997589" y1="1497.415579" x2="1074.817217" y2="1540.644275" stroke="black" stroke-width="6.48"/>
<line x1="1089.593604" y1="1531.410962" x2="1131.143519" y2="1597.904716" stroke="black" stroke-width="6.48"/>
<line x1="2044.889399" y1="955.822399" x2="2267.166564" y2="955.822399" stroke="black" stroke-width="6.48"/>
<line x1="2267.166564" y1="955.822399" x2="2267.166564" y2="1178.555051" stroke="black" stroke-width="6.48"/>
<line x1="2267.166564" y1="1178.555051" x2="2044.889399" y2="1178.555051" stroke="black" stroke-width="6.48"/>
<line x1="2044.889399" y1="1178.555051" x2="2044.889399" y2="955.822399" stroke="black" stroke-width="6.48"/>
<line x1="2044.433912" y1="955.366913" x2="2267.166564" y2="1178.555051" stroke="black" stroke-width="6.48"/>
<line x1="2044.889399" y1="1178.099564" x2="2266.711078" y2="955.822399" stroke="black" stroke-width="6.48"/>
<line x1="333.766206" y1="1375.361078" x2="333.766206" y2="949.854546" stroke="black" stroke-width="6.48"/>
<line x1="333.766206" y1="949.854546" x2="257.659348" y2="949.854546" stroke="black" stroke-width="6.48"/>
<line x1="257.659348" y1="949.854546" x2="257.659348" y2="1375.361078" stroke="black" stroke-width="6.48"/>
<line x1="257.659348" y1="1375.361078" x2="333.766206" y2="1375.361078" stroke="black" stroke-width="6.48"/>
<line x1="333.766206" y1="1355.469512" x2="359.711726" y2="1355.469512" stroke="black" stroke-width="6.48"/>
<line x1="359.711726" y1="1355.469512" x2="359.711726" y2="970.610962" stroke="black" stroke-width="6.48"/>
<line x1="333.766206" y1="970.610962" x2="359.711726" y2="970.610962" stroke="black" stroke-width="6.48"/>
<line x1="3874.406537" y1="1514.726719" x2="3874.406537" y2="1940.260162" stroke="black" stroke-width="6.48"/>
<line x1="3874.406537" y1="1940.260162" x2="3940.00601" y2="1940.260162" stroke="black" stroke-width="6.48"/>
<line x1="3940.00601" y1="1940.260162" x2="3940.00601" y2="1514.726719" stroke="black" stroke-width="6.48"/>
<line x1="3940.00601" y1="1514.726719" x2="3874.406537" y2="1514.726719" stroke="black" stroke-width="6.48"/>
<line x1="3939.14286" y1="1554.431663" x2="3875.269687" y2="1554.431663" stroke="black" stroke-width="6.48"/>
<line x1="3939.14286" y1="1899.692064" x2="3872.680232" y2="1899.692064" stroke="black" stroke-width="6.48"/>
<line x1="3908.932574" y1="1553.568512" x2="3908.932574" y2="1898.828914" stroke="black" stroke-width="6.48"/>
<line x1="4979.841156" y1="1847.065115" x2="5126.998615" y2="2211.292598" stroke="black" stroke-width="6.48"/>
<line x1="5126.998615" y1="2211.292598" x2="5298.097414" y2="2142.1642" stroke="black" stroke-width="6.48"/>
<line x1="5298.097414" y1="2142.1642" x2="5150.939958" y2="1777.936709" stroke="black" stroke-width="6.48"/>
<line x1="5150.939958" y1="1777.936709" x2="4979.841156" y2="1847.065115" stroke="black" stroke-width="6.48"/>
<line x1="5210.574329" y1="1925.536961" x2="5285.475947" y2="1895.274745" stroke="black" stroke-width="6.48"/>
<line x1="5285.475947" y1="1895.274745" x2="5256.103795" y2="1822.576108" stroke="black" stroke-width="6.48"/>
<line x1="5256.103795" y1="1822.576108" x2="5181.202174" y2="1852.83833" stroke="black" stroke-width="6.48"/>
<line x1="5240.245234" y1="1829.837585" x2="5269.320702" y2="1901.801887" stroke="black" stroke-width="6.48"/>
<line x1="4934.467426" y1="1952.525639" x2="4963.839581" y2="2025.224269" stroke="black" stroke-width="6.48"/>
<line x1="4963.839581" y1="2025.224269" x2="5039.47553" y2="1994.665367" stroke="black" stroke-width="6.48"/>
<line x1="5010.103379" y1="1921.966733" x2="4934.467426" y2="1952.525639" stroke="black" stroke-width="6.48"/>
<line x1="4950.919368" y1="1946.732825" x2="4979.994833" y2="2018.697124" stroke="black" stroke-width="6.48"/>
<line x1="5267.241821" y1="2065.793918" x2="5342.143439" y2="2035.531699" stroke="black" stroke-width="6.48"/>
<line x1="5342.143439" y1="2035.531699" x2="5312.771287" y2="1962.833069" stroke="black" stroke-width="6.48"/>
<line x1="5312.771287" y1="1962.833069" x2="5237.869666" y2="1993.095284" stroke="black" stroke-width="6.48"/>
<line x1="5296.616035" y1="1969.360214" x2="5325.988187" y2="2042.058845" stroke="black" stroke-width="6.48"/>
<line x1="4991.134914" y1="2092.782596" x2="5020.507069" y2="2165.48123" stroke="black" stroke-width="6.48"/>
<line x1="5020.507069" y1="2165.48123" x2="5096.143019" y2="2134.922321" stroke="black" stroke-width="6.48"/>
<line x1="5066.770867" y1="2062.22369" x2="4991.134914" y2="2092.782596" stroke="black" stroke-width="6.48"/>
<line x1="5007.290166" y1="2086.255451" x2="5036.662321" y2="2158.954085" stroke="black" stroke-width="6.48"/>
<line x1="3133.971022" y1="1074.41455" x2="3343.336225" y2="1074.41455" stroke="black" stroke-width="6.48"/>
<line x1="3343.336225" y1="1074.41455" x2="3343.336225" y2="743.200146" stroke="black" stroke-width="6.48"/>
<line x1="3343.336225" y1="743.200146" x2="3133.971022" y2="743.200146" stroke="black" stroke-width="6.48"/>
<line x1="3133.971022" y1="743.200146" x2="3133.971022" y2="1074.41455" stroke="black" stroke-width="6.48"/>
<line x1="3133.297822" y1="802.441746" x2="3344.009422" y2="802.441746" stroke="black" stroke-width="6.48"/>
<line x1="3344.009422" y1="802.441746" x2="3134.644222" y2="852.25855" stroke="black" stroke-width="6.48"/>
<line x1="3134.644222" y1="852.25855" x2="3166.284625" y2="898.70935" stroke="black" stroke-width="6.48"/>
<line x1="3166.284625" y1="898.70935" x2="3344.009422" y2="801.76855" stroke="black" stroke-width="6.48"/>
<line x1="3217.568159" y1="1203.913141" x2="3439.845324" y2="1203.913141" stroke="black" stroke-width="6.48"/>
<line x1="3439.845324" y1="1203.913141" x2="3439.845324" y2="1426.645793" stroke="black" stroke-width="6.48"/>
<line x1="3439.845324" y1="1426.645793" x2="3217.568159" y2="1426.645793" stroke="black" stroke-width="6.48"/>
<line x1="3217.568159" y1="1426.645793" x2="3217.568159" y2="1203.913141" stroke="black" stroke-width="6.48"/>
<line x1="3217.112672" y1="1203.457655" x2="3439.845324" y2="1426.645793" stroke="black" stroke-width="6.48"/>
<line x1="3217.568159" y1="1426.190306" x2="3439.389838" y2="1203.913141" stroke="black" stroke-width="6.48"/>
<line x1="2804.16708" y1="1127.69402" x2="2804.16708" y2="1153.148746" stroke="black" stroke-width="6.48"/>
<line x1="2804.16708" y1="1153.148746" x2="2853.834836" y2="1153.148746" stroke="black" stroke-width="6.48"/>
<line x1="2853.834836" y1="1153.148746" x2="2853.834836" y2="1127.69402" stroke="black" stroke-width="6.48"/>
<line x1="2853.834836" y1="1127.69402" x2="2804.16708" y2="1127.69402" stroke="black" stroke-width="6.48"/>
<line x1="2853.834836" y1="1402.108373" x2="3101.55277" y2="1402.108373" stroke="black" stroke-width="6.48"/>
<line x1="2802.925386" y1="1402.729218" x2="2802.925386" y2="1428.183943" stroke="black" stroke-width="6.48"/>
<line x1="2802.925386" y1="1428.183943" x2="2852.593142" y2="1428.183943" stroke="black" stroke-width="6.48"/>
<line x1="2852.593142" y1="1428.183943" x2="2852.593142" y2="1402.729218" stroke="black" stroke-width="6.48"/>
<line x1="2852.593142" y1="1402.729218" x2="2802.925386" y2="1402.729218" stroke="black" stroke-width="6.48"/>
<path d="m 2851.972294,1153.148746 a 248.95962699999984,248.95962699999984 0 0 1 248.95962699999973,248.95962699999995" fill="none" stroke="black" stroke-width="6.48"/>
<line x1="3444.569662" y1="1928.596248" x2="3420.32976" y2="1697.969005" stroke="black" stroke-width="6.48"/>
<line x1="3420.32976" y1="1697.969005" x2="3651.4296" y2="1673.679434" stroke="black" stroke-width="6.48"/>
<line x1="3651.4296" y1="1673.679434" x2="3675.669502" y2="1904.306674" stroke="black" stroke-width="6.48"/>
<line x1="3675.669502" y1="1904.306674" x2="3444.569662" y2="1928.596248" stroke="black" stroke-width="6.48"/>
<line x1="3444.146737" y1="1929.118514" x2="3651.4296" y2="1673.679434" stroke="black" stroke-width="6.48"/>
<line x1="3675.196901" y1="1904.356346" x2="3420.379433" y2="1698.441606" stroke="black" stroke-width="6.48"/>
<line x1="3002.693659" y1="1600.28357" x2="3004.31021" y2="1631.129238" stroke="black" stroke-width="6.48"/>
<line x1="3004.31021" y1="1631.129238" x2="3213.58621" y2="1620.16155" stroke="black" stroke-width="6.48"/>
<line x1="3213.58621" y1="1620.16155" x2="3211.969658" y2="1589.315882" stroke="black" stroke-width="6.48"/>
<line x1="3211.969658" y1="1589.315882" x2="3002.693659" y2="1600.28357" stroke="black" stroke-width="6.48"/>
<line x1="3013.362907" y1="1803.864985" x2="3014.979458" y2="1834.710656" stroke="black" stroke-width="6.48"/>
<line x1="3014.979458" y1="1834.710656" x2="3224.255461" y2="1823.742968" stroke="black" stroke-width="6.48"/>
<line x1="3224.255461" y1="1823.742968" x2="3222.63891" y2="1792.897294" stroke="black" stroke-width="6.48"/>
<line x1="3222.63891" y1="1792.897294" x2="3013.362907" y2="1803.864985" stroke="black" stroke-width="6.48"/>
<line x1="3004.285342" y1="1630.654693" x2="3013.362907" y2="1803.864985" stroke="black" stroke-width="6.48"/>
<line x1="3212.587372" y1="1619.262194" x2="3240.080276" y2="1644.46907" stroke="black" stroke-width="6.48"/>
<line x1="3246.422137" y1="1765.479002" x2="3221.714682" y2="1793.421587" stroke="black" stroke-width="6.48"/>
<line x1="3239.980798" y1="1642.570877" x2="3246.521616" y2="1767.3772" stroke="black" stroke-width="6.48"/>
<line x1="3048.917792" y1="1628.791459" x2="3057.995358" y2="1802.001751" stroke="black" stroke-width="6.48"/>
<line x1="3840.070216" y1="1109.27808" x2="3832.075814" y2="1079.442565" stroke="black" stroke-width="6.48"/>
<line x1="3832.075814" y1="1079.442565" x2="3629.653304" y2="1133.681512" stroke="black" stroke-width="6.48"/>
<line x1="3629.653304" y1="1133.681512" x2="3637.647706" y2="1163.517026" stroke="black" stroke-width="6.48"/>
<line x1="3637.647706" y1="1163.517026" x2="3840.070216" y2="1109.27808" stroke="black" stroke-width="6.48"/>
<line x1="3787.307158" y1="912.363671" x2="3779.312753" y2="882.528149" stroke="black" stroke-width="6.48"/>
<line x1="3779.312753" y1="882.528149" x2="3576.890246" y2="936.767099" stroke="black" stroke-width="6.48"/>
<line x1="3576.890246" y1="936.767099" x2="3584.884651" y2="966.602617" stroke="black" stroke-width="6.48"/>
<line x1="3584.884651" y1="966.602617" x2="3787.307158" y2="912.363671" stroke="black" stroke-width="6.48"/>
<line x1="3832.198805" y1="1079.901572" x2="3787.307158" y2="912.363671" stroke="black" stroke-width="6.48"/>
<line x1="3630.817303" y1="1134.353542" x2="3598.68438" y2="1115.413596" stroke="black" stroke-width="6.48"/>
<line x1="3567.32172" y1="998.366566" x2="3585.679675" y2="965.897626" stroke="black" stroke-width="6.48"/>
<line x1="3599.176342" y1="1117.249625" x2="3566.829758" y2="996.530533" stroke="black" stroke-width="6.48"/>
<line x1="3788.929062" y1="1091.003699" x2="3744.037418" y2="923.465797" stroke="black" stroke-width="6.48"/>
<line x1="6086.783826" y1="1938.265175" x2="6064.928179" y2="2146.207766" stroke="black" stroke-width="6.48"/>
<line x1="6064.928179" y1="2146.207766" x2="6295.555418" y2="2170.447668" stroke="black" stroke-width="6.48"/>
<line x1="6295.555418" y1="2170.447668" x2="6317.411065" y2="1962.505073" stroke="black" stroke-width="6.48"/>
<line x1="6317.411065" y1="1962.505073" x2="6086.783826" y2="1938.265175" stroke="black" stroke-width="6.48"/>
<line x1="6118.920407" y1="1941.642864" x2="6097.064764" y2="2149.585456" stroke="black" stroke-width="6.48"/>
<line x1="2291.328389" y1="2277.581195" x2="2322.047182" y2="2280.809876" stroke="black" stroke-width="6.48"/>
<line x1="2322.047182" y1="2280.809876" x2="2343.952552" y2="2072.394691" stroke="black" stroke-width="6.48"/>
<line x1="2343.952552" y1="2072.394691" x2="2313.233759" y2="2069.16601" stroke="black" stroke-width="6.48"/>
<line x1="2313.233759" y1="2069.16601" x2="2291.328389" y2="2277.581195" stroke="black" stroke-width="6.48"/>
<line x1="2494.072415" y1="2298.890502" x2="2524.791204" y2="2302.119184" stroke="black" stroke-width="6.48"/>
<line x1="2524.791204" y1="2302.119184" x2="2546.696574" y2="2093.703998" stroke="black" stroke-width="6.48"/>
<line x1="2546.696574" y1="2093.703998" x2="2515.977785" y2="2090.475317" stroke="black" stroke-width="6.48"/>
<line x1="2515.977785" y1="2090.475317" x2="2494.072415" y2="2298.890502" stroke="black" stroke-width="6.48"/>
<line x1="2321.574584" y1="2280.760204" x2="2494.072415" y2="2298.890502" stroke="black" stroke-width="6.48"/>
<line x1="2342.908015" y1="2073.24054" x2="2372.105398" y2="2050.029353" stroke="black" stroke-width="6.48"/>
<line x1="2492.617579" y1="2062.695722" x2="2516.351036" y2="2091.47018" stroke="black" stroke-width="6.48"/>
<line x1="2370.215009" y1="2049.830665" x2="2494.507964" y2="2062.89441" stroke="black" stroke-width="6.48"/>
<line x1="2326.716353" y1="2236.385779" x2="2499.214183" y2="2254.516074" stroke="black" stroke-width="6.48"/>
<line x1="1103.709413" y1="1937.014531" x2="1226.608214" y2="2106.170309" stroke="black" stroke-width="6.48"/>
<line x1="1226.608214" y1="2106.170309" x2="1414.217347" y2="1969.864366" stroke="black" stroke-width="6.48"/>
<line x1="1414.217347" y1="1969.864366" x2="1291.318546" y2="1800.708592" stroke="black" stroke-width="6.48"/>
<line x1="1291.318546" y1="1800.708592" x2="1103.709413" y2="1937.014531" stroke="black" stroke-width="6.48"/>
<line x1="1129.85167" y1="1918.021082" x2="1252.750471" y2="2087.176856" stroke="black" stroke-width="6.48"/>
</g>
</svg>
