<?xml version="1.0"?>
<svg xmlns:xlink="http://www.w3.org/1999/xlink" width="6775.2" height="2858.4">
<image x="0" y="0" width="6775.2" height="2858.4" xlink:href="groundfilled-01.png"/>
<g style="stroke-linecap:round">
<line x1="1285.950406" y1="795.178109" x2="1311.346069" y2="795.178109" stroke="black" stroke-width="6.48"/>
<line x1="1311.346069" y1="795.178109" x2="1311.346069" y2="745.625592" stroke="black" stroke-width="6.48"/>
<line x1="1311.346069" y1="745.625592" x2="1285.950406" y2="745.625592" stroke="black" stroke-width="6.48"/>
<line x1="1285.950406" y1="745.625592" x2="1285.950406" y2="795.178109" stroke="black" stroke-width="6.48"/>
<line x1="1559.728062" y1="745.625592" x2="1559.728062" y2="498.48241" stroke="black" stroke-width="6.48"/>
<line x1="1560.347471" y1="796.416923" x2="1585.743134" y2="796.416923" stroke="black" stroke-width="6.48"/>
<line x1="1585.743134" y1="796.416923" x2="1585.743134" y2="746.864406" stroke="black" stroke-width="6.48"/>
<line x1="1585.743134" y1="746.864406" x2="1560.347471" y2="746.864406" stroke="black" stroke-width="6.48"/>
<line x1="1560.347471" y1="746.864406" x2="1560.347471" y2="796.416923" stroke="black" stroke-width="6.48"/>
<path d="m 1311.346069,747.483811 a 248.38199299999997,248.38199299999997 0 0 1 248.38199299999997,-248.38199299999997" fill="none" stroke="black" stroke-width="6.48"/>
<line x1="330.523178" y1="771.328966" x2="330.523178" y2="366.748985" stroke="black" stroke-width="6.48"/>
<line x1="330.523178" y1="366.748985" x2="258.15928" y2="366.748985" stroke="black" stroke-width="6.48"/>
<line x1="258.15928" y1="366.748985" x2="258.15928" y2="771.328966" stroke="black" stroke-width="6.48"/>
<line x1="258.15928" y1="771.328966" x2="330.523178" y2="771.328966" stroke="black" stroke-width="6.48"/>
<line x1="330.523178" y1="752.415674" x2="355.19269" y2="752.415674" stroke="black" stroke-width="6.48"/>
<line x1="355.19269" y1="752.415674" x2="355.19269" y2="386.484595" stroke="black" stroke-width="6.48"/>
<line x1="330.523178" y1="386.484595" x2="355.19269" y2="386.484595" stroke="black" stroke-width="6.48"/>
<line x1="3901.945176" y1="1169.331426" x2="3901.945176" y2="1428.837066" stroke="black" stroke-width="6.48"/>
<line x1="3901.945176" y1="1428.837066" x2="3941.9501" y2="1428.837066" stroke="black" stroke-width="6.48"/>
<line x1="3941.9501" y1="1428.837066" x2="3941.9501" y2="1169.331426" stroke="black" stroke-width="6.48"/>
<line x1="3941.9501" y1="1169.331426" x2="3901.945176" y2="1169.331426" stroke="black" stroke-width="6.48"/>
<line x1="3941.423719" y1="1193.544936" x2="3902.471557" y2="1193.544936" stroke="black" stroke-width="6.48"/>
<line x1="3941.423719" y1="1404.097178" x2="3900.892414" y2="1404.097178" stroke="black" stroke-width="6.48"/>
<line x1="3923.000399" y1="1193.018555" x2="3923.000399" y2="1403.570797" stroke="black" stroke-width="6.48"/>
<line x1="334.430687" y1="1882.943946" x2="334.430687" y2="1457.437414" stroke="black" stroke-width="6.48"/>
<line x1="334.430687" y1="1457.437414" x2="258.323828" y2="1457.437414" stroke="black" stroke-width="6.48"/>
<line x1="258.323828" y1="1457.437414" x2="258.323828" y2="1882.943946" stroke="black" stroke-width="6.48"/>
<line x1="258.323828" y1="1882.943946" x2="334.430687" y2="1882.943946" stroke="black" stroke-width="6.48"/>
<line x1="334.430687" y1="1863.05238" x2="360.376207" y2="1863.05238" stroke="black" stroke-width="6.48"/>
<line x1="360.376207" y1="1863.05238" x2="360.376207" y2="1478.193829" stroke="black" stroke-width="6.48"/>
<line x1="334.430687" y1="1478.193829" x2="360.376207" y2="1478.193829" stroke="black" stroke-width="6.48"/>
<line x1="2747.905531" y1="904.670665" x2="2721.68303" y2="904.670665" stroke="black" stroke-width="6.48"/>
<line x1="2721.68303" y1="904.670665" x2="2721.68303" y2="955.836522" stroke="black" stroke-width="6.48"/>
<line x1="2721.68303" y1="955.836522" x2="2747.905531" y2="955.836522" stroke="black" stroke-width="6.48"/>
<line x1="2747.905531" y1="955.836522" x2="2747.905531" y2="904.670665" stroke="black" stroke-width="6.48"/>
<line x1="2465.214181" y1="955.836522" x2="2465.214181" y2="1211.026223" stroke="black" stroke-width="6.48"/>
<line x1="2464.574609" y1="903.39152" x2="2438.352108" y2="903.39152" stroke="black" stroke-width="6.48"/>
<line x1="2438.352108" y1="903.39152" x2="2438.352108" y2="954.557374" stroke="black" stroke-width="6.48"/>
<line x1="2438.352108" y1="954.557374" x2="2464.574609" y2="954.557374" stroke="black" stroke-width="6.48"/>
<line x1="2464.574609" y1="954.557374" x2="2464.574609" y2="903.39152" stroke="black" stroke-width="6.48"/>
<path d="m 2721.68303,953.917801 a 256.4688490000001,256.4688490000001 0 0 1 -256.4688490000003,256.46884899999986" fill="none" stroke="black" stroke-width="6.48"/>
<line x1="2420.532389" y1="1427.858834" x2="2395.136725" y2="1427.858834" stroke="black" stroke-width="6.48"/>
<line x1="2395.136725" y1="1427.858834" x2="2395.136725" y2="1477.411351" stroke="black" stroke-width="6.48"/>
<line x1="2395.136725" y1="1477.411351" x2="2420.532389" y2="1477.411351" stroke="black" stroke-width="6.48"/>
<line x1="2420.532389" y1="1477.411351" x2="2420.532389" y2="1427.858834" stroke="black" stroke-width="6.48"/>
<line x1="2146.754732" y1="1477.411351" x2="2146.754732" y2="1724.554534" stroke="black" stroke-width="6.48"/>
<line x1="2146.135324" y1="1426.62002" x2="2120.73966" y2="1426.62002" stroke="black" stroke-width="6.48"/>
<line x1="2120.73966" y1="1426.62002" x2="2120.73966" y2="1476.172537" stroke="black" stroke-width="6.48"/>
<line x1="2120.73966" y1="1476.172537" x2="2146.135324" y2="1476.172537" stroke="black" stroke-width="6.48"/>
<line x1="2146.135324" y1="1476.172537" x2="2146.135324" y2="1426.62002" stroke="black" stroke-width="6.48"/>
<path d="m 2395.136725,1475.553132 a 248.38199299999997,248.38199299999997 0 0 1 -248.38199299999997,248.38199299999997" fill="none" stroke="black" stroke-width="6.48"/>
<line x1="428.371344" y1="692.136151" x2="821.203344" y2="692.136151" stroke="black" stroke-width="6.48"/>
<line x1="821.203344" y1="692.136151" x2="821.203344" y2="507.600151" stroke="black" stroke-width="6.48"/>
<line x1="821.203344" y1="507.600151" x2="428.371344" y2="507.600151" stroke="black" stroke-width="6.48"/>
<line x1="428.371344" y1="507.600151" x2="428.371344" y2="692.136151" stroke="black" stroke-width="6.48"/>
<line x1="587.563344" y1="507.600151" x2="587.563344" y2="426.816151" stroke="black" stroke-width="6.48"/>
<line x1="587.563344" y1="426.816151" x2="509.155344" y2="426.816151" stroke="black" stroke-width="6.48"/>
<line x1="509.155344" y1="426.816151" x2="509.155344" y2="507.600151" stroke="black" stroke-width="6.48"/>
<line x1="509.947344" y1="444.240151" x2="587.563344" y2="444.240151" stroke="black" stroke-width="6.48"/>
<line x1="509.155344" y1="773.712151" x2="587.563344" y2="773.712151" stroke="black" stroke-width="6.48"/>
<line x1="587.563344" y1="773.712151" x2="587.563344" y2="692.136151" stroke="black" stroke-width="6.48"/>
<line x1="509.155344" y1="692.136151" x2="509.155344" y2="773.712151" stroke="black" stroke-width="6.48"/>
<line x1="509.947344" y1="756.288151" x2="587.563344" y2="756.288151" stroke="black" stroke-width="6.48"/>
<line x1="738.835344" y1="507.600151" x2="738.835344" y2="426.816151" stroke="black" stroke-width="6.48"/>
<line x1="738.835344" y1="426.816151" x2="660.427344" y2="426.816151" stroke="black" stroke-width="6.48"/>
<line x1="660.427344" y1="426.816151" x2="660.427344" y2="507.600151" stroke="black" stroke-width="6.48"/>
<line x1="660.427344" y1="444.240151" x2="738.835344" y2="444.240151" stroke="black" stroke-width="6.48"/>
<line x1="660.427344" y1="773.712151" x2="738.835344" y2="773.712151" stroke="black" stroke-width="6.48"/>
<line x1="738.835344" y1="773.712151" x2="738.835344" y2="692.136151" stroke="black" stroke-width="6.48"/>
<line x1="660.427344" y1="692.136151" x2="660.427344" y2="773.712151" stroke="black" stroke-width="6.48"/>
<line x1="660.427344" y1="756.288151" x2="738.835344" y2="756.288151" stroke="black" stroke-width="6.48"/>
<line x1="2032.924367" y1="1701.574056" x2="2032.924367" y2="1492.486056" stroke="black" stroke-width="6.48"/>
<line x1="2032.924367" y1="1492.486056" x2="1801.026767" y2="1492.486056" stroke="black" stroke-width="6.48"/>
<line x1="1801.026767" y1="1492.486056" x2="1801.026767" y2="1701.574056" stroke="black" stroke-width="6.48"/>
<line x1="1801.026767" y1="1701.574056" x2="2032.924367" y2="1701.574056" stroke="black" stroke-width="6.48"/>
<line x1="2000.610767" y1="1701.574056" x2="2000.610767" y2="1492.486056" stroke="black" stroke-width="6.48"/>
<line x1="1485.415969" y1="209.267824" x2="1707.693134" y2="209.267824" stroke="black" stroke-width="6.48"/>
<line x1="1707.693134" y1="209.267824" x2="1707.693134" y2="432.000475" stroke="black" stroke-width="6.48"/>
<line x1="1707.693134" y1="432.000475" x2="1485.415969" y2="432.000475" stroke="black" stroke-width="6.48"/>
<line x1="1485.415969" y1="432.000475" x2="1485.415969" y2="209.267824" stroke="black" stroke-width="6.48"/>
<line x1="1484.960483" y1="208.812337" x2="1707.693134" y2="432.000475" stroke="black" stroke-width="6.48"/>
<line x1="1485.415969" y1="431.544989" x2="1707.237648" y2="209.267824" stroke="black" stroke-width="6.48"/>
<line x1="2761.020558" y1="2194.614338" x2="2761.020558" y2="1803.366338" stroke="black" stroke-width="6.48"/>
<line x1="2761.020558" y1="1803.366338" x2="2586.780558" y2="1803.366338" stroke="black" stroke-width="6.48"/>
<line x1="2586.780558" y1="1803.366338" x2="2586.780558" y2="2194.614338" stroke="black" stroke-width="6.48"/>
<line x1="2586.780558" y1="2194.614338" x2="2761.020558" y2="2194.614338" stroke="black" stroke-width="6.48"/>
<line x1="2613.708558" y1="1878.606338" x2="2613.708558" y2="2162.934338" stroke="black" stroke-width="6.48"/>
<line x1="2613.708558" y1="2162.934338" x2="2731.716558" y2="2162.934338" stroke="black" stroke-width="6.48"/>
<line x1="2731.716558" y1="2162.934338" x2="2731.716558" y2="1873.062338" stroke="black" stroke-width="6.48"/>
<path d="m 2613.453134,1879.416911 a 63.3599990854681,63.3599990854681 0 0 1 119.3743300000001,-4.293814000000111" fill="none" stroke="black" stroke-width="6.48"/>
<line x1="2105.75556" y1="1899.841352" x2="2105.75556" y2="2083.585352" stroke="black" stroke-width="6.48"/>
<line x1="2105.75556" y1="2083.585352" x2="2056.65156" y2="2083.585352" stroke="black" stroke-width="6.48"/>
<line x1="2056.65156" y1="1899.841352" x2="2056.65156" y2="2083.585352" stroke="black" stroke-width="6.48"/>
<line x1="2105.75556" y1="1899.841352" x2="2056.65156" y2="1899.841352" stroke="black" stroke-width="6.48"/>
<line x1="2133.47556" y1="1941.421352" x2="2105.75556" y2="1941.421352" stroke="black" stroke-width="6.48"/>
<line x1="2105.75556" y1="2040.421352" x2="2135.05956" y2="2040.421352" stroke="black" stroke-width="6.48"/>
<circle cx="2178.61956" cy="1990.129352" r="66.52800000000002" fill="none" stroke="black" stroke-width="6.48"/>
<circle cx="2178.61956" cy="1990.129352" r="57.02400000000001" fill="none" stroke="black" stroke-width="6.48"/>
<line x1="884.339525" y1="1135.102291" x2="1018.695985" y2="1504.243624" stroke="black" stroke-width="6.48"/>
<line x1="1018.695985" y1="1504.243624" x2="1192.1031" y2="1441.128593" stroke="black" stroke-width="6.48"/>
<line x1="1192.1031" y1="1441.128593" x2="1057.746643" y2="1071.98726" stroke="black" stroke-width="6.48"/>
<line x1="1057.746643" y1="1071.98726" x2="884.339525" y2="1135.102291" stroke="black" stroke-width="6.48"/>
<line x1="1112.193511" y1="1221.578809" x2="1188.105642" y2="1193.949054" stroke="black" stroke-width="6.48"/>
<line x1="1188.105642" y1="1193.949054" x2="1161.288526" y2="1120.269636" stroke="black" stroke-width="6.48"/>
<line x1="1161.288526" y1="1120.269636" x2="1085.376395" y2="1147.899391" stroke="black" stroke-width="6.48"/>
<line x1="1145.186201" y1="1126.973228" x2="1171.732439" y2="1199.908411" stroke="black" stroke-width="6.48"/>
<line x1="835.312914" y1="1238.915052" x2="862.13003" y2="1312.594474" stroke="black" stroke-width="6.48"/>
<line x1="862.13003" y1="1312.594474" x2="938.786396" y2="1284.693836" stroke="black" stroke-width="6.48"/>
<line x1="911.96928" y1="1211.014418" x2="835.312914" y2="1238.915052" stroke="black" stroke-width="6.48"/>
<line x1="851.956999" y1="1233.69993" x2="878.503237" y2="1306.635116" stroke="black" stroke-width="6.48"/>
<line x1="1163.931584" y1="1363.727992" x2="1239.843712" y2="1336.098236" stroke="black" stroke-width="6.48"/>
<line x1="1239.843712" y1="1336.098236" x2="1213.026595" y2="1262.418818" stroke="black" stroke-width="6.48"/>
<line x1="1213.026595" y1="1262.418818" x2="1137.114468" y2="1290.048574" stroke="black" stroke-width="6.48"/>
<line x1="1196.653396" y1="1268.378176" x2="1223.470512" y2="1342.057597" stroke="black" stroke-width="6.48"/>
<line x1="887.050987" y1="1381.064238" x2="913.868104" y2="1454.743652" stroke="black" stroke-width="6.48"/>
<line x1="913.868104" y1="1454.743652" x2="990.52447" y2="1426.843022" stroke="black" stroke-width="6.48"/>
<line x1="963.707353" y1="1353.163604" x2="887.050987" y2="1381.064238" stroke="black" stroke-width="6.48"/>
<line x1="903.42419" y1="1375.104877" x2="930.241307" y2="1448.784299" stroke="black" stroke-width="6.48"/>
<line x1="2044.889399" y1="955.822399" x2="2267.166564" y2="955.822399" stroke="black" stroke-width="6.48"/>
<line x1="2267.166564" y1="955.822399" x2="2267.166564" y2="1178.555051" stroke="black" stroke-width="6.48"/>
<line x1="2267.166564" y1="1178.555051" x2="2044.889399" y2="1178.555051" stroke="black" stroke-width="6.48"/>
<line x1="2044.889399" y1="1178.555051" x2="2044.889399" y2="955.822399" stroke="black" stroke-width="6.48"/>
<line x1="2044.433912" y1="955.366913" x2="2267.166564" y2="1178.555051" stroke="black" stroke-width="6.48"/>
<line x1="2044.889399" y1="1178.099564" x2="2266.711078" y2="955.822399" stroke="black" stroke-width="6.48"/>
<line x1="323.258818" y1="1375.374532" x2="323.258818" y2="949.841089" stroke="black" stroke-width="6.48"/>
<line x1="323.258818" y1="949.841089" x2="257.659344" y2="949.841089" stroke="black" stroke-width="6.48"/>
<line x1="257.659344" y1="949.841089" x2="257.659344" y2="1375.374532" stroke="black" stroke-width="6.48"/>
<line x1="257.659344" y1="1375.374532" x2="323.258818" y2="1375.374532" stroke="black" stroke-width="6.48"/>
<line x1="258.522494" y1="1335.669588" x2="322.395667" y2="1335.669588" stroke="black" stroke-width="6.48"/>
<line x1="258.522494" y1="990.409187" x2="324.985122" y2="990.409187" stroke="black" stroke-width="6.48"/>
<line x1="288.73278" y1="1336.532738" x2="288.73278" y2="991.272337" stroke="black" stroke-width="6.48"/>
<line x1="3874.406537" y1="1514.726719" x2="3874.406537" y2="1940.260162" stroke="black" stroke-width="6.48"/>
<line x1="3874.406537" y1="1940.260162" x2="3940.00601" y2="1940.260162" stroke="black" stroke-width="6.48"/>
<line x1="3940.00601" y1="1940.260162" x2="3940.00601" y2="1514.726719" stroke="black" stroke-width="6.48"/>
<line x1="3940.00601" y1="1514.726719" x2="3874.406537" y2="1514.726719" stroke="black" stroke-width="6.48"/>
<line x1="3939.14286" y1="1554.431663" x2="3875.269687" y2="1554.431663" stroke="black" stroke-width="6.48"/>
<line x1="3939.14286" y1="1899.692064" x2="3872.680232" y2="1899.692064" stroke="black" stroke-width="6.48"/>
<line x1="3908.932574" y1="1553.568512" x2="3908.932574" y2="1898.828914" stroke="black" stroke-width="6.48"/>
<line x1="4845.616664" y1="1750.423972" x2="4717.435165" y2="1718.46473" stroke="black" stroke-width="6.48"/>
<line x1="4717.435165" y1="1718.46473" x2="4720.884001" y2="1704.632198" stroke="black" stroke-width="6.48"/>
<line x1="4849.065504" y1="1736.591432" x2="4720.884001" y2="1704.632198" stroke="black" stroke-width="6.48"/>
<line x1="4845.616664" y1="1750.423972" x2="4849.065504" y2="1736.591432" stroke="black" stroke-width="6.48"/>
<line x1="4836.155134" y1="1733.372518" x2="4845.586921" y2="1703.400786" stroke="black" stroke-width="6.48"/>
<line x1="4733.794368" y1="1707.851113" x2="4739.767402" y2="1676.037517" stroke="black" stroke-width="6.48"/>
<line x1="4957.129112" y1="1303.171974" x2="4828.94761" y2="1271.21274" stroke="black" stroke-width="6.48"/>
<line x1="4828.94761" y1="1271.21274" x2="4825.728695" y2="1284.123103" stroke="black" stroke-width="6.48"/>
<line x1="4953.910194" y1="1316.082344" x2="4825.728695" y2="1284.123103" stroke="black" stroke-width="6.48"/>
<line x1="4957.129112" y1="1303.171974" x2="4953.910194" y2="1316.082344" stroke="black" stroke-width="6.48"/>
<line x1="4941.46215" y1="1314.937685" x2="4935.719041" y2="1345.829112" stroke="black" stroke-width="6.48"/>
<line x1="4839.101388" y1="1289.416284" x2="4828.51751" y2="1320.08026" stroke="black" stroke-width="6.48"/>
<line x1="4598.59869" y1="1519.382804" x2="4612.431229" y2="1522.831644" stroke="black" stroke-width="6.48"/>
<line x1="4612.431229" y1="1522.831644" x2="4644.390463" y2="1394.650141" stroke="black" stroke-width="6.48"/>
<line x1="4630.557931" y1="1391.201302" x2="4644.390463" y2="1394.650141" stroke="black" stroke-width="6.48"/>
<line x1="4598.59869" y1="1519.382804" x2="4630.557931" y2="1391.201302" stroke="black" stroke-width="6.48"/>
<line x1="4640.941624" y1="1408.48268" x2="4672.985141" y2="1413.533542" stroke="black" stroke-width="6.48"/>
<line x1="4615.65014" y1="1509.921274" x2="4646.544044" y2="1519.582982" stroke="black" stroke-width="6.48"/>
<line x1="5044.69859" y1="1631.587496" x2="5030.866058" y2="1628.138657" stroke="black" stroke-width="6.48"/>
<line x1="5030.866058" y1="1628.138657" x2="5062.825292" y2="1499.957158" stroke="black" stroke-width="6.48"/>
<line x1="5076.657832" y1="1503.405997" x2="5062.825292" y2="1499.957158" stroke="black" stroke-width="6.48"/>
<line x1="5044.69859" y1="1631.587496" x2="5076.657832" y2="1503.405997" stroke="black" stroke-width="6.48"/>
<line x1="5059.376453" y1="1513.789693" x2="5028.712474" y2="1503.205819" stroke="black" stroke-width="6.48"/>
<line x1="5034.084973" y1="1615.228294" x2="5002.271381" y2="1609.25526" stroke="black" stroke-width="6.48"/>
<circle cx="4837.628264" cy="1511.394401" r="191.98080000000002" fill="none" stroke="black" stroke-width="6.48"/>
<line x1="3329.377862" y1="1075.059457" x2="3538.743066" y2="1075.059457" stroke="black" stroke-width="6.48"/>
<line x1="3538.743066" y1="1075.059457" x2="3538.743066" y2="743.845054" stroke="black" stroke-width="6.48"/>
<line x1="3538.743066" y1="743.845054" x2="3329.377862" y2="743.845054" stroke="black" stroke-width="6.48"/>
<line x1="3329.377862" y1="743.845054" x2="3329.377862" y2="1075.059457" stroke="black" stroke-width="6.48"/>
<line x1="3328.704662" y1="803.086654" x2="3539.416262" y2="803.086654" stroke="black" stroke-width="6.48"/>
<line x1="3539.416262" y1="803.086654" x2="3330.051062" y2="852.903457" stroke="black" stroke-width="6.48"/>
<line x1="3330.051062" y1="852.903457" x2="3361.691466" y2="899.354257" stroke="black" stroke-width="6.48"/>
<line x1="3361.691466" y1="899.354257" x2="3539.416262" y2="802.413457" stroke="black" stroke-width="6.48"/>
<line x1="3528.630976" y1="1202.653778" x2="3750.908141" y2="1202.653778" stroke="black" stroke-width="6.48"/>
<line x1="3750.908141" y1="1202.653778" x2="3750.908141" y2="1425.38643" stroke="black" stroke-width="6.48"/>
<line x1="3750.908141" y1="1425.38643" x2="3528.630976" y2="1425.38643" stroke="black" stroke-width="6.48"/>
<line x1="3528.630976" y1="1425.38643" x2="3528.630976" y2="1202.653778" stroke="black" stroke-width="6.48"/>
<line x1="3528.175489" y1="1202.198292" x2="3750.908141" y2="1425.38643" stroke="black" stroke-width="6.48"/>
<line x1="3528.630976" y1="1424.930944" x2="3750.452654" y2="1202.653778" stroke="black" stroke-width="6.48"/>
<line x1="2804.16708" y1="1127.69402" x2="2804.16708" y2="1153.148746" stroke="black" stroke-width="6.48"/>
<line x1="2804.16708" y1="1153.148746" x2="2853.834836" y2="1153.148746" stroke="black" stroke-width="6.48"/>
<line x1="2853.834836" y1="1153.148746" x2="2853.834836" y2="1127.69402" stroke="black" stroke-width="6.48"/>
<line x1="2853.834836" y1="1127.69402" x2="2804.16708" y2="1127.69402" stroke="black" stroke-width="6.48"/>
<line x1="2853.834836" y1="1402.108373" x2="3101.55277" y2="1402.108373" stroke="black" stroke-width="6.48"/>
<line x1="2802.925386" y1="1402.729218" x2="2802.925386" y2="1428.183943" stroke="black" stroke-width="6.48"/>
<line x1="2802.925386" y1="1428.183943" x2="2852.593142" y2="1428.183943" stroke="black" stroke-width="6.48"/>
<line x1="2852.593142" y1="1428.183943" x2="2852.593142" y2="1402.729218" stroke="black" stroke-width="6.48"/>
<line x1="2852.593142" y1="1402.729218" x2="2802.925386" y2="1402.729218" stroke="black" stroke-width="6.48"/>
<path d="m 2851.972294,1153.148746 a 248.95962699999984,248.95962699999984 0 0 1 248.95962699999973,248.95962699999995" fill="none" stroke="black" stroke-width="6.48"/>
<line x1="2912.750536" y1="2000.331526" x2="2841.54539" y2="2176.570663" stroke="black" stroke-width="6.48"/>
<line x1="2841.54539" y1="2176.570663" x2="3271.568886" y2="2350.311214" stroke="black" stroke-width="6.48"/>
<line x1="3271.568886" y1="2350.311214" x2="3342.774031" y2="2174.072076" stroke="black" stroke-width="6.48"/>
<line x1="3342.774031" y1="2174.072076" x2="3320.744141" y2="2165.171432" stroke="black" stroke-width="6.48"/>
<line x1="3320.744141" y1="2165.171432" x2="3258.083614" y2="2320.261877" stroke="black" stroke-width="6.48"/>
<line x1="3258.083614" y1="2320.261877" x2="2873.001096" y2="2164.678636" stroke="black" stroke-width="6.48"/>
<line x1="2873.001096" y1="2164.678636" x2="2935.661623" y2="2009.588195" stroke="black" stroke-width="6.48"/>
<line x1="2935.661623" y1="2009.588195" x2="2912.750536" y2="2000.331526" stroke="black" stroke-width="6.48"/>
<line x1="2933.52547" y1="2014.875367" x2="3318.607987" y2="2170.458608" stroke="black" stroke-width="6.48"/>
<line x1="3125.982154" y1="2091.60778" x2="3065.457784" y2="2241.411048" stroke="black" stroke-width="6.48"/>
<line x1="3410.526881" y1="1890.657504" x2="3458.741101" y2="1663.827422" stroke="black" stroke-width="6.48"/>
<line x1="3458.741101" y1="1663.827422" x2="3686.036" y2="1712.140445" stroke="black" stroke-width="6.48"/>
<line x1="3686.036" y1="1712.140445" x2="3637.821776" y2="1938.970526" stroke="black" stroke-width="6.48"/>
<line x1="3637.821776" y1="1938.970526" x2="3410.526881" y2="1890.657504" stroke="black" stroke-width="6.48"/>
<line x1="3409.963265" y1="1891.02352" x2="3686.036" y2="1712.140445" stroke="black" stroke-width="6.48"/>
<line x1="3637.356962" y1="1938.871728" x2="3458.642299" y2="1664.292236" stroke="black" stroke-width="6.48"/>
<line x1="3031.233131" y1="1589.315879" x2="3026.401182" y2="1619.823596" stroke="black" stroke-width="6.48"/>
<line x1="3026.401182" y1="1619.823596" x2="3233.384312" y2="1652.606503" stroke="black" stroke-width="6.48"/>
<line x1="3233.384312" y1="1652.606503" x2="3238.216261" y2="1622.098786" stroke="black" stroke-width="6.48"/>
<line x1="3238.216261" y1="1622.098786" x2="3031.233131" y2="1589.315879" stroke="black" stroke-width="6.48"/>
<line x1="2999.342279" y1="1790.666816" x2="2994.51033" y2="1821.17453" stroke="black" stroke-width="6.48"/>
<line x1="2994.51033" y1="1821.17453" x2="3201.493457" y2="1853.957441" stroke="black" stroke-width="6.48"/>
<line x1="3201.493457" y1="1853.957441" x2="3206.325406" y2="1823.44972" stroke="black" stroke-width="6.48"/>
<line x1="3206.325406" y1="1823.44972" x2="2999.342279" y2="1790.666816" stroke="black" stroke-width="6.48"/>
<line x1="3026.475518" y1="1619.354243" x2="2999.342279" y2="1790.666816" stroke="black" stroke-width="6.48"/>
<line x1="3232.594289" y1="1651.519127" x2="3254.245603" y2="1681.891268" stroke="black" stroke-width="6.48"/>
<line x1="3235.289501" y1="1801.575396" x2="3205.312369" y2="1823.770393" stroke="black" stroke-width="6.48"/>
<line x1="3254.542952" y1="1680.013872" x2="3234.992148" y2="1803.452792" stroke="black" stroke-width="6.48"/>
<line x1="3070.520039" y1="1626.811337" x2="3043.386792" y2="1798.123903" stroke="black" stroke-width="6.48"/>
<line x1="1209.178127" y1="1889.340894" x2="1217.692001" y2="1919.032348" stroke="black" stroke-width="6.48"/>
<line x1="1217.692001" y1="1919.032348" x2="1419.137096" y2="1861.268951" stroke="black" stroke-width="6.48"/>
<line x1="1419.137096" y1="1861.268951" x2="1410.623219" y2="1831.577497" stroke="black" stroke-width="6.48"/>
<line x1="1410.623219" y1="1831.577497" x2="1209.178127" y2="1889.340894" stroke="black" stroke-width="6.48"/>
<line x1="1265.369728" y1="2085.304489" x2="1273.883609" y2="2114.995939" stroke="black" stroke-width="6.48"/>
<line x1="1273.883609" y1="2114.995939" x2="1475.328697" y2="2057.232542" stroke="black" stroke-width="6.48"/>
<line x1="1475.328697" y1="2057.232542" x2="1466.81482" y2="2027.541092" stroke="black" stroke-width="6.48"/>
<line x1="1466.81482" y1="2027.541092" x2="1265.369728" y2="2085.304489" stroke="black" stroke-width="6.48"/>
<line x1="1217.561026" y1="1918.575554" x2="1265.369728" y2="2085.304489" stroke="black" stroke-width="6.48"/>
<line x1="1417.961545" y1="1860.617336" x2="1450.420117" y2="1878.993612" stroke="black" stroke-width="6.48"/>
<line x1="1483.820723" y1="1995.475464" x2="1466.032223" y2="2028.259843" stroke="black" stroke-width="6.48"/>
<line x1="1449.896188" y1="1877.166443" x2="1484.344652" y2="1997.302633" stroke="black" stroke-width="6.48"/>
<line x1="1260.63041" y1="1906.71997" x2="1308.43912" y2="2073.448897" stroke="black" stroke-width="6.48"/>
<line x1="6105.643409" y1="1560.142472" x2="5924.86659" y2="1501.40452" stroke="black" stroke-width="6.48"/>
<line x1="5924.86659" y1="1501.40452" x2="5781.545986" y2="1942.499966" stroke="black" stroke-width="6.48"/>
<line x1="5781.545986" y1="1942.499966" x2="5962.322812" y2="2001.237919" stroke="black" stroke-width="6.48"/>
<line x1="5962.322812" y1="2001.237919" x2="5969.665055" y2="1978.640816" stroke="black" stroke-width="6.48"/>
<line x1="5969.665055" y1="1978.640816" x2="5810.581451" y2="1926.951419" stroke="black" stroke-width="6.48"/>
<line x1="5810.581451" y1="1926.951419" x2="5938.923874" y2="1531.954066" stroke="black" stroke-width="6.48"/>
<line x1="5938.923874" y1="1531.954066" x2="6098.007474" y2="1583.64346" stroke="black" stroke-width="6.48"/>
<line x1="6098.007474" y1="1583.64346" x2="6105.643409" y2="1560.142472" stroke="black" stroke-width="6.48"/>
<line x1="6092.584171" y1="1581.881321" x2="5964.241752" y2="1976.878681" stroke="black" stroke-width="6.48"/>
<line x1="6029.463686" y1="1779.221747" x2="5875.803392" y2="1729.294492" stroke="black" stroke-width="6.48"/>
<line x1="952.609536" y1="211.23473" x2="1345.853408" y2="211.23473" stroke="black" stroke-width="6.48"/>
<line x1="1349.808815" y1="210.238448" x2="1349.808815" y2="346.307224" stroke="black" stroke-width="6.48"/>
<line x1="953.073925" y1="347.45873" x2="1350.114156" y2="347.45873" stroke="black" stroke-width="6.48"/>
<line x1="953.808815" y1="211.92948" x2="953.808815" y2="347.193536" stroke="black" stroke-width="6.48"/>
<line x1="964.104815" y1="222.32273" x2="1087.656815" y2="222.32273" stroke="black" stroke-width="6.48"/>
<line x1="1087.656815" y1="222.32273" x2="1087.656815" y2="336.37073" stroke="black" stroke-width="6.48"/>
<line x1="964.104815" y1="336.37073" x2="1087.656815" y2="336.37073" stroke="black" stroke-width="6.48"/>
<line x1="964.104815" y1="222.32273" x2="964.104815" y2="336.37073" stroke="black" stroke-width="6.48"/>
<line x1="1106.664815" y1="229.45073" x2="1193.784815" y2="229.45073" stroke="black" stroke-width="6.48"/>
<line x1="1106.664815" y1="249.25073" x2="1193.784815" y2="249.25073" stroke="black" stroke-width="6.48"/>
<line x1="1107.456815" y1="269.84273" x2="1193.784815" y2="269.84273" stroke="black" stroke-width="6.48"/>
<line x1="1107.456815" y1="289.64273" x2="1193.784815" y2="289.64273" stroke="black" stroke-width="6.48"/>
<line x1="1106.664815" y1="309.44273" x2="1193.784815" y2="309.44273" stroke="black" stroke-width="6.48"/>
<line x1="1106.664815" y1="329.24273" x2="1193.784815" y2="329.24273" stroke="black" stroke-width="6.48"/>
<line x1="1011.624815" y1="335.57873" x2="1011.624815" y2="322.11473" stroke="black" stroke-width="6.48"/>
<line x1="1011.624815" y1="322.11473" x2="1041.720815" y2="322.11473" stroke="black" stroke-width="6.48"/>
<line x1="1041.720815" y1="322.11473" x2="1041.720815" y2="334.78673" stroke="black" stroke-width="6.48"/>
<line x1="1214.376815" y1="222.32273" x2="1337.928815" y2="222.32273" stroke="black" stroke-width="6.48"/>
<line x1="1337.928815" y1="222.32273" x2="1337.928815" y2="336.37073" stroke="black" stroke-width="6.48"/>
<line x1="1214.376815" y1="336.37073" x2="1337.928815" y2="336.37073" stroke="black" stroke-width="6.48"/>
<line x1="1214.376815" y1="222.32273" x2="1214.376815" y2="336.37073" stroke="black" stroke-width="6.48"/>
<line x1="1261.896815" y1="336.37073" x2="1261.896815" y2="322.90673" stroke="black" stroke-width="6.48"/>
<line x1="1261.896815" y1="322.90673" x2="1291.992815" y2="322.90673" stroke="black" stroke-width="6.48"/>
<line x1="1291.992815" y1="322.90673" x2="1291.992815" y2="335.57873" stroke="black" stroke-width="6.48"/>
<circle cx="1073.400815" cy="236.57873" r="7.128000000000001" fill="none" stroke="black" stroke-width="6.48"/>
<circle cx="1323.672815" cy="237.37073" r="7.128000000000001" fill="none" stroke="black" stroke-width="6.48"/>
<line x1="6245.533973" y1="2088.008946" x2="6239.111998" y2="2118.221971" stroke="black" stroke-width="6.48"/>
<line x1="6239.111998" y1="2118.221971" x2="6444.095738" y2="2161.792606" stroke="black" stroke-width="6.48"/>
<line x1="6444.095738" y1="2161.792606" x2="6450.517714" y2="2131.579584" stroke="black" stroke-width="6.48"/>
<line x1="6450.517714" y1="2131.579584" x2="6245.533973" y2="2088.008946" stroke="black" stroke-width="6.48"/>
<line x1="6203.148926" y1="2287.414897" x2="6196.726951" y2="2317.627922" stroke="black" stroke-width="6.48"/>
<line x1="6196.726951" y1="2317.627922" x2="6401.710696" y2="2361.19856" stroke="black" stroke-width="6.48"/>
<line x1="6401.710696" y1="2361.19856" x2="6408.132671" y2="2330.985535" stroke="black" stroke-width="6.48"/>
<line x1="6408.132671" y1="2330.985535" x2="6203.148926" y2="2287.414897" stroke="black" stroke-width="6.48"/>
<line x1="6239.210796" y1="2117.757154" x2="6203.148926" y2="2287.414897" stroke="black" stroke-width="6.48"/>
<line x1="6443.363704" y1="2160.665377" x2="6463.395792" y2="2192.129039" stroke="black" stroke-width="6.48"/>
<line x1="6438.201883" y1="2310.657055" x2="6407.104237" y2="2331.252752" stroke="black" stroke-width="6.48"/>
<line x1="6463.790989" y1="2190.269776" x2="6437.806682" y2="2312.516318" stroke="black" stroke-width="6.48"/>
<line x1="6282.804676" y1="2127.509132" x2="6246.742806" y2="2297.16688" stroke="black" stroke-width="6.48"/>
<line x1="2295.626076" y1="2043.311519" x2="2526.253312" y2="2067.551474" stroke="black" stroke-width="6.48"/>
<line x1="2526.253312" y1="2067.551474" x2="2501.963683" y2="2298.651307" stroke="black" stroke-width="6.48"/>
<line x1="2501.963683" y1="2298.651307" x2="2271.336448" y2="2274.411348" stroke="black" stroke-width="6.48"/>
<line x1="2271.336448" y1="2274.411348" x2="2295.626076" y2="2043.311519" stroke="black" stroke-width="6.48"/>
<line x1="2295.203152" y1="2042.789249" x2="2501.963683" y2="2298.651307" stroke="black" stroke-width="6.48"/>
<line x1="2271.38612" y1="2273.938751" x2="2525.780714" y2="2067.501802" stroke="black" stroke-width="6.48"/>
<line x1="3787.263227" y1="1160.959424" x2="3794.211515" y2="1130.863079" stroke="black" stroke-width="6.48"/>
<line x1="3794.211515" y1="1130.863079" x2="3590.019407" y2="1083.721615" stroke="black" stroke-width="6.48"/>
<line x1="3590.019407" y1="1083.721615" x2="3583.071119" y2="1113.817961" stroke="black" stroke-width="6.48"/>
<line x1="3583.071119" y1="1113.817961" x2="3787.263227" y2="1160.959424" stroke="black" stroke-width="6.48"/>
<line x1="3833.121928" y1="962.32356" x2="3840.070216" y2="932.227218" stroke="black" stroke-width="6.48"/>
<line x1="3840.070216" y1="932.227218" x2="3635.878111" y2="885.085754" stroke="black" stroke-width="6.48"/>
<line x1="3635.878111" y1="885.085754" x2="3628.92982" y2="915.182096" stroke="black" stroke-width="6.48"/>
<line x1="3628.92982" y1="915.182096" x2="3833.121928" y2="962.32356" stroke="black" stroke-width="6.48"/>
<line x1="3794.10462" y1="1131.3261" x2="3833.121928" y2="962.32356" stroke="black" stroke-width="6.48"/>
<line x1="3590.731656" y1="1084.861454" x2="3571.251739" y2="1053.052974" stroke="black" stroke-width="6.48"/>
<line x1="3598.510406" y1="934.982708" x2="3629.962757" y2="914.932872" stroke="black" stroke-width="6.48"/>
<line x1="3570.824149" y1="1054.905055" x2="3598.937993" y2="933.130624" stroke="black" stroke-width="6.48"/>
<line x1="3750.687576" y1="1120.814784" x2="3789.704884" y2="951.812244" stroke="black" stroke-width="6.48"/>
</g>
</svg>
