<?xml version="1.0"?>
<svg xmlns:xlink="http://www.w3.org/1999/xlink" width="6775.2" height="2858.4">
<image x="0" y="0" width="6775.2" height="2858.4" xlink:href="groundfilled-01.png"/>
<g style="stroke-linecap:round">
<line x1="1285.950406" y1="795.178109" x2="1311.346069" y2="795.178109" stroke="black" stroke-width="6.48"/>
<line x1="1311.346069" y1="795.178109" x2="1311.346069" y2="745.625592" stroke="black" stroke-width="6.48"/>
<line x1="1311.346069" y1="745.625592" x2="1285.950406" y2="745.625592" stroke="black" stroke-width="6.48"/>
<line x1="1285.950406" y1="745.625592" x2="1285.950406" y2="795.178109" stroke="black" stroke-width="6.48"/>
<line x1="1559.728062" y1="745.625592" x2="1559.728062" y2="498.48241" stroke="black" stroke-width="6.48"/>
<line x1="1560.347471" y1="796.416923" x2="1585.743134" y2="796.416923" stroke="black" stroke-width="6.48"/>
<line x1="1585.743134" y1="796.416923" x2="1585.743134" y2="746.864406" stroke="black" stroke-width="6.48"/>
<line x1="1585.743134" y1="746.864406" x2="1560.347471" y2="746.864406" stroke="black" stroke-width="6.48"/>
<line x1="1560.347471" y1="746.864406" x2="1560.347471" y2="796.416923" stroke="black" stroke-width="6.48"/>
<path d="m 1311.346069,747.483811 a 248.38199299999997,248.38199299999997 0 0 1 248.38199299999997,-248.38199299999997" fill="none" stroke="black" stroke-width="6.48"/>
<line x1="320.532556" y1="771.34176" x2="320.532556" y2="366.736194" stroke="black" stroke-width="6.48"/>
<line x1="320.532556" y1="366.736194" x2="258.159283" y2="366.736194" stroke="black" stroke-width="6.48"/>
<line x1="258.159283" y1="366.736194" x2="258.159283" y2="771.34176" stroke="black" stroke-width="6.48"/>
<line x1="258.159283" y1="771.34176" x2="320.532556" y2="771.34176" stroke="black" stroke-width="6.48"/>
<line x1="258.979986" y1="733.589518" x2="319.711856" y2="733.589518" stroke="black" stroke-width="6.48"/>
<line x1="258.979986" y1="405.309139" x2="322.173958" y2="405.309139" stroke="black" stroke-width="6.48"/>
<line x1="287.704519" y1="734.410217" x2="287.704519" y2="406.129838" stroke="black" stroke-width="6.48"/>
<line x1="3901.945176" y1="1169.331426" x2="3901.945176" y2="1428.837066" stroke="black" stroke-width="6.48"/>
<line x1="3901.945176" y1="1428.837066" x2="3941.9501" y2="1428.837066" stroke="black" stroke-width="6.48"/>
<line x1="3941.9501" y1="1428.837066" x2="3941.9501" y2="1169.331426" stroke="black" stroke-width="6.48"/>
<line x1="3941.9501" y1="1169.331426" x2="3901.945176" y2="1169.331426" stroke="black" stroke-width="6.48"/>
<line x1="3941.423719" y1="1193.544936" x2="3902.471557" y2="1193.544936" stroke="black" stroke-width="6.48"/>
<line x1="3941.423719" y1="1404.097178" x2="3900.892414" y2="1404.097178" stroke="black" stroke-width="6.48"/>
<line x1="3923.000399" y1="1193.018555" x2="3923.000399" y2="1403.570797" stroke="black" stroke-width="6.48"/>
<line x1="334.430687" y1="1882.943946" x2="334.430687" y2="1457.437414" stroke="black" stroke-width="6.48"/>
<line x1="334.430687" y1="1457.437414" x2="258.323828" y2="1457.437414" stroke="black" stroke-width="6.48"/>
<line x1="258.323828" y1="1457.437414" x2="258.323828" y2="1882.943946" stroke="black" stroke-width="6.48"/>
<line x1="258.323828" y1="1882.943946" x2="334.430687" y2="1882.943946" stroke="black" stroke-width="6.48"/>
<line x1="334.430687" y1="1863.05238" x2="360.376207" y2="1863.05238" stroke="black" stroke-width="6.48"/>
<line x1="360.376207" y1="1863.05238" x2="360.376207" y2="1478.193829" stroke="black" stroke-width="6.48"/>
<line x1="334.430687" y1="1478.193829" x2="360.376207" y2="1478.193829" stroke="black" stroke-width="6.48"/>
<line x1="2747.905531" y1="904.670665" x2="2721.68303" y2="904.670665" stroke="black" stroke-width="6.48"/>
<line x1="2721.68303" y1="904.670665" x2="2721.68303" y2="955.836522" stroke="black" stroke-width="6.48"/>
<line x1="2721.68303" y1="955.836522" x2="2747.905531" y2="955.836522" stroke="black" stroke-width="6.48"/>
<line x1="2747.905531" y1="955.836522" x2="2747.905531" y2="904.670665" stroke="black" stroke-width="6.48"/>
<line x1="2465.214181" y1="955.836522" x2="2465.214181" y2="1211.026223" stroke="black" stroke-width="6.48"/>
<line x1="2464.574609" y1="903.39152" x2="2438.352108" y2="903.39152" stroke="black" stroke-width="6.48"/>
<line x1="2438.352108" y1="903.39152" x2="2438.352108" y2="954.557374" stroke="black" stroke-width="6.48"/>
<line x1="2438.352108" y1="954.557374" x2="2464.574609" y2="954.557374" stroke="black" stroke-width="6.48"/>
<line x1="2464.574609" y1="954.557374" x2="2464.574609" y2="903.39152" stroke="black" stroke-width="6.48"/>
<path d="m 2721.68303,953.917801 a 256.4688490000001,256.4688490000001 0 0 1 -256.4688490000003,256.46884899999986" fill="none" stroke="black" stroke-width="6.48"/>
<line x1="2420.532389" y1="1427.858834" x2="2395.136725" y2="1427.858834" stroke="black" stroke-width="6.48"/>
<line x1="2395.136725" y1="1427.858834" x2="2395.136725" y2="1477.411351" stroke="black" stroke-width="6.48"/>
<line x1="2395.136725" y1="1477.411351" x2="2420.532389" y2="1477.411351" stroke="black" stroke-width="6.48"/>
<line x1="2420.532389" y1="1477.411351" x2="2420.532389" y2="1427.858834" stroke="black" stroke-width="6.48"/>
<line x1="2146.754732" y1="1477.411351" x2="2146.754732" y2="1724.554534" stroke="black" stroke-width="6.48"/>
<line x1="2146.135324" y1="1426.62002" x2="2120.73966" y2="1426.62002" stroke="black" stroke-width="6.48"/>
<line x1="2120.73966" y1="1426.62002" x2="2120.73966" y2="1476.172537" stroke="black" stroke-width="6.48"/>
<line x1="2120.73966" y1="1476.172537" x2="2146.135324" y2="1476.172537" stroke="black" stroke-width="6.48"/>
<line x1="2146.135324" y1="1476.172537" x2="2146.135324" y2="1426.62002" stroke="black" stroke-width="6.48"/>
<path d="m 2395.136725,1475.553132 a 248.38199299999997,248.38199299999997 0 0 1 -248.38199299999997,248.38199299999997" fill="none" stroke="black" stroke-width="6.48"/>
<line x1="728.714725" y1="692.136151" x2="1121.546725" y2="692.136151" stroke="black" stroke-width="6.48"/>
<line x1="1121.546725" y1="692.136151" x2="1121.546725" y2="507.600151" stroke="black" stroke-width="6.48"/>
<line x1="1121.546725" y1="507.600151" x2="728.714725" y2="507.600151" stroke="black" stroke-width="6.48"/>
<line x1="728.714725" y1="507.600151" x2="728.714725" y2="692.136151" stroke="black" stroke-width="6.48"/>
<line x1="887.906725" y1="507.600151" x2="887.906725" y2="426.816151" stroke="black" stroke-width="6.48"/>
<line x1="887.906725" y1="426.816151" x2="809.498725" y2="426.816151" stroke="black" stroke-width="6.48"/>
<line x1="809.498725" y1="426.816151" x2="809.498725" y2="507.600151" stroke="black" stroke-width="6.48"/>
<line x1="810.290725" y1="444.240151" x2="887.906725" y2="444.240151" stroke="black" stroke-width="6.48"/>
<line x1="809.498725" y1="773.712151" x2="887.906725" y2="773.712151" stroke="black" stroke-width="6.48"/>
<line x1="887.906725" y1="773.712151" x2="887.906725" y2="692.136151" stroke="black" stroke-width="6.48"/>
<line x1="809.498725" y1="692.136151" x2="809.498725" y2="773.712151" stroke="black" stroke-width="6.48"/>
<line x1="810.290725" y1="756.288151" x2="887.906725" y2="756.288151" stroke="black" stroke-width="6.48"/>
<line x1="1039.178725" y1="507.600151" x2="1039.178725" y2="426.816151" stroke="black" stroke-width="6.48"/>
<line x1="1039.178725" y1="426.816151" x2="960.770725" y2="426.816151" stroke="black" stroke-width="6.48"/>
<line x1="960.770725" y1="426.816151" x2="960.770725" y2="507.600151" stroke="black" stroke-width="6.48"/>
<line x1="960.770725" y1="444.240151" x2="1039.178725" y2="444.240151" stroke="black" stroke-width="6.48"/>
<line x1="960.770725" y1="773.712151" x2="1039.178725" y2="773.712151" stroke="black" stroke-width="6.48"/>
<line x1="1039.178725" y1="773.712151" x2="1039.178725" y2="692.136151" stroke="black" stroke-width="6.48"/>
<line x1="960.770725" y1="692.136151" x2="960.770725" y2="773.712151" stroke="black" stroke-width="6.48"/>
<line x1="960.770725" y1="756.288151" x2="1039.178725" y2="756.288151" stroke="black" stroke-width="6.48"/>
<line x1="2032.924367" y1="2005.397849" x2="2032.924367" y2="1974.509849" stroke="black" stroke-width="6.48"/>
<line x1="2032.924367" y1="1974.509849" x2="1823.361167" y2="1974.509849" stroke="black" stroke-width="6.48"/>
<line x1="1823.361167" y1="1974.509849" x2="1823.361167" y2="2005.397849" stroke="black" stroke-width="6.48"/>
<line x1="1823.361167" y1="2005.397849" x2="2032.924367" y2="2005.397849" stroke="black" stroke-width="6.48"/>
<line x1="2032.924367" y1="1801.537049" x2="2032.924367" y2="1770.649049" stroke="black" stroke-width="6.48"/>
<line x1="2032.924367" y1="1770.649049" x2="1823.361167" y2="1770.649049" stroke="black" stroke-width="6.48"/>
<line x1="1823.361167" y1="1770.649049" x2="1823.361167" y2="1801.537049" stroke="black" stroke-width="6.48"/>
<line x1="1823.361167" y1="1801.537049" x2="2032.924367" y2="1801.537049" stroke="black" stroke-width="6.48"/>
<line x1="2032.924367" y1="1974.985049" x2="2032.924367" y2="1801.537049" stroke="black" stroke-width="6.48"/>
<line x1="1824.311567" y1="1975.460249" x2="1798.175567" y2="1948.849049" stroke="black" stroke-width="6.48"/>
<line x1="1798.175567" y1="1827.673049" x2="1824.311567" y2="1801.061849" stroke="black" stroke-width="6.48"/>
<line x1="1798.175567" y1="1950.749849" x2="1798.175567" y2="1825.772249" stroke="black" stroke-width="6.48"/>
<line x1="1988.255567" y1="1974.509849" x2="1988.255567" y2="1801.061849" stroke="black" stroke-width="6.48"/>
<line x1="1485.415969" y1="209.267824" x2="1707.693134" y2="209.267824" stroke="black" stroke-width="6.48"/>
<line x1="1707.693134" y1="209.267824" x2="1707.693134" y2="432.000475" stroke="black" stroke-width="6.48"/>
<line x1="1707.693134" y1="432.000475" x2="1485.415969" y2="432.000475" stroke="black" stroke-width="6.48"/>
<line x1="1485.415969" y1="432.000475" x2="1485.415969" y2="209.267824" stroke="black" stroke-width="6.48"/>
<line x1="1484.960483" y1="208.812337" x2="1707.693134" y2="432.000475" stroke="black" stroke-width="6.48"/>
<line x1="1485.415969" y1="431.544989" x2="1707.237648" y2="209.267824" stroke="black" stroke-width="6.48"/>
<line x1="2586.780558" y1="1803.366338" x2="2586.780558" y2="2194.614338" stroke="black" stroke-width="6.48"/>
<line x1="2586.780558" y1="2194.614338" x2="2761.020558" y2="2194.614338" stroke="black" stroke-width="6.48"/>
<line x1="2761.020558" y1="2194.614338" x2="2761.020558" y2="1803.366338" stroke="black" stroke-width="6.48"/>
<line x1="2761.020558" y1="1803.366338" x2="2586.780558" y2="1803.366338" stroke="black" stroke-width="6.48"/>
<line x1="2734.092558" y1="2119.374338" x2="2734.092558" y2="1835.046338" stroke="black" stroke-width="6.48"/>
<line x1="2734.092558" y1="1835.046338" x2="2616.084558" y2="1835.046338" stroke="black" stroke-width="6.48"/>
<line x1="2616.084558" y1="1835.046338" x2="2616.084558" y2="2124.918338" stroke="black" stroke-width="6.48"/>
<path d="m 2734.347982,2118.563766 a 63.35999941905905,63.35999941905905 0 0 1 -119.37432999999965,4.2938139999996565" fill="none" stroke="black" stroke-width="6.48"/>
<line x1="2081.152674" y1="1893.429706" x2="2056.600674" y2="1912.041706" stroke="black" stroke-width="6.48"/>
<line x1="2056.600674" y1="1912.041706" x2="2056.600674" y2="2059.353706" stroke="black" stroke-width="6.48"/>
<line x1="2056.600674" y1="2059.353706" x2="2084.716674" y2="2078.361706" stroke="black" stroke-width="6.48"/>
<line x1="2083.924674" y1="1915.209706" x2="2083.924674" y2="2058.165706" stroke="black" stroke-width="6.48"/>
<circle cx="2105.704674" cy="1984.509706" r="13.068000000000003" fill="none" stroke="black" stroke-width="6.48"/>
<path d="m 2083.257328,1916.762958 a 74.8440000678095,74.8440000678095 0 1 1 0.40204799999992247,139.60900400000014" fill="none" stroke="black" stroke-width="6.48"/>
<path d="m 2080.49531,1893.476009 a 95.43599883324424,95.43599883324424 0 1 1 3.0749580000001515,184.46699500000022" fill="none" stroke="black" stroke-width="6.48"/>
<line x1="465.952082" y1="208.89027" x2="736.499282" y2="208.89027" stroke="black" stroke-width="6.48"/>
<line x1="736.499282" y1="208.89027" x2="736.499282" y2="340.83747" stroke="black" stroke-width="6.48"/>
<line x1="465.952082" y1="340.83747" x2="736.499282" y2="340.83747" stroke="black" stroke-width="6.48"/>
<line x1="465.952082" y1="208.89027" x2="465.952082" y2="340.83747" stroke="black" stroke-width="6.48"/>
<line x1="472.604882" y1="215.54307" x2="610.650482" y2="215.54307" stroke="black" stroke-width="6.48"/>
<line x1="610.650482" y1="215.54307" x2="610.650482" y2="333.63027" stroke="black" stroke-width="6.48"/>
<line x1="472.604882" y1="333.63027" x2="610.650482" y2="333.63027" stroke="black" stroke-width="6.48"/>
<line x1="472.604882" y1="215.54307" x2="472.604882" y2="333.63027" stroke="black" stroke-width="6.48"/>
<line x1="625.064882" y1="223.30467" x2="722.084882" y2="223.30467" stroke="black" stroke-width="6.48"/>
<line x1="625.064882" y1="243.81747" x2="722.084882" y2="243.81747" stroke="black" stroke-width="6.48"/>
<line x1="625.619282" y1="264.88467" x2="722.639282" y2="264.88467" stroke="black" stroke-width="6.48"/>
<line x1="625.619282" y1="285.39747" x2="722.639282" y2="285.39747" stroke="black" stroke-width="6.48"/>
<line x1="625.064882" y1="305.91027" x2="722.084882" y2="305.91027" stroke="black" stroke-width="6.48"/>
<line x1="625.064882" y1="326.42307" x2="722.084882" y2="326.42307" stroke="black" stroke-width="6.48"/>
<line x1="525.272882" y1="333.63027" x2="525.272882" y2="319.77027" stroke="black" stroke-width="6.48"/>
<line x1="525.272882" y1="319.77027" x2="559.645682" y2="319.77027" stroke="black" stroke-width="6.48"/>
<line x1="559.645682" y1="319.77027" x2="559.645682" y2="333.07587" stroke="black" stroke-width="6.48"/>
<circle cx="595.127282" cy="230.51187" r="8.316000000000003" fill="none" stroke="black" stroke-width="6.48"/>
<line x1="2044.889399" y1="955.822399" x2="2267.166564" y2="955.822399" stroke="black" stroke-width="6.48"/>
<line x1="2267.166564" y1="955.822399" x2="2267.166564" y2="1178.555051" stroke="black" stroke-width="6.48"/>
<line x1="2267.166564" y1="1178.555051" x2="2044.889399" y2="1178.555051" stroke="black" stroke-width="6.48"/>
<line x1="2044.889399" y1="1178.555051" x2="2044.889399" y2="955.822399" stroke="black" stroke-width="6.48"/>
<line x1="2044.433912" y1="955.366913" x2="2267.166564" y2="1178.555051" stroke="black" stroke-width="6.48"/>
<line x1="2044.889399" y1="1178.099564" x2="2266.711078" y2="955.822399" stroke="black" stroke-width="6.48"/>
<line x1="323.258818" y1="1375.374532" x2="323.258818" y2="949.841089" stroke="black" stroke-width="6.48"/>
<line x1="323.258818" y1="949.841089" x2="257.659344" y2="949.841089" stroke="black" stroke-width="6.48"/>
<line x1="257.659344" y1="949.841089" x2="257.659344" y2="1375.374532" stroke="black" stroke-width="6.48"/>
<line x1="257.659344" y1="1375.374532" x2="323.258818" y2="1375.374532" stroke="black" stroke-width="6.48"/>
<line x1="258.522494" y1="1335.669588" x2="322.395667" y2="1335.669588" stroke="black" stroke-width="6.48"/>
<line x1="258.522494" y1="990.409187" x2="324.985122" y2="990.409187" stroke="black" stroke-width="6.48"/>
<line x1="288.73278" y1="1336.532738" x2="288.73278" y2="991.272337" stroke="black" stroke-width="6.48"/>
<line x1="3874.406537" y1="1514.726719" x2="3874.406537" y2="1940.260162" stroke="black" stroke-width="6.48"/>
<line x1="3874.406537" y1="1940.260162" x2="3940.00601" y2="1940.260162" stroke="black" stroke-width="6.48"/>
<line x1="3940.00601" y1="1940.260162" x2="3940.00601" y2="1514.726719" stroke="black" stroke-width="6.48"/>
<line x1="3940.00601" y1="1514.726719" x2="3874.406537" y2="1514.726719" stroke="black" stroke-width="6.48"/>
<line x1="3939.14286" y1="1554.431663" x2="3875.269687" y2="1554.431663" stroke="black" stroke-width="6.48"/>
<line x1="3939.14286" y1="1899.692064" x2="3872.680232" y2="1899.692064" stroke="black" stroke-width="6.48"/>
<line x1="3908.932574" y1="1553.568512" x2="3908.932574" y2="1898.828914" stroke="black" stroke-width="6.48"/>
<line x1="5423.304953" y1="2150.900899" x2="5105.497187" y2="1920.000042" stroke="black" stroke-width="6.48"/>
<line x1="5105.497187" y1="1920.000042" x2="4997.029648" y2="2069.292802" stroke="black" stroke-width="6.48"/>
<line x1="4997.029648" y1="2069.292802" x2="5314.837414" y2="2300.193659" stroke="black" stroke-width="6.48"/>
<line x1="5314.837414" y1="2300.193659" x2="5423.304953" y2="2150.900899" stroke="black" stroke-width="6.48"/>
<line x1="5186.048378" y1="2206.622948" x2="5138.564735" y2="2271.978576" stroke="black" stroke-width="6.48"/>
<line x1="5138.564735" y1="2271.978576" x2="5201.998139" y2="2318.065643" stroke="black" stroke-width="6.48"/>
<line x1="5201.998139" y1="2318.065643" x2="5249.481782" y2="2252.710015" stroke="black" stroke-width="6.48"/>
<line x1="5211.598968" y1="2303.503801" x2="5148.806306" y2="2257.882261" stroke="black" stroke-width="6.48"/>
<line x1="5405.898492" y1="2037.420886" x2="5342.465088" y2="1991.333819" stroke="black" stroke-width="6.48"/>
<line x1="5342.465088" y1="1991.333819" x2="5294.515918" y2="2057.330189" stroke="black" stroke-width="6.48"/>
<line x1="5357.949322" y1="2103.417256" x2="5405.898492" y2="2037.420886" stroke="black" stroke-width="6.48"/>
<line x1="5395.016182" y1="2051.051666" x2="5332.22352" y2="2005.430126" stroke="black" stroke-width="6.48"/>
<line x1="5063.66676" y1="2117.707495" x2="5016.183113" y2="2183.063126" stroke="black" stroke-width="6.48"/>
<line x1="5016.183113" y1="2183.063126" x2="5079.61652" y2="2229.150193" stroke="black" stroke-width="6.48"/>
<line x1="5079.61652" y1="2229.150193" x2="5127.100164" y2="2163.794562" stroke="black" stroke-width="6.48"/>
<line x1="5089.858092" y1="2215.053878" x2="5026.424684" y2="2168.966815" stroke="black" stroke-width="6.48"/>
<line x1="5283.516874" y1="1948.505432" x2="5220.083466" y2="1902.418366" stroke="black" stroke-width="6.48"/>
<line x1="5220.083466" y1="1902.418366" x2="5172.134299" y2="1968.414736" stroke="black" stroke-width="6.48"/>
<line x1="5235.567703" y1="2014.501802" x2="5283.516874" y2="1948.505432" stroke="black" stroke-width="6.48"/>
<line x1="5273.275306" y1="1962.601744" x2="5209.841898" y2="1916.51468" stroke="black" stroke-width="6.48"/>
<line x1="3074.398722" y1="1074.217943" x2="3283.763926" y2="1074.217943" stroke="black" stroke-width="6.48"/>
<line x1="3283.763926" y1="1074.217943" x2="3283.763926" y2="743.003539" stroke="black" stroke-width="6.48"/>
<line x1="3283.763926" y1="743.003539" x2="3074.398722" y2="743.003539" stroke="black" stroke-width="6.48"/>
<line x1="3074.398722" y1="743.003539" x2="3074.398722" y2="1074.217943" stroke="black" stroke-width="6.48"/>
<line x1="3073.725522" y1="802.245139" x2="3284.437122" y2="802.245139" stroke="black" stroke-width="6.48"/>
<line x1="3284.437122" y1="802.245139" x2="3075.071922" y2="852.061943" stroke="black" stroke-width="6.48"/>
<line x1="3075.071922" y1="852.061943" x2="3106.712326" y2="898.512743" stroke="black" stroke-width="6.48"/>
<line x1="3106.712326" y1="898.512743" x2="3284.437122" y2="801.571943" stroke="black" stroke-width="6.48"/>
<line x1="3541.317095" y1="1202.602417" x2="3763.59426" y2="1202.602417" stroke="black" stroke-width="6.48"/>
<line x1="3763.59426" y1="1202.602417" x2="3763.59426" y2="1425.335069" stroke="black" stroke-width="6.48"/>
<line x1="3763.59426" y1="1425.335069" x2="3541.317095" y2="1425.335069" stroke="black" stroke-width="6.48"/>
<line x1="3541.317095" y1="1425.335069" x2="3541.317095" y2="1202.602417" stroke="black" stroke-width="6.48"/>
<line x1="3540.861608" y1="1202.146931" x2="3763.59426" y2="1425.335069" stroke="black" stroke-width="6.48"/>
<line x1="3541.317095" y1="1424.879582" x2="3763.138774" y2="1202.602417" stroke="black" stroke-width="6.48"/>
<line x1="2804.16708" y1="1127.69402" x2="2804.16708" y2="1153.148746" stroke="black" stroke-width="6.48"/>
<line x1="2804.16708" y1="1153.148746" x2="2853.834836" y2="1153.148746" stroke="black" stroke-width="6.48"/>
<line x1="2853.834836" y1="1153.148746" x2="2853.834836" y2="1127.69402" stroke="black" stroke-width="6.48"/>
<line x1="2853.834836" y1="1127.69402" x2="2804.16708" y2="1127.69402" stroke="black" stroke-width="6.48"/>
<line x1="2853.834836" y1="1402.108373" x2="3101.55277" y2="1402.108373" stroke="black" stroke-width="6.48"/>
<line x1="2802.925386" y1="1402.729218" x2="2802.925386" y2="1428.183943" stroke="black" stroke-width="6.48"/>
<line x1="2802.925386" y1="1428.183943" x2="2852.593142" y2="1428.183943" stroke="black" stroke-width="6.48"/>
<line x1="2852.593142" y1="1428.183943" x2="2852.593142" y2="1402.729218" stroke="black" stroke-width="6.48"/>
<line x1="2852.593142" y1="1402.729218" x2="2802.925386" y2="1402.729218" stroke="black" stroke-width="6.48"/>
<path d="m 2851.972294,1153.148746 a 248.95962699999984,248.95962699999984 0 0 1 248.95962699999973,248.95962699999995" fill="none" stroke="black" stroke-width="6.48"/>
<line x1="3711.780108" y1="1804.431672" x2="3544.966933" y2="1965.521279" stroke="black" stroke-width="6.48"/>
<line x1="3544.966933" y1="1965.521279" x2="3383.547221" y2="1798.366277" stroke="black" stroke-width="6.48"/>
<line x1="3383.547221" y1="1798.366277" x2="3550.360396" y2="1637.27667" stroke="black" stroke-width="6.48"/>
<line x1="3550.360396" y1="1637.27667" x2="3711.780108" y2="1804.431672" stroke="black" stroke-width="6.48"/>
<line x1="3712.452041" y1="1804.443401" x2="3383.547221" y2="1798.366277" stroke="black" stroke-width="6.48"/>
<line x1="3550.690498" y1="1637.618497" x2="3545.308764" y2="1965.191177" stroke="black" stroke-width="6.48"/>
<line x1="3100.358268" y1="1589.315879" x2="3083.535454" y2="1615.220741" stroke="black" stroke-width="6.48"/>
<line x1="3083.535454" y1="1615.220741" x2="3259.289945" y2="1729.357034" stroke="black" stroke-width="6.48"/>
<line x1="3259.289945" y1="1729.357034" x2="3276.112752" y2="1703.45218" stroke="black" stroke-width="6.48"/>
<line x1="3276.112752" y1="1703.45218" x2="3100.358268" y2="1589.315879" stroke="black" stroke-width="6.48"/>
<line x1="2989.327716" y1="1760.287936" x2="2972.504909" y2="1786.19279" stroke="black" stroke-width="6.48"/>
<line x1="2972.504909" y1="1786.19279" x2="3148.259393" y2="1900.329088" stroke="black" stroke-width="6.48"/>
<line x1="3148.259393" y1="1900.329088" x2="3165.082207" y2="1874.424233" stroke="black" stroke-width="6.48"/>
<line x1="3165.082207" y1="1874.424233" x2="2989.327716" y2="1760.287936" stroke="black" stroke-width="6.48"/>
<line x1="3083.794268" y1="1614.822199" x2="2989.327716" y2="1760.287936" stroke="black" stroke-width="6.48"/>
<line x1="3259.010495" y1="1728.04234" x2="3266.436492" y2="1764.595055" stroke="black" stroke-width="6.48"/>
<line x1="3200.439312" y1="1866.221798" x2="3164.02632" y2="1874.305145" stroke="black" stroke-width="6.48"/>
<line x1="3267.47174" y1="1763.00091" x2="3199.40406" y2="1867.815943" stroke="black" stroke-width="6.48"/>
<line x1="3120.997864" y1="1639.549109" x2="3026.531315" y2="1785.014842" stroke="black" stroke-width="6.48"/>
<line x1="2252.896614" y1="2271.644579" x2="2283.615407" y2="2274.87326" stroke="black" stroke-width="6.48"/>
<line x1="2283.615407" y1="2274.87326" x2="2305.520777" y2="2066.458075" stroke="black" stroke-width="6.48"/>
<line x1="2305.520777" y1="2066.458075" x2="2274.801984" y2="2063.229394" stroke="black" stroke-width="6.48"/>
<line x1="2274.801984" y1="2063.229394" x2="2252.896614" y2="2271.644579" stroke="black" stroke-width="6.48"/>
<line x1="2455.64064" y1="2292.953886" x2="2486.359429" y2="2296.182568" stroke="black" stroke-width="6.48"/>
<line x1="2486.359429" y1="2296.182568" x2="2508.264799" y2="2087.767382" stroke="black" stroke-width="6.48"/>
<line x1="2508.264799" y1="2087.767382" x2="2477.54601" y2="2084.538701" stroke="black" stroke-width="6.48"/>
<line x1="2477.54601" y1="2084.538701" x2="2455.64064" y2="2292.953886" stroke="black" stroke-width="6.48"/>
<line x1="2283.14281" y1="2274.823588" x2="2455.64064" y2="2292.953886" stroke="black" stroke-width="6.48"/>
<line x1="2304.47624" y1="2067.303924" x2="2333.673623" y2="2044.092737" stroke="black" stroke-width="6.48"/>
<line x1="2454.185804" y1="2056.759106" x2="2477.919262" y2="2085.533564" stroke="black" stroke-width="6.48"/>
<line x1="2331.783234" y1="2043.894049" x2="2456.07619" y2="2056.957794" stroke="black" stroke-width="6.48"/>
<line x1="2288.284578" y1="2230.449163" x2="2460.782408" y2="2248.579458" stroke="black" stroke-width="6.48"/>
<line x1="1249.496777" y1="2004.411452" x2="1275.104088" y2="2021.68381" stroke="black" stroke-width="6.48"/>
<line x1="1275.104088" y1="2021.68381" x2="1392.290381" y2="1847.948072" stroke="black" stroke-width="6.48"/>
<line x1="1392.290381" y1="1847.948072" x2="1366.683073" y2="1830.675712" stroke="black" stroke-width="6.48"/>
<line x1="1366.683073" y1="1830.675712" x2="1249.496777" y2="2004.411452" stroke="black" stroke-width="6.48"/>
<line x1="1418.505012" y1="2118.409009" x2="1444.112323" y2="2135.681366" stroke="black" stroke-width="6.48"/>
<line x1="1444.112323" y1="2135.681366" x2="1561.29862" y2="1961.945629" stroke="black" stroke-width="6.48"/>
<line x1="1561.29862" y1="1961.945629" x2="1535.691305" y2="1944.673268" stroke="black" stroke-width="6.48"/>
<line x1="1535.691305" y1="1944.673268" x2="1418.505012" y2="2118.409009" stroke="black" stroke-width="6.48"/>
<line x1="1274.710126" y1="2021.418083" x2="1418.505012" y2="2118.409009" stroke="black" stroke-width="6.48"/>
<line x1="1390.971006" y1="1848.204533" x2="1427.647759" y2="1841.417611" stroke="black" stroke-width="6.48"/>
<line x1="1528.107203" y1="1909.178392" x2="1535.55381" y2="1945.726913" stroke="black" stroke-width="6.48"/>
<line x1="1426.071924" y1="1840.354693" x2="1529.683031" y2="1910.24131" stroke="black" stroke-width="6.48"/>
<line x1="1300.082573" y1="1984.6517" x2="1443.877452" y2="2081.64263" stroke="black" stroke-width="6.48"/>
<line x1="3840.070216" y1="1134.752281" x2="3838.453664" y2="1103.906614" stroke="black" stroke-width="6.48"/>
<line x1="3838.453664" y1="1103.906614" x2="3629.177665" y2="1114.874305" stroke="black" stroke-width="6.48"/>
<line x1="3629.177665" y1="1114.874305" x2="3630.794216" y2="1145.719973" stroke="black" stroke-width="6.48"/>
<line x1="3630.794216" y1="1145.719973" x2="3840.070216" y2="1134.752281" stroke="black" stroke-width="6.48"/>
<line x1="3829.400968" y1="931.17087" x2="3827.784416" y2="900.325199" stroke="black" stroke-width="6.48"/>
<line x1="3827.784416" y1="900.325199" x2="3618.508414" y2="911.292887" stroke="black" stroke-width="6.48"/>
<line x1="3618.508414" y1="911.292887" x2="3620.124965" y2="942.138562" stroke="black" stroke-width="6.48"/>
<line x1="3620.124965" y1="942.138562" x2="3829.400968" y2="931.17087" stroke="black" stroke-width="6.48"/>
<line x1="3838.478533" y1="1104.381162" x2="3829.400968" y2="931.17087" stroke="black" stroke-width="6.48"/>
<line x1="3630.176503" y1="1115.773661" x2="3602.683598" y2="1090.566785" stroke="black" stroke-width="6.48"/>
<line x1="3596.341738" y1="969.556853" x2="3621.049193" y2="941.614268" stroke="black" stroke-width="6.48"/>
<line x1="3602.783077" y1="1092.464978" x2="3596.242259" y2="967.658656" stroke="black" stroke-width="6.48"/>
<line x1="3793.846082" y1="1106.244396" x2="3784.768517" y2="933.034104" stroke="black" stroke-width="6.48"/>
<line x1="6066.147164" y1="1546.722162" x2="5876.182955" y2="1540.088467" stroke="black" stroke-width="6.48"/>
<line x1="5876.182955" y1="1540.088467" x2="5859.996736" y2="2003.601136" stroke="black" stroke-width="6.48"/>
<line x1="5859.996736" y1="2003.601136" x2="6049.960945" y2="2010.234834" stroke="black" stroke-width="6.48"/>
<line x1="6049.960945" y1="2010.234834" x2="6050.790158" y2="1986.489306" stroke="black" stroke-width="6.48"/>
<line x1="6050.790158" y1="1986.489306" x2="5883.621653" y2="1980.651654" stroke="black" stroke-width="6.48"/>
<line x1="5883.621653" y1="1980.651654" x2="5898.116279" y2="1565.579858" stroke="black" stroke-width="6.48"/>
<line x1="5898.116279" y1="1565.579858" x2="6065.284784" y2="1571.41751" stroke="black" stroke-width="6.48"/>
<line x1="6065.284784" y1="1571.41751" x2="6066.147164" y2="1546.722162" stroke="black" stroke-width="6.48"/>
<line x1="6059.585855" y1="1571.218502" x2="6045.091232" y2="1986.290298" stroke="black" stroke-width="6.48"/>
<line x1="6053.304949" y1="1778.312657" x2="5891.83537" y2="1772.674013" stroke="black" stroke-width="6.48"/>
<line x1="897.775855" y1="1476.262894" x2="799.602264" y2="1387.866992" stroke="black" stroke-width="6.48"/>
<line x1="799.602264" y1="1387.866992" x2="809.141389" y2="1377.272718" stroke="black" stroke-width="6.48"/>
<line x1="907.31498" y1="1465.668619" x2="809.141389" y2="1377.272718" stroke="black" stroke-width="6.48"/>
<line x1="897.775855" y1="1476.262894" x2="907.31498" y2="1465.668619" stroke="black" stroke-width="6.48"/>
<line x1="897.426994" y1="1456.765434" x2="919.825643" y2="1434.72992" stroke="black" stroke-width="6.48"/>
<line x1="819.029376" y1="1386.175903" x2="839.238826" y2="1360.890338" stroke="black" stroke-width="6.48"/>
<line x1="1206.207594" y1="1133.714743" x2="1108.033999" y2="1045.318846" stroke="black" stroke-width="6.48"/>
<line x1="1108.033999" y1="1045.318846" x2="1099.130818" y2="1055.206832" stroke="black" stroke-width="6.48"/>
<line x1="1197.304409" y1="1143.602734" x2="1099.130818" y2="1055.206832" stroke="black" stroke-width="6.48"/>
<line x1="1206.207594" y1="1133.714743" x2="1197.304409" y2="1143.602734" stroke="black" stroke-width="6.48"/>
<line x1="1186.850822" y1="1136.74806" x2="1167.277316" y2="1161.327341" stroke="black" stroke-width="6.48"/>
<line x1="1108.453205" y1="1066.158526" x2="1084.712332" y2="1088.264387" stroke="black" stroke-width="6.48"/>
<line x1="788.139187" y1="1156.297738" x2="798.733462" y2="1165.836863" stroke="black" stroke-width="6.48"/>
<line x1="798.733462" y1="1165.836863" x2="887.129363" y2="1067.663272" stroke="black" stroke-width="6.48"/>
<line x1="876.535088" y1="1058.124146" x2="887.129363" y2="1067.663272" stroke="black" stroke-width="6.48"/>
<line x1="788.139187" y1="1156.297738" x2="876.535088" y2="1058.124146" stroke="black" stroke-width="6.48"/>
<line x1="877.590234" y1="1078.257542" x2="903.511742" y2="1097.760708" stroke="black" stroke-width="6.48"/>
<line x1="807.636643" y1="1155.948876" x2="830.378448" y2="1178.983465" stroke="black" stroke-width="6.48"/>
<line x1="1129.34511" y1="1464.79982" x2="1118.750836" y2="1455.260695" stroke="black" stroke-width="6.48"/>
<line x1="1118.750836" y1="1455.260695" x2="1207.14674" y2="1357.0871" stroke="black" stroke-width="6.48"/>
<line x1="1217.741011" y1="1366.626229" x2="1207.14674" y2="1357.0871" stroke="black" stroke-width="6.48"/>
<line x1="1129.34511" y1="1464.79982" x2="1217.741011" y2="1366.626229" stroke="black" stroke-width="6.48"/>
<line x1="1197.607612" y1="1367.681375" x2="1175.501754" y2="1343.940502" stroke="black" stroke-width="6.48"/>
<line x1="1127.654021" y1="1445.372705" x2="1102.368456" y2="1425.163255" stroke="black" stroke-width="6.48"/>
<circle cx="1002.940103" cy="1261.461982" r="191.98080000000002" fill="none" stroke="black" stroke-width="6.48"/>
<line x1="6349.616086" y1="1893.692131" x2="6159.651876" y2="1887.058436" stroke="black" stroke-width="6.48"/>
<line x1="6159.651876" y1="1887.058436" x2="6143.465657" y2="2350.571105" stroke="black" stroke-width="6.48"/>
<line x1="6143.465657" y1="2350.571105" x2="6333.429866" y2="2357.204803" stroke="black" stroke-width="6.48"/>
<line x1="6333.429866" y1="2357.204803" x2="6334.25908" y2="2333.459275" stroke="black" stroke-width="6.48"/>
<line x1="6334.25908" y1="2333.459275" x2="6167.090574" y2="2327.621623" stroke="black" stroke-width="6.48"/>
<line x1="6167.090574" y1="2327.621623" x2="6181.5852" y2="1912.549828" stroke="black" stroke-width="6.48"/>
<line x1="6181.5852" y1="1912.549828" x2="6348.753706" y2="1918.38748" stroke="black" stroke-width="6.48"/>
<line x1="6348.753706" y1="1918.38748" x2="6349.616086" y2="1893.692131" stroke="black" stroke-width="6.48"/>
<line x1="6343.054776" y1="1918.188472" x2="6328.560154" y2="2333.260267" stroke="black" stroke-width="6.48"/>
<line x1="6336.77387" y1="2125.282626" x2="6175.304291" y2="2119.643982" stroke="black" stroke-width="6.48"/>
<line x1="887.279508" y1="209.920414" x2="1157.826708" y2="209.920414" stroke="black" stroke-width="6.48"/>
<line x1="1157.826708" y1="209.920414" x2="1157.826708" y2="341.867614" stroke="black" stroke-width="6.48"/>
<line x1="887.279508" y1="341.867614" x2="1157.826708" y2="341.867614" stroke="black" stroke-width="6.48"/>
<line x1="887.279508" y1="209.920414" x2="887.279508" y2="341.867614" stroke="black" stroke-width="6.48"/>
<line x1="893.932308" y1="216.573214" x2="1031.977908" y2="216.573214" stroke="black" stroke-width="6.48"/>
<line x1="1031.977908" y1="216.573214" x2="1031.977908" y2="334.660414" stroke="black" stroke-width="6.48"/>
<line x1="893.932308" y1="334.660414" x2="1031.977908" y2="334.660414" stroke="black" stroke-width="6.48"/>
<line x1="893.932308" y1="216.573214" x2="893.932308" y2="334.660414" stroke="black" stroke-width="6.48"/>
<line x1="1046.392308" y1="224.334814" x2="1143.412308" y2="224.334814" stroke="black" stroke-width="6.48"/>
<line x1="1046.392308" y1="244.847614" x2="1143.412308" y2="244.847614" stroke="black" stroke-width="6.48"/>
<line x1="1046.946708" y1="265.914814" x2="1143.966708" y2="265.914814" stroke="black" stroke-width="6.48"/>
<line x1="1046.946708" y1="286.427614" x2="1143.966708" y2="286.427614" stroke="black" stroke-width="6.48"/>
<line x1="1046.392308" y1="306.940414" x2="1143.412308" y2="306.940414" stroke="black" stroke-width="6.48"/>
<line x1="1046.392308" y1="327.453214" x2="1143.412308" y2="327.453214" stroke="black" stroke-width="6.48"/>
<line x1="946.600308" y1="334.660414" x2="946.600308" y2="320.800414" stroke="black" stroke-width="6.48"/>
<line x1="946.600308" y1="320.800414" x2="980.973108" y2="320.800414" stroke="black" stroke-width="6.48"/>
<line x1="980.973108" y1="320.800414" x2="980.973108" y2="334.106014" stroke="black" stroke-width="6.48"/>
<circle cx="1016.454708" cy="231.542014" r="8.316000000000003" fill="none" stroke="black" stroke-width="6.48"/>
</g>
</svg>
