<?xml version="1.0"?>
<svg xmlns:xlink="http://www.w3.org/1999/xlink" width="6775.2" height="2858.4">
<image x="0" y="0" width="6775.2" height="2858.4" xlink:href="groundfilled-01.png"/>
<g style="stroke-linecap:round">
<line x1="1285.950406" y1="795.178109" x2="1311.346069" y2="795.178109" stroke="black" stroke-width="6.48"/>
<line x1="1311.346069" y1="795.178109" x2="1311.346069" y2="745.625592" stroke="black" stroke-width="6.48"/>
<line x1="1311.346069" y1="745.625592" x2="1285.950406" y2="745.625592" stroke="black" stroke-width="6.48"/>
<line x1="1285.950406" y1="745.625592" x2="1285.950406" y2="795.178109" stroke="black" stroke-width="6.48"/>
<line x1="1559.728062" y1="745.625592" x2="1559.728062" y2="498.48241" stroke="black" stroke-width="6.48"/>
<line x1="1560.347471" y1="796.416923" x2="1585.743134" y2="796.416923" stroke="black" stroke-width="6.48"/>
<line x1="1585.743134" y1="796.416923" x2="1585.743134" y2="746.864406" stroke="black" stroke-width="6.48"/>
<line x1="1585.743134" y1="746.864406" x2="1560.347471" y2="746.864406" stroke="black" stroke-width="6.48"/>
<line x1="1560.347471" y1="746.864406" x2="1560.347471" y2="796.416923" stroke="black" stroke-width="6.48"/>
<path d="m 1311.346069,747.483811 a 248.38199299999997,248.38199299999997 0 0 1 248.38199299999997,-248.38199299999997" fill="none" stroke="black" stroke-width="6.48"/>
<line x1="320.532556" y1="771.34176" x2="320.532556" y2="366.736194" stroke="black" stroke-width="6.48"/>
<line x1="320.532556" y1="366.736194" x2="258.159283" y2="366.736194" stroke="black" stroke-width="6.48"/>
<line x1="258.159283" y1="366.736194" x2="258.159283" y2="771.34176" stroke="black" stroke-width="6.48"/>
<line x1="258.159283" y1="771.34176" x2="320.532556" y2="771.34176" stroke="black" stroke-width="6.48"/>
<line x1="258.979986" y1="733.589518" x2="319.711856" y2="733.589518" stroke="black" stroke-width="6.48"/>
<line x1="258.979986" y1="405.309139" x2="322.173958" y2="405.309139" stroke="black" stroke-width="6.48"/>
<line x1="287.704519" y1="734.410217" x2="287.704519" y2="406.129838" stroke="black" stroke-width="6.48"/>
<line x1="3901.945176" y1="1169.331426" x2="3901.945176" y2="1428.837066" stroke="black" stroke-width="6.48"/>
<line x1="3901.945176" y1="1428.837066" x2="3941.9501" y2="1428.837066" stroke="black" stroke-width="6.48"/>
<line x1="3941.9501" y1="1428.837066" x2="3941.9501" y2="1169.331426" stroke="black" stroke-width="6.48"/>
<line x1="3941.9501" y1="1169.331426" x2="3901.945176" y2="1169.331426" stroke="black" stroke-width="6.48"/>
<line x1="3941.423719" y1="1193.544936" x2="3902.471557" y2="1193.544936" stroke="black" stroke-width="6.48"/>
<line x1="3941.423719" y1="1404.097178" x2="3900.892414" y2="1404.097178" stroke="black" stroke-width="6.48"/>
<line x1="3923.000399" y1="1193.018555" x2="3923.000399" y2="1403.570797" stroke="black" stroke-width="6.48"/>
<line x1="334.430687" y1="1882.943946" x2="334.430687" y2="1457.437414" stroke="black" stroke-width="6.48"/>
<line x1="334.430687" y1="1457.437414" x2="258.323828" y2="1457.437414" stroke="black" stroke-width="6.48"/>
<line x1="258.323828" y1="1457.437414" x2="258.323828" y2="1882.943946" stroke="black" stroke-width="6.48"/>
<line x1="258.323828" y1="1882.943946" x2="334.430687" y2="1882.943946" stroke="black" stroke-width="6.48"/>
<line x1="334.430687" y1="1863.05238" x2="360.376207" y2="1863.05238" stroke="black" stroke-width="6.48"/>
<line x1="360.376207" y1="1863.05238" x2="360.376207" y2="1478.193829" stroke="black" stroke-width="6.48"/>
<line x1="334.430687" y1="1478.193829" x2="360.376207" y2="1478.193829" stroke="black" stroke-width="6.48"/>
<line x1="2747.905531" y1="904.670665" x2="2721.68303" y2="904.670665" stroke="black" stroke-width="6.48"/>
<line x1="2721.68303" y1="904.670665" x2="2721.68303" y2="955.836522" stroke="black" stroke-width="6.48"/>
<line x1="2721.68303" y1="955.836522" x2="2747.905531" y2="955.836522" stroke="black" stroke-width="6.48"/>
<line x1="2747.905531" y1="955.836522" x2="2747.905531" y2="904.670665" stroke="black" stroke-width="6.48"/>
<line x1="2465.214181" y1="955.836522" x2="2465.214181" y2="1211.026223" stroke="black" stroke-width="6.48"/>
<line x1="2464.574609" y1="903.39152" x2="2438.352108" y2="903.39152" stroke="black" stroke-width="6.48"/>
<line x1="2438.352108" y1="903.39152" x2="2438.352108" y2="954.557374" stroke="black" stroke-width="6.48"/>
<line x1="2438.352108" y1="954.557374" x2="2464.574609" y2="954.557374" stroke="black" stroke-width="6.48"/>
<line x1="2464.574609" y1="954.557374" x2="2464.574609" y2="903.39152" stroke="black" stroke-width="6.48"/>
<path d="m 2721.68303,953.917801 a 256.4688490000001,256.4688490000001 0 0 1 -256.4688490000003,256.46884899999986" fill="none" stroke="black" stroke-width="6.48"/>
<line x1="2420.532389" y1="1427.858834" x2="2395.136725" y2="1427.858834" stroke="black" stroke-width="6.48"/>
<line x1="2395.136725" y1="1427.858834" x2="2395.136725" y2="1477.411351" stroke="black" stroke-width="6.48"/>
<line x1="2395.136725" y1="1477.411351" x2="2420.532389" y2="1477.411351" stroke="black" stroke-width="6.48"/>
<line x1="2420.532389" y1="1477.411351" x2="2420.532389" y2="1427.858834" stroke="black" stroke-width="6.48"/>
<line x1="2146.754732" y1="1477.411351" x2="2146.754732" y2="1724.554534" stroke="black" stroke-width="6.48"/>
<line x1="2146.135324" y1="1426.62002" x2="2120.73966" y2="1426.62002" stroke="black" stroke-width="6.48"/>
<line x1="2120.73966" y1="1426.62002" x2="2120.73966" y2="1476.172537" stroke="black" stroke-width="6.48"/>
<line x1="2120.73966" y1="1476.172537" x2="2146.135324" y2="1476.172537" stroke="black" stroke-width="6.48"/>
<line x1="2146.135324" y1="1476.172537" x2="2146.135324" y2="1426.62002" stroke="black" stroke-width="6.48"/>
<path d="m 2395.136725,1475.553132 a 248.38199299999997,248.38199299999997 0 0 1 -248.38199299999997,248.38199299999997" fill="none" stroke="black" stroke-width="6.48"/>
<line x1="490.082796" y1="692.136151" x2="882.914796" y2="692.136151" stroke="black" stroke-width="6.48"/>
<line x1="882.914796" y1="692.136151" x2="882.914796" y2="507.600151" stroke="black" stroke-width="6.48"/>
<line x1="882.914796" y1="507.600151" x2="490.082796" y2="507.600151" stroke="black" stroke-width="6.48"/>
<line x1="490.082796" y1="507.600151" x2="490.082796" y2="692.136151" stroke="black" stroke-width="6.48"/>
<line x1="649.274796" y1="507.600151" x2="649.274796" y2="426.816151" stroke="black" stroke-width="6.48"/>
<line x1="649.274796" y1="426.816151" x2="570.866796" y2="426.816151" stroke="black" stroke-width="6.48"/>
<line x1="570.866796" y1="426.816151" x2="570.866796" y2="507.600151" stroke="black" stroke-width="6.48"/>
<line x1="571.658796" y1="444.240151" x2="649.274796" y2="444.240151" stroke="black" stroke-width="6.48"/>
<line x1="570.866796" y1="773.712151" x2="649.274796" y2="773.712151" stroke="black" stroke-width="6.48"/>
<line x1="649.274796" y1="773.712151" x2="649.274796" y2="692.136151" stroke="black" stroke-width="6.48"/>
<line x1="570.866796" y1="692.136151" x2="570.866796" y2="773.712151" stroke="black" stroke-width="6.48"/>
<line x1="571.658796" y1="756.288151" x2="649.274796" y2="756.288151" stroke="black" stroke-width="6.48"/>
<line x1="800.546796" y1="507.600151" x2="800.546796" y2="426.816151" stroke="black" stroke-width="6.48"/>
<line x1="800.546796" y1="426.816151" x2="722.138796" y2="426.816151" stroke="black" stroke-width="6.48"/>
<line x1="722.138796" y1="426.816151" x2="722.138796" y2="507.600151" stroke="black" stroke-width="6.48"/>
<line x1="722.138796" y1="444.240151" x2="800.546796" y2="444.240151" stroke="black" stroke-width="6.48"/>
<line x1="722.138796" y1="773.712151" x2="800.546796" y2="773.712151" stroke="black" stroke-width="6.48"/>
<line x1="800.546796" y1="773.712151" x2="800.546796" y2="692.136151" stroke="black" stroke-width="6.48"/>
<line x1="722.138796" y1="692.136151" x2="722.138796" y2="773.712151" stroke="black" stroke-width="6.48"/>
<line x1="722.138796" y1="756.288151" x2="800.546796" y2="756.288151" stroke="black" stroke-width="6.48"/>
<line x1="2032.924367" y1="1981.527386" x2="2032.924367" y2="1950.639386" stroke="black" stroke-width="6.48"/>
<line x1="2032.924367" y1="1950.639386" x2="1823.361167" y2="1950.639386" stroke="black" stroke-width="6.48"/>
<line x1="1823.361167" y1="1950.639386" x2="1823.361167" y2="1981.527386" stroke="black" stroke-width="6.48"/>
<line x1="1823.361167" y1="1981.527386" x2="2032.924367" y2="1981.527386" stroke="black" stroke-width="6.48"/>
<line x1="2032.924367" y1="1777.666586" x2="2032.924367" y2="1746.778586" stroke="black" stroke-width="6.48"/>
<line x1="2032.924367" y1="1746.778586" x2="1823.361167" y2="1746.778586" stroke="black" stroke-width="6.48"/>
<line x1="1823.361167" y1="1746.778586" x2="1823.361167" y2="1777.666586" stroke="black" stroke-width="6.48"/>
<line x1="1823.361167" y1="1777.666586" x2="2032.924367" y2="1777.666586" stroke="black" stroke-width="6.48"/>
<line x1="2032.924367" y1="1951.114586" x2="2032.924367" y2="1777.666586" stroke="black" stroke-width="6.48"/>
<line x1="1824.311567" y1="1951.589786" x2="1798.175567" y2="1924.978586" stroke="black" stroke-width="6.48"/>
<line x1="1798.175567" y1="1803.802586" x2="1824.311567" y2="1777.191386" stroke="black" stroke-width="6.48"/>
<line x1="1798.175567" y1="1926.879386" x2="1798.175567" y2="1801.901786" stroke="black" stroke-width="6.48"/>
<line x1="1988.255567" y1="1950.639386" x2="1988.255567" y2="1777.191386" stroke="black" stroke-width="6.48"/>
<line x1="1485.415969" y1="209.267824" x2="1707.693134" y2="209.267824" stroke="black" stroke-width="6.48"/>
<line x1="1707.693134" y1="209.267824" x2="1707.693134" y2="432.000475" stroke="black" stroke-width="6.48"/>
<line x1="1707.693134" y1="432.000475" x2="1485.415969" y2="432.000475" stroke="black" stroke-width="6.48"/>
<line x1="1485.415969" y1="432.000475" x2="1485.415969" y2="209.267824" stroke="black" stroke-width="6.48"/>
<line x1="1484.960483" y1="208.812337" x2="1707.693134" y2="432.000475" stroke="black" stroke-width="6.48"/>
<line x1="1485.415969" y1="431.544989" x2="1707.237648" y2="209.267824" stroke="black" stroke-width="6.48"/>
<line x1="2761.020558" y1="2194.614338" x2="2761.020558" y2="1803.366338" stroke="black" stroke-width="6.48"/>
<line x1="2761.020558" y1="1803.366338" x2="2586.780558" y2="1803.366338" stroke="black" stroke-width="6.48"/>
<line x1="2586.780558" y1="1803.366338" x2="2586.780558" y2="2194.614338" stroke="black" stroke-width="6.48"/>
<line x1="2586.780558" y1="2194.614338" x2="2761.020558" y2="2194.614338" stroke="black" stroke-width="6.48"/>
<line x1="2613.708558" y1="1878.606338" x2="2613.708558" y2="2162.934338" stroke="black" stroke-width="6.48"/>
<line x1="2613.708558" y1="2162.934338" x2="2731.716558" y2="2162.934338" stroke="black" stroke-width="6.48"/>
<line x1="2731.716558" y1="2162.934338" x2="2731.716558" y2="1873.062338" stroke="black" stroke-width="6.48"/>
<path d="m 2613.453134,1879.416911 a 63.3599990854681,63.3599990854681 0 0 1 119.3743300000001,-4.293814000000111" fill="none" stroke="black" stroke-width="6.48"/>
<line x1="2080.785496" y1="1847.164936" x2="2056.233496" y2="1865.776936" stroke="black" stroke-width="6.48"/>
<line x1="2056.233496" y1="1865.776936" x2="2056.233496" y2="2013.088936" stroke="black" stroke-width="6.48"/>
<line x1="2056.233496" y1="2013.088936" x2="2084.349496" y2="2032.096936" stroke="black" stroke-width="6.48"/>
<line x1="2083.557496" y1="1868.944936" x2="2083.557496" y2="2011.900936" stroke="black" stroke-width="6.48"/>
<circle cx="2105.337496" cy="1938.244936" r="13.068000000000003" fill="none" stroke="black" stroke-width="6.48"/>
<path d="m 2082.890149,1870.498188 a 74.84400042853738,74.84400042853738 0 1 1 0.4020480000003772,139.6090039999999" fill="none" stroke="black" stroke-width="6.48"/>
<path d="m 2080.128132,1847.211239 a 95.43599883324413,95.43599883324413 0 1 1 3.0749580000001515,184.466995" fill="none" stroke="black" stroke-width="6.48"/>
<line x1="833.42034" y1="209.788726" x2="1103.96754" y2="209.788726" stroke="black" stroke-width="6.48"/>
<line x1="1103.96754" y1="209.788726" x2="1103.96754" y2="341.735926" stroke="black" stroke-width="6.48"/>
<line x1="833.42034" y1="341.735926" x2="1103.96754" y2="341.735926" stroke="black" stroke-width="6.48"/>
<line x1="833.42034" y1="209.788726" x2="833.42034" y2="341.735926" stroke="black" stroke-width="6.48"/>
<line x1="840.07314" y1="216.441526" x2="978.11874" y2="216.441526" stroke="black" stroke-width="6.48"/>
<line x1="978.11874" y1="216.441526" x2="978.11874" y2="334.528726" stroke="black" stroke-width="6.48"/>
<line x1="840.07314" y1="334.528726" x2="978.11874" y2="334.528726" stroke="black" stroke-width="6.48"/>
<line x1="840.07314" y1="216.441526" x2="840.07314" y2="334.528726" stroke="black" stroke-width="6.48"/>
<line x1="992.53314" y1="224.203126" x2="1089.55314" y2="224.203126" stroke="black" stroke-width="6.48"/>
<line x1="992.53314" y1="244.715926" x2="1089.55314" y2="244.715926" stroke="black" stroke-width="6.48"/>
<line x1="993.08754" y1="265.783126" x2="1090.10754" y2="265.783126" stroke="black" stroke-width="6.48"/>
<line x1="993.08754" y1="286.295926" x2="1090.10754" y2="286.295926" stroke="black" stroke-width="6.48"/>
<line x1="992.53314" y1="306.808726" x2="1089.55314" y2="306.808726" stroke="black" stroke-width="6.48"/>
<line x1="992.53314" y1="327.321526" x2="1089.55314" y2="327.321526" stroke="black" stroke-width="6.48"/>
<line x1="892.74114" y1="334.528726" x2="892.74114" y2="320.668726" stroke="black" stroke-width="6.48"/>
<line x1="892.74114" y1="320.668726" x2="927.11394" y2="320.668726" stroke="black" stroke-width="6.48"/>
<line x1="927.11394" y1="320.668726" x2="927.11394" y2="333.974326" stroke="black" stroke-width="6.48"/>
<circle cx="962.59554" cy="231.410326" r="8.316000000000003" fill="none" stroke="black" stroke-width="6.48"/>
<line x1="1148.279656" y1="1111.046018" x2="761.415656" y2="1179.260582" stroke="black" stroke-width="6.48"/>
<line x1="761.415656" y1="1179.260582" x2="793.459998" y2="1360.993068" stroke="black" stroke-width="6.48"/>
<line x1="793.459998" y1="1360.993068" x2="1180.323994" y2="1292.778508" stroke="black" stroke-width="6.48"/>
<line x1="1180.323994" y1="1292.778508" x2="1148.279656" y2="1111.046018" stroke="black" stroke-width="6.48"/>
<line x1="1023.550477" y1="1320.421903" x2="1037.578475" y2="1399.978616" stroke="black" stroke-width="6.48"/>
<line x1="1037.578475" y1="1399.978616" x2="1114.795278" y2="1386.363211" stroke="black" stroke-width="6.48"/>
<line x1="1114.795278" y1="1386.363211" x2="1100.767288" y2="1306.806502" stroke="black" stroke-width="6.48"/>
<line x1="1110.989668" y1="1369.341446" x2="1034.552826" y2="1382.819328" stroke="black" stroke-width="6.48"/>
<line x1="1054.557421" y1="1044.737341" x2="977.340618" y2="1058.352743" stroke="black" stroke-width="6.48"/>
<line x1="977.340618" y1="1058.352743" x2="991.506139" y2="1138.689421" stroke="black" stroke-width="6.48"/>
<line x1="1068.722946" y1="1125.074016" x2="1054.557421" y2="1044.737341" stroke="black" stroke-width="6.48"/>
<line x1="1056.803101" y1="1062.034157" x2="980.366263" y2="1075.512038" stroke="black" stroke-width="6.48"/>
<line x1="874.576642" y1="1346.690012" x2="888.604636" y2="1426.246722" stroke="black" stroke-width="6.48"/>
<line x1="888.604636" y1="1426.246722" x2="965.821439" y2="1412.631317" stroke="black" stroke-width="6.48"/>
<line x1="965.821439" y1="1412.631317" x2="951.793445" y2="1333.074607" stroke="black" stroke-width="6.48"/>
<line x1="962.795794" y1="1395.472025" x2="885.57899" y2="1409.087434" stroke="black" stroke-width="6.48"/>
<line x1="905.583582" y1="1071.005447" x2="828.366775" y2="1084.620852" stroke="black" stroke-width="6.48"/>
<line x1="828.366775" y1="1084.620852" x2="842.5323" y2="1164.95753" stroke="black" stroke-width="6.48"/>
<line x1="919.749107" y1="1151.342125" x2="905.583582" y2="1071.005447" stroke="black" stroke-width="6.48"/>
<line x1="908.609231" y1="1088.164735" x2="831.39242" y2="1101.780144" stroke="black" stroke-width="6.48"/>
<line x1="2044.889399" y1="955.822399" x2="2267.166564" y2="955.822399" stroke="black" stroke-width="6.48"/>
<line x1="2267.166564" y1="955.822399" x2="2267.166564" y2="1178.555051" stroke="black" stroke-width="6.48"/>
<line x1="2267.166564" y1="1178.555051" x2="2044.889399" y2="1178.555051" stroke="black" stroke-width="6.48"/>
<line x1="2044.889399" y1="1178.555051" x2="2044.889399" y2="955.822399" stroke="black" stroke-width="6.48"/>
<line x1="2044.433912" y1="955.366913" x2="2267.166564" y2="1178.555051" stroke="black" stroke-width="6.48"/>
<line x1="2044.889399" y1="1178.099564" x2="2266.711078" y2="955.822399" stroke="black" stroke-width="6.48"/>
<line x1="323.258818" y1="1375.374532" x2="323.258818" y2="949.841089" stroke="black" stroke-width="6.48"/>
<line x1="323.258818" y1="949.841089" x2="257.659344" y2="949.841089" stroke="black" stroke-width="6.48"/>
<line x1="257.659344" y1="949.841089" x2="257.659344" y2="1375.374532" stroke="black" stroke-width="6.48"/>
<line x1="257.659344" y1="1375.374532" x2="323.258818" y2="1375.374532" stroke="black" stroke-width="6.48"/>
<line x1="258.522494" y1="1335.669588" x2="322.395667" y2="1335.669588" stroke="black" stroke-width="6.48"/>
<line x1="258.522494" y1="990.409187" x2="324.985122" y2="990.409187" stroke="black" stroke-width="6.48"/>
<line x1="288.73278" y1="1336.532738" x2="288.73278" y2="991.272337" stroke="black" stroke-width="6.48"/>
<line x1="3874.406537" y1="1514.726719" x2="3874.406537" y2="1940.260162" stroke="black" stroke-width="6.48"/>
<line x1="3874.406537" y1="1940.260162" x2="3940.00601" y2="1940.260162" stroke="black" stroke-width="6.48"/>
<line x1="3940.00601" y1="1940.260162" x2="3940.00601" y2="1514.726719" stroke="black" stroke-width="6.48"/>
<line x1="3940.00601" y1="1514.726719" x2="3874.406537" y2="1514.726719" stroke="black" stroke-width="6.48"/>
<line x1="3939.14286" y1="1554.431663" x2="3875.269687" y2="1554.431663" stroke="black" stroke-width="6.48"/>
<line x1="3939.14286" y1="1899.692064" x2="3872.680232" y2="1899.692064" stroke="black" stroke-width="6.48"/>
<line x1="3908.932574" y1="1553.568512" x2="3908.932574" y2="1898.828914" stroke="black" stroke-width="6.48"/>
<line x1="4867.153614" y1="1386.332053" x2="4745.761848" y2="1759.93749" stroke="black" stroke-width="6.48"/>
<line x1="4745.761848" y1="1759.93749" x2="4921.266017" y2="1816.96225" stroke="black" stroke-width="6.48"/>
<line x1="4921.266017" y1="1816.96225" x2="5042.657779" y2="1443.356813" stroke="black" stroke-width="6.48"/>
<line x1="5042.657779" y1="1443.356813" x2="4867.153614" y2="1386.332053" stroke="black" stroke-width="6.48"/>
<line x1="4993.464744" y1="1594.757401" x2="5070.294893" y2="1619.721032" stroke="black" stroke-width="6.48"/>
<line x1="5070.294893" y1="1619.721032" x2="5094.5243" y2="1545.150593" stroke="black" stroke-width="6.48"/>
<line x1="5094.5243" y1="1545.150593" x2="5017.694148" y2="1520.186962" stroke="black" stroke-width="6.48"/>
<line x1="5077.708351" y1="1540.519517" x2="5053.723686" y2="1614.336721" stroke="black" stroke-width="6.48"/>
<line x1="4764.606599" y1="1437.953832" x2="4740.377195" y2="1512.524272" stroke="black" stroke-width="6.48"/>
<line x1="4740.377195" y1="1512.524272" x2="4817.960579" y2="1537.732642" stroke="black" stroke-width="6.48"/>
<line x1="4842.189983" y1="1463.162202" x2="4764.606599" y2="1437.953832" stroke="black" stroke-width="6.48"/>
<line x1="4780.933063" y1="1444.091382" x2="4756.948402" y2="1517.908586" stroke="black" stroke-width="6.48"/>
<line x1="4946.719126" y1="1738.625623" x2="5023.549274" y2="1763.589254" stroke="black" stroke-width="6.48"/>
<line x1="5023.549274" y1="1763.589254" x2="5047.778682" y2="1689.018815" stroke="black" stroke-width="6.48"/>
<line x1="5047.778682" y1="1689.018815" x2="4970.94853" y2="1664.055184" stroke="black" stroke-width="6.48"/>
<line x1="5031.207472" y1="1683.634504" x2="5006.978064" y2="1758.20494" stroke="black" stroke-width="6.48"/>
<line x1="4717.86098" y1="1581.822054" x2="4693.631573" y2="1656.392494" stroke="black" stroke-width="6.48"/>
<line x1="4693.631573" y1="1656.392494" x2="4771.21496" y2="1681.600864" stroke="black" stroke-width="6.48"/>
<line x1="4795.444364" y1="1607.030424" x2="4717.86098" y2="1581.822054" stroke="black" stroke-width="6.48"/>
<line x1="4734.432184" y1="1587.206369" x2="4710.202783" y2="1661.776808" stroke="black" stroke-width="6.48"/>
<line x1="3190.962845" y1="1074.602642" x2="3400.328048" y2="1074.602642" stroke="black" stroke-width="6.48"/>
<line x1="3400.328048" y1="1074.602642" x2="3400.328048" y2="743.388239" stroke="black" stroke-width="6.48"/>
<line x1="3400.328048" y1="743.388239" x2="3190.962845" y2="743.388239" stroke="black" stroke-width="6.48"/>
<line x1="3190.962845" y1="743.388239" x2="3190.962845" y2="1074.602642" stroke="black" stroke-width="6.48"/>
<line x1="3190.289645" y1="802.629839" x2="3401.001245" y2="802.629839" stroke="black" stroke-width="6.48"/>
<line x1="3401.001245" y1="802.629839" x2="3191.636045" y2="852.446642" stroke="black" stroke-width="6.48"/>
<line x1="3191.636045" y1="852.446642" x2="3223.276448" y2="898.897442" stroke="black" stroke-width="6.48"/>
<line x1="3223.276448" y1="898.897442" x2="3401.001245" y2="801.956642" stroke="black" stroke-width="6.48"/>
<line x1="3517.167344" y1="1202.70019" x2="3739.44451" y2="1202.70019" stroke="black" stroke-width="6.48"/>
<line x1="3739.44451" y1="1202.70019" x2="3739.44451" y2="1425.432841" stroke="black" stroke-width="6.48"/>
<line x1="3739.44451" y1="1425.432841" x2="3517.167344" y2="1425.432841" stroke="black" stroke-width="6.48"/>
<line x1="3517.167344" y1="1425.432841" x2="3517.167344" y2="1202.70019" stroke="black" stroke-width="6.48"/>
<line x1="3516.711858" y1="1202.244703" x2="3739.44451" y2="1425.432841" stroke="black" stroke-width="6.48"/>
<line x1="3517.167344" y1="1424.977355" x2="3738.989023" y2="1202.70019" stroke="black" stroke-width="6.48"/>
<line x1="2804.16708" y1="1127.69402" x2="2804.16708" y2="1153.148746" stroke="black" stroke-width="6.48"/>
<line x1="2804.16708" y1="1153.148746" x2="2853.834836" y2="1153.148746" stroke="black" stroke-width="6.48"/>
<line x1="2853.834836" y1="1153.148746" x2="2853.834836" y2="1127.69402" stroke="black" stroke-width="6.48"/>
<line x1="2853.834836" y1="1127.69402" x2="2804.16708" y2="1127.69402" stroke="black" stroke-width="6.48"/>
<line x1="2853.834836" y1="1402.108373" x2="3101.55277" y2="1402.108373" stroke="black" stroke-width="6.48"/>
<line x1="2802.925386" y1="1402.729218" x2="2802.925386" y2="1428.183943" stroke="black" stroke-width="6.48"/>
<line x1="2802.925386" y1="1428.183943" x2="2852.593142" y2="1428.183943" stroke="black" stroke-width="6.48"/>
<line x1="2852.593142" y1="1428.183943" x2="2852.593142" y2="1402.729218" stroke="black" stroke-width="6.48"/>
<line x1="2852.593142" y1="1402.729218" x2="2802.925386" y2="1402.729218" stroke="black" stroke-width="6.48"/>
<path d="m 2851.972294,1153.148746 a 248.95962699999984,248.95962699999984 0 0 1 248.95962699999973,248.95962699999995" fill="none" stroke="black" stroke-width="6.48"/>
<line x1="3397.147596" y1="1865.380637" x2="3484.017968" y2="1650.36893" stroke="black" stroke-width="6.48"/>
<line x1="3484.017968" y1="1650.36893" x2="3699.470275" y2="1737.417312" stroke="black" stroke-width="6.48"/>
<line x1="3699.470275" y1="1737.417312" x2="3612.599906" y2="1952.429022" stroke="black" stroke-width="6.48"/>
<line x1="3612.599906" y1="1952.429022" x2="3397.147596" y2="1865.380637" stroke="black" stroke-width="6.48"/>
<line x1="3396.52899" y1="1865.643224" x2="3699.470275" y2="1737.417312" stroke="black" stroke-width="6.48"/>
<line x1="3612.15931" y1="1952.251009" x2="3483.839956" y2="1650.809527" stroke="black" stroke-width="6.48"/>
<line x1="3079.021345" y1="1589.315879" x2="3065.967511" y2="1617.309914" stroke="black" stroke-width="6.48"/>
<line x1="3065.967511" y1="1617.309914" x2="3255.896275" y2="1705.875149" stroke="black" stroke-width="6.48"/>
<line x1="3255.896275" y1="1705.875149" x2="3268.950106" y2="1677.881113" stroke="black" stroke-width="6.48"/>
<line x1="3268.950106" y1="1677.881113" x2="3079.021345" y2="1589.315879" stroke="black" stroke-width="6.48"/>
<line x1="2992.866048" y1="1774.076508" x2="2979.812214" y2="1802.07054" stroke="black" stroke-width="6.48"/>
<line x1="2979.812214" y1="1802.07054" x2="3169.740974" y2="1890.635778" stroke="black" stroke-width="6.48"/>
<line x1="3169.740974" y1="1890.635778" x2="3182.794808" y2="1862.641742" stroke="black" stroke-width="6.48"/>
<line x1="3182.794808" y1="1862.641742" x2="2992.866048" y2="1774.076508" stroke="black" stroke-width="6.48"/>
<line x1="3066.168341" y1="1616.879236" x2="2992.866048" y2="1774.076508" stroke="black" stroke-width="6.48"/>
<line x1="3255.436573" y1="1704.612139" x2="3267.877457" y2="1739.775629" stroke="black" stroke-width="6.48"/>
<line x1="3216.666265" y1="1849.598377" x2="3181.732628" y2="1862.670766" stroke="black" stroke-width="6.48"/>
<line x1="3268.680768" y1="1738.052917" x2="3215.86295" y2="1851.321089" stroke="black" stroke-width="6.48"/>
<line x1="3106.451192" y1="1636.187764" x2="3033.1489" y2="1793.38504" stroke="black" stroke-width="6.48"/>
<line x1="2259.12622" y1="2272.606873" x2="2289.845012" y2="2275.835555" stroke="black" stroke-width="6.48"/>
<line x1="2289.845012" y1="2275.835555" x2="2311.750382" y2="2067.42037" stroke="black" stroke-width="6.48"/>
<line x1="2311.750382" y1="2067.42037" x2="2281.03159" y2="2064.191688" stroke="black" stroke-width="6.48"/>
<line x1="2281.03159" y1="2064.191688" x2="2259.12622" y2="2272.606873" stroke="black" stroke-width="6.48"/>
<line x1="2461.870246" y1="2293.91618" x2="2492.589035" y2="2297.144862" stroke="black" stroke-width="6.48"/>
<line x1="2492.589035" y1="2297.144862" x2="2514.494405" y2="2088.729677" stroke="black" stroke-width="6.48"/>
<line x1="2514.494405" y1="2088.729677" x2="2483.775616" y2="2085.500995" stroke="black" stroke-width="6.48"/>
<line x1="2483.775616" y1="2085.500995" x2="2461.870246" y2="2293.91618" stroke="black" stroke-width="6.48"/>
<line x1="2289.372415" y1="2275.785882" x2="2461.870246" y2="2293.91618" stroke="black" stroke-width="6.48"/>
<line x1="2310.705846" y1="2068.266218" x2="2339.903228" y2="2045.055031" stroke="black" stroke-width="6.48"/>
<line x1="2460.41541" y1="2057.721401" x2="2484.148867" y2="2086.495859" stroke="black" stroke-width="6.48"/>
<line x1="2338.01284" y1="2044.856344" x2="2462.305795" y2="2057.920088" stroke="black" stroke-width="6.48"/>
<line x1="2294.514184" y1="2231.411458" x2="2467.012014" y2="2249.541752" stroke="black" stroke-width="6.48"/>
<line x1="6095.420384" y1="1545.355375" x2="5916.803612" y2="1480.344188" stroke="black" stroke-width="6.48"/>
<line x1="5916.803612" y1="1480.344188" x2="5758.176312" y2="1916.169113" stroke="black" stroke-width="6.48"/>
<line x1="5758.176312" y1="1916.169113" x2="5936.793088" y2="1981.1803" stroke="black" stroke-width="6.48"/>
<line x1="5936.793088" y1="1981.1803" x2="5944.919486" y2="1958.853208" stroke="black" stroke-width="6.48"/>
<line x1="5944.919486" y1="1958.853208" x2="5787.736722" y2="1901.643361" stroke="black" stroke-width="6.48"/>
<line x1="5787.736722" y1="1901.643361" x2="5929.78617" y2="1511.365709" stroke="black" stroke-width="6.48"/>
<line x1="5929.78617" y1="1511.365709" x2="6086.968931" y2="1568.575552" stroke="black" stroke-width="6.48"/>
<line x1="6086.968931" y1="1568.575552" x2="6095.420384" y2="1545.355375" stroke="black" stroke-width="6.48"/>
<line x1="6081.610428" y1="1566.625216" x2="5939.56098" y2="1956.902872" stroke="black" stroke-width="6.48"/>
<line x1="6011.641314" y1="1761.642558" x2="5859.817056" y2="1706.383048" stroke="black" stroke-width="6.48"/>
<line x1="3819.610505" y1="1149.082661" x2="3822.30257" y2="1118.312197" stroke="black" stroke-width="6.48"/>
<line x1="3822.30257" y1="1118.312197" x2="3613.536821" y2="1100.047561" stroke="black" stroke-width="6.48"/>
<line x1="3613.536821" y1="1100.047561" x2="3610.844759" y2="1130.818025" stroke="black" stroke-width="6.48"/>
<line x1="3610.844759" y1="1130.818025" x2="3819.610505" y2="1149.082661" stroke="black" stroke-width="6.48"/>
<line x1="3837.378146" y1="945.99761" x2="3840.070212" y2="915.22715" stroke="black" stroke-width="6.48"/>
<line x1="3840.070212" y1="915.22715" x2="3631.304462" y2="896.962511" stroke="black" stroke-width="6.48"/>
<line x1="3631.304462" y1="896.962511" x2="3628.612393" y2="927.732974" stroke="black" stroke-width="6.48"/>
<line x1="3628.612393" y1="927.732974" x2="3837.378146" y2="945.99761" stroke="black" stroke-width="6.48"/>
<line x1="3822.261152" y1="1118.78559" x2="3837.378146" y2="945.99761" stroke="black" stroke-width="6.48"/>
<line x1="3614.400774" y1="1101.077176" x2="3590.683546" y2="1072.28934" stroke="black" stroke-width="6.48"/>
<line x1="3601.244732" y1="951.57445" x2="3629.600597" y2="927.342418" stroke="black" stroke-width="6.48"/>
<line x1="3590.517884" y1="1074.182908" x2="3601.410397" y2="949.680882" stroke="black" stroke-width="6.48"/>
<line x1="3777.803752" y1="1114.419053" x2="3792.920738" y2="941.63108" stroke="black" stroke-width="6.48"/>
<line x1="6312.298428" y1="1929.779622" x2="6131.521602" y2="1988.517575" stroke="black" stroke-width="6.48"/>
<line x1="6131.521602" y1="1988.517575" x2="6274.842203" y2="2429.613022" stroke="black" stroke-width="6.48"/>
<line x1="6274.842203" y1="2429.613022" x2="6455.619025" y2="2370.875069" stroke="black" stroke-width="6.48"/>
<line x1="6455.619025" y1="2370.875069" x2="6448.276778" y2="2348.277966" stroke="black" stroke-width="6.48"/>
<line x1="6448.276778" y1="2348.277966" x2="6289.193178" y2="2399.967364" stroke="black" stroke-width="6.48"/>
<line x1="6289.193178" y1="2399.967364" x2="6160.850759" y2="2004.970007" stroke="black" stroke-width="6.48"/>
<line x1="6160.850759" y1="2004.970007" x2="6319.934359" y2="1953.280613" stroke="black" stroke-width="6.48"/>
<line x1="6319.934359" y1="1953.280613" x2="6312.298428" y2="1929.779622" stroke="black" stroke-width="6.48"/>
<line x1="6314.511056" y1="1955.042748" x2="6442.853476" y2="2350.040108" stroke="black" stroke-width="6.48"/>
<line x1="6379.439303" y1="2151.795794" x2="6225.779009" y2="2201.723057" stroke="black" stroke-width="6.48"/>
</g>
</svg>
