<?xml version="1.0"?>
<svg xmlns:xlink="http://www.w3.org/1999/xlink" width="6775.2" height="2858.4">
<image x="0" y="0" width="6775.2" height="2858.4" xlink:href="groundfilled-01.png"/>
<g style="stroke-linecap:round">
<line x1="1285.950406" y1="795.178109" x2="1311.346069" y2="795.178109" stroke="black" stroke-width="6.48"/>
<line x1="1311.346069" y1="795.178109" x2="1311.346069" y2="745.625592" stroke="black" stroke-width="6.48"/>
<line x1="1311.346069" y1="745.625592" x2="1285.950406" y2="745.625592" stroke="black" stroke-width="6.48"/>
<line x1="1285.950406" y1="745.625592" x2="1285.950406" y2="795.178109" stroke="black" stroke-width="6.48"/>
<line x1="1559.728062" y1="745.625592" x2="1559.728062" y2="498.48241" stroke="black" stroke-width="6.48"/>
<line x1="1560.347471" y1="796.416923" x2="1585.743134" y2="796.416923" stroke="black" stroke-width="6.48"/>
<line x1="1585.743134" y1="796.416923" x2="1585.743134" y2="746.864406" stroke="black" stroke-width="6.48"/>
<line x1="1585.743134" y1="746.864406" x2="1560.347471" y2="746.864406" stroke="black" stroke-width="6.48"/>
<line x1="1560.347471" y1="746.864406" x2="1560.347471" y2="796.416923" stroke="black" stroke-width="6.48"/>
<path d="m 1311.346069,747.483811 a 248.38199299999997,248.38199299999997 0 0 1 248.38199299999997,-248.38199299999997" fill="none" stroke="black" stroke-width="6.48"/>
<line x1="320.532556" y1="771.34176" x2="320.532556" y2="366.736194" stroke="black" stroke-width="6.48"/>
<line x1="320.532556" y1="366.736194" x2="258.159283" y2="366.736194" stroke="black" stroke-width="6.48"/>
<line x1="258.159283" y1="366.736194" x2="258.159283" y2="771.34176" stroke="black" stroke-width="6.48"/>
<line x1="258.159283" y1="771.34176" x2="320.532556" y2="771.34176" stroke="black" stroke-width="6.48"/>
<line x1="258.979986" y1="733.589518" x2="319.711856" y2="733.589518" stroke="black" stroke-width="6.48"/>
<line x1="258.979986" y1="405.309139" x2="322.173958" y2="405.309139" stroke="black" stroke-width="6.48"/>
<line x1="287.704519" y1="734.410217" x2="287.704519" y2="406.129838" stroke="black" stroke-width="6.48"/>
<line x1="3901.945176" y1="1169.331426" x2="3901.945176" y2="1428.837066" stroke="black" stroke-width="6.48"/>
<line x1="3901.945176" y1="1428.837066" x2="3941.9501" y2="1428.837066" stroke="black" stroke-width="6.48"/>
<line x1="3941.9501" y1="1428.837066" x2="3941.9501" y2="1169.331426" stroke="black" stroke-width="6.48"/>
<line x1="3941.9501" y1="1169.331426" x2="3901.945176" y2="1169.331426" stroke="black" stroke-width="6.48"/>
<line x1="3941.423719" y1="1193.544936" x2="3902.471557" y2="1193.544936" stroke="black" stroke-width="6.48"/>
<line x1="3941.423719" y1="1404.097178" x2="3900.892414" y2="1404.097178" stroke="black" stroke-width="6.48"/>
<line x1="3923.000399" y1="1193.018555" x2="3923.000399" y2="1403.570797" stroke="black" stroke-width="6.48"/>
<line x1="334.430687" y1="1882.943946" x2="334.430687" y2="1457.437414" stroke="black" stroke-width="6.48"/>
<line x1="334.430687" y1="1457.437414" x2="258.323828" y2="1457.437414" stroke="black" stroke-width="6.48"/>
<line x1="258.323828" y1="1457.437414" x2="258.323828" y2="1882.943946" stroke="black" stroke-width="6.48"/>
<line x1="258.323828" y1="1882.943946" x2="334.430687" y2="1882.943946" stroke="black" stroke-width="6.48"/>
<line x1="334.430687" y1="1863.05238" x2="360.376207" y2="1863.05238" stroke="black" stroke-width="6.48"/>
<line x1="360.376207" y1="1863.05238" x2="360.376207" y2="1478.193829" stroke="black" stroke-width="6.48"/>
<line x1="334.430687" y1="1478.193829" x2="360.376207" y2="1478.193829" stroke="black" stroke-width="6.48"/>
<line x1="2747.905531" y1="904.670665" x2="2721.68303" y2="904.670665" stroke="black" stroke-width="6.48"/>
<line x1="2721.68303" y1="904.670665" x2="2721.68303" y2="955.836522" stroke="black" stroke-width="6.48"/>
<line x1="2721.68303" y1="955.836522" x2="2747.905531" y2="955.836522" stroke="black" stroke-width="6.48"/>
<line x1="2747.905531" y1="955.836522" x2="2747.905531" y2="904.670665" stroke="black" stroke-width="6.48"/>
<line x1="2465.214181" y1="955.836522" x2="2465.214181" y2="1211.026223" stroke="black" stroke-width="6.48"/>
<line x1="2464.574609" y1="903.39152" x2="2438.352108" y2="903.39152" stroke="black" stroke-width="6.48"/>
<line x1="2438.352108" y1="903.39152" x2="2438.352108" y2="954.557374" stroke="black" stroke-width="6.48"/>
<line x1="2438.352108" y1="954.557374" x2="2464.574609" y2="954.557374" stroke="black" stroke-width="6.48"/>
<line x1="2464.574609" y1="954.557374" x2="2464.574609" y2="903.39152" stroke="black" stroke-width="6.48"/>
<path d="m 2721.68303,953.917801 a 256.4688490000001,256.4688490000001 0 0 1 -256.4688490000003,256.46884899999986" fill="none" stroke="black" stroke-width="6.48"/>
<line x1="2420.532389" y1="1427.858834" x2="2395.136725" y2="1427.858834" stroke="black" stroke-width="6.48"/>
<line x1="2395.136725" y1="1427.858834" x2="2395.136725" y2="1477.411351" stroke="black" stroke-width="6.48"/>
<line x1="2395.136725" y1="1477.411351" x2="2420.532389" y2="1477.411351" stroke="black" stroke-width="6.48"/>
<line x1="2420.532389" y1="1477.411351" x2="2420.532389" y2="1427.858834" stroke="black" stroke-width="6.48"/>
<line x1="2146.754732" y1="1477.411351" x2="2146.754732" y2="1724.554534" stroke="black" stroke-width="6.48"/>
<line x1="2146.135324" y1="1426.62002" x2="2120.73966" y2="1426.62002" stroke="black" stroke-width="6.48"/>
<line x1="2120.73966" y1="1426.62002" x2="2120.73966" y2="1476.172537" stroke="black" stroke-width="6.48"/>
<line x1="2120.73966" y1="1476.172537" x2="2146.135324" y2="1476.172537" stroke="black" stroke-width="6.48"/>
<line x1="2146.135324" y1="1476.172537" x2="2146.135324" y2="1426.62002" stroke="black" stroke-width="6.48"/>
<path d="m 2395.136725,1475.553132 a 248.38199299999997,248.38199299999997 0 0 1 -248.38199299999997,248.38199299999997" fill="none" stroke="black" stroke-width="6.48"/>
<line x1="588.993376" y1="692.136151" x2="981.825376" y2="692.136151" stroke="black" stroke-width="6.48"/>
<line x1="981.825376" y1="692.136151" x2="981.825376" y2="507.600151" stroke="black" stroke-width="6.48"/>
<line x1="981.825376" y1="507.600151" x2="588.993376" y2="507.600151" stroke="black" stroke-width="6.48"/>
<line x1="588.993376" y1="507.600151" x2="588.993376" y2="692.136151" stroke="black" stroke-width="6.48"/>
<line x1="748.185376" y1="507.600151" x2="748.185376" y2="426.816151" stroke="black" stroke-width="6.48"/>
<line x1="748.185376" y1="426.816151" x2="669.777376" y2="426.816151" stroke="black" stroke-width="6.48"/>
<line x1="669.777376" y1="426.816151" x2="669.777376" y2="507.600151" stroke="black" stroke-width="6.48"/>
<line x1="670.569376" y1="444.240151" x2="748.185376" y2="444.240151" stroke="black" stroke-width="6.48"/>
<line x1="669.777376" y1="773.712151" x2="748.185376" y2="773.712151" stroke="black" stroke-width="6.48"/>
<line x1="748.185376" y1="773.712151" x2="748.185376" y2="692.136151" stroke="black" stroke-width="6.48"/>
<line x1="669.777376" y1="692.136151" x2="669.777376" y2="773.712151" stroke="black" stroke-width="6.48"/>
<line x1="670.569376" y1="756.288151" x2="748.185376" y2="756.288151" stroke="black" stroke-width="6.48"/>
<line x1="899.457376" y1="507.600151" x2="899.457376" y2="426.816151" stroke="black" stroke-width="6.48"/>
<line x1="899.457376" y1="426.816151" x2="821.049376" y2="426.816151" stroke="black" stroke-width="6.48"/>
<line x1="821.049376" y1="426.816151" x2="821.049376" y2="507.600151" stroke="black" stroke-width="6.48"/>
<line x1="821.049376" y1="444.240151" x2="899.457376" y2="444.240151" stroke="black" stroke-width="6.48"/>
<line x1="821.049376" y1="773.712151" x2="899.457376" y2="773.712151" stroke="black" stroke-width="6.48"/>
<line x1="899.457376" y1="773.712151" x2="899.457376" y2="692.136151" stroke="black" stroke-width="6.48"/>
<line x1="821.049376" y1="692.136151" x2="821.049376" y2="773.712151" stroke="black" stroke-width="6.48"/>
<line x1="821.049376" y1="756.288151" x2="899.457376" y2="756.288151" stroke="black" stroke-width="6.48"/>
<line x1="2032.924367" y1="1746.17838" x2="2032.924367" y2="1715.29038" stroke="black" stroke-width="6.48"/>
<line x1="2032.924367" y1="1715.29038" x2="1823.361167" y2="1715.29038" stroke="black" stroke-width="6.48"/>
<line x1="1823.361167" y1="1715.29038" x2="1823.361167" y2="1746.17838" stroke="black" stroke-width="6.48"/>
<line x1="1823.361167" y1="1746.17838" x2="2032.924367" y2="1746.17838" stroke="black" stroke-width="6.48"/>
<line x1="2032.924367" y1="1542.31758" x2="2032.924367" y2="1511.42958" stroke="black" stroke-width="6.48"/>
<line x1="2032.924367" y1="1511.42958" x2="1823.361167" y2="1511.42958" stroke="black" stroke-width="6.48"/>
<line x1="1823.361167" y1="1511.42958" x2="1823.361167" y2="1542.31758" stroke="black" stroke-width="6.48"/>
<line x1="1823.361167" y1="1542.31758" x2="2032.924367" y2="1542.31758" stroke="black" stroke-width="6.48"/>
<line x1="2032.924367" y1="1715.76558" x2="2032.924367" y2="1542.31758" stroke="black" stroke-width="6.48"/>
<line x1="1824.311567" y1="1716.24078" x2="1798.175567" y2="1689.62958" stroke="black" stroke-width="6.48"/>
<line x1="1798.175567" y1="1568.45358" x2="1824.311567" y2="1541.84238" stroke="black" stroke-width="6.48"/>
<line x1="1798.175567" y1="1691.53038" x2="1798.175567" y2="1566.55278" stroke="black" stroke-width="6.48"/>
<line x1="1988.255567" y1="1715.29038" x2="1988.255567" y2="1541.84238" stroke="black" stroke-width="6.48"/>
<line x1="1485.415969" y1="209.267824" x2="1707.693134" y2="209.267824" stroke="black" stroke-width="6.48"/>
<line x1="1707.693134" y1="209.267824" x2="1707.693134" y2="432.000475" stroke="black" stroke-width="6.48"/>
<line x1="1707.693134" y1="432.000475" x2="1485.415969" y2="432.000475" stroke="black" stroke-width="6.48"/>
<line x1="1485.415969" y1="432.000475" x2="1485.415969" y2="209.267824" stroke="black" stroke-width="6.48"/>
<line x1="1484.960483" y1="208.812337" x2="1707.693134" y2="432.000475" stroke="black" stroke-width="6.48"/>
<line x1="1485.415969" y1="431.544989" x2="1707.237648" y2="209.267824" stroke="black" stroke-width="6.48"/>
<line x1="2586.780558" y1="1803.366338" x2="2586.780558" y2="2194.614338" stroke="black" stroke-width="6.48"/>
<line x1="2586.780558" y1="2194.614338" x2="2761.020558" y2="2194.614338" stroke="black" stroke-width="6.48"/>
<line x1="2761.020558" y1="2194.614338" x2="2761.020558" y2="1803.366338" stroke="black" stroke-width="6.48"/>
<line x1="2761.020558" y1="1803.366338" x2="2586.780558" y2="1803.366338" stroke="black" stroke-width="6.48"/>
<line x1="2734.092558" y1="2119.374338" x2="2734.092558" y2="1835.046338" stroke="black" stroke-width="6.48"/>
<line x1="2734.092558" y1="1835.046338" x2="2616.084558" y2="1835.046338" stroke="black" stroke-width="6.48"/>
<line x1="2616.084558" y1="1835.046338" x2="2616.084558" y2="2124.918338" stroke="black" stroke-width="6.48"/>
<path d="m 2734.347982,2118.563766 a 63.35999941905905,63.35999941905905 0 0 1 -119.37432999999965,4.2938139999996565" fill="none" stroke="black" stroke-width="6.48"/>
<line x1="2105.654695" y1="1887.131995" x2="2105.654695" y2="2070.875995" stroke="black" stroke-width="6.48"/>
<line x1="2105.654695" y1="2070.875995" x2="2056.550695" y2="2070.875995" stroke="black" stroke-width="6.48"/>
<line x1="2056.550695" y1="1887.131995" x2="2056.550695" y2="2070.875995" stroke="black" stroke-width="6.48"/>
<line x1="2105.654695" y1="1887.131995" x2="2056.550695" y2="1887.131995" stroke="black" stroke-width="6.48"/>
<line x1="2133.374695" y1="1928.711995" x2="2105.654695" y2="1928.711995" stroke="black" stroke-width="6.48"/>
<line x1="2105.654695" y1="2027.711995" x2="2134.958695" y2="2027.711995" stroke="black" stroke-width="6.48"/>
<circle cx="2178.518695" cy="1977.419995" r="66.52800000000002" fill="none" stroke="black" stroke-width="6.48"/>
<circle cx="2178.518695" cy="1977.419995" r="57.02400000000001" fill="none" stroke="black" stroke-width="6.48"/>
<line x1="917.068867" y1="211.147834" x2="1310.31274" y2="211.147834" stroke="black" stroke-width="6.48"/>
<line x1="1314.268146" y1="210.151552" x2="1314.268146" y2="346.220327" stroke="black" stroke-width="6.48"/>
<line x1="917.533256" y1="347.371834" x2="1314.573487" y2="347.371834" stroke="black" stroke-width="6.48"/>
<line x1="918.268146" y1="211.842583" x2="918.268146" y2="347.10664" stroke="black" stroke-width="6.48"/>
<line x1="928.564146" y1="222.235834" x2="1052.116146" y2="222.235834" stroke="black" stroke-width="6.48"/>
<line x1="1052.116146" y1="222.235834" x2="1052.116146" y2="336.283834" stroke="black" stroke-width="6.48"/>
<line x1="928.564146" y1="336.283834" x2="1052.116146" y2="336.283834" stroke="black" stroke-width="6.48"/>
<line x1="928.564146" y1="222.235834" x2="928.564146" y2="336.283834" stroke="black" stroke-width="6.48"/>
<line x1="1071.124146" y1="229.363834" x2="1158.244146" y2="229.363834" stroke="black" stroke-width="6.48"/>
<line x1="1071.124146" y1="249.163834" x2="1158.244146" y2="249.163834" stroke="black" stroke-width="6.48"/>
<line x1="1071.916146" y1="269.755834" x2="1158.244146" y2="269.755834" stroke="black" stroke-width="6.48"/>
<line x1="1071.916146" y1="289.555834" x2="1158.244146" y2="289.555834" stroke="black" stroke-width="6.48"/>
<line x1="1071.124146" y1="309.355834" x2="1158.244146" y2="309.355834" stroke="black" stroke-width="6.48"/>
<line x1="1071.124146" y1="329.155834" x2="1158.244146" y2="329.155834" stroke="black" stroke-width="6.48"/>
<line x1="976.084146" y1="335.491834" x2="976.084146" y2="322.027834" stroke="black" stroke-width="6.48"/>
<line x1="976.084146" y1="322.027834" x2="1006.180146" y2="322.027834" stroke="black" stroke-width="6.48"/>
<line x1="1006.180146" y1="322.027834" x2="1006.180146" y2="334.699834" stroke="black" stroke-width="6.48"/>
<line x1="1178.836146" y1="222.235834" x2="1302.388146" y2="222.235834" stroke="black" stroke-width="6.48"/>
<line x1="1302.388146" y1="222.235834" x2="1302.388146" y2="336.283834" stroke="black" stroke-width="6.48"/>
<line x1="1178.836146" y1="336.283834" x2="1302.388146" y2="336.283834" stroke="black" stroke-width="6.48"/>
<line x1="1178.836146" y1="222.235834" x2="1178.836146" y2="336.283834" stroke="black" stroke-width="6.48"/>
<line x1="1226.356146" y1="336.283834" x2="1226.356146" y2="322.819834" stroke="black" stroke-width="6.48"/>
<line x1="1226.356146" y1="322.819834" x2="1256.452146" y2="322.819834" stroke="black" stroke-width="6.48"/>
<line x1="1256.452146" y1="322.819834" x2="1256.452146" y2="335.491834" stroke="black" stroke-width="6.48"/>
<circle cx="1037.860146" cy="236.491834" r="7.128000000000001" fill="none" stroke="black" stroke-width="6.48"/>
<circle cx="1288.132146" cy="237.283834" r="7.128000000000001" fill="none" stroke="black" stroke-width="6.48"/>
<line x1="1160.796618" y1="1303.17966" x2="887.912582" y2="1020.599964" stroke="black" stroke-width="6.48"/>
<line x1="887.912582" y1="1020.599964" x2="755.168494" y2="1148.789441" stroke="black" stroke-width="6.48"/>
<line x1="755.168494" y1="1148.789441" x2="1028.052533" y2="1431.369137" stroke="black" stroke-width="6.48"/>
<line x1="1028.052533" y1="1431.369137" x2="1160.796618" y2="1303.17966" stroke="black" stroke-width="6.48"/>
<line x1="917.468474" y1="1316.855995" x2="859.357328" y2="1372.973274" stroke="black" stroke-width="6.48"/>
<line x1="859.357328" y1="1372.973274" x2="913.824104" y2="1429.37527" stroke="black" stroke-width="6.48"/>
<line x1="913.824104" y1="1429.37527" x2="971.93525" y2="1373.257991" stroke="black" stroke-width="6.48"/>
<line x1="925.807709" y1="1416.70183" x2="871.891103" y2="1360.869552" stroke="black" stroke-width="6.48"/>
<line x1="1163.360203" y1="1188.401062" x2="1108.893431" y2="1131.999066" stroke="black" stroke-width="6.48"/>
<line x1="1108.893431" y1="1131.999066" x2="1050.212567" y2="1188.666518" stroke="black" stroke-width="6.48"/>
<line x1="1104.679339" y1="1245.068514" x2="1163.360203" y2="1188.401062" stroke="black" stroke-width="6.48"/>
<line x1="1150.276259" y1="1199.935073" x2="1096.359653" y2="1144.102795" stroke="black" stroke-width="6.48"/>
<line x1="812.386112" y1="1208.040023" x2="754.27497" y2="1264.157305" stroke="black" stroke-width="6.48"/>
<line x1="754.27497" y1="1264.157305" x2="808.741742" y2="1320.559301" stroke="black" stroke-width="6.48"/>
<line x1="808.741742" y1="1320.559301" x2="866.852888" y2="1264.442018" stroke="black" stroke-width="6.48"/>
<line x1="821.275517" y1="1308.455572" x2="766.808748" y2="1252.05358" stroke="black" stroke-width="6.48"/>
<line x1="1058.277841" y1="1079.585093" x2="1003.811069" y2="1023.183097" stroke="black" stroke-width="6.48"/>
<line x1="1003.811069" y1="1023.183097" x2="945.130205" y2="1079.850546" stroke="black" stroke-width="6.48"/>
<line x1="999.596977" y1="1136.252542" x2="1058.277841" y2="1079.585093" stroke="black" stroke-width="6.48"/>
<line x1="1045.744067" y1="1091.688818" x2="991.277291" y2="1035.286826" stroke="black" stroke-width="6.48"/>
<line x1="2044.889399" y1="955.822399" x2="2267.166564" y2="955.822399" stroke="black" stroke-width="6.48"/>
<line x1="2267.166564" y1="955.822399" x2="2267.166564" y2="1178.555051" stroke="black" stroke-width="6.48"/>
<line x1="2267.166564" y1="1178.555051" x2="2044.889399" y2="1178.555051" stroke="black" stroke-width="6.48"/>
<line x1="2044.889399" y1="1178.555051" x2="2044.889399" y2="955.822399" stroke="black" stroke-width="6.48"/>
<line x1="2044.433912" y1="955.366913" x2="2267.166564" y2="1178.555051" stroke="black" stroke-width="6.48"/>
<line x1="2044.889399" y1="1178.099564" x2="2266.711078" y2="955.822399" stroke="black" stroke-width="6.48"/>
<line x1="333.766206" y1="1375.361078" x2="333.766206" y2="949.854546" stroke="black" stroke-width="6.48"/>
<line x1="333.766206" y1="949.854546" x2="257.659348" y2="949.854546" stroke="black" stroke-width="6.48"/>
<line x1="257.659348" y1="949.854546" x2="257.659348" y2="1375.361078" stroke="black" stroke-width="6.48"/>
<line x1="257.659348" y1="1375.361078" x2="333.766206" y2="1375.361078" stroke="black" stroke-width="6.48"/>
<line x1="333.766206" y1="1355.469512" x2="359.711726" y2="1355.469512" stroke="black" stroke-width="6.48"/>
<line x1="359.711726" y1="1355.469512" x2="359.711726" y2="970.610962" stroke="black" stroke-width="6.48"/>
<line x1="333.766206" y1="970.610962" x2="359.711726" y2="970.610962" stroke="black" stroke-width="6.48"/>
<line x1="3874.406537" y1="1514.726719" x2="3874.406537" y2="1940.260162" stroke="black" stroke-width="6.48"/>
<line x1="3874.406537" y1="1940.260162" x2="3940.00601" y2="1940.260162" stroke="black" stroke-width="6.48"/>
<line x1="3940.00601" y1="1940.260162" x2="3940.00601" y2="1514.726719" stroke="black" stroke-width="6.48"/>
<line x1="3940.00601" y1="1514.726719" x2="3874.406537" y2="1514.726719" stroke="black" stroke-width="6.48"/>
<line x1="3939.14286" y1="1554.431663" x2="3875.269687" y2="1554.431663" stroke="black" stroke-width="6.48"/>
<line x1="3939.14286" y1="1899.692064" x2="3872.680232" y2="1899.692064" stroke="black" stroke-width="6.48"/>
<line x1="3908.932574" y1="1553.568512" x2="3908.932574" y2="1898.828914" stroke="black" stroke-width="6.48"/>
<line x1="5176.750046" y1="2047.944074" x2="5122.078398" y2="1658.935091" stroke="black" stroke-width="6.48"/>
<line x1="5122.078398" y1="1658.935091" x2="4939.33829" y2="1684.617538" stroke="black" stroke-width="6.48"/>
<line x1="4939.33829" y1="1684.617538" x2="4994.009939" y2="2073.626525" stroke="black" stroke-width="6.48"/>
<line x1="4994.009939" y1="2073.626525" x2="5176.750046" y2="2047.944074" stroke="black" stroke-width="6.48"/>
<line x1="4971.854693" y1="1915.983767" x2="4891.856875" y2="1927.226729" stroke="black" stroke-width="6.48"/>
<line x1="4891.856875" y1="1927.226729" x2="4902.769163" y2="2004.871666" stroke="black" stroke-width="6.48"/>
<line x1="4902.769163" y1="2004.871666" x2="4982.766977" y2="1993.628707" stroke="black" stroke-width="6.48"/>
<line x1="4919.913367" y1="2001.662424" x2="4909.111308" y2="1924.801776" stroke="black" stroke-width="6.48"/>
<line x1="5246.289194" y1="1956.593077" x2="5235.376907" y2="1878.948137" stroke="black" stroke-width="6.48"/>
<line x1="5235.376907" y1="1878.948137" x2="5154.5948" y2="1890.301324" stroke="black" stroke-width="6.48"/>
<line x1="5165.507088" y1="1967.946264" x2="5246.289194" y2="1956.593077" stroke="black" stroke-width="6.48"/>
<line x1="5228.92454" y1="1958.233738" x2="5218.122478" y2="1881.37309" stroke="black" stroke-width="6.48"/>
<line x1="4950.801702" y1="1766.183936" x2="4870.803884" y2="1777.426895" stroke="black" stroke-width="6.48"/>
<line x1="4870.803884" y1="1777.426895" x2="4881.716165" y2="1855.071835" stroke="black" stroke-width="6.48"/>
<line x1="4881.716165" y1="1855.071835" x2="4961.713982" y2="1843.828877" stroke="black" stroke-width="6.48"/>
<line x1="4898.970601" y1="1852.646882" x2="4888.058317" y2="1775.001946" stroke="black" stroke-width="6.48"/>
<line x1="5225.2362" y1="1806.793243" x2="5214.323916" y2="1729.148306" stroke="black" stroke-width="6.48"/>
<line x1="5214.323916" y1="1729.148306" x2="5133.54181" y2="1740.501493" stroke="black" stroke-width="6.48"/>
<line x1="5144.454094" y1="1818.146426" x2="5225.2362" y2="1806.793243" stroke="black" stroke-width="6.48"/>
<line x1="5207.981771" y1="1809.218196" x2="5197.069483" y2="1731.573256" stroke="black" stroke-width="6.48"/>
<line x1="3459.34931" y1="1075.488408" x2="3668.714514" y2="1075.488408" stroke="black" stroke-width="6.48"/>
<line x1="3668.714514" y1="1075.488408" x2="3668.714514" y2="744.274004" stroke="black" stroke-width="6.48"/>
<line x1="3668.714514" y1="744.274004" x2="3459.34931" y2="744.274004" stroke="black" stroke-width="6.48"/>
<line x1="3459.34931" y1="744.274004" x2="3459.34931" y2="1075.488408" stroke="black" stroke-width="6.48"/>
<line x1="3458.67611" y1="803.515604" x2="3669.38771" y2="803.515604" stroke="black" stroke-width="6.48"/>
<line x1="3669.38771" y1="803.515604" x2="3460.02251" y2="853.332408" stroke="black" stroke-width="6.48"/>
<line x1="3460.02251" y1="853.332408" x2="3491.662914" y2="899.783208" stroke="black" stroke-width="6.48"/>
<line x1="3491.662914" y1="899.783208" x2="3669.38771" y2="802.842408" stroke="black" stroke-width="6.48"/>
<line x1="3336.002618" y1="1203.43365" x2="3558.279784" y2="1203.43365" stroke="black" stroke-width="6.48"/>
<line x1="3558.279784" y1="1203.43365" x2="3558.279784" y2="1426.166302" stroke="black" stroke-width="6.48"/>
<line x1="3558.279784" y1="1426.166302" x2="3336.002618" y2="1426.166302" stroke="black" stroke-width="6.48"/>
<line x1="3336.002618" y1="1426.166302" x2="3336.002618" y2="1203.43365" stroke="black" stroke-width="6.48"/>
<line x1="3335.547132" y1="1202.978164" x2="3558.279784" y2="1426.166302" stroke="black" stroke-width="6.48"/>
<line x1="3336.002618" y1="1425.710815" x2="3557.824297" y2="1203.43365" stroke="black" stroke-width="6.48"/>
<line x1="2804.16708" y1="1127.69402" x2="2804.16708" y2="1153.148746" stroke="black" stroke-width="6.48"/>
<line x1="2804.16708" y1="1153.148746" x2="2853.834836" y2="1153.148746" stroke="black" stroke-width="6.48"/>
<line x1="2853.834836" y1="1153.148746" x2="2853.834836" y2="1127.69402" stroke="black" stroke-width="6.48"/>
<line x1="2853.834836" y1="1127.69402" x2="2804.16708" y2="1127.69402" stroke="black" stroke-width="6.48"/>
<line x1="2853.834836" y1="1402.108373" x2="3101.55277" y2="1402.108373" stroke="black" stroke-width="6.48"/>
<line x1="2802.925386" y1="1402.729218" x2="2802.925386" y2="1428.183943" stroke="black" stroke-width="6.48"/>
<line x1="2802.925386" y1="1428.183943" x2="2852.593142" y2="1428.183943" stroke="black" stroke-width="6.48"/>
<line x1="2852.593142" y1="1428.183943" x2="2852.593142" y2="1402.729218" stroke="black" stroke-width="6.48"/>
<line x1="2852.593142" y1="1402.729218" x2="2802.925386" y2="1402.729218" stroke="black" stroke-width="6.48"/>
<path d="m 2851.972294,1153.148746 a 248.95962699999984,248.95962699999984 0 0 1 248.95962699999973,248.95962699999995" fill="none" stroke="black" stroke-width="6.48"/>
<line x1="3436.176316" y1="1681.482542" x2="3667.932644" y2="1689.575652" stroke="black" stroke-width="6.48"/>
<line x1="3667.932644" y1="1689.575652" x2="3659.822953" y2="1921.806896" stroke="black" stroke-width="6.48"/>
<line x1="3659.822953" y1="1921.806896" x2="3428.066621" y2="1913.713783" stroke="black" stroke-width="6.48"/>
<line x1="3428.066621" y1="1913.713783" x2="3436.176316" y2="1681.482542" stroke="black" stroke-width="6.48"/>
<line x1="3435.717989" y1="1680.991049" x2="3659.822953" y2="1921.806896" stroke="black" stroke-width="6.48"/>
<line x1="3428.083202" y1="1913.238878" x2="3667.45774" y2="1689.559067" stroke="black" stroke-width="6.48"/>
<line x1="3009.806302" y1="1589.315879" x2="3009.26723" y2="1620.199174" stroke="black" stroke-width="6.48"/>
<line x1="3009.26723" y1="1620.199174" x2="3218.798513" y2="1623.856554" stroke="black" stroke-width="6.48"/>
<line x1="3218.798513" y1="1623.856554" x2="3219.337584" y2="1592.973259" stroke="black" stroke-width="6.48"/>
<line x1="3219.337584" y1="1592.973259" x2="3009.806302" y2="1589.315879" stroke="black" stroke-width="6.48"/>
<line x1="3006.24844" y1="1793.145629" x2="3005.709368" y2="1824.028924" stroke="black" stroke-width="6.48"/>
<line x1="3005.709368" y1="1824.028924" x2="3215.240651" y2="1827.686304" stroke="black" stroke-width="6.48"/>
<line x1="3215.240651" y1="1827.686304" x2="3215.779722" y2="1796.803009" stroke="black" stroke-width="6.48"/>
<line x1="3215.779722" y1="1796.803009" x2="3006.24844" y2="1793.145629" stroke="black" stroke-width="6.48"/>
<line x1="3009.275525" y1="1619.724046" x2="3006.24844" y2="1793.145629" stroke="black" stroke-width="6.48"/>
<line x1="3217.864846" y1="1622.889713" x2="3243.532435" y2="1649.952994" stroke="black" stroke-width="6.48"/>
<line x1="3241.417622" y1="1771.11054" x2="3214.821172" y2="1797.261548" stroke="black" stroke-width="6.48"/>
<line x1="3243.565609" y1="1648.052482" x2="3241.384448" y2="1773.011052" stroke="black" stroke-width="6.48"/>
<line x1="3053.929226" y1="1620.97875" x2="3050.902145" y2="1794.400333" stroke="black" stroke-width="6.48"/>
<line x1="1227.801755" y1="1608.41934" x2="1056.95896" y2="1691.744882" stroke="black" stroke-width="6.48"/>
<line x1="1056.95896" y1="1691.744882" x2="1260.27329" y2="2108.601295" stroke="black" stroke-width="6.48"/>
<line x1="1260.27329" y1="2108.601295" x2="1431.116086" y2="2025.275756" stroke="black" stroke-width="6.48"/>
<line x1="1431.116086" y1="2025.275756" x2="1420.700393" y2="2003.920405" stroke="black" stroke-width="6.48"/>
<line x1="1420.700393" y1="2003.920405" x2="1270.358734" y2="2077.246886" stroke="black" stroke-width="6.48"/>
<line x1="1270.358734" y1="2077.246886" x2="1088.292413" y2="1703.955384" stroke="black" stroke-width="6.48"/>
<line x1="1088.292413" y1="1703.955384" x2="1238.634072" y2="1630.628903" stroke="black" stroke-width="6.48"/>
<line x1="1238.634072" y1="1630.628903" x2="1227.801755" y2="1608.41934" stroke="black" stroke-width="6.48"/>
<line x1="1233.508788" y1="1633.128671" x2="1415.575109" y2="2006.42017" stroke="black" stroke-width="6.48"/>
<line x1="1325.18785" y1="1818.930683" x2="1179.971474" y2="1889.7574" stroke="black" stroke-width="6.48"/>
<line x1="2271.541097" y1="2274.524622" x2="2302.25989" y2="2277.753304" stroke="black" stroke-width="6.48"/>
<line x1="2302.25989" y1="2277.753304" x2="2324.16526" y2="2069.338118" stroke="black" stroke-width="6.48"/>
<line x1="2324.16526" y1="2069.338118" x2="2293.446467" y2="2066.109437" stroke="black" stroke-width="6.48"/>
<line x1="2293.446467" y1="2066.109437" x2="2271.541097" y2="2274.524622" stroke="black" stroke-width="6.48"/>
<line x1="2474.285123" y1="2295.833929" x2="2505.003912" y2="2299.062611" stroke="black" stroke-width="6.48"/>
<line x1="2505.003912" y1="2299.062611" x2="2526.909282" y2="2090.647426" stroke="black" stroke-width="6.48"/>
<line x1="2526.909282" y1="2090.647426" x2="2496.190493" y2="2087.418744" stroke="black" stroke-width="6.48"/>
<line x1="2496.190493" y1="2087.418744" x2="2474.285123" y2="2295.833929" stroke="black" stroke-width="6.48"/>
<line x1="2301.787292" y1="2277.703631" x2="2474.285123" y2="2295.833929" stroke="black" stroke-width="6.48"/>
<line x1="2323.120723" y1="2070.183967" x2="2352.318106" y2="2046.97278" stroke="black" stroke-width="6.48"/>
<line x1="2472.830287" y1="2059.63915" x2="2496.563744" y2="2088.413608" stroke="black" stroke-width="6.48"/>
<line x1="2350.427717" y1="2046.774092" x2="2474.720672" y2="2059.837837" stroke="black" stroke-width="6.48"/>
<line x1="2306.929061" y1="2233.329206" x2="2479.426891" y2="2251.459501" stroke="black" stroke-width="6.48"/>
<line x1="6344.489599" y1="2199.338291" x2="6337.017119" y2="2229.308788" stroke="black" stroke-width="6.48"/>
<line x1="6337.017119" y1="2229.308788" x2="6540.355393" y2="2280.006713" stroke="black" stroke-width="6.48"/>
<line x1="6540.355393" y1="2280.006713" x2="6547.827877" y2="2250.03622" stroke="black" stroke-width="6.48"/>
<line x1="6547.827877" y1="2250.03622" x2="6344.489599" y2="2199.338291" stroke="black" stroke-width="6.48"/>
<line x1="6295.171208" y1="2397.143556" x2="6287.698724" y2="2427.114049" stroke="black" stroke-width="6.48"/>
<line x1="6287.698724" y1="2427.114049" x2="6491.037002" y2="2477.811974" stroke="black" stroke-width="6.48"/>
<line x1="6491.037002" y1="2477.811974" x2="6498.509486" y2="2447.841481" stroke="black" stroke-width="6.48"/>
<line x1="6498.509486" y1="2447.841481" x2="6295.171208" y2="2397.143556" stroke="black" stroke-width="6.48"/>
<line x1="6337.132078" y1="2228.8477" x2="6295.171208" y2="2397.143556" stroke="black" stroke-width="6.48"/>
<line x1="6539.663149" y1="2278.854619" x2="6558.584965" y2="2310.998227" stroke="black" stroke-width="6.48"/>
<line x1="6529.269838" y1="2428.574782" x2="6497.472355" y2="2448.072644" stroke="black" stroke-width="6.48"/>
<line x1="6559.044811" y1="2309.153886" x2="6528.809995" y2="2430.419119" stroke="black" stroke-width="6.48"/>
<line x1="6380.359063" y1="2240.115149" x2="6338.398194" y2="2408.411002" stroke="black" stroke-width="6.48"/>
<line x1="461.41177" y1="210.033756" x2="854.655642" y2="210.033756" stroke="black" stroke-width="6.48"/>
<line x1="858.611048" y1="209.037474" x2="858.611048" y2="345.106249" stroke="black" stroke-width="6.48"/>
<line x1="461.876159" y1="346.257756" x2="858.91639" y2="346.257756" stroke="black" stroke-width="6.48"/>
<line x1="462.611048" y1="210.728506" x2="462.611048" y2="345.992562" stroke="black" stroke-width="6.48"/>
<line x1="472.907048" y1="221.121756" x2="596.459048" y2="221.121756" stroke="black" stroke-width="6.48"/>
<line x1="596.459048" y1="221.121756" x2="596.459048" y2="335.169756" stroke="black" stroke-width="6.48"/>
<line x1="472.907048" y1="335.169756" x2="596.459048" y2="335.169756" stroke="black" stroke-width="6.48"/>
<line x1="472.907048" y1="221.121756" x2="472.907048" y2="335.169756" stroke="black" stroke-width="6.48"/>
<line x1="615.467048" y1="228.249756" x2="702.587048" y2="228.249756" stroke="black" stroke-width="6.48"/>
<line x1="615.467048" y1="248.049756" x2="702.587048" y2="248.049756" stroke="black" stroke-width="6.48"/>
<line x1="616.259048" y1="268.641756" x2="702.587048" y2="268.641756" stroke="black" stroke-width="6.48"/>
<line x1="616.259048" y1="288.441756" x2="702.587048" y2="288.441756" stroke="black" stroke-width="6.48"/>
<line x1="615.467048" y1="308.241756" x2="702.587048" y2="308.241756" stroke="black" stroke-width="6.48"/>
<line x1="615.467048" y1="328.041756" x2="702.587048" y2="328.041756" stroke="black" stroke-width="6.48"/>
<line x1="520.427048" y1="334.377756" x2="520.427048" y2="320.913756" stroke="black" stroke-width="6.48"/>
<line x1="520.427048" y1="320.913756" x2="550.523048" y2="320.913756" stroke="black" stroke-width="6.48"/>
<line x1="550.523048" y1="320.913756" x2="550.523048" y2="333.585756" stroke="black" stroke-width="6.48"/>
<line x1="723.179048" y1="221.121756" x2="846.731048" y2="221.121756" stroke="black" stroke-width="6.48"/>
<line x1="846.731048" y1="221.121756" x2="846.731048" y2="335.169756" stroke="black" stroke-width="6.48"/>
<line x1="723.179048" y1="335.169756" x2="846.731048" y2="335.169756" stroke="black" stroke-width="6.48"/>
<line x1="723.179048" y1="221.121756" x2="723.179048" y2="335.169756" stroke="black" stroke-width="6.48"/>
<line x1="770.699048" y1="335.169756" x2="770.699048" y2="321.705756" stroke="black" stroke-width="6.48"/>
<line x1="770.699048" y1="321.705756" x2="800.795048" y2="321.705756" stroke="black" stroke-width="6.48"/>
<line x1="800.795048" y1="321.705756" x2="800.795048" y2="334.377756" stroke="black" stroke-width="6.48"/>
<circle cx="582.203048" cy="235.377756" r="7.128000000000001" fill="none" stroke="black" stroke-width="6.48"/>
<circle cx="832.475048" cy="236.169756" r="7.128000000000001" fill="none" stroke="black" stroke-width="6.48"/>
</g>
</svg>
