<?xml version="1.0"?>
<svg xmlns:xlink="http://www.w3.org/1999/xlink" width="6775.2" height="2858.4">
<image x="0" y="0" width="6775.2" height="2858.4" xlink:href="groundfilled-01.png"/>
<g style="stroke-linecap:round">
<line x1="1285.950406" y1="795.178109" x2="1311.346069" y2="795.178109" stroke="black" stroke-width="6.48"/>
<line x1="1311.346069" y1="795.178109" x2="1311.346069" y2="745.625592" stroke="black" stroke-width="6.48"/>
<line x1="1311.346069" y1="745.625592" x2="1285.950406" y2="745.625592" stroke="black" stroke-width="6.48"/>
<line x1="1285.950406" y1="745.625592" x2="1285.950406" y2="795.178109" stroke="black" stroke-width="6.48"/>
<line x1="1559.728062" y1="745.625592" x2="1559.728062" y2="498.48241" stroke="black" stroke-width="6.48"/>
<line x1="1560.347471" y1="796.416923" x2="1585.743134" y2="796.416923" stroke="black" stroke-width="6.48"/>
<line x1="1585.743134" y1="796.416923" x2="1585.743134" y2="746.864406" stroke="black" stroke-width="6.48"/>
<line x1="1585.743134" y1="746.864406" x2="1560.347471" y2="746.864406" stroke="black" stroke-width="6.48"/>
<line x1="1560.347471" y1="746.864406" x2="1560.347471" y2="796.416923" stroke="black" stroke-width="6.48"/>
<path d="m 1311.346069,747.483811 a 248.38199299999997,248.38199299999997 0 0 1 248.38199299999997,-248.38199299999997" fill="none" stroke="black" stroke-width="6.48"/>
<line x1="320.532556" y1="771.34176" x2="320.532556" y2="366.736194" stroke="black" stroke-width="6.48"/>
<line x1="320.532556" y1="366.736194" x2="258.159283" y2="366.736194" stroke="black" stroke-width="6.48"/>
<line x1="258.159283" y1="366.736194" x2="258.159283" y2="771.34176" stroke="black" stroke-width="6.48"/>
<line x1="258.159283" y1="771.34176" x2="320.532556" y2="771.34176" stroke="black" stroke-width="6.48"/>
<line x1="258.979986" y1="733.589518" x2="319.711856" y2="733.589518" stroke="black" stroke-width="6.48"/>
<line x1="258.979986" y1="405.309139" x2="322.173958" y2="405.309139" stroke="black" stroke-width="6.48"/>
<line x1="287.704519" y1="734.410217" x2="287.704519" y2="406.129838" stroke="black" stroke-width="6.48"/>
<line x1="3901.945176" y1="1169.331426" x2="3901.945176" y2="1428.837066" stroke="black" stroke-width="6.48"/>
<line x1="3901.945176" y1="1428.837066" x2="3941.9501" y2="1428.837066" stroke="black" stroke-width="6.48"/>
<line x1="3941.9501" y1="1428.837066" x2="3941.9501" y2="1169.331426" stroke="black" stroke-width="6.48"/>
<line x1="3941.9501" y1="1169.331426" x2="3901.945176" y2="1169.331426" stroke="black" stroke-width="6.48"/>
<line x1="3941.423719" y1="1193.544936" x2="3902.471557" y2="1193.544936" stroke="black" stroke-width="6.48"/>
<line x1="3941.423719" y1="1404.097178" x2="3900.892414" y2="1404.097178" stroke="black" stroke-width="6.48"/>
<line x1="3923.000399" y1="1193.018555" x2="3923.000399" y2="1403.570797" stroke="black" stroke-width="6.48"/>
<line x1="323.923298" y1="1882.957399" x2="323.923298" y2="1457.423957" stroke="black" stroke-width="6.48"/>
<line x1="323.923298" y1="1457.423957" x2="258.323825" y2="1457.423957" stroke="black" stroke-width="6.48"/>
<line x1="258.323825" y1="1457.423957" x2="258.323825" y2="1882.957399" stroke="black" stroke-width="6.48"/>
<line x1="258.323825" y1="1882.957399" x2="323.923298" y2="1882.957399" stroke="black" stroke-width="6.48"/>
<line x1="259.186975" y1="1843.252456" x2="323.060148" y2="1843.252456" stroke="black" stroke-width="6.48"/>
<line x1="259.186975" y1="1497.992054" x2="325.649603" y2="1497.992054" stroke="black" stroke-width="6.48"/>
<line x1="289.397261" y1="1844.115606" x2="289.397261" y2="1498.855205" stroke="black" stroke-width="6.48"/>
<line x1="2747.905531" y1="904.670665" x2="2721.68303" y2="904.670665" stroke="black" stroke-width="6.48"/>
<line x1="2721.68303" y1="904.670665" x2="2721.68303" y2="955.836522" stroke="black" stroke-width="6.48"/>
<line x1="2721.68303" y1="955.836522" x2="2747.905531" y2="955.836522" stroke="black" stroke-width="6.48"/>
<line x1="2747.905531" y1="955.836522" x2="2747.905531" y2="904.670665" stroke="black" stroke-width="6.48"/>
<line x1="2465.214181" y1="955.836522" x2="2465.214181" y2="1211.026223" stroke="black" stroke-width="6.48"/>
<line x1="2464.574609" y1="903.39152" x2="2438.352108" y2="903.39152" stroke="black" stroke-width="6.48"/>
<line x1="2438.352108" y1="903.39152" x2="2438.352108" y2="954.557374" stroke="black" stroke-width="6.48"/>
<line x1="2438.352108" y1="954.557374" x2="2464.574609" y2="954.557374" stroke="black" stroke-width="6.48"/>
<line x1="2464.574609" y1="954.557374" x2="2464.574609" y2="903.39152" stroke="black" stroke-width="6.48"/>
<path d="m 2721.68303,953.917801 a 256.4688490000001,256.4688490000001 0 0 1 -256.4688490000003,256.46884899999986" fill="none" stroke="black" stroke-width="6.48"/>
<line x1="2420.532389" y1="1427.858834" x2="2395.136725" y2="1427.858834" stroke="black" stroke-width="6.48"/>
<line x1="2395.136725" y1="1427.858834" x2="2395.136725" y2="1477.411351" stroke="black" stroke-width="6.48"/>
<line x1="2395.136725" y1="1477.411351" x2="2420.532389" y2="1477.411351" stroke="black" stroke-width="6.48"/>
<line x1="2420.532389" y1="1477.411351" x2="2420.532389" y2="1427.858834" stroke="black" stroke-width="6.48"/>
<line x1="2146.754732" y1="1477.411351" x2="2146.754732" y2="1724.554534" stroke="black" stroke-width="6.48"/>
<line x1="2146.135324" y1="1426.62002" x2="2120.73966" y2="1426.62002" stroke="black" stroke-width="6.48"/>
<line x1="2120.73966" y1="1426.62002" x2="2120.73966" y2="1476.172537" stroke="black" stroke-width="6.48"/>
<line x1="2120.73966" y1="1476.172537" x2="2146.135324" y2="1476.172537" stroke="black" stroke-width="6.48"/>
<line x1="2146.135324" y1="1476.172537" x2="2146.135324" y2="1426.62002" stroke="black" stroke-width="6.48"/>
<path d="m 2395.136725,1475.553132 a 248.38199299999997,248.38199299999997 0 0 1 -248.38199299999997,248.38199299999997" fill="none" stroke="black" stroke-width="6.48"/>
<line x1="774.109955" y1="541.339351" x2="1006.007555" y2="541.339351" stroke="black" stroke-width="6.48"/>
<line x1="1006.007555" y1="541.339351" x2="1006.007555" y2="773.712151" stroke="black" stroke-width="6.48"/>
<line x1="1006.007555" y1="773.712151" x2="774.109955" y2="773.712151" stroke="black" stroke-width="6.48"/>
<line x1="774.109955" y1="773.712151" x2="774.109955" y2="541.339351" stroke="black" stroke-width="6.48"/>
<line x1="773.634755" y1="540.864151" x2="1006.007555" y2="773.712151" stroke="black" stroke-width="6.48"/>
<line x1="774.109955" y1="773.236951" x2="1005.532355" y2="541.339351" stroke="black" stroke-width="6.48"/>
<line x1="2032.924367" y1="1820.873282" x2="2032.924367" y2="1611.785282" stroke="black" stroke-width="6.48"/>
<line x1="2032.924367" y1="1611.785282" x2="1801.026767" y2="1611.785282" stroke="black" stroke-width="6.48"/>
<line x1="1801.026767" y1="1611.785282" x2="1801.026767" y2="1820.873282" stroke="black" stroke-width="6.48"/>
<line x1="1801.026767" y1="1820.873282" x2="2032.924367" y2="1820.873282" stroke="black" stroke-width="6.48"/>
<line x1="2000.610767" y1="1820.873282" x2="2000.610767" y2="1611.785282" stroke="black" stroke-width="6.48"/>
<line x1="1485.415969" y1="209.267824" x2="1707.693134" y2="209.267824" stroke="black" stroke-width="6.48"/>
<line x1="1707.693134" y1="209.267824" x2="1707.693134" y2="432.000475" stroke="black" stroke-width="6.48"/>
<line x1="1707.693134" y1="432.000475" x2="1485.415969" y2="432.000475" stroke="black" stroke-width="6.48"/>
<line x1="1485.415969" y1="432.000475" x2="1485.415969" y2="209.267824" stroke="black" stroke-width="6.48"/>
<line x1="1484.960483" y1="208.812337" x2="1707.693134" y2="432.000475" stroke="black" stroke-width="6.48"/>
<line x1="1485.415969" y1="431.544989" x2="1707.237648" y2="209.267824" stroke="black" stroke-width="6.48"/>
<line x1="2586.780558" y1="1803.366338" x2="2586.780558" y2="2194.614338" stroke="black" stroke-width="6.48"/>
<line x1="2586.780558" y1="2194.614338" x2="2761.020558" y2="2194.614338" stroke="black" stroke-width="6.48"/>
<line x1="2761.020558" y1="2194.614338" x2="2761.020558" y2="1803.366338" stroke="black" stroke-width="6.48"/>
<line x1="2761.020558" y1="1803.366338" x2="2586.780558" y2="1803.366338" stroke="black" stroke-width="6.48"/>
<line x1="2734.092558" y1="2119.374338" x2="2734.092558" y2="1835.046338" stroke="black" stroke-width="6.48"/>
<line x1="2734.092558" y1="1835.046338" x2="2616.084558" y2="1835.046338" stroke="black" stroke-width="6.48"/>
<line x1="2616.084558" y1="1835.046338" x2="2616.084558" y2="2124.918338" stroke="black" stroke-width="6.48"/>
<path d="m 2734.347982,2118.563766 a 63.35999941905905,63.35999941905905 0 0 1 -119.37432999999965,4.2938139999996565" fill="none" stroke="black" stroke-width="6.48"/>
<line x1="2080.940562" y1="1866.70336" x2="2056.388562" y2="1885.31536" stroke="black" stroke-width="6.48"/>
<line x1="2056.388562" y1="1885.31536" x2="2056.388562" y2="2032.62736" stroke="black" stroke-width="6.48"/>
<line x1="2056.388562" y1="2032.62736" x2="2084.504562" y2="2051.63536" stroke="black" stroke-width="6.48"/>
<line x1="2083.712562" y1="1888.48336" x2="2083.712562" y2="2031.43936" stroke="black" stroke-width="6.48"/>
<circle cx="2105.492562" cy="1957.78336" r="13.068000000000003" fill="none" stroke="black" stroke-width="6.48"/>
<path d="m 2083.045216,1890.036612 a 74.8440000678094,74.8440000678094 0 1 1 0.40204799999992247,139.6090039999999" fill="none" stroke="black" stroke-width="6.48"/>
<path d="m 2080.283198,1866.749663 a 95.43599883324397,95.43599883324397 0 1 1 3.0749579999996968,184.46699499999977" fill="none" stroke="black" stroke-width="6.48"/>
<line x1="528.976073" y1="210.198953" x2="922.219945" y2="210.198953" stroke="black" stroke-width="6.48"/>
<line x1="926.175352" y1="209.202671" x2="926.175352" y2="345.271446" stroke="black" stroke-width="6.48"/>
<line x1="529.440462" y1="346.422953" x2="926.480693" y2="346.422953" stroke="black" stroke-width="6.48"/>
<line x1="530.175352" y1="210.893702" x2="530.175352" y2="346.157759" stroke="black" stroke-width="6.48"/>
<line x1="540.471352" y1="221.286953" x2="664.023352" y2="221.286953" stroke="black" stroke-width="6.48"/>
<line x1="664.023352" y1="221.286953" x2="664.023352" y2="335.334953" stroke="black" stroke-width="6.48"/>
<line x1="540.471352" y1="335.334953" x2="664.023352" y2="335.334953" stroke="black" stroke-width="6.48"/>
<line x1="540.471352" y1="221.286953" x2="540.471352" y2="335.334953" stroke="black" stroke-width="6.48"/>
<line x1="683.031352" y1="228.414953" x2="770.151352" y2="228.414953" stroke="black" stroke-width="6.48"/>
<line x1="683.031352" y1="248.214953" x2="770.151352" y2="248.214953" stroke="black" stroke-width="6.48"/>
<line x1="683.823352" y1="268.806953" x2="770.151352" y2="268.806953" stroke="black" stroke-width="6.48"/>
<line x1="683.823352" y1="288.606953" x2="770.151352" y2="288.606953" stroke="black" stroke-width="6.48"/>
<line x1="683.031352" y1="308.406953" x2="770.151352" y2="308.406953" stroke="black" stroke-width="6.48"/>
<line x1="683.031352" y1="328.206953" x2="770.151352" y2="328.206953" stroke="black" stroke-width="6.48"/>
<line x1="587.991352" y1="334.542953" x2="587.991352" y2="321.078953" stroke="black" stroke-width="6.48"/>
<line x1="587.991352" y1="321.078953" x2="618.087352" y2="321.078953" stroke="black" stroke-width="6.48"/>
<line x1="618.087352" y1="321.078953" x2="618.087352" y2="333.750953" stroke="black" stroke-width="6.48"/>
<line x1="790.743352" y1="221.286953" x2="914.295352" y2="221.286953" stroke="black" stroke-width="6.48"/>
<line x1="914.295352" y1="221.286953" x2="914.295352" y2="335.334953" stroke="black" stroke-width="6.48"/>
<line x1="790.743352" y1="335.334953" x2="914.295352" y2="335.334953" stroke="black" stroke-width="6.48"/>
<line x1="790.743352" y1="221.286953" x2="790.743352" y2="335.334953" stroke="black" stroke-width="6.48"/>
<line x1="838.263352" y1="335.334953" x2="838.263352" y2="321.870953" stroke="black" stroke-width="6.48"/>
<line x1="838.263352" y1="321.870953" x2="868.359352" y2="321.870953" stroke="black" stroke-width="6.48"/>
<line x1="868.359352" y1="321.870953" x2="868.359352" y2="334.542953" stroke="black" stroke-width="6.48"/>
<circle cx="649.767352" cy="235.542953" r="7.128000000000001" fill="none" stroke="black" stroke-width="6.48"/>
<circle cx="900.039352" cy="236.334953" r="7.128000000000001" fill="none" stroke="black" stroke-width="6.48"/>
<line x1="980.46247" y1="1349.498473" x2="953.059892" y2="957.623393" stroke="black" stroke-width="6.48"/>
<line x1="953.059892" y1="957.623393" x2="768.973414" y2="970.495974" stroke="black" stroke-width="6.48"/>
<line x1="768.973414" y1="970.495974" x2="796.375987" y2="1362.371054" stroke="black" stroke-width="6.48"/>
<line x1="796.375987" y1="1362.371054" x2="980.46247" y2="1349.498473" stroke="black" stroke-width="6.48"/>
<line x1="785.271316" y1="1203.566839" x2="704.684102" y2="1209.202045" stroke="black" stroke-width="6.48"/>
<line x1="704.684102" y1="1209.202045" x2="710.153568" y2="1287.419047" stroke="black" stroke-width="6.48"/>
<line x1="710.153568" y1="1287.419047" x2="790.740781" y2="1281.783841" stroke="black" stroke-width="6.48"/>
<line x1="727.479875" y1="1285.413541" x2="722.065658" y2="1207.986606" stroke="black" stroke-width="6.48"/>
<line x1="1056.204547" y1="1263.220805" x2="1050.735078" y2="1185.003803" stroke="black" stroke-width="6.48"/>
<line x1="1050.735078" y1="1185.003803" x2="969.357798" y2="1190.694258" stroke="black" stroke-width="6.48"/>
<line x1="974.82726" y1="1268.911256" x2="1056.204547" y2="1263.220805" stroke="black" stroke-width="6.48"/>
<line x1="1038.767742" y1="1263.646174" x2="1033.353526" y2="1186.219238" stroke="black" stroke-width="6.48"/>
<line x1="774.719114" y1="1052.663328" x2="694.131901" y2="1058.298534" stroke="black" stroke-width="6.48"/>
<line x1="694.131901" y1="1058.298534" x2="699.601363" y2="1136.515536" stroke="black" stroke-width="6.48"/>
<line x1="699.601363" y1="1136.515536" x2="780.18858" y2="1130.88033" stroke="black" stroke-width="6.48"/>
<line x1="716.982923" y1="1135.3001" x2="711.513457" y2="1057.083102" stroke="black" stroke-width="6.48"/>
<line x1="1045.652346" y1="1112.317297" x2="1040.18288" y2="1034.100295" stroke="black" stroke-width="6.48"/>
<line x1="1040.18288" y1="1034.100295" x2="958.805597" y2="1039.790747" stroke="black" stroke-width="6.48"/>
<line x1="964.275062" y1="1118.007749" x2="1045.652346" y2="1112.317297" stroke="black" stroke-width="6.48"/>
<line x1="1028.270786" y1="1113.532733" x2="1022.801324" y2="1035.315731" stroke="black" stroke-width="6.48"/>
<line x1="2044.889399" y1="955.822399" x2="2267.166564" y2="955.822399" stroke="black" stroke-width="6.48"/>
<line x1="2267.166564" y1="955.822399" x2="2267.166564" y2="1178.555051" stroke="black" stroke-width="6.48"/>
<line x1="2267.166564" y1="1178.555051" x2="2044.889399" y2="1178.555051" stroke="black" stroke-width="6.48"/>
<line x1="2044.889399" y1="1178.555051" x2="2044.889399" y2="955.822399" stroke="black" stroke-width="6.48"/>
<line x1="2044.433912" y1="955.366913" x2="2267.166564" y2="1178.555051" stroke="black" stroke-width="6.48"/>
<line x1="2044.889399" y1="1178.099564" x2="2266.711078" y2="955.822399" stroke="black" stroke-width="6.48"/>
<line x1="323.258818" y1="1375.374532" x2="323.258818" y2="949.841089" stroke="black" stroke-width="6.48"/>
<line x1="323.258818" y1="949.841089" x2="257.659344" y2="949.841089" stroke="black" stroke-width="6.48"/>
<line x1="257.659344" y1="949.841089" x2="257.659344" y2="1375.374532" stroke="black" stroke-width="6.48"/>
<line x1="257.659344" y1="1375.374532" x2="323.258818" y2="1375.374532" stroke="black" stroke-width="6.48"/>
<line x1="258.522494" y1="1335.669588" x2="322.395667" y2="1335.669588" stroke="black" stroke-width="6.48"/>
<line x1="258.522494" y1="990.409187" x2="324.985122" y2="990.409187" stroke="black" stroke-width="6.48"/>
<line x1="288.73278" y1="1336.532738" x2="288.73278" y2="991.272337" stroke="black" stroke-width="6.48"/>
<line x1="3874.406537" y1="1514.726719" x2="3874.406537" y2="1940.260162" stroke="black" stroke-width="6.48"/>
<line x1="3874.406537" y1="1940.260162" x2="3940.00601" y2="1940.260162" stroke="black" stroke-width="6.48"/>
<line x1="3940.00601" y1="1940.260162" x2="3940.00601" y2="1514.726719" stroke="black" stroke-width="6.48"/>
<line x1="3940.00601" y1="1514.726719" x2="3874.406537" y2="1514.726719" stroke="black" stroke-width="6.48"/>
<line x1="3939.14286" y1="1554.431663" x2="3875.269687" y2="1554.431663" stroke="black" stroke-width="6.48"/>
<line x1="3939.14286" y1="1899.692064" x2="3872.680232" y2="1899.692064" stroke="black" stroke-width="6.48"/>
<line x1="3908.932574" y1="1553.568512" x2="3908.932574" y2="1898.828914" stroke="black" stroke-width="6.48"/>
<line x1="5085.625651" y1="1460.46865" x2="5104.0112" y2="1591.288607" stroke="black" stroke-width="6.48"/>
<line x1="5104.0112" y1="1591.288607" x2="5089.893937" y2="1593.272657" stroke="black" stroke-width="6.48"/>
<line x1="5071.508392" y1="1462.4527" x2="5089.893937" y2="1593.272657" stroke="black" stroke-width="6.48"/>
<line x1="5085.625651" y1="1460.46865" x2="5071.508392" y2="1462.4527" stroke="black" stroke-width="6.48"/>
<line x1="5073.360174" y1="1475.628811" x2="5042.037658" y2="1478.111422" stroke="black" stroke-width="6.48"/>
<line x1="5088.042155" y1="1580.096545" x2="5056.307572" y2="1586.476033" stroke="black" stroke-width="6.48"/>
<line x1="4629.167528" y1="1524.619656" x2="4647.553074" y2="1655.439613" stroke="black" stroke-width="6.48"/>
<line x1="4647.553074" y1="1655.439613" x2="4660.729189" y2="1653.587831" stroke="black" stroke-width="6.48"/>
<line x1="4642.34364" y1="1522.767874" x2="4660.729189" y2="1653.587831" stroke="black" stroke-width="6.48"/>
<line x1="4629.167528" y1="1524.619656" x2="4642.34364" y2="1522.767874" stroke="black" stroke-width="6.48"/>
<line x1="4645.945454" y1="1534.738295" x2="4676.73889" y2="1528.491078" stroke="black" stroke-width="6.48"/>
<line x1="4660.627435" y1="1639.206029" x2="4693.023371" y2="1637.532299" stroke="black" stroke-width="6.48"/>
<line x1="4963.942577" y1="1776.049268" x2="4961.958523" y2="1761.932009" stroke="black" stroke-width="6.48"/>
<line x1="4961.958523" y1="1761.932009" x2="4831.13857" y2="1780.317554" stroke="black" stroke-width="6.48"/>
<line x1="4833.12262" y1="1794.434818" x2="4831.13857" y2="1780.317554" stroke="black" stroke-width="6.48"/>
<line x1="4963.942577" y1="1776.049268" x2="4833.12262" y2="1794.434818" stroke="black" stroke-width="6.48"/>
<line x1="4845.255829" y1="1778.333501" x2="4837.935193" y2="1746.731189" stroke="black" stroke-width="6.48"/>
<line x1="4948.782415" y1="1763.783791" x2="4946.167534" y2="1731.520123" stroke="black" stroke-width="6.48"/>
<line x1="4900.86499" y1="1320.400026" x2="4902.849043" y2="1334.517289" stroke="black" stroke-width="6.48"/>
<line x1="4902.849043" y1="1334.517289" x2="4772.029086" y2="1352.902831" stroke="black" stroke-width="6.48"/>
<line x1="4770.045036" y1="1338.785572" x2="4772.029086" y2="1352.902831" stroke="black" stroke-width="6.48"/>
<line x1="4900.86499" y1="1320.400026" x2="4770.045036" y2="1338.785572" stroke="black" stroke-width="6.48"/>
<line x1="4786.146349" y1="1350.918781" x2="4787.820076" y2="1383.314717" stroke="black" stroke-width="6.48"/>
<line x1="4889.672932" y1="1336.369068" x2="4896.052416" y2="1368.103655" stroke="black" stroke-width="6.48"/>
<circle cx="4866.993806" cy="1557.41742" r="191.98080000000002" fill="none" stroke="black" stroke-width="6.48"/>
<line x1="3495.549924" y1="1075.607881" x2="3704.915128" y2="1075.607881" stroke="black" stroke-width="6.48"/>
<line x1="3704.915128" y1="1075.607881" x2="3704.915128" y2="744.393478" stroke="black" stroke-width="6.48"/>
<line x1="3704.915128" y1="744.393478" x2="3495.549924" y2="744.393478" stroke="black" stroke-width="6.48"/>
<line x1="3495.549924" y1="744.393478" x2="3495.549924" y2="1075.607881" stroke="black" stroke-width="6.48"/>
<line x1="3494.876724" y1="803.635078" x2="3705.588324" y2="803.635078" stroke="black" stroke-width="6.48"/>
<line x1="3705.588324" y1="803.635078" x2="3496.223124" y2="853.451881" stroke="black" stroke-width="6.48"/>
<line x1="3496.223124" y1="853.451881" x2="3527.863528" y2="899.902681" stroke="black" stroke-width="6.48"/>
<line x1="3527.863528" y1="899.902681" x2="3705.588324" y2="802.961881" stroke="black" stroke-width="6.48"/>
<line x1="3339.634979" y1="1203.418944" x2="3561.912144" y2="1203.418944" stroke="black" stroke-width="6.48"/>
<line x1="3561.912144" y1="1203.418944" x2="3561.912144" y2="1426.151596" stroke="black" stroke-width="6.48"/>
<line x1="3561.912144" y1="1426.151596" x2="3339.634979" y2="1426.151596" stroke="black" stroke-width="6.48"/>
<line x1="3339.634979" y1="1426.151596" x2="3339.634979" y2="1203.418944" stroke="black" stroke-width="6.48"/>
<line x1="3339.179492" y1="1202.963458" x2="3561.912144" y2="1426.151596" stroke="black" stroke-width="6.48"/>
<line x1="3339.634979" y1="1425.696109" x2="3561.456658" y2="1203.418944" stroke="black" stroke-width="6.48"/>
<line x1="2804.16708" y1="1127.69402" x2="2804.16708" y2="1153.148746" stroke="black" stroke-width="6.48"/>
<line x1="2804.16708" y1="1153.148746" x2="2853.834836" y2="1153.148746" stroke="black" stroke-width="6.48"/>
<line x1="2853.834836" y1="1153.148746" x2="2853.834836" y2="1127.69402" stroke="black" stroke-width="6.48"/>
<line x1="2853.834836" y1="1127.69402" x2="2804.16708" y2="1127.69402" stroke="black" stroke-width="6.48"/>
<line x1="2853.834836" y1="1402.108373" x2="3101.55277" y2="1402.108373" stroke="black" stroke-width="6.48"/>
<line x1="2802.925386" y1="1402.729218" x2="2802.925386" y2="1428.183943" stroke="black" stroke-width="6.48"/>
<line x1="2802.925386" y1="1428.183943" x2="2852.593142" y2="1428.183943" stroke="black" stroke-width="6.48"/>
<line x1="2852.593142" y1="1428.183943" x2="2852.593142" y2="1402.729218" stroke="black" stroke-width="6.48"/>
<line x1="2852.593142" y1="1402.729218" x2="2802.925386" y2="1402.729218" stroke="black" stroke-width="6.48"/>
<path d="m 2851.972294,1153.148746 a 248.95962699999984,248.95962699999984 0 0 1 248.95962699999973,248.95962699999995" fill="none" stroke="black" stroke-width="6.48"/>
<line x1="3688.497324" y1="1717.002385" x2="3632.39622" y2="1942.011634" stroke="black" stroke-width="6.48"/>
<line x1="3632.39622" y1="1942.011634" x2="3406.925887" y2="1885.795567" stroke="black" stroke-width="6.48"/>
<line x1="3406.925887" y1="1885.795567" x2="3463.026991" y2="1660.786315" stroke="black" stroke-width="6.48"/>
<line x1="3463.026991" y1="1660.786315" x2="3688.497324" y2="1717.002385" stroke="black" stroke-width="6.48"/>
<line x1="3689.073371" y1="1716.65626" x2="3406.925887" y2="1885.795567" stroke="black" stroke-width="6.48"/>
<line x1="3463.488079" y1="1660.901278" x2="3632.511182" y2="1941.550549" stroke="black" stroke-width="6.48"/>
<line x1="3054.501112" y1="1589.315882" x2="3045.470335" y2="1618.854221" stroke="black" stroke-width="6.48"/>
<line x1="3045.470335" y1="1618.854221" x2="3245.876618" y2="1680.124576" stroke="black" stroke-width="6.48"/>
<line x1="3245.876618" y1="1680.124576" x2="3254.907395" y2="1650.586234" stroke="black" stroke-width="6.48"/>
<line x1="3254.907395" y1="1650.586234" x2="3054.501112" y2="1589.315882" stroke="black" stroke-width="6.48"/>
<line x1="2994.897982" y1="1784.268936" x2="2985.867205" y2="1813.807274" stroke="black" stroke-width="6.48"/>
<line x1="2985.867205" y1="1813.807274" x2="3186.273488" y2="1875.077629" stroke="black" stroke-width="6.48"/>
<line x1="3186.273488" y1="1875.077629" x2="3195.304268" y2="1845.539287" stroke="black" stroke-width="6.48"/>
<line x1="3195.304268" y1="1845.539287" x2="2994.897982" y2="1784.268936" stroke="black" stroke-width="6.48"/>
<line x1="3045.60927" y1="1618.399789" x2="2994.897982" y2="1784.268936" stroke="black" stroke-width="6.48"/>
<line x1="3245.245618" y1="1678.937832" x2="3262.459234" y2="1712.027675" stroke="black" stroke-width="6.48"/>
<line x1="3227.030802" y1="1827.90886" x2="3194.25646" y2="1845.715849" stroke="black" stroke-width="6.48"/>
<line x1="3263.014976" y1="1710.209934" x2="3226.475063" y2="1829.726608" stroke="black" stroke-width="6.48"/>
<line x1="3088.187323" y1="1631.914117" x2="3037.476031" y2="1797.783268" stroke="black" stroke-width="6.48"/>
<line x1="1400.394031" y1="2052.052384" x2="1581.469524" y2="2156.596423" stroke="black" stroke-width="6.48"/>
<line x1="1581.469524" y1="2156.596423" x2="1697.418374" y2="1955.767241" stroke="black" stroke-width="6.48"/>
<line x1="1697.418374" y1="1955.767241" x2="1516.342874" y2="1851.223198" stroke="black" stroke-width="6.48"/>
<line x1="1516.342874" y1="1851.223198" x2="1400.394031" y2="2052.052384" stroke="black" stroke-width="6.48"/>
<line x1="1416.550835" y1="2024.067989" x2="1597.626331" y2="2128.612028" stroke="black" stroke-width="6.48"/>
<line x1="5723.033202" y1="1537.270844" x2="5727.331984" y2="1567.858244" stroke="black" stroke-width="6.48"/>
<line x1="5727.331984" y1="1567.858244" x2="5934.85573" y2="1538.692686" stroke="black" stroke-width="6.48"/>
<line x1="5934.85573" y1="1538.692686" x2="5930.556952" y2="1508.105286" stroke="black" stroke-width="6.48"/>
<line x1="5930.556952" y1="1508.105286" x2="5723.033202" y2="1537.270844" stroke="black" stroke-width="6.48"/>
<line x1="5751.405144" y1="1739.147688" x2="5755.703922" y2="1769.735084" stroke="black" stroke-width="6.48"/>
<line x1="5755.703922" y1="1769.735084" x2="5963.227668" y2="1740.569526" stroke="black" stroke-width="6.48"/>
<line x1="5963.227668" y1="1740.569526" x2="5958.92889" y2="1709.982126" stroke="black" stroke-width="6.48"/>
<line x1="5958.92889" y1="1709.982126" x2="5751.405144" y2="1739.147688" stroke="black" stroke-width="6.48"/>
<line x1="5727.265848" y1="1567.38767" x2="5751.405144" y2="1739.147688" stroke="black" stroke-width="6.48"/>
<line x1="5933.782307" y1="1537.883806" x2="5963.367514" y2="1560.5986" stroke="black" stroke-width="6.48"/>
<line x1="5980.231955" y1="1680.595322" x2="5958.05387" y2="1710.584975" stroke="black" stroke-width="6.48"/>
<line x1="5963.102975" y1="1558.716296" x2="5980.496494" y2="1682.477626" stroke="black" stroke-width="6.48"/>
<line x1="5771.566066" y1="1561.641552" x2="5795.705365" y2="1733.401566" stroke="black" stroke-width="6.48"/>
<line x1="941.708657" y1="211.20808" x2="1334.952529" y2="211.20808" stroke="black" stroke-width="6.48"/>
<line x1="1338.907936" y1="210.211798" x2="1338.907936" y2="346.280573" stroke="black" stroke-width="6.48"/>
<line x1="942.173046" y1="347.43208" x2="1339.213277" y2="347.43208" stroke="black" stroke-width="6.48"/>
<line x1="942.907936" y1="211.902829" x2="942.907936" y2="347.166886" stroke="black" stroke-width="6.48"/>
<line x1="953.203936" y1="222.29608" x2="1076.755936" y2="222.29608" stroke="black" stroke-width="6.48"/>
<line x1="1076.755936" y1="222.29608" x2="1076.755936" y2="336.34408" stroke="black" stroke-width="6.48"/>
<line x1="953.203936" y1="336.34408" x2="1076.755936" y2="336.34408" stroke="black" stroke-width="6.48"/>
<line x1="953.203936" y1="222.29608" x2="953.203936" y2="336.34408" stroke="black" stroke-width="6.48"/>
<line x1="1095.763936" y1="229.42408" x2="1182.883936" y2="229.42408" stroke="black" stroke-width="6.48"/>
<line x1="1095.763936" y1="249.22408" x2="1182.883936" y2="249.22408" stroke="black" stroke-width="6.48"/>
<line x1="1096.555936" y1="269.81608" x2="1182.883936" y2="269.81608" stroke="black" stroke-width="6.48"/>
<line x1="1096.555936" y1="289.61608" x2="1182.883936" y2="289.61608" stroke="black" stroke-width="6.48"/>
<line x1="1095.763936" y1="309.41608" x2="1182.883936" y2="309.41608" stroke="black" stroke-width="6.48"/>
<line x1="1095.763936" y1="329.21608" x2="1182.883936" y2="329.21608" stroke="black" stroke-width="6.48"/>
<line x1="1000.723936" y1="335.55208" x2="1000.723936" y2="322.08808" stroke="black" stroke-width="6.48"/>
<line x1="1000.723936" y1="322.08808" x2="1030.819936" y2="322.08808" stroke="black" stroke-width="6.48"/>
<line x1="1030.819936" y1="322.08808" x2="1030.819936" y2="334.76008" stroke="black" stroke-width="6.48"/>
<line x1="1203.475936" y1="222.29608" x2="1327.027936" y2="222.29608" stroke="black" stroke-width="6.48"/>
<line x1="1327.027936" y1="222.29608" x2="1327.027936" y2="336.34408" stroke="black" stroke-width="6.48"/>
<line x1="1203.475936" y1="336.34408" x2="1327.027936" y2="336.34408" stroke="black" stroke-width="6.48"/>
<line x1="1203.475936" y1="222.29608" x2="1203.475936" y2="336.34408" stroke="black" stroke-width="6.48"/>
<line x1="1250.995936" y1="336.34408" x2="1250.995936" y2="322.88008" stroke="black" stroke-width="6.48"/>
<line x1="1250.995936" y1="322.88008" x2="1281.091936" y2="322.88008" stroke="black" stroke-width="6.48"/>
<line x1="1281.091936" y1="322.88008" x2="1281.091936" y2="335.55208" stroke="black" stroke-width="6.48"/>
<circle cx="1062.499936" cy="236.55208" r="7.128000000000001" fill="none" stroke="black" stroke-width="6.48"/>
<circle cx="1312.771936" cy="237.34408" r="7.128000000000001" fill="none" stroke="black" stroke-width="6.48"/>
<line x1="2288.485058" y1="2277.14198" x2="2319.203851" y2="2280.370662" stroke="black" stroke-width="6.48"/>
<line x1="2319.203851" y1="2280.370662" x2="2341.109221" y2="2071.955477" stroke="black" stroke-width="6.48"/>
<line x1="2341.109221" y1="2071.955477" x2="2310.390428" y2="2068.726795" stroke="black" stroke-width="6.48"/>
<line x1="2310.390428" y1="2068.726795" x2="2288.485058" y2="2277.14198" stroke="black" stroke-width="6.48"/>
<line x1="2491.229084" y1="2298.451288" x2="2521.947874" y2="2301.679969" stroke="black" stroke-width="6.48"/>
<line x1="2521.947874" y1="2301.679969" x2="2543.853244" y2="2093.264784" stroke="black" stroke-width="6.48"/>
<line x1="2543.853244" y1="2093.264784" x2="2513.134454" y2="2090.036102" stroke="black" stroke-width="6.48"/>
<line x1="2513.134454" y1="2090.036102" x2="2491.229084" y2="2298.451288" stroke="black" stroke-width="6.48"/>
<line x1="2318.731254" y1="2280.320989" x2="2491.229084" y2="2298.451288" stroke="black" stroke-width="6.48"/>
<line x1="2340.064685" y1="2072.801326" x2="2369.262067" y2="2049.590138" stroke="black" stroke-width="6.48"/>
<line x1="2489.774249" y1="2062.256508" x2="2513.507706" y2="2091.030966" stroke="black" stroke-width="6.48"/>
<line x1="2367.371678" y1="2049.391451" x2="2491.664634" y2="2062.455196" stroke="black" stroke-width="6.48"/>
<line x1="2323.873022" y1="2235.946565" x2="2496.370853" y2="2254.07686" stroke="black" stroke-width="6.48"/>
<line x1="6458.046433" y1="2039.590876" x2="6268.082224" y2="2046.224574" stroke="black" stroke-width="6.48"/>
<line x1="6268.082224" y1="2046.224574" x2="6284.268443" y2="2509.737246" stroke="black" stroke-width="6.48"/>
<line x1="6284.268443" y1="2509.737246" x2="6474.232652" y2="2503.103548" stroke="black" stroke-width="6.48"/>
<line x1="6474.232652" y1="2503.103548" x2="6473.403443" y2="2479.35802" stroke="black" stroke-width="6.48"/>
<line x1="6473.403443" y1="2479.35802" x2="6306.234937" y2="2485.195675" stroke="black" stroke-width="6.48"/>
<line x1="6306.234937" y1="2485.195675" x2="6291.740311" y2="2070.12388" stroke="black" stroke-width="6.48"/>
<line x1="6291.740311" y1="2070.12388" x2="6458.908813" y2="2064.286224" stroke="black" stroke-width="6.48"/>
<line x1="6458.908813" y1="2064.286224" x2="6458.046433" y2="2039.590876" stroke="black" stroke-width="6.48"/>
<line x1="6453.209887" y1="2064.485236" x2="6467.704513" y2="2479.557031" stroke="black" stroke-width="6.48"/>
<line x1="6461.390437" y1="2271.513053" x2="6299.920858" y2="2277.151697" stroke="black" stroke-width="6.48"/>
<line x1="2966.232679" y1="2026.139771" x2="2895.027534" y2="2202.378908" stroke="black" stroke-width="6.48"/>
<line x1="2895.027534" y1="2202.378908" x2="3325.05103" y2="2376.119459" stroke="black" stroke-width="6.48"/>
<line x1="3325.05103" y1="2376.119459" x2="3396.256175" y2="2199.880321" stroke="black" stroke-width="6.48"/>
<line x1="3396.256175" y1="2199.880321" x2="3374.226284" y2="2190.979678" stroke="black" stroke-width="6.48"/>
<line x1="3374.226284" y1="2190.979678" x2="3311.565757" y2="2346.070122" stroke="black" stroke-width="6.48"/>
<line x1="3311.565757" y1="2346.070122" x2="2926.48324" y2="2190.486881" stroke="black" stroke-width="6.48"/>
<line x1="2926.48324" y1="2190.486881" x2="2989.143767" y2="2035.39644" stroke="black" stroke-width="6.48"/>
<line x1="2989.143767" y1="2035.39644" x2="2966.232679" y2="2026.139771" stroke="black" stroke-width="6.48"/>
<line x1="2987.007613" y1="2040.683612" x2="3372.090131" y2="2196.266854" stroke="black" stroke-width="6.48"/>
<line x1="3179.464297" y1="2117.416025" x2="3118.939927" y2="2267.219293" stroke="black" stroke-width="6.48"/>
</g>
</svg>
