<?xml version="1.0"?>
<svg xmlns:xlink="http://www.w3.org/1999/xlink" width="6775.2" height="2858.4">
<image x="0" y="0" width="6775.2" height="2858.4" xlink:href="groundfilled-01.png"/>
<g style="stroke-linecap:round">
<line x1="1285.950406" y1="795.178109" x2="1311.346069" y2="795.178109" stroke="black" stroke-width="6.48"/>
<line x1="1311.346069" y1="795.178109" x2="1311.346069" y2="745.625592" stroke="black" stroke-width="6.48"/>
<line x1="1311.346069" y1="745.625592" x2="1285.950406" y2="745.625592" stroke="black" stroke-width="6.48"/>
<line x1="1285.950406" y1="745.625592" x2="1285.950406" y2="795.178109" stroke="black" stroke-width="6.48"/>
<line x1="1559.728062" y1="745.625592" x2="1559.728062" y2="498.48241" stroke="black" stroke-width="6.48"/>
<line x1="1560.347471" y1="796.416923" x2="1585.743134" y2="796.416923" stroke="black" stroke-width="6.48"/>
<line x1="1585.743134" y1="796.416923" x2="1585.743134" y2="746.864406" stroke="black" stroke-width="6.48"/>
<line x1="1585.743134" y1="746.864406" x2="1560.347471" y2="746.864406" stroke="black" stroke-width="6.48"/>
<line x1="1560.347471" y1="746.864406" x2="1560.347471" y2="796.416923" stroke="black" stroke-width="6.48"/>
<path d="m 1311.346069,747.483811 a 248.38199299999997,248.38199299999997 0 0 1 248.38199299999997,-248.38199299999997" fill="none" stroke="black" stroke-width="6.48"/>
<line x1="320.532556" y1="771.34176" x2="320.532556" y2="366.736194" stroke="black" stroke-width="6.48"/>
<line x1="320.532556" y1="366.736194" x2="258.159283" y2="366.736194" stroke="black" stroke-width="6.48"/>
<line x1="258.159283" y1="366.736194" x2="258.159283" y2="771.34176" stroke="black" stroke-width="6.48"/>
<line x1="258.159283" y1="771.34176" x2="320.532556" y2="771.34176" stroke="black" stroke-width="6.48"/>
<line x1="258.979986" y1="733.589518" x2="319.711856" y2="733.589518" stroke="black" stroke-width="6.48"/>
<line x1="258.979986" y1="405.309139" x2="322.173958" y2="405.309139" stroke="black" stroke-width="6.48"/>
<line x1="287.704519" y1="734.410217" x2="287.704519" y2="406.129838" stroke="black" stroke-width="6.48"/>
<line x1="3901.945176" y1="1169.331426" x2="3901.945176" y2="1428.837066" stroke="black" stroke-width="6.48"/>
<line x1="3901.945176" y1="1428.837066" x2="3941.9501" y2="1428.837066" stroke="black" stroke-width="6.48"/>
<line x1="3941.9501" y1="1428.837066" x2="3941.9501" y2="1169.331426" stroke="black" stroke-width="6.48"/>
<line x1="3941.9501" y1="1169.331426" x2="3901.945176" y2="1169.331426" stroke="black" stroke-width="6.48"/>
<line x1="3941.423719" y1="1193.544936" x2="3902.471557" y2="1193.544936" stroke="black" stroke-width="6.48"/>
<line x1="3941.423719" y1="1404.097178" x2="3900.892414" y2="1404.097178" stroke="black" stroke-width="6.48"/>
<line x1="3923.000399" y1="1193.018555" x2="3923.000399" y2="1403.570797" stroke="black" stroke-width="6.48"/>
<line x1="334.430687" y1="1882.943946" x2="334.430687" y2="1457.437414" stroke="black" stroke-width="6.48"/>
<line x1="334.430687" y1="1457.437414" x2="258.323828" y2="1457.437414" stroke="black" stroke-width="6.48"/>
<line x1="258.323828" y1="1457.437414" x2="258.323828" y2="1882.943946" stroke="black" stroke-width="6.48"/>
<line x1="258.323828" y1="1882.943946" x2="334.430687" y2="1882.943946" stroke="black" stroke-width="6.48"/>
<line x1="334.430687" y1="1863.05238" x2="360.376207" y2="1863.05238" stroke="black" stroke-width="6.48"/>
<line x1="360.376207" y1="1863.05238" x2="360.376207" y2="1478.193829" stroke="black" stroke-width="6.48"/>
<line x1="334.430687" y1="1478.193829" x2="360.376207" y2="1478.193829" stroke="black" stroke-width="6.48"/>
<line x1="2747.905531" y1="904.670665" x2="2721.68303" y2="904.670665" stroke="black" stroke-width="6.48"/>
<line x1="2721.68303" y1="904.670665" x2="2721.68303" y2="955.836522" stroke="black" stroke-width="6.48"/>
<line x1="2721.68303" y1="955.836522" x2="2747.905531" y2="955.836522" stroke="black" stroke-width="6.48"/>
<line x1="2747.905531" y1="955.836522" x2="2747.905531" y2="904.670665" stroke="black" stroke-width="6.48"/>
<line x1="2465.214181" y1="955.836522" x2="2465.214181" y2="1211.026223" stroke="black" stroke-width="6.48"/>
<line x1="2464.574609" y1="903.39152" x2="2438.352108" y2="903.39152" stroke="black" stroke-width="6.48"/>
<line x1="2438.352108" y1="903.39152" x2="2438.352108" y2="954.557374" stroke="black" stroke-width="6.48"/>
<line x1="2438.352108" y1="954.557374" x2="2464.574609" y2="954.557374" stroke="black" stroke-width="6.48"/>
<line x1="2464.574609" y1="954.557374" x2="2464.574609" y2="903.39152" stroke="black" stroke-width="6.48"/>
<path d="m 2721.68303,953.917801 a 256.4688490000001,256.4688490000001 0 0 1 -256.4688490000003,256.46884899999986" fill="none" stroke="black" stroke-width="6.48"/>
<line x1="2420.532389" y1="1427.858834" x2="2395.136725" y2="1427.858834" stroke="black" stroke-width="6.48"/>
<line x1="2395.136725" y1="1427.858834" x2="2395.136725" y2="1477.411351" stroke="black" stroke-width="6.48"/>
<line x1="2395.136725" y1="1477.411351" x2="2420.532389" y2="1477.411351" stroke="black" stroke-width="6.48"/>
<line x1="2420.532389" y1="1477.411351" x2="2420.532389" y2="1427.858834" stroke="black" stroke-width="6.48"/>
<line x1="2146.754732" y1="1477.411351" x2="2146.754732" y2="1724.554534" stroke="black" stroke-width="6.48"/>
<line x1="2146.135324" y1="1426.62002" x2="2120.73966" y2="1426.62002" stroke="black" stroke-width="6.48"/>
<line x1="2120.73966" y1="1426.62002" x2="2120.73966" y2="1476.172537" stroke="black" stroke-width="6.48"/>
<line x1="2120.73966" y1="1476.172537" x2="2146.135324" y2="1476.172537" stroke="black" stroke-width="6.48"/>
<line x1="2146.135324" y1="1476.172537" x2="2146.135324" y2="1426.62002" stroke="black" stroke-width="6.48"/>
<path d="m 2395.136725,1475.553132 a 248.38199299999997,248.38199299999997 0 0 1 -248.38199299999997,248.38199299999997" fill="none" stroke="black" stroke-width="6.48"/>
<line x1="739.417514" y1="541.339351" x2="971.315114" y2="541.339351" stroke="black" stroke-width="6.48"/>
<line x1="971.315114" y1="541.339351" x2="971.315114" y2="773.712151" stroke="black" stroke-width="6.48"/>
<line x1="971.315114" y1="773.712151" x2="739.417514" y2="773.712151" stroke="black" stroke-width="6.48"/>
<line x1="739.417514" y1="773.712151" x2="739.417514" y2="541.339351" stroke="black" stroke-width="6.48"/>
<line x1="738.942314" y1="540.864151" x2="971.315114" y2="773.712151" stroke="black" stroke-width="6.48"/>
<line x1="739.417514" y1="773.236951" x2="970.839914" y2="541.339351" stroke="black" stroke-width="6.48"/>
<line x1="2032.924367" y1="2000.45785" x2="2032.924367" y2="1969.56985" stroke="black" stroke-width="6.48"/>
<line x1="2032.924367" y1="1969.56985" x2="1823.361167" y2="1969.56985" stroke="black" stroke-width="6.48"/>
<line x1="1823.361167" y1="1969.56985" x2="1823.361167" y2="2000.45785" stroke="black" stroke-width="6.48"/>
<line x1="1823.361167" y1="2000.45785" x2="2032.924367" y2="2000.45785" stroke="black" stroke-width="6.48"/>
<line x1="2032.924367" y1="1796.59705" x2="2032.924367" y2="1765.70905" stroke="black" stroke-width="6.48"/>
<line x1="2032.924367" y1="1765.70905" x2="1823.361167" y2="1765.70905" stroke="black" stroke-width="6.48"/>
<line x1="1823.361167" y1="1765.70905" x2="1823.361167" y2="1796.59705" stroke="black" stroke-width="6.48"/>
<line x1="1823.361167" y1="1796.59705" x2="2032.924367" y2="1796.59705" stroke="black" stroke-width="6.48"/>
<line x1="2032.924367" y1="1970.04505" x2="2032.924367" y2="1796.59705" stroke="black" stroke-width="6.48"/>
<line x1="1824.311567" y1="1970.52025" x2="1798.175567" y2="1943.90905" stroke="black" stroke-width="6.48"/>
<line x1="1798.175567" y1="1822.73305" x2="1824.311567" y2="1796.12185" stroke="black" stroke-width="6.48"/>
<line x1="1798.175567" y1="1945.80985" x2="1798.175567" y2="1820.83225" stroke="black" stroke-width="6.48"/>
<line x1="1988.255567" y1="1969.56985" x2="1988.255567" y2="1796.12185" stroke="black" stroke-width="6.48"/>
<line x1="1485.415969" y1="209.267824" x2="1707.693134" y2="209.267824" stroke="black" stroke-width="6.48"/>
<line x1="1707.693134" y1="209.267824" x2="1707.693134" y2="432.000475" stroke="black" stroke-width="6.48"/>
<line x1="1707.693134" y1="432.000475" x2="1485.415969" y2="432.000475" stroke="black" stroke-width="6.48"/>
<line x1="1485.415969" y1="432.000475" x2="1485.415969" y2="209.267824" stroke="black" stroke-width="6.48"/>
<line x1="1484.960483" y1="208.812337" x2="1707.693134" y2="432.000475" stroke="black" stroke-width="6.48"/>
<line x1="1485.415969" y1="431.544989" x2="1707.237648" y2="209.267824" stroke="black" stroke-width="6.48"/>
<line x1="2586.780558" y1="1803.366338" x2="2586.780558" y2="2194.614338" stroke="black" stroke-width="6.48"/>
<line x1="2586.780558" y1="2194.614338" x2="2761.020558" y2="2194.614338" stroke="black" stroke-width="6.48"/>
<line x1="2761.020558" y1="2194.614338" x2="2761.020558" y2="1803.366338" stroke="black" stroke-width="6.48"/>
<line x1="2761.020558" y1="1803.366338" x2="2586.780558" y2="1803.366338" stroke="black" stroke-width="6.48"/>
<line x1="2734.092558" y1="2119.374338" x2="2734.092558" y2="1835.046338" stroke="black" stroke-width="6.48"/>
<line x1="2734.092558" y1="1835.046338" x2="2616.084558" y2="1835.046338" stroke="black" stroke-width="6.48"/>
<line x1="2616.084558" y1="1835.046338" x2="2616.084558" y2="2124.918338" stroke="black" stroke-width="6.48"/>
<path d="m 2734.347982,2118.563766 a 63.35999941905905,63.35999941905905 0 0 1 -119.37432999999965,4.2938139999996565" fill="none" stroke="black" stroke-width="6.48"/>
<line x1="2080.794445" y1="1848.292592" x2="2056.242445" y2="1866.904592" stroke="black" stroke-width="6.48"/>
<line x1="2056.242445" y1="1866.904592" x2="2056.242445" y2="2014.216592" stroke="black" stroke-width="6.48"/>
<line x1="2056.242445" y1="2014.216592" x2="2084.358445" y2="2033.224592" stroke="black" stroke-width="6.48"/>
<line x1="2083.566445" y1="1870.072592" x2="2083.566445" y2="2013.028592" stroke="black" stroke-width="6.48"/>
<circle cx="2105.346445" cy="1939.372592" r="13.068000000000003" fill="none" stroke="black" stroke-width="6.48"/>
<path d="m 2082.899099,1871.625845 a 74.8440000678094,74.8440000678094 0 1 1 0.40204799999992247,139.6090039999999" fill="none" stroke="black" stroke-width="6.48"/>
<path d="m 2080.137082,1848.338896 a 95.43599858117898,95.43599858117898 0 1 1 3.0749579999996968,184.466995" fill="none" stroke="black" stroke-width="6.48"/>
<line x1="724.795614" y1="210.677728" x2="1118.039486" y2="210.677728" stroke="black" stroke-width="6.48"/>
<line x1="1121.994893" y1="209.681446" x2="1121.994893" y2="345.750221" stroke="black" stroke-width="6.48"/>
<line x1="725.260003" y1="346.901728" x2="1122.300234" y2="346.901728" stroke="black" stroke-width="6.48"/>
<line x1="725.994893" y1="211.372477" x2="725.994893" y2="346.636534" stroke="black" stroke-width="6.48"/>
<line x1="736.290893" y1="221.765728" x2="859.842893" y2="221.765728" stroke="black" stroke-width="6.48"/>
<line x1="859.842893" y1="221.765728" x2="859.842893" y2="335.813728" stroke="black" stroke-width="6.48"/>
<line x1="736.290893" y1="335.813728" x2="859.842893" y2="335.813728" stroke="black" stroke-width="6.48"/>
<line x1="736.290893" y1="221.765728" x2="736.290893" y2="335.813728" stroke="black" stroke-width="6.48"/>
<line x1="878.850893" y1="228.893728" x2="965.970893" y2="228.893728" stroke="black" stroke-width="6.48"/>
<line x1="878.850893" y1="248.693728" x2="965.970893" y2="248.693728" stroke="black" stroke-width="6.48"/>
<line x1="879.642893" y1="269.285728" x2="965.970893" y2="269.285728" stroke="black" stroke-width="6.48"/>
<line x1="879.642893" y1="289.085728" x2="965.970893" y2="289.085728" stroke="black" stroke-width="6.48"/>
<line x1="878.850893" y1="308.885728" x2="965.970893" y2="308.885728" stroke="black" stroke-width="6.48"/>
<line x1="878.850893" y1="328.685728" x2="965.970893" y2="328.685728" stroke="black" stroke-width="6.48"/>
<line x1="783.810893" y1="335.021728" x2="783.810893" y2="321.557728" stroke="black" stroke-width="6.48"/>
<line x1="783.810893" y1="321.557728" x2="813.906893" y2="321.557728" stroke="black" stroke-width="6.48"/>
<line x1="813.906893" y1="321.557728" x2="813.906893" y2="334.229728" stroke="black" stroke-width="6.48"/>
<line x1="986.562893" y1="221.765728" x2="1110.114893" y2="221.765728" stroke="black" stroke-width="6.48"/>
<line x1="1110.114893" y1="221.765728" x2="1110.114893" y2="335.813728" stroke="black" stroke-width="6.48"/>
<line x1="986.562893" y1="335.813728" x2="1110.114893" y2="335.813728" stroke="black" stroke-width="6.48"/>
<line x1="986.562893" y1="221.765728" x2="986.562893" y2="335.813728" stroke="black" stroke-width="6.48"/>
<line x1="1034.082893" y1="335.813728" x2="1034.082893" y2="322.349728" stroke="black" stroke-width="6.48"/>
<line x1="1034.082893" y1="322.349728" x2="1064.178893" y2="322.349728" stroke="black" stroke-width="6.48"/>
<line x1="1064.178893" y1="322.349728" x2="1064.178893" y2="335.021728" stroke="black" stroke-width="6.48"/>
<circle cx="845.586893" cy="236.021728" r="7.128000000000001" fill="none" stroke="black" stroke-width="6.48"/>
<circle cx="1095.858893" cy="236.813728" r="7.128000000000001" fill="none" stroke="black" stroke-width="6.48"/>
<line x1="2044.889399" y1="955.822399" x2="2267.166564" y2="955.822399" stroke="black" stroke-width="6.48"/>
<line x1="2267.166564" y1="955.822399" x2="2267.166564" y2="1178.555051" stroke="black" stroke-width="6.48"/>
<line x1="2267.166564" y1="1178.555051" x2="2044.889399" y2="1178.555051" stroke="black" stroke-width="6.48"/>
<line x1="2044.889399" y1="1178.555051" x2="2044.889399" y2="955.822399" stroke="black" stroke-width="6.48"/>
<line x1="2044.433912" y1="955.366913" x2="2267.166564" y2="1178.555051" stroke="black" stroke-width="6.48"/>
<line x1="2044.889399" y1="1178.099564" x2="2266.711078" y2="955.822399" stroke="black" stroke-width="6.48"/>
<line x1="333.766206" y1="1375.361078" x2="333.766206" y2="949.854546" stroke="black" stroke-width="6.48"/>
<line x1="333.766206" y1="949.854546" x2="257.659348" y2="949.854546" stroke="black" stroke-width="6.48"/>
<line x1="257.659348" y1="949.854546" x2="257.659348" y2="1375.361078" stroke="black" stroke-width="6.48"/>
<line x1="257.659348" y1="1375.361078" x2="333.766206" y2="1375.361078" stroke="black" stroke-width="6.48"/>
<line x1="333.766206" y1="1355.469512" x2="359.711726" y2="1355.469512" stroke="black" stroke-width="6.48"/>
<line x1="359.711726" y1="1355.469512" x2="359.711726" y2="970.610962" stroke="black" stroke-width="6.48"/>
<line x1="333.766206" y1="970.610962" x2="359.711726" y2="970.610962" stroke="black" stroke-width="6.48"/>
<line x1="3874.406537" y1="1514.726719" x2="3874.406537" y2="1940.260162" stroke="black" stroke-width="6.48"/>
<line x1="3874.406537" y1="1940.260162" x2="3940.00601" y2="1940.260162" stroke="black" stroke-width="6.48"/>
<line x1="3940.00601" y1="1940.260162" x2="3940.00601" y2="1514.726719" stroke="black" stroke-width="6.48"/>
<line x1="3940.00601" y1="1514.726719" x2="3874.406537" y2="1514.726719" stroke="black" stroke-width="6.48"/>
<line x1="3939.14286" y1="1554.431663" x2="3875.269687" y2="1554.431663" stroke="black" stroke-width="6.48"/>
<line x1="3939.14286" y1="1899.692064" x2="3872.680232" y2="1899.692064" stroke="black" stroke-width="6.48"/>
<line x1="3908.932574" y1="1553.568512" x2="3908.932574" y2="1898.828914" stroke="black" stroke-width="6.48"/>
<line x1="4623.973564" y1="1322.298047" x2="4730.849237" y2="1244.648322" stroke="black" stroke-width="6.48"/>
<line x1="4730.849237" y1="1244.648322" x2="4739.228705" y2="1256.181667" stroke="black" stroke-width="6.48"/>
<line x1="4632.353028" y1="1333.831392" x2="4739.228705" y2="1256.181667" stroke="black" stroke-width="6.48"/>
<line x1="4623.973564" y1="1322.298047" x2="4632.353028" y2="1333.831392" stroke="black" stroke-width="6.48"/>
<line x1="4643.117485" y1="1326.010558" x2="4660.014532" y2="1352.501183" stroke="black" stroke-width="6.48"/>
<line x1="4728.464248" y1="1264.002505" x2="4748.995483" y2="1289.027495" stroke="black" stroke-width="6.48"/>
<line x1="4894.909646" y1="1695.209573" x2="5001.785323" y2="1617.559852" stroke="black" stroke-width="6.48"/>
<line x1="5001.785323" y1="1617.559852" x2="4993.964489" y2="1606.795394" stroke="black" stroke-width="6.48"/>
<line x1="4887.088812" y1="1684.445119" x2="4993.964489" y2="1606.795394" stroke="black" stroke-width="6.48"/>
<line x1="4894.909646" y1="1695.209573" x2="4887.088812" y2="1684.445119" stroke="black" stroke-width="6.48"/>
<line x1="4895.967118" y1="1675.645135" x2="4875.994512" y2="1651.389034" stroke="black" stroke-width="6.48"/>
<line x1="4981.31388" y1="1613.637083" x2="4964.627092" y2="1585.81894" stroke="black" stroke-width="6.48"/>
<line x1="4959.741456" y1="1281.581701" x2="4948.208111" y2="1289.961169" stroke="black" stroke-width="6.48"/>
<line x1="4948.208111" y1="1289.961169" x2="5025.857832" y2="1396.836839" stroke="black" stroke-width="6.48"/>
<line x1="5037.391181" y1="1388.457378" x2="5025.857832" y2="1396.836839" stroke="black" stroke-width="6.48"/>
<line x1="4959.741456" y1="1281.581701" x2="5037.391181" y2="1388.457378" stroke="black" stroke-width="6.48"/>
<line x1="5017.478368" y1="1385.303494" x2="4993.012008" y2="1406.603621" stroke="black" stroke-width="6.48"/>
<line x1="4956.028945" y1="1300.725623" x2="4928.769432" y2="1318.181299" stroke="black" stroke-width="6.48"/>
<line x1="4587.040188" y1="1551.190262" x2="4598.573533" y2="1542.810798" stroke="black" stroke-width="6.48"/>
<line x1="4598.573533" y1="1542.810798" x2="4676.223254" y2="1649.686471" stroke="black" stroke-width="6.48"/>
<line x1="4664.689909" y1="1658.065939" x2="4676.223254" y2="1649.686471" stroke="black" stroke-width="6.48"/>
<line x1="4587.040188" y1="1551.190262" x2="4664.689909" y2="1658.065939" stroke="black" stroke-width="6.48"/>
<line x1="4667.84379" y1="1638.153126" x2="4695.661933" y2="1621.466341" stroke="black" stroke-width="6.48"/>
<line x1="4606.394368" y1="1553.575255" x2="4631.419357" y2="1533.04402" stroke="black" stroke-width="6.48"/>
<circle cx="4812.215684" cy="1469.823822" r="191.98080000000002" fill="none" stroke="black" stroke-width="6.48"/>
<line x1="3255.205478" y1="1074.814664" x2="3464.570682" y2="1074.814664" stroke="black" stroke-width="6.48"/>
<line x1="3464.570682" y1="1074.814664" x2="3464.570682" y2="743.600261" stroke="black" stroke-width="6.48"/>
<line x1="3464.570682" y1="743.600261" x2="3255.205478" y2="743.600261" stroke="black" stroke-width="6.48"/>
<line x1="3255.205478" y1="743.600261" x2="3255.205478" y2="1074.814664" stroke="black" stroke-width="6.48"/>
<line x1="3254.532278" y1="802.841861" x2="3465.243878" y2="802.841861" stroke="black" stroke-width="6.48"/>
<line x1="3465.243878" y1="802.841861" x2="3255.878678" y2="852.658664" stroke="black" stroke-width="6.48"/>
<line x1="3255.878678" y1="852.658664" x2="3287.519082" y2="899.109464" stroke="black" stroke-width="6.48"/>
<line x1="3287.519082" y1="899.109464" x2="3465.243878" y2="802.168664" stroke="black" stroke-width="6.48"/>
<line x1="3205.096981" y1="1203.963635" x2="3427.374146" y2="1203.963635" stroke="black" stroke-width="6.48"/>
<line x1="3427.374146" y1="1203.963635" x2="3427.374146" y2="1426.696286" stroke="black" stroke-width="6.48"/>
<line x1="3427.374146" y1="1426.696286" x2="3205.096981" y2="1426.696286" stroke="black" stroke-width="6.48"/>
<line x1="3205.096981" y1="1426.696286" x2="3205.096981" y2="1203.963635" stroke="black" stroke-width="6.48"/>
<line x1="3204.641495" y1="1203.508148" x2="3427.374146" y2="1426.696286" stroke="black" stroke-width="6.48"/>
<line x1="3205.096981" y1="1426.2408" x2="3426.91866" y2="1203.963635" stroke="black" stroke-width="6.48"/>
<line x1="2804.16708" y1="1127.69402" x2="2804.16708" y2="1153.148746" stroke="black" stroke-width="6.48"/>
<line x1="2804.16708" y1="1153.148746" x2="2853.834836" y2="1153.148746" stroke="black" stroke-width="6.48"/>
<line x1="2853.834836" y1="1153.148746" x2="2853.834836" y2="1127.69402" stroke="black" stroke-width="6.48"/>
<line x1="2853.834836" y1="1127.69402" x2="2804.16708" y2="1127.69402" stroke="black" stroke-width="6.48"/>
<line x1="2853.834836" y1="1402.108373" x2="3101.55277" y2="1402.108373" stroke="black" stroke-width="6.48"/>
<line x1="2802.925386" y1="1402.729218" x2="2802.925386" y2="1428.183943" stroke="black" stroke-width="6.48"/>
<line x1="2802.925386" y1="1428.183943" x2="2852.593142" y2="1428.183943" stroke="black" stroke-width="6.48"/>
<line x1="2852.593142" y1="1428.183943" x2="2852.593142" y2="1402.729218" stroke="black" stroke-width="6.48"/>
<line x1="2852.593142" y1="1402.729218" x2="2802.925386" y2="1402.729218" stroke="black" stroke-width="6.48"/>
<path d="m 2851.972294,1153.148746 a 248.95962699999984,248.95962699999984 0 0 1 248.95962699999973,248.95962699999995" fill="none" stroke="black" stroke-width="6.48"/>
<line x1="2941.844594" y1="2014.371101" x2="2870.639449" y2="2190.610238" stroke="black" stroke-width="6.48"/>
<line x1="2870.639449" y1="2190.610238" x2="3300.662945" y2="2364.350789" stroke="black" stroke-width="6.48"/>
<line x1="3300.662945" y1="2364.350789" x2="3371.86809" y2="2188.111651" stroke="black" stroke-width="6.48"/>
<line x1="3371.86809" y1="2188.111651" x2="3349.8382" y2="2179.211008" stroke="black" stroke-width="6.48"/>
<line x1="3349.8382" y1="2179.211008" x2="3287.177672" y2="2334.301452" stroke="black" stroke-width="6.48"/>
<line x1="3287.177672" y1="2334.301452" x2="2902.095155" y2="2178.718211" stroke="black" stroke-width="6.48"/>
<line x1="2902.095155" y1="2178.718211" x2="2964.755682" y2="2023.62777" stroke="black" stroke-width="6.48"/>
<line x1="2964.755682" y1="2023.62777" x2="2941.844594" y2="2014.371101" stroke="black" stroke-width="6.48"/>
<line x1="2962.619528" y1="2028.914942" x2="3347.702046" y2="2184.498184" stroke="black" stroke-width="6.48"/>
<line x1="3155.076212" y1="2105.647355" x2="3094.551842" y2="2255.450623" stroke="black" stroke-width="6.48"/>
<line x1="3556.75806" y1="1637.823902" x2="3711.927841" y2="1810.157404" stroke="black" stroke-width="6.48"/>
<line x1="3711.927841" y1="1810.157404" x2="3539.241198" y2="1965.645158" stroke="black" stroke-width="6.48"/>
<line x1="3539.241198" y1="1965.645158" x2="3384.071417" y2="1793.311657" stroke="black" stroke-width="6.48"/>
<line x1="3384.071417" y1="1793.311657" x2="3556.75806" y2="1637.823902" stroke="black" stroke-width="6.48"/>
<line x1="3556.793232" y1="1637.15279" x2="3539.241198" y2="1965.645158" stroke="black" stroke-width="6.48"/>
<line x1="3384.424559" y1="1792.993684" x2="3711.609871" y2="1809.804265" stroke="black" stroke-width="6.48"/>
<line x1="3002.693659" y1="1600.28357" x2="3004.31021" y2="1631.129238" stroke="black" stroke-width="6.48"/>
<line x1="3004.31021" y1="1631.129238" x2="3213.58621" y2="1620.16155" stroke="black" stroke-width="6.48"/>
<line x1="3213.58621" y1="1620.16155" x2="3211.969658" y2="1589.315882" stroke="black" stroke-width="6.48"/>
<line x1="3211.969658" y1="1589.315882" x2="3002.693659" y2="1600.28357" stroke="black" stroke-width="6.48"/>
<line x1="3013.362907" y1="1803.864985" x2="3014.979458" y2="1834.710656" stroke="black" stroke-width="6.48"/>
<line x1="3014.979458" y1="1834.710656" x2="3224.255461" y2="1823.742968" stroke="black" stroke-width="6.48"/>
<line x1="3224.255461" y1="1823.742968" x2="3222.63891" y2="1792.897294" stroke="black" stroke-width="6.48"/>
<line x1="3222.63891" y1="1792.897294" x2="3013.362907" y2="1803.864985" stroke="black" stroke-width="6.48"/>
<line x1="3004.285342" y1="1630.654693" x2="3013.362907" y2="1803.864985" stroke="black" stroke-width="6.48"/>
<line x1="3212.587372" y1="1619.262194" x2="3240.080276" y2="1644.46907" stroke="black" stroke-width="6.48"/>
<line x1="3246.422137" y1="1765.479002" x2="3221.714682" y2="1793.421587" stroke="black" stroke-width="6.48"/>
<line x1="3239.980798" y1="1642.570877" x2="3246.521616" y2="1767.3772" stroke="black" stroke-width="6.48"/>
<line x1="3048.917792" y1="1628.791459" x2="3057.995358" y2="1802.001751" stroke="black" stroke-width="6.48"/>
<line x1="5786.253972" y1="1535.994914" x2="5735.671006" y2="1738.872104" stroke="black" stroke-width="6.48"/>
<line x1="5735.671006" y1="1738.872104" x2="5960.680258" y2="1794.973212" stroke="black" stroke-width="6.48"/>
<line x1="5960.680258" y1="1794.973212" x2="6011.263224" y2="1592.096018" stroke="black" stroke-width="6.48"/>
<line x1="6011.263224" y1="1592.096018" x2="5786.253972" y2="1535.994914" stroke="black" stroke-width="6.48"/>
<line x1="5817.607718" y1="1543.812278" x2="5767.024752" y2="1746.689472" stroke="black" stroke-width="6.48"/>
<line x1="909.887026" y1="1912.474667" x2="931.34363" y2="1934.693636" stroke="black" stroke-width="6.48"/>
<line x1="931.34363" y1="1934.693636" x2="1082.090815" y2="1789.118845" stroke="black" stroke-width="6.48"/>
<line x1="1082.090815" y1="1789.118845" x2="1060.63421" y2="1766.899872" stroke="black" stroke-width="6.48"/>
<line x1="1060.63421" y1="1766.899872" x2="909.887026" y2="1912.474667" stroke="black" stroke-width="6.48"/>
<line x1="1051.5006" y1="2059.119889" x2="1072.957205" y2="2081.338859" stroke="black" stroke-width="6.48"/>
<line x1="1072.957205" y1="2081.338859" x2="1223.70439" y2="1935.764068" stroke="black" stroke-width="6.48"/>
<line x1="1223.70439" y1="1935.764068" x2="1202.247785" y2="1913.545091" stroke="black" stroke-width="6.48"/>
<line x1="1202.247785" y1="1913.545091" x2="1051.5006" y2="2059.119889" stroke="black" stroke-width="6.48"/>
<line x1="931.013521" y1="1934.351809" x2="1051.5006" y2="2059.119889" stroke="black" stroke-width="6.48"/>
<line x1="1080.74695" y1="1789.095388" x2="1118.033309" y2="1790.082299" stroke="black" stroke-width="6.48"/>
<line x1="1202.209207" y1="1877.249038" x2="1201.894229" y2="1914.547126" stroke="black" stroke-width="6.48"/>
<line x1="1116.712901" y1="1788.714976" x2="1203.529619" y2="1878.616361" stroke="black" stroke-width="6.48"/>
<line x1="963.475679" y1="1903.664092" x2="1083.962758" y2="2028.432172" stroke="black" stroke-width="6.48"/>
<line x1="2305.838272" y1="2044.889014" x2="2536.465507" y2="2069.128969" stroke="black" stroke-width="6.48"/>
<line x1="2536.465507" y1="2069.128969" x2="2512.175879" y2="2300.228802" stroke="black" stroke-width="6.48"/>
<line x1="2512.175879" y1="2300.228802" x2="2281.548643" y2="2275.988843" stroke="black" stroke-width="6.48"/>
<line x1="2281.548643" y1="2275.988843" x2="2305.838272" y2="2044.889014" stroke="black" stroke-width="6.48"/>
<line x1="2305.415347" y1="2044.366744" x2="2512.175879" y2="2300.228802" stroke="black" stroke-width="6.48"/>
<line x1="2281.598316" y1="2275.516246" x2="2535.99291" y2="2069.079296" stroke="black" stroke-width="6.48"/>
<line x1="3755.94377" y1="1170.151394" x2="3767.01304" y2="1141.314962" stroke="black" stroke-width="6.48"/>
<line x1="3767.01304" y1="1141.314962" x2="3571.368937" y2="1066.214228" stroke="black" stroke-width="6.48"/>
<line x1="3571.368937" y1="1066.214228" x2="3560.299668" y2="1095.050664" stroke="black" stroke-width="6.48"/>
<line x1="3560.299668" y1="1095.050664" x2="3755.94377" y2="1170.151394" stroke="black" stroke-width="6.48"/>
<line x1="3829.000946" y1="979.830943" x2="3840.070216" y2="950.994511" stroke="black" stroke-width="6.48"/>
<line x1="3840.070216" y1="950.994511" x2="3644.426113" y2="875.893777" stroke="black" stroke-width="6.48"/>
<line x1="3644.426113" y1="875.893777" x2="3633.356844" y2="904.730206" stroke="black" stroke-width="6.48"/>
<line x1="3633.356844" y1="904.730206" x2="3829.000946" y2="979.830943" stroke="black" stroke-width="6.48"/>
<line x1="3766.842742" y1="1141.758601" x2="3829.000946" y2="979.830943" stroke="black" stroke-width="6.48"/>
<line x1="3571.915619" y1="1067.442098" x2="3557.052162" y2="1033.232098" stroke="black" stroke-width="6.48"/>
<line x1="3600.477756" y1="920.104553" x2="3634.414416" y2="904.627163" stroke="black" stroke-width="6.48"/>
<line x1="3556.370977" y1="1035.006642" x2="3601.158944" y2="918.330005" stroke="black" stroke-width="6.48"/>
<line x1="3725.311122" y1="1125.307098" x2="3787.469327" y2="963.37944" stroke="black" stroke-width="6.48"/>
<line x1="6223.15242" y1="2100.069331" x2="6220.99778" y2="2130.882088" stroke="black" stroke-width="6.48"/>
<line x1="6220.99778" y1="2130.882088" x2="6430.050497" y2="2145.500478" stroke="black" stroke-width="6.48"/>
<line x1="6430.050497" y1="2145.500478" x2="6432.205133" y2="2114.687718" stroke="black" stroke-width="6.48"/>
<line x1="6432.205133" y1="2114.687718" x2="6223.15242" y2="2100.069331" stroke="black" stroke-width="6.48"/>
<line x1="6208.931808" y1="2303.433536" x2="6206.777172" y2="2334.246296" stroke="black" stroke-width="6.48"/>
<line x1="6206.777172" y1="2334.246296" x2="6415.829885" y2="2348.864683" stroke="black" stroke-width="6.48"/>
<line x1="6415.829885" y1="2348.864683" x2="6417.984524" y2="2318.051927" stroke="black" stroke-width="6.48"/>
<line x1="6417.984524" y1="2318.051927" x2="6208.931808" y2="2303.433536" stroke="black" stroke-width="6.48"/>
<line x1="6221.030929" y1="2130.408047" x2="6208.931808" y2="2303.433536" stroke="black" stroke-width="6.48"/>
<line x1="6429.168709" y1="2144.486099" x2="6453.384739" y2="2172.855629" stroke="black" stroke-width="6.48"/>
<line x1="6444.931928" y1="2293.73645" x2="6417.003294" y2="2318.459674" stroke="black" stroke-width="6.48"/>
<line x1="6453.517331" y1="2170.959462" x2="6444.799337" y2="2295.632621" stroke="black" stroke-width="6.48"/>
<line x1="6265.557774" y1="2133.998032" x2="6253.458649" y2="2307.023518" stroke="black" stroke-width="6.48"/>
<line x1="1118.071609" y1="1098.16465" x2="865.56407" y2="1399.091422" stroke="black" stroke-width="6.48"/>
<line x1="865.56407" y1="1399.091422" x2="1006.926847" y2="1517.708876" stroke="black" stroke-width="6.48"/>
<line x1="1006.926847" y1="1517.708876" x2="1259.43439" y2="1216.782104" stroke="black" stroke-width="6.48"/>
<line x1="1259.43439" y1="1216.782104" x2="1118.071609" y2="1098.16465" stroke="black" stroke-width="6.48"/>
<line x1="1157.107745" y1="1338.73025" x2="1218.991878" y2="1390.657205" stroke="black" stroke-width="6.48"/>
<line x1="1218.991878" y1="1390.657205" x2="1269.391572" y2="1330.593192" stroke="black" stroke-width="6.48"/>
<line x1="1269.391572" y1="1330.593192" x2="1207.507435" y2="1278.666238" stroke="black" stroke-width="6.48"/>
<line x1="1255.534924" y1="1319.999969" x2="1205.64432" y2="1379.457274" stroke="black" stroke-width="6.48"/>
<line x1="1003.653817" y1="1107.612742" x2="953.254127" y2="1167.676754" stroke="black" stroke-width="6.48"/>
<line x1="953.254127" y1="1167.676754" x2="1015.744968" y2="1220.112796" stroke="black" stroke-width="6.48"/>
<line x1="1066.144658" y1="1160.048786" x2="1003.653817" y2="1107.612742" stroke="black" stroke-width="6.48"/>
<line x1="1016.492288" y1="1119.419377" x2="966.601685" y2="1178.876689" stroke="black" stroke-width="6.48"/>
<line x1="1059.871979" y1="1454.611327" x2="1121.756112" y2="1506.538278" stroke="black" stroke-width="6.48"/>
<line x1="1121.756112" y1="1506.538278" x2="1172.155802" y2="1446.474265" stroke="black" stroke-width="6.48"/>
<line x1="1172.155802" y1="1446.474265" x2="1110.271669" y2="1394.547314" stroke="black" stroke-width="6.48"/>
<line x1="1158.808244" y1="1435.274338" x2="1108.408554" y2="1495.33835" stroke="black" stroke-width="6.48"/>
<line x1="906.418048" y1="1223.493818" x2="856.018357" y2="1283.557831" stroke="black" stroke-width="6.48"/>
<line x1="856.018357" y1="1283.557831" x2="918.509202" y2="1335.993872" stroke="black" stroke-width="6.48"/>
<line x1="968.908892" y1="1275.92986" x2="906.418048" y2="1223.493818" stroke="black" stroke-width="6.48"/>
<line x1="919.765609" y1="1234.693746" x2="869.365919" y2="1294.757759" stroke="black" stroke-width="6.48"/>
</g>
</svg>
