<?xml version="1.0"?>
<svg xmlns:xlink="http://www.w3.org/1999/xlink" width="6775.2" height="2858.4">
<image x="0" y="0" width="6775.2" height="2858.4" xlink:href="groundfilled-01.png"/>
<g style="stroke-linecap:round">
<line x1="1285.950406" y1="795.178109" x2="1311.346069" y2="795.178109" stroke="black" stroke-width="6.48"/>
<line x1="1311.346069" y1="795.178109" x2="1311.346069" y2="745.625592" stroke="black" stroke-width="6.48"/>
<line x1="1311.346069" y1="745.625592" x2="1285.950406" y2="745.625592" stroke="black" stroke-width="6.48"/>
<line x1="1285.950406" y1="745.625592" x2="1285.950406" y2="795.178109" stroke="black" stroke-width="6.48"/>
<line x1="1559.728062" y1="745.625592" x2="1559.728062" y2="498.48241" stroke="black" stroke-width="6.48"/>
<line x1="1560.347471" y1="796.416923" x2="1585.743134" y2="796.416923" stroke="black" stroke-width="6.48"/>
<line x1="1585.743134" y1="796.416923" x2="1585.743134" y2="746.864406" stroke="black" stroke-width="6.48"/>
<line x1="1585.743134" y1="746.864406" x2="1560.347471" y2="746.864406" stroke="black" stroke-width="6.48"/>
<line x1="1560.347471" y1="746.864406" x2="1560.347471" y2="796.416923" stroke="black" stroke-width="6.48"/>
<path d="m 1311.346069,747.483811 a 248.38199299999997,248.38199299999997 0 0 1 248.38199299999997,-248.38199299999997" fill="none" stroke="black" stroke-width="6.48"/>
<line x1="330.523178" y1="771.328966" x2="330.523178" y2="366.748985" stroke="black" stroke-width="6.48"/>
<line x1="330.523178" y1="366.748985" x2="258.15928" y2="366.748985" stroke="black" stroke-width="6.48"/>
<line x1="258.15928" y1="366.748985" x2="258.15928" y2="771.328966" stroke="black" stroke-width="6.48"/>
<line x1="258.15928" y1="771.328966" x2="330.523178" y2="771.328966" stroke="black" stroke-width="6.48"/>
<line x1="330.523178" y1="752.415674" x2="355.19269" y2="752.415674" stroke="black" stroke-width="6.48"/>
<line x1="355.19269" y1="752.415674" x2="355.19269" y2="386.484595" stroke="black" stroke-width="6.48"/>
<line x1="330.523178" y1="386.484595" x2="355.19269" y2="386.484595" stroke="black" stroke-width="6.48"/>
<line x1="3901.945176" y1="1169.331426" x2="3901.945176" y2="1428.837066" stroke="black" stroke-width="6.48"/>
<line x1="3901.945176" y1="1428.837066" x2="3941.9501" y2="1428.837066" stroke="black" stroke-width="6.48"/>
<line x1="3941.9501" y1="1428.837066" x2="3941.9501" y2="1169.331426" stroke="black" stroke-width="6.48"/>
<line x1="3941.9501" y1="1169.331426" x2="3901.945176" y2="1169.331426" stroke="black" stroke-width="6.48"/>
<line x1="3941.423719" y1="1193.544936" x2="3902.471557" y2="1193.544936" stroke="black" stroke-width="6.48"/>
<line x1="3941.423719" y1="1404.097178" x2="3900.892414" y2="1404.097178" stroke="black" stroke-width="6.48"/>
<line x1="3923.000399" y1="1193.018555" x2="3923.000399" y2="1403.570797" stroke="black" stroke-width="6.48"/>
<line x1="323.923298" y1="1882.957399" x2="323.923298" y2="1457.423957" stroke="black" stroke-width="6.48"/>
<line x1="323.923298" y1="1457.423957" x2="258.323825" y2="1457.423957" stroke="black" stroke-width="6.48"/>
<line x1="258.323825" y1="1457.423957" x2="258.323825" y2="1882.957399" stroke="black" stroke-width="6.48"/>
<line x1="258.323825" y1="1882.957399" x2="323.923298" y2="1882.957399" stroke="black" stroke-width="6.48"/>
<line x1="259.186975" y1="1843.252456" x2="323.060148" y2="1843.252456" stroke="black" stroke-width="6.48"/>
<line x1="259.186975" y1="1497.992054" x2="325.649603" y2="1497.992054" stroke="black" stroke-width="6.48"/>
<line x1="289.397261" y1="1844.115606" x2="289.397261" y2="1498.855205" stroke="black" stroke-width="6.48"/>
<line x1="2747.905531" y1="904.670665" x2="2721.68303" y2="904.670665" stroke="black" stroke-width="6.48"/>
<line x1="2721.68303" y1="904.670665" x2="2721.68303" y2="955.836522" stroke="black" stroke-width="6.48"/>
<line x1="2721.68303" y1="955.836522" x2="2747.905531" y2="955.836522" stroke="black" stroke-width="6.48"/>
<line x1="2747.905531" y1="955.836522" x2="2747.905531" y2="904.670665" stroke="black" stroke-width="6.48"/>
<line x1="2465.214181" y1="955.836522" x2="2465.214181" y2="1211.026223" stroke="black" stroke-width="6.48"/>
<line x1="2464.574609" y1="903.39152" x2="2438.352108" y2="903.39152" stroke="black" stroke-width="6.48"/>
<line x1="2438.352108" y1="903.39152" x2="2438.352108" y2="954.557374" stroke="black" stroke-width="6.48"/>
<line x1="2438.352108" y1="954.557374" x2="2464.574609" y2="954.557374" stroke="black" stroke-width="6.48"/>
<line x1="2464.574609" y1="954.557374" x2="2464.574609" y2="903.39152" stroke="black" stroke-width="6.48"/>
<path d="m 2721.68303,953.917801 a 256.4688490000001,256.4688490000001 0 0 1 -256.4688490000003,256.46884899999986" fill="none" stroke="black" stroke-width="6.48"/>
<line x1="2420.532389" y1="1427.858834" x2="2395.136725" y2="1427.858834" stroke="black" stroke-width="6.48"/>
<line x1="2395.136725" y1="1427.858834" x2="2395.136725" y2="1477.411351" stroke="black" stroke-width="6.48"/>
<line x1="2395.136725" y1="1477.411351" x2="2420.532389" y2="1477.411351" stroke="black" stroke-width="6.48"/>
<line x1="2420.532389" y1="1477.411351" x2="2420.532389" y2="1427.858834" stroke="black" stroke-width="6.48"/>
<line x1="2146.754732" y1="1477.411351" x2="2146.754732" y2="1724.554534" stroke="black" stroke-width="6.48"/>
<line x1="2146.135324" y1="1426.62002" x2="2120.73966" y2="1426.62002" stroke="black" stroke-width="6.48"/>
<line x1="2120.73966" y1="1426.62002" x2="2120.73966" y2="1476.172537" stroke="black" stroke-width="6.48"/>
<line x1="2120.73966" y1="1476.172537" x2="2146.135324" y2="1476.172537" stroke="black" stroke-width="6.48"/>
<line x1="2146.135324" y1="1476.172537" x2="2146.135324" y2="1426.62002" stroke="black" stroke-width="6.48"/>
<path d="m 2395.136725,1475.553132 a 248.38199299999997,248.38199299999997 0 0 1 -248.38199299999997,248.38199299999997" fill="none" stroke="black" stroke-width="6.48"/>
<line x1="893.783124" y1="541.339351" x2="1125.680724" y2="541.339351" stroke="black" stroke-width="6.48"/>
<line x1="1125.680724" y1="541.339351" x2="1125.680724" y2="773.712151" stroke="black" stroke-width="6.48"/>
<line x1="1125.680724" y1="773.712151" x2="893.783124" y2="773.712151" stroke="black" stroke-width="6.48"/>
<line x1="893.783124" y1="773.712151" x2="893.783124" y2="541.339351" stroke="black" stroke-width="6.48"/>
<line x1="893.307924" y1="540.864151" x2="1125.680724" y2="773.712151" stroke="black" stroke-width="6.48"/>
<line x1="893.783124" y1="773.236951" x2="1125.205524" y2="541.339351" stroke="black" stroke-width="6.48"/>
<line x1="2032.924367" y1="1895.60088" x2="2032.924367" y2="1686.51288" stroke="black" stroke-width="6.48"/>
<line x1="2032.924367" y1="1686.51288" x2="1801.026767" y2="1686.51288" stroke="black" stroke-width="6.48"/>
<line x1="1801.026767" y1="1686.51288" x2="1801.026767" y2="1895.60088" stroke="black" stroke-width="6.48"/>
<line x1="1801.026767" y1="1895.60088" x2="2032.924367" y2="1895.60088" stroke="black" stroke-width="6.48"/>
<line x1="2000.610767" y1="1895.60088" x2="2000.610767" y2="1686.51288" stroke="black" stroke-width="6.48"/>
<line x1="1485.415969" y1="209.267824" x2="1707.693134" y2="209.267824" stroke="black" stroke-width="6.48"/>
<line x1="1707.693134" y1="209.267824" x2="1707.693134" y2="432.000475" stroke="black" stroke-width="6.48"/>
<line x1="1707.693134" y1="432.000475" x2="1485.415969" y2="432.000475" stroke="black" stroke-width="6.48"/>
<line x1="1485.415969" y1="432.000475" x2="1485.415969" y2="209.267824" stroke="black" stroke-width="6.48"/>
<line x1="1484.960483" y1="208.812337" x2="1707.693134" y2="432.000475" stroke="black" stroke-width="6.48"/>
<line x1="1485.415969" y1="431.544989" x2="1707.237648" y2="209.267824" stroke="black" stroke-width="6.48"/>
<line x1="2761.020558" y1="2194.614338" x2="2761.020558" y2="1803.366338" stroke="black" stroke-width="6.48"/>
<line x1="2761.020558" y1="1803.366338" x2="2586.780558" y2="1803.366338" stroke="black" stroke-width="6.48"/>
<line x1="2586.780558" y1="1803.366338" x2="2586.780558" y2="2194.614338" stroke="black" stroke-width="6.48"/>
<line x1="2586.780558" y1="2194.614338" x2="2761.020558" y2="2194.614338" stroke="black" stroke-width="6.48"/>
<line x1="2613.708558" y1="1878.606338" x2="2613.708558" y2="2162.934338" stroke="black" stroke-width="6.48"/>
<line x1="2613.708558" y1="2162.934338" x2="2731.716558" y2="2162.934338" stroke="black" stroke-width="6.48"/>
<line x1="2731.716558" y1="2162.934338" x2="2731.716558" y2="1873.062338" stroke="black" stroke-width="6.48"/>
<path d="m 2613.453134,1879.416911 a 63.3599990854681,63.3599990854681 0 0 1 119.3743300000001,-4.293814000000111" fill="none" stroke="black" stroke-width="6.48"/>
<line x1="2105.795754" y1="1904.905548" x2="2105.795754" y2="2088.649548" stroke="black" stroke-width="6.48"/>
<line x1="2105.795754" y1="2088.649548" x2="2056.691754" y2="2088.649548" stroke="black" stroke-width="6.48"/>
<line x1="2056.691754" y1="1904.905548" x2="2056.691754" y2="2088.649548" stroke="black" stroke-width="6.48"/>
<line x1="2105.795754" y1="1904.905548" x2="2056.691754" y2="1904.905548" stroke="black" stroke-width="6.48"/>
<line x1="2133.515754" y1="1946.485548" x2="2105.795754" y2="1946.485548" stroke="black" stroke-width="6.48"/>
<line x1="2105.795754" y1="2045.485548" x2="2135.099754" y2="2045.485548" stroke="black" stroke-width="6.48"/>
<circle cx="2178.659754" cy="1995.193548" r="66.52800000000002" fill="none" stroke="black" stroke-width="6.48"/>
<circle cx="2178.659754" cy="1995.193548" r="57.02400000000001" fill="none" stroke="black" stroke-width="6.48"/>
<line x1="971.338388" y1="210.125934" x2="1241.885588" y2="210.125934" stroke="black" stroke-width="6.48"/>
<line x1="1241.885588" y1="210.125934" x2="1241.885588" y2="342.073134" stroke="black" stroke-width="6.48"/>
<line x1="971.338388" y1="342.073134" x2="1241.885588" y2="342.073134" stroke="black" stroke-width="6.48"/>
<line x1="971.338388" y1="210.125934" x2="971.338388" y2="342.073134" stroke="black" stroke-width="6.48"/>
<line x1="977.991188" y1="216.778734" x2="1116.036788" y2="216.778734" stroke="black" stroke-width="6.48"/>
<line x1="1116.036788" y1="216.778734" x2="1116.036788" y2="334.865934" stroke="black" stroke-width="6.48"/>
<line x1="977.991188" y1="334.865934" x2="1116.036788" y2="334.865934" stroke="black" stroke-width="6.48"/>
<line x1="977.991188" y1="216.778734" x2="977.991188" y2="334.865934" stroke="black" stroke-width="6.48"/>
<line x1="1130.451188" y1="224.540334" x2="1227.471188" y2="224.540334" stroke="black" stroke-width="6.48"/>
<line x1="1130.451188" y1="245.053134" x2="1227.471188" y2="245.053134" stroke="black" stroke-width="6.48"/>
<line x1="1131.005588" y1="266.120334" x2="1228.025588" y2="266.120334" stroke="black" stroke-width="6.48"/>
<line x1="1131.005588" y1="286.633134" x2="1228.025588" y2="286.633134" stroke="black" stroke-width="6.48"/>
<line x1="1130.451188" y1="307.145934" x2="1227.471188" y2="307.145934" stroke="black" stroke-width="6.48"/>
<line x1="1130.451188" y1="327.658734" x2="1227.471188" y2="327.658734" stroke="black" stroke-width="6.48"/>
<line x1="1030.659188" y1="334.865934" x2="1030.659188" y2="321.005934" stroke="black" stroke-width="6.48"/>
<line x1="1030.659188" y1="321.005934" x2="1065.031988" y2="321.005934" stroke="black" stroke-width="6.48"/>
<line x1="1065.031988" y1="321.005934" x2="1065.031988" y2="334.311534" stroke="black" stroke-width="6.48"/>
<circle cx="1100.513588" cy="231.747534" r="8.316000000000003" fill="none" stroke="black" stroke-width="6.48"/>
<line x1="868.559231" y1="1289.69874" x2="930.579052" y2="1173.056422" stroke="black" stroke-width="6.48"/>
<line x1="930.579052" y1="1173.056422" x2="943.166354" y2="1179.749207" stroke="black" stroke-width="6.48"/>
<line x1="881.14653" y1="1296.391529" x2="943.166354" y2="1179.749207" stroke="black" stroke-width="6.48"/>
<line x1="868.559231" y1="1289.69874" x2="881.14653" y2="1296.391529" stroke="black" stroke-width="6.48"/>
<line x1="887.393135" y1="1284.643382" x2="914.192824" y2="1301.045821" stroke="black" stroke-width="6.48"/>
<line x1="936.919753" y1="1191.497353" x2="966.343342" y2="1204.989361" stroke="black" stroke-width="6.48"/>
<line x1="1275.548627" y1="1506.09884" x2="1337.568448" y2="1389.456522" stroke="black" stroke-width="6.48"/>
<line x1="1337.568448" y1="1389.456522" x2="1325.820301" y2="1383.209921" stroke="black" stroke-width="6.48"/>
<line x1="1263.80048" y1="1499.852243" x2="1325.820301" y2="1383.209921" stroke="black" stroke-width="6.48"/>
<line x1="1275.548627" y1="1506.09884" x2="1263.80048" y2="1499.852243" stroke="black" stroke-width="6.48"/>
<line x1="1267.922585" y1="1488.050874" x2="1239.338153" y2="1475.005054" stroke="black" stroke-width="6.48"/>
<line x1="1317.44921" y1="1394.904848" x2="1290.256549" y2="1377.217073" stroke="black" stroke-width="6.48"/>
<line x1="1152.496544" y1="1105.912174" x2="1145.803759" y2="1118.499476" stroke="black" stroke-width="6.48"/>
<line x1="1145.803759" y1="1118.499476" x2="1262.446081" y2="1180.519301" stroke="black" stroke-width="6.48"/>
<line x1="1269.138866" y1="1167.931998" x2="1262.446081" y2="1180.519301" stroke="black" stroke-width="6.48"/>
<line x1="1152.496544" y1="1105.912174" x2="1269.138866" y2="1167.931998" stroke="black" stroke-width="6.48"/>
<line x1="1249.858778" y1="1173.826512" x2="1237.205923" y2="1203.696284" stroke="black" stroke-width="6.48"/>
<line x1="1157.551906" y1="1124.746078" x2="1140.703283" y2="1152.384919" stroke="black" stroke-width="6.48"/>
<line x1="935.703475" y1="1511.616233" x2="942.396264" y2="1499.02893" stroke="black" stroke-width="6.48"/>
<line x1="942.396264" y1="1499.02893" x2="1059.038586" y2="1561.048754" stroke="black" stroke-width="6.48"/>
<line x1="1052.345797" y1="1573.636054" x2="1059.038586" y2="1561.048754" stroke="black" stroke-width="6.48"/>
<line x1="935.703475" y1="1511.616233" x2="1052.345797" y2="1573.636054" stroke="black" stroke-width="6.48"/>
<line x1="1046.451283" y1="1554.355969" x2="1064.139062" y2="1527.163308" stroke="black" stroke-width="6.48"/>
<line x1="954.14441" y1="1505.275535" x2="967.636418" y2="1475.851946" stroke="black" stroke-width="6.48"/>
<circle cx="1102.421171" cy="1339.774117" r="191.98080000000002" fill="none" stroke="black" stroke-width="6.48"/>
<line x1="2044.889399" y1="955.822399" x2="2267.166564" y2="955.822399" stroke="black" stroke-width="6.48"/>
<line x1="2267.166564" y1="955.822399" x2="2267.166564" y2="1178.555051" stroke="black" stroke-width="6.48"/>
<line x1="2267.166564" y1="1178.555051" x2="2044.889399" y2="1178.555051" stroke="black" stroke-width="6.48"/>
<line x1="2044.889399" y1="1178.555051" x2="2044.889399" y2="955.822399" stroke="black" stroke-width="6.48"/>
<line x1="2044.433912" y1="955.366913" x2="2267.166564" y2="1178.555051" stroke="black" stroke-width="6.48"/>
<line x1="2044.889399" y1="1178.099564" x2="2266.711078" y2="955.822399" stroke="black" stroke-width="6.48"/>
<line x1="333.766206" y1="1375.361078" x2="333.766206" y2="949.854546" stroke="black" stroke-width="6.48"/>
<line x1="333.766206" y1="949.854546" x2="257.659348" y2="949.854546" stroke="black" stroke-width="6.48"/>
<line x1="257.659348" y1="949.854546" x2="257.659348" y2="1375.361078" stroke="black" stroke-width="6.48"/>
<line x1="257.659348" y1="1375.361078" x2="333.766206" y2="1375.361078" stroke="black" stroke-width="6.48"/>
<line x1="333.766206" y1="1355.469512" x2="359.711726" y2="1355.469512" stroke="black" stroke-width="6.48"/>
<line x1="359.711726" y1="1355.469512" x2="359.711726" y2="970.610962" stroke="black" stroke-width="6.48"/>
<line x1="333.766206" y1="970.610962" x2="359.711726" y2="970.610962" stroke="black" stroke-width="6.48"/>
<line x1="3874.406537" y1="1514.726719" x2="3874.406537" y2="1940.260162" stroke="black" stroke-width="6.48"/>
<line x1="3874.406537" y1="1940.260162" x2="3940.00601" y2="1940.260162" stroke="black" stroke-width="6.48"/>
<line x1="3940.00601" y1="1940.260162" x2="3940.00601" y2="1514.726719" stroke="black" stroke-width="6.48"/>
<line x1="3940.00601" y1="1514.726719" x2="3874.406537" y2="1514.726719" stroke="black" stroke-width="6.48"/>
<line x1="3939.14286" y1="1554.431663" x2="3875.269687" y2="1554.431663" stroke="black" stroke-width="6.48"/>
<line x1="3939.14286" y1="1899.692064" x2="3872.680232" y2="1899.692064" stroke="black" stroke-width="6.48"/>
<line x1="3908.932574" y1="1553.568512" x2="3908.932574" y2="1898.828914" stroke="black" stroke-width="6.48"/>
<line x1="5071.599731" y1="1480.080913" x2="4690.436519" y2="1575.115574" stroke="black" stroke-width="6.48"/>
<line x1="4690.436519" y1="1575.115574" x2="4735.079816" y2="1754.170063" stroke="black" stroke-width="6.48"/>
<line x1="4735.079816" y1="1754.170063" x2="5116.243028" y2="1659.135402" stroke="black" stroke-width="6.48"/>
<line x1="5116.243028" y1="1659.135402" x2="5071.599731" y2="1480.080913" stroke="black" stroke-width="6.48"/>
<line x1="4961.779711" y1="1697.647435" x2="4981.323132" y2="1776.031801" stroke="black" stroke-width="6.48"/>
<line x1="4981.323132" y1="1776.031801" x2="5057.402076" y2="1757.063192" stroke="black" stroke-width="6.48"/>
<line x1="5057.402076" y1="1757.063192" x2="5037.858659" y2="1678.678823" stroke="black" stroke-width="6.48"/>
<line x1="5052.418358" y1="1740.34836" x2="4977.107881" y2="1759.12537" stroke="black" stroke-width="6.48"/>
<line x1="4973.480338" y1="1420.471483" x2="4897.401394" y2="1439.440099" stroke="black" stroke-width="6.48"/>
<line x1="4897.401394" y1="1439.440099" x2="4917.136414" y2="1518.592943" stroke="black" stroke-width="6.48"/>
<line x1="4993.215361" y1="1499.62433" x2="4973.480338" y2="1420.471483" stroke="black" stroke-width="6.48"/>
<line x1="4976.927111" y1="1437.569521" x2="4901.616641" y2="1456.346531" stroke="black" stroke-width="6.48"/>
<line x1="4815.001134" y1="1734.243444" x2="4834.544555" y2="1812.627814" stroke="black" stroke-width="6.48"/>
<line x1="4834.544555" y1="1812.627814" x2="4910.623502" y2="1793.659201" stroke="black" stroke-width="6.48"/>
<line x1="4910.623502" y1="1793.659201" x2="4891.080085" y2="1715.274832" stroke="black" stroke-width="6.48"/>
<line x1="4906.408255" y1="1776.75277" x2="4830.329308" y2="1795.721382" stroke="black" stroke-width="6.48"/>
<line x1="4826.701764" y1="1457.067496" x2="4750.622816" y2="1476.036104" stroke="black" stroke-width="6.48"/>
<line x1="4750.622816" y1="1476.036104" x2="4770.357836" y2="1555.188952" stroke="black" stroke-width="6.48"/>
<line x1="4846.436784" y1="1536.220339" x2="4826.701764" y2="1457.067496" stroke="black" stroke-width="6.48"/>
<line x1="4830.917011" y1="1473.973927" x2="4754.838064" y2="1492.942536" stroke="black" stroke-width="6.48"/>
<line x1="3506.906333" y1="1075.645361" x2="3716.271536" y2="1075.645361" stroke="black" stroke-width="6.48"/>
<line x1="3716.271536" y1="1075.645361" x2="3716.271536" y2="744.430957" stroke="black" stroke-width="6.48"/>
<line x1="3716.271536" y1="744.430957" x2="3506.906333" y2="744.430957" stroke="black" stroke-width="6.48"/>
<line x1="3506.906333" y1="744.430957" x2="3506.906333" y2="1075.645361" stroke="black" stroke-width="6.48"/>
<line x1="3506.233133" y1="803.672557" x2="3716.944733" y2="803.672557" stroke="black" stroke-width="6.48"/>
<line x1="3716.944733" y1="803.672557" x2="3507.579533" y2="853.489361" stroke="black" stroke-width="6.48"/>
<line x1="3507.579533" y1="853.489361" x2="3539.219936" y2="899.940161" stroke="black" stroke-width="6.48"/>
<line x1="3539.219936" y1="899.940161" x2="3716.944733" y2="802.999361" stroke="black" stroke-width="6.48"/>
<line x1="3203.715499" y1="1203.969226" x2="3425.992664" y2="1203.969226" stroke="black" stroke-width="6.48"/>
<line x1="3425.992664" y1="1203.969226" x2="3425.992664" y2="1426.701877" stroke="black" stroke-width="6.48"/>
<line x1="3425.992664" y1="1426.701877" x2="3203.715499" y2="1426.701877" stroke="black" stroke-width="6.48"/>
<line x1="3203.715499" y1="1426.701877" x2="3203.715499" y2="1203.969226" stroke="black" stroke-width="6.48"/>
<line x1="3203.260013" y1="1203.513739" x2="3425.992664" y2="1426.701877" stroke="black" stroke-width="6.48"/>
<line x1="3203.715499" y1="1426.246391" x2="3425.537178" y2="1203.969226" stroke="black" stroke-width="6.48"/>
<line x1="2804.16708" y1="1127.69402" x2="2804.16708" y2="1153.148746" stroke="black" stroke-width="6.48"/>
<line x1="2804.16708" y1="1153.148746" x2="2853.834836" y2="1153.148746" stroke="black" stroke-width="6.48"/>
<line x1="2853.834836" y1="1153.148746" x2="2853.834836" y2="1127.69402" stroke="black" stroke-width="6.48"/>
<line x1="2853.834836" y1="1127.69402" x2="2804.16708" y2="1127.69402" stroke="black" stroke-width="6.48"/>
<line x1="2853.834836" y1="1402.108373" x2="3101.55277" y2="1402.108373" stroke="black" stroke-width="6.48"/>
<line x1="2802.925386" y1="1402.729218" x2="2802.925386" y2="1428.183943" stroke="black" stroke-width="6.48"/>
<line x1="2802.925386" y1="1428.183943" x2="2852.593142" y2="1428.183943" stroke="black" stroke-width="6.48"/>
<line x1="2852.593142" y1="1428.183943" x2="2852.593142" y2="1402.729218" stroke="black" stroke-width="6.48"/>
<line x1="2852.593142" y1="1402.729218" x2="2802.925386" y2="1402.729218" stroke="black" stroke-width="6.48"/>
<path d="m 2851.972294,1153.148746 a 248.95962699999984,248.95962699999984 0 0 1 248.95962699999973,248.95962699999995" fill="none" stroke="black" stroke-width="6.48"/>
<line x1="2964.842575" y1="2025.468965" x2="2893.63743" y2="2201.708102" stroke="black" stroke-width="6.48"/>
<line x1="2893.63743" y1="2201.708102" x2="3323.660926" y2="2375.448653" stroke="black" stroke-width="6.48"/>
<line x1="3323.660926" y1="2375.448653" x2="3394.866071" y2="2199.209515" stroke="black" stroke-width="6.48"/>
<line x1="3394.866071" y1="2199.209515" x2="3372.83618" y2="2190.308872" stroke="black" stroke-width="6.48"/>
<line x1="3372.83618" y1="2190.308872" x2="3310.175653" y2="2345.399316" stroke="black" stroke-width="6.48"/>
<line x1="3310.175653" y1="2345.399316" x2="2925.093136" y2="2189.816075" stroke="black" stroke-width="6.48"/>
<line x1="2925.093136" y1="2189.816075" x2="2987.753663" y2="2034.725634" stroke="black" stroke-width="6.48"/>
<line x1="2987.753663" y1="2034.725634" x2="2964.842575" y2="2025.468965" stroke="black" stroke-width="6.48"/>
<line x1="2985.617509" y1="2040.012806" x2="3370.700027" y2="2195.596048" stroke="black" stroke-width="6.48"/>
<line x1="3178.074193" y1="2116.745219" x2="3117.549823" y2="2266.548487" stroke="black" stroke-width="6.48"/>
<line x1="3420.802357" y1="1697.969005" x2="3651.4296" y2="1673.729104" stroke="black" stroke-width="6.48"/>
<line x1="3651.4296" y1="1673.729104" x2="3675.719171" y2="1904.828944" stroke="black" stroke-width="6.48"/>
<line x1="3675.719171" y1="1904.828944" x2="3445.091928" y2="1929.068845" stroke="black" stroke-width="6.48"/>
<line x1="3445.091928" y1="1929.068845" x2="3420.802357" y2="1697.969005" stroke="black" stroke-width="6.48"/>
<line x1="3420.280091" y1="1697.546081" x2="3675.719171" y2="1904.828944" stroke="black" stroke-width="6.48"/>
<line x1="3445.042259" y1="1928.596244" x2="3650.956999" y2="1673.778776" stroke="black" stroke-width="6.48"/>
<line x1="3122.190896" y1="1589.315882" x2="3101.926547" y2="1612.627351" stroke="black" stroke-width="6.48"/>
<line x1="3101.926547" y1="1612.627351" x2="3260.085901" y2="1750.113184" stroke="black" stroke-width="6.48"/>
<line x1="3260.085901" y1="1750.113184" x2="3280.350251" y2="1726.801711" stroke="black" stroke-width="6.48"/>
<line x1="3280.350251" y1="1726.801711" x2="3122.190896" y2="1589.315882" stroke="black" stroke-width="6.48"/>
<line x1="2988.446177" y1="1743.171581" x2="2968.181827" y2="1766.48305" stroke="black" stroke-width="6.48"/>
<line x1="2968.181827" y1="1766.48305" x2="3126.341182" y2="1903.968882" stroke="black" stroke-width="6.48"/>
<line x1="3126.341182" y1="1903.968882" x2="3146.605531" y2="1880.65741" stroke="black" stroke-width="6.48"/>
<line x1="3146.605531" y1="1880.65741" x2="2988.446177" y2="1743.171581" stroke="black" stroke-width="6.48"/>
<line x1="3102.238307" y1="1612.268716" x2="2988.446177" y2="1743.171581" stroke="black" stroke-width="6.48"/>
<line x1="3259.992143" y1="1748.772385" x2="3262.258714" y2="1786.002872" stroke="black" stroke-width="6.48"/>
<line x1="3182.760104" y1="1877.455559" x2="3145.576496" y2="1880.392529" stroke="black" stroke-width="6.48"/>
<line x1="3263.50575" y1="1784.568323" x2="3181.513064" y2="1878.890116" stroke="black" stroke-width="6.48"/>
<line x1="3135.638516" y1="1641.932723" x2="3021.84639" y2="1772.835588" stroke="black" stroke-width="6.48"/>
<line x1="5727.101281" y1="1463.273824" x2="5721.737638" y2="1493.692564" stroke="black" stroke-width="6.48"/>
<line x1="5721.737638" y1="1493.692564" x2="5928.117102" y2="1530.082832" stroke="black" stroke-width="6.48"/>
<line x1="5928.117102" y1="1530.082832" x2="5933.480746" y2="1499.664089" stroke="black" stroke-width="6.48"/>
<line x1="5933.480746" y1="1499.664089" x2="5727.101281" y2="1463.273824" stroke="black" stroke-width="6.48"/>
<line x1="5691.701225" y1="1664.037518" x2="5686.337578" y2="1694.456258" stroke="black" stroke-width="6.48"/>
<line x1="5686.337578" y1="1694.456258" x2="5892.717046" y2="1730.846527" stroke="black" stroke-width="6.48"/>
<line x1="5892.717046" y1="1730.846527" x2="5898.080686" y2="1700.427784" stroke="black" stroke-width="6.48"/>
<line x1="5898.080686" y1="1700.427784" x2="5691.701225" y2="1664.037518" stroke="black" stroke-width="6.48"/>
<line x1="5721.820153" y1="1493.224582" x2="5691.701225" y2="1664.037518" stroke="black" stroke-width="6.48"/>
<line x1="5927.346176" y1="1528.981834" x2="5948.464122" y2="1559.727216" stroke="black" stroke-width="6.48"/>
<line x1="5927.422133" y1="1679.062284" x2="5897.06221" y2="1700.730731" stroke="black" stroke-width="6.48"/>
<line x1="5948.794192" y1="1557.855299" x2="5927.092063" y2="1680.934205" stroke="black" stroke-width="6.48"/>
<line x1="5765.727816" y1="1501.449221" x2="5735.608888" y2="1672.262154" stroke="black" stroke-width="6.48"/>
<line x1="990.7362" y1="1724.495987" x2="901.499" y2="1892.32664" stroke="black" stroke-width="6.48"/>
<line x1="901.499" y1="1892.32664" x2="1311.005801" y2="2110.065401" stroke="black" stroke-width="6.48"/>
<line x1="1311.005801" y1="2110.065401" x2="1400.243" y2="1942.23474" stroke="black" stroke-width="6.48"/>
<line x1="1400.243" y1="1942.23474" x2="1379.26417" y2="1931.08009" stroke="black" stroke-width="6.48"/>
<line x1="1379.26417" y1="1931.08009" x2="1300.735433" y2="2078.771069" stroke="black" stroke-width="6.48"/>
<line x1="1300.735433" y1="2078.771069" x2="934.02545" y2="1883.787797" stroke="black" stroke-width="6.48"/>
<line x1="934.02545" y1="1883.787797" x2="1012.55418" y2="1736.096818" stroke="black" stroke-width="6.48"/>
<line x1="1012.55418" y1="1736.096818" x2="990.7362" y2="1724.495987" stroke="black" stroke-width="6.48"/>
<line x1="1009.877069" y1="1741.131742" x2="1376.587051" y2="1936.115014" stroke="black" stroke-width="6.48"/>
<line x1="1193.258664" y1="1837.561126" x2="1117.407053" y2="1980.217188" stroke="black" stroke-width="6.48"/>
<line x1="6129.846965" y1="1939.473144" x2="6065.235216" y2="2138.327647" stroke="black" stroke-width="6.48"/>
<line x1="6065.235216" y1="2138.327647" x2="6285.782941" y2="2209.987948" stroke="black" stroke-width="6.48"/>
<line x1="6285.782941" y1="2209.987948" x2="6350.394686" y2="2011.133441" stroke="black" stroke-width="6.48"/>
<line x1="6350.394686" y1="2011.133441" x2="6129.846965" y2="1939.473144" stroke="black" stroke-width="6.48"/>
<line x1="6160.579024" y1="1949.458597" x2="6095.967275" y2="2148.3131" stroke="black" stroke-width="6.48"/>
</g>
</svg>
