<?xml version="1.0"?>
<svg xmlns:xlink="http://www.w3.org/1999/xlink" width="6775.2" height="2858.4">
<image x="0" y="0" width="6775.2" height="2858.4" xlink:href="groundfilled-01.png"/>
<g style="stroke-linecap:round">
<line x1="1285.950406" y1="795.178109" x2="1311.346069" y2="795.178109" stroke="black" stroke-width="6.48"/>
<line x1="1311.346069" y1="795.178109" x2="1311.346069" y2="745.625592" stroke="black" stroke-width="6.48"/>
<line x1="1311.346069" y1="745.625592" x2="1285.950406" y2="745.625592" stroke="black" stroke-width="6.48"/>
<line x1="1285.950406" y1="745.625592" x2="1285.950406" y2="795.178109" stroke="black" stroke-width="6.48"/>
<line x1="1559.728062" y1="745.625592" x2="1559.728062" y2="498.48241" stroke="black" stroke-width="6.48"/>
<line x1="1560.347471" y1="796.416923" x2="1585.743134" y2="796.416923" stroke="black" stroke-width="6.48"/>
<line x1="1585.743134" y1="796.416923" x2="1585.743134" y2="746.864406" stroke="black" stroke-width="6.48"/>
<line x1="1585.743134" y1="746.864406" x2="1560.347471" y2="746.864406" stroke="black" stroke-width="6.48"/>
<line x1="1560.347471" y1="746.864406" x2="1560.347471" y2="796.416923" stroke="black" stroke-width="6.48"/>
<path d="m 1311.346069,747.483811 a 248.38199299999997,248.38199299999997 0 0 1 248.38199299999997,-248.38199299999997" fill="none" stroke="black" stroke-width="6.48"/>
<line x1="320.532556" y1="771.34176" x2="320.532556" y2="366.736194" stroke="black" stroke-width="6.48"/>
<line x1="320.532556" y1="366.736194" x2="258.159283" y2="366.736194" stroke="black" stroke-width="6.48"/>
<line x1="258.159283" y1="366.736194" x2="258.159283" y2="771.34176" stroke="black" stroke-width="6.48"/>
<line x1="258.159283" y1="771.34176" x2="320.532556" y2="771.34176" stroke="black" stroke-width="6.48"/>
<line x1="258.979986" y1="733.589518" x2="319.711856" y2="733.589518" stroke="black" stroke-width="6.48"/>
<line x1="258.979986" y1="405.309139" x2="322.173958" y2="405.309139" stroke="black" stroke-width="6.48"/>
<line x1="287.704519" y1="734.410217" x2="287.704519" y2="406.129838" stroke="black" stroke-width="6.48"/>
<line x1="3901.945176" y1="1169.331426" x2="3901.945176" y2="1428.837066" stroke="black" stroke-width="6.48"/>
<line x1="3901.945176" y1="1428.837066" x2="3941.9501" y2="1428.837066" stroke="black" stroke-width="6.48"/>
<line x1="3941.9501" y1="1428.837066" x2="3941.9501" y2="1169.331426" stroke="black" stroke-width="6.48"/>
<line x1="3941.9501" y1="1169.331426" x2="3901.945176" y2="1169.331426" stroke="black" stroke-width="6.48"/>
<line x1="3941.423719" y1="1193.544936" x2="3902.471557" y2="1193.544936" stroke="black" stroke-width="6.48"/>
<line x1="3941.423719" y1="1404.097178" x2="3900.892414" y2="1404.097178" stroke="black" stroke-width="6.48"/>
<line x1="3923.000399" y1="1193.018555" x2="3923.000399" y2="1403.570797" stroke="black" stroke-width="6.48"/>
<line x1="323.923298" y1="1882.957399" x2="323.923298" y2="1457.423957" stroke="black" stroke-width="6.48"/>
<line x1="323.923298" y1="1457.423957" x2="258.323825" y2="1457.423957" stroke="black" stroke-width="6.48"/>
<line x1="258.323825" y1="1457.423957" x2="258.323825" y2="1882.957399" stroke="black" stroke-width="6.48"/>
<line x1="258.323825" y1="1882.957399" x2="323.923298" y2="1882.957399" stroke="black" stroke-width="6.48"/>
<line x1="259.186975" y1="1843.252456" x2="323.060148" y2="1843.252456" stroke="black" stroke-width="6.48"/>
<line x1="259.186975" y1="1497.992054" x2="325.649603" y2="1497.992054" stroke="black" stroke-width="6.48"/>
<line x1="289.397261" y1="1844.115606" x2="289.397261" y2="1498.855205" stroke="black" stroke-width="6.48"/>
<line x1="2747.905531" y1="904.670665" x2="2721.68303" y2="904.670665" stroke="black" stroke-width="6.48"/>
<line x1="2721.68303" y1="904.670665" x2="2721.68303" y2="955.836522" stroke="black" stroke-width="6.48"/>
<line x1="2721.68303" y1="955.836522" x2="2747.905531" y2="955.836522" stroke="black" stroke-width="6.48"/>
<line x1="2747.905531" y1="955.836522" x2="2747.905531" y2="904.670665" stroke="black" stroke-width="6.48"/>
<line x1="2465.214181" y1="955.836522" x2="2465.214181" y2="1211.026223" stroke="black" stroke-width="6.48"/>
<line x1="2464.574609" y1="903.39152" x2="2438.352108" y2="903.39152" stroke="black" stroke-width="6.48"/>
<line x1="2438.352108" y1="903.39152" x2="2438.352108" y2="954.557374" stroke="black" stroke-width="6.48"/>
<line x1="2438.352108" y1="954.557374" x2="2464.574609" y2="954.557374" stroke="black" stroke-width="6.48"/>
<line x1="2464.574609" y1="954.557374" x2="2464.574609" y2="903.39152" stroke="black" stroke-width="6.48"/>
<path d="m 2721.68303,953.917801 a 256.4688490000001,256.4688490000001 0 0 1 -256.4688490000003,256.46884899999986" fill="none" stroke="black" stroke-width="6.48"/>
<line x1="2420.532389" y1="1427.858834" x2="2395.136725" y2="1427.858834" stroke="black" stroke-width="6.48"/>
<line x1="2395.136725" y1="1427.858834" x2="2395.136725" y2="1477.411351" stroke="black" stroke-width="6.48"/>
<line x1="2395.136725" y1="1477.411351" x2="2420.532389" y2="1477.411351" stroke="black" stroke-width="6.48"/>
<line x1="2420.532389" y1="1477.411351" x2="2420.532389" y2="1427.858834" stroke="black" stroke-width="6.48"/>
<line x1="2146.754732" y1="1477.411351" x2="2146.754732" y2="1724.554534" stroke="black" stroke-width="6.48"/>
<line x1="2146.135324" y1="1426.62002" x2="2120.73966" y2="1426.62002" stroke="black" stroke-width="6.48"/>
<line x1="2120.73966" y1="1426.62002" x2="2120.73966" y2="1476.172537" stroke="black" stroke-width="6.48"/>
<line x1="2120.73966" y1="1476.172537" x2="2146.135324" y2="1476.172537" stroke="black" stroke-width="6.48"/>
<line x1="2146.135324" y1="1476.172537" x2="2146.135324" y2="1426.62002" stroke="black" stroke-width="6.48"/>
<path d="m 2395.136725,1475.553132 a 248.38199299999997,248.38199299999997 0 0 1 -248.38199299999997,248.38199299999997" fill="none" stroke="black" stroke-width="6.48"/>
<line x1="743.676988" y1="692.136151" x2="1136.508988" y2="692.136151" stroke="black" stroke-width="6.48"/>
<line x1="1136.508988" y1="692.136151" x2="1136.508988" y2="507.600151" stroke="black" stroke-width="6.48"/>
<line x1="1136.508988" y1="507.600151" x2="743.676988" y2="507.600151" stroke="black" stroke-width="6.48"/>
<line x1="743.676988" y1="507.600151" x2="743.676988" y2="692.136151" stroke="black" stroke-width="6.48"/>
<line x1="902.868988" y1="507.600151" x2="902.868988" y2="426.816151" stroke="black" stroke-width="6.48"/>
<line x1="902.868988" y1="426.816151" x2="824.460988" y2="426.816151" stroke="black" stroke-width="6.48"/>
<line x1="824.460988" y1="426.816151" x2="824.460988" y2="507.600151" stroke="black" stroke-width="6.48"/>
<line x1="825.252988" y1="444.240151" x2="902.868988" y2="444.240151" stroke="black" stroke-width="6.48"/>
<line x1="824.460988" y1="773.712151" x2="902.868988" y2="773.712151" stroke="black" stroke-width="6.48"/>
<line x1="902.868988" y1="773.712151" x2="902.868988" y2="692.136151" stroke="black" stroke-width="6.48"/>
<line x1="824.460988" y1="692.136151" x2="824.460988" y2="773.712151" stroke="black" stroke-width="6.48"/>
<line x1="825.252988" y1="756.288151" x2="902.868988" y2="756.288151" stroke="black" stroke-width="6.48"/>
<line x1="1054.140988" y1="507.600151" x2="1054.140988" y2="426.816151" stroke="black" stroke-width="6.48"/>
<line x1="1054.140988" y1="426.816151" x2="975.732988" y2="426.816151" stroke="black" stroke-width="6.48"/>
<line x1="975.732988" y1="426.816151" x2="975.732988" y2="507.600151" stroke="black" stroke-width="6.48"/>
<line x1="975.732988" y1="444.240151" x2="1054.140988" y2="444.240151" stroke="black" stroke-width="6.48"/>
<line x1="975.732988" y1="773.712151" x2="1054.140988" y2="773.712151" stroke="black" stroke-width="6.48"/>
<line x1="1054.140988" y1="773.712151" x2="1054.140988" y2="692.136151" stroke="black" stroke-width="6.48"/>
<line x1="975.732988" y1="692.136151" x2="975.732988" y2="773.712151" stroke="black" stroke-width="6.48"/>
<line x1="975.732988" y1="756.288151" x2="1054.140988" y2="756.288151" stroke="black" stroke-width="6.48"/>
<line x1="2032.924367" y1="1760.921395" x2="2032.924367" y2="1551.833395" stroke="black" stroke-width="6.48"/>
<line x1="2032.924367" y1="1551.833395" x2="1801.026767" y2="1551.833395" stroke="black" stroke-width="6.48"/>
<line x1="1801.026767" y1="1551.833395" x2="1801.026767" y2="1760.921395" stroke="black" stroke-width="6.48"/>
<line x1="1801.026767" y1="1760.921395" x2="2032.924367" y2="1760.921395" stroke="black" stroke-width="6.48"/>
<line x1="2000.610767" y1="1760.921395" x2="2000.610767" y2="1551.833395" stroke="black" stroke-width="6.48"/>
<line x1="1485.415969" y1="209.267824" x2="1707.693134" y2="209.267824" stroke="black" stroke-width="6.48"/>
<line x1="1707.693134" y1="209.267824" x2="1707.693134" y2="432.000475" stroke="black" stroke-width="6.48"/>
<line x1="1707.693134" y1="432.000475" x2="1485.415969" y2="432.000475" stroke="black" stroke-width="6.48"/>
<line x1="1485.415969" y1="432.000475" x2="1485.415969" y2="209.267824" stroke="black" stroke-width="6.48"/>
<line x1="1484.960483" y1="208.812337" x2="1707.693134" y2="432.000475" stroke="black" stroke-width="6.48"/>
<line x1="1485.415969" y1="431.544989" x2="1707.237648" y2="209.267824" stroke="black" stroke-width="6.48"/>
<line x1="2586.780558" y1="1803.366338" x2="2586.780558" y2="2194.614338" stroke="black" stroke-width="6.48"/>
<line x1="2586.780558" y1="2194.614338" x2="2761.020558" y2="2194.614338" stroke="black" stroke-width="6.48"/>
<line x1="2761.020558" y1="2194.614338" x2="2761.020558" y2="1803.366338" stroke="black" stroke-width="6.48"/>
<line x1="2761.020558" y1="1803.366338" x2="2586.780558" y2="1803.366338" stroke="black" stroke-width="6.48"/>
<line x1="2734.092558" y1="2119.374338" x2="2734.092558" y2="1835.046338" stroke="black" stroke-width="6.48"/>
<line x1="2734.092558" y1="1835.046338" x2="2616.084558" y2="1835.046338" stroke="black" stroke-width="6.48"/>
<line x1="2616.084558" y1="1835.046338" x2="2616.084558" y2="2124.918338" stroke="black" stroke-width="6.48"/>
<path d="m 2734.347982,2118.563766 a 63.35999941905905,63.35999941905905 0 0 1 -119.37432999999965,4.2938139999996565" fill="none" stroke="black" stroke-width="6.48"/>
<line x1="2081.123701" y1="1889.778881" x2="2056.571701" y2="1908.390881" stroke="black" stroke-width="6.48"/>
<line x1="2056.571701" y1="1908.390881" x2="2056.571701" y2="2055.702881" stroke="black" stroke-width="6.48"/>
<line x1="2056.571701" y1="2055.702881" x2="2084.687701" y2="2074.710881" stroke="black" stroke-width="6.48"/>
<line x1="2083.895701" y1="1911.558881" x2="2083.895701" y2="2054.514881" stroke="black" stroke-width="6.48"/>
<circle cx="2105.675701" cy="1980.858881" r="13.068000000000003" fill="none" stroke="black" stroke-width="6.48"/>
<path d="m 2083.228355,1913.112133 a 74.84400053466209,74.84400053466209 0 1 1 0.40204799999992247,139.6090049999998" fill="none" stroke="black" stroke-width="6.48"/>
<path d="m 2080.466338,1889.825184 a 95.43599857690597,95.43599857690597 0 1 1 3.0749579999996968,184.466995" fill="none" stroke="black" stroke-width="6.48"/>
<line x1="685.772298" y1="210.582317" x2="1079.01617" y2="210.582317" stroke="black" stroke-width="6.48"/>
<line x1="1082.971577" y1="209.586035" x2="1082.971577" y2="345.65481" stroke="black" stroke-width="6.48"/>
<line x1="686.236687" y1="346.806317" x2="1083.276918" y2="346.806317" stroke="black" stroke-width="6.48"/>
<line x1="686.971577" y1="211.277066" x2="686.971577" y2="346.541123" stroke="black" stroke-width="6.48"/>
<line x1="697.267577" y1="221.670317" x2="820.819577" y2="221.670317" stroke="black" stroke-width="6.48"/>
<line x1="820.819577" y1="221.670317" x2="820.819577" y2="335.718317" stroke="black" stroke-width="6.48"/>
<line x1="697.267577" y1="335.718317" x2="820.819577" y2="335.718317" stroke="black" stroke-width="6.48"/>
<line x1="697.267577" y1="221.670317" x2="697.267577" y2="335.718317" stroke="black" stroke-width="6.48"/>
<line x1="839.827577" y1="228.798317" x2="926.947577" y2="228.798317" stroke="black" stroke-width="6.48"/>
<line x1="839.827577" y1="248.598317" x2="926.947577" y2="248.598317" stroke="black" stroke-width="6.48"/>
<line x1="840.619577" y1="269.190317" x2="926.947577" y2="269.190317" stroke="black" stroke-width="6.48"/>
<line x1="840.619577" y1="288.990317" x2="926.947577" y2="288.990317" stroke="black" stroke-width="6.48"/>
<line x1="839.827577" y1="308.790317" x2="926.947577" y2="308.790317" stroke="black" stroke-width="6.48"/>
<line x1="839.827577" y1="328.590317" x2="926.947577" y2="328.590317" stroke="black" stroke-width="6.48"/>
<line x1="744.787577" y1="334.926317" x2="744.787577" y2="321.462317" stroke="black" stroke-width="6.48"/>
<line x1="744.787577" y1="321.462317" x2="774.883577" y2="321.462317" stroke="black" stroke-width="6.48"/>
<line x1="774.883577" y1="321.462317" x2="774.883577" y2="334.134317" stroke="black" stroke-width="6.48"/>
<line x1="947.539577" y1="221.670317" x2="1071.091577" y2="221.670317" stroke="black" stroke-width="6.48"/>
<line x1="1071.091577" y1="221.670317" x2="1071.091577" y2="335.718317" stroke="black" stroke-width="6.48"/>
<line x1="947.539577" y1="335.718317" x2="1071.091577" y2="335.718317" stroke="black" stroke-width="6.48"/>
<line x1="947.539577" y1="221.670317" x2="947.539577" y2="335.718317" stroke="black" stroke-width="6.48"/>
<line x1="995.059577" y1="335.718317" x2="995.059577" y2="322.254317" stroke="black" stroke-width="6.48"/>
<line x1="995.059577" y1="322.254317" x2="1025.155577" y2="322.254317" stroke="black" stroke-width="6.48"/>
<line x1="1025.155577" y1="322.254317" x2="1025.155577" y2="334.926317" stroke="black" stroke-width="6.48"/>
<circle cx="806.563577" cy="235.926317" r="7.128000000000001" fill="none" stroke="black" stroke-width="6.48"/>
<circle cx="1056.835577" cy="236.718317" r="7.128000000000001" fill="none" stroke="black" stroke-width="6.48"/>
<line x1="1229.402797" y1="1259.129711" x2="1188.579924" y2="1384.769603" stroke="black" stroke-width="6.48"/>
<line x1="1188.579924" y1="1384.769603" x2="1175.021662" y2="1380.364258" stroke="black" stroke-width="6.48"/>
<line x1="1215.844538" y1="1254.724366" x2="1175.021662" y2="1380.364258" stroke="black" stroke-width="6.48"/>
<line x1="1229.402797" y1="1259.129711" x2="1215.844538" y2="1254.724366" stroke="black" stroke-width="6.48"/>
<line x1="1211.732881" y1="1267.378744" x2="1182.492083" y2="1255.879213" stroke="black" stroke-width="6.48"/>
<line x1="1179.133319" y1="1367.70988" x2="1147.81388" y2="1359.532195" stroke="black" stroke-width="6.48"/>
<line x1="791.019007" y1="1116.690181" x2="750.19613" y2="1242.330077" stroke="black" stroke-width="6.48"/>
<line x1="750.19613" y1="1242.330077" x2="762.850508" y2="1246.44173" stroke="black" stroke-width="6.48"/>
<line x1="803.673385" y1="1120.801838" x2="762.850508" y2="1246.44173" stroke="black" stroke-width="6.48"/>
<line x1="791.019007" y1="1116.690181" x2="803.673385" y2="1120.801838" stroke="black" stroke-width="6.48"/>
<line x1="801.663185" y1="1133.139712" x2="832.078735" y2="1141.023704" stroke="black" stroke-width="6.48"/>
<line x1="769.063622" y1="1233.470848" x2="798.914614" y2="1246.167954" stroke="black" stroke-width="6.48"/>
<line x1="981.693335" y1="1489.429343" x2="986.09868" y2="1475.871084" stroke="black" stroke-width="6.48"/>
<line x1="986.09868" y1="1475.871084" x2="860.458788" y2="1435.048207" stroke="black" stroke-width="6.48"/>
<line x1="856.053443" y1="1448.606466" x2="860.458788" y2="1435.048207" stroke="black" stroke-width="6.48"/>
<line x1="981.693335" y1="1489.429343" x2="856.053443" y2="1448.606466" stroke="black" stroke-width="6.48"/>
<line x1="874.01705" y1="1439.453552" x2="881.29085" y2="1407.840422" stroke="black" stroke-width="6.48"/>
<line x1="973.444302" y1="1471.759427" x2="985.237524" y2="1441.614744" stroke="black" stroke-width="6.48"/>
<line x1="1124.743061" y1="1052.243122" x2="1120.337716" y2="1065.801384" stroke="black" stroke-width="6.48"/>
<line x1="1120.337716" y1="1065.801384" x2="994.69782" y2="1024.978511" stroke="black" stroke-width="6.48"/>
<line x1="999.103165" y1="1011.420245" x2="994.69782" y2="1024.978511" stroke="black" stroke-width="6.48"/>
<line x1="1124.743061" y1="1052.243122" x2="999.103165" y2="1011.420245" stroke="black" stroke-width="6.48"/>
<line x1="1008.256082" y1="1029.383856" x2="995.558976" y2="1059.234847" stroke="black" stroke-width="6.48"/>
<line x1="1107.683338" y1="1061.68973" x2="1099.50565" y2="1093.009169" stroke="black" stroke-width="6.48"/>
<circle cx="990.39825" cy="1250.424796" r="191.98080000000002" fill="none" stroke="black" stroke-width="6.48"/>
<line x1="2044.889399" y1="955.822399" x2="2267.166564" y2="955.822399" stroke="black" stroke-width="6.48"/>
<line x1="2267.166564" y1="955.822399" x2="2267.166564" y2="1178.555051" stroke="black" stroke-width="6.48"/>
<line x1="2267.166564" y1="1178.555051" x2="2044.889399" y2="1178.555051" stroke="black" stroke-width="6.48"/>
<line x1="2044.889399" y1="1178.555051" x2="2044.889399" y2="955.822399" stroke="black" stroke-width="6.48"/>
<line x1="2044.433912" y1="955.366913" x2="2267.166564" y2="1178.555051" stroke="black" stroke-width="6.48"/>
<line x1="2044.889399" y1="1178.099564" x2="2266.711078" y2="955.822399" stroke="black" stroke-width="6.48"/>
<line x1="323.258818" y1="1375.374532" x2="323.258818" y2="949.841089" stroke="black" stroke-width="6.48"/>
<line x1="323.258818" y1="949.841089" x2="257.659344" y2="949.841089" stroke="black" stroke-width="6.48"/>
<line x1="257.659344" y1="949.841089" x2="257.659344" y2="1375.374532" stroke="black" stroke-width="6.48"/>
<line x1="257.659344" y1="1375.374532" x2="323.258818" y2="1375.374532" stroke="black" stroke-width="6.48"/>
<line x1="258.522494" y1="1335.669588" x2="322.395667" y2="1335.669588" stroke="black" stroke-width="6.48"/>
<line x1="258.522494" y1="990.409187" x2="324.985122" y2="990.409187" stroke="black" stroke-width="6.48"/>
<line x1="288.73278" y1="1336.532738" x2="288.73278" y2="991.272337" stroke="black" stroke-width="6.48"/>
<line x1="3874.406537" y1="1514.726719" x2="3874.406537" y2="1940.260162" stroke="black" stroke-width="6.48"/>
<line x1="3874.406537" y1="1940.260162" x2="3940.00601" y2="1940.260162" stroke="black" stroke-width="6.48"/>
<line x1="3940.00601" y1="1940.260162" x2="3940.00601" y2="1514.726719" stroke="black" stroke-width="6.48"/>
<line x1="3940.00601" y1="1514.726719" x2="3874.406537" y2="1514.726719" stroke="black" stroke-width="6.48"/>
<line x1="3939.14286" y1="1554.431663" x2="3875.269687" y2="1554.431663" stroke="black" stroke-width="6.48"/>
<line x1="3939.14286" y1="1899.692064" x2="3872.680232" y2="1899.692064" stroke="black" stroke-width="6.48"/>
<line x1="3908.932574" y1="1553.568512" x2="3908.932574" y2="1898.828914" stroke="black" stroke-width="6.48"/>
<line x1="4856.198339" y1="1945.805843" x2="5233.812696" y2="1837.526666" stroke="black" stroke-width="6.48"/>
<line x1="5233.812696" y1="1837.526666" x2="5182.94768" y2="1660.13928" stroke="black" stroke-width="6.48"/>
<line x1="5182.94768" y1="1660.13928" x2="4805.333327" y2="1768.418453" stroke="black" stroke-width="6.48"/>
<line x1="4805.333327" y1="1768.418453" x2="4856.198339" y2="1945.805843" stroke="black" stroke-width="6.48"/>
<line x1="4958.358498" y1="1724.53919" x2="4936.091411" y2="1646.884627" stroke="black" stroke-width="6.48"/>
<line x1="4936.091411" y1="1646.884627" x2="4860.720803" y2="1668.496799" stroke="black" stroke-width="6.48"/>
<line x1="4860.720803" y1="1668.496799" x2="4882.98789" y2="1746.151366" stroke="black" stroke-width="6.48"/>
<line x1="4866.284826" y1="1685.02752" x2="4940.894113" y2="1663.633649" stroke="black" stroke-width="6.48"/>
<line x1="4956.338297" y1="2001.95464" x2="5031.708905" y2="1980.342464" stroke="black" stroke-width="6.48"/>
<line x1="5031.708905" y1="1980.342464" x2="5009.22351" y2="1901.92658" stroke="black" stroke-width="6.48"/>
<line x1="4933.852906" y1="1923.538756" x2="4956.338297" y2="2001.95464" stroke="black" stroke-width="6.48"/>
<line x1="4952.296912" y1="1984.98731" x2="5026.906202" y2="1963.593443" stroke="black" stroke-width="6.48"/>
<line x1="5103.770476" y1="1682.842975" x2="5081.503388" y2="1605.188416" stroke="black" stroke-width="6.48"/>
<line x1="5081.503388" y1="1605.188416" x2="5006.13278" y2="1626.800587" stroke="black" stroke-width="6.48"/>
<line x1="5006.13278" y1="1626.800587" x2="5028.399871" y2="1704.455154" stroke="black" stroke-width="6.48"/>
<line x1="5010.935486" y1="1643.549612" x2="5086.306094" y2="1621.937437" stroke="black" stroke-width="6.48"/>
<line x1="5101.750278" y1="1960.258424" x2="5177.120886" y2="1938.646249" stroke="black" stroke-width="6.48"/>
<line x1="5177.120886" y1="1938.646249" x2="5154.635491" y2="1860.230365" stroke="black" stroke-width="6.48"/>
<line x1="5079.264887" y1="1881.84254" x2="5101.750278" y2="1960.258424" stroke="black" stroke-width="6.48"/>
<line x1="5096.947572" y1="1943.509399" x2="5172.318176" y2="1921.897228" stroke="black" stroke-width="6.48"/>
<line x1="3213.809514" y1="1074.678044" x2="3423.174718" y2="1074.678044" stroke="black" stroke-width="6.48"/>
<line x1="3423.174718" y1="1074.678044" x2="3423.174718" y2="743.463641" stroke="black" stroke-width="6.48"/>
<line x1="3423.174718" y1="743.463641" x2="3213.809514" y2="743.463641" stroke="black" stroke-width="6.48"/>
<line x1="3213.809514" y1="743.463641" x2="3213.809514" y2="1074.678044" stroke="black" stroke-width="6.48"/>
<line x1="3213.136314" y1="802.705241" x2="3423.847914" y2="802.705241" stroke="black" stroke-width="6.48"/>
<line x1="3423.847914" y1="802.705241" x2="3214.482714" y2="852.522044" stroke="black" stroke-width="6.48"/>
<line x1="3214.482714" y1="852.522044" x2="3246.123118" y2="898.972844" stroke="black" stroke-width="6.48"/>
<line x1="3246.123118" y1="898.972844" x2="3423.847914" y2="802.032044" stroke="black" stroke-width="6.48"/>
<line x1="3334.149101" y1="1203.441156" x2="3556.426266" y2="1203.441156" stroke="black" stroke-width="6.48"/>
<line x1="3556.426266" y1="1203.441156" x2="3556.426266" y2="1426.173808" stroke="black" stroke-width="6.48"/>
<line x1="3556.426266" y1="1426.173808" x2="3334.149101" y2="1426.173808" stroke="black" stroke-width="6.48"/>
<line x1="3334.149101" y1="1426.173808" x2="3334.149101" y2="1203.441156" stroke="black" stroke-width="6.48"/>
<line x1="3333.693614" y1="1202.98567" x2="3556.426266" y2="1426.173808" stroke="black" stroke-width="6.48"/>
<line x1="3334.149101" y1="1425.718321" x2="3555.97078" y2="1203.441156" stroke="black" stroke-width="6.48"/>
<line x1="2804.16708" y1="1127.69402" x2="2804.16708" y2="1153.148746" stroke="black" stroke-width="6.48"/>
<line x1="2804.16708" y1="1153.148746" x2="2853.834836" y2="1153.148746" stroke="black" stroke-width="6.48"/>
<line x1="2853.834836" y1="1153.148746" x2="2853.834836" y2="1127.69402" stroke="black" stroke-width="6.48"/>
<line x1="2853.834836" y1="1127.69402" x2="2804.16708" y2="1127.69402" stroke="black" stroke-width="6.48"/>
<line x1="2853.834836" y1="1402.108373" x2="3101.55277" y2="1402.108373" stroke="black" stroke-width="6.48"/>
<line x1="2802.925386" y1="1402.729218" x2="2802.925386" y2="1428.183943" stroke="black" stroke-width="6.48"/>
<line x1="2802.925386" y1="1428.183943" x2="2852.593142" y2="1428.183943" stroke="black" stroke-width="6.48"/>
<line x1="2852.593142" y1="1428.183943" x2="2852.593142" y2="1402.729218" stroke="black" stroke-width="6.48"/>
<line x1="2852.593142" y1="1402.729218" x2="2802.925386" y2="1402.729218" stroke="black" stroke-width="6.48"/>
<path d="m 2851.972294,1153.148746 a 248.95962699999984,248.95962699999984 0 0 1 248.95962699999973,248.95962699999995" fill="none" stroke="black" stroke-width="6.48"/>
<line x1="2956.482331" y1="2021.434661" x2="2885.277186" y2="2197.673798" stroke="black" stroke-width="6.48"/>
<line x1="2885.277186" y1="2197.673798" x2="3315.300682" y2="2371.414349" stroke="black" stroke-width="6.48"/>
<line x1="3315.300682" y1="2371.414349" x2="3386.505827" y2="2195.175211" stroke="black" stroke-width="6.48"/>
<line x1="3386.505827" y1="2195.175211" x2="3364.475936" y2="2186.274568" stroke="black" stroke-width="6.48"/>
<line x1="3364.475936" y1="2186.274568" x2="3301.815409" y2="2341.365012" stroke="black" stroke-width="6.48"/>
<line x1="3301.815409" y1="2341.365012" x2="2916.732892" y2="2185.781771" stroke="black" stroke-width="6.48"/>
<line x1="2916.732892" y1="2185.781771" x2="2979.393419" y2="2030.69133" stroke="black" stroke-width="6.48"/>
<line x1="2979.393419" y1="2030.69133" x2="2956.482331" y2="2021.434661" stroke="black" stroke-width="6.48"/>
<line x1="2977.257265" y1="2035.978502" x2="3362.339783" y2="2191.561744" stroke="black" stroke-width="6.48"/>
<line x1="3169.713949" y1="2112.710915" x2="3109.189579" y2="2262.514183" stroke="black" stroke-width="6.48"/>
<line x1="3702.938173" y1="1748.117646" x2="3601.280959" y2="1956.545831" stroke="black" stroke-width="6.48"/>
<line x1="3601.280959" y1="1956.545831" x2="3392.425667" y2="1854.680299" stroke="black" stroke-width="6.48"/>
<line x1="3392.425667" y1="1854.680299" x2="3494.082888" y2="1646.252114" stroke="black" stroke-width="6.48"/>
<line x1="3494.082888" y1="1646.252114" x2="3702.938173" y2="1748.117646" stroke="black" stroke-width="6.48"/>
<line x1="3703.573595" y1="1747.898852" x2="3392.425667" y2="1854.680299" stroke="black" stroke-width="6.48"/>
<line x1="3494.509992" y1="1646.460428" x2="3601.48927" y2="1956.11872" stroke="black" stroke-width="6.48"/>
<line x1="3031.233131" y1="1589.315879" x2="3026.401182" y2="1619.823596" stroke="black" stroke-width="6.48"/>
<line x1="3026.401182" y1="1619.823596" x2="3233.384312" y2="1652.606503" stroke="black" stroke-width="6.48"/>
<line x1="3233.384312" y1="1652.606503" x2="3238.216261" y2="1622.098786" stroke="black" stroke-width="6.48"/>
<line x1="3238.216261" y1="1622.098786" x2="3031.233131" y2="1589.315879" stroke="black" stroke-width="6.48"/>
<line x1="2999.342279" y1="1790.666816" x2="2994.51033" y2="1821.17453" stroke="black" stroke-width="6.48"/>
<line x1="2994.51033" y1="1821.17453" x2="3201.493457" y2="1853.957441" stroke="black" stroke-width="6.48"/>
<line x1="3201.493457" y1="1853.957441" x2="3206.325406" y2="1823.44972" stroke="black" stroke-width="6.48"/>
<line x1="3206.325406" y1="1823.44972" x2="2999.342279" y2="1790.666816" stroke="black" stroke-width="6.48"/>
<line x1="3026.475518" y1="1619.354243" x2="2999.342279" y2="1790.666816" stroke="black" stroke-width="6.48"/>
<line x1="3232.594289" y1="1651.519127" x2="3254.245603" y2="1681.891268" stroke="black" stroke-width="6.48"/>
<line x1="3235.289501" y1="1801.575396" x2="3205.312369" y2="1823.770393" stroke="black" stroke-width="6.48"/>
<line x1="3254.542952" y1="1680.013872" x2="3234.992148" y2="1803.452792" stroke="black" stroke-width="6.48"/>
<line x1="3070.520039" y1="1626.811337" x2="3043.386792" y2="1798.123903" stroke="black" stroke-width="6.48"/>
<line x1="5895.798199" y1="1659.927413" x2="5889.376224" y2="1690.140438" stroke="black" stroke-width="6.48"/>
<line x1="5889.376224" y1="1690.140438" x2="6094.359965" y2="1733.711072" stroke="black" stroke-width="6.48"/>
<line x1="6094.359965" y1="1733.711072" x2="6100.78194" y2="1703.498051" stroke="black" stroke-width="6.48"/>
<line x1="6100.78194" y1="1703.498051" x2="5895.798199" y2="1659.927413" stroke="black" stroke-width="6.48"/>
<line x1="5853.413153" y1="1859.333364" x2="5846.991178" y2="1889.546389" stroke="black" stroke-width="6.48"/>
<line x1="5846.991178" y1="1889.546389" x2="6051.974922" y2="1933.117027" stroke="black" stroke-width="6.48"/>
<line x1="6051.974922" y1="1933.117027" x2="6058.396897" y2="1902.904002" stroke="black" stroke-width="6.48"/>
<line x1="6058.396897" y1="1902.904002" x2="5853.413153" y2="1859.333364" stroke="black" stroke-width="6.48"/>
<line x1="5889.475022" y1="1689.67562" x2="5853.413153" y2="1859.333364" stroke="black" stroke-width="6.48"/>
<line x1="6093.62793" y1="1732.583844" x2="6113.660018" y2="1764.047506" stroke="black" stroke-width="6.48"/>
<line x1="6088.46611" y1="1882.575522" x2="6057.368464" y2="1903.171219" stroke="black" stroke-width="6.48"/>
<line x1="6114.055216" y1="1762.188242" x2="6088.070909" y2="1884.434785" stroke="black" stroke-width="6.48"/>
<line x1="5933.068902" y1="1699.427599" x2="5897.007032" y2="1869.085346" stroke="black" stroke-width="6.48"/>
<line x1="1026.682729" y1="1895.476864" x2="1043.050867" y2="1921.671382" stroke="black" stroke-width="6.48"/>
<line x1="1043.050867" y1="1921.671382" x2="1220.770566" y2="1810.619849" stroke="black" stroke-width="6.48"/>
<line x1="1220.770566" y1="1810.619849" x2="1204.402428" y2="1784.425334" stroke="black" stroke-width="6.48"/>
<line x1="1204.402428" y1="1784.425334" x2="1026.682729" y2="1895.476864" stroke="black" stroke-width="6.48"/>
<line x1="1134.712447" y1="2068.360657" x2="1151.080589" y2="2094.555172" stroke="black" stroke-width="6.48"/>
<line x1="1151.080589" y1="2094.555172" x2="1328.800291" y2="1983.503639" stroke="black" stroke-width="6.48"/>
<line x1="1328.800291" y1="1983.503639" x2="1312.43215" y2="1957.309124" stroke="black" stroke-width="6.48"/>
<line x1="1312.43215" y1="1957.309124" x2="1134.712447" y2="2068.360657" stroke="black" stroke-width="6.48"/>
<line x1="1042.799051" y1="1921.268387" x2="1134.712447" y2="2068.360657" stroke="black" stroke-width="6.48"/>
<line x1="1219.460947" y1="1810.317499" x2="1255.727318" y2="1819.035115" stroke="black" stroke-width="6.48"/>
<line x1="1319.940788" y1="1921.798206" x2="1311.877984" y2="1958.215752" stroke="black" stroke-width="6.48"/>
<line x1="1254.720042" y1="1817.423147" x2="1320.948061" y2="1923.410178" stroke="black" stroke-width="6.48"/>
<line x1="1080.932162" y1="1898.000536" x2="1172.845562" y2="2045.092802" stroke="black" stroke-width="6.48"/>
</g>
</svg>
