<?xml version="1.0"?>
<svg xmlns:xlink="http://www.w3.org/1999/xlink" width="6775.2" height="2858.4">
<image x="0" y="0" width="6775.2" height="2858.4" xlink:href="groundfilled-01.png"/>
<g style="stroke-linecap:round">
<line x1="1285.950406" y1="795.178109" x2="1311.346069" y2="795.178109" stroke="black" stroke-width="6.48"/>
<line x1="1311.346069" y1="795.178109" x2="1311.346069" y2="745.625592" stroke="black" stroke-width="6.48"/>
<line x1="1311.346069" y1="745.625592" x2="1285.950406" y2="745.625592" stroke="black" stroke-width="6.48"/>
<line x1="1285.950406" y1="745.625592" x2="1285.950406" y2="795.178109" stroke="black" stroke-width="6.48"/>
<line x1="1559.728062" y1="745.625592" x2="1559.728062" y2="498.48241" stroke="black" stroke-width="6.48"/>
<line x1="1560.347471" y1="796.416923" x2="1585.743134" y2="796.416923" stroke="black" stroke-width="6.48"/>
<line x1="1585.743134" y1="796.416923" x2="1585.743134" y2="746.864406" stroke="black" stroke-width="6.48"/>
<line x1="1585.743134" y1="746.864406" x2="1560.347471" y2="746.864406" stroke="black" stroke-width="6.48"/>
<line x1="1560.347471" y1="746.864406" x2="1560.347471" y2="796.416923" stroke="black" stroke-width="6.48"/>
<path d="m 1311.346069,747.483811 a 248.38199299999997,248.38199299999997 0 0 1 248.38199299999997,-248.38199299999997" fill="none" stroke="black" stroke-width="6.48"/>
<line x1="330.523178" y1="771.328966" x2="330.523178" y2="366.748985" stroke="black" stroke-width="6.48"/>
<line x1="330.523178" y1="366.748985" x2="258.15928" y2="366.748985" stroke="black" stroke-width="6.48"/>
<line x1="258.15928" y1="366.748985" x2="258.15928" y2="771.328966" stroke="black" stroke-width="6.48"/>
<line x1="258.15928" y1="771.328966" x2="330.523178" y2="771.328966" stroke="black" stroke-width="6.48"/>
<line x1="330.523178" y1="752.415674" x2="355.19269" y2="752.415674" stroke="black" stroke-width="6.48"/>
<line x1="355.19269" y1="752.415674" x2="355.19269" y2="386.484595" stroke="black" stroke-width="6.48"/>
<line x1="330.523178" y1="386.484595" x2="355.19269" y2="386.484595" stroke="black" stroke-width="6.48"/>
<line x1="3901.945176" y1="1169.331426" x2="3901.945176" y2="1428.837066" stroke="black" stroke-width="6.48"/>
<line x1="3901.945176" y1="1428.837066" x2="3941.9501" y2="1428.837066" stroke="black" stroke-width="6.48"/>
<line x1="3941.9501" y1="1428.837066" x2="3941.9501" y2="1169.331426" stroke="black" stroke-width="6.48"/>
<line x1="3941.9501" y1="1169.331426" x2="3901.945176" y2="1169.331426" stroke="black" stroke-width="6.48"/>
<line x1="3941.423719" y1="1193.544936" x2="3902.471557" y2="1193.544936" stroke="black" stroke-width="6.48"/>
<line x1="3941.423719" y1="1404.097178" x2="3900.892414" y2="1404.097178" stroke="black" stroke-width="6.48"/>
<line x1="3923.000399" y1="1193.018555" x2="3923.000399" y2="1403.570797" stroke="black" stroke-width="6.48"/>
<line x1="323.923298" y1="1882.957399" x2="323.923298" y2="1457.423957" stroke="black" stroke-width="6.48"/>
<line x1="323.923298" y1="1457.423957" x2="258.323825" y2="1457.423957" stroke="black" stroke-width="6.48"/>
<line x1="258.323825" y1="1457.423957" x2="258.323825" y2="1882.957399" stroke="black" stroke-width="6.48"/>
<line x1="258.323825" y1="1882.957399" x2="323.923298" y2="1882.957399" stroke="black" stroke-width="6.48"/>
<line x1="259.186975" y1="1843.252456" x2="323.060148" y2="1843.252456" stroke="black" stroke-width="6.48"/>
<line x1="259.186975" y1="1497.992054" x2="325.649603" y2="1497.992054" stroke="black" stroke-width="6.48"/>
<line x1="289.397261" y1="1844.115606" x2="289.397261" y2="1498.855205" stroke="black" stroke-width="6.48"/>
<line x1="2747.905531" y1="904.670665" x2="2721.68303" y2="904.670665" stroke="black" stroke-width="6.48"/>
<line x1="2721.68303" y1="904.670665" x2="2721.68303" y2="955.836522" stroke="black" stroke-width="6.48"/>
<line x1="2721.68303" y1="955.836522" x2="2747.905531" y2="955.836522" stroke="black" stroke-width="6.48"/>
<line x1="2747.905531" y1="955.836522" x2="2747.905531" y2="904.670665" stroke="black" stroke-width="6.48"/>
<line x1="2465.214181" y1="955.836522" x2="2465.214181" y2="1211.026223" stroke="black" stroke-width="6.48"/>
<line x1="2464.574609" y1="903.39152" x2="2438.352108" y2="903.39152" stroke="black" stroke-width="6.48"/>
<line x1="2438.352108" y1="903.39152" x2="2438.352108" y2="954.557374" stroke="black" stroke-width="6.48"/>
<line x1="2438.352108" y1="954.557374" x2="2464.574609" y2="954.557374" stroke="black" stroke-width="6.48"/>
<line x1="2464.574609" y1="954.557374" x2="2464.574609" y2="903.39152" stroke="black" stroke-width="6.48"/>
<path d="m 2721.68303,953.917801 a 256.4688490000001,256.4688490000001 0 0 1 -256.4688490000003,256.46884899999986" fill="none" stroke="black" stroke-width="6.48"/>
<line x1="2420.532389" y1="1427.858834" x2="2395.136725" y2="1427.858834" stroke="black" stroke-width="6.48"/>
<line x1="2395.136725" y1="1427.858834" x2="2395.136725" y2="1477.411351" stroke="black" stroke-width="6.48"/>
<line x1="2395.136725" y1="1477.411351" x2="2420.532389" y2="1477.411351" stroke="black" stroke-width="6.48"/>
<line x1="2420.532389" y1="1477.411351" x2="2420.532389" y2="1427.858834" stroke="black" stroke-width="6.48"/>
<line x1="2146.754732" y1="1477.411351" x2="2146.754732" y2="1724.554534" stroke="black" stroke-width="6.48"/>
<line x1="2146.135324" y1="1426.62002" x2="2120.73966" y2="1426.62002" stroke="black" stroke-width="6.48"/>
<line x1="2120.73966" y1="1426.62002" x2="2120.73966" y2="1476.172537" stroke="black" stroke-width="6.48"/>
<line x1="2120.73966" y1="1476.172537" x2="2146.135324" y2="1476.172537" stroke="black" stroke-width="6.48"/>
<line x1="2146.135324" y1="1476.172537" x2="2146.135324" y2="1426.62002" stroke="black" stroke-width="6.48"/>
<path d="m 2395.136725,1475.553132 a 248.38199299999997,248.38199299999997 0 0 1 -248.38199299999997,248.38199299999997" fill="none" stroke="black" stroke-width="6.48"/>
<line x1="732.332671" y1="692.136151" x2="1125.164671" y2="692.136151" stroke="black" stroke-width="6.48"/>
<line x1="1125.164671" y1="692.136151" x2="1125.164671" y2="507.600151" stroke="black" stroke-width="6.48"/>
<line x1="1125.164671" y1="507.600151" x2="732.332671" y2="507.600151" stroke="black" stroke-width="6.48"/>
<line x1="732.332671" y1="507.600151" x2="732.332671" y2="692.136151" stroke="black" stroke-width="6.48"/>
<line x1="891.524671" y1="507.600151" x2="891.524671" y2="426.816151" stroke="black" stroke-width="6.48"/>
<line x1="891.524671" y1="426.816151" x2="813.116671" y2="426.816151" stroke="black" stroke-width="6.48"/>
<line x1="813.116671" y1="426.816151" x2="813.116671" y2="507.600151" stroke="black" stroke-width="6.48"/>
<line x1="813.908671" y1="444.240151" x2="891.524671" y2="444.240151" stroke="black" stroke-width="6.48"/>
<line x1="813.116671" y1="773.712151" x2="891.524671" y2="773.712151" stroke="black" stroke-width="6.48"/>
<line x1="891.524671" y1="773.712151" x2="891.524671" y2="692.136151" stroke="black" stroke-width="6.48"/>
<line x1="813.116671" y1="692.136151" x2="813.116671" y2="773.712151" stroke="black" stroke-width="6.48"/>
<line x1="813.908671" y1="756.288151" x2="891.524671" y2="756.288151" stroke="black" stroke-width="6.48"/>
<line x1="1042.796671" y1="507.600151" x2="1042.796671" y2="426.816151" stroke="black" stroke-width="6.48"/>
<line x1="1042.796671" y1="426.816151" x2="964.388671" y2="426.816151" stroke="black" stroke-width="6.48"/>
<line x1="964.388671" y1="426.816151" x2="964.388671" y2="507.600151" stroke="black" stroke-width="6.48"/>
<line x1="964.388671" y1="444.240151" x2="1042.796671" y2="444.240151" stroke="black" stroke-width="6.48"/>
<line x1="964.388671" y1="773.712151" x2="1042.796671" y2="773.712151" stroke="black" stroke-width="6.48"/>
<line x1="1042.796671" y1="773.712151" x2="1042.796671" y2="692.136151" stroke="black" stroke-width="6.48"/>
<line x1="964.388671" y1="692.136151" x2="964.388671" y2="773.712151" stroke="black" stroke-width="6.48"/>
<line x1="964.388671" y1="756.288151" x2="1042.796671" y2="756.288151" stroke="black" stroke-width="6.48"/>
<line x1="1842.844367" y1="2071.57766" x2="2032.924367" y2="2071.57766" stroke="black" stroke-width="6.48"/>
<line x1="2032.924367" y1="2071.57766" x2="2032.924367" y2="1607.78246" stroke="black" stroke-width="6.48"/>
<line x1="2032.924367" y1="1607.78246" x2="1842.844367" y2="1607.78246" stroke="black" stroke-width="6.48"/>
<line x1="1842.844367" y1="1607.78246" x2="1842.844367" y2="1631.54246" stroke="black" stroke-width="6.48"/>
<line x1="1842.844367" y1="1631.54246" x2="2010.114767" y2="1631.54246" stroke="black" stroke-width="6.48"/>
<line x1="2010.114767" y1="1631.54246" x2="2010.114767" y2="2046.86726" stroke="black" stroke-width="6.48"/>
<line x1="2010.114767" y1="2046.86726" x2="1842.844367" y2="2046.86726" stroke="black" stroke-width="6.48"/>
<line x1="1842.844367" y1="2046.86726" x2="1842.844367" y2="2071.57766" stroke="black" stroke-width="6.48"/>
<line x1="1848.546767" y1="2046.86726" x2="1848.546767" y2="1631.54246" stroke="black" stroke-width="6.48"/>
<line x1="1847.596367" y1="1839.68006" x2="2009.164367" y2="1839.68006" stroke="black" stroke-width="6.48"/>
<line x1="1485.415969" y1="209.267824" x2="1707.693134" y2="209.267824" stroke="black" stroke-width="6.48"/>
<line x1="1707.693134" y1="209.267824" x2="1707.693134" y2="432.000475" stroke="black" stroke-width="6.48"/>
<line x1="1707.693134" y1="432.000475" x2="1485.415969" y2="432.000475" stroke="black" stroke-width="6.48"/>
<line x1="1485.415969" y1="432.000475" x2="1485.415969" y2="209.267824" stroke="black" stroke-width="6.48"/>
<line x1="1484.960483" y1="208.812337" x2="1707.693134" y2="432.000475" stroke="black" stroke-width="6.48"/>
<line x1="1485.415969" y1="431.544989" x2="1707.237648" y2="209.267824" stroke="black" stroke-width="6.48"/>
<line x1="2761.020558" y1="2194.614338" x2="2761.020558" y2="1803.366338" stroke="black" stroke-width="6.48"/>
<line x1="2761.020558" y1="1803.366338" x2="2586.780558" y2="1803.366338" stroke="black" stroke-width="6.48"/>
<line x1="2586.780558" y1="1803.366338" x2="2586.780558" y2="2194.614338" stroke="black" stroke-width="6.48"/>
<line x1="2586.780558" y1="2194.614338" x2="2761.020558" y2="2194.614338" stroke="black" stroke-width="6.48"/>
<line x1="2613.708558" y1="1878.606338" x2="2613.708558" y2="2162.934338" stroke="black" stroke-width="6.48"/>
<line x1="2613.708558" y1="2162.934338" x2="2731.716558" y2="2162.934338" stroke="black" stroke-width="6.48"/>
<line x1="2731.716558" y1="2162.934338" x2="2731.716558" y2="1873.062338" stroke="black" stroke-width="6.48"/>
<path d="m 2613.453134,1879.416911 a 63.3599990854681,63.3599990854681 0 0 1 119.3743300000001,-4.293814000000111" fill="none" stroke="black" stroke-width="6.48"/>
<line x1="2081.347538" y1="1917.982552" x2="2056.795538" y2="1936.594552" stroke="black" stroke-width="6.48"/>
<line x1="2056.795538" y1="1936.594552" x2="2056.795538" y2="2083.906552" stroke="black" stroke-width="6.48"/>
<line x1="2056.795538" y1="2083.906552" x2="2084.911538" y2="2102.914552" stroke="black" stroke-width="6.48"/>
<line x1="2084.119538" y1="1939.762552" x2="2084.119538" y2="2082.718552" stroke="black" stroke-width="6.48"/>
<circle cx="2105.899538" cy="2009.062552" r="13.068000000000003" fill="none" stroke="black" stroke-width="6.48"/>
<path d="m 2083.452192,1941.315804 a 74.8440000678095,74.8440000678095 0 1 1 0.40204799999992247,139.60900400000014" fill="none" stroke="black" stroke-width="6.48"/>
<path d="m 2080.690175,1918.028855 a 95.43599857690587,95.43599857690587 0 1 1 3.0749579999996968,184.46699499999977" fill="none" stroke="black" stroke-width="6.48"/>
<line x1="633.767159" y1="210.455165" x2="1027.011031" y2="210.455165" stroke="black" stroke-width="6.48"/>
<line x1="1030.966438" y1="209.458883" x2="1030.966438" y2="345.527658" stroke="black" stroke-width="6.48"/>
<line x1="634.231548" y1="346.679165" x2="1031.271779" y2="346.679165" stroke="black" stroke-width="6.48"/>
<line x1="634.966438" y1="211.149914" x2="634.966438" y2="346.413971" stroke="black" stroke-width="6.48"/>
<line x1="645.262438" y1="221.543165" x2="768.814438" y2="221.543165" stroke="black" stroke-width="6.48"/>
<line x1="768.814438" y1="221.543165" x2="768.814438" y2="335.591165" stroke="black" stroke-width="6.48"/>
<line x1="645.262438" y1="335.591165" x2="768.814438" y2="335.591165" stroke="black" stroke-width="6.48"/>
<line x1="645.262438" y1="221.543165" x2="645.262438" y2="335.591165" stroke="black" stroke-width="6.48"/>
<line x1="787.822438" y1="228.671165" x2="874.942438" y2="228.671165" stroke="black" stroke-width="6.48"/>
<line x1="787.822438" y1="248.471165" x2="874.942438" y2="248.471165" stroke="black" stroke-width="6.48"/>
<line x1="788.614438" y1="269.063165" x2="874.942438" y2="269.063165" stroke="black" stroke-width="6.48"/>
<line x1="788.614438" y1="288.863165" x2="874.942438" y2="288.863165" stroke="black" stroke-width="6.48"/>
<line x1="787.822438" y1="308.663165" x2="874.942438" y2="308.663165" stroke="black" stroke-width="6.48"/>
<line x1="787.822438" y1="328.463165" x2="874.942438" y2="328.463165" stroke="black" stroke-width="6.48"/>
<line x1="692.782438" y1="334.799165" x2="692.782438" y2="321.335165" stroke="black" stroke-width="6.48"/>
<line x1="692.782438" y1="321.335165" x2="722.878438" y2="321.335165" stroke="black" stroke-width="6.48"/>
<line x1="722.878438" y1="321.335165" x2="722.878438" y2="334.007165" stroke="black" stroke-width="6.48"/>
<line x1="895.534438" y1="221.543165" x2="1019.086438" y2="221.543165" stroke="black" stroke-width="6.48"/>
<line x1="1019.086438" y1="221.543165" x2="1019.086438" y2="335.591165" stroke="black" stroke-width="6.48"/>
<line x1="895.534438" y1="335.591165" x2="1019.086438" y2="335.591165" stroke="black" stroke-width="6.48"/>
<line x1="895.534438" y1="221.543165" x2="895.534438" y2="335.591165" stroke="black" stroke-width="6.48"/>
<line x1="943.054438" y1="335.591165" x2="943.054438" y2="322.127165" stroke="black" stroke-width="6.48"/>
<line x1="943.054438" y1="322.127165" x2="973.150438" y2="322.127165" stroke="black" stroke-width="6.48"/>
<line x1="973.150438" y1="322.127165" x2="973.150438" y2="334.799165" stroke="black" stroke-width="6.48"/>
<circle cx="754.558438" cy="235.799165" r="7.128000000000001" fill="none" stroke="black" stroke-width="6.48"/>
<circle cx="1004.830438" cy="236.591165" r="7.128000000000001" fill="none" stroke="black" stroke-width="6.48"/>
<line x1="2044.889399" y1="955.822399" x2="2267.166564" y2="955.822399" stroke="black" stroke-width="6.48"/>
<line x1="2267.166564" y1="955.822399" x2="2267.166564" y2="1178.555051" stroke="black" stroke-width="6.48"/>
<line x1="2267.166564" y1="1178.555051" x2="2044.889399" y2="1178.555051" stroke="black" stroke-width="6.48"/>
<line x1="2044.889399" y1="1178.555051" x2="2044.889399" y2="955.822399" stroke="black" stroke-width="6.48"/>
<line x1="2044.433912" y1="955.366913" x2="2267.166564" y2="1178.555051" stroke="black" stroke-width="6.48"/>
<line x1="2044.889399" y1="1178.099564" x2="2266.711078" y2="955.822399" stroke="black" stroke-width="6.48"/>
<line x1="333.766206" y1="1375.361078" x2="333.766206" y2="949.854546" stroke="black" stroke-width="6.48"/>
<line x1="333.766206" y1="949.854546" x2="257.659348" y2="949.854546" stroke="black" stroke-width="6.48"/>
<line x1="257.659348" y1="949.854546" x2="257.659348" y2="1375.361078" stroke="black" stroke-width="6.48"/>
<line x1="257.659348" y1="1375.361078" x2="333.766206" y2="1375.361078" stroke="black" stroke-width="6.48"/>
<line x1="333.766206" y1="1355.469512" x2="359.711726" y2="1355.469512" stroke="black" stroke-width="6.48"/>
<line x1="359.711726" y1="1355.469512" x2="359.711726" y2="970.610962" stroke="black" stroke-width="6.48"/>
<line x1="333.766206" y1="970.610962" x2="359.711726" y2="970.610962" stroke="black" stroke-width="6.48"/>
<line x1="3874.406537" y1="1514.726719" x2="3874.406537" y2="1940.260162" stroke="black" stroke-width="6.48"/>
<line x1="3874.406537" y1="1940.260162" x2="3940.00601" y2="1940.260162" stroke="black" stroke-width="6.48"/>
<line x1="3940.00601" y1="1940.260162" x2="3940.00601" y2="1514.726719" stroke="black" stroke-width="6.48"/>
<line x1="3940.00601" y1="1514.726719" x2="3874.406537" y2="1514.726719" stroke="black" stroke-width="6.48"/>
<line x1="3939.14286" y1="1554.431663" x2="3875.269687" y2="1554.431663" stroke="black" stroke-width="6.48"/>
<line x1="3939.14286" y1="1899.692064" x2="3872.680232" y2="1899.692064" stroke="black" stroke-width="6.48"/>
<line x1="3908.932574" y1="1553.568512" x2="3908.932574" y2="1898.828914" stroke="black" stroke-width="6.48"/>
<line x1="4949.385793" y1="1352.617358" x2="4602.535722" y2="1168.193905" stroke="black" stroke-width="6.48"/>
<line x1="4602.535722" y1="1168.193905" x2="4515.901319" y2="1331.129524" stroke="black" stroke-width="6.48"/>
<line x1="4515.901319" y1="1331.129524" x2="4862.751386" y2="1515.552977" stroke="black" stroke-width="6.48"/>
<line x1="4862.751386" y1="1515.552977" x2="4949.385793" y2="1352.617358" stroke="black" stroke-width="6.48"/>
<line x1="4722.193195" y1="1440.816858" x2="4684.267404" y2="1512.144896" stroke="black" stroke-width="6.48"/>
<line x1="4684.267404" y1="1512.144896" x2="4753.497557" y2="1548.955224" stroke="black" stroke-width="6.48"/>
<line x1="4753.497557" y1="1548.955224" x2="4791.423348" y2="1477.627182" stroke="black" stroke-width="6.48"/>
<line x1="4760.978335" y1="1533.19892" x2="4692.447475" y2="1496.760415" stroke="black" stroke-width="6.48"/>
<line x1="4916.355365" y1="1242.664232" x2="4847.125212" y2="1205.853905" stroke="black" stroke-width="6.48"/>
<line x1="4847.125212" y1="1205.853905" x2="4808.827595" y2="1277.88124" stroke="black" stroke-width="6.48"/>
<line x1="4878.057755" y1="1314.691567" x2="4916.355365" y2="1242.664232" stroke="black" stroke-width="6.48"/>
<line x1="4907.475997" y1="1257.676891" x2="4838.945137" y2="1221.238386" stroke="black" stroke-width="6.48"/>
<line x1="4588.627943" y1="1369.798952" x2="4550.702155" y2="1441.126994" stroke="black" stroke-width="6.48"/>
<line x1="4550.702155" y1="1441.126994" x2="4619.932308" y2="1477.937318" stroke="black" stroke-width="6.48"/>
<line x1="4619.932308" y1="1477.937318" x2="4657.858099" y2="1406.60928" stroke="black" stroke-width="6.48"/>
<line x1="4628.112383" y1="1462.552837" x2="4558.882226" y2="1425.742517" stroke="black" stroke-width="6.48"/>
<line x1="4782.790116" y1="1171.64633" x2="4713.55996" y2="1134.836006" stroke="black" stroke-width="6.48"/>
<line x1="4713.55996" y1="1134.836006" x2="4675.26235" y2="1206.863338" stroke="black" stroke-width="6.48"/>
<line x1="4744.492506" y1="1243.673662" x2="4782.790116" y2="1171.64633" stroke="black" stroke-width="6.48"/>
<line x1="4774.610045" y1="1187.030808" x2="4705.379892" y2="1150.22048" stroke="black" stroke-width="6.48"/>
<line x1="3368.956856" y1="1075.190083" x2="3578.32206" y2="1075.190083" stroke="black" stroke-width="6.48"/>
<line x1="3578.32206" y1="1075.190083" x2="3578.32206" y2="743.97568" stroke="black" stroke-width="6.48"/>
<line x1="3578.32206" y1="743.97568" x2="3368.956856" y2="743.97568" stroke="black" stroke-width="6.48"/>
<line x1="3368.956856" y1="743.97568" x2="3368.956856" y2="1075.190083" stroke="black" stroke-width="6.48"/>
<line x1="3368.283656" y1="803.21728" x2="3578.995256" y2="803.21728" stroke="black" stroke-width="6.48"/>
<line x1="3578.995256" y1="803.21728" x2="3369.630056" y2="853.034083" stroke="black" stroke-width="6.48"/>
<line x1="3369.630056" y1="853.034083" x2="3401.27046" y2="899.484883" stroke="black" stroke-width="6.48"/>
<line x1="3401.27046" y1="899.484883" x2="3578.995256" y2="802.544083" stroke="black" stroke-width="6.48"/>
<line x1="3494.474773" y1="1202.792065" x2="3716.751938" y2="1202.792065" stroke="black" stroke-width="6.48"/>
<line x1="3716.751938" y1="1202.792065" x2="3716.751938" y2="1425.524717" stroke="black" stroke-width="6.48"/>
<line x1="3716.751938" y1="1425.524717" x2="3494.474773" y2="1425.524717" stroke="black" stroke-width="6.48"/>
<line x1="3494.474773" y1="1425.524717" x2="3494.474773" y2="1202.792065" stroke="black" stroke-width="6.48"/>
<line x1="3494.019287" y1="1202.336579" x2="3716.751938" y2="1425.524717" stroke="black" stroke-width="6.48"/>
<line x1="3494.474773" y1="1425.06923" x2="3716.296452" y2="1202.792065" stroke="black" stroke-width="6.48"/>
<line x1="2804.16708" y1="1127.69402" x2="2804.16708" y2="1153.148746" stroke="black" stroke-width="6.48"/>
<line x1="2804.16708" y1="1153.148746" x2="2853.834836" y2="1153.148746" stroke="black" stroke-width="6.48"/>
<line x1="2853.834836" y1="1153.148746" x2="2853.834836" y2="1127.69402" stroke="black" stroke-width="6.48"/>
<line x1="2853.834836" y1="1127.69402" x2="2804.16708" y2="1127.69402" stroke="black" stroke-width="6.48"/>
<line x1="2853.834836" y1="1402.108373" x2="3101.55277" y2="1402.108373" stroke="black" stroke-width="6.48"/>
<line x1="2802.925386" y1="1402.729218" x2="2802.925386" y2="1428.183943" stroke="black" stroke-width="6.48"/>
<line x1="2802.925386" y1="1428.183943" x2="2852.593142" y2="1428.183943" stroke="black" stroke-width="6.48"/>
<line x1="2852.593142" y1="1428.183943" x2="2852.593142" y2="1402.729218" stroke="black" stroke-width="6.48"/>
<line x1="2852.593142" y1="1402.729218" x2="2802.925386" y2="1402.729218" stroke="black" stroke-width="6.48"/>
<path d="m 2851.972294,1153.148746 a 248.95962699999984,248.95962699999984 0 0 1 248.95962699999973,248.95962699999995" fill="none" stroke="black" stroke-width="6.48"/>
<line x1="3611.981293" y1="1952.251013" x2="3396.969587" y2="1865.38064" stroke="black" stroke-width="6.48"/>
<line x1="3396.969587" y1="1865.38064" x2="3484.017968" y2="1649.928334" stroke="black" stroke-width="6.48"/>
<line x1="3484.017968" y1="1649.928334" x2="3699.029678" y2="1736.798702" stroke="black" stroke-width="6.48"/>
<line x1="3699.029678" y1="1736.798702" x2="3611.981293" y2="1952.251013" stroke="black" stroke-width="6.48"/>
<line x1="3612.243881" y1="1952.869619" x2="3484.017968" y2="1649.928334" stroke="black" stroke-width="6.48"/>
<line x1="3698.851666" y1="1737.239299" x2="3397.410184" y2="1865.558653" stroke="black" stroke-width="6.48"/>
<line x1="3100.358268" y1="1589.315879" x2="3083.535454" y2="1615.220741" stroke="black" stroke-width="6.48"/>
<line x1="3083.535454" y1="1615.220741" x2="3259.289945" y2="1729.357034" stroke="black" stroke-width="6.48"/>
<line x1="3259.289945" y1="1729.357034" x2="3276.112752" y2="1703.45218" stroke="black" stroke-width="6.48"/>
<line x1="3276.112752" y1="1703.45218" x2="3100.358268" y2="1589.315879" stroke="black" stroke-width="6.48"/>
<line x1="2989.327716" y1="1760.287936" x2="2972.504909" y2="1786.19279" stroke="black" stroke-width="6.48"/>
<line x1="2972.504909" y1="1786.19279" x2="3148.259393" y2="1900.329088" stroke="black" stroke-width="6.48"/>
<line x1="3148.259393" y1="1900.329088" x2="3165.082207" y2="1874.424233" stroke="black" stroke-width="6.48"/>
<line x1="3165.082207" y1="1874.424233" x2="2989.327716" y2="1760.287936" stroke="black" stroke-width="6.48"/>
<line x1="3083.794268" y1="1614.822199" x2="2989.327716" y2="1760.287936" stroke="black" stroke-width="6.48"/>
<line x1="3259.010495" y1="1728.04234" x2="3266.436492" y2="1764.595055" stroke="black" stroke-width="6.48"/>
<line x1="3200.439312" y1="1866.221798" x2="3164.02632" y2="1874.305145" stroke="black" stroke-width="6.48"/>
<line x1="3267.47174" y1="1763.00091" x2="3199.40406" y2="1867.815943" stroke="black" stroke-width="6.48"/>
<line x1="3120.997864" y1="1639.549109" x2="3026.531315" y2="1785.014842" stroke="black" stroke-width="6.48"/>
<line x1="1362.446881" y1="1279.763748" x2="1376.255675" y2="1411.145658" stroke="black" stroke-width="6.48"/>
<line x1="1376.255675" y1="1411.145658" x2="1362.07777" y2="1412.635817" stroke="black" stroke-width="6.48"/>
<line x1="1348.268976" y1="1281.253907" x2="1362.07777" y2="1412.635817" stroke="black" stroke-width="6.48"/>
<line x1="1362.446881" y1="1279.763748" x2="1348.268976" y2="1281.253907" stroke="black" stroke-width="6.48"/>
<line x1="1349.659793" y1="1294.486618" x2="1318.269712" y2="1295.874576" stroke="black" stroke-width="6.48"/>
<line x1="1360.68696" y1="1399.403106" x2="1328.749063" y2="1404.671188" stroke="black" stroke-width="6.48"/>
<line x1="904.027979" y1="1327.945518" x2="917.836776" y2="1459.327428" stroke="black" stroke-width="6.48"/>
<line x1="917.836776" y1="1459.327428" x2="931.069487" y2="1457.936611" stroke="black" stroke-width="6.48"/>
<line x1="917.260693" y1="1326.554701" x2="931.069487" y2="1457.936611" stroke="black" stroke-width="6.48"/>
<line x1="904.027979" y1="1327.945518" x2="917.260693" y2="1326.554701" stroke="black" stroke-width="6.48"/>
<line x1="920.44255" y1="1338.643534" x2="951.435252" y2="1333.474798" stroke="black" stroke-width="6.48"/>
<line x1="931.469713" y1="1443.560022" x2="963.904327" y2="1443.017909" stroke="black" stroke-width="6.48"/>
<line x1="1229.824325" y1="1590.905448" x2="1228.334166" y2="1576.727543" stroke="black" stroke-width="6.48"/>
<line x1="1228.334166" y1="1576.727543" x2="1096.952252" y2="1590.536336" stroke="black" stroke-width="6.48"/>
<line x1="1098.442415" y1="1604.714242" x2="1096.952252" y2="1590.536336" stroke="black" stroke-width="6.48"/>
<line x1="1229.824325" y1="1590.905448" x2="1098.442415" y2="1604.714242" stroke="black" stroke-width="6.48"/>
<line x1="1111.130158" y1="1589.046181" x2="1104.916885" y2="1557.20763" stroke="black" stroke-width="6.48"/>
<line x1="1215.101455" y1="1578.118356" x2="1213.614151" y2="1545.783084" stroke="black" stroke-width="6.48"/>
<line x1="1182.687095" y1="1133.332394" x2="1184.177254" y2="1147.5103" stroke="black" stroke-width="6.48"/>
<line x1="1184.177254" y1="1147.5103" x2="1052.79534" y2="1161.319097" stroke="black" stroke-width="6.48"/>
<line x1="1051.305185" y1="1147.141192" x2="1052.79534" y2="1161.319097" stroke="black" stroke-width="6.48"/>
<line x1="1182.687095" y1="1133.332394" x2="1051.305185" y2="1147.141192" stroke="black" stroke-width="6.48"/>
<line x1="1066.973245" y1="1159.828934" x2="1067.515351" y2="1192.263548" stroke="black" stroke-width="6.48"/>
<line x1="1170.944543" y1="1148.901113" x2="1176.212621" y2="1180.83901" stroke="black" stroke-width="6.48"/>
<circle cx="1140.564751" cy="1369.023318" r="191.98080000000002" fill="none" stroke="black" stroke-width="6.48"/>
<line x1="1134.918245" y1="1632.585326" x2="989.308487" y2="1754.766356" stroke="black" stroke-width="6.48"/>
<line x1="989.308487" y1="1754.766356" x2="1287.430207" y2="2110.054165" stroke="black" stroke-width="6.48"/>
<line x1="1287.430207" y1="2110.054165" x2="1433.039962" y2="1987.873132" stroke="black" stroke-width="6.48"/>
<line x1="1433.039962" y1="1987.873132" x2="1417.76734" y2="1969.671913" stroke="black" stroke-width="6.48"/>
<line x1="1417.76734" y1="1969.671913" x2="1289.63075" y2="2077.191223" stroke="black" stroke-width="6.48"/>
<line x1="1289.63075" y1="2077.191223" x2="1022.665194" y2="1759.033901" stroke="black" stroke-width="6.48"/>
<line x1="1022.665194" y1="1759.033901" x2="1150.80178" y2="1651.514594" stroke="black" stroke-width="6.48"/>
<line x1="1150.80178" y1="1651.514594" x2="1134.918245" y2="1632.585326" stroke="black" stroke-width="6.48"/>
<line x1="1146.433486" y1="1655.180024" x2="1413.399046" y2="1973.337343" stroke="black" stroke-width="6.48"/>
<line x1="1280.338862" y1="1813.283755" x2="1156.570564" y2="1917.137632" stroke="black" stroke-width="6.48"/>
<line x1="5670.36693" y1="1413.570056" x2="5667.138256" y2="1444.288846" stroke="black" stroke-width="6.48"/>
<line x1="5667.138256" y1="1444.288846" x2="5875.553448" y2="1466.194165" stroke="black" stroke-width="6.48"/>
<line x1="5875.553448" y1="1466.194165" x2="5878.782122" y2="1435.475372" stroke="black" stroke-width="6.48"/>
<line x1="5878.782122" y1="1435.475372" x2="5670.36693" y2="1413.570056" stroke="black" stroke-width="6.48"/>
<line x1="5649.057677" y1="1616.314082" x2="5645.828999" y2="1647.032872" stroke="black" stroke-width="6.48"/>
<line x1="5645.828999" y1="1647.032872" x2="5854.244191" y2="1668.938195" stroke="black" stroke-width="6.48"/>
<line x1="5854.244191" y1="1668.938195" x2="5857.472869" y2="1638.219402" stroke="black" stroke-width="6.48"/>
<line x1="5857.472869" y1="1638.219402" x2="5649.057677" y2="1616.314082" stroke="black" stroke-width="6.48"/>
<line x1="5667.187928" y1="1443.816248" x2="5649.057677" y2="1616.314082" stroke="black" stroke-width="6.48"/>
<line x1="5874.707599" y1="1465.149629" x2="5897.918794" y2="1494.347004" stroke="black" stroke-width="6.48"/>
<line x1="5885.252453" y1="1614.859189" x2="5856.478002" y2="1638.592657" stroke="black" stroke-width="6.48"/>
<line x1="5898.117485" y1="1492.456619" x2="5885.053765" y2="1616.749578" stroke="black" stroke-width="6.48"/>
<line x1="5711.562356" y1="1448.958006" x2="5693.432105" y2="1621.45584" stroke="black" stroke-width="6.48"/>
</g>
</svg>
