<?xml version="1.0"?>
<svg xmlns:xlink="http://www.w3.org/1999/xlink" width="6775.2" height="2858.4">
<image x="0" y="0" width="6775.2" height="2858.4" xlink:href="groundfilled-01.png"/>
<g style="stroke-linecap:round">
<line x1="1285.950406" y1="795.178109" x2="1311.346069" y2="795.178109" stroke="black" stroke-width="6.48"/>
<line x1="1311.346069" y1="795.178109" x2="1311.346069" y2="745.625592" stroke="black" stroke-width="6.48"/>
<line x1="1311.346069" y1="745.625592" x2="1285.950406" y2="745.625592" stroke="black" stroke-width="6.48"/>
<line x1="1285.950406" y1="745.625592" x2="1285.950406" y2="795.178109" stroke="black" stroke-width="6.48"/>
<line x1="1559.728062" y1="745.625592" x2="1559.728062" y2="498.48241" stroke="black" stroke-width="6.48"/>
<line x1="1560.347471" y1="796.416923" x2="1585.743134" y2="796.416923" stroke="black" stroke-width="6.48"/>
<line x1="1585.743134" y1="796.416923" x2="1585.743134" y2="746.864406" stroke="black" stroke-width="6.48"/>
<line x1="1585.743134" y1="746.864406" x2="1560.347471" y2="746.864406" stroke="black" stroke-width="6.48"/>
<line x1="1560.347471" y1="746.864406" x2="1560.347471" y2="796.416923" stroke="black" stroke-width="6.48"/>
<path d="m 1311.346069,747.483811 a 248.38199299999997,248.38199299999997 0 0 1 248.38199299999997,-248.38199299999997" fill="none" stroke="black" stroke-width="6.48"/>
<line x1="330.523178" y1="771.328966" x2="330.523178" y2="366.748985" stroke="black" stroke-width="6.48"/>
<line x1="330.523178" y1="366.748985" x2="258.15928" y2="366.748985" stroke="black" stroke-width="6.48"/>
<line x1="258.15928" y1="366.748985" x2="258.15928" y2="771.328966" stroke="black" stroke-width="6.48"/>
<line x1="258.15928" y1="771.328966" x2="330.523178" y2="771.328966" stroke="black" stroke-width="6.48"/>
<line x1="330.523178" y1="752.415674" x2="355.19269" y2="752.415674" stroke="black" stroke-width="6.48"/>
<line x1="355.19269" y1="752.415674" x2="355.19269" y2="386.484595" stroke="black" stroke-width="6.48"/>
<line x1="330.523178" y1="386.484595" x2="355.19269" y2="386.484595" stroke="black" stroke-width="6.48"/>
<line x1="3901.945176" y1="1169.331426" x2="3901.945176" y2="1428.837066" stroke="black" stroke-width="6.48"/>
<line x1="3901.945176" y1="1428.837066" x2="3941.9501" y2="1428.837066" stroke="black" stroke-width="6.48"/>
<line x1="3941.9501" y1="1428.837066" x2="3941.9501" y2="1169.331426" stroke="black" stroke-width="6.48"/>
<line x1="3941.9501" y1="1169.331426" x2="3901.945176" y2="1169.331426" stroke="black" stroke-width="6.48"/>
<line x1="3941.423719" y1="1193.544936" x2="3902.471557" y2="1193.544936" stroke="black" stroke-width="6.48"/>
<line x1="3941.423719" y1="1404.097178" x2="3900.892414" y2="1404.097178" stroke="black" stroke-width="6.48"/>
<line x1="3923.000399" y1="1193.018555" x2="3923.000399" y2="1403.570797" stroke="black" stroke-width="6.48"/>
<line x1="323.923298" y1="1882.957399" x2="323.923298" y2="1457.423957" stroke="black" stroke-width="6.48"/>
<line x1="323.923298" y1="1457.423957" x2="258.323825" y2="1457.423957" stroke="black" stroke-width="6.48"/>
<line x1="258.323825" y1="1457.423957" x2="258.323825" y2="1882.957399" stroke="black" stroke-width="6.48"/>
<line x1="258.323825" y1="1882.957399" x2="323.923298" y2="1882.957399" stroke="black" stroke-width="6.48"/>
<line x1="259.186975" y1="1843.252456" x2="323.060148" y2="1843.252456" stroke="black" stroke-width="6.48"/>
<line x1="259.186975" y1="1497.992054" x2="325.649603" y2="1497.992054" stroke="black" stroke-width="6.48"/>
<line x1="289.397261" y1="1844.115606" x2="289.397261" y2="1498.855205" stroke="black" stroke-width="6.48"/>
<line x1="2747.905531" y1="904.670665" x2="2721.68303" y2="904.670665" stroke="black" stroke-width="6.48"/>
<line x1="2721.68303" y1="904.670665" x2="2721.68303" y2="955.836522" stroke="black" stroke-width="6.48"/>
<line x1="2721.68303" y1="955.836522" x2="2747.905531" y2="955.836522" stroke="black" stroke-width="6.48"/>
<line x1="2747.905531" y1="955.836522" x2="2747.905531" y2="904.670665" stroke="black" stroke-width="6.48"/>
<line x1="2465.214181" y1="955.836522" x2="2465.214181" y2="1211.026223" stroke="black" stroke-width="6.48"/>
<line x1="2464.574609" y1="903.39152" x2="2438.352108" y2="903.39152" stroke="black" stroke-width="6.48"/>
<line x1="2438.352108" y1="903.39152" x2="2438.352108" y2="954.557374" stroke="black" stroke-width="6.48"/>
<line x1="2438.352108" y1="954.557374" x2="2464.574609" y2="954.557374" stroke="black" stroke-width="6.48"/>
<line x1="2464.574609" y1="954.557374" x2="2464.574609" y2="903.39152" stroke="black" stroke-width="6.48"/>
<path d="m 2721.68303,953.917801 a 256.4688490000001,256.4688490000001 0 0 1 -256.4688490000003,256.46884899999986" fill="none" stroke="black" stroke-width="6.48"/>
<line x1="2420.532389" y1="1427.858834" x2="2395.136725" y2="1427.858834" stroke="black" stroke-width="6.48"/>
<line x1="2395.136725" y1="1427.858834" x2="2395.136725" y2="1477.411351" stroke="black" stroke-width="6.48"/>
<line x1="2395.136725" y1="1477.411351" x2="2420.532389" y2="1477.411351" stroke="black" stroke-width="6.48"/>
<line x1="2420.532389" y1="1477.411351" x2="2420.532389" y2="1427.858834" stroke="black" stroke-width="6.48"/>
<line x1="2146.754732" y1="1477.411351" x2="2146.754732" y2="1724.554534" stroke="black" stroke-width="6.48"/>
<line x1="2146.135324" y1="1426.62002" x2="2120.73966" y2="1426.62002" stroke="black" stroke-width="6.48"/>
<line x1="2120.73966" y1="1426.62002" x2="2120.73966" y2="1476.172537" stroke="black" stroke-width="6.48"/>
<line x1="2120.73966" y1="1476.172537" x2="2146.135324" y2="1476.172537" stroke="black" stroke-width="6.48"/>
<line x1="2146.135324" y1="1476.172537" x2="2146.135324" y2="1426.62002" stroke="black" stroke-width="6.48"/>
<path d="m 2395.136725,1475.553132 a 248.38199299999997,248.38199299999997 0 0 1 -248.38199299999997,248.38199299999997" fill="none" stroke="black" stroke-width="6.48"/>
<line x1="504.445018" y1="541.339351" x2="736.342618" y2="541.339351" stroke="black" stroke-width="6.48"/>
<line x1="736.342618" y1="541.339351" x2="736.342618" y2="773.712151" stroke="black" stroke-width="6.48"/>
<line x1="736.342618" y1="773.712151" x2="504.445018" y2="773.712151" stroke="black" stroke-width="6.48"/>
<line x1="504.445018" y1="773.712151" x2="504.445018" y2="541.339351" stroke="black" stroke-width="6.48"/>
<line x1="503.969818" y1="540.864151" x2="736.342618" y2="773.712151" stroke="black" stroke-width="6.48"/>
<line x1="504.445018" y1="773.236951" x2="735.867418" y2="541.339351" stroke="black" stroke-width="6.48"/>
<line x1="2032.924367" y1="1998.28471" x2="2032.924367" y2="1967.39671" stroke="black" stroke-width="6.48"/>
<line x1="2032.924367" y1="1967.39671" x2="1823.361167" y2="1967.39671" stroke="black" stroke-width="6.48"/>
<line x1="1823.361167" y1="1967.39671" x2="1823.361167" y2="1998.28471" stroke="black" stroke-width="6.48"/>
<line x1="1823.361167" y1="1998.28471" x2="2032.924367" y2="1998.28471" stroke="black" stroke-width="6.48"/>
<line x1="2032.924367" y1="1794.42391" x2="2032.924367" y2="1763.53591" stroke="black" stroke-width="6.48"/>
<line x1="2032.924367" y1="1763.53591" x2="1823.361167" y2="1763.53591" stroke="black" stroke-width="6.48"/>
<line x1="1823.361167" y1="1763.53591" x2="1823.361167" y2="1794.42391" stroke="black" stroke-width="6.48"/>
<line x1="1823.361167" y1="1794.42391" x2="2032.924367" y2="1794.42391" stroke="black" stroke-width="6.48"/>
<line x1="2032.924367" y1="1967.87191" x2="2032.924367" y2="1794.42391" stroke="black" stroke-width="6.48"/>
<line x1="1824.311567" y1="1968.34711" x2="1798.175567" y2="1941.73591" stroke="black" stroke-width="6.48"/>
<line x1="1798.175567" y1="1820.55991" x2="1824.311567" y2="1793.94871" stroke="black" stroke-width="6.48"/>
<line x1="1798.175567" y1="1943.63671" x2="1798.175567" y2="1818.65911" stroke="black" stroke-width="6.48"/>
<line x1="1988.255567" y1="1967.39671" x2="1988.255567" y2="1793.94871" stroke="black" stroke-width="6.48"/>
<line x1="1485.415969" y1="209.267824" x2="1707.693134" y2="209.267824" stroke="black" stroke-width="6.48"/>
<line x1="1707.693134" y1="209.267824" x2="1707.693134" y2="432.000475" stroke="black" stroke-width="6.48"/>
<line x1="1707.693134" y1="432.000475" x2="1485.415969" y2="432.000475" stroke="black" stroke-width="6.48"/>
<line x1="1485.415969" y1="432.000475" x2="1485.415969" y2="209.267824" stroke="black" stroke-width="6.48"/>
<line x1="1484.960483" y1="208.812337" x2="1707.693134" y2="432.000475" stroke="black" stroke-width="6.48"/>
<line x1="1485.415969" y1="431.544989" x2="1707.237648" y2="209.267824" stroke="black" stroke-width="6.48"/>
<line x1="2761.020558" y1="2194.614338" x2="2761.020558" y2="1803.366338" stroke="black" stroke-width="6.48"/>
<line x1="2761.020558" y1="1803.366338" x2="2586.780558" y2="1803.366338" stroke="black" stroke-width="6.48"/>
<line x1="2586.780558" y1="1803.366338" x2="2586.780558" y2="2194.614338" stroke="black" stroke-width="6.48"/>
<line x1="2586.780558" y1="2194.614338" x2="2761.020558" y2="2194.614338" stroke="black" stroke-width="6.48"/>
<line x1="2613.708558" y1="1878.606338" x2="2613.708558" y2="2162.934338" stroke="black" stroke-width="6.48"/>
<line x1="2613.708558" y1="2162.934338" x2="2731.716558" y2="2162.934338" stroke="black" stroke-width="6.48"/>
<line x1="2731.716558" y1="2162.934338" x2="2731.716558" y2="1873.062338" stroke="black" stroke-width="6.48"/>
<path d="m 2613.453134,1879.416911 a 63.3599990854681,63.3599990854681 0 0 1 119.3743300000001,-4.293814000000111" fill="none" stroke="black" stroke-width="6.48"/>
<line x1="2105.553586" y1="1874.392589" x2="2105.553586" y2="2058.136589" stroke="black" stroke-width="6.48"/>
<line x1="2105.553586" y1="2058.136589" x2="2056.449586" y2="2058.136589" stroke="black" stroke-width="6.48"/>
<line x1="2056.449586" y1="1874.392589" x2="2056.449586" y2="2058.136589" stroke="black" stroke-width="6.48"/>
<line x1="2105.553586" y1="1874.392589" x2="2056.449586" y2="1874.392589" stroke="black" stroke-width="6.48"/>
<line x1="2133.273586" y1="1915.972589" x2="2105.553586" y2="1915.972589" stroke="black" stroke-width="6.48"/>
<line x1="2105.553586" y1="2014.972589" x2="2134.857586" y2="2014.972589" stroke="black" stroke-width="6.48"/>
<circle cx="2178.417586" cy="1964.680589" r="66.52800000000002" fill="none" stroke="black" stroke-width="6.48"/>
<circle cx="2178.417586" cy="1964.680589" r="57.02400000000001" fill="none" stroke="black" stroke-width="6.48"/>
<line x1="908.885804" y1="209.97324" x2="1179.433004" y2="209.97324" stroke="black" stroke-width="6.48"/>
<line x1="1179.433004" y1="209.97324" x2="1179.433004" y2="341.92044" stroke="black" stroke-width="6.48"/>
<line x1="908.885804" y1="341.92044" x2="1179.433004" y2="341.92044" stroke="black" stroke-width="6.48"/>
<line x1="908.885804" y1="209.97324" x2="908.885804" y2="341.92044" stroke="black" stroke-width="6.48"/>
<line x1="915.538604" y1="216.62604" x2="1053.584204" y2="216.62604" stroke="black" stroke-width="6.48"/>
<line x1="1053.584204" y1="216.62604" x2="1053.584204" y2="334.71324" stroke="black" stroke-width="6.48"/>
<line x1="915.538604" y1="334.71324" x2="1053.584204" y2="334.71324" stroke="black" stroke-width="6.48"/>
<line x1="915.538604" y1="216.62604" x2="915.538604" y2="334.71324" stroke="black" stroke-width="6.48"/>
<line x1="1067.998604" y1="224.38764" x2="1165.018604" y2="224.38764" stroke="black" stroke-width="6.48"/>
<line x1="1067.998604" y1="244.90044" x2="1165.018604" y2="244.90044" stroke="black" stroke-width="6.48"/>
<line x1="1068.553004" y1="265.96764" x2="1165.573004" y2="265.96764" stroke="black" stroke-width="6.48"/>
<line x1="1068.553004" y1="286.48044" x2="1165.573004" y2="286.48044" stroke="black" stroke-width="6.48"/>
<line x1="1067.998604" y1="306.99324" x2="1165.018604" y2="306.99324" stroke="black" stroke-width="6.48"/>
<line x1="1067.998604" y1="327.50604" x2="1165.018604" y2="327.50604" stroke="black" stroke-width="6.48"/>
<line x1="968.206604" y1="334.71324" x2="968.206604" y2="320.85324" stroke="black" stroke-width="6.48"/>
<line x1="968.206604" y1="320.85324" x2="1002.579404" y2="320.85324" stroke="black" stroke-width="6.48"/>
<line x1="1002.579404" y1="320.85324" x2="1002.579404" y2="334.15884" stroke="black" stroke-width="6.48"/>
<circle cx="1038.061004" cy="231.59484" r="8.316000000000003" fill="none" stroke="black" stroke-width="6.48"/>
<line x1="2044.889399" y1="955.822399" x2="2267.166564" y2="955.822399" stroke="black" stroke-width="6.48"/>
<line x1="2267.166564" y1="955.822399" x2="2267.166564" y2="1178.555051" stroke="black" stroke-width="6.48"/>
<line x1="2267.166564" y1="1178.555051" x2="2044.889399" y2="1178.555051" stroke="black" stroke-width="6.48"/>
<line x1="2044.889399" y1="1178.555051" x2="2044.889399" y2="955.822399" stroke="black" stroke-width="6.48"/>
<line x1="2044.433912" y1="955.366913" x2="2267.166564" y2="1178.555051" stroke="black" stroke-width="6.48"/>
<line x1="2044.889399" y1="1178.099564" x2="2266.711078" y2="955.822399" stroke="black" stroke-width="6.48"/>
<line x1="323.258818" y1="1375.374532" x2="323.258818" y2="949.841089" stroke="black" stroke-width="6.48"/>
<line x1="323.258818" y1="949.841089" x2="257.659344" y2="949.841089" stroke="black" stroke-width="6.48"/>
<line x1="257.659344" y1="949.841089" x2="257.659344" y2="1375.374532" stroke="black" stroke-width="6.48"/>
<line x1="257.659344" y1="1375.374532" x2="323.258818" y2="1375.374532" stroke="black" stroke-width="6.48"/>
<line x1="258.522494" y1="1335.669588" x2="322.395667" y2="1335.669588" stroke="black" stroke-width="6.48"/>
<line x1="258.522494" y1="990.409187" x2="324.985122" y2="990.409187" stroke="black" stroke-width="6.48"/>
<line x1="288.73278" y1="1336.532738" x2="288.73278" y2="991.272337" stroke="black" stroke-width="6.48"/>
<line x1="3874.406537" y1="1514.726719" x2="3874.406537" y2="1940.260162" stroke="black" stroke-width="6.48"/>
<line x1="3874.406537" y1="1940.260162" x2="3940.00601" y2="1940.260162" stroke="black" stroke-width="6.48"/>
<line x1="3940.00601" y1="1940.260162" x2="3940.00601" y2="1514.726719" stroke="black" stroke-width="6.48"/>
<line x1="3940.00601" y1="1514.726719" x2="3874.406537" y2="1514.726719" stroke="black" stroke-width="6.48"/>
<line x1="3939.14286" y1="1554.431663" x2="3875.269687" y2="1554.431663" stroke="black" stroke-width="6.48"/>
<line x1="3939.14286" y1="1899.692064" x2="3872.680232" y2="1899.692064" stroke="black" stroke-width="6.48"/>
<line x1="3908.932574" y1="1553.568512" x2="3908.932574" y2="1898.828914" stroke="black" stroke-width="6.48"/>
<line x1="4641.991128" y1="1596.77915" x2="5032.671152" y2="1637.841276" stroke="black" stroke-width="6.48"/>
<line x1="5032.671152" y1="1637.841276" x2="5051.960417" y2="1454.316185" stroke="black" stroke-width="6.48"/>
<line x1="5051.960417" y1="1454.316185" x2="4661.280392" y2="1413.254059" stroke="black" stroke-width="6.48"/>
<line x1="4661.280392" y1="1413.254059" x2="4641.991128" y2="1596.77915" stroke="black" stroke-width="6.48"/>
<line x1="4819.600321" y1="1429.894152" x2="4828.04455" y2="1349.552696" stroke="black" stroke-width="6.48"/>
<line x1="4828.04455" y1="1349.552696" x2="4750.066073" y2="1341.356828" stroke="black" stroke-width="6.48"/>
<line x1="4750.066073" y1="1341.356828" x2="4741.621848" y2="1421.698288" stroke="black" stroke-width="6.48"/>
<line x1="4749.032434" y1="1358.768164" x2="4826.223245" y2="1366.881246" stroke="black" stroke-width="6.48"/>
<line x1="4713.80557" y1="1686.352496" x2="4791.784046" y2="1694.548364" stroke="black" stroke-width="6.48"/>
<line x1="4791.784046" y1="1694.548364" x2="4800.311057" y2="1613.419247" stroke="black" stroke-width="6.48"/>
<line x1="4722.332584" y1="1605.223379" x2="4713.80557" y2="1686.352496" stroke="black" stroke-width="6.48"/>
<line x1="4716.414536" y1="1669.106732" x2="4793.605348" y2="1677.219815" stroke="black" stroke-width="6.48"/>
<line x1="4970.043637" y1="1445.706385" x2="4978.487862" y2="1365.364926" stroke="black" stroke-width="6.48"/>
<line x1="4978.487862" y1="1365.364926" x2="4900.509392" y2="1357.169058" stroke="black" stroke-width="6.48"/>
<line x1="4900.509392" y1="1357.169058" x2="4892.065164" y2="1437.510514" stroke="black" stroke-width="6.48"/>
<line x1="4898.688091" y1="1374.497608" x2="4976.666561" y2="1382.693476" stroke="black" stroke-width="6.48"/>
<line x1="4864.248889" y1="1702.164722" x2="4942.227359" y2="1710.360594" stroke="black" stroke-width="6.48"/>
<line x1="4942.227359" y1="1710.360594" x2="4950.754373" y2="1629.231476" stroke="black" stroke-width="6.48"/>
<line x1="4872.7759" y1="1621.035605" x2="4864.248889" y2="1702.164722" stroke="black" stroke-width="6.48"/>
<line x1="4866.07019" y1="1684.836176" x2="4944.048664" y2="1693.032044" stroke="black" stroke-width="6.48"/>
<line x1="3291.011989" y1="1074.932838" x2="3500.377193" y2="1074.932838" stroke="black" stroke-width="6.48"/>
<line x1="3500.377193" y1="1074.932838" x2="3500.377193" y2="743.718434" stroke="black" stroke-width="6.48"/>
<line x1="3500.377193" y1="743.718434" x2="3291.011989" y2="743.718434" stroke="black" stroke-width="6.48"/>
<line x1="3291.011989" y1="743.718434" x2="3291.011989" y2="1074.932838" stroke="black" stroke-width="6.48"/>
<line x1="3290.338789" y1="802.960034" x2="3501.050389" y2="802.960034" stroke="black" stroke-width="6.48"/>
<line x1="3501.050389" y1="802.960034" x2="3291.685189" y2="852.776838" stroke="black" stroke-width="6.48"/>
<line x1="3291.685189" y1="852.776838" x2="3323.325593" y2="899.227638" stroke="black" stroke-width="6.48"/>
<line x1="3323.325593" y1="899.227638" x2="3501.050389" y2="802.286838" stroke="black" stroke-width="6.48"/>
<line x1="3319.138134" y1="1203.501928" x2="3541.415299" y2="1203.501928" stroke="black" stroke-width="6.48"/>
<line x1="3541.415299" y1="1203.501928" x2="3541.415299" y2="1426.234579" stroke="black" stroke-width="6.48"/>
<line x1="3541.415299" y1="1426.234579" x2="3319.138134" y2="1426.234579" stroke="black" stroke-width="6.48"/>
<line x1="3319.138134" y1="1426.234579" x2="3319.138134" y2="1203.501928" stroke="black" stroke-width="6.48"/>
<line x1="3318.682648" y1="1203.046441" x2="3541.415299" y2="1426.234579" stroke="black" stroke-width="6.48"/>
<line x1="3319.138134" y1="1425.779093" x2="3540.959813" y2="1203.501928" stroke="black" stroke-width="6.48"/>
<line x1="2804.16708" y1="1127.69402" x2="2804.16708" y2="1153.148746" stroke="black" stroke-width="6.48"/>
<line x1="2804.16708" y1="1153.148746" x2="2853.834836" y2="1153.148746" stroke="black" stroke-width="6.48"/>
<line x1="2853.834836" y1="1153.148746" x2="2853.834836" y2="1127.69402" stroke="black" stroke-width="6.48"/>
<line x1="2853.834836" y1="1127.69402" x2="2804.16708" y2="1127.69402" stroke="black" stroke-width="6.48"/>
<line x1="2853.834836" y1="1402.108373" x2="3101.55277" y2="1402.108373" stroke="black" stroke-width="6.48"/>
<line x1="2802.925386" y1="1402.729218" x2="2802.925386" y2="1428.183943" stroke="black" stroke-width="6.48"/>
<line x1="2802.925386" y1="1428.183943" x2="2852.593142" y2="1428.183943" stroke="black" stroke-width="6.48"/>
<line x1="2852.593142" y1="1428.183943" x2="2852.593142" y2="1402.729218" stroke="black" stroke-width="6.48"/>
<line x1="2852.593142" y1="1402.729218" x2="2802.925386" y2="1402.729218" stroke="black" stroke-width="6.48"/>
<path d="m 2851.972294,1153.148746 a 248.95962699999984,248.95962699999984 0 0 1 248.95962699999973,248.95962699999995" fill="none" stroke="black" stroke-width="6.48"/>
<line x1="3632.396224" y1="1941.896668" x2="3407.386972" y2="1885.795564" stroke="black" stroke-width="6.48"/>
<line x1="3407.386972" y1="1885.795564" x2="3463.603042" y2="1660.325231" stroke="black" stroke-width="6.48"/>
<line x1="3463.603042" y1="1660.325231" x2="3688.612294" y2="1716.426335" stroke="black" stroke-width="6.48"/>
<line x1="3688.612294" y1="1716.426335" x2="3632.396224" y2="1941.896668" stroke="black" stroke-width="6.48"/>
<line x1="3632.742349" y1="1942.472714" x2="3463.603042" y2="1660.325231" stroke="black" stroke-width="6.48"/>
<line x1="3688.497331" y1="1716.887423" x2="3407.84806" y2="1885.910526" stroke="black" stroke-width="6.48"/>
<line x1="3089.601562" y1="1589.315879" x2="3074.626764" y2="1616.331136" stroke="black" stroke-width="6.48"/>
<line x1="3074.626764" y1="1616.331136" x2="3257.914867" y2="1717.929389" stroke="black" stroke-width="6.48"/>
<line x1="3257.914867" y1="1717.929389" x2="3272.889668" y2="1690.914139" stroke="black" stroke-width="6.48"/>
<line x1="3272.889668" y1="1690.914139" x2="3089.601562" y2="1589.315879" stroke="black" stroke-width="6.48"/>
<line x1="2990.767882" y1="1767.616553" x2="2975.793084" y2="1794.63181" stroke="black" stroke-width="6.48"/>
<line x1="2975.793084" y1="1794.63181" x2="3159.081187" y2="1896.230063" stroke="black" stroke-width="6.48"/>
<line x1="3159.081187" y1="1896.230063" x2="3174.055988" y2="1869.21481" stroke="black" stroke-width="6.48"/>
<line x1="3174.055988" y1="1869.21481" x2="2990.767882" y2="1767.616553" stroke="black" stroke-width="6.48"/>
<line x1="3074.857146" y1="1615.915516" x2="2990.767882" y2="1767.616553" stroke="black" stroke-width="6.48"/>
<line x1="3257.544391" y1="1716.637388" x2="3267.502088" y2="1752.583054" stroke="black" stroke-width="6.48"/>
<line x1="3208.754794" y1="1858.56597" x2="3172.99437" y2="1869.169666" stroke="black" stroke-width="6.48"/>
<line x1="3268.423613" y1="1750.920577" x2="3207.833273" y2="1860.22845" stroke="black" stroke-width="6.48"/>
<line x1="3113.694976" y1="1637.987" x2="3029.605718" y2="1789.688038" stroke="black" stroke-width="6.48"/>
<line x1="1091.341408" y1="1905.193332" x2="1107.709546" y2="1931.38785" stroke="black" stroke-width="6.48"/>
<line x1="1107.709546" y1="1931.38785" x2="1285.429244" y2="1820.336317" stroke="black" stroke-width="6.48"/>
<line x1="1285.429244" y1="1820.336317" x2="1269.061106" y2="1794.141803" stroke="black" stroke-width="6.48"/>
<line x1="1269.061106" y1="1794.141803" x2="1091.341408" y2="1905.193332" stroke="black" stroke-width="6.48"/>
<line x1="1199.371126" y1="2078.077126" x2="1215.739267" y2="2104.27164" stroke="black" stroke-width="6.48"/>
<line x1="1215.739267" y1="2104.27164" x2="1393.45897" y2="1993.220107" stroke="black" stroke-width="6.48"/>
<line x1="1393.45897" y1="1993.220107" x2="1377.090828" y2="1967.025593" stroke="black" stroke-width="6.48"/>
<line x1="1377.090828" y1="1967.025593" x2="1199.371126" y2="2078.077126" stroke="black" stroke-width="6.48"/>
<line x1="1107.457729" y1="1930.984855" x2="1199.371126" y2="2078.077126" stroke="black" stroke-width="6.48"/>
<line x1="1284.119626" y1="1820.033968" x2="1320.385997" y2="1828.751584" stroke="black" stroke-width="6.48"/>
<line x1="1384.599467" y1="1931.514674" x2="1376.536662" y2="1967.93222" stroke="black" stroke-width="6.48"/>
<line x1="1319.37872" y1="1827.139615" x2="1385.60674" y2="1933.126646" stroke="black" stroke-width="6.48"/>
<line x1="1145.590841" y1="1907.717004" x2="1237.504241" y2="2054.809271" stroke="black" stroke-width="6.48"/>
<line x1="6348.985157" y1="1928.962598" x2="6160.754999" y2="1955.416622" stroke="black" stroke-width="6.48"/>
<line x1="6160.754999" y1="1955.416622" x2="6225.302815" y2="2414.6982" stroke="black" stroke-width="6.48"/>
<line x1="6225.302815" y1="2414.6982" x2="6413.53297" y2="2388.244176" stroke="black" stroke-width="6.48"/>
<line x1="6413.53297" y1="2388.244176" x2="6410.226218" y2="2364.715408" stroke="black" stroke-width="6.48"/>
<line x1="6410.226218" y1="2364.715408" x2="6244.583681" y2="2387.994944" stroke="black" stroke-width="6.48"/>
<line x1="6244.583681" y1="2387.994944" x2="6186.781642" y2="1976.712059" stroke="black" stroke-width="6.48"/>
<line x1="6186.781642" y1="1976.712059" x2="6352.424179" y2="1953.432522" stroke="black" stroke-width="6.48"/>
<line x1="6352.424179" y1="1953.432522" x2="6348.985157" y2="1928.962598" stroke="black" stroke-width="6.48"/>
<line x1="6346.777273" y1="1954.226142" x2="6404.579316" y2="2365.509028" stroke="black" stroke-width="6.48"/>
<line x1="6376.553309" y1="2159.26474" x2="6216.557677" y2="2181.750656" stroke="black" stroke-width="6.48"/>
<line x1="835.827682" y1="958.968547" x2="967.852804" y2="954.358132" stroke="black" stroke-width="6.48"/>
<line x1="967.852804" y1="954.358132" x2="968.350331" y2="968.605445" stroke="black" stroke-width="6.48"/>
<line x1="836.325205" y1="973.215864" x2="968.350331" y2="968.605445" stroke="black" stroke-width="6.48"/>
<line x1="835.827682" y1="958.968547" x2="836.325205" y2="973.215864" stroke="black" stroke-width="6.48"/>
<line x1="849.622705" y1="972.751507" x2="848.817619" y2="1004.161936" stroke="black" stroke-width="6.48"/>
<line x1="955.052838" y1="969.069802" x2="958.080211" y2="1001.297383" stroke="black" stroke-width="6.48"/>
<line x1="851.914397" y1="1419.631758" x2="983.939522" y2="1415.021335" stroke="black" stroke-width="6.48"/>
<line x1="983.939522" y1="1415.021335" x2="983.475158" y2="1401.723842" stroke="black" stroke-width="6.48"/>
<line x1="851.450033" y1="1406.334258" x2="983.475158" y2="1401.723842" stroke="black" stroke-width="6.48"/>
<line x1="851.914397" y1="1419.631758" x2="851.450033" y2="1406.334258" stroke="black" stroke-width="6.48"/>
<line x1="863.731372" y1="1404.003427" x2="860.737169" y2="1372.72567" stroke="black" stroke-width="6.48"/>
<line x1="969.161508" y1="1400.321729" x2="970.883244" y2="1367.928306" stroke="black" stroke-width="6.48"/>
<line x1="1136.960176" y1="1112.972191" x2="1122.712859" y2="1113.469718" stroke="black" stroke-width="6.48"/>
<line x1="1122.712859" y1="1113.469718" x2="1127.323274" y2="1245.494844" stroke="black" stroke-width="6.48"/>
<line x1="1141.570591" y1="1244.997317" x2="1127.323274" y2="1245.494844" stroke="black" stroke-width="6.48"/>
<line x1="1136.960176" y1="1112.972191" x2="1141.570591" y2="1244.997317" stroke="black" stroke-width="6.48"/>
<line x1="1126.825751" y1="1231.247527" x2="1094.63134" y2="1235.224721" stroke="black" stroke-width="6.48"/>
<line x1="1123.177216" y1="1126.767211" x2="1090.816963" y2="1125.995303" stroke="black" stroke-width="6.48"/>
<line x1="677.213618" y1="1128.075916" x2="691.460935" y2="1127.578392" stroke="black" stroke-width="6.48"/>
<line x1="691.460935" y1="1127.578392" x2="696.071354" y2="1259.603514" stroke="black" stroke-width="6.48"/>
<line x1="681.824041" y1="1260.101041" x2="696.071354" y2="1259.603514" stroke="black" stroke-width="6.48"/>
<line x1="677.213618" y1="1128.075916" x2="681.824041" y2="1260.101041" stroke="black" stroke-width="6.48"/>
<line x1="695.573827" y1="1245.356201" x2="727.967246" y2="1247.077933" stroke="black" stroke-width="6.48"/>
<line x1="691.925296" y1="1140.875885" x2="724.152874" y2="1137.848512" stroke="black" stroke-width="6.48"/>
<circle cx="909.392105" cy="1186.536618" r="191.98080000000002" fill="none" stroke="black" stroke-width="6.48"/>
<line x1="3840.070216" y1="1109.27808" x2="3832.075814" y2="1079.442565" stroke="black" stroke-width="6.48"/>
<line x1="3832.075814" y1="1079.442565" x2="3629.653304" y2="1133.681512" stroke="black" stroke-width="6.48"/>
<line x1="3629.653304" y1="1133.681512" x2="3637.647706" y2="1163.517026" stroke="black" stroke-width="6.48"/>
<line x1="3637.647706" y1="1163.517026" x2="3840.070216" y2="1109.27808" stroke="black" stroke-width="6.48"/>
<line x1="3787.307158" y1="912.363671" x2="3779.312753" y2="882.528149" stroke="black" stroke-width="6.48"/>
<line x1="3779.312753" y1="882.528149" x2="3576.890246" y2="936.767099" stroke="black" stroke-width="6.48"/>
<line x1="3576.890246" y1="936.767099" x2="3584.884651" y2="966.602617" stroke="black" stroke-width="6.48"/>
<line x1="3584.884651" y1="966.602617" x2="3787.307158" y2="912.363671" stroke="black" stroke-width="6.48"/>
<line x1="3832.198805" y1="1079.901572" x2="3787.307158" y2="912.363671" stroke="black" stroke-width="6.48"/>
<line x1="3630.817303" y1="1134.353542" x2="3598.68438" y2="1115.413596" stroke="black" stroke-width="6.48"/>
<line x1="3567.32172" y1="998.366566" x2="3585.679675" y2="965.897626" stroke="black" stroke-width="6.48"/>
<line x1="3599.176342" y1="1117.249625" x2="3566.829758" y2="996.530533" stroke="black" stroke-width="6.48"/>
<line x1="3788.929062" y1="1091.003699" x2="3744.037418" y2="923.465797" stroke="black" stroke-width="6.48"/>
<line x1="559.513084" y1="209.119025" x2="830.060284" y2="209.119025" stroke="black" stroke-width="6.48"/>
<line x1="830.060284" y1="209.119025" x2="830.060284" y2="341.066225" stroke="black" stroke-width="6.48"/>
<line x1="559.513084" y1="341.066225" x2="830.060284" y2="341.066225" stroke="black" stroke-width="6.48"/>
<line x1="559.513084" y1="209.119025" x2="559.513084" y2="341.066225" stroke="black" stroke-width="6.48"/>
<line x1="566.165884" y1="215.771825" x2="704.211484" y2="215.771825" stroke="black" stroke-width="6.48"/>
<line x1="704.211484" y1="215.771825" x2="704.211484" y2="333.859025" stroke="black" stroke-width="6.48"/>
<line x1="566.165884" y1="333.859025" x2="704.211484" y2="333.859025" stroke="black" stroke-width="6.48"/>
<line x1="566.165884" y1="215.771825" x2="566.165884" y2="333.859025" stroke="black" stroke-width="6.48"/>
<line x1="718.625884" y1="223.533425" x2="815.645884" y2="223.533425" stroke="black" stroke-width="6.48"/>
<line x1="718.625884" y1="244.046225" x2="815.645884" y2="244.046225" stroke="black" stroke-width="6.48"/>
<line x1="719.180284" y1="265.113425" x2="816.200284" y2="265.113425" stroke="black" stroke-width="6.48"/>
<line x1="719.180284" y1="285.626225" x2="816.200284" y2="285.626225" stroke="black" stroke-width="6.48"/>
<line x1="718.625884" y1="306.139025" x2="815.645884" y2="306.139025" stroke="black" stroke-width="6.48"/>
<line x1="718.625884" y1="326.651825" x2="815.645884" y2="326.651825" stroke="black" stroke-width="6.48"/>
<line x1="618.833884" y1="333.859025" x2="618.833884" y2="319.999025" stroke="black" stroke-width="6.48"/>
<line x1="618.833884" y1="319.999025" x2="653.206684" y2="319.999025" stroke="black" stroke-width="6.48"/>
<line x1="653.206684" y1="319.999025" x2="653.206684" y2="333.304625" stroke="black" stroke-width="6.48"/>
<circle cx="688.688284" cy="230.740625" r="8.316000000000003" fill="none" stroke="black" stroke-width="6.48"/>
</g>
</svg>
