<?xml version="1.0"?>
<svg xmlns:xlink="http://www.w3.org/1999/xlink" width="6775.2" height="2858.4">
<image x="0" y="0" width="6775.2" height="2858.4" xlink:href="groundfilled-01.png"/>
<g style="stroke-linecap:round">
<line x1="1285.950406" y1="795.178109" x2="1311.346069" y2="795.178109" stroke="black" stroke-width="6.48"/>
<line x1="1311.346069" y1="795.178109" x2="1311.346069" y2="745.625592" stroke="black" stroke-width="6.48"/>
<line x1="1311.346069" y1="745.625592" x2="1285.950406" y2="745.625592" stroke="black" stroke-width="6.48"/>
<line x1="1285.950406" y1="745.625592" x2="1285.950406" y2="795.178109" stroke="black" stroke-width="6.48"/>
<line x1="1559.728062" y1="745.625592" x2="1559.728062" y2="498.48241" stroke="black" stroke-width="6.48"/>
<line x1="1560.347471" y1="796.416923" x2="1585.743134" y2="796.416923" stroke="black" stroke-width="6.48"/>
<line x1="1585.743134" y1="796.416923" x2="1585.743134" y2="746.864406" stroke="black" stroke-width="6.48"/>
<line x1="1585.743134" y1="746.864406" x2="1560.347471" y2="746.864406" stroke="black" stroke-width="6.48"/>
<line x1="1560.347471" y1="746.864406" x2="1560.347471" y2="796.416923" stroke="black" stroke-width="6.48"/>
<path d="m 1311.346069,747.483811 a 248.38199299999997,248.38199299999997 0 0 1 248.38199299999997,-248.38199299999997" fill="none" stroke="black" stroke-width="6.48"/>
<line x1="320.532556" y1="771.34176" x2="320.532556" y2="366.736194" stroke="black" stroke-width="6.48"/>
<line x1="320.532556" y1="366.736194" x2="258.159283" y2="366.736194" stroke="black" stroke-width="6.48"/>
<line x1="258.159283" y1="366.736194" x2="258.159283" y2="771.34176" stroke="black" stroke-width="6.48"/>
<line x1="258.159283" y1="771.34176" x2="320.532556" y2="771.34176" stroke="black" stroke-width="6.48"/>
<line x1="258.979986" y1="733.589518" x2="319.711856" y2="733.589518" stroke="black" stroke-width="6.48"/>
<line x1="258.979986" y1="405.309139" x2="322.173958" y2="405.309139" stroke="black" stroke-width="6.48"/>
<line x1="287.704519" y1="734.410217" x2="287.704519" y2="406.129838" stroke="black" stroke-width="6.48"/>
<line x1="3901.945176" y1="1169.331426" x2="3901.945176" y2="1428.837066" stroke="black" stroke-width="6.48"/>
<line x1="3901.945176" y1="1428.837066" x2="3941.9501" y2="1428.837066" stroke="black" stroke-width="6.48"/>
<line x1="3941.9501" y1="1428.837066" x2="3941.9501" y2="1169.331426" stroke="black" stroke-width="6.48"/>
<line x1="3941.9501" y1="1169.331426" x2="3901.945176" y2="1169.331426" stroke="black" stroke-width="6.48"/>
<line x1="3941.423719" y1="1193.544936" x2="3902.471557" y2="1193.544936" stroke="black" stroke-width="6.48"/>
<line x1="3941.423719" y1="1404.097178" x2="3900.892414" y2="1404.097178" stroke="black" stroke-width="6.48"/>
<line x1="3923.000399" y1="1193.018555" x2="3923.000399" y2="1403.570797" stroke="black" stroke-width="6.48"/>
<line x1="334.430687" y1="1882.943946" x2="334.430687" y2="1457.437414" stroke="black" stroke-width="6.48"/>
<line x1="334.430687" y1="1457.437414" x2="258.323828" y2="1457.437414" stroke="black" stroke-width="6.48"/>
<line x1="258.323828" y1="1457.437414" x2="258.323828" y2="1882.943946" stroke="black" stroke-width="6.48"/>
<line x1="258.323828" y1="1882.943946" x2="334.430687" y2="1882.943946" stroke="black" stroke-width="6.48"/>
<line x1="334.430687" y1="1863.05238" x2="360.376207" y2="1863.05238" stroke="black" stroke-width="6.48"/>
<line x1="360.376207" y1="1863.05238" x2="360.376207" y2="1478.193829" stroke="black" stroke-width="6.48"/>
<line x1="334.430687" y1="1478.193829" x2="360.376207" y2="1478.193829" stroke="black" stroke-width="6.48"/>
<line x1="2747.905531" y1="904.670665" x2="2721.68303" y2="904.670665" stroke="black" stroke-width="6.48"/>
<line x1="2721.68303" y1="904.670665" x2="2721.68303" y2="955.836522" stroke="black" stroke-width="6.48"/>
<line x1="2721.68303" y1="955.836522" x2="2747.905531" y2="955.836522" stroke="black" stroke-width="6.48"/>
<line x1="2747.905531" y1="955.836522" x2="2747.905531" y2="904.670665" stroke="black" stroke-width="6.48"/>
<line x1="2465.214181" y1="955.836522" x2="2465.214181" y2="1211.026223" stroke="black" stroke-width="6.48"/>
<line x1="2464.574609" y1="903.39152" x2="2438.352108" y2="903.39152" stroke="black" stroke-width="6.48"/>
<line x1="2438.352108" y1="903.39152" x2="2438.352108" y2="954.557374" stroke="black" stroke-width="6.48"/>
<line x1="2438.352108" y1="954.557374" x2="2464.574609" y2="954.557374" stroke="black" stroke-width="6.48"/>
<line x1="2464.574609" y1="954.557374" x2="2464.574609" y2="903.39152" stroke="black" stroke-width="6.48"/>
<path d="m 2721.68303,953.917801 a 256.4688490000001,256.4688490000001 0 0 1 -256.4688490000003,256.46884899999986" fill="none" stroke="black" stroke-width="6.48"/>
<line x1="2420.532389" y1="1427.858834" x2="2395.136725" y2="1427.858834" stroke="black" stroke-width="6.48"/>
<line x1="2395.136725" y1="1427.858834" x2="2395.136725" y2="1477.411351" stroke="black" stroke-width="6.48"/>
<line x1="2395.136725" y1="1477.411351" x2="2420.532389" y2="1477.411351" stroke="black" stroke-width="6.48"/>
<line x1="2420.532389" y1="1477.411351" x2="2420.532389" y2="1427.858834" stroke="black" stroke-width="6.48"/>
<line x1="2146.754732" y1="1477.411351" x2="2146.754732" y2="1724.554534" stroke="black" stroke-width="6.48"/>
<line x1="2146.135324" y1="1426.62002" x2="2120.73966" y2="1426.62002" stroke="black" stroke-width="6.48"/>
<line x1="2120.73966" y1="1426.62002" x2="2120.73966" y2="1476.172537" stroke="black" stroke-width="6.48"/>
<line x1="2120.73966" y1="1476.172537" x2="2146.135324" y2="1476.172537" stroke="black" stroke-width="6.48"/>
<line x1="2146.135324" y1="1476.172537" x2="2146.135324" y2="1426.62002" stroke="black" stroke-width="6.48"/>
<path d="m 2395.136725,1475.553132 a 248.38199299999997,248.38199299999997 0 0 1 -248.38199299999997,248.38199299999997" fill="none" stroke="black" stroke-width="6.48"/>
<line x1="691.168579" y1="692.136151" x2="1084.000579" y2="692.136151" stroke="black" stroke-width="6.48"/>
<line x1="1084.000579" y1="692.136151" x2="1084.000579" y2="507.600151" stroke="black" stroke-width="6.48"/>
<line x1="1084.000579" y1="507.600151" x2="691.168579" y2="507.600151" stroke="black" stroke-width="6.48"/>
<line x1="691.168579" y1="507.600151" x2="691.168579" y2="692.136151" stroke="black" stroke-width="6.48"/>
<line x1="850.360579" y1="507.600151" x2="850.360579" y2="426.816151" stroke="black" stroke-width="6.48"/>
<line x1="850.360579" y1="426.816151" x2="771.952579" y2="426.816151" stroke="black" stroke-width="6.48"/>
<line x1="771.952579" y1="426.816151" x2="771.952579" y2="507.600151" stroke="black" stroke-width="6.48"/>
<line x1="772.744579" y1="444.240151" x2="850.360579" y2="444.240151" stroke="black" stroke-width="6.48"/>
<line x1="771.952579" y1="773.712151" x2="850.360579" y2="773.712151" stroke="black" stroke-width="6.48"/>
<line x1="850.360579" y1="773.712151" x2="850.360579" y2="692.136151" stroke="black" stroke-width="6.48"/>
<line x1="771.952579" y1="692.136151" x2="771.952579" y2="773.712151" stroke="black" stroke-width="6.48"/>
<line x1="772.744579" y1="756.288151" x2="850.360579" y2="756.288151" stroke="black" stroke-width="6.48"/>
<line x1="1001.632579" y1="507.600151" x2="1001.632579" y2="426.816151" stroke="black" stroke-width="6.48"/>
<line x1="1001.632579" y1="426.816151" x2="923.224579" y2="426.816151" stroke="black" stroke-width="6.48"/>
<line x1="923.224579" y1="426.816151" x2="923.224579" y2="507.600151" stroke="black" stroke-width="6.48"/>
<line x1="923.224579" y1="444.240151" x2="1001.632579" y2="444.240151" stroke="black" stroke-width="6.48"/>
<line x1="923.224579" y1="773.712151" x2="1001.632579" y2="773.712151" stroke="black" stroke-width="6.48"/>
<line x1="1001.632579" y1="773.712151" x2="1001.632579" y2="692.136151" stroke="black" stroke-width="6.48"/>
<line x1="923.224579" y1="692.136151" x2="923.224579" y2="773.712151" stroke="black" stroke-width="6.48"/>
<line x1="923.224579" y1="756.288151" x2="1001.632579" y2="756.288151" stroke="black" stroke-width="6.48"/>
<line x1="2032.924367" y1="1838.744809" x2="2032.924367" y2="1807.856809" stroke="black" stroke-width="6.48"/>
<line x1="2032.924367" y1="1807.856809" x2="1823.361167" y2="1807.856809" stroke="black" stroke-width="6.48"/>
<line x1="1823.361167" y1="1807.856809" x2="1823.361167" y2="1838.744809" stroke="black" stroke-width="6.48"/>
<line x1="1823.361167" y1="1838.744809" x2="2032.924367" y2="1838.744809" stroke="black" stroke-width="6.48"/>
<line x1="2032.924367" y1="1634.884009" x2="2032.924367" y2="1603.996009" stroke="black" stroke-width="6.48"/>
<line x1="2032.924367" y1="1603.996009" x2="1823.361167" y2="1603.996009" stroke="black" stroke-width="6.48"/>
<line x1="1823.361167" y1="1603.996009" x2="1823.361167" y2="1634.884009" stroke="black" stroke-width="6.48"/>
<line x1="1823.361167" y1="1634.884009" x2="2032.924367" y2="1634.884009" stroke="black" stroke-width="6.48"/>
<line x1="2032.924367" y1="1808.332009" x2="2032.924367" y2="1634.884009" stroke="black" stroke-width="6.48"/>
<line x1="1824.311567" y1="1808.807209" x2="1798.175567" y2="1782.196009" stroke="black" stroke-width="6.48"/>
<line x1="1798.175567" y1="1661.020009" x2="1824.311567" y2="1634.408809" stroke="black" stroke-width="6.48"/>
<line x1="1798.175567" y1="1784.096809" x2="1798.175567" y2="1659.119209" stroke="black" stroke-width="6.48"/>
<line x1="1988.255567" y1="1807.856809" x2="1988.255567" y2="1634.408809" stroke="black" stroke-width="6.48"/>
<line x1="1485.415969" y1="209.267824" x2="1707.693134" y2="209.267824" stroke="black" stroke-width="6.48"/>
<line x1="1707.693134" y1="209.267824" x2="1707.693134" y2="432.000475" stroke="black" stroke-width="6.48"/>
<line x1="1707.693134" y1="432.000475" x2="1485.415969" y2="432.000475" stroke="black" stroke-width="6.48"/>
<line x1="1485.415969" y1="432.000475" x2="1485.415969" y2="209.267824" stroke="black" stroke-width="6.48"/>
<line x1="1484.960483" y1="208.812337" x2="1707.693134" y2="432.000475" stroke="black" stroke-width="6.48"/>
<line x1="1485.415969" y1="431.544989" x2="1707.237648" y2="209.267824" stroke="black" stroke-width="6.48"/>
<line x1="2586.780558" y1="1803.366338" x2="2586.780558" y2="2194.614338" stroke="black" stroke-width="6.48"/>
<line x1="2586.780558" y1="2194.614338" x2="2761.020558" y2="2194.614338" stroke="black" stroke-width="6.48"/>
<line x1="2761.020558" y1="2194.614338" x2="2761.020558" y2="1803.366338" stroke="black" stroke-width="6.48"/>
<line x1="2761.020558" y1="1803.366338" x2="2586.780558" y2="1803.366338" stroke="black" stroke-width="6.48"/>
<line x1="2734.092558" y1="2119.374338" x2="2734.092558" y2="1835.046338" stroke="black" stroke-width="6.48"/>
<line x1="2734.092558" y1="1835.046338" x2="2616.084558" y2="1835.046338" stroke="black" stroke-width="6.48"/>
<line x1="2616.084558" y1="1835.046338" x2="2616.084558" y2="2124.918338" stroke="black" stroke-width="6.48"/>
<path d="m 2734.347982,2118.563766 a 63.35999941905905,63.35999941905905 0 0 1 -119.37432999999965,4.2938139999996565" fill="none" stroke="black" stroke-width="6.48"/>
<line x1="2105.745228" y1="1898.539412" x2="2105.745228" y2="2082.283412" stroke="black" stroke-width="6.48"/>
<line x1="2105.745228" y1="2082.283412" x2="2056.641228" y2="2082.283412" stroke="black" stroke-width="6.48"/>
<line x1="2056.641228" y1="1898.539412" x2="2056.641228" y2="2082.283412" stroke="black" stroke-width="6.48"/>
<line x1="2105.745228" y1="1898.539412" x2="2056.641228" y2="1898.539412" stroke="black" stroke-width="6.48"/>
<line x1="2133.465228" y1="1940.119412" x2="2105.745228" y2="1940.119412" stroke="black" stroke-width="6.48"/>
<line x1="2105.745228" y1="2039.119412" x2="2135.049228" y2="2039.119412" stroke="black" stroke-width="6.48"/>
<circle cx="2178.609228" cy="1988.827412" r="66.52800000000002" fill="none" stroke="black" stroke-width="6.48"/>
<circle cx="2178.609228" cy="1988.827412" r="57.02400000000001" fill="none" stroke="black" stroke-width="6.48"/>
<line x1="710.57291" y1="209.488367" x2="981.12011" y2="209.488367" stroke="black" stroke-width="6.48"/>
<line x1="981.12011" y1="209.488367" x2="981.12011" y2="341.435567" stroke="black" stroke-width="6.48"/>
<line x1="710.57291" y1="341.435567" x2="981.12011" y2="341.435567" stroke="black" stroke-width="6.48"/>
<line x1="710.57291" y1="209.488367" x2="710.57291" y2="341.435567" stroke="black" stroke-width="6.48"/>
<line x1="717.22571" y1="216.141167" x2="855.27131" y2="216.141167" stroke="black" stroke-width="6.48"/>
<line x1="855.27131" y1="216.141167" x2="855.27131" y2="334.228367" stroke="black" stroke-width="6.48"/>
<line x1="717.22571" y1="334.228367" x2="855.27131" y2="334.228367" stroke="black" stroke-width="6.48"/>
<line x1="717.22571" y1="216.141167" x2="717.22571" y2="334.228367" stroke="black" stroke-width="6.48"/>
<line x1="869.68571" y1="223.902767" x2="966.70571" y2="223.902767" stroke="black" stroke-width="6.48"/>
<line x1="869.68571" y1="244.415567" x2="966.70571" y2="244.415567" stroke="black" stroke-width="6.48"/>
<line x1="870.24011" y1="265.482767" x2="967.26011" y2="265.482767" stroke="black" stroke-width="6.48"/>
<line x1="870.24011" y1="285.995567" x2="967.26011" y2="285.995567" stroke="black" stroke-width="6.48"/>
<line x1="869.68571" y1="306.508367" x2="966.70571" y2="306.508367" stroke="black" stroke-width="6.48"/>
<line x1="869.68571" y1="327.021167" x2="966.70571" y2="327.021167" stroke="black" stroke-width="6.48"/>
<line x1="769.89371" y1="334.228367" x2="769.89371" y2="320.368367" stroke="black" stroke-width="6.48"/>
<line x1="769.89371" y1="320.368367" x2="804.26651" y2="320.368367" stroke="black" stroke-width="6.48"/>
<line x1="804.26651" y1="320.368367" x2="804.26651" y2="333.673967" stroke="black" stroke-width="6.48"/>
<circle cx="839.74811" cy="231.109967" r="8.316000000000003" fill="none" stroke="black" stroke-width="6.48"/>
<line x1="1050.312856" y1="1032.5466" x2="758.381789" y2="1295.402512" stroke="black" stroke-width="6.48"/>
<line x1="758.381789" y1="1295.402512" x2="881.860475" y2="1432.539486" stroke="black" stroke-width="6.48"/>
<line x1="881.860475" y1="1432.539486" x2="1173.791542" y2="1169.683571" stroke="black" stroke-width="6.48"/>
<line x1="1173.791542" y1="1169.683571" x2="1050.312856" y2="1032.5466" stroke="black" stroke-width="6.48"/>
<line x1="1055.488831" y1="1276.203812" x2="1109.543879" y2="1336.238021" stroke="black" stroke-width="6.48"/>
<line x1="1109.543879" y1="1336.238021" x2="1167.812377" y2="1283.772827" stroke="black" stroke-width="6.48"/>
<line x1="1167.812377" y1="1283.772827" x2="1113.75733" y2="1223.738618" stroke="black" stroke-width="6.48"/>
<line x1="1155.564875" y1="1271.354224" x2="1097.884944" y2="1323.289465" stroke="black" stroke-width="6.48"/>
<line x1="935.693644" y1="1025.978864" x2="877.425145" y2="1078.444055" stroke="black" stroke-width="6.48"/>
<line x1="877.425145" y1="1078.444055" x2="932.010142" y2="1139.066838" stroke="black" stroke-width="6.48"/>
<line x1="990.278644" y1="1086.601644" x2="935.693644" y2="1025.978864" stroke="black" stroke-width="6.48"/>
<line x1="946.764007" y1="1039.457369" x2="889.08408" y2="1091.39261" stroke="black" stroke-width="6.48"/>
<line x1="943.071826" y1="1377.424534" x2="997.126873" y2="1437.458749" stroke="black" stroke-width="6.48"/>
<line x1="997.126873" y1="1437.458749" x2="1055.395372" y2="1384.993555" stroke="black" stroke-width="6.48"/>
<line x1="1055.395372" y1="1384.993555" x2="1001.340328" y2="1324.959343" stroke="black" stroke-width="6.48"/>
<line x1="1043.736444" y1="1372.045" x2="985.467942" y2="1424.51019" stroke="black" stroke-width="6.48"/>
<line x1="823.276642" y1="1127.199589" x2="765.008143" y2="1179.66478" stroke="black" stroke-width="6.48"/>
<line x1="765.008143" y1="1179.66478" x2="819.59314" y2="1240.287563" stroke="black" stroke-width="6.48"/>
<line x1="877.861642" y1="1187.822369" x2="823.276642" y2="1127.199589" stroke="black" stroke-width="6.48"/>
<line x1="834.935573" y1="1140.148141" x2="776.667074" y2="1192.613335" stroke="black" stroke-width="6.48"/>
<line x1="2044.889399" y1="955.822399" x2="2267.166564" y2="955.822399" stroke="black" stroke-width="6.48"/>
<line x1="2267.166564" y1="955.822399" x2="2267.166564" y2="1178.555051" stroke="black" stroke-width="6.48"/>
<line x1="2267.166564" y1="1178.555051" x2="2044.889399" y2="1178.555051" stroke="black" stroke-width="6.48"/>
<line x1="2044.889399" y1="1178.555051" x2="2044.889399" y2="955.822399" stroke="black" stroke-width="6.48"/>
<line x1="2044.433912" y1="955.366913" x2="2267.166564" y2="1178.555051" stroke="black" stroke-width="6.48"/>
<line x1="2044.889399" y1="1178.099564" x2="2266.711078" y2="955.822399" stroke="black" stroke-width="6.48"/>
<line x1="323.258818" y1="1375.374532" x2="323.258818" y2="949.841089" stroke="black" stroke-width="6.48"/>
<line x1="323.258818" y1="949.841089" x2="257.659344" y2="949.841089" stroke="black" stroke-width="6.48"/>
<line x1="257.659344" y1="949.841089" x2="257.659344" y2="1375.374532" stroke="black" stroke-width="6.48"/>
<line x1="257.659344" y1="1375.374532" x2="323.258818" y2="1375.374532" stroke="black" stroke-width="6.48"/>
<line x1="258.522494" y1="1335.669588" x2="322.395667" y2="1335.669588" stroke="black" stroke-width="6.48"/>
<line x1="258.522494" y1="990.409187" x2="324.985122" y2="990.409187" stroke="black" stroke-width="6.48"/>
<line x1="288.73278" y1="1336.532738" x2="288.73278" y2="991.272337" stroke="black" stroke-width="6.48"/>
<line x1="3874.406537" y1="1514.726719" x2="3874.406537" y2="1940.260162" stroke="black" stroke-width="6.48"/>
<line x1="3874.406537" y1="1940.260162" x2="3940.00601" y2="1940.260162" stroke="black" stroke-width="6.48"/>
<line x1="3940.00601" y1="1940.260162" x2="3940.00601" y2="1514.726719" stroke="black" stroke-width="6.48"/>
<line x1="3940.00601" y1="1514.726719" x2="3874.406537" y2="1514.726719" stroke="black" stroke-width="6.48"/>
<line x1="3939.14286" y1="1554.431663" x2="3875.269687" y2="1554.431663" stroke="black" stroke-width="6.48"/>
<line x1="3939.14286" y1="1899.692064" x2="3872.680232" y2="1899.692064" stroke="black" stroke-width="6.48"/>
<line x1="3908.932574" y1="1553.568512" x2="3908.932574" y2="1898.828914" stroke="black" stroke-width="6.48"/>
<line x1="4637.90533" y1="1510.394335" x2="4971.045758" y2="1718.563579" stroke="black" stroke-width="6.48"/>
<line x1="4971.045758" y1="1718.563579" x2="5068.834942" y2="1562.068177" stroke="black" stroke-width="6.48"/>
<line x1="5068.834942" y1="1562.068177" x2="4735.694513" y2="1353.898933" stroke="black" stroke-width="6.48"/>
<line x1="4735.694513" y1="1353.898933" x2="4637.90533" y2="1510.394335" stroke="black" stroke-width="6.48"/>
<line x1="4870.696982" y1="1438.257838" x2="4913.505979" y2="1369.749121" stroke="black" stroke-width="6.48"/>
<line x1="4913.505979" y1="1369.749121" x2="4847.012226" y2="1328.199214" stroke="black" stroke-width="6.48"/>
<line x1="4847.012226" y1="1328.199214" x2="4804.203229" y2="1396.70793" stroke="black" stroke-width="6.48"/>
<line x1="4838.450566" y1="1343.3953" x2="4904.272667" y2="1384.525512" stroke="black" stroke-width="6.48"/>
<line x1="4663.18535" y1="1622.383704" x2="4729.679107" y2="1663.933615" stroke="black" stroke-width="6.48"/>
<line x1="4729.679107" y1="1663.933615" x2="4772.907799" y2="1594.753247" stroke="black" stroke-width="6.48"/>
<line x1="4706.414046" y1="1553.203332" x2="4663.18535" y2="1622.383704" stroke="black" stroke-width="6.48"/>
<line x1="4673.090322" y1="1608.027012" x2="4738.91242" y2="1649.157224" stroke="black" stroke-width="6.48"/>
<line x1="4998.982914" y1="1518.419786" x2="5041.791911" y2="1449.91107" stroke="black" stroke-width="6.48"/>
<line x1="5041.791911" y1="1449.91107" x2="4975.298158" y2="1408.361162" stroke="black" stroke-width="6.48"/>
<line x1="4975.298158" y1="1408.361162" x2="4932.489157" y2="1476.869879" stroke="black" stroke-width="6.48"/>
<line x1="4966.064842" y1="1423.13755" x2="5032.558602" y2="1464.687461" stroke="black" stroke-width="6.48"/>
<line x1="4791.471286" y1="1702.545653" x2="4857.965039" y2="1744.09556" stroke="black" stroke-width="6.48"/>
<line x1="4857.965039" y1="1744.09556" x2="4901.193734" y2="1674.915188" stroke="black" stroke-width="6.48"/>
<line x1="4834.699978" y1="1633.365281" x2="4791.471286" y2="1702.545653" stroke="black" stroke-width="6.48"/>
<line x1="4800.704594" y1="1687.769262" x2="4867.198355" y2="1729.319173" stroke="black" stroke-width="6.48"/>
<line x1="3456.106909" y1="1075.477705" x2="3665.472113" y2="1075.477705" stroke="black" stroke-width="6.48"/>
<line x1="3665.472113" y1="1075.477705" x2="3665.472113" y2="744.263302" stroke="black" stroke-width="6.48"/>
<line x1="3665.472113" y1="744.263302" x2="3456.106909" y2="744.263302" stroke="black" stroke-width="6.48"/>
<line x1="3456.106909" y1="744.263302" x2="3456.106909" y2="1075.477705" stroke="black" stroke-width="6.48"/>
<line x1="3455.433709" y1="803.504902" x2="3666.145309" y2="803.504902" stroke="black" stroke-width="6.48"/>
<line x1="3666.145309" y1="803.504902" x2="3456.780109" y2="853.321705" stroke="black" stroke-width="6.48"/>
<line x1="3456.780109" y1="853.321705" x2="3488.420513" y2="899.772505" stroke="black" stroke-width="6.48"/>
<line x1="3488.420513" y1="899.772505" x2="3666.145309" y2="802.831705" stroke="black" stroke-width="6.48"/>
<line x1="3424.436748" y1="1203.075619" x2="3646.713913" y2="1203.075619" stroke="black" stroke-width="6.48"/>
<line x1="3646.713913" y1="1203.075619" x2="3646.713913" y2="1425.808271" stroke="black" stroke-width="6.48"/>
<line x1="3646.713913" y1="1425.808271" x2="3424.436748" y2="1425.808271" stroke="black" stroke-width="6.48"/>
<line x1="3424.436748" y1="1425.808271" x2="3424.436748" y2="1203.075619" stroke="black" stroke-width="6.48"/>
<line x1="3423.981262" y1="1202.620133" x2="3646.713913" y2="1425.808271" stroke="black" stroke-width="6.48"/>
<line x1="3424.436748" y1="1425.352784" x2="3646.258427" y2="1203.075619" stroke="black" stroke-width="6.48"/>
<line x1="2804.16708" y1="1127.69402" x2="2804.16708" y2="1153.148746" stroke="black" stroke-width="6.48"/>
<line x1="2804.16708" y1="1153.148746" x2="2853.834836" y2="1153.148746" stroke="black" stroke-width="6.48"/>
<line x1="2853.834836" y1="1153.148746" x2="2853.834836" y2="1127.69402" stroke="black" stroke-width="6.48"/>
<line x1="2853.834836" y1="1127.69402" x2="2804.16708" y2="1127.69402" stroke="black" stroke-width="6.48"/>
<line x1="2853.834836" y1="1402.108373" x2="3101.55277" y2="1402.108373" stroke="black" stroke-width="6.48"/>
<line x1="2802.925386" y1="1402.729218" x2="2802.925386" y2="1428.183943" stroke="black" stroke-width="6.48"/>
<line x1="2802.925386" y1="1428.183943" x2="2852.593142" y2="1428.183943" stroke="black" stroke-width="6.48"/>
<line x1="2852.593142" y1="1428.183943" x2="2852.593142" y2="1402.729218" stroke="black" stroke-width="6.48"/>
<line x1="2852.593142" y1="1402.729218" x2="2802.925386" y2="1402.729218" stroke="black" stroke-width="6.48"/>
<path d="m 2851.972294,1153.148746 a 248.95962699999984,248.95962699999984 0 0 1 248.95962699999973,248.95962699999995" fill="none" stroke="black" stroke-width="6.48"/>
<line x1="3627.725342" y1="1658.210414" x2="3691.644984" y2="1881.12469" stroke="black" stroke-width="6.48"/>
<line x1="3691.644984" y1="1881.12469" x2="3468.273912" y2="1945.175314" stroke="black" stroke-width="6.48"/>
<line x1="3468.273912" y1="1945.175314" x2="3404.354274" y2="1722.261038" stroke="black" stroke-width="6.48"/>
<line x1="3404.354274" y1="1722.261038" x2="3627.725342" y2="1658.210414" stroke="black" stroke-width="6.48"/>
<line x1="3628.051153" y1="1657.622639" x2="3468.273912" y2="1945.175314" stroke="black" stroke-width="6.48"/>
<line x1="3404.811064" y1="1722.130052" x2="3691.514002" y2="1880.6679" stroke="black" stroke-width="6.48"/>
<line x1="3100.358268" y1="1589.315879" x2="3083.535454" y2="1615.220741" stroke="black" stroke-width="6.48"/>
<line x1="3083.535454" y1="1615.220741" x2="3259.289945" y2="1729.357034" stroke="black" stroke-width="6.48"/>
<line x1="3259.289945" y1="1729.357034" x2="3276.112752" y2="1703.45218" stroke="black" stroke-width="6.48"/>
<line x1="3276.112752" y1="1703.45218" x2="3100.358268" y2="1589.315879" stroke="black" stroke-width="6.48"/>
<line x1="2989.327716" y1="1760.287936" x2="2972.504909" y2="1786.19279" stroke="black" stroke-width="6.48"/>
<line x1="2972.504909" y1="1786.19279" x2="3148.259393" y2="1900.329088" stroke="black" stroke-width="6.48"/>
<line x1="3148.259393" y1="1900.329088" x2="3165.082207" y2="1874.424233" stroke="black" stroke-width="6.48"/>
<line x1="3165.082207" y1="1874.424233" x2="2989.327716" y2="1760.287936" stroke="black" stroke-width="6.48"/>
<line x1="3083.794268" y1="1614.822199" x2="2989.327716" y2="1760.287936" stroke="black" stroke-width="6.48"/>
<line x1="3259.010495" y1="1728.04234" x2="3266.436492" y2="1764.595055" stroke="black" stroke-width="6.48"/>
<line x1="3200.439312" y1="1866.221798" x2="3164.02632" y2="1874.305145" stroke="black" stroke-width="6.48"/>
<line x1="3267.47174" y1="1763.00091" x2="3199.40406" y2="1867.815943" stroke="black" stroke-width="6.48"/>
<line x1="3120.997864" y1="1639.549109" x2="3026.531315" y2="1785.014842" stroke="black" stroke-width="6.48"/>
<line x1="2993.350244" y1="2039.225573" x2="2922.145099" y2="2215.46471" stroke="black" stroke-width="6.48"/>
<line x1="2922.145099" y1="2215.46471" x2="3352.168595" y2="2389.205261" stroke="black" stroke-width="6.48"/>
<line x1="3352.168595" y1="2389.205261" x2="3423.37374" y2="2212.966123" stroke="black" stroke-width="6.48"/>
<line x1="3423.37374" y1="2212.966123" x2="3401.34385" y2="2204.06548" stroke="black" stroke-width="6.48"/>
<line x1="3401.34385" y1="2204.06548" x2="3338.683322" y2="2359.155924" stroke="black" stroke-width="6.48"/>
<line x1="3338.683322" y1="2359.155924" x2="2953.600805" y2="2203.572683" stroke="black" stroke-width="6.48"/>
<line x1="2953.600805" y1="2203.572683" x2="3016.261332" y2="2048.482242" stroke="black" stroke-width="6.48"/>
<line x1="3016.261332" y1="2048.482242" x2="2993.350244" y2="2039.225573" stroke="black" stroke-width="6.48"/>
<line x1="3014.125178" y1="2053.769414" x2="3399.207696" y2="2209.352656" stroke="black" stroke-width="6.48"/>
<line x1="3206.581862" y1="2130.501827" x2="3146.057492" y2="2280.305095" stroke="black" stroke-width="6.48"/>
<line x1="961.751124" y1="1880.689651" x2="977.195113" y2="1907.439448" stroke="black" stroke-width="6.48"/>
<line x1="977.195113" y1="1907.439448" x2="1158.682194" y2="1802.657891" stroke="black" stroke-width="6.48"/>
<line x1="1158.682194" y1="1802.657891" x2="1143.238201" y2="1775.908098" stroke="black" stroke-width="6.48"/>
<line x1="1143.238201" y1="1775.908098" x2="961.751124" y2="1880.689651" stroke="black" stroke-width="6.48"/>
<line x1="1063.681477" y1="2057.238306" x2="1079.125474" y2="2083.988106" stroke="black" stroke-width="6.48"/>
<line x1="1079.125474" y1="2083.988106" x2="1260.612554" y2="1979.206549" stroke="black" stroke-width="6.48"/>
<line x1="1260.612554" y1="1979.206549" x2="1245.168558" y2="1952.456756" stroke="black" stroke-width="6.48"/>
<line x1="1245.168558" y1="1952.456756" x2="1063.681477" y2="2057.238306" stroke="black" stroke-width="6.48"/>
<line x1="976.957517" y1="1907.027914" x2="1063.681477" y2="2057.238306" stroke="black" stroke-width="6.48"/>
<line x1="1157.383926" y1="1802.310023" x2="1193.323964" y2="1812.288006" stroke="black" stroke-width="6.48"/>
<line x1="1253.911939" y1="1917.229514" x2="1244.583086" y2="1953.343483" stroke="black" stroke-width="6.48"/>
<line x1="1192.373564" y1="1810.641863" x2="1254.862336" y2="1918.875658" stroke="black" stroke-width="6.48"/>
<line x1="1015.879439" y1="1885.105055" x2="1102.603403" y2="2035.315458" stroke="black" stroke-width="6.48"/>
<line x1="6207.896264" y1="2108.600978" x2="6208.974238" y2="2139.470161" stroke="black" stroke-width="6.48"/>
<line x1="6208.974238" y1="2139.470161" x2="6418.409782" y2="2132.156513" stroke="black" stroke-width="6.48"/>
<line x1="6418.409782" y1="2132.156513" x2="6417.331805" y2="2101.287326" stroke="black" stroke-width="6.48"/>
<line x1="6417.331805" y1="2101.287326" x2="6207.896264" y2="2108.600978" stroke="black" stroke-width="6.48"/>
<line x1="6215.010901" y1="2312.337589" x2="6216.088878" y2="2343.206776" stroke="black" stroke-width="6.48"/>
<line x1="6216.088878" y1="2343.206776" x2="6425.524418" y2="2335.893124" stroke="black" stroke-width="6.48"/>
<line x1="6425.524418" y1="2335.893124" x2="6424.446445" y2="2305.023941" stroke="black" stroke-width="6.48"/>
<line x1="6424.446445" y1="2305.023941" x2="6215.010901" y2="2312.337589" stroke="black" stroke-width="6.48"/>
<line x1="6208.957652" y1="2138.995249" x2="6215.010901" y2="2312.337589" stroke="black" stroke-width="6.48"/>
<line x1="6417.426791" y1="2131.239859" x2="6444.475585" y2="2156.922713" stroke="black" stroke-width="6.48"/>
<line x1="6448.70457" y1="2278.024898" x2="6423.513206" y2="2305.532023" stroke="black" stroke-width="6.48"/>
<line x1="6444.409248" y1="2155.023072" x2="6448.770907" y2="2279.924539" stroke="black" stroke-width="6.48"/>
<line x1="6253.615829" y1="2137.911246" x2="6259.669078" y2="2311.253582" stroke="black" stroke-width="6.48"/>
</g>
</svg>
