<?xml version="1.0"?>
<svg xmlns:xlink="http://www.w3.org/1999/xlink" width="6775.2" height="2858.4">
<image x="0" y="0" width="6775.2" height="2858.4" xlink:href="groundfilled-01.png"/>
<g style="stroke-linecap:round">
<line x1="1285.950406" y1="795.178109" x2="1311.346069" y2="795.178109" stroke="black" stroke-width="6.48"/>
<line x1="1311.346069" y1="795.178109" x2="1311.346069" y2="745.625592" stroke="black" stroke-width="6.48"/>
<line x1="1311.346069" y1="745.625592" x2="1285.950406" y2="745.625592" stroke="black" stroke-width="6.48"/>
<line x1="1285.950406" y1="745.625592" x2="1285.950406" y2="795.178109" stroke="black" stroke-width="6.48"/>
<line x1="1559.728062" y1="745.625592" x2="1559.728062" y2="498.48241" stroke="black" stroke-width="6.48"/>
<line x1="1560.347471" y1="796.416923" x2="1585.743134" y2="796.416923" stroke="black" stroke-width="6.48"/>
<line x1="1585.743134" y1="796.416923" x2="1585.743134" y2="746.864406" stroke="black" stroke-width="6.48"/>
<line x1="1585.743134" y1="746.864406" x2="1560.347471" y2="746.864406" stroke="black" stroke-width="6.48"/>
<line x1="1560.347471" y1="746.864406" x2="1560.347471" y2="796.416923" stroke="black" stroke-width="6.48"/>
<path d="m 1311.346069,747.483811 a 248.38199299999997,248.38199299999997 0 0 1 248.38199299999997,-248.38199299999997" fill="none" stroke="black" stroke-width="6.48"/>
<line x1="330.523178" y1="771.328966" x2="330.523178" y2="366.748985" stroke="black" stroke-width="6.48"/>
<line x1="330.523178" y1="366.748985" x2="258.15928" y2="366.748985" stroke="black" stroke-width="6.48"/>
<line x1="258.15928" y1="366.748985" x2="258.15928" y2="771.328966" stroke="black" stroke-width="6.48"/>
<line x1="258.15928" y1="771.328966" x2="330.523178" y2="771.328966" stroke="black" stroke-width="6.48"/>
<line x1="330.523178" y1="752.415674" x2="355.19269" y2="752.415674" stroke="black" stroke-width="6.48"/>
<line x1="355.19269" y1="752.415674" x2="355.19269" y2="386.484595" stroke="black" stroke-width="6.48"/>
<line x1="330.523178" y1="386.484595" x2="355.19269" y2="386.484595" stroke="black" stroke-width="6.48"/>
<line x1="3901.945176" y1="1169.331426" x2="3901.945176" y2="1428.837066" stroke="black" stroke-width="6.48"/>
<line x1="3901.945176" y1="1428.837066" x2="3941.9501" y2="1428.837066" stroke="black" stroke-width="6.48"/>
<line x1="3941.9501" y1="1428.837066" x2="3941.9501" y2="1169.331426" stroke="black" stroke-width="6.48"/>
<line x1="3941.9501" y1="1169.331426" x2="3901.945176" y2="1169.331426" stroke="black" stroke-width="6.48"/>
<line x1="3941.423719" y1="1193.544936" x2="3902.471557" y2="1193.544936" stroke="black" stroke-width="6.48"/>
<line x1="3941.423719" y1="1404.097178" x2="3900.892414" y2="1404.097178" stroke="black" stroke-width="6.48"/>
<line x1="3923.000399" y1="1193.018555" x2="3923.000399" y2="1403.570797" stroke="black" stroke-width="6.48"/>
<line x1="323.923298" y1="1882.957399" x2="323.923298" y2="1457.423957" stroke="black" stroke-width="6.48"/>
<line x1="323.923298" y1="1457.423957" x2="258.323825" y2="1457.423957" stroke="black" stroke-width="6.48"/>
<line x1="258.323825" y1="1457.423957" x2="258.323825" y2="1882.957399" stroke="black" stroke-width="6.48"/>
<line x1="258.323825" y1="1882.957399" x2="323.923298" y2="1882.957399" stroke="black" stroke-width="6.48"/>
<line x1="259.186975" y1="1843.252456" x2="323.060148" y2="1843.252456" stroke="black" stroke-width="6.48"/>
<line x1="259.186975" y1="1497.992054" x2="325.649603" y2="1497.992054" stroke="black" stroke-width="6.48"/>
<line x1="289.397261" y1="1844.115606" x2="289.397261" y2="1498.855205" stroke="black" stroke-width="6.48"/>
<line x1="2747.905531" y1="904.670665" x2="2721.68303" y2="904.670665" stroke="black" stroke-width="6.48"/>
<line x1="2721.68303" y1="904.670665" x2="2721.68303" y2="955.836522" stroke="black" stroke-width="6.48"/>
<line x1="2721.68303" y1="955.836522" x2="2747.905531" y2="955.836522" stroke="black" stroke-width="6.48"/>
<line x1="2747.905531" y1="955.836522" x2="2747.905531" y2="904.670665" stroke="black" stroke-width="6.48"/>
<line x1="2465.214181" y1="955.836522" x2="2465.214181" y2="1211.026223" stroke="black" stroke-width="6.48"/>
<line x1="2464.574609" y1="903.39152" x2="2438.352108" y2="903.39152" stroke="black" stroke-width="6.48"/>
<line x1="2438.352108" y1="903.39152" x2="2438.352108" y2="954.557374" stroke="black" stroke-width="6.48"/>
<line x1="2438.352108" y1="954.557374" x2="2464.574609" y2="954.557374" stroke="black" stroke-width="6.48"/>
<line x1="2464.574609" y1="954.557374" x2="2464.574609" y2="903.39152" stroke="black" stroke-width="6.48"/>
<path d="m 2721.68303,953.917801 a 256.4688490000001,256.4688490000001 0 0 1 -256.4688490000003,256.46884899999986" fill="none" stroke="black" stroke-width="6.48"/>
<line x1="2420.532389" y1="1427.858834" x2="2395.136725" y2="1427.858834" stroke="black" stroke-width="6.48"/>
<line x1="2395.136725" y1="1427.858834" x2="2395.136725" y2="1477.411351" stroke="black" stroke-width="6.48"/>
<line x1="2395.136725" y1="1477.411351" x2="2420.532389" y2="1477.411351" stroke="black" stroke-width="6.48"/>
<line x1="2420.532389" y1="1477.411351" x2="2420.532389" y2="1427.858834" stroke="black" stroke-width="6.48"/>
<line x1="2146.754732" y1="1477.411351" x2="2146.754732" y2="1724.554534" stroke="black" stroke-width="6.48"/>
<line x1="2146.135324" y1="1426.62002" x2="2120.73966" y2="1426.62002" stroke="black" stroke-width="6.48"/>
<line x1="2120.73966" y1="1426.62002" x2="2120.73966" y2="1476.172537" stroke="black" stroke-width="6.48"/>
<line x1="2120.73966" y1="1476.172537" x2="2146.135324" y2="1476.172537" stroke="black" stroke-width="6.48"/>
<line x1="2146.135324" y1="1476.172537" x2="2146.135324" y2="1426.62002" stroke="black" stroke-width="6.48"/>
<path d="m 2395.136725,1475.553132 a 248.38199299999997,248.38199299999997 0 0 1 -248.38199299999997,248.38199299999997" fill="none" stroke="black" stroke-width="6.48"/>
<line x1="508.515912" y1="541.339351" x2="740.413512" y2="541.339351" stroke="black" stroke-width="6.48"/>
<line x1="740.413512" y1="541.339351" x2="740.413512" y2="773.712151" stroke="black" stroke-width="6.48"/>
<line x1="740.413512" y1="773.712151" x2="508.515912" y2="773.712151" stroke="black" stroke-width="6.48"/>
<line x1="508.515912" y1="773.712151" x2="508.515912" y2="541.339351" stroke="black" stroke-width="6.48"/>
<line x1="508.040712" y1="540.864151" x2="740.413512" y2="773.712151" stroke="black" stroke-width="6.48"/>
<line x1="508.515912" y1="773.236951" x2="739.938312" y2="541.339351" stroke="black" stroke-width="6.48"/>
<line x1="2032.924367" y1="2023.005344" x2="2032.924367" y2="1813.917344" stroke="black" stroke-width="6.48"/>
<line x1="2032.924367" y1="1813.917344" x2="1801.026767" y2="1813.917344" stroke="black" stroke-width="6.48"/>
<line x1="1801.026767" y1="1813.917344" x2="1801.026767" y2="2023.005344" stroke="black" stroke-width="6.48"/>
<line x1="1801.026767" y1="2023.005344" x2="2032.924367" y2="2023.005344" stroke="black" stroke-width="6.48"/>
<line x1="2000.610767" y1="2023.005344" x2="2000.610767" y2="1813.917344" stroke="black" stroke-width="6.48"/>
<line x1="1485.415969" y1="209.267824" x2="1707.693134" y2="209.267824" stroke="black" stroke-width="6.48"/>
<line x1="1707.693134" y1="209.267824" x2="1707.693134" y2="432.000475" stroke="black" stroke-width="6.48"/>
<line x1="1707.693134" y1="432.000475" x2="1485.415969" y2="432.000475" stroke="black" stroke-width="6.48"/>
<line x1="1485.415969" y1="432.000475" x2="1485.415969" y2="209.267824" stroke="black" stroke-width="6.48"/>
<line x1="1484.960483" y1="208.812337" x2="1707.693134" y2="432.000475" stroke="black" stroke-width="6.48"/>
<line x1="1485.415969" y1="431.544989" x2="1707.237648" y2="209.267824" stroke="black" stroke-width="6.48"/>
<line x1="2586.780558" y1="1803.366338" x2="2586.780558" y2="2194.614338" stroke="black" stroke-width="6.48"/>
<line x1="2586.780558" y1="2194.614338" x2="2761.020558" y2="2194.614338" stroke="black" stroke-width="6.48"/>
<line x1="2761.020558" y1="2194.614338" x2="2761.020558" y2="1803.366338" stroke="black" stroke-width="6.48"/>
<line x1="2761.020558" y1="1803.366338" x2="2586.780558" y2="1803.366338" stroke="black" stroke-width="6.48"/>
<line x1="2734.092558" y1="2119.374338" x2="2734.092558" y2="1835.046338" stroke="black" stroke-width="6.48"/>
<line x1="2734.092558" y1="1835.046338" x2="2616.084558" y2="1835.046338" stroke="black" stroke-width="6.48"/>
<line x1="2616.084558" y1="1835.046338" x2="2616.084558" y2="2124.918338" stroke="black" stroke-width="6.48"/>
<path d="m 2734.347982,2118.563766 a 63.35999941905905,63.35999941905905 0 0 1 -119.37432999999965,4.2938139999996565" fill="none" stroke="black" stroke-width="6.48"/>
<line x1="2105.576276" y1="1877.251475" x2="2105.576276" y2="2060.995475" stroke="black" stroke-width="6.48"/>
<line x1="2105.576276" y1="2060.995475" x2="2056.472276" y2="2060.995475" stroke="black" stroke-width="6.48"/>
<line x1="2056.472276" y1="1877.251475" x2="2056.472276" y2="2060.995475" stroke="black" stroke-width="6.48"/>
<line x1="2105.576276" y1="1877.251475" x2="2056.472276" y2="1877.251475" stroke="black" stroke-width="6.48"/>
<line x1="2133.296276" y1="1918.831475" x2="2105.576276" y2="1918.831475" stroke="black" stroke-width="6.48"/>
<line x1="2105.576276" y1="2017.831475" x2="2134.880276" y2="2017.831475" stroke="black" stroke-width="6.48"/>
<circle cx="2178.440276" cy="1967.539475" r="66.52800000000002" fill="none" stroke="black" stroke-width="6.48"/>
<circle cx="2178.440276" cy="1967.539475" r="57.02400000000001" fill="none" stroke="black" stroke-width="6.48"/>
<line x1="1136.119187" y1="1445.089842" x2="1067.904626" y2="1058.225843" stroke="black" stroke-width="6.48"/>
<line x1="1067.904626" y1="1058.225843" x2="886.172141" y2="1090.270184" stroke="black" stroke-width="6.48"/>
<line x1="886.172141" y1="1090.270184" x2="954.386701" y2="1477.134184" stroke="black" stroke-width="6.48"/>
<line x1="954.386701" y1="1477.134184" x2="1136.119187" y2="1445.089842" stroke="black" stroke-width="6.48"/>
<line x1="926.743306" y1="1320.360664" x2="847.186592" y2="1334.388661" stroke="black" stroke-width="6.48"/>
<line x1="847.186592" y1="1334.388661" x2="860.801998" y2="1411.605464" stroke="black" stroke-width="6.48"/>
<line x1="860.801998" y1="1411.605464" x2="940.358707" y2="1397.577474" stroke="black" stroke-width="6.48"/>
<line x1="877.823762" y1="1407.799854" x2="864.345881" y2="1331.363012" stroke="black" stroke-width="6.48"/>
<line x1="1202.427868" y1="1351.367608" x2="1188.812466" y2="1274.150804" stroke="black" stroke-width="6.48"/>
<line x1="1188.812466" y1="1274.150804" x2="1108.475788" y2="1288.316326" stroke="black" stroke-width="6.48"/>
<line x1="1122.091193" y1="1365.533132" x2="1202.427868" y2="1351.367608" stroke="black" stroke-width="6.48"/>
<line x1="1185.131052" y1="1353.613288" x2="1171.65317" y2="1277.17645" stroke="black" stroke-width="6.48"/>
<line x1="900.475196" y1="1171.386828" x2="820.918487" y2="1185.414822" stroke="black" stroke-width="6.48"/>
<line x1="820.918487" y1="1185.414822" x2="834.533892" y2="1262.631625" stroke="black" stroke-width="6.48"/>
<line x1="834.533892" y1="1262.631625" x2="914.090602" y2="1248.603631" stroke="black" stroke-width="6.48"/>
<line x1="851.693184" y1="1259.60598" x2="838.077775" y2="1182.389177" stroke="black" stroke-width="6.48"/>
<line x1="1176.159762" y1="1202.393768" x2="1162.544357" y2="1125.176962" stroke="black" stroke-width="6.48"/>
<line x1="1162.544357" y1="1125.176962" x2="1082.207678" y2="1139.342486" stroke="black" stroke-width="6.48"/>
<line x1="1095.823084" y1="1216.559293" x2="1176.159762" y2="1202.393768" stroke="black" stroke-width="6.48"/>
<line x1="1159.000474" y1="1205.419417" x2="1145.385065" y2="1128.202607" stroke="black" stroke-width="6.48"/>
<line x1="2044.889399" y1="955.822399" x2="2267.166564" y2="955.822399" stroke="black" stroke-width="6.48"/>
<line x1="2267.166564" y1="955.822399" x2="2267.166564" y2="1178.555051" stroke="black" stroke-width="6.48"/>
<line x1="2267.166564" y1="1178.555051" x2="2044.889399" y2="1178.555051" stroke="black" stroke-width="6.48"/>
<line x1="2044.889399" y1="1178.555051" x2="2044.889399" y2="955.822399" stroke="black" stroke-width="6.48"/>
<line x1="2044.433912" y1="955.366913" x2="2267.166564" y2="1178.555051" stroke="black" stroke-width="6.48"/>
<line x1="2044.889399" y1="1178.099564" x2="2266.711078" y2="955.822399" stroke="black" stroke-width="6.48"/>
<line x1="333.766206" y1="1375.361078" x2="333.766206" y2="949.854546" stroke="black" stroke-width="6.48"/>
<line x1="333.766206" y1="949.854546" x2="257.659348" y2="949.854546" stroke="black" stroke-width="6.48"/>
<line x1="257.659348" y1="949.854546" x2="257.659348" y2="1375.361078" stroke="black" stroke-width="6.48"/>
<line x1="257.659348" y1="1375.361078" x2="333.766206" y2="1375.361078" stroke="black" stroke-width="6.48"/>
<line x1="333.766206" y1="1355.469512" x2="359.711726" y2="1355.469512" stroke="black" stroke-width="6.48"/>
<line x1="359.711726" y1="1355.469512" x2="359.711726" y2="970.610962" stroke="black" stroke-width="6.48"/>
<line x1="333.766206" y1="970.610962" x2="359.711726" y2="970.610962" stroke="black" stroke-width="6.48"/>
<line x1="3874.406537" y1="1514.726719" x2="3874.406537" y2="1940.260162" stroke="black" stroke-width="6.48"/>
<line x1="3874.406537" y1="1940.260162" x2="3940.00601" y2="1940.260162" stroke="black" stroke-width="6.48"/>
<line x1="3940.00601" y1="1940.260162" x2="3940.00601" y2="1514.726719" stroke="black" stroke-width="6.48"/>
<line x1="3940.00601" y1="1514.726719" x2="3874.406537" y2="1514.726719" stroke="black" stroke-width="6.48"/>
<line x1="3939.14286" y1="1554.431663" x2="3875.269687" y2="1554.431663" stroke="black" stroke-width="6.48"/>
<line x1="3939.14286" y1="1899.692064" x2="3872.680232" y2="1899.692064" stroke="black" stroke-width="6.48"/>
<line x1="3908.932574" y1="1553.568512" x2="3908.932574" y2="1898.828914" stroke="black" stroke-width="6.48"/>
<line x1="5092.057771" y1="1505.254043" x2="5073.672226" y2="1636.074004" stroke="black" stroke-width="6.48"/>
<line x1="5073.672226" y1="1636.074004" x2="5059.554962" y2="1634.08995" stroke="black" stroke-width="6.48"/>
<line x1="5077.940512" y1="1503.269993" x2="5059.554962" y2="1634.08995" stroke="black" stroke-width="6.48"/>
<line x1="5092.057771" y1="1505.254043" x2="5077.940512" y2="1503.269993" stroke="black" stroke-width="6.48"/>
<line x1="5076.088726" y1="1516.446104" x2="5045.29529" y2="1510.198888" stroke="black" stroke-width="6.48"/>
<line x1="5061.406745" y1="1620.913838" x2="5029.14308" y2="1618.298957" stroke="black" stroke-width="6.48"/>
<line x1="4635.599648" y1="1441.10304" x2="4617.214099" y2="1571.922997" stroke="black" stroke-width="6.48"/>
<line x1="4617.214099" y1="1571.922997" x2="4630.390211" y2="1573.77478" stroke="black" stroke-width="6.48"/>
<line x1="4648.77576" y1="1442.954822" x2="4630.390211" y2="1573.77478" stroke="black" stroke-width="6.48"/>
<line x1="4635.599648" y1="1441.10304" x2="4648.77576" y2="1442.954822" stroke="black" stroke-width="6.48"/>
<line x1="4648.938548" y1="1455.454321" x2="4680.261061" y2="1457.936935" stroke="black" stroke-width="6.48"/>
<line x1="4634.256568" y1="1559.922059" x2="4665.858883" y2="1567.242691" stroke="black" stroke-width="6.48"/>
<line x1="4888.102684" y1="1775.069208" x2="4890.086734" y2="1760.951945" stroke="black" stroke-width="6.48"/>
<line x1="4890.086734" y1="1760.951945" x2="4759.266776" y2="1742.566399" stroke="black" stroke-width="6.48"/>
<line x1="4757.282726" y1="1756.683659" x2="4759.266776" y2="1742.566399" stroke="black" stroke-width="6.48"/>
<line x1="4888.102684" y1="1775.069208" x2="4757.282726" y2="1756.683659" stroke="black" stroke-width="6.48"/>
<line x1="4773.38404" y1="1744.550449" x2="4775.057773" y2="1712.154514" stroke="black" stroke-width="6.48"/>
<line x1="4876.910622" y1="1759.100162" x2="4883.290106" y2="1727.365579" stroke="black" stroke-width="6.48"/>
<line x1="4953.062567" y1="1319.684501" x2="4951.078517" y2="1333.80176" stroke="black" stroke-width="6.48"/>
<line x1="4951.078517" y1="1333.80176" x2="4820.25856" y2="1315.416218" stroke="black" stroke-width="6.48"/>
<line x1="4822.242613" y1="1301.298959" x2="4820.25856" y2="1315.416218" stroke="black" stroke-width="6.48"/>
<line x1="4953.062567" y1="1319.684501" x2="4822.242613" y2="1301.298959" stroke="black" stroke-width="6.48"/>
<line x1="4834.375823" y1="1317.400268" x2="4827.055187" y2="1349.002588" stroke="black" stroke-width="6.48"/>
<line x1="4937.902409" y1="1331.949982" x2="4935.287524" y2="1364.213646" stroke="black" stroke-width="6.48"/>
<circle cx="4855.172648" cy="1538.184082" r="191.98080000000002" fill="none" stroke="black" stroke-width="6.48"/>
<line x1="3450.613835" y1="1075.459576" x2="3659.979038" y2="1075.459576" stroke="black" stroke-width="6.48"/>
<line x1="3659.979038" y1="1075.459576" x2="3659.979038" y2="744.245172" stroke="black" stroke-width="6.48"/>
<line x1="3659.979038" y1="744.245172" x2="3450.613835" y2="744.245172" stroke="black" stroke-width="6.48"/>
<line x1="3450.613835" y1="744.245172" x2="3450.613835" y2="1075.459576" stroke="black" stroke-width="6.48"/>
<line x1="3449.940635" y1="803.486772" x2="3660.652235" y2="803.486772" stroke="black" stroke-width="6.48"/>
<line x1="3660.652235" y1="803.486772" x2="3451.287035" y2="853.303576" stroke="black" stroke-width="6.48"/>
<line x1="3451.287035" y1="853.303576" x2="3482.927438" y2="899.754376" stroke="black" stroke-width="6.48"/>
<line x1="3482.927438" y1="899.754376" x2="3660.652235" y2="802.813576" stroke="black" stroke-width="6.48"/>
<line x1="3197.5159" y1="1203.994325" x2="3419.793065" y2="1203.994325" stroke="black" stroke-width="6.48"/>
<line x1="3419.793065" y1="1203.994325" x2="3419.793065" y2="1426.726976" stroke="black" stroke-width="6.48"/>
<line x1="3419.793065" y1="1426.726976" x2="3197.5159" y2="1426.726976" stroke="black" stroke-width="6.48"/>
<line x1="3197.5159" y1="1426.726976" x2="3197.5159" y2="1203.994325" stroke="black" stroke-width="6.48"/>
<line x1="3197.060413" y1="1203.538838" x2="3419.793065" y2="1426.726976" stroke="black" stroke-width="6.48"/>
<line x1="3197.5159" y1="1426.27149" x2="3419.337578" y2="1203.994325" stroke="black" stroke-width="6.48"/>
<line x1="2804.16708" y1="1127.69402" x2="2804.16708" y2="1153.148746" stroke="black" stroke-width="6.48"/>
<line x1="2804.16708" y1="1153.148746" x2="2853.834836" y2="1153.148746" stroke="black" stroke-width="6.48"/>
<line x1="2853.834836" y1="1153.148746" x2="2853.834836" y2="1127.69402" stroke="black" stroke-width="6.48"/>
<line x1="2853.834836" y1="1127.69402" x2="2804.16708" y2="1127.69402" stroke="black" stroke-width="6.48"/>
<line x1="2853.834836" y1="1402.108373" x2="3101.55277" y2="1402.108373" stroke="black" stroke-width="6.48"/>
<line x1="2802.925386" y1="1402.729218" x2="2802.925386" y2="1428.183943" stroke="black" stroke-width="6.48"/>
<line x1="2802.925386" y1="1428.183943" x2="2852.593142" y2="1428.183943" stroke="black" stroke-width="6.48"/>
<line x1="2852.593142" y1="1428.183943" x2="2852.593142" y2="1402.729218" stroke="black" stroke-width="6.48"/>
<line x1="2852.593142" y1="1402.729218" x2="2802.925386" y2="1402.729218" stroke="black" stroke-width="6.48"/>
<path d="m 2851.972294,1153.148746 a 248.95962699999984,248.95962699999984 0 0 1 248.95962699999973,248.95962699999995" fill="none" stroke="black" stroke-width="6.48"/>
<line x1="2987.885876" y1="2036.588699" x2="2916.680731" y2="2212.827836" stroke="black" stroke-width="6.48"/>
<line x1="2916.680731" y1="2212.827836" x2="3346.704227" y2="2386.568387" stroke="black" stroke-width="6.48"/>
<line x1="3346.704227" y1="2386.568387" x2="3417.909372" y2="2210.329249" stroke="black" stroke-width="6.48"/>
<line x1="3417.909372" y1="2210.329249" x2="3395.879482" y2="2201.428606" stroke="black" stroke-width="6.48"/>
<line x1="3395.879482" y1="2201.428606" x2="3333.218954" y2="2356.51905" stroke="black" stroke-width="6.48"/>
<line x1="3333.218954" y1="2356.51905" x2="2948.136437" y2="2200.935809" stroke="black" stroke-width="6.48"/>
<line x1="2948.136437" y1="2200.935809" x2="3010.796964" y2="2045.845368" stroke="black" stroke-width="6.48"/>
<line x1="3010.796964" y1="2045.845368" x2="2987.885876" y2="2036.588699" stroke="black" stroke-width="6.48"/>
<line x1="3008.66081" y1="2051.13254" x2="3393.743328" y2="2206.715782" stroke="black" stroke-width="6.48"/>
<line x1="3201.117494" y1="2127.864953" x2="3140.593124" y2="2277.668221" stroke="black" stroke-width="6.48"/>
<line x1="3700.988118" y1="1742.73174" x2="3606.666865" y2="1954.580738" stroke="black" stroke-width="6.48"/>
<line x1="3606.666865" y1="1954.580738" x2="3394.38375" y2="1860.066205" stroke="black" stroke-width="6.48"/>
<line x1="3394.38375" y1="1860.066205" x2="3488.705003" y2="1648.217207" stroke="black" stroke-width="6.48"/>
<line x1="3488.705003" y1="1648.217207" x2="3700.988118" y2="1742.73174" stroke="black" stroke-width="6.48"/>
<line x1="3701.615515" y1="1742.490904" x2="3394.38375" y2="1860.066205" stroke="black" stroke-width="6.48"/>
<line x1="3489.13912" y1="1648.410487" x2="3606.860149" y2="1954.146622" stroke="black" stroke-width="6.48"/>
<line x1="3122.190896" y1="1589.315882" x2="3101.926547" y2="1612.627351" stroke="black" stroke-width="6.48"/>
<line x1="3101.926547" y1="1612.627351" x2="3260.085901" y2="1750.113184" stroke="black" stroke-width="6.48"/>
<line x1="3260.085901" y1="1750.113184" x2="3280.350251" y2="1726.801711" stroke="black" stroke-width="6.48"/>
<line x1="3280.350251" y1="1726.801711" x2="3122.190896" y2="1589.315882" stroke="black" stroke-width="6.48"/>
<line x1="2988.446177" y1="1743.171581" x2="2968.181827" y2="1766.48305" stroke="black" stroke-width="6.48"/>
<line x1="2968.181827" y1="1766.48305" x2="3126.341182" y2="1903.968882" stroke="black" stroke-width="6.48"/>
<line x1="3126.341182" y1="1903.968882" x2="3146.605531" y2="1880.65741" stroke="black" stroke-width="6.48"/>
<line x1="3146.605531" y1="1880.65741" x2="2988.446177" y2="1743.171581" stroke="black" stroke-width="6.48"/>
<line x1="3102.238307" y1="1612.268716" x2="2988.446177" y2="1743.171581" stroke="black" stroke-width="6.48"/>
<line x1="3259.992143" y1="1748.772385" x2="3262.258714" y2="1786.002872" stroke="black" stroke-width="6.48"/>
<line x1="3182.760104" y1="1877.455559" x2="3145.576496" y2="1880.392529" stroke="black" stroke-width="6.48"/>
<line x1="3263.50575" y1="1784.568323" x2="3181.513064" y2="1878.890116" stroke="black" stroke-width="6.48"/>
<line x1="3135.638516" y1="1641.932723" x2="3021.84639" y2="1772.835588" stroke="black" stroke-width="6.48"/>
<line x1="1237.117756" y1="1628.093628" x2="1079.534264" y2="1734.384982" stroke="black" stroke-width="6.48"/>
<line x1="1079.534264" y1="1734.384982" x2="1338.885155" y2="2118.888688" stroke="black" stroke-width="6.48"/>
<line x1="1338.885155" y1="2118.888688" x2="1496.468642" y2="2012.597341" stroke="black" stroke-width="6.48"/>
<line x1="1496.468642" y1="2012.597341" x2="1483.182227" y2="1992.899405" stroke="black" stroke-width="6.48"/>
<line x1="1483.182227" y1="1992.899405" x2="1344.508758" y2="2086.435789" stroke="black" stroke-width="6.48"/>
<line x1="1344.508758" y1="2086.435789" x2="1112.262156" y2="1742.11587" stroke="black" stroke-width="6.48"/>
<line x1="1112.262156" y1="1742.11587" x2="1250.935628" y2="1648.579486" stroke="black" stroke-width="6.48"/>
<line x1="1250.935628" y1="1648.579486" x2="1237.117756" y2="1628.093628" stroke="black" stroke-width="6.48"/>
<line x1="1246.208126" y1="1651.768225" x2="1478.454721" y2="1996.088144" stroke="black" stroke-width="6.48"/>
<line x1="1362.853613" y1="1823.002769" x2="1228.907646" y2="1913.350417" stroke="black" stroke-width="6.48"/>
<line x1="1039.771051" y1="210.293251" x2="1310.318251" y2="210.293251" stroke="black" stroke-width="6.48"/>
<line x1="1310.318251" y1="210.293251" x2="1310.318251" y2="342.240451" stroke="black" stroke-width="6.48"/>
<line x1="1039.771051" y1="342.240451" x2="1310.318251" y2="342.240451" stroke="black" stroke-width="6.48"/>
<line x1="1039.771051" y1="210.293251" x2="1039.771051" y2="342.240451" stroke="black" stroke-width="6.48"/>
<line x1="1046.423851" y1="216.946051" x2="1184.469451" y2="216.946051" stroke="black" stroke-width="6.48"/>
<line x1="1184.469451" y1="216.946051" x2="1184.469451" y2="335.033251" stroke="black" stroke-width="6.48"/>
<line x1="1046.423851" y1="335.033251" x2="1184.469451" y2="335.033251" stroke="black" stroke-width="6.48"/>
<line x1="1046.423851" y1="216.946051" x2="1046.423851" y2="335.033251" stroke="black" stroke-width="6.48"/>
<line x1="1198.883851" y1="224.707651" x2="1295.903851" y2="224.707651" stroke="black" stroke-width="6.48"/>
<line x1="1198.883851" y1="245.220451" x2="1295.903851" y2="245.220451" stroke="black" stroke-width="6.48"/>
<line x1="1199.438251" y1="266.287651" x2="1296.458251" y2="266.287651" stroke="black" stroke-width="6.48"/>
<line x1="1199.438251" y1="286.800451" x2="1296.458251" y2="286.800451" stroke="black" stroke-width="6.48"/>
<line x1="1198.883851" y1="307.313251" x2="1295.903851" y2="307.313251" stroke="black" stroke-width="6.48"/>
<line x1="1198.883851" y1="327.826051" x2="1295.903851" y2="327.826051" stroke="black" stroke-width="6.48"/>
<line x1="1099.091851" y1="335.033251" x2="1099.091851" y2="321.173251" stroke="black" stroke-width="6.48"/>
<line x1="1099.091851" y1="321.173251" x2="1133.464651" y2="321.173251" stroke="black" stroke-width="6.48"/>
<line x1="1133.464651" y1="321.173251" x2="1133.464651" y2="334.478851" stroke="black" stroke-width="6.48"/>
<circle cx="1168.946251" cy="231.914851" r="8.316000000000003" fill="none" stroke="black" stroke-width="6.48"/>
<line x1="5801.555192" y1="1661.920945" x2="5810.069077" y2="1691.612395" stroke="black" stroke-width="6.48"/>
<line x1="5810.069077" y1="1691.612395" x2="6011.514155" y2="1633.848948" stroke="black" stroke-width="6.48"/>
<line x1="6011.514155" y1="1633.848948" x2="6003.00027" y2="1604.157498" stroke="black" stroke-width="6.48"/>
<line x1="6003.00027" y1="1604.157498" x2="5801.555192" y2="1661.920945" stroke="black" stroke-width="6.48"/>
<line x1="5857.746844" y1="1857.884522" x2="5866.260728" y2="1887.575972" stroke="black" stroke-width="6.48"/>
<line x1="5866.260728" y1="1887.575972" x2="6067.705806" y2="1829.812525" stroke="black" stroke-width="6.48"/>
<line x1="6067.705806" y1="1829.812525" x2="6059.191921" y2="1800.121075" stroke="black" stroke-width="6.48"/>
<line x1="6059.191921" y1="1800.121075" x2="5857.746844" y2="1857.884522" stroke="black" stroke-width="6.48"/>
<line x1="5809.938098" y1="1691.155606" x2="5857.746844" y2="1857.884522" stroke="black" stroke-width="6.48"/>
<line x1="6010.338607" y1="1633.19733" x2="6042.797186" y2="1651.573598" stroke="black" stroke-width="6.48"/>
<line x1="6076.197817" y1="1768.055447" x2="6058.409324" y2="1800.83983" stroke="black" stroke-width="6.48"/>
<line x1="6042.273253" y1="1649.746433" x2="6076.72175" y2="1769.882612" stroke="black" stroke-width="6.48"/>
<line x1="5853.007487" y1="1679.300006" x2="5900.816232" y2="1846.028923" stroke="black" stroke-width="6.48"/>
<line x1="2297.628749" y1="2278.554419" x2="2328.347542" y2="2281.7831" stroke="black" stroke-width="6.48"/>
<line x1="2328.347542" y1="2281.7831" x2="2350.252912" y2="2073.367915" stroke="black" stroke-width="6.48"/>
<line x1="2350.252912" y1="2073.367915" x2="2319.534119" y2="2070.139234" stroke="black" stroke-width="6.48"/>
<line x1="2319.534119" y1="2070.139234" x2="2297.628749" y2="2278.554419" stroke="black" stroke-width="6.48"/>
<line x1="2500.372775" y1="2299.863726" x2="2531.091564" y2="2303.092408" stroke="black" stroke-width="6.48"/>
<line x1="2531.091564" y1="2303.092408" x2="2552.996934" y2="2094.677222" stroke="black" stroke-width="6.48"/>
<line x1="2552.996934" y1="2094.677222" x2="2522.278145" y2="2091.448541" stroke="black" stroke-width="6.48"/>
<line x1="2522.278145" y1="2091.448541" x2="2500.372775" y2="2299.863726" stroke="black" stroke-width="6.48"/>
<line x1="2327.874944" y1="2281.733428" x2="2500.372775" y2="2299.863726" stroke="black" stroke-width="6.48"/>
<line x1="2349.208375" y1="2074.213764" x2="2378.405758" y2="2051.002577" stroke="black" stroke-width="6.48"/>
<line x1="2498.917939" y1="2063.668946" x2="2522.651396" y2="2092.443404" stroke="black" stroke-width="6.48"/>
<line x1="2376.515369" y1="2050.803889" x2="2500.808324" y2="2063.867634" stroke="black" stroke-width="6.48"/>
<line x1="2333.016713" y1="2237.359003" x2="2505.514543" y2="2255.489298" stroke="black" stroke-width="6.48"/>
</g>
</svg>
