<?xml version="1.0"?>
<svg xmlns:xlink="http://www.w3.org/1999/xlink" width="6775.2" height="2858.4">
<image x="0" y="0" width="6775.2" height="2858.4" xlink:href="groundfilled-01.png"/>
<g style="stroke-linecap:round">
<line x1="1285.950406" y1="795.178109" x2="1311.346069" y2="795.178109" stroke="black" stroke-width="6.48"/>
<line x1="1311.346069" y1="795.178109" x2="1311.346069" y2="745.625592" stroke="black" stroke-width="6.48"/>
<line x1="1311.346069" y1="745.625592" x2="1285.950406" y2="745.625592" stroke="black" stroke-width="6.48"/>
<line x1="1285.950406" y1="745.625592" x2="1285.950406" y2="795.178109" stroke="black" stroke-width="6.48"/>
<line x1="1559.728062" y1="745.625592" x2="1559.728062" y2="498.48241" stroke="black" stroke-width="6.48"/>
<line x1="1560.347471" y1="796.416923" x2="1585.743134" y2="796.416923" stroke="black" stroke-width="6.48"/>
<line x1="1585.743134" y1="796.416923" x2="1585.743134" y2="746.864406" stroke="black" stroke-width="6.48"/>
<line x1="1585.743134" y1="746.864406" x2="1560.347471" y2="746.864406" stroke="black" stroke-width="6.48"/>
<line x1="1560.347471" y1="746.864406" x2="1560.347471" y2="796.416923" stroke="black" stroke-width="6.48"/>
<path d="m 1311.346069,747.483811 a 248.38199299999997,248.38199299999997 0 0 1 248.38199299999997,-248.38199299999997" fill="none" stroke="black" stroke-width="6.48"/>
<line x1="320.532556" y1="771.34176" x2="320.532556" y2="366.736194" stroke="black" stroke-width="6.48"/>
<line x1="320.532556" y1="366.736194" x2="258.159283" y2="366.736194" stroke="black" stroke-width="6.48"/>
<line x1="258.159283" y1="366.736194" x2="258.159283" y2="771.34176" stroke="black" stroke-width="6.48"/>
<line x1="258.159283" y1="771.34176" x2="320.532556" y2="771.34176" stroke="black" stroke-width="6.48"/>
<line x1="258.979986" y1="733.589518" x2="319.711856" y2="733.589518" stroke="black" stroke-width="6.48"/>
<line x1="258.979986" y1="405.309139" x2="322.173958" y2="405.309139" stroke="black" stroke-width="6.48"/>
<line x1="287.704519" y1="734.410217" x2="287.704519" y2="406.129838" stroke="black" stroke-width="6.48"/>
<line x1="3901.945176" y1="1169.331426" x2="3901.945176" y2="1428.837066" stroke="black" stroke-width="6.48"/>
<line x1="3901.945176" y1="1428.837066" x2="3941.9501" y2="1428.837066" stroke="black" stroke-width="6.48"/>
<line x1="3941.9501" y1="1428.837066" x2="3941.9501" y2="1169.331426" stroke="black" stroke-width="6.48"/>
<line x1="3941.9501" y1="1169.331426" x2="3901.945176" y2="1169.331426" stroke="black" stroke-width="6.48"/>
<line x1="3941.423719" y1="1193.544936" x2="3902.471557" y2="1193.544936" stroke="black" stroke-width="6.48"/>
<line x1="3941.423719" y1="1404.097178" x2="3900.892414" y2="1404.097178" stroke="black" stroke-width="6.48"/>
<line x1="3923.000399" y1="1193.018555" x2="3923.000399" y2="1403.570797" stroke="black" stroke-width="6.48"/>
<line x1="334.430687" y1="1882.943946" x2="334.430687" y2="1457.437414" stroke="black" stroke-width="6.48"/>
<line x1="334.430687" y1="1457.437414" x2="258.323828" y2="1457.437414" stroke="black" stroke-width="6.48"/>
<line x1="258.323828" y1="1457.437414" x2="258.323828" y2="1882.943946" stroke="black" stroke-width="6.48"/>
<line x1="258.323828" y1="1882.943946" x2="334.430687" y2="1882.943946" stroke="black" stroke-width="6.48"/>
<line x1="334.430687" y1="1863.05238" x2="360.376207" y2="1863.05238" stroke="black" stroke-width="6.48"/>
<line x1="360.376207" y1="1863.05238" x2="360.376207" y2="1478.193829" stroke="black" stroke-width="6.48"/>
<line x1="334.430687" y1="1478.193829" x2="360.376207" y2="1478.193829" stroke="black" stroke-width="6.48"/>
<line x1="2747.905531" y1="904.670665" x2="2721.68303" y2="904.670665" stroke="black" stroke-width="6.48"/>
<line x1="2721.68303" y1="904.670665" x2="2721.68303" y2="955.836522" stroke="black" stroke-width="6.48"/>
<line x1="2721.68303" y1="955.836522" x2="2747.905531" y2="955.836522" stroke="black" stroke-width="6.48"/>
<line x1="2747.905531" y1="955.836522" x2="2747.905531" y2="904.670665" stroke="black" stroke-width="6.48"/>
<line x1="2465.214181" y1="955.836522" x2="2465.214181" y2="1211.026223" stroke="black" stroke-width="6.48"/>
<line x1="2464.574609" y1="903.39152" x2="2438.352108" y2="903.39152" stroke="black" stroke-width="6.48"/>
<line x1="2438.352108" y1="903.39152" x2="2438.352108" y2="954.557374" stroke="black" stroke-width="6.48"/>
<line x1="2438.352108" y1="954.557374" x2="2464.574609" y2="954.557374" stroke="black" stroke-width="6.48"/>
<line x1="2464.574609" y1="954.557374" x2="2464.574609" y2="903.39152" stroke="black" stroke-width="6.48"/>
<path d="m 2721.68303,953.917801 a 256.4688490000001,256.4688490000001 0 0 1 -256.4688490000003,256.46884899999986" fill="none" stroke="black" stroke-width="6.48"/>
<line x1="2420.532389" y1="1427.858834" x2="2395.136725" y2="1427.858834" stroke="black" stroke-width="6.48"/>
<line x1="2395.136725" y1="1427.858834" x2="2395.136725" y2="1477.411351" stroke="black" stroke-width="6.48"/>
<line x1="2395.136725" y1="1477.411351" x2="2420.532389" y2="1477.411351" stroke="black" stroke-width="6.48"/>
<line x1="2420.532389" y1="1477.411351" x2="2420.532389" y2="1427.858834" stroke="black" stroke-width="6.48"/>
<line x1="2146.754732" y1="1477.411351" x2="2146.754732" y2="1724.554534" stroke="black" stroke-width="6.48"/>
<line x1="2146.135324" y1="1426.62002" x2="2120.73966" y2="1426.62002" stroke="black" stroke-width="6.48"/>
<line x1="2120.73966" y1="1426.62002" x2="2120.73966" y2="1476.172537" stroke="black" stroke-width="6.48"/>
<line x1="2120.73966" y1="1476.172537" x2="2146.135324" y2="1476.172537" stroke="black" stroke-width="6.48"/>
<line x1="2146.135324" y1="1476.172537" x2="2146.135324" y2="1426.62002" stroke="black" stroke-width="6.48"/>
<path d="m 2395.136725,1475.553132 a 248.38199299999997,248.38199299999997 0 0 1 -248.38199299999997,248.38199299999997" fill="none" stroke="black" stroke-width="6.48"/>
<line x1="815.490277" y1="692.136151" x2="1208.322277" y2="692.136151" stroke="black" stroke-width="6.48"/>
<line x1="1208.322277" y1="692.136151" x2="1208.322277" y2="507.600151" stroke="black" stroke-width="6.48"/>
<line x1="1208.322277" y1="507.600151" x2="815.490277" y2="507.600151" stroke="black" stroke-width="6.48"/>
<line x1="815.490277" y1="507.600151" x2="815.490277" y2="692.136151" stroke="black" stroke-width="6.48"/>
<line x1="974.682277" y1="507.600151" x2="974.682277" y2="426.816151" stroke="black" stroke-width="6.48"/>
<line x1="974.682277" y1="426.816151" x2="896.274277" y2="426.816151" stroke="black" stroke-width="6.48"/>
<line x1="896.274277" y1="426.816151" x2="896.274277" y2="507.600151" stroke="black" stroke-width="6.48"/>
<line x1="897.066277" y1="444.240151" x2="974.682277" y2="444.240151" stroke="black" stroke-width="6.48"/>
<line x1="896.274277" y1="773.712151" x2="974.682277" y2="773.712151" stroke="black" stroke-width="6.48"/>
<line x1="974.682277" y1="773.712151" x2="974.682277" y2="692.136151" stroke="black" stroke-width="6.48"/>
<line x1="896.274277" y1="692.136151" x2="896.274277" y2="773.712151" stroke="black" stroke-width="6.48"/>
<line x1="897.066277" y1="756.288151" x2="974.682277" y2="756.288151" stroke="black" stroke-width="6.48"/>
<line x1="1125.954277" y1="507.600151" x2="1125.954277" y2="426.816151" stroke="black" stroke-width="6.48"/>
<line x1="1125.954277" y1="426.816151" x2="1047.546277" y2="426.816151" stroke="black" stroke-width="6.48"/>
<line x1="1047.546277" y1="426.816151" x2="1047.546277" y2="507.600151" stroke="black" stroke-width="6.48"/>
<line x1="1047.546277" y1="444.240151" x2="1125.954277" y2="444.240151" stroke="black" stroke-width="6.48"/>
<line x1="1047.546277" y1="773.712151" x2="1125.954277" y2="773.712151" stroke="black" stroke-width="6.48"/>
<line x1="1125.954277" y1="773.712151" x2="1125.954277" y2="692.136151" stroke="black" stroke-width="6.48"/>
<line x1="1047.546277" y1="692.136151" x2="1047.546277" y2="773.712151" stroke="black" stroke-width="6.48"/>
<line x1="1047.546277" y1="756.288151" x2="1125.954277" y2="756.288151" stroke="black" stroke-width="6.48"/>
<line x1="2032.924367" y1="1979.639712" x2="2032.924367" y2="1770.551712" stroke="black" stroke-width="6.48"/>
<line x1="2032.924367" y1="1770.551712" x2="1801.026767" y2="1770.551712" stroke="black" stroke-width="6.48"/>
<line x1="1801.026767" y1="1770.551712" x2="1801.026767" y2="1979.639712" stroke="black" stroke-width="6.48"/>
<line x1="1801.026767" y1="1979.639712" x2="2032.924367" y2="1979.639712" stroke="black" stroke-width="6.48"/>
<line x1="2000.610767" y1="1979.639712" x2="2000.610767" y2="1770.551712" stroke="black" stroke-width="6.48"/>
<line x1="1485.415969" y1="209.267824" x2="1707.693134" y2="209.267824" stroke="black" stroke-width="6.48"/>
<line x1="1707.693134" y1="209.267824" x2="1707.693134" y2="432.000475" stroke="black" stroke-width="6.48"/>
<line x1="1707.693134" y1="432.000475" x2="1485.415969" y2="432.000475" stroke="black" stroke-width="6.48"/>
<line x1="1485.415969" y1="432.000475" x2="1485.415969" y2="209.267824" stroke="black" stroke-width="6.48"/>
<line x1="1484.960483" y1="208.812337" x2="1707.693134" y2="432.000475" stroke="black" stroke-width="6.48"/>
<line x1="1485.415969" y1="431.544989" x2="1707.237648" y2="209.267824" stroke="black" stroke-width="6.48"/>
<line x1="2586.780558" y1="1803.366338" x2="2586.780558" y2="2194.614338" stroke="black" stroke-width="6.48"/>
<line x1="2586.780558" y1="2194.614338" x2="2761.020558" y2="2194.614338" stroke="black" stroke-width="6.48"/>
<line x1="2761.020558" y1="2194.614338" x2="2761.020558" y2="1803.366338" stroke="black" stroke-width="6.48"/>
<line x1="2761.020558" y1="1803.366338" x2="2586.780558" y2="1803.366338" stroke="black" stroke-width="6.48"/>
<line x1="2734.092558" y1="2119.374338" x2="2734.092558" y2="1835.046338" stroke="black" stroke-width="6.48"/>
<line x1="2734.092558" y1="1835.046338" x2="2616.084558" y2="1835.046338" stroke="black" stroke-width="6.48"/>
<line x1="2616.084558" y1="1835.046338" x2="2616.084558" y2="2124.918338" stroke="black" stroke-width="6.48"/>
<path d="m 2734.347982,2118.563766 a 63.35999941905905,63.35999941905905 0 0 1 -119.37432999999965,4.2938139999996565" fill="none" stroke="black" stroke-width="6.48"/>
<line x1="2081.065205" y1="1882.408637" x2="2056.513205" y2="1901.020637" stroke="black" stroke-width="6.48"/>
<line x1="2056.513205" y1="1901.020637" x2="2056.513205" y2="2048.332637" stroke="black" stroke-width="6.48"/>
<line x1="2056.513205" y1="2048.332637" x2="2084.629205" y2="2067.340637" stroke="black" stroke-width="6.48"/>
<line x1="2083.837205" y1="1904.188637" x2="2083.837205" y2="2047.144637" stroke="black" stroke-width="6.48"/>
<circle cx="2105.617205" cy="1973.488637" r="13.068000000000003" fill="none" stroke="black" stroke-width="6.48"/>
<path d="m 2083.169858,1905.741889 a 74.84400089539008,74.84400089539008 0 1 1 0.40204799999992247,139.60900500000002" fill="none" stroke="black" stroke-width="6.48"/>
<path d="m 2080.407841,1882.45494 a 95.43599883324397,95.43599883324397 0 1 1 3.0749579999996968,184.46699499999977" fill="none" stroke="black" stroke-width="6.48"/>
<line x1="779.238821" y1="210.810841" x2="1172.482693" y2="210.810841" stroke="black" stroke-width="6.48"/>
<line x1="1176.4381" y1="209.814559" x2="1176.4381" y2="345.883334" stroke="black" stroke-width="6.48"/>
<line x1="779.70321" y1="347.034841" x2="1176.743441" y2="347.034841" stroke="black" stroke-width="6.48"/>
<line x1="780.4381" y1="211.505591" x2="780.4381" y2="346.769647" stroke="black" stroke-width="6.48"/>
<line x1="790.7341" y1="221.898841" x2="914.2861" y2="221.898841" stroke="black" stroke-width="6.48"/>
<line x1="914.2861" y1="221.898841" x2="914.2861" y2="335.946841" stroke="black" stroke-width="6.48"/>
<line x1="790.7341" y1="335.946841" x2="914.2861" y2="335.946841" stroke="black" stroke-width="6.48"/>
<line x1="790.7341" y1="221.898841" x2="790.7341" y2="335.946841" stroke="black" stroke-width="6.48"/>
<line x1="933.2941" y1="229.026841" x2="1020.4141" y2="229.026841" stroke="black" stroke-width="6.48"/>
<line x1="933.2941" y1="248.826841" x2="1020.4141" y2="248.826841" stroke="black" stroke-width="6.48"/>
<line x1="934.0861" y1="269.418841" x2="1020.4141" y2="269.418841" stroke="black" stroke-width="6.48"/>
<line x1="934.0861" y1="289.218841" x2="1020.4141" y2="289.218841" stroke="black" stroke-width="6.48"/>
<line x1="933.2941" y1="309.018841" x2="1020.4141" y2="309.018841" stroke="black" stroke-width="6.48"/>
<line x1="933.2941" y1="328.818841" x2="1020.4141" y2="328.818841" stroke="black" stroke-width="6.48"/>
<line x1="838.2541" y1="335.154841" x2="838.2541" y2="321.690841" stroke="black" stroke-width="6.48"/>
<line x1="838.2541" y1="321.690841" x2="868.3501" y2="321.690841" stroke="black" stroke-width="6.48"/>
<line x1="868.3501" y1="321.690841" x2="868.3501" y2="334.362841" stroke="black" stroke-width="6.48"/>
<line x1="1041.0061" y1="221.898841" x2="1164.5581" y2="221.898841" stroke="black" stroke-width="6.48"/>
<line x1="1164.5581" y1="221.898841" x2="1164.5581" y2="335.946841" stroke="black" stroke-width="6.48"/>
<line x1="1041.0061" y1="335.946841" x2="1164.5581" y2="335.946841" stroke="black" stroke-width="6.48"/>
<line x1="1041.0061" y1="221.898841" x2="1041.0061" y2="335.946841" stroke="black" stroke-width="6.48"/>
<line x1="1088.5261" y1="335.946841" x2="1088.5261" y2="322.482841" stroke="black" stroke-width="6.48"/>
<line x1="1088.5261" y1="322.482841" x2="1118.6221" y2="322.482841" stroke="black" stroke-width="6.48"/>
<line x1="1118.6221" y1="322.482841" x2="1118.6221" y2="335.154841" stroke="black" stroke-width="6.48"/>
<circle cx="900.0301" cy="236.154841" r="7.128000000000001" fill="none" stroke="black" stroke-width="6.48"/>
<circle cx="1150.3021" cy="236.946841" r="7.128000000000001" fill="none" stroke="black" stroke-width="6.48"/>
<line x1="852.63629" y1="1354.960904" x2="875.576185" y2="1224.862283" stroke="black" stroke-width="6.48"/>
<line x1="875.576185" y1="1224.862283" x2="889.615606" y2="1227.337816" stroke="black" stroke-width="6.48"/>
<line x1="866.675707" y1="1357.43643" x2="889.615606" y2="1227.337816" stroke="black" stroke-width="6.48"/>
<line x1="852.63629" y1="1354.960904" x2="866.675707" y2="1357.43643" stroke="black" stroke-width="6.48"/>
<line x1="868.986198" y1="1344.332974" x2="899.542854" y2="1351.651057" stroke="black" stroke-width="6.48"/>
<line x1="887.305111" y1="1240.441272" x2="919.457863" y2="1244.180545" stroke="black" stroke-width="6.48"/>
<line x1="1306.577513" y1="1435.002991" x2="1329.517411" y2="1304.90437" stroke="black" stroke-width="6.48"/>
<line x1="1329.517411" y1="1304.90437" x2="1316.413951" y2="1302.593875" stroke="black" stroke-width="6.48"/>
<line x1="1293.474056" y1="1432.692497" x2="1316.413951" y2="1302.593875" stroke="black" stroke-width="6.48"/>
<line x1="1306.577513" y1="1435.002991" x2="1293.474056" y2="1432.692497" stroke="black" stroke-width="6.48"/>
<line x1="1293.747592" y1="1420.194931" x2="1262.530796" y2="1416.620689" stroke="black" stroke-width="6.48"/>
<line x1="1312.066501" y1="1316.303226" x2="1280.738923" y2="1307.884144" stroke="black" stroke-width="6.48"/>
<line x1="1065.883547" y1="1092.428035" x2="1063.408018" y2="1106.467456" stroke="black" stroke-width="6.48"/>
<line x1="1063.408018" y1="1106.467456" x2="1193.506639" y2="1129.407354" stroke="black" stroke-width="6.48"/>
<line x1="1195.982165" y1="1115.367934" x2="1193.506639" y2="1129.407354" stroke="black" stroke-width="6.48"/>
<line x1="1065.883547" y1="1092.428035" x2="1195.982165" y2="1115.367934" stroke="black" stroke-width="6.48"/>
<line x1="1179.467219" y1="1126.931825" x2="1176.663902" y2="1159.249615" stroke="black" stroke-width="6.48"/>
<line x1="1076.511478" y1="1108.77795" x2="1069.028356" y2="1140.270563" stroke="black" stroke-width="6.48"/>
<line x1="985.070534" y1="1545.268262" x2="987.546067" y2="1531.228849" stroke="black" stroke-width="6.48"/>
<line x1="987.546067" y1="1531.228849" x2="1117.644682" y2="1554.168744" stroke="black" stroke-width="6.48"/>
<line x1="1115.169156" y1="1568.208164" x2="1117.644682" y2="1554.168744" stroke="black" stroke-width="6.48"/>
<line x1="985.070534" y1="1545.268262" x2="1115.169156" y2="1568.208164" stroke="black" stroke-width="6.48"/>
<line x1="1103.605261" y1="1551.693215" x2="1112.024344" y2="1520.365637" stroke="black" stroke-width="6.48"/>
<line x1="1000.649524" y1="1533.539336" x2="1004.388797" y2="1501.386584" stroke="black" stroke-width="6.48"/>
<circle cx="1090.526353" cy="1330.318102" r="191.98080000000002" fill="none" stroke="black" stroke-width="6.48"/>
<line x1="2044.889399" y1="955.822399" x2="2267.166564" y2="955.822399" stroke="black" stroke-width="6.48"/>
<line x1="2267.166564" y1="955.822399" x2="2267.166564" y2="1178.555051" stroke="black" stroke-width="6.48"/>
<line x1="2267.166564" y1="1178.555051" x2="2044.889399" y2="1178.555051" stroke="black" stroke-width="6.48"/>
<line x1="2044.889399" y1="1178.555051" x2="2044.889399" y2="955.822399" stroke="black" stroke-width="6.48"/>
<line x1="2044.433912" y1="955.366913" x2="2267.166564" y2="1178.555051" stroke="black" stroke-width="6.48"/>
<line x1="2044.889399" y1="1178.099564" x2="2266.711078" y2="955.822399" stroke="black" stroke-width="6.48"/>
<line x1="323.258818" y1="1375.374532" x2="323.258818" y2="949.841089" stroke="black" stroke-width="6.48"/>
<line x1="323.258818" y1="949.841089" x2="257.659344" y2="949.841089" stroke="black" stroke-width="6.48"/>
<line x1="257.659344" y1="949.841089" x2="257.659344" y2="1375.374532" stroke="black" stroke-width="6.48"/>
<line x1="257.659344" y1="1375.374532" x2="323.258818" y2="1375.374532" stroke="black" stroke-width="6.48"/>
<line x1="258.522494" y1="1335.669588" x2="322.395667" y2="1335.669588" stroke="black" stroke-width="6.48"/>
<line x1="258.522494" y1="990.409187" x2="324.985122" y2="990.409187" stroke="black" stroke-width="6.48"/>
<line x1="288.73278" y1="1336.532738" x2="288.73278" y2="991.272337" stroke="black" stroke-width="6.48"/>
<line x1="3874.406537" y1="1514.726719" x2="3874.406537" y2="1940.260162" stroke="black" stroke-width="6.48"/>
<line x1="3874.406537" y1="1940.260162" x2="3940.00601" y2="1940.260162" stroke="black" stroke-width="6.48"/>
<line x1="3940.00601" y1="1940.260162" x2="3940.00601" y2="1514.726719" stroke="black" stroke-width="6.48"/>
<line x1="3940.00601" y1="1514.726719" x2="3874.406537" y2="1514.726719" stroke="black" stroke-width="6.48"/>
<line x1="3939.14286" y1="1554.431663" x2="3875.269687" y2="1554.431663" stroke="black" stroke-width="6.48"/>
<line x1="3939.14286" y1="1899.692064" x2="3872.680232" y2="1899.692064" stroke="black" stroke-width="6.48"/>
<line x1="3908.932574" y1="1553.568512" x2="3908.932574" y2="1898.828914" stroke="black" stroke-width="6.48"/>
<line x1="5186.80179" y1="1675.27017" x2="4797.792803" y2="1620.598522" stroke="black" stroke-width="6.48"/>
<line x1="4797.792803" y1="1620.598522" x2="4772.110356" y2="1803.338629" stroke="black" stroke-width="6.48"/>
<line x1="4772.110356" y1="1803.338629" x2="5161.11934" y2="1858.010278" stroke="black" stroke-width="6.48"/>
<line x1="5161.11934" y1="1858.010278" x2="5186.80179" y2="1675.27017" stroke="black" stroke-width="6.48"/>
<line x1="5003.476589" y1="1835.855032" x2="4992.23363" y2="1915.852849" stroke="black" stroke-width="6.48"/>
<line x1="4992.23363" y1="1915.852849" x2="5069.878564" y2="1926.765133" stroke="black" stroke-width="6.48"/>
<line x1="5069.878564" y1="1926.765133" x2="5081.121526" y2="1846.767319" stroke="black" stroke-width="6.48"/>
<line x1="5071.519228" y1="1909.400476" x2="4994.65858" y2="1898.598416" stroke="black" stroke-width="6.48"/>
<line x1="5118.157159" y1="1583.245102" x2="5040.512219" y2="1572.332818" stroke="black" stroke-width="6.48"/>
<line x1="5040.512219" y1="1572.332818" x2="5029.159036" y2="1653.114924" stroke="black" stroke-width="6.48"/>
<line x1="5106.803972" y1="1664.027212" x2="5118.157159" y2="1583.245102" stroke="black" stroke-width="6.48"/>
<line x1="5114.947914" y1="1600.389306" x2="5038.08727" y2="1589.58725" stroke="black" stroke-width="6.48"/>
<line x1="4853.676758" y1="1814.802041" x2="4842.4338" y2="1894.799855" stroke="black" stroke-width="6.48"/>
<line x1="4842.4338" y1="1894.799855" x2="4920.078733" y2="1905.712142" stroke="black" stroke-width="6.48"/>
<line x1="4920.078733" y1="1905.712142" x2="4931.321695" y2="1825.714325" stroke="black" stroke-width="6.48"/>
<line x1="4922.503686" y1="1888.45771" x2="4844.858749" y2="1877.545426" stroke="black" stroke-width="6.48"/>
<line x1="4968.357329" y1="1562.192107" x2="4890.712388" y2="1551.279827" stroke="black" stroke-width="6.48"/>
<line x1="4890.712388" y1="1551.279827" x2="4879.359202" y2="1632.061933" stroke="black" stroke-width="6.48"/>
<line x1="4957.004142" y1="1642.974217" x2="4968.357329" y2="1562.192107" stroke="black" stroke-width="6.48"/>
<line x1="4965.932372" y1="1579.446536" x2="4888.287439" y2="1568.534256" stroke="black" stroke-width="6.48"/>
<line x1="3190.593398" y1="1074.601422" x2="3399.958602" y2="1074.601422" stroke="black" stroke-width="6.48"/>
<line x1="3399.958602" y1="1074.601422" x2="3399.958602" y2="743.387018" stroke="black" stroke-width="6.48"/>
<line x1="3399.958602" y1="743.387018" x2="3190.593398" y2="743.387018" stroke="black" stroke-width="6.48"/>
<line x1="3190.593398" y1="743.387018" x2="3190.593398" y2="1074.601422" stroke="black" stroke-width="6.48"/>
<line x1="3189.920198" y1="802.628618" x2="3400.631798" y2="802.628618" stroke="black" stroke-width="6.48"/>
<line x1="3400.631798" y1="802.628618" x2="3191.266598" y2="852.445422" stroke="black" stroke-width="6.48"/>
<line x1="3191.266598" y1="852.445422" x2="3222.907002" y2="898.896222" stroke="black" stroke-width="6.48"/>
<line x1="3222.907002" y1="898.896222" x2="3400.631798" y2="801.955422" stroke="black" stroke-width="6.48"/>
<line x1="3475.817485" y1="1202.8676" x2="3698.09465" y2="1202.8676" stroke="black" stroke-width="6.48"/>
<line x1="3698.09465" y1="1202.8676" x2="3698.09465" y2="1425.600252" stroke="black" stroke-width="6.48"/>
<line x1="3698.09465" y1="1425.600252" x2="3475.817485" y2="1425.600252" stroke="black" stroke-width="6.48"/>
<line x1="3475.817485" y1="1425.600252" x2="3475.817485" y2="1202.8676" stroke="black" stroke-width="6.48"/>
<line x1="3475.361999" y1="1202.412114" x2="3698.09465" y2="1425.600252" stroke="black" stroke-width="6.48"/>
<line x1="3475.817485" y1="1425.144766" x2="3697.639164" y2="1202.8676" stroke="black" stroke-width="6.48"/>
<line x1="2804.16708" y1="1127.69402" x2="2804.16708" y2="1153.148746" stroke="black" stroke-width="6.48"/>
<line x1="2804.16708" y1="1153.148746" x2="2853.834836" y2="1153.148746" stroke="black" stroke-width="6.48"/>
<line x1="2853.834836" y1="1153.148746" x2="2853.834836" y2="1127.69402" stroke="black" stroke-width="6.48"/>
<line x1="2853.834836" y1="1127.69402" x2="2804.16708" y2="1127.69402" stroke="black" stroke-width="6.48"/>
<line x1="2853.834836" y1="1402.108373" x2="3101.55277" y2="1402.108373" stroke="black" stroke-width="6.48"/>
<line x1="2802.925386" y1="1402.729218" x2="2802.925386" y2="1428.183943" stroke="black" stroke-width="6.48"/>
<line x1="2802.925386" y1="1428.183943" x2="2852.593142" y2="1428.183943" stroke="black" stroke-width="6.48"/>
<line x1="2852.593142" y1="1428.183943" x2="2852.593142" y2="1402.729218" stroke="black" stroke-width="6.48"/>
<line x1="2852.593142" y1="1402.729218" x2="2802.925386" y2="1402.729218" stroke="black" stroke-width="6.48"/>
<path d="m 2851.972294,1153.148746 a 248.95962699999984,248.95962699999984 0 0 1 248.95962699999973,248.95962699999995" fill="none" stroke="black" stroke-width="6.48"/>
<line x1="3384.219154" y1="1798.366277" x2="3551.032328" y2="1637.27667" stroke="black" stroke-width="6.48"/>
<line x1="3551.032328" y1="1637.27667" x2="3712.452041" y2="1804.431672" stroke="black" stroke-width="6.48"/>
<line x1="3712.452041" y1="1804.431672" x2="3545.638866" y2="1965.521279" stroke="black" stroke-width="6.48"/>
<line x1="3545.638866" y1="1965.521279" x2="3384.219154" y2="1798.366277" stroke="black" stroke-width="6.48"/>
<line x1="3383.547221" y1="1798.354548" x2="3712.452041" y2="1804.431672" stroke="black" stroke-width="6.48"/>
<line x1="3545.308764" y1="1965.179452" x2="3550.690498" y2="1637.606772" stroke="black" stroke-width="6.48"/>
<line x1="3111.239045" y1="1589.315879" x2="3092.650182" y2="1613.98413" stroke="black" stroke-width="6.48"/>
<line x1="3092.650182" y1="1613.98413" x2="3260.014798" y2="1740.102415" stroke="black" stroke-width="6.48"/>
<line x1="3260.014798" y1="1740.102415" x2="3278.60366" y2="1715.43416" stroke="black" stroke-width="6.48"/>
<line x1="3278.60366" y1="1715.43416" x2="3111.239045" y2="1589.315879" stroke="black" stroke-width="6.48"/>
<line x1="2988.552553" y1="1752.12635" x2="2969.96369" y2="1776.794605" stroke="black" stroke-width="6.48"/>
<line x1="2969.96369" y1="1776.794605" x2="3137.328302" y2="1902.912887" stroke="black" stroke-width="6.48"/>
<line x1="3137.328302" y1="1902.912887" x2="3155.917165" y2="1878.244636" stroke="black" stroke-width="6.48"/>
<line x1="3155.917165" y1="1878.244636" x2="2988.552553" y2="1752.12635" stroke="black" stroke-width="6.48"/>
<line x1="3092.936166" y1="1613.604622" x2="2988.552553" y2="1752.12635" stroke="black" stroke-width="6.48"/>
<line x1="3259.827742" y1="1738.771427" x2="3264.685855" y2="1775.753114" stroke="black" stroke-width="6.48"/>
<line x1="3191.760317" y1="1872.528566" x2="3154.872161" y2="1878.052183" stroke="black" stroke-width="6.48"/>
<line x1="3265.829784" y1="1774.235066" x2="3190.616388" y2="1874.046614" stroke="black" stroke-width="6.48"/>
<line x1="3128.324274" y1="1640.866489" x2="3023.940661" y2="1779.388218" stroke="black" stroke-width="6.48"/>
<line x1="6066.425419" y1="1521.794513" x2="5880.499124" y2="1482.274656" stroke="black" stroke-width="6.48"/>
<line x1="5880.499124" y1="1482.274656" x2="5784.07068" y2="1935.934819" stroke="black" stroke-width="6.48"/>
<line x1="5784.07068" y1="1935.934819" x2="5969.996978" y2="1975.454672" stroke="black" stroke-width="6.48"/>
<line x1="5969.996978" y1="1975.454672" x2="5974.93696" y2="1952.21389" stroke="black" stroke-width="6.48"/>
<line x1="5974.93696" y1="1952.21389" x2="5811.32182" y2="1917.436417" stroke="black" stroke-width="6.48"/>
<line x1="5811.32182" y1="1917.436417" x2="5897.672701" y2="1511.187462" stroke="black" stroke-width="6.48"/>
<line x1="5897.672701" y1="1511.187462" x2="6061.287838" y2="1545.964931" stroke="black" stroke-width="6.48"/>
<line x1="6061.287838" y1="1545.964931" x2="6066.425419" y2="1521.794513" stroke="black" stroke-width="6.48"/>
<line x1="6055.710052" y1="1544.779336" x2="5969.35917" y2="1951.028294" stroke="black" stroke-width="6.48"/>
<line x1="6013.563044" y1="1747.6366" x2="5855.525687" y2="1714.044722" stroke="black" stroke-width="6.48"/>
<line x1="6221.256293" y1="2048.498978" x2="6213.783812" y2="2078.469475" stroke="black" stroke-width="6.48"/>
<line x1="6213.783812" y1="2078.469475" x2="6417.122087" y2="2129.1674" stroke="black" stroke-width="6.48"/>
<line x1="6417.122087" y1="2129.1674" x2="6424.594571" y2="2099.196907" stroke="black" stroke-width="6.48"/>
<line x1="6424.594571" y1="2099.196907" x2="6221.256293" y2="2048.498978" stroke="black" stroke-width="6.48"/>
<line x1="6171.937902" y1="2246.304244" x2="6164.465418" y2="2276.274737" stroke="black" stroke-width="6.48"/>
<line x1="6164.465418" y1="2276.274737" x2="6367.803696" y2="2326.972662" stroke="black" stroke-width="6.48"/>
<line x1="6367.803696" y1="2326.972662" x2="6375.27618" y2="2297.002169" stroke="black" stroke-width="6.48"/>
<line x1="6375.27618" y1="2297.002169" x2="6171.937902" y2="2246.304244" stroke="black" stroke-width="6.48"/>
<line x1="6213.898771" y1="2078.008387" x2="6171.937902" y2="2246.304244" stroke="black" stroke-width="6.48"/>
<line x1="6416.429843" y1="2128.015307" x2="6435.351659" y2="2160.158915" stroke="black" stroke-width="6.48"/>
<line x1="6406.036531" y1="2277.735469" x2="6374.239049" y2="2297.233332" stroke="black" stroke-width="6.48"/>
<line x1="6435.811505" y1="2158.314574" x2="6405.576689" y2="2279.579807" stroke="black" stroke-width="6.48"/>
<line x1="6257.125757" y1="2089.275836" x2="6215.164888" y2="2257.571689" stroke="black" stroke-width="6.48"/>
<line x1="2921.367712" y1="2004.489817" x2="2850.162566" y2="2180.728955" stroke="black" stroke-width="6.48"/>
<line x1="2850.162566" y1="2180.728955" x2="3280.186062" y2="2354.469505" stroke="black" stroke-width="6.48"/>
<line x1="3280.186062" y1="2354.469505" x2="3351.391207" y2="2178.230368" stroke="black" stroke-width="6.48"/>
<line x1="3351.391207" y1="2178.230368" x2="3329.361317" y2="2169.329724" stroke="black" stroke-width="6.48"/>
<line x1="3329.361317" y1="2169.329724" x2="3266.70079" y2="2324.420168" stroke="black" stroke-width="6.48"/>
<line x1="3266.70079" y1="2324.420168" x2="2881.618272" y2="2168.836927" stroke="black" stroke-width="6.48"/>
<line x1="2881.618272" y1="2168.836927" x2="2944.278799" y2="2013.746486" stroke="black" stroke-width="6.48"/>
<line x1="2944.278799" y1="2013.746486" x2="2921.367712" y2="2004.489817" stroke="black" stroke-width="6.48"/>
<line x1="2942.142646" y1="2019.033659" x2="3327.225163" y2="2174.6169" stroke="black" stroke-width="6.48"/>
<line x1="3134.59933" y1="2095.766071" x2="3074.07496" y2="2245.56934" stroke="black" stroke-width="6.48"/>
<line x1="3787.263227" y1="1160.959424" x2="3794.211515" y2="1130.863079" stroke="black" stroke-width="6.48"/>
<line x1="3794.211515" y1="1130.863079" x2="3590.019407" y2="1083.721615" stroke="black" stroke-width="6.48"/>
<line x1="3590.019407" y1="1083.721615" x2="3583.071119" y2="1113.817961" stroke="black" stroke-width="6.48"/>
<line x1="3583.071119" y1="1113.817961" x2="3787.263227" y2="1160.959424" stroke="black" stroke-width="6.48"/>
<line x1="3833.121928" y1="962.32356" x2="3840.070216" y2="932.227218" stroke="black" stroke-width="6.48"/>
<line x1="3840.070216" y1="932.227218" x2="3635.878111" y2="885.085754" stroke="black" stroke-width="6.48"/>
<line x1="3635.878111" y1="885.085754" x2="3628.92982" y2="915.182096" stroke="black" stroke-width="6.48"/>
<line x1="3628.92982" y1="915.182096" x2="3833.121928" y2="962.32356" stroke="black" stroke-width="6.48"/>
<line x1="3794.10462" y1="1131.3261" x2="3833.121928" y2="962.32356" stroke="black" stroke-width="6.48"/>
<line x1="3590.731656" y1="1084.861454" x2="3571.251739" y2="1053.052974" stroke="black" stroke-width="6.48"/>
<line x1="3598.510406" y1="934.982708" x2="3629.962757" y2="914.932872" stroke="black" stroke-width="6.48"/>
<line x1="3570.824149" y1="1054.905055" x2="3598.937993" y2="933.130624" stroke="black" stroke-width="6.48"/>
<line x1="3750.687576" y1="1120.814784" x2="3789.704884" y2="951.812244" stroke="black" stroke-width="6.48"/>
<line x1="1127.393035" y1="1991.59051" x2="1296.548752" y2="2114.489394" stroke="black" stroke-width="6.48"/>
<line x1="1296.548752" y1="2114.489394" x2="1432.854788" y2="1926.88033" stroke="black" stroke-width="6.48"/>
<line x1="1432.854788" y1="1926.88033" x2="1263.699072" y2="1803.981442" stroke="black" stroke-width="6.48"/>
<line x1="1263.699072" y1="1803.981442" x2="1127.393035" y2="1991.59051" stroke="black" stroke-width="6.48"/>
<line x1="1146.386498" y1="1965.44826" x2="1315.542215" y2="2088.347144" stroke="black" stroke-width="6.48"/>
</g>
</svg>
