<?xml version="1.0"?>
<svg xmlns:xlink="http://www.w3.org/1999/xlink" width="6775.2" height="2858.4">
<image x="0" y="0" width="6775.2" height="2858.4" xlink:href="groundfilled-01.png"/>
<g style="stroke-linecap:round">
<line x1="1285.950406" y1="795.178109" x2="1311.346069" y2="795.178109" stroke="black" stroke-width="6.48"/>
<line x1="1311.346069" y1="795.178109" x2="1311.346069" y2="745.625592" stroke="black" stroke-width="6.48"/>
<line x1="1311.346069" y1="745.625592" x2="1285.950406" y2="745.625592" stroke="black" stroke-width="6.48"/>
<line x1="1285.950406" y1="745.625592" x2="1285.950406" y2="795.178109" stroke="black" stroke-width="6.48"/>
<line x1="1559.728062" y1="745.625592" x2="1559.728062" y2="498.48241" stroke="black" stroke-width="6.48"/>
<line x1="1560.347471" y1="796.416923" x2="1585.743134" y2="796.416923" stroke="black" stroke-width="6.48"/>
<line x1="1585.743134" y1="796.416923" x2="1585.743134" y2="746.864406" stroke="black" stroke-width="6.48"/>
<line x1="1585.743134" y1="746.864406" x2="1560.347471" y2="746.864406" stroke="black" stroke-width="6.48"/>
<line x1="1560.347471" y1="746.864406" x2="1560.347471" y2="796.416923" stroke="black" stroke-width="6.48"/>
<path d="m 1311.346069,747.483811 a 248.38199299999997,248.38199299999997 0 0 1 248.38199299999997,-248.38199299999997" fill="none" stroke="black" stroke-width="6.48"/>
<line x1="320.532556" y1="771.34176" x2="320.532556" y2="366.736194" stroke="black" stroke-width="6.48"/>
<line x1="320.532556" y1="366.736194" x2="258.159283" y2="366.736194" stroke="black" stroke-width="6.48"/>
<line x1="258.159283" y1="366.736194" x2="258.159283" y2="771.34176" stroke="black" stroke-width="6.48"/>
<line x1="258.159283" y1="771.34176" x2="320.532556" y2="771.34176" stroke="black" stroke-width="6.48"/>
<line x1="258.979986" y1="733.589518" x2="319.711856" y2="733.589518" stroke="black" stroke-width="6.48"/>
<line x1="258.979986" y1="405.309139" x2="322.173958" y2="405.309139" stroke="black" stroke-width="6.48"/>
<line x1="287.704519" y1="734.410217" x2="287.704519" y2="406.129838" stroke="black" stroke-width="6.48"/>
<line x1="3901.945176" y1="1169.331426" x2="3901.945176" y2="1428.837066" stroke="black" stroke-width="6.48"/>
<line x1="3901.945176" y1="1428.837066" x2="3941.9501" y2="1428.837066" stroke="black" stroke-width="6.48"/>
<line x1="3941.9501" y1="1428.837066" x2="3941.9501" y2="1169.331426" stroke="black" stroke-width="6.48"/>
<line x1="3941.9501" y1="1169.331426" x2="3901.945176" y2="1169.331426" stroke="black" stroke-width="6.48"/>
<line x1="3941.423719" y1="1193.544936" x2="3902.471557" y2="1193.544936" stroke="black" stroke-width="6.48"/>
<line x1="3941.423719" y1="1404.097178" x2="3900.892414" y2="1404.097178" stroke="black" stroke-width="6.48"/>
<line x1="3923.000399" y1="1193.018555" x2="3923.000399" y2="1403.570797" stroke="black" stroke-width="6.48"/>
<line x1="323.923298" y1="1882.957399" x2="323.923298" y2="1457.423957" stroke="black" stroke-width="6.48"/>
<line x1="323.923298" y1="1457.423957" x2="258.323825" y2="1457.423957" stroke="black" stroke-width="6.48"/>
<line x1="258.323825" y1="1457.423957" x2="258.323825" y2="1882.957399" stroke="black" stroke-width="6.48"/>
<line x1="258.323825" y1="1882.957399" x2="323.923298" y2="1882.957399" stroke="black" stroke-width="6.48"/>
<line x1="259.186975" y1="1843.252456" x2="323.060148" y2="1843.252456" stroke="black" stroke-width="6.48"/>
<line x1="259.186975" y1="1497.992054" x2="325.649603" y2="1497.992054" stroke="black" stroke-width="6.48"/>
<line x1="289.397261" y1="1844.115606" x2="289.397261" y2="1498.855205" stroke="black" stroke-width="6.48"/>
<line x1="2747.905531" y1="904.670665" x2="2721.68303" y2="904.670665" stroke="black" stroke-width="6.48"/>
<line x1="2721.68303" y1="904.670665" x2="2721.68303" y2="955.836522" stroke="black" stroke-width="6.48"/>
<line x1="2721.68303" y1="955.836522" x2="2747.905531" y2="955.836522" stroke="black" stroke-width="6.48"/>
<line x1="2747.905531" y1="955.836522" x2="2747.905531" y2="904.670665" stroke="black" stroke-width="6.48"/>
<line x1="2465.214181" y1="955.836522" x2="2465.214181" y2="1211.026223" stroke="black" stroke-width="6.48"/>
<line x1="2464.574609" y1="903.39152" x2="2438.352108" y2="903.39152" stroke="black" stroke-width="6.48"/>
<line x1="2438.352108" y1="903.39152" x2="2438.352108" y2="954.557374" stroke="black" stroke-width="6.48"/>
<line x1="2438.352108" y1="954.557374" x2="2464.574609" y2="954.557374" stroke="black" stroke-width="6.48"/>
<line x1="2464.574609" y1="954.557374" x2="2464.574609" y2="903.39152" stroke="black" stroke-width="6.48"/>
<path d="m 2721.68303,953.917801 a 256.4688490000001,256.4688490000001 0 0 1 -256.4688490000003,256.46884899999986" fill="none" stroke="black" stroke-width="6.48"/>
<line x1="2420.532389" y1="1427.858834" x2="2395.136725" y2="1427.858834" stroke="black" stroke-width="6.48"/>
<line x1="2395.136725" y1="1427.858834" x2="2395.136725" y2="1477.411351" stroke="black" stroke-width="6.48"/>
<line x1="2395.136725" y1="1477.411351" x2="2420.532389" y2="1477.411351" stroke="black" stroke-width="6.48"/>
<line x1="2420.532389" y1="1477.411351" x2="2420.532389" y2="1427.858834" stroke="black" stroke-width="6.48"/>
<line x1="2146.754732" y1="1477.411351" x2="2146.754732" y2="1724.554534" stroke="black" stroke-width="6.48"/>
<line x1="2146.135324" y1="1426.62002" x2="2120.73966" y2="1426.62002" stroke="black" stroke-width="6.48"/>
<line x1="2120.73966" y1="1426.62002" x2="2120.73966" y2="1476.172537" stroke="black" stroke-width="6.48"/>
<line x1="2120.73966" y1="1476.172537" x2="2146.135324" y2="1476.172537" stroke="black" stroke-width="6.48"/>
<line x1="2146.135324" y1="1476.172537" x2="2146.135324" y2="1426.62002" stroke="black" stroke-width="6.48"/>
<path d="m 2395.136725,1475.553132 a 248.38199299999997,248.38199299999997 0 0 1 -248.38199299999997,248.38199299999997" fill="none" stroke="black" stroke-width="6.48"/>
<line x1="720.163818" y1="692.136151" x2="1112.995818" y2="692.136151" stroke="black" stroke-width="6.48"/>
<line x1="1112.995818" y1="692.136151" x2="1112.995818" y2="507.600151" stroke="black" stroke-width="6.48"/>
<line x1="1112.995818" y1="507.600151" x2="720.163818" y2="507.600151" stroke="black" stroke-width="6.48"/>
<line x1="720.163818" y1="507.600151" x2="720.163818" y2="692.136151" stroke="black" stroke-width="6.48"/>
<line x1="879.355818" y1="507.600151" x2="879.355818" y2="426.816151" stroke="black" stroke-width="6.48"/>
<line x1="879.355818" y1="426.816151" x2="800.947818" y2="426.816151" stroke="black" stroke-width="6.48"/>
<line x1="800.947818" y1="426.816151" x2="800.947818" y2="507.600151" stroke="black" stroke-width="6.48"/>
<line x1="801.739818" y1="444.240151" x2="879.355818" y2="444.240151" stroke="black" stroke-width="6.48"/>
<line x1="800.947818" y1="773.712151" x2="879.355818" y2="773.712151" stroke="black" stroke-width="6.48"/>
<line x1="879.355818" y1="773.712151" x2="879.355818" y2="692.136151" stroke="black" stroke-width="6.48"/>
<line x1="800.947818" y1="692.136151" x2="800.947818" y2="773.712151" stroke="black" stroke-width="6.48"/>
<line x1="801.739818" y1="756.288151" x2="879.355818" y2="756.288151" stroke="black" stroke-width="6.48"/>
<line x1="1030.627818" y1="507.600151" x2="1030.627818" y2="426.816151" stroke="black" stroke-width="6.48"/>
<line x1="1030.627818" y1="426.816151" x2="952.219818" y2="426.816151" stroke="black" stroke-width="6.48"/>
<line x1="952.219818" y1="426.816151" x2="952.219818" y2="507.600151" stroke="black" stroke-width="6.48"/>
<line x1="952.219818" y1="444.240151" x2="1030.627818" y2="444.240151" stroke="black" stroke-width="6.48"/>
<line x1="952.219818" y1="773.712151" x2="1030.627818" y2="773.712151" stroke="black" stroke-width="6.48"/>
<line x1="1030.627818" y1="773.712151" x2="1030.627818" y2="692.136151" stroke="black" stroke-width="6.48"/>
<line x1="952.219818" y1="692.136151" x2="952.219818" y2="773.712151" stroke="black" stroke-width="6.48"/>
<line x1="952.219818" y1="756.288151" x2="1030.627818" y2="756.288151" stroke="black" stroke-width="6.48"/>
<line x1="2032.924367" y1="1823.087552" x2="2032.924367" y2="1613.999552" stroke="black" stroke-width="6.48"/>
<line x1="2032.924367" y1="1613.999552" x2="1801.026767" y2="1613.999552" stroke="black" stroke-width="6.48"/>
<line x1="1801.026767" y1="1613.999552" x2="1801.026767" y2="1823.087552" stroke="black" stroke-width="6.48"/>
<line x1="1801.026767" y1="1823.087552" x2="2032.924367" y2="1823.087552" stroke="black" stroke-width="6.48"/>
<line x1="2000.610767" y1="1823.087552" x2="2000.610767" y2="1613.999552" stroke="black" stroke-width="6.48"/>
<line x1="1485.415969" y1="209.267824" x2="1707.693134" y2="209.267824" stroke="black" stroke-width="6.48"/>
<line x1="1707.693134" y1="209.267824" x2="1707.693134" y2="432.000475" stroke="black" stroke-width="6.48"/>
<line x1="1707.693134" y1="432.000475" x2="1485.415969" y2="432.000475" stroke="black" stroke-width="6.48"/>
<line x1="1485.415969" y1="432.000475" x2="1485.415969" y2="209.267824" stroke="black" stroke-width="6.48"/>
<line x1="1484.960483" y1="208.812337" x2="1707.693134" y2="432.000475" stroke="black" stroke-width="6.48"/>
<line x1="1485.415969" y1="431.544989" x2="1707.237648" y2="209.267824" stroke="black" stroke-width="6.48"/>
<line x1="2761.020558" y1="2194.614338" x2="2761.020558" y2="1803.366338" stroke="black" stroke-width="6.48"/>
<line x1="2761.020558" y1="1803.366338" x2="2586.780558" y2="1803.366338" stroke="black" stroke-width="6.48"/>
<line x1="2586.780558" y1="1803.366338" x2="2586.780558" y2="2194.614338" stroke="black" stroke-width="6.48"/>
<line x1="2586.780558" y1="2194.614338" x2="2761.020558" y2="2194.614338" stroke="black" stroke-width="6.48"/>
<line x1="2613.708558" y1="1878.606338" x2="2613.708558" y2="2162.934338" stroke="black" stroke-width="6.48"/>
<line x1="2613.708558" y1="2162.934338" x2="2731.716558" y2="2162.934338" stroke="black" stroke-width="6.48"/>
<line x1="2731.716558" y1="2162.934338" x2="2731.716558" y2="1873.062338" stroke="black" stroke-width="6.48"/>
<path d="m 2613.453134,1879.416911 a 63.3599990854681,63.3599990854681 0 0 1 119.3743300000001,-4.293814000000111" fill="none" stroke="black" stroke-width="6.48"/>
<line x1="2080.750889" y1="1842.804493" x2="2056.198889" y2="1861.416493" stroke="black" stroke-width="6.48"/>
<line x1="2056.198889" y1="1861.416493" x2="2056.198889" y2="2008.728493" stroke="black" stroke-width="6.48"/>
<line x1="2056.198889" y1="2008.728493" x2="2084.314889" y2="2027.736493" stroke="black" stroke-width="6.48"/>
<line x1="2083.522889" y1="1864.584493" x2="2083.522889" y2="2007.540493" stroke="black" stroke-width="6.48"/>
<circle cx="2105.302889" cy="1933.884493" r="13.068000000000003" fill="none" stroke="black" stroke-width="6.48"/>
<path d="m 2082.855542,1866.137746 a 74.84400042853738,74.84400042853738 0 1 1 0.4020480000003772,139.6090039999999" fill="none" stroke="black" stroke-width="6.48"/>
<path d="m 2080.093525,1842.850796 a 95.43599931860237,95.43599931860237 0 1 1 3.0749579999996968,184.4669960000001" fill="none" stroke="black" stroke-width="6.48"/>
<line x1="439.851449" y1="208.826456" x2="710.398649" y2="208.826456" stroke="black" stroke-width="6.48"/>
<line x1="710.398649" y1="208.826456" x2="710.398649" y2="340.773656" stroke="black" stroke-width="6.48"/>
<line x1="439.851449" y1="340.773656" x2="710.398649" y2="340.773656" stroke="black" stroke-width="6.48"/>
<line x1="439.851449" y1="208.826456" x2="439.851449" y2="340.773656" stroke="black" stroke-width="6.48"/>
<line x1="446.504249" y1="215.479256" x2="584.549849" y2="215.479256" stroke="black" stroke-width="6.48"/>
<line x1="584.549849" y1="215.479256" x2="584.549849" y2="333.566456" stroke="black" stroke-width="6.48"/>
<line x1="446.504249" y1="333.566456" x2="584.549849" y2="333.566456" stroke="black" stroke-width="6.48"/>
<line x1="446.504249" y1="215.479256" x2="446.504249" y2="333.566456" stroke="black" stroke-width="6.48"/>
<line x1="598.964249" y1="223.240856" x2="695.984249" y2="223.240856" stroke="black" stroke-width="6.48"/>
<line x1="598.964249" y1="243.753656" x2="695.984249" y2="243.753656" stroke="black" stroke-width="6.48"/>
<line x1="599.518649" y1="264.820856" x2="696.538649" y2="264.820856" stroke="black" stroke-width="6.48"/>
<line x1="599.518649" y1="285.333656" x2="696.538649" y2="285.333656" stroke="black" stroke-width="6.48"/>
<line x1="598.964249" y1="305.846456" x2="695.984249" y2="305.846456" stroke="black" stroke-width="6.48"/>
<line x1="598.964249" y1="326.359256" x2="695.984249" y2="326.359256" stroke="black" stroke-width="6.48"/>
<line x1="499.172249" y1="333.566456" x2="499.172249" y2="319.706456" stroke="black" stroke-width="6.48"/>
<line x1="499.172249" y1="319.706456" x2="533.545049" y2="319.706456" stroke="black" stroke-width="6.48"/>
<line x1="533.545049" y1="319.706456" x2="533.545049" y2="333.012056" stroke="black" stroke-width="6.48"/>
<circle cx="569.026649" cy="230.448056" r="8.316000000000003" fill="none" stroke="black" stroke-width="6.48"/>
<line x1="1449.26487" y1="1403.109626" x2="1068.101654" y2="1308.074962" stroke="black" stroke-width="6.48"/>
<line x1="1068.101654" y1="1308.074962" x2="1023.458357" y2="1487.129454" stroke="black" stroke-width="6.48"/>
<line x1="1023.458357" y1="1487.129454" x2="1404.621569" y2="1582.164119" stroke="black" stroke-width="6.48"/>
<line x1="1404.621569" y1="1582.164119" x2="1449.26487" y2="1403.109626" stroke="black" stroke-width="6.48"/>
<line x1="1250.158252" y1="1543.652089" x2="1230.614831" y2="1622.036459" stroke="black" stroke-width="6.48"/>
<line x1="1230.614831" y1="1622.036459" x2="1306.693782" y2="1641.005068" stroke="black" stroke-width="6.48"/>
<line x1="1306.693782" y1="1641.005068" x2="1326.237196" y2="1562.620698" stroke="black" stroke-width="6.48"/>
<line x1="1310.140555" y1="1623.907033" x2="1234.830082" y2="1605.130024" stroke="black" stroke-width="6.48"/>
<line x1="1390.61552" y1="1304.413362" x2="1314.536569" y2="1285.44475" stroke="black" stroke-width="6.48"/>
<line x1="1314.536569" y1="1285.44475" x2="1294.801549" y2="1364.597593" stroke="black" stroke-width="6.48"/>
<line x1="1370.8805" y1="1383.566206" x2="1390.61552" y2="1304.413362" stroke="black" stroke-width="6.48"/>
<line x1="1385.631796" y1="1321.128191" x2="1310.321322" y2="1302.351181" stroke="black" stroke-width="6.48"/>
<line x1="1103.379674" y1="1507.056077" x2="1083.836261" y2="1585.440446" stroke="black" stroke-width="6.48"/>
<line x1="1083.836261" y1="1585.440446" x2="1159.915205" y2="1604.409062" stroke="black" stroke-width="6.48"/>
<line x1="1159.915205" y1="1604.409062" x2="1179.458626" y2="1526.024689" stroke="black" stroke-width="6.48"/>
<line x1="1164.130452" y1="1587.502624" x2="1088.051504" y2="1568.534015" stroke="black" stroke-width="6.48"/>
<line x1="1243.836943" y1="1267.817353" x2="1167.757996" y2="1248.848741" stroke="black" stroke-width="6.48"/>
<line x1="1167.757996" y1="1248.848741" x2="1148.022976" y2="1328.001584" stroke="black" stroke-width="6.48"/>
<line x1="1224.101923" y1="1346.970197" x2="1243.836943" y2="1267.817353" stroke="black" stroke-width="6.48"/>
<line x1="1239.621696" y1="1284.723785" x2="1163.542748" y2="1265.755176" stroke="black" stroke-width="6.48"/>
<line x1="2044.889399" y1="955.822399" x2="2267.166564" y2="955.822399" stroke="black" stroke-width="6.48"/>
<line x1="2267.166564" y1="955.822399" x2="2267.166564" y2="1178.555051" stroke="black" stroke-width="6.48"/>
<line x1="2267.166564" y1="1178.555051" x2="2044.889399" y2="1178.555051" stroke="black" stroke-width="6.48"/>
<line x1="2044.889399" y1="1178.555051" x2="2044.889399" y2="955.822399" stroke="black" stroke-width="6.48"/>
<line x1="2044.433912" y1="955.366913" x2="2267.166564" y2="1178.555051" stroke="black" stroke-width="6.48"/>
<line x1="2044.889399" y1="1178.099564" x2="2266.711078" y2="955.822399" stroke="black" stroke-width="6.48"/>
<line x1="323.258818" y1="1375.374532" x2="323.258818" y2="949.841089" stroke="black" stroke-width="6.48"/>
<line x1="323.258818" y1="949.841089" x2="257.659344" y2="949.841089" stroke="black" stroke-width="6.48"/>
<line x1="257.659344" y1="949.841089" x2="257.659344" y2="1375.374532" stroke="black" stroke-width="6.48"/>
<line x1="257.659344" y1="1375.374532" x2="323.258818" y2="1375.374532" stroke="black" stroke-width="6.48"/>
<line x1="258.522494" y1="1335.669588" x2="322.395667" y2="1335.669588" stroke="black" stroke-width="6.48"/>
<line x1="258.522494" y1="990.409187" x2="324.985122" y2="990.409187" stroke="black" stroke-width="6.48"/>
<line x1="288.73278" y1="1336.532738" x2="288.73278" y2="991.272337" stroke="black" stroke-width="6.48"/>
<line x1="3874.406537" y1="1514.726719" x2="3874.406537" y2="1940.260162" stroke="black" stroke-width="6.48"/>
<line x1="3874.406537" y1="1940.260162" x2="3940.00601" y2="1940.260162" stroke="black" stroke-width="6.48"/>
<line x1="3940.00601" y1="1940.260162" x2="3940.00601" y2="1514.726719" stroke="black" stroke-width="6.48"/>
<line x1="3940.00601" y1="1514.726719" x2="3874.406537" y2="1514.726719" stroke="black" stroke-width="6.48"/>
<line x1="3939.14286" y1="1554.431663" x2="3875.269687" y2="1554.431663" stroke="black" stroke-width="6.48"/>
<line x1="3939.14286" y1="1899.692064" x2="3872.680232" y2="1899.692064" stroke="black" stroke-width="6.48"/>
<line x1="3908.932574" y1="1553.568512" x2="3908.932574" y2="1898.828914" stroke="black" stroke-width="6.48"/>
<line x1="5097.458401" y1="1561.920052" x2="5201.559036" y2="1643.252382" stroke="black" stroke-width="6.48"/>
<line x1="5201.559036" y1="1643.252382" x2="5192.782168" y2="1654.486265" stroke="black" stroke-width="6.48"/>
<line x1="5088.681533" y1="1573.153934" x2="5192.782168" y2="1654.486265" stroke="black" stroke-width="6.48"/>
<line x1="5097.458401" y1="1561.920052" x2="5088.681533" y2="1573.153934" stroke="black" stroke-width="6.48"/>
<line x1="5099.16649" y1="1581.34568" x2="5078.359523" y2="1604.889968" stroke="black" stroke-width="6.48"/>
<line x1="5182.297207" y1="1646.294515" x2="5163.900822" y2="1672.928233" stroke="black" stroke-width="6.48"/>
<line x1="4813.672936" y1="1925.148881" x2="4917.77357" y2="2006.481211" stroke="black" stroke-width="6.48"/>
<line x1="4917.77357" y1="2006.481211" x2="4925.96532" y2="1995.996254" stroke="black" stroke-width="6.48"/>
<line x1="4821.864685" y1="1914.663928" x2="4925.96532" y2="1995.996254" stroke="black" stroke-width="6.48"/>
<line x1="4813.672936" y1="1925.148881" x2="4821.864685" y2="1914.663928" stroke="black" stroke-width="6.48"/>
<line x1="4832.770964" y1="1920.772696" x2="4850.582227" y2="1894.887907" stroke="black" stroke-width="6.48"/>
<line x1="4915.901682" y1="1985.721534" x2="4938.042701" y2="1962.013446" stroke="black" stroke-width="6.48"/>
<line x1="5229.14764" y1="1873.457921" x2="5217.91376" y2="1864.681052" stroke="black" stroke-width="6.48"/>
<line x1="5217.91376" y1="1864.681052" x2="5136.58143" y2="1968.781687" stroke="black" stroke-width="6.48"/>
<line x1="5147.815309" y1="1977.558556" x2="5136.58143" y2="1968.781687" stroke="black" stroke-width="6.48"/>
<line x1="5229.14764" y1="1873.457921" x2="5147.815309" y2="1977.558556" stroke="black" stroke-width="6.48"/>
<line x1="5145.358298" y1="1957.547804" x2="5118.139462" y2="1939.900342" stroke="black" stroke-width="6.48"/>
<line x1="5209.722014" y1="1875.166006" x2="5185.4288" y2="1853.773916" stroke="black" stroke-width="6.48"/>
<line x1="4867.252862" y1="1589.508659" x2="4878.486745" y2="1598.285527" stroke="black" stroke-width="6.48"/>
<line x1="4878.486745" y1="1598.285527" x2="4797.154415" y2="1702.386162" stroke="black" stroke-width="6.48"/>
<line x1="4785.920532" y1="1693.609294" x2="4797.154415" y2="1702.386162" stroke="black" stroke-width="6.48"/>
<line x1="4867.252862" y1="1589.508659" x2="4785.920532" y2="1693.609294" stroke="black" stroke-width="6.48"/>
<line x1="4805.931283" y1="1691.152279" x2="4829.639375" y2="1713.293294" stroke="black" stroke-width="6.48"/>
<line x1="4870.294996" y1="1608.770484" x2="4896.92871" y2="1627.166873" stroke="black" stroke-width="6.48"/>
<circle cx="5007.534088" cy="1783.533607" r="191.98080000000002" fill="none" stroke="black" stroke-width="6.48"/>
<line x1="3074.933959" y1="1074.21971" x2="3284.299163" y2="1074.21971" stroke="black" stroke-width="6.48"/>
<line x1="3284.299163" y1="1074.21971" x2="3284.299163" y2="743.005307" stroke="black" stroke-width="6.48"/>
<line x1="3284.299163" y1="743.005307" x2="3074.933959" y2="743.005307" stroke="black" stroke-width="6.48"/>
<line x1="3074.933959" y1="743.005307" x2="3074.933959" y2="1074.21971" stroke="black" stroke-width="6.48"/>
<line x1="3074.260759" y1="802.246907" x2="3284.972359" y2="802.246907" stroke="black" stroke-width="6.48"/>
<line x1="3284.972359" y1="802.246907" x2="3075.607159" y2="852.06371" stroke="black" stroke-width="6.48"/>
<line x1="3075.607159" y1="852.06371" x2="3107.247563" y2="898.51451" stroke="black" stroke-width="6.48"/>
<line x1="3107.247563" y1="898.51451" x2="3284.972359" y2="801.57371" stroke="black" stroke-width="6.48"/>
<line x1="3177.150851" y1="1204.076776" x2="3399.428016" y2="1204.076776" stroke="black" stroke-width="6.48"/>
<line x1="3399.428016" y1="1204.076776" x2="3399.428016" y2="1426.809427" stroke="black" stroke-width="6.48"/>
<line x1="3399.428016" y1="1426.809427" x2="3177.150851" y2="1426.809427" stroke="black" stroke-width="6.48"/>
<line x1="3177.150851" y1="1426.809427" x2="3177.150851" y2="1204.076776" stroke="black" stroke-width="6.48"/>
<line x1="3176.695364" y1="1203.621289" x2="3399.428016" y2="1426.809427" stroke="black" stroke-width="6.48"/>
<line x1="3177.150851" y1="1426.353941" x2="3398.97253" y2="1204.076776" stroke="black" stroke-width="6.48"/>
<line x1="2804.16708" y1="1127.69402" x2="2804.16708" y2="1153.148746" stroke="black" stroke-width="6.48"/>
<line x1="2804.16708" y1="1153.148746" x2="2853.834836" y2="1153.148746" stroke="black" stroke-width="6.48"/>
<line x1="2853.834836" y1="1153.148746" x2="2853.834836" y2="1127.69402" stroke="black" stroke-width="6.48"/>
<line x1="2853.834836" y1="1127.69402" x2="2804.16708" y2="1127.69402" stroke="black" stroke-width="6.48"/>
<line x1="2853.834836" y1="1402.108373" x2="3101.55277" y2="1402.108373" stroke="black" stroke-width="6.48"/>
<line x1="2802.925386" y1="1402.729218" x2="2802.925386" y2="1428.183943" stroke="black" stroke-width="6.48"/>
<line x1="2802.925386" y1="1428.183943" x2="2852.593142" y2="1428.183943" stroke="black" stroke-width="6.48"/>
<line x1="2852.593142" y1="1428.183943" x2="2852.593142" y2="1402.729218" stroke="black" stroke-width="6.48"/>
<line x1="2852.593142" y1="1402.729218" x2="2802.925386" y2="1402.729218" stroke="black" stroke-width="6.48"/>
<path d="m 2851.972294,1153.148746 a 248.95962699999984,248.95962699999984 0 0 1 248.95962699999973,248.95962699999995" fill="none" stroke="black" stroke-width="6.48"/>
<line x1="3646.918357" y1="1670.676912" x2="3679.192267" y2="1900.317701" stroke="black" stroke-width="6.48"/>
<line x1="3679.192267" y1="1900.317701" x2="3449.080901" y2="1932.657746" stroke="black" stroke-width="6.48"/>
<line x1="3449.080901" y1="1932.657746" x2="3416.806998" y2="1703.016958" stroke="black" stroke-width="6.48"/>
<line x1="3416.806998" y1="1703.016958" x2="3646.918357" y2="1670.676912" stroke="black" stroke-width="6.48"/>
<line x1="3647.322799" y1="1670.140202" x2="3449.080901" y2="1932.657746" stroke="black" stroke-width="6.48"/>
<line x1="3417.277572" y1="1702.950822" x2="3679.126132" y2="1899.847127" stroke="black" stroke-width="6.48"/>
<line x1="3122.190896" y1="1589.315882" x2="3101.926547" y2="1612.627351" stroke="black" stroke-width="6.48"/>
<line x1="3101.926547" y1="1612.627351" x2="3260.085901" y2="1750.113184" stroke="black" stroke-width="6.48"/>
<line x1="3260.085901" y1="1750.113184" x2="3280.350251" y2="1726.801711" stroke="black" stroke-width="6.48"/>
<line x1="3280.350251" y1="1726.801711" x2="3122.190896" y2="1589.315882" stroke="black" stroke-width="6.48"/>
<line x1="2988.446177" y1="1743.171581" x2="2968.181827" y2="1766.48305" stroke="black" stroke-width="6.48"/>
<line x1="2968.181827" y1="1766.48305" x2="3126.341182" y2="1903.968882" stroke="black" stroke-width="6.48"/>
<line x1="3126.341182" y1="1903.968882" x2="3146.605531" y2="1880.65741" stroke="black" stroke-width="6.48"/>
<line x1="3146.605531" y1="1880.65741" x2="2988.446177" y2="1743.171581" stroke="black" stroke-width="6.48"/>
<line x1="3102.238307" y1="1612.268716" x2="2988.446177" y2="1743.171581" stroke="black" stroke-width="6.48"/>
<line x1="3259.992143" y1="1748.772385" x2="3262.258714" y2="1786.002872" stroke="black" stroke-width="6.48"/>
<line x1="3182.760104" y1="1877.455559" x2="3145.576496" y2="1880.392529" stroke="black" stroke-width="6.48"/>
<line x1="3263.50575" y1="1784.568323" x2="3181.513064" y2="1878.890116" stroke="black" stroke-width="6.48"/>
<line x1="3135.638516" y1="1641.932723" x2="3021.84639" y2="1772.835588" stroke="black" stroke-width="6.48"/>
<line x1="1174.514296" y1="1939.937792" x2="1194.36871" y2="1963.599379" stroke="black" stroke-width="6.48"/>
<line x1="1194.36871" y1="1963.599379" x2="1354.90347" y2="1828.894784" stroke="black" stroke-width="6.48"/>
<line x1="1354.90347" y1="1828.894784" x2="1335.049052" y2="1805.233205" stroke="black" stroke-width="6.48"/>
<line x1="1335.049052" y1="1805.233205" x2="1174.514296" y2="1939.937792" stroke="black" stroke-width="6.48"/>
<line x1="1305.553453" y1="2096.104255" x2="1325.407867" y2="2119.765842" stroke="black" stroke-width="6.48"/>
<line x1="1325.407867" y1="2119.765842" x2="1485.942624" y2="1985.061254" stroke="black" stroke-width="6.48"/>
<line x1="1485.942624" y1="1985.061254" x2="1466.08821" y2="1961.399668" stroke="black" stroke-width="6.48"/>
<line x1="1466.08821" y1="1961.399668" x2="1305.553453" y2="2096.104255" stroke="black" stroke-width="6.48"/>
<line x1="1194.06326" y1="1963.235354" x2="1305.553453" y2="2096.104255" stroke="black" stroke-width="6.48"/>
<line x1="1353.564515" y1="1828.777648" x2="1390.691203" y2="1832.363118" stroke="black" stroke-width="6.48"/>
<line x1="1468.58161" y1="1925.189338" x2="1465.665617" y2="1962.374598" stroke="black" stroke-width="6.48"/>
<line x1="1389.469392" y1="1830.907019" x2="1469.803421" y2="1926.645437" stroke="black" stroke-width="6.48"/>
<line x1="1228.587008" y1="1934.886834" x2="1340.077198" y2="2067.755738" stroke="black" stroke-width="6.48"/>
<line x1="881.977802" y1="211.062038" x2="1275.221675" y2="211.062038" stroke="black" stroke-width="6.48"/>
<line x1="1279.177081" y1="210.065756" x2="1279.177081" y2="346.134532" stroke="black" stroke-width="6.48"/>
<line x1="882.442192" y1="347.286038" x2="1279.482422" y2="347.286038" stroke="black" stroke-width="6.48"/>
<line x1="883.177081" y1="211.756788" x2="883.177081" y2="347.020844" stroke="black" stroke-width="6.48"/>
<line x1="893.473081" y1="222.150038" x2="1017.025081" y2="222.150038" stroke="black" stroke-width="6.48"/>
<line x1="1017.025081" y1="222.150038" x2="1017.025081" y2="336.198038" stroke="black" stroke-width="6.48"/>
<line x1="893.473081" y1="336.198038" x2="1017.025081" y2="336.198038" stroke="black" stroke-width="6.48"/>
<line x1="893.473081" y1="222.150038" x2="893.473081" y2="336.198038" stroke="black" stroke-width="6.48"/>
<line x1="1036.033081" y1="229.278038" x2="1123.153081" y2="229.278038" stroke="black" stroke-width="6.48"/>
<line x1="1036.033081" y1="249.078038" x2="1123.153081" y2="249.078038" stroke="black" stroke-width="6.48"/>
<line x1="1036.825081" y1="269.670038" x2="1123.153081" y2="269.670038" stroke="black" stroke-width="6.48"/>
<line x1="1036.825081" y1="289.470038" x2="1123.153081" y2="289.470038" stroke="black" stroke-width="6.48"/>
<line x1="1036.033081" y1="309.270038" x2="1123.153081" y2="309.270038" stroke="black" stroke-width="6.48"/>
<line x1="1036.033081" y1="329.070038" x2="1123.153081" y2="329.070038" stroke="black" stroke-width="6.48"/>
<line x1="940.993081" y1="335.406038" x2="940.993081" y2="321.942038" stroke="black" stroke-width="6.48"/>
<line x1="940.993081" y1="321.942038" x2="971.089081" y2="321.942038" stroke="black" stroke-width="6.48"/>
<line x1="971.089081" y1="321.942038" x2="971.089081" y2="334.614038" stroke="black" stroke-width="6.48"/>
<line x1="1143.745081" y1="222.150038" x2="1267.297081" y2="222.150038" stroke="black" stroke-width="6.48"/>
<line x1="1267.297081" y1="222.150038" x2="1267.297081" y2="336.198038" stroke="black" stroke-width="6.48"/>
<line x1="1143.745081" y1="336.198038" x2="1267.297081" y2="336.198038" stroke="black" stroke-width="6.48"/>
<line x1="1143.745081" y1="222.150038" x2="1143.745081" y2="336.198038" stroke="black" stroke-width="6.48"/>
<line x1="1191.265081" y1="336.198038" x2="1191.265081" y2="322.734038" stroke="black" stroke-width="6.48"/>
<line x1="1191.265081" y1="322.734038" x2="1221.361081" y2="322.734038" stroke="black" stroke-width="6.48"/>
<line x1="1221.361081" y1="322.734038" x2="1221.361081" y2="335.406038" stroke="black" stroke-width="6.48"/>
<circle cx="1002.769081" cy="236.406038" r="7.128000000000001" fill="none" stroke="black" stroke-width="6.48"/>
<circle cx="1253.041081" cy="237.198038" r="7.128000000000001" fill="none" stroke="black" stroke-width="6.48"/>
<line x1="2912.655524" y1="2000.28568" x2="2841.450379" y2="2176.524817" stroke="black" stroke-width="6.48"/>
<line x1="2841.450379" y1="2176.524817" x2="3271.473875" y2="2350.265368" stroke="black" stroke-width="6.48"/>
<line x1="3271.473875" y1="2350.265368" x2="3342.67902" y2="2174.02623" stroke="black" stroke-width="6.48"/>
<line x1="3342.67902" y1="2174.02623" x2="3320.64913" y2="2165.125586" stroke="black" stroke-width="6.48"/>
<line x1="3320.64913" y1="2165.125586" x2="3257.988602" y2="2320.216031" stroke="black" stroke-width="6.48"/>
<line x1="3257.988602" y1="2320.216031" x2="2872.906085" y2="2164.63279" stroke="black" stroke-width="6.48"/>
<line x1="2872.906085" y1="2164.63279" x2="2935.566612" y2="2009.542349" stroke="black" stroke-width="6.48"/>
<line x1="2935.566612" y1="2009.542349" x2="2912.655524" y2="2000.28568" stroke="black" stroke-width="6.48"/>
<line x1="2933.430458" y1="2014.829521" x2="3318.512976" y2="2170.412762" stroke="black" stroke-width="6.48"/>
<line x1="3125.887142" y1="2091.561934" x2="3065.362772" y2="2241.365202" stroke="black" stroke-width="6.48"/>
<line x1="3787.263227" y1="1160.959424" x2="3794.211515" y2="1130.863079" stroke="black" stroke-width="6.48"/>
<line x1="3794.211515" y1="1130.863079" x2="3590.019407" y2="1083.721615" stroke="black" stroke-width="6.48"/>
<line x1="3590.019407" y1="1083.721615" x2="3583.071119" y2="1113.817961" stroke="black" stroke-width="6.48"/>
<line x1="3583.071119" y1="1113.817961" x2="3787.263227" y2="1160.959424" stroke="black" stroke-width="6.48"/>
<line x1="3833.121928" y1="962.32356" x2="3840.070216" y2="932.227218" stroke="black" stroke-width="6.48"/>
<line x1="3840.070216" y1="932.227218" x2="3635.878111" y2="885.085754" stroke="black" stroke-width="6.48"/>
<line x1="3635.878111" y1="885.085754" x2="3628.92982" y2="915.182096" stroke="black" stroke-width="6.48"/>
<line x1="3628.92982" y1="915.182096" x2="3833.121928" y2="962.32356" stroke="black" stroke-width="6.48"/>
<line x1="3794.10462" y1="1131.3261" x2="3833.121928" y2="962.32356" stroke="black" stroke-width="6.48"/>
<line x1="3590.731656" y1="1084.861454" x2="3571.251739" y2="1053.052974" stroke="black" stroke-width="6.48"/>
<line x1="3598.510406" y1="934.982708" x2="3629.962757" y2="914.932872" stroke="black" stroke-width="6.48"/>
<line x1="3570.824149" y1="1054.905055" x2="3598.937993" y2="933.130624" stroke="black" stroke-width="6.48"/>
<line x1="3750.687576" y1="1120.814784" x2="3789.704884" y2="951.812244" stroke="black" stroke-width="6.48"/>
<line x1="5920.499776" y1="1849.080982" x2="5998.825516" y2="2042.944002" stroke="black" stroke-width="6.48"/>
<line x1="5998.825516" y1="2042.944002" x2="6213.837229" y2="1956.073626" stroke="black" stroke-width="6.48"/>
<line x1="6213.837229" y1="1956.073626" x2="6135.511486" y2="1762.210613" stroke="black" stroke-width="6.48"/>
<line x1="6135.511486" y1="1762.210613" x2="5920.499776" y2="1849.080982" stroke="black" stroke-width="6.48"/>
<line x1="5950.460426" y1="1836.976093" x2="6028.78617" y2="2030.839114" stroke="black" stroke-width="6.48"/>
</g>
</svg>
