<?xml version="1.0"?>
<svg xmlns:xlink="http://www.w3.org/1999/xlink" width="6775.2" height="2858.4">
<image x="0" y="0" width="6775.2" height="2858.4" xlink:href="groundfilled-01.png"/>
<g style="stroke-linecap:round">
<line x1="1285.950406" y1="795.178109" x2="1311.346069" y2="795.178109" stroke="black" stroke-width="6.48"/>
<line x1="1311.346069" y1="795.178109" x2="1311.346069" y2="745.625592" stroke="black" stroke-width="6.48"/>
<line x1="1311.346069" y1="745.625592" x2="1285.950406" y2="745.625592" stroke="black" stroke-width="6.48"/>
<line x1="1285.950406" y1="745.625592" x2="1285.950406" y2="795.178109" stroke="black" stroke-width="6.48"/>
<line x1="1559.728062" y1="745.625592" x2="1559.728062" y2="498.48241" stroke="black" stroke-width="6.48"/>
<line x1="1560.347471" y1="796.416923" x2="1585.743134" y2="796.416923" stroke="black" stroke-width="6.48"/>
<line x1="1585.743134" y1="796.416923" x2="1585.743134" y2="746.864406" stroke="black" stroke-width="6.48"/>
<line x1="1585.743134" y1="746.864406" x2="1560.347471" y2="746.864406" stroke="black" stroke-width="6.48"/>
<line x1="1560.347471" y1="746.864406" x2="1560.347471" y2="796.416923" stroke="black" stroke-width="6.48"/>
<path d="m 1311.346069,747.483811 a 248.38199299999997,248.38199299999997 0 0 1 248.38199299999997,-248.38199299999997" fill="none" stroke="black" stroke-width="6.48"/>
<line x1="320.532556" y1="771.34176" x2="320.532556" y2="366.736194" stroke="black" stroke-width="6.48"/>
<line x1="320.532556" y1="366.736194" x2="258.159283" y2="366.736194" stroke="black" stroke-width="6.48"/>
<line x1="258.159283" y1="366.736194" x2="258.159283" y2="771.34176" stroke="black" stroke-width="6.48"/>
<line x1="258.159283" y1="771.34176" x2="320.532556" y2="771.34176" stroke="black" stroke-width="6.48"/>
<line x1="258.979986" y1="733.589518" x2="319.711856" y2="733.589518" stroke="black" stroke-width="6.48"/>
<line x1="258.979986" y1="405.309139" x2="322.173958" y2="405.309139" stroke="black" stroke-width="6.48"/>
<line x1="287.704519" y1="734.410217" x2="287.704519" y2="406.129838" stroke="black" stroke-width="6.48"/>
<line x1="3901.945176" y1="1169.331426" x2="3901.945176" y2="1428.837066" stroke="black" stroke-width="6.48"/>
<line x1="3901.945176" y1="1428.837066" x2="3941.9501" y2="1428.837066" stroke="black" stroke-width="6.48"/>
<line x1="3941.9501" y1="1428.837066" x2="3941.9501" y2="1169.331426" stroke="black" stroke-width="6.48"/>
<line x1="3941.9501" y1="1169.331426" x2="3901.945176" y2="1169.331426" stroke="black" stroke-width="6.48"/>
<line x1="3941.423719" y1="1193.544936" x2="3902.471557" y2="1193.544936" stroke="black" stroke-width="6.48"/>
<line x1="3941.423719" y1="1404.097178" x2="3900.892414" y2="1404.097178" stroke="black" stroke-width="6.48"/>
<line x1="3923.000399" y1="1193.018555" x2="3923.000399" y2="1403.570797" stroke="black" stroke-width="6.48"/>
<line x1="334.430687" y1="1882.943946" x2="334.430687" y2="1457.437414" stroke="black" stroke-width="6.48"/>
<line x1="334.430687" y1="1457.437414" x2="258.323828" y2="1457.437414" stroke="black" stroke-width="6.48"/>
<line x1="258.323828" y1="1457.437414" x2="258.323828" y2="1882.943946" stroke="black" stroke-width="6.48"/>
<line x1="258.323828" y1="1882.943946" x2="334.430687" y2="1882.943946" stroke="black" stroke-width="6.48"/>
<line x1="334.430687" y1="1863.05238" x2="360.376207" y2="1863.05238" stroke="black" stroke-width="6.48"/>
<line x1="360.376207" y1="1863.05238" x2="360.376207" y2="1478.193829" stroke="black" stroke-width="6.48"/>
<line x1="334.430687" y1="1478.193829" x2="360.376207" y2="1478.193829" stroke="black" stroke-width="6.48"/>
<line x1="2747.905531" y1="904.670665" x2="2721.68303" y2="904.670665" stroke="black" stroke-width="6.48"/>
<line x1="2721.68303" y1="904.670665" x2="2721.68303" y2="955.836522" stroke="black" stroke-width="6.48"/>
<line x1="2721.68303" y1="955.836522" x2="2747.905531" y2="955.836522" stroke="black" stroke-width="6.48"/>
<line x1="2747.905531" y1="955.836522" x2="2747.905531" y2="904.670665" stroke="black" stroke-width="6.48"/>
<line x1="2465.214181" y1="955.836522" x2="2465.214181" y2="1211.026223" stroke="black" stroke-width="6.48"/>
<line x1="2464.574609" y1="903.39152" x2="2438.352108" y2="903.39152" stroke="black" stroke-width="6.48"/>
<line x1="2438.352108" y1="903.39152" x2="2438.352108" y2="954.557374" stroke="black" stroke-width="6.48"/>
<line x1="2438.352108" y1="954.557374" x2="2464.574609" y2="954.557374" stroke="black" stroke-width="6.48"/>
<line x1="2464.574609" y1="954.557374" x2="2464.574609" y2="903.39152" stroke="black" stroke-width="6.48"/>
<path d="m 2721.68303,953.917801 a 256.4688490000001,256.4688490000001 0 0 1 -256.4688490000003,256.46884899999986" fill="none" stroke="black" stroke-width="6.48"/>
<line x1="2420.532389" y1="1427.858834" x2="2395.136725" y2="1427.858834" stroke="black" stroke-width="6.48"/>
<line x1="2395.136725" y1="1427.858834" x2="2395.136725" y2="1477.411351" stroke="black" stroke-width="6.48"/>
<line x1="2395.136725" y1="1477.411351" x2="2420.532389" y2="1477.411351" stroke="black" stroke-width="6.48"/>
<line x1="2420.532389" y1="1477.411351" x2="2420.532389" y2="1427.858834" stroke="black" stroke-width="6.48"/>
<line x1="2146.754732" y1="1477.411351" x2="2146.754732" y2="1724.554534" stroke="black" stroke-width="6.48"/>
<line x1="2146.135324" y1="1426.62002" x2="2120.73966" y2="1426.62002" stroke="black" stroke-width="6.48"/>
<line x1="2120.73966" y1="1426.62002" x2="2120.73966" y2="1476.172537" stroke="black" stroke-width="6.48"/>
<line x1="2120.73966" y1="1476.172537" x2="2146.135324" y2="1476.172537" stroke="black" stroke-width="6.48"/>
<line x1="2146.135324" y1="1476.172537" x2="2146.135324" y2="1426.62002" stroke="black" stroke-width="6.48"/>
<path d="m 2395.136725,1475.553132 a 248.38199299999997,248.38199299999997 0 0 1 -248.38199299999997,248.38199299999997" fill="none" stroke="black" stroke-width="6.48"/>
<line x1="881.977079" y1="541.339351" x2="1113.874679" y2="541.339351" stroke="black" stroke-width="6.48"/>
<line x1="1113.874679" y1="541.339351" x2="1113.874679" y2="773.712151" stroke="black" stroke-width="6.48"/>
<line x1="1113.874679" y1="773.712151" x2="881.977079" y2="773.712151" stroke="black" stroke-width="6.48"/>
<line x1="881.977079" y1="773.712151" x2="881.977079" y2="541.339351" stroke="black" stroke-width="6.48"/>
<line x1="881.501879" y1="540.864151" x2="1113.874679" y2="773.712151" stroke="black" stroke-width="6.48"/>
<line x1="881.977079" y1="773.236951" x2="1113.399479" y2="541.339351" stroke="black" stroke-width="6.48"/>
<line x1="2032.924367" y1="1768.341751" x2="2032.924367" y2="1559.253751" stroke="black" stroke-width="6.48"/>
<line x1="2032.924367" y1="1559.253751" x2="1801.026767" y2="1559.253751" stroke="black" stroke-width="6.48"/>
<line x1="1801.026767" y1="1559.253751" x2="1801.026767" y2="1768.341751" stroke="black" stroke-width="6.48"/>
<line x1="1801.026767" y1="1768.341751" x2="2032.924367" y2="1768.341751" stroke="black" stroke-width="6.48"/>
<line x1="2000.610767" y1="1768.341751" x2="2000.610767" y2="1559.253751" stroke="black" stroke-width="6.48"/>
<line x1="1485.415969" y1="209.267824" x2="1707.693134" y2="209.267824" stroke="black" stroke-width="6.48"/>
<line x1="1707.693134" y1="209.267824" x2="1707.693134" y2="432.000475" stroke="black" stroke-width="6.48"/>
<line x1="1707.693134" y1="432.000475" x2="1485.415969" y2="432.000475" stroke="black" stroke-width="6.48"/>
<line x1="1485.415969" y1="432.000475" x2="1485.415969" y2="209.267824" stroke="black" stroke-width="6.48"/>
<line x1="1484.960483" y1="208.812337" x2="1707.693134" y2="432.000475" stroke="black" stroke-width="6.48"/>
<line x1="1485.415969" y1="431.544989" x2="1707.237648" y2="209.267824" stroke="black" stroke-width="6.48"/>
<line x1="2586.780558" y1="1803.366338" x2="2586.780558" y2="2194.614338" stroke="black" stroke-width="6.48"/>
<line x1="2586.780558" y1="2194.614338" x2="2761.020558" y2="2194.614338" stroke="black" stroke-width="6.48"/>
<line x1="2761.020558" y1="2194.614338" x2="2761.020558" y2="1803.366338" stroke="black" stroke-width="6.48"/>
<line x1="2761.020558" y1="1803.366338" x2="2586.780558" y2="1803.366338" stroke="black" stroke-width="6.48"/>
<line x1="2734.092558" y1="2119.374338" x2="2734.092558" y2="1835.046338" stroke="black" stroke-width="6.48"/>
<line x1="2734.092558" y1="1835.046338" x2="2616.084558" y2="1835.046338" stroke="black" stroke-width="6.48"/>
<line x1="2616.084558" y1="1835.046338" x2="2616.084558" y2="2124.918338" stroke="black" stroke-width="6.48"/>
<path d="m 2734.347982,2118.563766 a 63.35999941905905,63.35999941905905 0 0 1 -119.37432999999965,4.2938139999996565" fill="none" stroke="black" stroke-width="6.48"/>
<line x1="2080.990116" y1="1872.947401" x2="2056.438116" y2="1891.559401" stroke="black" stroke-width="6.48"/>
<line x1="2056.438116" y1="1891.559401" x2="2056.438116" y2="2038.871401" stroke="black" stroke-width="6.48"/>
<line x1="2056.438116" y1="2038.871401" x2="2084.554116" y2="2057.879401" stroke="black" stroke-width="6.48"/>
<line x1="2083.762116" y1="1894.727401" x2="2083.762116" y2="2037.683401" stroke="black" stroke-width="6.48"/>
<circle cx="2105.542116" cy="1964.027401" r="13.068000000000003" fill="none" stroke="black" stroke-width="6.48"/>
<path d="m 2083.09477,1896.280654 a 74.8440000678095,74.8440000678095 0 1 1 0.40204799999992247,139.60900400000014" fill="none" stroke="black" stroke-width="6.48"/>
<path d="m 2080.332752,1872.993704 a 95.43599931860243,95.43599931860243 0 1 1 3.0749580000001515,184.4669960000001" fill="none" stroke="black" stroke-width="6.48"/>
<line x1="732.604727" y1="209.542234" x2="1003.151927" y2="209.542234" stroke="black" stroke-width="6.48"/>
<line x1="1003.151927" y1="209.542234" x2="1003.151927" y2="341.489434" stroke="black" stroke-width="6.48"/>
<line x1="732.604727" y1="341.489434" x2="1003.151927" y2="341.489434" stroke="black" stroke-width="6.48"/>
<line x1="732.604727" y1="209.542234" x2="732.604727" y2="341.489434" stroke="black" stroke-width="6.48"/>
<line x1="739.257527" y1="216.195034" x2="877.303127" y2="216.195034" stroke="black" stroke-width="6.48"/>
<line x1="877.303127" y1="216.195034" x2="877.303127" y2="334.282234" stroke="black" stroke-width="6.48"/>
<line x1="739.257527" y1="334.282234" x2="877.303127" y2="334.282234" stroke="black" stroke-width="6.48"/>
<line x1="739.257527" y1="216.195034" x2="739.257527" y2="334.282234" stroke="black" stroke-width="6.48"/>
<line x1="891.717527" y1="223.956634" x2="988.737527" y2="223.956634" stroke="black" stroke-width="6.48"/>
<line x1="891.717527" y1="244.469434" x2="988.737527" y2="244.469434" stroke="black" stroke-width="6.48"/>
<line x1="892.271927" y1="265.536634" x2="989.291927" y2="265.536634" stroke="black" stroke-width="6.48"/>
<line x1="892.271927" y1="286.049434" x2="989.291927" y2="286.049434" stroke="black" stroke-width="6.48"/>
<line x1="891.717527" y1="306.562234" x2="988.737527" y2="306.562234" stroke="black" stroke-width="6.48"/>
<line x1="891.717527" y1="327.075034" x2="988.737527" y2="327.075034" stroke="black" stroke-width="6.48"/>
<line x1="791.925527" y1="334.282234" x2="791.925527" y2="320.422234" stroke="black" stroke-width="6.48"/>
<line x1="791.925527" y1="320.422234" x2="826.298327" y2="320.422234" stroke="black" stroke-width="6.48"/>
<line x1="826.298327" y1="320.422234" x2="826.298327" y2="333.727834" stroke="black" stroke-width="6.48"/>
<circle cx="861.779927" cy="231.163834" r="8.316000000000003" fill="none" stroke="black" stroke-width="6.48"/>
<line x1="2044.889399" y1="955.822399" x2="2267.166564" y2="955.822399" stroke="black" stroke-width="6.48"/>
<line x1="2267.166564" y1="955.822399" x2="2267.166564" y2="1178.555051" stroke="black" stroke-width="6.48"/>
<line x1="2267.166564" y1="1178.555051" x2="2044.889399" y2="1178.555051" stroke="black" stroke-width="6.48"/>
<line x1="2044.889399" y1="1178.555051" x2="2044.889399" y2="955.822399" stroke="black" stroke-width="6.48"/>
<line x1="2044.433912" y1="955.366913" x2="2267.166564" y2="1178.555051" stroke="black" stroke-width="6.48"/>
<line x1="2044.889399" y1="1178.099564" x2="2266.711078" y2="955.822399" stroke="black" stroke-width="6.48"/>
<line x1="333.766206" y1="1375.361078" x2="333.766206" y2="949.854546" stroke="black" stroke-width="6.48"/>
<line x1="333.766206" y1="949.854546" x2="257.659348" y2="949.854546" stroke="black" stroke-width="6.48"/>
<line x1="257.659348" y1="949.854546" x2="257.659348" y2="1375.361078" stroke="black" stroke-width="6.48"/>
<line x1="257.659348" y1="1375.361078" x2="333.766206" y2="1375.361078" stroke="black" stroke-width="6.48"/>
<line x1="333.766206" y1="1355.469512" x2="359.711726" y2="1355.469512" stroke="black" stroke-width="6.48"/>
<line x1="359.711726" y1="1355.469512" x2="359.711726" y2="970.610962" stroke="black" stroke-width="6.48"/>
<line x1="333.766206" y1="970.610962" x2="359.711726" y2="970.610962" stroke="black" stroke-width="6.48"/>
<line x1="3874.406537" y1="1514.726719" x2="3874.406537" y2="1940.260162" stroke="black" stroke-width="6.48"/>
<line x1="3874.406537" y1="1940.260162" x2="3940.00601" y2="1940.260162" stroke="black" stroke-width="6.48"/>
<line x1="3940.00601" y1="1940.260162" x2="3940.00601" y2="1514.726719" stroke="black" stroke-width="6.48"/>
<line x1="3940.00601" y1="1514.726719" x2="3874.406537" y2="1514.726719" stroke="black" stroke-width="6.48"/>
<line x1="3939.14286" y1="1554.431663" x2="3875.269687" y2="1554.431663" stroke="black" stroke-width="6.48"/>
<line x1="3939.14286" y1="1899.692064" x2="3872.680232" y2="1899.692064" stroke="black" stroke-width="6.48"/>
<line x1="3908.932574" y1="1553.568512" x2="3908.932574" y2="1898.828914" stroke="black" stroke-width="6.48"/>
<line x1="4968.045126" y1="1714.882669" x2="5009.107248" y2="2105.562697" stroke="black" stroke-width="6.48"/>
<line x1="5009.107248" y1="2105.562697" x2="5192.632343" y2="2086.273429" stroke="black" stroke-width="6.48"/>
<line x1="5192.632343" y1="2086.273429" x2="5151.570217" y2="1695.593405" stroke="black" stroke-width="6.48"/>
<line x1="5151.570217" y1="1695.593405" x2="4968.045126" y2="1714.882669" stroke="black" stroke-width="6.48"/>
<line x1="5168.21031" y1="1853.913337" x2="5248.551769" y2="1845.469109" stroke="black" stroke-width="6.48"/>
<line x1="5248.551769" y1="1845.469109" x2="5240.355901" y2="1767.490632" stroke="black" stroke-width="6.48"/>
<line x1="5240.355901" y1="1767.490632" x2="5160.014446" y2="1775.93486" stroke="black" stroke-width="6.48"/>
<line x1="5223.110141" y1="1770.099599" x2="5231.22322" y2="1847.29041" stroke="black" stroke-width="6.48"/>
<line x1="4895.360233" y1="1803.751142" x2="4903.556101" y2="1881.729612" stroke="black" stroke-width="6.48"/>
<line x1="4903.556101" y1="1881.729612" x2="4984.685219" y2="1873.202598" stroke="black" stroke-width="6.48"/>
<line x1="4976.489351" y1="1795.224125" x2="4895.360233" y2="1803.751142" stroke="black" stroke-width="6.48"/>
<line x1="4912.771568" y1="1802.7175" x2="4920.884651" y2="1879.908307" stroke="black" stroke-width="6.48"/>
<line x1="5184.02254" y1="2004.35665" x2="5264.363999" y2="1995.912421" stroke="black" stroke-width="6.48"/>
<line x1="5264.363999" y1="1995.912421" x2="5256.168131" y2="1917.933952" stroke="black" stroke-width="6.48"/>
<line x1="5256.168131" y1="1917.933952" x2="5175.826675" y2="1926.378176" stroke="black" stroke-width="6.48"/>
<line x1="5238.839581" y1="1919.755256" x2="5247.035449" y2="1997.73373" stroke="black" stroke-width="6.48"/>
<line x1="4911.172466" y1="1954.194455" x2="4919.368331" y2="2032.172932" stroke="black" stroke-width="6.48"/>
<line x1="4919.368331" y1="2032.172932" x2="5000.497448" y2="2023.645914" stroke="black" stroke-width="6.48"/>
<line x1="4992.301584" y1="1945.667444" x2="4911.172466" y2="1954.194455" stroke="black" stroke-width="6.48"/>
<line x1="4928.501012" y1="1952.373154" x2="4936.696877" y2="2030.351623" stroke="black" stroke-width="6.48"/>
<line x1="3478.788338" y1="1075.55256" x2="3688.153542" y2="1075.55256" stroke="black" stroke-width="6.48"/>
<line x1="3688.153542" y1="1075.55256" x2="3688.153542" y2="744.338156" stroke="black" stroke-width="6.48"/>
<line x1="3688.153542" y1="744.338156" x2="3478.788338" y2="744.338156" stroke="black" stroke-width="6.48"/>
<line x1="3478.788338" y1="744.338156" x2="3478.788338" y2="1075.55256" stroke="black" stroke-width="6.48"/>
<line x1="3478.115138" y1="803.579756" x2="3688.826738" y2="803.579756" stroke="black" stroke-width="6.48"/>
<line x1="3688.826738" y1="803.579756" x2="3479.461538" y2="853.39656" stroke="black" stroke-width="6.48"/>
<line x1="3479.461538" y1="853.39656" x2="3511.101942" y2="899.84736" stroke="black" stroke-width="6.48"/>
<line x1="3511.101942" y1="899.84736" x2="3688.826738" y2="802.90656" stroke="black" stroke-width="6.48"/>
<line x1="3370.797911" y1="1203.292778" x2="3593.075076" y2="1203.292778" stroke="black" stroke-width="6.48"/>
<line x1="3593.075076" y1="1203.292778" x2="3593.075076" y2="1426.02543" stroke="black" stroke-width="6.48"/>
<line x1="3593.075076" y1="1426.02543" x2="3370.797911" y2="1426.02543" stroke="black" stroke-width="6.48"/>
<line x1="3370.797911" y1="1426.02543" x2="3370.797911" y2="1203.292778" stroke="black" stroke-width="6.48"/>
<line x1="3370.342424" y1="1202.837292" x2="3593.075076" y2="1426.02543" stroke="black" stroke-width="6.48"/>
<line x1="3370.797911" y1="1425.569944" x2="3592.61959" y2="1203.292778" stroke="black" stroke-width="6.48"/>
<line x1="2804.16708" y1="1127.69402" x2="2804.16708" y2="1153.148746" stroke="black" stroke-width="6.48"/>
<line x1="2804.16708" y1="1153.148746" x2="2853.834836" y2="1153.148746" stroke="black" stroke-width="6.48"/>
<line x1="2853.834836" y1="1153.148746" x2="2853.834836" y2="1127.69402" stroke="black" stroke-width="6.48"/>
<line x1="2853.834836" y1="1127.69402" x2="2804.16708" y2="1127.69402" stroke="black" stroke-width="6.48"/>
<line x1="2853.834836" y1="1402.108373" x2="3101.55277" y2="1402.108373" stroke="black" stroke-width="6.48"/>
<line x1="2802.925386" y1="1402.729218" x2="2802.925386" y2="1428.183943" stroke="black" stroke-width="6.48"/>
<line x1="2802.925386" y1="1428.183943" x2="2852.593142" y2="1428.183943" stroke="black" stroke-width="6.48"/>
<line x1="2852.593142" y1="1428.183943" x2="2852.593142" y2="1402.729218" stroke="black" stroke-width="6.48"/>
<line x1="2852.593142" y1="1402.729218" x2="2802.925386" y2="1402.729218" stroke="black" stroke-width="6.48"/>
<path d="m 2851.972294,1153.148746 a 248.95962699999984,248.95962699999984 0 0 1 248.95962699999973,248.95962699999995" fill="none" stroke="black" stroke-width="6.48"/>
<line x1="3458.459293" y1="1938.688718" x2="3410.245073" y2="1711.858637" stroke="black" stroke-width="6.48"/>
<line x1="3410.245073" y1="1711.858637" x2="3637.539968" y2="1663.545614" stroke="black" stroke-width="6.48"/>
<line x1="3637.539968" y1="1663.545614" x2="3685.754192" y2="1890.375696" stroke="black" stroke-width="6.48"/>
<line x1="3685.754192" y1="1890.375696" x2="3458.459293" y2="1938.688718" stroke="black" stroke-width="6.48"/>
<line x1="3458.093278" y1="1939.252334" x2="3637.539968" y2="1663.545614" stroke="black" stroke-width="6.48"/>
<line x1="3685.289375" y1="1890.474494" x2="3410.343871" y2="1712.323451" stroke="black" stroke-width="6.48"/>
<line x1="3042.664542" y1="1589.315882" x2="3035.716254" y2="1619.412228" stroke="black" stroke-width="6.48"/>
<line x1="3035.716254" y1="1619.412228" x2="3239.908362" y2="1666.553692" stroke="black" stroke-width="6.48"/>
<line x1="3239.908362" y1="1666.553692" x2="3246.85665" y2="1636.457346" stroke="black" stroke-width="6.48"/>
<line x1="3246.85665" y1="1636.457346" x2="3042.664542" y2="1589.315882" stroke="black" stroke-width="6.48"/>
<line x1="2996.805841" y1="1787.951743" x2="2989.857553" y2="1818.048089" stroke="black" stroke-width="6.48"/>
<line x1="2989.857553" y1="1818.048089" x2="3194.049658" y2="1865.189552" stroke="black" stroke-width="6.48"/>
<line x1="3194.049658" y1="1865.189552" x2="3200.997949" y2="1835.09321" stroke="black" stroke-width="6.48"/>
<line x1="3200.997949" y1="1835.09321" x2="2996.805841" y2="1787.951743" stroke="black" stroke-width="6.48"/>
<line x1="3035.823149" y1="1618.949207" x2="2996.805841" y2="1787.951743" stroke="black" stroke-width="6.48"/>
<line x1="3239.196113" y1="1665.413852" x2="3258.67603" y2="1697.222333" stroke="black" stroke-width="6.48"/>
<line x1="3231.417362" y1="1815.292598" x2="3199.965012" y2="1835.342435" stroke="black" stroke-width="6.48"/>
<line x1="3259.10362" y1="1695.370252" x2="3230.989776" y2="1817.144683" stroke="black" stroke-width="6.48"/>
<line x1="3079.240193" y1="1629.460523" x2="3040.222885" y2="1798.463063" stroke="black" stroke-width="6.48"/>
<line x1="6285.19792" y1="1886.752213" x2="6102.481295" y2="1939.14536" stroke="black" stroke-width="6.48"/>
<line x1="6102.481295" y1="1939.14536" x2="6230.320578" y2="2384.973922" stroke="black" stroke-width="6.48"/>
<line x1="6230.320578" y1="2384.973922" x2="6413.037199" y2="2332.580774" stroke="black" stroke-width="6.48"/>
<line x1="6413.037199" y1="2332.580774" x2="6406.488058" y2="2309.741197" stroke="black" stroke-width="6.48"/>
<line x1="6406.488058" y1="2309.741197" x2="6245.697427" y2="2355.847164" stroke="black" stroke-width="6.48"/>
<line x1="6245.697427" y1="2355.847164" x2="6131.218399" y2="1956.611344" stroke="black" stroke-width="6.48"/>
<line x1="6131.218399" y1="1956.611344" x2="6292.009026" y2="1910.505373" stroke="black" stroke-width="6.48"/>
<line x1="6292.009026" y1="1910.505373" x2="6285.19792" y2="1886.752213" stroke="black" stroke-width="6.48"/>
<line x1="6286.527529" y1="1912.077169" x2="6401.006557" y2="2311.31299" stroke="black" stroke-width="6.48"/>
<line x1="6344.549647" y1="2110.976323" x2="6189.240517" y2="2155.510498" stroke="black" stroke-width="6.48"/>
<line x1="2989.016291" y1="2037.134189" x2="2917.811146" y2="2213.373326" stroke="black" stroke-width="6.48"/>
<line x1="2917.811146" y1="2213.373326" x2="3347.834641" y2="2387.113877" stroke="black" stroke-width="6.48"/>
<line x1="3347.834641" y1="2387.113877" x2="3419.039786" y2="2210.874739" stroke="black" stroke-width="6.48"/>
<line x1="3419.039786" y1="2210.874739" x2="3397.009896" y2="2201.974096" stroke="black" stroke-width="6.48"/>
<line x1="3397.009896" y1="2201.974096" x2="3334.349369" y2="2357.06454" stroke="black" stroke-width="6.48"/>
<line x1="3334.349369" y1="2357.06454" x2="2949.266851" y2="2201.481299" stroke="black" stroke-width="6.48"/>
<line x1="2949.266851" y1="2201.481299" x2="3011.927378" y2="2046.390858" stroke="black" stroke-width="6.48"/>
<line x1="3011.927378" y1="2046.390858" x2="2989.016291" y2="2037.134189" stroke="black" stroke-width="6.48"/>
<line x1="3009.791225" y1="2051.67803" x2="3394.873742" y2="2207.261272" stroke="black" stroke-width="6.48"/>
<line x1="3202.247909" y1="2128.410443" x2="3141.723539" y2="2278.213711" stroke="black" stroke-width="6.48"/>
<line x1="2324.507872" y1="2047.772938" x2="2555.135107" y2="2072.012893" stroke="black" stroke-width="6.48"/>
<line x1="2555.135107" y1="2072.012893" x2="2530.845479" y2="2303.112726" stroke="black" stroke-width="6.48"/>
<line x1="2530.845479" y1="2303.112726" x2="2300.218243" y2="2278.872767" stroke="black" stroke-width="6.48"/>
<line x1="2300.218243" y1="2278.872767" x2="2324.507872" y2="2047.772938" stroke="black" stroke-width="6.48"/>
<line x1="2324.084947" y1="2047.250668" x2="2530.845479" y2="2303.112726" stroke="black" stroke-width="6.48"/>
<line x1="2300.267916" y1="2278.40017" x2="2554.66251" y2="2071.96322" stroke="black" stroke-width="6.48"/>
<line x1="1397.231446" y1="1936.75306" x2="1410.771848" y2="1964.515014" stroke="black" stroke-width="6.48"/>
<line x1="1410.771848" y1="1964.515014" x2="1599.126026" y2="1872.648601" stroke="black" stroke-width="6.48"/>
<line x1="1599.126026" y1="1872.648601" x2="1585.585627" y2="1844.886647" stroke="black" stroke-width="6.48"/>
<line x1="1585.585627" y1="1844.886647" x2="1397.231446" y2="1936.75306" stroke="black" stroke-width="6.48"/>
<line x1="1486.598094" y1="2119.981957" x2="1500.138497" y2="2147.743908" stroke="black" stroke-width="6.48"/>
<line x1="1500.138497" y1="2147.743908" x2="1688.492675" y2="2055.877495" stroke="black" stroke-width="6.48"/>
<line x1="1688.492675" y1="2055.877495" x2="1674.952276" y2="2028.115544" stroke="black" stroke-width="6.48"/>
<line x1="1674.952276" y1="2028.115544" x2="1486.598094" y2="2119.981957" stroke="black" stroke-width="6.48"/>
<line x1="1410.563534" y1="1964.08791" x2="1486.598094" y2="2119.981957" stroke="black" stroke-width="6.48"/>
<line x1="1597.855187" y1="1872.211018" x2="1633.011646" y2="1884.671741" stroke="black" stroke-width="6.48"/>
<line x1="1686.13168" y1="1993.584024" x2="1674.306371" y2="2028.959276" stroke="black" stroke-width="6.48"/>
<line x1="1632.178393" y1="1882.963318" x2="1686.964936" y2="1995.292454" stroke="black" stroke-width="6.48"/>
<line x1="1450.919902" y1="1944.933509" x2="1526.954465" y2="2100.82756" stroke="black" stroke-width="6.48"/>
<line x1="630.928292" y1="1180.065154" x2="653.868187" y2="1049.966532" stroke="black" stroke-width="6.48"/>
<line x1="653.868187" y1="1049.966532" x2="667.907608" y2="1052.442065" stroke="black" stroke-width="6.48"/>
<line x1="644.967709" y1="1182.540679" x2="667.907608" y2="1052.442065" stroke="black" stroke-width="6.48"/>
<line x1="630.928292" y1="1180.065154" x2="644.967709" y2="1182.540679" stroke="black" stroke-width="6.48"/>
<line x1="647.2782" y1="1169.437223" x2="677.834856" y2="1176.755306" stroke="black" stroke-width="6.48"/>
<line x1="665.597113" y1="1065.545521" x2="697.749865" y2="1069.284794" stroke="black" stroke-width="6.48"/>
<line x1="1084.869515" y1="1260.10724" x2="1107.809413" y2="1130.008619" stroke="black" stroke-width="6.48"/>
<line x1="1107.809413" y1="1130.008619" x2="1094.705953" y2="1127.698124" stroke="black" stroke-width="6.48"/>
<line x1="1071.766058" y1="1257.796746" x2="1094.705953" y2="1127.698124" stroke="black" stroke-width="6.48"/>
<line x1="1084.869515" y1="1260.10724" x2="1071.766058" y2="1257.796746" stroke="black" stroke-width="6.48"/>
<line x1="1072.039594" y1="1245.29918" x2="1040.822798" y2="1241.724938" stroke="black" stroke-width="6.48"/>
<line x1="1090.358503" y1="1141.407475" x2="1059.030925" y2="1132.988393" stroke="black" stroke-width="6.48"/>
<line x1="844.175549" y1="917.532284" x2="841.70002" y2="931.571705" stroke="black" stroke-width="6.48"/>
<line x1="841.70002" y1="931.571705" x2="971.798641" y2="954.511603" stroke="black" stroke-width="6.48"/>
<line x1="974.274167" y1="940.472183" x2="971.798641" y2="954.511603" stroke="black" stroke-width="6.48"/>
<line x1="844.175549" y1="917.532284" x2="974.274167" y2="940.472183" stroke="black" stroke-width="6.48"/>
<line x1="957.759221" y1="952.036074" x2="954.955904" y2="984.353864" stroke="black" stroke-width="6.48"/>
<line x1="854.80348" y1="933.882199" x2="847.320358" y2="965.374812" stroke="black" stroke-width="6.48"/>
<line x1="763.362536" y1="1370.372512" x2="765.838069" y2="1356.333098" stroke="black" stroke-width="6.48"/>
<line x1="765.838069" y1="1356.333098" x2="895.936684" y2="1379.272993" stroke="black" stroke-width="6.48"/>
<line x1="893.461158" y1="1393.312414" x2="895.936684" y2="1379.272993" stroke="black" stroke-width="6.48"/>
<line x1="763.362536" y1="1370.372512" x2="893.461158" y2="1393.312414" stroke="black" stroke-width="6.48"/>
<line x1="881.897263" y1="1376.797464" x2="890.316346" y2="1345.469886" stroke="black" stroke-width="6.48"/>
<line x1="778.941526" y1="1358.643586" x2="782.680799" y2="1326.490834" stroke="black" stroke-width="6.48"/>
<circle cx="868.818355" cy="1155.422351" r="191.98080000000002" fill="none" stroke="black" stroke-width="6.48"/>
</g>
</svg>
