<?xml version="1.0"?>
<svg xmlns:xlink="http://www.w3.org/1999/xlink" width="6775.2" height="2858.4">
<image x="0" y="0" width="6775.2" height="2858.4" xlink:href="groundfilled-01.png"/>
<g style="stroke-linecap:round">
<line x1="1285.950406" y1="795.178109" x2="1311.346069" y2="795.178109" stroke="black" stroke-width="6.48"/>
<line x1="1311.346069" y1="795.178109" x2="1311.346069" y2="745.625592" stroke="black" stroke-width="6.48"/>
<line x1="1311.346069" y1="745.625592" x2="1285.950406" y2="745.625592" stroke="black" stroke-width="6.48"/>
<line x1="1285.950406" y1="745.625592" x2="1285.950406" y2="795.178109" stroke="black" stroke-width="6.48"/>
<line x1="1559.728062" y1="745.625592" x2="1559.728062" y2="498.48241" stroke="black" stroke-width="6.48"/>
<line x1="1560.347471" y1="796.416923" x2="1585.743134" y2="796.416923" stroke="black" stroke-width="6.48"/>
<line x1="1585.743134" y1="796.416923" x2="1585.743134" y2="746.864406" stroke="black" stroke-width="6.48"/>
<line x1="1585.743134" y1="746.864406" x2="1560.347471" y2="746.864406" stroke="black" stroke-width="6.48"/>
<line x1="1560.347471" y1="746.864406" x2="1560.347471" y2="796.416923" stroke="black" stroke-width="6.48"/>
<path d="m 1311.346069,747.483811 a 248.38199299999997,248.38199299999997 0 0 1 248.38199299999997,-248.38199299999997" fill="none" stroke="black" stroke-width="6.48"/>
<line x1="320.532556" y1="771.34176" x2="320.532556" y2="366.736194" stroke="black" stroke-width="6.48"/>
<line x1="320.532556" y1="366.736194" x2="258.159283" y2="366.736194" stroke="black" stroke-width="6.48"/>
<line x1="258.159283" y1="366.736194" x2="258.159283" y2="771.34176" stroke="black" stroke-width="6.48"/>
<line x1="258.159283" y1="771.34176" x2="320.532556" y2="771.34176" stroke="black" stroke-width="6.48"/>
<line x1="258.979986" y1="733.589518" x2="319.711856" y2="733.589518" stroke="black" stroke-width="6.48"/>
<line x1="258.979986" y1="405.309139" x2="322.173958" y2="405.309139" stroke="black" stroke-width="6.48"/>
<line x1="287.704519" y1="734.410217" x2="287.704519" y2="406.129838" stroke="black" stroke-width="6.48"/>
<line x1="3901.945176" y1="1169.331426" x2="3901.945176" y2="1428.837066" stroke="black" stroke-width="6.48"/>
<line x1="3901.945176" y1="1428.837066" x2="3941.9501" y2="1428.837066" stroke="black" stroke-width="6.48"/>
<line x1="3941.9501" y1="1428.837066" x2="3941.9501" y2="1169.331426" stroke="black" stroke-width="6.48"/>
<line x1="3941.9501" y1="1169.331426" x2="3901.945176" y2="1169.331426" stroke="black" stroke-width="6.48"/>
<line x1="3941.423719" y1="1193.544936" x2="3902.471557" y2="1193.544936" stroke="black" stroke-width="6.48"/>
<line x1="3941.423719" y1="1404.097178" x2="3900.892414" y2="1404.097178" stroke="black" stroke-width="6.48"/>
<line x1="3923.000399" y1="1193.018555" x2="3923.000399" y2="1403.570797" stroke="black" stroke-width="6.48"/>
<line x1="323.923298" y1="1882.957399" x2="323.923298" y2="1457.423957" stroke="black" stroke-width="6.48"/>
<line x1="323.923298" y1="1457.423957" x2="258.323825" y2="1457.423957" stroke="black" stroke-width="6.48"/>
<line x1="258.323825" y1="1457.423957" x2="258.323825" y2="1882.957399" stroke="black" stroke-width="6.48"/>
<line x1="258.323825" y1="1882.957399" x2="323.923298" y2="1882.957399" stroke="black" stroke-width="6.48"/>
<line x1="259.186975" y1="1843.252456" x2="323.060148" y2="1843.252456" stroke="black" stroke-width="6.48"/>
<line x1="259.186975" y1="1497.992054" x2="325.649603" y2="1497.992054" stroke="black" stroke-width="6.48"/>
<line x1="289.397261" y1="1844.115606" x2="289.397261" y2="1498.855205" stroke="black" stroke-width="6.48"/>
<line x1="2747.905531" y1="904.670665" x2="2721.68303" y2="904.670665" stroke="black" stroke-width="6.48"/>
<line x1="2721.68303" y1="904.670665" x2="2721.68303" y2="955.836522" stroke="black" stroke-width="6.48"/>
<line x1="2721.68303" y1="955.836522" x2="2747.905531" y2="955.836522" stroke="black" stroke-width="6.48"/>
<line x1="2747.905531" y1="955.836522" x2="2747.905531" y2="904.670665" stroke="black" stroke-width="6.48"/>
<line x1="2465.214181" y1="955.836522" x2="2465.214181" y2="1211.026223" stroke="black" stroke-width="6.48"/>
<line x1="2464.574609" y1="903.39152" x2="2438.352108" y2="903.39152" stroke="black" stroke-width="6.48"/>
<line x1="2438.352108" y1="903.39152" x2="2438.352108" y2="954.557374" stroke="black" stroke-width="6.48"/>
<line x1="2438.352108" y1="954.557374" x2="2464.574609" y2="954.557374" stroke="black" stroke-width="6.48"/>
<line x1="2464.574609" y1="954.557374" x2="2464.574609" y2="903.39152" stroke="black" stroke-width="6.48"/>
<path d="m 2721.68303,953.917801 a 256.4688490000001,256.4688490000001 0 0 1 -256.4688490000003,256.46884899999986" fill="none" stroke="black" stroke-width="6.48"/>
<line x1="2420.532389" y1="1427.858834" x2="2395.136725" y2="1427.858834" stroke="black" stroke-width="6.48"/>
<line x1="2395.136725" y1="1427.858834" x2="2395.136725" y2="1477.411351" stroke="black" stroke-width="6.48"/>
<line x1="2395.136725" y1="1477.411351" x2="2420.532389" y2="1477.411351" stroke="black" stroke-width="6.48"/>
<line x1="2420.532389" y1="1477.411351" x2="2420.532389" y2="1427.858834" stroke="black" stroke-width="6.48"/>
<line x1="2146.754732" y1="1477.411351" x2="2146.754732" y2="1724.554534" stroke="black" stroke-width="6.48"/>
<line x1="2146.135324" y1="1426.62002" x2="2120.73966" y2="1426.62002" stroke="black" stroke-width="6.48"/>
<line x1="2120.73966" y1="1426.62002" x2="2120.73966" y2="1476.172537" stroke="black" stroke-width="6.48"/>
<line x1="2120.73966" y1="1476.172537" x2="2146.135324" y2="1476.172537" stroke="black" stroke-width="6.48"/>
<line x1="2146.135324" y1="1476.172537" x2="2146.135324" y2="1426.62002" stroke="black" stroke-width="6.48"/>
<path d="m 2395.136725,1475.553132 a 248.38199299999997,248.38199299999997 0 0 1 -248.38199299999997,248.38199299999997" fill="none" stroke="black" stroke-width="6.48"/>
<line x1="547.071862" y1="692.136151" x2="939.903862" y2="692.136151" stroke="black" stroke-width="6.48"/>
<line x1="939.903862" y1="692.136151" x2="939.903862" y2="507.600151" stroke="black" stroke-width="6.48"/>
<line x1="939.903862" y1="507.600151" x2="547.071862" y2="507.600151" stroke="black" stroke-width="6.48"/>
<line x1="547.071862" y1="507.600151" x2="547.071862" y2="692.136151" stroke="black" stroke-width="6.48"/>
<line x1="706.263862" y1="507.600151" x2="706.263862" y2="426.816151" stroke="black" stroke-width="6.48"/>
<line x1="706.263862" y1="426.816151" x2="627.855862" y2="426.816151" stroke="black" stroke-width="6.48"/>
<line x1="627.855862" y1="426.816151" x2="627.855862" y2="507.600151" stroke="black" stroke-width="6.48"/>
<line x1="628.647862" y1="444.240151" x2="706.263862" y2="444.240151" stroke="black" stroke-width="6.48"/>
<line x1="627.855862" y1="773.712151" x2="706.263862" y2="773.712151" stroke="black" stroke-width="6.48"/>
<line x1="706.263862" y1="773.712151" x2="706.263862" y2="692.136151" stroke="black" stroke-width="6.48"/>
<line x1="627.855862" y1="692.136151" x2="627.855862" y2="773.712151" stroke="black" stroke-width="6.48"/>
<line x1="628.647862" y1="756.288151" x2="706.263862" y2="756.288151" stroke="black" stroke-width="6.48"/>
<line x1="857.535862" y1="507.600151" x2="857.535862" y2="426.816151" stroke="black" stroke-width="6.48"/>
<line x1="857.535862" y1="426.816151" x2="779.127862" y2="426.816151" stroke="black" stroke-width="6.48"/>
<line x1="779.127862" y1="426.816151" x2="779.127862" y2="507.600151" stroke="black" stroke-width="6.48"/>
<line x1="779.127862" y1="444.240151" x2="857.535862" y2="444.240151" stroke="black" stroke-width="6.48"/>
<line x1="779.127862" y1="773.712151" x2="857.535862" y2="773.712151" stroke="black" stroke-width="6.48"/>
<line x1="857.535862" y1="773.712151" x2="857.535862" y2="692.136151" stroke="black" stroke-width="6.48"/>
<line x1="779.127862" y1="692.136151" x2="779.127862" y2="773.712151" stroke="black" stroke-width="6.48"/>
<line x1="779.127862" y1="756.288151" x2="857.535862" y2="756.288151" stroke="black" stroke-width="6.48"/>
<line x1="2032.924367" y1="1746.486259" x2="2032.924367" y2="1537.398259" stroke="black" stroke-width="6.48"/>
<line x1="2032.924367" y1="1537.398259" x2="1801.026767" y2="1537.398259" stroke="black" stroke-width="6.48"/>
<line x1="1801.026767" y1="1537.398259" x2="1801.026767" y2="1746.486259" stroke="black" stroke-width="6.48"/>
<line x1="1801.026767" y1="1746.486259" x2="2032.924367" y2="1746.486259" stroke="black" stroke-width="6.48"/>
<line x1="2000.610767" y1="1746.486259" x2="2000.610767" y2="1537.398259" stroke="black" stroke-width="6.48"/>
<line x1="1485.415969" y1="209.267824" x2="1707.693134" y2="209.267824" stroke="black" stroke-width="6.48"/>
<line x1="1707.693134" y1="209.267824" x2="1707.693134" y2="432.000475" stroke="black" stroke-width="6.48"/>
<line x1="1707.693134" y1="432.000475" x2="1485.415969" y2="432.000475" stroke="black" stroke-width="6.48"/>
<line x1="1485.415969" y1="432.000475" x2="1485.415969" y2="209.267824" stroke="black" stroke-width="6.48"/>
<line x1="1484.960483" y1="208.812337" x2="1707.693134" y2="432.000475" stroke="black" stroke-width="6.48"/>
<line x1="1485.415969" y1="431.544989" x2="1707.237648" y2="209.267824" stroke="black" stroke-width="6.48"/>
<line x1="2761.020558" y1="2194.614338" x2="2761.020558" y2="1803.366338" stroke="black" stroke-width="6.48"/>
<line x1="2761.020558" y1="1803.366338" x2="2586.780558" y2="1803.366338" stroke="black" stroke-width="6.48"/>
<line x1="2586.780558" y1="1803.366338" x2="2586.780558" y2="2194.614338" stroke="black" stroke-width="6.48"/>
<line x1="2586.780558" y1="2194.614338" x2="2761.020558" y2="2194.614338" stroke="black" stroke-width="6.48"/>
<line x1="2613.708558" y1="1878.606338" x2="2613.708558" y2="2162.934338" stroke="black" stroke-width="6.48"/>
<line x1="2613.708558" y1="2162.934338" x2="2731.716558" y2="2162.934338" stroke="black" stroke-width="6.48"/>
<line x1="2731.716558" y1="2162.934338" x2="2731.716558" y2="1873.062338" stroke="black" stroke-width="6.48"/>
<path d="m 2613.453134,1879.416911 a 63.3599990854681,63.3599990854681 0 0 1 119.3743300000001,-4.293814000000111" fill="none" stroke="black" stroke-width="6.48"/>
<line x1="2105.843069" y1="1910.867076" x2="2105.843069" y2="2094.611076" stroke="black" stroke-width="6.48"/>
<line x1="2105.843069" y1="2094.611076" x2="2056.739069" y2="2094.611076" stroke="black" stroke-width="6.48"/>
<line x1="2056.739069" y1="1910.867076" x2="2056.739069" y2="2094.611076" stroke="black" stroke-width="6.48"/>
<line x1="2105.843069" y1="1910.867076" x2="2056.739069" y2="1910.867076" stroke="black" stroke-width="6.48"/>
<line x1="2133.563069" y1="1952.447076" x2="2105.843069" y2="1952.447076" stroke="black" stroke-width="6.48"/>
<line x1="2105.843069" y1="2051.447076" x2="2135.147069" y2="2051.447076" stroke="black" stroke-width="6.48"/>
<circle cx="2178.707069" cy="2001.155076" r="66.52800000000002" fill="none" stroke="black" stroke-width="6.48"/>
<circle cx="2178.707069" cy="2001.155076" r="57.02400000000001" fill="none" stroke="black" stroke-width="6.48"/>
<line x1="996.128071" y1="210.186547" x2="1266.675271" y2="210.186547" stroke="black" stroke-width="6.48"/>
<line x1="1266.675271" y1="210.186547" x2="1266.675271" y2="342.133747" stroke="black" stroke-width="6.48"/>
<line x1="996.128071" y1="342.133747" x2="1266.675271" y2="342.133747" stroke="black" stroke-width="6.48"/>
<line x1="996.128071" y1="210.186547" x2="996.128071" y2="342.133747" stroke="black" stroke-width="6.48"/>
<line x1="1002.780871" y1="216.839347" x2="1140.826471" y2="216.839347" stroke="black" stroke-width="6.48"/>
<line x1="1140.826471" y1="216.839347" x2="1140.826471" y2="334.926547" stroke="black" stroke-width="6.48"/>
<line x1="1002.780871" y1="334.926547" x2="1140.826471" y2="334.926547" stroke="black" stroke-width="6.48"/>
<line x1="1002.780871" y1="216.839347" x2="1002.780871" y2="334.926547" stroke="black" stroke-width="6.48"/>
<line x1="1155.240871" y1="224.600947" x2="1252.260871" y2="224.600947" stroke="black" stroke-width="6.48"/>
<line x1="1155.240871" y1="245.113747" x2="1252.260871" y2="245.113747" stroke="black" stroke-width="6.48"/>
<line x1="1155.795271" y1="266.180947" x2="1252.815271" y2="266.180947" stroke="black" stroke-width="6.48"/>
<line x1="1155.795271" y1="286.693747" x2="1252.815271" y2="286.693747" stroke="black" stroke-width="6.48"/>
<line x1="1155.240871" y1="307.206547" x2="1252.260871" y2="307.206547" stroke="black" stroke-width="6.48"/>
<line x1="1155.240871" y1="327.719347" x2="1252.260871" y2="327.719347" stroke="black" stroke-width="6.48"/>
<line x1="1055.448871" y1="334.926547" x2="1055.448871" y2="321.066547" stroke="black" stroke-width="6.48"/>
<line x1="1055.448871" y1="321.066547" x2="1089.821671" y2="321.066547" stroke="black" stroke-width="6.48"/>
<line x1="1089.821671" y1="321.066547" x2="1089.821671" y2="334.372147" stroke="black" stroke-width="6.48"/>
<circle cx="1125.303271" cy="231.808147" r="8.316000000000003" fill="none" stroke="black" stroke-width="6.48"/>
<line x1="967.289238" y1="1119.108712" x2="1095.470734" y2="1087.14947" stroke="black" stroke-width="6.48"/>
<line x1="1095.470734" y1="1087.14947" x2="1098.919573" y2="1100.98201" stroke="black" stroke-width="6.48"/>
<line x1="970.738078" y1="1132.941244" x2="1098.919573" y2="1100.98201" stroke="black" stroke-width="6.48"/>
<line x1="967.289238" y1="1119.108712" x2="970.738078" y2="1132.941244" stroke="black" stroke-width="6.48"/>
<line x1="983.648444" y1="1129.722332" x2="989.39155" y2="1160.613752" stroke="black" stroke-width="6.48"/>
<line x1="1086.00921" y1="1104.200924" x2="1095.670915" y2="1135.094828" stroke="black" stroke-width="6.48"/>
<line x1="1078.801686" y1="1566.360702" x2="1206.983182" y2="1534.401468" stroke="black" stroke-width="6.48"/>
<line x1="1206.983182" y1="1534.401468" x2="1203.76427" y2="1521.491098" stroke="black" stroke-width="6.48"/>
<line x1="1075.582768" y1="1553.450339" x2="1203.76427" y2="1521.491098" stroke="black" stroke-width="6.48"/>
<line x1="1078.801686" y1="1566.360702" x2="1075.582768" y2="1553.450339" stroke="black" stroke-width="6.48"/>
<line x1="1087.11112" y1="1548.617004" x2="1077.679339" y2="1518.645272" stroke="black" stroke-width="6.48"/>
<line x1="1189.471885" y1="1523.0956" x2="1184.421028" y2="1491.052082" stroke="black" stroke-width="6.48"/>
<line x1="1293.860419" y1="1207.138039" x2="1280.027887" y2="1210.586875" stroke="black" stroke-width="6.48"/>
<line x1="1280.027887" y1="1210.586875" x2="1311.987121" y2="1338.768374" stroke="black" stroke-width="6.48"/>
<line x1="1325.819657" y1="1335.319535" x2="1311.987121" y2="1338.768374" stroke="black" stroke-width="6.48"/>
<line x1="1293.860419" y1="1207.138039" x2="1325.819657" y2="1335.319535" stroke="black" stroke-width="6.48"/>
<line x1="1308.538282" y1="1324.935842" x2="1277.874302" y2="1335.519713" stroke="black" stroke-width="6.48"/>
<line x1="1283.246798" y1="1223.497242" x2="1251.433206" y2="1229.470272" stroke="black" stroke-width="6.48"/>
<line x1="847.300673" y1="1317.49839" x2="861.133208" y2="1314.049554" stroke="black" stroke-width="6.48"/>
<line x1="861.133208" y1="1314.049554" x2="893.092446" y2="1442.231053" stroke="black" stroke-width="6.48"/>
<line x1="879.25991" y1="1445.679893" x2="893.092446" y2="1442.231053" stroke="black" stroke-width="6.48"/>
<line x1="847.300673" y1="1317.49839" x2="879.25991" y2="1445.679893" stroke="black" stroke-width="6.48"/>
<line x1="889.64361" y1="1428.398514" x2="921.68712" y2="1423.34766" stroke="black" stroke-width="6.48"/>
<line x1="864.352127" y1="1326.959921" x2="895.246027" y2="1317.298216" stroke="black" stroke-width="6.48"/>
<circle cx="1086.560165" cy="1326.408966" r="191.98080000000002" fill="none" stroke="black" stroke-width="6.48"/>
<line x1="2044.889399" y1="955.822399" x2="2267.166564" y2="955.822399" stroke="black" stroke-width="6.48"/>
<line x1="2267.166564" y1="955.822399" x2="2267.166564" y2="1178.555051" stroke="black" stroke-width="6.48"/>
<line x1="2267.166564" y1="1178.555051" x2="2044.889399" y2="1178.555051" stroke="black" stroke-width="6.48"/>
<line x1="2044.889399" y1="1178.555051" x2="2044.889399" y2="955.822399" stroke="black" stroke-width="6.48"/>
<line x1="2044.433912" y1="955.366913" x2="2267.166564" y2="1178.555051" stroke="black" stroke-width="6.48"/>
<line x1="2044.889399" y1="1178.099564" x2="2266.711078" y2="955.822399" stroke="black" stroke-width="6.48"/>
<line x1="323.258818" y1="1375.374532" x2="323.258818" y2="949.841089" stroke="black" stroke-width="6.48"/>
<line x1="323.258818" y1="949.841089" x2="257.659344" y2="949.841089" stroke="black" stroke-width="6.48"/>
<line x1="257.659344" y1="949.841089" x2="257.659344" y2="1375.374532" stroke="black" stroke-width="6.48"/>
<line x1="257.659344" y1="1375.374532" x2="323.258818" y2="1375.374532" stroke="black" stroke-width="6.48"/>
<line x1="258.522494" y1="1335.669588" x2="322.395667" y2="1335.669588" stroke="black" stroke-width="6.48"/>
<line x1="258.522494" y1="990.409187" x2="324.985122" y2="990.409187" stroke="black" stroke-width="6.48"/>
<line x1="288.73278" y1="1336.532738" x2="288.73278" y2="991.272337" stroke="black" stroke-width="6.48"/>
<line x1="3874.406537" y1="1514.726719" x2="3874.406537" y2="1940.260162" stroke="black" stroke-width="6.48"/>
<line x1="3874.406537" y1="1940.260162" x2="3940.00601" y2="1940.260162" stroke="black" stroke-width="6.48"/>
<line x1="3940.00601" y1="1940.260162" x2="3940.00601" y2="1514.726719" stroke="black" stroke-width="6.48"/>
<line x1="3940.00601" y1="1514.726719" x2="3874.406537" y2="1514.726719" stroke="black" stroke-width="6.48"/>
<line x1="3939.14286" y1="1554.431663" x2="3875.269687" y2="1554.431663" stroke="black" stroke-width="6.48"/>
<line x1="3939.14286" y1="1899.692064" x2="3872.680232" y2="1899.692064" stroke="black" stroke-width="6.48"/>
<line x1="3908.932574" y1="1553.568512" x2="3908.932574" y2="1898.828914" stroke="black" stroke-width="6.48"/>
<line x1="4955.73871" y1="1374.584087" x2="5070.145511" y2="1440.636883" stroke="black" stroke-width="6.48"/>
<line x1="5070.145511" y1="1440.636883" x2="5063.017511" y2="1452.982946" stroke="black" stroke-width="6.48"/>
<line x1="4948.61071" y1="1386.930146" x2="5063.017511" y2="1452.982946" stroke="black" stroke-width="6.48"/>
<line x1="4955.73871" y1="1374.584087" x2="4948.61071" y2="1386.930146" stroke="black" stroke-width="6.48"/>
<line x1="4960.133694" y1="1393.582946" x2="4942.805954" y2="1419.793873" stroke="black" stroke-width="6.48"/>
<line x1="5051.494526" y1="1446.330146" x2="5036.983866" y2="1475.264941" stroke="black" stroke-width="6.48"/>
<line x1="4725.26671" y1="1773.773298" x2="4839.673511" y2="1839.826098" stroke="black" stroke-width="6.48"/>
<line x1="4839.673511" y1="1839.826098" x2="4846.326311" y2="1828.303114" stroke="black" stroke-width="6.48"/>
<line x1="4731.91951" y1="1762.250314" x2="4846.326311" y2="1828.303114" stroke="black" stroke-width="6.48"/>
<line x1="4725.26671" y1="1773.773298" x2="4731.91951" y2="1762.250314" stroke="black" stroke-width="6.48"/>
<line x1="4743.569826" y1="1766.78177" x2="4757.605283" y2="1738.670044" stroke="black" stroke-width="6.48"/>
<line x1="4834.930655" y1="1819.52897" x2="4853.556666" y2="1792.970172" stroke="black" stroke-width="6.48"/>
<line x1="5129.504046" y1="1664.76249" x2="5117.15799" y2="1657.63449" stroke="black" stroke-width="6.48"/>
<line x1="5117.15799" y1="1657.63449" x2="5051.10519" y2="1772.041298" stroke="black" stroke-width="6.48"/>
<line x1="5063.451246" y1="1779.169298" x2="5051.10519" y2="1772.041298" stroke="black" stroke-width="6.48"/>
<line x1="5129.504046" y1="1664.76249" x2="5063.451246" y2="1779.169298" stroke="black" stroke-width="6.48"/>
<line x1="5058.23319" y1="1759.695239" x2="5028.823188" y2="1746.007646" stroke="black" stroke-width="6.48"/>
<line x1="5110.50519" y1="1669.157474" x2="5083.471188" y2="1651.354535" stroke="black" stroke-width="6.48"/>
<line x1="4731.613103" y1="1433.942618" x2="4743.959162" y2="1441.070618" stroke="black" stroke-width="6.48"/>
<line x1="4743.959162" y1="1441.070618" x2="4677.906362" y2="1555.477423" stroke="black" stroke-width="6.48"/>
<line x1="4665.560303" y1="1548.349423" x2="4677.906362" y2="1555.477423" stroke="black" stroke-width="6.48"/>
<line x1="4731.613103" y1="1433.942618" x2="4665.560303" y2="1548.349423" stroke="black" stroke-width="6.48"/>
<line x1="4685.034362" y1="1543.131367" x2="4711.593161" y2="1561.757378" stroke="black" stroke-width="6.48"/>
<line x1="4737.306362" y1="1452.593606" x2="4766.241161" y2="1467.104267" stroke="black" stroke-width="6.48"/>
<circle cx="4897.532178" cy="1606.555958" r="191.98080000000002" fill="none" stroke="black" stroke-width="6.48"/>
<line x1="3061.655903" y1="1074.175888" x2="3271.021106" y2="1074.175888" stroke="black" stroke-width="6.48"/>
<line x1="3271.021106" y1="1074.175888" x2="3271.021106" y2="742.961484" stroke="black" stroke-width="6.48"/>
<line x1="3271.021106" y1="742.961484" x2="3061.655903" y2="742.961484" stroke="black" stroke-width="6.48"/>
<line x1="3061.655903" y1="742.961484" x2="3061.655903" y2="1074.175888" stroke="black" stroke-width="6.48"/>
<line x1="3060.982703" y1="802.203084" x2="3271.694303" y2="802.203084" stroke="black" stroke-width="6.48"/>
<line x1="3271.694303" y1="802.203084" x2="3062.329103" y2="852.019888" stroke="black" stroke-width="6.48"/>
<line x1="3062.329103" y1="852.019888" x2="3093.969506" y2="898.470688" stroke="black" stroke-width="6.48"/>
<line x1="3093.969506" y1="898.470688" x2="3271.694303" y2="801.529888" stroke="black" stroke-width="6.48"/>
<line x1="3376.708121" y1="1203.268853" x2="3598.985286" y2="1203.268853" stroke="black" stroke-width="6.48"/>
<line x1="3598.985286" y1="1203.268853" x2="3598.985286" y2="1426.001504" stroke="black" stroke-width="6.48"/>
<line x1="3598.985286" y1="1426.001504" x2="3376.708121" y2="1426.001504" stroke="black" stroke-width="6.48"/>
<line x1="3376.708121" y1="1426.001504" x2="3376.708121" y2="1203.268853" stroke="black" stroke-width="6.48"/>
<line x1="3376.252634" y1="1202.813366" x2="3598.985286" y2="1426.001504" stroke="black" stroke-width="6.48"/>
<line x1="3376.708121" y1="1425.546018" x2="3598.5298" y2="1203.268853" stroke="black" stroke-width="6.48"/>
<line x1="2804.16708" y1="1127.69402" x2="2804.16708" y2="1153.148746" stroke="black" stroke-width="6.48"/>
<line x1="2804.16708" y1="1153.148746" x2="2853.834836" y2="1153.148746" stroke="black" stroke-width="6.48"/>
<line x1="2853.834836" y1="1153.148746" x2="2853.834836" y2="1127.69402" stroke="black" stroke-width="6.48"/>
<line x1="2853.834836" y1="1127.69402" x2="2804.16708" y2="1127.69402" stroke="black" stroke-width="6.48"/>
<line x1="2853.834836" y1="1402.108373" x2="3101.55277" y2="1402.108373" stroke="black" stroke-width="6.48"/>
<line x1="2802.925386" y1="1402.729218" x2="2802.925386" y2="1428.183943" stroke="black" stroke-width="6.48"/>
<line x1="2802.925386" y1="1428.183943" x2="2852.593142" y2="1428.183943" stroke="black" stroke-width="6.48"/>
<line x1="2852.593142" y1="1428.183943" x2="2852.593142" y2="1402.729218" stroke="black" stroke-width="6.48"/>
<line x1="2852.593142" y1="1402.729218" x2="2802.925386" y2="1402.729218" stroke="black" stroke-width="6.48"/>
<path d="m 2851.972294,1153.148746 a 248.95962699999984,248.95962699999984 0 0 1 248.95962699999973,248.95962699999995" fill="none" stroke="black" stroke-width="6.48"/>
<line x1="2912.276552" y1="2000.1028" x2="2841.071407" y2="2176.341937" stroke="black" stroke-width="6.48"/>
<line x1="2841.071407" y1="2176.341937" x2="3271.094903" y2="2350.082488" stroke="black" stroke-width="6.48"/>
<line x1="3271.094903" y1="2350.082488" x2="3342.300048" y2="2173.84335" stroke="black" stroke-width="6.48"/>
<line x1="3342.300048" y1="2173.84335" x2="3320.270158" y2="2164.942706" stroke="black" stroke-width="6.48"/>
<line x1="3320.270158" y1="2164.942706" x2="3257.60963" y2="2320.033151" stroke="black" stroke-width="6.48"/>
<line x1="3257.60963" y1="2320.033151" x2="2872.527113" y2="2164.44991" stroke="black" stroke-width="6.48"/>
<line x1="2872.527113" y1="2164.44991" x2="2935.18764" y2="2009.359469" stroke="black" stroke-width="6.48"/>
<line x1="2935.18764" y1="2009.359469" x2="2912.276552" y2="2000.1028" stroke="black" stroke-width="6.48"/>
<line x1="2933.051486" y1="2014.646641" x2="3318.134004" y2="2170.229882" stroke="black" stroke-width="6.48"/>
<line x1="3125.50817" y1="2091.379054" x2="3064.9838" y2="2241.182322" stroke="black" stroke-width="6.48"/>
<line x1="3539.576758" y1="1637.806316" x2="3711.910259" y2="1792.976098" stroke="black" stroke-width="6.48"/>
<line x1="3711.910259" y1="1792.976098" x2="3556.422508" y2="1965.662744" stroke="black" stroke-width="6.48"/>
<line x1="3556.422508" y1="1965.662744" x2="3384.089006" y2="1810.492963" stroke="black" stroke-width="6.48"/>
<line x1="3384.089006" y1="1810.492963" x2="3539.576758" y2="1637.806316" stroke="black" stroke-width="6.48"/>
<line x1="3539.541586" y1="1637.135204" x2="3556.422508" y2="1965.662744" stroke="black" stroke-width="6.48"/>
<line x1="3384.406973" y1="1810.139818" x2="3711.557113" y2="1792.658131" stroke="black" stroke-width="6.48"/>
<line x1="3122.190896" y1="1589.315882" x2="3101.926547" y2="1612.627351" stroke="black" stroke-width="6.48"/>
<line x1="3101.926547" y1="1612.627351" x2="3260.085901" y2="1750.113184" stroke="black" stroke-width="6.48"/>
<line x1="3260.085901" y1="1750.113184" x2="3280.350251" y2="1726.801711" stroke="black" stroke-width="6.48"/>
<line x1="3280.350251" y1="1726.801711" x2="3122.190896" y2="1589.315882" stroke="black" stroke-width="6.48"/>
<line x1="2988.446177" y1="1743.171581" x2="2968.181827" y2="1766.48305" stroke="black" stroke-width="6.48"/>
<line x1="2968.181827" y1="1766.48305" x2="3126.341182" y2="1903.968882" stroke="black" stroke-width="6.48"/>
<line x1="3126.341182" y1="1903.968882" x2="3146.605531" y2="1880.65741" stroke="black" stroke-width="6.48"/>
<line x1="3146.605531" y1="1880.65741" x2="2988.446177" y2="1743.171581" stroke="black" stroke-width="6.48"/>
<line x1="3102.238307" y1="1612.268716" x2="2988.446177" y2="1743.171581" stroke="black" stroke-width="6.48"/>
<line x1="3259.992143" y1="1748.772385" x2="3262.258714" y2="1786.002872" stroke="black" stroke-width="6.48"/>
<line x1="3182.760104" y1="1877.455559" x2="3145.576496" y2="1880.392529" stroke="black" stroke-width="6.48"/>
<line x1="3263.50575" y1="1784.568323" x2="3181.513064" y2="1878.890116" stroke="black" stroke-width="6.48"/>
<line x1="3135.638516" y1="1641.932723" x2="3021.84639" y2="1772.835588" stroke="black" stroke-width="6.48"/>
<line x1="926.979113" y1="1880.494081" x2="943.347251" y2="1906.688599" stroke="black" stroke-width="6.48"/>
<line x1="943.347251" y1="1906.688599" x2="1121.06695" y2="1795.637066" stroke="black" stroke-width="6.48"/>
<line x1="1121.06695" y1="1795.637066" x2="1104.698812" y2="1769.442552" stroke="black" stroke-width="6.48"/>
<line x1="1104.698812" y1="1769.442552" x2="926.979113" y2="1880.494081" stroke="black" stroke-width="6.48"/>
<line x1="1035.008831" y1="2053.377875" x2="1051.376972" y2="2079.572389" stroke="black" stroke-width="6.48"/>
<line x1="1051.376972" y1="2079.572389" x2="1229.096675" y2="1968.520856" stroke="black" stroke-width="6.48"/>
<line x1="1229.096675" y1="1968.520856" x2="1212.728533" y2="1942.326342" stroke="black" stroke-width="6.48"/>
<line x1="1212.728533" y1="1942.326342" x2="1035.008831" y2="2053.377875" stroke="black" stroke-width="6.48"/>
<line x1="943.095434" y1="1906.285604" x2="1035.008831" y2="2053.377875" stroke="black" stroke-width="6.48"/>
<line x1="1119.757331" y1="1795.334717" x2="1156.023702" y2="1804.052333" stroke="black" stroke-width="6.48"/>
<line x1="1220.237172" y1="1906.815424" x2="1212.174367" y2="1943.23297" stroke="black" stroke-width="6.48"/>
<line x1="1155.016426" y1="1802.440364" x2="1221.244445" y2="1908.427396" stroke="black" stroke-width="6.48"/>
<line x1="981.228546" y1="1883.017753" x2="1073.141946" y2="2030.11002" stroke="black" stroke-width="6.48"/>
<line x1="5821.064269" y1="1561.518756" x2="5756.45252" y2="1760.373259" stroke="black" stroke-width="6.48"/>
<line x1="5756.45252" y1="1760.373259" x2="5977.000246" y2="1832.03356" stroke="black" stroke-width="6.48"/>
<line x1="5977.000246" y1="1832.03356" x2="6041.611991" y2="1633.179053" stroke="black" stroke-width="6.48"/>
<line x1="6041.611991" y1="1633.179053" x2="5821.064269" y2="1561.518756" stroke="black" stroke-width="6.48"/>
<line x1="5851.796328" y1="1571.504209" x2="5787.184579" y2="1770.358712" stroke="black" stroke-width="6.48"/>
<line x1="3755.94377" y1="1170.151394" x2="3767.01304" y2="1141.314962" stroke="black" stroke-width="6.48"/>
<line x1="3767.01304" y1="1141.314962" x2="3571.368937" y2="1066.214228" stroke="black" stroke-width="6.48"/>
<line x1="3571.368937" y1="1066.214228" x2="3560.299668" y2="1095.050664" stroke="black" stroke-width="6.48"/>
<line x1="3560.299668" y1="1095.050664" x2="3755.94377" y2="1170.151394" stroke="black" stroke-width="6.48"/>
<line x1="3829.000946" y1="979.830943" x2="3840.070216" y2="950.994511" stroke="black" stroke-width="6.48"/>
<line x1="3840.070216" y1="950.994511" x2="3644.426113" y2="875.893777" stroke="black" stroke-width="6.48"/>
<line x1="3644.426113" y1="875.893777" x2="3633.356844" y2="904.730206" stroke="black" stroke-width="6.48"/>
<line x1="3633.356844" y1="904.730206" x2="3829.000946" y2="979.830943" stroke="black" stroke-width="6.48"/>
<line x1="3766.842742" y1="1141.758601" x2="3829.000946" y2="979.830943" stroke="black" stroke-width="6.48"/>
<line x1="3571.915619" y1="1067.442098" x2="3557.052162" y2="1033.232098" stroke="black" stroke-width="6.48"/>
<line x1="3600.477756" y1="920.104553" x2="3634.414416" y2="904.627163" stroke="black" stroke-width="6.48"/>
<line x1="3556.370977" y1="1035.006642" x2="3601.158944" y2="918.330005" stroke="black" stroke-width="6.48"/>
<line x1="3725.311122" y1="1125.307098" x2="3787.469327" y2="963.37944" stroke="black" stroke-width="6.48"/>
</g>
</svg>
