<?xml version="1.0"?>
<svg xmlns:xlink="http://www.w3.org/1999/xlink" width="6775.2" height="2858.4">
<image x="0" y="0" width="6775.2" height="2858.4" xlink:href="groundfilled-01.png"/>
<g style="stroke-linecap:round">
<line x1="1285.950406" y1="795.178109" x2="1311.346069" y2="795.178109" stroke="black" stroke-width="6.48"/>
<line x1="1311.346069" y1="795.178109" x2="1311.346069" y2="745.625592" stroke="black" stroke-width="6.48"/>
<line x1="1311.346069" y1="745.625592" x2="1285.950406" y2="745.625592" stroke="black" stroke-width="6.48"/>
<line x1="1285.950406" y1="745.625592" x2="1285.950406" y2="795.178109" stroke="black" stroke-width="6.48"/>
<line x1="1559.728062" y1="745.625592" x2="1559.728062" y2="498.48241" stroke="black" stroke-width="6.48"/>
<line x1="1560.347471" y1="796.416923" x2="1585.743134" y2="796.416923" stroke="black" stroke-width="6.48"/>
<line x1="1585.743134" y1="796.416923" x2="1585.743134" y2="746.864406" stroke="black" stroke-width="6.48"/>
<line x1="1585.743134" y1="746.864406" x2="1560.347471" y2="746.864406" stroke="black" stroke-width="6.48"/>
<line x1="1560.347471" y1="746.864406" x2="1560.347471" y2="796.416923" stroke="black" stroke-width="6.48"/>
<path d="m 1311.346069,747.483811 a 248.38199299999997,248.38199299999997 0 0 1 248.38199299999997,-248.38199299999997" fill="none" stroke="black" stroke-width="6.48"/>
<line x1="320.532556" y1="771.34176" x2="320.532556" y2="366.736194" stroke="black" stroke-width="6.48"/>
<line x1="320.532556" y1="366.736194" x2="258.159283" y2="366.736194" stroke="black" stroke-width="6.48"/>
<line x1="258.159283" y1="366.736194" x2="258.159283" y2="771.34176" stroke="black" stroke-width="6.48"/>
<line x1="258.159283" y1="771.34176" x2="320.532556" y2="771.34176" stroke="black" stroke-width="6.48"/>
<line x1="258.979986" y1="733.589518" x2="319.711856" y2="733.589518" stroke="black" stroke-width="6.48"/>
<line x1="258.979986" y1="405.309139" x2="322.173958" y2="405.309139" stroke="black" stroke-width="6.48"/>
<line x1="287.704519" y1="734.410217" x2="287.704519" y2="406.129838" stroke="black" stroke-width="6.48"/>
<line x1="3901.945176" y1="1169.331426" x2="3901.945176" y2="1428.837066" stroke="black" stroke-width="6.48"/>
<line x1="3901.945176" y1="1428.837066" x2="3941.9501" y2="1428.837066" stroke="black" stroke-width="6.48"/>
<line x1="3941.9501" y1="1428.837066" x2="3941.9501" y2="1169.331426" stroke="black" stroke-width="6.48"/>
<line x1="3941.9501" y1="1169.331426" x2="3901.945176" y2="1169.331426" stroke="black" stroke-width="6.48"/>
<line x1="3941.423719" y1="1193.544936" x2="3902.471557" y2="1193.544936" stroke="black" stroke-width="6.48"/>
<line x1="3941.423719" y1="1404.097178" x2="3900.892414" y2="1404.097178" stroke="black" stroke-width="6.48"/>
<line x1="3923.000399" y1="1193.018555" x2="3923.000399" y2="1403.570797" stroke="black" stroke-width="6.48"/>
<line x1="334.430687" y1="1882.943946" x2="334.430687" y2="1457.437414" stroke="black" stroke-width="6.48"/>
<line x1="334.430687" y1="1457.437414" x2="258.323828" y2="1457.437414" stroke="black" stroke-width="6.48"/>
<line x1="258.323828" y1="1457.437414" x2="258.323828" y2="1882.943946" stroke="black" stroke-width="6.48"/>
<line x1="258.323828" y1="1882.943946" x2="334.430687" y2="1882.943946" stroke="black" stroke-width="6.48"/>
<line x1="334.430687" y1="1863.05238" x2="360.376207" y2="1863.05238" stroke="black" stroke-width="6.48"/>
<line x1="360.376207" y1="1863.05238" x2="360.376207" y2="1478.193829" stroke="black" stroke-width="6.48"/>
<line x1="334.430687" y1="1478.193829" x2="360.376207" y2="1478.193829" stroke="black" stroke-width="6.48"/>
<line x1="2747.905531" y1="904.670665" x2="2721.68303" y2="904.670665" stroke="black" stroke-width="6.48"/>
<line x1="2721.68303" y1="904.670665" x2="2721.68303" y2="955.836522" stroke="black" stroke-width="6.48"/>
<line x1="2721.68303" y1="955.836522" x2="2747.905531" y2="955.836522" stroke="black" stroke-width="6.48"/>
<line x1="2747.905531" y1="955.836522" x2="2747.905531" y2="904.670665" stroke="black" stroke-width="6.48"/>
<line x1="2465.214181" y1="955.836522" x2="2465.214181" y2="1211.026223" stroke="black" stroke-width="6.48"/>
<line x1="2464.574609" y1="903.39152" x2="2438.352108" y2="903.39152" stroke="black" stroke-width="6.48"/>
<line x1="2438.352108" y1="903.39152" x2="2438.352108" y2="954.557374" stroke="black" stroke-width="6.48"/>
<line x1="2438.352108" y1="954.557374" x2="2464.574609" y2="954.557374" stroke="black" stroke-width="6.48"/>
<line x1="2464.574609" y1="954.557374" x2="2464.574609" y2="903.39152" stroke="black" stroke-width="6.48"/>
<path d="m 2721.68303,953.917801 a 256.4688490000001,256.4688490000001 0 0 1 -256.4688490000003,256.46884899999986" fill="none" stroke="black" stroke-width="6.48"/>
<line x1="2420.532389" y1="1427.858834" x2="2395.136725" y2="1427.858834" stroke="black" stroke-width="6.48"/>
<line x1="2395.136725" y1="1427.858834" x2="2395.136725" y2="1477.411351" stroke="black" stroke-width="6.48"/>
<line x1="2395.136725" y1="1477.411351" x2="2420.532389" y2="1477.411351" stroke="black" stroke-width="6.48"/>
<line x1="2420.532389" y1="1477.411351" x2="2420.532389" y2="1427.858834" stroke="black" stroke-width="6.48"/>
<line x1="2146.754732" y1="1477.411351" x2="2146.754732" y2="1724.554534" stroke="black" stroke-width="6.48"/>
<line x1="2146.135324" y1="1426.62002" x2="2120.73966" y2="1426.62002" stroke="black" stroke-width="6.48"/>
<line x1="2120.73966" y1="1426.62002" x2="2120.73966" y2="1476.172537" stroke="black" stroke-width="6.48"/>
<line x1="2120.73966" y1="1476.172537" x2="2146.135324" y2="1476.172537" stroke="black" stroke-width="6.48"/>
<line x1="2146.135324" y1="1476.172537" x2="2146.135324" y2="1426.62002" stroke="black" stroke-width="6.48"/>
<path d="m 2395.136725,1475.553132 a 248.38199299999997,248.38199299999997 0 0 1 -248.38199299999997,248.38199299999997" fill="none" stroke="black" stroke-width="6.48"/>
<line x1="746.914568" y1="541.339351" x2="978.812168" y2="541.339351" stroke="black" stroke-width="6.48"/>
<line x1="978.812168" y1="541.339351" x2="978.812168" y2="773.712151" stroke="black" stroke-width="6.48"/>
<line x1="978.812168" y1="773.712151" x2="746.914568" y2="773.712151" stroke="black" stroke-width="6.48"/>
<line x1="746.914568" y1="773.712151" x2="746.914568" y2="541.339351" stroke="black" stroke-width="6.48"/>
<line x1="746.439368" y1="540.864151" x2="978.812168" y2="773.712151" stroke="black" stroke-width="6.48"/>
<line x1="746.914568" y1="773.236951" x2="978.336968" y2="541.339351" stroke="black" stroke-width="6.48"/>
<line x1="1842.844367" y1="1907.891996" x2="2032.924367" y2="1907.891996" stroke="black" stroke-width="6.48"/>
<line x1="2032.924367" y1="1907.891996" x2="2032.924367" y2="1444.096796" stroke="black" stroke-width="6.48"/>
<line x1="2032.924367" y1="1444.096796" x2="1842.844367" y2="1444.096796" stroke="black" stroke-width="6.48"/>
<line x1="1842.844367" y1="1444.096796" x2="1842.844367" y2="1467.856796" stroke="black" stroke-width="6.48"/>
<line x1="1842.844367" y1="1467.856796" x2="2010.114767" y2="1467.856796" stroke="black" stroke-width="6.48"/>
<line x1="2010.114767" y1="1467.856796" x2="2010.114767" y2="1883.181596" stroke="black" stroke-width="6.48"/>
<line x1="2010.114767" y1="1883.181596" x2="1842.844367" y2="1883.181596" stroke="black" stroke-width="6.48"/>
<line x1="1842.844367" y1="1883.181596" x2="1842.844367" y2="1907.891996" stroke="black" stroke-width="6.48"/>
<line x1="1848.546767" y1="1883.181596" x2="1848.546767" y2="1467.856796" stroke="black" stroke-width="6.48"/>
<line x1="1847.596367" y1="1675.994396" x2="2009.164367" y2="1675.994396" stroke="black" stroke-width="6.48"/>
<line x1="1485.415969" y1="209.267824" x2="1707.693134" y2="209.267824" stroke="black" stroke-width="6.48"/>
<line x1="1707.693134" y1="209.267824" x2="1707.693134" y2="432.000475" stroke="black" stroke-width="6.48"/>
<line x1="1707.693134" y1="432.000475" x2="1485.415969" y2="432.000475" stroke="black" stroke-width="6.48"/>
<line x1="1485.415969" y1="432.000475" x2="1485.415969" y2="209.267824" stroke="black" stroke-width="6.48"/>
<line x1="1484.960483" y1="208.812337" x2="1707.693134" y2="432.000475" stroke="black" stroke-width="6.48"/>
<line x1="1485.415969" y1="431.544989" x2="1707.237648" y2="209.267824" stroke="black" stroke-width="6.48"/>
<line x1="2761.020558" y1="2194.614338" x2="2761.020558" y2="1803.366338" stroke="black" stroke-width="6.48"/>
<line x1="2761.020558" y1="1803.366338" x2="2586.780558" y2="1803.366338" stroke="black" stroke-width="6.48"/>
<line x1="2586.780558" y1="1803.366338" x2="2586.780558" y2="2194.614338" stroke="black" stroke-width="6.48"/>
<line x1="2586.780558" y1="2194.614338" x2="2761.020558" y2="2194.614338" stroke="black" stroke-width="6.48"/>
<line x1="2613.708558" y1="1878.606338" x2="2613.708558" y2="2162.934338" stroke="black" stroke-width="6.48"/>
<line x1="2613.708558" y1="2162.934338" x2="2731.716558" y2="2162.934338" stroke="black" stroke-width="6.48"/>
<line x1="2731.716558" y1="2162.934338" x2="2731.716558" y2="1873.062338" stroke="black" stroke-width="6.48"/>
<path d="m 2613.453134,1879.416911 a 63.3599990854681,63.3599990854681 0 0 1 119.3743300000001,-4.293814000000111" fill="none" stroke="black" stroke-width="6.48"/>
<line x1="2081.132683" y1="1890.910627" x2="2056.580683" y2="1909.522627" stroke="black" stroke-width="6.48"/>
<line x1="2056.580683" y1="1909.522627" x2="2056.580683" y2="2056.834627" stroke="black" stroke-width="6.48"/>
<line x1="2056.580683" y1="2056.834627" x2="2084.696683" y2="2075.842627" stroke="black" stroke-width="6.48"/>
<line x1="2083.904683" y1="1912.690627" x2="2083.904683" y2="2055.646627" stroke="black" stroke-width="6.48"/>
<circle cx="2105.684683" cy="1981.990627" r="13.068000000000003" fill="none" stroke="black" stroke-width="6.48"/>
<path d="m 2083.237337,1914.24388 a 74.8440000678094,74.8440000678094 0 1 1 0.40204799999992247,139.6090039999999" fill="none" stroke="black" stroke-width="6.48"/>
<path d="m 2080.47532,1890.95693 a 95.4359990622641,95.4359990622641 0 1 1 3.0749580000001515,184.46699599999988" fill="none" stroke="black" stroke-width="6.48"/>
<line x1="468.021992" y1="210.04992" x2="861.265865" y2="210.04992" stroke="black" stroke-width="6.48"/>
<line x1="865.221271" y1="209.053638" x2="865.221271" y2="345.122413" stroke="black" stroke-width="6.48"/>
<line x1="468.486382" y1="346.27392" x2="865.526612" y2="346.27392" stroke="black" stroke-width="6.48"/>
<line x1="469.221271" y1="210.74467" x2="469.221271" y2="346.008726" stroke="black" stroke-width="6.48"/>
<line x1="479.517271" y1="221.13792" x2="603.069271" y2="221.13792" stroke="black" stroke-width="6.48"/>
<line x1="603.069271" y1="221.13792" x2="603.069271" y2="335.18592" stroke="black" stroke-width="6.48"/>
<line x1="479.517271" y1="335.18592" x2="603.069271" y2="335.18592" stroke="black" stroke-width="6.48"/>
<line x1="479.517271" y1="221.13792" x2="479.517271" y2="335.18592" stroke="black" stroke-width="6.48"/>
<line x1="622.077271" y1="228.26592" x2="709.197271" y2="228.26592" stroke="black" stroke-width="6.48"/>
<line x1="622.077271" y1="248.06592" x2="709.197271" y2="248.06592" stroke="black" stroke-width="6.48"/>
<line x1="622.869271" y1="268.65792" x2="709.197271" y2="268.65792" stroke="black" stroke-width="6.48"/>
<line x1="622.869271" y1="288.45792" x2="709.197271" y2="288.45792" stroke="black" stroke-width="6.48"/>
<line x1="622.077271" y1="308.25792" x2="709.197271" y2="308.25792" stroke="black" stroke-width="6.48"/>
<line x1="622.077271" y1="328.05792" x2="709.197271" y2="328.05792" stroke="black" stroke-width="6.48"/>
<line x1="527.037271" y1="334.39392" x2="527.037271" y2="320.92992" stroke="black" stroke-width="6.48"/>
<line x1="527.037271" y1="320.92992" x2="557.133271" y2="320.92992" stroke="black" stroke-width="6.48"/>
<line x1="557.133271" y1="320.92992" x2="557.133271" y2="333.60192" stroke="black" stroke-width="6.48"/>
<line x1="729.789271" y1="221.13792" x2="853.341271" y2="221.13792" stroke="black" stroke-width="6.48"/>
<line x1="853.341271" y1="221.13792" x2="853.341271" y2="335.18592" stroke="black" stroke-width="6.48"/>
<line x1="729.789271" y1="335.18592" x2="853.341271" y2="335.18592" stroke="black" stroke-width="6.48"/>
<line x1="729.789271" y1="221.13792" x2="729.789271" y2="335.18592" stroke="black" stroke-width="6.48"/>
<line x1="777.309271" y1="335.18592" x2="777.309271" y2="321.72192" stroke="black" stroke-width="6.48"/>
<line x1="777.309271" y1="321.72192" x2="807.405271" y2="321.72192" stroke="black" stroke-width="6.48"/>
<line x1="807.405271" y1="321.72192" x2="807.405271" y2="334.39392" stroke="black" stroke-width="6.48"/>
<circle cx="588.813271" cy="235.39392" r="7.128000000000001" fill="none" stroke="black" stroke-width="6.48"/>
<circle cx="839.085271" cy="236.18592" r="7.128000000000001" fill="none" stroke="black" stroke-width="6.48"/>
<line x1="785.2333" y1="1194.669338" x2="859.105818" y2="1085.148832" stroke="black" stroke-width="6.48"/>
<line x1="859.105818" y1="1085.148832" x2="870.924575" y2="1093.120686" stroke="black" stroke-width="6.48"/>
<line x1="797.052064" y1="1202.641193" x2="870.924575" y2="1093.120686" stroke="black" stroke-width="6.48"/>
<line x1="785.2333" y1="1194.669338" x2="797.052064" y2="1202.641193" stroke="black" stroke-width="6.48"/>
<line x1="804.492461" y1="1191.61035" x2="829.430816" y2="1210.724266" stroke="black" stroke-width="6.48"/>
<line x1="863.484178" y1="1104.151529" x2="891.33628" y2="1120.645228" stroke="black" stroke-width="6.48"/>
<line x1="1167.373199" y1="1452.425951" x2="1241.24571" y2="1342.905444" stroke="black" stroke-width="6.48"/>
<line x1="1241.24571" y1="1342.905444" x2="1230.214867" y2="1335.465047" stroke="black" stroke-width="6.48"/>
<line x1="1156.342356" y1="1444.985554" x2="1230.214867" y2="1335.465047" stroke="black" stroke-width="6.48"/>
<line x1="1167.373199" y1="1452.425951" x2="1156.342356" y2="1444.985554" stroke="black" stroke-width="6.48"/>
<line x1="1161.675457" y1="1433.679718" x2="1134.611273" y2="1417.717472" stroke="black" stroke-width="6.48"/>
<line x1="1220.667178" y1="1346.220896" x2="1195.472365" y2="1325.787606" stroke="black" stroke-width="6.48"/>
<line x1="1086.826104" y1="1041.569104" x2="1078.85425" y2="1053.387864" stroke="black" stroke-width="6.48"/>
<line x1="1078.85425" y1="1053.387864" x2="1188.374756" y2="1127.260379" stroke="black" stroke-width="6.48"/>
<line x1="1196.346607" y1="1115.441618" x2="1188.374756" y2="1127.260379" stroke="black" stroke-width="6.48"/>
<line x1="1086.826104" y1="1041.569104" x2="1196.346607" y2="1115.441618" stroke="black" stroke-width="6.48"/>
<line x1="1176.555992" y1="1119.288524" x2="1160.850211" y2="1147.672084" stroke="black" stroke-width="6.48"/>
<line x1="1089.885089" y1="1060.828261" x2="1070.23972" y2="1086.554534" stroke="black" stroke-width="6.48"/>
<line x1="828.813028" y1="1422.389624" x2="836.784882" y2="1410.570864" stroke="black" stroke-width="6.48"/>
<line x1="836.784882" y1="1410.570864" x2="946.305389" y2="1484.443379" stroke="black" stroke-width="6.48"/>
<line x1="938.333534" y1="1496.262139" x2="946.305389" y2="1484.443379" stroke="black" stroke-width="6.48"/>
<line x1="828.813028" y1="1422.389624" x2="938.333534" y2="1496.262139" stroke="black" stroke-width="6.48"/>
<line x1="934.486632" y1="1476.471524" x2="954.919919" y2="1451.276705" stroke="black" stroke-width="6.48"/>
<line x1="847.815725" y1="1418.011261" x2="864.309427" y2="1390.159159" stroke="black" stroke-width="6.48"/>
<circle cx="1012.579819" cy="1268.91562" r="191.98080000000002" fill="none" stroke="black" stroke-width="6.48"/>
<line x1="2044.889399" y1="955.822399" x2="2267.166564" y2="955.822399" stroke="black" stroke-width="6.48"/>
<line x1="2267.166564" y1="955.822399" x2="2267.166564" y2="1178.555051" stroke="black" stroke-width="6.48"/>
<line x1="2267.166564" y1="1178.555051" x2="2044.889399" y2="1178.555051" stroke="black" stroke-width="6.48"/>
<line x1="2044.889399" y1="1178.555051" x2="2044.889399" y2="955.822399" stroke="black" stroke-width="6.48"/>
<line x1="2044.433912" y1="955.366913" x2="2267.166564" y2="1178.555051" stroke="black" stroke-width="6.48"/>
<line x1="2044.889399" y1="1178.099564" x2="2266.711078" y2="955.822399" stroke="black" stroke-width="6.48"/>
<line x1="333.766206" y1="1375.361078" x2="333.766206" y2="949.854546" stroke="black" stroke-width="6.48"/>
<line x1="333.766206" y1="949.854546" x2="257.659348" y2="949.854546" stroke="black" stroke-width="6.48"/>
<line x1="257.659348" y1="949.854546" x2="257.659348" y2="1375.361078" stroke="black" stroke-width="6.48"/>
<line x1="257.659348" y1="1375.361078" x2="333.766206" y2="1375.361078" stroke="black" stroke-width="6.48"/>
<line x1="333.766206" y1="1355.469512" x2="359.711726" y2="1355.469512" stroke="black" stroke-width="6.48"/>
<line x1="359.711726" y1="1355.469512" x2="359.711726" y2="970.610962" stroke="black" stroke-width="6.48"/>
<line x1="333.766206" y1="970.610962" x2="359.711726" y2="970.610962" stroke="black" stroke-width="6.48"/>
<line x1="3874.406537" y1="1514.726719" x2="3874.406537" y2="1940.260162" stroke="black" stroke-width="6.48"/>
<line x1="3874.406537" y1="1940.260162" x2="3940.00601" y2="1940.260162" stroke="black" stroke-width="6.48"/>
<line x1="3940.00601" y1="1940.260162" x2="3940.00601" y2="1514.726719" stroke="black" stroke-width="6.48"/>
<line x1="3940.00601" y1="1514.726719" x2="3874.406537" y2="1514.726719" stroke="black" stroke-width="6.48"/>
<line x1="3939.14286" y1="1554.431663" x2="3875.269687" y2="1554.431663" stroke="black" stroke-width="6.48"/>
<line x1="3939.14286" y1="1899.692064" x2="3872.680232" y2="1899.692064" stroke="black" stroke-width="6.48"/>
<line x1="3908.932574" y1="1553.568512" x2="3908.932574" y2="1898.828914" stroke="black" stroke-width="6.48"/>
<line x1="5397.95875" y1="2044.622808" x2="5352.775974" y2="2168.761468" stroke="black" stroke-width="6.48"/>
<line x1="5352.775974" y1="2168.761468" x2="5339.379715" y2="2163.885631" stroke="black" stroke-width="6.48"/>
<line x1="5384.562491" y1="2039.746972" x2="5339.379715" y2="2163.885631" stroke="black" stroke-width="6.48"/>
<line x1="5397.95875" y1="2044.622808" x2="5384.562491" y2="2039.746972" stroke="black" stroke-width="6.48"/>
<line x1="5380.011706" y1="2052.250146" x2="5351.190055" y2="2039.737133" stroke="black" stroke-width="6.48"/>
<line x1="5343.930497" y1="2151.382453" x2="5312.915532" y2="2142.116723" stroke="black" stroke-width="6.48"/>
<line x1="4964.813071" y1="1886.970679" x2="4919.630296" y2="2011.109335" stroke="black" stroke-width="6.48"/>
<line x1="4919.630296" y1="2011.109335" x2="4932.133474" y2="2015.660117" stroke="black" stroke-width="6.48"/>
<line x1="4977.316249" y1="1891.521457" x2="4932.133474" y2="2015.660117" stroke="black" stroke-width="6.48"/>
<line x1="4964.813071" y1="1886.970679" x2="4977.316249" y2="1891.521457" stroke="black" stroke-width="6.48"/>
<line x1="4974.876688" y1="1903.781664" x2="5004.998564" y2="1912.72234" stroke="black" stroke-width="6.48"/>
<line x1="4938.795479" y1="2002.913971" x2="4968.185162" y2="2016.645124" stroke="black" stroke-width="6.48"/>
<line x1="5142.362839" y1="2266.137212" x2="5147.238679" y2="2252.740957" stroke="black" stroke-width="6.48"/>
<line x1="5147.238679" y1="2252.740957" x2="5023.100023" y2="2207.558182" stroke="black" stroke-width="6.48"/>
<line x1="5018.224183" y1="2220.954437" x2="5023.100023" y2="2207.558182" stroke="black" stroke-width="6.48"/>
<line x1="5142.362839" y1="2266.137212" x2="5018.224183" y2="2220.954437" stroke="black" stroke-width="6.48"/>
<line x1="5036.496282" y1="2212.434018" x2="5044.868932" y2="2181.093998" stroke="black" stroke-width="6.48"/>
<line x1="5134.735508" y1="2248.190172" x2="5147.573576" y2="2218.475434" stroke="black" stroke-width="6.48"/>
<line x1="5300.583001" y1="1834.209677" x2="5295.707161" y2="1847.605939" stroke="black" stroke-width="6.48"/>
<line x1="5295.707161" y1="1847.605939" x2="5171.568505" y2="1802.42316" stroke="black" stroke-width="6.48"/>
<line x1="5176.444345" y1="1789.026901" x2="5171.568505" y2="1802.42316" stroke="black" stroke-width="6.48"/>
<line x1="5300.583001" y1="1834.209677" x2="5176.444345" y2="1789.026901" stroke="black" stroke-width="6.48"/>
<line x1="5184.964764" y1="1807.299" x2="5171.233612" y2="1836.68868" stroke="black" stroke-width="6.48"/>
<line x1="5283.20399" y1="1843.055154" x2="5273.938256" y2="1874.070115" stroke="black" stroke-width="6.48"/>
<circle cx="5159.403594" cy="2027.582057" r="191.98080000000002" fill="none" stroke="black" stroke-width="6.48"/>
<line x1="3157.001352" y1="1074.49056" x2="3366.366556" y2="1074.49056" stroke="black" stroke-width="6.48"/>
<line x1="3366.366556" y1="1074.49056" x2="3366.366556" y2="743.276156" stroke="black" stroke-width="6.48"/>
<line x1="3366.366556" y1="743.276156" x2="3157.001352" y2="743.276156" stroke="black" stroke-width="6.48"/>
<line x1="3157.001352" y1="743.276156" x2="3157.001352" y2="1074.49056" stroke="black" stroke-width="6.48"/>
<line x1="3156.328152" y1="802.517756" x2="3367.039752" y2="802.517756" stroke="black" stroke-width="6.48"/>
<line x1="3367.039752" y1="802.517756" x2="3157.674552" y2="852.33456" stroke="black" stroke-width="6.48"/>
<line x1="3157.674552" y1="852.33456" x2="3189.314956" y2="898.78536" stroke="black" stroke-width="6.48"/>
<line x1="3189.314956" y1="898.78536" x2="3367.039752" y2="801.84456" stroke="black" stroke-width="6.48"/>
<line x1="3465.800132" y1="1202.908154" x2="3688.077298" y2="1202.908154" stroke="black" stroke-width="6.48"/>
<line x1="3688.077298" y1="1202.908154" x2="3688.077298" y2="1425.640806" stroke="black" stroke-width="6.48"/>
<line x1="3688.077298" y1="1425.640806" x2="3465.800132" y2="1425.640806" stroke="black" stroke-width="6.48"/>
<line x1="3465.800132" y1="1425.640806" x2="3465.800132" y2="1202.908154" stroke="black" stroke-width="6.48"/>
<line x1="3465.344646" y1="1202.452668" x2="3688.077298" y2="1425.640806" stroke="black" stroke-width="6.48"/>
<line x1="3465.800132" y1="1425.18532" x2="3687.621811" y2="1202.908154" stroke="black" stroke-width="6.48"/>
<line x1="2804.16708" y1="1127.69402" x2="2804.16708" y2="1153.148746" stroke="black" stroke-width="6.48"/>
<line x1="2804.16708" y1="1153.148746" x2="2853.834836" y2="1153.148746" stroke="black" stroke-width="6.48"/>
<line x1="2853.834836" y1="1153.148746" x2="2853.834836" y2="1127.69402" stroke="black" stroke-width="6.48"/>
<line x1="2853.834836" y1="1127.69402" x2="2804.16708" y2="1127.69402" stroke="black" stroke-width="6.48"/>
<line x1="2853.834836" y1="1402.108373" x2="3101.55277" y2="1402.108373" stroke="black" stroke-width="6.48"/>
<line x1="2802.925386" y1="1402.729218" x2="2802.925386" y2="1428.183943" stroke="black" stroke-width="6.48"/>
<line x1="2802.925386" y1="1428.183943" x2="2852.593142" y2="1428.183943" stroke="black" stroke-width="6.48"/>
<line x1="2852.593142" y1="1428.183943" x2="2852.593142" y2="1402.729218" stroke="black" stroke-width="6.48"/>
<line x1="2852.593142" y1="1402.729218" x2="2802.925386" y2="1402.729218" stroke="black" stroke-width="6.48"/>
<path d="m 2851.972294,1153.148746 a 248.95962699999984,248.95962699999984 0 0 1 248.95962699999973,248.95962699999995" fill="none" stroke="black" stroke-width="6.48"/>
<line x1="3484.017972" y1="1650.54694" x2="3699.029678" y2="1737.417312" stroke="black" stroke-width="6.48"/>
<line x1="3699.029678" y1="1737.417312" x2="3611.981297" y2="1952.869619" stroke="black" stroke-width="6.48"/>
<line x1="3611.981297" y1="1952.869619" x2="3396.969587" y2="1865.99925" stroke="black" stroke-width="6.48"/>
<line x1="3396.969587" y1="1865.99925" x2="3484.017972" y2="1650.54694" stroke="black" stroke-width="6.48"/>
<line x1="3483.755384" y1="1649.928334" x2="3611.981297" y2="1952.869619" stroke="black" stroke-width="6.48"/>
<line x1="3397.1476" y1="1865.558653" x2="3698.589082" y2="1737.239299" stroke="black" stroke-width="6.48"/>
<line x1="3122.190896" y1="1589.315882" x2="3101.926547" y2="1612.627351" stroke="black" stroke-width="6.48"/>
<line x1="3101.926547" y1="1612.627351" x2="3260.085901" y2="1750.113184" stroke="black" stroke-width="6.48"/>
<line x1="3260.085901" y1="1750.113184" x2="3280.350251" y2="1726.801711" stroke="black" stroke-width="6.48"/>
<line x1="3280.350251" y1="1726.801711" x2="3122.190896" y2="1589.315882" stroke="black" stroke-width="6.48"/>
<line x1="2988.446177" y1="1743.171581" x2="2968.181827" y2="1766.48305" stroke="black" stroke-width="6.48"/>
<line x1="2968.181827" y1="1766.48305" x2="3126.341182" y2="1903.968882" stroke="black" stroke-width="6.48"/>
<line x1="3126.341182" y1="1903.968882" x2="3146.605531" y2="1880.65741" stroke="black" stroke-width="6.48"/>
<line x1="3146.605531" y1="1880.65741" x2="2988.446177" y2="1743.171581" stroke="black" stroke-width="6.48"/>
<line x1="3102.238307" y1="1612.268716" x2="2988.446177" y2="1743.171581" stroke="black" stroke-width="6.48"/>
<line x1="3259.992143" y1="1748.772385" x2="3262.258714" y2="1786.002872" stroke="black" stroke-width="6.48"/>
<line x1="3182.760104" y1="1877.455559" x2="3145.576496" y2="1880.392529" stroke="black" stroke-width="6.48"/>
<line x1="3263.50575" y1="1784.568323" x2="3181.513064" y2="1878.890116" stroke="black" stroke-width="6.48"/>
<line x1="3135.638516" y1="1641.932723" x2="3021.84639" y2="1772.835588" stroke="black" stroke-width="6.48"/>
<line x1="1311.535573" y1="1985.843192" x2="1334.489825" y2="2006.511304" stroke="black" stroke-width="6.48"/>
<line x1="1334.489825" y1="2006.511304" x2="1474.715016" y2="1850.77553" stroke="black" stroke-width="6.48"/>
<line x1="1474.715016" y1="1850.77553" x2="1451.760764" y2="1830.107419" stroke="black" stroke-width="6.48"/>
<line x1="1451.760764" y1="1830.107419" x2="1311.535573" y2="1985.843192" stroke="black" stroke-width="6.48"/>
<line x1="1463.033639" y1="2122.252729" x2="1485.987894" y2="2142.920844" stroke="black" stroke-width="6.48"/>
<line x1="1485.987894" y1="2142.920844" x2="1626.213078" y2="1987.185071" stroke="black" stroke-width="6.48"/>
<line x1="1626.213078" y1="1987.185071" x2="1603.25883" y2="1966.516956" stroke="black" stroke-width="6.48"/>
<line x1="1603.25883" y1="1966.516956" x2="1463.033639" y2="2122.252729" stroke="black" stroke-width="6.48"/>
<line x1="1334.136683" y1="2006.193334" x2="1463.033639" y2="2122.252729" stroke="black" stroke-width="6.48"/>
<line x1="1473.372788" y1="1850.845874" x2="1510.637162" y2="1849.229417" stroke="black" stroke-width="6.48"/>
<line x1="1600.688459" y1="1930.312012" x2="1602.976025" y2="1967.541214" stroke="black" stroke-width="6.48"/>
<line x1="1509.224594" y1="1847.957533" x2="1602.101027" y2="1931.583895" stroke="black" stroke-width="6.48"/>
<line x1="1364.379095" y1="1973.315923" x2="1493.276047" y2="2089.375326" stroke="black" stroke-width="6.48"/>
<line x1="2278.414163" y1="2040.652768" x2="2509.041398" y2="2064.892723" stroke="black" stroke-width="6.48"/>
<line x1="2509.041398" y1="2064.892723" x2="2484.75177" y2="2295.992556" stroke="black" stroke-width="6.48"/>
<line x1="2484.75177" y1="2295.992556" x2="2254.124534" y2="2271.752597" stroke="black" stroke-width="6.48"/>
<line x1="2254.124534" y1="2271.752597" x2="2278.414163" y2="2040.652768" stroke="black" stroke-width="6.48"/>
<line x1="2277.991238" y1="2040.130498" x2="2484.75177" y2="2295.992556" stroke="black" stroke-width="6.48"/>
<line x1="2254.174207" y1="2271.28" x2="2508.568801" y2="2064.84305" stroke="black" stroke-width="6.48"/>
<line x1="6155.596238" y1="1737.973926" x2="5974.819412" y2="1796.711879" stroke="black" stroke-width="6.48"/>
<line x1="5974.819412" y1="1796.711879" x2="6118.140013" y2="2237.807326" stroke="black" stroke-width="6.48"/>
<line x1="6118.140013" y1="2237.807326" x2="6298.916836" y2="2179.069373" stroke="black" stroke-width="6.48"/>
<line x1="6298.916836" y1="2179.069373" x2="6291.574589" y2="2156.47227" stroke="black" stroke-width="6.48"/>
<line x1="6291.574589" y1="2156.47227" x2="6132.490988" y2="2208.161668" stroke="black" stroke-width="6.48"/>
<line x1="6132.490988" y1="2208.161668" x2="6004.148569" y2="1813.164311" stroke="black" stroke-width="6.48"/>
<line x1="6004.148569" y1="1813.164311" x2="6163.23217" y2="1761.474917" stroke="black" stroke-width="6.48"/>
<line x1="6163.23217" y1="1761.474917" x2="6155.596238" y2="1737.973926" stroke="black" stroke-width="6.48"/>
<line x1="6157.808867" y1="1763.237052" x2="6286.151286" y2="2158.234412" stroke="black" stroke-width="6.48"/>
<line x1="6222.737113" y1="1959.990098" x2="6069.076819" y2="2009.917361" stroke="black" stroke-width="6.48"/>
<line x1="1086.593101" y1="210.407731" x2="1357.140301" y2="210.407731" stroke="black" stroke-width="6.48"/>
<line x1="1357.140301" y1="210.407731" x2="1357.140301" y2="342.354931" stroke="black" stroke-width="6.48"/>
<line x1="1086.593101" y1="342.354931" x2="1357.140301" y2="342.354931" stroke="black" stroke-width="6.48"/>
<line x1="1086.593101" y1="210.407731" x2="1086.593101" y2="342.354931" stroke="black" stroke-width="6.48"/>
<line x1="1093.245901" y1="217.060531" x2="1231.291501" y2="217.060531" stroke="black" stroke-width="6.48"/>
<line x1="1231.291501" y1="217.060531" x2="1231.291501" y2="335.147731" stroke="black" stroke-width="6.48"/>
<line x1="1093.245901" y1="335.147731" x2="1231.291501" y2="335.147731" stroke="black" stroke-width="6.48"/>
<line x1="1093.245901" y1="217.060531" x2="1093.245901" y2="335.147731" stroke="black" stroke-width="6.48"/>
<line x1="1245.705901" y1="224.822131" x2="1342.725901" y2="224.822131" stroke="black" stroke-width="6.48"/>
<line x1="1245.705901" y1="245.334931" x2="1342.725901" y2="245.334931" stroke="black" stroke-width="6.48"/>
<line x1="1246.260301" y1="266.402131" x2="1343.280301" y2="266.402131" stroke="black" stroke-width="6.48"/>
<line x1="1246.260301" y1="286.914931" x2="1343.280301" y2="286.914931" stroke="black" stroke-width="6.48"/>
<line x1="1245.705901" y1="307.427731" x2="1342.725901" y2="307.427731" stroke="black" stroke-width="6.48"/>
<line x1="1245.705901" y1="327.940531" x2="1342.725901" y2="327.940531" stroke="black" stroke-width="6.48"/>
<line x1="1145.913901" y1="335.147731" x2="1145.913901" y2="321.287731" stroke="black" stroke-width="6.48"/>
<line x1="1145.913901" y1="321.287731" x2="1180.286701" y2="321.287731" stroke="black" stroke-width="6.48"/>
<line x1="1180.286701" y1="321.287731" x2="1180.286701" y2="334.593331" stroke="black" stroke-width="6.48"/>
<circle cx="1215.768301" cy="232.029331" r="8.316000000000003" fill="none" stroke="black" stroke-width="6.48"/>
<line x1="3803.347415" y1="1155.343367" x2="3808.179364" y2="1124.835649" stroke="black" stroke-width="6.48"/>
<line x1="3808.179364" y1="1124.835649" x2="3601.196233" y2="1092.052742" stroke="black" stroke-width="6.48"/>
<line x1="3601.196233" y1="1092.052742" x2="3596.364284" y2="1122.56046" stroke="black" stroke-width="6.48"/>
<line x1="3596.364284" y1="1122.56046" x2="3803.347415" y2="1155.343367" stroke="black" stroke-width="6.48"/>
<line x1="3835.238267" y1="953.992433" x2="3840.070216" y2="923.484715" stroke="black" stroke-width="6.48"/>
<line x1="3840.070216" y1="923.484715" x2="3633.087089" y2="890.701805" stroke="black" stroke-width="6.48"/>
<line x1="3633.087089" y1="890.701805" x2="3628.25514" y2="921.209526" stroke="black" stroke-width="6.48"/>
<line x1="3628.25514" y1="921.209526" x2="3835.238267" y2="953.992433" stroke="black" stroke-width="6.48"/>
<line x1="3808.105024" y1="1125.305003" x2="3835.238267" y2="953.992433" stroke="black" stroke-width="6.48"/>
<line x1="3601.986257" y1="1093.140119" x2="3580.334942" y2="1062.767977" stroke="black" stroke-width="6.48"/>
<line x1="3599.291045" y1="943.08385" x2="3629.268176" y2="920.888849" stroke="black" stroke-width="6.48"/>
<line x1="3580.037593" y1="1064.645374" x2="3599.588398" y2="941.206453" stroke="black" stroke-width="6.48"/>
<line x1="3764.060507" y1="1117.847909" x2="3791.193754" y2="946.535342" stroke="black" stroke-width="6.48"/>
</g>
</svg>
