<?xml version="1.0"?>
<svg xmlns:xlink="http://www.w3.org/1999/xlink" width="6775.2" height="2858.4">
<image x="0" y="0" width="6775.2" height="2858.4" xlink:href="groundfilled-01.png"/>
<g style="stroke-linecap:round">
<line x1="1285.950406" y1="795.178109" x2="1311.346069" y2="795.178109" stroke="black" stroke-width="6.48"/>
<line x1="1311.346069" y1="795.178109" x2="1311.346069" y2="745.625592" stroke="black" stroke-width="6.48"/>
<line x1="1311.346069" y1="745.625592" x2="1285.950406" y2="745.625592" stroke="black" stroke-width="6.48"/>
<line x1="1285.950406" y1="745.625592" x2="1285.950406" y2="795.178109" stroke="black" stroke-width="6.48"/>
<line x1="1559.728062" y1="745.625592" x2="1559.728062" y2="498.48241" stroke="black" stroke-width="6.48"/>
<line x1="1560.347471" y1="796.416923" x2="1585.743134" y2="796.416923" stroke="black" stroke-width="6.48"/>
<line x1="1585.743134" y1="796.416923" x2="1585.743134" y2="746.864406" stroke="black" stroke-width="6.48"/>
<line x1="1585.743134" y1="746.864406" x2="1560.347471" y2="746.864406" stroke="black" stroke-width="6.48"/>
<line x1="1560.347471" y1="746.864406" x2="1560.347471" y2="796.416923" stroke="black" stroke-width="6.48"/>
<path d="m 1311.346069,747.483811 a 248.38199299999997,248.38199299999997 0 0 1 248.38199299999997,-248.38199299999997" fill="none" stroke="black" stroke-width="6.48"/>
<line x1="330.523178" y1="771.328966" x2="330.523178" y2="366.748985" stroke="black" stroke-width="6.48"/>
<line x1="330.523178" y1="366.748985" x2="258.15928" y2="366.748985" stroke="black" stroke-width="6.48"/>
<line x1="258.15928" y1="366.748985" x2="258.15928" y2="771.328966" stroke="black" stroke-width="6.48"/>
<line x1="258.15928" y1="771.328966" x2="330.523178" y2="771.328966" stroke="black" stroke-width="6.48"/>
<line x1="330.523178" y1="752.415674" x2="355.19269" y2="752.415674" stroke="black" stroke-width="6.48"/>
<line x1="355.19269" y1="752.415674" x2="355.19269" y2="386.484595" stroke="black" stroke-width="6.48"/>
<line x1="330.523178" y1="386.484595" x2="355.19269" y2="386.484595" stroke="black" stroke-width="6.48"/>
<line x1="3901.945176" y1="1169.331426" x2="3901.945176" y2="1428.837066" stroke="black" stroke-width="6.48"/>
<line x1="3901.945176" y1="1428.837066" x2="3941.9501" y2="1428.837066" stroke="black" stroke-width="6.48"/>
<line x1="3941.9501" y1="1428.837066" x2="3941.9501" y2="1169.331426" stroke="black" stroke-width="6.48"/>
<line x1="3941.9501" y1="1169.331426" x2="3901.945176" y2="1169.331426" stroke="black" stroke-width="6.48"/>
<line x1="3941.423719" y1="1193.544936" x2="3902.471557" y2="1193.544936" stroke="black" stroke-width="6.48"/>
<line x1="3941.423719" y1="1404.097178" x2="3900.892414" y2="1404.097178" stroke="black" stroke-width="6.48"/>
<line x1="3923.000399" y1="1193.018555" x2="3923.000399" y2="1403.570797" stroke="black" stroke-width="6.48"/>
<line x1="323.923298" y1="1882.957399" x2="323.923298" y2="1457.423957" stroke="black" stroke-width="6.48"/>
<line x1="323.923298" y1="1457.423957" x2="258.323825" y2="1457.423957" stroke="black" stroke-width="6.48"/>
<line x1="258.323825" y1="1457.423957" x2="258.323825" y2="1882.957399" stroke="black" stroke-width="6.48"/>
<line x1="258.323825" y1="1882.957399" x2="323.923298" y2="1882.957399" stroke="black" stroke-width="6.48"/>
<line x1="259.186975" y1="1843.252456" x2="323.060148" y2="1843.252456" stroke="black" stroke-width="6.48"/>
<line x1="259.186975" y1="1497.992054" x2="325.649603" y2="1497.992054" stroke="black" stroke-width="6.48"/>
<line x1="289.397261" y1="1844.115606" x2="289.397261" y2="1498.855205" stroke="black" stroke-width="6.48"/>
<line x1="2747.905531" y1="904.670665" x2="2721.68303" y2="904.670665" stroke="black" stroke-width="6.48"/>
<line x1="2721.68303" y1="904.670665" x2="2721.68303" y2="955.836522" stroke="black" stroke-width="6.48"/>
<line x1="2721.68303" y1="955.836522" x2="2747.905531" y2="955.836522" stroke="black" stroke-width="6.48"/>
<line x1="2747.905531" y1="955.836522" x2="2747.905531" y2="904.670665" stroke="black" stroke-width="6.48"/>
<line x1="2465.214181" y1="955.836522" x2="2465.214181" y2="1211.026223" stroke="black" stroke-width="6.48"/>
<line x1="2464.574609" y1="903.39152" x2="2438.352108" y2="903.39152" stroke="black" stroke-width="6.48"/>
<line x1="2438.352108" y1="903.39152" x2="2438.352108" y2="954.557374" stroke="black" stroke-width="6.48"/>
<line x1="2438.352108" y1="954.557374" x2="2464.574609" y2="954.557374" stroke="black" stroke-width="6.48"/>
<line x1="2464.574609" y1="954.557374" x2="2464.574609" y2="903.39152" stroke="black" stroke-width="6.48"/>
<path d="m 2721.68303,953.917801 a 256.4688490000001,256.4688490000001 0 0 1 -256.4688490000003,256.46884899999986" fill="none" stroke="black" stroke-width="6.48"/>
<line x1="2420.532389" y1="1427.858834" x2="2395.136725" y2="1427.858834" stroke="black" stroke-width="6.48"/>
<line x1="2395.136725" y1="1427.858834" x2="2395.136725" y2="1477.411351" stroke="black" stroke-width="6.48"/>
<line x1="2395.136725" y1="1477.411351" x2="2420.532389" y2="1477.411351" stroke="black" stroke-width="6.48"/>
<line x1="2420.532389" y1="1477.411351" x2="2420.532389" y2="1427.858834" stroke="black" stroke-width="6.48"/>
<line x1="2146.754732" y1="1477.411351" x2="2146.754732" y2="1724.554534" stroke="black" stroke-width="6.48"/>
<line x1="2146.135324" y1="1426.62002" x2="2120.73966" y2="1426.62002" stroke="black" stroke-width="6.48"/>
<line x1="2120.73966" y1="1426.62002" x2="2120.73966" y2="1476.172537" stroke="black" stroke-width="6.48"/>
<line x1="2120.73966" y1="1476.172537" x2="2146.135324" y2="1476.172537" stroke="black" stroke-width="6.48"/>
<line x1="2146.135324" y1="1476.172537" x2="2146.135324" y2="1426.62002" stroke="black" stroke-width="6.48"/>
<path d="m 2395.136725,1475.553132 a 248.38199299999997,248.38199299999997 0 0 1 -248.38199299999997,248.38199299999997" fill="none" stroke="black" stroke-width="6.48"/>
<line x1="620.769406" y1="692.136151" x2="1013.601406" y2="692.136151" stroke="black" stroke-width="6.48"/>
<line x1="1013.601406" y1="692.136151" x2="1013.601406" y2="507.600151" stroke="black" stroke-width="6.48"/>
<line x1="1013.601406" y1="507.600151" x2="620.769406" y2="507.600151" stroke="black" stroke-width="6.48"/>
<line x1="620.769406" y1="507.600151" x2="620.769406" y2="692.136151" stroke="black" stroke-width="6.48"/>
<line x1="779.961406" y1="507.600151" x2="779.961406" y2="426.816151" stroke="black" stroke-width="6.48"/>
<line x1="779.961406" y1="426.816151" x2="701.553406" y2="426.816151" stroke="black" stroke-width="6.48"/>
<line x1="701.553406" y1="426.816151" x2="701.553406" y2="507.600151" stroke="black" stroke-width="6.48"/>
<line x1="702.345406" y1="444.240151" x2="779.961406" y2="444.240151" stroke="black" stroke-width="6.48"/>
<line x1="701.553406" y1="773.712151" x2="779.961406" y2="773.712151" stroke="black" stroke-width="6.48"/>
<line x1="779.961406" y1="773.712151" x2="779.961406" y2="692.136151" stroke="black" stroke-width="6.48"/>
<line x1="701.553406" y1="692.136151" x2="701.553406" y2="773.712151" stroke="black" stroke-width="6.48"/>
<line x1="702.345406" y1="756.288151" x2="779.961406" y2="756.288151" stroke="black" stroke-width="6.48"/>
<line x1="931.233406" y1="507.600151" x2="931.233406" y2="426.816151" stroke="black" stroke-width="6.48"/>
<line x1="931.233406" y1="426.816151" x2="852.825406" y2="426.816151" stroke="black" stroke-width="6.48"/>
<line x1="852.825406" y1="426.816151" x2="852.825406" y2="507.600151" stroke="black" stroke-width="6.48"/>
<line x1="852.825406" y1="444.240151" x2="931.233406" y2="444.240151" stroke="black" stroke-width="6.48"/>
<line x1="852.825406" y1="773.712151" x2="931.233406" y2="773.712151" stroke="black" stroke-width="6.48"/>
<line x1="931.233406" y1="773.712151" x2="931.233406" y2="692.136151" stroke="black" stroke-width="6.48"/>
<line x1="852.825406" y1="692.136151" x2="852.825406" y2="773.712151" stroke="black" stroke-width="6.48"/>
<line x1="852.825406" y1="756.288151" x2="931.233406" y2="756.288151" stroke="black" stroke-width="6.48"/>
<line x1="2032.924367" y1="1929.664937" x2="2032.924367" y2="1720.576937" stroke="black" stroke-width="6.48"/>
<line x1="2032.924367" y1="1720.576937" x2="1801.026767" y2="1720.576937" stroke="black" stroke-width="6.48"/>
<line x1="1801.026767" y1="1720.576937" x2="1801.026767" y2="1929.664937" stroke="black" stroke-width="6.48"/>
<line x1="1801.026767" y1="1929.664937" x2="2032.924367" y2="1929.664937" stroke="black" stroke-width="6.48"/>
<line x1="2000.610767" y1="1929.664937" x2="2000.610767" y2="1720.576937" stroke="black" stroke-width="6.48"/>
<line x1="1485.415969" y1="209.267824" x2="1707.693134" y2="209.267824" stroke="black" stroke-width="6.48"/>
<line x1="1707.693134" y1="209.267824" x2="1707.693134" y2="432.000475" stroke="black" stroke-width="6.48"/>
<line x1="1707.693134" y1="432.000475" x2="1485.415969" y2="432.000475" stroke="black" stroke-width="6.48"/>
<line x1="1485.415969" y1="432.000475" x2="1485.415969" y2="209.267824" stroke="black" stroke-width="6.48"/>
<line x1="1484.960483" y1="208.812337" x2="1707.693134" y2="432.000475" stroke="black" stroke-width="6.48"/>
<line x1="1485.415969" y1="431.544989" x2="1707.237648" y2="209.267824" stroke="black" stroke-width="6.48"/>
<line x1="2586.780558" y1="1803.366338" x2="2586.780558" y2="2194.614338" stroke="black" stroke-width="6.48"/>
<line x1="2586.780558" y1="2194.614338" x2="2761.020558" y2="2194.614338" stroke="black" stroke-width="6.48"/>
<line x1="2761.020558" y1="2194.614338" x2="2761.020558" y2="1803.366338" stroke="black" stroke-width="6.48"/>
<line x1="2761.020558" y1="1803.366338" x2="2586.780558" y2="1803.366338" stroke="black" stroke-width="6.48"/>
<line x1="2734.092558" y1="2119.374338" x2="2734.092558" y2="1835.046338" stroke="black" stroke-width="6.48"/>
<line x1="2734.092558" y1="1835.046338" x2="2616.084558" y2="1835.046338" stroke="black" stroke-width="6.48"/>
<line x1="2616.084558" y1="1835.046338" x2="2616.084558" y2="2124.918338" stroke="black" stroke-width="6.48"/>
<path d="m 2734.347982,2118.563766 a 63.35999941905905,63.35999941905905 0 0 1 -119.37432999999965,4.2938139999996565" fill="none" stroke="black" stroke-width="6.48"/>
<line x1="2105.573216" y1="1876.865879" x2="2105.573216" y2="2060.609879" stroke="black" stroke-width="6.48"/>
<line x1="2105.573216" y1="2060.609879" x2="2056.469216" y2="2060.609879" stroke="black" stroke-width="6.48"/>
<line x1="2056.469216" y1="1876.865879" x2="2056.469216" y2="2060.609879" stroke="black" stroke-width="6.48"/>
<line x1="2105.573216" y1="1876.865879" x2="2056.469216" y2="1876.865879" stroke="black" stroke-width="6.48"/>
<line x1="2133.293216" y1="1918.445879" x2="2105.573216" y2="1918.445879" stroke="black" stroke-width="6.48"/>
<line x1="2105.573216" y1="2017.445879" x2="2134.877216" y2="2017.445879" stroke="black" stroke-width="6.48"/>
<circle cx="2178.437216" cy="1967.153879" r="66.52800000000002" fill="none" stroke="black" stroke-width="6.48"/>
<circle cx="2178.437216" cy="1967.153879" r="57.02400000000001" fill="none" stroke="black" stroke-width="6.48"/>
<line x1="835.207866" y1="210.947684" x2="1228.451738" y2="210.947684" stroke="black" stroke-width="6.48"/>
<line x1="1232.407145" y1="209.951402" x2="1232.407145" y2="346.020178" stroke="black" stroke-width="6.48"/>
<line x1="835.672255" y1="347.171684" x2="1232.712486" y2="347.171684" stroke="black" stroke-width="6.48"/>
<line x1="836.407145" y1="211.642434" x2="836.407145" y2="346.90649" stroke="black" stroke-width="6.48"/>
<line x1="846.703145" y1="222.035684" x2="970.255145" y2="222.035684" stroke="black" stroke-width="6.48"/>
<line x1="970.255145" y1="222.035684" x2="970.255145" y2="336.083684" stroke="black" stroke-width="6.48"/>
<line x1="846.703145" y1="336.083684" x2="970.255145" y2="336.083684" stroke="black" stroke-width="6.48"/>
<line x1="846.703145" y1="222.035684" x2="846.703145" y2="336.083684" stroke="black" stroke-width="6.48"/>
<line x1="989.263145" y1="229.163684" x2="1076.383145" y2="229.163684" stroke="black" stroke-width="6.48"/>
<line x1="989.263145" y1="248.963684" x2="1076.383145" y2="248.963684" stroke="black" stroke-width="6.48"/>
<line x1="990.055145" y1="269.555684" x2="1076.383145" y2="269.555684" stroke="black" stroke-width="6.48"/>
<line x1="990.055145" y1="289.355684" x2="1076.383145" y2="289.355684" stroke="black" stroke-width="6.48"/>
<line x1="989.263145" y1="309.155684" x2="1076.383145" y2="309.155684" stroke="black" stroke-width="6.48"/>
<line x1="989.263145" y1="328.955684" x2="1076.383145" y2="328.955684" stroke="black" stroke-width="6.48"/>
<line x1="894.223145" y1="335.291684" x2="894.223145" y2="321.827684" stroke="black" stroke-width="6.48"/>
<line x1="894.223145" y1="321.827684" x2="924.319145" y2="321.827684" stroke="black" stroke-width="6.48"/>
<line x1="924.319145" y1="321.827684" x2="924.319145" y2="334.499684" stroke="black" stroke-width="6.48"/>
<line x1="1096.975145" y1="222.035684" x2="1220.527145" y2="222.035684" stroke="black" stroke-width="6.48"/>
<line x1="1220.527145" y1="222.035684" x2="1220.527145" y2="336.083684" stroke="black" stroke-width="6.48"/>
<line x1="1096.975145" y1="336.083684" x2="1220.527145" y2="336.083684" stroke="black" stroke-width="6.48"/>
<line x1="1096.975145" y1="222.035684" x2="1096.975145" y2="336.083684" stroke="black" stroke-width="6.48"/>
<line x1="1144.495145" y1="336.083684" x2="1144.495145" y2="322.619684" stroke="black" stroke-width="6.48"/>
<line x1="1144.495145" y1="322.619684" x2="1174.591145" y2="322.619684" stroke="black" stroke-width="6.48"/>
<line x1="1174.591145" y1="322.619684" x2="1174.591145" y2="335.291684" stroke="black" stroke-width="6.48"/>
<circle cx="955.999145" cy="236.291684" r="7.128000000000001" fill="none" stroke="black" stroke-width="6.48"/>
<circle cx="1206.271145" cy="237.083684" r="7.128000000000001" fill="none" stroke="black" stroke-width="6.48"/>
<line x1="757.628669" y1="934.802939" x2="743.91903" y2="1327.395636" stroke="black" stroke-width="6.48"/>
<line x1="743.91903" y1="1327.395636" x2="928.342616" y2="1333.835852" stroke="black" stroke-width="6.48"/>
<line x1="928.342616" y1="1333.835852" x2="942.052255" y2="941.243155" stroke="black" stroke-width="6.48"/>
<line x1="942.052255" y1="941.243155" x2="757.628669" y2="934.802939" stroke="black" stroke-width="6.48"/>
<line x1="936.496534" y1="1100.338178" x2="1017.231322" y2="1103.1575" stroke="black" stroke-width="6.48"/>
<line x1="1017.231322" y1="1103.1575" x2="1019.967721" y2="1024.797262" stroke="black" stroke-width="6.48"/>
<line x1="1019.967721" y1="1024.797262" x2="939.232933" y2="1021.977943" stroke="black" stroke-width="6.48"/>
<line x1="1002.526693" y1="1024.980692" x2="999.817934" y2="1102.54941" stroke="black" stroke-width="6.48"/>
<line x1="673.283045" y1="1012.690768" x2="670.546642" y2="1091.051003" stroke="black" stroke-width="6.48"/>
<line x1="670.546642" y1="1091.051003" x2="752.072951" y2="1093.897966" stroke="black" stroke-width="6.48"/>
<line x1="754.80935" y1="1015.537727" x2="673.283045" y2="1012.690768" stroke="black" stroke-width="6.48"/>
<line x1="690.668788" y1="1014.090372" x2="687.960029" y2="1091.659093" stroke="black" stroke-width="6.48"/>
<line x1="931.217216" y1="1251.518029" x2="1011.952004" y2="1254.337348" stroke="black" stroke-width="6.48"/>
<line x1="1011.952004" y1="1254.337348" x2="1014.688404" y2="1175.977112" stroke="black" stroke-width="6.48"/>
<line x1="1014.688404" y1="1175.977112" x2="933.953616" y2="1173.15779" stroke="black" stroke-width="6.48"/>
<line x1="997.27502" y1="1175.369022" x2="994.538621" y2="1253.729261" stroke="black" stroke-width="6.48"/>
<line x1="668.003728" y1="1163.870615" x2="665.267328" y2="1242.230854" stroke="black" stroke-width="6.48"/>
<line x1="665.267328" y1="1242.230854" x2="746.793634" y2="1245.077813" stroke="black" stroke-width="6.48"/>
<line x1="749.530033" y1="1166.717578" x2="668.003728" y2="1163.870615" stroke="black" stroke-width="6.48"/>
<line x1="685.417108" y1="1164.478705" x2="682.680708" y2="1242.83894" stroke="black" stroke-width="6.48"/>
<line x1="2044.889399" y1="955.822399" x2="2267.166564" y2="955.822399" stroke="black" stroke-width="6.48"/>
<line x1="2267.166564" y1="955.822399" x2="2267.166564" y2="1178.555051" stroke="black" stroke-width="6.48"/>
<line x1="2267.166564" y1="1178.555051" x2="2044.889399" y2="1178.555051" stroke="black" stroke-width="6.48"/>
<line x1="2044.889399" y1="1178.555051" x2="2044.889399" y2="955.822399" stroke="black" stroke-width="6.48"/>
<line x1="2044.433912" y1="955.366913" x2="2267.166564" y2="1178.555051" stroke="black" stroke-width="6.48"/>
<line x1="2044.889399" y1="1178.099564" x2="2266.711078" y2="955.822399" stroke="black" stroke-width="6.48"/>
<line x1="333.766206" y1="1375.361078" x2="333.766206" y2="949.854546" stroke="black" stroke-width="6.48"/>
<line x1="333.766206" y1="949.854546" x2="257.659348" y2="949.854546" stroke="black" stroke-width="6.48"/>
<line x1="257.659348" y1="949.854546" x2="257.659348" y2="1375.361078" stroke="black" stroke-width="6.48"/>
<line x1="257.659348" y1="1375.361078" x2="333.766206" y2="1375.361078" stroke="black" stroke-width="6.48"/>
<line x1="333.766206" y1="1355.469512" x2="359.711726" y2="1355.469512" stroke="black" stroke-width="6.48"/>
<line x1="359.711726" y1="1355.469512" x2="359.711726" y2="970.610962" stroke="black" stroke-width="6.48"/>
<line x1="333.766206" y1="970.610962" x2="359.711726" y2="970.610962" stroke="black" stroke-width="6.48"/>
<line x1="3874.406537" y1="1514.726719" x2="3874.406537" y2="1940.260162" stroke="black" stroke-width="6.48"/>
<line x1="3874.406537" y1="1940.260162" x2="3940.00601" y2="1940.260162" stroke="black" stroke-width="6.48"/>
<line x1="3940.00601" y1="1940.260162" x2="3940.00601" y2="1514.726719" stroke="black" stroke-width="6.48"/>
<line x1="3940.00601" y1="1514.726719" x2="3874.406537" y2="1514.726719" stroke="black" stroke-width="6.48"/>
<line x1="3939.14286" y1="1554.431663" x2="3875.269687" y2="1554.431663" stroke="black" stroke-width="6.48"/>
<line x1="3939.14286" y1="1899.692064" x2="3872.680232" y2="1899.692064" stroke="black" stroke-width="6.48"/>
<line x1="3908.932574" y1="1553.568512" x2="3908.932574" y2="1898.828914" stroke="black" stroke-width="6.48"/>
<line x1="4707.416606" y1="1619.006742" x2="4980.300642" y2="1336.427046" stroke="black" stroke-width="6.48"/>
<line x1="4980.300642" y1="1336.427046" x2="4847.556553" y2="1208.237569" stroke="black" stroke-width="6.48"/>
<line x1="4847.556553" y1="1208.237569" x2="4574.672518" y2="1490.817265" stroke="black" stroke-width="6.48"/>
<line x1="4574.672518" y1="1490.817265" x2="4707.416606" y2="1619.006742" stroke="black" stroke-width="6.48"/>
<line x1="4685.256569" y1="1376.304124" x2="4627.145423" y2="1320.186841" stroke="black" stroke-width="6.48"/>
<line x1="4627.145423" y1="1320.186841" x2="4572.67865" y2="1376.588837" stroke="black" stroke-width="6.48"/>
<line x1="4572.67865" y1="1376.588837" x2="4630.7898" y2="1432.706119" stroke="black" stroke-width="6.48"/>
<line x1="4585.762595" y1="1388.122848" x2="4639.679204" y2="1332.29057" stroke="black" stroke-width="6.48"/>
<line x1="4822.214749" y1="1617.563045" x2="4876.681525" y2="1561.161053" stroke="black" stroke-width="6.48"/>
<line x1="4876.681525" y1="1561.161053" x2="4818.000661" y2="1504.4936" stroke="black" stroke-width="6.48"/>
<line x1="4763.533885" y1="1560.895596" x2="4822.214749" y2="1617.563045" stroke="black" stroke-width="6.48"/>
<line x1="4810.231145" y1="1604.889601" x2="4864.147747" y2="1549.057324" stroke="black" stroke-width="6.48"/>
<line x1="4790.338931" y1="1267.488151" x2="4732.227785" y2="1211.370869" stroke="black" stroke-width="6.48"/>
<line x1="4732.227785" y1="1211.370869" x2="4677.761009" y2="1267.772868" stroke="black" stroke-width="6.48"/>
<line x1="4677.761009" y1="1267.772868" x2="4735.872158" y2="1323.890147" stroke="black" stroke-width="6.48"/>
<line x1="4690.29479" y1="1279.876594" x2="4744.761559" y2="1223.474598" stroke="black" stroke-width="6.48"/>
<line x1="4927.297111" y1="1508.747076" x2="4981.763887" y2="1452.345084" stroke="black" stroke-width="6.48"/>
<line x1="4981.763887" y1="1452.345084" x2="4923.083023" y2="1395.677628" stroke="black" stroke-width="6.48"/>
<line x1="4868.616247" y1="1452.079624" x2="4927.297111" y2="1508.747076" stroke="black" stroke-width="6.48"/>
<line x1="4914.763337" y1="1496.64335" x2="4969.230109" y2="1440.241355" stroke="black" stroke-width="6.48"/>
<line x1="3500.395942" y1="1075.623872" x2="3709.761145" y2="1075.623872" stroke="black" stroke-width="6.48"/>
<line x1="3709.761145" y1="1075.623872" x2="3709.761145" y2="744.409469" stroke="black" stroke-width="6.48"/>
<line x1="3709.761145" y1="744.409469" x2="3500.395942" y2="744.409469" stroke="black" stroke-width="6.48"/>
<line x1="3500.395942" y1="744.409469" x2="3500.395942" y2="1075.623872" stroke="black" stroke-width="6.48"/>
<line x1="3499.722742" y1="803.651069" x2="3710.434342" y2="803.651069" stroke="black" stroke-width="6.48"/>
<line x1="3710.434342" y1="803.651069" x2="3501.069142" y2="853.467872" stroke="black" stroke-width="6.48"/>
<line x1="3501.069142" y1="853.467872" x2="3532.709545" y2="899.918672" stroke="black" stroke-width="6.48"/>
<line x1="3532.709545" y1="899.918672" x2="3710.434342" y2="802.977872" stroke="black" stroke-width="6.48"/>
<line x1="3446.692866" y1="1202.985511" x2="3668.970031" y2="1202.985511" stroke="black" stroke-width="6.48"/>
<line x1="3668.970031" y1="1202.985511" x2="3668.970031" y2="1425.718163" stroke="black" stroke-width="6.48"/>
<line x1="3668.970031" y1="1425.718163" x2="3446.692866" y2="1425.718163" stroke="black" stroke-width="6.48"/>
<line x1="3446.692866" y1="1425.718163" x2="3446.692866" y2="1202.985511" stroke="black" stroke-width="6.48"/>
<line x1="3446.23738" y1="1202.530025" x2="3668.970031" y2="1425.718163" stroke="black" stroke-width="6.48"/>
<line x1="3446.692866" y1="1425.262676" x2="3668.514545" y2="1202.985511" stroke="black" stroke-width="6.48"/>
<line x1="2804.16708" y1="1127.69402" x2="2804.16708" y2="1153.148746" stroke="black" stroke-width="6.48"/>
<line x1="2804.16708" y1="1153.148746" x2="2853.834836" y2="1153.148746" stroke="black" stroke-width="6.48"/>
<line x1="2853.834836" y1="1153.148746" x2="2853.834836" y2="1127.69402" stroke="black" stroke-width="6.48"/>
<line x1="2853.834836" y1="1127.69402" x2="2804.16708" y2="1127.69402" stroke="black" stroke-width="6.48"/>
<line x1="2853.834836" y1="1402.108373" x2="3101.55277" y2="1402.108373" stroke="black" stroke-width="6.48"/>
<line x1="2802.925386" y1="1402.729218" x2="2802.925386" y2="1428.183943" stroke="black" stroke-width="6.48"/>
<line x1="2802.925386" y1="1428.183943" x2="2852.593142" y2="1428.183943" stroke="black" stroke-width="6.48"/>
<line x1="2852.593142" y1="1428.183943" x2="2852.593142" y2="1402.729218" stroke="black" stroke-width="6.48"/>
<line x1="2852.593142" y1="1402.729218" x2="2802.925386" y2="1402.729218" stroke="black" stroke-width="6.48"/>
<path d="m 2851.972294,1153.148746 a 248.95962699999984,248.95962699999984 0 0 1 248.95962699999973,248.95962699999995" fill="none" stroke="black" stroke-width="6.48"/>
<line x1="2961.584986" y1="2023.896989" x2="2890.37984" y2="2200.136126" stroke="black" stroke-width="6.48"/>
<line x1="2890.37984" y1="2200.136126" x2="3320.403336" y2="2373.876677" stroke="black" stroke-width="6.48"/>
<line x1="3320.403336" y1="2373.876677" x2="3391.608481" y2="2197.637539" stroke="black" stroke-width="6.48"/>
<line x1="3391.608481" y1="2197.637539" x2="3369.578591" y2="2188.736896" stroke="black" stroke-width="6.48"/>
<line x1="3369.578591" y1="2188.736896" x2="3306.918064" y2="2343.82734" stroke="black" stroke-width="6.48"/>
<line x1="3306.918064" y1="2343.82734" x2="2921.835546" y2="2188.244099" stroke="black" stroke-width="6.48"/>
<line x1="2921.835546" y1="2188.244099" x2="2984.496073" y2="2033.153658" stroke="black" stroke-width="6.48"/>
<line x1="2984.496073" y1="2033.153658" x2="2961.584986" y2="2023.896989" stroke="black" stroke-width="6.48"/>
<line x1="2982.35992" y1="2038.44083" x2="3367.442437" y2="2194.024072" stroke="black" stroke-width="6.48"/>
<line x1="3174.816604" y1="2115.173243" x2="3114.292234" y2="2264.976511" stroke="black" stroke-width="6.48"/>
<line x1="3675.196904" y1="1904.828944" x2="3444.569662" y2="1929.068845" stroke="black" stroke-width="6.48"/>
<line x1="3444.569662" y1="1929.068845" x2="3420.280091" y2="1697.969005" stroke="black" stroke-width="6.48"/>
<line x1="3420.280091" y1="1697.969005" x2="3650.90733" y2="1673.729104" stroke="black" stroke-width="6.48"/>
<line x1="3650.90733" y1="1673.729104" x2="3675.196904" y2="1904.828944" stroke="black" stroke-width="6.48"/>
<line x1="3675.719171" y1="1905.251868" x2="3420.280091" y2="1697.969005" stroke="black" stroke-width="6.48"/>
<line x1="3650.957003" y1="1674.201704" x2="3445.042262" y2="1929.019172" stroke="black" stroke-width="6.48"/>
<line x1="3079.021345" y1="1589.315879" x2="3065.967511" y2="1617.309914" stroke="black" stroke-width="6.48"/>
<line x1="3065.967511" y1="1617.309914" x2="3255.896275" y2="1705.875149" stroke="black" stroke-width="6.48"/>
<line x1="3255.896275" y1="1705.875149" x2="3268.950106" y2="1677.881113" stroke="black" stroke-width="6.48"/>
<line x1="3268.950106" y1="1677.881113" x2="3079.021345" y2="1589.315879" stroke="black" stroke-width="6.48"/>
<line x1="2992.866048" y1="1774.076508" x2="2979.812214" y2="1802.07054" stroke="black" stroke-width="6.48"/>
<line x1="2979.812214" y1="1802.07054" x2="3169.740974" y2="1890.635778" stroke="black" stroke-width="6.48"/>
<line x1="3169.740974" y1="1890.635778" x2="3182.794808" y2="1862.641742" stroke="black" stroke-width="6.48"/>
<line x1="3182.794808" y1="1862.641742" x2="2992.866048" y2="1774.076508" stroke="black" stroke-width="6.48"/>
<line x1="3066.168341" y1="1616.879236" x2="2992.866048" y2="1774.076508" stroke="black" stroke-width="6.48"/>
<line x1="3255.436573" y1="1704.612139" x2="3267.877457" y2="1739.775629" stroke="black" stroke-width="6.48"/>
<line x1="3216.666265" y1="1849.598377" x2="3181.732628" y2="1862.670766" stroke="black" stroke-width="6.48"/>
<line x1="3268.680768" y1="1738.052917" x2="3215.86295" y2="1851.321089" stroke="black" stroke-width="6.48"/>
<line x1="3106.451192" y1="1636.187764" x2="3033.1489" y2="1793.38504" stroke="black" stroke-width="6.48"/>
<line x1="1133.681638" y1="1709.157478" x2="1027.390208" y2="1866.740911" stroke="black" stroke-width="6.48"/>
<line x1="1027.390208" y1="1866.740911" x2="1411.893792" y2="2126.091985" stroke="black" stroke-width="6.48"/>
<line x1="1411.893792" y1="2126.091985" x2="1518.185218" y2="1968.508555" stroke="black" stroke-width="6.48"/>
<line x1="1518.185218" y1="1968.508555" x2="1498.487292" y2="1955.222129" stroke="black" stroke-width="6.48"/>
<line x1="1498.487292" y1="1955.222129" x2="1404.950839" y2="2093.895547" stroke="black" stroke-width="6.48"/>
<line x1="1404.950839" y1="2093.895547" x2="1060.631032" y2="1861.648783" stroke="black" stroke-width="6.48"/>
<line x1="1060.631032" y1="1861.648783" x2="1154.167484" y2="1722.975361" stroke="black" stroke-width="6.48"/>
<line x1="1154.167484" y1="1722.975361" x2="1133.681638" y2="1709.157478" stroke="black" stroke-width="6.48"/>
<line x1="1150.978741" y1="1727.702863" x2="1495.298549" y2="1959.949627" stroke="black" stroke-width="6.48"/>
<line x1="1323.276145" y1="1842.772597" x2="1232.928432" y2="1976.718521" stroke="black" stroke-width="6.48"/>
<line x1="2316.090323" y1="2281.406209" x2="2346.809116" y2="2284.634891" stroke="black" stroke-width="6.48"/>
<line x1="2346.809116" y1="2284.634891" x2="2368.714486" y2="2076.219706" stroke="black" stroke-width="6.48"/>
<line x1="2368.714486" y1="2076.219706" x2="2337.995693" y2="2072.991024" stroke="black" stroke-width="6.48"/>
<line x1="2337.995693" y1="2072.991024" x2="2316.090323" y2="2281.406209" stroke="black" stroke-width="6.48"/>
<line x1="2518.834349" y1="2302.715516" x2="2549.553138" y2="2305.944198" stroke="black" stroke-width="6.48"/>
<line x1="2549.553138" y1="2305.944198" x2="2571.458508" y2="2097.529013" stroke="black" stroke-width="6.48"/>
<line x1="2571.458508" y1="2097.529013" x2="2540.739719" y2="2094.300331" stroke="black" stroke-width="6.48"/>
<line x1="2540.739719" y1="2094.300331" x2="2518.834349" y2="2302.715516" stroke="black" stroke-width="6.48"/>
<line x1="2346.336518" y1="2284.585218" x2="2518.834349" y2="2302.715516" stroke="black" stroke-width="6.48"/>
<line x1="2367.669949" y1="2077.065554" x2="2396.867332" y2="2053.854367" stroke="black" stroke-width="6.48"/>
<line x1="2517.379513" y1="2066.520737" x2="2541.11297" y2="2095.295195" stroke="black" stroke-width="6.48"/>
<line x1="2394.976943" y1="2053.65568" x2="2519.269898" y2="2066.719424" stroke="black" stroke-width="6.48"/>
<line x1="2351.478287" y1="2240.210794" x2="2523.976117" y2="2258.341088" stroke="black" stroke-width="6.48"/>
<line x1="6056.41257" y1="1938.005075" x2="6059.641244" y2="1968.723868" stroke="black" stroke-width="6.48"/>
<line x1="6059.641244" y1="1968.723868" x2="6268.056433" y2="1946.818544" stroke="black" stroke-width="6.48"/>
<line x1="6268.056433" y1="1946.818544" x2="6264.827759" y2="1916.099755" stroke="black" stroke-width="6.48"/>
<line x1="6264.827759" y1="1916.099755" x2="6056.41257" y2="1938.005075" stroke="black" stroke-width="6.48"/>
<line x1="6077.721823" y1="2140.749101" x2="6080.950501" y2="2171.467894" stroke="black" stroke-width="6.48"/>
<line x1="6080.950501" y1="2171.467894" x2="6289.365694" y2="2149.562574" stroke="black" stroke-width="6.48"/>
<line x1="6289.365694" y1="2149.562574" x2="6286.137016" y2="2118.843785" stroke="black" stroke-width="6.48"/>
<line x1="6286.137016" y1="2118.843785" x2="6077.721823" y2="2140.749101" stroke="black" stroke-width="6.48"/>
<line x1="6059.591572" y1="1968.251267" x2="6077.721823" y2="2140.749101" stroke="black" stroke-width="6.48"/>
<line x1="6267.011897" y1="1945.972696" x2="6295.786348" y2="1969.70616" stroke="black" stroke-width="6.48"/>
<line x1="6308.452688" y1="2090.218345" x2="6285.241494" y2="2119.415724" stroke="black" stroke-width="6.48"/>
<line x1="6295.58766" y1="1967.815775" x2="6308.65138" y2="2092.108734" stroke="black" stroke-width="6.48"/>
<line x1="6104.065345" y1="1964.054707" x2="6122.195593" y2="2136.552541" stroke="black" stroke-width="6.48"/>
<line x1="540.757991" y1="209.073172" x2="811.305191" y2="209.073172" stroke="black" stroke-width="6.48"/>
<line x1="811.305191" y1="209.073172" x2="811.305191" y2="341.020372" stroke="black" stroke-width="6.48"/>
<line x1="540.757991" y1="341.020372" x2="811.305191" y2="341.020372" stroke="black" stroke-width="6.48"/>
<line x1="540.757991" y1="209.073172" x2="540.757991" y2="341.020372" stroke="black" stroke-width="6.48"/>
<line x1="547.410791" y1="215.725972" x2="685.456391" y2="215.725972" stroke="black" stroke-width="6.48"/>
<line x1="685.456391" y1="215.725972" x2="685.456391" y2="333.813172" stroke="black" stroke-width="6.48"/>
<line x1="547.410791" y1="333.813172" x2="685.456391" y2="333.813172" stroke="black" stroke-width="6.48"/>
<line x1="547.410791" y1="215.725972" x2="547.410791" y2="333.813172" stroke="black" stroke-width="6.48"/>
<line x1="699.870791" y1="223.487572" x2="796.890791" y2="223.487572" stroke="black" stroke-width="6.48"/>
<line x1="699.870791" y1="244.000372" x2="796.890791" y2="244.000372" stroke="black" stroke-width="6.48"/>
<line x1="700.425191" y1="265.067572" x2="797.445191" y2="265.067572" stroke="black" stroke-width="6.48"/>
<line x1="700.425191" y1="285.580372" x2="797.445191" y2="285.580372" stroke="black" stroke-width="6.48"/>
<line x1="699.870791" y1="306.093172" x2="796.890791" y2="306.093172" stroke="black" stroke-width="6.48"/>
<line x1="699.870791" y1="326.605972" x2="796.890791" y2="326.605972" stroke="black" stroke-width="6.48"/>
<line x1="600.078791" y1="333.813172" x2="600.078791" y2="319.953172" stroke="black" stroke-width="6.48"/>
<line x1="600.078791" y1="319.953172" x2="634.451591" y2="319.953172" stroke="black" stroke-width="6.48"/>
<line x1="634.451591" y1="319.953172" x2="634.451591" y2="333.258772" stroke="black" stroke-width="6.48"/>
<circle cx="669.933191" cy="230.694772" r="8.316000000000003" fill="none" stroke="black" stroke-width="6.48"/>
</g>
</svg>
