<?xml version="1.0"?>
<svg xmlns:xlink="http://www.w3.org/1999/xlink" width="6775.2" height="2858.4">
<image x="0" y="0" width="6775.2" height="2858.4" xlink:href="groundfilled-01.png"/>
<g style="stroke-linecap:round">
<line x1="1285.950406" y1="795.178109" x2="1311.346069" y2="795.178109" stroke="black" stroke-width="6.48"/>
<line x1="1311.346069" y1="795.178109" x2="1311.346069" y2="745.625592" stroke="black" stroke-width="6.48"/>
<line x1="1311.346069" y1="745.625592" x2="1285.950406" y2="745.625592" stroke="black" stroke-width="6.48"/>
<line x1="1285.950406" y1="745.625592" x2="1285.950406" y2="795.178109" stroke="black" stroke-width="6.48"/>
<line x1="1559.728062" y1="745.625592" x2="1559.728062" y2="498.48241" stroke="black" stroke-width="6.48"/>
<line x1="1560.347471" y1="796.416923" x2="1585.743134" y2="796.416923" stroke="black" stroke-width="6.48"/>
<line x1="1585.743134" y1="796.416923" x2="1585.743134" y2="746.864406" stroke="black" stroke-width="6.48"/>
<line x1="1585.743134" y1="746.864406" x2="1560.347471" y2="746.864406" stroke="black" stroke-width="6.48"/>
<line x1="1560.347471" y1="746.864406" x2="1560.347471" y2="796.416923" stroke="black" stroke-width="6.48"/>
<path d="m 1311.346069,747.483811 a 248.38199299999997,248.38199299999997 0 0 1 248.38199299999997,-248.38199299999997" fill="none" stroke="black" stroke-width="6.48"/>
<line x1="320.532556" y1="771.34176" x2="320.532556" y2="366.736194" stroke="black" stroke-width="6.48"/>
<line x1="320.532556" y1="366.736194" x2="258.159283" y2="366.736194" stroke="black" stroke-width="6.48"/>
<line x1="258.159283" y1="366.736194" x2="258.159283" y2="771.34176" stroke="black" stroke-width="6.48"/>
<line x1="258.159283" y1="771.34176" x2="320.532556" y2="771.34176" stroke="black" stroke-width="6.48"/>
<line x1="258.979986" y1="733.589518" x2="319.711856" y2="733.589518" stroke="black" stroke-width="6.48"/>
<line x1="258.979986" y1="405.309139" x2="322.173958" y2="405.309139" stroke="black" stroke-width="6.48"/>
<line x1="287.704519" y1="734.410217" x2="287.704519" y2="406.129838" stroke="black" stroke-width="6.48"/>
<line x1="3901.945176" y1="1169.331426" x2="3901.945176" y2="1428.837066" stroke="black" stroke-width="6.48"/>
<line x1="3901.945176" y1="1428.837066" x2="3941.9501" y2="1428.837066" stroke="black" stroke-width="6.48"/>
<line x1="3941.9501" y1="1428.837066" x2="3941.9501" y2="1169.331426" stroke="black" stroke-width="6.48"/>
<line x1="3941.9501" y1="1169.331426" x2="3901.945176" y2="1169.331426" stroke="black" stroke-width="6.48"/>
<line x1="3941.423719" y1="1193.544936" x2="3902.471557" y2="1193.544936" stroke="black" stroke-width="6.48"/>
<line x1="3941.423719" y1="1404.097178" x2="3900.892414" y2="1404.097178" stroke="black" stroke-width="6.48"/>
<line x1="3923.000399" y1="1193.018555" x2="3923.000399" y2="1403.570797" stroke="black" stroke-width="6.48"/>
<line x1="334.430687" y1="1882.943946" x2="334.430687" y2="1457.437414" stroke="black" stroke-width="6.48"/>
<line x1="334.430687" y1="1457.437414" x2="258.323828" y2="1457.437414" stroke="black" stroke-width="6.48"/>
<line x1="258.323828" y1="1457.437414" x2="258.323828" y2="1882.943946" stroke="black" stroke-width="6.48"/>
<line x1="258.323828" y1="1882.943946" x2="334.430687" y2="1882.943946" stroke="black" stroke-width="6.48"/>
<line x1="334.430687" y1="1863.05238" x2="360.376207" y2="1863.05238" stroke="black" stroke-width="6.48"/>
<line x1="360.376207" y1="1863.05238" x2="360.376207" y2="1478.193829" stroke="black" stroke-width="6.48"/>
<line x1="334.430687" y1="1478.193829" x2="360.376207" y2="1478.193829" stroke="black" stroke-width="6.48"/>
<line x1="2747.905531" y1="904.670665" x2="2721.68303" y2="904.670665" stroke="black" stroke-width="6.48"/>
<line x1="2721.68303" y1="904.670665" x2="2721.68303" y2="955.836522" stroke="black" stroke-width="6.48"/>
<line x1="2721.68303" y1="955.836522" x2="2747.905531" y2="955.836522" stroke="black" stroke-width="6.48"/>
<line x1="2747.905531" y1="955.836522" x2="2747.905531" y2="904.670665" stroke="black" stroke-width="6.48"/>
<line x1="2465.214181" y1="955.836522" x2="2465.214181" y2="1211.026223" stroke="black" stroke-width="6.48"/>
<line x1="2464.574609" y1="903.39152" x2="2438.352108" y2="903.39152" stroke="black" stroke-width="6.48"/>
<line x1="2438.352108" y1="903.39152" x2="2438.352108" y2="954.557374" stroke="black" stroke-width="6.48"/>
<line x1="2438.352108" y1="954.557374" x2="2464.574609" y2="954.557374" stroke="black" stroke-width="6.48"/>
<line x1="2464.574609" y1="954.557374" x2="2464.574609" y2="903.39152" stroke="black" stroke-width="6.48"/>
<path d="m 2721.68303,953.917801 a 256.4688490000001,256.4688490000001 0 0 1 -256.4688490000003,256.46884899999986" fill="none" stroke="black" stroke-width="6.48"/>
<line x1="2420.532389" y1="1427.858834" x2="2395.136725" y2="1427.858834" stroke="black" stroke-width="6.48"/>
<line x1="2395.136725" y1="1427.858834" x2="2395.136725" y2="1477.411351" stroke="black" stroke-width="6.48"/>
<line x1="2395.136725" y1="1477.411351" x2="2420.532389" y2="1477.411351" stroke="black" stroke-width="6.48"/>
<line x1="2420.532389" y1="1477.411351" x2="2420.532389" y2="1427.858834" stroke="black" stroke-width="6.48"/>
<line x1="2146.754732" y1="1477.411351" x2="2146.754732" y2="1724.554534" stroke="black" stroke-width="6.48"/>
<line x1="2146.135324" y1="1426.62002" x2="2120.73966" y2="1426.62002" stroke="black" stroke-width="6.48"/>
<line x1="2120.73966" y1="1426.62002" x2="2120.73966" y2="1476.172537" stroke="black" stroke-width="6.48"/>
<line x1="2120.73966" y1="1476.172537" x2="2146.135324" y2="1476.172537" stroke="black" stroke-width="6.48"/>
<line x1="2146.135324" y1="1476.172537" x2="2146.135324" y2="1426.62002" stroke="black" stroke-width="6.48"/>
<path d="m 2395.136725,1475.553132 a 248.38199299999997,248.38199299999997 0 0 1 -248.38199299999997,248.38199299999997" fill="none" stroke="black" stroke-width="6.48"/>
<line x1="622.825448" y1="541.339351" x2="854.723048" y2="541.339351" stroke="black" stroke-width="6.48"/>
<line x1="854.723048" y1="541.339351" x2="854.723048" y2="773.712151" stroke="black" stroke-width="6.48"/>
<line x1="854.723048" y1="773.712151" x2="622.825448" y2="773.712151" stroke="black" stroke-width="6.48"/>
<line x1="622.825448" y1="773.712151" x2="622.825448" y2="541.339351" stroke="black" stroke-width="6.48"/>
<line x1="622.350248" y1="540.864151" x2="854.723048" y2="773.712151" stroke="black" stroke-width="6.48"/>
<line x1="622.825448" y1="773.236951" x2="854.247848" y2="541.339351" stroke="black" stroke-width="6.48"/>
<line x1="1842.844367" y1="1908.066172" x2="2032.924367" y2="1908.066172" stroke="black" stroke-width="6.48"/>
<line x1="2032.924367" y1="1908.066172" x2="2032.924367" y2="1444.270972" stroke="black" stroke-width="6.48"/>
<line x1="2032.924367" y1="1444.270972" x2="1842.844367" y2="1444.270972" stroke="black" stroke-width="6.48"/>
<line x1="1842.844367" y1="1444.270972" x2="1842.844367" y2="1468.030972" stroke="black" stroke-width="6.48"/>
<line x1="1842.844367" y1="1468.030972" x2="2010.114767" y2="1468.030972" stroke="black" stroke-width="6.48"/>
<line x1="2010.114767" y1="1468.030972" x2="2010.114767" y2="1883.355772" stroke="black" stroke-width="6.48"/>
<line x1="2010.114767" y1="1883.355772" x2="1842.844367" y2="1883.355772" stroke="black" stroke-width="6.48"/>
<line x1="1842.844367" y1="1883.355772" x2="1842.844367" y2="1908.066172" stroke="black" stroke-width="6.48"/>
<line x1="1848.546767" y1="1883.355772" x2="1848.546767" y2="1468.030972" stroke="black" stroke-width="6.48"/>
<line x1="1847.596367" y1="1676.168572" x2="2009.164367" y2="1676.168572" stroke="black" stroke-width="6.48"/>
<line x1="1485.415969" y1="209.267824" x2="1707.693134" y2="209.267824" stroke="black" stroke-width="6.48"/>
<line x1="1707.693134" y1="209.267824" x2="1707.693134" y2="432.000475" stroke="black" stroke-width="6.48"/>
<line x1="1707.693134" y1="432.000475" x2="1485.415969" y2="432.000475" stroke="black" stroke-width="6.48"/>
<line x1="1485.415969" y1="432.000475" x2="1485.415969" y2="209.267824" stroke="black" stroke-width="6.48"/>
<line x1="1484.960483" y1="208.812337" x2="1707.693134" y2="432.000475" stroke="black" stroke-width="6.48"/>
<line x1="1485.415969" y1="431.544989" x2="1707.237648" y2="209.267824" stroke="black" stroke-width="6.48"/>
<line x1="2761.020558" y1="2194.614338" x2="2761.020558" y2="1803.366338" stroke="black" stroke-width="6.48"/>
<line x1="2761.020558" y1="1803.366338" x2="2586.780558" y2="1803.366338" stroke="black" stroke-width="6.48"/>
<line x1="2586.780558" y1="1803.366338" x2="2586.780558" y2="2194.614338" stroke="black" stroke-width="6.48"/>
<line x1="2586.780558" y1="2194.614338" x2="2761.020558" y2="2194.614338" stroke="black" stroke-width="6.48"/>
<line x1="2613.708558" y1="1878.606338" x2="2613.708558" y2="2162.934338" stroke="black" stroke-width="6.48"/>
<line x1="2613.708558" y1="2162.934338" x2="2731.716558" y2="2162.934338" stroke="black" stroke-width="6.48"/>
<line x1="2731.716558" y1="2162.934338" x2="2731.716558" y2="1873.062338" stroke="black" stroke-width="6.48"/>
<path d="m 2613.453134,1879.416911 a 63.3599990854681,63.3599990854681 0 0 1 119.3743300000001,-4.293814000000111" fill="none" stroke="black" stroke-width="6.48"/>
<line x1="2105.764405" y1="1900.955815" x2="2105.764405" y2="2084.699815" stroke="black" stroke-width="6.48"/>
<line x1="2105.764405" y1="2084.699815" x2="2056.660405" y2="2084.699815" stroke="black" stroke-width="6.48"/>
<line x1="2056.660405" y1="1900.955815" x2="2056.660405" y2="2084.699815" stroke="black" stroke-width="6.48"/>
<line x1="2105.764405" y1="1900.955815" x2="2056.660405" y2="1900.955815" stroke="black" stroke-width="6.48"/>
<line x1="2133.484405" y1="1942.535815" x2="2105.764405" y2="1942.535815" stroke="black" stroke-width="6.48"/>
<line x1="2105.764405" y1="2041.535815" x2="2135.068405" y2="2041.535815" stroke="black" stroke-width="6.48"/>
<circle cx="2178.628405" cy="1991.243815" r="66.52800000000002" fill="none" stroke="black" stroke-width="6.48"/>
<circle cx="2178.628405" cy="1991.243815" r="57.02400000000001" fill="none" stroke="black" stroke-width="6.48"/>
<line x1="638.708346" y1="209.312658" x2="909.255546" y2="209.312658" stroke="black" stroke-width="6.48"/>
<line x1="909.255546" y1="209.312658" x2="909.255546" y2="341.259858" stroke="black" stroke-width="6.48"/>
<line x1="638.708346" y1="341.259858" x2="909.255546" y2="341.259858" stroke="black" stroke-width="6.48"/>
<line x1="638.708346" y1="209.312658" x2="638.708346" y2="341.259858" stroke="black" stroke-width="6.48"/>
<line x1="645.361146" y1="215.965458" x2="783.406746" y2="215.965458" stroke="black" stroke-width="6.48"/>
<line x1="783.406746" y1="215.965458" x2="783.406746" y2="334.052658" stroke="black" stroke-width="6.48"/>
<line x1="645.361146" y1="334.052658" x2="783.406746" y2="334.052658" stroke="black" stroke-width="6.48"/>
<line x1="645.361146" y1="215.965458" x2="645.361146" y2="334.052658" stroke="black" stroke-width="6.48"/>
<line x1="797.821146" y1="223.727058" x2="894.841146" y2="223.727058" stroke="black" stroke-width="6.48"/>
<line x1="797.821146" y1="244.239858" x2="894.841146" y2="244.239858" stroke="black" stroke-width="6.48"/>
<line x1="798.375546" y1="265.307058" x2="895.395546" y2="265.307058" stroke="black" stroke-width="6.48"/>
<line x1="798.375546" y1="285.819858" x2="895.395546" y2="285.819858" stroke="black" stroke-width="6.48"/>
<line x1="797.821146" y1="306.332658" x2="894.841146" y2="306.332658" stroke="black" stroke-width="6.48"/>
<line x1="797.821146" y1="326.845458" x2="894.841146" y2="326.845458" stroke="black" stroke-width="6.48"/>
<line x1="698.029146" y1="334.052658" x2="698.029146" y2="320.192658" stroke="black" stroke-width="6.48"/>
<line x1="698.029146" y1="320.192658" x2="732.401946" y2="320.192658" stroke="black" stroke-width="6.48"/>
<line x1="732.401946" y1="320.192658" x2="732.401946" y2="333.498258" stroke="black" stroke-width="6.48"/>
<circle cx="767.883546" cy="230.934258" r="8.316000000000003" fill="none" stroke="black" stroke-width="6.48"/>
<line x1="2044.889399" y1="955.822399" x2="2267.166564" y2="955.822399" stroke="black" stroke-width="6.48"/>
<line x1="2267.166564" y1="955.822399" x2="2267.166564" y2="1178.555051" stroke="black" stroke-width="6.48"/>
<line x1="2267.166564" y1="1178.555051" x2="2044.889399" y2="1178.555051" stroke="black" stroke-width="6.48"/>
<line x1="2044.889399" y1="1178.555051" x2="2044.889399" y2="955.822399" stroke="black" stroke-width="6.48"/>
<line x1="2044.433912" y1="955.366913" x2="2267.166564" y2="1178.555051" stroke="black" stroke-width="6.48"/>
<line x1="2044.889399" y1="1178.099564" x2="2266.711078" y2="955.822399" stroke="black" stroke-width="6.48"/>
<line x1="323.258818" y1="1375.374532" x2="323.258818" y2="949.841089" stroke="black" stroke-width="6.48"/>
<line x1="323.258818" y1="949.841089" x2="257.659344" y2="949.841089" stroke="black" stroke-width="6.48"/>
<line x1="257.659344" y1="949.841089" x2="257.659344" y2="1375.374532" stroke="black" stroke-width="6.48"/>
<line x1="257.659344" y1="1375.374532" x2="323.258818" y2="1375.374532" stroke="black" stroke-width="6.48"/>
<line x1="258.522494" y1="1335.669588" x2="322.395667" y2="1335.669588" stroke="black" stroke-width="6.48"/>
<line x1="258.522494" y1="990.409187" x2="324.985122" y2="990.409187" stroke="black" stroke-width="6.48"/>
<line x1="288.73278" y1="1336.532738" x2="288.73278" y2="991.272337" stroke="black" stroke-width="6.48"/>
<line x1="3874.406537" y1="1514.726719" x2="3874.406537" y2="1940.260162" stroke="black" stroke-width="6.48"/>
<line x1="3874.406537" y1="1940.260162" x2="3940.00601" y2="1940.260162" stroke="black" stroke-width="6.48"/>
<line x1="3940.00601" y1="1940.260162" x2="3940.00601" y2="1514.726719" stroke="black" stroke-width="6.48"/>
<line x1="3940.00601" y1="1514.726719" x2="3874.406537" y2="1514.726719" stroke="black" stroke-width="6.48"/>
<line x1="3939.14286" y1="1554.431663" x2="3875.269687" y2="1554.431663" stroke="black" stroke-width="6.48"/>
<line x1="3939.14286" y1="1899.692064" x2="3872.680232" y2="1899.692064" stroke="black" stroke-width="6.48"/>
<line x1="3908.932574" y1="1553.568512" x2="3908.932574" y2="1898.828914" stroke="black" stroke-width="6.48"/>
<line x1="5265.379048" y1="1777.989334" x2="5251.57025" y2="1909.371244" stroke="black" stroke-width="6.48"/>
<line x1="5251.57025" y1="1909.371244" x2="5237.392345" y2="1907.881085" stroke="black" stroke-width="6.48"/>
<line x1="5251.201142" y1="1776.499171" x2="5237.392345" y2="1907.881085" stroke="black" stroke-width="6.48"/>
<line x1="5265.379048" y1="1777.989334" x2="5251.201142" y2="1776.499171" stroke="black" stroke-width="6.48"/>
<line x1="5249.810326" y1="1789.731886" x2="5218.817627" y2="1784.56315" stroke="black" stroke-width="6.48"/>
<line x1="5238.783158" y1="1894.648374" x2="5206.44789" y2="1893.16107" stroke="black" stroke-width="6.48"/>
<line x1="4806.960145" y1="1729.80756" x2="4793.151352" y2="1861.189474" stroke="black" stroke-width="6.48"/>
<line x1="4793.151352" y1="1861.189474" x2="4806.384059" y2="1862.58029" stroke="black" stroke-width="6.48"/>
<line x1="4820.192856" y1="1731.198377" x2="4806.384059" y2="1862.58029" stroke="black" stroke-width="6.48"/>
<line x1="4806.960145" y1="1729.80756" x2="4820.192856" y2="1731.198377" stroke="black" stroke-width="6.48"/>
<line x1="4820.79177" y1="1743.684581" x2="4852.181848" y2="1745.072539" stroke="black" stroke-width="6.48"/>
<line x1="4809.764603" y1="1848.601069" x2="4841.603154" y2="1854.814342" stroke="black" stroke-width="6.48"/>
<line x1="5070.964612" y1="2054.758057" x2="5072.454774" y2="2040.580152" stroke="black" stroke-width="6.48"/>
<line x1="5072.454774" y1="2040.580152" x2="4941.072857" y2="2026.771358" stroke="black" stroke-width="6.48"/>
<line x1="4939.582702" y1="2040.949264" x2="4941.072857" y2="2026.771358" stroke="black" stroke-width="6.48"/>
<line x1="5070.964612" y1="2054.758057" x2="4939.582702" y2="2040.949264" stroke="black" stroke-width="6.48"/>
<line x1="4955.250762" y1="2028.261514" x2="4955.792872" y2="1995.8269" stroke="black" stroke-width="6.48"/>
<line x1="5059.22206" y1="2039.189339" x2="5064.490138" y2="2007.251446" stroke="black" stroke-width="6.48"/>
<line x1="5119.99223" y1="1597.383695" x2="5118.502072" y2="1611.561596" stroke="black" stroke-width="6.48"/>
<line x1="5118.502072" y1="1611.561596" x2="4987.120162" y2="1597.752803" stroke="black" stroke-width="6.48"/>
<line x1="4988.610317" y1="1583.574898" x2="4987.120162" y2="1597.752803" stroke="black" stroke-width="6.48"/>
<line x1="5119.99223" y1="1597.383695" x2="4988.610317" y2="1583.574898" stroke="black" stroke-width="6.48"/>
<line x1="5001.298067" y1="1599.242958" x2="4995.084794" y2="1631.081509" stroke="black" stroke-width="6.48"/>
<line x1="5105.269364" y1="1610.170783" x2="5103.78206" y2="1642.506055" stroke="black" stroke-width="6.48"/>
<circle cx="5029.787466" cy="1819.166476" r="191.98080000000002" fill="none" stroke="black" stroke-width="6.48"/>
<line x1="3350.566958" y1="1075.129387" x2="3559.932162" y2="1075.129387" stroke="black" stroke-width="6.48"/>
<line x1="3559.932162" y1="1075.129387" x2="3559.932162" y2="743.914984" stroke="black" stroke-width="6.48"/>
<line x1="3559.932162" y1="743.914984" x2="3350.566958" y2="743.914984" stroke="black" stroke-width="6.48"/>
<line x1="3350.566958" y1="743.914984" x2="3350.566958" y2="1075.129387" stroke="black" stroke-width="6.48"/>
<line x1="3349.893758" y1="803.156584" x2="3560.605358" y2="803.156584" stroke="black" stroke-width="6.48"/>
<line x1="3560.605358" y1="803.156584" x2="3351.240158" y2="852.973387" stroke="black" stroke-width="6.48"/>
<line x1="3351.240158" y1="852.973387" x2="3382.880562" y2="899.424187" stroke="black" stroke-width="6.48"/>
<line x1="3382.880562" y1="899.424187" x2="3560.605358" y2="802.483387" stroke="black" stroke-width="6.48"/>
<line x1="3543.256987" y1="1202.594566" x2="3765.534152" y2="1202.594566" stroke="black" stroke-width="6.48"/>
<line x1="3765.534152" y1="1202.594566" x2="3765.534152" y2="1425.327217" stroke="black" stroke-width="6.48"/>
<line x1="3765.534152" y1="1425.327217" x2="3543.256987" y2="1425.327217" stroke="black" stroke-width="6.48"/>
<line x1="3543.256987" y1="1425.327217" x2="3543.256987" y2="1202.594566" stroke="black" stroke-width="6.48"/>
<line x1="3542.801501" y1="1202.139079" x2="3765.534152" y2="1425.327217" stroke="black" stroke-width="6.48"/>
<line x1="3543.256987" y1="1424.871731" x2="3765.078666" y2="1202.594566" stroke="black" stroke-width="6.48"/>
<line x1="2804.16708" y1="1127.69402" x2="2804.16708" y2="1153.148746" stroke="black" stroke-width="6.48"/>
<line x1="2804.16708" y1="1153.148746" x2="2853.834836" y2="1153.148746" stroke="black" stroke-width="6.48"/>
<line x1="2853.834836" y1="1153.148746" x2="2853.834836" y2="1127.69402" stroke="black" stroke-width="6.48"/>
<line x1="2853.834836" y1="1127.69402" x2="2804.16708" y2="1127.69402" stroke="black" stroke-width="6.48"/>
<line x1="2853.834836" y1="1402.108373" x2="3101.55277" y2="1402.108373" stroke="black" stroke-width="6.48"/>
<line x1="2802.925386" y1="1402.729218" x2="2802.925386" y2="1428.183943" stroke="black" stroke-width="6.48"/>
<line x1="2802.925386" y1="1428.183943" x2="2852.593142" y2="1428.183943" stroke="black" stroke-width="6.48"/>
<line x1="2852.593142" y1="1428.183943" x2="2852.593142" y2="1402.729218" stroke="black" stroke-width="6.48"/>
<line x1="2852.593142" y1="1402.729218" x2="2802.925386" y2="1402.729218" stroke="black" stroke-width="6.48"/>
<path d="m 2851.972294,1153.148746 a 248.95962699999984,248.95962699999984 0 0 1 248.95962699999973,248.95962699999995" fill="none" stroke="black" stroke-width="6.48"/>
<line x1="3660.0687" y1="1681.711708" x2="3668.161806" y2="1913.468044" stroke="black" stroke-width="6.48"/>
<line x1="3668.161806" y1="1913.468044" x2="3435.930565" y2="1921.577735" stroke="black" stroke-width="6.48"/>
<line x1="3435.930565" y1="1921.577735" x2="3427.837456" y2="1689.821402" stroke="black" stroke-width="6.48"/>
<line x1="3427.837456" y1="1689.821402" x2="3660.0687" y2="1681.711708" stroke="black" stroke-width="6.48"/>
<line x1="3660.527027" y1="1681.220214" x2="3435.930565" y2="1921.577735" stroke="black" stroke-width="6.48"/>
<line x1="3428.312364" y1="1689.804821" x2="3668.145224" y2="1912.993132" stroke="black" stroke-width="6.48"/>
<line x1="3031.233131" y1="1589.315879" x2="3026.401182" y2="1619.823596" stroke="black" stroke-width="6.48"/>
<line x1="3026.401182" y1="1619.823596" x2="3233.384312" y2="1652.606503" stroke="black" stroke-width="6.48"/>
<line x1="3233.384312" y1="1652.606503" x2="3238.216261" y2="1622.098786" stroke="black" stroke-width="6.48"/>
<line x1="3238.216261" y1="1622.098786" x2="3031.233131" y2="1589.315879" stroke="black" stroke-width="6.48"/>
<line x1="2999.342279" y1="1790.666816" x2="2994.51033" y2="1821.17453" stroke="black" stroke-width="6.48"/>
<line x1="2994.51033" y1="1821.17453" x2="3201.493457" y2="1853.957441" stroke="black" stroke-width="6.48"/>
<line x1="3201.493457" y1="1853.957441" x2="3206.325406" y2="1823.44972" stroke="black" stroke-width="6.48"/>
<line x1="3206.325406" y1="1823.44972" x2="2999.342279" y2="1790.666816" stroke="black" stroke-width="6.48"/>
<line x1="3026.475518" y1="1619.354243" x2="2999.342279" y2="1790.666816" stroke="black" stroke-width="6.48"/>
<line x1="3232.594289" y1="1651.519127" x2="3254.245603" y2="1681.891268" stroke="black" stroke-width="6.48"/>
<line x1="3235.289501" y1="1801.575396" x2="3205.312369" y2="1823.770393" stroke="black" stroke-width="6.48"/>
<line x1="3254.542952" y1="1680.013872" x2="3234.992148" y2="1803.452792" stroke="black" stroke-width="6.48"/>
<line x1="3070.520039" y1="1626.811337" x2="3043.386792" y2="1798.123903" stroke="black" stroke-width="6.48"/>
<line x1="3840.070216" y1="1134.752281" x2="3838.453664" y2="1103.906614" stroke="black" stroke-width="6.48"/>
<line x1="3838.453664" y1="1103.906614" x2="3629.177665" y2="1114.874305" stroke="black" stroke-width="6.48"/>
<line x1="3629.177665" y1="1114.874305" x2="3630.794216" y2="1145.719973" stroke="black" stroke-width="6.48"/>
<line x1="3630.794216" y1="1145.719973" x2="3840.070216" y2="1134.752281" stroke="black" stroke-width="6.48"/>
<line x1="3829.400968" y1="931.17087" x2="3827.784416" y2="900.325199" stroke="black" stroke-width="6.48"/>
<line x1="3827.784416" y1="900.325199" x2="3618.508414" y2="911.292887" stroke="black" stroke-width="6.48"/>
<line x1="3618.508414" y1="911.292887" x2="3620.124965" y2="942.138562" stroke="black" stroke-width="6.48"/>
<line x1="3620.124965" y1="942.138562" x2="3829.400968" y2="931.17087" stroke="black" stroke-width="6.48"/>
<line x1="3838.478533" y1="1104.381162" x2="3829.400968" y2="931.17087" stroke="black" stroke-width="6.48"/>
<line x1="3630.176503" y1="1115.773661" x2="3602.683598" y2="1090.566785" stroke="black" stroke-width="6.48"/>
<line x1="3596.341738" y1="969.556853" x2="3621.049193" y2="941.614268" stroke="black" stroke-width="6.48"/>
<line x1="3602.783077" y1="1092.464978" x2="3596.242259" y2="967.658656" stroke="black" stroke-width="6.48"/>
<line x1="3793.846082" y1="1106.244396" x2="3784.768517" y2="933.034104" stroke="black" stroke-width="6.48"/>
<line x1="2271.86437" y1="2274.574558" x2="2302.583162" y2="2277.803239" stroke="black" stroke-width="6.48"/>
<line x1="2302.583162" y1="2277.803239" x2="2324.488532" y2="2069.388054" stroke="black" stroke-width="6.48"/>
<line x1="2324.488532" y1="2069.388054" x2="2293.76974" y2="2066.159372" stroke="black" stroke-width="6.48"/>
<line x1="2293.76974" y1="2066.159372" x2="2271.86437" y2="2274.574558" stroke="black" stroke-width="6.48"/>
<line x1="2474.608396" y1="2295.883865" x2="2505.327185" y2="2299.112546" stroke="black" stroke-width="6.48"/>
<line x1="2505.327185" y1="2299.112546" x2="2527.232555" y2="2090.697361" stroke="black" stroke-width="6.48"/>
<line x1="2527.232555" y1="2090.697361" x2="2496.513766" y2="2087.46868" stroke="black" stroke-width="6.48"/>
<line x1="2496.513766" y1="2087.46868" x2="2474.608396" y2="2295.883865" stroke="black" stroke-width="6.48"/>
<line x1="2302.110565" y1="2277.753566" x2="2474.608396" y2="2295.883865" stroke="black" stroke-width="6.48"/>
<line x1="2323.443996" y1="2070.233903" x2="2352.641378" y2="2047.022716" stroke="black" stroke-width="6.48"/>
<line x1="2473.15356" y1="2059.689085" x2="2496.887017" y2="2088.463543" stroke="black" stroke-width="6.48"/>
<line x1="2350.75099" y1="2046.824028" x2="2475.043945" y2="2059.887773" stroke="black" stroke-width="6.48"/>
<line x1="2307.252334" y1="2233.379142" x2="2479.750164" y2="2251.509437" stroke="black" stroke-width="6.48"/>
<line x1="1007.82806" y1="210.215153" x2="1278.37526" y2="210.215153" stroke="black" stroke-width="6.48"/>
<line x1="1278.37526" y1="210.215153" x2="1278.37526" y2="342.162353" stroke="black" stroke-width="6.48"/>
<line x1="1007.82806" y1="342.162353" x2="1278.37526" y2="342.162353" stroke="black" stroke-width="6.48"/>
<line x1="1007.82806" y1="210.215153" x2="1007.82806" y2="342.162353" stroke="black" stroke-width="6.48"/>
<line x1="1014.48086" y1="216.867953" x2="1152.52646" y2="216.867953" stroke="black" stroke-width="6.48"/>
<line x1="1152.52646" y1="216.867953" x2="1152.52646" y2="334.955153" stroke="black" stroke-width="6.48"/>
<line x1="1014.48086" y1="334.955153" x2="1152.52646" y2="334.955153" stroke="black" stroke-width="6.48"/>
<line x1="1014.48086" y1="216.867953" x2="1014.48086" y2="334.955153" stroke="black" stroke-width="6.48"/>
<line x1="1166.94086" y1="224.629553" x2="1263.96086" y2="224.629553" stroke="black" stroke-width="6.48"/>
<line x1="1166.94086" y1="245.142353" x2="1263.96086" y2="245.142353" stroke="black" stroke-width="6.48"/>
<line x1="1167.49526" y1="266.209553" x2="1264.51526" y2="266.209553" stroke="black" stroke-width="6.48"/>
<line x1="1167.49526" y1="286.722353" x2="1264.51526" y2="286.722353" stroke="black" stroke-width="6.48"/>
<line x1="1166.94086" y1="307.235153" x2="1263.96086" y2="307.235153" stroke="black" stroke-width="6.48"/>
<line x1="1166.94086" y1="327.747953" x2="1263.96086" y2="327.747953" stroke="black" stroke-width="6.48"/>
<line x1="1067.14886" y1="334.955153" x2="1067.14886" y2="321.095153" stroke="black" stroke-width="6.48"/>
<line x1="1067.14886" y1="321.095153" x2="1101.52166" y2="321.095153" stroke="black" stroke-width="6.48"/>
<line x1="1101.52166" y1="321.095153" x2="1101.52166" y2="334.400753" stroke="black" stroke-width="6.48"/>
<circle cx="1137.00326" cy="231.836753" r="8.316000000000003" fill="none" stroke="black" stroke-width="6.48"/>
<line x1="1477.920683" y1="2090.935501" x2="1671.783682" y2="2169.261292" stroke="black" stroke-width="6.48"/>
<line x1="1671.783682" y1="2169.261292" x2="1758.654104" y2="1954.2496" stroke="black" stroke-width="6.48"/>
<line x1="1758.654104" y1="1954.2496" x2="1564.791102" y2="1875.923809" stroke="black" stroke-width="6.48"/>
<line x1="1564.791102" y1="1875.923809" x2="1477.920683" y2="2090.935501" stroke="black" stroke-width="6.48"/>
<line x1="1490.025575" y1="2060.974854" x2="1683.888577" y2="2139.300644" stroke="black" stroke-width="6.48"/>
<line x1="6092.590655" y1="1585.466474" x2="5902.510655" y2="1585.466474" stroke="black" stroke-width="6.48"/>
<line x1="5902.510655" y1="1585.466474" x2="5902.510655" y2="2049.261674" stroke="black" stroke-width="6.48"/>
<line x1="5902.510655" y1="2049.261674" x2="6092.590655" y2="2049.261674" stroke="black" stroke-width="6.48"/>
<line x1="6092.590655" y1="2049.261674" x2="6092.590655" y2="2025.501674" stroke="black" stroke-width="6.48"/>
<line x1="6092.590655" y1="2025.501674" x2="5925.320255" y2="2025.501674" stroke="black" stroke-width="6.48"/>
<line x1="5925.320255" y1="2025.501674" x2="5925.320255" y2="1610.176874" stroke="black" stroke-width="6.48"/>
<line x1="5925.320255" y1="1610.176874" x2="6092.590655" y2="1610.176874" stroke="black" stroke-width="6.48"/>
<line x1="6092.590655" y1="1610.176874" x2="6092.590655" y2="1585.466474" stroke="black" stroke-width="6.48"/>
<line x1="6086.888255" y1="1610.176874" x2="6086.888255" y2="2025.501674" stroke="black" stroke-width="6.48"/>
<line x1="6087.838655" y1="1817.364074" x2="5926.270655" y2="1817.364074" stroke="black" stroke-width="6.48"/>
<line x1="1329.116861" y1="1243.237806" x2="964.889377" y2="1390.395262" stroke="black" stroke-width="6.48"/>
<line x1="964.889377" y1="1390.395262" x2="1034.017776" y2="1561.494064" stroke="black" stroke-width="6.48"/>
<line x1="1034.017776" y1="1561.494064" x2="1398.245267" y2="1414.336608" stroke="black" stroke-width="6.48"/>
<line x1="1398.245267" y1="1414.336608" x2="1329.116861" y2="1243.237806" stroke="black" stroke-width="6.48"/>
<line x1="1250.645015" y1="1473.970979" x2="1280.907234" y2="1548.872597" stroke="black" stroke-width="6.48"/>
<line x1="1280.907234" y1="1548.872597" x2="1353.605868" y2="1519.500445" stroke="black" stroke-width="6.48"/>
<line x1="1353.605868" y1="1519.500445" x2="1323.343645" y2="1444.598824" stroke="black" stroke-width="6.48"/>
<line x1="1346.344391" y1="1503.641884" x2="1274.380088" y2="1532.717352" stroke="black" stroke-width="6.48"/>
<line x1="1223.656337" y1="1197.864076" x2="1150.957706" y2="1227.236231" stroke="black" stroke-width="6.48"/>
<line x1="1150.957706" y1="1227.236231" x2="1181.516609" y2="1302.87218" stroke="black" stroke-width="6.48"/>
<line x1="1254.215243" y1="1273.500029" x2="1223.656337" y2="1197.864076" stroke="black" stroke-width="6.48"/>
<line x1="1229.449151" y1="1214.316018" x2="1157.484852" y2="1243.391483" stroke="black" stroke-width="6.48"/>
<line x1="1110.388057" y1="1530.638471" x2="1140.650276" y2="1605.540089" stroke="black" stroke-width="6.48"/>
<line x1="1140.650276" y1="1605.540089" x2="1213.348907" y2="1576.167937" stroke="black" stroke-width="6.48"/>
<line x1="1213.348907" y1="1576.167937" x2="1183.086691" y2="1501.266316" stroke="black" stroke-width="6.48"/>
<line x1="1206.821761" y1="1560.012685" x2="1134.123131" y2="1589.384837" stroke="black" stroke-width="6.48"/>
<line x1="1083.399379" y1="1254.531564" x2="1010.700745" y2="1283.903719" stroke="black" stroke-width="6.48"/>
<line x1="1010.700745" y1="1283.903719" x2="1041.259655" y2="1359.539669" stroke="black" stroke-width="6.48"/>
<line x1="1113.958285" y1="1330.167517" x2="1083.399379" y2="1254.531564" stroke="black" stroke-width="6.48"/>
<line x1="1089.926525" y1="1270.686816" x2="1017.227891" y2="1300.058971" stroke="black" stroke-width="6.48"/>
</g>
</svg>
