<?xml version="1.0"?>
<svg xmlns:xlink="http://www.w3.org/1999/xlink" width="6775.2" height="2858.4">
<image x="0" y="0" width="6775.2" height="2858.4" xlink:href="groundfilled-01.png"/>
<g style="stroke-linecap:round">
<line x1="1285.950406" y1="795.178109" x2="1311.346069" y2="795.178109" stroke="black" stroke-width="6.48"/>
<line x1="1311.346069" y1="795.178109" x2="1311.346069" y2="745.625592" stroke="black" stroke-width="6.48"/>
<line x1="1311.346069" y1="745.625592" x2="1285.950406" y2="745.625592" stroke="black" stroke-width="6.48"/>
<line x1="1285.950406" y1="745.625592" x2="1285.950406" y2="795.178109" stroke="black" stroke-width="6.48"/>
<line x1="1559.728062" y1="745.625592" x2="1559.728062" y2="498.48241" stroke="black" stroke-width="6.48"/>
<line x1="1560.347471" y1="796.416923" x2="1585.743134" y2="796.416923" stroke="black" stroke-width="6.48"/>
<line x1="1585.743134" y1="796.416923" x2="1585.743134" y2="746.864406" stroke="black" stroke-width="6.48"/>
<line x1="1585.743134" y1="746.864406" x2="1560.347471" y2="746.864406" stroke="black" stroke-width="6.48"/>
<line x1="1560.347471" y1="746.864406" x2="1560.347471" y2="796.416923" stroke="black" stroke-width="6.48"/>
<path d="m 1311.346069,747.483811 a 248.38199299999997,248.38199299999997 0 0 1 248.38199299999997,-248.38199299999997" fill="none" stroke="black" stroke-width="6.48"/>
<line x1="320.532556" y1="771.34176" x2="320.532556" y2="366.736194" stroke="black" stroke-width="6.48"/>
<line x1="320.532556" y1="366.736194" x2="258.159283" y2="366.736194" stroke="black" stroke-width="6.48"/>
<line x1="258.159283" y1="366.736194" x2="258.159283" y2="771.34176" stroke="black" stroke-width="6.48"/>
<line x1="258.159283" y1="771.34176" x2="320.532556" y2="771.34176" stroke="black" stroke-width="6.48"/>
<line x1="258.979986" y1="733.589518" x2="319.711856" y2="733.589518" stroke="black" stroke-width="6.48"/>
<line x1="258.979986" y1="405.309139" x2="322.173958" y2="405.309139" stroke="black" stroke-width="6.48"/>
<line x1="287.704519" y1="734.410217" x2="287.704519" y2="406.129838" stroke="black" stroke-width="6.48"/>
<line x1="3901.945176" y1="1169.331426" x2="3901.945176" y2="1428.837066" stroke="black" stroke-width="6.48"/>
<line x1="3901.945176" y1="1428.837066" x2="3941.9501" y2="1428.837066" stroke="black" stroke-width="6.48"/>
<line x1="3941.9501" y1="1428.837066" x2="3941.9501" y2="1169.331426" stroke="black" stroke-width="6.48"/>
<line x1="3941.9501" y1="1169.331426" x2="3901.945176" y2="1169.331426" stroke="black" stroke-width="6.48"/>
<line x1="3941.423719" y1="1193.544936" x2="3902.471557" y2="1193.544936" stroke="black" stroke-width="6.48"/>
<line x1="3941.423719" y1="1404.097178" x2="3900.892414" y2="1404.097178" stroke="black" stroke-width="6.48"/>
<line x1="3923.000399" y1="1193.018555" x2="3923.000399" y2="1403.570797" stroke="black" stroke-width="6.48"/>
<line x1="334.430687" y1="1882.943946" x2="334.430687" y2="1457.437414" stroke="black" stroke-width="6.48"/>
<line x1="334.430687" y1="1457.437414" x2="258.323828" y2="1457.437414" stroke="black" stroke-width="6.48"/>
<line x1="258.323828" y1="1457.437414" x2="258.323828" y2="1882.943946" stroke="black" stroke-width="6.48"/>
<line x1="258.323828" y1="1882.943946" x2="334.430687" y2="1882.943946" stroke="black" stroke-width="6.48"/>
<line x1="334.430687" y1="1863.05238" x2="360.376207" y2="1863.05238" stroke="black" stroke-width="6.48"/>
<line x1="360.376207" y1="1863.05238" x2="360.376207" y2="1478.193829" stroke="black" stroke-width="6.48"/>
<line x1="334.430687" y1="1478.193829" x2="360.376207" y2="1478.193829" stroke="black" stroke-width="6.48"/>
<line x1="2747.905531" y1="904.670665" x2="2721.68303" y2="904.670665" stroke="black" stroke-width="6.48"/>
<line x1="2721.68303" y1="904.670665" x2="2721.68303" y2="955.836522" stroke="black" stroke-width="6.48"/>
<line x1="2721.68303" y1="955.836522" x2="2747.905531" y2="955.836522" stroke="black" stroke-width="6.48"/>
<line x1="2747.905531" y1="955.836522" x2="2747.905531" y2="904.670665" stroke="black" stroke-width="6.48"/>
<line x1="2465.214181" y1="955.836522" x2="2465.214181" y2="1211.026223" stroke="black" stroke-width="6.48"/>
<line x1="2464.574609" y1="903.39152" x2="2438.352108" y2="903.39152" stroke="black" stroke-width="6.48"/>
<line x1="2438.352108" y1="903.39152" x2="2438.352108" y2="954.557374" stroke="black" stroke-width="6.48"/>
<line x1="2438.352108" y1="954.557374" x2="2464.574609" y2="954.557374" stroke="black" stroke-width="6.48"/>
<line x1="2464.574609" y1="954.557374" x2="2464.574609" y2="903.39152" stroke="black" stroke-width="6.48"/>
<path d="m 2721.68303,953.917801 a 256.4688490000001,256.4688490000001 0 0 1 -256.4688490000003,256.46884899999986" fill="none" stroke="black" stroke-width="6.48"/>
<line x1="2420.532389" y1="1427.858834" x2="2395.136725" y2="1427.858834" stroke="black" stroke-width="6.48"/>
<line x1="2395.136725" y1="1427.858834" x2="2395.136725" y2="1477.411351" stroke="black" stroke-width="6.48"/>
<line x1="2395.136725" y1="1477.411351" x2="2420.532389" y2="1477.411351" stroke="black" stroke-width="6.48"/>
<line x1="2420.532389" y1="1477.411351" x2="2420.532389" y2="1427.858834" stroke="black" stroke-width="6.48"/>
<line x1="2146.754732" y1="1477.411351" x2="2146.754732" y2="1724.554534" stroke="black" stroke-width="6.48"/>
<line x1="2146.135324" y1="1426.62002" x2="2120.73966" y2="1426.62002" stroke="black" stroke-width="6.48"/>
<line x1="2120.73966" y1="1426.62002" x2="2120.73966" y2="1476.172537" stroke="black" stroke-width="6.48"/>
<line x1="2120.73966" y1="1476.172537" x2="2146.135324" y2="1476.172537" stroke="black" stroke-width="6.48"/>
<line x1="2146.135324" y1="1476.172537" x2="2146.135324" y2="1426.62002" stroke="black" stroke-width="6.48"/>
<path d="m 2395.136725,1475.553132 a 248.38199299999997,248.38199299999997 0 0 1 -248.38199299999997,248.38199299999997" fill="none" stroke="black" stroke-width="6.48"/>
<line x1="704.090326" y1="541.339351" x2="935.987926" y2="541.339351" stroke="black" stroke-width="6.48"/>
<line x1="935.987926" y1="541.339351" x2="935.987926" y2="773.712151" stroke="black" stroke-width="6.48"/>
<line x1="935.987926" y1="773.712151" x2="704.090326" y2="773.712151" stroke="black" stroke-width="6.48"/>
<line x1="704.090326" y1="773.712151" x2="704.090326" y2="541.339351" stroke="black" stroke-width="6.48"/>
<line x1="703.615126" y1="540.864151" x2="935.987926" y2="773.712151" stroke="black" stroke-width="6.48"/>
<line x1="704.090326" y1="773.236951" x2="935.512726" y2="541.339351" stroke="black" stroke-width="6.48"/>
<line x1="2032.924367" y1="2069.88583" x2="2032.924367" y2="1860.79783" stroke="black" stroke-width="6.48"/>
<line x1="2032.924367" y1="1860.79783" x2="1801.026767" y2="1860.79783" stroke="black" stroke-width="6.48"/>
<line x1="1801.026767" y1="1860.79783" x2="1801.026767" y2="2069.88583" stroke="black" stroke-width="6.48"/>
<line x1="1801.026767" y1="2069.88583" x2="2032.924367" y2="2069.88583" stroke="black" stroke-width="6.48"/>
<line x1="2000.610767" y1="2069.88583" x2="2000.610767" y2="1860.79783" stroke="black" stroke-width="6.48"/>
<line x1="1485.415969" y1="209.267824" x2="1707.693134" y2="209.267824" stroke="black" stroke-width="6.48"/>
<line x1="1707.693134" y1="209.267824" x2="1707.693134" y2="432.000475" stroke="black" stroke-width="6.48"/>
<line x1="1707.693134" y1="432.000475" x2="1485.415969" y2="432.000475" stroke="black" stroke-width="6.48"/>
<line x1="1485.415969" y1="432.000475" x2="1485.415969" y2="209.267824" stroke="black" stroke-width="6.48"/>
<line x1="1484.960483" y1="208.812337" x2="1707.693134" y2="432.000475" stroke="black" stroke-width="6.48"/>
<line x1="1485.415969" y1="431.544989" x2="1707.237648" y2="209.267824" stroke="black" stroke-width="6.48"/>
<line x1="2761.020558" y1="2194.614338" x2="2761.020558" y2="1803.366338" stroke="black" stroke-width="6.48"/>
<line x1="2761.020558" y1="1803.366338" x2="2586.780558" y2="1803.366338" stroke="black" stroke-width="6.48"/>
<line x1="2586.780558" y1="1803.366338" x2="2586.780558" y2="2194.614338" stroke="black" stroke-width="6.48"/>
<line x1="2586.780558" y1="2194.614338" x2="2761.020558" y2="2194.614338" stroke="black" stroke-width="6.48"/>
<line x1="2613.708558" y1="1878.606338" x2="2613.708558" y2="2162.934338" stroke="black" stroke-width="6.48"/>
<line x1="2613.708558" y1="2162.934338" x2="2731.716558" y2="2162.934338" stroke="black" stroke-width="6.48"/>
<line x1="2731.716558" y1="2162.934338" x2="2731.716558" y2="1873.062338" stroke="black" stroke-width="6.48"/>
<path d="m 2613.453134,1879.416911 a 63.3599990854681,63.3599990854681 0 0 1 119.3743300000001,-4.293814000000111" fill="none" stroke="black" stroke-width="6.48"/>
<line x1="2105.643532" y1="1885.725436" x2="2105.643532" y2="2069.469436" stroke="black" stroke-width="6.48"/>
<line x1="2105.643532" y1="2069.469436" x2="2056.539532" y2="2069.469436" stroke="black" stroke-width="6.48"/>
<line x1="2056.539532" y1="1885.725436" x2="2056.539532" y2="2069.469436" stroke="black" stroke-width="6.48"/>
<line x1="2105.643532" y1="1885.725436" x2="2056.539532" y2="1885.725436" stroke="black" stroke-width="6.48"/>
<line x1="2133.363532" y1="1927.305436" x2="2105.643532" y2="1927.305436" stroke="black" stroke-width="6.48"/>
<line x1="2105.643532" y1="2026.305436" x2="2134.947532" y2="2026.305436" stroke="black" stroke-width="6.48"/>
<circle cx="2178.507532" cy="1976.013436" r="66.52800000000002" fill="none" stroke="black" stroke-width="6.48"/>
<circle cx="2178.507532" cy="1976.013436" r="57.02400000000001" fill="none" stroke="black" stroke-width="6.48"/>
<line x1="935.232818" y1="210.037658" x2="1205.780018" y2="210.037658" stroke="black" stroke-width="6.48"/>
<line x1="1205.780018" y1="210.037658" x2="1205.780018" y2="341.984858" stroke="black" stroke-width="6.48"/>
<line x1="935.232818" y1="341.984858" x2="1205.780018" y2="341.984858" stroke="black" stroke-width="6.48"/>
<line x1="935.232818" y1="210.037658" x2="935.232818" y2="341.984858" stroke="black" stroke-width="6.48"/>
<line x1="941.885618" y1="216.690458" x2="1079.931218" y2="216.690458" stroke="black" stroke-width="6.48"/>
<line x1="1079.931218" y1="216.690458" x2="1079.931218" y2="334.777658" stroke="black" stroke-width="6.48"/>
<line x1="941.885618" y1="334.777658" x2="1079.931218" y2="334.777658" stroke="black" stroke-width="6.48"/>
<line x1="941.885618" y1="216.690458" x2="941.885618" y2="334.777658" stroke="black" stroke-width="6.48"/>
<line x1="1094.345618" y1="224.452058" x2="1191.365618" y2="224.452058" stroke="black" stroke-width="6.48"/>
<line x1="1094.345618" y1="244.964858" x2="1191.365618" y2="244.964858" stroke="black" stroke-width="6.48"/>
<line x1="1094.900018" y1="266.032058" x2="1191.920018" y2="266.032058" stroke="black" stroke-width="6.48"/>
<line x1="1094.900018" y1="286.544858" x2="1191.920018" y2="286.544858" stroke="black" stroke-width="6.48"/>
<line x1="1094.345618" y1="307.057658" x2="1191.365618" y2="307.057658" stroke="black" stroke-width="6.48"/>
<line x1="1094.345618" y1="327.570458" x2="1191.365618" y2="327.570458" stroke="black" stroke-width="6.48"/>
<line x1="994.553618" y1="334.777658" x2="994.553618" y2="320.917658" stroke="black" stroke-width="6.48"/>
<line x1="994.553618" y1="320.917658" x2="1028.926418" y2="320.917658" stroke="black" stroke-width="6.48"/>
<line x1="1028.926418" y1="320.917658" x2="1028.926418" y2="334.223258" stroke="black" stroke-width="6.48"/>
<circle cx="1064.408018" cy="231.659258" r="8.316000000000003" fill="none" stroke="black" stroke-width="6.48"/>
<line x1="724.92979" y1="1246.476031" x2="752.396087" y2="1117.25726" stroke="black" stroke-width="6.48"/>
<line x1="752.396087" y1="1117.25726" x2="766.340557" y2="1120.221248" stroke="black" stroke-width="6.48"/>
<line x1="738.87426" y1="1249.440023" x2="766.340557" y2="1120.221248" stroke="black" stroke-width="6.48"/>
<line x1="724.92979" y1="1246.476031" x2="738.87426" y2="1249.440023" stroke="black" stroke-width="6.48"/>
<line x1="741.640651" y1="1236.425184" x2="771.92329" y2="1244.805221" stroke="black" stroke-width="6.48"/>
<line x1="763.57417" y1="1133.236087" x2="795.576838" y2="1138.095198" stroke="black" stroke-width="6.48"/>
<line x1="1175.801058" y1="1342.311678" x2="1203.267355" y2="1213.092904" stroke="black" stroke-width="6.48"/>
<line x1="1203.267355" y1="1213.092904" x2="1190.252516" y2="1210.326512" stroke="black" stroke-width="6.48"/>
<line x1="1162.786216" y1="1339.54529" x2="1190.252516" y2="1210.326512" stroke="black" stroke-width="6.48"/>
<line x1="1175.801058" y1="1342.311678" x2="1162.786216" y2="1339.54529" stroke="black" stroke-width="6.48"/>
<line x1="1163.495743" y1="1327.064882" x2="1132.422707" y2="1322.403368" stroke="black" stroke-width="6.48"/>
<line x1="1185.429262" y1="1223.875789" x2="1154.414588" y2="1214.368517" stroke="black" stroke-width="6.48"/>
<line x1="947.209406" y1="991.545318" x2="944.245418" y2="1005.489788" stroke="black" stroke-width="6.48"/>
<line x1="944.245418" y1="1005.489788" x2="1073.464196" y2="1032.956086" stroke="black" stroke-width="6.48"/>
<line x1="1076.428184" y1="1019.011615" x2="1073.464196" y2="1032.956086" stroke="black" stroke-width="6.48"/>
<line x1="947.209406" y1="991.545318" x2="1076.428184" y2="1019.011615" stroke="black" stroke-width="6.48"/>
<line x1="1059.519719" y1="1029.992098" x2="1055.59024" y2="1062.192366" stroke="black" stroke-width="6.48"/>
<line x1="957.260261" y1="1008.25618" x2="948.68262" y2="1039.46845" stroke="black" stroke-width="6.48"/>
<line x1="850.641728" y1="1441.289351" x2="853.60572" y2="1427.34488" stroke="black" stroke-width="6.48"/>
<line x1="853.60572" y1="1427.34488" x2="982.824491" y2="1454.811178" stroke="black" stroke-width="6.48"/>
<line x1="979.860503" y1="1468.755652" x2="982.824491" y2="1454.811178" stroke="black" stroke-width="6.48"/>
<line x1="850.641728" y1="1441.289351" x2="979.860503" y2="1468.755652" stroke="black" stroke-width="6.48"/>
<line x1="968.88002" y1="1451.84719" x2="978.387293" y2="1420.83252" stroke="black" stroke-width="6.48"/>
<line x1="866.620555" y1="1430.111268" x2="871.47967" y2="1398.1086" stroke="black" stroke-width="6.48"/>
<circle cx="963.534956" cy="1230.150485" r="191.98080000000002" fill="none" stroke="black" stroke-width="6.48"/>
<line x1="2044.889399" y1="955.822399" x2="2267.166564" y2="955.822399" stroke="black" stroke-width="6.48"/>
<line x1="2267.166564" y1="955.822399" x2="2267.166564" y2="1178.555051" stroke="black" stroke-width="6.48"/>
<line x1="2267.166564" y1="1178.555051" x2="2044.889399" y2="1178.555051" stroke="black" stroke-width="6.48"/>
<line x1="2044.889399" y1="1178.555051" x2="2044.889399" y2="955.822399" stroke="black" stroke-width="6.48"/>
<line x1="2044.433912" y1="955.366913" x2="2267.166564" y2="1178.555051" stroke="black" stroke-width="6.48"/>
<line x1="2044.889399" y1="1178.099564" x2="2266.711078" y2="955.822399" stroke="black" stroke-width="6.48"/>
<line x1="333.766206" y1="1375.361078" x2="333.766206" y2="949.854546" stroke="black" stroke-width="6.48"/>
<line x1="333.766206" y1="949.854546" x2="257.659348" y2="949.854546" stroke="black" stroke-width="6.48"/>
<line x1="257.659348" y1="949.854546" x2="257.659348" y2="1375.361078" stroke="black" stroke-width="6.48"/>
<line x1="257.659348" y1="1375.361078" x2="333.766206" y2="1375.361078" stroke="black" stroke-width="6.48"/>
<line x1="333.766206" y1="1355.469512" x2="359.711726" y2="1355.469512" stroke="black" stroke-width="6.48"/>
<line x1="359.711726" y1="1355.469512" x2="359.711726" y2="970.610962" stroke="black" stroke-width="6.48"/>
<line x1="333.766206" y1="970.610962" x2="359.711726" y2="970.610962" stroke="black" stroke-width="6.48"/>
<line x1="3874.406537" y1="1514.726719" x2="3874.406537" y2="1940.260162" stroke="black" stroke-width="6.48"/>
<line x1="3874.406537" y1="1940.260162" x2="3940.00601" y2="1940.260162" stroke="black" stroke-width="6.48"/>
<line x1="3940.00601" y1="1940.260162" x2="3940.00601" y2="1514.726719" stroke="black" stroke-width="6.48"/>
<line x1="3940.00601" y1="1514.726719" x2="3874.406537" y2="1514.726719" stroke="black" stroke-width="6.48"/>
<line x1="3939.14286" y1="1554.431663" x2="3875.269687" y2="1554.431663" stroke="black" stroke-width="6.48"/>
<line x1="3939.14286" y1="1899.692064" x2="3872.680232" y2="1899.692064" stroke="black" stroke-width="6.48"/>
<line x1="3908.932574" y1="1553.568512" x2="3908.932574" y2="1898.828914" stroke="black" stroke-width="6.48"/>
<line x1="5121.191009" y1="1559.977279" x2="5209.58691" y2="1658.150874" stroke="black" stroke-width="6.48"/>
<line x1="5209.58691" y1="1658.150874" x2="5198.992639" y2="1667.690003" stroke="black" stroke-width="6.48"/>
<line x1="5110.596738" y1="1569.516404" x2="5198.992639" y2="1667.690003" stroke="black" stroke-width="6.48"/>
<line x1="5121.191009" y1="1559.977279" x2="5110.596738" y2="1569.516404" stroke="black" stroke-width="6.48"/>
<line x1="5119.499923" y1="1579.404395" x2="5094.920639" y2="1598.977904" stroke="black" stroke-width="6.48"/>
<line x1="5190.089454" y1="1657.802012" x2="5167.347653" y2="1680.836598" stroke="black" stroke-width="6.48"/>
<line x1="4778.642858" y1="1868.409022" x2="4867.03876" y2="1966.582613" stroke="black" stroke-width="6.48"/>
<line x1="4867.03876" y1="1966.582613" x2="4876.92675" y2="1957.679428" stroke="black" stroke-width="6.48"/>
<line x1="4788.530849" y1="1859.505836" x2="4876.92675" y2="1957.679428" stroke="black" stroke-width="6.48"/>
<line x1="4778.642858" y1="1868.409022" x2="4788.530849" y2="1859.505836" stroke="black" stroke-width="6.48"/>
<line x1="4798.210662" y1="1867.415656" x2="4820.246176" y2="1845.017006" stroke="black" stroke-width="6.48"/>
<line x1="4868.800193" y1="1945.813273" x2="4894.721701" y2="1926.310108" stroke="black" stroke-width="6.48"/>
<line x1="5196.781609" y1="1889.649785" x2="5187.242484" y2="1879.055514" stroke="black" stroke-width="6.48"/>
<line x1="5187.242484" y1="1879.055514" x2="5089.068893" y2="1967.451412" stroke="black" stroke-width="6.48"/>
<line x1="5098.608018" y1="1978.045686" x2="5089.068893" y2="1967.451412" stroke="black" stroke-width="6.48"/>
<line x1="5196.781609" y1="1889.649785" x2="5098.608018" y2="1978.045686" stroke="black" stroke-width="6.48"/>
<line x1="5099.663164" y1="1957.912286" x2="5075.92229" y2="1935.806425" stroke="black" stroke-width="6.48"/>
<line x1="5177.354497" y1="1887.958696" x2="5157.145044" y2="1862.673127" stroke="black" stroke-width="6.48"/>
<line x1="4889.692098" y1="1547.171978" x2="4899.231223" y2="1557.766253" stroke="black" stroke-width="6.48"/>
<line x1="4899.231223" y1="1557.766253" x2="4801.057632" y2="1646.162154" stroke="black" stroke-width="6.48"/>
<line x1="4791.518507" y1="1635.56788" x2="4801.057632" y2="1646.162154" stroke="black" stroke-width="6.48"/>
<line x1="4889.692098" y1="1547.171978" x2="4791.518507" y2="1635.56788" stroke="black" stroke-width="6.48"/>
<line x1="4811.651903" y1="1636.623025" x2="4831.155068" y2="1662.544537" stroke="black" stroke-width="6.48"/>
<line x1="4889.34324" y1="1566.669434" x2="4912.377826" y2="1589.411239" stroke="black" stroke-width="6.48"/>
<circle cx="4994.150062" cy="1762.608834" r="191.98080000000002" fill="none" stroke="black" stroke-width="6.48"/>
<line x1="3212.79394" y1="1074.674693" x2="3422.159143" y2="1074.674693" stroke="black" stroke-width="6.48"/>
<line x1="3422.159143" y1="1074.674693" x2="3422.159143" y2="743.460289" stroke="black" stroke-width="6.48"/>
<line x1="3422.159143" y1="743.460289" x2="3212.79394" y2="743.460289" stroke="black" stroke-width="6.48"/>
<line x1="3212.79394" y1="743.460289" x2="3212.79394" y2="1074.674693" stroke="black" stroke-width="6.48"/>
<line x1="3212.12074" y1="802.701889" x2="3422.83234" y2="802.701889" stroke="black" stroke-width="6.48"/>
<line x1="3422.83234" y1="802.701889" x2="3213.46714" y2="852.518693" stroke="black" stroke-width="6.48"/>
<line x1="3213.46714" y1="852.518693" x2="3245.107543" y2="898.969493" stroke="black" stroke-width="6.48"/>
<line x1="3245.107543" y1="898.969493" x2="3422.83234" y2="802.028693" stroke="black" stroke-width="6.48"/>
<line x1="3233.410855" y1="1203.849004" x2="3455.68802" y2="1203.849004" stroke="black" stroke-width="6.48"/>
<line x1="3455.68802" y1="1203.849004" x2="3455.68802" y2="1426.581655" stroke="black" stroke-width="6.48"/>
<line x1="3455.68802" y1="1426.581655" x2="3233.410855" y2="1426.581655" stroke="black" stroke-width="6.48"/>
<line x1="3233.410855" y1="1426.581655" x2="3233.410855" y2="1203.849004" stroke="black" stroke-width="6.48"/>
<line x1="3232.955369" y1="1203.393517" x2="3455.68802" y2="1426.581655" stroke="black" stroke-width="6.48"/>
<line x1="3233.410855" y1="1426.126169" x2="3455.232534" y2="1203.849004" stroke="black" stroke-width="6.48"/>
<line x1="2804.16708" y1="1127.69402" x2="2804.16708" y2="1153.148746" stroke="black" stroke-width="6.48"/>
<line x1="2804.16708" y1="1153.148746" x2="2853.834836" y2="1153.148746" stroke="black" stroke-width="6.48"/>
<line x1="2853.834836" y1="1153.148746" x2="2853.834836" y2="1127.69402" stroke="black" stroke-width="6.48"/>
<line x1="2853.834836" y1="1127.69402" x2="2804.16708" y2="1127.69402" stroke="black" stroke-width="6.48"/>
<line x1="2853.834836" y1="1402.108373" x2="3101.55277" y2="1402.108373" stroke="black" stroke-width="6.48"/>
<line x1="2802.925386" y1="1402.729218" x2="2802.925386" y2="1428.183943" stroke="black" stroke-width="6.48"/>
<line x1="2802.925386" y1="1428.183943" x2="2852.593142" y2="1428.183943" stroke="black" stroke-width="6.48"/>
<line x1="2852.593142" y1="1428.183943" x2="2852.593142" y2="1402.729218" stroke="black" stroke-width="6.48"/>
<line x1="2852.593142" y1="1402.729218" x2="2802.925386" y2="1402.729218" stroke="black" stroke-width="6.48"/>
<path d="m 2851.972294,1153.148746 a 248.95962699999984,248.95962699999984 0 0 1 248.95962699999973,248.95962699999995" fill="none" stroke="black" stroke-width="6.48"/>
<line x1="2942.123609" y1="2014.505741" x2="2870.918464" y2="2190.744878" stroke="black" stroke-width="6.48"/>
<line x1="2870.918464" y1="2190.744878" x2="3300.941959" y2="2364.485429" stroke="black" stroke-width="6.48"/>
<line x1="3300.941959" y1="2364.485429" x2="3372.147104" y2="2188.246291" stroke="black" stroke-width="6.48"/>
<line x1="3372.147104" y1="2188.246291" x2="3350.117214" y2="2179.345648" stroke="black" stroke-width="6.48"/>
<line x1="3350.117214" y1="2179.345648" x2="3287.456687" y2="2334.436092" stroke="black" stroke-width="6.48"/>
<line x1="3287.456687" y1="2334.436092" x2="2902.374169" y2="2178.852851" stroke="black" stroke-width="6.48"/>
<line x1="2902.374169" y1="2178.852851" x2="2965.034696" y2="2023.76241" stroke="black" stroke-width="6.48"/>
<line x1="2965.034696" y1="2023.76241" x2="2942.123609" y2="2014.505741" stroke="black" stroke-width="6.48"/>
<line x1="2962.898543" y1="2029.049582" x2="3347.98106" y2="2184.632824" stroke="black" stroke-width="6.48"/>
<line x1="3155.355227" y1="2105.781995" x2="3094.830857" y2="2255.585263" stroke="black" stroke-width="6.48"/>
<line x1="3627.43146" y1="1944.750442" x2="3404.517178" y2="1880.8308" stroke="black" stroke-width="6.48"/>
<line x1="3404.517178" y1="1880.8308" x2="3468.567802" y2="1657.459728" stroke="black" stroke-width="6.48"/>
<line x1="3468.567802" y1="1657.459728" x2="3691.482084" y2="1721.379373" stroke="black" stroke-width="6.48"/>
<line x1="3691.482084" y1="1721.379373" x2="3627.43146" y2="1944.750442" stroke="black" stroke-width="6.48"/>
<line x1="3627.757267" y1="1945.338217" x2="3468.567802" y2="1657.459728" stroke="black" stroke-width="6.48"/>
<line x1="3691.351102" y1="1721.836163" x2="3404.973971" y2="1880.961786" stroke="black" stroke-width="6.48"/>
<line x1="3054.501112" y1="1589.315882" x2="3045.470335" y2="1618.854221" stroke="black" stroke-width="6.48"/>
<line x1="3045.470335" y1="1618.854221" x2="3245.876618" y2="1680.124576" stroke="black" stroke-width="6.48"/>
<line x1="3245.876618" y1="1680.124576" x2="3254.907395" y2="1650.586234" stroke="black" stroke-width="6.48"/>
<line x1="3254.907395" y1="1650.586234" x2="3054.501112" y2="1589.315882" stroke="black" stroke-width="6.48"/>
<line x1="2994.897982" y1="1784.268936" x2="2985.867205" y2="1813.807274" stroke="black" stroke-width="6.48"/>
<line x1="2985.867205" y1="1813.807274" x2="3186.273488" y2="1875.077629" stroke="black" stroke-width="6.48"/>
<line x1="3186.273488" y1="1875.077629" x2="3195.304268" y2="1845.539287" stroke="black" stroke-width="6.48"/>
<line x1="3195.304268" y1="1845.539287" x2="2994.897982" y2="1784.268936" stroke="black" stroke-width="6.48"/>
<line x1="3045.60927" y1="1618.399789" x2="2994.897982" y2="1784.268936" stroke="black" stroke-width="6.48"/>
<line x1="3245.245618" y1="1678.937832" x2="3262.459234" y2="1712.027675" stroke="black" stroke-width="6.48"/>
<line x1="3227.030802" y1="1827.90886" x2="3194.25646" y2="1845.715849" stroke="black" stroke-width="6.48"/>
<line x1="3263.014976" y1="1710.209934" x2="3226.475063" y2="1829.726608" stroke="black" stroke-width="6.48"/>
<line x1="3088.187323" y1="1631.914117" x2="3037.476031" y2="1797.783268" stroke="black" stroke-width="6.48"/>
<line x1="3840.070219" y1="1099.888711" x2="3830.014066" y2="1070.683535" stroke="black" stroke-width="6.48"/>
<line x1="3830.014066" y1="1070.683535" x2="3631.868168" y2="1138.910638" stroke="black" stroke-width="6.48"/>
<line x1="3631.868168" y1="1138.910638" x2="3641.924318" y2="1168.115814" stroke="black" stroke-width="6.48"/>
<line x1="3641.924318" y1="1168.115814" x2="3840.070219" y2="1099.888711" stroke="black" stroke-width="6.48"/>
<line x1="3773.699633" y1="907.134534" x2="3763.643486" y2="877.929361" stroke="black" stroke-width="6.48"/>
<line x1="3763.643486" y1="877.929361" x2="3565.497586" y2="946.156464" stroke="black" stroke-width="6.48"/>
<line x1="3565.497586" y1="946.156464" x2="3575.553732" y2="975.36164" stroke="black" stroke-width="6.48"/>
<line x1="3575.553732" y1="975.36164" x2="3773.699633" y2="907.134534" stroke="black" stroke-width="6.48"/>
<line x1="3830.168776" y1="1071.132844" x2="3773.699633" y2="907.134534" stroke="black" stroke-width="6.48"/>
<line x1="3633.07621" y1="1139.499839" x2="3599.700376" y2="1122.847506" stroke="black" stroke-width="6.48"/>
<line x1="3560.249329" y1="1008.273344" x2="3576.297647" y2="974.602912" stroke="black" stroke-width="6.48"/>
<line x1="3600.319216" y1="1124.644748" x2="3559.630489" y2="1006.476102" stroke="black" stroke-width="6.48"/>
<line x1="3787.778887" y1="1085.226275" x2="3731.309744" y2="921.227965" stroke="black" stroke-width="6.48"/>
<line x1="910.062875" y1="1872.922291" x2="925.506864" y2="1899.672088" stroke="black" stroke-width="6.48"/>
<line x1="925.506864" y1="1899.672088" x2="1106.993945" y2="1794.890531" stroke="black" stroke-width="6.48"/>
<line x1="1106.993945" y1="1794.890531" x2="1091.549952" y2="1768.140738" stroke="black" stroke-width="6.48"/>
<line x1="1091.549952" y1="1768.140738" x2="910.062875" y2="1872.922291" stroke="black" stroke-width="6.48"/>
<line x1="1011.993228" y1="2049.470946" x2="1027.437224" y2="2076.220746" stroke="black" stroke-width="6.48"/>
<line x1="1027.437224" y1="2076.220746" x2="1208.924305" y2="1971.439189" stroke="black" stroke-width="6.48"/>
<line x1="1208.924305" y1="1971.439189" x2="1193.480309" y2="1944.689396" stroke="black" stroke-width="6.48"/>
<line x1="1193.480309" y1="1944.689396" x2="1011.993228" y2="2049.470946" stroke="black" stroke-width="6.48"/>
<line x1="925.269268" y1="1899.260554" x2="1011.993228" y2="2049.470946" stroke="black" stroke-width="6.48"/>
<line x1="1105.695677" y1="1794.542663" x2="1141.635715" y2="1804.520646" stroke="black" stroke-width="6.48"/>
<line x1="1202.22369" y1="1909.462154" x2="1192.894837" y2="1945.576123" stroke="black" stroke-width="6.48"/>
<line x1="1140.685315" y1="1802.874503" x2="1203.174086" y2="1911.108298" stroke="black" stroke-width="6.48"/>
<line x1="964.19119" y1="1877.337695" x2="1050.915154" y2="2027.548098" stroke="black" stroke-width="6.48"/>
<line x1="6242.533643" y1="2220.388978" x2="6300.166104" y2="2421.377262" stroke="black" stroke-width="6.48"/>
<line x1="6300.166104" y1="2421.377262" x2="6523.080386" y2="2357.457624" stroke="black" stroke-width="6.48"/>
<line x1="6523.080386" y1="2357.457624" x2="6465.447925" y2="2156.469336" stroke="black" stroke-width="6.48"/>
<line x1="6465.447925" y1="2156.469336" x2="6242.533643" y2="2220.388978" stroke="black" stroke-width="6.48"/>
<line x1="6273.595469" y1="2211.482142" x2="6331.227934" y2="2412.47043" stroke="black" stroke-width="6.48"/>
<line x1="2311.236209" y1="2280.656387" x2="2341.955002" y2="2283.885068" stroke="black" stroke-width="6.48"/>
<line x1="2341.955002" y1="2283.885068" x2="2363.860372" y2="2075.469883" stroke="black" stroke-width="6.48"/>
<line x1="2363.860372" y1="2075.469883" x2="2333.141579" y2="2072.241202" stroke="black" stroke-width="6.48"/>
<line x1="2333.141579" y1="2072.241202" x2="2311.236209" y2="2280.656387" stroke="black" stroke-width="6.48"/>
<line x1="2513.980235" y1="2301.965694" x2="2544.699024" y2="2305.194376" stroke="black" stroke-width="6.48"/>
<line x1="2544.699024" y1="2305.194376" x2="2566.604394" y2="2096.77919" stroke="black" stroke-width="6.48"/>
<line x1="2566.604394" y1="2096.77919" x2="2535.885605" y2="2093.550509" stroke="black" stroke-width="6.48"/>
<line x1="2535.885605" y1="2093.550509" x2="2513.980235" y2="2301.965694" stroke="black" stroke-width="6.48"/>
<line x1="2341.482404" y1="2283.835396" x2="2513.980235" y2="2301.965694" stroke="black" stroke-width="6.48"/>
<line x1="2362.815835" y1="2076.315732" x2="2392.013218" y2="2053.104545" stroke="black" stroke-width="6.48"/>
<line x1="2512.525399" y1="2065.770914" x2="2536.258856" y2="2094.545372" stroke="black" stroke-width="6.48"/>
<line x1="2390.122829" y1="2052.905857" x2="2514.415784" y2="2065.969602" stroke="black" stroke-width="6.48"/>
<line x1="2346.624173" y1="2239.460971" x2="2519.122003" y2="2257.591266" stroke="black" stroke-width="6.48"/>
<line x1="6056.986252" y1="1857.223868" x2="6050.564276" y2="1887.436894" stroke="black" stroke-width="6.48"/>
<line x1="6050.564276" y1="1887.436894" x2="6255.548017" y2="1931.007528" stroke="black" stroke-width="6.48"/>
<line x1="6255.548017" y1="1931.007528" x2="6261.969992" y2="1900.794506" stroke="black" stroke-width="6.48"/>
<line x1="6261.969992" y1="1900.794506" x2="6056.986252" y2="1857.223868" stroke="black" stroke-width="6.48"/>
<line x1="6014.601205" y1="2056.62982" x2="6008.17923" y2="2086.842845" stroke="black" stroke-width="6.48"/>
<line x1="6008.17923" y1="2086.842845" x2="6213.162974" y2="2130.413483" stroke="black" stroke-width="6.48"/>
<line x1="6213.162974" y1="2130.413483" x2="6219.58495" y2="2100.200458" stroke="black" stroke-width="6.48"/>
<line x1="6219.58495" y1="2100.200458" x2="6014.601205" y2="2056.62982" stroke="black" stroke-width="6.48"/>
<line x1="6050.663075" y1="1886.972076" x2="6014.601205" y2="2056.62982" stroke="black" stroke-width="6.48"/>
<line x1="6254.815982" y1="1929.8803" x2="6274.848071" y2="1961.343961" stroke="black" stroke-width="6.48"/>
<line x1="6249.654162" y1="2079.871978" x2="6218.556516" y2="2100.467675" stroke="black" stroke-width="6.48"/>
<line x1="6275.243268" y1="1959.484698" x2="6249.258961" y2="2081.731241" stroke="black" stroke-width="6.48"/>
<line x1="6094.256954" y1="1896.724055" x2="6058.195085" y2="2066.381802" stroke="black" stroke-width="6.48"/>
<line x1="457.000866" y1="210.022974" x2="850.244738" y2="210.022974" stroke="black" stroke-width="6.48"/>
<line x1="854.200145" y1="209.026692" x2="854.200145" y2="345.095467" stroke="black" stroke-width="6.48"/>
<line x1="457.465255" y1="346.246974" x2="854.505486" y2="346.246974" stroke="black" stroke-width="6.48"/>
<line x1="458.200145" y1="210.717724" x2="458.200145" y2="345.98178" stroke="black" stroke-width="6.48"/>
<line x1="468.496145" y1="221.110974" x2="592.048145" y2="221.110974" stroke="black" stroke-width="6.48"/>
<line x1="592.048145" y1="221.110974" x2="592.048145" y2="335.158974" stroke="black" stroke-width="6.48"/>
<line x1="468.496145" y1="335.158974" x2="592.048145" y2="335.158974" stroke="black" stroke-width="6.48"/>
<line x1="468.496145" y1="221.110974" x2="468.496145" y2="335.158974" stroke="black" stroke-width="6.48"/>
<line x1="611.056145" y1="228.238974" x2="698.176145" y2="228.238974" stroke="black" stroke-width="6.48"/>
<line x1="611.056145" y1="248.038974" x2="698.176145" y2="248.038974" stroke="black" stroke-width="6.48"/>
<line x1="611.848145" y1="268.630974" x2="698.176145" y2="268.630974" stroke="black" stroke-width="6.48"/>
<line x1="611.848145" y1="288.430974" x2="698.176145" y2="288.430974" stroke="black" stroke-width="6.48"/>
<line x1="611.056145" y1="308.230974" x2="698.176145" y2="308.230974" stroke="black" stroke-width="6.48"/>
<line x1="611.056145" y1="328.030974" x2="698.176145" y2="328.030974" stroke="black" stroke-width="6.48"/>
<line x1="516.016145" y1="334.366974" x2="516.016145" y2="320.902974" stroke="black" stroke-width="6.48"/>
<line x1="516.016145" y1="320.902974" x2="546.112145" y2="320.902974" stroke="black" stroke-width="6.48"/>
<line x1="546.112145" y1="320.902974" x2="546.112145" y2="333.574974" stroke="black" stroke-width="6.48"/>
<line x1="718.768145" y1="221.110974" x2="842.320145" y2="221.110974" stroke="black" stroke-width="6.48"/>
<line x1="842.320145" y1="221.110974" x2="842.320145" y2="335.158974" stroke="black" stroke-width="6.48"/>
<line x1="718.768145" y1="335.158974" x2="842.320145" y2="335.158974" stroke="black" stroke-width="6.48"/>
<line x1="718.768145" y1="221.110974" x2="718.768145" y2="335.158974" stroke="black" stroke-width="6.48"/>
<line x1="766.288145" y1="335.158974" x2="766.288145" y2="321.694974" stroke="black" stroke-width="6.48"/>
<line x1="766.288145" y1="321.694974" x2="796.384145" y2="321.694974" stroke="black" stroke-width="6.48"/>
<line x1="796.384145" y1="321.694974" x2="796.384145" y2="334.366974" stroke="black" stroke-width="6.48"/>
<circle cx="577.792145" cy="235.366974" r="7.128000000000001" fill="none" stroke="black" stroke-width="6.48"/>
<circle cx="828.064145" cy="236.158974" r="7.128000000000001" fill="none" stroke="black" stroke-width="6.48"/>
</g>
</svg>
