<?xml version="1.0"?>
<svg xmlns:xlink="http://www.w3.org/1999/xlink" width="6775.2" height="2858.4">
<image x="0" y="0" width="6775.2" height="2858.4" xlink:href="groundfilled-01.png"/>
<g style="stroke-linecap:round">
<line x1="1285.950406" y1="795.178109" x2="1311.346069" y2="795.178109" stroke="black" stroke-width="6.48"/>
<line x1="1311.346069" y1="795.178109" x2="1311.346069" y2="745.625592" stroke="black" stroke-width="6.48"/>
<line x1="1311.346069" y1="745.625592" x2="1285.950406" y2="745.625592" stroke="black" stroke-width="6.48"/>
<line x1="1285.950406" y1="745.625592" x2="1285.950406" y2="795.178109" stroke="black" stroke-width="6.48"/>
<line x1="1559.728062" y1="745.625592" x2="1559.728062" y2="498.48241" stroke="black" stroke-width="6.48"/>
<line x1="1560.347471" y1="796.416923" x2="1585.743134" y2="796.416923" stroke="black" stroke-width="6.48"/>
<line x1="1585.743134" y1="796.416923" x2="1585.743134" y2="746.864406" stroke="black" stroke-width="6.48"/>
<line x1="1585.743134" y1="746.864406" x2="1560.347471" y2="746.864406" stroke="black" stroke-width="6.48"/>
<line x1="1560.347471" y1="746.864406" x2="1560.347471" y2="796.416923" stroke="black" stroke-width="6.48"/>
<path d="m 1311.346069,747.483811 a 248.38199299999997,248.38199299999997 0 0 1 248.38199299999997,-248.38199299999997" fill="none" stroke="black" stroke-width="6.48"/>
<line x1="330.523178" y1="771.328966" x2="330.523178" y2="366.748985" stroke="black" stroke-width="6.48"/>
<line x1="330.523178" y1="366.748985" x2="258.15928" y2="366.748985" stroke="black" stroke-width="6.48"/>
<line x1="258.15928" y1="366.748985" x2="258.15928" y2="771.328966" stroke="black" stroke-width="6.48"/>
<line x1="258.15928" y1="771.328966" x2="330.523178" y2="771.328966" stroke="black" stroke-width="6.48"/>
<line x1="330.523178" y1="752.415674" x2="355.19269" y2="752.415674" stroke="black" stroke-width="6.48"/>
<line x1="355.19269" y1="752.415674" x2="355.19269" y2="386.484595" stroke="black" stroke-width="6.48"/>
<line x1="330.523178" y1="386.484595" x2="355.19269" y2="386.484595" stroke="black" stroke-width="6.48"/>
<line x1="3901.945176" y1="1169.331426" x2="3901.945176" y2="1428.837066" stroke="black" stroke-width="6.48"/>
<line x1="3901.945176" y1="1428.837066" x2="3941.9501" y2="1428.837066" stroke="black" stroke-width="6.48"/>
<line x1="3941.9501" y1="1428.837066" x2="3941.9501" y2="1169.331426" stroke="black" stroke-width="6.48"/>
<line x1="3941.9501" y1="1169.331426" x2="3901.945176" y2="1169.331426" stroke="black" stroke-width="6.48"/>
<line x1="3941.423719" y1="1193.544936" x2="3902.471557" y2="1193.544936" stroke="black" stroke-width="6.48"/>
<line x1="3941.423719" y1="1404.097178" x2="3900.892414" y2="1404.097178" stroke="black" stroke-width="6.48"/>
<line x1="3923.000399" y1="1193.018555" x2="3923.000399" y2="1403.570797" stroke="black" stroke-width="6.48"/>
<line x1="334.430687" y1="1882.943946" x2="334.430687" y2="1457.437414" stroke="black" stroke-width="6.48"/>
<line x1="334.430687" y1="1457.437414" x2="258.323828" y2="1457.437414" stroke="black" stroke-width="6.48"/>
<line x1="258.323828" y1="1457.437414" x2="258.323828" y2="1882.943946" stroke="black" stroke-width="6.48"/>
<line x1="258.323828" y1="1882.943946" x2="334.430687" y2="1882.943946" stroke="black" stroke-width="6.48"/>
<line x1="334.430687" y1="1863.05238" x2="360.376207" y2="1863.05238" stroke="black" stroke-width="6.48"/>
<line x1="360.376207" y1="1863.05238" x2="360.376207" y2="1478.193829" stroke="black" stroke-width="6.48"/>
<line x1="334.430687" y1="1478.193829" x2="360.376207" y2="1478.193829" stroke="black" stroke-width="6.48"/>
<line x1="2747.905531" y1="904.670665" x2="2721.68303" y2="904.670665" stroke="black" stroke-width="6.48"/>
<line x1="2721.68303" y1="904.670665" x2="2721.68303" y2="955.836522" stroke="black" stroke-width="6.48"/>
<line x1="2721.68303" y1="955.836522" x2="2747.905531" y2="955.836522" stroke="black" stroke-width="6.48"/>
<line x1="2747.905531" y1="955.836522" x2="2747.905531" y2="904.670665" stroke="black" stroke-width="6.48"/>
<line x1="2465.214181" y1="955.836522" x2="2465.214181" y2="1211.026223" stroke="black" stroke-width="6.48"/>
<line x1="2464.574609" y1="903.39152" x2="2438.352108" y2="903.39152" stroke="black" stroke-width="6.48"/>
<line x1="2438.352108" y1="903.39152" x2="2438.352108" y2="954.557374" stroke="black" stroke-width="6.48"/>
<line x1="2438.352108" y1="954.557374" x2="2464.574609" y2="954.557374" stroke="black" stroke-width="6.48"/>
<line x1="2464.574609" y1="954.557374" x2="2464.574609" y2="903.39152" stroke="black" stroke-width="6.48"/>
<path d="m 2721.68303,953.917801 a 256.4688490000001,256.4688490000001 0 0 1 -256.4688490000003,256.46884899999986" fill="none" stroke="black" stroke-width="6.48"/>
<line x1="2420.532389" y1="1427.858834" x2="2395.136725" y2="1427.858834" stroke="black" stroke-width="6.48"/>
<line x1="2395.136725" y1="1427.858834" x2="2395.136725" y2="1477.411351" stroke="black" stroke-width="6.48"/>
<line x1="2395.136725" y1="1477.411351" x2="2420.532389" y2="1477.411351" stroke="black" stroke-width="6.48"/>
<line x1="2420.532389" y1="1477.411351" x2="2420.532389" y2="1427.858834" stroke="black" stroke-width="6.48"/>
<line x1="2146.754732" y1="1477.411351" x2="2146.754732" y2="1724.554534" stroke="black" stroke-width="6.48"/>
<line x1="2146.135324" y1="1426.62002" x2="2120.73966" y2="1426.62002" stroke="black" stroke-width="6.48"/>
<line x1="2120.73966" y1="1426.62002" x2="2120.73966" y2="1476.172537" stroke="black" stroke-width="6.48"/>
<line x1="2120.73966" y1="1476.172537" x2="2146.135324" y2="1476.172537" stroke="black" stroke-width="6.48"/>
<line x1="2146.135324" y1="1476.172537" x2="2146.135324" y2="1426.62002" stroke="black" stroke-width="6.48"/>
<path d="m 2395.136725,1475.553132 a 248.38199299999997,248.38199299999997 0 0 1 -248.38199299999997,248.38199299999997" fill="none" stroke="black" stroke-width="6.48"/>
<line x1="697.004795" y1="692.136151" x2="1089.836795" y2="692.136151" stroke="black" stroke-width="6.48"/>
<line x1="1089.836795" y1="692.136151" x2="1089.836795" y2="507.600151" stroke="black" stroke-width="6.48"/>
<line x1="1089.836795" y1="507.600151" x2="697.004795" y2="507.600151" stroke="black" stroke-width="6.48"/>
<line x1="697.004795" y1="507.600151" x2="697.004795" y2="692.136151" stroke="black" stroke-width="6.48"/>
<line x1="856.196795" y1="507.600151" x2="856.196795" y2="426.816151" stroke="black" stroke-width="6.48"/>
<line x1="856.196795" y1="426.816151" x2="777.788795" y2="426.816151" stroke="black" stroke-width="6.48"/>
<line x1="777.788795" y1="426.816151" x2="777.788795" y2="507.600151" stroke="black" stroke-width="6.48"/>
<line x1="778.580795" y1="444.240151" x2="856.196795" y2="444.240151" stroke="black" stroke-width="6.48"/>
<line x1="777.788795" y1="773.712151" x2="856.196795" y2="773.712151" stroke="black" stroke-width="6.48"/>
<line x1="856.196795" y1="773.712151" x2="856.196795" y2="692.136151" stroke="black" stroke-width="6.48"/>
<line x1="777.788795" y1="692.136151" x2="777.788795" y2="773.712151" stroke="black" stroke-width="6.48"/>
<line x1="778.580795" y1="756.288151" x2="856.196795" y2="756.288151" stroke="black" stroke-width="6.48"/>
<line x1="1007.468795" y1="507.600151" x2="1007.468795" y2="426.816151" stroke="black" stroke-width="6.48"/>
<line x1="1007.468795" y1="426.816151" x2="929.060795" y2="426.816151" stroke="black" stroke-width="6.48"/>
<line x1="929.060795" y1="426.816151" x2="929.060795" y2="507.600151" stroke="black" stroke-width="6.48"/>
<line x1="929.060795" y1="444.240151" x2="1007.468795" y2="444.240151" stroke="black" stroke-width="6.48"/>
<line x1="929.060795" y1="773.712151" x2="1007.468795" y2="773.712151" stroke="black" stroke-width="6.48"/>
<line x1="1007.468795" y1="773.712151" x2="1007.468795" y2="692.136151" stroke="black" stroke-width="6.48"/>
<line x1="929.060795" y1="692.136151" x2="929.060795" y2="773.712151" stroke="black" stroke-width="6.48"/>
<line x1="929.060795" y1="756.288151" x2="1007.468795" y2="756.288151" stroke="black" stroke-width="6.48"/>
<line x1="2032.924367" y1="1806.850055" x2="2032.924367" y2="1775.962055" stroke="black" stroke-width="6.48"/>
<line x1="2032.924367" y1="1775.962055" x2="1823.361167" y2="1775.962055" stroke="black" stroke-width="6.48"/>
<line x1="1823.361167" y1="1775.962055" x2="1823.361167" y2="1806.850055" stroke="black" stroke-width="6.48"/>
<line x1="1823.361167" y1="1806.850055" x2="2032.924367" y2="1806.850055" stroke="black" stroke-width="6.48"/>
<line x1="2032.924367" y1="1602.989255" x2="2032.924367" y2="1572.101255" stroke="black" stroke-width="6.48"/>
<line x1="2032.924367" y1="1572.101255" x2="1823.361167" y2="1572.101255" stroke="black" stroke-width="6.48"/>
<line x1="1823.361167" y1="1572.101255" x2="1823.361167" y2="1602.989255" stroke="black" stroke-width="6.48"/>
<line x1="1823.361167" y1="1602.989255" x2="2032.924367" y2="1602.989255" stroke="black" stroke-width="6.48"/>
<line x1="2032.924367" y1="1776.437255" x2="2032.924367" y2="1602.989255" stroke="black" stroke-width="6.48"/>
<line x1="1824.311567" y1="1776.912455" x2="1798.175567" y2="1750.301255" stroke="black" stroke-width="6.48"/>
<line x1="1798.175567" y1="1629.125255" x2="1824.311567" y2="1602.514055" stroke="black" stroke-width="6.48"/>
<line x1="1798.175567" y1="1752.202055" x2="1798.175567" y2="1627.224455" stroke="black" stroke-width="6.48"/>
<line x1="1988.255567" y1="1775.962055" x2="1988.255567" y2="1602.514055" stroke="black" stroke-width="6.48"/>
<line x1="1485.415969" y1="209.267824" x2="1707.693134" y2="209.267824" stroke="black" stroke-width="6.48"/>
<line x1="1707.693134" y1="209.267824" x2="1707.693134" y2="432.000475" stroke="black" stroke-width="6.48"/>
<line x1="1707.693134" y1="432.000475" x2="1485.415969" y2="432.000475" stroke="black" stroke-width="6.48"/>
<line x1="1485.415969" y1="432.000475" x2="1485.415969" y2="209.267824" stroke="black" stroke-width="6.48"/>
<line x1="1484.960483" y1="208.812337" x2="1707.693134" y2="432.000475" stroke="black" stroke-width="6.48"/>
<line x1="1485.415969" y1="431.544989" x2="1707.237648" y2="209.267824" stroke="black" stroke-width="6.48"/>
<line x1="2761.020558" y1="2194.614338" x2="2761.020558" y2="1803.366338" stroke="black" stroke-width="6.48"/>
<line x1="2761.020558" y1="1803.366338" x2="2586.780558" y2="1803.366338" stroke="black" stroke-width="6.48"/>
<line x1="2586.780558" y1="1803.366338" x2="2586.780558" y2="2194.614338" stroke="black" stroke-width="6.48"/>
<line x1="2586.780558" y1="2194.614338" x2="2761.020558" y2="2194.614338" stroke="black" stroke-width="6.48"/>
<line x1="2613.708558" y1="1878.606338" x2="2613.708558" y2="2162.934338" stroke="black" stroke-width="6.48"/>
<line x1="2613.708558" y1="2162.934338" x2="2731.716558" y2="2162.934338" stroke="black" stroke-width="6.48"/>
<line x1="2731.716558" y1="2162.934338" x2="2731.716558" y2="1873.062338" stroke="black" stroke-width="6.48"/>
<path d="m 2613.453134,1879.416911 a 63.3599990854681,63.3599990854681 0 0 1 119.3743300000001,-4.293814000000111" fill="none" stroke="black" stroke-width="6.48"/>
<line x1="2105.396471" y1="1854.595829" x2="2105.396471" y2="2038.339829" stroke="black" stroke-width="6.48"/>
<line x1="2105.396471" y1="2038.339829" x2="2056.292471" y2="2038.339829" stroke="black" stroke-width="6.48"/>
<line x1="2056.292471" y1="1854.595829" x2="2056.292471" y2="2038.339829" stroke="black" stroke-width="6.48"/>
<line x1="2105.396471" y1="1854.595829" x2="2056.292471" y2="1854.595829" stroke="black" stroke-width="6.48"/>
<line x1="2133.116471" y1="1896.175829" x2="2105.396471" y2="1896.175829" stroke="black" stroke-width="6.48"/>
<line x1="2105.396471" y1="1995.175829" x2="2134.700471" y2="1995.175829" stroke="black" stroke-width="6.48"/>
<circle cx="2178.260471" cy="1944.883829" r="66.52800000000002" fill="none" stroke="black" stroke-width="6.48"/>
<circle cx="2178.260471" cy="1944.883829" r="57.02400000000001" fill="none" stroke="black" stroke-width="6.48"/>
<line x1="562.364636" y1="210.280586" x2="955.608509" y2="210.280586" stroke="black" stroke-width="6.48"/>
<line x1="959.563915" y1="209.284304" x2="959.563915" y2="345.35308" stroke="black" stroke-width="6.48"/>
<line x1="562.829026" y1="346.504586" x2="959.869256" y2="346.504586" stroke="black" stroke-width="6.48"/>
<line x1="563.563915" y1="210.975336" x2="563.563915" y2="346.239392" stroke="black" stroke-width="6.48"/>
<line x1="573.859915" y1="221.368586" x2="697.411915" y2="221.368586" stroke="black" stroke-width="6.48"/>
<line x1="697.411915" y1="221.368586" x2="697.411915" y2="335.416586" stroke="black" stroke-width="6.48"/>
<line x1="573.859915" y1="335.416586" x2="697.411915" y2="335.416586" stroke="black" stroke-width="6.48"/>
<line x1="573.859915" y1="221.368586" x2="573.859915" y2="335.416586" stroke="black" stroke-width="6.48"/>
<line x1="716.419915" y1="228.496586" x2="803.539915" y2="228.496586" stroke="black" stroke-width="6.48"/>
<line x1="716.419915" y1="248.296586" x2="803.539915" y2="248.296586" stroke="black" stroke-width="6.48"/>
<line x1="717.211915" y1="268.888586" x2="803.539915" y2="268.888586" stroke="black" stroke-width="6.48"/>
<line x1="717.211915" y1="288.688586" x2="803.539915" y2="288.688586" stroke="black" stroke-width="6.48"/>
<line x1="716.419915" y1="308.488586" x2="803.539915" y2="308.488586" stroke="black" stroke-width="6.48"/>
<line x1="716.419915" y1="328.288586" x2="803.539915" y2="328.288586" stroke="black" stroke-width="6.48"/>
<line x1="621.379915" y1="334.624586" x2="621.379915" y2="321.160586" stroke="black" stroke-width="6.48"/>
<line x1="621.379915" y1="321.160586" x2="651.475915" y2="321.160586" stroke="black" stroke-width="6.48"/>
<line x1="651.475915" y1="321.160586" x2="651.475915" y2="333.832586" stroke="black" stroke-width="6.48"/>
<line x1="824.131915" y1="221.368586" x2="947.683915" y2="221.368586" stroke="black" stroke-width="6.48"/>
<line x1="947.683915" y1="221.368586" x2="947.683915" y2="335.416586" stroke="black" stroke-width="6.48"/>
<line x1="824.131915" y1="335.416586" x2="947.683915" y2="335.416586" stroke="black" stroke-width="6.48"/>
<line x1="824.131915" y1="221.368586" x2="824.131915" y2="335.416586" stroke="black" stroke-width="6.48"/>
<line x1="871.651915" y1="335.416586" x2="871.651915" y2="321.952586" stroke="black" stroke-width="6.48"/>
<line x1="871.651915" y1="321.952586" x2="901.747915" y2="321.952586" stroke="black" stroke-width="6.48"/>
<line x1="901.747915" y1="321.952586" x2="901.747915" y2="334.624586" stroke="black" stroke-width="6.48"/>
<circle cx="683.155915" cy="235.624586" r="7.128000000000001" fill="none" stroke="black" stroke-width="6.48"/>
<circle cx="933.427915" cy="236.416586" r="7.128000000000001" fill="none" stroke="black" stroke-width="6.48"/>
<line x1="1194.062648" y1="1189.823346" x2="807.198649" y2="1121.608786" stroke="black" stroke-width="6.48"/>
<line x1="807.198649" y1="1121.608786" x2="775.154308" y2="1303.341268" stroke="black" stroke-width="6.48"/>
<line x1="775.154308" y1="1303.341268" x2="1162.018307" y2="1371.555828" stroke="black" stroke-width="6.48"/>
<line x1="1162.018307" y1="1371.555828" x2="1194.062648" y2="1189.823346" stroke="black" stroke-width="6.48"/>
<line x1="1005.24479" y1="1343.912429" x2="991.216796" y2="1423.469138" stroke="black" stroke-width="6.48"/>
<line x1="991.216796" y1="1423.469138" x2="1068.433603" y2="1437.084547" stroke="black" stroke-width="6.48"/>
<line x1="1068.433603" y1="1437.084547" x2="1082.461597" y2="1357.527838" stroke="black" stroke-width="6.48"/>
<line x1="1070.67928" y1="1419.787724" x2="994.242442" y2="1406.30985" stroke="black" stroke-width="6.48"/>
<line x1="1128.67146" y1="1095.458677" x2="1051.454657" y2="1081.843268" stroke="black" stroke-width="6.48"/>
<line x1="1051.454657" y1="1081.843268" x2="1037.289128" y2="1162.179943" stroke="black" stroke-width="6.48"/>
<line x1="1114.505939" y1="1175.795352" x2="1128.67146" y2="1095.458677" stroke="black" stroke-width="6.48"/>
<line x1="1124.86585" y1="1112.480435" x2="1048.429012" y2="1099.00256" stroke="black" stroke-width="6.48"/>
<line x1="856.270951" y1="1317.64432" x2="842.242957" y2="1397.201033" stroke="black" stroke-width="6.48"/>
<line x1="842.242957" y1="1397.201033" x2="919.459768" y2="1410.816438" stroke="black" stroke-width="6.48"/>
<line x1="919.459768" y1="1410.816438" x2="933.487762" y2="1331.259728" stroke="black" stroke-width="6.48"/>
<line x1="922.485413" y1="1393.657146" x2="845.268602" y2="1380.041741" stroke="black" stroke-width="6.48"/>
<line x1="979.697624" y1="1069.190568" x2="902.480818" y2="1055.575159" stroke="black" stroke-width="6.48"/>
<line x1="902.480818" y1="1055.575159" x2="888.315293" y2="1135.911838" stroke="black" stroke-width="6.48"/>
<line x1="965.5321" y1="1149.527246" x2="979.697624" y2="1069.190568" stroke="black" stroke-width="6.48"/>
<line x1="976.671976" y1="1086.349856" x2="899.455172" y2="1072.734451" stroke="black" stroke-width="6.48"/>
<line x1="2044.889399" y1="955.822399" x2="2267.166564" y2="955.822399" stroke="black" stroke-width="6.48"/>
<line x1="2267.166564" y1="955.822399" x2="2267.166564" y2="1178.555051" stroke="black" stroke-width="6.48"/>
<line x1="2267.166564" y1="1178.555051" x2="2044.889399" y2="1178.555051" stroke="black" stroke-width="6.48"/>
<line x1="2044.889399" y1="1178.555051" x2="2044.889399" y2="955.822399" stroke="black" stroke-width="6.48"/>
<line x1="2044.433912" y1="955.366913" x2="2267.166564" y2="1178.555051" stroke="black" stroke-width="6.48"/>
<line x1="2044.889399" y1="1178.099564" x2="2266.711078" y2="955.822399" stroke="black" stroke-width="6.48"/>
<line x1="323.258818" y1="1375.374532" x2="323.258818" y2="949.841089" stroke="black" stroke-width="6.48"/>
<line x1="323.258818" y1="949.841089" x2="257.659344" y2="949.841089" stroke="black" stroke-width="6.48"/>
<line x1="257.659344" y1="949.841089" x2="257.659344" y2="1375.374532" stroke="black" stroke-width="6.48"/>
<line x1="257.659344" y1="1375.374532" x2="323.258818" y2="1375.374532" stroke="black" stroke-width="6.48"/>
<line x1="258.522494" y1="1335.669588" x2="322.395667" y2="1335.669588" stroke="black" stroke-width="6.48"/>
<line x1="258.522494" y1="990.409187" x2="324.985122" y2="990.409187" stroke="black" stroke-width="6.48"/>
<line x1="288.73278" y1="1336.532738" x2="288.73278" y2="991.272337" stroke="black" stroke-width="6.48"/>
<line x1="3874.406537" y1="1514.726719" x2="3874.406537" y2="1940.260162" stroke="black" stroke-width="6.48"/>
<line x1="3874.406537" y1="1940.260162" x2="3940.00601" y2="1940.260162" stroke="black" stroke-width="6.48"/>
<line x1="3940.00601" y1="1940.260162" x2="3940.00601" y2="1514.726719" stroke="black" stroke-width="6.48"/>
<line x1="3940.00601" y1="1514.726719" x2="3874.406537" y2="1514.726719" stroke="black" stroke-width="6.48"/>
<line x1="3939.14286" y1="1554.431663" x2="3875.269687" y2="1554.431663" stroke="black" stroke-width="6.48"/>
<line x1="3939.14286" y1="1899.692064" x2="3872.680232" y2="1899.692064" stroke="black" stroke-width="6.48"/>
<line x1="3908.932574" y1="1553.568512" x2="3908.932574" y2="1898.828914" stroke="black" stroke-width="6.48"/>
<line x1="4722.145016" y1="1726.156703" x2="4749.611314" y2="1596.937932" stroke="black" stroke-width="6.48"/>
<line x1="4749.611314" y1="1596.937932" x2="4763.555784" y2="1599.90192" stroke="black" stroke-width="6.48"/>
<line x1="4736.089487" y1="1729.120694" x2="4763.555784" y2="1599.90192" stroke="black" stroke-width="6.48"/>
<line x1="4722.145016" y1="1726.156703" x2="4736.089487" y2="1729.120694" stroke="black" stroke-width="6.48"/>
<line x1="4738.855878" y1="1716.105856" x2="4769.138516" y2="1724.485892" stroke="black" stroke-width="6.48"/>
<line x1="4760.789396" y1="1612.916759" x2="4792.792064" y2="1617.77587" stroke="black" stroke-width="6.48"/>
<line x1="5173.016285" y1="1821.99235" x2="5200.482582" y2="1692.773575" stroke="black" stroke-width="6.48"/>
<line x1="5200.482582" y1="1692.773575" x2="5187.467743" y2="1690.007184" stroke="black" stroke-width="6.48"/>
<line x1="5160.001442" y1="1819.225962" x2="5187.467743" y2="1690.007184" stroke="black" stroke-width="6.48"/>
<line x1="5173.016285" y1="1821.99235" x2="5160.001442" y2="1819.225962" stroke="black" stroke-width="6.48"/>
<line x1="5160.71097" y1="1806.745554" x2="5129.637934" y2="1802.08404" stroke="black" stroke-width="6.48"/>
<line x1="5182.644488" y1="1703.556461" x2="5151.629815" y2="1694.049188" stroke="black" stroke-width="6.48"/>
<line x1="4944.424633" y1="1471.22599" x2="4941.460645" y2="1485.17046" stroke="black" stroke-width="6.48"/>
<line x1="4941.460645" y1="1485.17046" x2="5070.679423" y2="1512.636757" stroke="black" stroke-width="6.48"/>
<line x1="5073.643411" y1="1498.692287" x2="5070.679423" y2="1512.636757" stroke="black" stroke-width="6.48"/>
<line x1="4944.424633" y1="1471.22599" x2="5073.643411" y2="1498.692287" stroke="black" stroke-width="6.48"/>
<line x1="5056.734946" y1="1509.672769" x2="5052.805466" y2="1541.873038" stroke="black" stroke-width="6.48"/>
<line x1="4954.475488" y1="1487.936851" x2="4945.897847" y2="1519.149121" stroke="black" stroke-width="6.48"/>
<line x1="4847.856955" y1="1920.970022" x2="4850.820947" y2="1907.025552" stroke="black" stroke-width="6.48"/>
<line x1="4850.820947" y1="1907.025552" x2="4980.039718" y2="1934.491849" stroke="black" stroke-width="6.48"/>
<line x1="4977.07573" y1="1948.436323" x2="4980.039718" y2="1934.491849" stroke="black" stroke-width="6.48"/>
<line x1="4847.856955" y1="1920.970022" x2="4977.07573" y2="1948.436323" stroke="black" stroke-width="6.48"/>
<line x1="4966.095247" y1="1931.527861" x2="4975.60252" y2="1900.513192" stroke="black" stroke-width="6.48"/>
<line x1="4863.835782" y1="1909.79194" x2="4868.694896" y2="1877.789272" stroke="black" stroke-width="6.48"/>
<circle cx="4960.750183" cy="1709.831156" r="191.98080000000002" fill="none" stroke="black" stroke-width="6.48"/>
<line x1="3169.491966" y1="1074.531784" x2="3378.85717" y2="1074.531784" stroke="black" stroke-width="6.48"/>
<line x1="3378.85717" y1="1074.531784" x2="3378.85717" y2="743.31738" stroke="black" stroke-width="6.48"/>
<line x1="3378.85717" y1="743.31738" x2="3169.491966" y2="743.31738" stroke="black" stroke-width="6.48"/>
<line x1="3169.491966" y1="743.31738" x2="3169.491966" y2="1074.531784" stroke="black" stroke-width="6.48"/>
<line x1="3168.818766" y1="802.55898" x2="3379.530366" y2="802.55898" stroke="black" stroke-width="6.48"/>
<line x1="3379.530366" y1="802.55898" x2="3170.165166" y2="852.375784" stroke="black" stroke-width="6.48"/>
<line x1="3170.165166" y1="852.375784" x2="3201.80557" y2="898.826584" stroke="black" stroke-width="6.48"/>
<line x1="3201.80557" y1="898.826584" x2="3379.530366" y2="801.885784" stroke="black" stroke-width="6.48"/>
<line x1="3400.031203" y1="1203.174425" x2="3622.308368" y2="1203.174425" stroke="black" stroke-width="6.48"/>
<line x1="3622.308368" y1="1203.174425" x2="3622.308368" y2="1425.907076" stroke="black" stroke-width="6.48"/>
<line x1="3622.308368" y1="1425.907076" x2="3400.031203" y2="1425.907076" stroke="black" stroke-width="6.48"/>
<line x1="3400.031203" y1="1425.907076" x2="3400.031203" y2="1203.174425" stroke="black" stroke-width="6.48"/>
<line x1="3399.575717" y1="1202.718938" x2="3622.308368" y2="1425.907076" stroke="black" stroke-width="6.48"/>
<line x1="3400.031203" y1="1425.45159" x2="3621.852882" y2="1203.174425" stroke="black" stroke-width="6.48"/>
<line x1="2804.16708" y1="1127.69402" x2="2804.16708" y2="1153.148746" stroke="black" stroke-width="6.48"/>
<line x1="2804.16708" y1="1153.148746" x2="2853.834836" y2="1153.148746" stroke="black" stroke-width="6.48"/>
<line x1="2853.834836" y1="1153.148746" x2="2853.834836" y2="1127.69402" stroke="black" stroke-width="6.48"/>
<line x1="2853.834836" y1="1127.69402" x2="2804.16708" y2="1127.69402" stroke="black" stroke-width="6.48"/>
<line x1="2853.834836" y1="1402.108373" x2="3101.55277" y2="1402.108373" stroke="black" stroke-width="6.48"/>
<line x1="2802.925386" y1="1402.729218" x2="2802.925386" y2="1428.183943" stroke="black" stroke-width="6.48"/>
<line x1="2802.925386" y1="1428.183943" x2="2852.593142" y2="1428.183943" stroke="black" stroke-width="6.48"/>
<line x1="2852.593142" y1="1428.183943" x2="2852.593142" y2="1402.729218" stroke="black" stroke-width="6.48"/>
<line x1="2852.593142" y1="1402.729218" x2="2802.925386" y2="1402.729218" stroke="black" stroke-width="6.48"/>
<path d="m 2851.972294,1153.148746 a 248.95962699999984,248.95962699999984 0 0 1 248.95962699999973,248.95962699999995" fill="none" stroke="black" stroke-width="6.48"/>
<line x1="3550.696362" y1="1965.185316" x2="3383.883187" y2="1804.095706" stroke="black" stroke-width="6.48"/>
<line x1="3383.883187" y1="1804.095706" x2="3545.3029" y2="1636.9407" stroke="black" stroke-width="6.48"/>
<line x1="3545.3029" y1="1636.9407" x2="3712.116071" y2="1798.03031" stroke="black" stroke-width="6.48"/>
<line x1="3712.116071" y1="1798.03031" x2="3550.696362" y2="1965.185316" stroke="black" stroke-width="6.48"/>
<line x1="3550.708091" y1="1965.857249" x2="3545.3029" y2="1636.9407" stroke="black" stroke-width="6.48"/>
<line x1="3711.785969" y1="1798.372141" x2="3384.225018" y2="1804.425808" stroke="black" stroke-width="6.48"/>
<line x1="3111.239045" y1="1589.315879" x2="3092.650182" y2="1613.98413" stroke="black" stroke-width="6.48"/>
<line x1="3092.650182" y1="1613.98413" x2="3260.014798" y2="1740.102415" stroke="black" stroke-width="6.48"/>
<line x1="3260.014798" y1="1740.102415" x2="3278.60366" y2="1715.43416" stroke="black" stroke-width="6.48"/>
<line x1="3278.60366" y1="1715.43416" x2="3111.239045" y2="1589.315879" stroke="black" stroke-width="6.48"/>
<line x1="2988.552553" y1="1752.12635" x2="2969.96369" y2="1776.794605" stroke="black" stroke-width="6.48"/>
<line x1="2969.96369" y1="1776.794605" x2="3137.328302" y2="1902.912887" stroke="black" stroke-width="6.48"/>
<line x1="3137.328302" y1="1902.912887" x2="3155.917165" y2="1878.244636" stroke="black" stroke-width="6.48"/>
<line x1="3155.917165" y1="1878.244636" x2="2988.552553" y2="1752.12635" stroke="black" stroke-width="6.48"/>
<line x1="3092.936166" y1="1613.604622" x2="2988.552553" y2="1752.12635" stroke="black" stroke-width="6.48"/>
<line x1="3259.827742" y1="1738.771427" x2="3264.685855" y2="1775.753114" stroke="black" stroke-width="6.48"/>
<line x1="3191.760317" y1="1872.528566" x2="3154.872161" y2="1878.052183" stroke="black" stroke-width="6.48"/>
<line x1="3265.829784" y1="1774.235066" x2="3190.616388" y2="1874.046614" stroke="black" stroke-width="6.48"/>
<line x1="3128.324274" y1="1640.866489" x2="3023.940661" y2="1779.388218" stroke="black" stroke-width="6.48"/>
<line x1="919.175249" y1="1969.516613" x2="945.925042" y2="1984.96062" stroke="black" stroke-width="6.48"/>
<line x1="945.925042" y1="1984.96062" x2="1050.706685" y2="1803.47359" stroke="black" stroke-width="6.48"/>
<line x1="1050.706685" y1="1803.47359" x2="1023.956896" y2="1788.029582" stroke="black" stroke-width="6.48"/>
<line x1="1023.956896" y1="1788.029582" x2="919.175249" y2="1969.516613" stroke="black" stroke-width="6.48"/>
<line x1="1095.723853" y1="2071.447056" x2="1122.473646" y2="2086.891063" stroke="black" stroke-width="6.48"/>
<line x1="1122.473646" y1="2086.891063" x2="1227.255289" y2="1905.404033" stroke="black" stroke-width="6.48"/>
<line x1="1227.255289" y1="1905.404033" x2="1200.5055" y2="1889.960026" stroke="black" stroke-width="6.48"/>
<line x1="1200.5055" y1="1889.960026" x2="1095.723853" y2="2071.447056" stroke="black" stroke-width="6.48"/>
<line x1="945.5135" y1="1984.723016" x2="1095.723853" y2="2071.447056" stroke="black" stroke-width="6.48"/>
<line x1="1049.408413" y1="1803.821458" x2="1085.522389" y2="1794.492626" stroke="black" stroke-width="6.48"/>
<line x1="1190.463869" y1="1855.080655" x2="1200.441838" y2="1891.020697" stroke="black" stroke-width="6.48"/>
<line x1="1083.87625" y1="1793.54223" x2="1192.110008" y2="1856.031055" stroke="black" stroke-width="6.48"/>
<line x1="968.259449" y1="1946.276309" x2="1118.469802" y2="2033.000345" stroke="black" stroke-width="6.48"/>
<line x1="5702.875438" y1="1534.133894" x2="5710.347918" y2="1564.104384" stroke="black" stroke-width="6.48"/>
<line x1="5710.347918" y1="1564.104384" x2="5913.686196" y2="1513.406462" stroke="black" stroke-width="6.48"/>
<line x1="5913.686196" y1="1513.406462" x2="5906.213712" y2="1483.435966" stroke="black" stroke-width="6.48"/>
<line x1="5906.213712" y1="1483.435966" x2="5702.875438" y2="1534.133894" stroke="black" stroke-width="6.48"/>
<line x1="5752.193828" y1="1731.939156" x2="5759.666312" y2="1761.909649" stroke="black" stroke-width="6.48"/>
<line x1="5759.666312" y1="1761.909649" x2="5963.004587" y2="1711.211724" stroke="black" stroke-width="6.48"/>
<line x1="5963.004587" y1="1711.211724" x2="5955.532106" y2="1681.241227" stroke="black" stroke-width="6.48"/>
<line x1="5955.532106" y1="1681.241227" x2="5752.193828" y2="1731.939156" stroke="black" stroke-width="6.48"/>
<line x1="5710.232959" y1="1563.643303" x2="5752.193828" y2="1731.939156" stroke="black" stroke-width="6.48"/>
<line x1="5912.534106" y1="1512.714215" x2="5944.331588" y2="1532.212078" stroke="black" stroke-width="6.48"/>
<line x1="5973.646716" y1="1649.788632" x2="5954.724896" y2="1681.932236" stroke="black" stroke-width="6.48"/>
<line x1="5943.871742" y1="1530.36774" x2="5974.106558" y2="1651.63297" stroke="black" stroke-width="6.48"/>
<line x1="5753.689866" y1="1553.298023" x2="5795.650735" y2="1721.593879" stroke="black" stroke-width="6.48"/>
<line x1="6313.140637" y1="1837.594807" x2="6124.101916" y2="1817.726036" stroke="black" stroke-width="6.48"/>
<line x1="6124.101916" y1="1817.726036" x2="6075.622116" y2="2278.980518" stroke="black" stroke-width="6.48"/>
<line x1="6075.622116" y1="2278.980518" x2="6264.660838" y2="2298.849286" stroke="black" stroke-width="6.48"/>
<line x1="6264.660838" y1="2298.849286" x2="6267.144434" y2="2275.219447" stroke="black" stroke-width="6.48"/>
<line x1="6267.144434" y1="2275.219447" x2="6100.790357" y2="2257.734931" stroke="black" stroke-width="6.48"/>
<line x1="6100.790357" y1="2257.734931" x2="6144.203624" y2="1844.68532" stroke="black" stroke-width="6.48"/>
<line x1="6144.203624" y1="1844.68532" x2="6310.557698" y2="1862.16984" stroke="black" stroke-width="6.48"/>
<line x1="6310.557698" y1="1862.16984" x2="6313.140637" y2="1837.594807" stroke="black" stroke-width="6.48"/>
<line x1="6304.886536" y1="1861.573777" x2="6261.473272" y2="2274.623384" stroke="black" stroke-width="6.48"/>
<line x1="6284.174771" y1="2067.725329" x2="6123.491856" y2="2050.836876" stroke="black" stroke-width="6.48"/>
</g>
</svg>
