<?xml version="1.0"?>
<svg xmlns:xlink="http://www.w3.org/1999/xlink" width="6775.2" height="2858.4">
<image x="0" y="0" width="6775.2" height="2858.4" xlink:href="groundfilled-01.png"/>
<g style="stroke-linecap:round">
<line x1="1285.950406" y1="795.178109" x2="1311.346069" y2="795.178109" stroke="black" stroke-width="6.48"/>
<line x1="1311.346069" y1="795.178109" x2="1311.346069" y2="745.625592" stroke="black" stroke-width="6.48"/>
<line x1="1311.346069" y1="745.625592" x2="1285.950406" y2="745.625592" stroke="black" stroke-width="6.48"/>
<line x1="1285.950406" y1="745.625592" x2="1285.950406" y2="795.178109" stroke="black" stroke-width="6.48"/>
<line x1="1559.728062" y1="745.625592" x2="1559.728062" y2="498.48241" stroke="black" stroke-width="6.48"/>
<line x1="1560.347471" y1="796.416923" x2="1585.743134" y2="796.416923" stroke="black" stroke-width="6.48"/>
<line x1="1585.743134" y1="796.416923" x2="1585.743134" y2="746.864406" stroke="black" stroke-width="6.48"/>
<line x1="1585.743134" y1="746.864406" x2="1560.347471" y2="746.864406" stroke="black" stroke-width="6.48"/>
<line x1="1560.347471" y1="746.864406" x2="1560.347471" y2="796.416923" stroke="black" stroke-width="6.48"/>
<path d="m 1311.346069,747.483811 a 248.38199299999997,248.38199299999997 0 0 1 248.38199299999997,-248.38199299999997" fill="none" stroke="black" stroke-width="6.48"/>
<line x1="330.523178" y1="771.328966" x2="330.523178" y2="366.748985" stroke="black" stroke-width="6.48"/>
<line x1="330.523178" y1="366.748985" x2="258.15928" y2="366.748985" stroke="black" stroke-width="6.48"/>
<line x1="258.15928" y1="366.748985" x2="258.15928" y2="771.328966" stroke="black" stroke-width="6.48"/>
<line x1="258.15928" y1="771.328966" x2="330.523178" y2="771.328966" stroke="black" stroke-width="6.48"/>
<line x1="330.523178" y1="752.415674" x2="355.19269" y2="752.415674" stroke="black" stroke-width="6.48"/>
<line x1="355.19269" y1="752.415674" x2="355.19269" y2="386.484595" stroke="black" stroke-width="6.48"/>
<line x1="330.523178" y1="386.484595" x2="355.19269" y2="386.484595" stroke="black" stroke-width="6.48"/>
<line x1="3901.945176" y1="1169.331426" x2="3901.945176" y2="1428.837066" stroke="black" stroke-width="6.48"/>
<line x1="3901.945176" y1="1428.837066" x2="3941.9501" y2="1428.837066" stroke="black" stroke-width="6.48"/>
<line x1="3941.9501" y1="1428.837066" x2="3941.9501" y2="1169.331426" stroke="black" stroke-width="6.48"/>
<line x1="3941.9501" y1="1169.331426" x2="3901.945176" y2="1169.331426" stroke="black" stroke-width="6.48"/>
<line x1="3941.423719" y1="1193.544936" x2="3902.471557" y2="1193.544936" stroke="black" stroke-width="6.48"/>
<line x1="3941.423719" y1="1404.097178" x2="3900.892414" y2="1404.097178" stroke="black" stroke-width="6.48"/>
<line x1="3923.000399" y1="1193.018555" x2="3923.000399" y2="1403.570797" stroke="black" stroke-width="6.48"/>
<line x1="334.430687" y1="1882.943946" x2="334.430687" y2="1457.437414" stroke="black" stroke-width="6.48"/>
<line x1="334.430687" y1="1457.437414" x2="258.323828" y2="1457.437414" stroke="black" stroke-width="6.48"/>
<line x1="258.323828" y1="1457.437414" x2="258.323828" y2="1882.943946" stroke="black" stroke-width="6.48"/>
<line x1="258.323828" y1="1882.943946" x2="334.430687" y2="1882.943946" stroke="black" stroke-width="6.48"/>
<line x1="334.430687" y1="1863.05238" x2="360.376207" y2="1863.05238" stroke="black" stroke-width="6.48"/>
<line x1="360.376207" y1="1863.05238" x2="360.376207" y2="1478.193829" stroke="black" stroke-width="6.48"/>
<line x1="334.430687" y1="1478.193829" x2="360.376207" y2="1478.193829" stroke="black" stroke-width="6.48"/>
<line x1="2747.905531" y1="904.670665" x2="2721.68303" y2="904.670665" stroke="black" stroke-width="6.48"/>
<line x1="2721.68303" y1="904.670665" x2="2721.68303" y2="955.836522" stroke="black" stroke-width="6.48"/>
<line x1="2721.68303" y1="955.836522" x2="2747.905531" y2="955.836522" stroke="black" stroke-width="6.48"/>
<line x1="2747.905531" y1="955.836522" x2="2747.905531" y2="904.670665" stroke="black" stroke-width="6.48"/>
<line x1="2465.214181" y1="955.836522" x2="2465.214181" y2="1211.026223" stroke="black" stroke-width="6.48"/>
<line x1="2464.574609" y1="903.39152" x2="2438.352108" y2="903.39152" stroke="black" stroke-width="6.48"/>
<line x1="2438.352108" y1="903.39152" x2="2438.352108" y2="954.557374" stroke="black" stroke-width="6.48"/>
<line x1="2438.352108" y1="954.557374" x2="2464.574609" y2="954.557374" stroke="black" stroke-width="6.48"/>
<line x1="2464.574609" y1="954.557374" x2="2464.574609" y2="903.39152" stroke="black" stroke-width="6.48"/>
<path d="m 2721.68303,953.917801 a 256.4688490000001,256.4688490000001 0 0 1 -256.4688490000003,256.46884899999986" fill="none" stroke="black" stroke-width="6.48"/>
<line x1="2420.532389" y1="1427.858834" x2="2395.136725" y2="1427.858834" stroke="black" stroke-width="6.48"/>
<line x1="2395.136725" y1="1427.858834" x2="2395.136725" y2="1477.411351" stroke="black" stroke-width="6.48"/>
<line x1="2395.136725" y1="1477.411351" x2="2420.532389" y2="1477.411351" stroke="black" stroke-width="6.48"/>
<line x1="2420.532389" y1="1477.411351" x2="2420.532389" y2="1427.858834" stroke="black" stroke-width="6.48"/>
<line x1="2146.754732" y1="1477.411351" x2="2146.754732" y2="1724.554534" stroke="black" stroke-width="6.48"/>
<line x1="2146.135324" y1="1426.62002" x2="2120.73966" y2="1426.62002" stroke="black" stroke-width="6.48"/>
<line x1="2120.73966" y1="1426.62002" x2="2120.73966" y2="1476.172537" stroke="black" stroke-width="6.48"/>
<line x1="2120.73966" y1="1476.172537" x2="2146.135324" y2="1476.172537" stroke="black" stroke-width="6.48"/>
<line x1="2146.135324" y1="1476.172537" x2="2146.135324" y2="1426.62002" stroke="black" stroke-width="6.48"/>
<path d="m 2395.136725,1475.553132 a 248.38199299999997,248.38199299999997 0 0 1 -248.38199299999997,248.38199299999997" fill="none" stroke="black" stroke-width="6.48"/>
<line x1="651.676514" y1="692.136151" x2="1044.508514" y2="692.136151" stroke="black" stroke-width="6.48"/>
<line x1="1044.508514" y1="692.136151" x2="1044.508514" y2="507.600151" stroke="black" stroke-width="6.48"/>
<line x1="1044.508514" y1="507.600151" x2="651.676514" y2="507.600151" stroke="black" stroke-width="6.48"/>
<line x1="651.676514" y1="507.600151" x2="651.676514" y2="692.136151" stroke="black" stroke-width="6.48"/>
<line x1="810.868514" y1="507.600151" x2="810.868514" y2="426.816151" stroke="black" stroke-width="6.48"/>
<line x1="810.868514" y1="426.816151" x2="732.460514" y2="426.816151" stroke="black" stroke-width="6.48"/>
<line x1="732.460514" y1="426.816151" x2="732.460514" y2="507.600151" stroke="black" stroke-width="6.48"/>
<line x1="733.252514" y1="444.240151" x2="810.868514" y2="444.240151" stroke="black" stroke-width="6.48"/>
<line x1="732.460514" y1="773.712151" x2="810.868514" y2="773.712151" stroke="black" stroke-width="6.48"/>
<line x1="810.868514" y1="773.712151" x2="810.868514" y2="692.136151" stroke="black" stroke-width="6.48"/>
<line x1="732.460514" y1="692.136151" x2="732.460514" y2="773.712151" stroke="black" stroke-width="6.48"/>
<line x1="733.252514" y1="756.288151" x2="810.868514" y2="756.288151" stroke="black" stroke-width="6.48"/>
<line x1="962.140514" y1="507.600151" x2="962.140514" y2="426.816151" stroke="black" stroke-width="6.48"/>
<line x1="962.140514" y1="426.816151" x2="883.732514" y2="426.816151" stroke="black" stroke-width="6.48"/>
<line x1="883.732514" y1="426.816151" x2="883.732514" y2="507.600151" stroke="black" stroke-width="6.48"/>
<line x1="883.732514" y1="444.240151" x2="962.140514" y2="444.240151" stroke="black" stroke-width="6.48"/>
<line x1="883.732514" y1="773.712151" x2="962.140514" y2="773.712151" stroke="black" stroke-width="6.48"/>
<line x1="962.140514" y1="773.712151" x2="962.140514" y2="692.136151" stroke="black" stroke-width="6.48"/>
<line x1="883.732514" y1="692.136151" x2="883.732514" y2="773.712151" stroke="black" stroke-width="6.48"/>
<line x1="883.732514" y1="756.288151" x2="962.140514" y2="756.288151" stroke="black" stroke-width="6.48"/>
<line x1="2032.924367" y1="1813.379245" x2="2032.924367" y2="1604.291245" stroke="black" stroke-width="6.48"/>
<line x1="2032.924367" y1="1604.291245" x2="1801.026767" y2="1604.291245" stroke="black" stroke-width="6.48"/>
<line x1="1801.026767" y1="1604.291245" x2="1801.026767" y2="1813.379245" stroke="black" stroke-width="6.48"/>
<line x1="1801.026767" y1="1813.379245" x2="2032.924367" y2="1813.379245" stroke="black" stroke-width="6.48"/>
<line x1="2000.610767" y1="1813.379245" x2="2000.610767" y2="1604.291245" stroke="black" stroke-width="6.48"/>
<line x1="1485.415969" y1="209.267824" x2="1707.693134" y2="209.267824" stroke="black" stroke-width="6.48"/>
<line x1="1707.693134" y1="209.267824" x2="1707.693134" y2="432.000475" stroke="black" stroke-width="6.48"/>
<line x1="1707.693134" y1="432.000475" x2="1485.415969" y2="432.000475" stroke="black" stroke-width="6.48"/>
<line x1="1485.415969" y1="432.000475" x2="1485.415969" y2="209.267824" stroke="black" stroke-width="6.48"/>
<line x1="1484.960483" y1="208.812337" x2="1707.693134" y2="432.000475" stroke="black" stroke-width="6.48"/>
<line x1="1485.415969" y1="431.544989" x2="1707.237648" y2="209.267824" stroke="black" stroke-width="6.48"/>
<line x1="2761.020558" y1="2194.614338" x2="2761.020558" y2="1803.366338" stroke="black" stroke-width="6.48"/>
<line x1="2761.020558" y1="1803.366338" x2="2586.780558" y2="1803.366338" stroke="black" stroke-width="6.48"/>
<line x1="2586.780558" y1="1803.366338" x2="2586.780558" y2="2194.614338" stroke="black" stroke-width="6.48"/>
<line x1="2586.780558" y1="2194.614338" x2="2761.020558" y2="2194.614338" stroke="black" stroke-width="6.48"/>
<line x1="2613.708558" y1="1878.606338" x2="2613.708558" y2="2162.934338" stroke="black" stroke-width="6.48"/>
<line x1="2613.708558" y1="2162.934338" x2="2731.716558" y2="2162.934338" stroke="black" stroke-width="6.48"/>
<line x1="2731.716558" y1="2162.934338" x2="2731.716558" y2="1873.062338" stroke="black" stroke-width="6.48"/>
<path d="m 2613.453134,1879.416911 a 63.3599990854681,63.3599990854681 0 0 1 119.3743300000001,-4.293814000000111" fill="none" stroke="black" stroke-width="6.48"/>
<line x1="2081.082056" y1="1884.53192" x2="2056.530056" y2="1903.14392" stroke="black" stroke-width="6.48"/>
<line x1="2056.530056" y1="1903.14392" x2="2056.530056" y2="2050.45592" stroke="black" stroke-width="6.48"/>
<line x1="2056.530056" y1="2050.45592" x2="2084.646056" y2="2069.46392" stroke="black" stroke-width="6.48"/>
<line x1="2083.854056" y1="1906.31192" x2="2083.854056" y2="2049.26792" stroke="black" stroke-width="6.48"/>
<circle cx="2105.634056" cy="1975.61192" r="13.068000000000003" fill="none" stroke="black" stroke-width="6.48"/>
<path d="m 2083.18671,1907.865173 a 74.8440000678095,74.8440000678095 0 1 1 0.40204799999992247,139.60900400000014" fill="none" stroke="black" stroke-width="6.48"/>
<path d="m 2080.424693,1884.578224 a 95.43599858117895,95.43599858117895 0 1 1 3.0749580000001515,184.466995" fill="none" stroke="black" stroke-width="6.48"/>
<line x1="662.397804" y1="209.370578" x2="932.945004" y2="209.370578" stroke="black" stroke-width="6.48"/>
<line x1="932.945004" y1="209.370578" x2="932.945004" y2="341.317778" stroke="black" stroke-width="6.48"/>
<line x1="662.397804" y1="341.317778" x2="932.945004" y2="341.317778" stroke="black" stroke-width="6.48"/>
<line x1="662.397804" y1="209.370578" x2="662.397804" y2="341.317778" stroke="black" stroke-width="6.48"/>
<line x1="669.050604" y1="216.023378" x2="807.096204" y2="216.023378" stroke="black" stroke-width="6.48"/>
<line x1="807.096204" y1="216.023378" x2="807.096204" y2="334.110578" stroke="black" stroke-width="6.48"/>
<line x1="669.050604" y1="334.110578" x2="807.096204" y2="334.110578" stroke="black" stroke-width="6.48"/>
<line x1="669.050604" y1="216.023378" x2="669.050604" y2="334.110578" stroke="black" stroke-width="6.48"/>
<line x1="821.510604" y1="223.784978" x2="918.530604" y2="223.784978" stroke="black" stroke-width="6.48"/>
<line x1="821.510604" y1="244.297778" x2="918.530604" y2="244.297778" stroke="black" stroke-width="6.48"/>
<line x1="822.065004" y1="265.364978" x2="919.085004" y2="265.364978" stroke="black" stroke-width="6.48"/>
<line x1="822.065004" y1="285.877778" x2="919.085004" y2="285.877778" stroke="black" stroke-width="6.48"/>
<line x1="821.510604" y1="306.390578" x2="918.530604" y2="306.390578" stroke="black" stroke-width="6.48"/>
<line x1="821.510604" y1="326.903378" x2="918.530604" y2="326.903378" stroke="black" stroke-width="6.48"/>
<line x1="721.718604" y1="334.110578" x2="721.718604" y2="320.250578" stroke="black" stroke-width="6.48"/>
<line x1="721.718604" y1="320.250578" x2="756.091404" y2="320.250578" stroke="black" stroke-width="6.48"/>
<line x1="756.091404" y1="320.250578" x2="756.091404" y2="333.556178" stroke="black" stroke-width="6.48"/>
<circle cx="791.573004" cy="230.992178" r="8.316000000000003" fill="none" stroke="black" stroke-width="6.48"/>
<line x1="1132.318008" y1="1072.601309" x2="1173.140885" y2="1198.241197" stroke="black" stroke-width="6.48"/>
<line x1="1173.140885" y1="1198.241197" x2="1159.582626" y2="1202.646546" stroke="black" stroke-width="6.48"/>
<line x1="1118.759749" y1="1077.006654" x2="1159.582626" y2="1202.646546" stroke="black" stroke-width="6.48"/>
<line x1="1132.318008" y1="1072.601309" x2="1118.759749" y2="1077.006654" stroke="black" stroke-width="6.48"/>
<line x1="1122.871406" y1="1089.661032" x2="1092.455849" y2="1097.545025" stroke="black" stroke-width="6.48"/>
<line x1="1155.470969" y1="1189.992164" x2="1125.32629" y2="1201.785386" stroke="black" stroke-width="6.48"/>
<line x1="693.934214" y1="1215.040838" x2="734.757091" y2="1340.680727" stroke="black" stroke-width="6.48"/>
<line x1="734.757091" y1="1340.680727" x2="747.411469" y2="1336.569073" stroke="black" stroke-width="6.48"/>
<line x1="706.588592" y1="1210.929181" x2="747.411469" y2="1336.569073" stroke="black" stroke-width="6.48"/>
<line x1="693.934214" y1="1215.040838" x2="706.588592" y2="1210.929181" stroke="black" stroke-width="6.48"/>
<line x1="712.214327" y1="1222.092295" x2="741.455122" y2="1210.592765" stroke="black" stroke-width="6.48"/>
<line x1="744.813889" y1="1322.423428" x2="776.427019" y2="1315.149628" stroke="black" stroke-width="6.48"/>
<line x1="1067.283569" y1="1404.517594" x2="1062.878224" y2="1390.959331" stroke="black" stroke-width="6.48"/>
<line x1="1062.878224" y1="1390.959331" x2="937.238335" y2="1431.782208" stroke="black" stroke-width="6.48"/>
<line x1="941.64368" y1="1445.34047" x2="937.238335" y2="1431.782208" stroke="black" stroke-width="6.48"/>
<line x1="1067.283569" y1="1404.517594" x2="941.64368" y2="1445.34047" stroke="black" stroke-width="6.48"/>
<line x1="950.796594" y1="1427.376863" x2="938.099491" y2="1397.525872" stroke="black" stroke-width="6.48"/>
<line x1="1050.223846" y1="1395.070988" x2="1042.046165" y2="1363.75155" stroke="black" stroke-width="6.48"/>
<line x1="926.041615" y1="966.743993" x2="930.44696" y2="980.302255" stroke="black" stroke-width="6.48"/>
<line x1="930.44696" y1="980.302255" x2="804.807068" y2="1021.125128" stroke="black" stroke-width="6.48"/>
<line x1="800.401723" y1="1007.56687" x2="804.807068" y2="1021.125128" stroke="black" stroke-width="6.48"/>
<line x1="926.041615" y1="966.743993" x2="800.401723" y2="1007.56687" stroke="black" stroke-width="6.48"/>
<line x1="818.365331" y1="1016.719783" x2="825.639131" y2="1048.332913" stroke="black" stroke-width="6.48"/>
<line x1="917.792586" y1="984.413909" x2="929.585804" y2="1014.558592" stroke="black" stroke-width="6.48"/>
<circle cx="933.842646" cy="1206.042232" r="191.98080000000002" fill="none" stroke="black" stroke-width="6.48"/>
<line x1="2044.889399" y1="955.822399" x2="2267.166564" y2="955.822399" stroke="black" stroke-width="6.48"/>
<line x1="2267.166564" y1="955.822399" x2="2267.166564" y2="1178.555051" stroke="black" stroke-width="6.48"/>
<line x1="2267.166564" y1="1178.555051" x2="2044.889399" y2="1178.555051" stroke="black" stroke-width="6.48"/>
<line x1="2044.889399" y1="1178.555051" x2="2044.889399" y2="955.822399" stroke="black" stroke-width="6.48"/>
<line x1="2044.433912" y1="955.366913" x2="2267.166564" y2="1178.555051" stroke="black" stroke-width="6.48"/>
<line x1="2044.889399" y1="1178.099564" x2="2266.711078" y2="955.822399" stroke="black" stroke-width="6.48"/>
<line x1="333.766206" y1="1375.361078" x2="333.766206" y2="949.854546" stroke="black" stroke-width="6.48"/>
<line x1="333.766206" y1="949.854546" x2="257.659348" y2="949.854546" stroke="black" stroke-width="6.48"/>
<line x1="257.659348" y1="949.854546" x2="257.659348" y2="1375.361078" stroke="black" stroke-width="6.48"/>
<line x1="257.659348" y1="1375.361078" x2="333.766206" y2="1375.361078" stroke="black" stroke-width="6.48"/>
<line x1="333.766206" y1="1355.469512" x2="359.711726" y2="1355.469512" stroke="black" stroke-width="6.48"/>
<line x1="359.711726" y1="1355.469512" x2="359.711726" y2="970.610962" stroke="black" stroke-width="6.48"/>
<line x1="333.766206" y1="970.610962" x2="359.711726" y2="970.610962" stroke="black" stroke-width="6.48"/>
<line x1="3874.406537" y1="1514.726719" x2="3874.406537" y2="1940.260162" stroke="black" stroke-width="6.48"/>
<line x1="3874.406537" y1="1940.260162" x2="3940.00601" y2="1940.260162" stroke="black" stroke-width="6.48"/>
<line x1="3940.00601" y1="1940.260162" x2="3940.00601" y2="1514.726719" stroke="black" stroke-width="6.48"/>
<line x1="3940.00601" y1="1514.726719" x2="3874.406537" y2="1514.726719" stroke="black" stroke-width="6.48"/>
<line x1="3939.14286" y1="1554.431663" x2="3875.269687" y2="1554.431663" stroke="black" stroke-width="6.48"/>
<line x1="3939.14286" y1="1899.692064" x2="3872.680232" y2="1899.692064" stroke="black" stroke-width="6.48"/>
<line x1="3908.932574" y1="1553.568512" x2="3908.932574" y2="1898.828914" stroke="black" stroke-width="6.48"/>
<line x1="5076.050749" y1="1507.143859" x2="4722.975688" y2="1679.350075" stroke="black" stroke-width="6.48"/>
<line x1="4722.975688" y1="1679.350075" x2="4803.870946" y2="1845.20993" stroke="black" stroke-width="6.48"/>
<line x1="4803.870946" y1="1845.20993" x2="5156.946011" y2="1673.003722" stroke="black" stroke-width="6.48"/>
<line x1="5156.946011" y1="1673.003722" x2="5076.050749" y2="1507.143859" stroke="black" stroke-width="6.48"/>
<line x1="5013.865184" y1="1742.788901" x2="5049.278561" y2="1815.397074" stroke="black" stroke-width="6.48"/>
<line x1="5049.278561" y1="1815.397074" x2="5119.751203" y2="1781.025275" stroke="black" stroke-width="6.48"/>
<line x1="5119.751203" y1="1781.025275" x2="5084.33783" y2="1708.417094" stroke="black" stroke-width="6.48"/>
<line x1="5111.401183" y1="1765.711876" x2="5041.64038" y2="1799.736491" stroke="black" stroke-width="6.48"/>
<line x1="4967.682008" y1="1469.237213" x2="4897.209362" y2="1503.609019" stroke="black" stroke-width="6.48"/>
<line x1="4897.209362" y1="1503.609019" x2="4932.969926" y2="1576.929038" stroke="black" stroke-width="6.48"/>
<line x1="5003.442572" y1="1542.557236" x2="4967.682008" y2="1469.237213" stroke="black" stroke-width="6.48"/>
<line x1="4974.60834" y1="1485.244991" x2="4904.847544" y2="1519.269606" stroke="black" stroke-width="6.48"/>
<line x1="4877.902811" y1="1809.102179" x2="4913.316187" y2="1881.710356" stroke="black" stroke-width="6.48"/>
<line x1="4913.316187" y1="1881.710356" x2="4983.788833" y2="1847.338549" stroke="black" stroke-width="6.48"/>
<line x1="4983.788833" y1="1847.338549" x2="4948.375453" y2="1774.730376" stroke="black" stroke-width="6.48"/>
<line x1="4976.150652" y1="1831.677966" x2="4905.67801" y2="1866.049769" stroke="black" stroke-width="6.48"/>
<line x1="4831.719631" y1="1535.550491" x2="4761.246989" y2="1569.922297" stroke="black" stroke-width="6.48"/>
<line x1="4761.246989" y1="1569.922297" x2="4797.007556" y2="1643.24232" stroke="black" stroke-width="6.48"/>
<line x1="4867.480199" y1="1608.870514" x2="4831.719631" y2="1535.550491" stroke="black" stroke-width="6.48"/>
<line x1="4839.357812" y1="1551.211081" x2="4768.885166" y2="1585.582888" stroke="black" stroke-width="6.48"/>
<line x1="3294.044716" y1="1074.942846" x2="3503.409919" y2="1074.942846" stroke="black" stroke-width="6.48"/>
<line x1="3503.409919" y1="1074.942846" x2="3503.409919" y2="743.728442" stroke="black" stroke-width="6.48"/>
<line x1="3503.409919" y1="743.728442" x2="3294.044716" y2="743.728442" stroke="black" stroke-width="6.48"/>
<line x1="3294.044716" y1="743.728442" x2="3294.044716" y2="1074.942846" stroke="black" stroke-width="6.48"/>
<line x1="3293.371516" y1="802.970042" x2="3504.083116" y2="802.970042" stroke="black" stroke-width="6.48"/>
<line x1="3504.083116" y1="802.970042" x2="3294.717916" y2="852.786846" stroke="black" stroke-width="6.48"/>
<line x1="3294.717916" y1="852.786846" x2="3326.358319" y2="899.237646" stroke="black" stroke-width="6.48"/>
<line x1="3326.358319" y1="899.237646" x2="3504.083116" y2="802.296846" stroke="black" stroke-width="6.48"/>
<line x1="3177.859986" y1="1204.073906" x2="3400.137151" y2="1204.073906" stroke="black" stroke-width="6.48"/>
<line x1="3400.137151" y1="1204.073906" x2="3400.137151" y2="1426.806558" stroke="black" stroke-width="6.48"/>
<line x1="3400.137151" y1="1426.806558" x2="3177.859986" y2="1426.806558" stroke="black" stroke-width="6.48"/>
<line x1="3177.859986" y1="1426.806558" x2="3177.859986" y2="1204.073906" stroke="black" stroke-width="6.48"/>
<line x1="3177.4045" y1="1203.61842" x2="3400.137151" y2="1426.806558" stroke="black" stroke-width="6.48"/>
<line x1="3177.859986" y1="1426.351072" x2="3399.681665" y2="1204.073906" stroke="black" stroke-width="6.48"/>
<line x1="2804.16708" y1="1127.69402" x2="2804.16708" y2="1153.148746" stroke="black" stroke-width="6.48"/>
<line x1="2804.16708" y1="1153.148746" x2="2853.834836" y2="1153.148746" stroke="black" stroke-width="6.48"/>
<line x1="2853.834836" y1="1153.148746" x2="2853.834836" y2="1127.69402" stroke="black" stroke-width="6.48"/>
<line x1="2853.834836" y1="1127.69402" x2="2804.16708" y2="1127.69402" stroke="black" stroke-width="6.48"/>
<line x1="2853.834836" y1="1402.108373" x2="3101.55277" y2="1402.108373" stroke="black" stroke-width="6.48"/>
<line x1="2802.925386" y1="1402.729218" x2="2802.925386" y2="1428.183943" stroke="black" stroke-width="6.48"/>
<line x1="2802.925386" y1="1428.183943" x2="2852.593142" y2="1428.183943" stroke="black" stroke-width="6.48"/>
<line x1="2852.593142" y1="1428.183943" x2="2852.593142" y2="1402.729218" stroke="black" stroke-width="6.48"/>
<line x1="2852.593142" y1="1402.729218" x2="2802.925386" y2="1402.729218" stroke="black" stroke-width="6.48"/>
<path d="m 2851.972294,1153.148746 a 248.95962699999984,248.95962699999984 0 0 1 248.95962699999973,248.95962699999995" fill="none" stroke="black" stroke-width="6.48"/>
<line x1="3483.70866" y1="1952.119717" x2="3396.838291" y2="1737.108004" stroke="black" stroke-width="6.48"/>
<line x1="3396.838291" y1="1737.108004" x2="3612.290602" y2="1650.059618" stroke="black" stroke-width="6.48"/>
<line x1="3612.290602" y1="1650.059618" x2="3699.16097" y2="1865.071332" stroke="black" stroke-width="6.48"/>
<line x1="3699.16097" y1="1865.071332" x2="3483.70866" y2="1952.119717" stroke="black" stroke-width="6.48"/>
<line x1="3483.446076" y1="1952.738327" x2="3612.290602" y2="1650.059618" stroke="black" stroke-width="6.48"/>
<line x1="3698.720374" y1="1865.249345" x2="3397.016304" y2="1737.5486" stroke="black" stroke-width="6.48"/>
<line x1="3020.26257" y1="1589.315879" x2="3017.570504" y2="1620.086342" stroke="black" stroke-width="6.48"/>
<line x1="3017.570504" y1="1620.086342" x2="3226.336254" y2="1638.350978" stroke="black" stroke-width="6.48"/>
<line x1="3226.336254" y1="1638.350978" x2="3229.028316" y2="1607.580515" stroke="black" stroke-width="6.48"/>
<line x1="3229.028316" y1="1607.580515" x2="3020.26257" y2="1589.315879" stroke="black" stroke-width="6.48"/>
<line x1="3002.494928" y1="1792.400929" x2="2999.802863" y2="1823.171389" stroke="black" stroke-width="6.48"/>
<line x1="2999.802863" y1="1823.171389" x2="3208.568612" y2="1841.436029" stroke="black" stroke-width="6.48"/>
<line x1="3208.568612" y1="1841.436029" x2="3211.260682" y2="1810.665565" stroke="black" stroke-width="6.48"/>
<line x1="3211.260682" y1="1810.665565" x2="3002.494928" y2="1792.400929" stroke="black" stroke-width="6.48"/>
<line x1="3017.611919" y1="1619.61295" x2="3002.494928" y2="1792.400929" stroke="black" stroke-width="6.48"/>
<line x1="3225.472301" y1="1637.321364" x2="3249.189529" y2="1666.109203" stroke="black" stroke-width="6.48"/>
<line x1="3238.628342" y1="1786.82409" x2="3210.272478" y2="1811.056122" stroke="black" stroke-width="6.48"/>
<line x1="3249.35519" y1="1664.215632" x2="3238.462678" y2="1788.717658" stroke="black" stroke-width="6.48"/>
<line x1="3062.069323" y1="1623.979487" x2="3046.952336" y2="1796.767463" stroke="black" stroke-width="6.48"/>
<line x1="1032.758755" y1="210.276108" x2="1303.305955" y2="210.276108" stroke="black" stroke-width="6.48"/>
<line x1="1303.305955" y1="210.276108" x2="1303.305955" y2="342.223308" stroke="black" stroke-width="6.48"/>
<line x1="1032.758755" y1="342.223308" x2="1303.305955" y2="342.223308" stroke="black" stroke-width="6.48"/>
<line x1="1032.758755" y1="210.276108" x2="1032.758755" y2="342.223308" stroke="black" stroke-width="6.48"/>
<line x1="1039.411555" y1="216.928908" x2="1177.457155" y2="216.928908" stroke="black" stroke-width="6.48"/>
<line x1="1177.457155" y1="216.928908" x2="1177.457155" y2="335.016108" stroke="black" stroke-width="6.48"/>
<line x1="1039.411555" y1="335.016108" x2="1177.457155" y2="335.016108" stroke="black" stroke-width="6.48"/>
<line x1="1039.411555" y1="216.928908" x2="1039.411555" y2="335.016108" stroke="black" stroke-width="6.48"/>
<line x1="1191.871555" y1="224.690508" x2="1288.891555" y2="224.690508" stroke="black" stroke-width="6.48"/>
<line x1="1191.871555" y1="245.203308" x2="1288.891555" y2="245.203308" stroke="black" stroke-width="6.48"/>
<line x1="1192.425955" y1="266.270508" x2="1289.445955" y2="266.270508" stroke="black" stroke-width="6.48"/>
<line x1="1192.425955" y1="286.783308" x2="1289.445955" y2="286.783308" stroke="black" stroke-width="6.48"/>
<line x1="1191.871555" y1="307.296108" x2="1288.891555" y2="307.296108" stroke="black" stroke-width="6.48"/>
<line x1="1191.871555" y1="327.808908" x2="1288.891555" y2="327.808908" stroke="black" stroke-width="6.48"/>
<line x1="1092.079555" y1="335.016108" x2="1092.079555" y2="321.156108" stroke="black" stroke-width="6.48"/>
<line x1="1092.079555" y1="321.156108" x2="1126.452355" y2="321.156108" stroke="black" stroke-width="6.48"/>
<line x1="1126.452355" y1="321.156108" x2="1126.452355" y2="334.461708" stroke="black" stroke-width="6.48"/>
<circle cx="1161.933955" cy="231.897708" r="8.316000000000003" fill="none" stroke="black" stroke-width="6.48"/>
<line x1="6176.365247" y1="1734.872335" x2="5990.438948" y2="1774.392188" stroke="black" stroke-width="6.48"/>
<line x1="5990.438948" y1="1774.392188" x2="6086.867393" y2="2228.052352" stroke="black" stroke-width="6.48"/>
<line x1="6086.867393" y1="2228.052352" x2="6272.793688" y2="2188.532498" stroke="black" stroke-width="6.48"/>
<line x1="6272.793688" y1="2188.532498" x2="6267.853706" y2="2165.291708" stroke="black" stroke-width="6.48"/>
<line x1="6267.853706" y1="2165.291708" x2="6104.238566" y2="2200.069181" stroke="black" stroke-width="6.48"/>
<line x1="6104.238566" y1="2200.069181" x2="6017.887685" y2="1793.820226" stroke="black" stroke-width="6.48"/>
<line x1="6017.887685" y1="1793.820226" x2="6181.502828" y2="1759.042753" stroke="black" stroke-width="6.48"/>
<line x1="6181.502828" y1="1759.042753" x2="6176.365247" y2="1734.872335" stroke="black" stroke-width="6.48"/>
<line x1="6175.925035" y1="1760.228348" x2="6262.275917" y2="2166.477304" stroke="black" stroke-width="6.48"/>
<line x1="6219.931309" y1="1962.690412" x2="6061.893959" y2="1996.282285" stroke="black" stroke-width="6.48"/>
<line x1="1092.116912" y1="1988.074109" x2="1118.311416" y2="2004.442258" stroke="black" stroke-width="6.48"/>
<line x1="1118.311416" y1="2004.442258" x2="1229.363035" y2="1826.722613" stroke="black" stroke-width="6.48"/>
<line x1="1229.363035" y1="1826.722613" x2="1203.168532" y2="1810.354464" stroke="black" stroke-width="6.48"/>
<line x1="1203.168532" y1="1810.354464" x2="1092.116912" y2="1988.074109" stroke="black" stroke-width="6.48"/>
<line x1="1265.000652" y1="2096.103917" x2="1291.195152" y2="2112.472069" stroke="black" stroke-width="6.48"/>
<line x1="1291.195152" y1="2112.472069" x2="1402.246771" y2="1934.752424" stroke="black" stroke-width="6.48"/>
<line x1="1402.246771" y1="1934.752424" x2="1376.052271" y2="1918.384272" stroke="black" stroke-width="6.48"/>
<line x1="1376.052271" y1="1918.384272" x2="1265.000652" y2="2096.103917" stroke="black" stroke-width="6.48"/>
<line x1="1117.908421" y1="2004.190441" x2="1265.000652" y2="2096.103917" stroke="black" stroke-width="6.48"/>
<line x1="1228.053416" y1="1827.024959" x2="1264.470966" y2="1818.962176" stroke="black" stroke-width="6.48"/>
<line x1="1367.234028" y1="1883.1757" x2="1375.951626" y2="1919.442071" stroke="black" stroke-width="6.48"/>
<line x1="1262.858998" y1="1817.954906" x2="1368.846" y2="1884.182965" stroke="black" stroke-width="6.48"/>
<line x1="1141.982284" y1="1966.560977" x2="1289.074507" y2="2058.474445" stroke="black" stroke-width="6.48"/>
<line x1="2962.698098" y1="2024.43413" x2="2891.492953" y2="2200.673268" stroke="black" stroke-width="6.48"/>
<line x1="2891.492953" y1="2200.673268" x2="3321.516449" y2="2374.413818" stroke="black" stroke-width="6.48"/>
<line x1="3321.516449" y1="2374.413818" x2="3392.721594" y2="2198.174681" stroke="black" stroke-width="6.48"/>
<line x1="3392.721594" y1="2198.174681" x2="3370.691704" y2="2189.274037" stroke="black" stroke-width="6.48"/>
<line x1="3370.691704" y1="2189.274037" x2="3308.031176" y2="2344.364482" stroke="black" stroke-width="6.48"/>
<line x1="3308.031176" y1="2344.364482" x2="2922.948659" y2="2188.78124" stroke="black" stroke-width="6.48"/>
<line x1="2922.948659" y1="2188.78124" x2="2985.609186" y2="2033.6908" stroke="black" stroke-width="6.48"/>
<line x1="2985.609186" y1="2033.6908" x2="2962.698098" y2="2024.43413" stroke="black" stroke-width="6.48"/>
<line x1="2983.473032" y1="2038.977972" x2="3368.55555" y2="2194.561213" stroke="black" stroke-width="6.48"/>
<line x1="3175.929716" y1="2115.710384" x2="3115.405346" y2="2265.513653" stroke="black" stroke-width="6.48"/>
<line x1="2277.267494" y1="2040.47564" x2="2507.89473" y2="2064.715596" stroke="black" stroke-width="6.48"/>
<line x1="2507.89473" y1="2064.715596" x2="2483.605102" y2="2295.815429" stroke="black" stroke-width="6.48"/>
<line x1="2483.605102" y1="2295.815429" x2="2252.977866" y2="2271.57547" stroke="black" stroke-width="6.48"/>
<line x1="2252.977866" y1="2271.57547" x2="2277.267494" y2="2040.47564" stroke="black" stroke-width="6.48"/>
<line x1="2276.84457" y1="2039.95337" x2="2483.605102" y2="2295.815429" stroke="black" stroke-width="6.48"/>
<line x1="2253.027539" y1="2271.102872" x2="2507.422133" y2="2064.665923" stroke="black" stroke-width="6.48"/>
</g>
</svg>
