<?xml version="1.0"?>
<svg xmlns:xlink="http://www.w3.org/1999/xlink" width="6775.2" height="2858.4">
<image x="0" y="0" width="6775.2" height="2858.4" xlink:href="groundfilled-01.png"/>
<g style="stroke-linecap:round">
<line x1="1285.950406" y1="795.178109" x2="1311.346069" y2="795.178109" stroke="black" stroke-width="6.48"/>
<line x1="1311.346069" y1="795.178109" x2="1311.346069" y2="745.625592" stroke="black" stroke-width="6.48"/>
<line x1="1311.346069" y1="745.625592" x2="1285.950406" y2="745.625592" stroke="black" stroke-width="6.48"/>
<line x1="1285.950406" y1="745.625592" x2="1285.950406" y2="795.178109" stroke="black" stroke-width="6.48"/>
<line x1="1559.728062" y1="745.625592" x2="1559.728062" y2="498.48241" stroke="black" stroke-width="6.48"/>
<line x1="1560.347471" y1="796.416923" x2="1585.743134" y2="796.416923" stroke="black" stroke-width="6.48"/>
<line x1="1585.743134" y1="796.416923" x2="1585.743134" y2="746.864406" stroke="black" stroke-width="6.48"/>
<line x1="1585.743134" y1="746.864406" x2="1560.347471" y2="746.864406" stroke="black" stroke-width="6.48"/>
<line x1="1560.347471" y1="746.864406" x2="1560.347471" y2="796.416923" stroke="black" stroke-width="6.48"/>
<path d="m 1311.346069,747.483811 a 248.38199299999997,248.38199299999997 0 0 1 248.38199299999997,-248.38199299999997" fill="none" stroke="black" stroke-width="6.48"/>
<line x1="330.523178" y1="771.328966" x2="330.523178" y2="366.748985" stroke="black" stroke-width="6.48"/>
<line x1="330.523178" y1="366.748985" x2="258.15928" y2="366.748985" stroke="black" stroke-width="6.48"/>
<line x1="258.15928" y1="366.748985" x2="258.15928" y2="771.328966" stroke="black" stroke-width="6.48"/>
<line x1="258.15928" y1="771.328966" x2="330.523178" y2="771.328966" stroke="black" stroke-width="6.48"/>
<line x1="330.523178" y1="752.415674" x2="355.19269" y2="752.415674" stroke="black" stroke-width="6.48"/>
<line x1="355.19269" y1="752.415674" x2="355.19269" y2="386.484595" stroke="black" stroke-width="6.48"/>
<line x1="330.523178" y1="386.484595" x2="355.19269" y2="386.484595" stroke="black" stroke-width="6.48"/>
<line x1="3901.945176" y1="1169.331426" x2="3901.945176" y2="1428.837066" stroke="black" stroke-width="6.48"/>
<line x1="3901.945176" y1="1428.837066" x2="3941.9501" y2="1428.837066" stroke="black" stroke-width="6.48"/>
<line x1="3941.9501" y1="1428.837066" x2="3941.9501" y2="1169.331426" stroke="black" stroke-width="6.48"/>
<line x1="3941.9501" y1="1169.331426" x2="3901.945176" y2="1169.331426" stroke="black" stroke-width="6.48"/>
<line x1="3941.423719" y1="1193.544936" x2="3902.471557" y2="1193.544936" stroke="black" stroke-width="6.48"/>
<line x1="3941.423719" y1="1404.097178" x2="3900.892414" y2="1404.097178" stroke="black" stroke-width="6.48"/>
<line x1="3923.000399" y1="1193.018555" x2="3923.000399" y2="1403.570797" stroke="black" stroke-width="6.48"/>
<line x1="323.923298" y1="1882.957399" x2="323.923298" y2="1457.423957" stroke="black" stroke-width="6.48"/>
<line x1="323.923298" y1="1457.423957" x2="258.323825" y2="1457.423957" stroke="black" stroke-width="6.48"/>
<line x1="258.323825" y1="1457.423957" x2="258.323825" y2="1882.957399" stroke="black" stroke-width="6.48"/>
<line x1="258.323825" y1="1882.957399" x2="323.923298" y2="1882.957399" stroke="black" stroke-width="6.48"/>
<line x1="259.186975" y1="1843.252456" x2="323.060148" y2="1843.252456" stroke="black" stroke-width="6.48"/>
<line x1="259.186975" y1="1497.992054" x2="325.649603" y2="1497.992054" stroke="black" stroke-width="6.48"/>
<line x1="289.397261" y1="1844.115606" x2="289.397261" y2="1498.855205" stroke="black" stroke-width="6.48"/>
<line x1="2747.905531" y1="904.670665" x2="2721.68303" y2="904.670665" stroke="black" stroke-width="6.48"/>
<line x1="2721.68303" y1="904.670665" x2="2721.68303" y2="955.836522" stroke="black" stroke-width="6.48"/>
<line x1="2721.68303" y1="955.836522" x2="2747.905531" y2="955.836522" stroke="black" stroke-width="6.48"/>
<line x1="2747.905531" y1="955.836522" x2="2747.905531" y2="904.670665" stroke="black" stroke-width="6.48"/>
<line x1="2465.214181" y1="955.836522" x2="2465.214181" y2="1211.026223" stroke="black" stroke-width="6.48"/>
<line x1="2464.574609" y1="903.39152" x2="2438.352108" y2="903.39152" stroke="black" stroke-width="6.48"/>
<line x1="2438.352108" y1="903.39152" x2="2438.352108" y2="954.557374" stroke="black" stroke-width="6.48"/>
<line x1="2438.352108" y1="954.557374" x2="2464.574609" y2="954.557374" stroke="black" stroke-width="6.48"/>
<line x1="2464.574609" y1="954.557374" x2="2464.574609" y2="903.39152" stroke="black" stroke-width="6.48"/>
<path d="m 2721.68303,953.917801 a 256.4688490000001,256.4688490000001 0 0 1 -256.4688490000003,256.46884899999986" fill="none" stroke="black" stroke-width="6.48"/>
<line x1="2420.532389" y1="1427.858834" x2="2395.136725" y2="1427.858834" stroke="black" stroke-width="6.48"/>
<line x1="2395.136725" y1="1427.858834" x2="2395.136725" y2="1477.411351" stroke="black" stroke-width="6.48"/>
<line x1="2395.136725" y1="1477.411351" x2="2420.532389" y2="1477.411351" stroke="black" stroke-width="6.48"/>
<line x1="2420.532389" y1="1477.411351" x2="2420.532389" y2="1427.858834" stroke="black" stroke-width="6.48"/>
<line x1="2146.754732" y1="1477.411351" x2="2146.754732" y2="1724.554534" stroke="black" stroke-width="6.48"/>
<line x1="2146.135324" y1="1426.62002" x2="2120.73966" y2="1426.62002" stroke="black" stroke-width="6.48"/>
<line x1="2120.73966" y1="1426.62002" x2="2120.73966" y2="1476.172537" stroke="black" stroke-width="6.48"/>
<line x1="2120.73966" y1="1476.172537" x2="2146.135324" y2="1476.172537" stroke="black" stroke-width="6.48"/>
<line x1="2146.135324" y1="1476.172537" x2="2146.135324" y2="1426.62002" stroke="black" stroke-width="6.48"/>
<path d="m 2395.136725,1475.553132 a 248.38199299999997,248.38199299999997 0 0 1 -248.38199299999997,248.38199299999997" fill="none" stroke="black" stroke-width="6.48"/>
<line x1="487.867813" y1="541.339351" x2="719.765413" y2="541.339351" stroke="black" stroke-width="6.48"/>
<line x1="719.765413" y1="541.339351" x2="719.765413" y2="773.712151" stroke="black" stroke-width="6.48"/>
<line x1="719.765413" y1="773.712151" x2="487.867813" y2="773.712151" stroke="black" stroke-width="6.48"/>
<line x1="487.867813" y1="773.712151" x2="487.867813" y2="541.339351" stroke="black" stroke-width="6.48"/>
<line x1="487.392613" y1="540.864151" x2="719.765413" y2="773.712151" stroke="black" stroke-width="6.48"/>
<line x1="487.867813" y1="773.236951" x2="719.290213" y2="541.339351" stroke="black" stroke-width="6.48"/>
<line x1="2032.924367" y1="1682.952811" x2="2032.924367" y2="1473.864811" stroke="black" stroke-width="6.48"/>
<line x1="2032.924367" y1="1473.864811" x2="1801.026767" y2="1473.864811" stroke="black" stroke-width="6.48"/>
<line x1="1801.026767" y1="1473.864811" x2="1801.026767" y2="1682.952811" stroke="black" stroke-width="6.48"/>
<line x1="1801.026767" y1="1682.952811" x2="2032.924367" y2="1682.952811" stroke="black" stroke-width="6.48"/>
<line x1="2000.610767" y1="1682.952811" x2="2000.610767" y2="1473.864811" stroke="black" stroke-width="6.48"/>
<line x1="1485.415969" y1="209.267824" x2="1707.693134" y2="209.267824" stroke="black" stroke-width="6.48"/>
<line x1="1707.693134" y1="209.267824" x2="1707.693134" y2="432.000475" stroke="black" stroke-width="6.48"/>
<line x1="1707.693134" y1="432.000475" x2="1485.415969" y2="432.000475" stroke="black" stroke-width="6.48"/>
<line x1="1485.415969" y1="432.000475" x2="1485.415969" y2="209.267824" stroke="black" stroke-width="6.48"/>
<line x1="1484.960483" y1="208.812337" x2="1707.693134" y2="432.000475" stroke="black" stroke-width="6.48"/>
<line x1="1485.415969" y1="431.544989" x2="1707.237648" y2="209.267824" stroke="black" stroke-width="6.48"/>
<line x1="2586.780558" y1="1803.366338" x2="2586.780558" y2="2194.614338" stroke="black" stroke-width="6.48"/>
<line x1="2586.780558" y1="2194.614338" x2="2761.020558" y2="2194.614338" stroke="black" stroke-width="6.48"/>
<line x1="2761.020558" y1="2194.614338" x2="2761.020558" y2="1803.366338" stroke="black" stroke-width="6.48"/>
<line x1="2761.020558" y1="1803.366338" x2="2586.780558" y2="1803.366338" stroke="black" stroke-width="6.48"/>
<line x1="2734.092558" y1="2119.374338" x2="2734.092558" y2="1835.046338" stroke="black" stroke-width="6.48"/>
<line x1="2734.092558" y1="1835.046338" x2="2616.084558" y2="1835.046338" stroke="black" stroke-width="6.48"/>
<line x1="2616.084558" y1="1835.046338" x2="2616.084558" y2="2124.918338" stroke="black" stroke-width="6.48"/>
<path d="m 2734.347982,2118.563766 a 63.35999941905905,63.35999941905905 0 0 1 -119.37432999999965,4.2938139999996565" fill="none" stroke="black" stroke-width="6.48"/>
<line x1="2081.296678" y1="1911.573788" x2="2056.744678" y2="1930.185788" stroke="black" stroke-width="6.48"/>
<line x1="2056.744678" y1="1930.185788" x2="2056.744678" y2="2077.497788" stroke="black" stroke-width="6.48"/>
<line x1="2056.744678" y1="2077.497788" x2="2084.860678" y2="2096.505788" stroke="black" stroke-width="6.48"/>
<line x1="2084.068678" y1="1933.353788" x2="2084.068678" y2="2076.309788" stroke="black" stroke-width="6.48"/>
<circle cx="2105.848678" cy="2002.653788" r="13.068000000000003" fill="none" stroke="black" stroke-width="6.48"/>
<path d="m 2083.401331,1934.907041 a 74.8440004285373,74.8440004285373 0 1 1 0.40204799999992247,139.6090039999999" fill="none" stroke="black" stroke-width="6.48"/>
<path d="m 2080.639314,1911.620092 a 95.43599883751705,95.43599883751705 0 1 1 3.0749580000001515,184.46699499999977" fill="none" stroke="black" stroke-width="6.48"/>
<line x1="714.471246" y1="210.652484" x2="1107.715118" y2="210.652484" stroke="black" stroke-width="6.48"/>
<line x1="1111.670525" y1="209.656202" x2="1111.670525" y2="345.724978" stroke="black" stroke-width="6.48"/>
<line x1="714.935635" y1="346.876484" x2="1111.975866" y2="346.876484" stroke="black" stroke-width="6.48"/>
<line x1="715.670525" y1="211.347234" x2="715.670525" y2="346.61129" stroke="black" stroke-width="6.48"/>
<line x1="725.966525" y1="221.740484" x2="849.518525" y2="221.740484" stroke="black" stroke-width="6.48"/>
<line x1="849.518525" y1="221.740484" x2="849.518525" y2="335.788484" stroke="black" stroke-width="6.48"/>
<line x1="725.966525" y1="335.788484" x2="849.518525" y2="335.788484" stroke="black" stroke-width="6.48"/>
<line x1="725.966525" y1="221.740484" x2="725.966525" y2="335.788484" stroke="black" stroke-width="6.48"/>
<line x1="868.526525" y1="228.868484" x2="955.646525" y2="228.868484" stroke="black" stroke-width="6.48"/>
<line x1="868.526525" y1="248.668484" x2="955.646525" y2="248.668484" stroke="black" stroke-width="6.48"/>
<line x1="869.318525" y1="269.260484" x2="955.646525" y2="269.260484" stroke="black" stroke-width="6.48"/>
<line x1="869.318525" y1="289.060484" x2="955.646525" y2="289.060484" stroke="black" stroke-width="6.48"/>
<line x1="868.526525" y1="308.860484" x2="955.646525" y2="308.860484" stroke="black" stroke-width="6.48"/>
<line x1="868.526525" y1="328.660484" x2="955.646525" y2="328.660484" stroke="black" stroke-width="6.48"/>
<line x1="773.486525" y1="334.996484" x2="773.486525" y2="321.532484" stroke="black" stroke-width="6.48"/>
<line x1="773.486525" y1="321.532484" x2="803.582525" y2="321.532484" stroke="black" stroke-width="6.48"/>
<line x1="803.582525" y1="321.532484" x2="803.582525" y2="334.204484" stroke="black" stroke-width="6.48"/>
<line x1="976.238525" y1="221.740484" x2="1099.790525" y2="221.740484" stroke="black" stroke-width="6.48"/>
<line x1="1099.790525" y1="221.740484" x2="1099.790525" y2="335.788484" stroke="black" stroke-width="6.48"/>
<line x1="976.238525" y1="335.788484" x2="1099.790525" y2="335.788484" stroke="black" stroke-width="6.48"/>
<line x1="976.238525" y1="221.740484" x2="976.238525" y2="335.788484" stroke="black" stroke-width="6.48"/>
<line x1="1023.758525" y1="335.788484" x2="1023.758525" y2="322.324484" stroke="black" stroke-width="6.48"/>
<line x1="1023.758525" y1="322.324484" x2="1053.854525" y2="322.324484" stroke="black" stroke-width="6.48"/>
<line x1="1053.854525" y1="322.324484" x2="1053.854525" y2="334.996484" stroke="black" stroke-width="6.48"/>
<circle cx="835.262525" cy="235.996484" r="7.128000000000001" fill="none" stroke="black" stroke-width="6.48"/>
<circle cx="1085.534525" cy="236.788484" r="7.128000000000001" fill="none" stroke="black" stroke-width="6.48"/>
<line x1="2044.889399" y1="955.822399" x2="2267.166564" y2="955.822399" stroke="black" stroke-width="6.48"/>
<line x1="2267.166564" y1="955.822399" x2="2267.166564" y2="1178.555051" stroke="black" stroke-width="6.48"/>
<line x1="2267.166564" y1="1178.555051" x2="2044.889399" y2="1178.555051" stroke="black" stroke-width="6.48"/>
<line x1="2044.889399" y1="1178.555051" x2="2044.889399" y2="955.822399" stroke="black" stroke-width="6.48"/>
<line x1="2044.433912" y1="955.366913" x2="2267.166564" y2="1178.555051" stroke="black" stroke-width="6.48"/>
<line x1="2044.889399" y1="1178.099564" x2="2266.711078" y2="955.822399" stroke="black" stroke-width="6.48"/>
<line x1="333.766206" y1="1375.361078" x2="333.766206" y2="949.854546" stroke="black" stroke-width="6.48"/>
<line x1="333.766206" y1="949.854546" x2="257.659348" y2="949.854546" stroke="black" stroke-width="6.48"/>
<line x1="257.659348" y1="949.854546" x2="257.659348" y2="1375.361078" stroke="black" stroke-width="6.48"/>
<line x1="257.659348" y1="1375.361078" x2="333.766206" y2="1375.361078" stroke="black" stroke-width="6.48"/>
<line x1="333.766206" y1="1355.469512" x2="359.711726" y2="1355.469512" stroke="black" stroke-width="6.48"/>
<line x1="359.711726" y1="1355.469512" x2="359.711726" y2="970.610962" stroke="black" stroke-width="6.48"/>
<line x1="333.766206" y1="970.610962" x2="359.711726" y2="970.610962" stroke="black" stroke-width="6.48"/>
<line x1="3874.406537" y1="1514.726719" x2="3874.406537" y2="1940.260162" stroke="black" stroke-width="6.48"/>
<line x1="3874.406537" y1="1940.260162" x2="3940.00601" y2="1940.260162" stroke="black" stroke-width="6.48"/>
<line x1="3940.00601" y1="1940.260162" x2="3940.00601" y2="1514.726719" stroke="black" stroke-width="6.48"/>
<line x1="3940.00601" y1="1514.726719" x2="3874.406537" y2="1514.726719" stroke="black" stroke-width="6.48"/>
<line x1="3939.14286" y1="1554.431663" x2="3875.269687" y2="1554.431663" stroke="black" stroke-width="6.48"/>
<line x1="3939.14286" y1="1899.692064" x2="3872.680232" y2="1899.692064" stroke="black" stroke-width="6.48"/>
<line x1="3908.932574" y1="1553.568512" x2="3908.932574" y2="1898.828914" stroke="black" stroke-width="6.48"/>
<line x1="4965.539774" y1="1591.489818" x2="4853.507872" y2="1661.495123" stroke="black" stroke-width="6.48"/>
<line x1="4853.507872" y1="1661.495123" x2="4845.953344" y2="1649.405351" stroke="black" stroke-width="6.48"/>
<line x1="4957.985246" y1="1579.400046" x2="4845.953344" y2="1649.405351" stroke="black" stroke-width="6.48"/>
<line x1="4965.539774" y1="1591.489818" x2="4957.985246" y2="1579.400046" stroke="black" stroke-width="6.48"/>
<line x1="4946.701457" y1="1586.450941" x2="4931.693464" y2="1558.84617" stroke="black" stroke-width="6.48"/>
<line x1="4857.237133" y1="1642.354456" x2="4838.501563" y2="1615.95824" stroke="black" stroke-width="6.48"/>
<line x1="4721.276671" y1="1200.587141" x2="4609.244765" y2="1270.592438" stroke="black" stroke-width="6.48"/>
<line x1="4609.244765" y1="1270.592438" x2="4616.29566" y2="1281.876228" stroke="black" stroke-width="6.48"/>
<line x1="4728.327566" y1="1211.870927" x2="4616.29566" y2="1281.876228" stroke="black" stroke-width="6.48"/>
<line x1="4721.276671" y1="1200.587141" x2="4728.327566" y2="1211.870927" stroke="black" stroke-width="6.48"/>
<line x1="4718.857032" y1="1220.030158" x2="4737.088962" y2="1245.620387" stroke="black" stroke-width="6.48"/>
<line x1="4629.392701" y1="1275.933672" x2="4644.098348" y2="1304.848062" stroke="black" stroke-width="6.48"/>
<line x1="4627.749564" y1="1608.684998" x2="4639.83934" y2="1601.13047" stroke="black" stroke-width="6.48"/>
<line x1="4639.83934" y1="1601.13047" x2="4569.834038" y2="1489.098568" stroke="black" stroke-width="6.48"/>
<line x1="4557.744263" y1="1496.653099" x2="4569.834038" y2="1489.098568" stroke="black" stroke-width="6.48"/>
<line x1="4627.749564" y1="1608.684998" x2="4557.744263" y2="1496.653099" stroke="black" stroke-width="6.48"/>
<line x1="4577.388566" y1="1501.18834" x2="4603.281149" y2="1481.646791" stroke="black" stroke-width="6.48"/>
<line x1="4632.788448" y1="1589.846681" x2="4661.199205" y2="1574.335051" stroke="black" stroke-width="6.48"/>
<line x1="5018.349899" y1="1365.731514" x2="5006.260127" y2="1373.286042" stroke="black" stroke-width="6.48"/>
<line x1="5006.260127" y1="1373.286042" x2="4936.254822" y2="1261.254143" stroke="black" stroke-width="6.48"/>
<line x1="4948.344594" y1="1253.699611" x2="4936.254822" y2="1261.254143" stroke="black" stroke-width="6.48"/>
<line x1="5018.349899" y1="1365.731514" x2="4948.344594" y2="1253.699611" stroke="black" stroke-width="6.48"/>
<line x1="4943.80935" y1="1273.343915" x2="4914.894956" y2="1288.049562" stroke="black" stroke-width="6.48"/>
<line x1="4999.209232" y1="1362.002256" x2="4972.813016" y2="1380.737822" stroke="black" stroke-width="6.48"/>
<circle cx="4788.047081" cy="1431.192305" r="191.98080000000002" fill="none" stroke="black" stroke-width="6.48"/>
<line x1="3326.45332" y1="1075.049806" x2="3535.818523" y2="1075.049806" stroke="black" stroke-width="6.48"/>
<line x1="3535.818523" y1="1075.049806" x2="3535.818523" y2="743.835402" stroke="black" stroke-width="6.48"/>
<line x1="3535.818523" y1="743.835402" x2="3326.45332" y2="743.835402" stroke="black" stroke-width="6.48"/>
<line x1="3326.45332" y1="743.835402" x2="3326.45332" y2="1075.049806" stroke="black" stroke-width="6.48"/>
<line x1="3325.78012" y1="803.077002" x2="3536.49172" y2="803.077002" stroke="black" stroke-width="6.48"/>
<line x1="3536.49172" y1="803.077002" x2="3327.12652" y2="852.893806" stroke="black" stroke-width="6.48"/>
<line x1="3327.12652" y1="852.893806" x2="3358.766923" y2="899.344606" stroke="black" stroke-width="6.48"/>
<line x1="3358.766923" y1="899.344606" x2="3536.49172" y2="802.403806" stroke="black" stroke-width="6.48"/>
<line x1="3480.399763" y1="1202.849046" x2="3702.676928" y2="1202.849046" stroke="black" stroke-width="6.48"/>
<line x1="3702.676928" y1="1202.849046" x2="3702.676928" y2="1425.581698" stroke="black" stroke-width="6.48"/>
<line x1="3702.676928" y1="1425.581698" x2="3480.399763" y2="1425.581698" stroke="black" stroke-width="6.48"/>
<line x1="3480.399763" y1="1425.581698" x2="3480.399763" y2="1202.849046" stroke="black" stroke-width="6.48"/>
<line x1="3479.944277" y1="1202.39356" x2="3702.676928" y2="1425.581698" stroke="black" stroke-width="6.48"/>
<line x1="3480.399763" y1="1425.126211" x2="3702.221442" y2="1202.849046" stroke="black" stroke-width="6.48"/>
<line x1="2804.16708" y1="1127.69402" x2="2804.16708" y2="1153.148746" stroke="black" stroke-width="6.48"/>
<line x1="2804.16708" y1="1153.148746" x2="2853.834836" y2="1153.148746" stroke="black" stroke-width="6.48"/>
<line x1="2853.834836" y1="1153.148746" x2="2853.834836" y2="1127.69402" stroke="black" stroke-width="6.48"/>
<line x1="2853.834836" y1="1127.69402" x2="2804.16708" y2="1127.69402" stroke="black" stroke-width="6.48"/>
<line x1="2853.834836" y1="1402.108373" x2="3101.55277" y2="1402.108373" stroke="black" stroke-width="6.48"/>
<line x1="2802.925386" y1="1402.729218" x2="2802.925386" y2="1428.183943" stroke="black" stroke-width="6.48"/>
<line x1="2802.925386" y1="1428.183943" x2="2852.593142" y2="1428.183943" stroke="black" stroke-width="6.48"/>
<line x1="2852.593142" y1="1428.183943" x2="2852.593142" y2="1402.729218" stroke="black" stroke-width="6.48"/>
<line x1="2852.593142" y1="1402.729218" x2="2802.925386" y2="1402.729218" stroke="black" stroke-width="6.48"/>
<path d="m 2851.972294,1153.148746 a 248.95962699999984,248.95962699999984 0 0 1 248.95962699999973,248.95962699999995" fill="none" stroke="black" stroke-width="6.48"/>
<line x1="3384.406973" y1="1809.821851" x2="3539.576754" y2="1637.48835" stroke="black" stroke-width="6.48"/>
<line x1="3539.576754" y1="1637.48835" x2="3712.263401" y2="1792.976101" stroke="black" stroke-width="6.48"/>
<line x1="3712.263401" y1="1792.976101" x2="3557.09362" y2="1965.309602" stroke="black" stroke-width="6.48"/>
<line x1="3557.09362" y1="1965.309602" x2="3384.406973" y2="1809.821851" stroke="black" stroke-width="6.48"/>
<line x1="3383.735861" y1="1809.857023" x2="3712.263401" y2="1792.976101" stroke="black" stroke-width="6.48"/>
<line x1="3556.740474" y1="1964.991636" x2="3539.258784" y2="1637.841492" stroke="black" stroke-width="6.48"/>
<line x1="3089.601562" y1="1589.315879" x2="3074.626764" y2="1616.331136" stroke="black" stroke-width="6.48"/>
<line x1="3074.626764" y1="1616.331136" x2="3257.914867" y2="1717.929389" stroke="black" stroke-width="6.48"/>
<line x1="3257.914867" y1="1717.929389" x2="3272.889668" y2="1690.914139" stroke="black" stroke-width="6.48"/>
<line x1="3272.889668" y1="1690.914139" x2="3089.601562" y2="1589.315879" stroke="black" stroke-width="6.48"/>
<line x1="2990.767882" y1="1767.616553" x2="2975.793084" y2="1794.63181" stroke="black" stroke-width="6.48"/>
<line x1="2975.793084" y1="1794.63181" x2="3159.081187" y2="1896.230063" stroke="black" stroke-width="6.48"/>
<line x1="3159.081187" y1="1896.230063" x2="3174.055988" y2="1869.21481" stroke="black" stroke-width="6.48"/>
<line x1="3174.055988" y1="1869.21481" x2="2990.767882" y2="1767.616553" stroke="black" stroke-width="6.48"/>
<line x1="3074.857146" y1="1615.915516" x2="2990.767882" y2="1767.616553" stroke="black" stroke-width="6.48"/>
<line x1="3257.544391" y1="1716.637388" x2="3267.502088" y2="1752.583054" stroke="black" stroke-width="6.48"/>
<line x1="3208.754794" y1="1858.56597" x2="3172.99437" y2="1869.169666" stroke="black" stroke-width="6.48"/>
<line x1="3268.423613" y1="1750.920577" x2="3207.833273" y2="1860.22845" stroke="black" stroke-width="6.48"/>
<line x1="3113.694976" y1="1637.987" x2="3029.605718" y2="1789.688038" stroke="black" stroke-width="6.48"/>
<line x1="766.409198" y1="1370.207016" x2="665.210437" y2="1285.291174" stroke="black" stroke-width="6.48"/>
<line x1="665.210437" y1="1285.291174" x2="674.374018" y2="1274.370444" stroke="black" stroke-width="6.48"/>
<line x1="775.572779" y1="1359.286286" x2="674.374018" y2="1274.370444" stroke="black" stroke-width="6.48"/>
<line x1="766.409198" y1="1370.207016" x2="775.572779" y2="1359.286286" stroke="black" stroke-width="6.48"/>
<line x1="765.380099" y1="1350.733612" x2="786.996072" y2="1327.929815" stroke="black" stroke-width="6.48"/>
<line x1="684.566698" y1="1282.923115" x2="703.881385" y2="1256.947654" stroke="black" stroke-width="6.48"/>
<line x1="1062.698292" y1="1017.103424" x2="961.499531" y2="932.187582" stroke="black" stroke-width="6.48"/>
<line x1="961.499531" y1="932.187582" x2="952.946856" y2="942.380262" stroke="black" stroke-width="6.48"/>
<line x1="1054.145614" y1="1027.296108" x2="952.946856" y2="942.380262" stroke="black" stroke-width="6.48"/>
<line x1="1062.698292" y1="1017.103424" x2="1054.145614" y2="1027.296108" stroke="black" stroke-width="6.48"/>
<line x1="1043.459176" y1="1020.810434" x2="1024.755394" y2="1046.05785" stroke="black" stroke-width="6.48"/>
<line x1="962.645774" y1="952.999942" x2="939.690846" y2="975.920879" stroke="black" stroke-width="6.48"/>
<line x1="645.672694" y1="1054.263038" x2="656.593423" y2="1063.426622" stroke="black" stroke-width="6.48"/>
<line x1="656.593423" y1="1063.426622" x2="741.509269" y2="962.227858" stroke="black" stroke-width="6.48"/>
<line x1="730.58854" y1="953.064281" x2="741.509269" y2="962.227858" stroke="black" stroke-width="6.48"/>
<line x1="645.672694" y1="1054.263038" x2="730.58854" y2="953.064281" stroke="black" stroke-width="6.48"/>
<line x1="732.345689" y1="973.148587" x2="758.932056" y2="991.735225" stroke="black" stroke-width="6.48"/>
<line x1="665.146102" y1="1053.233939" x2="688.677944" y2="1075.460814" stroke="black" stroke-width="6.48"/>
<line x1="997.437334" y1="1350.669276" x2="986.516604" y2="1341.505692" stroke="black" stroke-width="6.48"/>
<line x1="986.516604" y1="1341.505692" x2="1071.432443" y2="1240.306934" stroke="black" stroke-width="6.48"/>
<line x1="1082.353172" y1="1249.470515" x2="1071.432443" y2="1240.306934" stroke="black" stroke-width="6.48"/>
<line x1="997.437334" y1="1350.669276" x2="1082.353172" y2="1249.470515" stroke="black" stroke-width="6.48"/>
<line x1="1062.268866" y1="1251.227664" x2="1039.347925" y2="1228.272736" stroke="black" stroke-width="6.48"/>
<line x1="995.069275" y1="1331.313016" x2="969.09381" y2="1311.998328" stroke="black" stroke-width="6.48"/>
<circle cx="864.012935" cy="1151.866778" r="191.98080000000002" fill="none" stroke="black" stroke-width="6.48"/>
<line x1="6034.098103" y1="1907.967276" x2="6041.395166" y2="2116.927908" stroke="black" stroke-width="6.48"/>
<line x1="6041.395166" y1="2116.927908" x2="6273.151502" y2="2108.834798" stroke="black" stroke-width="6.48"/>
<line x1="6273.151502" y1="2108.834798" x2="6265.854436" y2="1899.874166" stroke="black" stroke-width="6.48"/>
<line x1="6265.854436" y1="1899.874166" x2="6034.098103" y2="1907.967276" stroke="black" stroke-width="6.48"/>
<line x1="6066.392018" y1="1906.839547" x2="6073.689082" y2="2115.800179" stroke="black" stroke-width="6.48"/>
<line x1="2239.345548" y1="2034.617782" x2="2469.972784" y2="2058.857737" stroke="black" stroke-width="6.48"/>
<line x1="2469.972784" y1="2058.857737" x2="2445.683155" y2="2289.95757" stroke="black" stroke-width="6.48"/>
<line x1="2445.683155" y1="2289.95757" x2="2215.05592" y2="2265.717611" stroke="black" stroke-width="6.48"/>
<line x1="2215.05592" y1="2265.717611" x2="2239.345548" y2="2034.617782" stroke="black" stroke-width="6.48"/>
<line x1="2238.922624" y1="2034.095512" x2="2445.683155" y2="2289.95757" stroke="black" stroke-width="6.48"/>
<line x1="2215.105592" y1="2265.245014" x2="2469.500186" y2="2058.808064" stroke="black" stroke-width="6.48"/>
<line x1="1242.580572" y1="2003.372132" x2="1268.187883" y2="2020.64449" stroke="black" stroke-width="6.48"/>
<line x1="1268.187883" y1="2020.64449" x2="1385.374176" y2="1846.908752" stroke="black" stroke-width="6.48"/>
<line x1="1385.374176" y1="1846.908752" x2="1359.766868" y2="1829.636392" stroke="black" stroke-width="6.48"/>
<line x1="1359.766868" y1="1829.636392" x2="1242.580572" y2="2003.372132" stroke="black" stroke-width="6.48"/>
<line x1="1411.588807" y1="2117.369689" x2="1437.196118" y2="2134.642046" stroke="black" stroke-width="6.48"/>
<line x1="1437.196118" y1="2134.642046" x2="1554.382415" y2="1960.906309" stroke="black" stroke-width="6.48"/>
<line x1="1554.382415" y1="1960.906309" x2="1528.7751" y2="1943.633948" stroke="black" stroke-width="6.48"/>
<line x1="1528.7751" y1="1943.633948" x2="1411.588807" y2="2117.369689" stroke="black" stroke-width="6.48"/>
<line x1="1267.793921" y1="2020.378763" x2="1411.588807" y2="2117.369689" stroke="black" stroke-width="6.48"/>
<line x1="1384.054801" y1="1847.165213" x2="1420.731554" y2="1840.378291" stroke="black" stroke-width="6.48"/>
<line x1="1521.190998" y1="1908.139072" x2="1528.637605" y2="1944.687593" stroke="black" stroke-width="6.48"/>
<line x1="1419.155719" y1="1839.315373" x2="1522.766826" y2="1909.20199" stroke="black" stroke-width="6.48"/>
<line x1="1293.166368" y1="1983.61238" x2="1436.961247" y2="2080.60331" stroke="black" stroke-width="6.48"/>
<line x1="2920.110606" y1="2003.883188" x2="2848.905461" y2="2180.122326" stroke="black" stroke-width="6.48"/>
<line x1="2848.905461" y1="2180.122326" x2="3278.928956" y2="2353.862876" stroke="black" stroke-width="6.48"/>
<line x1="3278.928956" y1="2353.862876" x2="3350.134102" y2="2177.623739" stroke="black" stroke-width="6.48"/>
<line x1="3350.134102" y1="2177.623739" x2="3328.104211" y2="2168.723095" stroke="black" stroke-width="6.48"/>
<line x1="3328.104211" y1="2168.723095" x2="3265.443684" y2="2323.81354" stroke="black" stroke-width="6.48"/>
<line x1="3265.443684" y1="2323.81354" x2="2880.361166" y2="2168.230298" stroke="black" stroke-width="6.48"/>
<line x1="2880.361166" y1="2168.230298" x2="2943.021694" y2="2013.139858" stroke="black" stroke-width="6.48"/>
<line x1="2943.021694" y1="2013.139858" x2="2920.110606" y2="2003.883188" stroke="black" stroke-width="6.48"/>
<line x1="2940.88554" y1="2018.42703" x2="3325.968058" y2="2174.010271" stroke="black" stroke-width="6.48"/>
<line x1="3133.342224" y1="2095.159442" x2="3072.817854" y2="2244.962711" stroke="black" stroke-width="6.48"/>
<line x1="6340.227361" y1="2194.12125" x2="6332.754881" y2="2224.091747" stroke="black" stroke-width="6.48"/>
<line x1="6332.754881" y1="2224.091747" x2="6536.093155" y2="2274.789672" stroke="black" stroke-width="6.48"/>
<line x1="6536.093155" y1="2274.789672" x2="6543.565639" y2="2244.819179" stroke="black" stroke-width="6.48"/>
<line x1="6543.565639" y1="2244.819179" x2="6340.227361" y2="2194.12125" stroke="black" stroke-width="6.48"/>
<line x1="6290.90897" y1="2391.926515" x2="6283.436486" y2="2421.897008" stroke="black" stroke-width="6.48"/>
<line x1="6283.436486" y1="2421.897008" x2="6486.774764" y2="2472.594934" stroke="black" stroke-width="6.48"/>
<line x1="6486.774764" y1="2472.594934" x2="6494.247248" y2="2442.62444" stroke="black" stroke-width="6.48"/>
<line x1="6494.247248" y1="2442.62444" x2="6290.90897" y2="2391.926515" stroke="black" stroke-width="6.48"/>
<line x1="6332.86984" y1="2223.630659" x2="6290.90897" y2="2391.926515" stroke="black" stroke-width="6.48"/>
<line x1="6535.400911" y1="2273.637578" x2="6554.322727" y2="2305.781186" stroke="black" stroke-width="6.48"/>
<line x1="6525.0076" y1="2423.357741" x2="6493.210117" y2="2442.855604" stroke="black" stroke-width="6.48"/>
<line x1="6554.782573" y1="2303.936845" x2="6524.547757" y2="2425.202078" stroke="black" stroke-width="6.48"/>
<line x1="6376.096825" y1="2234.898108" x2="6334.135956" y2="2403.193961" stroke="black" stroke-width="6.48"/>
</g>
</svg>
