<?xml version="1.0"?>
<svg xmlns:xlink="http://www.w3.org/1999/xlink" width="6775.2" height="2858.4">
<image x="0" y="0" width="6775.2" height="2858.4" xlink:href="groundfilled-01.png"/>
<g style="stroke-linecap:round">
<line x1="1285.950406" y1="795.178109" x2="1311.346069" y2="795.178109" stroke="black" stroke-width="6.48"/>
<line x1="1311.346069" y1="795.178109" x2="1311.346069" y2="745.625592" stroke="black" stroke-width="6.48"/>
<line x1="1311.346069" y1="745.625592" x2="1285.950406" y2="745.625592" stroke="black" stroke-width="6.48"/>
<line x1="1285.950406" y1="745.625592" x2="1285.950406" y2="795.178109" stroke="black" stroke-width="6.48"/>
<line x1="1559.728062" y1="745.625592" x2="1559.728062" y2="498.48241" stroke="black" stroke-width="6.48"/>
<line x1="1560.347471" y1="796.416923" x2="1585.743134" y2="796.416923" stroke="black" stroke-width="6.48"/>
<line x1="1585.743134" y1="796.416923" x2="1585.743134" y2="746.864406" stroke="black" stroke-width="6.48"/>
<line x1="1585.743134" y1="746.864406" x2="1560.347471" y2="746.864406" stroke="black" stroke-width="6.48"/>
<line x1="1560.347471" y1="746.864406" x2="1560.347471" y2="796.416923" stroke="black" stroke-width="6.48"/>
<path d="m 1311.346069,747.483811 a 248.38199299999997,248.38199299999997 0 0 1 248.38199299999997,-248.38199299999997" fill="none" stroke="black" stroke-width="6.48"/>
<line x1="330.523178" y1="771.328966" x2="330.523178" y2="366.748985" stroke="black" stroke-width="6.48"/>
<line x1="330.523178" y1="366.748985" x2="258.15928" y2="366.748985" stroke="black" stroke-width="6.48"/>
<line x1="258.15928" y1="366.748985" x2="258.15928" y2="771.328966" stroke="black" stroke-width="6.48"/>
<line x1="258.15928" y1="771.328966" x2="330.523178" y2="771.328966" stroke="black" stroke-width="6.48"/>
<line x1="330.523178" y1="752.415674" x2="355.19269" y2="752.415674" stroke="black" stroke-width="6.48"/>
<line x1="355.19269" y1="752.415674" x2="355.19269" y2="386.484595" stroke="black" stroke-width="6.48"/>
<line x1="330.523178" y1="386.484595" x2="355.19269" y2="386.484595" stroke="black" stroke-width="6.48"/>
<line x1="3901.945176" y1="1169.331426" x2="3901.945176" y2="1428.837066" stroke="black" stroke-width="6.48"/>
<line x1="3901.945176" y1="1428.837066" x2="3941.9501" y2="1428.837066" stroke="black" stroke-width="6.48"/>
<line x1="3941.9501" y1="1428.837066" x2="3941.9501" y2="1169.331426" stroke="black" stroke-width="6.48"/>
<line x1="3941.9501" y1="1169.331426" x2="3901.945176" y2="1169.331426" stroke="black" stroke-width="6.48"/>
<line x1="3941.423719" y1="1193.544936" x2="3902.471557" y2="1193.544936" stroke="black" stroke-width="6.48"/>
<line x1="3941.423719" y1="1404.097178" x2="3900.892414" y2="1404.097178" stroke="black" stroke-width="6.48"/>
<line x1="3923.000399" y1="1193.018555" x2="3923.000399" y2="1403.570797" stroke="black" stroke-width="6.48"/>
<line x1="323.923298" y1="1882.957399" x2="323.923298" y2="1457.423957" stroke="black" stroke-width="6.48"/>
<line x1="323.923298" y1="1457.423957" x2="258.323825" y2="1457.423957" stroke="black" stroke-width="6.48"/>
<line x1="258.323825" y1="1457.423957" x2="258.323825" y2="1882.957399" stroke="black" stroke-width="6.48"/>
<line x1="258.323825" y1="1882.957399" x2="323.923298" y2="1882.957399" stroke="black" stroke-width="6.48"/>
<line x1="259.186975" y1="1843.252456" x2="323.060148" y2="1843.252456" stroke="black" stroke-width="6.48"/>
<line x1="259.186975" y1="1497.992054" x2="325.649603" y2="1497.992054" stroke="black" stroke-width="6.48"/>
<line x1="289.397261" y1="1844.115606" x2="289.397261" y2="1498.855205" stroke="black" stroke-width="6.48"/>
<line x1="2747.905531" y1="904.670665" x2="2721.68303" y2="904.670665" stroke="black" stroke-width="6.48"/>
<line x1="2721.68303" y1="904.670665" x2="2721.68303" y2="955.836522" stroke="black" stroke-width="6.48"/>
<line x1="2721.68303" y1="955.836522" x2="2747.905531" y2="955.836522" stroke="black" stroke-width="6.48"/>
<line x1="2747.905531" y1="955.836522" x2="2747.905531" y2="904.670665" stroke="black" stroke-width="6.48"/>
<line x1="2465.214181" y1="955.836522" x2="2465.214181" y2="1211.026223" stroke="black" stroke-width="6.48"/>
<line x1="2464.574609" y1="903.39152" x2="2438.352108" y2="903.39152" stroke="black" stroke-width="6.48"/>
<line x1="2438.352108" y1="903.39152" x2="2438.352108" y2="954.557374" stroke="black" stroke-width="6.48"/>
<line x1="2438.352108" y1="954.557374" x2="2464.574609" y2="954.557374" stroke="black" stroke-width="6.48"/>
<line x1="2464.574609" y1="954.557374" x2="2464.574609" y2="903.39152" stroke="black" stroke-width="6.48"/>
<path d="m 2721.68303,953.917801 a 256.4688490000001,256.4688490000001 0 0 1 -256.4688490000003,256.46884899999986" fill="none" stroke="black" stroke-width="6.48"/>
<line x1="2420.532389" y1="1427.858834" x2="2395.136725" y2="1427.858834" stroke="black" stroke-width="6.48"/>
<line x1="2395.136725" y1="1427.858834" x2="2395.136725" y2="1477.411351" stroke="black" stroke-width="6.48"/>
<line x1="2395.136725" y1="1477.411351" x2="2420.532389" y2="1477.411351" stroke="black" stroke-width="6.48"/>
<line x1="2420.532389" y1="1477.411351" x2="2420.532389" y2="1427.858834" stroke="black" stroke-width="6.48"/>
<line x1="2146.754732" y1="1477.411351" x2="2146.754732" y2="1724.554534" stroke="black" stroke-width="6.48"/>
<line x1="2146.135324" y1="1426.62002" x2="2120.73966" y2="1426.62002" stroke="black" stroke-width="6.48"/>
<line x1="2120.73966" y1="1426.62002" x2="2120.73966" y2="1476.172537" stroke="black" stroke-width="6.48"/>
<line x1="2120.73966" y1="1476.172537" x2="2146.135324" y2="1476.172537" stroke="black" stroke-width="6.48"/>
<line x1="2146.135324" y1="1476.172537" x2="2146.135324" y2="1426.62002" stroke="black" stroke-width="6.48"/>
<path d="m 2395.136725,1475.553132 a 248.38199299999997,248.38199299999997 0 0 1 -248.38199299999997,248.38199299999997" fill="none" stroke="black" stroke-width="6.48"/>
<line x1="532.421204" y1="692.136151" x2="925.253204" y2="692.136151" stroke="black" stroke-width="6.48"/>
<line x1="925.253204" y1="692.136151" x2="925.253204" y2="507.600151" stroke="black" stroke-width="6.48"/>
<line x1="925.253204" y1="507.600151" x2="532.421204" y2="507.600151" stroke="black" stroke-width="6.48"/>
<line x1="532.421204" y1="507.600151" x2="532.421204" y2="692.136151" stroke="black" stroke-width="6.48"/>
<line x1="691.613204" y1="507.600151" x2="691.613204" y2="426.816151" stroke="black" stroke-width="6.48"/>
<line x1="691.613204" y1="426.816151" x2="613.205204" y2="426.816151" stroke="black" stroke-width="6.48"/>
<line x1="613.205204" y1="426.816151" x2="613.205204" y2="507.600151" stroke="black" stroke-width="6.48"/>
<line x1="613.997204" y1="444.240151" x2="691.613204" y2="444.240151" stroke="black" stroke-width="6.48"/>
<line x1="613.205204" y1="773.712151" x2="691.613204" y2="773.712151" stroke="black" stroke-width="6.48"/>
<line x1="691.613204" y1="773.712151" x2="691.613204" y2="692.136151" stroke="black" stroke-width="6.48"/>
<line x1="613.205204" y1="692.136151" x2="613.205204" y2="773.712151" stroke="black" stroke-width="6.48"/>
<line x1="613.997204" y1="756.288151" x2="691.613204" y2="756.288151" stroke="black" stroke-width="6.48"/>
<line x1="842.885204" y1="507.600151" x2="842.885204" y2="426.816151" stroke="black" stroke-width="6.48"/>
<line x1="842.885204" y1="426.816151" x2="764.477204" y2="426.816151" stroke="black" stroke-width="6.48"/>
<line x1="764.477204" y1="426.816151" x2="764.477204" y2="507.600151" stroke="black" stroke-width="6.48"/>
<line x1="764.477204" y1="444.240151" x2="842.885204" y2="444.240151" stroke="black" stroke-width="6.48"/>
<line x1="764.477204" y1="773.712151" x2="842.885204" y2="773.712151" stroke="black" stroke-width="6.48"/>
<line x1="842.885204" y1="773.712151" x2="842.885204" y2="692.136151" stroke="black" stroke-width="6.48"/>
<line x1="764.477204" y1="692.136151" x2="764.477204" y2="773.712151" stroke="black" stroke-width="6.48"/>
<line x1="764.477204" y1="756.288151" x2="842.885204" y2="756.288151" stroke="black" stroke-width="6.48"/>
<line x1="1842.844367" y1="2075.139853" x2="2032.924367" y2="2075.139853" stroke="black" stroke-width="6.48"/>
<line x1="2032.924367" y1="2075.139853" x2="2032.924367" y2="1611.344653" stroke="black" stroke-width="6.48"/>
<line x1="2032.924367" y1="1611.344653" x2="1842.844367" y2="1611.344653" stroke="black" stroke-width="6.48"/>
<line x1="1842.844367" y1="1611.344653" x2="1842.844367" y2="1635.104653" stroke="black" stroke-width="6.48"/>
<line x1="1842.844367" y1="1635.104653" x2="2010.114767" y2="1635.104653" stroke="black" stroke-width="6.48"/>
<line x1="2010.114767" y1="1635.104653" x2="2010.114767" y2="2050.429453" stroke="black" stroke-width="6.48"/>
<line x1="2010.114767" y1="2050.429453" x2="1842.844367" y2="2050.429453" stroke="black" stroke-width="6.48"/>
<line x1="1842.844367" y1="2050.429453" x2="1842.844367" y2="2075.139853" stroke="black" stroke-width="6.48"/>
<line x1="1848.546767" y1="2050.429453" x2="1848.546767" y2="1635.104653" stroke="black" stroke-width="6.48"/>
<line x1="1847.596367" y1="1843.242253" x2="2009.164367" y2="1843.242253" stroke="black" stroke-width="6.48"/>
<line x1="1485.415969" y1="209.267824" x2="1707.693134" y2="209.267824" stroke="black" stroke-width="6.48"/>
<line x1="1707.693134" y1="209.267824" x2="1707.693134" y2="432.000475" stroke="black" stroke-width="6.48"/>
<line x1="1707.693134" y1="432.000475" x2="1485.415969" y2="432.000475" stroke="black" stroke-width="6.48"/>
<line x1="1485.415969" y1="432.000475" x2="1485.415969" y2="209.267824" stroke="black" stroke-width="6.48"/>
<line x1="1484.960483" y1="208.812337" x2="1707.693134" y2="432.000475" stroke="black" stroke-width="6.48"/>
<line x1="1485.415969" y1="431.544989" x2="1707.237648" y2="209.267824" stroke="black" stroke-width="6.48"/>
<line x1="2586.780558" y1="1803.366338" x2="2586.780558" y2="2194.614338" stroke="black" stroke-width="6.48"/>
<line x1="2586.780558" y1="2194.614338" x2="2761.020558" y2="2194.614338" stroke="black" stroke-width="6.48"/>
<line x1="2761.020558" y1="2194.614338" x2="2761.020558" y2="1803.366338" stroke="black" stroke-width="6.48"/>
<line x1="2761.020558" y1="1803.366338" x2="2586.780558" y2="1803.366338" stroke="black" stroke-width="6.48"/>
<line x1="2734.092558" y1="2119.374338" x2="2734.092558" y2="1835.046338" stroke="black" stroke-width="6.48"/>
<line x1="2734.092558" y1="1835.046338" x2="2616.084558" y2="1835.046338" stroke="black" stroke-width="6.48"/>
<line x1="2616.084558" y1="1835.046338" x2="2616.084558" y2="2124.918338" stroke="black" stroke-width="6.48"/>
<path d="m 2734.347982,2118.563766 a 63.35999941905905,63.35999941905905 0 0 1 -119.37432999999965,4.2938139999996565" fill="none" stroke="black" stroke-width="6.48"/>
<line x1="2081.056392" y1="1881.297828" x2="2056.504392" y2="1899.909828" stroke="black" stroke-width="6.48"/>
<line x1="2056.504392" y1="1899.909828" x2="2056.504392" y2="2047.221828" stroke="black" stroke-width="6.48"/>
<line x1="2056.504392" y1="2047.221828" x2="2084.620392" y2="2066.229828" stroke="black" stroke-width="6.48"/>
<line x1="2083.828392" y1="1903.077828" x2="2083.828392" y2="2046.033828" stroke="black" stroke-width="6.48"/>
<circle cx="2105.608392" cy="1972.377828" r="13.068000000000003" fill="none" stroke="black" stroke-width="6.48"/>
<path d="m 2083.161046,1904.63108 a 74.84400053362324,74.84400053362324 0 1 1 0.40204799999992247,139.6090049999998" fill="none" stroke="black" stroke-width="6.48"/>
<path d="m 2080.399028,1881.344131 a 95.43599883324413,95.43599883324413 0 1 1 3.0749580000001515,184.466995" fill="none" stroke="black" stroke-width="6.48"/>
<line x1="841.52713" y1="209.808547" x2="1112.07433" y2="209.808547" stroke="black" stroke-width="6.48"/>
<line x1="1112.07433" y1="209.808547" x2="1112.07433" y2="341.755747" stroke="black" stroke-width="6.48"/>
<line x1="841.52713" y1="341.755747" x2="1112.07433" y2="341.755747" stroke="black" stroke-width="6.48"/>
<line x1="841.52713" y1="209.808547" x2="841.52713" y2="341.755747" stroke="black" stroke-width="6.48"/>
<line x1="848.17993" y1="216.461347" x2="986.22553" y2="216.461347" stroke="black" stroke-width="6.48"/>
<line x1="986.22553" y1="216.461347" x2="986.22553" y2="334.548547" stroke="black" stroke-width="6.48"/>
<line x1="848.17993" y1="334.548547" x2="986.22553" y2="334.548547" stroke="black" stroke-width="6.48"/>
<line x1="848.17993" y1="216.461347" x2="848.17993" y2="334.548547" stroke="black" stroke-width="6.48"/>
<line x1="1000.63993" y1="224.222947" x2="1097.65993" y2="224.222947" stroke="black" stroke-width="6.48"/>
<line x1="1000.63993" y1="244.735747" x2="1097.65993" y2="244.735747" stroke="black" stroke-width="6.48"/>
<line x1="1001.19433" y1="265.802947" x2="1098.21433" y2="265.802947" stroke="black" stroke-width="6.48"/>
<line x1="1001.19433" y1="286.315747" x2="1098.21433" y2="286.315747" stroke="black" stroke-width="6.48"/>
<line x1="1000.63993" y1="306.828547" x2="1097.65993" y2="306.828547" stroke="black" stroke-width="6.48"/>
<line x1="1000.63993" y1="327.341347" x2="1097.65993" y2="327.341347" stroke="black" stroke-width="6.48"/>
<line x1="900.84793" y1="334.548547" x2="900.84793" y2="320.688547" stroke="black" stroke-width="6.48"/>
<line x1="900.84793" y1="320.688547" x2="935.22073" y2="320.688547" stroke="black" stroke-width="6.48"/>
<line x1="935.22073" y1="320.688547" x2="935.22073" y2="333.994147" stroke="black" stroke-width="6.48"/>
<circle cx="970.70233" cy="231.430147" r="8.316000000000003" fill="none" stroke="black" stroke-width="6.48"/>
<line x1="1139.56988" y1="1127.929572" x2="919.901012" y2="1453.60206" stroke="black" stroke-width="6.48"/>
<line x1="919.901012" y1="1453.60206" x2="1072.88829" y2="1556.793281" stroke="black" stroke-width="6.48"/>
<line x1="1072.88829" y1="1556.793281" x2="1292.557158" y2="1231.120793" stroke="black" stroke-width="6.48"/>
<line x1="1292.557158" y1="1231.120793" x2="1139.56988" y2="1127.929572" stroke="black" stroke-width="6.48"/>
<line x1="1203.538118" y1="1363.096944" x2="1270.511093" y2="1408.270781" stroke="black" stroke-width="6.48"/>
<line x1="1270.511093" y1="1408.270781" x2="1314.356288" y2="1343.267604" stroke="black" stroke-width="6.48"/>
<line x1="1314.356288" y1="1343.267604" x2="1247.383318" y2="1298.093767" stroke="black" stroke-width="6.48"/>
<line x1="1299.468254" y1="1334.180826" x2="1256.065938" y2="1398.527406" stroke="black" stroke-width="6.48"/>
<line x1="1026.766472" y1="1149.285823" x2="982.921273" y2="1214.289004" stroke="black" stroke-width="6.48"/>
<line x1="982.921273" y1="1214.289004" x2="1050.550841" y2="1259.90572" stroke="black" stroke-width="6.48"/>
<line x1="1094.39604" y1="1194.902539" x2="1026.766472" y2="1149.285823" stroke="black" stroke-width="6.48"/>
<line x1="1040.768737" y1="1159.685798" x2="997.366421" y2="1224.032375" stroke="black" stroke-width="6.48"/>
<line x1="1118.947889" y1="1488.507113" x2="1185.920863" y2="1533.680953" stroke="black" stroke-width="6.48"/>
<line x1="1185.920863" y1="1533.680953" x2="1229.766059" y2="1468.677776" stroke="black" stroke-width="6.48"/>
<line x1="1229.766059" y1="1468.677776" x2="1162.793088" y2="1423.503936" stroke="black" stroke-width="6.48"/>
<line x1="1215.320908" y1="1458.934398" x2="1171.475708" y2="1523.937575" stroke="black" stroke-width="6.48"/>
<line x1="942.176243" y1="1274.695996" x2="898.331044" y2="1339.699172" stroke="black" stroke-width="6.48"/>
<line x1="898.331044" y1="1339.699172" x2="965.960611" y2="1385.315892" stroke="black" stroke-width="6.48"/>
<line x1="1009.80581" y1="1320.312715" x2="942.176243" y2="1274.695996" stroke="black" stroke-width="6.48"/>
<line x1="956.62139" y1="1284.439374" x2="912.776195" y2="1349.442551" stroke="black" stroke-width="6.48"/>
<line x1="2044.889399" y1="955.822399" x2="2267.166564" y2="955.822399" stroke="black" stroke-width="6.48"/>
<line x1="2267.166564" y1="955.822399" x2="2267.166564" y2="1178.555051" stroke="black" stroke-width="6.48"/>
<line x1="2267.166564" y1="1178.555051" x2="2044.889399" y2="1178.555051" stroke="black" stroke-width="6.48"/>
<line x1="2044.889399" y1="1178.555051" x2="2044.889399" y2="955.822399" stroke="black" stroke-width="6.48"/>
<line x1="2044.433912" y1="955.366913" x2="2267.166564" y2="1178.555051" stroke="black" stroke-width="6.48"/>
<line x1="2044.889399" y1="1178.099564" x2="2266.711078" y2="955.822399" stroke="black" stroke-width="6.48"/>
<line x1="323.258818" y1="1375.374532" x2="323.258818" y2="949.841089" stroke="black" stroke-width="6.48"/>
<line x1="323.258818" y1="949.841089" x2="257.659344" y2="949.841089" stroke="black" stroke-width="6.48"/>
<line x1="257.659344" y1="949.841089" x2="257.659344" y2="1375.374532" stroke="black" stroke-width="6.48"/>
<line x1="257.659344" y1="1375.374532" x2="323.258818" y2="1375.374532" stroke="black" stroke-width="6.48"/>
<line x1="258.522494" y1="1335.669588" x2="322.395667" y2="1335.669588" stroke="black" stroke-width="6.48"/>
<line x1="258.522494" y1="990.409187" x2="324.985122" y2="990.409187" stroke="black" stroke-width="6.48"/>
<line x1="288.73278" y1="1336.532738" x2="288.73278" y2="991.272337" stroke="black" stroke-width="6.48"/>
<line x1="3874.406537" y1="1514.726719" x2="3874.406537" y2="1940.260162" stroke="black" stroke-width="6.48"/>
<line x1="3874.406537" y1="1940.260162" x2="3940.00601" y2="1940.260162" stroke="black" stroke-width="6.48"/>
<line x1="3940.00601" y1="1940.260162" x2="3940.00601" y2="1514.726719" stroke="black" stroke-width="6.48"/>
<line x1="3940.00601" y1="1514.726719" x2="3874.406537" y2="1514.726719" stroke="black" stroke-width="6.48"/>
<line x1="3939.14286" y1="1554.431663" x2="3875.269687" y2="1554.431663" stroke="black" stroke-width="6.48"/>
<line x1="3939.14286" y1="1899.692064" x2="3872.680232" y2="1899.692064" stroke="black" stroke-width="6.48"/>
<line x1="3908.932574" y1="1553.568512" x2="3908.932574" y2="1898.828914" stroke="black" stroke-width="6.48"/>
<line x1="4560.780632" y1="1512.317707" x2="4546.971839" y2="1380.935797" stroke="black" stroke-width="6.48"/>
<line x1="4546.971839" y1="1380.935797" x2="4561.149744" y2="1379.445638" stroke="black" stroke-width="6.48"/>
<line x1="4574.958538" y1="1510.827548" x2="4561.149744" y2="1379.445638" stroke="black" stroke-width="6.48"/>
<line x1="4560.780632" y1="1512.317707" x2="4574.958538" y2="1510.827548" stroke="black" stroke-width="6.48"/>
<line x1="4573.567721" y1="1497.594838" x2="4604.957802" y2="1496.206879" stroke="black" stroke-width="6.48"/>
<line x1="4562.540554" y1="1392.678349" x2="4594.47845" y2="1387.410268" stroke="black" stroke-width="6.48"/>
<line x1="5019.199535" y1="1464.135937" x2="5005.390738" y2="1332.754027" stroke="black" stroke-width="6.48"/>
<line x1="5005.390738" y1="1332.754027" x2="4992.158027" y2="1334.144844" stroke="black" stroke-width="6.48"/>
<line x1="5005.96682" y1="1465.526754" x2="4992.158027" y2="1334.144844" stroke="black" stroke-width="6.48"/>
<line x1="5019.199535" y1="1464.135937" x2="5005.96682" y2="1465.526754" stroke="black" stroke-width="6.48"/>
<line x1="5002.784964" y1="1453.437922" x2="4971.792262" y2="1458.606658" stroke="black" stroke-width="6.48"/>
<line x1="4991.7578" y1="1348.521433" x2="4959.323186" y2="1349.063546" stroke="black" stroke-width="6.48"/>
<line x1="4693.403189" y1="1201.176007" x2="4694.893348" y2="1215.353912" stroke="black" stroke-width="6.48"/>
<line x1="4694.893348" y1="1215.353912" x2="4826.275261" y2="1201.545119" stroke="black" stroke-width="6.48"/>
<line x1="4824.785099" y1="1187.367214" x2="4826.275261" y2="1201.545119" stroke="black" stroke-width="6.48"/>
<line x1="4693.403189" y1="1201.176007" x2="4824.785099" y2="1187.367214" stroke="black" stroke-width="6.48"/>
<line x1="4812.097356" y1="1203.035274" x2="4818.310628" y2="1234.873825" stroke="black" stroke-width="6.48"/>
<line x1="4708.126058" y1="1213.963099" x2="4709.613362" y2="1246.298371" stroke="black" stroke-width="6.48"/>
<line x1="4740.540419" y1="1658.749061" x2="4739.05026" y2="1644.571156" stroke="black" stroke-width="6.48"/>
<line x1="4739.05026" y1="1644.571156" x2="4870.432174" y2="1630.762358" stroke="black" stroke-width="6.48"/>
<line x1="4871.922329" y1="1644.940264" x2="4870.432174" y2="1630.762358" stroke="black" stroke-width="6.48"/>
<line x1="4740.540419" y1="1658.749061" x2="4871.922329" y2="1644.940264" stroke="black" stroke-width="6.48"/>
<line x1="4856.254268" y1="1632.252521" x2="4855.712162" y2="1599.817907" stroke="black" stroke-width="6.48"/>
<line x1="4752.282971" y1="1643.180342" x2="4747.014893" y2="1611.242446" stroke="black" stroke-width="6.48"/>
<circle cx="4782.662762" cy="1423.058137" r="191.98080000000002" fill="none" stroke="black" stroke-width="6.48"/>
<line x1="3253.670024" y1="1074.809596" x2="3463.035228" y2="1074.809596" stroke="black" stroke-width="6.48"/>
<line x1="3463.035228" y1="1074.809596" x2="3463.035228" y2="743.595192" stroke="black" stroke-width="6.48"/>
<line x1="3463.035228" y1="743.595192" x2="3253.670024" y2="743.595192" stroke="black" stroke-width="6.48"/>
<line x1="3253.670024" y1="743.595192" x2="3253.670024" y2="1074.809596" stroke="black" stroke-width="6.48"/>
<line x1="3252.996824" y1="802.836792" x2="3463.708424" y2="802.836792" stroke="black" stroke-width="6.48"/>
<line x1="3463.708424" y1="802.836792" x2="3254.343224" y2="852.653596" stroke="black" stroke-width="6.48"/>
<line x1="3254.343224" y1="852.653596" x2="3285.983628" y2="899.104396" stroke="black" stroke-width="6.48"/>
<line x1="3285.983628" y1="899.104396" x2="3463.708424" y2="802.163596" stroke="black" stroke-width="6.48"/>
<line x1="3447.386762" y1="1202.982703" x2="3669.663928" y2="1202.982703" stroke="black" stroke-width="6.48"/>
<line x1="3669.663928" y1="1202.982703" x2="3669.663928" y2="1425.715355" stroke="black" stroke-width="6.48"/>
<line x1="3669.663928" y1="1425.715355" x2="3447.386762" y2="1425.715355" stroke="black" stroke-width="6.48"/>
<line x1="3447.386762" y1="1425.715355" x2="3447.386762" y2="1202.982703" stroke="black" stroke-width="6.48"/>
<line x1="3446.931276" y1="1202.527217" x2="3669.663928" y2="1425.715355" stroke="black" stroke-width="6.48"/>
<line x1="3447.386762" y1="1425.259868" x2="3669.208441" y2="1202.982703" stroke="black" stroke-width="6.48"/>
<line x1="2804.16708" y1="1127.69402" x2="2804.16708" y2="1153.148746" stroke="black" stroke-width="6.48"/>
<line x1="2804.16708" y1="1153.148746" x2="2853.834836" y2="1153.148746" stroke="black" stroke-width="6.48"/>
<line x1="2853.834836" y1="1153.148746" x2="2853.834836" y2="1127.69402" stroke="black" stroke-width="6.48"/>
<line x1="2853.834836" y1="1127.69402" x2="2804.16708" y2="1127.69402" stroke="black" stroke-width="6.48"/>
<line x1="2853.834836" y1="1402.108373" x2="3101.55277" y2="1402.108373" stroke="black" stroke-width="6.48"/>
<line x1="2802.925386" y1="1402.729218" x2="2802.925386" y2="1428.183943" stroke="black" stroke-width="6.48"/>
<line x1="2802.925386" y1="1428.183943" x2="2852.593142" y2="1428.183943" stroke="black" stroke-width="6.48"/>
<line x1="2852.593142" y1="1428.183943" x2="2852.593142" y2="1402.729218" stroke="black" stroke-width="6.48"/>
<line x1="2852.593142" y1="1402.729218" x2="2802.925386" y2="1402.729218" stroke="black" stroke-width="6.48"/>
<path d="m 2851.972294,1153.148746 a 248.95962699999984,248.95962699999984 0 0 1 248.95962699999973,248.95962699999995" fill="none" stroke="black" stroke-width="6.48"/>
<line x1="3691.188194" y1="1881.12469" x2="3468.273919" y2="1945.044331" stroke="black" stroke-width="6.48"/>
<line x1="3468.273919" y1="1945.044331" x2="3404.223295" y2="1721.673259" stroke="black" stroke-width="6.48"/>
<line x1="3404.223295" y1="1721.673259" x2="3627.13757" y2="1657.753621" stroke="black" stroke-width="6.48"/>
<line x1="3627.13757" y1="1657.753621" x2="3691.188194" y2="1881.12469" stroke="black" stroke-width="6.48"/>
<line x1="3691.77597" y1="1881.4505" x2="3404.223295" y2="1721.673259" stroke="black" stroke-width="6.48"/>
<line x1="3627.268556" y1="1658.210411" x2="3468.730709" y2="1944.913349" stroke="black" stroke-width="6.48"/>
<line x1="3079.021345" y1="1589.315879" x2="3065.967511" y2="1617.309914" stroke="black" stroke-width="6.48"/>
<line x1="3065.967511" y1="1617.309914" x2="3255.896275" y2="1705.875149" stroke="black" stroke-width="6.48"/>
<line x1="3255.896275" y1="1705.875149" x2="3268.950106" y2="1677.881113" stroke="black" stroke-width="6.48"/>
<line x1="3268.950106" y1="1677.881113" x2="3079.021345" y2="1589.315879" stroke="black" stroke-width="6.48"/>
<line x1="2992.866048" y1="1774.076508" x2="2979.812214" y2="1802.07054" stroke="black" stroke-width="6.48"/>
<line x1="2979.812214" y1="1802.07054" x2="3169.740974" y2="1890.635778" stroke="black" stroke-width="6.48"/>
<line x1="3169.740974" y1="1890.635778" x2="3182.794808" y2="1862.641742" stroke="black" stroke-width="6.48"/>
<line x1="3182.794808" y1="1862.641742" x2="2992.866048" y2="1774.076508" stroke="black" stroke-width="6.48"/>
<line x1="3066.168341" y1="1616.879236" x2="2992.866048" y2="1774.076508" stroke="black" stroke-width="6.48"/>
<line x1="3255.436573" y1="1704.612139" x2="3267.877457" y2="1739.775629" stroke="black" stroke-width="6.48"/>
<line x1="3216.666265" y1="1849.598377" x2="3181.732628" y2="1862.670766" stroke="black" stroke-width="6.48"/>
<line x1="3268.680768" y1="1738.052917" x2="3215.86295" y2="1851.321089" stroke="black" stroke-width="6.48"/>
<line x1="3106.451192" y1="1636.187764" x2="3033.1489" y2="1793.38504" stroke="black" stroke-width="6.48"/>
<line x1="1104.0682" y1="1937.068445" x2="1226.967001" y2="2106.224222" stroke="black" stroke-width="6.48"/>
<line x1="1226.967001" y1="2106.224222" x2="1414.576134" y2="1969.918279" stroke="black" stroke-width="6.48"/>
<line x1="1414.576134" y1="1969.918279" x2="1291.677332" y2="1800.762505" stroke="black" stroke-width="6.48"/>
<line x1="1291.677332" y1="1800.762505" x2="1104.0682" y2="1937.068445" stroke="black" stroke-width="6.48"/>
<line x1="1130.210456" y1="1918.074996" x2="1253.109258" y2="2087.23077" stroke="black" stroke-width="6.48"/>
<line x1="2300.910325" y1="2279.061331" x2="2331.629118" y2="2282.290013" stroke="black" stroke-width="6.48"/>
<line x1="2331.629118" y1="2282.290013" x2="2353.534488" y2="2073.874828" stroke="black" stroke-width="6.48"/>
<line x1="2353.534488" y1="2073.874828" x2="2322.815695" y2="2070.646146" stroke="black" stroke-width="6.48"/>
<line x1="2322.815695" y1="2070.646146" x2="2300.910325" y2="2279.061331" stroke="black" stroke-width="6.48"/>
<line x1="2503.654351" y1="2300.370638" x2="2534.37314" y2="2303.59932" stroke="black" stroke-width="6.48"/>
<line x1="2534.37314" y1="2303.59932" x2="2556.27851" y2="2095.184135" stroke="black" stroke-width="6.48"/>
<line x1="2556.27851" y1="2095.184135" x2="2525.559721" y2="2091.955453" stroke="black" stroke-width="6.48"/>
<line x1="2525.559721" y1="2091.955453" x2="2503.654351" y2="2300.370638" stroke="black" stroke-width="6.48"/>
<line x1="2331.156521" y1="2282.24034" x2="2503.654351" y2="2300.370638" stroke="black" stroke-width="6.48"/>
<line x1="2352.489952" y1="2074.720676" x2="2381.687334" y2="2051.509489" stroke="black" stroke-width="6.48"/>
<line x1="2502.199516" y1="2064.175859" x2="2525.932973" y2="2092.950317" stroke="black" stroke-width="6.48"/>
<line x1="2379.796945" y1="2051.310802" x2="2504.089901" y2="2064.374546" stroke="black" stroke-width="6.48"/>
<line x1="2336.298289" y1="2237.865916" x2="2508.79612" y2="2255.99621" stroke="black" stroke-width="6.48"/>
<line x1="5722.02427" y1="1525.984492" x2="5729.321333" y2="1734.945124" stroke="black" stroke-width="6.48"/>
<line x1="5729.321333" y1="1734.945124" x2="5961.077669" y2="1726.852014" stroke="black" stroke-width="6.48"/>
<line x1="5961.077669" y1="1726.852014" x2="5953.780602" y2="1517.891382" stroke="black" stroke-width="6.48"/>
<line x1="5953.780602" y1="1517.891382" x2="5722.02427" y2="1525.984492" stroke="black" stroke-width="6.48"/>
<line x1="5754.318185" y1="1524.856763" x2="5761.615248" y2="1733.817395" stroke="black" stroke-width="6.48"/>
<line x1="6040.655748" y1="1813.411404" x2="5962.330008" y2="2007.274424" stroke="black" stroke-width="6.48"/>
<line x1="5962.330008" y1="2007.274424" x2="6177.341718" y2="2094.144793" stroke="black" stroke-width="6.48"/>
<line x1="6177.341718" y1="2094.144793" x2="6255.667462" y2="1900.28178" stroke="black" stroke-width="6.48"/>
<line x1="6255.667462" y1="1900.28178" x2="6040.655748" y2="1813.411404" stroke="black" stroke-width="6.48"/>
<line x1="6070.616402" y1="1825.516292" x2="5992.290659" y2="2019.379313" stroke="black" stroke-width="6.48"/>
</g>
</svg>
