<?xml version="1.0"?>
<svg xmlns:xlink="http://www.w3.org/1999/xlink" width="6775.2" height="2858.4">
<image x="0" y="0" width="6775.2" height="2858.4" xlink:href="groundfilled-01.png"/>
<g style="stroke-linecap:round">
<line x1="1285.950406" y1="795.178109" x2="1311.346069" y2="795.178109" stroke="black" stroke-width="6.48"/>
<line x1="1311.346069" y1="795.178109" x2="1311.346069" y2="745.625592" stroke="black" stroke-width="6.48"/>
<line x1="1311.346069" y1="745.625592" x2="1285.950406" y2="745.625592" stroke="black" stroke-width="6.48"/>
<line x1="1285.950406" y1="745.625592" x2="1285.950406" y2="795.178109" stroke="black" stroke-width="6.48"/>
<line x1="1559.728062" y1="745.625592" x2="1559.728062" y2="498.48241" stroke="black" stroke-width="6.48"/>
<line x1="1560.347471" y1="796.416923" x2="1585.743134" y2="796.416923" stroke="black" stroke-width="6.48"/>
<line x1="1585.743134" y1="796.416923" x2="1585.743134" y2="746.864406" stroke="black" stroke-width="6.48"/>
<line x1="1585.743134" y1="746.864406" x2="1560.347471" y2="746.864406" stroke="black" stroke-width="6.48"/>
<line x1="1560.347471" y1="746.864406" x2="1560.347471" y2="796.416923" stroke="black" stroke-width="6.48"/>
<path d="m 1311.346069,747.483811 a 248.38199299999997,248.38199299999997 0 0 1 248.38199299999997,-248.38199299999997" fill="none" stroke="black" stroke-width="6.48"/>
<line x1="330.523178" y1="771.328966" x2="330.523178" y2="366.748985" stroke="black" stroke-width="6.48"/>
<line x1="330.523178" y1="366.748985" x2="258.15928" y2="366.748985" stroke="black" stroke-width="6.48"/>
<line x1="258.15928" y1="366.748985" x2="258.15928" y2="771.328966" stroke="black" stroke-width="6.48"/>
<line x1="258.15928" y1="771.328966" x2="330.523178" y2="771.328966" stroke="black" stroke-width="6.48"/>
<line x1="330.523178" y1="752.415674" x2="355.19269" y2="752.415674" stroke="black" stroke-width="6.48"/>
<line x1="355.19269" y1="752.415674" x2="355.19269" y2="386.484595" stroke="black" stroke-width="6.48"/>
<line x1="330.523178" y1="386.484595" x2="355.19269" y2="386.484595" stroke="black" stroke-width="6.48"/>
<line x1="3901.945176" y1="1169.331426" x2="3901.945176" y2="1428.837066" stroke="black" stroke-width="6.48"/>
<line x1="3901.945176" y1="1428.837066" x2="3941.9501" y2="1428.837066" stroke="black" stroke-width="6.48"/>
<line x1="3941.9501" y1="1428.837066" x2="3941.9501" y2="1169.331426" stroke="black" stroke-width="6.48"/>
<line x1="3941.9501" y1="1169.331426" x2="3901.945176" y2="1169.331426" stroke="black" stroke-width="6.48"/>
<line x1="3941.423719" y1="1193.544936" x2="3902.471557" y2="1193.544936" stroke="black" stroke-width="6.48"/>
<line x1="3941.423719" y1="1404.097178" x2="3900.892414" y2="1404.097178" stroke="black" stroke-width="6.48"/>
<line x1="3923.000399" y1="1193.018555" x2="3923.000399" y2="1403.570797" stroke="black" stroke-width="6.48"/>
<line x1="334.430687" y1="1882.943946" x2="334.430687" y2="1457.437414" stroke="black" stroke-width="6.48"/>
<line x1="334.430687" y1="1457.437414" x2="258.323828" y2="1457.437414" stroke="black" stroke-width="6.48"/>
<line x1="258.323828" y1="1457.437414" x2="258.323828" y2="1882.943946" stroke="black" stroke-width="6.48"/>
<line x1="258.323828" y1="1882.943946" x2="334.430687" y2="1882.943946" stroke="black" stroke-width="6.48"/>
<line x1="334.430687" y1="1863.05238" x2="360.376207" y2="1863.05238" stroke="black" stroke-width="6.48"/>
<line x1="360.376207" y1="1863.05238" x2="360.376207" y2="1478.193829" stroke="black" stroke-width="6.48"/>
<line x1="334.430687" y1="1478.193829" x2="360.376207" y2="1478.193829" stroke="black" stroke-width="6.48"/>
<line x1="2747.905531" y1="904.670665" x2="2721.68303" y2="904.670665" stroke="black" stroke-width="6.48"/>
<line x1="2721.68303" y1="904.670665" x2="2721.68303" y2="955.836522" stroke="black" stroke-width="6.48"/>
<line x1="2721.68303" y1="955.836522" x2="2747.905531" y2="955.836522" stroke="black" stroke-width="6.48"/>
<line x1="2747.905531" y1="955.836522" x2="2747.905531" y2="904.670665" stroke="black" stroke-width="6.48"/>
<line x1="2465.214181" y1="955.836522" x2="2465.214181" y2="1211.026223" stroke="black" stroke-width="6.48"/>
<line x1="2464.574609" y1="903.39152" x2="2438.352108" y2="903.39152" stroke="black" stroke-width="6.48"/>
<line x1="2438.352108" y1="903.39152" x2="2438.352108" y2="954.557374" stroke="black" stroke-width="6.48"/>
<line x1="2438.352108" y1="954.557374" x2="2464.574609" y2="954.557374" stroke="black" stroke-width="6.48"/>
<line x1="2464.574609" y1="954.557374" x2="2464.574609" y2="903.39152" stroke="black" stroke-width="6.48"/>
<path d="m 2721.68303,953.917801 a 256.4688490000001,256.4688490000001 0 0 1 -256.4688490000003,256.46884899999986" fill="none" stroke="black" stroke-width="6.48"/>
<line x1="2420.532389" y1="1427.858834" x2="2395.136725" y2="1427.858834" stroke="black" stroke-width="6.48"/>
<line x1="2395.136725" y1="1427.858834" x2="2395.136725" y2="1477.411351" stroke="black" stroke-width="6.48"/>
<line x1="2395.136725" y1="1477.411351" x2="2420.532389" y2="1477.411351" stroke="black" stroke-width="6.48"/>
<line x1="2420.532389" y1="1477.411351" x2="2420.532389" y2="1427.858834" stroke="black" stroke-width="6.48"/>
<line x1="2146.754732" y1="1477.411351" x2="2146.754732" y2="1724.554534" stroke="black" stroke-width="6.48"/>
<line x1="2146.135324" y1="1426.62002" x2="2120.73966" y2="1426.62002" stroke="black" stroke-width="6.48"/>
<line x1="2120.73966" y1="1426.62002" x2="2120.73966" y2="1476.172537" stroke="black" stroke-width="6.48"/>
<line x1="2120.73966" y1="1476.172537" x2="2146.135324" y2="1476.172537" stroke="black" stroke-width="6.48"/>
<line x1="2146.135324" y1="1476.172537" x2="2146.135324" y2="1426.62002" stroke="black" stroke-width="6.48"/>
<path d="m 2395.136725,1475.553132 a 248.38199299999997,248.38199299999997 0 0 1 -248.38199299999997,248.38199299999997" fill="none" stroke="black" stroke-width="6.48"/>
<line x1="690.089965" y1="692.136151" x2="1082.921965" y2="692.136151" stroke="black" stroke-width="6.48"/>
<line x1="1082.921965" y1="692.136151" x2="1082.921965" y2="507.600151" stroke="black" stroke-width="6.48"/>
<line x1="1082.921965" y1="507.600151" x2="690.089965" y2="507.600151" stroke="black" stroke-width="6.48"/>
<line x1="690.089965" y1="507.600151" x2="690.089965" y2="692.136151" stroke="black" stroke-width="6.48"/>
<line x1="849.281965" y1="507.600151" x2="849.281965" y2="426.816151" stroke="black" stroke-width="6.48"/>
<line x1="849.281965" y1="426.816151" x2="770.873965" y2="426.816151" stroke="black" stroke-width="6.48"/>
<line x1="770.873965" y1="426.816151" x2="770.873965" y2="507.600151" stroke="black" stroke-width="6.48"/>
<line x1="771.665965" y1="444.240151" x2="849.281965" y2="444.240151" stroke="black" stroke-width="6.48"/>
<line x1="770.873965" y1="773.712151" x2="849.281965" y2="773.712151" stroke="black" stroke-width="6.48"/>
<line x1="849.281965" y1="773.712151" x2="849.281965" y2="692.136151" stroke="black" stroke-width="6.48"/>
<line x1="770.873965" y1="692.136151" x2="770.873965" y2="773.712151" stroke="black" stroke-width="6.48"/>
<line x1="771.665965" y1="756.288151" x2="849.281965" y2="756.288151" stroke="black" stroke-width="6.48"/>
<line x1="1000.553965" y1="507.600151" x2="1000.553965" y2="426.816151" stroke="black" stroke-width="6.48"/>
<line x1="1000.553965" y1="426.816151" x2="922.145965" y2="426.816151" stroke="black" stroke-width="6.48"/>
<line x1="922.145965" y1="426.816151" x2="922.145965" y2="507.600151" stroke="black" stroke-width="6.48"/>
<line x1="922.145965" y1="444.240151" x2="1000.553965" y2="444.240151" stroke="black" stroke-width="6.48"/>
<line x1="922.145965" y1="773.712151" x2="1000.553965" y2="773.712151" stroke="black" stroke-width="6.48"/>
<line x1="1000.553965" y1="773.712151" x2="1000.553965" y2="692.136151" stroke="black" stroke-width="6.48"/>
<line x1="922.145965" y1="692.136151" x2="922.145965" y2="773.712151" stroke="black" stroke-width="6.48"/>
<line x1="922.145965" y1="756.288151" x2="1000.553965" y2="756.288151" stroke="black" stroke-width="6.48"/>
<line x1="2032.924367" y1="1915.691443" x2="2032.924367" y2="1706.603443" stroke="black" stroke-width="6.48"/>
<line x1="2032.924367" y1="1706.603443" x2="1801.026767" y2="1706.603443" stroke="black" stroke-width="6.48"/>
<line x1="1801.026767" y1="1706.603443" x2="1801.026767" y2="1915.691443" stroke="black" stroke-width="6.48"/>
<line x1="1801.026767" y1="1915.691443" x2="2032.924367" y2="1915.691443" stroke="black" stroke-width="6.48"/>
<line x1="2000.610767" y1="1915.691443" x2="2000.610767" y2="1706.603443" stroke="black" stroke-width="6.48"/>
<line x1="1485.415969" y1="209.267824" x2="1707.693134" y2="209.267824" stroke="black" stroke-width="6.48"/>
<line x1="1707.693134" y1="209.267824" x2="1707.693134" y2="432.000475" stroke="black" stroke-width="6.48"/>
<line x1="1707.693134" y1="432.000475" x2="1485.415969" y2="432.000475" stroke="black" stroke-width="6.48"/>
<line x1="1485.415969" y1="432.000475" x2="1485.415969" y2="209.267824" stroke="black" stroke-width="6.48"/>
<line x1="1484.960483" y1="208.812337" x2="1707.693134" y2="432.000475" stroke="black" stroke-width="6.48"/>
<line x1="1485.415969" y1="431.544989" x2="1707.237648" y2="209.267824" stroke="black" stroke-width="6.48"/>
<line x1="2761.020558" y1="2194.614338" x2="2761.020558" y2="1803.366338" stroke="black" stroke-width="6.48"/>
<line x1="2761.020558" y1="1803.366338" x2="2586.780558" y2="1803.366338" stroke="black" stroke-width="6.48"/>
<line x1="2586.780558" y1="1803.366338" x2="2586.780558" y2="2194.614338" stroke="black" stroke-width="6.48"/>
<line x1="2586.780558" y1="2194.614338" x2="2761.020558" y2="2194.614338" stroke="black" stroke-width="6.48"/>
<line x1="2613.708558" y1="1878.606338" x2="2613.708558" y2="2162.934338" stroke="black" stroke-width="6.48"/>
<line x1="2613.708558" y1="2162.934338" x2="2731.716558" y2="2162.934338" stroke="black" stroke-width="6.48"/>
<line x1="2731.716558" y1="2162.934338" x2="2731.716558" y2="1873.062338" stroke="black" stroke-width="6.48"/>
<path d="m 2613.453134,1879.416911 a 63.3599990854681,63.3599990854681 0 0 1 119.3743300000001,-4.293814000000111" fill="none" stroke="black" stroke-width="6.48"/>
<line x1="2105.558975" y1="1875.071495" x2="2105.558975" y2="2058.815495" stroke="black" stroke-width="6.48"/>
<line x1="2105.558975" y1="2058.815495" x2="2056.454975" y2="2058.815495" stroke="black" stroke-width="6.48"/>
<line x1="2056.454975" y1="1875.071495" x2="2056.454975" y2="2058.815495" stroke="black" stroke-width="6.48"/>
<line x1="2105.558975" y1="1875.071495" x2="2056.454975" y2="1875.071495" stroke="black" stroke-width="6.48"/>
<line x1="2133.278975" y1="1916.651495" x2="2105.558975" y2="1916.651495" stroke="black" stroke-width="6.48"/>
<line x1="2105.558975" y1="2015.651495" x2="2134.862975" y2="2015.651495" stroke="black" stroke-width="6.48"/>
<circle cx="2178.422975" cy="1965.359495" r="66.52800000000002" fill="none" stroke="black" stroke-width="6.48"/>
<circle cx="2178.422975" cy="1965.359495" r="57.02400000000001" fill="none" stroke="black" stroke-width="6.48"/>
<line x1="806.215385" y1="209.722212" x2="1076.762585" y2="209.722212" stroke="black" stroke-width="6.48"/>
<line x1="1076.762585" y1="209.722212" x2="1076.762585" y2="341.669412" stroke="black" stroke-width="6.48"/>
<line x1="806.215385" y1="341.669412" x2="1076.762585" y2="341.669412" stroke="black" stroke-width="6.48"/>
<line x1="806.215385" y1="209.722212" x2="806.215385" y2="341.669412" stroke="black" stroke-width="6.48"/>
<line x1="812.868185" y1="216.375012" x2="950.913785" y2="216.375012" stroke="black" stroke-width="6.48"/>
<line x1="950.913785" y1="216.375012" x2="950.913785" y2="334.462212" stroke="black" stroke-width="6.48"/>
<line x1="812.868185" y1="334.462212" x2="950.913785" y2="334.462212" stroke="black" stroke-width="6.48"/>
<line x1="812.868185" y1="216.375012" x2="812.868185" y2="334.462212" stroke="black" stroke-width="6.48"/>
<line x1="965.328185" y1="224.136612" x2="1062.348185" y2="224.136612" stroke="black" stroke-width="6.48"/>
<line x1="965.328185" y1="244.649412" x2="1062.348185" y2="244.649412" stroke="black" stroke-width="6.48"/>
<line x1="965.882585" y1="265.716612" x2="1062.902585" y2="265.716612" stroke="black" stroke-width="6.48"/>
<line x1="965.882585" y1="286.229412" x2="1062.902585" y2="286.229412" stroke="black" stroke-width="6.48"/>
<line x1="965.328185" y1="306.742212" x2="1062.348185" y2="306.742212" stroke="black" stroke-width="6.48"/>
<line x1="965.328185" y1="327.255012" x2="1062.348185" y2="327.255012" stroke="black" stroke-width="6.48"/>
<line x1="865.536185" y1="334.462212" x2="865.536185" y2="320.602212" stroke="black" stroke-width="6.48"/>
<line x1="865.536185" y1="320.602212" x2="899.908985" y2="320.602212" stroke="black" stroke-width="6.48"/>
<line x1="899.908985" y1="320.602212" x2="899.908985" y2="333.907812" stroke="black" stroke-width="6.48"/>
<circle cx="935.390585" cy="231.343812" r="8.316000000000003" fill="none" stroke="black" stroke-width="6.48"/>
<line x1="1131.956136" y1="1136.275711" x2="1261.174907" y2="1163.742008" stroke="black" stroke-width="6.48"/>
<line x1="1261.174907" y1="1163.742008" x2="1258.210919" y2="1177.686479" stroke="black" stroke-width="6.48"/>
<line x1="1128.992144" y1="1150.220182" x2="1258.210919" y2="1177.686479" stroke="black" stroke-width="6.48"/>
<line x1="1131.956136" y1="1136.275711" x2="1128.992144" y2="1150.220182" stroke="black" stroke-width="6.48"/>
<line x1="1142.006983" y1="1152.986573" x2="1133.626946" y2="1183.269211" stroke="black" stroke-width="6.48"/>
<line x1="1245.19608" y1="1174.920091" x2="1240.336969" y2="1206.922759" stroke="black" stroke-width="6.48"/>
<line x1="1036.120489" y1="1587.14698" x2="1165.339264" y2="1614.613277" stroke="black" stroke-width="6.48"/>
<line x1="1165.339264" y1="1614.613277" x2="1168.105655" y2="1601.598438" stroke="black" stroke-width="6.48"/>
<line x1="1038.886877" y1="1574.132137" x2="1168.105655" y2="1601.598438" stroke="black" stroke-width="6.48"/>
<line x1="1036.120489" y1="1587.14698" x2="1038.886877" y2="1574.132137" stroke="black" stroke-width="6.48"/>
<line x1="1051.367285" y1="1574.841661" x2="1056.028799" y2="1543.768628" stroke="black" stroke-width="6.48"/>
<line x1="1154.556378" y1="1596.775183" x2="1164.06365" y2="1565.760514" stroke="black" stroke-width="6.48"/>
<line x1="1386.886849" y1="1358.555328" x2="1372.942379" y2="1355.59134" stroke="black" stroke-width="6.48"/>
<line x1="1372.942379" y1="1355.59134" x2="1345.476082" y2="1484.810118" stroke="black" stroke-width="6.48"/>
<line x1="1359.420552" y1="1487.774106" x2="1345.476082" y2="1484.810118" stroke="black" stroke-width="6.48"/>
<line x1="1386.886849" y1="1358.555328" x2="1359.420552" y2="1487.774106" stroke="black" stroke-width="6.48"/>
<line x1="1348.44007" y1="1470.86564" x2="1316.239801" y2="1466.936161" stroke="black" stroke-width="6.48"/>
<line x1="1370.175988" y1="1368.606182" x2="1338.963718" y2="1360.028542" stroke="black" stroke-width="6.48"/>
<line x1="937.142816" y1="1261.98765" x2="951.087287" y2="1264.951642" stroke="black" stroke-width="6.48"/>
<line x1="951.087287" y1="1264.951642" x2="923.620986" y2="1394.170412" stroke="black" stroke-width="6.48"/>
<line x1="909.676516" y1="1391.206424" x2="923.620986" y2="1394.170412" stroke="black" stroke-width="6.48"/>
<line x1="937.142816" y1="1261.98765" x2="909.676516" y2="1391.206424" stroke="black" stroke-width="6.48"/>
<line x1="926.584978" y1="1380.225942" x2="957.599647" y2="1389.733214" stroke="black" stroke-width="6.48"/>
<line x1="948.320899" y1="1277.966477" x2="980.323567" y2="1282.825591" stroke="black" stroke-width="6.48"/>
<circle cx="1148.281682" cy="1374.880878" r="191.98080000000002" fill="none" stroke="black" stroke-width="6.48"/>
<line x1="2044.889399" y1="955.822399" x2="2267.166564" y2="955.822399" stroke="black" stroke-width="6.48"/>
<line x1="2267.166564" y1="955.822399" x2="2267.166564" y2="1178.555051" stroke="black" stroke-width="6.48"/>
<line x1="2267.166564" y1="1178.555051" x2="2044.889399" y2="1178.555051" stroke="black" stroke-width="6.48"/>
<line x1="2044.889399" y1="1178.555051" x2="2044.889399" y2="955.822399" stroke="black" stroke-width="6.48"/>
<line x1="2044.433912" y1="955.366913" x2="2267.166564" y2="1178.555051" stroke="black" stroke-width="6.48"/>
<line x1="2044.889399" y1="1178.099564" x2="2266.711078" y2="955.822399" stroke="black" stroke-width="6.48"/>
<line x1="323.258818" y1="1375.374532" x2="323.258818" y2="949.841089" stroke="black" stroke-width="6.48"/>
<line x1="323.258818" y1="949.841089" x2="257.659344" y2="949.841089" stroke="black" stroke-width="6.48"/>
<line x1="257.659344" y1="949.841089" x2="257.659344" y2="1375.374532" stroke="black" stroke-width="6.48"/>
<line x1="257.659344" y1="1375.374532" x2="323.258818" y2="1375.374532" stroke="black" stroke-width="6.48"/>
<line x1="258.522494" y1="1335.669588" x2="322.395667" y2="1335.669588" stroke="black" stroke-width="6.48"/>
<line x1="258.522494" y1="990.409187" x2="324.985122" y2="990.409187" stroke="black" stroke-width="6.48"/>
<line x1="288.73278" y1="1336.532738" x2="288.73278" y2="991.272337" stroke="black" stroke-width="6.48"/>
<line x1="3874.406537" y1="1514.726719" x2="3874.406537" y2="1940.260162" stroke="black" stroke-width="6.48"/>
<line x1="3874.406537" y1="1940.260162" x2="3940.00601" y2="1940.260162" stroke="black" stroke-width="6.48"/>
<line x1="3940.00601" y1="1940.260162" x2="3940.00601" y2="1514.726719" stroke="black" stroke-width="6.48"/>
<line x1="3940.00601" y1="1514.726719" x2="3874.406537" y2="1514.726719" stroke="black" stroke-width="6.48"/>
<line x1="3939.14286" y1="1554.431663" x2="3875.269687" y2="1554.431663" stroke="black" stroke-width="6.48"/>
<line x1="3939.14286" y1="1899.692064" x2="3872.680232" y2="1899.692064" stroke="black" stroke-width="6.48"/>
<line x1="3908.932574" y1="1553.568512" x2="3908.932574" y2="1898.828914" stroke="black" stroke-width="6.48"/>
<line x1="4967.160502" y1="1534.801964" x2="5097.980462" y2="1553.18751" stroke="black" stroke-width="6.48"/>
<line x1="5097.980462" y1="1553.18751" x2="5095.996409" y2="1567.304773" stroke="black" stroke-width="6.48"/>
<line x1="4965.176452" y1="1548.919224" x2="5095.996409" y2="1567.304773" stroke="black" stroke-width="6.48"/>
<line x1="4967.160502" y1="1534.801964" x2="4965.176452" y2="1548.919224" stroke="black" stroke-width="6.48"/>
<line x1="4978.352563" y1="1550.77101" x2="4972.105346" y2="1581.564445" stroke="black" stroke-width="6.48"/>
<line x1="5082.820297" y1="1565.452991" x2="5080.205416" y2="1597.716655" stroke="black" stroke-width="6.48"/>
<line x1="4903.009499" y1="1991.260087" x2="5033.829456" y2="2009.645636" stroke="black" stroke-width="6.48"/>
<line x1="5033.829456" y1="2009.645636" x2="5035.681238" y2="1996.469525" stroke="black" stroke-width="6.48"/>
<line x1="4904.861281" y1="1978.083976" x2="5035.681238" y2="1996.469525" stroke="black" stroke-width="6.48"/>
<line x1="4903.009499" y1="1991.260087" x2="4904.861281" y2="1978.083976" stroke="black" stroke-width="6.48"/>
<line x1="4917.36078" y1="1977.921187" x2="4919.843394" y2="1946.598674" stroke="black" stroke-width="6.48"/>
<line x1="5021.828518" y1="1992.603168" x2="5029.14915" y2="1961.000852" stroke="black" stroke-width="6.48"/>
<line x1="5236.975667" y1="1738.757052" x2="5222.858404" y2="1736.773002" stroke="black" stroke-width="6.48"/>
<line x1="5222.858404" y1="1736.773002" x2="5204.472858" y2="1867.592959" stroke="black" stroke-width="6.48"/>
<line x1="5218.590118" y1="1869.577009" x2="5204.472858" y2="1867.592959" stroke="black" stroke-width="6.48"/>
<line x1="5236.975667" y1="1738.757052" x2="5218.590118" y2="1869.577009" stroke="black" stroke-width="6.48"/>
<line x1="5206.456908" y1="1853.475696" x2="5174.060972" y2="1851.801962" stroke="black" stroke-width="6.48"/>
<line x1="5221.006621" y1="1749.949114" x2="5189.272038" y2="1743.569629" stroke="black" stroke-width="6.48"/>
<line x1="4781.59096" y1="1673.797169" x2="4795.708219" y2="1675.781219" stroke="black" stroke-width="6.48"/>
<line x1="4795.708219" y1="1675.781219" x2="4777.322677" y2="1806.601176" stroke="black" stroke-width="6.48"/>
<line x1="4763.205414" y1="1804.617122" x2="4777.322677" y2="1806.601176" stroke="black" stroke-width="6.48"/>
<line x1="4781.59096" y1="1673.797169" x2="4763.205414" y2="1804.617122" stroke="black" stroke-width="6.48"/>
<line x1="4779.306727" y1="1792.483913" x2="4810.909046" y2="1799.804549" stroke="black" stroke-width="6.48"/>
<line x1="4793.85644" y1="1688.957327" x2="4826.120105" y2="1691.572212" stroke="black" stroke-width="6.48"/>
<circle cx="5000.09054" cy="1771.687087" r="191.98080000000002" fill="none" stroke="black" stroke-width="6.48"/>
<line x1="3476.575742" y1="1075.545259" x2="3685.940946" y2="1075.545259" stroke="black" stroke-width="6.48"/>
<line x1="3685.940946" y1="1075.545259" x2="3685.940946" y2="744.330856" stroke="black" stroke-width="6.48"/>
<line x1="3685.940946" y1="744.330856" x2="3476.575742" y2="744.330856" stroke="black" stroke-width="6.48"/>
<line x1="3476.575742" y1="744.330856" x2="3476.575742" y2="1075.545259" stroke="black" stroke-width="6.48"/>
<line x1="3475.902542" y1="803.572456" x2="3686.614142" y2="803.572456" stroke="black" stroke-width="6.48"/>
<line x1="3686.614142" y1="803.572456" x2="3477.248942" y2="853.389259" stroke="black" stroke-width="6.48"/>
<line x1="3477.248942" y1="853.389259" x2="3508.889346" y2="899.840059" stroke="black" stroke-width="6.48"/>
<line x1="3508.889346" y1="899.840059" x2="3686.614142" y2="802.899259" stroke="black" stroke-width="6.48"/>
<line x1="3361.81725" y1="1203.329138" x2="3584.094415" y2="1203.329138" stroke="black" stroke-width="6.48"/>
<line x1="3584.094415" y1="1203.329138" x2="3584.094415" y2="1426.06179" stroke="black" stroke-width="6.48"/>
<line x1="3584.094415" y1="1426.06179" x2="3361.81725" y2="1426.06179" stroke="black" stroke-width="6.48"/>
<line x1="3361.81725" y1="1426.06179" x2="3361.81725" y2="1203.329138" stroke="black" stroke-width="6.48"/>
<line x1="3361.361764" y1="1202.873652" x2="3584.094415" y2="1426.06179" stroke="black" stroke-width="6.48"/>
<line x1="3361.81725" y1="1425.606304" x2="3583.638929" y2="1203.329138" stroke="black" stroke-width="6.48"/>
<line x1="2804.16708" y1="1127.69402" x2="2804.16708" y2="1153.148746" stroke="black" stroke-width="6.48"/>
<line x1="2804.16708" y1="1153.148746" x2="2853.834836" y2="1153.148746" stroke="black" stroke-width="6.48"/>
<line x1="2853.834836" y1="1153.148746" x2="2853.834836" y2="1127.69402" stroke="black" stroke-width="6.48"/>
<line x1="2853.834836" y1="1127.69402" x2="2804.16708" y2="1127.69402" stroke="black" stroke-width="6.48"/>
<line x1="2853.834836" y1="1402.108373" x2="3101.55277" y2="1402.108373" stroke="black" stroke-width="6.48"/>
<line x1="2802.925386" y1="1402.729218" x2="2802.925386" y2="1428.183943" stroke="black" stroke-width="6.48"/>
<line x1="2802.925386" y1="1428.183943" x2="2852.593142" y2="1428.183943" stroke="black" stroke-width="6.48"/>
<line x1="2852.593142" y1="1428.183943" x2="2852.593142" y2="1402.729218" stroke="black" stroke-width="6.48"/>
<line x1="2852.593142" y1="1402.729218" x2="2802.925386" y2="1402.729218" stroke="black" stroke-width="6.48"/>
<path d="m 2851.972294,1153.148746 a 248.95962699999984,248.95962699999984 0 0 1 248.95962699999973,248.95962699999995" fill="none" stroke="black" stroke-width="6.48"/>
<line x1="3432.288431" y1="1685.450174" x2="3664.186031" y2="1685.450174" stroke="black" stroke-width="6.48"/>
<line x1="3664.186031" y1="1685.450174" x2="3664.186031" y2="1917.822974" stroke="black" stroke-width="6.48"/>
<line x1="3664.186031" y1="1917.822974" x2="3432.288431" y2="1917.822974" stroke="black" stroke-width="6.48"/>
<line x1="3432.288431" y1="1917.822974" x2="3432.288431" y2="1685.450174" stroke="black" stroke-width="6.48"/>
<line x1="3431.813231" y1="1684.974974" x2="3664.186031" y2="1917.822974" stroke="black" stroke-width="6.48"/>
<line x1="3432.288431" y1="1917.347774" x2="3663.710831" y2="1685.450174" stroke="black" stroke-width="6.48"/>
<line x1="3089.601562" y1="1589.315879" x2="3074.626764" y2="1616.331136" stroke="black" stroke-width="6.48"/>
<line x1="3074.626764" y1="1616.331136" x2="3257.914867" y2="1717.929389" stroke="black" stroke-width="6.48"/>
<line x1="3257.914867" y1="1717.929389" x2="3272.889668" y2="1690.914139" stroke="black" stroke-width="6.48"/>
<line x1="3272.889668" y1="1690.914139" x2="3089.601562" y2="1589.315879" stroke="black" stroke-width="6.48"/>
<line x1="2990.767882" y1="1767.616553" x2="2975.793084" y2="1794.63181" stroke="black" stroke-width="6.48"/>
<line x1="2975.793084" y1="1794.63181" x2="3159.081187" y2="1896.230063" stroke="black" stroke-width="6.48"/>
<line x1="3159.081187" y1="1896.230063" x2="3174.055988" y2="1869.21481" stroke="black" stroke-width="6.48"/>
<line x1="3174.055988" y1="1869.21481" x2="2990.767882" y2="1767.616553" stroke="black" stroke-width="6.48"/>
<line x1="3074.857146" y1="1615.915516" x2="2990.767882" y2="1767.616553" stroke="black" stroke-width="6.48"/>
<line x1="3257.544391" y1="1716.637388" x2="3267.502088" y2="1752.583054" stroke="black" stroke-width="6.48"/>
<line x1="3208.754794" y1="1858.56597" x2="3172.99437" y2="1869.169666" stroke="black" stroke-width="6.48"/>
<line x1="3268.423613" y1="1750.920577" x2="3207.833273" y2="1860.22845" stroke="black" stroke-width="6.48"/>
<line x1="3113.694976" y1="1637.987" x2="3029.605718" y2="1789.688038" stroke="black" stroke-width="6.48"/>
<line x1="1257.267226" y1="1650.971102" x2="1111.657468" y2="1773.152132" stroke="black" stroke-width="6.48"/>
<line x1="1111.657468" y1="1773.152132" x2="1409.779188" y2="2128.439941" stroke="black" stroke-width="6.48"/>
<line x1="1409.779188" y1="2128.439941" x2="1555.388942" y2="2006.258908" stroke="black" stroke-width="6.48"/>
<line x1="1555.388942" y1="2006.258908" x2="1540.11632" y2="1988.057689" stroke="black" stroke-width="6.48"/>
<line x1="1540.11632" y1="1988.057689" x2="1411.979731" y2="2095.576999" stroke="black" stroke-width="6.48"/>
<line x1="1411.979731" y1="2095.576999" x2="1145.014175" y2="1777.419677" stroke="black" stroke-width="6.48"/>
<line x1="1145.014175" y1="1777.419677" x2="1273.15076" y2="1669.90037" stroke="black" stroke-width="6.48"/>
<line x1="1273.15076" y1="1669.90037" x2="1257.267226" y2="1650.971102" stroke="black" stroke-width="6.48"/>
<line x1="1268.782466" y1="1673.5658" x2="1535.748026" y2="1991.723119" stroke="black" stroke-width="6.48"/>
<line x1="1402.687843" y1="1831.669531" x2="1278.919544" y2="1935.523408" stroke="black" stroke-width="6.48"/>
<line x1="5631.407777" y1="1480.122522" x2="5696.019526" y2="1678.977025" stroke="black" stroke-width="6.48"/>
<line x1="5696.019526" y1="1678.977025" x2="5916.567247" y2="1607.316728" stroke="black" stroke-width="6.48"/>
<line x1="5916.567247" y1="1607.316728" x2="5851.955502" y2="1408.462222" stroke="black" stroke-width="6.48"/>
<line x1="5851.955502" y1="1408.462222" x2="5631.407777" y2="1480.122522" stroke="black" stroke-width="6.48"/>
<line x1="5662.139836" y1="1470.137069" x2="5726.751584" y2="1668.991572" stroke="black" stroke-width="6.48"/>
<line x1="6197.845547" y1="1789.687681" x2="6017.068721" y2="1848.425634" stroke="black" stroke-width="6.48"/>
<line x1="6017.068721" y1="1848.425634" x2="6160.389322" y2="2289.521081" stroke="black" stroke-width="6.48"/>
<line x1="6160.389322" y1="2289.521081" x2="6341.166144" y2="2230.783128" stroke="black" stroke-width="6.48"/>
<line x1="6341.166144" y1="2230.783128" x2="6333.823897" y2="2208.186025" stroke="black" stroke-width="6.48"/>
<line x1="6333.823897" y1="2208.186025" x2="6174.740297" y2="2259.875423" stroke="black" stroke-width="6.48"/>
<line x1="6174.740297" y1="2259.875423" x2="6046.397878" y2="1864.878066" stroke="black" stroke-width="6.48"/>
<line x1="6046.397878" y1="1864.878066" x2="6205.481478" y2="1813.188672" stroke="black" stroke-width="6.48"/>
<line x1="6205.481478" y1="1813.188672" x2="6197.845547" y2="1789.687681" stroke="black" stroke-width="6.48"/>
<line x1="6200.058175" y1="1814.950807" x2="6328.400594" y2="2209.948168" stroke="black" stroke-width="6.48"/>
<line x1="6264.986422" y1="2011.703854" x2="6111.326128" y2="2061.631116" stroke="black" stroke-width="6.48"/>
<line x1="2263.511074" y1="2273.28421" x2="2294.229866" y2="2276.512891" stroke="black" stroke-width="6.48"/>
<line x1="2294.229866" y1="2276.512891" x2="2316.135236" y2="2068.097706" stroke="black" stroke-width="6.48"/>
<line x1="2316.135236" y1="2068.097706" x2="2285.416444" y2="2064.869024" stroke="black" stroke-width="6.48"/>
<line x1="2285.416444" y1="2064.869024" x2="2263.511074" y2="2273.28421" stroke="black" stroke-width="6.48"/>
<line x1="2466.2551" y1="2294.593517" x2="2496.973889" y2="2297.822198" stroke="black" stroke-width="6.48"/>
<line x1="2496.973889" y1="2297.822198" x2="2518.879259" y2="2089.407013" stroke="black" stroke-width="6.48"/>
<line x1="2518.879259" y1="2089.407013" x2="2488.16047" y2="2086.178332" stroke="black" stroke-width="6.48"/>
<line x1="2488.16047" y1="2086.178332" x2="2466.2551" y2="2294.593517" stroke="black" stroke-width="6.48"/>
<line x1="2293.757269" y1="2276.463218" x2="2466.2551" y2="2294.593517" stroke="black" stroke-width="6.48"/>
<line x1="2315.0907" y1="2068.943555" x2="2344.288082" y2="2045.732368" stroke="black" stroke-width="6.48"/>
<line x1="2464.800264" y1="2058.398737" x2="2488.533721" y2="2087.173195" stroke="black" stroke-width="6.48"/>
<line x1="2342.397694" y1="2045.53368" x2="2466.690649" y2="2058.597425" stroke="black" stroke-width="6.48"/>
<line x1="2298.899038" y1="2232.088794" x2="2471.396868" y2="2250.219089" stroke="black" stroke-width="6.48"/>
<line x1="1100.220869" y1="210.441053" x2="1370.768069" y2="210.441053" stroke="black" stroke-width="6.48"/>
<line x1="1370.768069" y1="210.441053" x2="1370.768069" y2="342.388253" stroke="black" stroke-width="6.48"/>
<line x1="1100.220869" y1="342.388253" x2="1370.768069" y2="342.388253" stroke="black" stroke-width="6.48"/>
<line x1="1100.220869" y1="210.441053" x2="1100.220869" y2="342.388253" stroke="black" stroke-width="6.48"/>
<line x1="1106.873669" y1="217.093853" x2="1244.919269" y2="217.093853" stroke="black" stroke-width="6.48"/>
<line x1="1244.919269" y1="217.093853" x2="1244.919269" y2="335.181053" stroke="black" stroke-width="6.48"/>
<line x1="1106.873669" y1="335.181053" x2="1244.919269" y2="335.181053" stroke="black" stroke-width="6.48"/>
<line x1="1106.873669" y1="217.093853" x2="1106.873669" y2="335.181053" stroke="black" stroke-width="6.48"/>
<line x1="1259.333669" y1="224.855453" x2="1356.353669" y2="224.855453" stroke="black" stroke-width="6.48"/>
<line x1="1259.333669" y1="245.368253" x2="1356.353669" y2="245.368253" stroke="black" stroke-width="6.48"/>
<line x1="1259.888069" y1="266.435453" x2="1356.908069" y2="266.435453" stroke="black" stroke-width="6.48"/>
<line x1="1259.888069" y1="286.948253" x2="1356.908069" y2="286.948253" stroke="black" stroke-width="6.48"/>
<line x1="1259.333669" y1="307.461053" x2="1356.353669" y2="307.461053" stroke="black" stroke-width="6.48"/>
<line x1="1259.333669" y1="327.973853" x2="1356.353669" y2="327.973853" stroke="black" stroke-width="6.48"/>
<line x1="1159.541669" y1="335.181053" x2="1159.541669" y2="321.321053" stroke="black" stroke-width="6.48"/>
<line x1="1159.541669" y1="321.321053" x2="1193.914469" y2="321.321053" stroke="black" stroke-width="6.48"/>
<line x1="1193.914469" y1="321.321053" x2="1193.914469" y2="334.626653" stroke="black" stroke-width="6.48"/>
<circle cx="1229.396069" cy="232.062653" r="8.316000000000003" fill="none" stroke="black" stroke-width="6.48"/>
</g>
</svg>
