<?xml version="1.0"?>
<svg xmlns:xlink="http://www.w3.org/1999/xlink" width="6775.2" height="2858.4">
<image x="0" y="0" width="6775.2" height="2858.4" xlink:href="groundfilled-01.png"/>
<g style="stroke-linecap:round">
<line x1="1285.950406" y1="795.178109" x2="1311.346069" y2="795.178109" stroke="black" stroke-width="6.48"/>
<line x1="1311.346069" y1="795.178109" x2="1311.346069" y2="745.625592" stroke="black" stroke-width="6.48"/>
<line x1="1311.346069" y1="745.625592" x2="1285.950406" y2="745.625592" stroke="black" stroke-width="6.48"/>
<line x1="1285.950406" y1="745.625592" x2="1285.950406" y2="795.178109" stroke="black" stroke-width="6.48"/>
<line x1="1559.728062" y1="745.625592" x2="1559.728062" y2="498.48241" stroke="black" stroke-width="6.48"/>
<line x1="1560.347471" y1="796.416923" x2="1585.743134" y2="796.416923" stroke="black" stroke-width="6.48"/>
<line x1="1585.743134" y1="796.416923" x2="1585.743134" y2="746.864406" stroke="black" stroke-width="6.48"/>
<line x1="1585.743134" y1="746.864406" x2="1560.347471" y2="746.864406" stroke="black" stroke-width="6.48"/>
<line x1="1560.347471" y1="746.864406" x2="1560.347471" y2="796.416923" stroke="black" stroke-width="6.48"/>
<path d="m 1311.346069,747.483811 a 248.38199299999997,248.38199299999997 0 0 1 248.38199299999997,-248.38199299999997" fill="none" stroke="black" stroke-width="6.48"/>
<line x1="320.532556" y1="771.34176" x2="320.532556" y2="366.736194" stroke="black" stroke-width="6.48"/>
<line x1="320.532556" y1="366.736194" x2="258.159283" y2="366.736194" stroke="black" stroke-width="6.48"/>
<line x1="258.159283" y1="366.736194" x2="258.159283" y2="771.34176" stroke="black" stroke-width="6.48"/>
<line x1="258.159283" y1="771.34176" x2="320.532556" y2="771.34176" stroke="black" stroke-width="6.48"/>
<line x1="258.979986" y1="733.589518" x2="319.711856" y2="733.589518" stroke="black" stroke-width="6.48"/>
<line x1="258.979986" y1="405.309139" x2="322.173958" y2="405.309139" stroke="black" stroke-width="6.48"/>
<line x1="287.704519" y1="734.410217" x2="287.704519" y2="406.129838" stroke="black" stroke-width="6.48"/>
<line x1="3901.945176" y1="1169.331426" x2="3901.945176" y2="1428.837066" stroke="black" stroke-width="6.48"/>
<line x1="3901.945176" y1="1428.837066" x2="3941.9501" y2="1428.837066" stroke="black" stroke-width="6.48"/>
<line x1="3941.9501" y1="1428.837066" x2="3941.9501" y2="1169.331426" stroke="black" stroke-width="6.48"/>
<line x1="3941.9501" y1="1169.331426" x2="3901.945176" y2="1169.331426" stroke="black" stroke-width="6.48"/>
<line x1="3941.423719" y1="1193.544936" x2="3902.471557" y2="1193.544936" stroke="black" stroke-width="6.48"/>
<line x1="3941.423719" y1="1404.097178" x2="3900.892414" y2="1404.097178" stroke="black" stroke-width="6.48"/>
<line x1="3923.000399" y1="1193.018555" x2="3923.000399" y2="1403.570797" stroke="black" stroke-width="6.48"/>
<line x1="334.430687" y1="1882.943946" x2="334.430687" y2="1457.437414" stroke="black" stroke-width="6.48"/>
<line x1="334.430687" y1="1457.437414" x2="258.323828" y2="1457.437414" stroke="black" stroke-width="6.48"/>
<line x1="258.323828" y1="1457.437414" x2="258.323828" y2="1882.943946" stroke="black" stroke-width="6.48"/>
<line x1="258.323828" y1="1882.943946" x2="334.430687" y2="1882.943946" stroke="black" stroke-width="6.48"/>
<line x1="334.430687" y1="1863.05238" x2="360.376207" y2="1863.05238" stroke="black" stroke-width="6.48"/>
<line x1="360.376207" y1="1863.05238" x2="360.376207" y2="1478.193829" stroke="black" stroke-width="6.48"/>
<line x1="334.430687" y1="1478.193829" x2="360.376207" y2="1478.193829" stroke="black" stroke-width="6.48"/>
<line x1="2747.905531" y1="904.670665" x2="2721.68303" y2="904.670665" stroke="black" stroke-width="6.48"/>
<line x1="2721.68303" y1="904.670665" x2="2721.68303" y2="955.836522" stroke="black" stroke-width="6.48"/>
<line x1="2721.68303" y1="955.836522" x2="2747.905531" y2="955.836522" stroke="black" stroke-width="6.48"/>
<line x1="2747.905531" y1="955.836522" x2="2747.905531" y2="904.670665" stroke="black" stroke-width="6.48"/>
<line x1="2465.214181" y1="955.836522" x2="2465.214181" y2="1211.026223" stroke="black" stroke-width="6.48"/>
<line x1="2464.574609" y1="903.39152" x2="2438.352108" y2="903.39152" stroke="black" stroke-width="6.48"/>
<line x1="2438.352108" y1="903.39152" x2="2438.352108" y2="954.557374" stroke="black" stroke-width="6.48"/>
<line x1="2438.352108" y1="954.557374" x2="2464.574609" y2="954.557374" stroke="black" stroke-width="6.48"/>
<line x1="2464.574609" y1="954.557374" x2="2464.574609" y2="903.39152" stroke="black" stroke-width="6.48"/>
<path d="m 2721.68303,953.917801 a 256.4688490000001,256.4688490000001 0 0 1 -256.4688490000003,256.46884899999986" fill="none" stroke="black" stroke-width="6.48"/>
<line x1="2420.532389" y1="1427.858834" x2="2395.136725" y2="1427.858834" stroke="black" stroke-width="6.48"/>
<line x1="2395.136725" y1="1427.858834" x2="2395.136725" y2="1477.411351" stroke="black" stroke-width="6.48"/>
<line x1="2395.136725" y1="1477.411351" x2="2420.532389" y2="1477.411351" stroke="black" stroke-width="6.48"/>
<line x1="2420.532389" y1="1477.411351" x2="2420.532389" y2="1427.858834" stroke="black" stroke-width="6.48"/>
<line x1="2146.754732" y1="1477.411351" x2="2146.754732" y2="1724.554534" stroke="black" stroke-width="6.48"/>
<line x1="2146.135324" y1="1426.62002" x2="2120.73966" y2="1426.62002" stroke="black" stroke-width="6.48"/>
<line x1="2120.73966" y1="1426.62002" x2="2120.73966" y2="1476.172537" stroke="black" stroke-width="6.48"/>
<line x1="2120.73966" y1="1476.172537" x2="2146.135324" y2="1476.172537" stroke="black" stroke-width="6.48"/>
<line x1="2146.135324" y1="1476.172537" x2="2146.135324" y2="1426.62002" stroke="black" stroke-width="6.48"/>
<path d="m 2395.136725,1475.553132 a 248.38199299999997,248.38199299999997 0 0 1 -248.38199299999997,248.38199299999997" fill="none" stroke="black" stroke-width="6.48"/>
<line x1="829.604052" y1="541.339351" x2="1061.501652" y2="541.339351" stroke="black" stroke-width="6.48"/>
<line x1="1061.501652" y1="541.339351" x2="1061.501652" y2="773.712151" stroke="black" stroke-width="6.48"/>
<line x1="1061.501652" y1="773.712151" x2="829.604052" y2="773.712151" stroke="black" stroke-width="6.48"/>
<line x1="829.604052" y1="773.712151" x2="829.604052" y2="541.339351" stroke="black" stroke-width="6.48"/>
<line x1="829.128852" y1="540.864151" x2="1061.501652" y2="773.712151" stroke="black" stroke-width="6.48"/>
<line x1="829.604052" y1="773.236951" x2="1061.026452" y2="541.339351" stroke="black" stroke-width="6.48"/>
<line x1="2032.924367" y1="1733.707919" x2="2032.924367" y2="1702.819919" stroke="black" stroke-width="6.48"/>
<line x1="2032.924367" y1="1702.819919" x2="1823.361167" y2="1702.819919" stroke="black" stroke-width="6.48"/>
<line x1="1823.361167" y1="1702.819919" x2="1823.361167" y2="1733.707919" stroke="black" stroke-width="6.48"/>
<line x1="1823.361167" y1="1733.707919" x2="2032.924367" y2="1733.707919" stroke="black" stroke-width="6.48"/>
<line x1="2032.924367" y1="1529.847119" x2="2032.924367" y2="1498.959119" stroke="black" stroke-width="6.48"/>
<line x1="2032.924367" y1="1498.959119" x2="1823.361167" y2="1498.959119" stroke="black" stroke-width="6.48"/>
<line x1="1823.361167" y1="1498.959119" x2="1823.361167" y2="1529.847119" stroke="black" stroke-width="6.48"/>
<line x1="1823.361167" y1="1529.847119" x2="2032.924367" y2="1529.847119" stroke="black" stroke-width="6.48"/>
<line x1="2032.924367" y1="1703.295119" x2="2032.924367" y2="1529.847119" stroke="black" stroke-width="6.48"/>
<line x1="1824.311567" y1="1703.770319" x2="1798.175567" y2="1677.159119" stroke="black" stroke-width="6.48"/>
<line x1="1798.175567" y1="1555.983119" x2="1824.311567" y2="1529.371919" stroke="black" stroke-width="6.48"/>
<line x1="1798.175567" y1="1679.059919" x2="1798.175567" y2="1554.082319" stroke="black" stroke-width="6.48"/>
<line x1="1988.255567" y1="1702.819919" x2="1988.255567" y2="1529.371919" stroke="black" stroke-width="6.48"/>
<line x1="1485.415969" y1="209.267824" x2="1707.693134" y2="209.267824" stroke="black" stroke-width="6.48"/>
<line x1="1707.693134" y1="209.267824" x2="1707.693134" y2="432.000475" stroke="black" stroke-width="6.48"/>
<line x1="1707.693134" y1="432.000475" x2="1485.415969" y2="432.000475" stroke="black" stroke-width="6.48"/>
<line x1="1485.415969" y1="432.000475" x2="1485.415969" y2="209.267824" stroke="black" stroke-width="6.48"/>
<line x1="1484.960483" y1="208.812337" x2="1707.693134" y2="432.000475" stroke="black" stroke-width="6.48"/>
<line x1="1485.415969" y1="431.544989" x2="1707.237648" y2="209.267824" stroke="black" stroke-width="6.48"/>
<line x1="2761.020558" y1="2194.614338" x2="2761.020558" y2="1803.366338" stroke="black" stroke-width="6.48"/>
<line x1="2761.020558" y1="1803.366338" x2="2586.780558" y2="1803.366338" stroke="black" stroke-width="6.48"/>
<line x1="2586.780558" y1="1803.366338" x2="2586.780558" y2="2194.614338" stroke="black" stroke-width="6.48"/>
<line x1="2586.780558" y1="2194.614338" x2="2761.020558" y2="2194.614338" stroke="black" stroke-width="6.48"/>
<line x1="2613.708558" y1="1878.606338" x2="2613.708558" y2="2162.934338" stroke="black" stroke-width="6.48"/>
<line x1="2613.708558" y1="2162.934338" x2="2731.716558" y2="2162.934338" stroke="black" stroke-width="6.48"/>
<line x1="2731.716558" y1="2162.934338" x2="2731.716558" y2="1873.062338" stroke="black" stroke-width="6.48"/>
<path d="m 2613.453134,1879.416911 a 63.3599990854681,63.3599990854681 0 0 1 119.3743300000001,-4.293814000000111" fill="none" stroke="black" stroke-width="6.48"/>
<line x1="2105.508532" y1="1868.715752" x2="2105.508532" y2="2052.459752" stroke="black" stroke-width="6.48"/>
<line x1="2105.508532" y1="2052.459752" x2="2056.404532" y2="2052.459752" stroke="black" stroke-width="6.48"/>
<line x1="2056.404532" y1="1868.715752" x2="2056.404532" y2="2052.459752" stroke="black" stroke-width="6.48"/>
<line x1="2105.508532" y1="1868.715752" x2="2056.404532" y2="1868.715752" stroke="black" stroke-width="6.48"/>
<line x1="2133.228532" y1="1910.295752" x2="2105.508532" y2="1910.295752" stroke="black" stroke-width="6.48"/>
<line x1="2105.508532" y1="2009.295752" x2="2134.812532" y2="2009.295752" stroke="black" stroke-width="6.48"/>
<circle cx="2178.372532" cy="1959.003752" r="66.52800000000002" fill="none" stroke="black" stroke-width="6.48"/>
<circle cx="2178.372532" cy="1959.003752" r="57.02400000000001" fill="none" stroke="black" stroke-width="6.48"/>
<line x1="1048.915696" y1="210.315611" x2="1319.462896" y2="210.315611" stroke="black" stroke-width="6.48"/>
<line x1="1319.462896" y1="210.315611" x2="1319.462896" y2="342.262811" stroke="black" stroke-width="6.48"/>
<line x1="1048.915696" y1="342.262811" x2="1319.462896" y2="342.262811" stroke="black" stroke-width="6.48"/>
<line x1="1048.915696" y1="210.315611" x2="1048.915696" y2="342.262811" stroke="black" stroke-width="6.48"/>
<line x1="1055.568496" y1="216.968411" x2="1193.614096" y2="216.968411" stroke="black" stroke-width="6.48"/>
<line x1="1193.614096" y1="216.968411" x2="1193.614096" y2="335.055611" stroke="black" stroke-width="6.48"/>
<line x1="1055.568496" y1="335.055611" x2="1193.614096" y2="335.055611" stroke="black" stroke-width="6.48"/>
<line x1="1055.568496" y1="216.968411" x2="1055.568496" y2="335.055611" stroke="black" stroke-width="6.48"/>
<line x1="1208.028496" y1="224.730011" x2="1305.048496" y2="224.730011" stroke="black" stroke-width="6.48"/>
<line x1="1208.028496" y1="245.242811" x2="1305.048496" y2="245.242811" stroke="black" stroke-width="6.48"/>
<line x1="1208.582896" y1="266.310011" x2="1305.602896" y2="266.310011" stroke="black" stroke-width="6.48"/>
<line x1="1208.582896" y1="286.822811" x2="1305.602896" y2="286.822811" stroke="black" stroke-width="6.48"/>
<line x1="1208.028496" y1="307.335611" x2="1305.048496" y2="307.335611" stroke="black" stroke-width="6.48"/>
<line x1="1208.028496" y1="327.848411" x2="1305.048496" y2="327.848411" stroke="black" stroke-width="6.48"/>
<line x1="1108.236496" y1="335.055611" x2="1108.236496" y2="321.195611" stroke="black" stroke-width="6.48"/>
<line x1="1108.236496" y1="321.195611" x2="1142.609296" y2="321.195611" stroke="black" stroke-width="6.48"/>
<line x1="1142.609296" y1="321.195611" x2="1142.609296" y2="334.501211" stroke="black" stroke-width="6.48"/>
<circle cx="1178.090896" cy="231.937211" r="8.316000000000003" fill="none" stroke="black" stroke-width="6.48"/>
<line x1="2044.889399" y1="955.822399" x2="2267.166564" y2="955.822399" stroke="black" stroke-width="6.48"/>
<line x1="2267.166564" y1="955.822399" x2="2267.166564" y2="1178.555051" stroke="black" stroke-width="6.48"/>
<line x1="2267.166564" y1="1178.555051" x2="2044.889399" y2="1178.555051" stroke="black" stroke-width="6.48"/>
<line x1="2044.889399" y1="1178.555051" x2="2044.889399" y2="955.822399" stroke="black" stroke-width="6.48"/>
<line x1="2044.433912" y1="955.366913" x2="2267.166564" y2="1178.555051" stroke="black" stroke-width="6.48"/>
<line x1="2044.889399" y1="1178.099564" x2="2266.711078" y2="955.822399" stroke="black" stroke-width="6.48"/>
<line x1="333.766206" y1="1375.361078" x2="333.766206" y2="949.854546" stroke="black" stroke-width="6.48"/>
<line x1="333.766206" y1="949.854546" x2="257.659348" y2="949.854546" stroke="black" stroke-width="6.48"/>
<line x1="257.659348" y1="949.854546" x2="257.659348" y2="1375.361078" stroke="black" stroke-width="6.48"/>
<line x1="257.659348" y1="1375.361078" x2="333.766206" y2="1375.361078" stroke="black" stroke-width="6.48"/>
<line x1="333.766206" y1="1355.469512" x2="359.711726" y2="1355.469512" stroke="black" stroke-width="6.48"/>
<line x1="359.711726" y1="1355.469512" x2="359.711726" y2="970.610962" stroke="black" stroke-width="6.48"/>
<line x1="333.766206" y1="970.610962" x2="359.711726" y2="970.610962" stroke="black" stroke-width="6.48"/>
<line x1="3874.406537" y1="1514.726719" x2="3874.406537" y2="1940.260162" stroke="black" stroke-width="6.48"/>
<line x1="3874.406537" y1="1940.260162" x2="3940.00601" y2="1940.260162" stroke="black" stroke-width="6.48"/>
<line x1="3940.00601" y1="1940.260162" x2="3940.00601" y2="1514.726719" stroke="black" stroke-width="6.48"/>
<line x1="3940.00601" y1="1514.726719" x2="3874.406537" y2="1514.726719" stroke="black" stroke-width="6.48"/>
<line x1="3939.14286" y1="1554.431663" x2="3875.269687" y2="1554.431663" stroke="black" stroke-width="6.48"/>
<line x1="3939.14286" y1="1899.692064" x2="3872.680232" y2="1899.692064" stroke="black" stroke-width="6.48"/>
<line x1="3908.932574" y1="1553.568512" x2="3908.932574" y2="1898.828914" stroke="black" stroke-width="6.48"/>
<line x1="5166.177358" y1="1782.55917" x2="4958.008114" y2="2115.699599" stroke="black" stroke-width="6.48"/>
<line x1="4958.008114" y1="2115.699599" x2="5114.503516" y2="2213.488782" stroke="black" stroke-width="6.48"/>
<line x1="5114.503516" y1="2213.488782" x2="5322.67276" y2="1880.348353" stroke="black" stroke-width="6.48"/>
<line x1="5322.67276" y1="1880.348353" x2="5166.177358" y2="1782.55917" stroke="black" stroke-width="6.48"/>
<line x1="5238.313855" y1="2015.350823" x2="5306.822572" y2="2058.15982" stroke="black" stroke-width="6.48"/>
<line x1="5306.822572" y1="2058.15982" x2="5348.372479" y2="1991.666066" stroke="black" stroke-width="6.48"/>
<line x1="5348.372479" y1="1991.666066" x2="5279.863763" y2="1948.85707" stroke="black" stroke-width="6.48"/>
<line x1="5333.176393" y1="1983.10441" x2="5292.046181" y2="2048.926507" stroke="black" stroke-width="6.48"/>
<line x1="5054.187989" y1="1807.839191" x2="5012.638078" y2="1874.332951" stroke="black" stroke-width="6.48"/>
<line x1="5012.638078" y1="1874.332951" x2="5081.818446" y2="1917.56164" stroke="black" stroke-width="6.48"/>
<line x1="5123.368361" y1="1851.067886" x2="5054.187989" y2="1807.839191" stroke="black" stroke-width="6.48"/>
<line x1="5068.544681" y1="1817.744162" x2="5027.414468" y2="1883.56626" stroke="black" stroke-width="6.48"/>
<line x1="5158.151906" y1="2143.636754" x2="5226.660623" y2="2186.445751" stroke="black" stroke-width="6.48"/>
<line x1="5226.660623" y1="2186.445751" x2="5268.21053" y2="2119.951998" stroke="black" stroke-width="6.48"/>
<line x1="5268.21053" y1="2119.951998" x2="5199.701814" y2="2077.142998" stroke="black" stroke-width="6.48"/>
<line x1="5253.434143" y1="2110.718682" x2="5211.884232" y2="2177.212442" stroke="black" stroke-width="6.48"/>
<line x1="4974.02604" y1="1936.125126" x2="4932.476132" y2="2002.618879" stroke="black" stroke-width="6.48"/>
<line x1="4932.476132" y1="2002.618879" x2="5001.656504" y2="2045.847575" stroke="black" stroke-width="6.48"/>
<line x1="5043.206412" y1="1979.353818" x2="4974.02604" y2="1936.125126" stroke="black" stroke-width="6.48"/>
<line x1="4988.802431" y1="1945.358435" x2="4947.25252" y2="2011.852195" stroke="black" stroke-width="6.48"/>
<line x1="3405.589218" y1="1075.310982" x2="3614.954422" y2="1075.310982" stroke="black" stroke-width="6.48"/>
<line x1="3614.954422" y1="1075.310982" x2="3614.954422" y2="744.096578" stroke="black" stroke-width="6.48"/>
<line x1="3614.954422" y1="744.096578" x2="3405.589218" y2="744.096578" stroke="black" stroke-width="6.48"/>
<line x1="3405.589218" y1="744.096578" x2="3405.589218" y2="1075.310982" stroke="black" stroke-width="6.48"/>
<line x1="3404.916018" y1="803.338178" x2="3615.627618" y2="803.338178" stroke="black" stroke-width="6.48"/>
<line x1="3615.627618" y1="803.338178" x2="3406.262418" y2="853.154982" stroke="black" stroke-width="6.48"/>
<line x1="3406.262418" y1="853.154982" x2="3437.902822" y2="899.605782" stroke="black" stroke-width="6.48"/>
<line x1="3437.902822" y1="899.605782" x2="3615.627618" y2="802.664982" stroke="black" stroke-width="6.48"/>
<line x1="3507.205777" y1="1202.74052" x2="3729.482942" y2="1202.74052" stroke="black" stroke-width="6.48"/>
<line x1="3729.482942" y1="1202.74052" x2="3729.482942" y2="1425.473172" stroke="black" stroke-width="6.48"/>
<line x1="3729.482942" y1="1425.473172" x2="3507.205777" y2="1425.473172" stroke="black" stroke-width="6.48"/>
<line x1="3507.205777" y1="1425.473172" x2="3507.205777" y2="1202.74052" stroke="black" stroke-width="6.48"/>
<line x1="3506.750291" y1="1202.285034" x2="3729.482942" y2="1425.473172" stroke="black" stroke-width="6.48"/>
<line x1="3507.205777" y1="1425.017686" x2="3729.027456" y2="1202.74052" stroke="black" stroke-width="6.48"/>
<line x1="2804.16708" y1="1127.69402" x2="2804.16708" y2="1153.148746" stroke="black" stroke-width="6.48"/>
<line x1="2804.16708" y1="1153.148746" x2="2853.834836" y2="1153.148746" stroke="black" stroke-width="6.48"/>
<line x1="2853.834836" y1="1153.148746" x2="2853.834836" y2="1127.69402" stroke="black" stroke-width="6.48"/>
<line x1="2853.834836" y1="1127.69402" x2="2804.16708" y2="1127.69402" stroke="black" stroke-width="6.48"/>
<line x1="2853.834836" y1="1402.108373" x2="3101.55277" y2="1402.108373" stroke="black" stroke-width="6.48"/>
<line x1="2802.925386" y1="1402.729218" x2="2802.925386" y2="1428.183943" stroke="black" stroke-width="6.48"/>
<line x1="2802.925386" y1="1428.183943" x2="2852.593142" y2="1428.183943" stroke="black" stroke-width="6.48"/>
<line x1="2852.593142" y1="1428.183943" x2="2852.593142" y2="1402.729218" stroke="black" stroke-width="6.48"/>
<line x1="2852.593142" y1="1402.729218" x2="2802.925386" y2="1402.729218" stroke="black" stroke-width="6.48"/>
<path d="m 2851.972294,1153.148746 a 248.95962699999984,248.95962699999984 0 0 1 248.95962699999973,248.95962699999995" fill="none" stroke="black" stroke-width="6.48"/>
<line x1="2951.43314" y1="2018.99813" x2="2880.227995" y2="2195.237268" stroke="black" stroke-width="6.48"/>
<line x1="2880.227995" y1="2195.237268" x2="3310.251491" y2="2368.977818" stroke="black" stroke-width="6.48"/>
<line x1="3310.251491" y1="2368.977818" x2="3381.456636" y2="2192.738681" stroke="black" stroke-width="6.48"/>
<line x1="3381.456636" y1="2192.738681" x2="3359.426746" y2="2183.838037" stroke="black" stroke-width="6.48"/>
<line x1="3359.426746" y1="2183.838037" x2="3296.766218" y2="2338.928482" stroke="black" stroke-width="6.48"/>
<line x1="3296.766218" y1="2338.928482" x2="2911.683701" y2="2183.34524" stroke="black" stroke-width="6.48"/>
<line x1="2911.683701" y1="2183.34524" x2="2974.344228" y2="2028.2548" stroke="black" stroke-width="6.48"/>
<line x1="2974.344228" y1="2028.2548" x2="2951.43314" y2="2018.99813" stroke="black" stroke-width="6.48"/>
<line x1="2972.208074" y1="2033.541972" x2="3357.290592" y2="2189.125213" stroke="black" stroke-width="6.48"/>
<line x1="3164.664758" y1="2110.274384" x2="3104.140388" y2="2260.077653" stroke="black" stroke-width="6.48"/>
<line x1="3468.273916" y1="1944.587534" x2="3404.354274" y2="1721.673259" stroke="black" stroke-width="6.48"/>
<line x1="3404.354274" y1="1721.673259" x2="3627.725346" y2="1657.622635" stroke="black" stroke-width="6.48"/>
<line x1="3627.725346" y1="1657.622635" x2="3691.644984" y2="1880.53691" stroke="black" stroke-width="6.48"/>
<line x1="3691.644984" y1="1880.53691" x2="3468.273916" y2="1944.587534" stroke="black" stroke-width="6.48"/>
<line x1="3467.948105" y1="1945.17531" x2="3627.725346" y2="1657.622635" stroke="black" stroke-width="6.48"/>
<line x1="3691.188194" y1="1880.667896" x2="3404.485256" y2="1722.130049" stroke="black" stroke-width="6.48"/>
<line x1="3122.190896" y1="1589.315882" x2="3101.926547" y2="1612.627351" stroke="black" stroke-width="6.48"/>
<line x1="3101.926547" y1="1612.627351" x2="3260.085901" y2="1750.113184" stroke="black" stroke-width="6.48"/>
<line x1="3260.085901" y1="1750.113184" x2="3280.350251" y2="1726.801711" stroke="black" stroke-width="6.48"/>
<line x1="3280.350251" y1="1726.801711" x2="3122.190896" y2="1589.315882" stroke="black" stroke-width="6.48"/>
<line x1="2988.446177" y1="1743.171581" x2="2968.181827" y2="1766.48305" stroke="black" stroke-width="6.48"/>
<line x1="2968.181827" y1="1766.48305" x2="3126.341182" y2="1903.968882" stroke="black" stroke-width="6.48"/>
<line x1="3126.341182" y1="1903.968882" x2="3146.605531" y2="1880.65741" stroke="black" stroke-width="6.48"/>
<line x1="3146.605531" y1="1880.65741" x2="2988.446177" y2="1743.171581" stroke="black" stroke-width="6.48"/>
<line x1="3102.238307" y1="1612.268716" x2="2988.446177" y2="1743.171581" stroke="black" stroke-width="6.48"/>
<line x1="3259.992143" y1="1748.772385" x2="3262.258714" y2="1786.002872" stroke="black" stroke-width="6.48"/>
<line x1="3182.760104" y1="1877.455559" x2="3145.576496" y2="1880.392529" stroke="black" stroke-width="6.48"/>
<line x1="3263.50575" y1="1784.568323" x2="3181.513064" y2="1878.890116" stroke="black" stroke-width="6.48"/>
<line x1="3135.638516" y1="1641.932723" x2="3021.84639" y2="1772.835588" stroke="black" stroke-width="6.48"/>
<line x1="1460.530534" y1="1681.516134" x2="1314.920776" y2="1803.697164" stroke="black" stroke-width="6.48"/>
<line x1="1314.920776" y1="1803.697164" x2="1613.042496" y2="2158.984973" stroke="black" stroke-width="6.48"/>
<line x1="1613.042496" y1="2158.984973" x2="1758.65225" y2="2036.803939" stroke="black" stroke-width="6.48"/>
<line x1="1758.65225" y1="2036.803939" x2="1743.379628" y2="2018.602721" stroke="black" stroke-width="6.48"/>
<line x1="1743.379628" y1="2018.602721" x2="1615.243039" y2="2126.122031" stroke="black" stroke-width="6.48"/>
<line x1="1615.243039" y1="2126.122031" x2="1348.277483" y2="1807.964708" stroke="black" stroke-width="6.48"/>
<line x1="1348.277483" y1="1807.964708" x2="1476.414068" y2="1700.445402" stroke="black" stroke-width="6.48"/>
<line x1="1476.414068" y1="1700.445402" x2="1460.530534" y2="1681.516134" stroke="black" stroke-width="6.48"/>
<line x1="1472.045774" y1="1704.110832" x2="1739.011334" y2="2022.268151" stroke="black" stroke-width="6.48"/>
<line x1="1605.951151" y1="1862.214563" x2="1482.182852" y2="1966.068439" stroke="black" stroke-width="6.48"/>
<line x1="6131.156054" y1="1928.473283" x2="6122.64217" y2="1958.164733" stroke="black" stroke-width="6.48"/>
<line x1="6122.64217" y1="1958.164733" x2="6324.087247" y2="2015.92818" stroke="black" stroke-width="6.48"/>
<line x1="6324.087247" y1="2015.92818" x2="6332.601132" y2="1986.23673" stroke="black" stroke-width="6.48"/>
<line x1="6332.601132" y1="1986.23673" x2="6131.156054" y2="1928.473283" stroke="black" stroke-width="6.48"/>
<line x1="6074.964403" y1="2124.43686" x2="6066.450518" y2="2154.128314" stroke="black" stroke-width="6.48"/>
<line x1="6066.450518" y1="2154.128314" x2="6267.895596" y2="2211.891757" stroke="black" stroke-width="6.48"/>
<line x1="6267.895596" y1="2211.891757" x2="6276.409481" y2="2182.200307" stroke="black" stroke-width="6.48"/>
<line x1="6276.409481" y1="2182.200307" x2="6074.964403" y2="2124.43686" stroke="black" stroke-width="6.48"/>
<line x1="6122.773152" y1="1957.707943" x2="6074.964403" y2="2124.43686" stroke="black" stroke-width="6.48"/>
<line x1="6323.435629" y1="2014.752632" x2="6341.224122" y2="2047.537019" stroke="black" stroke-width="6.48"/>
<line x1="6307.823491" y1="2164.018867" x2="6275.364916" y2="2182.395136" stroke="black" stroke-width="6.48"/>
<line x1="6341.748055" y1="2045.70985" x2="6307.299562" y2="2165.846029" stroke="black" stroke-width="6.48"/>
<line x1="6165.580576" y1="1970.477125" x2="6117.77183" y2="2137.206042" stroke="black" stroke-width="6.48"/>
<line x1="979.68915" y1="1055.180221" x2="1111.714276" y2="1059.790637" stroke="black" stroke-width="6.48"/>
<line x1="1111.714276" y1="1059.790637" x2="1111.216748" y2="1074.037954" stroke="black" stroke-width="6.48"/>
<line x1="979.191623" y1="1069.427534" x2="1111.216748" y2="1074.037954" stroke="black" stroke-width="6.48"/>
<line x1="979.68915" y1="1055.180221" x2="979.191623" y2="1069.427534" stroke="black" stroke-width="6.48"/>
<line x1="992.489119" y1="1069.891895" x2="989.49492" y2="1101.169652" stroke="black" stroke-width="6.48"/>
<line x1="1097.919256" y1="1073.573597" x2="1098.691168" y2="1105.933846" stroke="black" stroke-width="6.48"/>
<line x1="963.602438" y1="1515.843425" x2="1095.627564" y2="1520.453844" stroke="black" stroke-width="6.48"/>
<line x1="1095.627564" y1="1520.453844" x2="1096.091921" y2="1507.156348" stroke="black" stroke-width="6.48"/>
<line x1="964.066795" y1="1502.545932" x2="1096.091921" y2="1507.156348" stroke="black" stroke-width="6.48"/>
<line x1="963.602438" y1="1515.843425" x2="964.066795" y2="1502.545932" stroke="black" stroke-width="6.48"/>
<line x1="976.480805" y1="1501.077481" x2="975.675726" y2="1469.667046" stroke="black" stroke-width="6.48"/>
<line x1="1081.910945" y1="1504.75918" x2="1085.888135" y2="1472.564772" stroke="black" stroke-width="6.48"/>
<line x1="1269.345348" y1="1229.814655" x2="1255.098031" y2="1229.317128" stroke="black" stroke-width="6.48"/>
<line x1="1255.098031" y1="1229.317128" x2="1250.487612" y2="1361.342254" stroke="black" stroke-width="6.48"/>
<line x1="1264.734929" y1="1361.839781" x2="1250.487612" y2="1361.342254" stroke="black" stroke-width="6.48"/>
<line x1="1269.345348" y1="1229.814655" x2="1264.734929" y2="1361.839781" stroke="black" stroke-width="6.48"/>
<line x1="1250.985139" y1="1347.094937" x2="1218.59172" y2="1348.816676" stroke="black" stroke-width="6.48"/>
<line x1="1254.633674" y1="1242.614624" x2="1222.406096" y2="1239.587255" stroke="black" stroke-width="6.48"/>
<line x1="809.665132" y1="1212.81129" x2="823.912448" y2="1213.308817" stroke="black" stroke-width="6.48"/>
<line x1="823.912448" y1="1213.308817" x2="819.302029" y2="1345.333943" stroke="black" stroke-width="6.48"/>
<line x1="805.054716" y1="1344.836416" x2="819.302029" y2="1345.333943" stroke="black" stroke-width="6.48"/>
<line x1="809.665132" y1="1212.81129" x2="805.054716" y2="1344.836416" stroke="black" stroke-width="6.48"/>
<line x1="819.799556" y1="1331.086626" x2="851.993964" y2="1335.063816" stroke="black" stroke-width="6.48"/>
<line x1="823.448088" y1="1226.60631" x2="855.80834" y2="1225.834402" stroke="black" stroke-width="6.48"/>
<circle cx="1037.200028" cy="1287.325537" r="191.98080000000002" fill="none" stroke="black" stroke-width="6.48"/>
<line x1="5822.514958" y1="1644.325056" x2="5824.669597" y2="1675.137812" stroke="black" stroke-width="6.48"/>
<line x1="5824.669597" y1="1675.137812" x2="6033.72231" y2="1660.519426" stroke="black" stroke-width="6.48"/>
<line x1="6033.72231" y1="1660.519426" x2="6031.567674" y2="1629.706666" stroke="black" stroke-width="6.48"/>
<line x1="6031.567674" y1="1629.706666" x2="5822.514958" y2="1644.325056" stroke="black" stroke-width="6.48"/>
<line x1="5836.735573" y1="1847.689261" x2="5838.890209" y2="1878.502021" stroke="black" stroke-width="6.48"/>
<line x1="5838.890209" y1="1878.502021" x2="6047.942926" y2="1863.883631" stroke="black" stroke-width="6.48"/>
<line x1="6047.942926" y1="1863.883631" x2="6045.788286" y2="1833.070871" stroke="black" stroke-width="6.48"/>
<line x1="6045.788286" y1="1833.070871" x2="5836.735573" y2="1847.689261" stroke="black" stroke-width="6.48"/>
<line x1="5824.636448" y1="1674.663775" x2="5836.735573" y2="1847.689261" stroke="black" stroke-width="6.48"/>
<line x1="6032.707934" y1="1659.637638" x2="6060.636569" y2="1684.360861" stroke="black" stroke-width="6.48"/>
<line x1="6069.08938" y1="1805.241683" x2="6044.87335" y2="1833.611213" stroke="black" stroke-width="6.48"/>
<line x1="6060.503977" y1="1682.464687" x2="6069.221971" y2="1807.13785" stroke="black" stroke-width="6.48"/>
<line x1="5869.229584" y1="1672.021876" x2="5881.328708" y2="1845.047369" stroke="black" stroke-width="6.48"/>
<line x1="544.793044" y1="209.083036" x2="815.340244" y2="209.083036" stroke="black" stroke-width="6.48"/>
<line x1="815.340244" y1="209.083036" x2="815.340244" y2="341.030236" stroke="black" stroke-width="6.48"/>
<line x1="544.793044" y1="341.030236" x2="815.340244" y2="341.030236" stroke="black" stroke-width="6.48"/>
<line x1="544.793044" y1="209.083036" x2="544.793044" y2="341.030236" stroke="black" stroke-width="6.48"/>
<line x1="551.445844" y1="215.735836" x2="689.491444" y2="215.735836" stroke="black" stroke-width="6.48"/>
<line x1="689.491444" y1="215.735836" x2="689.491444" y2="333.823036" stroke="black" stroke-width="6.48"/>
<line x1="551.445844" y1="333.823036" x2="689.491444" y2="333.823036" stroke="black" stroke-width="6.48"/>
<line x1="551.445844" y1="215.735836" x2="551.445844" y2="333.823036" stroke="black" stroke-width="6.48"/>
<line x1="703.905844" y1="223.497436" x2="800.925844" y2="223.497436" stroke="black" stroke-width="6.48"/>
<line x1="703.905844" y1="244.010236" x2="800.925844" y2="244.010236" stroke="black" stroke-width="6.48"/>
<line x1="704.460244" y1="265.077436" x2="801.480244" y2="265.077436" stroke="black" stroke-width="6.48"/>
<line x1="704.460244" y1="285.590236" x2="801.480244" y2="285.590236" stroke="black" stroke-width="6.48"/>
<line x1="703.905844" y1="306.103036" x2="800.925844" y2="306.103036" stroke="black" stroke-width="6.48"/>
<line x1="703.905844" y1="326.615836" x2="800.925844" y2="326.615836" stroke="black" stroke-width="6.48"/>
<line x1="604.113844" y1="333.823036" x2="604.113844" y2="319.963036" stroke="black" stroke-width="6.48"/>
<line x1="604.113844" y1="319.963036" x2="638.486644" y2="319.963036" stroke="black" stroke-width="6.48"/>
<line x1="638.486644" y1="319.963036" x2="638.486644" y2="333.268636" stroke="black" stroke-width="6.48"/>
<circle cx="673.968244" cy="230.704636" r="8.316000000000003" fill="none" stroke="black" stroke-width="6.48"/>
</g>
</svg>
