<?xml version="1.0"?>
<svg xmlns:xlink="http://www.w3.org/1999/xlink" width="6775.2" height="2858.4">
<image x="0" y="0" width="6775.2" height="2858.4" xlink:href="groundfilled-01.png"/>
<g style="stroke-linecap:round">
<line x1="1285.950406" y1="795.178109" x2="1311.346069" y2="795.178109" stroke="black" stroke-width="6.48"/>
<line x1="1311.346069" y1="795.178109" x2="1311.346069" y2="745.625592" stroke="black" stroke-width="6.48"/>
<line x1="1311.346069" y1="745.625592" x2="1285.950406" y2="745.625592" stroke="black" stroke-width="6.48"/>
<line x1="1285.950406" y1="745.625592" x2="1285.950406" y2="795.178109" stroke="black" stroke-width="6.48"/>
<line x1="1559.728062" y1="745.625592" x2="1559.728062" y2="498.48241" stroke="black" stroke-width="6.48"/>
<line x1="1560.347471" y1="796.416923" x2="1585.743134" y2="796.416923" stroke="black" stroke-width="6.48"/>
<line x1="1585.743134" y1="796.416923" x2="1585.743134" y2="746.864406" stroke="black" stroke-width="6.48"/>
<line x1="1585.743134" y1="746.864406" x2="1560.347471" y2="746.864406" stroke="black" stroke-width="6.48"/>
<line x1="1560.347471" y1="746.864406" x2="1560.347471" y2="796.416923" stroke="black" stroke-width="6.48"/>
<path d="m 1311.346069,747.483811 a 248.38199299999997,248.38199299999997 0 0 1 248.38199299999997,-248.38199299999997" fill="none" stroke="black" stroke-width="6.48"/>
<line x1="320.532556" y1="771.34176" x2="320.532556" y2="366.736194" stroke="black" stroke-width="6.48"/>
<line x1="320.532556" y1="366.736194" x2="258.159283" y2="366.736194" stroke="black" stroke-width="6.48"/>
<line x1="258.159283" y1="366.736194" x2="258.159283" y2="771.34176" stroke="black" stroke-width="6.48"/>
<line x1="258.159283" y1="771.34176" x2="320.532556" y2="771.34176" stroke="black" stroke-width="6.48"/>
<line x1="258.979986" y1="733.589518" x2="319.711856" y2="733.589518" stroke="black" stroke-width="6.48"/>
<line x1="258.979986" y1="405.309139" x2="322.173958" y2="405.309139" stroke="black" stroke-width="6.48"/>
<line x1="287.704519" y1="734.410217" x2="287.704519" y2="406.129838" stroke="black" stroke-width="6.48"/>
<line x1="3901.945176" y1="1169.331426" x2="3901.945176" y2="1428.837066" stroke="black" stroke-width="6.48"/>
<line x1="3901.945176" y1="1428.837066" x2="3941.9501" y2="1428.837066" stroke="black" stroke-width="6.48"/>
<line x1="3941.9501" y1="1428.837066" x2="3941.9501" y2="1169.331426" stroke="black" stroke-width="6.48"/>
<line x1="3941.9501" y1="1169.331426" x2="3901.945176" y2="1169.331426" stroke="black" stroke-width="6.48"/>
<line x1="3941.423719" y1="1193.544936" x2="3902.471557" y2="1193.544936" stroke="black" stroke-width="6.48"/>
<line x1="3941.423719" y1="1404.097178" x2="3900.892414" y2="1404.097178" stroke="black" stroke-width="6.48"/>
<line x1="3923.000399" y1="1193.018555" x2="3923.000399" y2="1403.570797" stroke="black" stroke-width="6.48"/>
<line x1="323.923298" y1="1882.957399" x2="323.923298" y2="1457.423957" stroke="black" stroke-width="6.48"/>
<line x1="323.923298" y1="1457.423957" x2="258.323825" y2="1457.423957" stroke="black" stroke-width="6.48"/>
<line x1="258.323825" y1="1457.423957" x2="258.323825" y2="1882.957399" stroke="black" stroke-width="6.48"/>
<line x1="258.323825" y1="1882.957399" x2="323.923298" y2="1882.957399" stroke="black" stroke-width="6.48"/>
<line x1="259.186975" y1="1843.252456" x2="323.060148" y2="1843.252456" stroke="black" stroke-width="6.48"/>
<line x1="259.186975" y1="1497.992054" x2="325.649603" y2="1497.992054" stroke="black" stroke-width="6.48"/>
<line x1="289.397261" y1="1844.115606" x2="289.397261" y2="1498.855205" stroke="black" stroke-width="6.48"/>
<line x1="2747.905531" y1="904.670665" x2="2721.68303" y2="904.670665" stroke="black" stroke-width="6.48"/>
<line x1="2721.68303" y1="904.670665" x2="2721.68303" y2="955.836522" stroke="black" stroke-width="6.48"/>
<line x1="2721.68303" y1="955.836522" x2="2747.905531" y2="955.836522" stroke="black" stroke-width="6.48"/>
<line x1="2747.905531" y1="955.836522" x2="2747.905531" y2="904.670665" stroke="black" stroke-width="6.48"/>
<line x1="2465.214181" y1="955.836522" x2="2465.214181" y2="1211.026223" stroke="black" stroke-width="6.48"/>
<line x1="2464.574609" y1="903.39152" x2="2438.352108" y2="903.39152" stroke="black" stroke-width="6.48"/>
<line x1="2438.352108" y1="903.39152" x2="2438.352108" y2="954.557374" stroke="black" stroke-width="6.48"/>
<line x1="2438.352108" y1="954.557374" x2="2464.574609" y2="954.557374" stroke="black" stroke-width="6.48"/>
<line x1="2464.574609" y1="954.557374" x2="2464.574609" y2="903.39152" stroke="black" stroke-width="6.48"/>
<path d="m 2721.68303,953.917801 a 256.4688490000001,256.4688490000001 0 0 1 -256.4688490000003,256.46884899999986" fill="none" stroke="black" stroke-width="6.48"/>
<line x1="2420.532389" y1="1427.858834" x2="2395.136725" y2="1427.858834" stroke="black" stroke-width="6.48"/>
<line x1="2395.136725" y1="1427.858834" x2="2395.136725" y2="1477.411351" stroke="black" stroke-width="6.48"/>
<line x1="2395.136725" y1="1477.411351" x2="2420.532389" y2="1477.411351" stroke="black" stroke-width="6.48"/>
<line x1="2420.532389" y1="1477.411351" x2="2420.532389" y2="1427.858834" stroke="black" stroke-width="6.48"/>
<line x1="2146.754732" y1="1477.411351" x2="2146.754732" y2="1724.554534" stroke="black" stroke-width="6.48"/>
<line x1="2146.135324" y1="1426.62002" x2="2120.73966" y2="1426.62002" stroke="black" stroke-width="6.48"/>
<line x1="2120.73966" y1="1426.62002" x2="2120.73966" y2="1476.172537" stroke="black" stroke-width="6.48"/>
<line x1="2120.73966" y1="1476.172537" x2="2146.135324" y2="1476.172537" stroke="black" stroke-width="6.48"/>
<line x1="2146.135324" y1="1476.172537" x2="2146.135324" y2="1426.62002" stroke="black" stroke-width="6.48"/>
<path d="m 2395.136725,1475.553132 a 248.38199299999997,248.38199299999997 0 0 1 -248.38199299999997,248.38199299999997" fill="none" stroke="black" stroke-width="6.48"/>
<line x1="781.145543" y1="541.339351" x2="1013.043143" y2="541.339351" stroke="black" stroke-width="6.48"/>
<line x1="1013.043143" y1="541.339351" x2="1013.043143" y2="773.712151" stroke="black" stroke-width="6.48"/>
<line x1="1013.043143" y1="773.712151" x2="781.145543" y2="773.712151" stroke="black" stroke-width="6.48"/>
<line x1="781.145543" y1="773.712151" x2="781.145543" y2="541.339351" stroke="black" stroke-width="6.48"/>
<line x1="780.670343" y1="540.864151" x2="1013.043143" y2="773.712151" stroke="black" stroke-width="6.48"/>
<line x1="781.145543" y1="773.236951" x2="1012.567943" y2="541.339351" stroke="black" stroke-width="6.48"/>
<line x1="1842.844367" y1="1920.15612" x2="2032.924367" y2="1920.15612" stroke="black" stroke-width="6.48"/>
<line x1="2032.924367" y1="1920.15612" x2="2032.924367" y2="1456.36092" stroke="black" stroke-width="6.48"/>
<line x1="2032.924367" y1="1456.36092" x2="1842.844367" y2="1456.36092" stroke="black" stroke-width="6.48"/>
<line x1="1842.844367" y1="1456.36092" x2="1842.844367" y2="1480.12092" stroke="black" stroke-width="6.48"/>
<line x1="1842.844367" y1="1480.12092" x2="2010.114767" y2="1480.12092" stroke="black" stroke-width="6.48"/>
<line x1="2010.114767" y1="1480.12092" x2="2010.114767" y2="1895.44572" stroke="black" stroke-width="6.48"/>
<line x1="2010.114767" y1="1895.44572" x2="1842.844367" y2="1895.44572" stroke="black" stroke-width="6.48"/>
<line x1="1842.844367" y1="1895.44572" x2="1842.844367" y2="1920.15612" stroke="black" stroke-width="6.48"/>
<line x1="1848.546767" y1="1895.44572" x2="1848.546767" y2="1480.12092" stroke="black" stroke-width="6.48"/>
<line x1="1847.596367" y1="1688.25852" x2="2009.164367" y2="1688.25852" stroke="black" stroke-width="6.48"/>
<line x1="1485.415969" y1="209.267824" x2="1707.693134" y2="209.267824" stroke="black" stroke-width="6.48"/>
<line x1="1707.693134" y1="209.267824" x2="1707.693134" y2="432.000475" stroke="black" stroke-width="6.48"/>
<line x1="1707.693134" y1="432.000475" x2="1485.415969" y2="432.000475" stroke="black" stroke-width="6.48"/>
<line x1="1485.415969" y1="432.000475" x2="1485.415969" y2="209.267824" stroke="black" stroke-width="6.48"/>
<line x1="1484.960483" y1="208.812337" x2="1707.693134" y2="432.000475" stroke="black" stroke-width="6.48"/>
<line x1="1485.415969" y1="431.544989" x2="1707.237648" y2="209.267824" stroke="black" stroke-width="6.48"/>
<line x1="2761.020558" y1="2194.614338" x2="2761.020558" y2="1803.366338" stroke="black" stroke-width="6.48"/>
<line x1="2761.020558" y1="1803.366338" x2="2586.780558" y2="1803.366338" stroke="black" stroke-width="6.48"/>
<line x1="2586.780558" y1="1803.366338" x2="2586.780558" y2="2194.614338" stroke="black" stroke-width="6.48"/>
<line x1="2586.780558" y1="2194.614338" x2="2761.020558" y2="2194.614338" stroke="black" stroke-width="6.48"/>
<line x1="2613.708558" y1="1878.606338" x2="2613.708558" y2="2162.934338" stroke="black" stroke-width="6.48"/>
<line x1="2613.708558" y1="2162.934338" x2="2731.716558" y2="2162.934338" stroke="black" stroke-width="6.48"/>
<line x1="2731.716558" y1="2162.934338" x2="2731.716558" y2="1873.062338" stroke="black" stroke-width="6.48"/>
<path d="m 2613.453134,1879.416911 a 63.3599990854681,63.3599990854681 0 0 1 119.3743300000001,-4.293814000000111" fill="none" stroke="black" stroke-width="6.48"/>
<line x1="2105.686757" y1="1891.171757" x2="2105.686757" y2="2074.915757" stroke="black" stroke-width="6.48"/>
<line x1="2105.686757" y1="2074.915757" x2="2056.582757" y2="2074.915757" stroke="black" stroke-width="6.48"/>
<line x1="2056.582757" y1="1891.171757" x2="2056.582757" y2="2074.915757" stroke="black" stroke-width="6.48"/>
<line x1="2105.686757" y1="1891.171757" x2="2056.582757" y2="1891.171757" stroke="black" stroke-width="6.48"/>
<line x1="2133.406757" y1="1932.751757" x2="2105.686757" y2="1932.751757" stroke="black" stroke-width="6.48"/>
<line x1="2105.686757" y1="2031.751757" x2="2134.990757" y2="2031.751757" stroke="black" stroke-width="6.48"/>
<circle cx="2178.550757" cy="1981.459757" r="66.52800000000002" fill="none" stroke="black" stroke-width="6.48"/>
<circle cx="2178.550757" cy="1981.459757" r="57.02400000000001" fill="none" stroke="black" stroke-width="6.48"/>
<line x1="502.620912" y1="210.134513" x2="895.864784" y2="210.134513" stroke="black" stroke-width="6.48"/>
<line x1="899.820191" y1="209.138231" x2="899.820191" y2="345.207006" stroke="black" stroke-width="6.48"/>
<line x1="503.085301" y1="346.358513" x2="900.125532" y2="346.358513" stroke="black" stroke-width="6.48"/>
<line x1="503.820191" y1="210.829262" x2="503.820191" y2="346.093319" stroke="black" stroke-width="6.48"/>
<line x1="514.116191" y1="221.222513" x2="637.668191" y2="221.222513" stroke="black" stroke-width="6.48"/>
<line x1="637.668191" y1="221.222513" x2="637.668191" y2="335.270513" stroke="black" stroke-width="6.48"/>
<line x1="514.116191" y1="335.270513" x2="637.668191" y2="335.270513" stroke="black" stroke-width="6.48"/>
<line x1="514.116191" y1="221.222513" x2="514.116191" y2="335.270513" stroke="black" stroke-width="6.48"/>
<line x1="656.676191" y1="228.350513" x2="743.796191" y2="228.350513" stroke="black" stroke-width="6.48"/>
<line x1="656.676191" y1="248.150513" x2="743.796191" y2="248.150513" stroke="black" stroke-width="6.48"/>
<line x1="657.468191" y1="268.742513" x2="743.796191" y2="268.742513" stroke="black" stroke-width="6.48"/>
<line x1="657.468191" y1="288.542513" x2="743.796191" y2="288.542513" stroke="black" stroke-width="6.48"/>
<line x1="656.676191" y1="308.342513" x2="743.796191" y2="308.342513" stroke="black" stroke-width="6.48"/>
<line x1="656.676191" y1="328.142513" x2="743.796191" y2="328.142513" stroke="black" stroke-width="6.48"/>
<line x1="561.636191" y1="334.478513" x2="561.636191" y2="321.014513" stroke="black" stroke-width="6.48"/>
<line x1="561.636191" y1="321.014513" x2="591.732191" y2="321.014513" stroke="black" stroke-width="6.48"/>
<line x1="591.732191" y1="321.014513" x2="591.732191" y2="333.686513" stroke="black" stroke-width="6.48"/>
<line x1="764.388191" y1="221.222513" x2="887.940191" y2="221.222513" stroke="black" stroke-width="6.48"/>
<line x1="887.940191" y1="221.222513" x2="887.940191" y2="335.270513" stroke="black" stroke-width="6.48"/>
<line x1="764.388191" y1="335.270513" x2="887.940191" y2="335.270513" stroke="black" stroke-width="6.48"/>
<line x1="764.388191" y1="221.222513" x2="764.388191" y2="335.270513" stroke="black" stroke-width="6.48"/>
<line x1="811.908191" y1="335.270513" x2="811.908191" y2="321.806513" stroke="black" stroke-width="6.48"/>
<line x1="811.908191" y1="321.806513" x2="842.004191" y2="321.806513" stroke="black" stroke-width="6.48"/>
<line x1="842.004191" y1="321.806513" x2="842.004191" y2="334.478513" stroke="black" stroke-width="6.48"/>
<circle cx="623.412191" cy="235.478513" r="7.128000000000001" fill="none" stroke="black" stroke-width="6.48"/>
<circle cx="873.684191" cy="236.270513" r="7.128000000000001" fill="none" stroke="black" stroke-width="6.48"/>
<line x1="961.790468" y1="975.722792" x2="1085.929128" y2="1020.905568" stroke="black" stroke-width="6.48"/>
<line x1="1085.929128" y1="1020.905568" x2="1081.053292" y2="1034.301827" stroke="black" stroke-width="6.48"/>
<line x1="956.914632" y1="989.119051" x2="1081.053292" y2="1034.301827" stroke="black" stroke-width="6.48"/>
<line x1="961.790468" y1="975.722792" x2="956.914632" y2="989.119051" stroke="black" stroke-width="6.48"/>
<line x1="969.417806" y1="993.669836" x2="956.904793" y2="1022.491487" stroke="black" stroke-width="6.48"/>
<line x1="1068.550114" y1="1029.751045" x2="1059.284383" y2="1060.76601" stroke="black" stroke-width="6.48"/>
<line x1="804.13834" y1="1408.868471" x2="928.276996" y2="1454.051246" stroke="black" stroke-width="6.48"/>
<line x1="928.276996" y1="1454.051246" x2="932.827777" y2="1441.548068" stroke="black" stroke-width="6.48"/>
<line x1="808.689118" y1="1396.365293" x2="932.827777" y2="1441.548068" stroke="black" stroke-width="6.48"/>
<line x1="804.13834" y1="1408.868471" x2="808.689118" y2="1396.365293" stroke="black" stroke-width="6.48"/>
<line x1="820.949324" y1="1398.804854" x2="829.89" y2="1368.682978" stroke="black" stroke-width="6.48"/>
<line x1="920.081632" y1="1434.886063" x2="933.812784" y2="1405.49638" stroke="black" stroke-width="6.48"/>
<line x1="1183.304873" y1="1231.318703" x2="1169.908618" y2="1226.442863" stroke="black" stroke-width="6.48"/>
<line x1="1169.908618" y1="1226.442863" x2="1124.725842" y2="1350.581519" stroke="black" stroke-width="6.48"/>
<line x1="1138.122097" y1="1355.457359" x2="1124.725842" y2="1350.581519" stroke="black" stroke-width="6.48"/>
<line x1="1183.304873" y1="1231.318703" x2="1138.122097" y2="1355.457359" stroke="black" stroke-width="6.48"/>
<line x1="1129.601678" y1="1337.18526" x2="1098.261659" y2="1328.81261" stroke="black" stroke-width="6.48"/>
<line x1="1165.357832" y1="1238.946034" x2="1135.643094" y2="1226.107966" stroke="black" stroke-width="6.48"/>
<line x1="751.377337" y1="1073.098541" x2="764.7736" y2="1077.974381" stroke="black" stroke-width="6.48"/>
<line x1="764.7736" y1="1077.974381" x2="719.59082" y2="1202.113037" stroke="black" stroke-width="6.48"/>
<line x1="706.194562" y1="1197.237197" x2="719.59082" y2="1202.113037" stroke="black" stroke-width="6.48"/>
<line x1="751.377337" y1="1073.098541" x2="706.194562" y2="1197.237197" stroke="black" stroke-width="6.48"/>
<line x1="724.46666" y1="1188.716778" x2="753.85634" y2="1202.44793" stroke="black" stroke-width="6.48"/>
<line x1="760.222814" y1="1090.477552" x2="791.237776" y2="1099.743286" stroke="black" stroke-width="6.48"/>
<circle cx="944.749717" cy="1214.277948" r="191.98080000000002" fill="none" stroke="black" stroke-width="6.48"/>
<line x1="2044.889399" y1="955.822399" x2="2267.166564" y2="955.822399" stroke="black" stroke-width="6.48"/>
<line x1="2267.166564" y1="955.822399" x2="2267.166564" y2="1178.555051" stroke="black" stroke-width="6.48"/>
<line x1="2267.166564" y1="1178.555051" x2="2044.889399" y2="1178.555051" stroke="black" stroke-width="6.48"/>
<line x1="2044.889399" y1="1178.555051" x2="2044.889399" y2="955.822399" stroke="black" stroke-width="6.48"/>
<line x1="2044.433912" y1="955.366913" x2="2267.166564" y2="1178.555051" stroke="black" stroke-width="6.48"/>
<line x1="2044.889399" y1="1178.099564" x2="2266.711078" y2="955.822399" stroke="black" stroke-width="6.48"/>
<line x1="333.766206" y1="1375.361078" x2="333.766206" y2="949.854546" stroke="black" stroke-width="6.48"/>
<line x1="333.766206" y1="949.854546" x2="257.659348" y2="949.854546" stroke="black" stroke-width="6.48"/>
<line x1="257.659348" y1="949.854546" x2="257.659348" y2="1375.361078" stroke="black" stroke-width="6.48"/>
<line x1="257.659348" y1="1375.361078" x2="333.766206" y2="1375.361078" stroke="black" stroke-width="6.48"/>
<line x1="333.766206" y1="1355.469512" x2="359.711726" y2="1355.469512" stroke="black" stroke-width="6.48"/>
<line x1="359.711726" y1="1355.469512" x2="359.711726" y2="970.610962" stroke="black" stroke-width="6.48"/>
<line x1="333.766206" y1="970.610962" x2="359.711726" y2="970.610962" stroke="black" stroke-width="6.48"/>
<line x1="3874.406537" y1="1514.726719" x2="3874.406537" y2="1940.260162" stroke="black" stroke-width="6.48"/>
<line x1="3874.406537" y1="1940.260162" x2="3940.00601" y2="1940.260162" stroke="black" stroke-width="6.48"/>
<line x1="3940.00601" y1="1940.260162" x2="3940.00601" y2="1514.726719" stroke="black" stroke-width="6.48"/>
<line x1="3940.00601" y1="1514.726719" x2="3874.406537" y2="1514.726719" stroke="black" stroke-width="6.48"/>
<line x1="3939.14286" y1="1554.431663" x2="3875.269687" y2="1554.431663" stroke="black" stroke-width="6.48"/>
<line x1="3939.14286" y1="1899.692064" x2="3872.680232" y2="1899.692064" stroke="black" stroke-width="6.48"/>
<line x1="3908.932574" y1="1553.568512" x2="3908.932574" y2="1898.828914" stroke="black" stroke-width="6.48"/>
<line x1="4892.345636" y1="1768.897037" x2="4996.446268" y2="1687.564706" stroke="black" stroke-width="6.48"/>
<line x1="4996.446268" y1="1687.564706" x2="5005.22314" y2="1698.798586" stroke="black" stroke-width="6.48"/>
<line x1="4901.122505" y1="1780.130916" x2="5005.22314" y2="1698.798586" stroke="black" stroke-width="6.48"/>
<line x1="4892.345636" y1="1768.897037" x2="4901.122505" y2="1780.130916" stroke="black" stroke-width="6.48"/>
<line x1="4911.607462" y1="1771.939174" x2="4929.418724" y2="1797.823958" stroke="black" stroke-width="6.48"/>
<line x1="4994.738183" y1="1706.990335" x2="5016.130272" y2="1731.283549" stroke="black" stroke-width="6.48"/>
<line x1="5176.131098" y1="2132.125862" x2="5280.23173" y2="2050.793536" stroke="black" stroke-width="6.48"/>
<line x1="5280.23173" y1="2050.793536" x2="5272.039987" y2="2040.308579" stroke="black" stroke-width="6.48"/>
<line x1="5167.939352" y1="2121.640909" x2="5272.039987" y2="2040.308579" stroke="black" stroke-width="6.48"/>
<line x1="5176.131098" y1="2132.125862" x2="5167.939352" y2="2121.640909" stroke="black" stroke-width="6.48"/>
<line x1="5176.505135" y1="2112.536437" x2="5155.698168" y2="2088.992146" stroke="black" stroke-width="6.48"/>
<line x1="5259.635856" y1="2047.587599" x2="5241.98839" y2="2020.368758" stroke="black" stroke-width="6.48"/>
<line x1="5226.48801" y1="1716.487358" x2="5215.254127" y2="1725.264234" stroke="black" stroke-width="6.48"/>
<line x1="5215.254127" y1="1725.264234" x2="5296.586458" y2="1829.364869" stroke="black" stroke-width="6.48"/>
<line x1="5307.820337" y1="1820.587993" x2="5296.586458" y2="1829.364869" stroke="black" stroke-width="6.48"/>
<line x1="5226.48801" y1="1716.487358" x2="5307.820337" y2="1820.587993" stroke="black" stroke-width="6.48"/>
<line x1="5287.809586" y1="1818.130986" x2="5264.101494" y2="1840.271998" stroke="black" stroke-width="6.48"/>
<line x1="5223.445873" y1="1735.749187" x2="5196.812155" y2="1754.145572" stroke="black" stroke-width="6.48"/>
<line x1="4863.422981" y1="1998.938776" x2="4874.656864" y2="1990.161907" stroke="black" stroke-width="6.48"/>
<line x1="4874.656864" y1="1990.161907" x2="4955.989187" y2="2094.262538" stroke="black" stroke-width="6.48"/>
<line x1="4944.755311" y1="2103.03941" x2="4955.989187" y2="2094.262538" stroke="black" stroke-width="6.48"/>
<line x1="4863.422981" y1="1998.938776" x2="4944.755311" y2="2103.03941" stroke="black" stroke-width="6.48"/>
<line x1="4947.212318" y1="2083.028659" x2="4974.431159" y2="2065.381196" stroke="black" stroke-width="6.48"/>
<line x1="4882.848606" y1="2000.646864" x2="4907.14182" y2="1979.254771" stroke="black" stroke-width="6.48"/>
<circle cx="5085.621659" cy="1909.763384" r="191.98080000000002" fill="none" stroke="black" stroke-width="6.48"/>
<line x1="3369.8101" y1="1075.192898" x2="3579.175303" y2="1075.192898" stroke="black" stroke-width="6.48"/>
<line x1="3579.175303" y1="1075.192898" x2="3579.175303" y2="743.978495" stroke="black" stroke-width="6.48"/>
<line x1="3579.175303" y1="743.978495" x2="3369.8101" y2="743.978495" stroke="black" stroke-width="6.48"/>
<line x1="3369.8101" y1="743.978495" x2="3369.8101" y2="1075.192898" stroke="black" stroke-width="6.48"/>
<line x1="3369.1369" y1="803.220095" x2="3579.8485" y2="803.220095" stroke="black" stroke-width="6.48"/>
<line x1="3579.8485" y1="803.220095" x2="3370.4833" y2="853.036898" stroke="black" stroke-width="6.48"/>
<line x1="3370.4833" y1="853.036898" x2="3402.123703" y2="899.487698" stroke="black" stroke-width="6.48"/>
<line x1="3402.123703" y1="899.487698" x2="3579.8485" y2="802.546898" stroke="black" stroke-width="6.48"/>
<line x1="3427.554643" y1="1203.062994" x2="3649.831808" y2="1203.062994" stroke="black" stroke-width="6.48"/>
<line x1="3649.831808" y1="1203.062994" x2="3649.831808" y2="1425.795646" stroke="black" stroke-width="6.48"/>
<line x1="3649.831808" y1="1425.795646" x2="3427.554643" y2="1425.795646" stroke="black" stroke-width="6.48"/>
<line x1="3427.554643" y1="1425.795646" x2="3427.554643" y2="1203.062994" stroke="black" stroke-width="6.48"/>
<line x1="3427.099157" y1="1202.607508" x2="3649.831808" y2="1425.795646" stroke="black" stroke-width="6.48"/>
<line x1="3427.554643" y1="1425.340159" x2="3649.376322" y2="1203.062994" stroke="black" stroke-width="6.48"/>
<line x1="2804.16708" y1="1127.69402" x2="2804.16708" y2="1153.148746" stroke="black" stroke-width="6.48"/>
<line x1="2804.16708" y1="1153.148746" x2="2853.834836" y2="1153.148746" stroke="black" stroke-width="6.48"/>
<line x1="2853.834836" y1="1153.148746" x2="2853.834836" y2="1127.69402" stroke="black" stroke-width="6.48"/>
<line x1="2853.834836" y1="1127.69402" x2="2804.16708" y2="1127.69402" stroke="black" stroke-width="6.48"/>
<line x1="2853.834836" y1="1402.108373" x2="3101.55277" y2="1402.108373" stroke="black" stroke-width="6.48"/>
<line x1="2802.925386" y1="1402.729218" x2="2802.925386" y2="1428.183943" stroke="black" stroke-width="6.48"/>
<line x1="2802.925386" y1="1428.183943" x2="2852.593142" y2="1428.183943" stroke="black" stroke-width="6.48"/>
<line x1="2852.593142" y1="1428.183943" x2="2852.593142" y2="1402.729218" stroke="black" stroke-width="6.48"/>
<line x1="2852.593142" y1="1402.729218" x2="2802.925386" y2="1402.729218" stroke="black" stroke-width="6.48"/>
<path d="m 2851.972294,1153.148746 a 248.95962699999984,248.95962699999984 0 0 1 248.95962699999973,248.95962699999995" fill="none" stroke="black" stroke-width="6.48"/>
<line x1="2928.66952" y1="2008.01336" x2="2857.464374" y2="2184.252498" stroke="black" stroke-width="6.48"/>
<line x1="2857.464374" y1="2184.252498" x2="3287.48787" y2="2357.993048" stroke="black" stroke-width="6.48"/>
<line x1="3287.48787" y1="2357.993048" x2="3358.693015" y2="2181.753911" stroke="black" stroke-width="6.48"/>
<line x1="3358.693015" y1="2181.753911" x2="3336.663125" y2="2172.853267" stroke="black" stroke-width="6.48"/>
<line x1="3336.663125" y1="2172.853267" x2="3274.002598" y2="2327.943712" stroke="black" stroke-width="6.48"/>
<line x1="3274.002598" y1="2327.943712" x2="2888.92008" y2="2172.36047" stroke="black" stroke-width="6.48"/>
<line x1="2888.92008" y1="2172.36047" x2="2951.580607" y2="2017.27003" stroke="black" stroke-width="6.48"/>
<line x1="2951.580607" y1="2017.27003" x2="2928.66952" y2="2008.01336" stroke="black" stroke-width="6.48"/>
<line x1="2949.444454" y1="2022.557202" x2="3334.526971" y2="2178.140443" stroke="black" stroke-width="6.48"/>
<line x1="3141.901138" y1="2099.289614" x2="3081.376768" y2="2249.092883" stroke="black" stroke-width="6.48"/>
<line x1="3428.083199" y1="1913.22229" x2="3436.176308" y2="1681.465961" stroke="black" stroke-width="6.48"/>
<line x1="3436.176308" y1="1681.465961" x2="3668.407553" y2="1689.575652" stroke="black" stroke-width="6.48"/>
<line x1="3668.407553" y1="1689.575652" x2="3660.314443" y2="1921.331988" stroke="black" stroke-width="6.48"/>
<line x1="3660.314443" y1="1921.331988" x2="3428.083199" y2="1913.22229" stroke="black" stroke-width="6.48"/>
<line x1="3427.591705" y1="1913.680616" x2="3668.407553" y2="1689.575652" stroke="black" stroke-width="6.48"/>
<line x1="3659.839535" y1="1921.315403" x2="3436.159723" y2="1681.940866" stroke="black" stroke-width="6.48"/>
<line x1="3031.233131" y1="1589.315879" x2="3026.401182" y2="1619.823596" stroke="black" stroke-width="6.48"/>
<line x1="3026.401182" y1="1619.823596" x2="3233.384312" y2="1652.606503" stroke="black" stroke-width="6.48"/>
<line x1="3233.384312" y1="1652.606503" x2="3238.216261" y2="1622.098786" stroke="black" stroke-width="6.48"/>
<line x1="3238.216261" y1="1622.098786" x2="3031.233131" y2="1589.315879" stroke="black" stroke-width="6.48"/>
<line x1="2999.342279" y1="1790.666816" x2="2994.51033" y2="1821.17453" stroke="black" stroke-width="6.48"/>
<line x1="2994.51033" y1="1821.17453" x2="3201.493457" y2="1853.957441" stroke="black" stroke-width="6.48"/>
<line x1="3201.493457" y1="1853.957441" x2="3206.325406" y2="1823.44972" stroke="black" stroke-width="6.48"/>
<line x1="3206.325406" y1="1823.44972" x2="2999.342279" y2="1790.666816" stroke="black" stroke-width="6.48"/>
<line x1="3026.475518" y1="1619.354243" x2="2999.342279" y2="1790.666816" stroke="black" stroke-width="6.48"/>
<line x1="3232.594289" y1="1651.519127" x2="3254.245603" y2="1681.891268" stroke="black" stroke-width="6.48"/>
<line x1="3235.289501" y1="1801.575396" x2="3205.312369" y2="1823.770393" stroke="black" stroke-width="6.48"/>
<line x1="3254.542952" y1="1680.013872" x2="3234.992148" y2="1803.452792" stroke="black" stroke-width="6.48"/>
<line x1="3070.520039" y1="1626.811337" x2="3043.386792" y2="1798.123903" stroke="black" stroke-width="6.48"/>
<line x1="1243.69348" y1="1803.113449" x2="1172.488216" y2="1979.352544" stroke="black" stroke-width="6.48"/>
<line x1="1172.488216" y1="1979.352544" x2="1602.511592" y2="2153.093389" stroke="black" stroke-width="6.48"/>
<line x1="1602.511592" y1="2153.093389" x2="1673.716856" y2="1976.854298" stroke="black" stroke-width="6.48"/>
<line x1="1673.716856" y1="1976.854298" x2="1651.686973" y2="1967.953637" stroke="black" stroke-width="6.48"/>
<line x1="1651.686973" y1="1967.953637" x2="1589.026338" y2="2123.044038" stroke="black" stroke-width="6.48"/>
<line x1="1589.026338" y1="2123.044038" x2="1203.943925" y2="1967.460534" stroke="black" stroke-width="6.48"/>
<line x1="1203.943925" y1="1967.460534" x2="1266.60456" y2="1812.370136" stroke="black" stroke-width="6.48"/>
<line x1="1266.60456" y1="1812.370136" x2="1243.69348" y2="1803.113449" stroke="black" stroke-width="6.48"/>
<line x1="1264.468403" y1="1817.657305" x2="1649.550812" y2="1973.240813" stroke="black" stroke-width="6.48"/>
<line x1="1456.925036" y1="1894.389854" x2="1396.400562" y2="2044.19308" stroke="black" stroke-width="6.48"/>
<line x1="6241.955836" y1="1732.959137" x2="6057.522025" y2="1686.974623" stroke="black" stroke-width="6.48"/>
<line x1="6057.522025" y1="1686.974623" x2="5945.31981" y2="2136.99312" stroke="black" stroke-width="6.48"/>
<line x1="5945.31981" y1="2136.99312" x2="6129.753624" y2="2182.977634" stroke="black" stroke-width="6.48"/>
<line x1="6129.753624" y1="2182.977634" x2="6135.501686" y2="2159.92341" stroke="black" stroke-width="6.48"/>
<line x1="6135.501686" y1="2159.92341" x2="5973.199934" y2="2119.457038" stroke="black" stroke-width="6.48"/>
<line x1="5973.199934" y1="2119.457038" x2="6073.676096" y2="1716.469157" stroke="black" stroke-width="6.48"/>
<line x1="6073.676096" y1="1716.469157" x2="6235.977852" y2="1756.935529" stroke="black" stroke-width="6.48"/>
<line x1="6235.977852" y1="1756.935529" x2="6241.955836" y2="1732.959137" stroke="black" stroke-width="6.48"/>
<line x1="6230.444836" y1="1755.555998" x2="6129.96867" y2="2158.543876" stroke="black" stroke-width="6.48"/>
<line x1="6181.243884" y1="1956.818772" x2="6024.475141" y2="1917.731938" stroke="black" stroke-width="6.48"/>
<line x1="3840.070216" y1="1134.752281" x2="3838.453664" y2="1103.906614" stroke="black" stroke-width="6.48"/>
<line x1="3838.453664" y1="1103.906614" x2="3629.177665" y2="1114.874305" stroke="black" stroke-width="6.48"/>
<line x1="3629.177665" y1="1114.874305" x2="3630.794216" y2="1145.719973" stroke="black" stroke-width="6.48"/>
<line x1="3630.794216" y1="1145.719973" x2="3840.070216" y2="1134.752281" stroke="black" stroke-width="6.48"/>
<line x1="3829.400968" y1="931.17087" x2="3827.784416" y2="900.325199" stroke="black" stroke-width="6.48"/>
<line x1="3827.784416" y1="900.325199" x2="3618.508414" y2="911.292887" stroke="black" stroke-width="6.48"/>
<line x1="3618.508414" y1="911.292887" x2="3620.124965" y2="942.138562" stroke="black" stroke-width="6.48"/>
<line x1="3620.124965" y1="942.138562" x2="3829.400968" y2="931.17087" stroke="black" stroke-width="6.48"/>
<line x1="3838.478533" y1="1104.381162" x2="3829.400968" y2="931.17087" stroke="black" stroke-width="6.48"/>
<line x1="3630.176503" y1="1115.773661" x2="3602.683598" y2="1090.566785" stroke="black" stroke-width="6.48"/>
<line x1="3596.341738" y1="969.556853" x2="3621.049193" y2="941.614268" stroke="black" stroke-width="6.48"/>
<line x1="3602.783077" y1="1092.464978" x2="3596.242259" y2="967.658656" stroke="black" stroke-width="6.48"/>
<line x1="3793.846082" y1="1106.244396" x2="3784.768517" y2="933.034104" stroke="black" stroke-width="6.48"/>
</g>
</svg>
