<?xml version="1.0"?>
<svg xmlns:xlink="http://www.w3.org/1999/xlink" width="6775.2" height="2858.4">
<image x="0" y="0" width="6775.2" height="2858.4" xlink:href="groundfilled-01.png"/>
<g style="stroke-linecap:round">
<line x1="1285.950406" y1="795.178109" x2="1311.346069" y2="795.178109" stroke="black" stroke-width="6.48"/>
<line x1="1311.346069" y1="795.178109" x2="1311.346069" y2="745.625592" stroke="black" stroke-width="6.48"/>
<line x1="1311.346069" y1="745.625592" x2="1285.950406" y2="745.625592" stroke="black" stroke-width="6.48"/>
<line x1="1285.950406" y1="745.625592" x2="1285.950406" y2="795.178109" stroke="black" stroke-width="6.48"/>
<line x1="1559.728062" y1="745.625592" x2="1559.728062" y2="498.48241" stroke="black" stroke-width="6.48"/>
<line x1="1560.347471" y1="796.416923" x2="1585.743134" y2="796.416923" stroke="black" stroke-width="6.48"/>
<line x1="1585.743134" y1="796.416923" x2="1585.743134" y2="746.864406" stroke="black" stroke-width="6.48"/>
<line x1="1585.743134" y1="746.864406" x2="1560.347471" y2="746.864406" stroke="black" stroke-width="6.48"/>
<line x1="1560.347471" y1="746.864406" x2="1560.347471" y2="796.416923" stroke="black" stroke-width="6.48"/>
<path d="m 1311.346069,747.483811 a 248.38199299999997,248.38199299999997 0 0 1 248.38199299999997,-248.38199299999997" fill="none" stroke="black" stroke-width="6.48"/>
<line x1="330.523178" y1="771.328966" x2="330.523178" y2="366.748985" stroke="black" stroke-width="6.48"/>
<line x1="330.523178" y1="366.748985" x2="258.15928" y2="366.748985" stroke="black" stroke-width="6.48"/>
<line x1="258.15928" y1="366.748985" x2="258.15928" y2="771.328966" stroke="black" stroke-width="6.48"/>
<line x1="258.15928" y1="771.328966" x2="330.523178" y2="771.328966" stroke="black" stroke-width="6.48"/>
<line x1="330.523178" y1="752.415674" x2="355.19269" y2="752.415674" stroke="black" stroke-width="6.48"/>
<line x1="355.19269" y1="752.415674" x2="355.19269" y2="386.484595" stroke="black" stroke-width="6.48"/>
<line x1="330.523178" y1="386.484595" x2="355.19269" y2="386.484595" stroke="black" stroke-width="6.48"/>
<line x1="3901.945176" y1="1169.331426" x2="3901.945176" y2="1428.837066" stroke="black" stroke-width="6.48"/>
<line x1="3901.945176" y1="1428.837066" x2="3941.9501" y2="1428.837066" stroke="black" stroke-width="6.48"/>
<line x1="3941.9501" y1="1428.837066" x2="3941.9501" y2="1169.331426" stroke="black" stroke-width="6.48"/>
<line x1="3941.9501" y1="1169.331426" x2="3901.945176" y2="1169.331426" stroke="black" stroke-width="6.48"/>
<line x1="3941.423719" y1="1193.544936" x2="3902.471557" y2="1193.544936" stroke="black" stroke-width="6.48"/>
<line x1="3941.423719" y1="1404.097178" x2="3900.892414" y2="1404.097178" stroke="black" stroke-width="6.48"/>
<line x1="3923.000399" y1="1193.018555" x2="3923.000399" y2="1403.570797" stroke="black" stroke-width="6.48"/>
<line x1="323.923298" y1="1882.957399" x2="323.923298" y2="1457.423957" stroke="black" stroke-width="6.48"/>
<line x1="323.923298" y1="1457.423957" x2="258.323825" y2="1457.423957" stroke="black" stroke-width="6.48"/>
<line x1="258.323825" y1="1457.423957" x2="258.323825" y2="1882.957399" stroke="black" stroke-width="6.48"/>
<line x1="258.323825" y1="1882.957399" x2="323.923298" y2="1882.957399" stroke="black" stroke-width="6.48"/>
<line x1="259.186975" y1="1843.252456" x2="323.060148" y2="1843.252456" stroke="black" stroke-width="6.48"/>
<line x1="259.186975" y1="1497.992054" x2="325.649603" y2="1497.992054" stroke="black" stroke-width="6.48"/>
<line x1="289.397261" y1="1844.115606" x2="289.397261" y2="1498.855205" stroke="black" stroke-width="6.48"/>
<line x1="2747.905531" y1="904.670665" x2="2721.68303" y2="904.670665" stroke="black" stroke-width="6.48"/>
<line x1="2721.68303" y1="904.670665" x2="2721.68303" y2="955.836522" stroke="black" stroke-width="6.48"/>
<line x1="2721.68303" y1="955.836522" x2="2747.905531" y2="955.836522" stroke="black" stroke-width="6.48"/>
<line x1="2747.905531" y1="955.836522" x2="2747.905531" y2="904.670665" stroke="black" stroke-width="6.48"/>
<line x1="2465.214181" y1="955.836522" x2="2465.214181" y2="1211.026223" stroke="black" stroke-width="6.48"/>
<line x1="2464.574609" y1="903.39152" x2="2438.352108" y2="903.39152" stroke="black" stroke-width="6.48"/>
<line x1="2438.352108" y1="903.39152" x2="2438.352108" y2="954.557374" stroke="black" stroke-width="6.48"/>
<line x1="2438.352108" y1="954.557374" x2="2464.574609" y2="954.557374" stroke="black" stroke-width="6.48"/>
<line x1="2464.574609" y1="954.557374" x2="2464.574609" y2="903.39152" stroke="black" stroke-width="6.48"/>
<path d="m 2721.68303,953.917801 a 256.4688490000001,256.4688490000001 0 0 1 -256.4688490000003,256.46884899999986" fill="none" stroke="black" stroke-width="6.48"/>
<line x1="2420.532389" y1="1427.858834" x2="2395.136725" y2="1427.858834" stroke="black" stroke-width="6.48"/>
<line x1="2395.136725" y1="1427.858834" x2="2395.136725" y2="1477.411351" stroke="black" stroke-width="6.48"/>
<line x1="2395.136725" y1="1477.411351" x2="2420.532389" y2="1477.411351" stroke="black" stroke-width="6.48"/>
<line x1="2420.532389" y1="1477.411351" x2="2420.532389" y2="1427.858834" stroke="black" stroke-width="6.48"/>
<line x1="2146.754732" y1="1477.411351" x2="2146.754732" y2="1724.554534" stroke="black" stroke-width="6.48"/>
<line x1="2146.135324" y1="1426.62002" x2="2120.73966" y2="1426.62002" stroke="black" stroke-width="6.48"/>
<line x1="2120.73966" y1="1426.62002" x2="2120.73966" y2="1476.172537" stroke="black" stroke-width="6.48"/>
<line x1="2120.73966" y1="1476.172537" x2="2146.135324" y2="1476.172537" stroke="black" stroke-width="6.48"/>
<line x1="2146.135324" y1="1476.172537" x2="2146.135324" y2="1426.62002" stroke="black" stroke-width="6.48"/>
<path d="m 2395.136725,1475.553132 a 248.38199299999997,248.38199299999997 0 0 1 -248.38199299999997,248.38199299999997" fill="none" stroke="black" stroke-width="6.48"/>
<line x1="432.888156" y1="692.136151" x2="825.720156" y2="692.136151" stroke="black" stroke-width="6.48"/>
<line x1="825.720156" y1="692.136151" x2="825.720156" y2="507.600151" stroke="black" stroke-width="6.48"/>
<line x1="825.720156" y1="507.600151" x2="432.888156" y2="507.600151" stroke="black" stroke-width="6.48"/>
<line x1="432.888156" y1="507.600151" x2="432.888156" y2="692.136151" stroke="black" stroke-width="6.48"/>
<line x1="592.080156" y1="507.600151" x2="592.080156" y2="426.816151" stroke="black" stroke-width="6.48"/>
<line x1="592.080156" y1="426.816151" x2="513.672156" y2="426.816151" stroke="black" stroke-width="6.48"/>
<line x1="513.672156" y1="426.816151" x2="513.672156" y2="507.600151" stroke="black" stroke-width="6.48"/>
<line x1="514.464156" y1="444.240151" x2="592.080156" y2="444.240151" stroke="black" stroke-width="6.48"/>
<line x1="513.672156" y1="773.712151" x2="592.080156" y2="773.712151" stroke="black" stroke-width="6.48"/>
<line x1="592.080156" y1="773.712151" x2="592.080156" y2="692.136151" stroke="black" stroke-width="6.48"/>
<line x1="513.672156" y1="692.136151" x2="513.672156" y2="773.712151" stroke="black" stroke-width="6.48"/>
<line x1="514.464156" y1="756.288151" x2="592.080156" y2="756.288151" stroke="black" stroke-width="6.48"/>
<line x1="743.352156" y1="507.600151" x2="743.352156" y2="426.816151" stroke="black" stroke-width="6.48"/>
<line x1="743.352156" y1="426.816151" x2="664.944156" y2="426.816151" stroke="black" stroke-width="6.48"/>
<line x1="664.944156" y1="426.816151" x2="664.944156" y2="507.600151" stroke="black" stroke-width="6.48"/>
<line x1="664.944156" y1="444.240151" x2="743.352156" y2="444.240151" stroke="black" stroke-width="6.48"/>
<line x1="664.944156" y1="773.712151" x2="743.352156" y2="773.712151" stroke="black" stroke-width="6.48"/>
<line x1="743.352156" y1="773.712151" x2="743.352156" y2="692.136151" stroke="black" stroke-width="6.48"/>
<line x1="664.944156" y1="692.136151" x2="664.944156" y2="773.712151" stroke="black" stroke-width="6.48"/>
<line x1="664.944156" y1="756.288151" x2="743.352156" y2="756.288151" stroke="black" stroke-width="6.48"/>
<line x1="1842.844367" y1="2062.101341" x2="2032.924367" y2="2062.101341" stroke="black" stroke-width="6.48"/>
<line x1="2032.924367" y1="2062.101341" x2="2032.924367" y2="1598.306141" stroke="black" stroke-width="6.48"/>
<line x1="2032.924367" y1="1598.306141" x2="1842.844367" y2="1598.306141" stroke="black" stroke-width="6.48"/>
<line x1="1842.844367" y1="1598.306141" x2="1842.844367" y2="1622.066141" stroke="black" stroke-width="6.48"/>
<line x1="1842.844367" y1="1622.066141" x2="2010.114767" y2="1622.066141" stroke="black" stroke-width="6.48"/>
<line x1="2010.114767" y1="1622.066141" x2="2010.114767" y2="2037.390941" stroke="black" stroke-width="6.48"/>
<line x1="2010.114767" y1="2037.390941" x2="1842.844367" y2="2037.390941" stroke="black" stroke-width="6.48"/>
<line x1="1842.844367" y1="2037.390941" x2="1842.844367" y2="2062.101341" stroke="black" stroke-width="6.48"/>
<line x1="1848.546767" y1="2037.390941" x2="1848.546767" y2="1622.066141" stroke="black" stroke-width="6.48"/>
<line x1="1847.596367" y1="1830.203741" x2="2009.164367" y2="1830.203741" stroke="black" stroke-width="6.48"/>
<line x1="1485.415969" y1="209.267824" x2="1707.693134" y2="209.267824" stroke="black" stroke-width="6.48"/>
<line x1="1707.693134" y1="209.267824" x2="1707.693134" y2="432.000475" stroke="black" stroke-width="6.48"/>
<line x1="1707.693134" y1="432.000475" x2="1485.415969" y2="432.000475" stroke="black" stroke-width="6.48"/>
<line x1="1485.415969" y1="432.000475" x2="1485.415969" y2="209.267824" stroke="black" stroke-width="6.48"/>
<line x1="1484.960483" y1="208.812337" x2="1707.693134" y2="432.000475" stroke="black" stroke-width="6.48"/>
<line x1="1485.415969" y1="431.544989" x2="1707.237648" y2="209.267824" stroke="black" stroke-width="6.48"/>
<line x1="2761.020558" y1="2194.614338" x2="2761.020558" y2="1803.366338" stroke="black" stroke-width="6.48"/>
<line x1="2761.020558" y1="1803.366338" x2="2586.780558" y2="1803.366338" stroke="black" stroke-width="6.48"/>
<line x1="2586.780558" y1="1803.366338" x2="2586.780558" y2="2194.614338" stroke="black" stroke-width="6.48"/>
<line x1="2586.780558" y1="2194.614338" x2="2761.020558" y2="2194.614338" stroke="black" stroke-width="6.48"/>
<line x1="2613.708558" y1="1878.606338" x2="2613.708558" y2="2162.934338" stroke="black" stroke-width="6.48"/>
<line x1="2613.708558" y1="2162.934338" x2="2731.716558" y2="2162.934338" stroke="black" stroke-width="6.48"/>
<line x1="2731.716558" y1="2162.934338" x2="2731.716558" y2="1873.062338" stroke="black" stroke-width="6.48"/>
<path d="m 2613.453134,1879.416911 a 63.3599990854681,63.3599990854681 0 0 1 119.3743300000001,-4.293814000000111" fill="none" stroke="black" stroke-width="6.48"/>
<line x1="2105.824392" y1="1908.51417" x2="2105.824392" y2="2092.25817" stroke="black" stroke-width="6.48"/>
<line x1="2105.824392" y1="2092.25817" x2="2056.720392" y2="2092.25817" stroke="black" stroke-width="6.48"/>
<line x1="2056.720392" y1="1908.51417" x2="2056.720392" y2="2092.25817" stroke="black" stroke-width="6.48"/>
<line x1="2105.824392" y1="1908.51417" x2="2056.720392" y2="1908.51417" stroke="black" stroke-width="6.48"/>
<line x1="2133.544392" y1="1950.09417" x2="2105.824392" y2="1950.09417" stroke="black" stroke-width="6.48"/>
<line x1="2105.824392" y1="2049.09417" x2="2135.128392" y2="2049.09417" stroke="black" stroke-width="6.48"/>
<circle cx="2178.688392" cy="1998.80217" r="66.52800000000002" fill="none" stroke="black" stroke-width="6.48"/>
<circle cx="2178.688392" cy="1998.80217" r="57.02400000000001" fill="none" stroke="black" stroke-width="6.48"/>
<line x1="1098.407344" y1="210.436618" x2="1368.954544" y2="210.436618" stroke="black" stroke-width="6.48"/>
<line x1="1368.954544" y1="210.436618" x2="1368.954544" y2="342.383818" stroke="black" stroke-width="6.48"/>
<line x1="1098.407344" y1="342.383818" x2="1368.954544" y2="342.383818" stroke="black" stroke-width="6.48"/>
<line x1="1098.407344" y1="210.436618" x2="1098.407344" y2="342.383818" stroke="black" stroke-width="6.48"/>
<line x1="1105.060144" y1="217.089418" x2="1243.105744" y2="217.089418" stroke="black" stroke-width="6.48"/>
<line x1="1243.105744" y1="217.089418" x2="1243.105744" y2="335.176618" stroke="black" stroke-width="6.48"/>
<line x1="1105.060144" y1="335.176618" x2="1243.105744" y2="335.176618" stroke="black" stroke-width="6.48"/>
<line x1="1105.060144" y1="217.089418" x2="1105.060144" y2="335.176618" stroke="black" stroke-width="6.48"/>
<line x1="1257.520144" y1="224.851018" x2="1354.540144" y2="224.851018" stroke="black" stroke-width="6.48"/>
<line x1="1257.520144" y1="245.363818" x2="1354.540144" y2="245.363818" stroke="black" stroke-width="6.48"/>
<line x1="1258.074544" y1="266.431018" x2="1355.094544" y2="266.431018" stroke="black" stroke-width="6.48"/>
<line x1="1258.074544" y1="286.943818" x2="1355.094544" y2="286.943818" stroke="black" stroke-width="6.48"/>
<line x1="1257.520144" y1="307.456618" x2="1354.540144" y2="307.456618" stroke="black" stroke-width="6.48"/>
<line x1="1257.520144" y1="327.969418" x2="1354.540144" y2="327.969418" stroke="black" stroke-width="6.48"/>
<line x1="1157.728144" y1="335.176618" x2="1157.728144" y2="321.316618" stroke="black" stroke-width="6.48"/>
<line x1="1157.728144" y1="321.316618" x2="1192.100944" y2="321.316618" stroke="black" stroke-width="6.48"/>
<line x1="1192.100944" y1="321.316618" x2="1192.100944" y2="334.622218" stroke="black" stroke-width="6.48"/>
<circle cx="1227.582544" cy="232.058218" r="8.316000000000003" fill="none" stroke="black" stroke-width="6.48"/>
<line x1="1403.986367" y1="1372.1634" x2="1376.52007" y2="1501.382171" stroke="black" stroke-width="6.48"/>
<line x1="1376.52007" y1="1501.382171" x2="1362.575599" y2="1498.418183" stroke="black" stroke-width="6.48"/>
<line x1="1390.041896" y1="1369.199408" x2="1362.575599" y2="1498.418183" stroke="black" stroke-width="6.48"/>
<line x1="1403.986367" y1="1372.1634" x2="1390.041896" y2="1369.199408" stroke="black" stroke-width="6.48"/>
<line x1="1387.275505" y1="1382.214247" x2="1356.992867" y2="1373.83421" stroke="black" stroke-width="6.48"/>
<line x1="1365.341987" y1="1485.403344" x2="1333.339319" y2="1480.544233" stroke="black" stroke-width="6.48"/>
<line x1="953.115098" y1="1276.327753" x2="925.648801" y2="1405.546528" stroke="black" stroke-width="6.48"/>
<line x1="925.648801" y1="1405.546528" x2="938.66364" y2="1408.312919" stroke="black" stroke-width="6.48"/>
<line x1="966.129941" y1="1279.094141" x2="938.66364" y2="1408.312919" stroke="black" stroke-width="6.48"/>
<line x1="953.115098" y1="1276.327753" x2="966.129941" y2="1279.094141" stroke="black" stroke-width="6.48"/>
<line x1="965.420413" y1="1291.574549" x2="996.49345" y2="1296.236063" stroke="black" stroke-width="6.48"/>
<line x1="943.486895" y1="1394.763642" x2="974.501564" y2="1404.270914" stroke="black" stroke-width="6.48"/>
<line x1="1181.70675" y1="1627.094113" x2="1184.670738" y2="1613.149643" stroke="black" stroke-width="6.48"/>
<line x1="1184.670738" y1="1613.149643" x2="1055.45196" y2="1585.683346" stroke="black" stroke-width="6.48"/>
<line x1="1052.487972" y1="1599.627816" x2="1055.45196" y2="1585.683346" stroke="black" stroke-width="6.48"/>
<line x1="1181.70675" y1="1627.094113" x2="1052.487972" y2="1599.627816" stroke="black" stroke-width="6.48"/>
<line x1="1069.396438" y1="1588.647334" x2="1073.325917" y2="1556.447065" stroke="black" stroke-width="6.48"/>
<line x1="1171.655896" y1="1610.383252" x2="1180.233536" y2="1579.170982" stroke="black" stroke-width="6.48"/>
<line x1="1278.274428" y1="1177.35008" x2="1275.310436" y2="1191.294551" stroke="black" stroke-width="6.48"/>
<line x1="1275.310436" y1="1191.294551" x2="1146.091666" y2="1163.82825" stroke="black" stroke-width="6.48"/>
<line x1="1149.055654" y1="1149.88378" x2="1146.091666" y2="1163.82825" stroke="black" stroke-width="6.48"/>
<line x1="1278.274428" y1="1177.35008" x2="1149.055654" y2="1149.88378" stroke="black" stroke-width="6.48"/>
<line x1="1160.036136" y1="1166.792242" x2="1150.528864" y2="1197.806911" stroke="black" stroke-width="6.48"/>
<line x1="1262.295601" y1="1188.528163" x2="1257.436487" y2="1220.530831" stroke="black" stroke-width="6.48"/>
<circle cx="1165.3812" cy="1388.488946" r="191.98080000000002" fill="none" stroke="black" stroke-width="6.48"/>
<line x1="2044.889399" y1="955.822399" x2="2267.166564" y2="955.822399" stroke="black" stroke-width="6.48"/>
<line x1="2267.166564" y1="955.822399" x2="2267.166564" y2="1178.555051" stroke="black" stroke-width="6.48"/>
<line x1="2267.166564" y1="1178.555051" x2="2044.889399" y2="1178.555051" stroke="black" stroke-width="6.48"/>
<line x1="2044.889399" y1="1178.555051" x2="2044.889399" y2="955.822399" stroke="black" stroke-width="6.48"/>
<line x1="2044.433912" y1="955.366913" x2="2267.166564" y2="1178.555051" stroke="black" stroke-width="6.48"/>
<line x1="2044.889399" y1="1178.099564" x2="2266.711078" y2="955.822399" stroke="black" stroke-width="6.48"/>
<line x1="333.766206" y1="1375.361078" x2="333.766206" y2="949.854546" stroke="black" stroke-width="6.48"/>
<line x1="333.766206" y1="949.854546" x2="257.659348" y2="949.854546" stroke="black" stroke-width="6.48"/>
<line x1="257.659348" y1="949.854546" x2="257.659348" y2="1375.361078" stroke="black" stroke-width="6.48"/>
<line x1="257.659348" y1="1375.361078" x2="333.766206" y2="1375.361078" stroke="black" stroke-width="6.48"/>
<line x1="333.766206" y1="1355.469512" x2="359.711726" y2="1355.469512" stroke="black" stroke-width="6.48"/>
<line x1="359.711726" y1="1355.469512" x2="359.711726" y2="970.610962" stroke="black" stroke-width="6.48"/>
<line x1="333.766206" y1="970.610962" x2="359.711726" y2="970.610962" stroke="black" stroke-width="6.48"/>
<line x1="3874.406537" y1="1514.726719" x2="3874.406537" y2="1940.260162" stroke="black" stroke-width="6.48"/>
<line x1="3874.406537" y1="1940.260162" x2="3940.00601" y2="1940.260162" stroke="black" stroke-width="6.48"/>
<line x1="3940.00601" y1="1940.260162" x2="3940.00601" y2="1514.726719" stroke="black" stroke-width="6.48"/>
<line x1="3940.00601" y1="1514.726719" x2="3874.406537" y2="1514.726719" stroke="black" stroke-width="6.48"/>
<line x1="3939.14286" y1="1554.431663" x2="3875.269687" y2="1554.431663" stroke="black" stroke-width="6.48"/>
<line x1="3939.14286" y1="1899.692064" x2="3872.680232" y2="1899.692064" stroke="black" stroke-width="6.48"/>
<line x1="3908.932574" y1="1553.568512" x2="3908.932574" y2="1898.828914" stroke="black" stroke-width="6.48"/>
<line x1="4844.15599" y1="1917.196405" x2="5208.383473" y2="1770.038946" stroke="black" stroke-width="6.48"/>
<line x1="5208.383473" y1="1770.038946" x2="5139.255074" y2="1598.940148" stroke="black" stroke-width="6.48"/>
<line x1="5139.255074" y1="1598.940148" x2="4775.027584" y2="1746.097603" stroke="black" stroke-width="6.48"/>
<line x1="4775.027584" y1="1746.097603" x2="4844.15599" y2="1917.196405" stroke="black" stroke-width="6.48"/>
<line x1="4922.627836" y1="1686.463232" x2="4892.36562" y2="1611.561614" stroke="black" stroke-width="6.48"/>
<line x1="4892.36562" y1="1611.561614" x2="4819.666982" y2="1640.933766" stroke="black" stroke-width="6.48"/>
<line x1="4819.666982" y1="1640.933766" x2="4849.929205" y2="1715.835388" stroke="black" stroke-width="6.48"/>
<line x1="4826.92846" y1="1656.792328" x2="4898.892762" y2="1627.716859" stroke="black" stroke-width="6.48"/>
<line x1="4949.616514" y1="1962.570136" x2="5022.315144" y2="1933.19798" stroke="black" stroke-width="6.48"/>
<line x1="5022.315144" y1="1933.19798" x2="4991.756242" y2="1857.562031" stroke="black" stroke-width="6.48"/>
<line x1="4919.057608" y1="1886.934182" x2="4949.616514" y2="1962.570136" stroke="black" stroke-width="6.48"/>
<line x1="4943.8237" y1="1946.118193" x2="5015.787998" y2="1917.042728" stroke="black" stroke-width="6.48"/>
<line x1="5062.884793" y1="1629.79574" x2="5032.622574" y2="1554.894122" stroke="black" stroke-width="6.48"/>
<line x1="5032.622574" y1="1554.894122" x2="4959.923944" y2="1584.266274" stroke="black" stroke-width="6.48"/>
<line x1="4959.923944" y1="1584.266274" x2="4990.186159" y2="1659.167896" stroke="black" stroke-width="6.48"/>
<line x1="4966.451089" y1="1600.421526" x2="5039.14972" y2="1571.049374" stroke="black" stroke-width="6.48"/>
<line x1="5089.873471" y1="1905.902647" x2="5162.572105" y2="1876.530492" stroke="black" stroke-width="6.48"/>
<line x1="5162.572105" y1="1876.530492" x2="5132.013196" y2="1800.894542" stroke="black" stroke-width="6.48"/>
<line x1="5059.314565" y1="1830.266694" x2="5089.873471" y2="1905.902647" stroke="black" stroke-width="6.48"/>
<line x1="5083.346326" y1="1889.747395" x2="5156.04496" y2="1860.37524" stroke="black" stroke-width="6.48"/>
<line x1="3058.849904" y1="1074.166625" x2="3268.215108" y2="1074.166625" stroke="black" stroke-width="6.48"/>
<line x1="3268.215108" y1="1074.166625" x2="3268.215108" y2="742.952221" stroke="black" stroke-width="6.48"/>
<line x1="3268.215108" y1="742.952221" x2="3058.849904" y2="742.952221" stroke="black" stroke-width="6.48"/>
<line x1="3058.849904" y1="742.952221" x2="3058.849904" y2="1074.166625" stroke="black" stroke-width="6.48"/>
<line x1="3058.176704" y1="802.193821" x2="3268.888304" y2="802.193821" stroke="black" stroke-width="6.48"/>
<line x1="3268.888304" y1="802.193821" x2="3059.523104" y2="852.010625" stroke="black" stroke-width="6.48"/>
<line x1="3059.523104" y1="852.010625" x2="3091.163508" y2="898.461425" stroke="black" stroke-width="6.48"/>
<line x1="3091.163508" y1="898.461425" x2="3268.888304" y2="801.520625" stroke="black" stroke-width="6.48"/>
<line x1="3226.966074" y1="1203.875093" x2="3449.243239" y2="1203.875093" stroke="black" stroke-width="6.48"/>
<line x1="3449.243239" y1="1203.875093" x2="3449.243239" y2="1426.607744" stroke="black" stroke-width="6.48"/>
<line x1="3449.243239" y1="1426.607744" x2="3226.966074" y2="1426.607744" stroke="black" stroke-width="6.48"/>
<line x1="3226.966074" y1="1426.607744" x2="3226.966074" y2="1203.875093" stroke="black" stroke-width="6.48"/>
<line x1="3226.510588" y1="1203.419606" x2="3449.243239" y2="1426.607744" stroke="black" stroke-width="6.48"/>
<line x1="3226.966074" y1="1426.152258" x2="3448.787753" y2="1203.875093" stroke="black" stroke-width="6.48"/>
<line x1="2804.16708" y1="1127.69402" x2="2804.16708" y2="1153.148746" stroke="black" stroke-width="6.48"/>
<line x1="2804.16708" y1="1153.148746" x2="2853.834836" y2="1153.148746" stroke="black" stroke-width="6.48"/>
<line x1="2853.834836" y1="1153.148746" x2="2853.834836" y2="1127.69402" stroke="black" stroke-width="6.48"/>
<line x1="2853.834836" y1="1127.69402" x2="2804.16708" y2="1127.69402" stroke="black" stroke-width="6.48"/>
<line x1="2853.834836" y1="1402.108373" x2="3101.55277" y2="1402.108373" stroke="black" stroke-width="6.48"/>
<line x1="2802.925386" y1="1402.729218" x2="2802.925386" y2="1428.183943" stroke="black" stroke-width="6.48"/>
<line x1="2802.925386" y1="1428.183943" x2="2852.593142" y2="1428.183943" stroke="black" stroke-width="6.48"/>
<line x1="2852.593142" y1="1428.183943" x2="2852.593142" y2="1402.729218" stroke="black" stroke-width="6.48"/>
<line x1="2852.593142" y1="1402.729218" x2="2802.925386" y2="1402.729218" stroke="black" stroke-width="6.48"/>
<path d="m 2851.972294,1153.148746 a 248.95962699999984,248.95962699999984 0 0 1 248.95962699999973,248.95962699999995" fill="none" stroke="black" stroke-width="6.48"/>
<line x1="3711.785972" y1="1798.70224" x2="3550.696362" y2="1965.515414" stroke="black" stroke-width="6.48"/>
<line x1="3550.696362" y1="1965.515414" x2="3383.541356" y2="1804.095702" stroke="black" stroke-width="6.48"/>
<line x1="3383.541356" y1="1804.095702" x2="3544.630967" y2="1637.282531" stroke="black" stroke-width="6.48"/>
<line x1="3544.630967" y1="1637.282531" x2="3711.785972" y2="1798.70224" stroke="black" stroke-width="6.48"/>
<line x1="3712.457905" y1="1798.690511" x2="3383.541356" y2="1804.095702" stroke="black" stroke-width="6.48"/>
<line x1="3544.972798" y1="1637.612633" x2="3551.026464" y2="1965.173584" stroke="black" stroke-width="6.48"/>
<line x1="3089.601562" y1="1589.315879" x2="3074.626764" y2="1616.331136" stroke="black" stroke-width="6.48"/>
<line x1="3074.626764" y1="1616.331136" x2="3257.914867" y2="1717.929389" stroke="black" stroke-width="6.48"/>
<line x1="3257.914867" y1="1717.929389" x2="3272.889668" y2="1690.914139" stroke="black" stroke-width="6.48"/>
<line x1="3272.889668" y1="1690.914139" x2="3089.601562" y2="1589.315879" stroke="black" stroke-width="6.48"/>
<line x1="2990.767882" y1="1767.616553" x2="2975.793084" y2="1794.63181" stroke="black" stroke-width="6.48"/>
<line x1="2975.793084" y1="1794.63181" x2="3159.081187" y2="1896.230063" stroke="black" stroke-width="6.48"/>
<line x1="3159.081187" y1="1896.230063" x2="3174.055988" y2="1869.21481" stroke="black" stroke-width="6.48"/>
<line x1="3174.055988" y1="1869.21481" x2="2990.767882" y2="1767.616553" stroke="black" stroke-width="6.48"/>
<line x1="3074.857146" y1="1615.915516" x2="2990.767882" y2="1767.616553" stroke="black" stroke-width="6.48"/>
<line x1="3257.544391" y1="1716.637388" x2="3267.502088" y2="1752.583054" stroke="black" stroke-width="6.48"/>
<line x1="3208.754794" y1="1858.56597" x2="3172.99437" y2="1869.169666" stroke="black" stroke-width="6.48"/>
<line x1="3268.423613" y1="1750.920577" x2="3207.833273" y2="1860.22845" stroke="black" stroke-width="6.48"/>
<line x1="3113.694976" y1="1637.987" x2="3029.605718" y2="1789.688038" stroke="black" stroke-width="6.48"/>
<line x1="1045.778936" y1="1695.948059" x2="939.487507" y2="1853.531492" stroke="black" stroke-width="6.48"/>
<line x1="939.487507" y1="1853.531492" x2="1323.991091" y2="2112.882566" stroke="black" stroke-width="6.48"/>
<line x1="1323.991091" y1="2112.882566" x2="1430.282516" y2="1955.299136" stroke="black" stroke-width="6.48"/>
<line x1="1430.282516" y1="1955.299136" x2="1410.584591" y2="1942.01271" stroke="black" stroke-width="6.48"/>
<line x1="1410.584591" y1="1942.01271" x2="1317.048138" y2="2080.686128" stroke="black" stroke-width="6.48"/>
<line x1="1317.048138" y1="2080.686128" x2="972.72833" y2="1848.439364" stroke="black" stroke-width="6.48"/>
<line x1="972.72833" y1="1848.439364" x2="1066.264783" y2="1709.765942" stroke="black" stroke-width="6.48"/>
<line x1="1066.264783" y1="1709.765942" x2="1045.778936" y2="1695.948059" stroke="black" stroke-width="6.48"/>
<line x1="1063.07604" y1="1714.493444" x2="1407.395848" y2="1946.740208" stroke="black" stroke-width="6.48"/>
<line x1="1235.373444" y1="1829.563178" x2="1145.025731" y2="1963.509102" stroke="black" stroke-width="6.48"/>
<line x1="5959.24582" y1="1415.873405" x2="5769.28161" y2="1409.23971" stroke="black" stroke-width="6.48"/>
<line x1="5769.28161" y1="1409.23971" x2="5753.095391" y2="1872.752378" stroke="black" stroke-width="6.48"/>
<line x1="5753.095391" y1="1872.752378" x2="5943.0596" y2="1879.386077" stroke="black" stroke-width="6.48"/>
<line x1="5943.0596" y1="1879.386077" x2="5943.888814" y2="1855.640549" stroke="black" stroke-width="6.48"/>
<line x1="5943.888814" y1="1855.640549" x2="5776.720308" y2="1849.802897" stroke="black" stroke-width="6.48"/>
<line x1="5776.720308" y1="1849.802897" x2="5791.214934" y2="1434.731101" stroke="black" stroke-width="6.48"/>
<line x1="5791.214934" y1="1434.731101" x2="5958.38344" y2="1440.568753" stroke="black" stroke-width="6.48"/>
<line x1="5958.38344" y1="1440.568753" x2="5959.24582" y2="1415.873405" stroke="black" stroke-width="6.48"/>
<line x1="5952.68451" y1="1440.369745" x2="5938.189888" y2="1855.441541" stroke="black" stroke-width="6.48"/>
<line x1="5946.403604" y1="1647.4639" x2="5784.934025" y2="1641.825256" stroke="black" stroke-width="6.48"/>
<line x1="6330.369366" y1="2273.332068" x2="6333.59804" y2="2304.050861" stroke="black" stroke-width="6.48"/>
<line x1="6333.59804" y1="2304.050861" x2="6542.013229" y2="2282.145538" stroke="black" stroke-width="6.48"/>
<line x1="6542.013229" y1="2282.145538" x2="6538.784555" y2="2251.426748" stroke="black" stroke-width="6.48"/>
<line x1="6538.784555" y1="2251.426748" x2="6330.369366" y2="2273.332068" stroke="black" stroke-width="6.48"/>
<line x1="6351.678619" y1="2476.076094" x2="6354.907297" y2="2506.794887" stroke="black" stroke-width="6.48"/>
<line x1="6354.907297" y1="2506.794887" x2="6563.32249" y2="2484.889567" stroke="black" stroke-width="6.48"/>
<line x1="6563.32249" y1="2484.889567" x2="6560.093812" y2="2454.170778" stroke="black" stroke-width="6.48"/>
<line x1="6560.093812" y1="2454.170778" x2="6351.678619" y2="2476.076094" stroke="black" stroke-width="6.48"/>
<line x1="6333.548368" y1="2303.57826" x2="6351.678619" y2="2476.076094" stroke="black" stroke-width="6.48"/>
<line x1="6540.968693" y1="2281.299689" x2="6569.743144" y2="2305.033153" stroke="black" stroke-width="6.48"/>
<line x1="6582.409484" y1="2425.545338" x2="6559.19829" y2="2454.742717" stroke="black" stroke-width="6.48"/>
<line x1="6569.544456" y1="2303.142768" x2="6582.608176" y2="2427.435727" stroke="black" stroke-width="6.48"/>
<line x1="6378.022141" y1="2299.3817" x2="6396.152389" y2="2471.879534" stroke="black" stroke-width="6.48"/>
<line x1="3840.070216" y1="1134.752281" x2="3838.453664" y2="1103.906614" stroke="black" stroke-width="6.48"/>
<line x1="3838.453664" y1="1103.906614" x2="3629.177665" y2="1114.874305" stroke="black" stroke-width="6.48"/>
<line x1="3629.177665" y1="1114.874305" x2="3630.794216" y2="1145.719973" stroke="black" stroke-width="6.48"/>
<line x1="3630.794216" y1="1145.719973" x2="3840.070216" y2="1134.752281" stroke="black" stroke-width="6.48"/>
<line x1="3829.400968" y1="931.17087" x2="3827.784416" y2="900.325199" stroke="black" stroke-width="6.48"/>
<line x1="3827.784416" y1="900.325199" x2="3618.508414" y2="911.292887" stroke="black" stroke-width="6.48"/>
<line x1="3618.508414" y1="911.292887" x2="3620.124965" y2="942.138562" stroke="black" stroke-width="6.48"/>
<line x1="3620.124965" y1="942.138562" x2="3829.400968" y2="931.17087" stroke="black" stroke-width="6.48"/>
<line x1="3838.478533" y1="1104.381162" x2="3829.400968" y2="931.17087" stroke="black" stroke-width="6.48"/>
<line x1="3630.176503" y1="1115.773661" x2="3602.683598" y2="1090.566785" stroke="black" stroke-width="6.48"/>
<line x1="3596.341738" y1="969.556853" x2="3621.049193" y2="941.614268" stroke="black" stroke-width="6.48"/>
<line x1="3602.783077" y1="1092.464978" x2="3596.242259" y2="967.658656" stroke="black" stroke-width="6.48"/>
<line x1="3793.846082" y1="1106.244396" x2="3784.768517" y2="933.034104" stroke="black" stroke-width="6.48"/>
<line x1="2978.832355" y1="2032.219847" x2="2907.62721" y2="2208.458984" stroke="black" stroke-width="6.48"/>
<line x1="2907.62721" y1="2208.458984" x2="3337.650706" y2="2382.199535" stroke="black" stroke-width="6.48"/>
<line x1="3337.650706" y1="2382.199535" x2="3408.855851" y2="2205.960397" stroke="black" stroke-width="6.48"/>
<line x1="3408.855851" y1="2205.960397" x2="3386.82596" y2="2197.059754" stroke="black" stroke-width="6.48"/>
<line x1="3386.82596" y1="2197.059754" x2="3324.165433" y2="2352.150198" stroke="black" stroke-width="6.48"/>
<line x1="3324.165433" y1="2352.150198" x2="2939.082916" y2="2196.566957" stroke="black" stroke-width="6.48"/>
<line x1="2939.082916" y1="2196.566957" x2="3001.743443" y2="2041.476516" stroke="black" stroke-width="6.48"/>
<line x1="3001.743443" y1="2041.476516" x2="2978.832355" y2="2032.219847" stroke="black" stroke-width="6.48"/>
<line x1="2999.607289" y1="2046.763688" x2="3384.689807" y2="2202.34693" stroke="black" stroke-width="6.48"/>
<line x1="3192.063973" y1="2123.496101" x2="3131.539603" y2="2273.299369" stroke="black" stroke-width="6.48"/>
<line x1="578.252131" y1="209.164842" x2="848.799331" y2="209.164842" stroke="black" stroke-width="6.48"/>
<line x1="848.799331" y1="209.164842" x2="848.799331" y2="341.112042" stroke="black" stroke-width="6.48"/>
<line x1="578.252131" y1="341.112042" x2="848.799331" y2="341.112042" stroke="black" stroke-width="6.48"/>
<line x1="578.252131" y1="209.164842" x2="578.252131" y2="341.112042" stroke="black" stroke-width="6.48"/>
<line x1="584.904931" y1="215.817642" x2="722.950531" y2="215.817642" stroke="black" stroke-width="6.48"/>
<line x1="722.950531" y1="215.817642" x2="722.950531" y2="333.904842" stroke="black" stroke-width="6.48"/>
<line x1="584.904931" y1="333.904842" x2="722.950531" y2="333.904842" stroke="black" stroke-width="6.48"/>
<line x1="584.904931" y1="215.817642" x2="584.904931" y2="333.904842" stroke="black" stroke-width="6.48"/>
<line x1="737.364931" y1="223.579242" x2="834.384931" y2="223.579242" stroke="black" stroke-width="6.48"/>
<line x1="737.364931" y1="244.092042" x2="834.384931" y2="244.092042" stroke="black" stroke-width="6.48"/>
<line x1="737.919331" y1="265.159242" x2="834.939331" y2="265.159242" stroke="black" stroke-width="6.48"/>
<line x1="737.919331" y1="285.672042" x2="834.939331" y2="285.672042" stroke="black" stroke-width="6.48"/>
<line x1="737.364931" y1="306.184842" x2="834.384931" y2="306.184842" stroke="black" stroke-width="6.48"/>
<line x1="737.364931" y1="326.697642" x2="834.384931" y2="326.697642" stroke="black" stroke-width="6.48"/>
<line x1="637.572931" y1="333.904842" x2="637.572931" y2="320.044842" stroke="black" stroke-width="6.48"/>
<line x1="637.572931" y1="320.044842" x2="671.945731" y2="320.044842" stroke="black" stroke-width="6.48"/>
<line x1="671.945731" y1="320.044842" x2="671.945731" y2="333.350442" stroke="black" stroke-width="6.48"/>
<circle cx="707.427331" cy="230.786442" r="8.316000000000003" fill="none" stroke="black" stroke-width="6.48"/>
<line x1="2309.386943" y1="2280.370727" x2="2340.105736" y2="2283.599408" stroke="black" stroke-width="6.48"/>
<line x1="2340.105736" y1="2283.599408" x2="2362.011106" y2="2075.184223" stroke="black" stroke-width="6.48"/>
<line x1="2362.011106" y1="2075.184223" x2="2331.292313" y2="2071.955542" stroke="black" stroke-width="6.48"/>
<line x1="2331.292313" y1="2071.955542" x2="2309.386943" y2="2280.370727" stroke="black" stroke-width="6.48"/>
<line x1="2512.130969" y1="2301.680034" x2="2542.849758" y2="2304.908716" stroke="black" stroke-width="6.48"/>
<line x1="2542.849758" y1="2304.908716" x2="2564.755128" y2="2096.49353" stroke="black" stroke-width="6.48"/>
<line x1="2564.755128" y1="2096.49353" x2="2534.036339" y2="2093.264849" stroke="black" stroke-width="6.48"/>
<line x1="2534.036339" y1="2093.264849" x2="2512.130969" y2="2301.680034" stroke="black" stroke-width="6.48"/>
<line x1="2339.633138" y1="2283.549736" x2="2512.130969" y2="2301.680034" stroke="black" stroke-width="6.48"/>
<line x1="2360.966569" y1="2076.030072" x2="2390.163952" y2="2052.818885" stroke="black" stroke-width="6.48"/>
<line x1="2510.676133" y1="2065.485254" x2="2534.40959" y2="2094.259712" stroke="black" stroke-width="6.48"/>
<line x1="2388.273563" y1="2052.620197" x2="2512.566518" y2="2065.683942" stroke="black" stroke-width="6.48"/>
<line x1="2344.774907" y1="2239.175311" x2="2517.272737" y2="2257.305606" stroke="black" stroke-width="6.48"/>
</g>
</svg>
