<?xml version="1.0"?>
<svg xmlns:xlink="http://www.w3.org/1999/xlink" width="6775.2" height="2858.4">
<image x="0" y="0" width="6775.2" height="2858.4" xlink:href="groundfilled-01.png"/>
<g style="stroke-linecap:round">
<line x1="1285.950406" y1="795.178109" x2="1311.346069" y2="795.178109" stroke="black" stroke-width="6.48"/>
<line x1="1311.346069" y1="795.178109" x2="1311.346069" y2="745.625592" stroke="black" stroke-width="6.48"/>
<line x1="1311.346069" y1="745.625592" x2="1285.950406" y2="745.625592" stroke="black" stroke-width="6.48"/>
<line x1="1285.950406" y1="745.625592" x2="1285.950406" y2="795.178109" stroke="black" stroke-width="6.48"/>
<line x1="1559.728062" y1="745.625592" x2="1559.728062" y2="498.48241" stroke="black" stroke-width="6.48"/>
<line x1="1560.347471" y1="796.416923" x2="1585.743134" y2="796.416923" stroke="black" stroke-width="6.48"/>
<line x1="1585.743134" y1="796.416923" x2="1585.743134" y2="746.864406" stroke="black" stroke-width="6.48"/>
<line x1="1585.743134" y1="746.864406" x2="1560.347471" y2="746.864406" stroke="black" stroke-width="6.48"/>
<line x1="1560.347471" y1="746.864406" x2="1560.347471" y2="796.416923" stroke="black" stroke-width="6.48"/>
<path d="m 1311.346069,747.483811 a 248.38199299999997,248.38199299999997 0 0 1 248.38199299999997,-248.38199299999997" fill="none" stroke="black" stroke-width="6.48"/>
<line x1="330.523178" y1="771.328966" x2="330.523178" y2="366.748985" stroke="black" stroke-width="6.48"/>
<line x1="330.523178" y1="366.748985" x2="258.15928" y2="366.748985" stroke="black" stroke-width="6.48"/>
<line x1="258.15928" y1="366.748985" x2="258.15928" y2="771.328966" stroke="black" stroke-width="6.48"/>
<line x1="258.15928" y1="771.328966" x2="330.523178" y2="771.328966" stroke="black" stroke-width="6.48"/>
<line x1="330.523178" y1="752.415674" x2="355.19269" y2="752.415674" stroke="black" stroke-width="6.48"/>
<line x1="355.19269" y1="752.415674" x2="355.19269" y2="386.484595" stroke="black" stroke-width="6.48"/>
<line x1="330.523178" y1="386.484595" x2="355.19269" y2="386.484595" stroke="black" stroke-width="6.48"/>
<line x1="3901.945176" y1="1169.331426" x2="3901.945176" y2="1428.837066" stroke="black" stroke-width="6.48"/>
<line x1="3901.945176" y1="1428.837066" x2="3941.9501" y2="1428.837066" stroke="black" stroke-width="6.48"/>
<line x1="3941.9501" y1="1428.837066" x2="3941.9501" y2="1169.331426" stroke="black" stroke-width="6.48"/>
<line x1="3941.9501" y1="1169.331426" x2="3901.945176" y2="1169.331426" stroke="black" stroke-width="6.48"/>
<line x1="3941.423719" y1="1193.544936" x2="3902.471557" y2="1193.544936" stroke="black" stroke-width="6.48"/>
<line x1="3941.423719" y1="1404.097178" x2="3900.892414" y2="1404.097178" stroke="black" stroke-width="6.48"/>
<line x1="3923.000399" y1="1193.018555" x2="3923.000399" y2="1403.570797" stroke="black" stroke-width="6.48"/>
<line x1="334.430687" y1="1882.943946" x2="334.430687" y2="1457.437414" stroke="black" stroke-width="6.48"/>
<line x1="334.430687" y1="1457.437414" x2="258.323828" y2="1457.437414" stroke="black" stroke-width="6.48"/>
<line x1="258.323828" y1="1457.437414" x2="258.323828" y2="1882.943946" stroke="black" stroke-width="6.48"/>
<line x1="258.323828" y1="1882.943946" x2="334.430687" y2="1882.943946" stroke="black" stroke-width="6.48"/>
<line x1="334.430687" y1="1863.05238" x2="360.376207" y2="1863.05238" stroke="black" stroke-width="6.48"/>
<line x1="360.376207" y1="1863.05238" x2="360.376207" y2="1478.193829" stroke="black" stroke-width="6.48"/>
<line x1="334.430687" y1="1478.193829" x2="360.376207" y2="1478.193829" stroke="black" stroke-width="6.48"/>
<line x1="2747.905531" y1="904.670665" x2="2721.68303" y2="904.670665" stroke="black" stroke-width="6.48"/>
<line x1="2721.68303" y1="904.670665" x2="2721.68303" y2="955.836522" stroke="black" stroke-width="6.48"/>
<line x1="2721.68303" y1="955.836522" x2="2747.905531" y2="955.836522" stroke="black" stroke-width="6.48"/>
<line x1="2747.905531" y1="955.836522" x2="2747.905531" y2="904.670665" stroke="black" stroke-width="6.48"/>
<line x1="2465.214181" y1="955.836522" x2="2465.214181" y2="1211.026223" stroke="black" stroke-width="6.48"/>
<line x1="2464.574609" y1="903.39152" x2="2438.352108" y2="903.39152" stroke="black" stroke-width="6.48"/>
<line x1="2438.352108" y1="903.39152" x2="2438.352108" y2="954.557374" stroke="black" stroke-width="6.48"/>
<line x1="2438.352108" y1="954.557374" x2="2464.574609" y2="954.557374" stroke="black" stroke-width="6.48"/>
<line x1="2464.574609" y1="954.557374" x2="2464.574609" y2="903.39152" stroke="black" stroke-width="6.48"/>
<path d="m 2721.68303,953.917801 a 256.4688490000001,256.4688490000001 0 0 1 -256.4688490000003,256.46884899999986" fill="none" stroke="black" stroke-width="6.48"/>
<line x1="2420.532389" y1="1427.858834" x2="2395.136725" y2="1427.858834" stroke="black" stroke-width="6.48"/>
<line x1="2395.136725" y1="1427.858834" x2="2395.136725" y2="1477.411351" stroke="black" stroke-width="6.48"/>
<line x1="2395.136725" y1="1477.411351" x2="2420.532389" y2="1477.411351" stroke="black" stroke-width="6.48"/>
<line x1="2420.532389" y1="1477.411351" x2="2420.532389" y2="1427.858834" stroke="black" stroke-width="6.48"/>
<line x1="2146.754732" y1="1477.411351" x2="2146.754732" y2="1724.554534" stroke="black" stroke-width="6.48"/>
<line x1="2146.135324" y1="1426.62002" x2="2120.73966" y2="1426.62002" stroke="black" stroke-width="6.48"/>
<line x1="2120.73966" y1="1426.62002" x2="2120.73966" y2="1476.172537" stroke="black" stroke-width="6.48"/>
<line x1="2120.73966" y1="1476.172537" x2="2146.135324" y2="1476.172537" stroke="black" stroke-width="6.48"/>
<line x1="2146.135324" y1="1476.172537" x2="2146.135324" y2="1426.62002" stroke="black" stroke-width="6.48"/>
<path d="m 2395.136725,1475.553132 a 248.38199299999997,248.38199299999997 0 0 1 -248.38199299999997,248.38199299999997" fill="none" stroke="black" stroke-width="6.48"/>
<line x1="736.069943" y1="692.136151" x2="1128.901943" y2="692.136151" stroke="black" stroke-width="6.48"/>
<line x1="1128.901943" y1="692.136151" x2="1128.901943" y2="507.600151" stroke="black" stroke-width="6.48"/>
<line x1="1128.901943" y1="507.600151" x2="736.069943" y2="507.600151" stroke="black" stroke-width="6.48"/>
<line x1="736.069943" y1="507.600151" x2="736.069943" y2="692.136151" stroke="black" stroke-width="6.48"/>
<line x1="895.261943" y1="507.600151" x2="895.261943" y2="426.816151" stroke="black" stroke-width="6.48"/>
<line x1="895.261943" y1="426.816151" x2="816.853943" y2="426.816151" stroke="black" stroke-width="6.48"/>
<line x1="816.853943" y1="426.816151" x2="816.853943" y2="507.600151" stroke="black" stroke-width="6.48"/>
<line x1="817.645943" y1="444.240151" x2="895.261943" y2="444.240151" stroke="black" stroke-width="6.48"/>
<line x1="816.853943" y1="773.712151" x2="895.261943" y2="773.712151" stroke="black" stroke-width="6.48"/>
<line x1="895.261943" y1="773.712151" x2="895.261943" y2="692.136151" stroke="black" stroke-width="6.48"/>
<line x1="816.853943" y1="692.136151" x2="816.853943" y2="773.712151" stroke="black" stroke-width="6.48"/>
<line x1="817.645943" y1="756.288151" x2="895.261943" y2="756.288151" stroke="black" stroke-width="6.48"/>
<line x1="1046.533943" y1="507.600151" x2="1046.533943" y2="426.816151" stroke="black" stroke-width="6.48"/>
<line x1="1046.533943" y1="426.816151" x2="968.125943" y2="426.816151" stroke="black" stroke-width="6.48"/>
<line x1="968.125943" y1="426.816151" x2="968.125943" y2="507.600151" stroke="black" stroke-width="6.48"/>
<line x1="968.125943" y1="444.240151" x2="1046.533943" y2="444.240151" stroke="black" stroke-width="6.48"/>
<line x1="968.125943" y1="773.712151" x2="1046.533943" y2="773.712151" stroke="black" stroke-width="6.48"/>
<line x1="1046.533943" y1="773.712151" x2="1046.533943" y2="692.136151" stroke="black" stroke-width="6.48"/>
<line x1="968.125943" y1="692.136151" x2="968.125943" y2="773.712151" stroke="black" stroke-width="6.48"/>
<line x1="968.125943" y1="756.288151" x2="1046.533943" y2="756.288151" stroke="black" stroke-width="6.48"/>
<line x1="2032.924367" y1="1762.161458" x2="2032.924367" y2="1731.273458" stroke="black" stroke-width="6.48"/>
<line x1="2032.924367" y1="1731.273458" x2="1823.361167" y2="1731.273458" stroke="black" stroke-width="6.48"/>
<line x1="1823.361167" y1="1731.273458" x2="1823.361167" y2="1762.161458" stroke="black" stroke-width="6.48"/>
<line x1="1823.361167" y1="1762.161458" x2="2032.924367" y2="1762.161458" stroke="black" stroke-width="6.48"/>
<line x1="2032.924367" y1="1558.300658" x2="2032.924367" y2="1527.412658" stroke="black" stroke-width="6.48"/>
<line x1="2032.924367" y1="1527.412658" x2="1823.361167" y2="1527.412658" stroke="black" stroke-width="6.48"/>
<line x1="1823.361167" y1="1527.412658" x2="1823.361167" y2="1558.300658" stroke="black" stroke-width="6.48"/>
<line x1="1823.361167" y1="1558.300658" x2="2032.924367" y2="1558.300658" stroke="black" stroke-width="6.48"/>
<line x1="2032.924367" y1="1731.748658" x2="2032.924367" y2="1558.300658" stroke="black" stroke-width="6.48"/>
<line x1="1824.311567" y1="1732.223858" x2="1798.175567" y2="1705.612658" stroke="black" stroke-width="6.48"/>
<line x1="1798.175567" y1="1584.436658" x2="1824.311567" y2="1557.825458" stroke="black" stroke-width="6.48"/>
<line x1="1798.175567" y1="1707.513458" x2="1798.175567" y2="1582.535858" stroke="black" stroke-width="6.48"/>
<line x1="1988.255567" y1="1731.273458" x2="1988.255567" y2="1557.825458" stroke="black" stroke-width="6.48"/>
<line x1="1485.415969" y1="209.267824" x2="1707.693134" y2="209.267824" stroke="black" stroke-width="6.48"/>
<line x1="1707.693134" y1="209.267824" x2="1707.693134" y2="432.000475" stroke="black" stroke-width="6.48"/>
<line x1="1707.693134" y1="432.000475" x2="1485.415969" y2="432.000475" stroke="black" stroke-width="6.48"/>
<line x1="1485.415969" y1="432.000475" x2="1485.415969" y2="209.267824" stroke="black" stroke-width="6.48"/>
<line x1="1484.960483" y1="208.812337" x2="1707.693134" y2="432.000475" stroke="black" stroke-width="6.48"/>
<line x1="1485.415969" y1="431.544989" x2="1707.237648" y2="209.267824" stroke="black" stroke-width="6.48"/>
<line x1="2761.020558" y1="2194.614338" x2="2761.020558" y2="1803.366338" stroke="black" stroke-width="6.48"/>
<line x1="2761.020558" y1="1803.366338" x2="2586.780558" y2="1803.366338" stroke="black" stroke-width="6.48"/>
<line x1="2586.780558" y1="1803.366338" x2="2586.780558" y2="2194.614338" stroke="black" stroke-width="6.48"/>
<line x1="2586.780558" y1="2194.614338" x2="2761.020558" y2="2194.614338" stroke="black" stroke-width="6.48"/>
<line x1="2613.708558" y1="1878.606338" x2="2613.708558" y2="2162.934338" stroke="black" stroke-width="6.48"/>
<line x1="2613.708558" y1="2162.934338" x2="2731.716558" y2="2162.934338" stroke="black" stroke-width="6.48"/>
<line x1="2731.716558" y1="2162.934338" x2="2731.716558" y2="1873.062338" stroke="black" stroke-width="6.48"/>
<path d="m 2613.453134,1879.416911 a 63.3599990854681,63.3599990854681 0 0 1 119.3743300000001,-4.293814000000111" fill="none" stroke="black" stroke-width="6.48"/>
<line x1="2105.56318" y1="1875.601361" x2="2105.56318" y2="2059.345361" stroke="black" stroke-width="6.48"/>
<line x1="2105.56318" y1="2059.345361" x2="2056.45918" y2="2059.345361" stroke="black" stroke-width="6.48"/>
<line x1="2056.45918" y1="1875.601361" x2="2056.45918" y2="2059.345361" stroke="black" stroke-width="6.48"/>
<line x1="2105.56318" y1="1875.601361" x2="2056.45918" y2="1875.601361" stroke="black" stroke-width="6.48"/>
<line x1="2133.28318" y1="1917.181361" x2="2105.56318" y2="1917.181361" stroke="black" stroke-width="6.48"/>
<line x1="2105.56318" y1="2016.181361" x2="2134.86718" y2="2016.181361" stroke="black" stroke-width="6.48"/>
<circle cx="2178.42718" cy="1965.889361" r="66.52800000000002" fill="none" stroke="black" stroke-width="6.48"/>
<circle cx="2178.42718" cy="1965.889361" r="57.02400000000001" fill="none" stroke="black" stroke-width="6.48"/>
<line x1="524.465946" y1="209.033338" x2="795.013146" y2="209.033338" stroke="black" stroke-width="6.48"/>
<line x1="795.013146" y1="209.033338" x2="795.013146" y2="340.980538" stroke="black" stroke-width="6.48"/>
<line x1="524.465946" y1="340.980538" x2="795.013146" y2="340.980538" stroke="black" stroke-width="6.48"/>
<line x1="524.465946" y1="209.033338" x2="524.465946" y2="340.980538" stroke="black" stroke-width="6.48"/>
<line x1="531.118746" y1="215.686138" x2="669.164346" y2="215.686138" stroke="black" stroke-width="6.48"/>
<line x1="669.164346" y1="215.686138" x2="669.164346" y2="333.773338" stroke="black" stroke-width="6.48"/>
<line x1="531.118746" y1="333.773338" x2="669.164346" y2="333.773338" stroke="black" stroke-width="6.48"/>
<line x1="531.118746" y1="215.686138" x2="531.118746" y2="333.773338" stroke="black" stroke-width="6.48"/>
<line x1="683.578746" y1="223.447738" x2="780.598746" y2="223.447738" stroke="black" stroke-width="6.48"/>
<line x1="683.578746" y1="243.960538" x2="780.598746" y2="243.960538" stroke="black" stroke-width="6.48"/>
<line x1="684.133146" y1="265.027738" x2="781.153146" y2="265.027738" stroke="black" stroke-width="6.48"/>
<line x1="684.133146" y1="285.540538" x2="781.153146" y2="285.540538" stroke="black" stroke-width="6.48"/>
<line x1="683.578746" y1="306.053338" x2="780.598746" y2="306.053338" stroke="black" stroke-width="6.48"/>
<line x1="683.578746" y1="326.566138" x2="780.598746" y2="326.566138" stroke="black" stroke-width="6.48"/>
<line x1="583.786746" y1="333.773338" x2="583.786746" y2="319.913338" stroke="black" stroke-width="6.48"/>
<line x1="583.786746" y1="319.913338" x2="618.159546" y2="319.913338" stroke="black" stroke-width="6.48"/>
<line x1="618.159546" y1="319.913338" x2="618.159546" y2="333.218938" stroke="black" stroke-width="6.48"/>
<circle cx="653.641146" cy="230.654938" r="8.316000000000003" fill="none" stroke="black" stroke-width="6.48"/>
<line x1="989.854013" y1="1017.843959" x2="599.173988" y2="976.781833" stroke="black" stroke-width="6.48"/>
<line x1="599.173988" y1="976.781833" x2="579.884724" y2="1160.306924" stroke="black" stroke-width="6.48"/>
<line x1="579.884724" y1="1160.306924" x2="970.564748" y2="1201.36905" stroke="black" stroke-width="6.48"/>
<line x1="970.564748" y1="1201.36905" x2="989.854013" y2="1017.843959" stroke="black" stroke-width="6.48"/>
<line x1="812.24482" y1="1184.728957" x2="803.800591" y2="1265.070413" stroke="black" stroke-width="6.48"/>
<line x1="803.800591" y1="1265.070413" x2="881.779068" y2="1273.266281" stroke="black" stroke-width="6.48"/>
<line x1="881.779068" y1="1273.266281" x2="890.223293" y2="1192.924822" stroke="black" stroke-width="6.48"/>
<line x1="882.812707" y1="1255.854946" x2="805.621896" y2="1247.741863" stroke="black" stroke-width="6.48"/>
<line x1="918.039571" y1="928.270613" x2="840.061094" y2="920.074745" stroke="black" stroke-width="6.48"/>
<line x1="840.061094" y1="920.074745" x2="831.534084" y2="1001.203862" stroke="black" stroke-width="6.48"/>
<line x1="909.512557" y1="1009.39973" x2="918.039571" y2="928.270613" stroke="black" stroke-width="6.48"/>
<line x1="915.430604" y1="945.516377" x2="838.239793" y2="937.403294" stroke="black" stroke-width="6.48"/>
<line x1="661.801504" y1="1168.916724" x2="653.357279" y2="1249.258183" stroke="black" stroke-width="6.48"/>
<line x1="653.357279" y1="1249.258183" x2="731.335748" y2="1257.454051" stroke="black" stroke-width="6.48"/>
<line x1="731.335748" y1="1257.454051" x2="739.779977" y2="1177.112596" stroke="black" stroke-width="6.48"/>
<line x1="733.15705" y1="1240.125502" x2="655.17858" y2="1231.929634" stroke="black" stroke-width="6.48"/>
<line x1="767.596252" y1="912.458383" x2="689.617782" y2="904.262515" stroke="black" stroke-width="6.48"/>
<line x1="689.617782" y1="904.262515" x2="681.090768" y2="985.391633" stroke="black" stroke-width="6.48"/>
<line x1="759.069241" y1="993.587504" x2="767.596252" y2="912.458383" stroke="black" stroke-width="6.48"/>
<line x1="765.77495" y1="929.786933" x2="687.796477" y2="921.591065" stroke="black" stroke-width="6.48"/>
<line x1="2044.889399" y1="955.822399" x2="2267.166564" y2="955.822399" stroke="black" stroke-width="6.48"/>
<line x1="2267.166564" y1="955.822399" x2="2267.166564" y2="1178.555051" stroke="black" stroke-width="6.48"/>
<line x1="2267.166564" y1="1178.555051" x2="2044.889399" y2="1178.555051" stroke="black" stroke-width="6.48"/>
<line x1="2044.889399" y1="1178.555051" x2="2044.889399" y2="955.822399" stroke="black" stroke-width="6.48"/>
<line x1="2044.433912" y1="955.366913" x2="2267.166564" y2="1178.555051" stroke="black" stroke-width="6.48"/>
<line x1="2044.889399" y1="1178.099564" x2="2266.711078" y2="955.822399" stroke="black" stroke-width="6.48"/>
<line x1="333.766206" y1="1375.361078" x2="333.766206" y2="949.854546" stroke="black" stroke-width="6.48"/>
<line x1="333.766206" y1="949.854546" x2="257.659348" y2="949.854546" stroke="black" stroke-width="6.48"/>
<line x1="257.659348" y1="949.854546" x2="257.659348" y2="1375.361078" stroke="black" stroke-width="6.48"/>
<line x1="257.659348" y1="1375.361078" x2="333.766206" y2="1375.361078" stroke="black" stroke-width="6.48"/>
<line x1="333.766206" y1="1355.469512" x2="359.711726" y2="1355.469512" stroke="black" stroke-width="6.48"/>
<line x1="359.711726" y1="1355.469512" x2="359.711726" y2="970.610962" stroke="black" stroke-width="6.48"/>
<line x1="333.766206" y1="970.610962" x2="359.711726" y2="970.610962" stroke="black" stroke-width="6.48"/>
<line x1="3874.406537" y1="1514.726719" x2="3874.406537" y2="1940.260162" stroke="black" stroke-width="6.48"/>
<line x1="3874.406537" y1="1940.260162" x2="3940.00601" y2="1940.260162" stroke="black" stroke-width="6.48"/>
<line x1="3940.00601" y1="1940.260162" x2="3940.00601" y2="1514.726719" stroke="black" stroke-width="6.48"/>
<line x1="3940.00601" y1="1514.726719" x2="3874.406537" y2="1514.726719" stroke="black" stroke-width="6.48"/>
<line x1="3939.14286" y1="1554.431663" x2="3875.269687" y2="1554.431663" stroke="black" stroke-width="6.48"/>
<line x1="3939.14286" y1="1899.692064" x2="3872.680232" y2="1899.692064" stroke="black" stroke-width="6.48"/>
<line x1="3908.932574" y1="1553.568512" x2="3908.932574" y2="1898.828914" stroke="black" stroke-width="6.48"/>
<line x1="4829.325505" y1="1188.991055" x2="4566.469594" y2="1480.922125" stroke="black" stroke-width="6.48"/>
<line x1="4566.469594" y1="1480.922125" x2="4703.606561" y2="1604.400811" stroke="black" stroke-width="6.48"/>
<line x1="4703.606561" y1="1604.400811" x2="4966.46248" y2="1312.469741" stroke="black" stroke-width="6.48"/>
<line x1="4966.46248" y1="1312.469741" x2="4829.325505" y2="1188.991055" stroke="black" stroke-width="6.48"/>
<line x1="4859.942238" y1="1430.772451" x2="4919.976454" y2="1484.827502" stroke="black" stroke-width="6.48"/>
<line x1="4919.976454" y1="1484.827502" x2="4972.441644" y2="1426.559" stroke="black" stroke-width="6.48"/>
<line x1="4972.441644" y1="1426.559" x2="4912.407432" y2="1372.503953" stroke="black" stroke-width="6.48"/>
<line x1="4958.963136" y1="1415.488637" x2="4907.027894" y2="1473.168568" stroke="black" stroke-width="6.48"/>
<line x1="4714.647674" y1="1194.44027" x2="4662.182484" y2="1252.708769" stroke="black" stroke-width="6.48"/>
<line x1="4662.182484" y1="1252.708769" x2="4722.805264" y2="1307.293765" stroke="black" stroke-width="6.48"/>
<line x1="4775.270458" y1="1249.02527" x2="4714.647674" y2="1194.44027" stroke="black" stroke-width="6.48"/>
<line x1="4727.066281" y1="1206.687773" x2="4675.13104" y2="1264.3677" stroke="black" stroke-width="6.48"/>
<line x1="4758.721513" y1="1543.189457" x2="4818.755729" y2="1597.244504" stroke="black" stroke-width="6.48"/>
<line x1="4818.755729" y1="1597.244504" x2="4871.220919" y2="1538.976002" stroke="black" stroke-width="6.48"/>
<line x1="4871.220919" y1="1538.976002" x2="4811.186707" y2="1484.920958" stroke="black" stroke-width="6.48"/>
<line x1="4858.27236" y1="1527.317075" x2="4805.80717" y2="1585.58557" stroke="black" stroke-width="6.48"/>
<line x1="4613.426953" y1="1306.857272" x2="4560.961759" y2="1365.125774" stroke="black" stroke-width="6.48"/>
<line x1="4560.961759" y1="1365.125774" x2="4621.584539" y2="1419.710771" stroke="black" stroke-width="6.48"/>
<line x1="4674.049733" y1="1361.442272" x2="4613.426953" y2="1306.857272" stroke="black" stroke-width="6.48"/>
<line x1="4626.375505" y1="1318.516204" x2="4573.910315" y2="1376.784706" stroke="black" stroke-width="6.48"/>
<line x1="3041.937065" y1="1074.11081" x2="3251.302268" y2="1074.11081" stroke="black" stroke-width="6.48"/>
<line x1="3251.302268" y1="1074.11081" x2="3251.302268" y2="742.896407" stroke="black" stroke-width="6.48"/>
<line x1="3251.302268" y1="742.896407" x2="3041.937065" y2="742.896407" stroke="black" stroke-width="6.48"/>
<line x1="3041.937065" y1="742.896407" x2="3041.937065" y2="1074.11081" stroke="black" stroke-width="6.48"/>
<line x1="3041.263865" y1="802.138007" x2="3251.975465" y2="802.138007" stroke="black" stroke-width="6.48"/>
<line x1="3251.975465" y1="802.138007" x2="3042.610265" y2="851.95481" stroke="black" stroke-width="6.48"/>
<line x1="3042.610265" y1="851.95481" x2="3074.250668" y2="898.40561" stroke="black" stroke-width="6.48"/>
<line x1="3074.250668" y1="898.40561" x2="3251.975465" y2="801.46481" stroke="black" stroke-width="6.48"/>
<line x1="3420.281128" y1="1203.092442" x2="3642.558293" y2="1203.092442" stroke="black" stroke-width="6.48"/>
<line x1="3642.558293" y1="1203.092442" x2="3642.558293" y2="1425.825094" stroke="black" stroke-width="6.48"/>
<line x1="3642.558293" y1="1425.825094" x2="3420.281128" y2="1425.825094" stroke="black" stroke-width="6.48"/>
<line x1="3420.281128" y1="1425.825094" x2="3420.281128" y2="1203.092442" stroke="black" stroke-width="6.48"/>
<line x1="3419.825641" y1="1202.636956" x2="3642.558293" y2="1425.825094" stroke="black" stroke-width="6.48"/>
<line x1="3420.281128" y1="1425.369607" x2="3642.102806" y2="1203.092442" stroke="black" stroke-width="6.48"/>
<line x1="2804.16708" y1="1127.69402" x2="2804.16708" y2="1153.148746" stroke="black" stroke-width="6.48"/>
<line x1="2804.16708" y1="1153.148746" x2="2853.834836" y2="1153.148746" stroke="black" stroke-width="6.48"/>
<line x1="2853.834836" y1="1153.148746" x2="2853.834836" y2="1127.69402" stroke="black" stroke-width="6.48"/>
<line x1="2853.834836" y1="1127.69402" x2="2804.16708" y2="1127.69402" stroke="black" stroke-width="6.48"/>
<line x1="2853.834836" y1="1402.108373" x2="3101.55277" y2="1402.108373" stroke="black" stroke-width="6.48"/>
<line x1="2802.925386" y1="1402.729218" x2="2802.925386" y2="1428.183943" stroke="black" stroke-width="6.48"/>
<line x1="2802.925386" y1="1428.183943" x2="2852.593142" y2="1428.183943" stroke="black" stroke-width="6.48"/>
<line x1="2852.593142" y1="1428.183943" x2="2852.593142" y2="1402.729218" stroke="black" stroke-width="6.48"/>
<line x1="2852.593142" y1="1402.729218" x2="2802.925386" y2="1402.729218" stroke="black" stroke-width="6.48"/>
<path d="m 2851.972294,1153.148746 a 248.95962699999984,248.95962699999984 0 0 1 248.95962699999973,248.95962699999995" fill="none" stroke="black" stroke-width="6.48"/>
<line x1="2931.602026" y1="2009.428466" x2="2860.39688" y2="2185.667604" stroke="black" stroke-width="6.48"/>
<line x1="2860.39688" y1="2185.667604" x2="3290.420376" y2="2359.408154" stroke="black" stroke-width="6.48"/>
<line x1="3290.420376" y1="2359.408154" x2="3361.625521" y2="2183.169017" stroke="black" stroke-width="6.48"/>
<line x1="3361.625521" y1="2183.169017" x2="3339.595631" y2="2174.268373" stroke="black" stroke-width="6.48"/>
<line x1="3339.595631" y1="2174.268373" x2="3276.935104" y2="2329.358818" stroke="black" stroke-width="6.48"/>
<line x1="3276.935104" y1="2329.358818" x2="2891.852586" y2="2173.775576" stroke="black" stroke-width="6.48"/>
<line x1="2891.852586" y1="2173.775576" x2="2954.513113" y2="2018.685136" stroke="black" stroke-width="6.48"/>
<line x1="2954.513113" y1="2018.685136" x2="2931.602026" y2="2009.428466" stroke="black" stroke-width="6.48"/>
<line x1="2952.37696" y1="2023.972308" x2="3337.459477" y2="2179.555549" stroke="black" stroke-width="6.48"/>
<line x1="3144.833644" y1="2100.70472" x2="3084.309274" y2="2250.507989" stroke="black" stroke-width="6.48"/>
<line x1="3402.12159" y1="1726.72929" x2="3622.669315" y2="1655.06899" stroke="black" stroke-width="6.48"/>
<line x1="3622.669315" y1="1655.06899" x2="3694.476456" y2="1876.068655" stroke="black" stroke-width="6.48"/>
<line x1="3694.476456" y1="1876.068655" x2="3473.928734" y2="1947.728959" stroke="black" stroke-width="6.48"/>
<line x1="3473.928734" y1="1947.728959" x2="3402.12159" y2="1726.72929" stroke="black" stroke-width="6.48"/>
<line x1="3401.522802" y1="1726.42419" x2="3694.476456" y2="1876.068655" stroke="black" stroke-width="6.48"/>
<line x1="3473.781887" y1="1947.277015" x2="3622.217371" y2="1655.215837" stroke="black" stroke-width="6.48"/>
<line x1="3066.685171" y1="1589.315879" x2="3055.615902" y2="1618.152311" stroke="black" stroke-width="6.48"/>
<line x1="3055.615902" y1="1618.152311" x2="3251.260004" y2="1693.253045" stroke="black" stroke-width="6.48"/>
<line x1="3251.260004" y1="1693.253045" x2="3262.329274" y2="1664.416613" stroke="black" stroke-width="6.48"/>
<line x1="3262.329274" y1="1664.416613" x2="3066.685171" y2="1589.315879" stroke="black" stroke-width="6.48"/>
<line x1="2993.627995" y1="1779.63633" x2="2982.558726" y2="1808.472762" stroke="black" stroke-width="6.48"/>
<line x1="2982.558726" y1="1808.472762" x2="3178.202828" y2="1883.573496" stroke="black" stroke-width="6.48"/>
<line x1="3178.202828" y1="1883.573496" x2="3189.272098" y2="1854.737068" stroke="black" stroke-width="6.48"/>
<line x1="3189.272098" y1="1854.737068" x2="2993.627995" y2="1779.63633" stroke="black" stroke-width="6.48"/>
<line x1="3055.7862" y1="1617.708672" x2="2993.627995" y2="1779.63633" stroke="black" stroke-width="6.48"/>
<line x1="3250.713323" y1="1692.025175" x2="3265.57678" y2="1726.235176" stroke="black" stroke-width="6.48"/>
<line x1="3222.151186" y1="1839.362717" x2="3188.214526" y2="1854.84011" stroke="black" stroke-width="6.48"/>
<line x1="3266.257964" y1="1724.460631" x2="3221.469997" y2="1841.137268" stroke="black" stroke-width="6.48"/>
<line x1="3097.31782" y1="1634.160175" x2="3035.159615" y2="1796.087833" stroke="black" stroke-width="6.48"/>
<line x1="1442.97931" y1="2005.595665" x2="1465.933561" y2="2026.263776" stroke="black" stroke-width="6.48"/>
<line x1="1465.933561" y1="2026.263776" x2="1606.158752" y2="1870.528003" stroke="black" stroke-width="6.48"/>
<line x1="1606.158752" y1="1870.528003" x2="1583.204501" y2="1849.859892" stroke="black" stroke-width="6.48"/>
<line x1="1583.204501" y1="1849.859892" x2="1442.97931" y2="2005.595665" stroke="black" stroke-width="6.48"/>
<line x1="1594.477375" y1="2142.005202" x2="1617.43163" y2="2162.673317" stroke="black" stroke-width="6.48"/>
<line x1="1617.43163" y1="2162.673317" x2="1757.656814" y2="2006.937544" stroke="black" stroke-width="6.48"/>
<line x1="1757.656814" y1="2006.937544" x2="1734.702566" y2="1986.269429" stroke="black" stroke-width="6.48"/>
<line x1="1734.702566" y1="1986.269429" x2="1594.477375" y2="2142.005202" stroke="black" stroke-width="6.48"/>
<line x1="1465.580419" y1="2025.945806" x2="1594.477375" y2="2142.005202" stroke="black" stroke-width="6.48"/>
<line x1="1604.816525" y1="1870.598347" x2="1642.080899" y2="1868.98189" stroke="black" stroke-width="6.48"/>
<line x1="1732.132195" y1="1950.064484" x2="1734.419761" y2="1987.293686" stroke="black" stroke-width="6.48"/>
<line x1="1640.668331" y1="1867.710006" x2="1733.544763" y2="1951.336368" stroke="black" stroke-width="6.48"/>
<line x1="1495.822831" y1="1993.068396" x2="1624.719784" y2="2109.127799" stroke="black" stroke-width="6.48"/>
<line x1="6167.090984" y1="1742.187654" x2="5984.37436" y2="1794.580801" stroke="black" stroke-width="6.48"/>
<line x1="5984.37436" y1="1794.580801" x2="6112.213643" y2="2240.409362" stroke="black" stroke-width="6.48"/>
<line x1="6112.213643" y1="2240.409362" x2="6294.930264" y2="2188.016215" stroke="black" stroke-width="6.48"/>
<line x1="6294.930264" y1="2188.016215" x2="6288.381122" y2="2165.176638" stroke="black" stroke-width="6.48"/>
<line x1="6288.381122" y1="2165.176638" x2="6127.590492" y2="2211.282605" stroke="black" stroke-width="6.48"/>
<line x1="6127.590492" y1="2211.282605" x2="6013.111464" y2="1812.046784" stroke="black" stroke-width="6.48"/>
<line x1="6013.111464" y1="1812.046784" x2="6173.902091" y2="1765.940814" stroke="black" stroke-width="6.48"/>
<line x1="6173.902091" y1="1765.940814" x2="6167.090984" y2="1742.187654" stroke="black" stroke-width="6.48"/>
<line x1="6168.420594" y1="1767.51261" x2="6282.899622" y2="2166.74843" stroke="black" stroke-width="6.48"/>
<line x1="6226.442712" y1="1966.411764" x2="6071.133582" y2="2010.945938" stroke="black" stroke-width="6.48"/>
<line x1="2297.147627" y1="2278.4801" x2="2327.86642" y2="2281.708782" stroke="black" stroke-width="6.48"/>
<line x1="2327.86642" y1="2281.708782" x2="2349.77179" y2="2073.293597" stroke="black" stroke-width="6.48"/>
<line x1="2349.77179" y1="2073.293597" x2="2319.052997" y2="2070.064915" stroke="black" stroke-width="6.48"/>
<line x1="2319.052997" y1="2070.064915" x2="2297.147627" y2="2278.4801" stroke="black" stroke-width="6.48"/>
<line x1="2499.891653" y1="2299.789408" x2="2530.610442" y2="2303.018089" stroke="black" stroke-width="6.48"/>
<line x1="2530.610442" y1="2303.018089" x2="2552.515812" y2="2094.602904" stroke="black" stroke-width="6.48"/>
<line x1="2552.515812" y1="2094.602904" x2="2521.797023" y2="2091.374222" stroke="black" stroke-width="6.48"/>
<line x1="2521.797023" y1="2091.374222" x2="2499.891653" y2="2299.789408" stroke="black" stroke-width="6.48"/>
<line x1="2327.393822" y1="2281.659109" x2="2499.891653" y2="2299.789408" stroke="black" stroke-width="6.48"/>
<line x1="2348.727253" y1="2074.139446" x2="2377.924636" y2="2050.928258" stroke="black" stroke-width="6.48"/>
<line x1="2498.436817" y1="2063.594628" x2="2522.170274" y2="2092.369086" stroke="black" stroke-width="6.48"/>
<line x1="2376.034247" y1="2050.729571" x2="2500.327202" y2="2063.793316" stroke="black" stroke-width="6.48"/>
<line x1="2332.535591" y1="2237.284685" x2="2505.033421" y2="2255.41498" stroke="black" stroke-width="6.48"/>
<line x1="3840.070219" y1="1099.888711" x2="3830.014066" y2="1070.683535" stroke="black" stroke-width="6.48"/>
<line x1="3830.014066" y1="1070.683535" x2="3631.868168" y2="1138.910638" stroke="black" stroke-width="6.48"/>
<line x1="3631.868168" y1="1138.910638" x2="3641.924318" y2="1168.115814" stroke="black" stroke-width="6.48"/>
<line x1="3641.924318" y1="1168.115814" x2="3840.070219" y2="1099.888711" stroke="black" stroke-width="6.48"/>
<line x1="3773.699633" y1="907.134534" x2="3763.643486" y2="877.929361" stroke="black" stroke-width="6.48"/>
<line x1="3763.643486" y1="877.929361" x2="3565.497586" y2="946.156464" stroke="black" stroke-width="6.48"/>
<line x1="3565.497586" y1="946.156464" x2="3575.553732" y2="975.36164" stroke="black" stroke-width="6.48"/>
<line x1="3575.553732" y1="975.36164" x2="3773.699633" y2="907.134534" stroke="black" stroke-width="6.48"/>
<line x1="3830.168776" y1="1071.132844" x2="3773.699633" y2="907.134534" stroke="black" stroke-width="6.48"/>
<line x1="3633.07621" y1="1139.499839" x2="3599.700376" y2="1122.847506" stroke="black" stroke-width="6.48"/>
<line x1="3560.249329" y1="1008.273344" x2="3576.297647" y2="974.602912" stroke="black" stroke-width="6.48"/>
<line x1="3600.319216" y1="1124.644748" x2="3559.630489" y2="1006.476102" stroke="black" stroke-width="6.48"/>
<line x1="3787.778887" y1="1085.226275" x2="3731.309744" y2="921.227965" stroke="black" stroke-width="6.48"/>
</g>
</svg>
