<?xml version="1.0"?>
<svg xmlns:xlink="http://www.w3.org/1999/xlink" width="6775.2" height="2858.4">
<image x="0" y="0" width="6775.2" height="2858.4" xlink:href="groundfilled-01.png"/>
<g style="stroke-linecap:round">
<line x1="1285.950406" y1="795.178109" x2="1311.346069" y2="795.178109" stroke="black" stroke-width="6.48"/>
<line x1="1311.346069" y1="795.178109" x2="1311.346069" y2="745.625592" stroke="black" stroke-width="6.48"/>
<line x1="1311.346069" y1="745.625592" x2="1285.950406" y2="745.625592" stroke="black" stroke-width="6.48"/>
<line x1="1285.950406" y1="745.625592" x2="1285.950406" y2="795.178109" stroke="black" stroke-width="6.48"/>
<line x1="1559.728062" y1="745.625592" x2="1559.728062" y2="498.48241" stroke="black" stroke-width="6.48"/>
<line x1="1560.347471" y1="796.416923" x2="1585.743134" y2="796.416923" stroke="black" stroke-width="6.48"/>
<line x1="1585.743134" y1="796.416923" x2="1585.743134" y2="746.864406" stroke="black" stroke-width="6.48"/>
<line x1="1585.743134" y1="746.864406" x2="1560.347471" y2="746.864406" stroke="black" stroke-width="6.48"/>
<line x1="1560.347471" y1="746.864406" x2="1560.347471" y2="796.416923" stroke="black" stroke-width="6.48"/>
<path d="m 1311.346069,747.483811 a 248.38199299999997,248.38199299999997 0 0 1 248.38199299999997,-248.38199299999997" fill="none" stroke="black" stroke-width="6.48"/>
<line x1="330.523178" y1="771.328966" x2="330.523178" y2="366.748985" stroke="black" stroke-width="6.48"/>
<line x1="330.523178" y1="366.748985" x2="258.15928" y2="366.748985" stroke="black" stroke-width="6.48"/>
<line x1="258.15928" y1="366.748985" x2="258.15928" y2="771.328966" stroke="black" stroke-width="6.48"/>
<line x1="258.15928" y1="771.328966" x2="330.523178" y2="771.328966" stroke="black" stroke-width="6.48"/>
<line x1="330.523178" y1="752.415674" x2="355.19269" y2="752.415674" stroke="black" stroke-width="6.48"/>
<line x1="355.19269" y1="752.415674" x2="355.19269" y2="386.484595" stroke="black" stroke-width="6.48"/>
<line x1="330.523178" y1="386.484595" x2="355.19269" y2="386.484595" stroke="black" stroke-width="6.48"/>
<line x1="3901.945176" y1="1169.331426" x2="3901.945176" y2="1428.837066" stroke="black" stroke-width="6.48"/>
<line x1="3901.945176" y1="1428.837066" x2="3941.9501" y2="1428.837066" stroke="black" stroke-width="6.48"/>
<line x1="3941.9501" y1="1428.837066" x2="3941.9501" y2="1169.331426" stroke="black" stroke-width="6.48"/>
<line x1="3941.9501" y1="1169.331426" x2="3901.945176" y2="1169.331426" stroke="black" stroke-width="6.48"/>
<line x1="3941.423719" y1="1193.544936" x2="3902.471557" y2="1193.544936" stroke="black" stroke-width="6.48"/>
<line x1="3941.423719" y1="1404.097178" x2="3900.892414" y2="1404.097178" stroke="black" stroke-width="6.48"/>
<line x1="3923.000399" y1="1193.018555" x2="3923.000399" y2="1403.570797" stroke="black" stroke-width="6.48"/>
<line x1="334.430687" y1="1882.943946" x2="334.430687" y2="1457.437414" stroke="black" stroke-width="6.48"/>
<line x1="334.430687" y1="1457.437414" x2="258.323828" y2="1457.437414" stroke="black" stroke-width="6.48"/>
<line x1="258.323828" y1="1457.437414" x2="258.323828" y2="1882.943946" stroke="black" stroke-width="6.48"/>
<line x1="258.323828" y1="1882.943946" x2="334.430687" y2="1882.943946" stroke="black" stroke-width="6.48"/>
<line x1="334.430687" y1="1863.05238" x2="360.376207" y2="1863.05238" stroke="black" stroke-width="6.48"/>
<line x1="360.376207" y1="1863.05238" x2="360.376207" y2="1478.193829" stroke="black" stroke-width="6.48"/>
<line x1="334.430687" y1="1478.193829" x2="360.376207" y2="1478.193829" stroke="black" stroke-width="6.48"/>
<line x1="2747.905531" y1="904.670665" x2="2721.68303" y2="904.670665" stroke="black" stroke-width="6.48"/>
<line x1="2721.68303" y1="904.670665" x2="2721.68303" y2="955.836522" stroke="black" stroke-width="6.48"/>
<line x1="2721.68303" y1="955.836522" x2="2747.905531" y2="955.836522" stroke="black" stroke-width="6.48"/>
<line x1="2747.905531" y1="955.836522" x2="2747.905531" y2="904.670665" stroke="black" stroke-width="6.48"/>
<line x1="2465.214181" y1="955.836522" x2="2465.214181" y2="1211.026223" stroke="black" stroke-width="6.48"/>
<line x1="2464.574609" y1="903.39152" x2="2438.352108" y2="903.39152" stroke="black" stroke-width="6.48"/>
<line x1="2438.352108" y1="903.39152" x2="2438.352108" y2="954.557374" stroke="black" stroke-width="6.48"/>
<line x1="2438.352108" y1="954.557374" x2="2464.574609" y2="954.557374" stroke="black" stroke-width="6.48"/>
<line x1="2464.574609" y1="954.557374" x2="2464.574609" y2="903.39152" stroke="black" stroke-width="6.48"/>
<path d="m 2721.68303,953.917801 a 256.4688490000001,256.4688490000001 0 0 1 -256.4688490000003,256.46884899999986" fill="none" stroke="black" stroke-width="6.48"/>
<line x1="2420.532389" y1="1427.858834" x2="2395.136725" y2="1427.858834" stroke="black" stroke-width="6.48"/>
<line x1="2395.136725" y1="1427.858834" x2="2395.136725" y2="1477.411351" stroke="black" stroke-width="6.48"/>
<line x1="2395.136725" y1="1477.411351" x2="2420.532389" y2="1477.411351" stroke="black" stroke-width="6.48"/>
<line x1="2420.532389" y1="1477.411351" x2="2420.532389" y2="1427.858834" stroke="black" stroke-width="6.48"/>
<line x1="2146.754732" y1="1477.411351" x2="2146.754732" y2="1724.554534" stroke="black" stroke-width="6.48"/>
<line x1="2146.135324" y1="1426.62002" x2="2120.73966" y2="1426.62002" stroke="black" stroke-width="6.48"/>
<line x1="2120.73966" y1="1426.62002" x2="2120.73966" y2="1476.172537" stroke="black" stroke-width="6.48"/>
<line x1="2120.73966" y1="1476.172537" x2="2146.135324" y2="1476.172537" stroke="black" stroke-width="6.48"/>
<line x1="2146.135324" y1="1476.172537" x2="2146.135324" y2="1426.62002" stroke="black" stroke-width="6.48"/>
<path d="m 2395.136725,1475.553132 a 248.38199299999997,248.38199299999997 0 0 1 -248.38199299999997,248.38199299999997" fill="none" stroke="black" stroke-width="6.48"/>
<line x1="783.126029" y1="692.136151" x2="1175.958029" y2="692.136151" stroke="black" stroke-width="6.48"/>
<line x1="1175.958029" y1="692.136151" x2="1175.958029" y2="507.600151" stroke="black" stroke-width="6.48"/>
<line x1="1175.958029" y1="507.600151" x2="783.126029" y2="507.600151" stroke="black" stroke-width="6.48"/>
<line x1="783.126029" y1="507.600151" x2="783.126029" y2="692.136151" stroke="black" stroke-width="6.48"/>
<line x1="942.318029" y1="507.600151" x2="942.318029" y2="426.816151" stroke="black" stroke-width="6.48"/>
<line x1="942.318029" y1="426.816151" x2="863.910029" y2="426.816151" stroke="black" stroke-width="6.48"/>
<line x1="863.910029" y1="426.816151" x2="863.910029" y2="507.600151" stroke="black" stroke-width="6.48"/>
<line x1="864.702029" y1="444.240151" x2="942.318029" y2="444.240151" stroke="black" stroke-width="6.48"/>
<line x1="863.910029" y1="773.712151" x2="942.318029" y2="773.712151" stroke="black" stroke-width="6.48"/>
<line x1="942.318029" y1="773.712151" x2="942.318029" y2="692.136151" stroke="black" stroke-width="6.48"/>
<line x1="863.910029" y1="692.136151" x2="863.910029" y2="773.712151" stroke="black" stroke-width="6.48"/>
<line x1="864.702029" y1="756.288151" x2="942.318029" y2="756.288151" stroke="black" stroke-width="6.48"/>
<line x1="1093.590029" y1="507.600151" x2="1093.590029" y2="426.816151" stroke="black" stroke-width="6.48"/>
<line x1="1093.590029" y1="426.816151" x2="1015.182029" y2="426.816151" stroke="black" stroke-width="6.48"/>
<line x1="1015.182029" y1="426.816151" x2="1015.182029" y2="507.600151" stroke="black" stroke-width="6.48"/>
<line x1="1015.182029" y1="444.240151" x2="1093.590029" y2="444.240151" stroke="black" stroke-width="6.48"/>
<line x1="1015.182029" y1="773.712151" x2="1093.590029" y2="773.712151" stroke="black" stroke-width="6.48"/>
<line x1="1093.590029" y1="773.712151" x2="1093.590029" y2="692.136151" stroke="black" stroke-width="6.48"/>
<line x1="1015.182029" y1="692.136151" x2="1015.182029" y2="773.712151" stroke="black" stroke-width="6.48"/>
<line x1="1015.182029" y1="756.288151" x2="1093.590029" y2="756.288151" stroke="black" stroke-width="6.48"/>
<line x1="2032.924367" y1="1934.301276" x2="2032.924367" y2="1725.213276" stroke="black" stroke-width="6.48"/>
<line x1="2032.924367" y1="1725.213276" x2="1801.026767" y2="1725.213276" stroke="black" stroke-width="6.48"/>
<line x1="1801.026767" y1="1725.213276" x2="1801.026767" y2="1934.301276" stroke="black" stroke-width="6.48"/>
<line x1="1801.026767" y1="1934.301276" x2="2032.924367" y2="1934.301276" stroke="black" stroke-width="6.48"/>
<line x1="2000.610767" y1="1934.301276" x2="2000.610767" y2="1725.213276" stroke="black" stroke-width="6.48"/>
<line x1="1485.415969" y1="209.267824" x2="1707.693134" y2="209.267824" stroke="black" stroke-width="6.48"/>
<line x1="1707.693134" y1="209.267824" x2="1707.693134" y2="432.000475" stroke="black" stroke-width="6.48"/>
<line x1="1707.693134" y1="432.000475" x2="1485.415969" y2="432.000475" stroke="black" stroke-width="6.48"/>
<line x1="1485.415969" y1="432.000475" x2="1485.415969" y2="209.267824" stroke="black" stroke-width="6.48"/>
<line x1="1484.960483" y1="208.812337" x2="1707.693134" y2="432.000475" stroke="black" stroke-width="6.48"/>
<line x1="1485.415969" y1="431.544989" x2="1707.237648" y2="209.267824" stroke="black" stroke-width="6.48"/>
<line x1="2761.020558" y1="2194.614338" x2="2761.020558" y2="1803.366338" stroke="black" stroke-width="6.48"/>
<line x1="2761.020558" y1="1803.366338" x2="2586.780558" y2="1803.366338" stroke="black" stroke-width="6.48"/>
<line x1="2586.780558" y1="1803.366338" x2="2586.780558" y2="2194.614338" stroke="black" stroke-width="6.48"/>
<line x1="2586.780558" y1="2194.614338" x2="2761.020558" y2="2194.614338" stroke="black" stroke-width="6.48"/>
<line x1="2613.708558" y1="1878.606338" x2="2613.708558" y2="2162.934338" stroke="black" stroke-width="6.48"/>
<line x1="2613.708558" y1="2162.934338" x2="2731.716558" y2="2162.934338" stroke="black" stroke-width="6.48"/>
<line x1="2731.716558" y1="2162.934338" x2="2731.716558" y2="1873.062338" stroke="black" stroke-width="6.48"/>
<path d="m 2613.453134,1879.416911 a 63.3599990854681,63.3599990854681 0 0 1 119.3743300000001,-4.293814000000111" fill="none" stroke="black" stroke-width="6.48"/>
<line x1="2105.58199" y1="1877.971266" x2="2105.58199" y2="2061.715266" stroke="black" stroke-width="6.48"/>
<line x1="2105.58199" y1="2061.715266" x2="2056.47799" y2="2061.715266" stroke="black" stroke-width="6.48"/>
<line x1="2056.47799" y1="1877.971266" x2="2056.47799" y2="2061.715266" stroke="black" stroke-width="6.48"/>
<line x1="2105.58199" y1="1877.971266" x2="2056.47799" y2="1877.971266" stroke="black" stroke-width="6.48"/>
<line x1="2133.30199" y1="1919.551266" x2="2105.58199" y2="1919.551266" stroke="black" stroke-width="6.48"/>
<line x1="2105.58199" y1="2018.551266" x2="2134.88599" y2="2018.551266" stroke="black" stroke-width="6.48"/>
<circle cx="2178.44599" cy="1968.259266" r="66.52800000000002" fill="none" stroke="black" stroke-width="6.48"/>
<circle cx="2178.44599" cy="1968.259266" r="57.02400000000001" fill="none" stroke="black" stroke-width="6.48"/>
<line x1="679.860983" y1="209.413274" x2="950.408183" y2="209.413274" stroke="black" stroke-width="6.48"/>
<line x1="950.408183" y1="209.413274" x2="950.408183" y2="341.360474" stroke="black" stroke-width="6.48"/>
<line x1="679.860983" y1="341.360474" x2="950.408183" y2="341.360474" stroke="black" stroke-width="6.48"/>
<line x1="679.860983" y1="209.413274" x2="679.860983" y2="341.360474" stroke="black" stroke-width="6.48"/>
<line x1="686.513783" y1="216.066074" x2="824.559383" y2="216.066074" stroke="black" stroke-width="6.48"/>
<line x1="824.559383" y1="216.066074" x2="824.559383" y2="334.153274" stroke="black" stroke-width="6.48"/>
<line x1="686.513783" y1="334.153274" x2="824.559383" y2="334.153274" stroke="black" stroke-width="6.48"/>
<line x1="686.513783" y1="216.066074" x2="686.513783" y2="334.153274" stroke="black" stroke-width="6.48"/>
<line x1="838.973783" y1="223.827674" x2="935.993783" y2="223.827674" stroke="black" stroke-width="6.48"/>
<line x1="838.973783" y1="244.340474" x2="935.993783" y2="244.340474" stroke="black" stroke-width="6.48"/>
<line x1="839.528183" y1="265.407674" x2="936.548183" y2="265.407674" stroke="black" stroke-width="6.48"/>
<line x1="839.528183" y1="285.920474" x2="936.548183" y2="285.920474" stroke="black" stroke-width="6.48"/>
<line x1="838.973783" y1="306.433274" x2="935.993783" y2="306.433274" stroke="black" stroke-width="6.48"/>
<line x1="838.973783" y1="326.946074" x2="935.993783" y2="326.946074" stroke="black" stroke-width="6.48"/>
<line x1="739.181783" y1="334.153274" x2="739.181783" y2="320.293274" stroke="black" stroke-width="6.48"/>
<line x1="739.181783" y1="320.293274" x2="773.554583" y2="320.293274" stroke="black" stroke-width="6.48"/>
<line x1="773.554583" y1="320.293274" x2="773.554583" y2="333.598874" stroke="black" stroke-width="6.48"/>
<circle cx="809.036183" cy="231.034874" r="8.316000000000003" fill="none" stroke="black" stroke-width="6.48"/>
<line x1="1121.491375" y1="1549.879924" x2="989.707576" y2="1540.664705" stroke="black" stroke-width="6.48"/>
<line x1="989.707576" y1="1540.664705" x2="990.702029" y2="1526.44343" stroke="black" stroke-width="6.48"/>
<line x1="1122.485821" y1="1535.658649" x2="990.702029" y2="1526.44343" stroke="black" stroke-width="6.48"/>
<line x1="1121.491375" y1="1549.879924" x2="1122.485821" y2="1535.658649" stroke="black" stroke-width="6.48"/>
<line x1="1109.212636" y1="1534.730497" x2="1113.296591" y2="1503.576292" stroke="black" stroke-width="6.48"/>
<line x1="1003.975214" y1="1527.371582" x2="1004.333126" y2="1495.004101" stroke="black" stroke-width="6.48"/>
<line x1="1153.645207" y1="1090.05876" x2="1021.861408" y2="1080.843538" stroke="black" stroke-width="6.48"/>
<line x1="1021.861408" y1="1080.843538" x2="1020.933256" y2="1094.11673" stroke="black" stroke-width="6.48"/>
<line x1="1152.717052" y1="1103.331949" x2="1020.933256" y2="1094.11673" stroke="black" stroke-width="6.48"/>
<line x1="1153.645207" y1="1090.05876" x2="1152.717052" y2="1103.331949" stroke="black" stroke-width="6.48"/>
<line x1="1140.259356" y1="1104.366262" x2="1139.967738" y2="1135.785654" stroke="black" stroke-width="6.48"/>
<line x1="1035.021935" y1="1097.007347" x2="1029.923597" y2="1129.043344" stroke="black" stroke-width="6.48"/>
<line x1="838.106284" y1="1365.243012" x2="852.327558" y2="1366.237465" stroke="black" stroke-width="6.48"/>
<line x1="852.327558" y1="1366.237465" x2="861.54278" y2="1234.453666" stroke="black" stroke-width="6.48"/>
<line x1="847.321502" y1="1233.45922" x2="861.54278" y2="1234.453666" stroke="black" stroke-width="6.48"/>
<line x1="838.106284" y1="1365.243012" x2="847.321502" y2="1233.45922" stroke="black" stroke-width="6.48"/>
<line x1="860.548327" y1="1248.674936" x2="892.982106" y2="1248.084767" stroke="black" stroke-width="6.48"/>
<line x1="853.25571" y1="1352.964272" x2="885.358001" y2="1357.114525" stroke="black" stroke-width="6.48"/>
<line x1="1296.913068" y1="1398.278632" x2="1282.691794" y2="1397.284182" stroke="black" stroke-width="6.48"/>
<line x1="1282.691794" y1="1397.284182" x2="1291.907012" y2="1265.500386" stroke="black" stroke-width="6.48"/>
<line x1="1306.128287" y1="1266.494832" x2="1291.907012" y2="1265.500386" stroke="black" stroke-width="6.48"/>
<line x1="1296.913068" y1="1398.278632" x2="1306.128287" y2="1266.494832" stroke="black" stroke-width="6.48"/>
<line x1="1290.912566" y1="1279.721657" x2="1258.87657" y2="1274.623319" stroke="black" stroke-width="6.48"/>
<line x1="1283.619946" y1="1384.010993" x2="1251.252464" y2="1383.653081" stroke="black" stroke-width="6.48"/>
<circle cx="1072.117285" cy="1315.868926" r="191.98080000000002" fill="none" stroke="black" stroke-width="6.48"/>
<line x1="2044.889399" y1="955.822399" x2="2267.166564" y2="955.822399" stroke="black" stroke-width="6.48"/>
<line x1="2267.166564" y1="955.822399" x2="2267.166564" y2="1178.555051" stroke="black" stroke-width="6.48"/>
<line x1="2267.166564" y1="1178.555051" x2="2044.889399" y2="1178.555051" stroke="black" stroke-width="6.48"/>
<line x1="2044.889399" y1="1178.555051" x2="2044.889399" y2="955.822399" stroke="black" stroke-width="6.48"/>
<line x1="2044.433912" y1="955.366913" x2="2267.166564" y2="1178.555051" stroke="black" stroke-width="6.48"/>
<line x1="2044.889399" y1="1178.099564" x2="2266.711078" y2="955.822399" stroke="black" stroke-width="6.48"/>
<line x1="323.258818" y1="1375.374532" x2="323.258818" y2="949.841089" stroke="black" stroke-width="6.48"/>
<line x1="323.258818" y1="949.841089" x2="257.659344" y2="949.841089" stroke="black" stroke-width="6.48"/>
<line x1="257.659344" y1="949.841089" x2="257.659344" y2="1375.374532" stroke="black" stroke-width="6.48"/>
<line x1="257.659344" y1="1375.374532" x2="323.258818" y2="1375.374532" stroke="black" stroke-width="6.48"/>
<line x1="258.522494" y1="1335.669588" x2="322.395667" y2="1335.669588" stroke="black" stroke-width="6.48"/>
<line x1="258.522494" y1="990.409187" x2="324.985122" y2="990.409187" stroke="black" stroke-width="6.48"/>
<line x1="288.73278" y1="1336.532738" x2="288.73278" y2="991.272337" stroke="black" stroke-width="6.48"/>
<line x1="3874.406537" y1="1514.726719" x2="3874.406537" y2="1940.260162" stroke="black" stroke-width="6.48"/>
<line x1="3874.406537" y1="1940.260162" x2="3940.00601" y2="1940.260162" stroke="black" stroke-width="6.48"/>
<line x1="3940.00601" y1="1940.260162" x2="3940.00601" y2="1514.726719" stroke="black" stroke-width="6.48"/>
<line x1="3940.00601" y1="1514.726719" x2="3874.406537" y2="1514.726719" stroke="black" stroke-width="6.48"/>
<line x1="3939.14286" y1="1554.431663" x2="3875.269687" y2="1554.431663" stroke="black" stroke-width="6.48"/>
<line x1="3939.14286" y1="1899.692064" x2="3872.680232" y2="1899.692064" stroke="black" stroke-width="6.48"/>
<line x1="3908.932574" y1="1553.568512" x2="3908.932574" y2="1898.828914" stroke="black" stroke-width="6.48"/>
<line x1="4781.697829" y1="1654.818804" x2="4966.121282" y2="1307.968733" stroke="black" stroke-width="6.48"/>
<line x1="4966.121282" y1="1307.968733" x2="4803.185664" y2="1221.33433" stroke="black" stroke-width="6.48"/>
<line x1="4803.185664" y1="1221.33433" x2="4618.762211" y2="1568.184397" stroke="black" stroke-width="6.48"/>
<line x1="4618.762211" y1="1568.184397" x2="4781.697829" y2="1654.818804" stroke="black" stroke-width="6.48"/>
<line x1="4693.49833" y1="1427.626206" x2="4622.170291" y2="1389.700415" stroke="black" stroke-width="6.48"/>
<line x1="4622.170291" y1="1389.700415" x2="4585.359964" y2="1458.930568" stroke="black" stroke-width="6.48"/>
<line x1="4585.359964" y1="1458.930568" x2="4656.688002" y2="1496.856359" stroke="black" stroke-width="6.48"/>
<line x1="4601.116267" y1="1466.411346" x2="4637.554772" y2="1397.880486" stroke="black" stroke-width="6.48"/>
<line x1="4891.650955" y1="1621.788376" x2="4928.461283" y2="1552.558223" stroke="black" stroke-width="6.48"/>
<line x1="4928.461283" y1="1552.558223" x2="4856.433948" y2="1514.260606" stroke="black" stroke-width="6.48"/>
<line x1="4819.62362" y1="1583.490766" x2="4891.650955" y2="1621.788376" stroke="black" stroke-width="6.48"/>
<line x1="4876.638296" y1="1612.909008" x2="4913.076802" y2="1544.378148" stroke="black" stroke-width="6.48"/>
<line x1="4764.516235" y1="1294.060954" x2="4693.188193" y2="1256.135166" stroke="black" stroke-width="6.48"/>
<line x1="4693.188193" y1="1256.135166" x2="4656.377869" y2="1325.365319" stroke="black" stroke-width="6.48"/>
<line x1="4656.377869" y1="1325.365319" x2="4727.705908" y2="1363.29111" stroke="black" stroke-width="6.48"/>
<line x1="4671.76235" y1="1333.545394" x2="4708.572671" y2="1264.315237" stroke="black" stroke-width="6.48"/>
<line x1="4962.668857" y1="1488.223127" x2="4999.479181" y2="1418.99297" stroke="black" stroke-width="6.48"/>
<line x1="4999.479181" y1="1418.99297" x2="4927.45185" y2="1380.69536" stroke="black" stroke-width="6.48"/>
<line x1="4890.641526" y1="1449.925517" x2="4962.668857" y2="1488.223127" stroke="black" stroke-width="6.48"/>
<line x1="4947.28438" y1="1480.043056" x2="4984.094707" y2="1410.812903" stroke="black" stroke-width="6.48"/>
<line x1="3073.224226" y1="1074.214066" x2="3282.589429" y2="1074.214066" stroke="black" stroke-width="6.48"/>
<line x1="3282.589429" y1="1074.214066" x2="3282.589429" y2="742.999662" stroke="black" stroke-width="6.48"/>
<line x1="3282.589429" y1="742.999662" x2="3073.224226" y2="742.999662" stroke="black" stroke-width="6.48"/>
<line x1="3073.224226" y1="742.999662" x2="3073.224226" y2="1074.214066" stroke="black" stroke-width="6.48"/>
<line x1="3072.551026" y1="802.241262" x2="3283.262626" y2="802.241262" stroke="black" stroke-width="6.48"/>
<line x1="3283.262626" y1="802.241262" x2="3073.897426" y2="852.058066" stroke="black" stroke-width="6.48"/>
<line x1="3073.897426" y1="852.058066" x2="3105.537829" y2="898.508866" stroke="black" stroke-width="6.48"/>
<line x1="3105.537829" y1="898.508866" x2="3283.262626" y2="801.568066" stroke="black" stroke-width="6.48"/>
<line x1="3383.975264" y1="1203.23943" x2="3606.25243" y2="1203.23943" stroke="black" stroke-width="6.48"/>
<line x1="3606.25243" y1="1203.23943" x2="3606.25243" y2="1425.972082" stroke="black" stroke-width="6.48"/>
<line x1="3606.25243" y1="1425.972082" x2="3383.975264" y2="1425.972082" stroke="black" stroke-width="6.48"/>
<line x1="3383.975264" y1="1425.972082" x2="3383.975264" y2="1203.23943" stroke="black" stroke-width="6.48"/>
<line x1="3383.519778" y1="1202.783944" x2="3606.25243" y2="1425.972082" stroke="black" stroke-width="6.48"/>
<line x1="3383.975264" y1="1425.516595" x2="3605.796943" y2="1203.23943" stroke="black" stroke-width="6.48"/>
<line x1="2804.16708" y1="1127.69402" x2="2804.16708" y2="1153.148746" stroke="black" stroke-width="6.48"/>
<line x1="2804.16708" y1="1153.148746" x2="2853.834836" y2="1153.148746" stroke="black" stroke-width="6.48"/>
<line x1="2853.834836" y1="1153.148746" x2="2853.834836" y2="1127.69402" stroke="black" stroke-width="6.48"/>
<line x1="2853.834836" y1="1127.69402" x2="2804.16708" y2="1127.69402" stroke="black" stroke-width="6.48"/>
<line x1="2853.834836" y1="1402.108373" x2="3101.55277" y2="1402.108373" stroke="black" stroke-width="6.48"/>
<line x1="2802.925386" y1="1402.729218" x2="2802.925386" y2="1428.183943" stroke="black" stroke-width="6.48"/>
<line x1="2802.925386" y1="1428.183943" x2="2852.593142" y2="1428.183943" stroke="black" stroke-width="6.48"/>
<line x1="2852.593142" y1="1428.183943" x2="2852.593142" y2="1402.729218" stroke="black" stroke-width="6.48"/>
<line x1="2852.593142" y1="1402.729218" x2="2802.925386" y2="1402.729218" stroke="black" stroke-width="6.48"/>
<path d="m 2851.972294,1153.148746 a 248.95962699999984,248.95962699999984 0 0 1 248.95962699999973,248.95962699999995" fill="none" stroke="black" stroke-width="6.48"/>
<line x1="2928.679614" y1="2008.018231" x2="2857.474469" y2="2184.257369" stroke="black" stroke-width="6.48"/>
<line x1="2857.474469" y1="2184.257369" x2="3287.497964" y2="2357.997919" stroke="black" stroke-width="6.48"/>
<line x1="3287.497964" y1="2357.997919" x2="3358.70311" y2="2181.758782" stroke="black" stroke-width="6.48"/>
<line x1="3358.70311" y1="2181.758782" x2="3336.673219" y2="2172.858138" stroke="black" stroke-width="6.48"/>
<line x1="3336.673219" y1="2172.858138" x2="3274.012692" y2="2327.948582" stroke="black" stroke-width="6.48"/>
<line x1="3274.012692" y1="2327.948582" x2="2888.930174" y2="2172.365341" stroke="black" stroke-width="6.48"/>
<line x1="2888.930174" y1="2172.365341" x2="2951.590702" y2="2017.2749" stroke="black" stroke-width="6.48"/>
<line x1="2951.590702" y1="2017.2749" x2="2928.679614" y2="2008.018231" stroke="black" stroke-width="6.48"/>
<line x1="2949.454548" y1="2022.562073" x2="3334.537066" y2="2178.145314" stroke="black" stroke-width="6.48"/>
<line x1="3141.911232" y1="2099.294485" x2="3081.386862" y2="2249.097754" stroke="black" stroke-width="6.48"/>
<line x1="3711.199295" y1="1787.260219" x2="3562.13839" y2="1964.904088" stroke="black" stroke-width="6.48"/>
<line x1="3562.13839" y1="1964.904088" x2="3384.130496" y2="1815.537733" stroke="black" stroke-width="6.48"/>
<line x1="3384.130496" y1="1815.537733" x2="3533.191402" y2="1637.893861" stroke="black" stroke-width="6.48"/>
<line x1="3533.191402" y1="1637.893861" x2="3711.199295" y2="1787.260219" stroke="black" stroke-width="6.48"/>
<line x1="3711.868769" y1="1787.201647" x2="3384.130496" y2="1815.537733" stroke="black" stroke-width="6.48"/>
<line x1="3533.555426" y1="1638.199318" x2="3562.443842" y2="1964.540066" stroke="black" stroke-width="6.48"/>
<line x1="3009.806302" y1="1589.315879" x2="3009.26723" y2="1620.199174" stroke="black" stroke-width="6.48"/>
<line x1="3009.26723" y1="1620.199174" x2="3218.798513" y2="1623.856554" stroke="black" stroke-width="6.48"/>
<line x1="3218.798513" y1="1623.856554" x2="3219.337584" y2="1592.973259" stroke="black" stroke-width="6.48"/>
<line x1="3219.337584" y1="1592.973259" x2="3009.806302" y2="1589.315879" stroke="black" stroke-width="6.48"/>
<line x1="3006.24844" y1="1793.145629" x2="3005.709368" y2="1824.028924" stroke="black" stroke-width="6.48"/>
<line x1="3005.709368" y1="1824.028924" x2="3215.240651" y2="1827.686304" stroke="black" stroke-width="6.48"/>
<line x1="3215.240651" y1="1827.686304" x2="3215.779722" y2="1796.803009" stroke="black" stroke-width="6.48"/>
<line x1="3215.779722" y1="1796.803009" x2="3006.24844" y2="1793.145629" stroke="black" stroke-width="6.48"/>
<line x1="3009.275525" y1="1619.724046" x2="3006.24844" y2="1793.145629" stroke="black" stroke-width="6.48"/>
<line x1="3217.864846" y1="1622.889713" x2="3243.532435" y2="1649.952994" stroke="black" stroke-width="6.48"/>
<line x1="3241.417622" y1="1771.11054" x2="3214.821172" y2="1797.261548" stroke="black" stroke-width="6.48"/>
<line x1="3243.565609" y1="1648.052482" x2="3241.384448" y2="1773.011052" stroke="black" stroke-width="6.48"/>
<line x1="3053.929226" y1="1620.97875" x2="3050.902145" y2="1794.400333" stroke="black" stroke-width="6.48"/>
<line x1="3840.070216" y1="1134.752281" x2="3838.453664" y2="1103.906614" stroke="black" stroke-width="6.48"/>
<line x1="3838.453664" y1="1103.906614" x2="3629.177665" y2="1114.874305" stroke="black" stroke-width="6.48"/>
<line x1="3629.177665" y1="1114.874305" x2="3630.794216" y2="1145.719973" stroke="black" stroke-width="6.48"/>
<line x1="3630.794216" y1="1145.719973" x2="3840.070216" y2="1134.752281" stroke="black" stroke-width="6.48"/>
<line x1="3829.400968" y1="931.17087" x2="3827.784416" y2="900.325199" stroke="black" stroke-width="6.48"/>
<line x1="3827.784416" y1="900.325199" x2="3618.508414" y2="911.292887" stroke="black" stroke-width="6.48"/>
<line x1="3618.508414" y1="911.292887" x2="3620.124965" y2="942.138562" stroke="black" stroke-width="6.48"/>
<line x1="3620.124965" y1="942.138562" x2="3829.400968" y2="931.17087" stroke="black" stroke-width="6.48"/>
<line x1="3838.478533" y1="1104.381162" x2="3829.400968" y2="931.17087" stroke="black" stroke-width="6.48"/>
<line x1="3630.176503" y1="1115.773661" x2="3602.683598" y2="1090.566785" stroke="black" stroke-width="6.48"/>
<line x1="3596.341738" y1="969.556853" x2="3621.049193" y2="941.614268" stroke="black" stroke-width="6.48"/>
<line x1="3602.783077" y1="1092.464978" x2="3596.242259" y2="967.658656" stroke="black" stroke-width="6.48"/>
<line x1="3793.846082" y1="1106.244396" x2="3784.768517" y2="933.034104" stroke="black" stroke-width="6.48"/>
<line x1="1026.403358" y1="1930.42166" x2="1155.130744" y2="2095.185287" stroke="black" stroke-width="6.48"/>
<line x1="1155.130744" y1="2095.185287" x2="1337.868583" y2="1952.414914" stroke="black" stroke-width="6.48"/>
<line x1="1337.868583" y1="1952.414914" x2="1209.141198" y2="1787.651284" stroke="black" stroke-width="6.48"/>
<line x1="1209.141198" y1="1787.651284" x2="1026.403358" y2="1930.42166" stroke="black" stroke-width="6.48"/>
<line x1="1051.866828" y1="1910.52743" x2="1180.594217" y2="2075.291057" stroke="black" stroke-width="6.48"/>
<line x1="5849.170996" y1="1652.18481" x2="5848.093022" y2="1683.053996" stroke="black" stroke-width="6.48"/>
<line x1="5848.093022" y1="1683.053996" x2="6057.528559" y2="1690.367645" stroke="black" stroke-width="6.48"/>
<line x1="6057.528559" y1="1690.367645" x2="6058.606536" y2="1659.498462" stroke="black" stroke-width="6.48"/>
<line x1="6058.606536" y1="1659.498462" x2="5849.170996" y2="1652.18481" stroke="black" stroke-width="6.48"/>
<line x1="5842.056359" y1="1855.921424" x2="5840.978382" y2="1886.790611" stroke="black" stroke-width="6.48"/>
<line x1="5840.978382" y1="1886.790611" x2="6050.413919" y2="1894.104259" stroke="black" stroke-width="6.48"/>
<line x1="6050.413919" y1="1894.104259" x2="6051.491896" y2="1863.235073" stroke="black" stroke-width="6.48"/>
<line x1="6051.491896" y1="1863.235073" x2="5842.056359" y2="1855.921424" stroke="black" stroke-width="6.48"/>
<line x1="5848.109604" y1="1682.579084" x2="5842.056359" y2="1855.921424" stroke="black" stroke-width="6.48"/>
<line x1="6056.611906" y1="1689.384654" x2="6081.803269" y2="1716.891782" stroke="black" stroke-width="6.48"/>
<line x1="6077.574288" y1="1837.993964" x2="6050.525494" y2="1863.676814" stroke="black" stroke-width="6.48"/>
<line x1="6081.869606" y1="1714.992138" x2="6077.507951" y2="1839.893602" stroke="black" stroke-width="6.48"/>
<line x1="5892.73461" y1="1684.612915" x2="5886.681361" y2="1857.955255" stroke="black" stroke-width="6.48"/>
<line x1="6122.616253" y1="2068.590384" x2="6133.180568" y2="2097.615611" stroke="black" stroke-width="6.48"/>
<line x1="6133.180568" y1="2097.615611" x2="6330.105562" y2="2025.940774" stroke="black" stroke-width="6.48"/>
<line x1="6330.105562" y1="2025.940774" x2="6319.541243" y2="1996.91555" stroke="black" stroke-width="6.48"/>
<line x1="6319.541243" y1="1996.91555" x2="6122.616253" y2="2068.590384" stroke="black" stroke-width="6.48"/>
<line x1="6192.340751" y1="2260.156874" x2="6202.90507" y2="2289.182098" stroke="black" stroke-width="6.48"/>
<line x1="6202.90507" y1="2289.182098" x2="6399.830059" y2="2217.507264" stroke="black" stroke-width="6.48"/>
<line x1="6399.830059" y1="2217.507264" x2="6389.265744" y2="2188.482041" stroke="black" stroke-width="6.48"/>
<line x1="6389.265744" y1="2188.482041" x2="6192.340751" y2="2260.156874" stroke="black" stroke-width="6.48"/>
<line x1="6133.018043" y1="2097.169067" x2="6192.340751" y2="2260.156874" stroke="black" stroke-width="6.48"/>
<line x1="6328.887422" y1="2025.372748" x2="6362.548794" y2="2041.440055" stroke="black" stroke-width="6.48"/>
<line x1="6403.993427" y1="2155.308253" x2="6388.535189" y2="2189.253636" stroke="black" stroke-width="6.48"/>
<line x1="6361.898681" y1="2039.65389" x2="6404.64354" y2="2157.094418" stroke="black" stroke-width="6.48"/>
<line x1="6175.155514" y1="2082.337981" x2="6234.478222" y2="2245.325789" stroke="black" stroke-width="6.48"/>
<line x1="2301.167876" y1="2044.16757" x2="2531.795112" y2="2068.407526" stroke="black" stroke-width="6.48"/>
<line x1="2531.795112" y1="2068.407526" x2="2507.505484" y2="2299.507358" stroke="black" stroke-width="6.48"/>
<line x1="2507.505484" y1="2299.507358" x2="2276.878248" y2="2275.267399" stroke="black" stroke-width="6.48"/>
<line x1="2276.878248" y1="2275.267399" x2="2301.167876" y2="2044.16757" stroke="black" stroke-width="6.48"/>
<line x1="2300.744952" y1="2043.6453" x2="2507.505484" y2="2299.507358" stroke="black" stroke-width="6.48"/>
<line x1="2276.927921" y1="2274.794802" x2="2531.322515" y2="2068.357853" stroke="black" stroke-width="6.48"/>
</g>
</svg>
