<?xml version="1.0"?>
<svg xmlns:xlink="http://www.w3.org/1999/xlink" width="6775.2" height="2858.4">
<image x="0" y="0" width="6775.2" height="2858.4" xlink:href="groundfilled-01.png"/>
<g style="stroke-linecap:round">
<line x1="1285.950406" y1="795.178109" x2="1311.346069" y2="795.178109" stroke="black" stroke-width="6.48"/>
<line x1="1311.346069" y1="795.178109" x2="1311.346069" y2="745.625592" stroke="black" stroke-width="6.48"/>
<line x1="1311.346069" y1="745.625592" x2="1285.950406" y2="745.625592" stroke="black" stroke-width="6.48"/>
<line x1="1285.950406" y1="745.625592" x2="1285.950406" y2="795.178109" stroke="black" stroke-width="6.48"/>
<line x1="1559.728062" y1="745.625592" x2="1559.728062" y2="498.48241" stroke="black" stroke-width="6.48"/>
<line x1="1560.347471" y1="796.416923" x2="1585.743134" y2="796.416923" stroke="black" stroke-width="6.48"/>
<line x1="1585.743134" y1="796.416923" x2="1585.743134" y2="746.864406" stroke="black" stroke-width="6.48"/>
<line x1="1585.743134" y1="746.864406" x2="1560.347471" y2="746.864406" stroke="black" stroke-width="6.48"/>
<line x1="1560.347471" y1="746.864406" x2="1560.347471" y2="796.416923" stroke="black" stroke-width="6.48"/>
<path d="m 1311.346069,747.483811 a 248.38199299999997,248.38199299999997 0 0 1 248.38199299999997,-248.38199299999997" fill="none" stroke="black" stroke-width="6.48"/>
<line x1="320.532556" y1="771.34176" x2="320.532556" y2="366.736194" stroke="black" stroke-width="6.48"/>
<line x1="320.532556" y1="366.736194" x2="258.159283" y2="366.736194" stroke="black" stroke-width="6.48"/>
<line x1="258.159283" y1="366.736194" x2="258.159283" y2="771.34176" stroke="black" stroke-width="6.48"/>
<line x1="258.159283" y1="771.34176" x2="320.532556" y2="771.34176" stroke="black" stroke-width="6.48"/>
<line x1="258.979986" y1="733.589518" x2="319.711856" y2="733.589518" stroke="black" stroke-width="6.48"/>
<line x1="258.979986" y1="405.309139" x2="322.173958" y2="405.309139" stroke="black" stroke-width="6.48"/>
<line x1="287.704519" y1="734.410217" x2="287.704519" y2="406.129838" stroke="black" stroke-width="6.48"/>
<line x1="3901.945176" y1="1169.331426" x2="3901.945176" y2="1428.837066" stroke="black" stroke-width="6.48"/>
<line x1="3901.945176" y1="1428.837066" x2="3941.9501" y2="1428.837066" stroke="black" stroke-width="6.48"/>
<line x1="3941.9501" y1="1428.837066" x2="3941.9501" y2="1169.331426" stroke="black" stroke-width="6.48"/>
<line x1="3941.9501" y1="1169.331426" x2="3901.945176" y2="1169.331426" stroke="black" stroke-width="6.48"/>
<line x1="3941.423719" y1="1193.544936" x2="3902.471557" y2="1193.544936" stroke="black" stroke-width="6.48"/>
<line x1="3941.423719" y1="1404.097178" x2="3900.892414" y2="1404.097178" stroke="black" stroke-width="6.48"/>
<line x1="3923.000399" y1="1193.018555" x2="3923.000399" y2="1403.570797" stroke="black" stroke-width="6.48"/>
<line x1="323.923298" y1="1882.957399" x2="323.923298" y2="1457.423957" stroke="black" stroke-width="6.48"/>
<line x1="323.923298" y1="1457.423957" x2="258.323825" y2="1457.423957" stroke="black" stroke-width="6.48"/>
<line x1="258.323825" y1="1457.423957" x2="258.323825" y2="1882.957399" stroke="black" stroke-width="6.48"/>
<line x1="258.323825" y1="1882.957399" x2="323.923298" y2="1882.957399" stroke="black" stroke-width="6.48"/>
<line x1="259.186975" y1="1843.252456" x2="323.060148" y2="1843.252456" stroke="black" stroke-width="6.48"/>
<line x1="259.186975" y1="1497.992054" x2="325.649603" y2="1497.992054" stroke="black" stroke-width="6.48"/>
<line x1="289.397261" y1="1844.115606" x2="289.397261" y2="1498.855205" stroke="black" stroke-width="6.48"/>
<line x1="2747.905531" y1="904.670665" x2="2721.68303" y2="904.670665" stroke="black" stroke-width="6.48"/>
<line x1="2721.68303" y1="904.670665" x2="2721.68303" y2="955.836522" stroke="black" stroke-width="6.48"/>
<line x1="2721.68303" y1="955.836522" x2="2747.905531" y2="955.836522" stroke="black" stroke-width="6.48"/>
<line x1="2747.905531" y1="955.836522" x2="2747.905531" y2="904.670665" stroke="black" stroke-width="6.48"/>
<line x1="2465.214181" y1="955.836522" x2="2465.214181" y2="1211.026223" stroke="black" stroke-width="6.48"/>
<line x1="2464.574609" y1="903.39152" x2="2438.352108" y2="903.39152" stroke="black" stroke-width="6.48"/>
<line x1="2438.352108" y1="903.39152" x2="2438.352108" y2="954.557374" stroke="black" stroke-width="6.48"/>
<line x1="2438.352108" y1="954.557374" x2="2464.574609" y2="954.557374" stroke="black" stroke-width="6.48"/>
<line x1="2464.574609" y1="954.557374" x2="2464.574609" y2="903.39152" stroke="black" stroke-width="6.48"/>
<path d="m 2721.68303,953.917801 a 256.4688490000001,256.4688490000001 0 0 1 -256.4688490000003,256.46884899999986" fill="none" stroke="black" stroke-width="6.48"/>
<line x1="2420.532389" y1="1427.858834" x2="2395.136725" y2="1427.858834" stroke="black" stroke-width="6.48"/>
<line x1="2395.136725" y1="1427.858834" x2="2395.136725" y2="1477.411351" stroke="black" stroke-width="6.48"/>
<line x1="2395.136725" y1="1477.411351" x2="2420.532389" y2="1477.411351" stroke="black" stroke-width="6.48"/>
<line x1="2420.532389" y1="1477.411351" x2="2420.532389" y2="1427.858834" stroke="black" stroke-width="6.48"/>
<line x1="2146.754732" y1="1477.411351" x2="2146.754732" y2="1724.554534" stroke="black" stroke-width="6.48"/>
<line x1="2146.135324" y1="1426.62002" x2="2120.73966" y2="1426.62002" stroke="black" stroke-width="6.48"/>
<line x1="2120.73966" y1="1426.62002" x2="2120.73966" y2="1476.172537" stroke="black" stroke-width="6.48"/>
<line x1="2120.73966" y1="1476.172537" x2="2146.135324" y2="1476.172537" stroke="black" stroke-width="6.48"/>
<line x1="2146.135324" y1="1476.172537" x2="2146.135324" y2="1426.62002" stroke="black" stroke-width="6.48"/>
<path d="m 2395.136725,1475.553132 a 248.38199299999997,248.38199299999997 0 0 1 -248.38199299999997,248.38199299999997" fill="none" stroke="black" stroke-width="6.48"/>
<line x1="759.735295" y1="692.136151" x2="1152.567295" y2="692.136151" stroke="black" stroke-width="6.48"/>
<line x1="1152.567295" y1="692.136151" x2="1152.567295" y2="507.600151" stroke="black" stroke-width="6.48"/>
<line x1="1152.567295" y1="507.600151" x2="759.735295" y2="507.600151" stroke="black" stroke-width="6.48"/>
<line x1="759.735295" y1="507.600151" x2="759.735295" y2="692.136151" stroke="black" stroke-width="6.48"/>
<line x1="918.927295" y1="507.600151" x2="918.927295" y2="426.816151" stroke="black" stroke-width="6.48"/>
<line x1="918.927295" y1="426.816151" x2="840.519295" y2="426.816151" stroke="black" stroke-width="6.48"/>
<line x1="840.519295" y1="426.816151" x2="840.519295" y2="507.600151" stroke="black" stroke-width="6.48"/>
<line x1="841.311295" y1="444.240151" x2="918.927295" y2="444.240151" stroke="black" stroke-width="6.48"/>
<line x1="840.519295" y1="773.712151" x2="918.927295" y2="773.712151" stroke="black" stroke-width="6.48"/>
<line x1="918.927295" y1="773.712151" x2="918.927295" y2="692.136151" stroke="black" stroke-width="6.48"/>
<line x1="840.519295" y1="692.136151" x2="840.519295" y2="773.712151" stroke="black" stroke-width="6.48"/>
<line x1="841.311295" y1="756.288151" x2="918.927295" y2="756.288151" stroke="black" stroke-width="6.48"/>
<line x1="1070.199295" y1="507.600151" x2="1070.199295" y2="426.816151" stroke="black" stroke-width="6.48"/>
<line x1="1070.199295" y1="426.816151" x2="991.791295" y2="426.816151" stroke="black" stroke-width="6.48"/>
<line x1="991.791295" y1="426.816151" x2="991.791295" y2="507.600151" stroke="black" stroke-width="6.48"/>
<line x1="991.791295" y1="444.240151" x2="1070.199295" y2="444.240151" stroke="black" stroke-width="6.48"/>
<line x1="991.791295" y1="773.712151" x2="1070.199295" y2="773.712151" stroke="black" stroke-width="6.48"/>
<line x1="1070.199295" y1="773.712151" x2="1070.199295" y2="692.136151" stroke="black" stroke-width="6.48"/>
<line x1="991.791295" y1="692.136151" x2="991.791295" y2="773.712151" stroke="black" stroke-width="6.48"/>
<line x1="991.791295" y1="756.288151" x2="1070.199295" y2="756.288151" stroke="black" stroke-width="6.48"/>
<line x1="2032.924367" y1="2074.056588" x2="2032.924367" y2="2043.168588" stroke="black" stroke-width="6.48"/>
<line x1="2032.924367" y1="2043.168588" x2="1823.361167" y2="2043.168588" stroke="black" stroke-width="6.48"/>
<line x1="1823.361167" y1="2043.168588" x2="1823.361167" y2="2074.056588" stroke="black" stroke-width="6.48"/>
<line x1="1823.361167" y1="2074.056588" x2="2032.924367" y2="2074.056588" stroke="black" stroke-width="6.48"/>
<line x1="2032.924367" y1="1870.195788" x2="2032.924367" y2="1839.307788" stroke="black" stroke-width="6.48"/>
<line x1="2032.924367" y1="1839.307788" x2="1823.361167" y2="1839.307788" stroke="black" stroke-width="6.48"/>
<line x1="1823.361167" y1="1839.307788" x2="1823.361167" y2="1870.195788" stroke="black" stroke-width="6.48"/>
<line x1="1823.361167" y1="1870.195788" x2="2032.924367" y2="1870.195788" stroke="black" stroke-width="6.48"/>
<line x1="2032.924367" y1="2043.643788" x2="2032.924367" y2="1870.195788" stroke="black" stroke-width="6.48"/>
<line x1="1824.311567" y1="2044.118988" x2="1798.175567" y2="2017.507788" stroke="black" stroke-width="6.48"/>
<line x1="1798.175567" y1="1896.331788" x2="1824.311567" y2="1869.720588" stroke="black" stroke-width="6.48"/>
<line x1="1798.175567" y1="2019.408588" x2="1798.175567" y2="1894.430988" stroke="black" stroke-width="6.48"/>
<line x1="1988.255567" y1="2043.168588" x2="1988.255567" y2="1869.720588" stroke="black" stroke-width="6.48"/>
<line x1="1485.415969" y1="209.267824" x2="1707.693134" y2="209.267824" stroke="black" stroke-width="6.48"/>
<line x1="1707.693134" y1="209.267824" x2="1707.693134" y2="432.000475" stroke="black" stroke-width="6.48"/>
<line x1="1707.693134" y1="432.000475" x2="1485.415969" y2="432.000475" stroke="black" stroke-width="6.48"/>
<line x1="1485.415969" y1="432.000475" x2="1485.415969" y2="209.267824" stroke="black" stroke-width="6.48"/>
<line x1="1484.960483" y1="208.812337" x2="1707.693134" y2="432.000475" stroke="black" stroke-width="6.48"/>
<line x1="1485.415969" y1="431.544989" x2="1707.237648" y2="209.267824" stroke="black" stroke-width="6.48"/>
<line x1="2586.780558" y1="1803.366338" x2="2586.780558" y2="2194.614338" stroke="black" stroke-width="6.48"/>
<line x1="2586.780558" y1="2194.614338" x2="2761.020558" y2="2194.614338" stroke="black" stroke-width="6.48"/>
<line x1="2761.020558" y1="2194.614338" x2="2761.020558" y2="1803.366338" stroke="black" stroke-width="6.48"/>
<line x1="2761.020558" y1="1803.366338" x2="2586.780558" y2="1803.366338" stroke="black" stroke-width="6.48"/>
<line x1="2734.092558" y1="2119.374338" x2="2734.092558" y2="1835.046338" stroke="black" stroke-width="6.48"/>
<line x1="2734.092558" y1="1835.046338" x2="2616.084558" y2="1835.046338" stroke="black" stroke-width="6.48"/>
<line x1="2616.084558" y1="1835.046338" x2="2616.084558" y2="2124.918338" stroke="black" stroke-width="6.48"/>
<path d="m 2734.347982,2118.563766 a 63.35999941905905,63.35999941905905 0 0 1 -119.37432999999965,4.2938139999996565" fill="none" stroke="black" stroke-width="6.48"/>
<line x1="2081.317604" y1="1914.210824" x2="2056.765604" y2="1932.822824" stroke="black" stroke-width="6.48"/>
<line x1="2056.765604" y1="1932.822824" x2="2056.765604" y2="2080.134824" stroke="black" stroke-width="6.48"/>
<line x1="2056.765604" y1="2080.134824" x2="2084.881604" y2="2099.142824" stroke="black" stroke-width="6.48"/>
<line x1="2084.089604" y1="1935.990824" x2="2084.089604" y2="2078.946824" stroke="black" stroke-width="6.48"/>
<circle cx="2105.869604" cy="2005.290824" r="13.068000000000003" fill="none" stroke="black" stroke-width="6.48"/>
<path d="m 2083.422258,1937.544077 a 74.8440000678094,74.8440000678094 0 1 1 0.40204799999992247,139.6090039999999" fill="none" stroke="black" stroke-width="6.48"/>
<path d="m 2080.660241,1914.257128 a 95.43599858117894,95.43599858117894 0 1 1 3.0749580000001515,184.466995" fill="none" stroke="black" stroke-width="6.48"/>
<line x1="790.930231" y1="209.68484" x2="1061.477431" y2="209.68484" stroke="black" stroke-width="6.48"/>
<line x1="1061.477431" y1="209.68484" x2="1061.477431" y2="341.63204" stroke="black" stroke-width="6.48"/>
<line x1="790.930231" y1="341.63204" x2="1061.477431" y2="341.63204" stroke="black" stroke-width="6.48"/>
<line x1="790.930231" y1="209.68484" x2="790.930231" y2="341.63204" stroke="black" stroke-width="6.48"/>
<line x1="797.583031" y1="216.33764" x2="935.628631" y2="216.33764" stroke="black" stroke-width="6.48"/>
<line x1="935.628631" y1="216.33764" x2="935.628631" y2="334.42484" stroke="black" stroke-width="6.48"/>
<line x1="797.583031" y1="334.42484" x2="935.628631" y2="334.42484" stroke="black" stroke-width="6.48"/>
<line x1="797.583031" y1="216.33764" x2="797.583031" y2="334.42484" stroke="black" stroke-width="6.48"/>
<line x1="950.043031" y1="224.09924" x2="1047.063031" y2="224.09924" stroke="black" stroke-width="6.48"/>
<line x1="950.043031" y1="244.61204" x2="1047.063031" y2="244.61204" stroke="black" stroke-width="6.48"/>
<line x1="950.597431" y1="265.67924" x2="1047.617431" y2="265.67924" stroke="black" stroke-width="6.48"/>
<line x1="950.597431" y1="286.19204" x2="1047.617431" y2="286.19204" stroke="black" stroke-width="6.48"/>
<line x1="950.043031" y1="306.70484" x2="1047.063031" y2="306.70484" stroke="black" stroke-width="6.48"/>
<line x1="950.043031" y1="327.21764" x2="1047.063031" y2="327.21764" stroke="black" stroke-width="6.48"/>
<line x1="850.251031" y1="334.42484" x2="850.251031" y2="320.56484" stroke="black" stroke-width="6.48"/>
<line x1="850.251031" y1="320.56484" x2="884.623831" y2="320.56484" stroke="black" stroke-width="6.48"/>
<line x1="884.623831" y1="320.56484" x2="884.623831" y2="333.87044" stroke="black" stroke-width="6.48"/>
<circle cx="920.105431" cy="231.30644" r="8.316000000000003" fill="none" stroke="black" stroke-width="6.48"/>
<line x1="1295.033512" y1="1204.373754" x2="1331.446748" y2="1331.361806" stroke="black" stroke-width="6.48"/>
<line x1="1331.446748" y1="1331.361806" x2="1317.743003" y2="1335.291293" stroke="black" stroke-width="6.48"/>
<line x1="1281.329766" y1="1208.30324" x2="1317.743003" y2="1335.291293" stroke="black" stroke-width="6.48"/>
<line x1="1295.033512" y1="1204.373754" x2="1281.329766" y2="1208.30324" stroke="black" stroke-width="6.48"/>
<line x1="1284.997284" y1="1221.093403" x2="1254.325111" y2="1227.911108" stroke="black" stroke-width="6.48"/>
<line x1="1314.075481" y1="1322.50113" x2="1283.537588" y2="1333.235128" stroke="black" stroke-width="6.48"/>
<line x1="851.945699" y1="1331.427139" x2="888.358936" y2="1458.415192" stroke="black" stroke-width="6.48"/>
<line x1="888.358936" y1="1458.415192" x2="901.149102" y2="1454.74767" stroke="black" stroke-width="6.48"/>
<line x1="864.735865" y1="1327.759618" x2="901.149102" y2="1454.74767" stroke="black" stroke-width="6.48"/>
<line x1="851.945699" y1="1331.427139" x2="864.735865" y2="1327.759618" stroke="black" stroke-width="6.48"/>
<line x1="869.968584" y1="1339.112268" x2="899.592894" y2="1328.640228" stroke="black" stroke-width="6.48"/>
<line x1="899.046781" y1="1440.519991" x2="930.894502" y2="1434.353908" stroke="black" stroke-width="6.48"/>
<line x1="1218.454974" y1="1533.818178" x2="1214.525491" y2="1520.114429" stroke="black" stroke-width="6.48"/>
<line x1="1214.525491" y1="1520.114429" x2="1087.537439" y2="1556.527669" stroke="black" stroke-width="6.48"/>
<line x1="1091.466922" y1="1570.231415" x2="1087.537439" y2="1556.527669" stroke="black" stroke-width="6.48"/>
<line x1="1218.454974" y1="1533.818178" x2="1091.466922" y2="1570.231415" stroke="black" stroke-width="6.48"/>
<line x1="1101.241184" y1="1552.598179" x2="1089.5936" y2="1522.322255" stroke="black" stroke-width="6.48"/>
<line x1="1201.735328" y1="1523.78195" x2="1194.655655" y2="1492.196195" stroke="black" stroke-width="6.48"/>
<line x1="1092.57714" y1="1091.381983" x2="1096.506626" y2="1105.085729" stroke="black" stroke-width="6.48"/>
<line x1="1096.506626" y1="1105.085729" x2="969.518574" y2="1141.498966" stroke="black" stroke-width="6.48"/>
<line x1="965.589088" y1="1127.79522" x2="969.518574" y2="1141.498966" stroke="black" stroke-width="6.48"/>
<line x1="1092.57714" y1="1091.381983" x2="965.589088" y2="1127.79522" stroke="black" stroke-width="6.48"/>
<line x1="983.22232" y1="1137.569483" x2="989.388407" y2="1169.417203" stroke="black" stroke-width="6.48"/>
<line x1="1083.716464" y1="1108.75325" x2="1094.450465" y2="1139.291143" stroke="black" stroke-width="6.48"/>
<circle cx="1092.022031" cy="1330.806697" r="191.98080000000002" fill="none" stroke="black" stroke-width="6.48"/>
<line x1="2044.889399" y1="955.822399" x2="2267.166564" y2="955.822399" stroke="black" stroke-width="6.48"/>
<line x1="2267.166564" y1="955.822399" x2="2267.166564" y2="1178.555051" stroke="black" stroke-width="6.48"/>
<line x1="2267.166564" y1="1178.555051" x2="2044.889399" y2="1178.555051" stroke="black" stroke-width="6.48"/>
<line x1="2044.889399" y1="1178.555051" x2="2044.889399" y2="955.822399" stroke="black" stroke-width="6.48"/>
<line x1="2044.433912" y1="955.366913" x2="2267.166564" y2="1178.555051" stroke="black" stroke-width="6.48"/>
<line x1="2044.889399" y1="1178.099564" x2="2266.711078" y2="955.822399" stroke="black" stroke-width="6.48"/>
<line x1="333.766206" y1="1375.361078" x2="333.766206" y2="949.854546" stroke="black" stroke-width="6.48"/>
<line x1="333.766206" y1="949.854546" x2="257.659348" y2="949.854546" stroke="black" stroke-width="6.48"/>
<line x1="257.659348" y1="949.854546" x2="257.659348" y2="1375.361078" stroke="black" stroke-width="6.48"/>
<line x1="257.659348" y1="1375.361078" x2="333.766206" y2="1375.361078" stroke="black" stroke-width="6.48"/>
<line x1="333.766206" y1="1355.469512" x2="359.711726" y2="1355.469512" stroke="black" stroke-width="6.48"/>
<line x1="359.711726" y1="1355.469512" x2="359.711726" y2="970.610962" stroke="black" stroke-width="6.48"/>
<line x1="333.766206" y1="970.610962" x2="359.711726" y2="970.610962" stroke="black" stroke-width="6.48"/>
<line x1="3874.406537" y1="1514.726719" x2="3874.406537" y2="1940.260162" stroke="black" stroke-width="6.48"/>
<line x1="3874.406537" y1="1940.260162" x2="3940.00601" y2="1940.260162" stroke="black" stroke-width="6.48"/>
<line x1="3940.00601" y1="1940.260162" x2="3940.00601" y2="1514.726719" stroke="black" stroke-width="6.48"/>
<line x1="3940.00601" y1="1514.726719" x2="3874.406537" y2="1514.726719" stroke="black" stroke-width="6.48"/>
<line x1="3939.14286" y1="1554.431663" x2="3875.269687" y2="1554.431663" stroke="black" stroke-width="6.48"/>
<line x1="3939.14286" y1="1899.692064" x2="3872.680232" y2="1899.692064" stroke="black" stroke-width="6.48"/>
<line x1="3908.932574" y1="1553.568512" x2="3908.932574" y2="1898.828914" stroke="black" stroke-width="6.48"/>
<line x1="4987.772158" y1="1414.381878" x2="4640.922086" y2="1229.958425" stroke="black" stroke-width="6.48"/>
<line x1="4640.922086" y1="1229.958425" x2="4554.287683" y2="1392.894043" stroke="black" stroke-width="6.48"/>
<line x1="4554.287683" y1="1392.894043" x2="4901.137751" y2="1577.317496" stroke="black" stroke-width="6.48"/>
<line x1="4901.137751" y1="1577.317496" x2="4987.772158" y2="1414.381878" stroke="black" stroke-width="6.48"/>
<line x1="4760.57956" y1="1502.581378" x2="4722.653768" y2="1573.909416" stroke="black" stroke-width="6.48"/>
<line x1="4722.653768" y1="1573.909416" x2="4791.883921" y2="1610.719744" stroke="black" stroke-width="6.48"/>
<line x1="4791.883921" y1="1610.719744" x2="4829.809712" y2="1539.391702" stroke="black" stroke-width="6.48"/>
<line x1="4799.3647" y1="1594.96344" x2="4730.83384" y2="1558.524935" stroke="black" stroke-width="6.48"/>
<line x1="4954.741729" y1="1304.428752" x2="4885.511576" y2="1267.618424" stroke="black" stroke-width="6.48"/>
<line x1="4885.511576" y1="1267.618424" x2="4847.213959" y2="1339.645759" stroke="black" stroke-width="6.48"/>
<line x1="4916.444119" y1="1376.456087" x2="4954.741729" y2="1304.428752" stroke="black" stroke-width="6.48"/>
<line x1="4945.862362" y1="1319.441411" x2="4877.331502" y2="1283.002906" stroke="black" stroke-width="6.48"/>
<line x1="4627.014307" y1="1431.563472" x2="4589.08852" y2="1502.891514" stroke="black" stroke-width="6.48"/>
<line x1="4589.08852" y1="1502.891514" x2="4658.318672" y2="1539.701838" stroke="black" stroke-width="6.48"/>
<line x1="4658.318672" y1="1539.701838" x2="4696.244464" y2="1468.3738" stroke="black" stroke-width="6.48"/>
<line x1="4666.498747" y1="1524.317357" x2="4597.268591" y2="1487.507036" stroke="black" stroke-width="6.48"/>
<line x1="4821.17648" y1="1233.41085" x2="4751.946324" y2="1196.600526" stroke="black" stroke-width="6.48"/>
<line x1="4751.946324" y1="1196.600526" x2="4713.648714" y2="1268.627857" stroke="black" stroke-width="6.48"/>
<line x1="4782.87887" y1="1305.438181" x2="4821.17648" y2="1233.41085" stroke="black" stroke-width="6.48"/>
<line x1="4812.996409" y1="1248.795328" x2="4743.766256" y2="1211.985" stroke="black" stroke-width="6.48"/>
<line x1="3244.908431" y1="1074.78068" x2="3454.273634" y2="1074.78068" stroke="black" stroke-width="6.48"/>
<line x1="3454.273634" y1="1074.78068" x2="3454.273634" y2="743.566277" stroke="black" stroke-width="6.48"/>
<line x1="3454.273634" y1="743.566277" x2="3244.908431" y2="743.566277" stroke="black" stroke-width="6.48"/>
<line x1="3244.908431" y1="743.566277" x2="3244.908431" y2="1074.78068" stroke="black" stroke-width="6.48"/>
<line x1="3244.235231" y1="802.807877" x2="3454.946831" y2="802.807877" stroke="black" stroke-width="6.48"/>
<line x1="3454.946831" y1="802.807877" x2="3245.581631" y2="852.62468" stroke="black" stroke-width="6.48"/>
<line x1="3245.581631" y1="852.62468" x2="3277.222034" y2="899.07548" stroke="black" stroke-width="6.48"/>
<line x1="3277.222034" y1="899.07548" x2="3454.946831" y2="802.13468" stroke="black" stroke-width="6.48"/>
<line x1="3273.317168" y1="1203.687439" x2="3495.594334" y2="1203.687439" stroke="black" stroke-width="6.48"/>
<line x1="3495.594334" y1="1203.687439" x2="3495.594334" y2="1426.420091" stroke="black" stroke-width="6.48"/>
<line x1="3495.594334" y1="1426.420091" x2="3273.317168" y2="1426.420091" stroke="black" stroke-width="6.48"/>
<line x1="3273.317168" y1="1426.420091" x2="3273.317168" y2="1203.687439" stroke="black" stroke-width="6.48"/>
<line x1="3272.861682" y1="1203.231953" x2="3495.594334" y2="1426.420091" stroke="black" stroke-width="6.48"/>
<line x1="3273.317168" y1="1425.964604" x2="3495.138847" y2="1203.687439" stroke="black" stroke-width="6.48"/>
<line x1="2804.16708" y1="1127.69402" x2="2804.16708" y2="1153.148746" stroke="black" stroke-width="6.48"/>
<line x1="2804.16708" y1="1153.148746" x2="2853.834836" y2="1153.148746" stroke="black" stroke-width="6.48"/>
<line x1="2853.834836" y1="1153.148746" x2="2853.834836" y2="1127.69402" stroke="black" stroke-width="6.48"/>
<line x1="2853.834836" y1="1127.69402" x2="2804.16708" y2="1127.69402" stroke="black" stroke-width="6.48"/>
<line x1="2853.834836" y1="1402.108373" x2="3101.55277" y2="1402.108373" stroke="black" stroke-width="6.48"/>
<line x1="2802.925386" y1="1402.729218" x2="2802.925386" y2="1428.183943" stroke="black" stroke-width="6.48"/>
<line x1="2802.925386" y1="1428.183943" x2="2852.593142" y2="1428.183943" stroke="black" stroke-width="6.48"/>
<line x1="2852.593142" y1="1428.183943" x2="2852.593142" y2="1402.729218" stroke="black" stroke-width="6.48"/>
<line x1="2852.593142" y1="1402.729218" x2="2802.925386" y2="1402.729218" stroke="black" stroke-width="6.48"/>
<path d="m 2851.972294,1153.148746 a 248.95962699999984,248.95962699999984 0 0 1 248.95962699999973,248.95962699999995" fill="none" stroke="black" stroke-width="6.48"/>
<line x1="2980.357045" y1="2032.955597" x2="2909.1519" y2="2209.194734" stroke="black" stroke-width="6.48"/>
<line x1="2909.1519" y1="2209.194734" x2="3339.175396" y2="2382.935285" stroke="black" stroke-width="6.48"/>
<line x1="3339.175396" y1="2382.935285" x2="3410.380541" y2="2206.696147" stroke="black" stroke-width="6.48"/>
<line x1="3410.380541" y1="2206.696147" x2="3388.35065" y2="2197.795504" stroke="black" stroke-width="6.48"/>
<line x1="3388.35065" y1="2197.795504" x2="3325.690123" y2="2352.885948" stroke="black" stroke-width="6.48"/>
<line x1="3325.690123" y1="2352.885948" x2="2940.607606" y2="2197.302707" stroke="black" stroke-width="6.48"/>
<line x1="2940.607606" y1="2197.302707" x2="3003.268133" y2="2042.212266" stroke="black" stroke-width="6.48"/>
<line x1="3003.268133" y1="2042.212266" x2="2980.357045" y2="2032.955597" stroke="black" stroke-width="6.48"/>
<line x1="3001.131979" y1="2047.499438" x2="3386.214497" y2="2203.08268" stroke="black" stroke-width="6.48"/>
<line x1="3193.588663" y1="2124.231851" x2="3133.064293" y2="2274.035119" stroke="black" stroke-width="6.48"/>
<line x1="3413.912047" y1="1707.112004" x2="3642.286601" y2="1666.843409" stroke="black" stroke-width="6.48"/>
<line x1="3642.286601" y1="1666.843409" x2="3682.637716" y2="1895.685944" stroke="black" stroke-width="6.48"/>
<line x1="3682.637716" y1="1895.685944" x2="3454.263162" y2="1935.95454" stroke="black" stroke-width="6.48"/>
<line x1="3454.263162" y1="1935.95454" x2="3413.912047" y2="1707.112004" stroke="black" stroke-width="6.48"/>
<line x1="3413.36155" y1="1706.726542" x2="3682.637716" y2="1895.685944" stroke="black" stroke-width="6.48"/>
<line x1="3454.180643" y1="1935.486558" x2="3641.818622" y2="1666.925928" stroke="black" stroke-width="6.48"/>
<line x1="3002.693659" y1="1600.28357" x2="3004.31021" y2="1631.129238" stroke="black" stroke-width="6.48"/>
<line x1="3004.31021" y1="1631.129238" x2="3213.58621" y2="1620.16155" stroke="black" stroke-width="6.48"/>
<line x1="3213.58621" y1="1620.16155" x2="3211.969658" y2="1589.315882" stroke="black" stroke-width="6.48"/>
<line x1="3211.969658" y1="1589.315882" x2="3002.693659" y2="1600.28357" stroke="black" stroke-width="6.48"/>
<line x1="3013.362907" y1="1803.864985" x2="3014.979458" y2="1834.710656" stroke="black" stroke-width="6.48"/>
<line x1="3014.979458" y1="1834.710656" x2="3224.255461" y2="1823.742968" stroke="black" stroke-width="6.48"/>
<line x1="3224.255461" y1="1823.742968" x2="3222.63891" y2="1792.897294" stroke="black" stroke-width="6.48"/>
<line x1="3222.63891" y1="1792.897294" x2="3013.362907" y2="1803.864985" stroke="black" stroke-width="6.48"/>
<line x1="3004.285342" y1="1630.654693" x2="3013.362907" y2="1803.864985" stroke="black" stroke-width="6.48"/>
<line x1="3212.587372" y1="1619.262194" x2="3240.080276" y2="1644.46907" stroke="black" stroke-width="6.48"/>
<line x1="3246.422137" y1="1765.479002" x2="3221.714682" y2="1793.421587" stroke="black" stroke-width="6.48"/>
<line x1="3239.980798" y1="1642.570877" x2="3246.521616" y2="1767.3772" stroke="black" stroke-width="6.48"/>
<line x1="3048.917792" y1="1628.791459" x2="3057.995358" y2="1802.001751" stroke="black" stroke-width="6.48"/>
<line x1="1153.310364" y1="1955.475781" x2="1175.529326" y2="1976.932397" stroke="black" stroke-width="6.48"/>
<line x1="1175.529326" y1="1976.932397" x2="1321.104193" y2="1826.18528" stroke="black" stroke-width="6.48"/>
<line x1="1321.104193" y1="1826.18528" x2="1298.885231" y2="1804.728665" stroke="black" stroke-width="6.48"/>
<line x1="1298.885231" y1="1804.728665" x2="1153.310364" y2="1955.475781" stroke="black" stroke-width="6.48"/>
<line x1="1299.955511" y1="2097.089428" x2="1322.174477" y2="2118.54604" stroke="black" stroke-width="6.48"/>
<line x1="1322.174477" y1="2118.54604" x2="1467.749344" y2="1967.798923" stroke="black" stroke-width="6.48"/>
<line x1="1467.749344" y1="1967.798923" x2="1445.530385" y2="1946.342315" stroke="black" stroke-width="6.48"/>
<line x1="1445.530385" y1="1946.342315" x2="1299.955511" y2="2097.089428" stroke="black" stroke-width="6.48"/>
<line x1="1175.187492" y1="1976.602291" x2="1299.955511" y2="2097.089428" stroke="black" stroke-width="6.48"/>
<line x1="1319.760331" y1="1826.208734" x2="1357.058419" y2="1825.893774" stroke="black" stroke-width="6.48"/>
<line x1="1444.225118" y1="1910.069719" x2="1445.212008" y2="1947.356078" stroke="black" stroke-width="6.48"/>
<line x1="1355.691092" y1="1824.573366" x2="1445.592434" y2="1911.390124" stroke="black" stroke-width="6.48"/>
<line x1="1206.558889" y1="1944.800356" x2="1331.326908" y2="2065.287492" stroke="black" stroke-width="6.48"/>
<line x1="6378.836407" y1="1949.854025" x2="6189.219432" y2="1963.113332" stroke="black" stroke-width="6.48"/>
<line x1="6189.219432" y1="1963.113332" x2="6221.57215" y2="2425.778752" stroke="black" stroke-width="6.48"/>
<line x1="6221.57215" y1="2425.778752" x2="6411.189125" y2="2412.51944" stroke="black" stroke-width="6.48"/>
<line x1="6411.189125" y1="2412.51944" x2="6409.53171" y2="2388.817321" stroke="black" stroke-width="6.48"/>
<line x1="6409.53171" y1="2388.817321" x2="6242.668772" y2="2400.485512" stroke="black" stroke-width="6.48"/>
<line x1="6242.668772" y1="2400.485512" x2="6213.697178" y2="1986.172427" stroke="black" stroke-width="6.48"/>
<line x1="6213.697178" y1="1986.172427" x2="6380.560116" y2="1974.504229" stroke="black" stroke-width="6.48"/>
<line x1="6380.560116" y1="1974.504229" x2="6378.836407" y2="1949.854025" stroke="black" stroke-width="6.48"/>
<line x1="6374.871608" y1="1974.902011" x2="6403.843202" y2="2389.2151" stroke="black" stroke-width="6.48"/>
<line x1="6390.27234" y1="2181.518215" x2="6229.097914" y2="2192.788627" stroke="black" stroke-width="6.48"/>
<line x1="2332.109653" y1="2048.947196" x2="2562.736889" y2="2073.187152" stroke="black" stroke-width="6.48"/>
<line x1="2562.736889" y1="2073.187152" x2="2538.44726" y2="2304.286985" stroke="black" stroke-width="6.48"/>
<line x1="2538.44726" y1="2304.286985" x2="2307.820025" y2="2280.047026" stroke="black" stroke-width="6.48"/>
<line x1="2307.820025" y1="2280.047026" x2="2332.109653" y2="2048.947196" stroke="black" stroke-width="6.48"/>
<line x1="2331.686729" y1="2048.424926" x2="2538.44726" y2="2304.286985" stroke="black" stroke-width="6.48"/>
<line x1="2307.869698" y1="2279.574428" x2="2562.264292" y2="2073.137479" stroke="black" stroke-width="6.48"/>
<line x1="3755.94377" y1="1170.151394" x2="3767.01304" y2="1141.314962" stroke="black" stroke-width="6.48"/>
<line x1="3767.01304" y1="1141.314962" x2="3571.368937" y2="1066.214228" stroke="black" stroke-width="6.48"/>
<line x1="3571.368937" y1="1066.214228" x2="3560.299668" y2="1095.050664" stroke="black" stroke-width="6.48"/>
<line x1="3560.299668" y1="1095.050664" x2="3755.94377" y2="1170.151394" stroke="black" stroke-width="6.48"/>
<line x1="3829.000946" y1="979.830943" x2="3840.070216" y2="950.994511" stroke="black" stroke-width="6.48"/>
<line x1="3840.070216" y1="950.994511" x2="3644.426113" y2="875.893777" stroke="black" stroke-width="6.48"/>
<line x1="3644.426113" y1="875.893777" x2="3633.356844" y2="904.730206" stroke="black" stroke-width="6.48"/>
<line x1="3633.356844" y1="904.730206" x2="3829.000946" y2="979.830943" stroke="black" stroke-width="6.48"/>
<line x1="3766.842742" y1="1141.758601" x2="3829.000946" y2="979.830943" stroke="black" stroke-width="6.48"/>
<line x1="3571.915619" y1="1067.442098" x2="3557.052162" y2="1033.232098" stroke="black" stroke-width="6.48"/>
<line x1="3600.477756" y1="920.104553" x2="3634.414416" y2="904.627163" stroke="black" stroke-width="6.48"/>
<line x1="3556.370977" y1="1035.006642" x2="3601.158944" y2="918.330005" stroke="black" stroke-width="6.48"/>
<line x1="3725.311122" y1="1125.307098" x2="3787.469327" y2="963.37944" stroke="black" stroke-width="6.48"/>
</g>
</svg>
