<?xml version="1.0"?>
<svg xmlns:xlink="http://www.w3.org/1999/xlink" width="6775.2" height="2858.4">
<image x="0" y="0" width="6775.2" height="2858.4" xlink:href="groundfilled-01.png"/>
<g style="stroke-linecap:round">
<line x1="1285.950406" y1="795.178109" x2="1311.346069" y2="795.178109" stroke="black" stroke-width="6.48"/>
<line x1="1311.346069" y1="795.178109" x2="1311.346069" y2="745.625592" stroke="black" stroke-width="6.48"/>
<line x1="1311.346069" y1="745.625592" x2="1285.950406" y2="745.625592" stroke="black" stroke-width="6.48"/>
<line x1="1285.950406" y1="745.625592" x2="1285.950406" y2="795.178109" stroke="black" stroke-width="6.48"/>
<line x1="1559.728062" y1="745.625592" x2="1559.728062" y2="498.48241" stroke="black" stroke-width="6.48"/>
<line x1="1560.347471" y1="796.416923" x2="1585.743134" y2="796.416923" stroke="black" stroke-width="6.48"/>
<line x1="1585.743134" y1="796.416923" x2="1585.743134" y2="746.864406" stroke="black" stroke-width="6.48"/>
<line x1="1585.743134" y1="746.864406" x2="1560.347471" y2="746.864406" stroke="black" stroke-width="6.48"/>
<line x1="1560.347471" y1="746.864406" x2="1560.347471" y2="796.416923" stroke="black" stroke-width="6.48"/>
<path d="m 1311.346069,747.483811 a 248.38199299999997,248.38199299999997 0 0 1 248.38199299999997,-248.38199299999997" fill="none" stroke="black" stroke-width="6.48"/>
<line x1="330.523178" y1="771.328966" x2="330.523178" y2="366.748985" stroke="black" stroke-width="6.48"/>
<line x1="330.523178" y1="366.748985" x2="258.15928" y2="366.748985" stroke="black" stroke-width="6.48"/>
<line x1="258.15928" y1="366.748985" x2="258.15928" y2="771.328966" stroke="black" stroke-width="6.48"/>
<line x1="258.15928" y1="771.328966" x2="330.523178" y2="771.328966" stroke="black" stroke-width="6.48"/>
<line x1="330.523178" y1="752.415674" x2="355.19269" y2="752.415674" stroke="black" stroke-width="6.48"/>
<line x1="355.19269" y1="752.415674" x2="355.19269" y2="386.484595" stroke="black" stroke-width="6.48"/>
<line x1="330.523178" y1="386.484595" x2="355.19269" y2="386.484595" stroke="black" stroke-width="6.48"/>
<line x1="3901.945176" y1="1169.331426" x2="3901.945176" y2="1428.837066" stroke="black" stroke-width="6.48"/>
<line x1="3901.945176" y1="1428.837066" x2="3941.9501" y2="1428.837066" stroke="black" stroke-width="6.48"/>
<line x1="3941.9501" y1="1428.837066" x2="3941.9501" y2="1169.331426" stroke="black" stroke-width="6.48"/>
<line x1="3941.9501" y1="1169.331426" x2="3901.945176" y2="1169.331426" stroke="black" stroke-width="6.48"/>
<line x1="3941.423719" y1="1193.544936" x2="3902.471557" y2="1193.544936" stroke="black" stroke-width="6.48"/>
<line x1="3941.423719" y1="1404.097178" x2="3900.892414" y2="1404.097178" stroke="black" stroke-width="6.48"/>
<line x1="3923.000399" y1="1193.018555" x2="3923.000399" y2="1403.570797" stroke="black" stroke-width="6.48"/>
<line x1="323.923298" y1="1882.957399" x2="323.923298" y2="1457.423957" stroke="black" stroke-width="6.48"/>
<line x1="323.923298" y1="1457.423957" x2="258.323825" y2="1457.423957" stroke="black" stroke-width="6.48"/>
<line x1="258.323825" y1="1457.423957" x2="258.323825" y2="1882.957399" stroke="black" stroke-width="6.48"/>
<line x1="258.323825" y1="1882.957399" x2="323.923298" y2="1882.957399" stroke="black" stroke-width="6.48"/>
<line x1="259.186975" y1="1843.252456" x2="323.060148" y2="1843.252456" stroke="black" stroke-width="6.48"/>
<line x1="259.186975" y1="1497.992054" x2="325.649603" y2="1497.992054" stroke="black" stroke-width="6.48"/>
<line x1="289.397261" y1="1844.115606" x2="289.397261" y2="1498.855205" stroke="black" stroke-width="6.48"/>
<line x1="2747.905531" y1="904.670665" x2="2721.68303" y2="904.670665" stroke="black" stroke-width="6.48"/>
<line x1="2721.68303" y1="904.670665" x2="2721.68303" y2="955.836522" stroke="black" stroke-width="6.48"/>
<line x1="2721.68303" y1="955.836522" x2="2747.905531" y2="955.836522" stroke="black" stroke-width="6.48"/>
<line x1="2747.905531" y1="955.836522" x2="2747.905531" y2="904.670665" stroke="black" stroke-width="6.48"/>
<line x1="2465.214181" y1="955.836522" x2="2465.214181" y2="1211.026223" stroke="black" stroke-width="6.48"/>
<line x1="2464.574609" y1="903.39152" x2="2438.352108" y2="903.39152" stroke="black" stroke-width="6.48"/>
<line x1="2438.352108" y1="903.39152" x2="2438.352108" y2="954.557374" stroke="black" stroke-width="6.48"/>
<line x1="2438.352108" y1="954.557374" x2="2464.574609" y2="954.557374" stroke="black" stroke-width="6.48"/>
<line x1="2464.574609" y1="954.557374" x2="2464.574609" y2="903.39152" stroke="black" stroke-width="6.48"/>
<path d="m 2721.68303,953.917801 a 256.4688490000001,256.4688490000001 0 0 1 -256.4688490000003,256.46884899999986" fill="none" stroke="black" stroke-width="6.48"/>
<line x1="2420.532389" y1="1427.858834" x2="2395.136725" y2="1427.858834" stroke="black" stroke-width="6.48"/>
<line x1="2395.136725" y1="1427.858834" x2="2395.136725" y2="1477.411351" stroke="black" stroke-width="6.48"/>
<line x1="2395.136725" y1="1477.411351" x2="2420.532389" y2="1477.411351" stroke="black" stroke-width="6.48"/>
<line x1="2420.532389" y1="1477.411351" x2="2420.532389" y2="1427.858834" stroke="black" stroke-width="6.48"/>
<line x1="2146.754732" y1="1477.411351" x2="2146.754732" y2="1724.554534" stroke="black" stroke-width="6.48"/>
<line x1="2146.135324" y1="1426.62002" x2="2120.73966" y2="1426.62002" stroke="black" stroke-width="6.48"/>
<line x1="2120.73966" y1="1426.62002" x2="2120.73966" y2="1476.172537" stroke="black" stroke-width="6.48"/>
<line x1="2120.73966" y1="1476.172537" x2="2146.135324" y2="1476.172537" stroke="black" stroke-width="6.48"/>
<line x1="2146.135324" y1="1476.172537" x2="2146.135324" y2="1426.62002" stroke="black" stroke-width="6.48"/>
<path d="m 2395.136725,1475.553132 a 248.38199299999997,248.38199299999997 0 0 1 -248.38199299999997,248.38199299999997" fill="none" stroke="black" stroke-width="6.48"/>
<line x1="830.2486" y1="541.339351" x2="1062.1462" y2="541.339351" stroke="black" stroke-width="6.48"/>
<line x1="1062.1462" y1="541.339351" x2="1062.1462" y2="773.712151" stroke="black" stroke-width="6.48"/>
<line x1="1062.1462" y1="773.712151" x2="830.2486" y2="773.712151" stroke="black" stroke-width="6.48"/>
<line x1="830.2486" y1="773.712151" x2="830.2486" y2="541.339351" stroke="black" stroke-width="6.48"/>
<line x1="829.7734" y1="540.864151" x2="1062.1462" y2="773.712151" stroke="black" stroke-width="6.48"/>
<line x1="830.2486" y1="773.236951" x2="1061.671" y2="541.339351" stroke="black" stroke-width="6.48"/>
<line x1="2032.924367" y1="2058.698142" x2="2032.924367" y2="2027.810142" stroke="black" stroke-width="6.48"/>
<line x1="2032.924367" y1="2027.810142" x2="1823.361167" y2="2027.810142" stroke="black" stroke-width="6.48"/>
<line x1="1823.361167" y1="2027.810142" x2="1823.361167" y2="2058.698142" stroke="black" stroke-width="6.48"/>
<line x1="1823.361167" y1="2058.698142" x2="2032.924367" y2="2058.698142" stroke="black" stroke-width="6.48"/>
<line x1="2032.924367" y1="1854.837342" x2="2032.924367" y2="1823.949342" stroke="black" stroke-width="6.48"/>
<line x1="2032.924367" y1="1823.949342" x2="1823.361167" y2="1823.949342" stroke="black" stroke-width="6.48"/>
<line x1="1823.361167" y1="1823.949342" x2="1823.361167" y2="1854.837342" stroke="black" stroke-width="6.48"/>
<line x1="1823.361167" y1="1854.837342" x2="2032.924367" y2="1854.837342" stroke="black" stroke-width="6.48"/>
<line x1="2032.924367" y1="2028.285342" x2="2032.924367" y2="1854.837342" stroke="black" stroke-width="6.48"/>
<line x1="1824.311567" y1="2028.760542" x2="1798.175567" y2="2002.149342" stroke="black" stroke-width="6.48"/>
<line x1="1798.175567" y1="1880.973342" x2="1824.311567" y2="1854.362142" stroke="black" stroke-width="6.48"/>
<line x1="1798.175567" y1="2004.050142" x2="1798.175567" y2="1879.072542" stroke="black" stroke-width="6.48"/>
<line x1="1988.255567" y1="2027.810142" x2="1988.255567" y2="1854.362142" stroke="black" stroke-width="6.48"/>
<line x1="1485.415969" y1="209.267824" x2="1707.693134" y2="209.267824" stroke="black" stroke-width="6.48"/>
<line x1="1707.693134" y1="209.267824" x2="1707.693134" y2="432.000475" stroke="black" stroke-width="6.48"/>
<line x1="1707.693134" y1="432.000475" x2="1485.415969" y2="432.000475" stroke="black" stroke-width="6.48"/>
<line x1="1485.415969" y1="432.000475" x2="1485.415969" y2="209.267824" stroke="black" stroke-width="6.48"/>
<line x1="1484.960483" y1="208.812337" x2="1707.693134" y2="432.000475" stroke="black" stroke-width="6.48"/>
<line x1="1485.415969" y1="431.544989" x2="1707.237648" y2="209.267824" stroke="black" stroke-width="6.48"/>
<line x1="2761.020558" y1="2194.614338" x2="2761.020558" y2="1803.366338" stroke="black" stroke-width="6.48"/>
<line x1="2761.020558" y1="1803.366338" x2="2586.780558" y2="1803.366338" stroke="black" stroke-width="6.48"/>
<line x1="2586.780558" y1="1803.366338" x2="2586.780558" y2="2194.614338" stroke="black" stroke-width="6.48"/>
<line x1="2586.780558" y1="2194.614338" x2="2761.020558" y2="2194.614338" stroke="black" stroke-width="6.48"/>
<line x1="2613.708558" y1="1878.606338" x2="2613.708558" y2="2162.934338" stroke="black" stroke-width="6.48"/>
<line x1="2613.708558" y1="2162.934338" x2="2731.716558" y2="2162.934338" stroke="black" stroke-width="6.48"/>
<line x1="2731.716558" y1="2162.934338" x2="2731.716558" y2="1873.062338" stroke="black" stroke-width="6.48"/>
<path d="m 2613.453134,1879.416911 a 63.3599990854681,63.3599990854681 0 0 1 119.3743300000001,-4.293814000000111" fill="none" stroke="black" stroke-width="6.48"/>
<line x1="2105.827924" y1="1908.958842" x2="2105.827924" y2="2092.702842" stroke="black" stroke-width="6.48"/>
<line x1="2105.827924" y1="2092.702842" x2="2056.723924" y2="2092.702842" stroke="black" stroke-width="6.48"/>
<line x1="2056.723924" y1="1908.958842" x2="2056.723924" y2="2092.702842" stroke="black" stroke-width="6.48"/>
<line x1="2105.827924" y1="1908.958842" x2="2056.723924" y2="1908.958842" stroke="black" stroke-width="6.48"/>
<line x1="2133.547924" y1="1950.538842" x2="2105.827924" y2="1950.538842" stroke="black" stroke-width="6.48"/>
<line x1="2105.827924" y1="2049.538842" x2="2135.131924" y2="2049.538842" stroke="black" stroke-width="6.48"/>
<circle cx="2178.691924" cy="1999.246842" r="66.52800000000002" fill="none" stroke="black" stroke-width="6.48"/>
<circle cx="2178.691924" cy="1999.246842" r="57.02400000000001" fill="none" stroke="black" stroke-width="6.48"/>
<line x1="477.355561" y1="210.07274" x2="870.599434" y2="210.07274" stroke="black" stroke-width="6.48"/>
<line x1="874.55484" y1="209.076458" x2="874.55484" y2="345.145234" stroke="black" stroke-width="6.48"/>
<line x1="477.81995" y1="346.29674" x2="874.860181" y2="346.29674" stroke="black" stroke-width="6.48"/>
<line x1="478.55484" y1="210.76749" x2="478.55484" y2="346.031546" stroke="black" stroke-width="6.48"/>
<line x1="488.85084" y1="221.16074" x2="612.40284" y2="221.16074" stroke="black" stroke-width="6.48"/>
<line x1="612.40284" y1="221.16074" x2="612.40284" y2="335.20874" stroke="black" stroke-width="6.48"/>
<line x1="488.85084" y1="335.20874" x2="612.40284" y2="335.20874" stroke="black" stroke-width="6.48"/>
<line x1="488.85084" y1="221.16074" x2="488.85084" y2="335.20874" stroke="black" stroke-width="6.48"/>
<line x1="631.41084" y1="228.28874" x2="718.53084" y2="228.28874" stroke="black" stroke-width="6.48"/>
<line x1="631.41084" y1="248.08874" x2="718.53084" y2="248.08874" stroke="black" stroke-width="6.48"/>
<line x1="632.20284" y1="268.68074" x2="718.53084" y2="268.68074" stroke="black" stroke-width="6.48"/>
<line x1="632.20284" y1="288.48074" x2="718.53084" y2="288.48074" stroke="black" stroke-width="6.48"/>
<line x1="631.41084" y1="308.28074" x2="718.53084" y2="308.28074" stroke="black" stroke-width="6.48"/>
<line x1="631.41084" y1="328.08074" x2="718.53084" y2="328.08074" stroke="black" stroke-width="6.48"/>
<line x1="536.37084" y1="334.41674" x2="536.37084" y2="320.95274" stroke="black" stroke-width="6.48"/>
<line x1="536.37084" y1="320.95274" x2="566.46684" y2="320.95274" stroke="black" stroke-width="6.48"/>
<line x1="566.46684" y1="320.95274" x2="566.46684" y2="333.62474" stroke="black" stroke-width="6.48"/>
<line x1="739.12284" y1="221.16074" x2="862.67484" y2="221.16074" stroke="black" stroke-width="6.48"/>
<line x1="862.67484" y1="221.16074" x2="862.67484" y2="335.20874" stroke="black" stroke-width="6.48"/>
<line x1="739.12284" y1="335.20874" x2="862.67484" y2="335.20874" stroke="black" stroke-width="6.48"/>
<line x1="739.12284" y1="221.16074" x2="739.12284" y2="335.20874" stroke="black" stroke-width="6.48"/>
<line x1="786.64284" y1="335.20874" x2="786.64284" y2="321.74474" stroke="black" stroke-width="6.48"/>
<line x1="786.64284" y1="321.74474" x2="816.73884" y2="321.74474" stroke="black" stroke-width="6.48"/>
<line x1="816.73884" y1="321.74474" x2="816.73884" y2="334.41674" stroke="black" stroke-width="6.48"/>
<circle cx="598.14684" cy="235.41674" r="7.128000000000001" fill="none" stroke="black" stroke-width="6.48"/>
<circle cx="848.41884" cy="236.20874" r="7.128000000000001" fill="none" stroke="black" stroke-width="6.48"/>
<line x1="609.762222" y1="1086.559729" x2="935.43471" y2="1306.228597" stroke="black" stroke-width="6.48"/>
<line x1="935.43471" y1="1306.228597" x2="1038.625931" y2="1153.24132" stroke="black" stroke-width="6.48"/>
<line x1="1038.625931" y1="1153.24132" x2="712.953443" y2="933.572452" stroke="black" stroke-width="6.48"/>
<line x1="712.953443" y1="933.572452" x2="609.762222" y2="1086.559729" stroke="black" stroke-width="6.48"/>
<line x1="844.929594" y1="1022.591491" x2="890.103431" y2="955.618517" stroke="black" stroke-width="6.48"/>
<line x1="890.103431" y1="955.618517" x2="825.100254" y2="911.773321" stroke="black" stroke-width="6.48"/>
<line x1="825.100254" y1="911.773321" x2="779.926417" y2="978.746292" stroke="black" stroke-width="6.48"/>
<line x1="816.013476" y1="926.661355" x2="880.360052" y2="970.063672" stroke="black" stroke-width="6.48"/>
<line x1="631.118473" y1="1199.363137" x2="696.121654" y2="1243.208336" stroke="black" stroke-width="6.48"/>
<line x1="696.121654" y1="1243.208336" x2="741.73837" y2="1175.578769" stroke="black" stroke-width="6.48"/>
<line x1="676.735189" y1="1131.73357" x2="631.118473" y2="1199.363137" stroke="black" stroke-width="6.48"/>
<line x1="641.518448" y1="1185.360872" x2="705.865025" y2="1228.763189" stroke="black" stroke-width="6.48"/>
<line x1="970.339763" y1="1107.181721" x2="1015.513603" y2="1040.208746" stroke="black" stroke-width="6.48"/>
<line x1="1015.513603" y1="1040.208746" x2="950.510423" y2="996.363551" stroke="black" stroke-width="6.48"/>
<line x1="950.510423" y1="996.363551" x2="905.336586" y2="1063.336522" stroke="black" stroke-width="6.48"/>
<line x1="940.767048" y1="1010.808702" x2="1005.770225" y2="1054.653901" stroke="black" stroke-width="6.48"/>
<line x1="756.528646" y1="1283.953367" x2="821.531822" y2="1327.798566" stroke="black" stroke-width="6.48"/>
<line x1="821.531822" y1="1327.798566" x2="867.148542" y2="1260.168998" stroke="black" stroke-width="6.48"/>
<line x1="802.145365" y1="1216.323799" x2="756.528646" y2="1283.953367" stroke="black" stroke-width="6.48"/>
<line x1="766.272024" y1="1269.508219" x2="831.275201" y2="1313.353415" stroke="black" stroke-width="6.48"/>
<line x1="2044.889399" y1="955.822399" x2="2267.166564" y2="955.822399" stroke="black" stroke-width="6.48"/>
<line x1="2267.166564" y1="955.822399" x2="2267.166564" y2="1178.555051" stroke="black" stroke-width="6.48"/>
<line x1="2267.166564" y1="1178.555051" x2="2044.889399" y2="1178.555051" stroke="black" stroke-width="6.48"/>
<line x1="2044.889399" y1="1178.555051" x2="2044.889399" y2="955.822399" stroke="black" stroke-width="6.48"/>
<line x1="2044.433912" y1="955.366913" x2="2267.166564" y2="1178.555051" stroke="black" stroke-width="6.48"/>
<line x1="2044.889399" y1="1178.099564" x2="2266.711078" y2="955.822399" stroke="black" stroke-width="6.48"/>
<line x1="323.258818" y1="1375.374532" x2="323.258818" y2="949.841089" stroke="black" stroke-width="6.48"/>
<line x1="323.258818" y1="949.841089" x2="257.659344" y2="949.841089" stroke="black" stroke-width="6.48"/>
<line x1="257.659344" y1="949.841089" x2="257.659344" y2="1375.374532" stroke="black" stroke-width="6.48"/>
<line x1="257.659344" y1="1375.374532" x2="323.258818" y2="1375.374532" stroke="black" stroke-width="6.48"/>
<line x1="258.522494" y1="1335.669588" x2="322.395667" y2="1335.669588" stroke="black" stroke-width="6.48"/>
<line x1="258.522494" y1="990.409187" x2="324.985122" y2="990.409187" stroke="black" stroke-width="6.48"/>
<line x1="288.73278" y1="1336.532738" x2="288.73278" y2="991.272337" stroke="black" stroke-width="6.48"/>
<line x1="3874.406537" y1="1514.726719" x2="3874.406537" y2="1940.260162" stroke="black" stroke-width="6.48"/>
<line x1="3874.406537" y1="1940.260162" x2="3940.00601" y2="1940.260162" stroke="black" stroke-width="6.48"/>
<line x1="3940.00601" y1="1940.260162" x2="3940.00601" y2="1514.726719" stroke="black" stroke-width="6.48"/>
<line x1="3940.00601" y1="1514.726719" x2="3874.406537" y2="1514.726719" stroke="black" stroke-width="6.48"/>
<line x1="3939.14286" y1="1554.431663" x2="3875.269687" y2="1554.431663" stroke="black" stroke-width="6.48"/>
<line x1="3939.14286" y1="1899.692064" x2="3872.680232" y2="1899.692064" stroke="black" stroke-width="6.48"/>
<line x1="3908.932574" y1="1553.568512" x2="3908.932574" y2="1898.828914" stroke="black" stroke-width="6.48"/>
<line x1="4726.003932" y1="1331.308462" x2="4852.991984" y2="1294.895225" stroke="black" stroke-width="6.48"/>
<line x1="4852.991984" y1="1294.895225" x2="4856.921471" y2="1308.59897" stroke="black" stroke-width="6.48"/>
<line x1="4729.933418" y1="1345.012207" x2="4856.921471" y2="1308.59897" stroke="black" stroke-width="6.48"/>
<line x1="4726.003932" y1="1331.308462" x2="4729.933418" y2="1345.012207" stroke="black" stroke-width="6.48"/>
<line x1="4742.723581" y1="1341.344689" x2="4749.541286" y2="1372.016862" stroke="black" stroke-width="6.48"/>
<line x1="4844.131308" y1="1312.266492" x2="4854.865306" y2="1342.804385" stroke="black" stroke-width="6.48"/>
<line x1="4853.057317" y1="1774.396274" x2="4980.04537" y2="1737.983038" stroke="black" stroke-width="6.48"/>
<line x1="4980.04537" y1="1737.983038" x2="4976.377848" y2="1725.192871" stroke="black" stroke-width="6.48"/>
<line x1="4849.389796" y1="1761.606108" x2="4976.377848" y2="1725.192871" stroke="black" stroke-width="6.48"/>
<line x1="4853.057317" y1="1774.396274" x2="4849.389796" y2="1761.606108" stroke="black" stroke-width="6.48"/>
<line x1="4860.742446" y1="1756.373389" x2="4850.27041" y2="1726.749079" stroke="black" stroke-width="6.48"/>
<line x1="4962.150169" y1="1727.295192" x2="4955.984086" y2="1695.447472" stroke="black" stroke-width="6.48"/>
<line x1="5055.448356" y1="1407.886999" x2="5041.744607" y2="1411.816482" stroke="black" stroke-width="6.48"/>
<line x1="5041.744607" y1="1411.816482" x2="5078.157847" y2="1538.804534" stroke="black" stroke-width="6.48"/>
<line x1="5091.861593" y1="1534.875052" x2="5078.157847" y2="1538.804534" stroke="black" stroke-width="6.48"/>
<line x1="5055.448356" y1="1407.886999" x2="5091.861593" y2="1534.875052" stroke="black" stroke-width="6.48"/>
<line x1="5074.228357" y1="1525.100789" x2="5043.952433" y2="1536.748373" stroke="black" stroke-width="6.48"/>
<line x1="5045.412128" y1="1424.606645" x2="5013.826373" y2="1431.686315" stroke="black" stroke-width="6.48"/>
<line x1="4613.012161" y1="1533.764833" x2="4626.715907" y2="1529.835347" stroke="black" stroke-width="6.48"/>
<line x1="4626.715907" y1="1529.835347" x2="4663.129144" y2="1656.823399" stroke="black" stroke-width="6.48"/>
<line x1="4649.425398" y1="1660.752886" x2="4663.129144" y2="1656.823399" stroke="black" stroke-width="6.48"/>
<line x1="4613.012161" y1="1533.764833" x2="4649.425398" y2="1660.752886" stroke="black" stroke-width="6.48"/>
<line x1="4659.199661" y1="1643.119654" x2="4691.047381" y2="1636.953566" stroke="black" stroke-width="6.48"/>
<line x1="4630.383428" y1="1542.62551" x2="4660.921321" y2="1531.891508" stroke="black" stroke-width="6.48"/>
<circle cx="4852.436875" cy="1534.319942" r="191.98080000000002" fill="none" stroke="black" stroke-width="6.48"/>
<line x1="3167.000752" y1="1074.523561" x2="3376.365955" y2="1074.523561" stroke="black" stroke-width="6.48"/>
<line x1="3376.365955" y1="1074.523561" x2="3376.365955" y2="743.309158" stroke="black" stroke-width="6.48"/>
<line x1="3376.365955" y1="743.309158" x2="3167.000752" y2="743.309158" stroke="black" stroke-width="6.48"/>
<line x1="3167.000752" y1="743.309158" x2="3167.000752" y2="1074.523561" stroke="black" stroke-width="6.48"/>
<line x1="3166.327552" y1="802.550758" x2="3377.039152" y2="802.550758" stroke="black" stroke-width="6.48"/>
<line x1="3377.039152" y1="802.550758" x2="3167.673952" y2="852.367561" stroke="black" stroke-width="6.48"/>
<line x1="3167.673952" y1="852.367561" x2="3199.314355" y2="898.818361" stroke="black" stroke-width="6.48"/>
<line x1="3199.314355" y1="898.818361" x2="3377.039152" y2="801.877561" stroke="black" stroke-width="6.48"/>
<line x1="3192.892103" y1="1204.013045" x2="3415.169268" y2="1204.013045" stroke="black" stroke-width="6.48"/>
<line x1="3415.169268" y1="1204.013045" x2="3415.169268" y2="1426.745696" stroke="black" stroke-width="6.48"/>
<line x1="3415.169268" y1="1426.745696" x2="3192.892103" y2="1426.745696" stroke="black" stroke-width="6.48"/>
<line x1="3192.892103" y1="1426.745696" x2="3192.892103" y2="1204.013045" stroke="black" stroke-width="6.48"/>
<line x1="3192.436616" y1="1203.557558" x2="3415.169268" y2="1426.745696" stroke="black" stroke-width="6.48"/>
<line x1="3192.892103" y1="1426.29021" x2="3414.713782" y2="1204.013045" stroke="black" stroke-width="6.48"/>
<line x1="2804.16708" y1="1127.69402" x2="2804.16708" y2="1153.148746" stroke="black" stroke-width="6.48"/>
<line x1="2804.16708" y1="1153.148746" x2="2853.834836" y2="1153.148746" stroke="black" stroke-width="6.48"/>
<line x1="2853.834836" y1="1153.148746" x2="2853.834836" y2="1127.69402" stroke="black" stroke-width="6.48"/>
<line x1="2853.834836" y1="1127.69402" x2="2804.16708" y2="1127.69402" stroke="black" stroke-width="6.48"/>
<line x1="2853.834836" y1="1402.108373" x2="3101.55277" y2="1402.108373" stroke="black" stroke-width="6.48"/>
<line x1="2802.925386" y1="1402.729218" x2="2802.925386" y2="1428.183943" stroke="black" stroke-width="6.48"/>
<line x1="2802.925386" y1="1428.183943" x2="2852.593142" y2="1428.183943" stroke="black" stroke-width="6.48"/>
<line x1="2852.593142" y1="1428.183943" x2="2852.593142" y2="1402.729218" stroke="black" stroke-width="6.48"/>
<line x1="2852.593142" y1="1402.729218" x2="2802.925386" y2="1402.729218" stroke="black" stroke-width="6.48"/>
<path d="m 2851.972294,1153.148746 a 248.95962699999984,248.95962699999984 0 0 1 248.95962699999973,248.95962699999995" fill="none" stroke="black" stroke-width="6.48"/>
<line x1="2988.81765" y1="2037.038332" x2="2917.612505" y2="2213.277469" stroke="black" stroke-width="6.48"/>
<line x1="2917.612505" y1="2213.277469" x2="3347.636" y2="2387.01802" stroke="black" stroke-width="6.48"/>
<line x1="3347.636" y1="2387.01802" x2="3418.841146" y2="2210.778882" stroke="black" stroke-width="6.48"/>
<line x1="3418.841146" y1="2210.778882" x2="3396.811255" y2="2201.878238" stroke="black" stroke-width="6.48"/>
<line x1="3396.811255" y1="2201.878238" x2="3334.150728" y2="2356.968683" stroke="black" stroke-width="6.48"/>
<line x1="3334.150728" y1="2356.968683" x2="2949.06821" y2="2201.385442" stroke="black" stroke-width="6.48"/>
<line x1="2949.06821" y1="2201.385442" x2="3011.728738" y2="2046.295001" stroke="black" stroke-width="6.48"/>
<line x1="3011.728738" y1="2046.295001" x2="2988.81765" y2="2037.038332" stroke="black" stroke-width="6.48"/>
<line x1="3009.592584" y1="2051.582173" x2="3394.675102" y2="2207.165414" stroke="black" stroke-width="6.48"/>
<line x1="3202.049268" y1="2128.314586" x2="3141.524898" y2="2278.117854" stroke="black" stroke-width="6.48"/>
<line x1="3384.406973" y1="1809.821851" x2="3539.576754" y2="1637.48835" stroke="black" stroke-width="6.48"/>
<line x1="3539.576754" y1="1637.48835" x2="3712.263401" y2="1792.976101" stroke="black" stroke-width="6.48"/>
<line x1="3712.263401" y1="1792.976101" x2="3557.09362" y2="1965.309602" stroke="black" stroke-width="6.48"/>
<line x1="3557.09362" y1="1965.309602" x2="3384.406973" y2="1809.821851" stroke="black" stroke-width="6.48"/>
<line x1="3383.735861" y1="1809.857023" x2="3712.263401" y2="1792.976101" stroke="black" stroke-width="6.48"/>
<line x1="3556.740474" y1="1964.991636" x2="3539.258784" y2="1637.841492" stroke="black" stroke-width="6.48"/>
<line x1="3066.685171" y1="1589.315879" x2="3055.615902" y2="1618.152311" stroke="black" stroke-width="6.48"/>
<line x1="3055.615902" y1="1618.152311" x2="3251.260004" y2="1693.253045" stroke="black" stroke-width="6.48"/>
<line x1="3251.260004" y1="1693.253045" x2="3262.329274" y2="1664.416613" stroke="black" stroke-width="6.48"/>
<line x1="3262.329274" y1="1664.416613" x2="3066.685171" y2="1589.315879" stroke="black" stroke-width="6.48"/>
<line x1="2993.627995" y1="1779.63633" x2="2982.558726" y2="1808.472762" stroke="black" stroke-width="6.48"/>
<line x1="2982.558726" y1="1808.472762" x2="3178.202828" y2="1883.573496" stroke="black" stroke-width="6.48"/>
<line x1="3178.202828" y1="1883.573496" x2="3189.272098" y2="1854.737068" stroke="black" stroke-width="6.48"/>
<line x1="3189.272098" y1="1854.737068" x2="2993.627995" y2="1779.63633" stroke="black" stroke-width="6.48"/>
<line x1="3055.7862" y1="1617.708672" x2="2993.627995" y2="1779.63633" stroke="black" stroke-width="6.48"/>
<line x1="3250.713323" y1="1692.025175" x2="3265.57678" y2="1726.235176" stroke="black" stroke-width="6.48"/>
<line x1="3222.151186" y1="1839.362717" x2="3188.214526" y2="1854.84011" stroke="black" stroke-width="6.48"/>
<line x1="3266.257964" y1="1724.460631" x2="3221.469997" y2="1841.137268" stroke="black" stroke-width="6.48"/>
<line x1="3097.31782" y1="1634.160175" x2="3035.159615" y2="1796.087833" stroke="black" stroke-width="6.48"/>
<line x1="2293.649374" y1="2277.939719" x2="2324.368166" y2="2281.1684" stroke="black" stroke-width="6.48"/>
<line x1="2324.368166" y1="2281.1684" x2="2346.273536" y2="2072.753215" stroke="black" stroke-width="6.48"/>
<line x1="2346.273536" y1="2072.753215" x2="2315.554744" y2="2069.524534" stroke="black" stroke-width="6.48"/>
<line x1="2315.554744" y1="2069.524534" x2="2293.649374" y2="2277.939719" stroke="black" stroke-width="6.48"/>
<line x1="2496.3934" y1="2299.249026" x2="2527.112189" y2="2302.477708" stroke="black" stroke-width="6.48"/>
<line x1="2527.112189" y1="2302.477708" x2="2549.017559" y2="2094.062522" stroke="black" stroke-width="6.48"/>
<line x1="2549.017559" y1="2094.062522" x2="2518.29877" y2="2090.833841" stroke="black" stroke-width="6.48"/>
<line x1="2518.29877" y1="2090.833841" x2="2496.3934" y2="2299.249026" stroke="black" stroke-width="6.48"/>
<line x1="2323.895569" y1="2281.118728" x2="2496.3934" y2="2299.249026" stroke="black" stroke-width="6.48"/>
<line x1="2345.229" y1="2073.599064" x2="2374.426382" y2="2050.387877" stroke="black" stroke-width="6.48"/>
<line x1="2494.938564" y1="2063.054246" x2="2518.672021" y2="2091.828704" stroke="black" stroke-width="6.48"/>
<line x1="2372.535994" y1="2050.189189" x2="2496.828949" y2="2063.252934" stroke="black" stroke-width="6.48"/>
<line x1="2329.037338" y1="2236.744303" x2="2501.535168" y2="2254.874598" stroke="black" stroke-width="6.48"/>
<line x1="1402.182216" y1="1921.63631" x2="1411.727126" y2="1951.012548" stroke="black" stroke-width="6.48"/>
<line x1="1411.727126" y1="1951.012548" x2="1611.033592" y2="1886.254006" stroke="black" stroke-width="6.48"/>
<line x1="1611.033592" y1="1886.254006" x2="1601.488681" y2="1856.877768" stroke="black" stroke-width="6.48"/>
<line x1="1601.488681" y1="1856.877768" x2="1402.182216" y2="1921.63631" stroke="black" stroke-width="6.48"/>
<line x1="1465.178623" y1="2115.519469" x2="1474.723534" y2="2144.895703" stroke="black" stroke-width="6.48"/>
<line x1="1474.723534" y1="2144.895703" x2="1674.029992" y2="2080.137164" stroke="black" stroke-width="6.48"/>
<line x1="1674.029992" y1="2080.137164" x2="1664.485085" y2="2050.760923" stroke="black" stroke-width="6.48"/>
<line x1="1664.485085" y1="2050.760923" x2="1465.178623" y2="2115.519469" stroke="black" stroke-width="6.48"/>
<line x1="1411.580286" y1="1950.560604" x2="1465.178623" y2="2115.519469" stroke="black" stroke-width="6.48"/>
<line x1="1609.836016" y1="1885.643806" x2="1642.916138" y2="1902.876106" stroke="black" stroke-width="6.48"/>
<line x1="1680.361553" y1="2018.12134" x2="1663.728044" y2="2051.506559" stroke="black" stroke-width="6.48"/>
<line x1="1642.328762" y1="1901.068337" x2="1680.948932" y2="2019.929108" stroke="black" stroke-width="6.48"/>
<line x1="1454.209686" y1="1937.209136" x2="1507.808023" y2="2102.167998" stroke="black" stroke-width="6.48"/>
<line x1="5980.776858" y1="1430.77684" x2="5791.738136" y2="1410.908069" stroke="black" stroke-width="6.48"/>
<line x1="5791.738136" y1="1410.908069" x2="5743.258337" y2="1872.162551" stroke="black" stroke-width="6.48"/>
<line x1="5743.258337" y1="1872.162551" x2="5932.297058" y2="1892.031318" stroke="black" stroke-width="6.48"/>
<line x1="5932.297058" y1="1892.031318" x2="5934.780655" y2="1868.40148" stroke="black" stroke-width="6.48"/>
<line x1="5934.780655" y1="1868.40148" x2="5768.426578" y2="1850.916964" stroke="black" stroke-width="6.48"/>
<line x1="5768.426578" y1="1850.916964" x2="5811.839845" y2="1437.867353" stroke="black" stroke-width="6.48"/>
<line x1="5811.839845" y1="1437.867353" x2="5978.193919" y2="1455.351872" stroke="black" stroke-width="6.48"/>
<line x1="5978.193919" y1="1455.351872" x2="5980.776858" y2="1430.77684" stroke="black" stroke-width="6.48"/>
<line x1="5972.522756" y1="1454.75581" x2="5929.109492" y2="1867.805417" stroke="black" stroke-width="6.48"/>
<line x1="5951.810992" y1="1660.907362" x2="5791.128077" y2="1644.018908" stroke="black" stroke-width="6.48"/>
<line x1="1125.288605" y1="210.502343" x2="1395.835805" y2="210.502343" stroke="black" stroke-width="6.48"/>
<line x1="1395.835805" y1="210.502343" x2="1395.835805" y2="342.449543" stroke="black" stroke-width="6.48"/>
<line x1="1125.288605" y1="342.449543" x2="1395.835805" y2="342.449543" stroke="black" stroke-width="6.48"/>
<line x1="1125.288605" y1="210.502343" x2="1125.288605" y2="342.449543" stroke="black" stroke-width="6.48"/>
<line x1="1131.941405" y1="217.155143" x2="1269.987005" y2="217.155143" stroke="black" stroke-width="6.48"/>
<line x1="1269.987005" y1="217.155143" x2="1269.987005" y2="335.242343" stroke="black" stroke-width="6.48"/>
<line x1="1131.941405" y1="335.242343" x2="1269.987005" y2="335.242343" stroke="black" stroke-width="6.48"/>
<line x1="1131.941405" y1="217.155143" x2="1131.941405" y2="335.242343" stroke="black" stroke-width="6.48"/>
<line x1="1284.401405" y1="224.916743" x2="1381.421405" y2="224.916743" stroke="black" stroke-width="6.48"/>
<line x1="1284.401405" y1="245.429543" x2="1381.421405" y2="245.429543" stroke="black" stroke-width="6.48"/>
<line x1="1284.955805" y1="266.496743" x2="1381.975805" y2="266.496743" stroke="black" stroke-width="6.48"/>
<line x1="1284.955805" y1="287.009543" x2="1381.975805" y2="287.009543" stroke="black" stroke-width="6.48"/>
<line x1="1284.401405" y1="307.522343" x2="1381.421405" y2="307.522343" stroke="black" stroke-width="6.48"/>
<line x1="1284.401405" y1="328.035143" x2="1381.421405" y2="328.035143" stroke="black" stroke-width="6.48"/>
<line x1="1184.609405" y1="335.242343" x2="1184.609405" y2="321.382343" stroke="black" stroke-width="6.48"/>
<line x1="1184.609405" y1="321.382343" x2="1218.982205" y2="321.382343" stroke="black" stroke-width="6.48"/>
<line x1="1218.982205" y1="321.382343" x2="1218.982205" y2="334.687943" stroke="black" stroke-width="6.48"/>
<circle cx="1254.463805" cy="232.123943" r="8.316000000000003" fill="none" stroke="black" stroke-width="6.48"/>
<line x1="6046.782858" y1="1894.064522" x2="6045.704885" y2="1924.933709" stroke="black" stroke-width="6.48"/>
<line x1="6045.704885" y1="1924.933709" x2="6255.140422" y2="1932.247357" stroke="black" stroke-width="6.48"/>
<line x1="6255.140422" y1="1932.247357" x2="6256.218398" y2="1901.378174" stroke="black" stroke-width="6.48"/>
<line x1="6256.218398" y1="1901.378174" x2="6046.782858" y2="1894.064522" stroke="black" stroke-width="6.48"/>
<line x1="6039.668221" y1="2097.801137" x2="6038.590244" y2="2128.670323" stroke="black" stroke-width="6.48"/>
<line x1="6038.590244" y1="2128.670323" x2="6248.025781" y2="2135.983972" stroke="black" stroke-width="6.48"/>
<line x1="6248.025781" y1="2135.983972" x2="6249.103758" y2="2105.114785" stroke="black" stroke-width="6.48"/>
<line x1="6249.103758" y1="2105.114785" x2="6039.668221" y2="2097.801137" stroke="black" stroke-width="6.48"/>
<line x1="6045.721466" y1="1924.458797" x2="6039.668221" y2="2097.801137" stroke="black" stroke-width="6.48"/>
<line x1="6254.223768" y1="1931.264366" x2="6279.415132" y2="1958.771495" stroke="black" stroke-width="6.48"/>
<line x1="6275.18615" y1="2079.873677" x2="6248.137356" y2="2105.556527" stroke="black" stroke-width="6.48"/>
<line x1="6279.481469" y1="1956.87185" x2="6275.119813" y2="2081.773314" stroke="black" stroke-width="6.48"/>
<line x1="6090.346472" y1="1926.492628" x2="6084.293224" y2="2099.834968" stroke="black" stroke-width="6.48"/>
</g>
</svg>
