<?xml version="1.0"?>
<svg xmlns:xlink="http://www.w3.org/1999/xlink" width="6775.2" height="2858.4">
<image x="0" y="0" width="6775.2" height="2858.4" xlink:href="groundfilled-01.png"/>
<g style="stroke-linecap:round">
<line x1="1285.950406" y1="795.178109" x2="1311.346069" y2="795.178109" stroke="black" stroke-width="6.48"/>
<line x1="1311.346069" y1="795.178109" x2="1311.346069" y2="745.625592" stroke="black" stroke-width="6.48"/>
<line x1="1311.346069" y1="745.625592" x2="1285.950406" y2="745.625592" stroke="black" stroke-width="6.48"/>
<line x1="1285.950406" y1="745.625592" x2="1285.950406" y2="795.178109" stroke="black" stroke-width="6.48"/>
<line x1="1559.728062" y1="745.625592" x2="1559.728062" y2="498.48241" stroke="black" stroke-width="6.48"/>
<line x1="1560.347471" y1="796.416923" x2="1585.743134" y2="796.416923" stroke="black" stroke-width="6.48"/>
<line x1="1585.743134" y1="796.416923" x2="1585.743134" y2="746.864406" stroke="black" stroke-width="6.48"/>
<line x1="1585.743134" y1="746.864406" x2="1560.347471" y2="746.864406" stroke="black" stroke-width="6.48"/>
<line x1="1560.347471" y1="746.864406" x2="1560.347471" y2="796.416923" stroke="black" stroke-width="6.48"/>
<path d="m 1311.346069,747.483811 a 248.38199299999997,248.38199299999997 0 0 1 248.38199299999997,-248.38199299999997" fill="none" stroke="black" stroke-width="6.48"/>
<line x1="330.523178" y1="771.328966" x2="330.523178" y2="366.748985" stroke="black" stroke-width="6.48"/>
<line x1="330.523178" y1="366.748985" x2="258.15928" y2="366.748985" stroke="black" stroke-width="6.48"/>
<line x1="258.15928" y1="366.748985" x2="258.15928" y2="771.328966" stroke="black" stroke-width="6.48"/>
<line x1="258.15928" y1="771.328966" x2="330.523178" y2="771.328966" stroke="black" stroke-width="6.48"/>
<line x1="330.523178" y1="752.415674" x2="355.19269" y2="752.415674" stroke="black" stroke-width="6.48"/>
<line x1="355.19269" y1="752.415674" x2="355.19269" y2="386.484595" stroke="black" stroke-width="6.48"/>
<line x1="330.523178" y1="386.484595" x2="355.19269" y2="386.484595" stroke="black" stroke-width="6.48"/>
<line x1="3901.945176" y1="1169.331426" x2="3901.945176" y2="1428.837066" stroke="black" stroke-width="6.48"/>
<line x1="3901.945176" y1="1428.837066" x2="3941.9501" y2="1428.837066" stroke="black" stroke-width="6.48"/>
<line x1="3941.9501" y1="1428.837066" x2="3941.9501" y2="1169.331426" stroke="black" stroke-width="6.48"/>
<line x1="3941.9501" y1="1169.331426" x2="3901.945176" y2="1169.331426" stroke="black" stroke-width="6.48"/>
<line x1="3941.423719" y1="1193.544936" x2="3902.471557" y2="1193.544936" stroke="black" stroke-width="6.48"/>
<line x1="3941.423719" y1="1404.097178" x2="3900.892414" y2="1404.097178" stroke="black" stroke-width="6.48"/>
<line x1="3923.000399" y1="1193.018555" x2="3923.000399" y2="1403.570797" stroke="black" stroke-width="6.48"/>
<line x1="323.923298" y1="1882.957399" x2="323.923298" y2="1457.423957" stroke="black" stroke-width="6.48"/>
<line x1="323.923298" y1="1457.423957" x2="258.323825" y2="1457.423957" stroke="black" stroke-width="6.48"/>
<line x1="258.323825" y1="1457.423957" x2="258.323825" y2="1882.957399" stroke="black" stroke-width="6.48"/>
<line x1="258.323825" y1="1882.957399" x2="323.923298" y2="1882.957399" stroke="black" stroke-width="6.48"/>
<line x1="259.186975" y1="1843.252456" x2="323.060148" y2="1843.252456" stroke="black" stroke-width="6.48"/>
<line x1="259.186975" y1="1497.992054" x2="325.649603" y2="1497.992054" stroke="black" stroke-width="6.48"/>
<line x1="289.397261" y1="1844.115606" x2="289.397261" y2="1498.855205" stroke="black" stroke-width="6.48"/>
<line x1="2747.905531" y1="904.670665" x2="2721.68303" y2="904.670665" stroke="black" stroke-width="6.48"/>
<line x1="2721.68303" y1="904.670665" x2="2721.68303" y2="955.836522" stroke="black" stroke-width="6.48"/>
<line x1="2721.68303" y1="955.836522" x2="2747.905531" y2="955.836522" stroke="black" stroke-width="6.48"/>
<line x1="2747.905531" y1="955.836522" x2="2747.905531" y2="904.670665" stroke="black" stroke-width="6.48"/>
<line x1="2465.214181" y1="955.836522" x2="2465.214181" y2="1211.026223" stroke="black" stroke-width="6.48"/>
<line x1="2464.574609" y1="903.39152" x2="2438.352108" y2="903.39152" stroke="black" stroke-width="6.48"/>
<line x1="2438.352108" y1="903.39152" x2="2438.352108" y2="954.557374" stroke="black" stroke-width="6.48"/>
<line x1="2438.352108" y1="954.557374" x2="2464.574609" y2="954.557374" stroke="black" stroke-width="6.48"/>
<line x1="2464.574609" y1="954.557374" x2="2464.574609" y2="903.39152" stroke="black" stroke-width="6.48"/>
<path d="m 2721.68303,953.917801 a 256.4688490000001,256.4688490000001 0 0 1 -256.4688490000003,256.46884899999986" fill="none" stroke="black" stroke-width="6.48"/>
<line x1="2420.532389" y1="1427.858834" x2="2395.136725" y2="1427.858834" stroke="black" stroke-width="6.48"/>
<line x1="2395.136725" y1="1427.858834" x2="2395.136725" y2="1477.411351" stroke="black" stroke-width="6.48"/>
<line x1="2395.136725" y1="1477.411351" x2="2420.532389" y2="1477.411351" stroke="black" stroke-width="6.48"/>
<line x1="2420.532389" y1="1477.411351" x2="2420.532389" y2="1427.858834" stroke="black" stroke-width="6.48"/>
<line x1="2146.754732" y1="1477.411351" x2="2146.754732" y2="1724.554534" stroke="black" stroke-width="6.48"/>
<line x1="2146.135324" y1="1426.62002" x2="2120.73966" y2="1426.62002" stroke="black" stroke-width="6.48"/>
<line x1="2120.73966" y1="1426.62002" x2="2120.73966" y2="1476.172537" stroke="black" stroke-width="6.48"/>
<line x1="2120.73966" y1="1476.172537" x2="2146.135324" y2="1476.172537" stroke="black" stroke-width="6.48"/>
<line x1="2146.135324" y1="1476.172537" x2="2146.135324" y2="1426.62002" stroke="black" stroke-width="6.48"/>
<path d="m 2395.136725,1475.553132 a 248.38199299999997,248.38199299999997 0 0 1 -248.38199299999997,248.38199299999997" fill="none" stroke="black" stroke-width="6.48"/>
<line x1="642.135888" y1="692.136151" x2="1034.967888" y2="692.136151" stroke="black" stroke-width="6.48"/>
<line x1="1034.967888" y1="692.136151" x2="1034.967888" y2="507.600151" stroke="black" stroke-width="6.48"/>
<line x1="1034.967888" y1="507.600151" x2="642.135888" y2="507.600151" stroke="black" stroke-width="6.48"/>
<line x1="642.135888" y1="507.600151" x2="642.135888" y2="692.136151" stroke="black" stroke-width="6.48"/>
<line x1="801.327888" y1="507.600151" x2="801.327888" y2="426.816151" stroke="black" stroke-width="6.48"/>
<line x1="801.327888" y1="426.816151" x2="722.919888" y2="426.816151" stroke="black" stroke-width="6.48"/>
<line x1="722.919888" y1="426.816151" x2="722.919888" y2="507.600151" stroke="black" stroke-width="6.48"/>
<line x1="723.711888" y1="444.240151" x2="801.327888" y2="444.240151" stroke="black" stroke-width="6.48"/>
<line x1="722.919888" y1="773.712151" x2="801.327888" y2="773.712151" stroke="black" stroke-width="6.48"/>
<line x1="801.327888" y1="773.712151" x2="801.327888" y2="692.136151" stroke="black" stroke-width="6.48"/>
<line x1="722.919888" y1="692.136151" x2="722.919888" y2="773.712151" stroke="black" stroke-width="6.48"/>
<line x1="723.711888" y1="756.288151" x2="801.327888" y2="756.288151" stroke="black" stroke-width="6.48"/>
<line x1="952.599888" y1="507.600151" x2="952.599888" y2="426.816151" stroke="black" stroke-width="6.48"/>
<line x1="952.599888" y1="426.816151" x2="874.191888" y2="426.816151" stroke="black" stroke-width="6.48"/>
<line x1="874.191888" y1="426.816151" x2="874.191888" y2="507.600151" stroke="black" stroke-width="6.48"/>
<line x1="874.191888" y1="444.240151" x2="952.599888" y2="444.240151" stroke="black" stroke-width="6.48"/>
<line x1="874.191888" y1="773.712151" x2="952.599888" y2="773.712151" stroke="black" stroke-width="6.48"/>
<line x1="952.599888" y1="773.712151" x2="952.599888" y2="692.136151" stroke="black" stroke-width="6.48"/>
<line x1="874.191888" y1="692.136151" x2="874.191888" y2="773.712151" stroke="black" stroke-width="6.48"/>
<line x1="874.191888" y1="756.288151" x2="952.599888" y2="756.288151" stroke="black" stroke-width="6.48"/>
<line x1="2032.924367" y1="1831.664639" x2="2032.924367" y2="1622.576639" stroke="black" stroke-width="6.48"/>
<line x1="2032.924367" y1="1622.576639" x2="1801.026767" y2="1622.576639" stroke="black" stroke-width="6.48"/>
<line x1="1801.026767" y1="1622.576639" x2="1801.026767" y2="1831.664639" stroke="black" stroke-width="6.48"/>
<line x1="1801.026767" y1="1831.664639" x2="2032.924367" y2="1831.664639" stroke="black" stroke-width="6.48"/>
<line x1="2000.610767" y1="1831.664639" x2="2000.610767" y2="1622.576639" stroke="black" stroke-width="6.48"/>
<line x1="1485.415969" y1="209.267824" x2="1707.693134" y2="209.267824" stroke="black" stroke-width="6.48"/>
<line x1="1707.693134" y1="209.267824" x2="1707.693134" y2="432.000475" stroke="black" stroke-width="6.48"/>
<line x1="1707.693134" y1="432.000475" x2="1485.415969" y2="432.000475" stroke="black" stroke-width="6.48"/>
<line x1="1485.415969" y1="432.000475" x2="1485.415969" y2="209.267824" stroke="black" stroke-width="6.48"/>
<line x1="1484.960483" y1="208.812337" x2="1707.693134" y2="432.000475" stroke="black" stroke-width="6.48"/>
<line x1="1485.415969" y1="431.544989" x2="1707.237648" y2="209.267824" stroke="black" stroke-width="6.48"/>
<line x1="2586.780558" y1="1803.366338" x2="2586.780558" y2="2194.614338" stroke="black" stroke-width="6.48"/>
<line x1="2586.780558" y1="2194.614338" x2="2761.020558" y2="2194.614338" stroke="black" stroke-width="6.48"/>
<line x1="2761.020558" y1="2194.614338" x2="2761.020558" y2="1803.366338" stroke="black" stroke-width="6.48"/>
<line x1="2761.020558" y1="1803.366338" x2="2586.780558" y2="1803.366338" stroke="black" stroke-width="6.48"/>
<line x1="2734.092558" y1="2119.374338" x2="2734.092558" y2="1835.046338" stroke="black" stroke-width="6.48"/>
<line x1="2734.092558" y1="1835.046338" x2="2616.084558" y2="1835.046338" stroke="black" stroke-width="6.48"/>
<line x1="2616.084558" y1="1835.046338" x2="2616.084558" y2="2124.918338" stroke="black" stroke-width="6.48"/>
<path d="m 2734.347982,2118.563766 a 63.35999941905905,63.35999941905905 0 0 1 -119.37432999999965,4.2938139999996565" fill="none" stroke="black" stroke-width="6.48"/>
<line x1="2105.732624" y1="1896.951136" x2="2105.732624" y2="2080.695136" stroke="black" stroke-width="6.48"/>
<line x1="2105.732624" y1="2080.695136" x2="2056.628624" y2="2080.695136" stroke="black" stroke-width="6.48"/>
<line x1="2056.628624" y1="1896.951136" x2="2056.628624" y2="2080.695136" stroke="black" stroke-width="6.48"/>
<line x1="2105.732624" y1="1896.951136" x2="2056.628624" y2="1896.951136" stroke="black" stroke-width="6.48"/>
<line x1="2133.452624" y1="1938.531136" x2="2105.732624" y2="1938.531136" stroke="black" stroke-width="6.48"/>
<line x1="2105.732624" y1="2037.531136" x2="2135.036624" y2="2037.531136" stroke="black" stroke-width="6.48"/>
<circle cx="2178.596624" cy="1987.239136" r="66.52800000000002" fill="none" stroke="black" stroke-width="6.48"/>
<circle cx="2178.596624" cy="1987.239136" r="57.02400000000001" fill="none" stroke="black" stroke-width="6.48"/>
<line x1="672.728663" y1="210.550424" x2="1065.972535" y2="210.550424" stroke="black" stroke-width="6.48"/>
<line x1="1069.927942" y1="209.554142" x2="1069.927942" y2="345.622918" stroke="black" stroke-width="6.48"/>
<line x1="673.193052" y1="346.774424" x2="1070.233283" y2="346.774424" stroke="black" stroke-width="6.48"/>
<line x1="673.927942" y1="211.245174" x2="673.927942" y2="346.50923" stroke="black" stroke-width="6.48"/>
<line x1="684.223942" y1="221.638424" x2="807.775942" y2="221.638424" stroke="black" stroke-width="6.48"/>
<line x1="807.775942" y1="221.638424" x2="807.775942" y2="335.686424" stroke="black" stroke-width="6.48"/>
<line x1="684.223942" y1="335.686424" x2="807.775942" y2="335.686424" stroke="black" stroke-width="6.48"/>
<line x1="684.223942" y1="221.638424" x2="684.223942" y2="335.686424" stroke="black" stroke-width="6.48"/>
<line x1="826.783942" y1="228.766424" x2="913.903942" y2="228.766424" stroke="black" stroke-width="6.48"/>
<line x1="826.783942" y1="248.566424" x2="913.903942" y2="248.566424" stroke="black" stroke-width="6.48"/>
<line x1="827.575942" y1="269.158424" x2="913.903942" y2="269.158424" stroke="black" stroke-width="6.48"/>
<line x1="827.575942" y1="288.958424" x2="913.903942" y2="288.958424" stroke="black" stroke-width="6.48"/>
<line x1="826.783942" y1="308.758424" x2="913.903942" y2="308.758424" stroke="black" stroke-width="6.48"/>
<line x1="826.783942" y1="328.558424" x2="913.903942" y2="328.558424" stroke="black" stroke-width="6.48"/>
<line x1="731.743942" y1="334.894424" x2="731.743942" y2="321.430424" stroke="black" stroke-width="6.48"/>
<line x1="731.743942" y1="321.430424" x2="761.839942" y2="321.430424" stroke="black" stroke-width="6.48"/>
<line x1="761.839942" y1="321.430424" x2="761.839942" y2="334.102424" stroke="black" stroke-width="6.48"/>
<line x1="934.495942" y1="221.638424" x2="1058.047942" y2="221.638424" stroke="black" stroke-width="6.48"/>
<line x1="1058.047942" y1="221.638424" x2="1058.047942" y2="335.686424" stroke="black" stroke-width="6.48"/>
<line x1="934.495942" y1="335.686424" x2="1058.047942" y2="335.686424" stroke="black" stroke-width="6.48"/>
<line x1="934.495942" y1="221.638424" x2="934.495942" y2="335.686424" stroke="black" stroke-width="6.48"/>
<line x1="982.015942" y1="335.686424" x2="982.015942" y2="322.222424" stroke="black" stroke-width="6.48"/>
<line x1="982.015942" y1="322.222424" x2="1012.111942" y2="322.222424" stroke="black" stroke-width="6.48"/>
<line x1="1012.111942" y1="322.222424" x2="1012.111942" y2="334.894424" stroke="black" stroke-width="6.48"/>
<circle cx="793.519942" cy="235.894424" r="7.128000000000001" fill="none" stroke="black" stroke-width="6.48"/>
<circle cx="1043.791942" cy="236.686424" r="7.128000000000001" fill="none" stroke="black" stroke-width="6.48"/>
<line x1="916.177709" y1="909.618851" x2="1028.209608" y2="979.624152" stroke="black" stroke-width="6.48"/>
<line x1="1028.209608" y1="979.624152" x2="1020.65508" y2="991.713928" stroke="black" stroke-width="6.48"/>
<line x1="908.623174" y1="921.708626" x2="1020.65508" y2="991.713928" stroke="black" stroke-width="6.48"/>
<line x1="916.177709" y1="909.618851" x2="908.623174" y2="921.708626" stroke="black" stroke-width="6.48"/>
<line x1="919.906967" y1="928.759522" x2="901.67503" y2="954.349751" stroke="black" stroke-width="6.48"/>
<line x1="1009.37129" y1="984.663036" x2="993.859661" y2="1013.073793" stroke="black" stroke-width="6.48"/>
<line x1="671.914598" y1="1300.521532" x2="783.946505" y2="1370.526836" stroke="black" stroke-width="6.48"/>
<line x1="783.946505" y1="1370.526836" x2="790.9974" y2="1359.243047" stroke="black" stroke-width="6.48"/>
<line x1="678.965494" y1="1289.237746" x2="790.9974" y2="1359.243047" stroke="black" stroke-width="6.48"/>
<line x1="671.914598" y1="1300.521532" x2="678.965494" y2="1289.237746" stroke="black" stroke-width="6.48"/>
<line x1="690.45057" y1="1294.173036" x2="705.458563" y2="1266.568258" stroke="black" stroke-width="6.48"/>
<line x1="779.914894" y1="1350.07655" x2="799.45645" y2="1324.183968" stroke="black" stroke-width="6.48"/>
<line x1="1079.710114" y1="1205.684813" x2="1067.620338" y2="1198.130281" stroke="black" stroke-width="6.48"/>
<line x1="1067.620338" y1="1198.130281" x2="997.615037" y2="1310.162184" stroke="black" stroke-width="6.48"/>
<line x1="1009.704809" y1="1317.716712" x2="997.615037" y2="1310.162184" stroke="black" stroke-width="6.48"/>
<line x1="1079.710114" y1="1205.684813" x2="1009.704809" y2="1317.716712" stroke="black" stroke-width="6.48"/>
<line x1="1005.169565" y1="1298.072412" x2="976.255171" y2="1283.366765" stroke="black" stroke-width="6.48"/>
<line x1="1060.569443" y1="1209.414071" x2="1034.173228" y2="1190.678501" stroke="black" stroke-width="6.48"/>
<line x1="690.117052" y1="961.119353" x2="702.206824" y2="968.673884" stroke="black" stroke-width="6.48"/>
<line x1="702.206824" y1="968.673884" x2="632.201522" y2="1080.705787" stroke="black" stroke-width="6.48"/>
<line x1="620.111747" y1="1073.151259" x2="632.201522" y2="1080.705787" stroke="black" stroke-width="6.48"/>
<line x1="690.117052" y1="961.119353" x2="620.111747" y2="1073.151259" stroke="black" stroke-width="6.48"/>
<line x1="639.756054" y1="1068.616012" x2="665.648633" y2="1088.157568" stroke="black" stroke-width="6.48"/>
<line x1="695.155928" y1="979.95767" x2="723.566689" y2="995.4693" stroke="black" stroke-width="6.48"/>
<circle cx="849.910928" cy="1139.418032" r="191.98080000000002" fill="none" stroke="black" stroke-width="6.48"/>
<line x1="2044.889399" y1="955.822399" x2="2267.166564" y2="955.822399" stroke="black" stroke-width="6.48"/>
<line x1="2267.166564" y1="955.822399" x2="2267.166564" y2="1178.555051" stroke="black" stroke-width="6.48"/>
<line x1="2267.166564" y1="1178.555051" x2="2044.889399" y2="1178.555051" stroke="black" stroke-width="6.48"/>
<line x1="2044.889399" y1="1178.555051" x2="2044.889399" y2="955.822399" stroke="black" stroke-width="6.48"/>
<line x1="2044.433912" y1="955.366913" x2="2267.166564" y2="1178.555051" stroke="black" stroke-width="6.48"/>
<line x1="2044.889399" y1="1178.099564" x2="2266.711078" y2="955.822399" stroke="black" stroke-width="6.48"/>
<line x1="323.258818" y1="1375.374532" x2="323.258818" y2="949.841089" stroke="black" stroke-width="6.48"/>
<line x1="323.258818" y1="949.841089" x2="257.659344" y2="949.841089" stroke="black" stroke-width="6.48"/>
<line x1="257.659344" y1="949.841089" x2="257.659344" y2="1375.374532" stroke="black" stroke-width="6.48"/>
<line x1="257.659344" y1="1375.374532" x2="323.258818" y2="1375.374532" stroke="black" stroke-width="6.48"/>
<line x1="258.522494" y1="1335.669588" x2="322.395667" y2="1335.669588" stroke="black" stroke-width="6.48"/>
<line x1="258.522494" y1="990.409187" x2="324.985122" y2="990.409187" stroke="black" stroke-width="6.48"/>
<line x1="288.73278" y1="1336.532738" x2="288.73278" y2="991.272337" stroke="black" stroke-width="6.48"/>
<line x1="3874.406537" y1="1514.726719" x2="3874.406537" y2="1940.260162" stroke="black" stroke-width="6.48"/>
<line x1="3874.406537" y1="1940.260162" x2="3940.00601" y2="1940.260162" stroke="black" stroke-width="6.48"/>
<line x1="3940.00601" y1="1940.260162" x2="3940.00601" y2="1514.726719" stroke="black" stroke-width="6.48"/>
<line x1="3940.00601" y1="1514.726719" x2="3874.406537" y2="1514.726719" stroke="black" stroke-width="6.48"/>
<line x1="3939.14286" y1="1554.431663" x2="3875.269687" y2="1554.431663" stroke="black" stroke-width="6.48"/>
<line x1="3939.14286" y1="1899.692064" x2="3872.680232" y2="1899.692064" stroke="black" stroke-width="6.48"/>
<line x1="3908.932574" y1="1553.568512" x2="3908.932574" y2="1898.828914" stroke="black" stroke-width="6.48"/>
<line x1="4837.932338" y1="1766.09543" x2="4922.848181" y2="1664.896669" stroke="black" stroke-width="6.48"/>
<line x1="4922.848181" y1="1664.896669" x2="4933.76891" y2="1674.06025" stroke="black" stroke-width="6.48"/>
<line x1="4848.853068" y1="1775.259011" x2="4933.76891" y2="1674.06025" stroke="black" stroke-width="6.48"/>
<line x1="4837.932338" y1="1766.09543" x2="4848.853068" y2="1775.259011" stroke="black" stroke-width="6.48"/>
<line x1="4857.405743" y1="1765.066331" x2="4880.20954" y2="1786.682304" stroke="black" stroke-width="6.48"/>
<line x1="4925.216239" y1="1684.25293" x2="4951.191701" y2="1703.567617" stroke="black" stroke-width="6.48"/>
<line x1="5191.03593" y1="2062.384524" x2="5275.951772" y2="1961.185763" stroke="black" stroke-width="6.48"/>
<line x1="5275.951772" y1="1961.185763" x2="5265.759092" y2="1952.633088" stroke="black" stroke-width="6.48"/>
<line x1="5180.843246" y1="2053.831846" x2="5265.759092" y2="1952.633088" stroke="black" stroke-width="6.48"/>
<line x1="5191.03593" y1="2062.384524" x2="5180.843246" y2="2053.831846" stroke="black" stroke-width="6.48"/>
<line x1="5187.32892" y1="2043.145408" x2="5162.081504" y2="2024.441626" stroke="black" stroke-width="6.48"/>
<line x1="5255.139413" y1="1962.332006" x2="5232.218476" y2="1939.377078" stroke="black" stroke-width="6.48"/>
<line x1="5153.876316" y1="1645.358926" x2="5144.712732" y2="1656.279655" stroke="black" stroke-width="6.48"/>
<line x1="5144.712732" y1="1656.279655" x2="5245.911497" y2="1741.195501" stroke="black" stroke-width="6.48"/>
<line x1="5255.075074" y1="1730.274772" x2="5245.911497" y2="1741.195501" stroke="black" stroke-width="6.48"/>
<line x1="5153.876316" y1="1645.358926" x2="5255.075074" y2="1730.274772" stroke="black" stroke-width="6.48"/>
<line x1="5234.990767" y1="1732.031921" x2="5216.404129" y2="1758.618288" stroke="black" stroke-width="6.48"/>
<line x1="5154.905416" y1="1664.832334" x2="5132.67854" y2="1688.364176" stroke="black" stroke-width="6.48"/>
<line x1="4857.470078" y1="1997.123566" x2="4866.633662" y2="1986.202836" stroke="black" stroke-width="6.48"/>
<line x1="4866.633662" y1="1986.202836" x2="4967.83242" y2="2071.118675" stroke="black" stroke-width="6.48"/>
<line x1="4958.66884" y1="2082.039404" x2="4967.83242" y2="2071.118675" stroke="black" stroke-width="6.48"/>
<line x1="4857.470078" y1="1997.123566" x2="4958.66884" y2="2082.039404" stroke="black" stroke-width="6.48"/>
<line x1="4956.91169" y1="2061.955098" x2="4979.866619" y2="2039.034157" stroke="black" stroke-width="6.48"/>
<line x1="4876.826339" y1="1994.755507" x2="4896.141026" y2="1968.780042" stroke="black" stroke-width="6.48"/>
<circle cx="5056.272576" cy="1863.699167" r="191.98080000000002" fill="none" stroke="black" stroke-width="6.48"/>
<line x1="3386.670494" y1="1075.248544" x2="3596.035698" y2="1075.248544" stroke="black" stroke-width="6.48"/>
<line x1="3596.035698" y1="1075.248544" x2="3596.035698" y2="744.03414" stroke="black" stroke-width="6.48"/>
<line x1="3596.035698" y1="744.03414" x2="3386.670494" y2="744.03414" stroke="black" stroke-width="6.48"/>
<line x1="3386.670494" y1="744.03414" x2="3386.670494" y2="1075.248544" stroke="black" stroke-width="6.48"/>
<line x1="3385.997294" y1="803.27574" x2="3596.708894" y2="803.27574" stroke="black" stroke-width="6.48"/>
<line x1="3596.708894" y1="803.27574" x2="3387.343694" y2="853.092544" stroke="black" stroke-width="6.48"/>
<line x1="3387.343694" y1="853.092544" x2="3418.984098" y2="899.543344" stroke="black" stroke-width="6.48"/>
<line x1="3418.984098" y1="899.543344" x2="3596.708894" y2="802.602544" stroke="black" stroke-width="6.48"/>
<line x1="3191.185897" y1="1204.019953" x2="3413.463062" y2="1204.019953" stroke="black" stroke-width="6.48"/>
<line x1="3413.463062" y1="1204.019953" x2="3413.463062" y2="1426.752605" stroke="black" stroke-width="6.48"/>
<line x1="3413.463062" y1="1426.752605" x2="3191.185897" y2="1426.752605" stroke="black" stroke-width="6.48"/>
<line x1="3191.185897" y1="1426.752605" x2="3191.185897" y2="1204.019953" stroke="black" stroke-width="6.48"/>
<line x1="3190.730411" y1="1203.564467" x2="3413.463062" y2="1426.752605" stroke="black" stroke-width="6.48"/>
<line x1="3191.185897" y1="1426.297118" x2="3413.007576" y2="1204.019953" stroke="black" stroke-width="6.48"/>
<line x1="2804.16708" y1="1127.69402" x2="2804.16708" y2="1153.148746" stroke="black" stroke-width="6.48"/>
<line x1="2804.16708" y1="1153.148746" x2="2853.834836" y2="1153.148746" stroke="black" stroke-width="6.48"/>
<line x1="2853.834836" y1="1153.148746" x2="2853.834836" y2="1127.69402" stroke="black" stroke-width="6.48"/>
<line x1="2853.834836" y1="1127.69402" x2="2804.16708" y2="1127.69402" stroke="black" stroke-width="6.48"/>
<line x1="2853.834836" y1="1402.108373" x2="3101.55277" y2="1402.108373" stroke="black" stroke-width="6.48"/>
<line x1="2802.925386" y1="1402.729218" x2="2802.925386" y2="1428.183943" stroke="black" stroke-width="6.48"/>
<line x1="2802.925386" y1="1428.183943" x2="2852.593142" y2="1428.183943" stroke="black" stroke-width="6.48"/>
<line x1="2852.593142" y1="1428.183943" x2="2852.593142" y2="1402.729218" stroke="black" stroke-width="6.48"/>
<line x1="2852.593142" y1="1402.729218" x2="2802.925386" y2="1402.729218" stroke="black" stroke-width="6.48"/>
<path d="m 2851.972294,1153.148746 a 248.95962699999984,248.95962699999984 0 0 1 248.95962699999973,248.95962699999995" fill="none" stroke="black" stroke-width="6.48"/>
<line x1="3402.12159" y1="1726.72929" x2="3622.669315" y2="1655.06899" stroke="black" stroke-width="6.48"/>
<line x1="3622.669315" y1="1655.06899" x2="3694.476456" y2="1876.068655" stroke="black" stroke-width="6.48"/>
<line x1="3694.476456" y1="1876.068655" x2="3473.928734" y2="1947.728959" stroke="black" stroke-width="6.48"/>
<line x1="3473.928734" y1="1947.728959" x2="3402.12159" y2="1726.72929" stroke="black" stroke-width="6.48"/>
<line x1="3401.522802" y1="1726.42419" x2="3694.476456" y2="1876.068655" stroke="black" stroke-width="6.48"/>
<line x1="3473.781887" y1="1947.277015" x2="3622.217371" y2="1655.215837" stroke="black" stroke-width="6.48"/>
<line x1="3100.358268" y1="1589.315879" x2="3083.535454" y2="1615.220741" stroke="black" stroke-width="6.48"/>
<line x1="3083.535454" y1="1615.220741" x2="3259.289945" y2="1729.357034" stroke="black" stroke-width="6.48"/>
<line x1="3259.289945" y1="1729.357034" x2="3276.112752" y2="1703.45218" stroke="black" stroke-width="6.48"/>
<line x1="3276.112752" y1="1703.45218" x2="3100.358268" y2="1589.315879" stroke="black" stroke-width="6.48"/>
<line x1="2989.327716" y1="1760.287936" x2="2972.504909" y2="1786.19279" stroke="black" stroke-width="6.48"/>
<line x1="2972.504909" y1="1786.19279" x2="3148.259393" y2="1900.329088" stroke="black" stroke-width="6.48"/>
<line x1="3148.259393" y1="1900.329088" x2="3165.082207" y2="1874.424233" stroke="black" stroke-width="6.48"/>
<line x1="3165.082207" y1="1874.424233" x2="2989.327716" y2="1760.287936" stroke="black" stroke-width="6.48"/>
<line x1="3083.794268" y1="1614.822199" x2="2989.327716" y2="1760.287936" stroke="black" stroke-width="6.48"/>
<line x1="3259.010495" y1="1728.04234" x2="3266.436492" y2="1764.595055" stroke="black" stroke-width="6.48"/>
<line x1="3200.439312" y1="1866.221798" x2="3164.02632" y2="1874.305145" stroke="black" stroke-width="6.48"/>
<line x1="3267.47174" y1="1763.00091" x2="3199.40406" y2="1867.815943" stroke="black" stroke-width="6.48"/>
<line x1="3120.997864" y1="1639.549109" x2="3026.531315" y2="1785.014842" stroke="black" stroke-width="6.48"/>
<line x1="1156.283384" y1="1960.510871" x2="1296.19053" y2="2115.89357" stroke="black" stroke-width="6.48"/>
<line x1="1296.19053" y1="2115.89357" x2="1468.524064" y2="1960.723829" stroke="black" stroke-width="6.48"/>
<line x1="1468.524064" y1="1960.723829" x2="1328.616925" y2="1805.341133" stroke="black" stroke-width="6.48"/>
<line x1="1328.616925" y1="1805.341133" x2="1156.283384" y2="1960.510871" stroke="black" stroke-width="6.48"/>
<line x1="1180.297076" y1="1938.888857" x2="1320.204218" y2="2094.271556" stroke="black" stroke-width="6.48"/>
<line x1="5826.812789" y1="1692.8366" x2="5835.326674" y2="1722.52805" stroke="black" stroke-width="6.48"/>
<line x1="5835.326674" y1="1722.52805" x2="6036.771751" y2="1664.764603" stroke="black" stroke-width="6.48"/>
<line x1="6036.771751" y1="1664.764603" x2="6028.257866" y2="1635.073153" stroke="black" stroke-width="6.48"/>
<line x1="6028.257866" y1="1635.073153" x2="5826.812789" y2="1692.8366" stroke="black" stroke-width="6.48"/>
<line x1="5883.00444" y1="1888.800178" x2="5891.518325" y2="1918.491628" stroke="black" stroke-width="6.48"/>
<line x1="5891.518325" y1="1918.491628" x2="6092.963402" y2="1860.72818" stroke="black" stroke-width="6.48"/>
<line x1="6092.963402" y1="1860.72818" x2="6084.449518" y2="1831.03673" stroke="black" stroke-width="6.48"/>
<line x1="6084.449518" y1="1831.03673" x2="5883.00444" y2="1888.800178" stroke="black" stroke-width="6.48"/>
<line x1="5835.195695" y1="1722.071261" x2="5883.00444" y2="1888.800178" stroke="black" stroke-width="6.48"/>
<line x1="6035.596204" y1="1664.112985" x2="6068.054783" y2="1682.489254" stroke="black" stroke-width="6.48"/>
<line x1="6101.455414" y1="1798.971102" x2="6083.666921" y2="1831.755485" stroke="black" stroke-width="6.48"/>
<line x1="6067.53085" y1="1680.662088" x2="6101.979347" y2="1800.798268" stroke="black" stroke-width="6.48"/>
<line x1="5878.265083" y1="1710.215662" x2="5926.073828" y2="1876.944578" stroke="black" stroke-width="6.48"/>
<line x1="6222.390656" y1="2089.254902" x2="6219.161982" y2="2119.973692" stroke="black" stroke-width="6.48"/>
<line x1="6219.161982" y1="2119.973692" x2="6427.577174" y2="2141.879011" stroke="black" stroke-width="6.48"/>
<line x1="6427.577174" y1="2141.879011" x2="6430.805849" y2="2111.160218" stroke="black" stroke-width="6.48"/>
<line x1="6430.805849" y1="2111.160218" x2="6222.390656" y2="2089.254902" stroke="black" stroke-width="6.48"/>
<line x1="6201.081403" y1="2291.998928" x2="6197.852725" y2="2322.717718" stroke="black" stroke-width="6.48"/>
<line x1="6197.852725" y1="2322.717718" x2="6406.267918" y2="2344.623041" stroke="black" stroke-width="6.48"/>
<line x1="6406.267918" y1="2344.623041" x2="6409.496596" y2="2313.904248" stroke="black" stroke-width="6.48"/>
<line x1="6409.496596" y1="2313.904248" x2="6201.081403" y2="2291.998928" stroke="black" stroke-width="6.48"/>
<line x1="6219.211655" y1="2119.501094" x2="6201.081403" y2="2291.998928" stroke="black" stroke-width="6.48"/>
<line x1="6426.731326" y1="2140.834475" x2="6449.94252" y2="2170.03185" stroke="black" stroke-width="6.48"/>
<line x1="6437.276179" y1="2290.544035" x2="6408.501728" y2="2314.277503" stroke="black" stroke-width="6.48"/>
<line x1="6450.141211" y1="2168.141465" x2="6437.077492" y2="2292.434424" stroke="black" stroke-width="6.48"/>
<line x1="6263.586083" y1="2124.642852" x2="6245.455831" y2="2297.140686" stroke="black" stroke-width="6.48"/>
</g>
</svg>
