<?xml version="1.0"?>
<svg xmlns:xlink="http://www.w3.org/1999/xlink" width="6775.2" height="2858.4">
<image x="0" y="0" width="6775.2" height="2858.4" xlink:href="groundfilled-01.png"/>
<g style="stroke-linecap:round">
<line x1="1285.950406" y1="795.178109" x2="1311.346069" y2="795.178109" stroke="black" stroke-width="6.48"/>
<line x1="1311.346069" y1="795.178109" x2="1311.346069" y2="745.625592" stroke="black" stroke-width="6.48"/>
<line x1="1311.346069" y1="745.625592" x2="1285.950406" y2="745.625592" stroke="black" stroke-width="6.48"/>
<line x1="1285.950406" y1="745.625592" x2="1285.950406" y2="795.178109" stroke="black" stroke-width="6.48"/>
<line x1="1559.728062" y1="745.625592" x2="1559.728062" y2="498.48241" stroke="black" stroke-width="6.48"/>
<line x1="1560.347471" y1="796.416923" x2="1585.743134" y2="796.416923" stroke="black" stroke-width="6.48"/>
<line x1="1585.743134" y1="796.416923" x2="1585.743134" y2="746.864406" stroke="black" stroke-width="6.48"/>
<line x1="1585.743134" y1="746.864406" x2="1560.347471" y2="746.864406" stroke="black" stroke-width="6.48"/>
<line x1="1560.347471" y1="746.864406" x2="1560.347471" y2="796.416923" stroke="black" stroke-width="6.48"/>
<path d="m 1311.346069,747.483811 a 248.38199299999997,248.38199299999997 0 0 1 248.38199299999997,-248.38199299999997" fill="none" stroke="black" stroke-width="6.48"/>
<line x1="330.523178" y1="771.328966" x2="330.523178" y2="366.748985" stroke="black" stroke-width="6.48"/>
<line x1="330.523178" y1="366.748985" x2="258.15928" y2="366.748985" stroke="black" stroke-width="6.48"/>
<line x1="258.15928" y1="366.748985" x2="258.15928" y2="771.328966" stroke="black" stroke-width="6.48"/>
<line x1="258.15928" y1="771.328966" x2="330.523178" y2="771.328966" stroke="black" stroke-width="6.48"/>
<line x1="330.523178" y1="752.415674" x2="355.19269" y2="752.415674" stroke="black" stroke-width="6.48"/>
<line x1="355.19269" y1="752.415674" x2="355.19269" y2="386.484595" stroke="black" stroke-width="6.48"/>
<line x1="330.523178" y1="386.484595" x2="355.19269" y2="386.484595" stroke="black" stroke-width="6.48"/>
<line x1="3901.945176" y1="1169.331426" x2="3901.945176" y2="1428.837066" stroke="black" stroke-width="6.48"/>
<line x1="3901.945176" y1="1428.837066" x2="3941.9501" y2="1428.837066" stroke="black" stroke-width="6.48"/>
<line x1="3941.9501" y1="1428.837066" x2="3941.9501" y2="1169.331426" stroke="black" stroke-width="6.48"/>
<line x1="3941.9501" y1="1169.331426" x2="3901.945176" y2="1169.331426" stroke="black" stroke-width="6.48"/>
<line x1="3941.423719" y1="1193.544936" x2="3902.471557" y2="1193.544936" stroke="black" stroke-width="6.48"/>
<line x1="3941.423719" y1="1404.097178" x2="3900.892414" y2="1404.097178" stroke="black" stroke-width="6.48"/>
<line x1="3923.000399" y1="1193.018555" x2="3923.000399" y2="1403.570797" stroke="black" stroke-width="6.48"/>
<line x1="323.923298" y1="1882.957399" x2="323.923298" y2="1457.423957" stroke="black" stroke-width="6.48"/>
<line x1="323.923298" y1="1457.423957" x2="258.323825" y2="1457.423957" stroke="black" stroke-width="6.48"/>
<line x1="258.323825" y1="1457.423957" x2="258.323825" y2="1882.957399" stroke="black" stroke-width="6.48"/>
<line x1="258.323825" y1="1882.957399" x2="323.923298" y2="1882.957399" stroke="black" stroke-width="6.48"/>
<line x1="259.186975" y1="1843.252456" x2="323.060148" y2="1843.252456" stroke="black" stroke-width="6.48"/>
<line x1="259.186975" y1="1497.992054" x2="325.649603" y2="1497.992054" stroke="black" stroke-width="6.48"/>
<line x1="289.397261" y1="1844.115606" x2="289.397261" y2="1498.855205" stroke="black" stroke-width="6.48"/>
<line x1="2747.905531" y1="904.670665" x2="2721.68303" y2="904.670665" stroke="black" stroke-width="6.48"/>
<line x1="2721.68303" y1="904.670665" x2="2721.68303" y2="955.836522" stroke="black" stroke-width="6.48"/>
<line x1="2721.68303" y1="955.836522" x2="2747.905531" y2="955.836522" stroke="black" stroke-width="6.48"/>
<line x1="2747.905531" y1="955.836522" x2="2747.905531" y2="904.670665" stroke="black" stroke-width="6.48"/>
<line x1="2465.214181" y1="955.836522" x2="2465.214181" y2="1211.026223" stroke="black" stroke-width="6.48"/>
<line x1="2464.574609" y1="903.39152" x2="2438.352108" y2="903.39152" stroke="black" stroke-width="6.48"/>
<line x1="2438.352108" y1="903.39152" x2="2438.352108" y2="954.557374" stroke="black" stroke-width="6.48"/>
<line x1="2438.352108" y1="954.557374" x2="2464.574609" y2="954.557374" stroke="black" stroke-width="6.48"/>
<line x1="2464.574609" y1="954.557374" x2="2464.574609" y2="903.39152" stroke="black" stroke-width="6.48"/>
<path d="m 2721.68303,953.917801 a 256.4688490000001,256.4688490000001 0 0 1 -256.4688490000003,256.46884899999986" fill="none" stroke="black" stroke-width="6.48"/>
<line x1="2420.532389" y1="1427.858834" x2="2395.136725" y2="1427.858834" stroke="black" stroke-width="6.48"/>
<line x1="2395.136725" y1="1427.858834" x2="2395.136725" y2="1477.411351" stroke="black" stroke-width="6.48"/>
<line x1="2395.136725" y1="1477.411351" x2="2420.532389" y2="1477.411351" stroke="black" stroke-width="6.48"/>
<line x1="2420.532389" y1="1477.411351" x2="2420.532389" y2="1427.858834" stroke="black" stroke-width="6.48"/>
<line x1="2146.754732" y1="1477.411351" x2="2146.754732" y2="1724.554534" stroke="black" stroke-width="6.48"/>
<line x1="2146.135324" y1="1426.62002" x2="2120.73966" y2="1426.62002" stroke="black" stroke-width="6.48"/>
<line x1="2120.73966" y1="1426.62002" x2="2120.73966" y2="1476.172537" stroke="black" stroke-width="6.48"/>
<line x1="2120.73966" y1="1476.172537" x2="2146.135324" y2="1476.172537" stroke="black" stroke-width="6.48"/>
<line x1="2146.135324" y1="1476.172537" x2="2146.135324" y2="1426.62002" stroke="black" stroke-width="6.48"/>
<path d="m 2395.136725,1475.553132 a 248.38199299999997,248.38199299999997 0 0 1 -248.38199299999997,248.38199299999997" fill="none" stroke="black" stroke-width="6.48"/>
<line x1="571.93915" y1="692.136151" x2="964.77115" y2="692.136151" stroke="black" stroke-width="6.48"/>
<line x1="964.77115" y1="692.136151" x2="964.77115" y2="507.600151" stroke="black" stroke-width="6.48"/>
<line x1="964.77115" y1="507.600151" x2="571.93915" y2="507.600151" stroke="black" stroke-width="6.48"/>
<line x1="571.93915" y1="507.600151" x2="571.93915" y2="692.136151" stroke="black" stroke-width="6.48"/>
<line x1="731.13115" y1="507.600151" x2="731.13115" y2="426.816151" stroke="black" stroke-width="6.48"/>
<line x1="731.13115" y1="426.816151" x2="652.72315" y2="426.816151" stroke="black" stroke-width="6.48"/>
<line x1="652.72315" y1="426.816151" x2="652.72315" y2="507.600151" stroke="black" stroke-width="6.48"/>
<line x1="653.51515" y1="444.240151" x2="731.13115" y2="444.240151" stroke="black" stroke-width="6.48"/>
<line x1="652.72315" y1="773.712151" x2="731.13115" y2="773.712151" stroke="black" stroke-width="6.48"/>
<line x1="731.13115" y1="773.712151" x2="731.13115" y2="692.136151" stroke="black" stroke-width="6.48"/>
<line x1="652.72315" y1="692.136151" x2="652.72315" y2="773.712151" stroke="black" stroke-width="6.48"/>
<line x1="653.51515" y1="756.288151" x2="731.13115" y2="756.288151" stroke="black" stroke-width="6.48"/>
<line x1="882.40315" y1="507.600151" x2="882.40315" y2="426.816151" stroke="black" stroke-width="6.48"/>
<line x1="882.40315" y1="426.816151" x2="803.99515" y2="426.816151" stroke="black" stroke-width="6.48"/>
<line x1="803.99515" y1="426.816151" x2="803.99515" y2="507.600151" stroke="black" stroke-width="6.48"/>
<line x1="803.99515" y1="444.240151" x2="882.40315" y2="444.240151" stroke="black" stroke-width="6.48"/>
<line x1="803.99515" y1="773.712151" x2="882.40315" y2="773.712151" stroke="black" stroke-width="6.48"/>
<line x1="882.40315" y1="773.712151" x2="882.40315" y2="692.136151" stroke="black" stroke-width="6.48"/>
<line x1="803.99515" y1="692.136151" x2="803.99515" y2="773.712151" stroke="black" stroke-width="6.48"/>
<line x1="803.99515" y1="756.288151" x2="882.40315" y2="756.288151" stroke="black" stroke-width="6.48"/>
<line x1="2032.924367" y1="1993.244447" x2="2032.924367" y2="1962.356447" stroke="black" stroke-width="6.48"/>
<line x1="2032.924367" y1="1962.356447" x2="1823.361167" y2="1962.356447" stroke="black" stroke-width="6.48"/>
<line x1="1823.361167" y1="1962.356447" x2="1823.361167" y2="1993.244447" stroke="black" stroke-width="6.48"/>
<line x1="1823.361167" y1="1993.244447" x2="2032.924367" y2="1993.244447" stroke="black" stroke-width="6.48"/>
<line x1="2032.924367" y1="1789.383647" x2="2032.924367" y2="1758.495647" stroke="black" stroke-width="6.48"/>
<line x1="2032.924367" y1="1758.495647" x2="1823.361167" y2="1758.495647" stroke="black" stroke-width="6.48"/>
<line x1="1823.361167" y1="1758.495647" x2="1823.361167" y2="1789.383647" stroke="black" stroke-width="6.48"/>
<line x1="1823.361167" y1="1789.383647" x2="2032.924367" y2="1789.383647" stroke="black" stroke-width="6.48"/>
<line x1="2032.924367" y1="1962.831647" x2="2032.924367" y2="1789.383647" stroke="black" stroke-width="6.48"/>
<line x1="1824.311567" y1="1963.306847" x2="1798.175567" y2="1936.695647" stroke="black" stroke-width="6.48"/>
<line x1="1798.175567" y1="1815.519647" x2="1824.311567" y2="1788.908447" stroke="black" stroke-width="6.48"/>
<line x1="1798.175567" y1="1938.596447" x2="1798.175567" y2="1813.618847" stroke="black" stroke-width="6.48"/>
<line x1="1988.255567" y1="1962.356447" x2="1988.255567" y2="1788.908447" stroke="black" stroke-width="6.48"/>
<line x1="1485.415969" y1="209.267824" x2="1707.693134" y2="209.267824" stroke="black" stroke-width="6.48"/>
<line x1="1707.693134" y1="209.267824" x2="1707.693134" y2="432.000475" stroke="black" stroke-width="6.48"/>
<line x1="1707.693134" y1="432.000475" x2="1485.415969" y2="432.000475" stroke="black" stroke-width="6.48"/>
<line x1="1485.415969" y1="432.000475" x2="1485.415969" y2="209.267824" stroke="black" stroke-width="6.48"/>
<line x1="1484.960483" y1="208.812337" x2="1707.693134" y2="432.000475" stroke="black" stroke-width="6.48"/>
<line x1="1485.415969" y1="431.544989" x2="1707.237648" y2="209.267824" stroke="black" stroke-width="6.48"/>
<line x1="2586.780558" y1="1803.366338" x2="2586.780558" y2="2194.614338" stroke="black" stroke-width="6.48"/>
<line x1="2586.780558" y1="2194.614338" x2="2761.020558" y2="2194.614338" stroke="black" stroke-width="6.48"/>
<line x1="2761.020558" y1="2194.614338" x2="2761.020558" y2="1803.366338" stroke="black" stroke-width="6.48"/>
<line x1="2761.020558" y1="1803.366338" x2="2586.780558" y2="1803.366338" stroke="black" stroke-width="6.48"/>
<line x1="2734.092558" y1="2119.374338" x2="2734.092558" y2="1835.046338" stroke="black" stroke-width="6.48"/>
<line x1="2734.092558" y1="1835.046338" x2="2616.084558" y2="1835.046338" stroke="black" stroke-width="6.48"/>
<line x1="2616.084558" y1="1835.046338" x2="2616.084558" y2="2124.918338" stroke="black" stroke-width="6.48"/>
<path d="m 2734.347982,2118.563766 a 63.35999941905905,63.35999941905905 0 0 1 -119.37432999999965,4.2938139999996565" fill="none" stroke="black" stroke-width="6.48"/>
<line x1="2081.051622" y1="1880.69683" x2="2056.499622" y2="1899.30883" stroke="black" stroke-width="6.48"/>
<line x1="2056.499622" y1="1899.30883" x2="2056.499622" y2="2046.62083" stroke="black" stroke-width="6.48"/>
<line x1="2056.499622" y1="2046.62083" x2="2084.615622" y2="2065.62883" stroke="black" stroke-width="6.48"/>
<line x1="2083.823622" y1="1902.47683" x2="2083.823622" y2="2045.43283" stroke="black" stroke-width="6.48"/>
<circle cx="2105.603622" cy="1971.77683" r="13.068000000000003" fill="none" stroke="black" stroke-width="6.48"/>
<path d="m 2083.156276,1904.030082 a 74.8440000678094,74.8440000678094 0 1 1 0.40204799999992247,139.6090039999999" fill="none" stroke="black" stroke-width="6.48"/>
<path d="m 2080.394258,1880.743133 a 95.43599883324424,95.43599883324424 0 1 1 3.0749580000001515,184.46699500000022" fill="none" stroke="black" stroke-width="6.48"/>
<line x1="560.679444" y1="210.276464" x2="953.923316" y2="210.276464" stroke="black" stroke-width="6.48"/>
<line x1="957.878723" y1="209.280182" x2="957.878723" y2="345.348958" stroke="black" stroke-width="6.48"/>
<line x1="561.143833" y1="346.500464" x2="958.184064" y2="346.500464" stroke="black" stroke-width="6.48"/>
<line x1="561.878723" y1="210.971214" x2="561.878723" y2="346.23527" stroke="black" stroke-width="6.48"/>
<line x1="572.174723" y1="221.364464" x2="695.726723" y2="221.364464" stroke="black" stroke-width="6.48"/>
<line x1="695.726723" y1="221.364464" x2="695.726723" y2="335.412464" stroke="black" stroke-width="6.48"/>
<line x1="572.174723" y1="335.412464" x2="695.726723" y2="335.412464" stroke="black" stroke-width="6.48"/>
<line x1="572.174723" y1="221.364464" x2="572.174723" y2="335.412464" stroke="black" stroke-width="6.48"/>
<line x1="714.734723" y1="228.492464" x2="801.854723" y2="228.492464" stroke="black" stroke-width="6.48"/>
<line x1="714.734723" y1="248.292464" x2="801.854723" y2="248.292464" stroke="black" stroke-width="6.48"/>
<line x1="715.526723" y1="268.884464" x2="801.854723" y2="268.884464" stroke="black" stroke-width="6.48"/>
<line x1="715.526723" y1="288.684464" x2="801.854723" y2="288.684464" stroke="black" stroke-width="6.48"/>
<line x1="714.734723" y1="308.484464" x2="801.854723" y2="308.484464" stroke="black" stroke-width="6.48"/>
<line x1="714.734723" y1="328.284464" x2="801.854723" y2="328.284464" stroke="black" stroke-width="6.48"/>
<line x1="619.694723" y1="334.620464" x2="619.694723" y2="321.156464" stroke="black" stroke-width="6.48"/>
<line x1="619.694723" y1="321.156464" x2="649.790723" y2="321.156464" stroke="black" stroke-width="6.48"/>
<line x1="649.790723" y1="321.156464" x2="649.790723" y2="333.828464" stroke="black" stroke-width="6.48"/>
<line x1="822.446723" y1="221.364464" x2="945.998723" y2="221.364464" stroke="black" stroke-width="6.48"/>
<line x1="945.998723" y1="221.364464" x2="945.998723" y2="335.412464" stroke="black" stroke-width="6.48"/>
<line x1="822.446723" y1="335.412464" x2="945.998723" y2="335.412464" stroke="black" stroke-width="6.48"/>
<line x1="822.446723" y1="221.364464" x2="822.446723" y2="335.412464" stroke="black" stroke-width="6.48"/>
<line x1="869.966723" y1="335.412464" x2="869.966723" y2="321.948464" stroke="black" stroke-width="6.48"/>
<line x1="869.966723" y1="321.948464" x2="900.062723" y2="321.948464" stroke="black" stroke-width="6.48"/>
<line x1="900.062723" y1="321.948464" x2="900.062723" y2="334.620464" stroke="black" stroke-width="6.48"/>
<circle cx="681.470723" cy="235.620464" r="7.128000000000001" fill="none" stroke="black" stroke-width="6.48"/>
<circle cx="931.742723" cy="236.412464" r="7.128000000000001" fill="none" stroke="black" stroke-width="6.48"/>
<line x1="1096.315621" y1="1513.191434" x2="964.210021" y2="1513.191434" stroke="black" stroke-width="6.48"/>
<line x1="964.210021" y1="1513.191434" x2="964.210021" y2="1498.935434" stroke="black" stroke-width="6.48"/>
<line x1="1096.315621" y1="1498.935434" x2="964.210021" y2="1498.935434" stroke="black" stroke-width="6.48"/>
<line x1="1096.315621" y1="1513.191434" x2="1096.315621" y2="1498.935434" stroke="black" stroke-width="6.48"/>
<line x1="1083.010021" y1="1498.935434" x2="1084.910821" y2="1467.572234" stroke="black" stroke-width="6.48"/>
<line x1="977.515621" y1="1498.935434" x2="975.614821" y2="1466.621834" stroke="black" stroke-width="6.48"/>
<line x1="1096.315621" y1="1052.247434" x2="964.210021" y2="1052.247434" stroke="black" stroke-width="6.48"/>
<line x1="964.210021" y1="1052.247434" x2="964.210021" y2="1065.553034" stroke="black" stroke-width="6.48"/>
<line x1="1096.315621" y1="1065.553034" x2="964.210021" y2="1065.553034" stroke="black" stroke-width="6.48"/>
<line x1="1096.315621" y1="1052.247434" x2="1096.315621" y2="1065.553034" stroke="black" stroke-width="6.48"/>
<line x1="1083.960421" y1="1067.453834" x2="1085.861221" y2="1098.817034" stroke="black" stroke-width="6.48"/>
<line x1="978.466021" y1="1067.453834" x2="975.614821" y2="1099.767434" stroke="black" stroke-width="6.48"/>
<line x1="800.741221" y1="1348.772234" x2="814.997221" y2="1348.772234" stroke="black" stroke-width="6.48"/>
<line x1="814.997221" y1="1348.772234" x2="814.997221" y2="1216.666634" stroke="black" stroke-width="6.48"/>
<line x1="800.741221" y1="1216.666634" x2="814.997221" y2="1216.666634" stroke="black" stroke-width="6.48"/>
<line x1="800.741221" y1="1348.772234" x2="800.741221" y2="1216.666634" stroke="black" stroke-width="6.48"/>
<line x1="814.997221" y1="1230.922634" x2="847.310821" y2="1228.071434" stroke="black" stroke-width="6.48"/>
<line x1="814.997221" y1="1335.466634" x2="847.310821" y2="1337.367434" stroke="black" stroke-width="6.48"/>
<line x1="1260.734821" y1="1349.722634" x2="1246.478821" y2="1349.722634" stroke="black" stroke-width="6.48"/>
<line x1="1246.478821" y1="1349.722634" x2="1246.478821" y2="1217.617034" stroke="black" stroke-width="6.48"/>
<line x1="1260.734821" y1="1217.617034" x2="1246.478821" y2="1217.617034" stroke="black" stroke-width="6.48"/>
<line x1="1260.734821" y1="1349.722634" x2="1260.734821" y2="1217.617034" stroke="black" stroke-width="6.48"/>
<line x1="1246.478821" y1="1231.873034" x2="1214.165221" y2="1229.021834" stroke="black" stroke-width="6.48"/>
<line x1="1246.478821" y1="1336.417034" x2="1214.165221" y2="1338.317834" stroke="black" stroke-width="6.48"/>
<circle cx="1030.738021" cy="1283.194634" r="191.98080000000002" fill="none" stroke="black" stroke-width="6.48"/>
<line x1="2044.889399" y1="955.822399" x2="2267.166564" y2="955.822399" stroke="black" stroke-width="6.48"/>
<line x1="2267.166564" y1="955.822399" x2="2267.166564" y2="1178.555051" stroke="black" stroke-width="6.48"/>
<line x1="2267.166564" y1="1178.555051" x2="2044.889399" y2="1178.555051" stroke="black" stroke-width="6.48"/>
<line x1="2044.889399" y1="1178.555051" x2="2044.889399" y2="955.822399" stroke="black" stroke-width="6.48"/>
<line x1="2044.433912" y1="955.366913" x2="2267.166564" y2="1178.555051" stroke="black" stroke-width="6.48"/>
<line x1="2044.889399" y1="1178.099564" x2="2266.711078" y2="955.822399" stroke="black" stroke-width="6.48"/>
<line x1="323.258818" y1="1375.374532" x2="323.258818" y2="949.841089" stroke="black" stroke-width="6.48"/>
<line x1="323.258818" y1="949.841089" x2="257.659344" y2="949.841089" stroke="black" stroke-width="6.48"/>
<line x1="257.659344" y1="949.841089" x2="257.659344" y2="1375.374532" stroke="black" stroke-width="6.48"/>
<line x1="257.659344" y1="1375.374532" x2="323.258818" y2="1375.374532" stroke="black" stroke-width="6.48"/>
<line x1="258.522494" y1="1335.669588" x2="322.395667" y2="1335.669588" stroke="black" stroke-width="6.48"/>
<line x1="258.522494" y1="990.409187" x2="324.985122" y2="990.409187" stroke="black" stroke-width="6.48"/>
<line x1="288.73278" y1="1336.532738" x2="288.73278" y2="991.272337" stroke="black" stroke-width="6.48"/>
<line x1="3874.406537" y1="1514.726719" x2="3874.406537" y2="1940.260162" stroke="black" stroke-width="6.48"/>
<line x1="3874.406537" y1="1940.260162" x2="3940.00601" y2="1940.260162" stroke="black" stroke-width="6.48"/>
<line x1="3940.00601" y1="1940.260162" x2="3940.00601" y2="1514.726719" stroke="black" stroke-width="6.48"/>
<line x1="3940.00601" y1="1514.726719" x2="3874.406537" y2="1514.726719" stroke="black" stroke-width="6.48"/>
<line x1="3939.14286" y1="1554.431663" x2="3875.269687" y2="1554.431663" stroke="black" stroke-width="6.48"/>
<line x1="3939.14286" y1="1899.692064" x2="3872.680232" y2="1899.692064" stroke="black" stroke-width="6.48"/>
<line x1="3908.932574" y1="1553.568512" x2="3908.932574" y2="1898.828914" stroke="black" stroke-width="6.48"/>
<line x1="5345.838886" y1="1960.760783" x2="5300.65611" y2="2084.899442" stroke="black" stroke-width="6.48"/>
<line x1="5300.65611" y1="2084.899442" x2="5287.259851" y2="2080.023606" stroke="black" stroke-width="6.48"/>
<line x1="5332.442627" y1="1955.884946" x2="5287.259851" y2="2080.023606" stroke="black" stroke-width="6.48"/>
<line x1="5345.838886" y1="1960.760783" x2="5332.442627" y2="1955.884946" stroke="black" stroke-width="6.48"/>
<line x1="5327.891842" y1="1968.388121" x2="5299.070191" y2="1955.875108" stroke="black" stroke-width="6.48"/>
<line x1="5291.810633" y1="2067.520428" x2="5260.795668" y2="2058.254698" stroke="black" stroke-width="6.48"/>
<line x1="4912.693207" y1="1803.108654" x2="4867.510432" y2="1927.24731" stroke="black" stroke-width="6.48"/>
<line x1="4867.510432" y1="1927.24731" x2="4880.01361" y2="1931.798092" stroke="black" stroke-width="6.48"/>
<line x1="4925.196385" y1="1807.659432" x2="4880.01361" y2="1931.798092" stroke="black" stroke-width="6.48"/>
<line x1="4912.693207" y1="1803.108654" x2="4925.196385" y2="1807.659432" stroke="black" stroke-width="6.48"/>
<line x1="4922.756824" y1="1819.919639" x2="4952.8787" y2="1828.860314" stroke="black" stroke-width="6.48"/>
<line x1="4886.675615" y1="1919.051946" x2="4916.065298" y2="1932.783098" stroke="black" stroke-width="6.48"/>
<line x1="5090.242975" y1="2182.275187" x2="5095.118815" y2="2168.878932" stroke="black" stroke-width="6.48"/>
<line x1="5095.118815" y1="2168.878932" x2="4970.980159" y2="2123.696156" stroke="black" stroke-width="6.48"/>
<line x1="4966.104319" y1="2137.092412" x2="4970.980159" y2="2123.696156" stroke="black" stroke-width="6.48"/>
<line x1="5090.242975" y1="2182.275187" x2="4966.104319" y2="2137.092412" stroke="black" stroke-width="6.48"/>
<line x1="4984.376418" y1="2128.571993" x2="4992.749068" y2="2097.231973" stroke="black" stroke-width="6.48"/>
<line x1="5082.615644" y1="2164.328147" x2="5095.453712" y2="2134.613408" stroke="black" stroke-width="6.48"/>
<line x1="5248.463137" y1="1750.347652" x2="5243.587297" y2="1763.743914" stroke="black" stroke-width="6.48"/>
<line x1="5243.587297" y1="1763.743914" x2="5119.448641" y2="1718.561135" stroke="black" stroke-width="6.48"/>
<line x1="5124.324481" y1="1705.164876" x2="5119.448641" y2="1718.561135" stroke="black" stroke-width="6.48"/>
<line x1="5248.463137" y1="1750.347652" x2="5124.324481" y2="1705.164876" stroke="black" stroke-width="6.48"/>
<line x1="5132.8449" y1="1723.436975" x2="5119.113748" y2="1752.826655" stroke="black" stroke-width="6.48"/>
<line x1="5231.084126" y1="1759.193129" x2="5221.818392" y2="1790.20809" stroke="black" stroke-width="6.48"/>
<circle cx="5107.28373" cy="1943.720032" r="191.98080000000002" fill="none" stroke="black" stroke-width="6.48"/>
<line x1="3144.328711" y1="1074.448735" x2="3353.693915" y2="1074.448735" stroke="black" stroke-width="6.48"/>
<line x1="3353.693915" y1="1074.448735" x2="3353.693915" y2="743.234332" stroke="black" stroke-width="6.48"/>
<line x1="3353.693915" y1="743.234332" x2="3144.328711" y2="743.234332" stroke="black" stroke-width="6.48"/>
<line x1="3144.328711" y1="743.234332" x2="3144.328711" y2="1074.448735" stroke="black" stroke-width="6.48"/>
<line x1="3143.655511" y1="802.475932" x2="3354.367111" y2="802.475932" stroke="black" stroke-width="6.48"/>
<line x1="3354.367111" y1="802.475932" x2="3145.001911" y2="852.292735" stroke="black" stroke-width="6.48"/>
<line x1="3145.001911" y1="852.292735" x2="3176.642315" y2="898.743535" stroke="black" stroke-width="6.48"/>
<line x1="3176.642315" y1="898.743535" x2="3354.367111" y2="801.802735" stroke="black" stroke-width="6.48"/>
<line x1="3206.757697" y1="1203.95691" x2="3429.034862" y2="1203.95691" stroke="black" stroke-width="6.48"/>
<line x1="3429.034862" y1="1203.95691" x2="3429.034862" y2="1426.689562" stroke="black" stroke-width="6.48"/>
<line x1="3429.034862" y1="1426.689562" x2="3206.757697" y2="1426.689562" stroke="black" stroke-width="6.48"/>
<line x1="3206.757697" y1="1426.689562" x2="3206.757697" y2="1203.95691" stroke="black" stroke-width="6.48"/>
<line x1="3206.302211" y1="1203.501424" x2="3429.034862" y2="1426.689562" stroke="black" stroke-width="6.48"/>
<line x1="3206.757697" y1="1426.234075" x2="3428.579376" y2="1203.95691" stroke="black" stroke-width="6.48"/>
<line x1="2804.16708" y1="1127.69402" x2="2804.16708" y2="1153.148746" stroke="black" stroke-width="6.48"/>
<line x1="2804.16708" y1="1153.148746" x2="2853.834836" y2="1153.148746" stroke="black" stroke-width="6.48"/>
<line x1="2853.834836" y1="1153.148746" x2="2853.834836" y2="1127.69402" stroke="black" stroke-width="6.48"/>
<line x1="2853.834836" y1="1127.69402" x2="2804.16708" y2="1127.69402" stroke="black" stroke-width="6.48"/>
<line x1="2853.834836" y1="1402.108373" x2="3101.55277" y2="1402.108373" stroke="black" stroke-width="6.48"/>
<line x1="2802.925386" y1="1402.729218" x2="2802.925386" y2="1428.183943" stroke="black" stroke-width="6.48"/>
<line x1="2802.925386" y1="1428.183943" x2="2852.593142" y2="1428.183943" stroke="black" stroke-width="6.48"/>
<line x1="2852.593142" y1="1428.183943" x2="2852.593142" y2="1402.729218" stroke="black" stroke-width="6.48"/>
<line x1="2852.593142" y1="1402.729218" x2="2802.925386" y2="1402.729218" stroke="black" stroke-width="6.48"/>
<path d="m 2851.972294,1153.148746 a 248.95962699999984,248.95962699999984 0 0 1 248.95962699999973,248.95962699999995" fill="none" stroke="black" stroke-width="6.48"/>
<line x1="2941.237375" y1="2014.078082" x2="2870.03223" y2="2190.31722" stroke="black" stroke-width="6.48"/>
<line x1="2870.03223" y1="2190.31722" x2="3300.055726" y2="2364.05777" stroke="black" stroke-width="6.48"/>
<line x1="3300.055726" y1="2364.05777" x2="3371.260871" y2="2187.818633" stroke="black" stroke-width="6.48"/>
<line x1="3371.260871" y1="2187.818633" x2="3349.23098" y2="2178.917989" stroke="black" stroke-width="6.48"/>
<line x1="3349.23098" y1="2178.917989" x2="3286.570453" y2="2334.008434" stroke="black" stroke-width="6.48"/>
<line x1="3286.570453" y1="2334.008434" x2="2901.487936" y2="2178.425192" stroke="black" stroke-width="6.48"/>
<line x1="2901.487936" y1="2178.425192" x2="2964.148463" y2="2023.334752" stroke="black" stroke-width="6.48"/>
<line x1="2964.148463" y1="2023.334752" x2="2941.237375" y2="2014.078082" stroke="black" stroke-width="6.48"/>
<line x1="2962.012309" y1="2028.621924" x2="3347.094827" y2="2184.205165" stroke="black" stroke-width="6.48"/>
<line x1="3154.468993" y1="2105.354336" x2="3093.944623" y2="2255.157605" stroke="black" stroke-width="6.48"/>
<line x1="3612.290602" y1="1650.678228" x2="3699.16097" y2="1865.689942" stroke="black" stroke-width="6.48"/>
<line x1="3699.16097" y1="1865.689942" x2="3483.70866" y2="1952.738327" stroke="black" stroke-width="6.48"/>
<line x1="3483.70866" y1="1952.738327" x2="3396.838291" y2="1737.726613" stroke="black" stroke-width="6.48"/>
<line x1="3396.838291" y1="1737.726613" x2="3612.290602" y2="1650.678228" stroke="black" stroke-width="6.48"/>
<line x1="3612.553186" y1="1650.059618" x2="3483.70866" y2="1952.738327" stroke="black" stroke-width="6.48"/>
<line x1="3397.278888" y1="1737.5486" x2="3698.982958" y2="1865.249345" stroke="black" stroke-width="6.48"/>
<line x1="3054.501112" y1="1589.315882" x2="3045.470335" y2="1618.854221" stroke="black" stroke-width="6.48"/>
<line x1="3045.470335" y1="1618.854221" x2="3245.876618" y2="1680.124576" stroke="black" stroke-width="6.48"/>
<line x1="3245.876618" y1="1680.124576" x2="3254.907395" y2="1650.586234" stroke="black" stroke-width="6.48"/>
<line x1="3254.907395" y1="1650.586234" x2="3054.501112" y2="1589.315882" stroke="black" stroke-width="6.48"/>
<line x1="2994.897982" y1="1784.268936" x2="2985.867205" y2="1813.807274" stroke="black" stroke-width="6.48"/>
<line x1="2985.867205" y1="1813.807274" x2="3186.273488" y2="1875.077629" stroke="black" stroke-width="6.48"/>
<line x1="3186.273488" y1="1875.077629" x2="3195.304268" y2="1845.539287" stroke="black" stroke-width="6.48"/>
<line x1="3195.304268" y1="1845.539287" x2="2994.897982" y2="1784.268936" stroke="black" stroke-width="6.48"/>
<line x1="3045.60927" y1="1618.399789" x2="2994.897982" y2="1784.268936" stroke="black" stroke-width="6.48"/>
<line x1="3245.245618" y1="1678.937832" x2="3262.459234" y2="1712.027675" stroke="black" stroke-width="6.48"/>
<line x1="3227.030802" y1="1827.90886" x2="3194.25646" y2="1845.715849" stroke="black" stroke-width="6.48"/>
<line x1="3263.014976" y1="1710.209934" x2="3226.475063" y2="1829.726608" stroke="black" stroke-width="6.48"/>
<line x1="3088.187323" y1="1631.914117" x2="3037.476031" y2="1797.783268" stroke="black" stroke-width="6.48"/>
<line x1="6395.39185" y1="1910.72808" x2="6219.152744" y2="1839.522856" stroke="black" stroke-width="6.48"/>
<line x1="6219.152744" y1="1839.522856" x2="6045.412003" y2="2269.546276" stroke="black" stroke-width="6.48"/>
<line x1="6045.412003" y1="2269.546276" x2="6221.651112" y2="2340.7515" stroke="black" stroke-width="6.48"/>
<line x1="6221.651112" y1="2340.7515" x2="6230.551766" y2="2318.721613" stroke="black" stroke-width="6.48"/>
<line x1="6230.551766" y1="2318.721613" x2="6075.461351" y2="2256.061014" stroke="black" stroke-width="6.48"/>
<line x1="6075.461351" y1="2256.061014" x2="6231.044758" y2="1870.978568" stroke="black" stroke-width="6.48"/>
<line x1="6231.044758" y1="1870.978568" x2="6386.135173" y2="1933.63916" stroke="black" stroke-width="6.48"/>
<line x1="6386.135173" y1="1933.63916" x2="6395.39185" y2="1910.72808" stroke="black" stroke-width="6.48"/>
<line x1="6380.847997" y1="1931.503007" x2="6225.26459" y2="2316.585452" stroke="black" stroke-width="6.48"/>
<line x1="6304.115506" y1="2123.959655" x2="6154.312262" y2="2063.435216" stroke="black" stroke-width="6.48"/>
<line x1="2277.744962" y1="2040.549397" x2="2508.372198" y2="2064.789353" stroke="black" stroke-width="6.48"/>
<line x1="2508.372198" y1="2064.789353" x2="2484.08257" y2="2295.889186" stroke="black" stroke-width="6.48"/>
<line x1="2484.08257" y1="2295.889186" x2="2253.455334" y2="2271.649226" stroke="black" stroke-width="6.48"/>
<line x1="2253.455334" y1="2271.649226" x2="2277.744962" y2="2040.549397" stroke="black" stroke-width="6.48"/>
<line x1="2277.322038" y1="2040.027127" x2="2484.08257" y2="2295.889186" stroke="black" stroke-width="6.48"/>
<line x1="2253.505007" y1="2271.176629" x2="2507.899601" y2="2064.73968" stroke="black" stroke-width="6.48"/>
<line x1="978.232982" y1="1854.636023" x2="986.746856" y2="1884.327476" stroke="black" stroke-width="6.48"/>
<line x1="986.746856" y1="1884.327476" x2="1188.191952" y2="1826.56408" stroke="black" stroke-width="6.48"/>
<line x1="1188.191952" y1="1826.56408" x2="1179.678074" y2="1796.872626" stroke="black" stroke-width="6.48"/>
<line x1="1179.678074" y1="1796.872626" x2="978.232982" y2="1854.636023" stroke="black" stroke-width="6.48"/>
<line x1="1034.424583" y1="2050.599618" x2="1042.938464" y2="2080.291068" stroke="black" stroke-width="6.48"/>
<line x1="1042.938464" y1="2080.291068" x2="1244.383553" y2="2022.527671" stroke="black" stroke-width="6.48"/>
<line x1="1244.383553" y1="2022.527671" x2="1235.869675" y2="1992.836221" stroke="black" stroke-width="6.48"/>
<line x1="1235.869675" y1="1992.836221" x2="1034.424583" y2="2050.599618" stroke="black" stroke-width="6.48"/>
<line x1="986.615881" y1="1883.870683" x2="1034.424583" y2="2050.599618" stroke="black" stroke-width="6.48"/>
<line x1="1187.016401" y1="1825.912465" x2="1219.474973" y2="1844.288741" stroke="black" stroke-width="6.48"/>
<line x1="1252.875578" y1="1960.770593" x2="1235.087078" y2="1993.554972" stroke="black" stroke-width="6.48"/>
<line x1="1218.951043" y1="1842.461572" x2="1253.399508" y2="1962.597762" stroke="black" stroke-width="6.48"/>
<line x1="1029.685266" y1="1872.015098" x2="1077.493975" y2="2038.744026" stroke="black" stroke-width="6.48"/>
<line x1="3840.070216" y1="1126.752433" x2="3836.305915" y2="1096.094668" stroke="black" stroke-width="6.48"/>
<line x1="3836.305915" y1="1096.094668" x2="3628.30477" y2="1121.633996" stroke="black" stroke-width="6.48"/>
<line x1="3628.30477" y1="1121.633996" x2="3632.06907" y2="1152.291762" stroke="black" stroke-width="6.48"/>
<line x1="3632.06907" y1="1152.291762" x2="3840.070216" y2="1126.752433" stroke="black" stroke-width="6.48"/>
<line x1="3815.225838" y1="924.411182" x2="3811.461538" y2="893.753417" stroke="black" stroke-width="6.48"/>
<line x1="3811.461538" y1="893.753417" x2="3603.460388" y2="919.292742" stroke="black" stroke-width="6.48"/>
<line x1="3603.460388" y1="919.292742" x2="3607.224689" y2="949.950508" stroke="black" stroke-width="6.48"/>
<line x1="3607.224689" y1="949.950508" x2="3815.225838" y2="924.411182" stroke="black" stroke-width="6.48"/>
<line x1="3836.363832" y1="1096.566325" x2="3815.225838" y2="924.411182" stroke="black" stroke-width="6.48"/>
<line x1="3629.363911" y1="1122.461489" x2="3600.179633" y2="1099.233821" stroke="black" stroke-width="6.48"/>
<line x1="3585.411994" y1="978.96105" x2="3608.110091" y2="949.363027" stroke="black" stroke-width="6.48"/>
<line x1="3600.411286" y1="1101.120451" x2="3585.180344" y2="977.074416" stroke="black" stroke-width="6.48"/>
<line x1="3791.970072" y1="1101.538426" x2="3770.832078" y2="929.383279" stroke="black" stroke-width="6.48"/>
</g>
</svg>
