<?xml version="1.0"?>
<svg xmlns:xlink="http://www.w3.org/1999/xlink" width="6775.2" height="2858.4">
<image x="0" y="0" width="6775.2" height="2858.4" xlink:href="groundfilled-01.png"/>
<g style="stroke-linecap:round">
<line x1="1285.950406" y1="795.178109" x2="1311.346069" y2="795.178109" stroke="black" stroke-width="6.48"/>
<line x1="1311.346069" y1="795.178109" x2="1311.346069" y2="745.625592" stroke="black" stroke-width="6.48"/>
<line x1="1311.346069" y1="745.625592" x2="1285.950406" y2="745.625592" stroke="black" stroke-width="6.48"/>
<line x1="1285.950406" y1="745.625592" x2="1285.950406" y2="795.178109" stroke="black" stroke-width="6.48"/>
<line x1="1559.728062" y1="745.625592" x2="1559.728062" y2="498.48241" stroke="black" stroke-width="6.48"/>
<line x1="1560.347471" y1="796.416923" x2="1585.743134" y2="796.416923" stroke="black" stroke-width="6.48"/>
<line x1="1585.743134" y1="796.416923" x2="1585.743134" y2="746.864406" stroke="black" stroke-width="6.48"/>
<line x1="1585.743134" y1="746.864406" x2="1560.347471" y2="746.864406" stroke="black" stroke-width="6.48"/>
<line x1="1560.347471" y1="746.864406" x2="1560.347471" y2="796.416923" stroke="black" stroke-width="6.48"/>
<path d="m 1311.346069,747.483811 a 248.38199299999997,248.38199299999997 0 0 1 248.38199299999997,-248.38199299999997" fill="none" stroke="black" stroke-width="6.48"/>
<line x1="330.523178" y1="771.328966" x2="330.523178" y2="366.748985" stroke="black" stroke-width="6.48"/>
<line x1="330.523178" y1="366.748985" x2="258.15928" y2="366.748985" stroke="black" stroke-width="6.48"/>
<line x1="258.15928" y1="366.748985" x2="258.15928" y2="771.328966" stroke="black" stroke-width="6.48"/>
<line x1="258.15928" y1="771.328966" x2="330.523178" y2="771.328966" stroke="black" stroke-width="6.48"/>
<line x1="330.523178" y1="752.415674" x2="355.19269" y2="752.415674" stroke="black" stroke-width="6.48"/>
<line x1="355.19269" y1="752.415674" x2="355.19269" y2="386.484595" stroke="black" stroke-width="6.48"/>
<line x1="330.523178" y1="386.484595" x2="355.19269" y2="386.484595" stroke="black" stroke-width="6.48"/>
<line x1="3901.945176" y1="1169.331426" x2="3901.945176" y2="1428.837066" stroke="black" stroke-width="6.48"/>
<line x1="3901.945176" y1="1428.837066" x2="3941.9501" y2="1428.837066" stroke="black" stroke-width="6.48"/>
<line x1="3941.9501" y1="1428.837066" x2="3941.9501" y2="1169.331426" stroke="black" stroke-width="6.48"/>
<line x1="3941.9501" y1="1169.331426" x2="3901.945176" y2="1169.331426" stroke="black" stroke-width="6.48"/>
<line x1="3941.423719" y1="1193.544936" x2="3902.471557" y2="1193.544936" stroke="black" stroke-width="6.48"/>
<line x1="3941.423719" y1="1404.097178" x2="3900.892414" y2="1404.097178" stroke="black" stroke-width="6.48"/>
<line x1="3923.000399" y1="1193.018555" x2="3923.000399" y2="1403.570797" stroke="black" stroke-width="6.48"/>
<line x1="334.430687" y1="1882.943946" x2="334.430687" y2="1457.437414" stroke="black" stroke-width="6.48"/>
<line x1="334.430687" y1="1457.437414" x2="258.323828" y2="1457.437414" stroke="black" stroke-width="6.48"/>
<line x1="258.323828" y1="1457.437414" x2="258.323828" y2="1882.943946" stroke="black" stroke-width="6.48"/>
<line x1="258.323828" y1="1882.943946" x2="334.430687" y2="1882.943946" stroke="black" stroke-width="6.48"/>
<line x1="334.430687" y1="1863.05238" x2="360.376207" y2="1863.05238" stroke="black" stroke-width="6.48"/>
<line x1="360.376207" y1="1863.05238" x2="360.376207" y2="1478.193829" stroke="black" stroke-width="6.48"/>
<line x1="334.430687" y1="1478.193829" x2="360.376207" y2="1478.193829" stroke="black" stroke-width="6.48"/>
<line x1="2747.905531" y1="904.670665" x2="2721.68303" y2="904.670665" stroke="black" stroke-width="6.48"/>
<line x1="2721.68303" y1="904.670665" x2="2721.68303" y2="955.836522" stroke="black" stroke-width="6.48"/>
<line x1="2721.68303" y1="955.836522" x2="2747.905531" y2="955.836522" stroke="black" stroke-width="6.48"/>
<line x1="2747.905531" y1="955.836522" x2="2747.905531" y2="904.670665" stroke="black" stroke-width="6.48"/>
<line x1="2465.214181" y1="955.836522" x2="2465.214181" y2="1211.026223" stroke="black" stroke-width="6.48"/>
<line x1="2464.574609" y1="903.39152" x2="2438.352108" y2="903.39152" stroke="black" stroke-width="6.48"/>
<line x1="2438.352108" y1="903.39152" x2="2438.352108" y2="954.557374" stroke="black" stroke-width="6.48"/>
<line x1="2438.352108" y1="954.557374" x2="2464.574609" y2="954.557374" stroke="black" stroke-width="6.48"/>
<line x1="2464.574609" y1="954.557374" x2="2464.574609" y2="903.39152" stroke="black" stroke-width="6.48"/>
<path d="m 2721.68303,953.917801 a 256.4688490000001,256.4688490000001 0 0 1 -256.4688490000003,256.46884899999986" fill="none" stroke="black" stroke-width="6.48"/>
<line x1="2420.532389" y1="1427.858834" x2="2395.136725" y2="1427.858834" stroke="black" stroke-width="6.48"/>
<line x1="2395.136725" y1="1427.858834" x2="2395.136725" y2="1477.411351" stroke="black" stroke-width="6.48"/>
<line x1="2395.136725" y1="1477.411351" x2="2420.532389" y2="1477.411351" stroke="black" stroke-width="6.48"/>
<line x1="2420.532389" y1="1477.411351" x2="2420.532389" y2="1427.858834" stroke="black" stroke-width="6.48"/>
<line x1="2146.754732" y1="1477.411351" x2="2146.754732" y2="1724.554534" stroke="black" stroke-width="6.48"/>
<line x1="2146.135324" y1="1426.62002" x2="2120.73966" y2="1426.62002" stroke="black" stroke-width="6.48"/>
<line x1="2120.73966" y1="1426.62002" x2="2120.73966" y2="1476.172537" stroke="black" stroke-width="6.48"/>
<line x1="2120.73966" y1="1476.172537" x2="2146.135324" y2="1476.172537" stroke="black" stroke-width="6.48"/>
<line x1="2146.135324" y1="1476.172537" x2="2146.135324" y2="1426.62002" stroke="black" stroke-width="6.48"/>
<path d="m 2395.136725,1475.553132 a 248.38199299999997,248.38199299999997 0 0 1 -248.38199299999997,248.38199299999997" fill="none" stroke="black" stroke-width="6.48"/>
<line x1="546.004242" y1="541.339351" x2="777.901842" y2="541.339351" stroke="black" stroke-width="6.48"/>
<line x1="777.901842" y1="541.339351" x2="777.901842" y2="773.712151" stroke="black" stroke-width="6.48"/>
<line x1="777.901842" y1="773.712151" x2="546.004242" y2="773.712151" stroke="black" stroke-width="6.48"/>
<line x1="546.004242" y1="773.712151" x2="546.004242" y2="541.339351" stroke="black" stroke-width="6.48"/>
<line x1="545.529042" y1="540.864151" x2="777.901842" y2="773.712151" stroke="black" stroke-width="6.48"/>
<line x1="546.004242" y1="773.236951" x2="777.426642" y2="541.339351" stroke="black" stroke-width="6.48"/>
<line x1="1842.844367" y1="2068.456115" x2="2032.924367" y2="2068.456115" stroke="black" stroke-width="6.48"/>
<line x1="2032.924367" y1="2068.456115" x2="2032.924367" y2="1604.660915" stroke="black" stroke-width="6.48"/>
<line x1="2032.924367" y1="1604.660915" x2="1842.844367" y2="1604.660915" stroke="black" stroke-width="6.48"/>
<line x1="1842.844367" y1="1604.660915" x2="1842.844367" y2="1628.420915" stroke="black" stroke-width="6.48"/>
<line x1="1842.844367" y1="1628.420915" x2="2010.114767" y2="1628.420915" stroke="black" stroke-width="6.48"/>
<line x1="2010.114767" y1="1628.420915" x2="2010.114767" y2="2043.745715" stroke="black" stroke-width="6.48"/>
<line x1="2010.114767" y1="2043.745715" x2="1842.844367" y2="2043.745715" stroke="black" stroke-width="6.48"/>
<line x1="1842.844367" y1="2043.745715" x2="1842.844367" y2="2068.456115" stroke="black" stroke-width="6.48"/>
<line x1="1848.546767" y1="2043.745715" x2="1848.546767" y2="1628.420915" stroke="black" stroke-width="6.48"/>
<line x1="1847.596367" y1="1836.558515" x2="2009.164367" y2="1836.558515" stroke="black" stroke-width="6.48"/>
<line x1="1485.415969" y1="209.267824" x2="1707.693134" y2="209.267824" stroke="black" stroke-width="6.48"/>
<line x1="1707.693134" y1="209.267824" x2="1707.693134" y2="432.000475" stroke="black" stroke-width="6.48"/>
<line x1="1707.693134" y1="432.000475" x2="1485.415969" y2="432.000475" stroke="black" stroke-width="6.48"/>
<line x1="1485.415969" y1="432.000475" x2="1485.415969" y2="209.267824" stroke="black" stroke-width="6.48"/>
<line x1="1484.960483" y1="208.812337" x2="1707.693134" y2="432.000475" stroke="black" stroke-width="6.48"/>
<line x1="1485.415969" y1="431.544989" x2="1707.237648" y2="209.267824" stroke="black" stroke-width="6.48"/>
<line x1="2761.020558" y1="2194.614338" x2="2761.020558" y2="1803.366338" stroke="black" stroke-width="6.48"/>
<line x1="2761.020558" y1="1803.366338" x2="2586.780558" y2="1803.366338" stroke="black" stroke-width="6.48"/>
<line x1="2586.780558" y1="1803.366338" x2="2586.780558" y2="2194.614338" stroke="black" stroke-width="6.48"/>
<line x1="2586.780558" y1="2194.614338" x2="2761.020558" y2="2194.614338" stroke="black" stroke-width="6.48"/>
<line x1="2613.708558" y1="1878.606338" x2="2613.708558" y2="2162.934338" stroke="black" stroke-width="6.48"/>
<line x1="2613.708558" y1="2162.934338" x2="2731.716558" y2="2162.934338" stroke="black" stroke-width="6.48"/>
<line x1="2731.716558" y1="2162.934338" x2="2731.716558" y2="1873.062338" stroke="black" stroke-width="6.48"/>
<path d="m 2613.453134,1879.416911 a 63.3599990854681,63.3599990854681 0 0 1 119.3743300000001,-4.293814000000111" fill="none" stroke="black" stroke-width="6.48"/>
<line x1="2080.882073" y1="1859.333623" x2="2056.330073" y2="1877.945623" stroke="black" stroke-width="6.48"/>
<line x1="2056.330073" y1="1877.945623" x2="2056.330073" y2="2025.257623" stroke="black" stroke-width="6.48"/>
<line x1="2056.330073" y1="2025.257623" x2="2084.446073" y2="2044.265623" stroke="black" stroke-width="6.48"/>
<line x1="2083.654073" y1="1881.113623" x2="2083.654073" y2="2024.069623" stroke="black" stroke-width="6.48"/>
<circle cx="2105.434073" cy="1950.413623" r="13.068000000000003" fill="none" stroke="black" stroke-width="6.48"/>
<path d="m 2082.986726,1882.666876 a 74.8440004285373,74.8440004285373 0 1 1 0.40204799999992247,139.6090039999999" fill="none" stroke="black" stroke-width="6.48"/>
<path d="m 2080.224709,1859.379926 a 95.4359993186022,95.4359993186022 0 1 1 3.0749580000001515,184.46699599999988" fill="none" stroke="black" stroke-width="6.48"/>
<line x1="642.691908" y1="209.3224" x2="913.239108" y2="209.3224" stroke="black" stroke-width="6.48"/>
<line x1="913.239108" y1="209.3224" x2="913.239108" y2="341.2696" stroke="black" stroke-width="6.48"/>
<line x1="642.691908" y1="341.2696" x2="913.239108" y2="341.2696" stroke="black" stroke-width="6.48"/>
<line x1="642.691908" y1="209.3224" x2="642.691908" y2="341.2696" stroke="black" stroke-width="6.48"/>
<line x1="649.344708" y1="215.9752" x2="787.390308" y2="215.9752" stroke="black" stroke-width="6.48"/>
<line x1="787.390308" y1="215.9752" x2="787.390308" y2="334.0624" stroke="black" stroke-width="6.48"/>
<line x1="649.344708" y1="334.0624" x2="787.390308" y2="334.0624" stroke="black" stroke-width="6.48"/>
<line x1="649.344708" y1="215.9752" x2="649.344708" y2="334.0624" stroke="black" stroke-width="6.48"/>
<line x1="801.804708" y1="223.7368" x2="898.824708" y2="223.7368" stroke="black" stroke-width="6.48"/>
<line x1="801.804708" y1="244.2496" x2="898.824708" y2="244.2496" stroke="black" stroke-width="6.48"/>
<line x1="802.359108" y1="265.3168" x2="899.379108" y2="265.3168" stroke="black" stroke-width="6.48"/>
<line x1="802.359108" y1="285.8296" x2="899.379108" y2="285.8296" stroke="black" stroke-width="6.48"/>
<line x1="801.804708" y1="306.3424" x2="898.824708" y2="306.3424" stroke="black" stroke-width="6.48"/>
<line x1="801.804708" y1="326.8552" x2="898.824708" y2="326.8552" stroke="black" stroke-width="6.48"/>
<line x1="702.012708" y1="334.0624" x2="702.012708" y2="320.2024" stroke="black" stroke-width="6.48"/>
<line x1="702.012708" y1="320.2024" x2="736.385508" y2="320.2024" stroke="black" stroke-width="6.48"/>
<line x1="736.385508" y1="320.2024" x2="736.385508" y2="333.508" stroke="black" stroke-width="6.48"/>
<circle cx="771.867108" cy="230.944" r="8.316000000000003" fill="none" stroke="black" stroke-width="6.48"/>
<line x1="2044.889399" y1="955.822399" x2="2267.166564" y2="955.822399" stroke="black" stroke-width="6.48"/>
<line x1="2267.166564" y1="955.822399" x2="2267.166564" y2="1178.555051" stroke="black" stroke-width="6.48"/>
<line x1="2267.166564" y1="1178.555051" x2="2044.889399" y2="1178.555051" stroke="black" stroke-width="6.48"/>
<line x1="2044.889399" y1="1178.555051" x2="2044.889399" y2="955.822399" stroke="black" stroke-width="6.48"/>
<line x1="2044.433912" y1="955.366913" x2="2267.166564" y2="1178.555051" stroke="black" stroke-width="6.48"/>
<line x1="2044.889399" y1="1178.099564" x2="2266.711078" y2="955.822399" stroke="black" stroke-width="6.48"/>
<line x1="323.258818" y1="1375.374532" x2="323.258818" y2="949.841089" stroke="black" stroke-width="6.48"/>
<line x1="323.258818" y1="949.841089" x2="257.659344" y2="949.841089" stroke="black" stroke-width="6.48"/>
<line x1="257.659344" y1="949.841089" x2="257.659344" y2="1375.374532" stroke="black" stroke-width="6.48"/>
<line x1="257.659344" y1="1375.374532" x2="323.258818" y2="1375.374532" stroke="black" stroke-width="6.48"/>
<line x1="258.522494" y1="1335.669588" x2="322.395667" y2="1335.669588" stroke="black" stroke-width="6.48"/>
<line x1="258.522494" y1="990.409187" x2="324.985122" y2="990.409187" stroke="black" stroke-width="6.48"/>
<line x1="288.73278" y1="1336.532738" x2="288.73278" y2="991.272337" stroke="black" stroke-width="6.48"/>
<line x1="3874.406537" y1="1514.726719" x2="3874.406537" y2="1940.260162" stroke="black" stroke-width="6.48"/>
<line x1="3874.406537" y1="1940.260162" x2="3940.00601" y2="1940.260162" stroke="black" stroke-width="6.48"/>
<line x1="3940.00601" y1="1940.260162" x2="3940.00601" y2="1514.726719" stroke="black" stroke-width="6.48"/>
<line x1="3940.00601" y1="1514.726719" x2="3874.406537" y2="1514.726719" stroke="black" stroke-width="6.48"/>
<line x1="3939.14286" y1="1554.431663" x2="3875.269687" y2="1554.431663" stroke="black" stroke-width="6.48"/>
<line x1="3939.14286" y1="1899.692064" x2="3872.680232" y2="1899.692064" stroke="black" stroke-width="6.48"/>
<line x1="3908.932574" y1="1553.568512" x2="3908.932574" y2="1898.828914" stroke="black" stroke-width="6.48"/>
<line x1="5179.864709" y1="1757.990952" x2="5298.600434" y2="1815.902233" stroke="black" stroke-width="6.48"/>
<line x1="5298.600434" y1="1815.902233" x2="5292.351014" y2="1828.715443" stroke="black" stroke-width="6.48"/>
<line x1="5173.615292" y1="1770.804155" x2="5292.351014" y2="1828.715443" stroke="black" stroke-width="6.48"/>
<line x1="5179.864709" y1="1757.990952" x2="5173.615292" y2="1770.804155" stroke="black" stroke-width="6.48"/>
<line x1="5185.574284" y1="1776.636947" x2="5170.117133" y2="1803.992749" stroke="black" stroke-width="6.48"/>
<line x1="5280.392023" y1="1822.882651" x2="5267.935102" y2="1852.759177" stroke="black" stroke-width="6.48"/>
<line x1="4977.800158" y1="2172.284672" x2="5096.535887" y2="2230.195954" stroke="black" stroke-width="6.48"/>
<line x1="5096.535887" y1="2230.195954" x2="5102.368679" y2="2218.236962" stroke="black" stroke-width="6.48"/>
<line x1="4983.63295" y1="2160.325678" x2="5102.368679" y2="2218.236962" stroke="black" stroke-width="6.48"/>
<line x1="4977.800158" y1="2172.284672" x2="4983.63295" y2="2160.325678" stroke="black" stroke-width="6.48"/>
<line x1="4995.570985" y1="2164.033415" x2="5007.611279" y2="2135.011104" stroke="black" stroke-width="6.48"/>
<line x1="5090.388721" y1="2210.279116" x2="5107.116719" y2="2182.48573" stroke="black" stroke-width="6.48"/>
<line x1="5373.448585" y1="2035.341238" x2="5360.635379" y2="2029.091818" stroke="black" stroke-width="6.48"/>
<line x1="5360.635379" y1="2029.091818" x2="5302.724094" y2="2147.827543" stroke="black" stroke-width="6.48"/>
<line x1="5315.537304" y1="2154.076963" x2="5302.724094" y2="2147.827543" stroke="black" stroke-width="6.48"/>
<line x1="5373.448585" y1="2035.341238" x2="5315.537304" y2="2154.076963" stroke="black" stroke-width="6.48"/>
<line x1="5308.97351" y1="2135.014337" x2="5278.68036" y2="2123.41163" stroke="black" stroke-width="6.48"/>
<line x1="5354.802587" y1="2041.050812" x2="5326.592569" y2="2025.177034" stroke="black" stroke-width="6.48"/>
<line x1="4960.425704" y1="1832.839099" x2="4973.238914" y2="1839.088519" stroke="black" stroke-width="6.48"/>
<line x1="4973.238914" y1="1839.088519" x2="4915.32763" y2="1957.824248" stroke="black" stroke-width="6.48"/>
<line x1="4902.514423" y1="1951.574825" x2="4915.32763" y2="1957.824248" stroke="black" stroke-width="6.48"/>
<line x1="4960.425704" y1="1832.839099" x2="4902.514423" y2="1951.574825" stroke="black" stroke-width="6.48"/>
<line x1="4921.577046" y1="1945.011038" x2="4949.370436" y2="1961.739029" stroke="black" stroke-width="6.48"/>
<line x1="4967.406119" y1="1851.047514" x2="4997.282648" y2="1863.504439" stroke="black" stroke-width="6.48"/>
<circle cx="5137.981502" cy="1993.458031" r="191.98080000000002" fill="none" stroke="black" stroke-width="6.48"/>
<line x1="3197.350238" y1="1074.623724" x2="3406.715442" y2="1074.623724" stroke="black" stroke-width="6.48"/>
<line x1="3406.715442" y1="1074.623724" x2="3406.715442" y2="743.40932" stroke="black" stroke-width="6.48"/>
<line x1="3406.715442" y1="743.40932" x2="3197.350238" y2="743.40932" stroke="black" stroke-width="6.48"/>
<line x1="3197.350238" y1="743.40932" x2="3197.350238" y2="1074.623724" stroke="black" stroke-width="6.48"/>
<line x1="3196.677038" y1="802.65092" x2="3407.388638" y2="802.65092" stroke="black" stroke-width="6.48"/>
<line x1="3407.388638" y1="802.65092" x2="3198.023438" y2="852.467724" stroke="black" stroke-width="6.48"/>
<line x1="3198.023438" y1="852.467724" x2="3229.663842" y2="898.918524" stroke="black" stroke-width="6.48"/>
<line x1="3229.663842" y1="898.918524" x2="3407.388638" y2="801.977724" stroke="black" stroke-width="6.48"/>
<line x1="3181.032724" y1="1204.061058" x2="3403.309889" y2="1204.061058" stroke="black" stroke-width="6.48"/>
<line x1="3403.309889" y1="1204.061058" x2="3403.309889" y2="1426.79371" stroke="black" stroke-width="6.48"/>
<line x1="3403.309889" y1="1426.79371" x2="3181.032724" y2="1426.79371" stroke="black" stroke-width="6.48"/>
<line x1="3181.032724" y1="1426.79371" x2="3181.032724" y2="1204.061058" stroke="black" stroke-width="6.48"/>
<line x1="3180.577237" y1="1203.605572" x2="3403.309889" y2="1426.79371" stroke="black" stroke-width="6.48"/>
<line x1="3181.032724" y1="1426.338223" x2="3402.854402" y2="1204.061058" stroke="black" stroke-width="6.48"/>
<line x1="2804.16708" y1="1127.69402" x2="2804.16708" y2="1153.148746" stroke="black" stroke-width="6.48"/>
<line x1="2804.16708" y1="1153.148746" x2="2853.834836" y2="1153.148746" stroke="black" stroke-width="6.48"/>
<line x1="2853.834836" y1="1153.148746" x2="2853.834836" y2="1127.69402" stroke="black" stroke-width="6.48"/>
<line x1="2853.834836" y1="1127.69402" x2="2804.16708" y2="1127.69402" stroke="black" stroke-width="6.48"/>
<line x1="2853.834836" y1="1402.108373" x2="3101.55277" y2="1402.108373" stroke="black" stroke-width="6.48"/>
<line x1="2802.925386" y1="1402.729218" x2="2802.925386" y2="1428.183943" stroke="black" stroke-width="6.48"/>
<line x1="2802.925386" y1="1428.183943" x2="2852.593142" y2="1428.183943" stroke="black" stroke-width="6.48"/>
<line x1="2852.593142" y1="1428.183943" x2="2852.593142" y2="1402.729218" stroke="black" stroke-width="6.48"/>
<line x1="2852.593142" y1="1402.729218" x2="2802.925386" y2="1402.729218" stroke="black" stroke-width="6.48"/>
<path d="m 2851.972294,1153.148746 a 248.95962699999984,248.95962699999984 0 0 1 248.95962699999973,248.95962699999995" fill="none" stroke="black" stroke-width="6.48"/>
<line x1="3417.075349" y1="1900.049346" x2="3449.349259" y2="1670.408557" stroke="black" stroke-width="6.48"/>
<line x1="3449.349259" y1="1670.408557" x2="3679.460622" y2="1702.748603" stroke="black" stroke-width="6.48"/>
<line x1="3679.460622" y1="1702.748603" x2="3647.186719" y2="1932.389392" stroke="black" stroke-width="6.48"/>
<line x1="3647.186719" y1="1932.389392" x2="3417.075349" y2="1900.049346" stroke="black" stroke-width="6.48"/>
<line x1="3416.53864" y1="1900.453788" x2="3679.460622" y2="1702.748603" stroke="black" stroke-width="6.48"/>
<line x1="3646.716138" y1="1932.323256" x2="3449.283124" y2="1670.879131" stroke="black" stroke-width="6.48"/>
<line x1="3079.021345" y1="1589.315879" x2="3065.967511" y2="1617.309914" stroke="black" stroke-width="6.48"/>
<line x1="3065.967511" y1="1617.309914" x2="3255.896275" y2="1705.875149" stroke="black" stroke-width="6.48"/>
<line x1="3255.896275" y1="1705.875149" x2="3268.950106" y2="1677.881113" stroke="black" stroke-width="6.48"/>
<line x1="3268.950106" y1="1677.881113" x2="3079.021345" y2="1589.315879" stroke="black" stroke-width="6.48"/>
<line x1="2992.866048" y1="1774.076508" x2="2979.812214" y2="1802.07054" stroke="black" stroke-width="6.48"/>
<line x1="2979.812214" y1="1802.07054" x2="3169.740974" y2="1890.635778" stroke="black" stroke-width="6.48"/>
<line x1="3169.740974" y1="1890.635778" x2="3182.794808" y2="1862.641742" stroke="black" stroke-width="6.48"/>
<line x1="3182.794808" y1="1862.641742" x2="2992.866048" y2="1774.076508" stroke="black" stroke-width="6.48"/>
<line x1="3066.168341" y1="1616.879236" x2="2992.866048" y2="1774.076508" stroke="black" stroke-width="6.48"/>
<line x1="3255.436573" y1="1704.612139" x2="3267.877457" y2="1739.775629" stroke="black" stroke-width="6.48"/>
<line x1="3216.666265" y1="1849.598377" x2="3181.732628" y2="1862.670766" stroke="black" stroke-width="6.48"/>
<line x1="3268.680768" y1="1738.052917" x2="3215.86295" y2="1851.321089" stroke="black" stroke-width="6.48"/>
<line x1="3106.451192" y1="1636.187764" x2="3033.1489" y2="1793.38504" stroke="black" stroke-width="6.48"/>
<line x1="1123.549106" y1="1569.456936" x2="1283.328274" y2="1210.587048" stroke="black" stroke-width="6.48"/>
<line x1="1283.328274" y1="1210.587048" x2="1114.746253" y2="1135.5295" stroke="black" stroke-width="6.48"/>
<line x1="1114.746253" y1="1135.5295" x2="954.967082" y2="1494.399384" stroke="black" stroke-width="6.48"/>
<line x1="954.967082" y1="1494.399384" x2="1123.549106" y2="1569.456936" stroke="black" stroke-width="6.48"/>
<line x1="1019.716301" y1="1348.97026" x2="945.916448" y2="1316.112444" stroke="black" stroke-width="6.48"/>
<line x1="945.916448" y1="1316.112444" x2="914.025038" y2="1387.741716" stroke="black" stroke-width="6.48"/>
<line x1="914.025038" y1="1387.741716" x2="987.824898" y2="1420.599532" stroke="black" stroke-width="6.48"/>
<line x1="930.264793" y1="1394.105166" x2="961.834064" y2="1323.199422" stroke="black" stroke-width="6.48"/>
<line x1="1230.930302" y1="1528.837031" x2="1262.821712" y2="1457.207759" stroke="black" stroke-width="6.48"/>
<line x1="1262.821712" y1="1457.207759" x2="1188.298325" y2="1424.027812" stroke="black" stroke-width="6.48"/>
<line x1="1156.406922" y1="1495.65708" x2="1230.930302" y2="1528.837031" stroke="black" stroke-width="6.48"/>
<line x1="1215.334825" y1="1521.026525" x2="1246.904096" y2="1450.120781" stroke="black" stroke-width="6.48"/>
<line x1="1081.244167" y1="1210.776408" x2="1007.444315" y2="1177.918596" stroke="black" stroke-width="6.48"/>
<line x1="1007.444315" y1="1177.918596" x2="975.552905" y2="1249.547868" stroke="black" stroke-width="6.48"/>
<line x1="975.552905" y1="1249.547868" x2="1049.352761" y2="1282.40568" stroke="black" stroke-width="6.48"/>
<line x1="991.470521" y1="1256.634846" x2="1023.361931" y2="1185.005574" stroke="black" stroke-width="6.48"/>
<line x1="1292.458169" y1="1390.643179" x2="1324.349579" y2="1319.013907" stroke="black" stroke-width="6.48"/>
<line x1="1324.349579" y1="1319.013907" x2="1249.826191" y2="1285.833964" stroke="black" stroke-width="6.48"/>
<line x1="1217.934788" y1="1357.463236" x2="1292.458169" y2="1390.643179" stroke="black" stroke-width="6.48"/>
<line x1="1276.540553" y1="1383.556201" x2="1308.431963" y2="1311.926929" stroke="black" stroke-width="6.48"/>
<line x1="2908.122494" y1="1998.098226" x2="2836.917349" y2="2174.337364" stroke="black" stroke-width="6.48"/>
<line x1="2836.917349" y1="2174.337364" x2="3266.940845" y2="2348.077914" stroke="black" stroke-width="6.48"/>
<line x1="3266.940845" y1="2348.077914" x2="3338.14599" y2="2171.838776" stroke="black" stroke-width="6.48"/>
<line x1="3338.14599" y1="2171.838776" x2="3316.1161" y2="2162.938133" stroke="black" stroke-width="6.48"/>
<line x1="3316.1161" y1="2162.938133" x2="3253.455572" y2="2318.028577" stroke="black" stroke-width="6.48"/>
<line x1="3253.455572" y1="2318.028577" x2="2868.373055" y2="2162.445336" stroke="black" stroke-width="6.48"/>
<line x1="2868.373055" y1="2162.445336" x2="2931.033582" y2="2007.354895" stroke="black" stroke-width="6.48"/>
<line x1="2931.033582" y1="2007.354895" x2="2908.122494" y2="1998.098226" stroke="black" stroke-width="6.48"/>
<line x1="2928.897428" y1="2012.642068" x2="3313.979946" y2="2168.225309" stroke="black" stroke-width="6.48"/>
<line x1="3121.354112" y1="2089.37448" x2="3060.829742" y2="2239.177748" stroke="black" stroke-width="6.48"/>
<line x1="925.930696" y1="1850.068458" x2="935.475606" y2="1879.444696" stroke="black" stroke-width="6.48"/>
<line x1="935.475606" y1="1879.444696" x2="1134.782071" y2="1814.686153" stroke="black" stroke-width="6.48"/>
<line x1="1134.782071" y1="1814.686153" x2="1125.237161" y2="1785.309916" stroke="black" stroke-width="6.48"/>
<line x1="1125.237161" y1="1785.309916" x2="925.930696" y2="1850.068458" stroke="black" stroke-width="6.48"/>
<line x1="988.927103" y1="2043.951617" x2="998.472013" y2="2073.327851" stroke="black" stroke-width="6.48"/>
<line x1="998.472013" y1="2073.327851" x2="1197.778471" y2="2008.569312" stroke="black" stroke-width="6.48"/>
<line x1="1197.778471" y1="2008.569312" x2="1188.233564" y2="1979.193071" stroke="black" stroke-width="6.48"/>
<line x1="1188.233564" y1="1979.193071" x2="988.927103" y2="2043.951617" stroke="black" stroke-width="6.48"/>
<line x1="935.328766" y1="1878.992752" x2="988.927103" y2="2043.951617" stroke="black" stroke-width="6.48"/>
<line x1="1133.584495" y1="1814.075953" x2="1166.664618" y2="1831.308253" stroke="black" stroke-width="6.48"/>
<line x1="1204.110032" y1="1946.553487" x2="1187.476524" y2="1979.938706" stroke="black" stroke-width="6.48"/>
<line x1="1166.077242" y1="1829.500484" x2="1204.697412" y2="1948.361256" stroke="black" stroke-width="6.48"/>
<line x1="977.958166" y1="1865.641284" x2="1031.556503" y2="2030.600146" stroke="black" stroke-width="6.48"/>
<line x1="2316.103236" y1="2046.474659" x2="2546.730472" y2="2070.714614" stroke="black" stroke-width="6.48"/>
<line x1="2546.730472" y1="2070.714614" x2="2522.440843" y2="2301.814447" stroke="black" stroke-width="6.48"/>
<line x1="2522.440843" y1="2301.814447" x2="2291.813608" y2="2277.574488" stroke="black" stroke-width="6.48"/>
<line x1="2291.813608" y1="2277.574488" x2="2316.103236" y2="2046.474659" stroke="black" stroke-width="6.48"/>
<line x1="2315.680312" y1="2045.952389" x2="2522.440843" y2="2301.814447" stroke="black" stroke-width="6.48"/>
<line x1="2291.86328" y1="2277.101891" x2="2546.257874" y2="2070.664942" stroke="black" stroke-width="6.48"/>
<line x1="5824.535533" y1="1622.030656" x2="5823.45756" y2="1652.899842" stroke="black" stroke-width="6.48"/>
<line x1="5823.45756" y1="1652.899842" x2="6032.893097" y2="1660.21349" stroke="black" stroke-width="6.48"/>
<line x1="6032.893097" y1="1660.21349" x2="6033.971074" y2="1629.344308" stroke="black" stroke-width="6.48"/>
<line x1="6033.971074" y1="1629.344308" x2="5824.535533" y2="1622.030656" stroke="black" stroke-width="6.48"/>
<line x1="5817.420896" y1="1825.76727" x2="5816.34292" y2="1856.636456" stroke="black" stroke-width="6.48"/>
<line x1="5816.34292" y1="1856.636456" x2="6025.778456" y2="1863.950105" stroke="black" stroke-width="6.48"/>
<line x1="6025.778456" y1="1863.950105" x2="6026.856433" y2="1833.080918" stroke="black" stroke-width="6.48"/>
<line x1="6026.856433" y1="1833.080918" x2="5817.420896" y2="1825.76727" stroke="black" stroke-width="6.48"/>
<line x1="5823.474142" y1="1652.42493" x2="5817.420896" y2="1825.76727" stroke="black" stroke-width="6.48"/>
<line x1="6031.976443" y1="1659.2305" x2="6057.167807" y2="1686.737628" stroke="black" stroke-width="6.48"/>
<line x1="6052.938826" y1="1807.83981" x2="6025.890031" y2="1833.52266" stroke="black" stroke-width="6.48"/>
<line x1="6057.234144" y1="1684.837984" x2="6052.872488" y2="1809.739447" stroke="black" stroke-width="6.48"/>
<line x1="5868.099148" y1="1654.458761" x2="5862.045899" y2="1827.801101" stroke="black" stroke-width="6.48"/>
<line x1="3803.347415" y1="1155.343367" x2="3808.179364" y2="1124.835649" stroke="black" stroke-width="6.48"/>
<line x1="3808.179364" y1="1124.835649" x2="3601.196233" y2="1092.052742" stroke="black" stroke-width="6.48"/>
<line x1="3601.196233" y1="1092.052742" x2="3596.364284" y2="1122.56046" stroke="black" stroke-width="6.48"/>
<line x1="3596.364284" y1="1122.56046" x2="3803.347415" y2="1155.343367" stroke="black" stroke-width="6.48"/>
<line x1="3835.238267" y1="953.992433" x2="3840.070216" y2="923.484715" stroke="black" stroke-width="6.48"/>
<line x1="3840.070216" y1="923.484715" x2="3633.087089" y2="890.701805" stroke="black" stroke-width="6.48"/>
<line x1="3633.087089" y1="890.701805" x2="3628.25514" y2="921.209526" stroke="black" stroke-width="6.48"/>
<line x1="3628.25514" y1="921.209526" x2="3835.238267" y2="953.992433" stroke="black" stroke-width="6.48"/>
<line x1="3808.105024" y1="1125.305003" x2="3835.238267" y2="953.992433" stroke="black" stroke-width="6.48"/>
<line x1="3601.986257" y1="1093.140119" x2="3580.334942" y2="1062.767977" stroke="black" stroke-width="6.48"/>
<line x1="3599.291045" y1="943.08385" x2="3629.268176" y2="920.888849" stroke="black" stroke-width="6.48"/>
<line x1="3580.037593" y1="1064.645374" x2="3599.588398" y2="941.206453" stroke="black" stroke-width="6.48"/>
<line x1="3764.060507" y1="1117.847909" x2="3791.193754" y2="946.535342" stroke="black" stroke-width="6.48"/>
<line x1="936.24836" y1="211.194727" x2="1329.492233" y2="211.194727" stroke="black" stroke-width="6.48"/>
<line x1="1333.447639" y1="210.198445" x2="1333.447639" y2="346.26722" stroke="black" stroke-width="6.48"/>
<line x1="936.71275" y1="347.418727" x2="1333.75298" y2="347.418727" stroke="black" stroke-width="6.48"/>
<line x1="937.447639" y1="211.889477" x2="937.447639" y2="347.153533" stroke="black" stroke-width="6.48"/>
<line x1="947.743639" y1="222.282727" x2="1071.295639" y2="222.282727" stroke="black" stroke-width="6.48"/>
<line x1="1071.295639" y1="222.282727" x2="1071.295639" y2="336.330727" stroke="black" stroke-width="6.48"/>
<line x1="947.743639" y1="336.330727" x2="1071.295639" y2="336.330727" stroke="black" stroke-width="6.48"/>
<line x1="947.743639" y1="222.282727" x2="947.743639" y2="336.330727" stroke="black" stroke-width="6.48"/>
<line x1="1090.303639" y1="229.410727" x2="1177.423639" y2="229.410727" stroke="black" stroke-width="6.48"/>
<line x1="1090.303639" y1="249.210727" x2="1177.423639" y2="249.210727" stroke="black" stroke-width="6.48"/>
<line x1="1091.095639" y1="269.802727" x2="1177.423639" y2="269.802727" stroke="black" stroke-width="6.48"/>
<line x1="1091.095639" y1="289.602727" x2="1177.423639" y2="289.602727" stroke="black" stroke-width="6.48"/>
<line x1="1090.303639" y1="309.402727" x2="1177.423639" y2="309.402727" stroke="black" stroke-width="6.48"/>
<line x1="1090.303639" y1="329.202727" x2="1177.423639" y2="329.202727" stroke="black" stroke-width="6.48"/>
<line x1="995.263639" y1="335.538727" x2="995.263639" y2="322.074727" stroke="black" stroke-width="6.48"/>
<line x1="995.263639" y1="322.074727" x2="1025.359639" y2="322.074727" stroke="black" stroke-width="6.48"/>
<line x1="1025.359639" y1="322.074727" x2="1025.359639" y2="334.746727" stroke="black" stroke-width="6.48"/>
<line x1="1198.015639" y1="222.282727" x2="1321.567639" y2="222.282727" stroke="black" stroke-width="6.48"/>
<line x1="1321.567639" y1="222.282727" x2="1321.567639" y2="336.330727" stroke="black" stroke-width="6.48"/>
<line x1="1198.015639" y1="336.330727" x2="1321.567639" y2="336.330727" stroke="black" stroke-width="6.48"/>
<line x1="1198.015639" y1="222.282727" x2="1198.015639" y2="336.330727" stroke="black" stroke-width="6.48"/>
<line x1="1245.535639" y1="336.330727" x2="1245.535639" y2="322.866727" stroke="black" stroke-width="6.48"/>
<line x1="1245.535639" y1="322.866727" x2="1275.631639" y2="322.866727" stroke="black" stroke-width="6.48"/>
<line x1="1275.631639" y1="322.866727" x2="1275.631639" y2="335.538727" stroke="black" stroke-width="6.48"/>
<circle cx="1057.039639" cy="236.538727" r="7.128000000000001" fill="none" stroke="black" stroke-width="6.48"/>
<circle cx="1307.311639" cy="237.330727" r="7.128000000000001" fill="none" stroke="black" stroke-width="6.48"/>
<line x1="6238.27012" y1="2175.18682" x2="6243.633767" y2="2205.60556" stroke="black" stroke-width="6.48"/>
<line x1="6243.633767" y1="2205.60556" x2="6450.013228" y2="2169.215294" stroke="black" stroke-width="6.48"/>
<line x1="6450.013228" y1="2169.215294" x2="6444.649584" y2="2138.796551" stroke="black" stroke-width="6.48"/>
<line x1="6444.649584" y1="2138.796551" x2="6238.27012" y2="2175.18682" stroke="black" stroke-width="6.48"/>
<line x1="6273.670176" y1="2375.950514" x2="6279.03382" y2="2406.369258" stroke="black" stroke-width="6.48"/>
<line x1="6279.03382" y1="2406.369258" x2="6485.413284" y2="2369.978989" stroke="black" stroke-width="6.48"/>
<line x1="6485.413284" y1="2369.978989" x2="6480.04964" y2="2339.560246" stroke="black" stroke-width="6.48"/>
<line x1="6480.04964" y1="2339.560246" x2="6273.670176" y2="2375.950514" stroke="black" stroke-width="6.48"/>
<line x1="6243.551248" y1="2205.137578" x2="6273.670176" y2="2375.950514" stroke="black" stroke-width="6.48"/>
<line x1="6448.912232" y1="2168.444369" x2="6479.272156" y2="2190.112816" stroke="black" stroke-width="6.48"/>
<line x1="6500.314148" y1="2309.44788" x2="6479.196196" y2="2340.193266" stroke="black" stroke-width="6.48"/>
<line x1="6478.942082" y1="2188.240891" x2="6500.644218" y2="2311.319804" stroke="black" stroke-width="6.48"/>
<line x1="6287.623945" y1="2197.848906" x2="6317.742874" y2="2368.661843" stroke="black" stroke-width="6.48"/>
</g>
</svg>
