<?xml version="1.0"?>
<svg xmlns:xlink="http://www.w3.org/1999/xlink" width="6775.2" height="2858.4">
<image x="0" y="0" width="6775.2" height="2858.4" xlink:href="groundfilled-01.png"/>
<g style="stroke-linecap:round">
<line x1="1285.950406" y1="795.178109" x2="1311.346069" y2="795.178109" stroke="black" stroke-width="6.48"/>
<line x1="1311.346069" y1="795.178109" x2="1311.346069" y2="745.625592" stroke="black" stroke-width="6.48"/>
<line x1="1311.346069" y1="745.625592" x2="1285.950406" y2="745.625592" stroke="black" stroke-width="6.48"/>
<line x1="1285.950406" y1="745.625592" x2="1285.950406" y2="795.178109" stroke="black" stroke-width="6.48"/>
<line x1="1559.728062" y1="745.625592" x2="1559.728062" y2="498.48241" stroke="black" stroke-width="6.48"/>
<line x1="1560.347471" y1="796.416923" x2="1585.743134" y2="796.416923" stroke="black" stroke-width="6.48"/>
<line x1="1585.743134" y1="796.416923" x2="1585.743134" y2="746.864406" stroke="black" stroke-width="6.48"/>
<line x1="1585.743134" y1="746.864406" x2="1560.347471" y2="746.864406" stroke="black" stroke-width="6.48"/>
<line x1="1560.347471" y1="746.864406" x2="1560.347471" y2="796.416923" stroke="black" stroke-width="6.48"/>
<path d="m 1311.346069,747.483811 a 248.38199299999997,248.38199299999997 0 0 1 248.38199299999997,-248.38199299999997" fill="none" stroke="black" stroke-width="6.48"/>
<line x1="320.532556" y1="771.34176" x2="320.532556" y2="366.736194" stroke="black" stroke-width="6.48"/>
<line x1="320.532556" y1="366.736194" x2="258.159283" y2="366.736194" stroke="black" stroke-width="6.48"/>
<line x1="258.159283" y1="366.736194" x2="258.159283" y2="771.34176" stroke="black" stroke-width="6.48"/>
<line x1="258.159283" y1="771.34176" x2="320.532556" y2="771.34176" stroke="black" stroke-width="6.48"/>
<line x1="258.979986" y1="733.589518" x2="319.711856" y2="733.589518" stroke="black" stroke-width="6.48"/>
<line x1="258.979986" y1="405.309139" x2="322.173958" y2="405.309139" stroke="black" stroke-width="6.48"/>
<line x1="287.704519" y1="734.410217" x2="287.704519" y2="406.129838" stroke="black" stroke-width="6.48"/>
<line x1="3901.945176" y1="1169.331426" x2="3901.945176" y2="1428.837066" stroke="black" stroke-width="6.48"/>
<line x1="3901.945176" y1="1428.837066" x2="3941.9501" y2="1428.837066" stroke="black" stroke-width="6.48"/>
<line x1="3941.9501" y1="1428.837066" x2="3941.9501" y2="1169.331426" stroke="black" stroke-width="6.48"/>
<line x1="3941.9501" y1="1169.331426" x2="3901.945176" y2="1169.331426" stroke="black" stroke-width="6.48"/>
<line x1="3941.423719" y1="1193.544936" x2="3902.471557" y2="1193.544936" stroke="black" stroke-width="6.48"/>
<line x1="3941.423719" y1="1404.097178" x2="3900.892414" y2="1404.097178" stroke="black" stroke-width="6.48"/>
<line x1="3923.000399" y1="1193.018555" x2="3923.000399" y2="1403.570797" stroke="black" stroke-width="6.48"/>
<line x1="334.430687" y1="1882.943946" x2="334.430687" y2="1457.437414" stroke="black" stroke-width="6.48"/>
<line x1="334.430687" y1="1457.437414" x2="258.323828" y2="1457.437414" stroke="black" stroke-width="6.48"/>
<line x1="258.323828" y1="1457.437414" x2="258.323828" y2="1882.943946" stroke="black" stroke-width="6.48"/>
<line x1="258.323828" y1="1882.943946" x2="334.430687" y2="1882.943946" stroke="black" stroke-width="6.48"/>
<line x1="334.430687" y1="1863.05238" x2="360.376207" y2="1863.05238" stroke="black" stroke-width="6.48"/>
<line x1="360.376207" y1="1863.05238" x2="360.376207" y2="1478.193829" stroke="black" stroke-width="6.48"/>
<line x1="334.430687" y1="1478.193829" x2="360.376207" y2="1478.193829" stroke="black" stroke-width="6.48"/>
<line x1="2747.905531" y1="904.670665" x2="2721.68303" y2="904.670665" stroke="black" stroke-width="6.48"/>
<line x1="2721.68303" y1="904.670665" x2="2721.68303" y2="955.836522" stroke="black" stroke-width="6.48"/>
<line x1="2721.68303" y1="955.836522" x2="2747.905531" y2="955.836522" stroke="black" stroke-width="6.48"/>
<line x1="2747.905531" y1="955.836522" x2="2747.905531" y2="904.670665" stroke="black" stroke-width="6.48"/>
<line x1="2465.214181" y1="955.836522" x2="2465.214181" y2="1211.026223" stroke="black" stroke-width="6.48"/>
<line x1="2464.574609" y1="903.39152" x2="2438.352108" y2="903.39152" stroke="black" stroke-width="6.48"/>
<line x1="2438.352108" y1="903.39152" x2="2438.352108" y2="954.557374" stroke="black" stroke-width="6.48"/>
<line x1="2438.352108" y1="954.557374" x2="2464.574609" y2="954.557374" stroke="black" stroke-width="6.48"/>
<line x1="2464.574609" y1="954.557374" x2="2464.574609" y2="903.39152" stroke="black" stroke-width="6.48"/>
<path d="m 2721.68303,953.917801 a 256.4688490000001,256.4688490000001 0 0 1 -256.4688490000003,256.46884899999986" fill="none" stroke="black" stroke-width="6.48"/>
<line x1="2420.532389" y1="1427.858834" x2="2395.136725" y2="1427.858834" stroke="black" stroke-width="6.48"/>
<line x1="2395.136725" y1="1427.858834" x2="2395.136725" y2="1477.411351" stroke="black" stroke-width="6.48"/>
<line x1="2395.136725" y1="1477.411351" x2="2420.532389" y2="1477.411351" stroke="black" stroke-width="6.48"/>
<line x1="2420.532389" y1="1477.411351" x2="2420.532389" y2="1427.858834" stroke="black" stroke-width="6.48"/>
<line x1="2146.754732" y1="1477.411351" x2="2146.754732" y2="1724.554534" stroke="black" stroke-width="6.48"/>
<line x1="2146.135324" y1="1426.62002" x2="2120.73966" y2="1426.62002" stroke="black" stroke-width="6.48"/>
<line x1="2120.73966" y1="1426.62002" x2="2120.73966" y2="1476.172537" stroke="black" stroke-width="6.48"/>
<line x1="2120.73966" y1="1476.172537" x2="2146.135324" y2="1476.172537" stroke="black" stroke-width="6.48"/>
<line x1="2146.135324" y1="1476.172537" x2="2146.135324" y2="1426.62002" stroke="black" stroke-width="6.48"/>
<path d="m 2395.136725,1475.553132 a 248.38199299999997,248.38199299999997 0 0 1 -248.38199299999997,248.38199299999997" fill="none" stroke="black" stroke-width="6.48"/>
<line x1="754.180772" y1="541.339351" x2="986.078372" y2="541.339351" stroke="black" stroke-width="6.48"/>
<line x1="986.078372" y1="541.339351" x2="986.078372" y2="773.712151" stroke="black" stroke-width="6.48"/>
<line x1="986.078372" y1="773.712151" x2="754.180772" y2="773.712151" stroke="black" stroke-width="6.48"/>
<line x1="754.180772" y1="773.712151" x2="754.180772" y2="541.339351" stroke="black" stroke-width="6.48"/>
<line x1="753.705572" y1="540.864151" x2="986.078372" y2="773.712151" stroke="black" stroke-width="6.48"/>
<line x1="754.180772" y1="773.236951" x2="985.603172" y2="541.339351" stroke="black" stroke-width="6.48"/>
<line x1="2032.924367" y1="1707.955981" x2="2032.924367" y2="1498.867981" stroke="black" stroke-width="6.48"/>
<line x1="2032.924367" y1="1498.867981" x2="1801.026767" y2="1498.867981" stroke="black" stroke-width="6.48"/>
<line x1="1801.026767" y1="1498.867981" x2="1801.026767" y2="1707.955981" stroke="black" stroke-width="6.48"/>
<line x1="1801.026767" y1="1707.955981" x2="2032.924367" y2="1707.955981" stroke="black" stroke-width="6.48"/>
<line x1="2000.610767" y1="1707.955981" x2="2000.610767" y2="1498.867981" stroke="black" stroke-width="6.48"/>
<line x1="1485.415969" y1="209.267824" x2="1707.693134" y2="209.267824" stroke="black" stroke-width="6.48"/>
<line x1="1707.693134" y1="209.267824" x2="1707.693134" y2="432.000475" stroke="black" stroke-width="6.48"/>
<line x1="1707.693134" y1="432.000475" x2="1485.415969" y2="432.000475" stroke="black" stroke-width="6.48"/>
<line x1="1485.415969" y1="432.000475" x2="1485.415969" y2="209.267824" stroke="black" stroke-width="6.48"/>
<line x1="1484.960483" y1="208.812337" x2="1707.693134" y2="432.000475" stroke="black" stroke-width="6.48"/>
<line x1="1485.415969" y1="431.544989" x2="1707.237648" y2="209.267824" stroke="black" stroke-width="6.48"/>
<line x1="2761.020558" y1="2194.614338" x2="2761.020558" y2="1803.366338" stroke="black" stroke-width="6.48"/>
<line x1="2761.020558" y1="1803.366338" x2="2586.780558" y2="1803.366338" stroke="black" stroke-width="6.48"/>
<line x1="2586.780558" y1="1803.366338" x2="2586.780558" y2="2194.614338" stroke="black" stroke-width="6.48"/>
<line x1="2586.780558" y1="2194.614338" x2="2761.020558" y2="2194.614338" stroke="black" stroke-width="6.48"/>
<line x1="2613.708558" y1="1878.606338" x2="2613.708558" y2="2162.934338" stroke="black" stroke-width="6.48"/>
<line x1="2613.708558" y1="2162.934338" x2="2731.716558" y2="2162.934338" stroke="black" stroke-width="6.48"/>
<line x1="2731.716558" y1="2162.934338" x2="2731.716558" y2="1873.062338" stroke="black" stroke-width="6.48"/>
<path d="m 2613.453134,1879.416911 a 63.3599990854681,63.3599990854681 0 0 1 119.3743300000001,-4.293814000000111" fill="none" stroke="black" stroke-width="6.48"/>
<line x1="2105.397058" y1="1854.669748" x2="2105.397058" y2="2038.413748" stroke="black" stroke-width="6.48"/>
<line x1="2105.397058" y1="2038.413748" x2="2056.293058" y2="2038.413748" stroke="black" stroke-width="6.48"/>
<line x1="2056.293058" y1="1854.669748" x2="2056.293058" y2="2038.413748" stroke="black" stroke-width="6.48"/>
<line x1="2105.397058" y1="1854.669748" x2="2056.293058" y2="1854.669748" stroke="black" stroke-width="6.48"/>
<line x1="2133.117058" y1="1896.249748" x2="2105.397058" y2="1896.249748" stroke="black" stroke-width="6.48"/>
<line x1="2105.397058" y1="1995.249748" x2="2134.701058" y2="1995.249748" stroke="black" stroke-width="6.48"/>
<circle cx="2178.261058" cy="1944.957748" r="66.52800000000002" fill="none" stroke="black" stroke-width="6.48"/>
<circle cx="2178.261058" cy="1944.957748" r="57.02400000000001" fill="none" stroke="black" stroke-width="6.48"/>
<line x1="538.51676" y1="210.222277" x2="931.760633" y2="210.222277" stroke="black" stroke-width="6.48"/>
<line x1="935.716039" y1="209.225995" x2="935.716039" y2="345.29477" stroke="black" stroke-width="6.48"/>
<line x1="538.98115" y1="346.446277" x2="936.02138" y2="346.446277" stroke="black" stroke-width="6.48"/>
<line x1="539.716039" y1="210.917027" x2="539.716039" y2="346.181083" stroke="black" stroke-width="6.48"/>
<line x1="550.012039" y1="221.310277" x2="673.564039" y2="221.310277" stroke="black" stroke-width="6.48"/>
<line x1="673.564039" y1="221.310277" x2="673.564039" y2="335.358277" stroke="black" stroke-width="6.48"/>
<line x1="550.012039" y1="335.358277" x2="673.564039" y2="335.358277" stroke="black" stroke-width="6.48"/>
<line x1="550.012039" y1="221.310277" x2="550.012039" y2="335.358277" stroke="black" stroke-width="6.48"/>
<line x1="692.572039" y1="228.438277" x2="779.692039" y2="228.438277" stroke="black" stroke-width="6.48"/>
<line x1="692.572039" y1="248.238277" x2="779.692039" y2="248.238277" stroke="black" stroke-width="6.48"/>
<line x1="693.364039" y1="268.830277" x2="779.692039" y2="268.830277" stroke="black" stroke-width="6.48"/>
<line x1="693.364039" y1="288.630277" x2="779.692039" y2="288.630277" stroke="black" stroke-width="6.48"/>
<line x1="692.572039" y1="308.430277" x2="779.692039" y2="308.430277" stroke="black" stroke-width="6.48"/>
<line x1="692.572039" y1="328.230277" x2="779.692039" y2="328.230277" stroke="black" stroke-width="6.48"/>
<line x1="597.532039" y1="334.566277" x2="597.532039" y2="321.102277" stroke="black" stroke-width="6.48"/>
<line x1="597.532039" y1="321.102277" x2="627.628039" y2="321.102277" stroke="black" stroke-width="6.48"/>
<line x1="627.628039" y1="321.102277" x2="627.628039" y2="333.774277" stroke="black" stroke-width="6.48"/>
<line x1="800.284039" y1="221.310277" x2="923.836039" y2="221.310277" stroke="black" stroke-width="6.48"/>
<line x1="923.836039" y1="221.310277" x2="923.836039" y2="335.358277" stroke="black" stroke-width="6.48"/>
<line x1="800.284039" y1="335.358277" x2="923.836039" y2="335.358277" stroke="black" stroke-width="6.48"/>
<line x1="800.284039" y1="221.310277" x2="800.284039" y2="335.358277" stroke="black" stroke-width="6.48"/>
<line x1="847.804039" y1="335.358277" x2="847.804039" y2="321.894277" stroke="black" stroke-width="6.48"/>
<line x1="847.804039" y1="321.894277" x2="877.900039" y2="321.894277" stroke="black" stroke-width="6.48"/>
<line x1="877.900039" y1="321.894277" x2="877.900039" y2="334.566277" stroke="black" stroke-width="6.48"/>
<circle cx="659.308039" cy="235.566277" r="7.128000000000001" fill="none" stroke="black" stroke-width="6.48"/>
<circle cx="909.580039" cy="236.358277" r="7.128000000000001" fill="none" stroke="black" stroke-width="6.48"/>
<line x1="1088.623037" y1="1124.751398" x2="1220.004943" y2="1138.560196" stroke="black" stroke-width="6.48"/>
<line x1="1220.004943" y1="1138.560196" x2="1218.514788" y2="1152.738101" stroke="black" stroke-width="6.48"/>
<line x1="1087.132874" y1="1138.929304" x2="1218.514788" y2="1152.738101" stroke="black" stroke-width="6.48"/>
<line x1="1088.623037" y1="1124.751398" x2="1087.132874" y2="1138.929304" stroke="black" stroke-width="6.48"/>
<line x1="1100.365589" y1="1140.32012" x2="1095.196853" y2="1171.312819" stroke="black" stroke-width="6.48"/>
<line x1="1205.282077" y1="1151.347288" x2="1203.794773" y2="1183.682556" stroke="black" stroke-width="6.48"/>
<line x1="1040.441263" y1="1583.170301" x2="1171.823177" y2="1596.979094" stroke="black" stroke-width="6.48"/>
<line x1="1171.823177" y1="1596.979094" x2="1173.213994" y2="1583.746387" stroke="black" stroke-width="6.48"/>
<line x1="1041.83208" y1="1569.93759" x2="1173.213994" y2="1583.746387" stroke="black" stroke-width="6.48"/>
<line x1="1040.441263" y1="1583.170301" x2="1041.83208" y2="1569.93759" stroke="black" stroke-width="6.48"/>
<line x1="1054.318284" y1="1569.338676" x2="1055.706242" y2="1537.948598" stroke="black" stroke-width="6.48"/>
<line x1="1159.234772" y1="1580.365843" x2="1165.448045" y2="1548.527292" stroke="black" stroke-width="6.48"/>
<line x1="1365.39176" y1="1319.165834" x2="1351.213855" y2="1317.675672" stroke="black" stroke-width="6.48"/>
<line x1="1351.213855" y1="1317.675672" x2="1337.405062" y2="1449.057589" stroke="black" stroke-width="6.48"/>
<line x1="1351.582967" y1="1450.547744" x2="1337.405062" y2="1449.057589" stroke="black" stroke-width="6.48"/>
<line x1="1365.39176" y1="1319.165834" x2="1351.582967" y2="1450.547744" stroke="black" stroke-width="6.48"/>
<line x1="1338.895217" y1="1434.879684" x2="1306.460603" y2="1434.337574" stroke="black" stroke-width="6.48"/>
<line x1="1349.823042" y1="1330.908386" x2="1317.885149" y2="1325.640308" stroke="black" stroke-width="6.48"/>
<line x1="908.017398" y1="1270.138216" x2="922.1953" y2="1271.628374" stroke="black" stroke-width="6.48"/>
<line x1="922.1953" y1="1271.628374" x2="908.386506" y2="1403.010284" stroke="black" stroke-width="6.48"/>
<line x1="894.208601" y1="1401.520129" x2="908.386506" y2="1403.010284" stroke="black" stroke-width="6.48"/>
<line x1="908.017398" y1="1270.138216" x2="894.208601" y2="1401.520129" stroke="black" stroke-width="6.48"/>
<line x1="909.876661" y1="1388.832379" x2="941.715212" y2="1395.045652" stroke="black" stroke-width="6.48"/>
<line x1="920.804486" y1="1284.861082" x2="953.139758" y2="1286.348386" stroke="black" stroke-width="6.48"/>
<circle cx="1129.800179" cy="1360.34298" r="191.98080000000002" fill="none" stroke="black" stroke-width="6.48"/>
<line x1="2044.889399" y1="955.822399" x2="2267.166564" y2="955.822399" stroke="black" stroke-width="6.48"/>
<line x1="2267.166564" y1="955.822399" x2="2267.166564" y2="1178.555051" stroke="black" stroke-width="6.48"/>
<line x1="2267.166564" y1="1178.555051" x2="2044.889399" y2="1178.555051" stroke="black" stroke-width="6.48"/>
<line x1="2044.889399" y1="1178.555051" x2="2044.889399" y2="955.822399" stroke="black" stroke-width="6.48"/>
<line x1="2044.433912" y1="955.366913" x2="2267.166564" y2="1178.555051" stroke="black" stroke-width="6.48"/>
<line x1="2044.889399" y1="1178.099564" x2="2266.711078" y2="955.822399" stroke="black" stroke-width="6.48"/>
<line x1="323.258818" y1="1375.374532" x2="323.258818" y2="949.841089" stroke="black" stroke-width="6.48"/>
<line x1="323.258818" y1="949.841089" x2="257.659344" y2="949.841089" stroke="black" stroke-width="6.48"/>
<line x1="257.659344" y1="949.841089" x2="257.659344" y2="1375.374532" stroke="black" stroke-width="6.48"/>
<line x1="257.659344" y1="1375.374532" x2="323.258818" y2="1375.374532" stroke="black" stroke-width="6.48"/>
<line x1="258.522494" y1="1335.669588" x2="322.395667" y2="1335.669588" stroke="black" stroke-width="6.48"/>
<line x1="258.522494" y1="990.409187" x2="324.985122" y2="990.409187" stroke="black" stroke-width="6.48"/>
<line x1="288.73278" y1="1336.532738" x2="288.73278" y2="991.272337" stroke="black" stroke-width="6.48"/>
<line x1="3874.406537" y1="1514.726719" x2="3874.406537" y2="1940.260162" stroke="black" stroke-width="6.48"/>
<line x1="3874.406537" y1="1940.260162" x2="3940.00601" y2="1940.260162" stroke="black" stroke-width="6.48"/>
<line x1="3940.00601" y1="1940.260162" x2="3940.00601" y2="1514.726719" stroke="black" stroke-width="6.48"/>
<line x1="3940.00601" y1="1514.726719" x2="3874.406537" y2="1514.726719" stroke="black" stroke-width="6.48"/>
<line x1="3939.14286" y1="1554.431663" x2="3875.269687" y2="1554.431663" stroke="black" stroke-width="6.48"/>
<line x1="3939.14286" y1="1899.692064" x2="3872.680232" y2="1899.692064" stroke="black" stroke-width="6.48"/>
<line x1="3908.932574" y1="1553.568512" x2="3908.932574" y2="1898.828914" stroke="black" stroke-width="6.48"/>
<line x1="4974.81179" y1="1323.639986" x2="4581.97979" y2="1323.639986" stroke="black" stroke-width="6.48"/>
<line x1="4581.97979" y1="1323.639986" x2="4581.97979" y2="1508.175986" stroke="black" stroke-width="6.48"/>
<line x1="4581.97979" y1="1508.175986" x2="4974.81179" y2="1508.175986" stroke="black" stroke-width="6.48"/>
<line x1="4974.81179" y1="1508.175986" x2="4974.81179" y2="1323.639986" stroke="black" stroke-width="6.48"/>
<line x1="4815.61979" y1="1508.175986" x2="4815.61979" y2="1588.959986" stroke="black" stroke-width="6.48"/>
<line x1="4815.61979" y1="1588.959986" x2="4894.02779" y2="1588.959986" stroke="black" stroke-width="6.48"/>
<line x1="4894.02779" y1="1588.959986" x2="4894.02779" y2="1508.175986" stroke="black" stroke-width="6.48"/>
<line x1="4893.23579" y1="1571.535986" x2="4815.61979" y2="1571.535986" stroke="black" stroke-width="6.48"/>
<line x1="4894.02779" y1="1242.063986" x2="4815.61979" y2="1242.063986" stroke="black" stroke-width="6.48"/>
<line x1="4815.61979" y1="1242.063986" x2="4815.61979" y2="1323.639986" stroke="black" stroke-width="6.48"/>
<line x1="4894.02779" y1="1323.639986" x2="4894.02779" y2="1242.063986" stroke="black" stroke-width="6.48"/>
<line x1="4893.23579" y1="1259.487986" x2="4815.61979" y2="1259.487986" stroke="black" stroke-width="6.48"/>
<line x1="4664.34779" y1="1508.175986" x2="4664.34779" y2="1588.959986" stroke="black" stroke-width="6.48"/>
<line x1="4664.34779" y1="1588.959986" x2="4742.75579" y2="1588.959986" stroke="black" stroke-width="6.48"/>
<line x1="4742.75579" y1="1588.959986" x2="4742.75579" y2="1508.175986" stroke="black" stroke-width="6.48"/>
<line x1="4742.75579" y1="1571.535986" x2="4664.34779" y2="1571.535986" stroke="black" stroke-width="6.48"/>
<line x1="4742.75579" y1="1242.063986" x2="4664.34779" y2="1242.063986" stroke="black" stroke-width="6.48"/>
<line x1="4664.34779" y1="1242.063986" x2="4664.34779" y2="1323.639986" stroke="black" stroke-width="6.48"/>
<line x1="4742.75579" y1="1323.639986" x2="4742.75579" y2="1242.063986" stroke="black" stroke-width="6.48"/>
<line x1="4742.75579" y1="1259.487986" x2="4664.34779" y2="1259.487986" stroke="black" stroke-width="6.48"/>
<line x1="3267.931684" y1="1074.856666" x2="3477.296887" y2="1074.856666" stroke="black" stroke-width="6.48"/>
<line x1="3477.296887" y1="1074.856666" x2="3477.296887" y2="743.642262" stroke="black" stroke-width="6.48"/>
<line x1="3477.296887" y1="743.642262" x2="3267.931684" y2="743.642262" stroke="black" stroke-width="6.48"/>
<line x1="3267.931684" y1="743.642262" x2="3267.931684" y2="1074.856666" stroke="black" stroke-width="6.48"/>
<line x1="3267.258484" y1="802.883862" x2="3477.970084" y2="802.883862" stroke="black" stroke-width="6.48"/>
<line x1="3477.970084" y1="802.883862" x2="3268.604884" y2="852.700666" stroke="black" stroke-width="6.48"/>
<line x1="3268.604884" y1="852.700666" x2="3300.245287" y2="899.151466" stroke="black" stroke-width="6.48"/>
<line x1="3300.245287" y1="899.151466" x2="3477.970084" y2="802.210666" stroke="black" stroke-width="6.48"/>
<line x1="3171.351665" y1="1204.100255" x2="3393.62883" y2="1204.100255" stroke="black" stroke-width="6.48"/>
<line x1="3393.62883" y1="1204.100255" x2="3393.62883" y2="1426.832906" stroke="black" stroke-width="6.48"/>
<line x1="3393.62883" y1="1426.832906" x2="3171.351665" y2="1426.832906" stroke="black" stroke-width="6.48"/>
<line x1="3171.351665" y1="1426.832906" x2="3171.351665" y2="1204.100255" stroke="black" stroke-width="6.48"/>
<line x1="3170.896178" y1="1203.644768" x2="3393.62883" y2="1426.832906" stroke="black" stroke-width="6.48"/>
<line x1="3171.351665" y1="1426.37742" x2="3393.173344" y2="1204.100255" stroke="black" stroke-width="6.48"/>
<line x1="2804.16708" y1="1127.69402" x2="2804.16708" y2="1153.148746" stroke="black" stroke-width="6.48"/>
<line x1="2804.16708" y1="1153.148746" x2="2853.834836" y2="1153.148746" stroke="black" stroke-width="6.48"/>
<line x1="2853.834836" y1="1153.148746" x2="2853.834836" y2="1127.69402" stroke="black" stroke-width="6.48"/>
<line x1="2853.834836" y1="1127.69402" x2="2804.16708" y2="1127.69402" stroke="black" stroke-width="6.48"/>
<line x1="2853.834836" y1="1402.108373" x2="3101.55277" y2="1402.108373" stroke="black" stroke-width="6.48"/>
<line x1="2802.925386" y1="1402.729218" x2="2802.925386" y2="1428.183943" stroke="black" stroke-width="6.48"/>
<line x1="2802.925386" y1="1428.183943" x2="2852.593142" y2="1428.183943" stroke="black" stroke-width="6.48"/>
<line x1="2852.593142" y1="1428.183943" x2="2852.593142" y2="1402.729218" stroke="black" stroke-width="6.48"/>
<line x1="2852.593142" y1="1402.729218" x2="2802.925386" y2="1402.729218" stroke="black" stroke-width="6.48"/>
<path d="m 2851.972294,1153.148746 a 248.95962699999984,248.95962699999984 0 0 1 248.95962699999973,248.95962699999995" fill="none" stroke="black" stroke-width="6.48"/>
<line x1="2912.259859" y1="2000.094746" x2="2841.054714" y2="2176.333884" stroke="black" stroke-width="6.48"/>
<line x1="2841.054714" y1="2176.333884" x2="3271.07821" y2="2350.074434" stroke="black" stroke-width="6.48"/>
<line x1="3271.07821" y1="2350.074434" x2="3342.283355" y2="2173.835297" stroke="black" stroke-width="6.48"/>
<line x1="3342.283355" y1="2173.835297" x2="3320.253464" y2="2164.934653" stroke="black" stroke-width="6.48"/>
<line x1="3320.253464" y1="2164.934653" x2="3257.592937" y2="2320.025098" stroke="black" stroke-width="6.48"/>
<line x1="3257.592937" y1="2320.025098" x2="2872.51042" y2="2164.441856" stroke="black" stroke-width="6.48"/>
<line x1="2872.51042" y1="2164.441856" x2="2935.170947" y2="2009.351416" stroke="black" stroke-width="6.48"/>
<line x1="2935.170947" y1="2009.351416" x2="2912.259859" y2="2000.094746" stroke="black" stroke-width="6.48"/>
<line x1="2933.034793" y1="2014.638588" x2="3318.117311" y2="2170.221829" stroke="black" stroke-width="6.48"/>
<line x1="3125.491477" y1="2091.371" x2="3064.967107" y2="2241.174269" stroke="black" stroke-width="6.48"/>
<line x1="3468.567802" y1="1658.047504" x2="3691.482084" y2="1721.967145" stroke="black" stroke-width="6.48"/>
<line x1="3691.482084" y1="1721.967145" x2="3627.431456" y2="1945.338217" stroke="black" stroke-width="6.48"/>
<line x1="3627.431456" y1="1945.338217" x2="3404.517178" y2="1881.418572" stroke="black" stroke-width="6.48"/>
<line x1="3404.517178" y1="1881.418572" x2="3468.567802" y2="1658.047504" stroke="black" stroke-width="6.48"/>
<line x1="3468.241991" y1="1657.459728" x2="3627.431456" y2="1945.338217" stroke="black" stroke-width="6.48"/>
<line x1="3404.64816" y1="1880.961782" x2="3691.025291" y2="1721.836159" stroke="black" stroke-width="6.48"/>
<line x1="3079.021345" y1="1589.315879" x2="3065.967511" y2="1617.309914" stroke="black" stroke-width="6.48"/>
<line x1="3065.967511" y1="1617.309914" x2="3255.896275" y2="1705.875149" stroke="black" stroke-width="6.48"/>
<line x1="3255.896275" y1="1705.875149" x2="3268.950106" y2="1677.881113" stroke="black" stroke-width="6.48"/>
<line x1="3268.950106" y1="1677.881113" x2="3079.021345" y2="1589.315879" stroke="black" stroke-width="6.48"/>
<line x1="2992.866048" y1="1774.076508" x2="2979.812214" y2="1802.07054" stroke="black" stroke-width="6.48"/>
<line x1="2979.812214" y1="1802.07054" x2="3169.740974" y2="1890.635778" stroke="black" stroke-width="6.48"/>
<line x1="3169.740974" y1="1890.635778" x2="3182.794808" y2="1862.641742" stroke="black" stroke-width="6.48"/>
<line x1="3182.794808" y1="1862.641742" x2="2992.866048" y2="1774.076508" stroke="black" stroke-width="6.48"/>
<line x1="3066.168341" y1="1616.879236" x2="2992.866048" y2="1774.076508" stroke="black" stroke-width="6.48"/>
<line x1="3255.436573" y1="1704.612139" x2="3267.877457" y2="1739.775629" stroke="black" stroke-width="6.48"/>
<line x1="3216.666265" y1="1849.598377" x2="3181.732628" y2="1862.670766" stroke="black" stroke-width="6.48"/>
<line x1="3268.680768" y1="1738.052917" x2="3215.86295" y2="1851.321089" stroke="black" stroke-width="6.48"/>
<line x1="3106.451192" y1="1636.187764" x2="3033.1489" y2="1793.38504" stroke="black" stroke-width="6.48"/>
<line x1="6330.311971" y1="2152.962871" x2="6319.747652" y2="2181.988094" stroke="black" stroke-width="6.48"/>
<line x1="6319.747652" y1="2181.988094" x2="6516.672646" y2="2253.662932" stroke="black" stroke-width="6.48"/>
<line x1="6516.672646" y1="2253.662932" x2="6527.236961" y2="2224.637705" stroke="black" stroke-width="6.48"/>
<line x1="6527.236961" y1="2224.637705" x2="6330.311971" y2="2152.962871" stroke="black" stroke-width="6.48"/>
<line x1="6260.58747" y1="2344.529362" x2="6250.023155" y2="2373.554585" stroke="black" stroke-width="6.48"/>
<line x1="6250.023155" y1="2373.554585" x2="6446.948144" y2="2445.229418" stroke="black" stroke-width="6.48"/>
<line x1="6446.948144" y1="2445.229418" x2="6457.512463" y2="2416.204195" stroke="black" stroke-width="6.48"/>
<line x1="6457.512463" y1="2416.204195" x2="6260.58747" y2="2344.529362" stroke="black" stroke-width="6.48"/>
<line x1="6319.910178" y1="2181.541554" x2="6260.58747" y2="2344.529362" stroke="black" stroke-width="6.48"/>
<line x1="6516.10462" y1="2252.444792" x2="6531.562858" y2="2286.390175" stroke="black" stroke-width="6.48"/>
<line x1="6490.118221" y1="2400.25837" x2="6456.456853" y2="2416.325681" stroke="black" stroke-width="6.48"/>
<line x1="6532.212967" y1="2284.60401" x2="6489.468112" y2="2402.044538" stroke="black" stroke-width="6.48"/>
<line x1="6361.72259" y1="2197.265724" x2="6302.399882" y2="2360.253528" stroke="black" stroke-width="6.48"/>
<line x1="1317.271637" y1="1944.393559" x2="1334.543976" y2="1970.00087" stroke="black" stroke-width="6.48"/>
<line x1="1334.543976" y1="1970.00087" x2="1508.279774" y2="1852.81466" stroke="black" stroke-width="6.48"/>
<line x1="1508.279774" y1="1852.81466" x2="1491.007432" y2="1827.207342" stroke="black" stroke-width="6.48"/>
<line x1="1491.007432" y1="1827.207342" x2="1317.271637" y2="1944.393559" stroke="black" stroke-width="6.48"/>
<line x1="1431.269107" y1="2113.401845" x2="1448.54145" y2="2139.009163" stroke="black" stroke-width="6.48"/>
<line x1="1448.54145" y1="2139.009163" x2="1622.277245" y2="2021.82295" stroke="black" stroke-width="6.48"/>
<line x1="1622.277245" y1="2021.82295" x2="1605.004902" y2="1996.215631" stroke="black" stroke-width="6.48"/>
<line x1="1605.004902" y1="1996.215631" x2="1431.269107" y2="2113.401845" stroke="black" stroke-width="6.48"/>
<line x1="1334.278249" y1="1969.606915" x2="1431.269107" y2="2113.401845" stroke="black" stroke-width="6.48"/>
<line x1="1506.9604" y1="1852.558196" x2="1543.508917" y2="1860.004829" stroke="black" stroke-width="6.48"/>
<line x1="1611.269651" y1="1960.464301" x2="1604.482711" y2="1997.141051" stroke="black" stroke-width="6.48"/>
<line x1="1542.446003" y1="1858.42899" x2="1612.332565" y2="1962.040133" stroke="black" stroke-width="6.48"/>
<line x1="1371.576096" y1="1945.022404" x2="1468.566954" y2="2088.81734" stroke="black" stroke-width="6.48"/>
<line x1="3771.436309" y1="1165.903459" x2="3780.467086" y2="1136.365117" stroke="black" stroke-width="6.48"/>
<line x1="3780.467086" y1="1136.365117" x2="3580.060799" y2="1075.094766" stroke="black" stroke-width="6.48"/>
<line x1="3580.060799" y1="1075.094766" x2="3571.030026" y2="1104.633108" stroke="black" stroke-width="6.48"/>
<line x1="3571.030026" y1="1104.633108" x2="3771.436309" y2="1165.903459" stroke="black" stroke-width="6.48"/>
<line x1="3831.039439" y1="970.950406" x2="3840.070216" y2="941.412067" stroke="black" stroke-width="6.48"/>
<line x1="3840.070216" y1="941.412067" x2="3639.663932" y2="880.141712" stroke="black" stroke-width="6.48"/>
<line x1="3639.663932" y1="880.141712" x2="3630.633152" y2="909.680054" stroke="black" stroke-width="6.48"/>
<line x1="3630.633152" y1="909.680054" x2="3831.039439" y2="970.950406" stroke="black" stroke-width="6.48"/>
<line x1="3780.328151" y1="1136.819552" x2="3831.039439" y2="970.950406" stroke="black" stroke-width="6.48"/>
<line x1="3580.691803" y1="1076.28151" x2="3563.478187" y2="1043.191667" stroke="black" stroke-width="6.48"/>
<line x1="3598.906619" y1="927.310482" x2="3631.680961" y2="909.503489" stroke="black" stroke-width="6.48"/>
<line x1="3562.922444" y1="1045.009408" x2="3599.462358" y2="925.492734" stroke="black" stroke-width="6.48"/>
<line x1="3737.750098" y1="1123.305224" x2="3788.46139" y2="957.436074" stroke="black" stroke-width="6.48"/>
<line x1="2304.259812" y1="2279.57873" x2="2334.978605" y2="2282.807412" stroke="black" stroke-width="6.48"/>
<line x1="2334.978605" y1="2282.807412" x2="2356.883975" y2="2074.392227" stroke="black" stroke-width="6.48"/>
<line x1="2356.883975" y1="2074.392227" x2="2326.165182" y2="2071.163545" stroke="black" stroke-width="6.48"/>
<line x1="2326.165182" y1="2071.163545" x2="2304.259812" y2="2279.57873" stroke="black" stroke-width="6.48"/>
<line x1="2507.003838" y1="2300.888038" x2="2537.722627" y2="2304.116719" stroke="black" stroke-width="6.48"/>
<line x1="2537.722627" y1="2304.116719" x2="2559.627997" y2="2095.701534" stroke="black" stroke-width="6.48"/>
<line x1="2559.627997" y1="2095.701534" x2="2528.909208" y2="2092.472852" stroke="black" stroke-width="6.48"/>
<line x1="2528.909208" y1="2092.472852" x2="2507.003838" y2="2300.888038" stroke="black" stroke-width="6.48"/>
<line x1="2334.506008" y1="2282.757739" x2="2507.003838" y2="2300.888038" stroke="black" stroke-width="6.48"/>
<line x1="2355.839438" y1="2075.238076" x2="2385.036821" y2="2052.026888" stroke="black" stroke-width="6.48"/>
<line x1="2505.549002" y1="2064.693258" x2="2529.28246" y2="2093.467716" stroke="black" stroke-width="6.48"/>
<line x1="2383.146432" y1="2051.828201" x2="2507.439388" y2="2064.891946" stroke="black" stroke-width="6.48"/>
<line x1="2339.647776" y1="2238.383315" x2="2512.145606" y2="2256.51361" stroke="black" stroke-width="6.48"/>
<line x1="5701.828295" y1="1539.853812" x2="5710.34218" y2="1569.545262" stroke="black" stroke-width="6.48"/>
<line x1="5710.34218" y1="1569.545262" x2="5911.787257" y2="1511.781815" stroke="black" stroke-width="6.48"/>
<line x1="5911.787257" y1="1511.781815" x2="5903.273372" y2="1482.090365" stroke="black" stroke-width="6.48"/>
<line x1="5903.273372" y1="1482.090365" x2="5701.828295" y2="1539.853812" stroke="black" stroke-width="6.48"/>
<line x1="5758.019946" y1="1735.817389" x2="5766.533831" y2="1765.508839" stroke="black" stroke-width="6.48"/>
<line x1="5766.533831" y1="1765.508839" x2="5967.978908" y2="1707.745392" stroke="black" stroke-width="6.48"/>
<line x1="5967.978908" y1="1707.745392" x2="5959.465024" y2="1678.053942" stroke="black" stroke-width="6.48"/>
<line x1="5959.465024" y1="1678.053942" x2="5758.019946" y2="1735.817389" stroke="black" stroke-width="6.48"/>
<line x1="5710.211201" y1="1569.088472" x2="5758.019946" y2="1735.817389" stroke="black" stroke-width="6.48"/>
<line x1="5910.61171" y1="1511.130197" x2="5943.070289" y2="1529.506465" stroke="black" stroke-width="6.48"/>
<line x1="5976.47092" y1="1645.988314" x2="5958.682427" y2="1678.772696" stroke="black" stroke-width="6.48"/>
<line x1="5942.546356" y1="1527.6793" x2="5976.994853" y2="1647.815479" stroke="black" stroke-width="6.48"/>
<line x1="5753.280589" y1="1557.232873" x2="5801.089334" y2="1723.96179" stroke="black" stroke-width="6.48"/>
</g>
</svg>
