<?xml version="1.0"?>
<svg xmlns:xlink="http://www.w3.org/1999/xlink" width="6775.2" height="2858.4">
<image x="0" y="0" width="6775.2" height="2858.4" xlink:href="groundfilled-01.png"/>
<g style="stroke-linecap:round">
<line x1="1285.950406" y1="795.178109" x2="1311.346069" y2="795.178109" stroke="black" stroke-width="6.48"/>
<line x1="1311.346069" y1="795.178109" x2="1311.346069" y2="745.625592" stroke="black" stroke-width="6.48"/>
<line x1="1311.346069" y1="745.625592" x2="1285.950406" y2="745.625592" stroke="black" stroke-width="6.48"/>
<line x1="1285.950406" y1="745.625592" x2="1285.950406" y2="795.178109" stroke="black" stroke-width="6.48"/>
<line x1="1559.728062" y1="745.625592" x2="1559.728062" y2="498.48241" stroke="black" stroke-width="6.48"/>
<line x1="1560.347471" y1="796.416923" x2="1585.743134" y2="796.416923" stroke="black" stroke-width="6.48"/>
<line x1="1585.743134" y1="796.416923" x2="1585.743134" y2="746.864406" stroke="black" stroke-width="6.48"/>
<line x1="1585.743134" y1="746.864406" x2="1560.347471" y2="746.864406" stroke="black" stroke-width="6.48"/>
<line x1="1560.347471" y1="746.864406" x2="1560.347471" y2="796.416923" stroke="black" stroke-width="6.48"/>
<path d="m 1311.346069,747.483811 a 248.38199299999997,248.38199299999997 0 0 1 248.38199299999997,-248.38199299999997" fill="none" stroke="black" stroke-width="6.48"/>
<line x1="330.523178" y1="771.328966" x2="330.523178" y2="366.748985" stroke="black" stroke-width="6.48"/>
<line x1="330.523178" y1="366.748985" x2="258.15928" y2="366.748985" stroke="black" stroke-width="6.48"/>
<line x1="258.15928" y1="366.748985" x2="258.15928" y2="771.328966" stroke="black" stroke-width="6.48"/>
<line x1="258.15928" y1="771.328966" x2="330.523178" y2="771.328966" stroke="black" stroke-width="6.48"/>
<line x1="330.523178" y1="752.415674" x2="355.19269" y2="752.415674" stroke="black" stroke-width="6.48"/>
<line x1="355.19269" y1="752.415674" x2="355.19269" y2="386.484595" stroke="black" stroke-width="6.48"/>
<line x1="330.523178" y1="386.484595" x2="355.19269" y2="386.484595" stroke="black" stroke-width="6.48"/>
<line x1="3901.945176" y1="1169.331426" x2="3901.945176" y2="1428.837066" stroke="black" stroke-width="6.48"/>
<line x1="3901.945176" y1="1428.837066" x2="3941.9501" y2="1428.837066" stroke="black" stroke-width="6.48"/>
<line x1="3941.9501" y1="1428.837066" x2="3941.9501" y2="1169.331426" stroke="black" stroke-width="6.48"/>
<line x1="3941.9501" y1="1169.331426" x2="3901.945176" y2="1169.331426" stroke="black" stroke-width="6.48"/>
<line x1="3941.423719" y1="1193.544936" x2="3902.471557" y2="1193.544936" stroke="black" stroke-width="6.48"/>
<line x1="3941.423719" y1="1404.097178" x2="3900.892414" y2="1404.097178" stroke="black" stroke-width="6.48"/>
<line x1="3923.000399" y1="1193.018555" x2="3923.000399" y2="1403.570797" stroke="black" stroke-width="6.48"/>
<line x1="323.923298" y1="1882.957399" x2="323.923298" y2="1457.423957" stroke="black" stroke-width="6.48"/>
<line x1="323.923298" y1="1457.423957" x2="258.323825" y2="1457.423957" stroke="black" stroke-width="6.48"/>
<line x1="258.323825" y1="1457.423957" x2="258.323825" y2="1882.957399" stroke="black" stroke-width="6.48"/>
<line x1="258.323825" y1="1882.957399" x2="323.923298" y2="1882.957399" stroke="black" stroke-width="6.48"/>
<line x1="259.186975" y1="1843.252456" x2="323.060148" y2="1843.252456" stroke="black" stroke-width="6.48"/>
<line x1="259.186975" y1="1497.992054" x2="325.649603" y2="1497.992054" stroke="black" stroke-width="6.48"/>
<line x1="289.397261" y1="1844.115606" x2="289.397261" y2="1498.855205" stroke="black" stroke-width="6.48"/>
<line x1="2747.905531" y1="904.670665" x2="2721.68303" y2="904.670665" stroke="black" stroke-width="6.48"/>
<line x1="2721.68303" y1="904.670665" x2="2721.68303" y2="955.836522" stroke="black" stroke-width="6.48"/>
<line x1="2721.68303" y1="955.836522" x2="2747.905531" y2="955.836522" stroke="black" stroke-width="6.48"/>
<line x1="2747.905531" y1="955.836522" x2="2747.905531" y2="904.670665" stroke="black" stroke-width="6.48"/>
<line x1="2465.214181" y1="955.836522" x2="2465.214181" y2="1211.026223" stroke="black" stroke-width="6.48"/>
<line x1="2464.574609" y1="903.39152" x2="2438.352108" y2="903.39152" stroke="black" stroke-width="6.48"/>
<line x1="2438.352108" y1="903.39152" x2="2438.352108" y2="954.557374" stroke="black" stroke-width="6.48"/>
<line x1="2438.352108" y1="954.557374" x2="2464.574609" y2="954.557374" stroke="black" stroke-width="6.48"/>
<line x1="2464.574609" y1="954.557374" x2="2464.574609" y2="903.39152" stroke="black" stroke-width="6.48"/>
<path d="m 2721.68303,953.917801 a 256.4688490000001,256.4688490000001 0 0 1 -256.4688490000003,256.46884899999986" fill="none" stroke="black" stroke-width="6.48"/>
<line x1="2420.532389" y1="1427.858834" x2="2395.136725" y2="1427.858834" stroke="black" stroke-width="6.48"/>
<line x1="2395.136725" y1="1427.858834" x2="2395.136725" y2="1477.411351" stroke="black" stroke-width="6.48"/>
<line x1="2395.136725" y1="1477.411351" x2="2420.532389" y2="1477.411351" stroke="black" stroke-width="6.48"/>
<line x1="2420.532389" y1="1477.411351" x2="2420.532389" y2="1427.858834" stroke="black" stroke-width="6.48"/>
<line x1="2146.754732" y1="1477.411351" x2="2146.754732" y2="1724.554534" stroke="black" stroke-width="6.48"/>
<line x1="2146.135324" y1="1426.62002" x2="2120.73966" y2="1426.62002" stroke="black" stroke-width="6.48"/>
<line x1="2120.73966" y1="1426.62002" x2="2120.73966" y2="1476.172537" stroke="black" stroke-width="6.48"/>
<line x1="2120.73966" y1="1476.172537" x2="2146.135324" y2="1476.172537" stroke="black" stroke-width="6.48"/>
<line x1="2146.135324" y1="1476.172537" x2="2146.135324" y2="1426.62002" stroke="black" stroke-width="6.48"/>
<path d="m 2395.136725,1475.553132 a 248.38199299999997,248.38199299999997 0 0 1 -248.38199299999997,248.38199299999997" fill="none" stroke="black" stroke-width="6.48"/>
<line x1="759.081683" y1="692.136151" x2="1151.913683" y2="692.136151" stroke="black" stroke-width="6.48"/>
<line x1="1151.913683" y1="692.136151" x2="1151.913683" y2="507.600151" stroke="black" stroke-width="6.48"/>
<line x1="1151.913683" y1="507.600151" x2="759.081683" y2="507.600151" stroke="black" stroke-width="6.48"/>
<line x1="759.081683" y1="507.600151" x2="759.081683" y2="692.136151" stroke="black" stroke-width="6.48"/>
<line x1="918.273683" y1="507.600151" x2="918.273683" y2="426.816151" stroke="black" stroke-width="6.48"/>
<line x1="918.273683" y1="426.816151" x2="839.865683" y2="426.816151" stroke="black" stroke-width="6.48"/>
<line x1="839.865683" y1="426.816151" x2="839.865683" y2="507.600151" stroke="black" stroke-width="6.48"/>
<line x1="840.657683" y1="444.240151" x2="918.273683" y2="444.240151" stroke="black" stroke-width="6.48"/>
<line x1="839.865683" y1="773.712151" x2="918.273683" y2="773.712151" stroke="black" stroke-width="6.48"/>
<line x1="918.273683" y1="773.712151" x2="918.273683" y2="692.136151" stroke="black" stroke-width="6.48"/>
<line x1="839.865683" y1="692.136151" x2="839.865683" y2="773.712151" stroke="black" stroke-width="6.48"/>
<line x1="840.657683" y1="756.288151" x2="918.273683" y2="756.288151" stroke="black" stroke-width="6.48"/>
<line x1="1069.545683" y1="507.600151" x2="1069.545683" y2="426.816151" stroke="black" stroke-width="6.48"/>
<line x1="1069.545683" y1="426.816151" x2="991.137683" y2="426.816151" stroke="black" stroke-width="6.48"/>
<line x1="991.137683" y1="426.816151" x2="991.137683" y2="507.600151" stroke="black" stroke-width="6.48"/>
<line x1="991.137683" y1="444.240151" x2="1069.545683" y2="444.240151" stroke="black" stroke-width="6.48"/>
<line x1="991.137683" y1="773.712151" x2="1069.545683" y2="773.712151" stroke="black" stroke-width="6.48"/>
<line x1="1069.545683" y1="773.712151" x2="1069.545683" y2="692.136151" stroke="black" stroke-width="6.48"/>
<line x1="991.137683" y1="692.136151" x2="991.137683" y2="773.712151" stroke="black" stroke-width="6.48"/>
<line x1="991.137683" y1="756.288151" x2="1069.545683" y2="756.288151" stroke="black" stroke-width="6.48"/>
<line x1="1842.844367" y1="1905.589458" x2="2032.924367" y2="1905.589458" stroke="black" stroke-width="6.48"/>
<line x1="2032.924367" y1="1905.589458" x2="2032.924367" y2="1441.794258" stroke="black" stroke-width="6.48"/>
<line x1="2032.924367" y1="1441.794258" x2="1842.844367" y2="1441.794258" stroke="black" stroke-width="6.48"/>
<line x1="1842.844367" y1="1441.794258" x2="1842.844367" y2="1465.554258" stroke="black" stroke-width="6.48"/>
<line x1="1842.844367" y1="1465.554258" x2="2010.114767" y2="1465.554258" stroke="black" stroke-width="6.48"/>
<line x1="2010.114767" y1="1465.554258" x2="2010.114767" y2="1880.879058" stroke="black" stroke-width="6.48"/>
<line x1="2010.114767" y1="1880.879058" x2="1842.844367" y2="1880.879058" stroke="black" stroke-width="6.48"/>
<line x1="1842.844367" y1="1880.879058" x2="1842.844367" y2="1905.589458" stroke="black" stroke-width="6.48"/>
<line x1="1848.546767" y1="1880.879058" x2="1848.546767" y2="1465.554258" stroke="black" stroke-width="6.48"/>
<line x1="1847.596367" y1="1673.691858" x2="2009.164367" y2="1673.691858" stroke="black" stroke-width="6.48"/>
<line x1="1485.415969" y1="209.267824" x2="1707.693134" y2="209.267824" stroke="black" stroke-width="6.48"/>
<line x1="1707.693134" y1="209.267824" x2="1707.693134" y2="432.000475" stroke="black" stroke-width="6.48"/>
<line x1="1707.693134" y1="432.000475" x2="1485.415969" y2="432.000475" stroke="black" stroke-width="6.48"/>
<line x1="1485.415969" y1="432.000475" x2="1485.415969" y2="209.267824" stroke="black" stroke-width="6.48"/>
<line x1="1484.960483" y1="208.812337" x2="1707.693134" y2="432.000475" stroke="black" stroke-width="6.48"/>
<line x1="1485.415969" y1="431.544989" x2="1707.237648" y2="209.267824" stroke="black" stroke-width="6.48"/>
<line x1="2586.780558" y1="1803.366338" x2="2586.780558" y2="2194.614338" stroke="black" stroke-width="6.48"/>
<line x1="2586.780558" y1="2194.614338" x2="2761.020558" y2="2194.614338" stroke="black" stroke-width="6.48"/>
<line x1="2761.020558" y1="2194.614338" x2="2761.020558" y2="1803.366338" stroke="black" stroke-width="6.48"/>
<line x1="2761.020558" y1="1803.366338" x2="2586.780558" y2="1803.366338" stroke="black" stroke-width="6.48"/>
<line x1="2734.092558" y1="2119.374338" x2="2734.092558" y2="1835.046338" stroke="black" stroke-width="6.48"/>
<line x1="2734.092558" y1="1835.046338" x2="2616.084558" y2="1835.046338" stroke="black" stroke-width="6.48"/>
<line x1="2616.084558" y1="1835.046338" x2="2616.084558" y2="2124.918338" stroke="black" stroke-width="6.48"/>
<path d="m 2734.347982,2118.563766 a 63.35999941905905,63.35999941905905 0 0 1 -119.37432999999965,4.2938139999996565" fill="none" stroke="black" stroke-width="6.48"/>
<line x1="2105.522082" y1="1870.423027" x2="2105.522082" y2="2054.167027" stroke="black" stroke-width="6.48"/>
<line x1="2105.522082" y1="2054.167027" x2="2056.418082" y2="2054.167027" stroke="black" stroke-width="6.48"/>
<line x1="2056.418082" y1="1870.423027" x2="2056.418082" y2="2054.167027" stroke="black" stroke-width="6.48"/>
<line x1="2105.522082" y1="1870.423027" x2="2056.418082" y2="1870.423027" stroke="black" stroke-width="6.48"/>
<line x1="2133.242082" y1="1912.003027" x2="2105.522082" y2="1912.003027" stroke="black" stroke-width="6.48"/>
<line x1="2105.522082" y1="2011.003027" x2="2134.826082" y2="2011.003027" stroke="black" stroke-width="6.48"/>
<circle cx="2178.386082" cy="1960.711027" r="66.52800000000002" fill="none" stroke="black" stroke-width="6.48"/>
<circle cx="2178.386082" cy="1960.711027" r="57.02400000000001" fill="none" stroke="black" stroke-width="6.48"/>
<line x1="866.161015" y1="211.023364" x2="1259.404888" y2="211.023364" stroke="black" stroke-width="6.48"/>
<line x1="1263.360294" y1="210.027082" x2="1263.360294" y2="346.095857" stroke="black" stroke-width="6.48"/>
<line x1="866.625404" y1="347.247364" x2="1263.665635" y2="347.247364" stroke="black" stroke-width="6.48"/>
<line x1="867.360294" y1="211.718113" x2="867.360294" y2="346.98217" stroke="black" stroke-width="6.48"/>
<line x1="877.656294" y1="222.111364" x2="1001.208294" y2="222.111364" stroke="black" stroke-width="6.48"/>
<line x1="1001.208294" y1="222.111364" x2="1001.208294" y2="336.159364" stroke="black" stroke-width="6.48"/>
<line x1="877.656294" y1="336.159364" x2="1001.208294" y2="336.159364" stroke="black" stroke-width="6.48"/>
<line x1="877.656294" y1="222.111364" x2="877.656294" y2="336.159364" stroke="black" stroke-width="6.48"/>
<line x1="1020.216294" y1="229.239364" x2="1107.336294" y2="229.239364" stroke="black" stroke-width="6.48"/>
<line x1="1020.216294" y1="249.039364" x2="1107.336294" y2="249.039364" stroke="black" stroke-width="6.48"/>
<line x1="1021.008294" y1="269.631364" x2="1107.336294" y2="269.631364" stroke="black" stroke-width="6.48"/>
<line x1="1021.008294" y1="289.431364" x2="1107.336294" y2="289.431364" stroke="black" stroke-width="6.48"/>
<line x1="1020.216294" y1="309.231364" x2="1107.336294" y2="309.231364" stroke="black" stroke-width="6.48"/>
<line x1="1020.216294" y1="329.031364" x2="1107.336294" y2="329.031364" stroke="black" stroke-width="6.48"/>
<line x1="925.176294" y1="335.367364" x2="925.176294" y2="321.903364" stroke="black" stroke-width="6.48"/>
<line x1="925.176294" y1="321.903364" x2="955.272294" y2="321.903364" stroke="black" stroke-width="6.48"/>
<line x1="955.272294" y1="321.903364" x2="955.272294" y2="334.575364" stroke="black" stroke-width="6.48"/>
<line x1="1127.928294" y1="222.111364" x2="1251.480294" y2="222.111364" stroke="black" stroke-width="6.48"/>
<line x1="1251.480294" y1="222.111364" x2="1251.480294" y2="336.159364" stroke="black" stroke-width="6.48"/>
<line x1="1127.928294" y1="336.159364" x2="1251.480294" y2="336.159364" stroke="black" stroke-width="6.48"/>
<line x1="1127.928294" y1="222.111364" x2="1127.928294" y2="336.159364" stroke="black" stroke-width="6.48"/>
<line x1="1175.448294" y1="336.159364" x2="1175.448294" y2="322.695364" stroke="black" stroke-width="6.48"/>
<line x1="1175.448294" y1="322.695364" x2="1205.544294" y2="322.695364" stroke="black" stroke-width="6.48"/>
<line x1="1205.544294" y1="322.695364" x2="1205.544294" y2="335.367364" stroke="black" stroke-width="6.48"/>
<circle cx="986.952294" cy="236.367364" r="7.128000000000001" fill="none" stroke="black" stroke-width="6.48"/>
<circle cx="1237.224294" cy="237.159364" r="7.128000000000001" fill="none" stroke="black" stroke-width="6.48"/>
<line x1="2044.889399" y1="955.822399" x2="2267.166564" y2="955.822399" stroke="black" stroke-width="6.48"/>
<line x1="2267.166564" y1="955.822399" x2="2267.166564" y2="1178.555051" stroke="black" stroke-width="6.48"/>
<line x1="2267.166564" y1="1178.555051" x2="2044.889399" y2="1178.555051" stroke="black" stroke-width="6.48"/>
<line x1="2044.889399" y1="1178.555051" x2="2044.889399" y2="955.822399" stroke="black" stroke-width="6.48"/>
<line x1="2044.433912" y1="955.366913" x2="2267.166564" y2="1178.555051" stroke="black" stroke-width="6.48"/>
<line x1="2044.889399" y1="1178.099564" x2="2266.711078" y2="955.822399" stroke="black" stroke-width="6.48"/>
<line x1="333.766206" y1="1375.361078" x2="333.766206" y2="949.854546" stroke="black" stroke-width="6.48"/>
<line x1="333.766206" y1="949.854546" x2="257.659348" y2="949.854546" stroke="black" stroke-width="6.48"/>
<line x1="257.659348" y1="949.854546" x2="257.659348" y2="1375.361078" stroke="black" stroke-width="6.48"/>
<line x1="257.659348" y1="1375.361078" x2="333.766206" y2="1375.361078" stroke="black" stroke-width="6.48"/>
<line x1="333.766206" y1="1355.469512" x2="359.711726" y2="1355.469512" stroke="black" stroke-width="6.48"/>
<line x1="359.711726" y1="1355.469512" x2="359.711726" y2="970.610962" stroke="black" stroke-width="6.48"/>
<line x1="333.766206" y1="970.610962" x2="359.711726" y2="970.610962" stroke="black" stroke-width="6.48"/>
<line x1="3874.406537" y1="1514.726719" x2="3874.406537" y2="1940.260162" stroke="black" stroke-width="6.48"/>
<line x1="3874.406537" y1="1940.260162" x2="3940.00601" y2="1940.260162" stroke="black" stroke-width="6.48"/>
<line x1="3940.00601" y1="1940.260162" x2="3940.00601" y2="1514.726719" stroke="black" stroke-width="6.48"/>
<line x1="3940.00601" y1="1514.726719" x2="3874.406537" y2="1514.726719" stroke="black" stroke-width="6.48"/>
<line x1="3939.14286" y1="1554.431663" x2="3875.269687" y2="1554.431663" stroke="black" stroke-width="6.48"/>
<line x1="3939.14286" y1="1899.692064" x2="3872.680232" y2="1899.692064" stroke="black" stroke-width="6.48"/>
<line x1="3908.932574" y1="1553.568512" x2="3908.932574" y2="1898.828914" stroke="black" stroke-width="6.48"/>
<line x1="5077.047679" y1="2152.9516" x2="5285.216923" y2="1819.811171" stroke="black" stroke-width="6.48"/>
<line x1="5285.216923" y1="1819.811171" x2="5128.721521" y2="1722.021988" stroke="black" stroke-width="6.48"/>
<line x1="5128.721521" y1="1722.021988" x2="4920.552277" y2="2055.162416" stroke="black" stroke-width="6.48"/>
<line x1="4920.552277" y1="2055.162416" x2="5077.047679" y2="2152.9516" stroke="black" stroke-width="6.48"/>
<line x1="5004.911182" y1="1920.159947" x2="4936.402465" y2="1877.35095" stroke="black" stroke-width="6.48"/>
<line x1="4936.402465" y1="1877.35095" x2="4894.852558" y2="1943.844703" stroke="black" stroke-width="6.48"/>
<line x1="4894.852558" y1="1943.844703" x2="4963.361274" y2="1986.6537" stroke="black" stroke-width="6.48"/>
<line x1="4910.048644" y1="1952.406364" x2="4951.178856" y2="1886.584262" stroke="black" stroke-width="6.48"/>
<line x1="5189.037048" y1="2127.671579" x2="5230.586959" y2="2061.177822" stroke="black" stroke-width="6.48"/>
<line x1="5230.586959" y1="2061.177822" x2="5161.406591" y2="2017.94913" stroke="black" stroke-width="6.48"/>
<line x1="5119.856676" y1="2084.442883" x2="5189.037048" y2="2127.671579" stroke="black" stroke-width="6.48"/>
<line x1="5174.680356" y1="2117.766607" x2="5215.810568" y2="2051.94451" stroke="black" stroke-width="6.48"/>
<line x1="5085.07313" y1="1791.874015" x2="5016.564414" y2="1749.065018" stroke="black" stroke-width="6.48"/>
<line x1="5016.564414" y1="1749.065018" x2="4975.014506" y2="1815.558772" stroke="black" stroke-width="6.48"/>
<line x1="4975.014506" y1="1815.558772" x2="5043.523223" y2="1858.367772" stroke="black" stroke-width="6.48"/>
<line x1="4989.790894" y1="1824.792088" x2="5031.340805" y2="1758.298327" stroke="black" stroke-width="6.48"/>
<line x1="5269.198997" y1="1999.385644" x2="5310.748904" y2="1932.89189" stroke="black" stroke-width="6.48"/>
<line x1="5310.748904" y1="1932.89189" x2="5241.568532" y2="1889.663195" stroke="black" stroke-width="6.48"/>
<line x1="5200.018625" y1="1956.156952" x2="5269.198997" y2="1999.385644" stroke="black" stroke-width="6.48"/>
<line x1="5254.422606" y1="1990.152335" x2="5295.972517" y2="1923.658574" stroke="black" stroke-width="6.48"/>
<line x1="3482.561527" y1="1075.565016" x2="3691.926731" y2="1075.565016" stroke="black" stroke-width="6.48"/>
<line x1="3691.926731" y1="1075.565016" x2="3691.926731" y2="744.350612" stroke="black" stroke-width="6.48"/>
<line x1="3691.926731" y1="744.350612" x2="3482.561527" y2="744.350612" stroke="black" stroke-width="6.48"/>
<line x1="3482.561527" y1="744.350612" x2="3482.561527" y2="1075.565016" stroke="black" stroke-width="6.48"/>
<line x1="3481.888327" y1="803.592212" x2="3692.599927" y2="803.592212" stroke="black" stroke-width="6.48"/>
<line x1="3692.599927" y1="803.592212" x2="3483.234727" y2="853.409016" stroke="black" stroke-width="6.48"/>
<line x1="3483.234727" y1="853.409016" x2="3514.875131" y2="899.859816" stroke="black" stroke-width="6.48"/>
<line x1="3514.875131" y1="899.859816" x2="3692.599927" y2="802.919016" stroke="black" stroke-width="6.48"/>
<line x1="3227.565305" y1="1203.87267" x2="3449.84247" y2="1203.87267" stroke="black" stroke-width="6.48"/>
<line x1="3449.84247" y1="1203.87267" x2="3449.84247" y2="1426.605322" stroke="black" stroke-width="6.48"/>
<line x1="3449.84247" y1="1426.605322" x2="3227.565305" y2="1426.605322" stroke="black" stroke-width="6.48"/>
<line x1="3227.565305" y1="1426.605322" x2="3227.565305" y2="1203.87267" stroke="black" stroke-width="6.48"/>
<line x1="3227.109818" y1="1203.417184" x2="3449.84247" y2="1426.605322" stroke="black" stroke-width="6.48"/>
<line x1="3227.565305" y1="1426.149835" x2="3449.386984" y2="1203.87267" stroke="black" stroke-width="6.48"/>
<line x1="2804.16708" y1="1127.69402" x2="2804.16708" y2="1153.148746" stroke="black" stroke-width="6.48"/>
<line x1="2804.16708" y1="1153.148746" x2="2853.834836" y2="1153.148746" stroke="black" stroke-width="6.48"/>
<line x1="2853.834836" y1="1153.148746" x2="2853.834836" y2="1127.69402" stroke="black" stroke-width="6.48"/>
<line x1="2853.834836" y1="1127.69402" x2="2804.16708" y2="1127.69402" stroke="black" stroke-width="6.48"/>
<line x1="2853.834836" y1="1402.108373" x2="3101.55277" y2="1402.108373" stroke="black" stroke-width="6.48"/>
<line x1="2802.925386" y1="1402.729218" x2="2802.925386" y2="1428.183943" stroke="black" stroke-width="6.48"/>
<line x1="2802.925386" y1="1428.183943" x2="2852.593142" y2="1428.183943" stroke="black" stroke-width="6.48"/>
<line x1="2852.593142" y1="1428.183943" x2="2852.593142" y2="1402.729218" stroke="black" stroke-width="6.48"/>
<line x1="2852.593142" y1="1402.729218" x2="2802.925386" y2="1402.729218" stroke="black" stroke-width="6.48"/>
<path d="m 2851.972294,1153.148746 a 248.95962699999984,248.95962699999984 0 0 1 248.95962699999973,248.95962699999995" fill="none" stroke="black" stroke-width="6.48"/>
<line x1="3489.018696" y1="1954.267042" x2="3394.697447" y2="1742.418043" stroke="black" stroke-width="6.48"/>
<line x1="3394.697447" y1="1742.418043" x2="3606.980562" y2="1647.90351" stroke="black" stroke-width="6.48"/>
<line x1="3606.980562" y1="1647.90351" x2="3701.301815" y2="1859.752508" stroke="black" stroke-width="6.48"/>
<line x1="3701.301815" y1="1859.752508" x2="3489.018696" y2="1954.267042" stroke="black" stroke-width="6.48"/>
<line x1="3488.77786" y1="1954.894439" x2="3606.980562" y2="1647.90351" stroke="black" stroke-width="6.48"/>
<line x1="3700.867694" y1="1859.945792" x2="3394.890727" y2="1742.85216" stroke="black" stroke-width="6.48"/>
<line x1="3031.233131" y1="1589.315879" x2="3026.401182" y2="1619.823596" stroke="black" stroke-width="6.48"/>
<line x1="3026.401182" y1="1619.823596" x2="3233.384312" y2="1652.606503" stroke="black" stroke-width="6.48"/>
<line x1="3233.384312" y1="1652.606503" x2="3238.216261" y2="1622.098786" stroke="black" stroke-width="6.48"/>
<line x1="3238.216261" y1="1622.098786" x2="3031.233131" y2="1589.315879" stroke="black" stroke-width="6.48"/>
<line x1="2999.342279" y1="1790.666816" x2="2994.51033" y2="1821.17453" stroke="black" stroke-width="6.48"/>
<line x1="2994.51033" y1="1821.17453" x2="3201.493457" y2="1853.957441" stroke="black" stroke-width="6.48"/>
<line x1="3201.493457" y1="1853.957441" x2="3206.325406" y2="1823.44972" stroke="black" stroke-width="6.48"/>
<line x1="3206.325406" y1="1823.44972" x2="2999.342279" y2="1790.666816" stroke="black" stroke-width="6.48"/>
<line x1="3026.475518" y1="1619.354243" x2="2999.342279" y2="1790.666816" stroke="black" stroke-width="6.48"/>
<line x1="3232.594289" y1="1651.519127" x2="3254.245603" y2="1681.891268" stroke="black" stroke-width="6.48"/>
<line x1="3235.289501" y1="1801.575396" x2="3205.312369" y2="1823.770393" stroke="black" stroke-width="6.48"/>
<line x1="3254.542952" y1="1680.013872" x2="3234.992148" y2="1803.452792" stroke="black" stroke-width="6.48"/>
<line x1="3070.520039" y1="1626.811337" x2="3043.386792" y2="1798.123903" stroke="black" stroke-width="6.48"/>
<line x1="5971.165002" y1="1713.361903" x2="5960.600683" y2="1742.387126" stroke="black" stroke-width="6.48"/>
<line x1="5960.600683" y1="1742.387126" x2="6157.525676" y2="1814.061964" stroke="black" stroke-width="6.48"/>
<line x1="6157.525676" y1="1814.061964" x2="6168.089992" y2="1785.036737" stroke="black" stroke-width="6.48"/>
<line x1="6168.089992" y1="1785.036737" x2="5971.165002" y2="1713.361903" stroke="black" stroke-width="6.48"/>
<line x1="5901.440501" y1="1904.928394" x2="5890.876186" y2="1933.953617" stroke="black" stroke-width="6.48"/>
<line x1="5890.876186" y1="1933.953617" x2="6087.801175" y2="2005.62845" stroke="black" stroke-width="6.48"/>
<line x1="6087.801175" y1="2005.62845" x2="6098.365494" y2="1976.603227" stroke="black" stroke-width="6.48"/>
<line x1="6098.365494" y1="1976.603227" x2="5901.440501" y2="1904.928394" stroke="black" stroke-width="6.48"/>
<line x1="5960.763209" y1="1741.940586" x2="5901.440501" y2="1904.928394" stroke="black" stroke-width="6.48"/>
<line x1="6156.95765" y1="1812.843824" x2="6172.415888" y2="1846.789207" stroke="black" stroke-width="6.48"/>
<line x1="6130.971252" y1="1960.657402" x2="6097.309884" y2="1976.724713" stroke="black" stroke-width="6.48"/>
<line x1="6173.065998" y1="1845.003042" x2="6130.321142" y2="1962.44357" stroke="black" stroke-width="6.48"/>
<line x1="6002.575621" y1="1757.664756" x2="5943.252913" y2="1920.65256" stroke="black" stroke-width="6.48"/>
<line x1="909.965095" y1="1370.274919" x2="1274.192586" y2="1517.432375" stroke="black" stroke-width="6.48"/>
<line x1="1274.192586" y1="1517.432375" x2="1343.320988" y2="1346.333573" stroke="black" stroke-width="6.48"/>
<line x1="1343.320988" y1="1346.333573" x2="979.093498" y2="1199.176117" stroke="black" stroke-width="6.48"/>
<line x1="979.093498" y1="1199.176117" x2="909.965095" y2="1370.274919" stroke="black" stroke-width="6.48"/>
<line x1="1126.69375" y1="1258.810488" x2="1156.955969" y2="1183.90887" stroke="black" stroke-width="6.48"/>
<line x1="1156.955969" y1="1183.90887" x2="1084.257338" y2="1154.536715" stroke="black" stroke-width="6.48"/>
<line x1="1084.257338" y1="1154.536715" x2="1053.995119" y2="1229.438336" stroke="black" stroke-width="6.48"/>
<line x1="1078.464521" y1="1170.988654" x2="1150.428827" y2="1200.064118" stroke="black" stroke-width="6.48"/>
<line x1="954.307811" y1="1476.173088" x2="1027.006441" y2="1505.54524" stroke="black" stroke-width="6.48"/>
<line x1="1027.006441" y1="1505.54524" x2="1057.565347" y2="1429.90929" stroke="black" stroke-width="6.48"/>
<line x1="984.866717" y1="1400.537135" x2="954.307811" y2="1476.173088" stroke="black" stroke-width="6.48"/>
<line x1="961.569284" y1="1460.314523" x2="1033.533583" y2="1489.389988" stroke="black" stroke-width="6.48"/>
<line x1="1266.950707" y1="1315.47798" x2="1297.212926" y2="1240.576355" stroke="black" stroke-width="6.48"/>
<line x1="1297.212926" y1="1240.576355" x2="1224.514296" y2="1211.204203" stroke="black" stroke-width="6.48"/>
<line x1="1224.514296" y1="1211.204203" x2="1194.252073" y2="1286.105821" stroke="black" stroke-width="6.48"/>
<line x1="1217.98715" y1="1227.359455" x2="1290.685781" y2="1256.731607" stroke="black" stroke-width="6.48"/>
<line x1="1094.564765" y1="1532.840576" x2="1167.263399" y2="1562.212728" stroke="black" stroke-width="6.48"/>
<line x1="1167.263399" y1="1562.212728" x2="1197.822301" y2="1486.576778" stroke="black" stroke-width="6.48"/>
<line x1="1125.123671" y1="1457.204623" x2="1094.564765" y2="1532.840576" stroke="black" stroke-width="6.48"/>
<line x1="1101.09191" y1="1516.685324" x2="1173.790544" y2="1546.057476" stroke="black" stroke-width="6.48"/>
<line x1="1247.678978" y1="1608.340079" x2="1074.03224" y2="1685.652538" stroke="black" stroke-width="6.48"/>
<line x1="1074.03224" y1="1685.652538" x2="1262.674642" y2="2109.350581" stroke="black" stroke-width="6.48"/>
<line x1="1262.674642" y1="2109.350581" x2="1436.32138" y2="2032.038122" stroke="black" stroke-width="6.48"/>
<line x1="1436.32138" y1="2032.038122" x2="1426.65732" y2="2010.332279" stroke="black" stroke-width="6.48"/>
<line x1="1426.65732" y1="2010.332279" x2="1273.848192" y2="2078.367242" stroke="black" stroke-width="6.48"/>
<line x1="1273.848192" y1="2078.367242" x2="1104.920471" y2="1698.949116" stroke="black" stroke-width="6.48"/>
<line x1="1104.920471" y1="1698.949116" x2="1257.729599" y2="1630.914152" stroke="black" stroke-width="6.48"/>
<line x1="1257.729599" y1="1630.914152" x2="1247.678978" y2="1608.340079" stroke="black" stroke-width="6.48"/>
<line x1="1252.520194" y1="1633.233528" x2="1421.447915" y2="2012.651654" stroke="black" stroke-width="6.48"/>
<line x1="1337.659013" y1="1822.12191" x2="1190.059283" y2="1887.837502" stroke="black" stroke-width="6.48"/>
<line x1="2959.130574" y1="2022.712592" x2="2887.925429" y2="2198.95173" stroke="black" stroke-width="6.48"/>
<line x1="2887.925429" y1="2198.95173" x2="3317.948924" y2="2372.69228" stroke="black" stroke-width="6.48"/>
<line x1="3317.948924" y1="2372.69228" x2="3389.15407" y2="2196.453143" stroke="black" stroke-width="6.48"/>
<line x1="3389.15407" y1="2196.453143" x2="3367.124179" y2="2187.552499" stroke="black" stroke-width="6.48"/>
<line x1="3367.124179" y1="2187.552499" x2="3304.463652" y2="2342.642944" stroke="black" stroke-width="6.48"/>
<line x1="3304.463652" y1="2342.642944" x2="2919.381134" y2="2187.059702" stroke="black" stroke-width="6.48"/>
<line x1="2919.381134" y1="2187.059702" x2="2982.041662" y2="2031.969262" stroke="black" stroke-width="6.48"/>
<line x1="2982.041662" y1="2031.969262" x2="2959.130574" y2="2022.712592" stroke="black" stroke-width="6.48"/>
<line x1="2979.905508" y1="2037.256434" x2="3364.988026" y2="2192.839675" stroke="black" stroke-width="6.48"/>
<line x1="3172.362192" y1="2113.988846" x2="3111.837822" y2="2263.792115" stroke="black" stroke-width="6.48"/>
<line x1="2329.342992" y1="2048.519826" x2="2559.970228" y2="2072.759782" stroke="black" stroke-width="6.48"/>
<line x1="2559.970228" y1="2072.759782" x2="2535.680599" y2="2303.859614" stroke="black" stroke-width="6.48"/>
<line x1="2535.680599" y1="2303.859614" x2="2305.053364" y2="2279.619655" stroke="black" stroke-width="6.48"/>
<line x1="2305.053364" y1="2279.619655" x2="2329.342992" y2="2048.519826" stroke="black" stroke-width="6.48"/>
<line x1="2328.920068" y1="2047.997556" x2="2535.680599" y2="2303.859614" stroke="black" stroke-width="6.48"/>
<line x1="2305.103036" y1="2279.147058" x2="2559.49763" y2="2072.710109" stroke="black" stroke-width="6.48"/>
</g>
</svg>
